<?xml version="1.0" encoding="UTF-8"?>
<!DOCTYPE svg PUBLIC "-//W3C//DTD SVG 1.1//EN" "http://www.w3.org/Graphics/SVG/1.1/DTD/svg11.dtd">
<!-- Creator: CorelDRAW 2017 -->
<svg xmlns="http://www.w3.org/2000/svg" xml:space="preserve" width="3.3866mm" height="5.6726mm" version="1.1" style="shape-rendering:geometricPrecision; text-rendering:geometricPrecision; image-rendering:optimizeQuality; fill-rule:evenodd; clip-rule:evenodd"
viewBox="0 0 338.66 567.26"
 xmlns:xlink="http://www.w3.org/1999/xlink">
 <defs>
  <style type="text/css">
   <![CDATA[
    .fil0 {fill:#050708}
    .fil1 {fill:#DE2A8A}
    .fil2 {fill:#FEFEFE}
   ]]>
  </style>
 </defs>
 <g id="Capa_x0020_1">
  <metadata id="CorelCorpID_0Corel-Layer"/>
  <g id="_1529423736576">
   <g id="_1529423744640">
    <path class="fil0" d="M170.1 566.18c42.79,-54.97 122.43,-227.47 150.54,-303.9 59.89,-162.85 -41.46,-264.83 -158.33,-261.1 -139.66,4.46 -192.76,125.76 -144.77,263.07 12.95,37.06 115.29,264.86 152.56,301.93z"/>
    <path class="fil1" d="M65 277.68c14.65,-3.64 28.71,-8.83 43.23,-13.67 19.75,-6.6 20.53,2.3 40.36,6.54 101.09,21.59 162.73,-102.43 92.86,-171.57 -71.58,-70.85 -195.79,-3.87 -169.63,98.29 5.24,20.45 14.47,18.93 6.88,39.79 -4.93,13.54 -9.96,27.3 -13.7,40.62z"/>
    <path class="fil2" d="M112.62 150.62c8.35,21.59 22.54,33.31 30.61,47.55 19.79,8.05 57.99,46.41 87.42,10.64l3.01 -3.85c-3.7,-12.8 -6.95,-17.11 -32.11,-24.09 -6.46,7.61 -6.27,8.5 -15.32,15.14 -21.92,-9.17 -32.59,-17.33 -43.28,-36.63 4.61,-13.6 7.72,-3.68 8.35,-17.27 0.24,-5.19 -4.15,-14.71 -5.86,-20.84l-4.57 -8.76c-26.7,-0.1 -29.26,10.35 -28.25,38.11z"/>
   </g>
  </g>
 </g>
</svg>
