<?xml version="1.0" encoding="UTF-8"?>
<!DOCTYPE svg PUBLIC "-//W3C//DTD SVG 1.1//EN" "http://www.w3.org/Graphics/SVG/1.1/DTD/svg11.dtd">
<!-- Creator: CorelDRAW 2017 -->
<svg xmlns="http://www.w3.org/2000/svg" xml:space="preserve" width="13.4618mm" height="22.5212mm" version="1.1" style="shape-rendering:geometricPrecision; text-rendering:geometricPrecision; image-rendering:optimizeQuality; fill-rule:evenodd; clip-rule:evenodd"
viewBox="0 0 1346.18 2252.12"
 xmlns:xlink="http://www.w3.org/1999/xlink">
 <defs>
  <style type="text/css">
   <![CDATA[
    .fil2 {fill:#FEFEFE}
    .fil0 {fill:#050708}
    .fil1 {fill:#DE2A8A}
   ]]>
  </style>
 </defs>
 <g id="Capa_x0020_1">
  <metadata id="CorelCorpID_0Corel-Layer"/>
  <g id="_1529423744640">
   <path class="fil0" d="M676.17 2251.97c170.5,-219.05 487.87,-906.45 599.87,-1210.98 238.65,-648.93 -165.19,-1055.33 -630.89,-1040.45 -556.55,17.78 -768.14,501.14 -576.92,1048.28 51.63,147.7 459.41,1055.44 607.94,1203.15z"/>
   <path class="fil1" d="M257.38 1102.33c58.36,-14.49 114.4,-35.16 172.25,-54.46 78.7,-26.28 81.81,9.18 160.81,26.05 402.86,86.06 648.47,-408.17 370.06,-683.68 -285.26,-282.3 -780.18,-15.39 -675.94,391.69 20.86,81.47 57.66,75.41 27.39,158.55 -19.63,53.94 -39.67,108.77 -54.57,161.85z"/>
   <path class="fil2" d="M447.11 596.03c33.29,86.05 89.84,132.73 122,189.48 78.86,32.08 231.07,184.95 348.33,42.4l12.02 -15.35c-14.74,-50.98 -27.72,-68.16 -127.98,-95.99 -25.72,30.32 -24.96,33.87 -61.03,60.32 -87.36,-36.51 -129.88,-69.03 -172.45,-145.95 18.36,-54.2 30.76,-14.67 33.26,-68.8 0.95,-20.69 -16.55,-58.63 -23.36,-83.06l-18.21 -34.9c-106.39,-0.4 -116.6,41.25 -112.58,151.85z"/>
  </g>
 </g>
</svg>
