<?xml version="1.0" encoding="UTF-8"?>
<!DOCTYPE svg PUBLIC "-//W3C//DTD SVG 1.1//EN" "http://www.w3.org/Graphics/SVG/1.1/DTD/svg11.dtd">
<!-- Creator: CorelDRAW 2017 -->
<svg xmlns="http://www.w3.org/2000/svg" xml:space="preserve" width="66.2092mm" height="11.6838mm" version="1.1" style="shape-rendering:geometricPrecision; text-rendering:geometricPrecision; image-rendering:optimizeQuality; fill-rule:evenodd; clip-rule:evenodd"
viewBox="0 0 6620.92 1168.38"
 xmlns:xlink="http://www.w3.org/1999/xlink">
 <defs>
  <style type="text/css">
   <![CDATA[
    .fil3 {fill:#FEFEFE}
    .fil0 {fill:#050708}
    .fil2 {fill:#DE2A8A}
    .fil1 {fill:#050708;fill-rule:nonzero}
   ]]>
  </style>
 </defs>
 <g id="Capa_x0020_1">
  <metadata id="CorelCorpID_0Corel-Layer"/>
  <g id="_1529442228848">
   <path class="fil0" d="M2698.14 1129.95c85.55,-109.92 244.8,-454.83 300.99,-607.64 119.75,-325.62 -82.89,-529.54 -316.56,-522.07 -279.26,8.92 -385.43,251.46 -289.48,526 25.9,74.11 230.52,529.59 305.05,603.71z"/>
   <path class="fil1" d="M33.15 1120.75l0 -246.33c61.98,44.34 114.26,66.52 156.4,66.52 24.48,0 43.9,-8.39 58.23,-25.15 14.12,-16.49 21.18,-38.67 21.18,-65.98 0,-21.09 -5.74,-41.1 -16.99,-59.48 -11.47,-18.39 -31.1,-40.83 -59.12,-67.33 -67.72,-63.27 -116.69,-122.49 -147.13,-177.11 -30.44,-54.62 -45.44,-115.46 -45.44,-182.52 0,-91.39 23.38,-165.75 70.37,-223.35 46.98,-57.59 107.65,-86.52 182.2,-86.52 55.15,0 109.86,14.6 164.13,43.8l0 236.87c-58.02,-39.21 -105.23,-58.68 -141.41,-58.68 -24.26,0 -43.23,7.3 -57.35,21.63 -13.9,14.61 -20.95,34.62 -20.95,60.03 0,44.35 32.64,94.1 97.5,149.53 38.82,32.72 78.31,78.95 118.01,138.17 39.93,59.49 59.78,128.44 59.78,206.59 0,91.39 -26.03,166.83 -78.09,226.86 -52.28,60.03 -118.23,90.04 -198.53,90.04 -54.71,0 -108.97,-15.95 -162.79,-47.59zm525.13 -1037.78l396.18 0 0 224.97 -200.3 0 0 194.96 173.83 0 0 219.29 -173.83 0 0 192.52 201.62 0 0 225.78 -397.5 0 0 -1057.52zm950.42 807.94l0 251.2c-41.47,16.23 -78.53,24.61 -111.17,24.61 -113.39,0 -205.15,-52.19 -275.74,-156.56 -70.37,-104.38 -105.67,-241.47 -105.67,-411.55 0,-157.91 35.52,-288.24 106.77,-390.99 71.03,-102.75 160.81,-154.12 269.34,-154.12 42.36,0 81.18,7.03 116.47,20.82l0 251.74c-37.5,-15.15 -72.79,-22.99 -106.1,-22.99 -50.73,0 -93.09,28.67 -126.62,85.72 -33.53,57.05 -50.3,129.52 -50.3,217.67 0,95.18 16.77,170.34 50.52,225.51 33.97,55.16 78.97,82.74 135.45,82.74 27.57,0 59.99,-7.84 97.05,-23.8zm525.13 0l0 251.2c-41.47,16.23 -78.53,24.61 -111.17,24.61 -113.39,0 -205.15,-52.19 -275.74,-156.56 -70.37,-104.38 -105.67,-241.47 -105.67,-411.55 0,-157.91 35.52,-288.24 106.77,-390.99 71.03,-102.75 160.81,-154.12 269.34,-154.12 42.36,0 81.18,7.03 116.47,20.82l0 251.74c-37.5,-15.15 -72.79,-22.99 -106.1,-22.99 -50.73,0 -93.09,28.67 -126.62,85.72 -33.53,57.05 -50.3,129.52 -50.3,217.67 0,95.18 16.77,170.34 50.52,225.51 33.97,55.16 78.97,82.74 135.45,82.74 27.57,0 59.99,-7.84 97.05,-23.8zm79.1 -807.94l195.88 0 0 1057.52 -195.88 0 0 -1057.52zm981.53 0l197.64 0 248.83 610.01 -7.06 -114.11 0 -495.9 195.89 0 0 1057.52 -200.96 0 -243.75 -600.55 5.29 131.68 0 468.87 -195.88 0 0 -1057.52zm1090.72 0l228.09 0c92.21,0 165,28.93 218.38,87.07 53.61,58.13 80.3,137.09 80.3,236.86 0,51.38 -10.15,100.86 -30.44,148.45 -20.3,47.86 -49.86,83.82 -88.46,108.16l156.4 476.98 -206.91 0 -158.39 -481.58 -3.09 0 0 481.58 -195.88 0 0 -1057.52zm195.88 204.42l0 250.93c86.48,-1.9 129.93,-39.21 129.93,-111.68 0,-48.94 -10.15,-84.09 -30.22,-105.18 -19.85,-21.09 -53.16,-32.45 -99.71,-34.07zm705.36 879.33c-104.12,0 -183.75,-49.21 -238.46,-147.1 -54.71,-97.88 -82.06,-239.3 -82.06,-424.25 0,-170.62 27.57,-303.38 82.5,-398.84 54.92,-95.17 131.47,-143.03 229.64,-143.03 104.78,0 184.85,47.86 240.22,143.58 55.37,95.45 82.94,232 82.94,409.38 0,177.64 -27.13,315.28 -81.62,413.16 -54.7,97.89 -132.35,147.1 -233.16,147.1zm-7.06 -873.11c-70.59,0 -105.88,101.67 -105.88,305 0,130.88 8.82,218.49 26.69,262.29 17.86,43.81 43.89,65.7 77.87,65.7 36.61,0 64.85,-21.89 84.48,-65.7 19.41,-43.8 29.34,-129.79 29.34,-257.42 0,-206.58 -37.5,-309.87 -112.5,-309.87zm412.62 827.14l0 -246.33c61.99,44.34 114.27,66.52 156.41,66.52 24.48,0 43.9,-8.39 58.23,-25.15 14.12,-16.49 21.18,-38.67 21.18,-65.98 0,-21.09 -5.74,-41.1 -16.99,-59.48 -11.47,-18.39 -31.1,-40.83 -59.12,-67.33 -67.72,-63.27 -116.69,-122.49 -147.13,-177.11 -30.44,-54.62 -45.44,-115.46 -45.44,-182.52 0,-91.39 23.38,-165.75 70.37,-223.35 46.98,-57.59 107.65,-86.52 182.2,-86.52 55.15,0 109.86,14.6 164.12,43.8l0 236.87c-58.01,-39.21 -105.22,-58.68 -141.4,-58.68 -24.26,0 -43.23,7.3 -57.35,21.63 -13.9,14.61 -20.95,34.62 -20.95,60.03 0,44.35 32.64,94.1 97.5,149.53 38.82,32.72 78.31,78.95 118.01,138.17 39.93,59.49 59.78,128.44 59.78,206.59 0,91.39 -26.03,166.83 -78.09,226.86 -52.28,60.03 -118.23,90.04 -198.53,90.04 -54.7,0 -108.97,-15.95 -162.8,-47.59zm1128.67 19.74l-203.6 0 -32.87 -176.57 -206.7 0 -34.41 176.57 -199.63 0 228.75 -1057.52 219.71 0 228.75 1057.52zm-273.97 -366.66c-29.34,-157.37 -51.18,-307.17 -65.96,-449.39l-2.42 0c-15.66,146.28 -37.28,296.08 -65.3,449.39l133.68 0z"/>
   <path class="fil2" d="M2488 553.09c29.28,-7.27 57.4,-17.64 86.43,-27.33 39.49,-13.18 41.05,4.61 80.69,13.07 202.14,43.19 325.38,-204.81 185.68,-343.05 -143.13,-141.65 -391.47,-7.72 -339.16,196.54 10.46,40.88 28.93,37.84 13.74,79.56 -9.85,27.06 -19.91,54.57 -27.38,81.21z"/>
   <path class="fil3" d="M2583.2 299.04c16.71,43.18 45.08,66.6 61.22,95.08 39.57,16.09 115.94,92.8 174.78,21.27l6.03 -7.7c-7.4,-25.58 -13.91,-34.2 -64.22,-48.16 -12.9,15.21 -12.52,16.99 -30.62,30.26 -43.84,-18.32 -65.17,-34.63 -86.53,-73.23 9.21,-27.2 15.43,-7.36 16.69,-34.52 0.48,-10.38 -8.31,-29.42 -11.72,-41.68l-9.14 -17.51c-53.38,-0.21 -58.51,20.69 -56.49,76.19z"/>
  </g>
 </g>
</svg>
