<?xml version="1.0" encoding="UTF-8"?>
<!DOCTYPE svg PUBLIC "-//W3C//DTD SVG 1.1//EN" "http://www.w3.org/Graphics/SVG/1.1/DTD/svg11.dtd">
<!-- Creator: CorelDRAW 2017 -->
<svg xmlns="http://www.w3.org/2000/svg" xml:space="preserve" width="2.1166mm" height="4.9952mm" version="1.1" style="shape-rendering:geometricPrecision; text-rendering:geometricPrecision; image-rendering:optimizeQuality; fill-rule:evenodd; clip-rule:evenodd"
viewBox="0 0 211.66 499.52"
 xmlns:xlink="http://www.w3.org/1999/xlink">
 <defs>
  <style type="text/css">
   <![CDATA[
    .fil0 {fill:#070300}
   ]]>
  </style>
 </defs>
 <g id="Capa_x0020_1">
  <metadata id="CorelCorpID_0Corel-Layer"/>
  <path class="fil0" d="M44.58 338.51c0.48,3.82 -2.51,15.2 -5.9,18.16 -1.19,-12.55 -1.52,-33.88 0.78,-46.03l4.72 0.34 11.66 4.03c-1.22,3.51 -3.79,7.29 -5.69,11.14l-5.16 11.74c-0.06,-0.14 -0.26,0.43 -0.41,0.62zm31.83 -105.45c4.3,0.97 2.5,3.12 10.23,2.56l6.16 -1.17c-0.83,6.36 -2.25,7.58 -8.42,8.92l-8.19 6.94c-4.46,9.14 -14.17,18.75 -16.94,31.12 -5.02,-0.79 -9.65,-1.77 -11.67,-5.45 -3.01,-0.34 -6.14,-2.24 -8.47,-4.11 -1.18,-15.85 -0.46,-34.28 -0.07,-50.31 0.2,-8.1 0.16,-17.2 -0.33,-25.25 -0.77,-12.54 -2.23,-18.56 5.25,-19.26 0.53,3.73 0.07,9.12 1.11,12.17 1.09,3.19 3.51,3.95 5.85,5.79 6.62,2.53 10.26,2.53 11.41,10 -3.4,2.9 -4.73,1.93 -3.38,8.53 0.82,3.99 2.09,5.8 4.27,7.9l10.08 8.2c1.99,1.62 1.64,1.19 3.11,3.42zm-50.94 -224.47c2.09,6.16 0.05,33.75 0.43,43.08 0.03,7.8 0.88,15.36 0.54,23.45 -0.18,4.44 -0.27,7.23 -3.14,9.1 -2.26,1.47 -6.43,2.94 -8.72,2.95l-3.43 2.39c-3.52,1.8 -6.56,2.75 -9.85,5.85l2.48 4.18c1.76,0.92 3.79,2.15 5.55,3.28 1.12,0.71 1.56,0.92 2.53,1.85 1.83,1.75 0.81,0.75 1.77,2.15 2.87,1.01 7.31,5.91 8.66,9.67 3.02,2.73 4.54,8.65 3.88,14.17 -0.78,6.45 -0.7,10.27 -1.05,17l-4.35 1.45c-0.17,0.17 -0.4,0.38 -0.52,0.48l-7.5 5.51c-0.75,1.93 -1.78,3.77 -2.39,6.43 -1.84,7.19 -3.52,20.93 -2.74,28.22l1.55 5.83 3.69 -0.6 3.54 -3.01c0.37,-0.47 0.17,-0.94 1.74,-2.32 1.24,-1.09 1.2,-0.31 2.34,-0.86l2.85 -2.37 1.64 1.12 0.19 11.52c-0.3,9.81 0.72,76.08 -1.21,79.01 -5.3,0.72 -5.45,0.48 -9.22,3.03 -0.31,4.52 1.74,17.55 3.55,21.46 2.66,2.46 7.9,15.22 6.03,23.01 -1.85,7.72 -0.77,19.48 -0.24,28.34l-0.6 31.93c-0.93,21.37 -0.93,45.36 -0.19,66.75 -0.07,12.92 -1.61,34.29 0.63,46.06 6.26,2.06 9.35,1.06 13.27,-2.08l0.1 -48.64c0,-0.92 -0.04,-2.68 0.03,-3.51 0.09,-1.04 0,-0.6 0.19,-1.51 0.43,-2.03 -0.05,-0.63 0.7,-1.76 -1.51,-7.28 -0.26,-29.71 -0.08,-38.48 0.21,-10.68 -1.59,-30.2 -0.45,-39.09 2.3,0.84 3.7,1.84 5.88,3.36 6.34,0.65 7.06,-6.64 7.8,3.42 0.4,5.56 -0.7,11.12 -0.73,16.63 5.81,4.6 9.97,5.98 18.45,6.89 0.79,13.73 2.24,3.63 9.33,20.51 4.32,10.28 -0.29,15.35 -0.28,25.81 1.81,1.53 -0.1,0 1.91,1.34l10.55 6.89c2.39,1.1 2.64,0.67 4.65,2.43l4.33 -0.1c1.1,5.31 -0.31,12.1 -3.03,15.17 -2.86,5.73 -6.6,7.46 -11.82,10.64l-4.74 2.45c-1.03,1.97 -0.18,0.46 -1.23,1.87 0,0.01 -1.15,1.41 -1.26,1.53 -1.07,1.36 -1.09,1.08 -1.88,2.88 -1.14,4.59 -0.88,5.21 0.04,9.79l9.27 -0.28c11.41,0.3 31.66,-4.67 42.17,-8.15 16.14,-5.35 7.38,-27.05 8,-41 3.18,-2.42 11.53,-9.25 11.43,-15.08 -0.06,-3.99 -2.7,-5.94 -3.86,-9.15 -1.87,-5.15 0.95,-7.46 -1.31,-12.46 -1.03,-2.3 -9.63,-15.14 -9.63,-17.56 0,-4.5 3.56,-7.01 0.06,-12.12 -3.09,-4.49 -4.19,-3.7 -3.26,-10.52 3.05,3.35 4.91,10.46 18.33,12.79l1.27 0.2c9.73,1.08 15.78,-0.75 22.99,-3.26 1.53,-1.39 5.13,-2.68 8.02,-3.59 4.08,-1.27 6.01,-2.16 8.79,-4.18 4.25,-3.1 8.28,-10.17 8.95,-17.02 1.45,-10.16 0.11,-18.76 -3.55,-28.03 -5.3,-13.39 -14.25,-13.77 -17.88,-16.19 -6.59,-0.71 -8.47,-0.25 -14.78,1.36 -7.7,0.98 -3.62,3.93 -5.27,10.71 1.81,1.03 1.81,1.79 4.37,2.64 2.06,0.69 4.14,0.72 6.18,0.76 7.99,0.63 11.54,3.74 14.3,8.6 1.4,2.48 2.31,4.83 2.93,8.48l-0.4 9.95 -1.8 3.49c-1.83,3.86 -5.56,7.53 -10.72,8.75 -2.23,2.03 -9.27,4.33 -13.28,4.75 -1.58,0.11 -3.49,0.39 -5.03,0.19 -1.87,-0.25 -1.09,-0.22 -2.37,-0.64l-1.41 -0.72c-3.38,-0.74 -5.58,-3.66 -6.68,-7.15l4.98 -2.48c1.48,-2.22 2.39,-3.67 2.2,-7.76 -2.77,-6 -6.22,-11.53 -8.69,-17.67 -1.33,-3.3 -1.86,-6.73 -3.04,-9.99 -1.44,-3.95 -3.41,-4.31 -5.64,-7.44 -5.88,-8.28 -0.55,-11.6 1.02,-20.25 1.74,-9.65 0.42,-6.36 3.53,-9.58 5.02,-5.2 1.93,-4.67 1.98,-7.43 1.62,-5.1 9.48,-0.97 3.22,-20.33 -2.72,-8.41 0.35,-15.8 -0.03,-25.07l-5.59 0.13 -6.49 0.23c-2.49,-2.4 -1.93,-10.33 -2.08,-14.11l0.22 -3.44 31.17 0.12 1.81 0.16c5.87,0.11 10.32,1.26 13.81,-2.07 -1.8,-4.67 -4.27,-3.25 -6.12,-6.79l3.81 0.29c1.91,-1.55 29.82,-4.51 34.16,-4.66l1.08 -1.26c0.08,-0.39 0.31,-0.51 0.54,-0.69l-1.69 -0.3c-9.25,-5.85 -8.96,-3.58 -15.65,-6.42 -2.79,-1.18 -1.01,-0.39 -2.1,-1.12l-13.31 -3.44c2.23,-2.75 2.23,-1.74 6.27,-2.51 2.5,-0.47 3.91,-0.93 6.48,-1.27l1.24 -0.6c0.18,-0.08 0.43,-0.19 0.64,-0.27l11.46 -1.91c1.26,-1.13 -1.01,-0.21 2.54,-1.48 2.86,-1.02 2.84,0.4 7.16,-2.3l-0.18 -3.6c-4.27,-3.28 -12.97,-1.99 -17.21,-6.29 -4.28,-0.29 -8.64,-2.13 -13.06,-3.2 -6.88,-1.66 -10.6,-0.3 -14.01,-3.42 6.59,0.09 13.55,1.06 16.55,-2.76 -0.88,-1.36 2.58,-1.18 -2.63,-1.04l-4.6 0.24 -7.26 0.38c-2.34,0.02 -4.05,0.28 -6.46,0.42 -5.6,0.34 -5.55,0.04 -6.31,-2.54l-0.55 -4.48c-0.93,-11.33 -2.71,-10.65 -5.18,-18.19l-6.42 -7.67c-9.43,-12.48 -15.07,-8.64 -25.11,-13.28 -1.93,-8.54 3.93,-11.11 1.43,-29.62l-2.23 -10.17c-1.28,-3.59 -1.97,-5.66 -4.37,-7.75 -1.12,9.76 2.71,15.02 3.25,24.45 0.41,5.66 1.66,12.61 -3.24,15.34l-4.98 -21.45c-3.92,-5.2 1.06,-8.17 -11.64,-18.59 -7.49,-6.15 -14.97,-6.63 -23.38,-6.81l0.06 4.71 4.77 11.92c2.12,2.29 3.07,6.73 3.7,10.1 1.58,4.62 2.71,13.54 2.53,18.97l-10.55 -7.75c-0.04,-0.21 -0.18,-0.28 -0.24,-0.43 -2.33,-1.09 -1.04,-0.2 -3.07,-1.99 -0.54,-0.48 -1.46,-1.58 -2.08,-2.25 -1.61,-1.73 -2.87,-2.82 -3.77,-4.42 -1.52,-0.92 -0.62,-0.3 -1.82,-1.21l-1.91 -1.68c-0.09,-0.08 -0.36,-0.18 -0.42,-0.44 -0.06,-0.26 -0.28,-0.29 -0.42,-0.44 -8.19,-2.62 -9.26,-3.44 -19.62,-3.2l-0.13 -32.62c-0.05,-7.17 -0.64,-30.15 0.92,-35.43 -1.49,-2.49 -1.09,-5.64 -1.92,-8.24 -0.73,-2.31 -2.3,-4.05 -3.97,-4.54 -2.71,-0.8 -5.75,0.19 -6.95,1.58 -1.25,1.45 -1.27,3.31 -1.86,5.5l-0.55 1.48z"/>
 </g>
</svg>
