<?xml version="1.0" encoding="UTF-8"?>
<!DOCTYPE svg PUBLIC "-//W3C//DTD SVG 1.1//EN" "http://www.w3.org/Graphics/SVG/1.1/DTD/svg11.dtd">
<!-- Creator: CorelDRAW 2017 -->
<svg xmlns="http://www.w3.org/2000/svg" xml:space="preserve" width="11.8532mm" height="11.5992mm" version="1.1" style="shape-rendering:geometricPrecision; text-rendering:geometricPrecision; image-rendering:optimizeQuality; fill-rule:evenodd; clip-rule:evenodd"
viewBox="0 0 1185.32 1159.92"
 xmlns:xlink="http://www.w3.org/1999/xlink">
 <defs>
  <style type="text/css">
   <![CDATA[
    .fil0 {fill:#373435}
    .fil8 {fill:#070300}
    .fil6 {fill:#930400}
    .fil5 {fill:#B71801}
    .fil3 {fill:#E55E00}
    .fil2 {fill:#FE6F00}
    .fil7 {fill:#FEBE23}
    .fil4 {fill:#FF8E00}
    .fil1 {fill:url(#id0)}
   ]]>
  </style>
  <linearGradient id="id0" gradientUnits="userSpaceOnUse" x1="894.97" y1="234.28" x2="234.11" y2="162.23">
   <stop offset="0" style="stop-opacity:1; stop-color:#F7AA0F"/>
   <stop offset="1" style="stop-opacity:1; stop-color:#F7AA0F"/>
  </linearGradient>
 </defs>
 <g id="Capa_x0020_1">
  <metadata id="CorelCorpID_0Corel-Layer"/>
  <g id="_2673694681040">
   <ellipse class="fil0" cx="654.23" cy="534.59" rx="530.97" ry="530.98"/>
   <path class="fil1" d="M153.16 517.61l0 16.83c0.07,50.82 1.09,70.92 15.38,128.53 8.2,33.04 19.06,59.46 32.88,87.07 11.54,23.07 40.76,74.47 57.49,91.9 5.67,5.89 9.31,10.92 14.66,17.03 41.07,47.03 30.54,39.45 93.84,87.2 70.39,53.11 185.65,89.9 274.38,89.9 81.85,0 148.61,-10.07 220.22,-44.5 47.62,-22.88 88.74,-45.79 125.33,-82.86 6.78,-6.88 10.16,-8.73 16.96,-14.72 22.44,-19.78 36.38,-41.48 55.3,-64.65 50.42,-61.76 73.64,-132.55 89.12,-209.66 3.56,-17.76 5.67,-36.02 6.59,-54.48l0 -47.04c-1.68,-35.85 -6.9,-71.45 -13.72,-104.56 -8.34,-40.5 -32.09,-94.25 -52,-129.08 -53.79,-94.13 -126.28,-155.75 -221.56,-203.89 -74.5,-37.64 -141.72,-47.53 -233.02,-47.53 -47.81,0 -105.5,11.27 -150.27,28.46 -57.69,22.16 -125.13,57.46 -169.26,102.29l-16.77 14.92c-3.88,3.88 -2.31,3.15 -5.98,7.59 -28.19,34.1 -45.94,47.35 -72.43,95.06l-21.15 39.96c-23.76,51.42 -45.99,122.58 -45.99,196.23z"/>
   <path class="fil2" d="M1010.35 313.69c16.2,22.39 37.13,90.91 43.23,123.56 26.11,139.76 -33.12,276.07 -131.26,357.9 -143.06,119.28 -341.19,125.94 -488.02,5.06 85.43,-9.49 55.55,-23.19 110.69,-10.19 99.38,23.44 214.93,-2.47 297.88,-60.88 8.69,-6.12 14.29,-8 16.33,-18.21 -5.96,-5.83 -8.53,-7.71 -16.74,-10.93l-6.25 8.8c-5.01,8.22 1.63,2.83 -6.33,7.47 -4.71,2.75 -4.48,0.43 -10.74,5.02 -31.11,22.77 -12.64,10.17 -47.25,25.19 -31.43,13.64 -30.04,8.75 -44.5,14.39 -35.76,13.97 -31.54,9.43 -59.88,14.63 -14.33,2.63 -4.84,5.86 -37.07,6.75 -18.3,0.5 -40.32,-0.55 -58.81,-1.37 -58.87,-2.62 -17.79,-5.8 -49.61,-8.49 -16.62,-1.4 -30.26,-6.86 -49.46,-8.16l3.08 4.91c-12.32,5.98 -37.93,16.13 -52.38,17.81 -18.27,2.13 -57.85,-55.65 -67.57,-70.18 -6.34,-9.49 -20.5,-36.29 -26.69,-41.06 -1.52,4.65 1.53,2.29 -3.74,3.48 -9.45,-7.49 -16.52,-18.02 -23.4,-26.21 -4.65,-5.52 -1.16,-1.86 -6.88,-6.66 -12.2,-10.23 -45.11,-60.41 -52.96,-74.87l-0.3 8c-5.16,51.77 51.79,152.63 74.4,183.68 143.57,197.28 423.07,244.29 627.52,84.99 70.69,-55.08 127.95,-141.69 151.22,-236.06 18.66,-75.69 17.1,-153.2 -4.45,-227.41 -9.78,-33.68 -22.74,-63.07 -37.97,-91.11 -11.21,-20.63 -40.72,-65.1 -54.63,-76.06 -5.64,1.68 -2.54,-1.42 -4.65,2.47 11.83,20.01 8.32,19.4 13.12,45.02 1.92,10.25 6.87,16.4 6.59,36.51l-2.52 12.21z"/>
   <path class="fil3" d="M867.4 697.49l2.99 16.02c-1.86,1.05 3.34,4.98 -3.94,-0.04l-7.25 -2.54c-2.04,10.21 -7.64,12.09 -16.33,18.21 -82.95,58.41 -198.5,84.32 -297.88,60.88 -55.14,-13 -25.26,0.7 -110.69,10.19 146.83,120.88 344.96,114.22 488.02,-5.06 98.14,-81.83 157.37,-218.14 131.26,-357.9 -6.1,-32.65 -27.03,-101.17 -43.23,-123.56 -5.32,-12.63 -36.4,-61.61 -50.49,-67.3 5.64,20.11 16.06,37.66 22.96,57.86 21.18,61.93 23.31,141.68 8.07,203.94 -17.43,71.11 -66.88,152.01 -118.24,193.12l-5.25 -3.82z"/>
   <path class="fil4" d="M241.72 579.45l0.3 -8c7.85,14.46 40.76,64.64 52.96,74.87 5.72,4.8 2.23,1.14 6.88,6.66 6.88,8.19 13.95,18.72 23.4,26.21 5.27,-1.19 2.22,1.17 3.74,-3.48l-16.06 -39.08c13.26,9.22 73,97.29 159.62,127.6 19.2,1.3 32.84,6.76 49.46,8.16 31.82,2.69 -9.26,5.87 49.61,8.49 18.49,0.82 40.51,1.87 58.81,1.37 32.23,-0.89 22.74,-4.12 37.07,-6.75 28.34,-5.2 24.12,-0.66 59.88,-14.63 14.46,-5.64 13.07,-0.75 44.5,-14.39 34.61,-15.02 16.14,-2.42 47.25,-25.19 6.26,-4.59 6.03,-2.27 10.74,-5.02 7.96,-4.64 1.32,0.75 6.33,-7.47l6.25 -8.8c-2.05,-2.54 -15.16,-13.33 -18.43,-15.1 -12.98,-7.07 -32.46,21.89 -58.35,31.29l15.26 -58.45c-7.33,-7.88 -38.39,-31.34 -47.69,-36.02 1.93,4.47 1.63,2.8 0.74,7.51 -17.16,10.85 -29.15,21.91 -49.48,32.05 -13.28,6.62 -45.42,23.07 -60.96,19.03l6.57 33.16c3.98,4.32 3.03,2.43 4.83,9.24 -20.34,-7.31 -37.45,-29.16 -54.28,-34.69 -15.4,7.53 -34.88,28.41 -51.8,32.52l8.81 -36.6c-29.63,10.75 -91.63,-24.25 -112.37,-36.73 -84.03,-50.57 -131.13,-161.43 -108.95,-265.97 2.21,-10.39 5.09,-20.95 8.04,-30.52 3.94,-12.8 8.59,-19.5 12.14,-29.02 -9.78,-1.38 -21.56,-0.81 -29.98,-3.95 -14.01,-5.23 -8.51,-11.45 -23.14,-15.15 -18.49,50.44 -29.46,56.62 -41.96,123.78 -4.96,26.66 -15.96,134.67 0.26,153.07z"/>
   <path class="fil4" d="M536.31 91.26c-2.36,29.63 -3.23,47.39 -15.64,72.9 -16.37,33.66 -11.59,12.81 46.48,15.03 22.08,0.84 37.45,1.51 57.81,7.41 30.21,8.77 78.81,33.03 96.22,33.11 15.79,-19.19 47.05,-41.32 72.6,-56.09 38.2,-22.06 86.47,-31.26 92.48,-36.5 -37.21,-25.91 -112.64,-47.66 -160.72,-54.19 -50.82,-6.89 -149.08,-1.21 -189.23,18.33z"/>
   <path class="fil5" d="M751.24 614.03l-20.43 0.43c3.62,5.69 1.37,2.38 2.44,7.26 9.3,4.68 40.36,28.14 47.69,36.02l-15.26 58.45c25.89,-9.4 45.37,-38.36 58.35,-31.29 3.27,1.77 16.38,12.56 18.43,15.1 8.21,3.22 10.78,5.1 16.74,10.93l7.25 2.54c-6.13,-11.76 -13.98,-23.51 -20.89,-34.16 -6.21,-9.59 -16.44,-23.94 -20.57,-33.72l31.12 -10.55c-5.85,-11.41 -8.63,-4.38 -19.28,-2.65 -11.37,1.85 0.56,0.97 -9.22,-2.88 -11.21,-4.43 -1.69,0.99 -6.56,0.23 -1.05,-12.27 -3.27,-54.02 0.97,-66.49 0.14,-0.4 0.43,-1.13 0.75,-1.63l-4.17 -8.49 -24.58 59.52 -42.78 1.38z"/>
   <path class="fil5" d="M818.89 455.8c-10.17,-22.1 -35.52,-54.07 -43.45,-68.39 13.06,-5.49 33.4,-8.64 42.59,-17.41 -2.94,-2.08 -0.82,-1.68 -6.33,-1.98 -7.51,-0.41 -29.27,10.28 -36.48,4.62 -1.77,-1.4 -1.71,4.07 -2.47,-7.37 -0.61,-9.16 -2.48,-56.48 1.97,-59.3 -1.93,-4.85 1.91,-3.27 -3.33,-4.14 -2.8,9.74 -19.51,47.42 -24.22,52.8 -11.17,0.79 -22,0.95 -33.11,1.51l-22.57 1.65c-2.19,0.59 4.66,-6.53 -7.7,3.56 12.49,6.85 39.2,26.89 49.21,37.45l-14.85 60.02c21.07,-10.35 33.94,-23.79 52.55,-33.31 17.67,5.69 28,22.61 48.19,30.29z"/>
   <path class="fil6" d="M866.45 713.47c7.28,5.02 2.08,1.09 3.94,0.04l-2.99 -16.02 -12.52 -41.05c14.23,-12.54 45.95,-35.55 49.59,-42.2l-63.47 -0.74 -18.23 -51.88c-0.32,0.5 -0.61,1.23 -0.75,1.63 -4.24,12.47 -2.02,54.22 -0.97,66.49 4.87,0.76 -4.65,-4.66 6.56,-0.23 9.78,3.85 -2.15,4.73 9.22,2.88 10.65,-1.73 13.43,-8.76 19.28,2.65l-31.12 10.55c4.13,9.78 14.36,24.13 20.57,33.72 6.91,10.65 14.76,22.4 20.89,34.16z"/>
   <path class="fil6" d="M818.89 455.8l1.33 4.12c7.87,0.06 2.48,0.58 4.24,-2.24 -5.48,-19.95 -14.64,-41.52 -17.27,-61.79l16.25 -8.1c5.94,-11 24.14,-19.27 32.9,-30.01l-61.56 -2.28c-6.74,-11.35 -14.23,-41.82 -20.06,-49.53 -4.45,2.82 -2.58,50.14 -1.97,59.3 0.76,11.44 0.7,5.97 2.47,7.37 7.21,5.66 28.97,-5.03 36.48,-4.62 5.51,0.3 3.39,-0.1 6.33,1.98 -9.19,8.77 -29.53,11.92 -42.59,17.41 7.93,14.32 33.28,46.29 43.45,68.39z"/>
   <path class="fil5" d="M519.57 332.86l-9.01 27.85 -64.24 1.87c4.59,6.26 8.09,8.9 13.12,12.67 6.98,5.24 9.68,5.72 12.28,11.8 5.94,2.5 7.17,2.78 12.44,6.57 4.22,3.04 5.86,5.88 11.2,8.6 -0.81,18.73 -10.41,46.69 -15.94,62.32 11.78,-2.35 40.02,-26.66 53.75,-34.09 13.78,4.68 28.21,23.15 46.99,30.09 -9.12,-17.06 -38.87,-54.02 -43.45,-68.98 27.96,-6.93 51.84,-18.71 66.46,-22.93 12.63,-3.65 5.57,-1.92 8.96,0.32l7.12 -5.65 -63.38 -2.82 -20.63 -55.15c-0.32,0.51 -0.65,0.78 -0.79,1.64l-7.04 11.31c-4.59,6.81 -2.81,8.01 -7.84,14.58z"/>
   <path class="fil5" d="M537.68 683.94l-8.81 36.6c16.92,-4.11 36.4,-24.99 51.8,-32.52 16.83,5.53 33.94,27.38 54.28,34.69 -1.8,-6.81 -0.85,-4.92 -4.83,-9.24 -1.13,5.39 1.07,1.72 -2.13,4.65 -8.66,-16.56 -31.21,-56.03 -41.82,-67.1 8.66,-6 21.19,-8.23 31.42,-11.59 11.56,-3.8 23.23,-5.92 29.49,-14.59 -31.31,4.34 -40.41,15.93 -60.54,10.4 -0.24,-0.06 -1.01,-0.27 -1.19,-0.32 -0.18,-0.05 -1.01,0.1 -1.14,-0.33 -0.12,-0.42 -0.77,-0.12 -1.21,-0.32l1.6 -65.67 -4.51 -9.69c-4.98,15.55 -15.77,47.48 -24.31,58.85l-61.21 2.86c12.37,13.94 33.81,26.93 48.08,40.82l-4.97 22.5z"/>
   <path class="fil7" d="M336.54 321.7c4.29,5.19 3.12,10.22 10.11,19.28 5.62,7.26 10.46,11.48 15.13,17.38 -3.47,2.83 -1.32,-0.47 -5.05,5.9l9.03 -0.2 4.06 5.83c1.32,-0.86 2.9,-0.1 5,-3 0.37,0.41 0.84,0.58 1,1.32 0.7,3.32 0.99,1.43 2.04,2.59 14.37,16.07 74.04,27.27 93.86,16.25 -2.6,-6.08 -5.3,-6.56 -12.28,-11.8 -5.03,-3.77 -8.53,-6.41 -13.12,-12.67l64.24 -1.87 9.01 -27.85c-44.02,17.13 -76.41,31.51 -119.42,4.31 -31.59,-19.96 -8.18,-35.01 -55.75,-20.63 -9.53,2.89 -2.12,0.45 -4.52,1.98 -3.33,2.1 -1.98,1.43 -3.34,3.18z"/>
   <path class="fil3" d="M329 675.71c6.19,4.77 20.35,31.57 26.69,41.06 9.72,14.53 49.3,72.31 67.57,70.18 14.45,-1.68 40.06,-11.83 52.38,-17.81l-3.08 -4.91c-86.62,-30.31 -146.36,-118.38 -159.62,-127.6l16.06 39.08z"/>
   <path class="fil6" d="M630.12 713.47l-6.57 -33.16 -7.06 -21.94c13.78,-6.35 41,-27.54 49.79,-37.62l-62.92 -2.43 -18.76 -49.72 -1.6 65.67c0.44,0.2 1.09,-0.1 1.21,0.32 0.13,0.43 0.96,0.28 1.14,0.33 0.18,0.05 0.95,0.26 1.19,0.32 20.13,5.53 29.23,-6.06 60.54,-10.4 -6.26,8.67 -17.93,10.79 -29.49,14.59 -10.23,3.36 -22.76,5.59 -31.42,11.59 10.61,11.07 33.16,50.54 41.82,67.1 3.2,-2.93 1,0.74 2.13,-4.65z"/>
   <path class="fil6" d="M580.16 460.54l5.61 3.74 -16.12 -60.87c11.88,-12.22 34.46,-22.2 42.48,-34.46 -3.39,-2.24 3.67,-3.97 -8.96,-0.32 -14.62,4.22 -38.5,16 -66.46,22.93 4.58,14.96 34.33,51.92 43.45,68.98z"/>
   <path class="fil8" d="M100.82 786.49c1.11,8.87 -5.84,35.36 -13.72,42.25 -2.79,-29.21 -3.55,-78.83 1.8,-107.13l10.99 0.8 27.13 9.4c-2.84,8.16 -8.82,16.95 -13.25,25.91l-11.99 27.33c-0.15,-0.33 -0.61,0.98 -0.96,1.44zm74.07 -245.38c9.99,2.24 5.8,7.24 23.79,5.94l14.34 -2.72c-1.93,14.8 -5.23,17.65 -19.6,20.77l-19.05 16.14c-10.38,21.26 -32.97,43.62 -39.41,72.42 -11.68,-1.84 -22.45,-4.12 -27.17,-12.7 -6.99,-0.79 -14.29,-5.19 -19.7,-9.56 -2.74,-36.87 -1.07,-79.77 -0.16,-117.05 0.46,-18.86 0.36,-40.03 -0.78,-58.77 -1.79,-29.18 -5.17,-43.17 12.23,-44.8 1.23,8.66 0.16,21.22 2.57,28.3 2.54,7.44 8.17,9.19 13.61,13.49 15.41,5.87 23.89,5.89 26.56,23.27 -7.9,6.75 -11.01,4.48 -7.86,19.83 1.91,9.29 4.85,13.51 9.93,18.4l23.45 19.07c4.64,3.78 3.83,2.77 7.25,7.97zm-118.53 -522.33c4.85,14.33 0.1,78.52 0.98,100.24 0.07,18.14 2.06,35.74 1.27,54.57 -0.43,10.32 -0.62,16.82 -7.31,21.17 -5.25,3.42 -14.96,6.83 -20.3,6.85l-7.96 5.57c-8.19,4.2 -15.28,6.41 -22.93,13.61l5.78 9.73c4.09,2.14 8.82,5.01 12.91,7.63 2.6,1.66 3.62,2.15 5.88,4.31 4.26,4.07 1.89,1.75 4.11,5 6.7,2.37 17.03,13.77 20.16,22.51 7.03,6.36 10.57,20.14 9.02,32.97 -1.8,15 -1.61,23.91 -2.44,39.56l-10.11 3.37c-0.39,0.39 -0.93,0.88 -1.22,1.12l-17.45 12.83c-1.75,4.48 -4.15,8.77 -5.56,14.96 -4.28,16.72 -8.2,48.7 -6.37,65.67l3.6 13.55 8.6 -1.4 8.23 -6.99c0.85,-1.11 0.39,-2.19 4.05,-5.41 2.87,-2.53 2.79,-0.72 5.45,-2l6.63 -5.52 3.81 2.62 0.45 26.81c-0.7,22.82 1.67,177.02 -2.82,183.85 -12.35,1.66 -12.69,1.1 -21.47,7.04 -0.72,10.51 4.07,40.83 8.27,49.94 6.2,5.71 18.39,35.41 14.04,53.54 -4.31,17.98 -1.8,45.33 -0.56,65.95l-1.4 74.3c-2.17,49.73 -2.17,105.54 -0.44,155.33 -0.17,30.06 -3.74,79.77 1.47,107.16 14.55,4.81 21.74,2.48 30.88,-4.84l0.22 -113.17c0.01,-2.14 -0.1,-6.24 0.07,-8.16 0.21,-2.44 0,-1.41 0.45,-3.53 0.99,-4.73 -0.12,-1.46 1.62,-4.09 -3.5,-16.95 -0.6,-69.14 -0.19,-89.55 0.5,-24.83 -3.7,-70.25 -1.03,-90.95 5.34,1.96 8.61,4.29 13.66,7.81 14.77,1.53 16.45,-15.44 18.16,7.98 0.94,12.92 -1.62,25.87 -1.69,38.68 13.5,10.72 23.2,13.92 42.92,16.03 1.85,31.96 5.22,8.46 21.72,47.73 10.05,23.92 -0.68,35.71 -0.66,60.05 4.21,3.56 -0.22,0.02 4.45,3.12l24.54 16.04c5.57,2.55 6.14,1.56 10.83,5.66l10.07 -0.24c2.57,12.35 -0.71,28.15 -7.06,35.31 -6.65,13.32 -15.35,17.36 -27.49,24.75l-11.03 5.69c-2.39,4.59 -0.43,1.07 -2.86,4.37 -0.01,0.02 -2.69,3.26 -2.93,3.56 -2.5,3.15 -2.55,2.51 -4.39,6.69 -2.65,10.68 -2.03,12.12 0.11,22.78l21.56 -0.65c26.54,0.69 73.67,-10.86 98.14,-18.97 37.56,-12.45 17.17,-62.94 18.61,-95.4 7.41,-5.62 26.82,-21.51 26.6,-35.08 -0.15,-9.29 -6.28,-13.83 -8.99,-21.3 -4.34,-11.99 2.22,-17.36 -3.04,-29 -2.41,-5.33 -22.41,-35.23 -22.41,-40.86 0,-10.45 8.29,-16.3 0.13,-28.19 -7.17,-10.45 -9.73,-8.61 -7.57,-24.48 7.09,7.8 11.43,24.34 42.65,29.76l2.95 0.46c22.64,2.51 36.72,-1.74 53.5,-7.59 3.55,-3.22 11.93,-6.23 18.66,-8.34 9.48,-2.97 13.99,-5.02 20.45,-9.74 9.88,-7.21 19.26,-23.66 20.83,-39.59 3.37,-23.64 0.25,-43.65 -8.27,-65.22 -12.32,-31.18 -33.16,-32.06 -41.59,-37.69 -15.34,-1.64 -19.72,-0.57 -34.39,3.17 -17.92,2.27 -8.44,9.14 -12.28,24.92 4.22,2.41 4.23,4.17 10.17,6.15 4.8,1.61 9.65,1.67 14.39,1.76 18.58,1.48 26.86,8.7 33.26,20.02 3.26,5.77 5.38,11.24 6.83,19.72l-0.94 23.17 -4.19 8.12c-4.24,8.97 -12.92,17.51 -24.93,20.35 -5.19,4.74 -21.58,10.09 -30.91,11.06 -3.68,0.25 -8.11,0.91 -11.71,0.43 -4.33,-0.57 -2.53,-0.5 -5.51,-1.47l-3.28 -1.69c-7.85,-1.71 -12.97,-8.52 -15.53,-16.63l11.58 -5.78c3.44,-5.15 5.55,-8.54 5.12,-18.06 -6.45,-13.96 -14.47,-26.82 -20.23,-41.11 -3.09,-7.67 -4.31,-15.66 -7.07,-23.23 -3.35,-9.2 -7.94,-10.04 -13.12,-17.33 -13.68,-19.27 -1.27,-27 2.37,-47.12 4.06,-22.45 0.97,-14.8 8.21,-22.29 11.69,-12.11 4.5,-10.88 4.61,-17.29 3.77,-11.86 22.06,-2.26 7.49,-47.31 -6.32,-19.57 0.81,-36.76 -0.07,-58.34l-13.01 0.3 -15.1 0.54c-5.78,-5.59 -4.49,-24.04 -4.84,-32.84l0.51 -8 72.54 0.28 4.2 0.37c13.66,0.26 24.03,2.93 32.14,-4.82 -4.18,-10.86 -9.93,-7.54 -14.24,-15.78l8.87 0.66c4.44,-3.59 69.38,-10.49 79.49,-10.84l2.51 -2.93c0.18,-0.9 0.72,-1.19 1.25,-1.61l-3.92 -0.69c-21.54,-13.61 -20.85,-8.33 -36.43,-14.94 -6.48,-2.75 -2.35,-0.9 -4.88,-2.61l-30.98 -8.01c5.2,-6.39 5.21,-4.05 14.61,-5.83 5.8,-1.1 9.09,-2.16 15.06,-2.95l2.89 -1.41c0.43,-0.17 1.01,-0.44 1.5,-0.61l26.65 -4.45c2.94,-2.64 -2.33,-0.5 5.91,-3.45 6.66,-2.38 6.61,0.93 16.67,-5.35l-0.41 -8.37c-9.94,-7.65 -30.2,-4.65 -40.06,-14.65 -9.95,-0.66 -20.11,-4.94 -30.38,-7.43 -16.02,-3.87 -24.66,-0.72 -32.61,-7.97 15.33,0.21 31.54,2.46 38.51,-6.43 -2.04,-3.15 6,-2.73 -6.11,-2.4l-10.71 0.54 -16.88 0.9c-5.45,0.03 -9.43,0.64 -15.05,0.97 -13.03,0.78 -12.91,0.1 -14.68,-5.9l-1.28 -10.43c-2.15,-26.37 -6.31,-24.79 -12.05,-42.34l-14.93 -17.85c-21.94,-29.03 -35.07,-20.09 -58.43,-30.9 -4.5,-19.87 9.14,-25.86 3.33,-68.93l-5.2 -23.66c-2.98,-8.35 -4.57,-13.17 -10.17,-18.03 -2.59,22.71 6.32,34.94 7.57,56.9 0.95,13.17 3.85,29.34 -7.55,35.69l-11.57 -49.92c-9.14,-12.1 2.45,-19.01 -27.1,-43.26 -17.43,-14.3 -34.83,-15.43 -54.41,-15.84l0.15 10.95 11.1 27.75c4.92,5.33 7.13,15.66 8.61,23.49 3.66,10.75 6.3,31.52 5.88,44.17l-24.56 -18.06c-0.09,-0.49 -0.42,-0.64 -0.56,-1 -5.4,-2.53 -2.42,-0.45 -7.14,-4.62 -1.26,-1.11 -3.39,-3.68 -4.84,-5.24 -3.75,-4.03 -6.68,-6.57 -8.77,-10.28 -3.53,-2.15 -1.44,-0.71 -4.24,-2.83l-4.44 -3.9c-0.21,-0.19 -0.83,-0.41 -0.97,-1.02 -0.15,-0.61 -0.65,-0.68 -0.97,-1.02 -19.07,-6.11 -21.55,-8 -45.67,-7.45l-0.3 -75.9c-0.11,-16.68 -1.49,-70.16 2.15,-82.44 -3.46,-5.8 -2.54,-13.13 -4.46,-19.17 -1.72,-5.39 -5.37,-9.43 -9.25,-10.58 -6.31,-1.86 -13.39,0.45 -16.16,3.68 -2.91,3.38 -2.96,7.7 -4.34,12.8l-1.27 3.45z"/>
  </g>
 </g>
</svg>
