<?xml version="1.0" encoding="UTF-8"?>
<!DOCTYPE svg PUBLIC "-//W3C//DTD SVG 1.1//EN" "http://www.w3.org/Graphics/SVG/1.1/DTD/svg11.dtd">
<!-- Creator: CorelDRAW 2017 -->
<svg xmlns="http://www.w3.org/2000/svg" xml:space="preserve" width="5.1646mm" height="11.5992mm" version="1.1" style="shape-rendering:geometricPrecision; text-rendering:geometricPrecision; image-rendering:optimizeQuality; fill-rule:evenodd; clip-rule:evenodd"
viewBox="0 0 516.46 1159.92"
 xmlns:xlink="http://www.w3.org/1999/xlink">
 <defs>
  <style type="text/css">
   <![CDATA[
    .str0 {stroke:#282829;stroke-width:7.62;stroke-miterlimit:22.9256}
    .fil4 {fill:#FEFEFE}
    .fil0 {fill:#373435}
    .fil1 {fill:#ED3237}
    .fil3 {fill:#282829}
    .fil2 {fill:#282829;fill-opacity:0.521569}
   ]]>
  </style>
 </defs>
 <g id="Capa_x0020_1">
  <metadata id="CorelCorpID_0Corel-Layer"/>
  <g id="_2673701591120">
   <path class="fil0" d="M403.51 792.24c-1.51,11.65 -1.76,11.65 -11.28,16.21 -6.67,3.2 -9.33,5.15 -17.51,7.19 1.33,-12.23 1.12,-18.11 -1.87,-28.94l-13.52 -25.37c23.66,12.98 46.15,-3.47 44.18,30.91zm-210.14 -614.67l-1.5 -11.7 15.1 0.6c31.5,1.25 47.02,19.09 55.99,40.34 5.3,-6.83 10.74,-13.51 16.33,-20.05 0.18,-1.69 0.47,-3.39 0.86,-5.09 0.66,0.62 1.27,1.27 1.87,1.92 3.13,-3.6 6.29,-7.16 9.49,-10.67l5.04 -5.45c-8.76,-12.99 -22.17,-19.11 -41.25,-7.49 -5.09,-2.95 -7.09,-5.07 -11.93,-8.03 -5.02,-3.11 -12.09,-7.27 -19.45,-9.48 -11.07,-3.33 -13.32,0.31 -22.03,-4.92l-24.93 1.36c-8.74,4.55 -13.36,8.86 -14.89,20.68 -0.28,0.47 -0.49,1.23 -0.63,1.53l-1.43 3.09c-4.04,7 -19.45,18.14 -22.78,19.35 1.27,-33.41 -1.21,-67.59 -0.06,-101.14 0.75,-21.75 2.97,-25.09 -3.24,-46.44 -5.07,-17.42 -11.74,-18.38 -22.7,-27.82 -11.82,-1.03 -30.56,-5.02 -43.97,13.24 -12.35,16.83 -8.47,33.99 -8.37,48.95 0.28,42.29 -0.06,84.74 -0.06,127.05 -14.44,3.36 -60.11,23.82 -53.91,48.81 4.54,18.25 16.71,23.84 24.11,28.89 21.39,14.57 32.46,26.99 28.99,50.76 -2.09,14.18 0.83,11.45 -7.91,18.53 -14.12,11.45 -17.87,10.07 -23.91,31.19 -10.64,37.3 -10.37,61.85 -3.31,95.45 14.72,14.36 10.62,12.99 34.77,12.59 4.46,31.56 1.59,104.49 -1.22,137.76 -10.74,9.02 -18.6,7.17 -21.38,21.84 -2.16,11.36 0.5,29.09 2.73,40 7.85,38.33 21.37,29.61 16.6,65.11 -0.92,11.31 -3.64,14.6 -2.82,28.7 0.66,11.24 2.58,14.72 2.52,28.74 -0.08,20.81 0.05,41.6 0.02,62.41l-2.47 59.81c0,42.69 -2.53,163.6 1.28,190.34 2.52,17.71 1.85,28.03 28.85,33.61 20.01,4.13 35.6,-6.42 45.53,-15.56 7.14,-20.69 6.52,-185.05 5.86,-219.58l4.96 6.06c0.28,0.35 0.84,0.82 1.12,1.19 3.89,5.4 3.09,8 3.45,15.96 20.17,0.35 22.69,4.81 23.56,24.39l8.97 1.4c4.54,35.63 -16.49,26.5 15.81,58 8.03,4.75 16.7,12.22 25.94,14.37 -2.6,9.72 -8.89,12.63 -16.85,16.77 -11.83,11.07 -18.61,10.98 -27.82,27.19 -8.48,14.93 -5.76,30.24 -2.65,47.07 11.84,17.23 25.27,13.68 59.31,11.99 23.48,-1.16 52.82,-11.03 65.02,-11.99l11.64 -4.62c6.33,-0.72 6.16,-1.17 11.02,-2.57l6.15 -4.36c14.57,-9.9 22.48,-19.19 26.14,-39.24l0.62 -46.75c-2.03,-2.93 -2.74,5.03 -2.9,-7.59 -0.12,-9.64 -1.36,-0.9 2.64,-6.52 5.9,-8.3 12.96,-9.37 21.04,-30.94 0.82,-16.75 -0.36,-18.23 -4.06,-30.34 -7.77,-5.74 -15.39,-11.67 -22.84,-17.79 0.99,5.57 -0.82,8.96 0.73,17.89 1.61,9.23 7.96,13.83 8.73,22.35 1.5,16.42 -17.81,27.9 -24.35,35.5 -1.74,40.85 20.13,77.49 -24.89,91.53 -36.07,11.24 -65.53,15.1 -105.92,16.12 -5,-31.02 8.75,-32.99 28.47,-45.73 13.88,-8.97 28.92,-27.18 23.38,-51.41 -18.06,-0.23 -33.88,-15.23 -46.19,-23.17 0.28,-22.47 8.78,-35.05 0.07,-57.69 -8.94,-23.22 -16.64,-16.44 -20.48,-44.17 -22.67,-2.54 -25.14,-5.47 -40.03,-14.48 0.45,-14.18 4.27,-31.57 0.13,-44.81 -5.89,-4.69 2.54,-0.85 -4.49,-1.4 -2.86,-0.22 6.49,-0.45 -3.21,0.22 -17.25,1.19 -6.5,-1.79 -21.07,-4.93 -1.36,25.33 0.76,49.34 1.11,74.52 0.35,24.75 -1.89,49.56 -1.28,74.38 0.66,26.78 2.59,119.97 -1.5,141.82 -6.8,6.68 -15.45,9.78 -27.46,4.21 -9.84,-10.43 1.67,-281.58 -1.33,-330.04 -1.36,-21.95 3.15,-45.81 1.77,-62.87 -1.84,-22.84 -13.34,-31.65 -17.48,-49.98 -6.7,-29.66 -10.6,-35.62 16.68,-40.98 5.74,-55.26 3.87,-141.13 1.7,-197.82 -15.53,-3.69 -14.21,14.34 -35.27,17.02 -3.82,-26.61 -3.76,-41.95 2.15,-69.11 7.07,-32.49 15.62,-21.35 33.52,-37.56 2.13,-34.4 7.92,-46.24 -8.81,-72.01 -13.68,-21.06 -36.66,-25.41 -42.45,-40.58 4.91,-7.24 12.54,-9.13 21.25,-13.88 8.47,-4.63 17.37,-5.83 24.03,-9.56 14.11,-7.92 8.88,-39.7 8.14,-58 -0.95,-23.44 0.2,-46.08 0.6,-69.46 0.4,-23.5 -4.94,-40.54 4.54,-58.19l18.06 0.44c16.99,29.09 0.67,131.57 7.97,175.99 28.88,1.84 37.63,1.15 53.59,18.32 9.22,9.91 28.55,26.97 41.93,32.55 -1.65,-54.09 -17.42,-63.23 -22.4,-85.94zm79.59 63.31l2.34 10.66c0.48,2.11 1.82,7.81 2.6,9.58 2.63,5.92 0.39,2.42 4.12,5.83 7.48,-14.96 5.93,-28.74 2.96,-42.08 -4.01,5.01 -8.03,10.36 -12.02,16.01zm20.64 -26.27c2.31,29.91 -9.54,64.68 2.06,71.64 0.48,0.28 1.1,0.64 1.61,0.91 0.52,0.26 1.16,0.51 1.7,0.74 1.63,0.68 7.25,1.98 9.44,2.51 22.57,5.42 25.3,8.69 41.37,28.08 8.09,9.74 11.09,13.65 16.68,28.9 3.89,10.6 2.77,28.79 8.9,36.84 12.61,6.76 40.15,-1.36 56.56,0.11 -6.36,11.06 -19.58,7.75 -34.36,8.09 7.85,5.19 37.32,9.26 49.93,12.8 10.99,3.08 13.02,5.96 24.79,8.66 3.29,0.76 11.29,1.96 13.84,3.07 26.73,11.8 -19.5,20.47 -29.66,22.3 -10.13,1.82 -33.17,6.5 -40.78,9.33 5.76,5.84 9.81,5.08 19.26,7.45l50.78 22.73c-12.04,3.71 -29.86,3.68 -43.84,5.45l-40.17 7.81c6.47,6.03 9.03,5.11 10.63,13.27 -13.84,7.92 -80.51,2.97 -101.85,3.23 -0.5,13.25 -1.55,25.63 3.45,37.95l27.25 0.21c-0.17,14.81 -3.63,31.67 -1.75,45.75 1.53,11.49 9.83,27.99 5.92,39.89 -4.03,12.23 -6.51,2.29 -9.74,13.57 -2.54,8.88 4.72,3.86 -5.03,14.66 -9.62,10.66 -6.58,18.63 -12.51,35.52 -6.11,17.43 -3.27,25.37 5.94,36.26 11.59,13.72 7.96,15.53 14.87,32.99 4.82,12.15 10.78,20.85 15.96,32.01 8.78,18.97 -0.34,21.52 -11.5,30.04 11.31,38.99 110.95,10.6 87.03,-52.9 -14.77,-39.19 -50.32,-17.24 -56.47,-34.3 -11.6,-32.16 38.85,-27.73 55.17,-19.55 44.43,22.29 45.45,106.08 15.42,128.21 -9.83,7.23 -50.86,23.09 -66.91,24.6 -33.97,3.22 -49.05,-7.8 -62.27,-26.79 -5.58,10.19 0.74,13.38 5.32,20.9 3.38,5.57 3.99,8.51 3.57,11.31 8.08,8.49 16.39,16.68 24.94,24.53 -2.16,-3.45 -4.56,-6.79 -7.19,-10.05l4.4 -0.59c37.83,1.95 66.82,-8.53 95.6,-22.33 24.86,-11.93 38.88,-36.09 40.88,-76.08 -1.74,-43.07 -13.82,-79.89 -44.79,-96.85 -18.7,-10.24 -32.55,-13.71 -57.53,-8.6 -26.03,5.32 -30.08,8.92 -37.66,31.96 -6.61,-8.61 -11.92,-7.91 -8.57,-20.25 1.85,-6.83 6.12,-22.96 8.78,-27.48 6.8,-11.59 19.33,-34.82 20.86,-48.1l-2.91 -24.66 -0.97 -4.67c-1.95,-4.88 -3.39,-8.55 -3.59,-15.13 -0.09,-2.55 0.12,-6.62 0.62,-9.12 0.89,-4.52 0.74,-2.6 2.09,-4.8l-0.13 -21.41 -3.6 -16.89 10.24 -0.08 35.01 -0.17c17.23,-2.64 25.01,-8.74 30.28,-23.33 15.8,-2.1 51.66,-2.67 61.6,-10.3 4.85,-3.72 11.77,-14.04 11.41,-23.82 -0.45,-12.29 -7,-14.5 -13.41,-21.2 31.24,-16.65 27.62,-45.49 -5.21,-59.64 -16.28,-2.96 -16.99,-3.82 -28.93,-9.58l-10.18 -2.4 -1.93 -11.7c-9.99,-4.45 -3.78,-9.44 -23.55,-9.8 -11.23,-0.2 -21.36,1.88 -32.82,0.8l-2.61 -14.25c-12.47,-34.49 -36.48,-71.17 -75.69,-78.44 2.8,-27.42 4.39,-42.69 -1.25,-66.15 -2.08,2.36 -4.24,4.74 -6.54,7.27 -1.74,1.9 -3.56,3.9 -5.51,6.01l-2.75 3.05zm-60.02 341.82l2.96 -7.32 -8.73 2.58c-14.1,1.5 -19.9,0.93 -29.9,-7.07 -4.94,-3.95 -10.73,-8.4 -16.25,-13.16 0.03,24.53 1.86,48.98 5.47,73.14 1.41,-2.11 2.81,-4.25 4.15,-6.46 25.55,-41.92 36.47,-20.88 42.3,-41.71zm-78.41 -88.49c-10.14,-4.16 -22.96,-7.02 -25.38,-22.38l-3.87 -21.09c-12.34,4.76 -11.13,11.26 -10.24,26.79 2.54,44.57 1.91,60.1 0.94,105.44 -0.33,15.22 -2.02,58.54 0.81,71.25 2.19,9.82 32.27,23.18 44.85,24.9 0.6,-2.85 1.32,-5.56 2.14,-8.14 -4.25,-18.58 -6.93,-33.92 -8.63,-48.8l-3.78 6.07c-20.84,33.65 -18.09,-0.4 -18.06,-18.93l1.3 -64.2c5.98,8.06 11.86,14.08 17.68,19.42l-0.06 -14.49 0 -2.6 0 -2.76 0 -2.81 0 -2.85 0 -0.01c0,-15.02 0.78,-29.97 2.3,-44.81zm-37.92 348.95c11.52,-11.51 9.95,-32.17 16.19,-46.58 6.19,-14.3 15.56,-30.26 20.39,-43.03 -9.34,-5.13 -23.85,-9.37 -35.6,-10.06 -3.45,27.73 -6.18,72.03 -0.98,99.67z"/>
   <path class="fil0" d="M133.16 916.8l4.96 6.06c0.28,0.35 0.84,0.82 1.12,1.19 3.89,5.4 3.09,8 3.45,15.96 20.17,0.35 22.69,4.81 23.56,24.39l8.97 1.4c4.54,35.63 -16.49,26.5 15.81,58 8.03,4.75 16.7,12.22 25.94,14.37 -2.6,9.72 -8.89,12.63 -16.85,16.77 -11.83,11.07 -18.61,10.98 -27.82,27.19 -8.48,14.93 -5.76,30.24 -2.65,47.07 11.84,17.23 25.27,13.68 59.31,11.99 23.48,-1.16 52.82,-11.03 65.02,-11.99l11.64 -4.62c6.33,-0.72 6.16,-1.17 11.02,-2.57l6.15 -4.36c14.57,-9.9 22.48,-19.19 26.14,-39.24l0.62 -46.75c-2.03,-2.93 -2.74,5.03 -2.9,-7.59 -0.12,-9.64 -1.36,-0.9 2.64,-6.52 5.9,-8.3 12.96,-9.37 21.04,-30.94 0.88,-18.01 -0.55,-18.36 -4.94,-33.25 -3.17,-2.42 -1.55,-1.2 -4.23,-3.56 0.6,-24.43 -6.88,-41.15 -19.2,-56.46l4.4 -0.59c37.83,1.95 66.82,-8.53 95.6,-22.33 24.86,-11.93 38.88,-36.09 40.88,-76.08 -1.74,-43.07 -13.82,-79.89 -44.79,-96.85 -18.7,-10.24 -32.55,-13.71 -57.53,-8.6 -26.03,5.32 -30.08,8.92 -37.66,31.96 -6.61,-8.61 -11.92,-7.91 -8.57,-20.25 1.85,-6.83 6.12,-22.96 8.78,-27.48 6.8,-11.59 19.33,-34.82 20.86,-48.1l-2.91 -24.66 -0.97 -4.67c-1.95,-4.88 -3.39,-8.55 -3.59,-15.13 -0.09,-2.55 0.12,-6.62 0.62,-9.12 0.89,-4.52 0.74,-2.6 2.09,-4.8l-0.13 -21.41 -3.6 -16.89 10.24 -0.08 35.01 -0.17c17.23,-2.64 25.01,-8.74 30.28,-23.33 15.8,-2.1 51.66,-2.67 61.6,-10.3 4.85,-3.72 11.77,-14.04 11.41,-23.82 -0.45,-12.29 -7,-14.5 -13.41,-21.2 31.24,-16.65 27.62,-45.49 -5.21,-59.64 -16.28,-2.96 -16.99,-3.82 -28.93,-9.58l-10.18 -2.4 -1.93 -11.7c-9.99,-4.45 -3.78,-9.44 -23.55,-9.8 -11.23,-0.2 -21.36,1.88 -32.82,0.8l-2.61 -14.25c-12.47,-34.49 -36.48,-71.17 -75.69,-78.44 3.26,-31.88 4.88,-47.34 -4.61,-78.35 -7.25,-23.64 -22.87,-42.47 -49.74,-26.1 -5.09,-2.95 -7.09,-5.07 -11.93,-8.03 -5.02,-3.11 -12.09,-7.27 -19.45,-9.48 -11.07,-3.33 -13.32,0.31 -22.03,-4.92l-24.93 1.36c-8.74,4.55 -13.36,8.86 -14.89,20.68 -0.28,0.47 -0.49,1.23 -0.63,1.53l-1.43 3.09c-4.04,7 -19.45,18.14 -22.78,19.35 1.27,-33.41 -1.21,-67.59 -0.06,-101.14 0.75,-21.75 2.97,-25.09 -3.24,-46.44 -5.07,-17.42 -11.74,-18.38 -22.7,-27.82 -11.82,-1.03 -30.56,-5.02 -43.97,13.24 -12.35,16.83 -8.47,33.99 -8.37,48.95 0.28,42.29 -0.06,84.74 -0.06,127.05 -14.44,3.36 -60.11,23.82 -53.91,48.81 4.54,18.25 16.71,23.84 24.11,28.89 21.39,14.57 32.46,26.99 28.99,50.76 -2.09,14.18 0.83,11.45 -7.91,18.53 -14.12,11.45 -17.87,10.07 -23.91,31.19 -10.64,37.3 -10.37,61.85 -3.31,95.45 14.72,14.36 10.62,12.99 34.77,12.59 4.46,31.56 1.59,104.49 -1.22,137.76 -10.74,9.02 -18.6,7.17 -21.38,21.84 -2.16,11.36 0.5,29.09 2.73,40 7.85,38.33 21.37,29.61 16.6,65.11 -0.92,11.31 -3.64,14.6 -2.82,28.7 0.66,11.24 2.58,14.72 2.52,28.74 -0.08,20.81 0.05,41.6 0.02,62.41l-2.47 59.81c0,42.69 -2.53,163.6 1.28,190.34 2.52,17.71 1.85,28.03 28.85,33.61 20.01,4.13 35.6,-6.42 45.53,-15.56 7.14,-20.69 6.52,-185.05 5.86,-219.58z"/>
   <path class="fil1" d="M193.37 177.57l-1.5 -11.7 15.1 0.6c53.33,2.12 60.86,51.77 68.33,85.07 0.48,2.11 1.82,7.81 2.6,9.58 2.63,5.92 0.39,2.42 4.12,5.83 15.66,-31.32 -8.3,-57.47 -1.87,-85.28 30.02,28.37 -1.01,94.67 15.51,104.58 0.48,0.28 1.1,0.64 1.61,0.91 0.52,0.26 1.16,0.51 1.7,0.74 1.63,0.68 7.25,1.98 9.44,2.51 22.57,5.42 25.3,8.69 41.37,28.08 8.09,9.74 11.09,13.65 16.68,28.9 3.89,10.6 2.77,28.79 8.9,36.84 12.61,6.76 40.15,-1.36 56.56,0.11 -6.36,11.06 -19.58,7.75 -34.36,8.09 7.85,5.19 37.32,9.26 49.93,12.8 10.99,3.08 13.02,5.96 24.79,8.66 3.29,0.76 11.29,1.96 13.84,3.07 26.73,11.8 -19.5,20.47 -29.66,22.3 -10.13,1.82 -33.17,6.5 -40.78,9.33 5.76,5.84 9.81,5.08 19.26,7.45l50.78 22.73c-12.04,3.71 -29.86,3.68 -43.84,5.45l-40.17 7.81c6.47,6.03 9.03,5.11 10.63,13.27 -13.84,7.92 -80.51,2.97 -101.85,3.23 -0.5,13.25 -1.55,25.63 3.45,37.95l27.25 0.21c-0.17,14.81 -3.63,31.67 -1.75,45.75 1.53,11.49 9.83,27.99 5.92,39.89 -4.03,12.23 -6.51,2.29 -9.74,13.57 -2.54,8.88 4.72,3.86 -5.03,14.66 -9.62,10.66 -6.58,18.63 -12.51,35.52 -6.11,17.43 -3.27,25.37 5.94,36.26 11.59,13.72 7.96,15.53 14.87,32.99 4.82,12.15 10.78,20.85 15.96,32.01 8.78,18.97 -0.34,21.52 -11.5,30.04 11.31,38.99 110.95,10.6 87.03,-52.9 -14.77,-39.19 -50.32,-17.24 -56.47,-34.3 -11.6,-32.16 38.85,-27.73 55.17,-19.55 44.43,22.29 45.45,106.08 15.42,128.21 -9.83,7.23 -50.86,23.09 -66.91,24.6 -33.97,3.22 -49.05,-7.8 -62.27,-26.79 -5.58,10.19 0.74,13.38 5.32,20.9 7.04,11.59 2.05,11.78 0.86,23.14 -1.16,10.99 13.73,29.22 18.6,38.76 6.49,12.71 1.84,14.14 4.06,26.92 1.61,9.23 7.96,13.83 8.73,22.35 1.5,16.42 -17.81,27.9 -24.35,35.5 -1.74,40.85 20.13,77.49 -24.89,91.53 -36.07,11.24 -65.53,15.1 -105.92,16.12 -5,-31.02 8.75,-32.99 28.47,-45.73 13.88,-8.97 28.92,-27.18 23.38,-51.41 -18.06,-0.23 -33.88,-15.23 -46.19,-23.17 0.28,-22.47 8.78,-35.05 0.07,-57.69 -8.94,-23.22 -16.64,-16.44 -20.48,-44.17 -22.67,-2.54 -25.14,-5.47 -40.03,-14.48 0.45,-14.18 4.27,-31.57 0.13,-44.81 -5.89,-4.69 2.54,-0.85 -4.49,-1.4 -2.86,-0.22 6.49,-0.45 -3.21,0.22 -17.25,1.19 -6.5,-1.79 -21.07,-4.93 -1.36,25.33 0.76,49.34 1.11,74.52 0.35,24.75 -1.89,49.56 -1.28,74.38 0.66,26.78 2.59,119.97 -1.5,141.82 -6.8,6.68 -15.45,9.78 -27.46,4.21 -9.84,-10.43 1.67,-281.58 -1.33,-330.04 -1.36,-21.95 3.15,-45.81 1.77,-62.87 -1.84,-22.84 -13.34,-31.65 -17.48,-49.98 -6.7,-29.66 -10.6,-35.62 16.68,-40.98 5.74,-55.26 3.87,-141.13 1.7,-197.82 -15.53,-3.69 -14.21,14.34 -35.27,17.02 -3.82,-26.61 -3.76,-41.95 2.15,-69.11 7.07,-32.49 15.62,-21.35 33.52,-37.56 2.13,-34.4 7.92,-46.24 -8.81,-72.01 -13.68,-21.06 -36.66,-25.41 -42.45,-40.58 4.91,-7.24 12.54,-9.13 21.25,-13.88 8.47,-4.63 17.37,-5.83 24.03,-9.56 14.11,-7.92 8.88,-39.7 8.14,-58 -0.95,-23.44 0.2,-46.08 0.6,-69.46 0.4,-23.5 -4.94,-40.54 4.54,-58.19l18.06 0.44c16.99,29.09 0.67,131.57 7.97,175.99 28.88,1.84 37.63,1.15 53.59,18.32 9.22,9.91 28.55,26.97 41.93,32.55 -1.65,-54.09 -17.42,-63.23 -22.4,-85.94z"/>
   <path class="fil0" d="M117.25 816.89c11.52,-11.51 9.95,-32.17 16.19,-46.58 6.19,-14.3 15.56,-30.26 20.39,-43.03 -9.34,-5.13 -23.85,-9.37 -35.6,-10.06 -3.45,27.73 -6.18,72.03 -0.98,99.67z"/>
   <path class="fil1" d="M233.58 556.43l2.96 -7.32 -8.73 2.58c-14.1,1.5 -19.9,0.93 -29.9,-7.07 -13.12,-10.49 -32.32,-24.59 -36.18,-38.28 -5.3,-18.74 2.89,-12.37 6.26,-23.9 -0.83,-20.52 -34.15,-11.13 -38.2,-36.88l-3.87 -21.09c-12.34,4.76 -11.13,11.26 -10.24,26.79 2.54,44.57 1.91,60.1 0.94,105.44 -0.33,15.22 -2.02,58.54 0.81,71.25 2.19,9.82 32.27,23.18 44.85,24.9 5.01,-23.82 18.44,-37.39 29,-54.71 25.55,-41.92 36.47,-20.88 42.3,-41.71z"/>
   <path class="fil2" d="M193.37 177.57l-1.5 -11.7 15.1 0.6c53.33,2.12 60.86,51.77 68.33,85.07 0.48,2.11 1.82,7.81 2.6,9.58 2.63,5.92 0.39,2.42 4.12,5.83 15.66,-31.32 -8.3,-57.47 -1.87,-85.28 30.02,28.37 -1.01,94.67 15.51,104.58 0.48,0.28 1.1,0.64 1.61,0.91 0.52,0.26 1.16,0.51 1.7,0.74 1.63,0.68 7.25,1.98 9.44,2.51 22.57,5.42 25.3,8.69 41.37,28.08 8.09,9.74 11.09,13.65 16.68,28.9 3.89,10.6 2.77,28.79 8.9,36.84 12.61,6.76 40.15,-1.36 56.56,0.11 -6.36,11.06 -19.58,7.75 -34.36,8.09 7.85,5.19 37.32,9.26 49.93,12.8 10.99,3.08 13.02,5.96 24.79,8.66 3.29,0.76 11.29,1.96 13.84,3.07 26.73,11.8 -19.5,20.47 -29.66,22.3 -10.13,1.82 -33.17,6.5 -40.78,9.33 5.76,5.84 9.81,5.08 19.26,7.45l50.78 22.73c-12.04,3.71 -29.86,3.68 -43.84,5.45l-40.17 7.81c6.47,6.03 9.03,5.11 10.63,13.27 -13.84,7.92 -80.51,2.97 -101.85,3.23 -0.5,13.25 -1.55,25.63 3.45,37.95l27.25 0.21c-0.17,14.81 -3.63,31.67 -1.75,45.75 1.53,11.49 9.83,27.99 5.92,39.89 -4.03,12.23 -6.51,2.29 -9.74,13.57 -2.54,8.88 4.72,3.86 -5.03,14.66 -9.62,10.66 -6.58,18.63 -12.51,35.52 -6.11,17.43 -3.27,25.37 5.94,36.26 11.59,13.72 7.96,15.53 14.87,32.99 4.82,12.15 10.78,20.85 15.96,32.01 8.78,18.97 -0.34,21.52 -11.5,30.04 11.31,38.99 110.95,10.6 87.03,-52.9 -14.77,-39.19 -50.32,-17.24 -56.47,-34.3 -11.6,-32.16 38.85,-27.73 55.17,-19.55 44.43,22.29 45.45,106.08 15.42,128.21 -9.83,7.23 -50.86,23.09 -66.91,24.6 -33.97,3.22 -49.05,-7.8 -62.27,-26.79 -5.58,10.19 0.74,13.38 5.32,20.9 7.04,11.59 2.05,11.78 0.86,23.14 -1.16,10.99 13.73,29.22 18.6,38.76 6.49,12.71 1.84,14.14 4.06,26.92 1.61,9.23 7.96,13.83 8.73,22.35 1.5,16.42 -17.81,27.9 -24.35,35.5 -1.74,40.85 20.13,77.49 -24.89,91.53 -36.07,11.24 -65.53,15.1 -105.92,16.12 -5,-31.02 8.75,-32.99 28.47,-45.73 13.88,-8.97 28.92,-27.18 23.38,-51.41 -18.06,-0.23 -33.88,-15.23 -46.19,-23.17 0.28,-22.47 8.78,-35.05 0.07,-57.69 -8.94,-23.22 -16.64,-16.44 -20.48,-44.17 -22.67,-2.54 -25.14,-5.47 -40.03,-14.48 0.45,-14.18 4.27,-31.57 0.13,-44.81 -5.89,-4.69 2.54,-0.85 -4.49,-1.4 -2.86,-0.22 6.49,-0.45 -3.21,0.22 -17.25,1.19 -6.5,-1.79 -21.07,-4.93 -1.36,25.33 0.76,49.34 1.11,74.52 0.35,24.75 -1.89,49.56 -1.28,74.38 0.66,26.78 2.59,119.97 -1.5,141.82 -6.8,6.68 -15.45,9.78 -27.46,4.21 -9.84,-10.43 1.67,-281.58 -1.33,-330.04 -1.36,-21.95 3.15,-45.81 1.77,-62.87 -1.84,-22.84 -13.34,-31.65 -17.48,-49.98 -6.7,-29.66 -10.6,-35.62 16.68,-40.98 5.74,-55.26 3.87,-141.13 1.7,-197.82 -15.53,-3.69 -14.21,14.34 -35.27,17.02 -3.82,-26.61 -3.76,-41.95 2.15,-69.11 7.07,-32.49 15.62,-21.35 33.52,-37.56 2.13,-34.4 7.92,-46.24 -8.81,-72.01 -13.68,-21.06 -36.66,-25.41 -42.45,-40.58 4.91,-7.24 12.54,-9.13 21.25,-13.88 8.47,-4.63 17.37,-5.83 24.03,-9.56 14.11,-7.92 8.88,-39.7 8.14,-58 -0.95,-23.44 0.2,-46.08 0.6,-69.46 0.4,-23.5 -4.94,-40.54 4.54,-58.19l18.06 0.44c16.99,29.09 0.67,131.57 7.97,175.99 28.88,1.84 37.63,1.15 53.59,18.32 9.22,9.91 28.55,26.97 41.93,32.55 -1.65,-54.09 -17.42,-63.23 -22.4,-85.94z"/>
   <path class="fil3 str0" d="M403.51 792.24c-1.51,11.65 -1.76,11.65 -11.28,16.21 -6.67,3.2 -9.33,5.15 -17.51,7.19 1.33,-12.23 1.12,-18.11 -1.87,-28.94l-13.52 -25.37c23.66,12.98 46.15,-3.47 44.18,30.91zm-210.14 -614.67l-1.5 -11.7 15.1 0.6c53.33,2.12 60.86,51.77 68.33,85.07 0.48,2.11 1.82,7.81 2.6,9.58 2.63,5.92 0.39,2.42 4.12,5.83 15.66,-31.32 -8.3,-57.47 -1.87,-85.28 30.02,28.37 -1.01,94.67 15.51,104.58 0.48,0.28 1.1,0.64 1.61,0.91 0.52,0.26 1.16,0.51 1.7,0.74 1.63,0.68 7.25,1.98 9.44,2.51 22.57,5.42 25.3,8.69 41.37,28.08 8.09,9.74 11.09,13.65 16.68,28.9 3.89,10.6 2.77,28.79 8.9,36.84 12.61,6.76 40.15,-1.36 56.56,0.11 -6.36,11.06 -19.58,7.75 -34.36,8.09 7.85,5.19 37.32,9.26 49.93,12.8 10.99,3.08 13.02,5.96 24.79,8.66 3.29,0.76 11.29,1.96 13.84,3.07 26.73,11.8 -19.5,20.47 -29.66,22.3 -10.13,1.82 -33.17,6.5 -40.78,9.33 5.76,5.84 9.81,5.08 19.26,7.45l50.78 22.73c-12.04,3.71 -29.86,3.68 -43.84,5.45l-40.17 7.81c6.47,6.03 9.03,5.11 10.63,13.27 -13.84,7.92 -80.51,2.97 -101.85,3.23 -0.5,13.25 -1.55,25.63 3.45,37.95l27.25 0.21c-0.17,14.81 -3.63,31.67 -1.75,45.75 1.53,11.49 9.83,27.99 5.92,39.89 -4.03,12.23 -6.51,2.29 -9.74,13.57 -2.54,8.88 4.72,3.86 -5.03,14.66 -9.62,10.66 -6.58,18.63 -12.51,35.52 -6.11,17.43 -3.27,25.37 5.94,36.26 11.59,13.72 7.96,15.53 14.87,32.99 4.82,12.15 10.78,20.85 15.96,32.01 8.78,18.97 -0.34,21.52 -11.5,30.04 11.31,38.99 110.95,10.6 87.03,-52.9 -14.77,-39.19 -50.32,-17.24 -56.47,-34.3 -11.6,-32.16 38.85,-27.73 55.17,-19.55 44.43,22.29 45.45,106.08 15.42,128.21 -9.83,7.23 -50.86,23.09 -66.91,24.6 -33.97,3.22 -49.05,-7.8 -62.27,-26.79 -5.58,10.19 0.74,13.38 5.32,20.9 7.04,11.59 2.05,11.78 0.86,23.14 -1.16,10.99 13.73,29.22 18.6,38.76 6.49,12.71 1.84,14.14 4.06,26.92 1.61,9.23 7.96,13.83 8.73,22.35 1.5,16.42 -17.81,27.9 -24.35,35.5 -1.74,40.85 20.13,77.49 -24.89,91.53 -36.07,11.24 -65.53,15.1 -105.92,16.12 -5,-31.02 8.75,-32.99 28.47,-45.73 13.88,-8.97 28.92,-27.18 23.38,-51.41 -18.06,-0.23 -33.88,-15.23 -46.19,-23.17 0.28,-22.47 8.78,-35.05 0.07,-57.69 -8.94,-23.22 -16.64,-16.44 -20.48,-44.17 -22.67,-2.54 -25.14,-5.47 -40.03,-14.48 0.45,-14.18 4.27,-31.57 0.13,-44.81 -5.89,-4.69 2.54,-0.85 -4.49,-1.4 -2.86,-0.22 6.49,-0.45 -3.21,0.22 -17.25,1.19 -6.5,-1.79 -21.07,-4.93 -1.36,25.33 0.76,49.34 1.11,74.52 0.35,24.75 -1.89,49.56 -1.28,74.38 0.66,26.78 2.59,119.97 -1.5,141.82 -6.8,6.68 -15.45,9.78 -27.46,4.21 -9.84,-10.43 1.67,-281.58 -1.33,-330.04 -1.36,-21.95 3.15,-45.81 1.77,-62.87 -1.84,-22.84 -13.34,-31.65 -17.48,-49.98 -6.7,-29.66 -10.6,-35.62 16.68,-40.98 5.74,-55.26 3.87,-141.13 1.7,-197.82 -15.53,-3.69 -14.21,14.34 -35.27,17.02 -3.82,-26.61 -3.76,-41.95 2.15,-69.11 7.07,-32.49 15.62,-21.35 33.52,-37.56 2.13,-34.4 7.92,-46.24 -8.81,-72.01 -13.68,-21.06 -36.66,-25.41 -42.45,-40.58 4.91,-7.24 12.54,-9.13 21.25,-13.88 8.47,-4.63 17.37,-5.83 24.03,-9.56 14.11,-7.92 8.88,-39.7 8.14,-58 -0.95,-23.44 0.2,-46.08 0.6,-69.46 0.4,-23.5 -4.94,-40.54 4.54,-58.19l18.06 0.44c16.99,29.09 0.67,131.57 7.97,175.99 28.88,1.84 37.63,1.15 53.59,18.32 9.22,9.91 28.55,26.97 41.93,32.55 -1.65,-54.09 -17.42,-63.23 -22.4,-85.94zm-60.21 739.23l4.96 6.06c0.28,0.35 0.84,0.82 1.12,1.19 3.89,5.4 3.09,8 3.45,15.96 20.17,0.35 22.69,4.81 23.56,24.39l8.97 1.4c4.54,35.63 -16.49,26.5 15.81,58 8.03,4.75 16.7,12.22 25.94,14.37 -2.6,9.72 -8.89,12.63 -16.85,16.77 -11.83,11.07 -18.61,10.98 -27.82,27.19 -8.48,14.93 -5.76,30.24 -2.65,47.07 11.84,17.23 25.27,13.68 59.31,11.99 23.48,-1.16 52.82,-11.03 65.02,-11.99l11.64 -4.62c6.33,-0.72 6.16,-1.17 11.02,-2.57l6.15 -4.36c14.57,-9.9 22.48,-19.19 26.14,-39.24l0.62 -46.75c-2.03,-2.93 -2.74,5.03 -2.9,-7.59 -0.12,-9.64 -1.36,-0.9 2.64,-6.52 5.9,-8.3 12.96,-9.37 21.04,-30.94 0.88,-18.01 -0.55,-18.36 -4.94,-33.25 -3.17,-2.42 -1.55,-1.2 -4.23,-3.56 0.6,-24.43 -6.88,-41.15 -19.2,-56.46l4.4 -0.59c37.83,1.95 66.82,-8.53 95.6,-22.33 24.86,-11.93 38.88,-36.09 40.88,-76.08 -1.74,-43.07 -13.82,-79.89 -44.79,-96.85 -18.7,-10.24 -32.55,-13.71 -57.53,-8.6 -26.03,5.32 -30.08,8.92 -37.66,31.96 -6.61,-8.61 -11.92,-7.91 -8.57,-20.25 1.85,-6.83 6.12,-22.96 8.78,-27.48 6.8,-11.59 19.33,-34.82 20.86,-48.1l-2.91 -24.66 -0.97 -4.67c-1.95,-4.88 -3.39,-8.55 -3.59,-15.13 -0.09,-2.55 0.12,-6.62 0.62,-9.12 0.89,-4.52 0.74,-2.6 2.09,-4.8l-0.13 -21.41 -3.6 -16.89 10.24 -0.08 35.01 -0.17c17.23,-2.64 25.01,-8.74 30.28,-23.33 15.8,-2.1 51.66,-2.67 61.6,-10.3 4.85,-3.72 11.77,-14.04 11.41,-23.82 -0.45,-12.29 -7,-14.5 -13.41,-21.2 31.24,-16.65 27.62,-45.49 -5.21,-59.64 -16.28,-2.96 -16.99,-3.82 -28.93,-9.58l-10.18 -2.4 -1.93 -11.7c-9.99,-4.45 -3.78,-9.44 -23.55,-9.8 -11.23,-0.2 -21.36,1.88 -32.82,0.8l-2.61 -14.25c-12.47,-34.49 -36.48,-71.17 -75.69,-78.44 3.26,-31.88 4.88,-47.34 -4.61,-78.35 -7.25,-23.64 -22.87,-42.47 -49.74,-26.1 -5.09,-2.95 -7.09,-5.07 -11.93,-8.03 -5.02,-3.11 -12.09,-7.27 -19.45,-9.48 -11.07,-3.33 -13.32,0.31 -22.03,-4.92l-24.93 1.36c-8.74,4.55 -13.36,8.86 -14.89,20.68 -0.28,0.47 -0.49,1.23 -0.63,1.53l-1.43 3.09c-4.04,7 -19.45,18.14 -22.78,19.35 1.27,-33.41 -1.21,-67.59 -0.06,-101.14 0.75,-21.75 2.97,-25.09 -3.24,-46.44 -5.07,-17.42 -11.74,-18.38 -22.7,-27.82 -11.82,-1.03 -30.56,-5.02 -43.97,13.24 -12.35,16.83 -8.47,33.99 -8.37,48.95 0.28,42.29 -0.06,84.74 -0.06,127.05 -14.44,3.36 -60.11,23.82 -53.91,48.81 4.54,18.25 16.71,23.84 24.11,28.89 21.39,14.57 32.46,26.99 28.99,50.76 -2.09,14.18 0.83,11.45 -7.91,18.53 -14.12,11.45 -17.87,10.07 -23.91,31.19 -10.64,37.3 -10.37,61.85 -3.31,95.45 14.72,14.36 10.62,12.99 34.77,12.59 4.46,31.56 1.59,104.49 -1.22,137.76 -10.74,9.02 -18.6,7.17 -21.38,21.84 -2.16,11.36 0.5,29.09 2.73,40 7.85,38.33 21.37,29.61 16.6,65.11 -0.92,11.31 -3.64,14.6 -2.82,28.7 0.66,11.24 2.58,14.72 2.52,28.74 -0.08,20.81 0.05,41.6 0.02,62.41l-2.47 59.81c0,42.69 -2.53,163.6 1.28,190.34 2.52,17.71 1.85,28.03 28.85,33.61 20.01,4.13 35.6,-6.42 45.53,-15.56 7.14,-20.69 6.52,-185.05 5.86,-219.58zm100.42 -360.37l2.96 -7.32 -8.73 2.58c-14.1,1.5 -19.9,0.93 -29.9,-7.07 -13.12,-10.49 -32.32,-24.59 -36.18,-38.28 -5.3,-18.74 2.89,-12.37 6.26,-23.9 -0.83,-20.52 -34.15,-11.13 -38.2,-36.88l-3.87 -21.09c-12.34,4.76 -11.13,11.26 -10.24,26.79 2.54,44.57 1.91,60.1 0.94,105.44 -0.33,15.22 -2.02,58.54 0.81,71.25 2.19,9.82 32.27,23.18 44.85,24.9 5.01,-23.82 18.44,-37.39 29,-54.71 25.55,-41.92 36.47,-20.88 42.3,-41.71zm-99.63 26.62l1.3 -64.2c14.65,19.77 28.78,27.22 42.59,42.64 -7.52,11.33 -17.7,27.35 -25.83,40.49 -20.84,33.65 -18.09,-0.4 -18.06,-18.93zm-16.7 233.84c11.52,-11.51 9.95,-32.17 16.19,-46.58 6.19,-14.3 15.56,-30.26 20.39,-43.03 -9.34,-5.13 -23.85,-9.37 -35.6,-10.06 -3.45,27.73 -6.18,72.03 -0.98,99.67z"/>
   <path class="fil4 str0" d="M394.72 805.47c-1.51,11.65 -1.76,11.65 -11.28,16.21 -6.67,3.2 -9.33,5.15 -17.51,7.19 1.33,-12.23 1.12,-18.11 -1.87,-28.94l-13.52 -25.37c23.66,12.98 46.15,-3.47 44.18,30.91zm-210.14 -614.67l-1.5 -11.7 15.1 0.6c53.33,2.12 60.86,51.77 68.33,85.07 0.48,2.11 1.82,7.81 2.6,9.58 2.63,5.92 0.39,2.42 4.12,5.83 15.66,-31.32 -8.3,-57.47 -1.87,-85.28 30.02,28.37 -1.01,94.67 15.51,104.58 0.48,0.28 1.1,0.64 1.61,0.91 0.52,0.26 1.16,0.51 1.7,0.74 1.63,0.68 7.25,1.98 9.44,2.51 22.57,5.42 25.3,8.69 41.37,28.08 8.09,9.74 11.09,13.65 16.68,28.9 3.89,10.6 2.77,28.79 8.9,36.84 12.61,6.76 40.15,-1.36 56.56,0.11 -6.36,11.06 -19.58,7.75 -34.36,8.09 7.85,5.19 37.32,9.26 49.93,12.8 10.99,3.08 13.02,5.96 24.79,8.66 3.29,0.76 11.29,1.96 13.84,3.07 26.73,11.8 -19.5,20.47 -29.66,22.3 -10.13,1.82 -33.17,6.5 -40.78,9.33 5.76,5.84 9.81,5.08 19.26,7.45l50.78 22.73c-12.04,3.71 -29.86,3.68 -43.84,5.45l-40.17 7.81c6.47,6.03 9.03,5.11 10.63,13.27 -13.84,7.92 -80.51,2.97 -101.85,3.23 -0.5,13.25 -1.55,25.63 3.45,37.95l27.25 0.21c-0.17,14.81 -3.63,31.67 -1.75,45.75 1.53,11.49 9.83,27.99 5.92,39.89 -4.03,12.23 -6.51,2.29 -9.74,13.57 -2.54,8.88 4.72,3.86 -5.03,14.66 -9.62,10.66 -6.58,18.63 -12.51,35.52 -6.11,17.43 -3.27,25.37 5.94,36.26 11.59,13.72 7.96,15.53 14.87,32.99 4.82,12.15 10.78,20.85 15.96,32.01 8.78,18.97 -0.34,21.52 -11.5,30.04 11.31,38.99 110.95,10.6 87.03,-52.9 -14.77,-39.19 -50.32,-17.24 -56.47,-34.3 -11.6,-32.16 38.85,-27.73 55.17,-19.55 44.43,22.29 45.45,106.08 15.42,128.21 -9.83,7.23 -50.86,23.09 -66.91,24.6 -33.97,3.22 -49.05,-7.8 -62.27,-26.79 -5.58,10.19 0.74,13.38 5.32,20.9 7.04,11.59 2.05,11.78 0.86,23.14 -1.16,10.99 13.73,29.22 18.6,38.76 6.49,12.71 1.84,14.14 4.06,26.92 1.61,9.23 7.96,13.83 8.73,22.35 1.5,16.42 -17.81,27.9 -24.35,35.5 -1.74,40.85 20.13,77.49 -24.89,91.53 -36.07,11.24 -65.53,15.1 -105.92,16.12 -5,-31.02 8.75,-32.99 28.47,-45.73 13.88,-8.97 28.92,-27.18 23.38,-51.41 -18.06,-0.23 -33.88,-15.23 -46.19,-23.17 0.28,-22.47 8.78,-35.05 0.07,-57.69 -8.94,-23.22 -16.64,-16.44 -20.48,-44.17 -22.67,-2.54 -25.14,-5.47 -40.03,-14.48 0.45,-14.18 4.27,-31.57 0.13,-44.81 -5.89,-4.69 2.54,-0.85 -4.49,-1.4 -2.86,-0.22 6.49,-0.45 -3.21,0.22 -17.25,1.19 -6.5,-1.79 -21.07,-4.93 -1.36,25.33 0.76,49.34 1.11,74.52 0.35,24.75 -1.89,49.56 -1.28,74.38 0.66,26.78 2.59,119.97 -1.5,141.82 -6.8,6.68 -15.45,9.78 -27.46,4.21 -9.84,-10.43 1.67,-281.58 -1.33,-330.04 -1.36,-21.95 3.15,-45.81 1.77,-62.87 -1.84,-22.84 -13.34,-31.65 -17.48,-49.98 -6.7,-29.66 -10.6,-35.62 16.68,-40.98 5.74,-55.26 3.87,-141.13 1.7,-197.82 -15.53,-3.69 -14.21,14.34 -35.27,17.02 -3.82,-26.61 -3.76,-41.95 2.15,-69.11 7.07,-32.49 15.62,-21.35 33.52,-37.56 2.13,-34.4 7.92,-46.24 -8.81,-72.01 -13.68,-21.06 -36.66,-25.41 -42.45,-40.58 4.91,-7.24 12.54,-9.13 21.25,-13.88 8.47,-4.63 17.37,-5.83 24.03,-9.56 14.11,-7.92 8.88,-39.7 8.14,-58 -0.95,-23.44 0.2,-46.08 0.6,-69.46 0.4,-23.5 -4.94,-40.54 4.54,-58.19l18.06 0.44c16.99,29.09 0.67,131.57 7.97,175.99 28.88,1.84 37.63,1.15 53.59,18.32 9.22,9.91 28.55,26.97 41.93,32.55 -1.65,-54.09 -17.42,-63.23 -22.4,-85.94zm-60.21 739.23l4.96 6.06c0.28,0.35 0.84,0.82 1.12,1.19 3.89,5.4 3.09,8 3.45,15.96 20.17,0.35 22.69,4.81 23.56,24.39l8.97 1.4c4.54,35.63 -16.49,26.5 15.81,58 8.03,4.75 16.7,12.22 25.94,14.37 -2.6,9.72 -8.89,12.63 -16.85,16.77 -11.83,11.07 -18.61,10.98 -27.82,27.19 -8.48,14.93 -5.76,30.24 -2.65,47.07 11.84,17.23 25.27,13.68 59.31,11.99 23.48,-1.16 52.82,-11.03 65.02,-11.99l11.64 -4.62c6.33,-0.72 6.16,-1.17 11.02,-2.57l6.15 -4.36c14.57,-9.9 22.48,-19.19 26.14,-39.24l0.62 -46.75c-2.03,-2.93 -2.74,5.03 -2.9,-7.59 -0.12,-9.64 -1.36,-0.9 2.64,-6.52 5.9,-8.3 12.96,-9.37 21.04,-30.94 0.88,-18.01 -0.55,-18.36 -4.94,-33.25 -3.17,-2.42 -1.55,-1.2 -4.23,-3.56 0.6,-24.43 -6.88,-41.15 -19.2,-56.46l4.4 -0.59c37.83,1.95 66.82,-8.53 95.6,-22.33 24.86,-11.93 38.88,-36.09 40.88,-76.08 -1.74,-43.07 -13.82,-79.89 -44.79,-96.85 -18.7,-10.24 -32.55,-13.71 -57.53,-8.6 -26.03,5.32 -30.08,8.92 -37.66,31.96 -6.61,-8.61 -11.92,-7.91 -8.57,-20.25 1.85,-6.83 6.12,-22.96 8.78,-27.48 6.8,-11.59 19.33,-34.82 20.86,-48.1l-2.91 -24.66 -0.97 -4.67c-1.95,-4.88 -3.39,-8.55 -3.59,-15.13 -0.09,-2.55 0.12,-6.62 0.62,-9.12 0.89,-4.52 0.74,-2.6 2.09,-4.8l-0.13 -21.41 -3.6 -16.89 10.24 -0.08 35.01 -0.17c17.23,-2.64 25.01,-8.74 30.28,-23.33 15.8,-2.1 51.66,-2.67 61.6,-10.3 4.85,-3.72 11.77,-14.04 11.41,-23.82 -0.45,-12.29 -7,-14.5 -13.41,-21.2 31.24,-16.65 27.62,-45.49 -5.21,-59.64 -16.28,-2.96 -16.99,-3.82 -28.93,-9.58l-10.18 -2.4 -1.93 -11.7c-9.99,-4.45 -3.78,-9.44 -23.55,-9.8 -11.23,-0.2 -21.36,1.88 -32.82,0.8l-2.61 -14.25c-12.47,-34.49 -36.48,-71.17 -75.69,-78.44 3.26,-31.88 4.88,-47.34 -4.61,-78.35 -7.25,-23.64 -22.87,-42.47 -49.74,-26.1 -5.09,-2.95 -7.09,-5.07 -11.93,-8.03 -5.02,-3.11 -12.09,-7.27 -19.45,-9.48 -11.07,-3.33 -13.32,0.31 -22.03,-4.92l-24.93 1.36c-8.74,4.55 -13.36,8.86 -14.89,20.68 -0.28,0.47 -0.49,1.23 -0.63,1.53l-1.43 3.09c-4.04,7 -19.45,18.14 -22.78,19.35 1.27,-33.41 -1.21,-67.59 -0.06,-101.14 0.75,-21.75 2.97,-25.09 -3.24,-46.44 -5.07,-17.42 -11.74,-18.38 -22.7,-27.82 -11.82,-1.03 -30.56,-5.02 -43.97,13.24 -12.35,16.83 -8.47,33.99 -8.37,48.95 0.28,42.29 -0.06,84.74 -0.06,127.05 -14.44,3.36 -60.11,23.82 -53.91,48.81 4.54,18.25 16.71,23.84 24.11,28.89 21.39,14.57 32.46,26.99 28.99,50.76 -2.09,14.18 0.83,11.45 -7.91,18.53 -14.12,11.45 -17.87,10.07 -23.91,31.19 -10.64,37.3 -10.37,61.85 -3.31,95.45 14.72,14.36 10.62,12.99 34.77,12.59 4.46,31.56 1.59,104.49 -1.22,137.76 -10.74,9.02 -18.6,7.17 -21.38,21.84 -2.16,11.36 0.5,29.09 2.73,40 7.85,38.33 21.37,29.61 16.6,65.11 -0.92,11.31 -3.64,14.6 -2.82,28.7 0.66,11.24 2.58,14.72 2.52,28.74 -0.08,20.81 0.05,41.6 0.02,62.41l-2.47 59.81c0,42.69 -2.53,163.6 1.28,190.34 2.52,17.71 1.85,28.03 28.85,33.61 20.01,4.13 35.6,-6.42 45.53,-15.56 7.14,-20.69 6.52,-185.05 5.86,-219.58zm100.42 -360.37l2.96 -7.32 -8.73 2.58c-14.1,1.5 -19.9,0.93 -29.9,-7.07 -13.12,-10.49 -32.32,-24.59 -36.18,-38.28 -5.3,-18.74 2.89,-12.37 6.26,-23.9 -0.83,-20.52 -34.15,-11.13 -38.2,-36.88l-3.87 -21.09c-12.34,4.76 -11.13,11.26 -10.24,26.79 2.54,44.57 1.91,60.1 0.94,105.44 -0.33,15.22 -2.02,58.54 0.81,71.25 2.19,9.82 32.27,23.18 44.85,24.9 5.01,-23.82 18.44,-37.39 29,-54.71 25.55,-41.92 36.47,-20.88 42.3,-41.71zm-99.63 26.62l1.3 -64.2c14.65,19.77 28.78,27.22 42.59,42.64 -7.52,11.33 -17.7,27.35 -25.83,40.49 -20.84,33.65 -18.09,-0.4 -18.06,-18.93zm-16.7 233.84c11.52,-11.51 9.95,-32.17 16.19,-46.58 6.19,-14.3 15.56,-30.26 20.39,-43.03 -9.34,-5.13 -23.85,-9.37 -35.6,-10.06 -3.45,27.73 -6.18,72.03 -0.98,99.67z"/>
  </g>
 </g>
</svg>
