<?xml version="1.0" encoding="UTF-8"?>
<!DOCTYPE svg PUBLIC "-//W3C//DTD SVG 1.1//EN" "http://www.w3.org/Graphics/SVG/1.1/DTD/svg11.dtd">
<!-- Creator: CorelDRAW 2017 -->
<svg xmlns="http://www.w3.org/2000/svg" xml:space="preserve" width="13.8006mm" height="13.8006mm" version="1.1" style="shape-rendering:geometricPrecision; text-rendering:geometricPrecision; image-rendering:optimizeQuality; fill-rule:evenodd; clip-rule:evenodd"
viewBox="0 0 1380.06 1380.06"
 xmlns:xlink="http://www.w3.org/1999/xlink">
 <defs>
  <style type="text/css">
   <![CDATA[
    .str0 {stroke:#282829;stroke-width:7.62;stroke-miterlimit:22.9256}
    .fil1 {fill:#373435}
    .fil8 {fill:#ED3237}
    .fil13 {fill:#743D37}
    .fil11 {fill:#282829}
    .fil7 {fill:#930400}
    .fil6 {fill:#B71801}
    .fil4 {fill:#E55E00}
    .fil3 {fill:#FE6F00}
    .fil9 {fill:#FEBE23}
    .fil5 {fill:#FF8E00}
    .fil10 {fill:#ED3237;fill-opacity:0.501961}
    .fil12 {fill:#282829;fill-opacity:0.521569}
    .fil0 {fill:url(#id0)}
    .fil2 {fill:url(#id1)}
   ]]>
  </style>
  <linearGradient id="id0" gradientUnits="userSpaceOnUse" x1="1334.55" y1="1341.79" x2="1343.49" y2="1.67">
   <stop offset="0" style="stop-opacity:1; stop-color:#282829"/>
   <stop offset="0.101961" style="stop-opacity:1; stop-color:#282829"/>
   <stop offset="0.85098" style="stop-opacity:1; stop-color:#ED3237"/>
   <stop offset="1" style="stop-opacity:1; stop-color:#ED3237"/>
  </linearGradient>
  <linearGradient id="id1" gradientUnits="userSpaceOnUse" x1="981.66" y1="350.17" x2="320.8" y2="278.12">
   <stop offset="0" style="stop-opacity:1; stop-color:#F7AA0F"/>
   <stop offset="1" style="stop-opacity:1; stop-color:#F7AA0F"/>
  </linearGradient>
 </defs>
 <g id="Capa_x0020_1">
  <metadata id="CorelCorpID_0Corel-Layer"/>
  <rect class="fil0" x="1.66" y="1.66" width="1376.72" height="1376.72"/>
  <ellipse class="fil1" cx="740.92" cy="650.48" rx="530.97" ry="530.98"/>
  <path class="fil2" d="M239.85 633.5l0 16.83c0.07,50.82 1.09,70.92 15.38,128.53 8.2,33.04 19.06,59.46 32.88,87.07 11.54,23.07 40.76,74.47 57.49,91.9 5.67,5.89 9.31,10.92 14.66,17.03 41.07,47.03 30.54,39.45 93.84,87.2 70.39,53.11 185.65,89.9 274.38,89.9 81.85,0 148.61,-10.07 220.22,-44.5 47.62,-22.88 88.74,-45.79 125.33,-82.86 6.78,-6.88 10.16,-8.73 16.96,-14.72 22.44,-19.78 36.38,-41.48 55.3,-64.65 50.42,-61.76 73.64,-132.55 89.12,-209.66 3.56,-17.76 5.67,-36.02 6.59,-54.48l0 -47.04c-1.68,-35.85 -6.9,-71.45 -13.72,-104.56 -8.34,-40.5 -32.09,-94.25 -52,-129.08 -53.79,-94.13 -126.28,-155.75 -221.56,-203.89 -74.5,-37.64 -141.72,-47.53 -233.02,-47.53 -47.81,0 -105.5,11.27 -150.27,28.46 -57.69,22.16 -125.13,57.46 -169.26,102.29l-16.77 14.92c-3.88,3.88 -2.31,3.15 -5.98,7.59 -28.19,34.1 -45.94,47.35 -72.43,95.06l-21.15 39.96c-23.76,51.42 -45.99,122.58 -45.99,196.23z"/>
  <path class="fil3" d="M1097.04 429.58c16.2,22.39 37.13,90.91 43.23,123.56 26.11,139.76 -33.12,276.07 -131.26,357.9 -143.06,119.28 -341.19,125.94 -488.02,5.06 85.43,-9.49 55.55,-23.19 110.69,-10.19 99.38,23.44 214.93,-2.47 297.88,-60.88 8.69,-6.12 14.29,-8 16.33,-18.21 -5.96,-5.83 -8.53,-7.71 -16.74,-10.93l-6.25 8.8c-5.01,8.22 1.63,2.83 -6.33,7.47 -4.71,2.75 -4.48,0.43 -10.74,5.02 -31.11,22.77 -12.64,10.17 -47.25,25.19 -31.43,13.64 -30.04,8.75 -44.5,14.39 -35.76,13.97 -31.54,9.43 -59.88,14.63 -14.33,2.63 -4.84,5.86 -37.07,6.75 -18.3,0.5 -40.32,-0.55 -58.81,-1.37 -58.87,-2.62 -17.79,-5.8 -49.61,-8.49 -16.62,-1.4 -30.26,-6.86 -49.46,-8.16l3.08 4.91c-12.32,5.98 -37.93,16.13 -52.38,17.81 -18.27,2.13 -57.85,-55.65 -67.57,-70.18 -6.34,-9.49 -20.5,-36.29 -26.69,-41.06 -1.52,4.65 1.53,2.29 -3.74,3.48 -9.45,-7.49 -16.52,-18.02 -23.4,-26.21 -4.65,-5.52 -1.16,-1.86 -6.88,-6.66 -12.2,-10.23 -45.11,-60.41 -52.96,-74.87l-0.3 8c-5.16,51.77 51.79,152.63 74.4,183.68 143.57,197.28 423.07,244.29 627.52,84.99 70.69,-55.08 127.95,-141.69 151.22,-236.06 18.66,-75.69 17.1,-153.2 -4.45,-227.41 -9.78,-33.68 -22.74,-63.07 -37.97,-91.11 -11.21,-20.63 -40.72,-65.1 -54.63,-76.06 -5.64,1.68 -2.54,-1.42 -4.65,2.47 11.83,20.01 8.32,19.4 13.12,45.02 1.92,10.25 6.87,16.4 6.59,36.51l-2.52 12.21z"/>
  <path class="fil4" d="M954.09 813.38l2.99 16.02c-1.86,1.05 3.34,4.98 -3.94,-0.04l-7.25 -2.54c-2.04,10.21 -7.64,12.09 -16.33,18.21 -82.95,58.41 -198.5,84.32 -297.88,60.88 -55.14,-13 -25.26,0.7 -110.69,10.19 146.83,120.88 344.96,114.22 488.02,-5.06 98.14,-81.83 157.37,-218.14 131.26,-357.9 -6.1,-32.65 -27.03,-101.17 -43.23,-123.56 -5.32,-12.63 -36.4,-61.61 -50.49,-67.3 5.64,20.11 16.06,37.66 22.96,57.86 21.18,61.93 23.31,141.68 8.07,203.94 -17.43,71.11 -66.88,152.01 -118.24,193.12l-5.25 -3.82z"/>
  <path class="fil5" d="M328.41 695.34l0.3 -8c7.85,14.46 40.76,64.64 52.96,74.87 5.72,4.8 2.23,1.14 6.88,6.66 6.88,8.19 13.95,18.72 23.4,26.21 5.27,-1.19 2.22,1.17 3.74,-3.48l-16.06 -39.08c13.26,9.22 73,97.29 159.62,127.6 19.2,1.3 32.84,6.76 49.46,8.16 31.82,2.69 -9.26,5.87 49.61,8.49 18.49,0.82 40.51,1.87 58.81,1.37 32.23,-0.89 22.74,-4.12 37.07,-6.75 28.34,-5.2 24.12,-0.66 59.88,-14.63 14.46,-5.64 13.07,-0.75 44.5,-14.39 34.61,-15.02 16.14,-2.42 47.25,-25.19 6.26,-4.59 6.03,-2.27 10.74,-5.02 7.96,-4.64 1.32,0.75 6.33,-7.47l6.25 -8.8c-2.05,-2.54 -15.16,-13.33 -18.43,-15.1 -12.98,-7.07 -32.46,21.89 -58.35,31.29l15.26 -58.45c-7.33,-7.88 -38.39,-31.34 -47.69,-36.02 1.93,4.47 1.63,2.8 0.74,7.51 -17.16,10.85 -29.15,21.91 -49.48,32.05 -13.28,6.62 -45.42,23.07 -60.96,19.03l6.57 33.16c3.98,4.32 3.03,2.43 4.83,9.24 -20.34,-7.31 -37.45,-29.16 -54.28,-34.69 -15.4,7.53 -34.88,28.41 -51.8,32.52l8.81 -36.6c-29.63,10.75 -91.63,-24.25 -112.37,-36.73 -84.03,-50.57 -131.13,-161.43 -108.95,-265.97 2.21,-10.39 5.09,-20.95 8.04,-30.52 3.94,-12.8 8.59,-19.5 12.14,-29.02 -9.78,-1.38 -21.56,-0.81 -29.98,-3.95 -14.01,-5.23 -8.51,-11.45 -23.14,-15.15 -18.49,50.44 -29.46,56.62 -41.96,123.78 -4.96,26.66 -15.96,134.67 0.26,153.07z"/>
  <path class="fil5" d="M623 207.15c-2.36,29.63 -3.23,47.39 -15.64,72.9 -16.37,33.66 -11.59,12.81 46.48,15.03 22.08,0.84 37.45,1.51 57.81,7.41 30.21,8.77 78.81,33.03 96.22,33.11 15.79,-19.19 47.05,-41.32 72.6,-56.09 38.2,-22.06 86.47,-31.26 92.48,-36.5 -37.21,-25.91 -112.64,-47.66 -160.72,-54.19 -50.82,-6.89 -149.08,-1.21 -189.23,18.33z"/>
  <path class="fil6" d="M837.93 729.92l-20.43 0.43c3.62,5.69 1.37,2.38 2.44,7.26 9.3,4.68 40.36,28.14 47.69,36.02l-15.26 58.45c25.89,-9.4 45.37,-38.36 58.35,-31.29 3.27,1.77 16.38,12.56 18.43,15.1 8.21,3.22 10.78,5.1 16.74,10.93l7.25 2.54c-6.13,-11.76 -13.98,-23.51 -20.89,-34.16 -6.21,-9.59 -16.44,-23.94 -20.57,-33.72l31.12 -10.55c-5.85,-11.41 -8.63,-4.38 -19.28,-2.65 -11.37,1.85 0.56,0.97 -9.22,-2.88 -11.21,-4.43 -1.69,0.99 -6.56,0.23 -1.05,-12.27 -3.27,-54.02 0.97,-66.49 0.14,-0.4 0.43,-1.13 0.75,-1.63l-4.17 -8.49 -24.58 59.52 -42.78 1.38z"/>
  <path class="fil6" d="M905.58 571.69c-10.17,-22.1 -35.52,-54.07 -43.45,-68.39 13.06,-5.49 33.4,-8.64 42.59,-17.41 -2.94,-2.08 -0.82,-1.68 -6.33,-1.98 -7.51,-0.41 -29.27,10.28 -36.48,4.62 -1.77,-1.4 -1.71,4.07 -2.47,-7.37 -0.61,-9.16 -2.48,-56.48 1.97,-59.3 -1.93,-4.85 1.91,-3.27 -3.33,-4.14 -2.8,9.74 -19.51,47.42 -24.22,52.8 -11.17,0.79 -22,0.95 -33.11,1.51l-22.57 1.65c-2.19,0.59 4.66,-6.53 -7.7,3.56 12.49,6.85 39.2,26.89 49.21,37.45l-14.85 60.02c21.07,-10.35 33.94,-23.79 52.55,-33.31 17.67,5.69 28,22.61 48.19,30.29z"/>
  <path class="fil7" d="M953.14 829.36c7.28,5.02 2.08,1.09 3.94,0.04l-2.99 -16.02 -12.52 -41.05c14.23,-12.54 45.95,-35.55 49.59,-42.2l-63.47 -0.74 -18.23 -51.88c-0.32,0.5 -0.61,1.23 -0.75,1.63 -4.24,12.47 -2.02,54.22 -0.97,66.49 4.87,0.76 -4.65,-4.66 6.56,-0.23 9.78,3.85 -2.15,4.73 9.22,2.88 10.65,-1.73 13.43,-8.76 19.28,2.65l-31.12 10.55c4.13,9.78 14.36,24.13 20.57,33.72 6.91,10.65 14.76,22.4 20.89,34.16z"/>
  <path class="fil7" d="M905.58 571.69l1.33 4.12c7.87,0.06 2.48,0.58 4.24,-2.24 -5.48,-19.95 -14.64,-41.52 -17.27,-61.79l16.25 -8.1c5.94,-11 24.14,-19.27 32.9,-30.01l-61.56 -2.28c-6.74,-11.35 -14.23,-41.82 -20.06,-49.53 -4.45,2.82 -2.58,50.14 -1.97,59.3 0.76,11.44 0.7,5.97 2.47,7.37 7.21,5.66 28.97,-5.03 36.48,-4.62 5.51,0.3 3.39,-0.1 6.33,1.98 -9.19,8.77 -29.53,11.92 -42.59,17.41 7.93,14.32 33.28,46.29 43.45,68.39z"/>
  <path class="fil1" d="M460.59 912.19c-1.51,11.65 -1.76,11.65 -11.28,16.21 -6.67,3.2 -9.33,5.15 -17.51,7.19 1.33,-12.23 1.12,-18.11 -1.87,-28.94l-13.52 -25.37c23.66,12.98 46.15,-3.47 44.18,30.91zm-210.14 -614.67l-1.5 -11.7 15.1 0.6c31.5,1.25 47.02,19.09 55.99,40.34 5.3,-6.83 10.74,-13.51 16.33,-20.05 0.18,-1.69 0.47,-3.39 0.86,-5.09 0.66,0.62 1.27,1.27 1.87,1.92 3.13,-3.6 6.29,-7.16 9.49,-10.67l5.04 -5.45c-8.76,-12.99 -22.17,-19.11 -41.25,-7.49 -5.09,-2.95 -7.09,-5.07 -11.93,-8.03 -5.02,-3.11 -12.09,-7.27 -19.45,-9.48 -11.07,-3.33 -13.32,0.31 -22.03,-4.92l-24.93 1.36c-8.74,4.55 -13.36,8.86 -14.89,20.68 -0.28,0.47 -0.49,1.23 -0.63,1.53l-1.43 3.09c-4.04,7 -19.45,18.14 -22.78,19.35 1.27,-33.41 -1.21,-67.59 -0.06,-101.14 0.75,-21.75 2.97,-25.09 -3.24,-46.44 -5.07,-17.42 -11.74,-18.38 -22.7,-27.82 -11.82,-1.03 -30.56,-5.02 -43.97,13.24 -12.35,16.83 -8.47,33.99 -8.37,48.95 0.28,42.29 -0.06,84.74 -0.06,127.05 -14.44,3.36 -60.11,23.82 -53.91,48.81 4.54,18.25 16.71,23.84 24.11,28.89 21.39,14.57 32.46,26.99 28.99,50.76 -2.09,14.18 0.83,11.45 -7.91,18.53 -14.12,11.45 -17.87,10.07 -23.91,31.19 -10.64,37.3 -10.37,61.85 -3.31,95.45 14.72,14.36 10.62,12.99 34.77,12.59 4.46,31.56 1.59,104.49 -1.22,137.76 -10.74,9.02 -18.6,7.17 -21.38,21.84 -2.16,11.36 0.5,29.09 2.73,40 7.85,38.33 21.37,29.61 16.6,65.11 -0.92,11.31 -3.64,14.6 -2.82,28.7 0.66,11.24 2.58,14.72 2.52,28.74 -0.08,20.81 0.05,41.6 0.02,62.41l-2.47 59.81c0,42.69 -2.53,163.6 1.28,190.34 2.52,17.71 1.85,28.03 28.85,33.61 20.01,4.13 35.6,-6.42 45.53,-15.56 7.14,-20.69 6.52,-185.05 5.86,-219.58l4.96 6.06c0.28,0.35 0.84,0.82 1.12,1.19 3.89,5.4 3.09,8 3.45,15.96 20.17,0.35 22.69,4.81 23.56,24.39l8.97 1.4c4.54,35.63 -16.49,26.5 15.81,58 8.03,4.75 16.7,12.22 25.94,14.37 -2.6,9.72 -8.89,12.63 -16.85,16.77 -11.83,11.07 -18.61,10.98 -27.82,27.19 -8.48,14.93 -5.76,30.24 -2.65,47.07 11.84,17.23 25.27,13.68 59.31,11.99 23.48,-1.16 52.82,-11.03 65.02,-11.99l11.64 -4.62c6.33,-0.72 6.16,-1.17 11.02,-2.57l6.15 -4.36c14.57,-9.9 22.48,-19.19 26.14,-39.24l0.62 -46.75c-2.03,-2.93 -2.74,5.03 -2.9,-7.59 -0.12,-9.64 -1.36,-0.9 2.64,-6.52 5.9,-8.3 12.96,-9.37 21.04,-30.94 0.82,-16.75 -0.36,-18.23 -4.06,-30.34 -7.77,-5.74 -15.39,-11.67 -22.84,-17.79 0.99,5.57 -0.82,8.96 0.73,17.89 1.61,9.23 7.96,13.83 8.73,22.35 1.5,16.42 -17.81,27.9 -24.35,35.5 -1.74,40.85 20.13,77.49 -24.89,91.53 -36.07,11.24 -65.53,15.1 -105.92,16.12 -5,-31.02 8.75,-32.99 28.47,-45.73 13.88,-8.97 28.92,-27.18 23.38,-51.41 -18.06,-0.23 -33.88,-15.23 -46.19,-23.17 0.28,-22.47 8.78,-35.05 0.07,-57.69 -8.94,-23.22 -16.64,-16.44 -20.48,-44.17 -22.67,-2.54 -25.14,-5.47 -40.03,-14.48 0.45,-14.18 4.27,-31.57 0.13,-44.81 -5.89,-4.69 2.54,-0.85 -4.49,-1.4 -2.86,-0.22 6.49,-0.45 -3.21,0.22 -17.25,1.19 -6.5,-1.79 -21.07,-4.93 -1.36,25.33 0.76,49.34 1.11,74.52 0.35,24.75 -1.89,49.56 -1.28,74.38 0.66,26.78 2.59,119.97 -1.5,141.82 -6.8,6.68 -15.45,9.78 -27.46,4.21 -9.84,-10.43 1.67,-281.58 -1.33,-330.04 -1.36,-21.95 3.15,-45.81 1.77,-62.87 -1.84,-22.84 -13.34,-31.65 -17.48,-49.98 -6.7,-29.66 -10.6,-35.62 16.68,-40.98 5.74,-55.26 3.87,-141.13 1.7,-197.82 -15.53,-3.69 -14.21,14.34 -35.27,17.02 -3.82,-26.61 -3.76,-41.95 2.15,-69.11 7.07,-32.49 15.62,-21.35 33.52,-37.56 2.13,-34.4 7.92,-46.24 -8.81,-72.01 -13.68,-21.06 -36.66,-25.41 -42.45,-40.58 4.91,-7.24 12.54,-9.13 21.25,-13.88 8.47,-4.63 17.37,-5.83 24.03,-9.56 14.11,-7.92 8.88,-39.7 8.14,-58 -0.95,-23.44 0.2,-46.08 0.6,-69.46 0.4,-23.5 -4.94,-40.54 4.54,-58.19l18.06 0.44c16.99,29.09 0.67,131.57 7.97,175.99 28.88,1.84 37.63,1.15 53.59,18.32 9.22,9.91 28.55,26.97 41.93,32.55 -1.65,-54.09 -17.42,-63.23 -22.4,-85.94zm79.59 63.31l2.34 10.66c0.48,2.11 1.82,7.81 2.6,9.58 2.63,5.92 0.39,2.42 4.12,5.83 7.48,-14.96 5.93,-28.74 2.96,-42.08 -4.01,5.01 -8.03,10.36 -12.02,16.01zm20.64 -26.27c2.31,29.91 -9.54,64.68 2.06,71.64 0.48,0.28 1.1,0.64 1.61,0.91 0.52,0.26 1.16,0.51 1.7,0.74 1.63,0.68 7.25,1.98 9.44,2.51 22.57,5.42 25.3,8.69 41.37,28.08 8.09,9.74 11.09,13.65 16.68,28.9 3.89,10.6 2.77,28.79 8.9,36.84 12.61,6.76 40.15,-1.36 56.56,0.11 -6.36,11.06 -19.58,7.75 -34.36,8.09 7.85,5.19 37.32,9.26 49.93,12.8 10.99,3.08 13.02,5.96 24.79,8.66 3.29,0.76 11.29,1.96 13.84,3.07 26.73,11.8 -19.5,20.47 -29.66,22.3 -10.13,1.82 -33.17,6.5 -40.78,9.33 5.76,5.84 9.81,5.08 19.26,7.45l50.78 22.73c-12.04,3.71 -29.86,3.68 -43.84,5.45l-40.17 7.81c6.47,6.03 9.03,5.11 10.63,13.27 -13.84,7.92 -80.51,2.97 -101.85,3.23 -0.5,13.25 -1.55,25.63 3.45,37.95l27.25 0.21c-0.17,14.81 -3.63,31.67 -1.75,45.75 1.53,11.49 9.83,27.99 5.92,39.89 -4.03,12.23 -6.51,2.29 -9.74,13.57 -2.54,8.88 4.72,3.86 -5.03,14.66 -9.62,10.66 -6.58,18.63 -12.51,35.52 -6.11,17.43 -3.27,25.37 5.94,36.26 11.59,13.72 7.96,15.53 14.87,32.99 4.82,12.15 10.78,20.85 15.96,32.01 8.78,18.97 -0.34,21.52 -11.5,30.04 11.31,38.99 110.95,10.6 87.03,-52.9 -14.77,-39.19 -50.32,-17.24 -56.47,-34.3 -11.6,-32.16 38.85,-27.73 55.17,-19.55 44.43,22.29 45.45,106.08 15.42,128.21 -9.83,7.23 -50.86,23.09 -66.91,24.6 -33.97,3.22 -49.05,-7.8 -62.27,-26.79 -5.58,10.19 0.74,13.38 5.32,20.9 3.38,5.57 3.99,8.51 3.57,11.31 8.08,8.49 16.39,16.68 24.94,24.53 -2.16,-3.45 -4.56,-6.79 -7.19,-10.05l4.4 -0.59c37.83,1.95 66.82,-8.53 95.6,-22.33 24.86,-11.93 38.88,-36.09 40.88,-76.08 -1.74,-43.07 -13.82,-79.89 -44.79,-96.85 -18.7,-10.24 -32.55,-13.71 -57.53,-8.6 -26.03,5.32 -30.08,8.92 -37.66,31.96 -6.61,-8.61 -11.92,-7.91 -8.57,-20.25 1.85,-6.83 6.12,-22.96 8.78,-27.48 6.8,-11.59 19.33,-34.82 20.86,-48.1l-2.91 -24.66 -0.97 -4.67c-1.95,-4.88 -3.39,-8.55 -3.59,-15.13 -0.09,-2.55 0.12,-6.62 0.62,-9.12 0.89,-4.52 0.74,-2.6 2.09,-4.8l-0.13 -21.41 -3.6 -16.89 10.24 -0.08 35.01 -0.17c17.23,-2.64 25.01,-8.74 30.28,-23.33 15.8,-2.1 51.66,-2.67 61.6,-10.3 4.85,-3.72 11.77,-14.04 11.41,-23.82 -0.45,-12.29 -7,-14.5 -13.41,-21.2 31.24,-16.65 27.62,-45.49 -5.21,-59.64 -16.28,-2.96 -16.99,-3.82 -28.93,-9.58l-10.18 -2.4 -1.93 -11.7c-9.99,-4.45 -3.78,-9.44 -23.55,-9.8 -11.23,-0.2 -21.36,1.88 -32.82,0.8l-2.61 -14.25c-12.47,-34.49 -36.48,-71.17 -75.69,-78.44 2.8,-27.42 4.39,-42.69 -1.25,-66.15 -2.08,2.36 -4.24,4.74 -6.54,7.27 -1.74,1.9 -3.56,3.9 -5.51,6.01l-2.75 3.05zm-60.02 341.82l2.96 -7.32 -8.73 2.58c-14.1,1.5 -19.9,0.93 -29.9,-7.07 -4.94,-3.95 -10.73,-8.4 -16.25,-13.16 0.03,24.53 1.86,48.98 5.47,73.14 1.41,-2.11 2.81,-4.25 4.15,-6.46 25.55,-41.92 36.47,-20.88 42.3,-41.71zm-78.41 -88.49c-10.14,-4.16 -22.96,-7.02 -25.38,-22.38l-3.87 -21.09c-12.34,4.76 -11.13,11.26 -10.24,26.79 2.54,44.57 1.91,60.1 0.94,105.44 -0.33,15.22 -2.02,58.54 0.81,71.25 2.19,9.82 32.27,23.18 44.85,24.9 0.6,-2.85 1.32,-5.56 2.14,-8.14 -4.25,-18.58 -6.93,-33.92 -8.63,-48.8l-3.78 6.07c-20.84,33.65 -18.09,-0.4 -18.06,-18.93l1.3 -64.2c5.98,8.06 11.86,14.08 17.68,19.42l-0.06 -14.49 0 -2.6 0 -2.76 0 -2.81 0 -2.85 0 -0.01c0,-15.02 0.78,-29.97 2.3,-44.81zm-37.92 348.95c11.52,-11.51 9.95,-32.17 16.19,-46.58 6.19,-14.3 15.56,-30.26 20.39,-43.03 -9.34,-5.13 -23.85,-9.37 -35.6,-10.06 -3.45,27.73 -6.18,72.03 -0.98,99.67z"/>
  <path class="fil1" d="M190.24 1036.75l4.96 6.06c0.28,0.35 0.84,0.82 1.12,1.19 3.89,5.4 3.09,8 3.45,15.96 20.17,0.35 22.69,4.81 23.56,24.39l8.97 1.4c4.54,35.63 -16.49,26.5 15.81,58 8.03,4.75 16.7,12.22 25.94,14.37 -2.6,9.72 -8.89,12.63 -16.85,16.77 -11.83,11.07 -18.61,10.98 -27.82,27.19 -8.48,14.93 -5.76,30.24 -2.65,47.07 11.84,17.23 25.27,13.68 59.31,11.99 23.48,-1.16 52.82,-11.03 65.02,-11.99l11.64 -4.62c6.33,-0.72 6.16,-1.17 11.02,-2.57l6.15 -4.36c14.57,-9.9 22.48,-19.19 26.14,-39.24l0.62 -46.75c-2.03,-2.93 -2.74,5.03 -2.9,-7.59 -0.12,-9.64 -1.36,-0.9 2.64,-6.52 5.9,-8.3 12.96,-9.37 21.04,-30.94 0.88,-18.01 -0.55,-18.36 -4.94,-33.25 -3.17,-2.42 -1.55,-1.2 -4.23,-3.56 0.6,-24.43 -6.88,-41.15 -19.2,-56.46l4.4 -0.59c37.83,1.95 66.82,-8.53 95.6,-22.33 24.86,-11.93 38.88,-36.09 40.88,-76.08 -1.74,-43.07 -13.82,-79.89 -44.79,-96.85 -18.7,-10.24 -32.55,-13.71 -57.53,-8.6 -26.03,5.32 -30.08,8.92 -37.66,31.96 -6.61,-8.61 -11.92,-7.91 -8.57,-20.25 1.85,-6.83 6.12,-22.96 8.78,-27.48 6.8,-11.59 19.33,-34.82 20.86,-48.1l-2.91 -24.66 -0.97 -4.67c-1.95,-4.88 -3.39,-8.55 -3.59,-15.13 -0.09,-2.55 0.12,-6.62 0.62,-9.12 0.89,-4.52 0.74,-2.6 2.09,-4.8l-0.13 -21.41 -3.6 -16.89 10.24 -0.08 35.01 -0.17c17.23,-2.64 25.01,-8.74 30.28,-23.33 15.8,-2.1 51.66,-2.67 61.6,-10.3 4.85,-3.72 11.77,-14.04 11.41,-23.82 -0.45,-12.29 -7,-14.5 -13.41,-21.2 31.24,-16.65 27.62,-45.49 -5.21,-59.64 -16.28,-2.96 -16.99,-3.82 -28.93,-9.58l-10.18 -2.4 -1.93 -11.7c-9.99,-4.45 -3.78,-9.44 -23.55,-9.8 -11.23,-0.2 -21.36,1.88 -32.82,0.8l-2.61 -14.25c-12.47,-34.49 -36.48,-71.17 -75.69,-78.44 3.26,-31.88 4.88,-47.34 -4.61,-78.35 -7.25,-23.64 -22.87,-42.47 -49.74,-26.1 -5.09,-2.95 -7.09,-5.07 -11.93,-8.03 -5.02,-3.11 -12.09,-7.27 -19.45,-9.48 -11.07,-3.33 -13.32,0.31 -22.03,-4.92l-24.93 1.36c-8.74,4.55 -13.36,8.86 -14.89,20.68 -0.28,0.47 -0.49,1.23 -0.63,1.53l-1.43 3.09c-4.04,7 -19.45,18.14 -22.78,19.35 1.27,-33.41 -1.21,-67.59 -0.06,-101.14 0.75,-21.75 2.97,-25.09 -3.24,-46.44 -5.07,-17.42 -11.74,-18.38 -22.7,-27.82 -11.82,-1.03 -30.56,-5.02 -43.97,13.24 -12.35,16.83 -8.47,33.99 -8.37,48.95 0.28,42.29 -0.06,84.74 -0.06,127.05 -14.44,3.36 -60.11,23.82 -53.91,48.81 4.54,18.25 16.71,23.84 24.11,28.89 21.39,14.57 32.46,26.99 28.99,50.76 -2.09,14.18 0.83,11.45 -7.91,18.53 -14.12,11.45 -17.87,10.07 -23.91,31.19 -10.64,37.3 -10.37,61.85 -3.31,95.45 14.72,14.36 10.62,12.99 34.77,12.59 4.46,31.56 1.59,104.49 -1.22,137.76 -10.74,9.02 -18.6,7.17 -21.38,21.84 -2.16,11.36 0.5,29.09 2.73,40 7.85,38.33 21.37,29.61 16.6,65.11 -0.92,11.31 -3.64,14.6 -2.82,28.7 0.66,11.24 2.58,14.72 2.52,28.74 -0.08,20.81 0.05,41.6 0.02,62.41l-2.47 59.81c0,42.69 -2.53,163.6 1.28,190.34 2.52,17.71 1.85,28.03 28.85,33.61 20.01,4.13 35.6,-6.42 45.53,-15.56 7.14,-20.69 6.52,-185.05 5.86,-219.58z"/>
  <path class="fil8" d="M250.45 297.52l-1.5 -11.7 15.1 0.6c53.33,2.12 60.86,51.77 68.33,85.07 0.48,2.11 1.82,7.81 2.6,9.58 2.63,5.92 0.39,2.42 4.12,5.83 15.66,-31.32 -8.3,-57.47 -1.87,-85.28 30.02,28.37 -1.01,94.67 15.51,104.58 0.48,0.28 1.1,0.64 1.61,0.91 0.52,0.26 1.16,0.51 1.7,0.74 1.63,0.68 7.25,1.98 9.44,2.51 22.57,5.42 25.3,8.69 41.37,28.08 8.09,9.74 11.09,13.65 16.68,28.9 3.89,10.6 2.77,28.79 8.9,36.84 12.61,6.76 40.15,-1.36 56.56,0.11 -6.36,11.06 -19.58,7.75 -34.36,8.09 7.85,5.19 37.32,9.26 49.93,12.8 10.99,3.08 13.02,5.96 24.79,8.66 3.29,0.76 11.29,1.96 13.84,3.07 26.73,11.8 -19.5,20.47 -29.66,22.3 -10.13,1.82 -33.17,6.5 -40.78,9.33 5.76,5.84 9.81,5.08 19.26,7.45l50.78 22.73c-12.04,3.71 -29.86,3.68 -43.84,5.45l-40.17 7.81c6.47,6.03 9.03,5.11 10.63,13.27 -13.84,7.92 -80.51,2.97 -101.85,3.23 -0.5,13.25 -1.55,25.63 3.45,37.95l27.25 0.21c-0.17,14.81 -3.63,31.67 -1.75,45.75 1.53,11.49 9.83,27.99 5.92,39.89 -4.03,12.23 -6.51,2.29 -9.74,13.57 -2.54,8.88 4.72,3.86 -5.03,14.66 -9.62,10.66 -6.58,18.63 -12.51,35.52 -6.11,17.43 -3.27,25.37 5.94,36.26 11.59,13.72 7.96,15.53 14.87,32.99 4.82,12.15 10.78,20.85 15.96,32.01 8.78,18.97 -0.34,21.52 -11.5,30.04 11.31,38.99 110.95,10.6 87.03,-52.9 -14.77,-39.19 -50.32,-17.24 -56.47,-34.3 -11.6,-32.16 38.85,-27.73 55.17,-19.55 44.43,22.29 45.45,106.08 15.42,128.21 -9.83,7.23 -50.86,23.09 -66.91,24.6 -33.97,3.22 -49.05,-7.8 -62.27,-26.79 -5.58,10.19 0.74,13.38 5.32,20.9 7.04,11.59 2.05,11.78 0.86,23.14 -1.16,10.99 13.73,29.22 18.6,38.76 6.49,12.71 1.84,14.14 4.06,26.92 1.61,9.23 7.96,13.83 8.73,22.35 1.5,16.42 -17.81,27.9 -24.35,35.5 -1.74,40.85 20.13,77.49 -24.89,91.53 -36.07,11.24 -65.53,15.1 -105.92,16.12 -5,-31.02 8.75,-32.99 28.47,-45.73 13.88,-8.97 28.92,-27.18 23.38,-51.41 -18.06,-0.23 -33.88,-15.23 -46.19,-23.17 0.28,-22.47 8.78,-35.05 0.07,-57.69 -8.94,-23.22 -16.64,-16.44 -20.48,-44.17 -22.67,-2.54 -25.14,-5.47 -40.03,-14.48 0.45,-14.18 4.27,-31.57 0.13,-44.81 -5.89,-4.69 2.54,-0.85 -4.49,-1.4 -2.86,-0.22 6.49,-0.45 -3.21,0.22 -17.25,1.19 -6.5,-1.79 -21.07,-4.93 -1.36,25.33 0.76,49.34 1.11,74.52 0.35,24.75 -1.89,49.56 -1.28,74.38 0.66,26.78 2.59,119.97 -1.5,141.82 -6.8,6.68 -15.45,9.78 -27.46,4.21 -9.84,-10.43 1.67,-281.58 -1.33,-330.04 -1.36,-21.95 3.15,-45.81 1.77,-62.87 -1.84,-22.84 -13.34,-31.65 -17.48,-49.98 -6.7,-29.66 -10.6,-35.62 16.68,-40.98 5.74,-55.26 3.87,-141.13 1.7,-197.82 -15.53,-3.69 -14.21,14.34 -35.27,17.02 -3.82,-26.61 -3.76,-41.95 2.15,-69.11 7.07,-32.49 15.62,-21.35 33.52,-37.56 2.13,-34.4 7.92,-46.24 -8.81,-72.01 -13.68,-21.06 -36.66,-25.41 -42.45,-40.58 4.91,-7.24 12.54,-9.13 21.25,-13.88 8.47,-4.63 17.37,-5.83 24.03,-9.56 14.11,-7.92 8.88,-39.7 8.14,-58 -0.95,-23.44 0.2,-46.08 0.6,-69.46 0.4,-23.5 -4.94,-40.54 4.54,-58.19l18.06 0.44c16.99,29.09 0.67,131.57 7.97,175.99 28.88,1.84 37.63,1.15 53.59,18.32 9.22,9.91 28.55,26.97 41.93,32.55 -1.65,-54.09 -17.42,-63.23 -22.4,-85.94z"/>
  <path class="fil6" d="M606.26 448.75l-9.01 27.85 -64.24 1.87c4.59,6.26 8.09,8.9 13.12,12.67 6.98,5.24 9.68,5.72 12.28,11.8 5.94,2.5 7.17,2.78 12.44,6.57 4.22,3.04 5.86,5.88 11.2,8.6 -0.81,18.73 -10.41,46.69 -15.94,62.32 11.78,-2.35 40.02,-26.66 53.75,-34.09 13.78,4.68 28.21,23.15 46.99,30.09 -9.12,-17.06 -38.87,-54.02 -43.45,-68.98 27.96,-6.93 51.84,-18.71 66.46,-22.93 12.63,-3.65 5.57,-1.92 8.96,0.32l7.12 -5.65 -63.38 -2.82 -20.63 -55.15c-0.32,0.51 -0.65,0.78 -0.79,1.64l-7.04 11.31c-4.59,6.81 -2.81,8.01 -7.84,14.58z"/>
  <path class="fil6" d="M624.37 799.83l-8.81 36.6c16.92,-4.11 36.4,-24.99 51.8,-32.52 16.83,5.53 33.94,27.38 54.28,34.69 -1.8,-6.81 -0.85,-4.92 -4.83,-9.24 -1.13,5.39 1.07,1.72 -2.13,4.65 -8.66,-16.56 -31.21,-56.03 -41.82,-67.1 8.66,-6 21.19,-8.23 31.42,-11.59 11.56,-3.8 23.23,-5.92 29.49,-14.59 -31.31,4.34 -40.41,15.93 -60.54,10.4 -0.24,-0.06 -1.01,-0.27 -1.19,-0.32 -0.18,-0.05 -1.01,0.1 -1.14,-0.33 -0.12,-0.42 -0.77,-0.12 -1.21,-0.32l1.6 -65.67 -4.51 -9.69c-4.98,15.55 -15.77,47.48 -24.31,58.85l-61.21 2.86c12.37,13.94 33.81,26.93 48.08,40.82l-4.97 22.5z"/>
  <path class="fil9" d="M423.23 437.59c4.29,5.19 3.12,10.22 10.11,19.28 5.62,7.26 10.46,11.48 15.13,17.38 -3.47,2.83 -1.32,-0.47 -5.05,5.9l9.03 -0.2 4.06 5.83c1.32,-0.86 2.9,-0.1 5,-3 0.37,0.41 0.84,0.58 1,1.32 0.7,3.32 0.99,1.43 2.04,2.59 14.37,16.07 74.04,27.27 93.86,16.25 -2.6,-6.08 -5.3,-6.56 -12.28,-11.8 -5.03,-3.77 -8.53,-6.41 -13.12,-12.67l64.24 -1.87 9.01 -27.85c-44.02,17.13 -76.41,31.51 -119.42,4.31 -31.59,-19.96 -8.18,-35.01 -55.75,-20.63 -9.53,2.89 -2.12,0.45 -4.52,1.98 -3.33,2.1 -1.98,1.42 -3.34,3.18z"/>
  <path class="fil4" d="M415.69 791.6c6.19,4.77 20.35,31.57 26.69,41.06 9.72,14.53 49.3,72.31 67.57,70.18 14.45,-1.68 40.06,-11.83 52.38,-17.81l-3.08 -4.91c-86.62,-30.31 -146.36,-118.38 -159.62,-127.6l16.06 39.08z"/>
  <path class="fil7" d="M716.81 829.36l-6.57 -33.16 -7.06 -21.94c13.78,-6.35 41,-27.54 49.79,-37.62l-62.92 -2.43 -18.76 -49.72 -1.6 65.67c0.44,0.2 1.09,-0.1 1.21,0.32 0.13,0.43 0.96,0.28 1.14,0.33 0.18,0.05 0.95,0.26 1.19,0.32 20.13,5.53 29.23,-6.06 60.54,-10.4 -6.26,8.67 -17.93,10.79 -29.49,14.59 -10.23,3.36 -22.76,5.59 -31.42,11.59 10.61,11.07 33.16,50.54 41.82,67.1 3.2,-2.93 1,0.74 2.13,-4.65z"/>
  <path class="fil7" d="M666.85 576.43l5.61 3.74 -16.12 -60.87c11.88,-12.22 34.46,-22.2 42.48,-34.46 -3.39,-2.24 3.67,-3.97 -8.96,-0.32 -14.62,4.22 -38.5,16 -66.46,22.93 4.58,14.96 34.33,51.92 43.45,68.98z"/>
  <path class="fil1" d="M174.33 936.84c11.52,-11.51 9.95,-32.17 16.19,-46.58 6.19,-14.3 15.56,-30.26 20.39,-43.03 -9.34,-5.13 -23.85,-9.37 -35.6,-10.06 -3.45,27.73 -6.18,72.03 -0.98,99.67z"/>
  <path class="fil8" d="M290.66 676.38l2.96 -7.32 -8.73 2.58c-14.1,1.5 -19.9,0.93 -29.9,-7.07 -13.12,-10.49 -32.32,-24.59 -36.18,-38.28 -5.3,-18.74 2.89,-12.37 6.26,-23.9 -0.83,-20.52 -34.15,-11.13 -38.2,-36.88l-3.87 -21.09c-12.34,4.76 -11.13,11.26 -10.24,26.79 2.54,44.57 1.91,60.1 0.94,105.44 -0.33,15.22 -2.02,58.54 0.81,71.25 2.19,9.82 32.27,23.18 44.85,24.9 5.01,-23.82 18.44,-37.39 29,-54.71 25.55,-41.92 36.47,-20.88 42.3,-41.71z"/>
  <path class="fil10" d="M494.21 972.24c42.91,-13.39 41.7,-136.26 -35.58,-137.48 -14.49,-0.23 -38.95,5.35 -27.35,26.59 7.16,13.1 64.72,-1.12 59.04,56.44 -1.57,15.9 -13.19,28.09 -21.67,35.52 -23.34,10.76 -54.1,22.48 -67.43,-4.45 15.57,-21.46 23.3,-4.45 -2.25,-57.21 -5.17,-10.68 -6.88,-23.67 -12.87,-32.82 -8.27,-12.65 -14.66,-12.02 -13.51,-32.61 3.45,-10.06 4.9,-19.14 7.73,-29.62 4.83,-17.92 11.82,-11.91 12.2,-28.29 4.24,-19.32 17.84,0.13 6.21,-46.61 -4.84,-19.42 -1.42,-35.08 -0.57,-55.03l-27.37 -0.46c-4.46,-14.84 -3.74,-22.15 -3.31,-37.45 34.91,-1.11 67.2,4.23 101.49,-2.69 -2.29,-11.72 -2.47,-4.94 -8.46,-14.79l78.21 -11.94c-16.46,-14.71 -44.53,-20.11 -64.81,-28.97 8.63,-7.2 26.62,-8.51 39.91,-11.24 6.97,-1.43 13.77,-2.84 20.49,-4.67 10.2,-2.78 11.75,-2.56 16.71,-9.68 -5.25,-10.37 -8.58,-8.08 -20.59,-10.78 -10.12,-2.27 -15.55,-5.45 -24.8,-8.3 -16.87,-5.2 -31.81,-6.66 -48.52,-12.74 17,-1.28 20.81,2.74 31.03,-7.86l-35.85 1.87c-13.8,0.09 -16.95,1.08 -22.81,-8.12 -5.59,-28.46 -10.36,-58.77 -42.53,-80.53 -14.31,-9.68 -35.77,-5.26 -38.89,-21.7 -2.04,-10.72 2.9,-44.01 2.85,-58.55 -8.48,4.67 -8.35,-1.31 -6.83,21.25 0.71,10.65 -1.42,19.9 -5.7,26.67l-8.67 -23.15c-45.97,53.04 -85.06,170.46 -89.28,250.47 -1.09,20.82 -5.3,36.09 9,46.84 16.73,12.57 19.75,13 43.94,9.37 -8.76,26.65 -14.46,13.97 -31.55,31.49 -13.33,13.67 -19.35,20.82 -14.24,44.82 7.56,35.58 16.03,66.55 29.68,97.48 36.38,82.47 48.44,85.77 92.73,143.35l10.61 9.49c-3.69,-13.82 -12.98,-15.82 -8.27,-27.2 0.51,0.35 1.21,0.39 1.41,1.2l8.85 9.12c30.45,28.51 89.52,8.59 111.62,-7.03z"/>
  <path class="fil11 str0" d="M460.59 912.19c-1.51,11.65 -1.76,11.65 -11.28,16.21 -6.67,3.2 -9.33,5.15 -17.51,7.19 1.33,-12.23 1.12,-18.11 -1.87,-28.94l-13.52 -25.37c23.66,12.98 46.15,-3.47 44.18,30.91zm-210.14 -614.67l-1.5 -11.7 15.1 0.6c53.33,2.12 60.86,51.77 68.33,85.07 0.48,2.11 1.82,7.81 2.6,9.58 2.63,5.92 0.39,2.42 4.12,5.83 15.66,-31.32 -8.3,-57.47 -1.87,-85.28 30.02,28.37 -1.01,94.67 15.51,104.58 0.48,0.28 1.1,0.64 1.61,0.91 0.52,0.26 1.16,0.51 1.7,0.74 1.63,0.68 7.25,1.98 9.44,2.51 22.57,5.42 25.3,8.69 41.37,28.08 8.09,9.74 11.09,13.65 16.68,28.9 3.89,10.6 2.77,28.79 8.9,36.84 12.61,6.76 40.15,-1.36 56.56,0.11 -6.36,11.06 -19.58,7.75 -34.36,8.09 7.85,5.19 37.32,9.26 49.93,12.8 10.99,3.08 13.02,5.96 24.79,8.66 3.29,0.76 11.29,1.96 13.84,3.07 26.73,11.8 -19.5,20.47 -29.66,22.3 -10.13,1.82 -33.17,6.5 -40.78,9.33 5.76,5.84 9.81,5.08 19.26,7.45l50.78 22.73c-12.04,3.71 -29.86,3.68 -43.84,5.45l-40.17 7.81c6.47,6.03 9.03,5.11 10.63,13.27 -13.84,7.92 -80.51,2.97 -101.85,3.23 -0.5,13.25 -1.55,25.63 3.45,37.95l27.25 0.21c-0.17,14.81 -3.63,31.67 -1.75,45.75 1.53,11.49 9.83,27.99 5.92,39.89 -4.03,12.23 -6.51,2.29 -9.74,13.57 -2.54,8.88 4.72,3.86 -5.03,14.66 -9.62,10.66 -6.58,18.63 -12.51,35.52 -6.11,17.43 -3.27,25.37 5.94,36.26 11.59,13.72 7.96,15.53 14.87,32.99 4.82,12.15 10.78,20.85 15.96,32.01 8.78,18.97 -0.34,21.52 -11.5,30.04 11.31,38.99 110.95,10.6 87.03,-52.9 -14.77,-39.19 -50.32,-17.24 -56.47,-34.3 -11.6,-32.16 38.85,-27.73 55.17,-19.55 44.43,22.29 45.45,106.08 15.42,128.21 -9.83,7.23 -50.86,23.09 -66.91,24.6 -33.97,3.22 -49.05,-7.8 -62.27,-26.79 -5.58,10.19 0.74,13.38 5.32,20.9 7.04,11.59 2.05,11.78 0.86,23.14 -1.16,10.99 13.73,29.22 18.6,38.76 6.49,12.71 1.84,14.14 4.06,26.92 1.61,9.23 7.96,13.83 8.73,22.35 1.5,16.42 -17.81,27.9 -24.35,35.5 -1.74,40.85 20.13,77.49 -24.89,91.53 -36.07,11.24 -65.53,15.1 -105.92,16.12 -5,-31.02 8.75,-32.99 28.47,-45.73 13.88,-8.97 28.92,-27.18 23.38,-51.41 -18.06,-0.23 -33.88,-15.23 -46.19,-23.17 0.28,-22.47 8.78,-35.05 0.07,-57.69 -8.94,-23.22 -16.64,-16.44 -20.48,-44.17 -22.67,-2.54 -25.14,-5.47 -40.03,-14.48 0.45,-14.18 4.27,-31.57 0.13,-44.81 -5.89,-4.69 2.54,-0.85 -4.49,-1.4 -2.86,-0.22 6.49,-0.45 -3.21,0.22 -17.25,1.19 -6.5,-1.79 -21.07,-4.93 -1.36,25.33 0.76,49.34 1.11,74.52 0.35,24.75 -1.89,49.56 -1.28,74.38 0.66,26.78 2.59,119.97 -1.5,141.82 -6.8,6.68 -15.45,9.78 -27.46,4.21 -9.84,-10.43 1.67,-281.58 -1.33,-330.04 -1.36,-21.95 3.15,-45.81 1.77,-62.87 -1.84,-22.84 -13.34,-31.65 -17.48,-49.98 -6.7,-29.66 -10.6,-35.62 16.68,-40.98 5.74,-55.26 3.87,-141.13 1.7,-197.82 -15.53,-3.69 -14.21,14.34 -35.27,17.02 -3.82,-26.61 -3.76,-41.95 2.15,-69.11 7.07,-32.49 15.62,-21.35 33.52,-37.56 2.13,-34.4 7.92,-46.24 -8.81,-72.01 -13.68,-21.06 -36.66,-25.41 -42.45,-40.58 4.91,-7.24 12.54,-9.13 21.25,-13.88 8.47,-4.63 17.37,-5.83 24.03,-9.56 14.11,-7.92 8.88,-39.7 8.14,-58 -0.95,-23.44 0.2,-46.08 0.6,-69.46 0.4,-23.5 -4.94,-40.54 4.54,-58.19l18.06 0.44c16.99,29.09 0.67,131.57 7.97,175.99 28.88,1.84 37.63,1.15 53.59,18.32 9.22,9.91 28.55,26.97 41.93,32.55 -1.65,-54.09 -17.42,-63.23 -22.4,-85.94zm-60.21 739.23l4.96 6.06c0.28,0.35 0.84,0.82 1.12,1.19 3.89,5.4 3.09,8 3.45,15.96 20.17,0.35 22.69,4.81 23.56,24.39l8.97 1.4c4.54,35.63 -16.49,26.5 15.81,58 8.03,4.75 16.7,12.22 25.94,14.37 -2.6,9.72 -8.89,12.63 -16.85,16.77 -11.83,11.07 -18.61,10.98 -27.82,27.19 -8.48,14.93 -5.76,30.24 -2.65,47.07 11.84,17.23 25.27,13.68 59.31,11.99 23.48,-1.16 52.82,-11.03 65.02,-11.99l11.64 -4.62c6.33,-0.72 6.16,-1.17 11.02,-2.57l6.15 -4.36c14.57,-9.9 22.48,-19.19 26.14,-39.24l0.62 -46.75c-2.03,-2.93 -2.74,5.03 -2.9,-7.59 -0.12,-9.64 -1.36,-0.9 2.64,-6.52 5.9,-8.3 12.96,-9.37 21.04,-30.94 0.88,-18.01 -0.55,-18.36 -4.94,-33.25 -3.17,-2.42 -1.55,-1.2 -4.23,-3.56 0.6,-24.43 -6.88,-41.15 -19.2,-56.46l4.4 -0.59c37.83,1.95 66.82,-8.53 95.6,-22.33 24.86,-11.93 38.88,-36.09 40.88,-76.08 -1.74,-43.07 -13.82,-79.89 -44.79,-96.85 -18.7,-10.24 -32.55,-13.71 -57.53,-8.6 -26.03,5.32 -30.08,8.92 -37.66,31.96 -6.61,-8.61 -11.92,-7.91 -8.57,-20.25 1.85,-6.83 6.12,-22.96 8.78,-27.48 6.8,-11.59 19.33,-34.82 20.86,-48.1l-2.91 -24.66 -0.97 -4.67c-1.95,-4.88 -3.39,-8.55 -3.59,-15.13 -0.09,-2.55 0.12,-6.62 0.62,-9.12 0.89,-4.52 0.74,-2.6 2.09,-4.8l-0.13 -21.41 -3.6 -16.89 10.24 -0.08 35.01 -0.17c17.23,-2.64 25.01,-8.74 30.28,-23.33 15.8,-2.1 51.66,-2.67 61.6,-10.3 4.85,-3.72 11.77,-14.04 11.41,-23.82 -0.45,-12.29 -7,-14.5 -13.41,-21.2 31.24,-16.65 27.62,-45.49 -5.21,-59.64 -16.28,-2.96 -16.99,-3.82 -28.93,-9.58l-10.18 -2.4 -1.93 -11.7c-9.99,-4.45 -3.78,-9.44 -23.55,-9.8 -11.23,-0.2 -21.36,1.88 -32.82,0.8l-2.61 -14.25c-12.47,-34.49 -36.48,-71.17 -75.69,-78.44 3.26,-31.88 4.88,-47.34 -4.61,-78.35 -7.25,-23.64 -22.87,-42.47 -49.74,-26.1 -5.09,-2.95 -7.09,-5.07 -11.93,-8.03 -5.02,-3.11 -12.09,-7.27 -19.45,-9.48 -11.07,-3.33 -13.32,0.31 -22.03,-4.92l-24.93 1.36c-8.74,4.55 -13.36,8.86 -14.89,20.68 -0.28,0.47 -0.49,1.23 -0.63,1.53l-1.43 3.09c-4.04,7 -19.45,18.14 -22.78,19.35 1.27,-33.41 -1.21,-67.59 -0.06,-101.14 0.75,-21.75 2.97,-25.09 -3.24,-46.44 -5.07,-17.42 -11.74,-18.38 -22.7,-27.82 -11.82,-1.03 -30.56,-5.02 -43.97,13.24 -12.35,16.83 -8.47,33.99 -8.37,48.95 0.28,42.29 -0.06,84.74 -0.06,127.05 -14.44,3.36 -60.11,23.82 -53.91,48.81 4.54,18.25 16.71,23.84 24.11,28.89 21.39,14.57 32.46,26.99 28.99,50.76 -2.09,14.18 0.83,11.45 -7.91,18.53 -14.12,11.45 -17.87,10.07 -23.91,31.19 -10.64,37.3 -10.37,61.85 -3.31,95.45 14.72,14.36 10.62,12.99 34.77,12.59 4.46,31.56 1.59,104.49 -1.22,137.76 -10.74,9.02 -18.6,7.17 -21.38,21.84 -2.16,11.36 0.5,29.09 2.73,40 7.85,38.33 21.37,29.61 16.6,65.11 -0.92,11.31 -3.64,14.6 -2.82,28.7 0.66,11.24 2.58,14.72 2.52,28.74 -0.08,20.81 0.05,41.6 0.02,62.41l-2.47 59.81c0,42.69 -2.53,163.6 1.28,190.34 2.52,17.71 1.85,28.03 28.85,33.61 20.01,4.13 35.6,-6.42 45.53,-15.56 7.14,-20.69 6.52,-185.05 5.86,-219.58zm100.42 -360.37l2.96 -7.32 -8.73 2.58c-14.1,1.5 -19.9,0.93 -29.9,-7.07 -13.12,-10.49 -32.32,-24.59 -36.18,-38.28 -5.3,-18.74 2.89,-12.37 6.26,-23.9 -0.83,-20.52 -34.15,-11.13 -38.2,-36.88l-3.87 -21.09c-12.34,4.76 -11.13,11.26 -10.24,26.79 2.54,44.57 1.91,60.1 0.94,105.44 -0.33,15.22 -2.02,58.54 0.81,71.25 2.19,9.82 32.27,23.18 44.85,24.9 5.01,-23.82 18.44,-37.39 29,-54.71 25.55,-41.92 36.47,-20.88 42.3,-41.71zm-99.63 26.62l1.3 -64.2c14.65,19.77 28.78,27.22 42.59,42.64 -7.52,11.33 -17.7,27.35 -25.83,40.49 -20.84,33.65 -18.09,-0.4 -18.06,-18.93zm-16.7 233.84c11.52,-11.51 9.95,-32.17 16.19,-46.58 6.19,-14.3 15.56,-30.26 20.39,-43.03 -9.34,-5.13 -23.85,-9.37 -35.6,-10.06 -3.45,27.73 -6.18,72.03 -0.98,99.67z"/>
  <path class="fil12" d="M250.45 297.52l-1.5 -11.7 15.1 0.6c53.33,2.12 60.86,51.77 68.33,85.07 0.48,2.11 1.82,7.81 2.6,9.58 2.63,5.92 0.39,2.42 4.12,5.83 15.66,-31.32 -8.3,-57.47 -1.87,-85.28 30.02,28.37 -1.01,94.67 15.51,104.58 0.48,0.28 1.1,0.64 1.61,0.91 0.52,0.26 1.16,0.51 1.7,0.74 1.63,0.68 7.25,1.98 9.44,2.51 22.57,5.42 25.3,8.69 41.37,28.08 8.09,9.74 11.09,13.65 16.68,28.9 3.89,10.6 2.77,28.79 8.9,36.84 12.61,6.76 40.15,-1.36 56.56,0.11 -6.36,11.06 -19.58,7.75 -34.36,8.09 7.85,5.19 37.32,9.26 49.93,12.8 10.99,3.08 13.02,5.96 24.79,8.66 3.29,0.76 11.29,1.96 13.84,3.07 26.73,11.8 -19.5,20.47 -29.66,22.3 -10.13,1.82 -33.17,6.5 -40.78,9.33 5.76,5.84 9.81,5.08 19.26,7.45l50.78 22.73c-12.04,3.71 -29.86,3.68 -43.84,5.45l-40.17 7.81c6.47,6.03 9.03,5.11 10.63,13.27 -13.84,7.92 -80.51,2.97 -101.85,3.23 -0.5,13.25 -1.55,25.63 3.45,37.95l27.25 0.21c-0.17,14.81 -3.63,31.67 -1.75,45.75 1.53,11.49 9.83,27.99 5.92,39.89 -4.03,12.23 -6.51,2.29 -9.74,13.57 -2.54,8.88 4.72,3.86 -5.03,14.66 -9.62,10.66 -6.58,18.63 -12.51,35.52 -6.11,17.43 -3.27,25.37 5.94,36.26 11.59,13.72 7.96,15.53 14.87,32.99 4.82,12.15 10.78,20.85 15.96,32.01 8.78,18.97 -0.34,21.52 -11.5,30.04 11.31,38.99 110.95,10.6 87.03,-52.9 -14.77,-39.19 -50.32,-17.24 -56.47,-34.3 -11.6,-32.16 38.85,-27.73 55.17,-19.55 44.43,22.29 45.45,106.08 15.42,128.21 -9.83,7.23 -50.86,23.09 -66.91,24.6 -33.97,3.22 -49.05,-7.8 -62.27,-26.79 -5.58,10.19 0.74,13.38 5.32,20.9 7.04,11.59 2.05,11.78 0.86,23.14 -1.16,10.99 13.73,29.22 18.6,38.76 6.49,12.71 1.84,14.14 4.06,26.92 1.61,9.23 7.96,13.83 8.73,22.35 1.5,16.42 -17.81,27.9 -24.35,35.5 -1.74,40.85 20.13,77.49 -24.89,91.53 -36.07,11.24 -65.53,15.1 -105.92,16.12 -5,-31.02 8.75,-32.99 28.47,-45.73 13.88,-8.97 28.92,-27.18 23.38,-51.41 -18.06,-0.23 -33.88,-15.23 -46.19,-23.17 0.28,-22.47 8.78,-35.05 0.07,-57.69 -8.94,-23.22 -16.64,-16.44 -20.48,-44.17 -22.67,-2.54 -25.14,-5.47 -40.03,-14.48 0.45,-14.18 4.27,-31.57 0.13,-44.81 -5.89,-4.69 2.54,-0.85 -4.49,-1.4 -2.86,-0.22 6.49,-0.45 -3.21,0.22 -17.25,1.19 -6.5,-1.79 -21.07,-4.93 -1.36,25.33 0.76,49.34 1.11,74.52 0.35,24.75 -1.89,49.56 -1.28,74.38 0.66,26.78 2.59,119.97 -1.5,141.82 -6.8,6.68 -15.45,9.78 -27.46,4.21 -9.84,-10.43 1.67,-281.58 -1.33,-330.04 -1.36,-21.95 3.15,-45.81 1.77,-62.87 -1.84,-22.84 -13.34,-31.65 -17.48,-49.98 -6.7,-29.66 -10.6,-35.62 16.68,-40.98 5.74,-55.26 3.87,-141.13 1.7,-197.82 -15.53,-3.69 -14.21,14.34 -35.27,17.02 -3.82,-26.61 -3.76,-41.95 2.15,-69.11 7.07,-32.49 15.62,-21.35 33.52,-37.56 2.13,-34.4 7.92,-46.24 -8.81,-72.01 -13.68,-21.06 -36.66,-25.41 -42.45,-40.58 4.91,-7.24 12.54,-9.13 21.25,-13.88 8.47,-4.63 17.37,-5.83 24.03,-9.56 14.11,-7.92 8.88,-39.7 8.14,-58 -0.95,-23.44 0.2,-46.08 0.6,-69.46 0.4,-23.5 -4.94,-40.54 4.54,-58.19l18.06 0.44c16.99,29.09 0.67,131.57 7.97,175.99 28.88,1.84 37.63,1.15 53.59,18.32 9.22,9.91 28.55,26.97 41.93,32.55 -1.65,-54.09 -17.42,-63.23 -22.4,-85.94z"/>
  <path class="fil13" d="M191.03 703l1.3 -64.2c14.65,19.77 28.78,27.22 42.59,42.64 -7.52,11.33 -17.7,27.35 -25.83,40.49 -20.84,33.65 -18.09,-0.4 -18.06,-18.93z"/>
 </g>
</svg>
