<?xml version="1.0" encoding="UTF-8"?>
<!DOCTYPE svg PUBLIC "-//W3C//DTD SVG 1.1//EN" "http://www.w3.org/Graphics/SVG/1.1/DTD/svg11.dtd">
<!-- Creator: CorelDRAW 2017 -->
<svg xmlns="http://www.w3.org/2000/svg" xml:space="preserve" width="5.4186mm" height="12.1918mm" version="1.1" style="shape-rendering:geometricPrecision; text-rendering:geometricPrecision; image-rendering:optimizeQuality; fill-rule:evenodd; clip-rule:evenodd"
viewBox="0 0 541.86 1219.18"
 xmlns:xlink="http://www.w3.org/1999/xlink">
 <defs>
  <style type="text/css">
   <![CDATA[
    .fil0 {fill:black}
   ]]>
  </style>
 </defs>
 <g id="Capa_x0020_1">
  <metadata id="CorelCorpID_0Corel-Layer"/>
  <path class="fil0" d="M244.79 584.62l3.14 -7.76 -9.26 2.74 6.67 -0.51 -0.55 5.53zm-105.67 28.24l1.38 -68.1c15.54,20.97 30.52,28.87 45.17,45.23 -7.98,12.02 -18.77,29.01 -27.4,42.95 -22.1,35.69 -19.18,-0.43 -19.15,-20.08zm105.67 -28.24l0.55 -5.53 -6.67 0.51c-14.95,1.59 -21.11,0.98 -31.71,-7.5 -13.92,-11.13 -34.28,-26.08 -38.38,-40.61 -5.62,-19.87 3.07,-13.12 6.64,-25.34 -0.88,-21.77 -36.22,-11.81 -40.51,-39.12l-4.11 -22.37c-13.09,5.05 -11.8,11.94 -10.86,28.42 2.7,47.27 2.03,63.74 1,111.83 -0.35,16.14 -2.14,62.09 0.86,75.57 2.32,10.41 34.22,24.58 47.57,26.41 5.31,-25.27 19.56,-39.66 30.76,-58.03 27.1,-44.46 38.68,-22.14 44.86,-44.24zm-123.38 276.26c12.22,-12.21 10.55,-34.12 17.17,-49.41 6.56,-15.16 16.5,-32.09 21.62,-45.64 -9.9,-5.44 -25.29,-9.94 -37.75,-10.67 -3.66,29.41 -6.56,76.4 -1.04,105.72zm303.62 -26.15c-1.61,12.36 -1.87,12.36 -11.97,17.2 -7.07,3.39 -9.89,5.46 -18.57,7.62 1.41,-12.97 1.19,-19.21 -1.98,-30.69l-14.34 -26.91c25.09,13.77 48.94,-3.68 46.86,32.78zm-222.89 -651.94c-6.36,-6.31 -4.99,-4.06 -2.47,-14.08 8.86,-1.08 10.24,-1.73 16.9,2.31 56.56,2.24 64.55,54.9 72.47,90.22 0.51,2.24 1.93,8.29 2.76,10.16 2.79,6.28 0.41,2.57 4.37,6.19 16.61,-33.22 -8.8,-60.96 -1.98,-90.45 31.84,30.09 -1.08,100.41 16.45,110.92 0.5,0.3 1.16,0.68 1.7,0.96 0.56,0.28 1.23,0.54 1.81,0.79 1.73,0.72 7.69,2.1 10.01,2.66 23.94,5.75 26.83,9.22 43.88,29.78 8.58,10.33 11.76,14.48 17.69,30.66 4.12,11.24 2.94,30.53 9.44,39.07 13.37,7.17 42.58,-1.44 59.99,0.12 -6.75,11.73 -20.77,8.22 -36.45,8.58 8.33,5.5 39.59,9.82 52.96,13.57 11.66,3.27 13.81,6.33 26.3,9.19 3.48,0.8 11.97,2.08 14.67,3.26 28.36,12.51 -20.68,21.71 -31.45,23.65 -10.75,1.93 -35.19,6.89 -43.26,9.89 6.11,6.2 10.41,5.39 20.43,7.9l53.86 24.11c-12.77,3.94 -31.67,3.91 -46.5,5.78l-42.6 8.29c6.86,6.39 9.57,5.42 11.27,14.07 -14.68,8.4 -85.39,3.15 -108.02,3.43 -0.54,14.05 -1.65,27.18 3.65,40.25l28.91 0.22c-0.18,15.71 -3.85,33.59 -1.86,48.53 1.62,12.18 10.43,29.68 6.28,42.31 -4.27,12.97 -6.91,2.42 -10.33,14.39 -2.69,9.42 5.01,4.09 -5.34,15.55 -10.2,11.3 -6.98,19.76 -13.26,37.67 -6.49,18.49 -3.47,26.91 6.29,38.46 12.3,14.55 8.45,16.47 15.78,34.99 5.11,12.89 11.43,22.11 16.92,33.95 9.32,20.12 -0.36,22.83 -12.19,31.86 11.99,41.36 117.68,11.25 92.3,-56.11 -15.66,-41.56 -53.37,-18.28 -59.89,-36.38 -12.3,-34.11 41.21,-29.41 58.52,-20.73 47.12,23.64 48.2,112.51 16.35,135.98 -10.42,7.67 -53.94,24.49 -70.97,26.1 -36.03,3.41 -52.02,-8.28 -66.04,-28.42 -5.92,10.81 0.78,14.19 5.64,22.17 7.47,12.29 2.17,12.49 0.91,24.54 -1.23,11.66 14.56,30.99 19.73,41.11 6.88,13.48 1.95,15 4.31,28.55 1.7,9.79 8.44,14.67 9.26,23.71 1.59,17.42 -18.89,29.59 -25.83,37.65 -1.85,43.33 21.35,82.19 -26.4,97.08 -38.26,11.93 -69.5,16.02 -112.34,17.1 -5.31,-32.9 9.28,-34.99 30.19,-48.5 14.73,-9.52 30.68,-28.83 24.8,-54.53 -19.15,-0.24 -35.93,-16.15 -48.99,-24.58 0.3,-23.83 9.31,-37.17 0.07,-61.18 -9.48,-24.63 -17.64,-17.44 -21.72,-46.85 -24.04,-2.7 -26.66,-5.8 -42.45,-15.36 0.47,-15.04 4.52,-33.48 0.13,-47.53 -6.24,-4.97 2.7,-0.9 -4.76,-1.48 -3.03,-0.23 6.88,-0.48 -3.4,0.23 -18.3,1.26 -6.9,-1.9 -22.35,-5.23 -1.44,26.87 0.8,52.33 1.18,79.04 0.37,26.25 -2.01,52.57 -1.36,78.89 0.7,28.41 2.74,127.25 -1.59,150.42 -7.21,7.09 -16.39,10.38 -29.13,4.47 -10.43,-11.07 1.77,-298.66 -1.41,-350.06 -1.44,-23.28 3.34,-48.58 1.88,-66.68 -1.95,-24.22 -14.15,-33.57 -18.54,-53.01 -7.11,-31.46 -11.24,-37.78 17.69,-43.46 6.09,-58.62 4.1,-149.69 1.8,-209.82 -16.47,-3.91 -15.07,15.21 -37.41,18.05 -4.05,-28.22 -3.98,-44.49 2.29,-73.3 7.49,-34.46 16.56,-22.64 35.55,-39.84 2.26,-36.48 8.4,-49.04 -9.35,-76.37 -14.51,-22.34 -38.88,-26.95 -45.02,-43.04 5.21,-7.68 13.3,-9.69 22.54,-14.73 8.98,-4.91 18.42,-6.18 25.49,-10.14 14.96,-8.4 9.41,-42.1 8.63,-61.51 -1.01,-24.86 0.21,-48.88 0.63,-73.67 0.43,-24.93 -5.23,-43 4.82,-61.72l19.16 0.46c18.02,30.86 0.71,139.55 8.45,186.67 30.63,1.95 39.91,1.22 56.84,19.43 9.78,10.51 30.28,28.6 44.47,34.52 -1.75,-57.37 -18.47,-67.06 -23.76,-91.15zm-180.82 311.25c15.62,15.23 11.27,13.78 36.88,13.36 4.73,33.47 1.69,110.82 -1.29,146.11 -11.39,9.57 -19.73,7.61 -22.68,23.17 -2.29,12.04 0.53,30.85 2.9,42.42 8.32,40.66 22.66,31.41 17.61,69.06 -0.98,12 -3.87,15.49 -3,30.44 0.7,11.92 2.74,15.61 2.68,30.48 -0.09,22.07 0.05,44.13 0.02,66.2l-2.62 63.43c0,45.28 -2.69,173.52 1.36,201.89 2.67,18.78 1.96,29.73 30.6,35.64 21.22,4.38 37.75,-6.8 48.29,-16.5 7.57,-21.94 6.91,-196.27 6.21,-232.89l-0.2 -9.52c29.16,10.17 22.4,9.77 33.02,24.02 5.45,7.32 20.59,25.71 11.79,37.47 4.82,37.79 -17.49,28.1 16.77,61.51 8.52,5.04 17.71,12.96 27.51,15.25 -2.75,10.3 -9.43,13.39 -17.87,17.78 -12.55,11.74 -19.74,11.65 -29.5,28.84 -9,15.84 -6.11,32.08 -2.82,49.92 12.56,18.28 26.81,14.51 62.91,12.72 24.91,-1.23 56.02,-11.7 68.96,-12.72l12.35 -4.9c6.71,-0.76 6.53,-1.24 11.69,-2.72l6.52 -4.63c15.45,-10.5 23.84,-20.35 27.73,-41.61l0.65 -49.59c-2.15,-3.11 -2.9,5.34 -3.07,-8.05 -0.13,-10.22 -1.45,-0.95 2.8,-6.92 6.26,-8.8 13.74,-9.93 22.31,-32.81 0.94,-19.1 -0.58,-19.47 -5.24,-35.27 -3.36,-2.56 -1.64,-1.27 -4.48,-3.77 0.63,-25.92 -7.3,-43.65 -20.37,-59.89l4.67 -0.62c40.12,2.06 70.87,-9.05 101.4,-23.69 26.36,-12.65 41.23,-38.28 43.36,-80.69 -1.85,-45.68 -14.66,-84.73 -47.51,-102.72 -19.83,-10.86 -34.52,-14.55 -61.02,-9.13 -27.61,5.65 -31.9,9.47 -39.94,33.9 -7.01,-9.13 -12.64,-8.39 -9.09,-21.48 1.96,-7.24 6.49,-24.35 9.31,-29.14 7.21,-12.29 20.5,-36.93 22.13,-51.02l-3.09 -26.15 -1.03 -4.96c-2.07,-5.17 -3.6,-9.06 -3.81,-16.04 -0.09,-2.71 0.13,-7.03 0.66,-9.68 0.94,-4.79 0.78,-2.75 2.22,-5.09l-0.14 -22.71 -3.82 -17.91 10.86 -0.09 37.13 -0.18c18.28,-2.8 26.53,-9.27 32.12,-24.74 16.76,-2.23 54.79,-2.83 65.34,-10.93 5.14,-3.94 12.48,-14.89 12.1,-25.26 -0.48,-13.03 -7.43,-15.38 -14.22,-22.48 33.13,-17.66 29.29,-48.25 -5.53,-63.26 -17.27,-3.14 -18.02,-4.05 -30.69,-10.16l-10.79 -2.55 -2.05 -12.41c-10.6,-4.72 -4.01,-10.01 -24.98,-10.39 -11.91,-0.21 -22.65,1.99 -34.81,0.85l-2.77 -15.12c-13.22,-36.58 -38.69,-75.48 -80.28,-83.19 3.46,-33.82 5.18,-50.22 -4.89,-83.1 -7.68,-25.08 -24.25,-45.05 -52.75,-27.69 -5.4,-3.13 -7.52,-5.38 -12.65,-8.52 -5.33,-3.29 -12.83,-7.71 -20.63,-10.05 -11.75,-3.53 -14.13,0.33 -23.37,-5.22l-26.44 1.44c-9.27,4.83 -14.17,9.4 -15.8,21.94l0.9 17.25 6.57 20.94 -14.35 -6.05c-7.5,-0.48 -13.83,-0.44 -19.46,-6.72 1.35,-35.43 -1.29,-71.69 -0.06,-107.27 0.79,-23.07 3.15,-26.61 -3.44,-49.26 -5.38,-18.47 -12.45,-19.49 -24.08,-29.5 -12.53,-1.1 -32.41,-5.33 -46.63,14.04 -13.1,17.85 -8.99,36.05 -8.88,51.92 0.3,44.85 -0.07,89.88 -0.07,134.75 -15.31,3.57 -63.75,25.27 -57.17,51.77 4.81,19.36 17.72,25.29 25.57,30.64 22.68,15.46 34.43,28.63 30.74,53.84 -2.21,15.04 0.89,12.14 -8.38,19.65 -14.98,12.15 -18.96,10.68 -25.36,33.09 -11.29,39.56 -11,65.6 -3.52,101.23z"/>
 </g>
</svg>
