<?xml version="1.0" encoding="UTF-8"?>
<!DOCTYPE svg PUBLIC "-//W3C//DTD SVG 1.1//EN" "http://www.w3.org/Graphics/SVG/1.1/DTD/svg11.dtd">
<!-- Creator: CorelDRAW 2017 -->
<svg xmlns="http://www.w3.org/2000/svg" xml:space="preserve" width="20mm" height="18.246mm" version="1.1" style="shape-rendering:geometricPrecision; text-rendering:geometricPrecision; image-rendering:optimizeQuality; fill-rule:evenodd; clip-rule:evenodd"
viewBox="0 0 2000 1824.6"
 xmlns:xlink="http://www.w3.org/1999/xlink">
 <defs>
  <style type="text/css">
   <![CDATA[
    .fil0 {fill:none}
    .fil1 {fill:#121212}
   ]]>
  </style>
 </defs>
 <g id="Capa_x0020_1">
  <metadata id="CorelCorpID_0Corel-Layer"/>
  <rect class="fil0" width="2000" height="1824.6"/>
  <path class="fil1" d="M927.97 794.04c82.26,47.85 128.51,99.72 125.11,232.09 -5.14,201.03 -44.77,421.79 -254.52,488.75 -140.05,44.73 -185.23,3.63 -287.07,-37.49 5.64,57.65 -13.01,13.96 24.88,45.84 8.09,6.8 43.82,22.12 52.41,25.01 123.97,41.62 272.14,1.72 358.28,-84.66 121.61,-121.93 120.71,-294.15 141.32,-505.37 20.43,44.48 131.1,107.78 49,373.64 -146.13,473.19 -830.95,377.65 -805.08,-59.68 21.57,-364.38 504,-361.76 519.81,-76.45 7.51,135.3 -132.51,277.99 -268.28,172.14 -100.98,-78.76 -53.62,-282.8 131.4,-194.33 15.98,83.36 13.14,97.66 -50.52,118.21l-49.36 11.72c0.08,0.09 18.27,58.61 99.34,8.18 75.54,-46.99 51.01,-224.31 -109.8,-192.73 -135.84,26.67 -140.11,238.39 -6.44,296.34 231.33,100.29 434.43,-230.39 329.52,-621.21zm537.44 -275.48c-13.62,-53.8 -25.12,-60.23 -11.52,-128.7 -70.82,10.75 -72.63,2.56 -127.9,-11.1 -12.4,-51.31 -20.13,-61.99 -8.9,-127.71 -56.15,9.18 -49.3,22.17 -92.43,-4.79 151.1,-101.42 234.64,-106.97 361.97,11.2 136.61,126.78 75.41,209.34 17.33,357.15 -17.46,-25.8 -19.61,-21.54 -10.24,-85.62 -70.52,11.73 -72.95,3.44 -128.31,-10.43zm-139.42 -139.8c12.09,85.42 27.83,39.26 63.61,74.57 31.73,31.28 -11.78,46.47 75.81,65.23 34.02,132.23 10.63,-25.08 93.1,138.37 -86.83,103.86 -141.31,77.34 -226.02,145.19 -79.79,63.93 -105.42,118.87 -164.17,202.46 -63.4,-67.4 -71.24,-106.34 -141.27,-172.16 -68,-63.91 -95.77,-85.29 -177.66,-144.71l48.09 -42.97c231.06,-166.73 150.43,-227.47 283.32,-364.08l75.03 45.42c30.87,34.69 -16.82,35.46 70.16,52.68zm-417.44 484.02c-43.22,-25.64 -92.41,-90.94 -115.61,-153.64 78.88,10.26 101.83,63.66 115.61,153.64zm-19.57 343.99c-18.09,-108.85 -60.81,-184.61 -150.35,-225.16 -99.7,-45.17 -229.61,-26.02 -304.61,30.47 -157.77,118.86 -181.27,368.28 -47.42,522.39 259.01,298.21 834.21,136.48 808.5,-416.62 -5.82,-125.28 54.05,-191.98 120.67,-255.41 71.01,-67.61 150.98,-78.17 226.57,-142.43 437.18,-371.59 -139.01,-825.76 -429.72,-414.74 -59.79,84.51 -72.2,167.77 -135.43,234.1 -68.79,72.2 -139.65,89.57 -216.67,148.85 26.68,192.87 274.75,199.21 128.46,518.55z"/>
 </g>
</svg>
