<?xml version="1.0" encoding="UTF-8"?>
<!DOCTYPE svg PUBLIC "-//W3C//DTD SVG 1.1//EN" "http://www.w3.org/Graphics/SVG/1.1/DTD/svg11.dtd">
<!-- Creator: CorelDRAW 2017 -->
<svg xmlns="http://www.w3.org/2000/svg" xml:space="preserve" width="20mm" height="18.246mm" version="1.1" style="shape-rendering:geometricPrecision; text-rendering:geometricPrecision; image-rendering:optimizeQuality; fill-rule:evenodd; clip-rule:evenodd"
viewBox="0 0 2000 1824.6"
 xmlns:xlink="http://www.w3.org/1999/xlink">
 <defs>
  <style type="text/css">
   <![CDATA[
    .fil0 {fill:none}
    .fil1 {fill:#121212}
   ]]>
  </style>
 </defs>
 <g id="Capa_x0020_1">
  <metadata id="CorelCorpID_0Corel-Layer"/>
  <rect class="fil0" width="2000" height="1824.6"/>
  <path class="fil1" d="M1152.41 1531.56c-62.12,39.71 -104.9,78.42 -217.98,50.16 -73.98,-18.49 -126.41,-68.02 -76.54,-161.46 81.61,-152.9 319.91,-96.42 294.52,111.3zm-153.75 -50.77c-34.43,-54.13 -6.77,-39.57 -60.29,-71.19l-63.51 30.18c3.21,2.81 7.49,6.49 9.95,8.02 2.41,1.5 7.13,5.52 10.13,7.22l60.54 30.66c17.46,16.86 10.54,18.38 23.82,37.21 14.51,20.59 9.23,12.53 22.2,23.9 23.71,-26.25 29.51,-49 54.3,-67.94 39.01,-29.76 32.63,-0.25 68.57,-45.35l-77.2 -20.5c-37.66,30.62 -24.05,22.86 -48.51,67.79zm243.44 -634.01c22.81,58.74 12.43,21.07 46.35,73.22l-69.74 -2.45c-9.69,-77.84 7.59,-84.51 75.75,-97.35l-52.36 26.58zm-536.87 -26.47c40.66,6.63 75.54,32.86 72.13,79.67 -30.74,22.88 -26.28,21.04 -66.96,13.81l43 -52.95c-28.33,-22 -33.2,-18.64 -48.17,-40.53zm651.78 -119.44l15.93 -140.96c52.39,5.91 254.17,-31 262.24,202.54 -121.12,70.02 -212.46,0.19 -278.17,-61.58zm-999.15 62.8c10.73,-69.66 32.63,-114.94 72.66,-156.66 56.66,-59.04 93.54,-42.05 196.55,-44.18 13.53,107.59 44.96,140.61 -47.37,193.27 -84.29,48.1 -145.49,37.06 -221.84,7.57zm770.86 -477.15c58.58,142.25 95.44,147.66 217.48,230.23l-41.85 261.09c-47.82,24.52 -98.05,21.41 -115.72,83.39 -24.42,85.63 75.5,99.47 76.27,97.96 1.66,-3.18 7.44,1.54 10.69,3.38 -9.01,95.53 -49.19,413.46 -89.35,472.02 -48.88,-72.53 -67.66,-139.22 -199.11,-131.94 -112.68,6.25 -132.65,76.11 -186.72,137.67l-78.3 -477.75c44.72,-22.11 103.46,-22.79 82.62,-104.65 -14.53,-57.07 -57.84,-53.35 -112.66,-79.73l-37.52 -262.04c250.86,-187.76 75.46,-20.23 223.79,-233.39l250.38 3.76zm-606.89 890.08c-525.72,-108.19 -440.48,-855.7 -118.24,-980.52 175.42,-67.95 303.92,26.1 433.04,67.87 -58.19,276.03 -340.72,176.16 -464.16,362.37 -147.68,222.79 39.94,432.52 149.36,550.28zm640.28 -901.8c708.36,-455.38 976.46,769.07 315.7,902.06 58.19,-67.48 124.05,-119.61 168.88,-231.87 45.12,-112.96 40.17,-229.46 -24.39,-326.24 -140.62,-210.75 -337.96,-34.34 -460.19,-343.95zm-806.64 529.75c221.18,39.52 176.85,-21.52 299.99,-52.52 23.34,181.83 54.95,378.86 87.79,559.81 29.27,161.27 80.93,372.77 257.61,370.86 182.23,-1.98 226.63,-210.86 256.99,-386.33 29.75,-172.17 68.03,-382.59 84.2,-551.98 117.81,78.58 131.72,83.68 299.98,61.53 -9.09,134.43 -80.42,259.37 -174.88,330.05 -40.59,30.39 -58.68,22.12 -61.2,84.36 267.71,13.87 602.61,-297.05 436.79,-774.55 -184.4,-530.96 -673.48,-206.17 -721.72,-196.7 -45.25,8.9 -102.61,-1.14 -150.86,0.16 -157.68,4.3 -121.36,-22.59 -248.84,-69.23 -280.65,-102.66 -498.48,2.63 -579.07,308.94 -157.43,598.39 368.99,761.83 455.84,722.76 -26.07,-93.21 -217.2,-117.41 -242.62,-407.16z"/>
 </g>
</svg>
