<?xml version="1.0" encoding="UTF-8"?>
<!DOCTYPE svg PUBLIC "-//W3C//DTD SVG 1.1//EN" "http://www.w3.org/Graphics/SVG/1.1/DTD/svg11.dtd">
<!-- Creator: CorelDRAW 2017 -->
<svg xmlns="http://www.w3.org/2000/svg" xml:space="preserve" width="20mm" height="18.246mm" version="1.1" style="shape-rendering:geometricPrecision; text-rendering:geometricPrecision; image-rendering:optimizeQuality; fill-rule:evenodd; clip-rule:evenodd"
viewBox="0 0 2000 1824.6"
 xmlns:xlink="http://www.w3.org/1999/xlink">
 <defs>
  <style type="text/css">
   <![CDATA[
    .fil0 {fill:none}
    .fil1 {fill:#121212}
   ]]>
  </style>
 </defs>
 <g id="Capa_x0020_1">
  <metadata id="CorelCorpID_0Corel-Layer"/>
  <rect class="fil0" width="2000" height="1824.6"/>
  <path class="fil1" d="M865.83 1643.12c-14.37,-81.07 -9.15,-83.89 16.75,-153.55 102.35,16.25 61.89,36.5 180.21,10.41 48.04,-10.6 40.52,-23.24 60.97,22.18 19.65,43.69 10.5,79.87 2.93,123.1l-77.48 -39.03 -48.51 44.87 -59.26 -44.19c-27.92,28.3 -23.86,35.46 -75.61,36.21zm16.49 -539.12l57.33 30.52c32.94,-19.02 17.39,-9.38 34.93,-27.87 2.07,-2.18 4.85,-6.41 6.89,-8.71l22 -26.86c16.91,53.36 -1.36,34.27 45.74,58.99l62.81 -20.42c-58.93,-69.03 -6.91,32.4 -113.12,-106.23 -22.42,21.13 -21.64,31.37 -42.96,53l-56.04 34.03c-2.4,1.46 -7.1,5.24 -9,6.47 -1.92,1.24 -5.88,4.55 -8.58,7.08zm318.89 -11.71c92.43,26.38 134.69,42.55 244.89,60.74l-14.05 72.7 -192.61 -81.56c-62.13,-43.37 -15.88,-5.41 -38.23,-51.88zm-638.87 129.24l-16.48 -66.41c60.36,-13.1 215.25,-59.15 248.18,-58.3 -67.36,53.37 -118.99,103.24 -231.7,124.71zm658.98 -177.87l236.15 -16.29 -5.31 91.31c-81.02,-6.14 -199.29,-15.76 -230.84,-75.02zm-679.22 74.06l-7.93 -94.54 236.7 21.17c-18.5,31.78 24.42,4.64 -39.03,34.14l-189.74 39.23zm703.14 -101.02c7.05,-82.02 6.05,-90.05 56.48,-121.75 43.45,-27.31 68.76,-50.94 114.04,-68.03l36.65 161.42 -207.17 28.36zm-346.68 -482.15c150.1,30.04 19.7,66.73 195.22,1.17 14.56,95.54 -20.49,59.59 24.21,114.92 43.75,54.11 148.42,139.67 92.09,338.19 -20.49,72.25 -59.45,124.67 -84.72,208.1 -56.67,187.22 6.85,244.98 -89.24,278.83 -189.2,66.66 -110.36,-177.22 -211.81,-392.94 -44.24,-94.13 -78.92,-169.22 -41.17,-292.25 16.31,-53.11 38.52,-87.35 66.94,-116.7 82.27,-84.98 30.21,-2.74 48.48,-139.32zm-311.17 294.31c34.62,16 64.73,39.63 101.99,65.68 57.96,40.51 48.3,30.26 59.26,109.67 -77.07,12.7 -128.98,2.81 -201.75,-14.36 -2.94,-59.91 9.01,-121.39 40.5,-160.99zm669.96 47.67c12.46,-38.01 2.82,-21.54 25.73,-46.16l105.12 -68.85c-6.19,53.13 -15.93,67.36 -130.85,115.01zm-524.17 3.89c-125.58,-80.24 -122.18,-39.74 -129.73,-120.28 55.95,8.6 131.64,62.38 129.73,120.28zm622.19 -161.26c-22.57,38.64 -64.93,70.6 -103.78,89.14 -45.68,-142.84 -74.41,-128.75 -110.61,-197.2l62.17 -44.88c58.94,19.54 121.83,97.36 152.22,152.94zm-716.46 0c32.82,-55.14 90.74,-127.1 148.6,-152.97 30.39,13.51 41.64,24.32 66.17,40.77l-115.4 197.91c-45.6,-32.76 -62.92,-45.19 -99.37,-85.71zm629.04 -440.86c-11.22,-61.5 -13.94,-44.63 -36.21,-97.16 116.68,24.78 191.21,68.93 244.42,141.58 174.37,238.12 127.94,282.4 27.73,374.41 -95.65,87.82 -71.7,65.85 -85.03,48.87 -21.54,-59.39 178.09,-78.86 51.32,-294 -77.79,-132.01 -163.31,-25.09 -306.97,-152.99l104.74 -20.71zm-864.77 336.14c1.59,-164.15 124.29,-396.95 364.35,-431.68 -21.46,38.24 -26.8,39.5 -37.49,89.31l101.74 31.45c-140.66,124.35 -221.75,10.87 -307.12,152.97 -134.86,224.48 88.72,209.41 47.2,293.13 -25.84,23.45 -117.69,-90.52 -168.68,-135.18zm368.42 -358.79c19.46,-49.61 30.68,-47.94 41.27,-101.75 -87.12,-19.46 -185.12,36.63 -241.5,72.18 -62.12,39.16 -101.42,107.69 -142.85,180.75 -130.03,229.33 -2.65,279.14 121.19,389.3 -5.32,31.04 -17.57,69.8 -27.17,104.62 -26.66,96.58 -18.14,49.67 -40.65,68.54 -1.91,1.62 -8.77,8.88 -10.23,6.01 -1.51,-2.92 -7.37,3.41 -10.79,5.55 51.18,48.98 43.14,34.08 44.3,123.15l-48.95 18.74c-2.07,1 -8.26,8.86 -9.75,5.84 -1.52,-3.05 -7,3.47 -9.7,6.21 68.9,27.62 66.42,-11.44 83.95,52.6 11.68,42.79 -11.84,38.86 -42.65,77.67 143.42,2.13 55.06,163.1 193.65,230.33 -20.39,-85.96 -76.47,-148.34 -99.09,-239.44 121.91,-35.34 151.6,-70.1 239.91,-117.08 142.17,342.06 -38.18,369.15 37.52,533.3 76.7,13.87 45.36,-5.2 92.05,-3.62l200.11 5.18c99.24,-217.15 -96.64,-23.97 30.8,-527.29 82.07,27.12 124.06,84.38 246.74,109.17 -18.92,93.43 -76.53,153.98 -98.31,238.62 56.28,-22.3 33.06,-8.01 60.97,-58.17 83.21,-149.55 24.58,-166.44 130.55,-171.38l-33.48 -37.29c-48.17,-86.86 78,-87.85 78.17,-87.87 -28.32,-29.72 -58.69,-29.09 -69.74,-35.52 2.26,-78.28 -4.31,-79.11 40.76,-123.15 -3.19,-2.19 -8.11,-4.39 -10.05,-5.87 -49.37,-37.27 -52.86,-84.95 -79.4,-177.37 53.11,-36.97 148.82,-124.53 186.83,-186.21 0.92,-122.31 -74.11,-248.89 -131.65,-321.78 -62.63,-79.37 -174.16,-139.15 -316.53,-142.28l48.68 102.5c-55.61,14.58 -78.05,11.04 -122.3,38.29 86.57,176.86 396.26,25.35 375.66,326.37l-92.05 79.69 -76.17 -83.52c-28.33,-30.9 -42.78,-40.74 -73.37,-75.01 -50.65,1.99 -65.55,13.47 -96.76,27.95l-48.22 -70.49 -91.47 49.4 -106.61 -46.89 -46.19 68.33c-123.17,-83.33 -159.65,72.79 -246.3,127.77 -39.77,-25.92 -96.6,-69.58 -86.64,-135.77 33.95,-225.77 330.26,-125.55 377.13,-267.83 -40.24,-27.97 -69.69,-26.63 -121.67,-32.48z"/>
 </g>
</svg>
