<?xml version="1.0" encoding="UTF-8"?>
<!DOCTYPE svg PUBLIC "-//W3C//DTD SVG 1.1//EN" "http://www.w3.org/Graphics/SVG/1.1/DTD/svg11.dtd">
<!-- Creator: CorelDRAW 2017 -->
<svg xmlns="http://www.w3.org/2000/svg" xml:space="preserve" width="20mm" height="18.246mm" version="1.1" style="shape-rendering:geometricPrecision; text-rendering:geometricPrecision; image-rendering:optimizeQuality; fill-rule:evenodd; clip-rule:evenodd"
viewBox="0 0 2000 1824.6"
 xmlns:xlink="http://www.w3.org/1999/xlink">
 <defs>
  <style type="text/css">
   <![CDATA[
    .fil0 {fill:none}
    .fil1 {fill:#121212}
   ]]>
  </style>
 </defs>
 <g id="Capa_x0020_1">
  <metadata id="CorelCorpID_0Corel-Layer"/>
  <rect class="fil0" width="2000" height="1824.6"/>
  <path class="fil1" d="M1347.22 916.71c-53.85,-137.39 45.98,-371.58 174.13,-374.7 41.28,165.9 -80.27,327.22 -174.13,374.7zm-366.66 444.27c-34.71,-33.99 -47.51,-35.61 -100.02,-10.21 26.62,31.67 -5.56,3.66 36.49,29.87 101.53,63.29 17.94,33.17 85.57,77.45 16.31,-27.08 17.07,-44.55 39.97,-62.64 37.84,-29.91 24.81,7.71 69.14,-47.76 -71.86,-25.71 -86.54,-30.15 -106.34,44.15l-24.81 -30.86zm-316.7 -448.09c-106.09,-36.87 -233.01,-216.02 -183.63,-372.18 136.39,13.08 205.56,223 183.63,372.18zm-303.94 -659.29c298.87,5.3 505.88,242.64 563.19,502.57 289.62,6.31 63.97,-28.89 331.93,-334.37 74.65,-85.1 210.23,-166.52 384.46,-166.07 -53.32,39.84 -88.5,29.86 -177.26,95.86 -194.18,144.39 -214.88,379.9 -235.42,602.58 -46.84,19.1 -40.62,-9.74 -100.17,28.05 -5.46,90.46 31.83,127.55 114.48,118.36 21.01,-98.32 3.61,-238.13 56.81,-296.88 46.55,237.67 -11.63,253.9 -74.99,433.43 -52.44,148.65 -28.06,321.22 -205.97,336.27 -216.39,18.3 -207.31,-234.2 -229.92,-311.42 -22.56,-77.07 -58.5,-124.87 -82.5,-193.92 -30.42,-87.5 0.11,-173.03 -3.44,-261.9 81.43,82.96 3.95,208.56 77.93,293.34 96.95,6.46 162.1,-130.88 -3.62,-140.31 -62.35,-697.46 -311.79,-604.41 -415.51,-705.59zm596.04 467.61c-37.1,-65.61 -55.92,-135.83 -93.34,-197.07 -105.26,-172.17 -349.51,-356.35 -535.49,-292.46 -11.53,96.79 55.16,66.12 135.95,107.28 138.69,70.68 251.69,265.37 257.25,425.62 -69.69,-98.62 -101.94,-265.69 -256.97,-255.23 -42.96,83.17 -22.75,185.41 20.43,269.91 46.8,91.6 83.8,123.98 173.8,179.03 3.27,144.03 37.49,153.74 79.75,260.46 33.55,84.7 36.02,197.95 62.92,260.03 72.61,167.54 335.22,176.51 403.42,-14.55 33.54,-93.91 26.06,-167.83 70.18,-269.49 17.53,-40.42 39.8,-74.84 53.27,-116.25 16.19,-49.74 10.36,-91.37 32.43,-122.28 9.53,-13.32 34.85,-27.82 49.97,-40.8 302.09,-259.72 111.19,-686.11 -124.28,-152.64 -2.21,-123.88 76.54,-260.07 135.05,-329.42 25.59,-30.33 83.9,-77.67 130.52,-99.98 74.22,-35.51 133.13,-9.24 122,-96.92 -127.45,-67.84 -343.59,75.83 -409.08,132.71 -133.97,116.39 -160.18,248.54 -215.39,354.79l-92.39 -2.74z"/>
 </g>
</svg>
