<?xml version="1.0" encoding="UTF-8"?>
<!DOCTYPE svg PUBLIC "-//W3C//DTD SVG 1.1//EN" "http://www.w3.org/Graphics/SVG/1.1/DTD/svg11.dtd">
<!-- Creator: CorelDRAW 2017 -->
<svg xmlns="http://www.w3.org/2000/svg" xml:space="preserve" width="20mm" height="18.246mm" version="1.1" style="shape-rendering:geometricPrecision; text-rendering:geometricPrecision; image-rendering:optimizeQuality; fill-rule:evenodd; clip-rule:evenodd"
viewBox="0 0 2000 1824.6"
 xmlns:xlink="http://www.w3.org/1999/xlink">
 <defs>
  <style type="text/css">
   <![CDATA[
    .fil0 {fill:none}
    .fil1 {fill:#121212}
   ]]>
  </style>
 </defs>
 <g id="Capa_x0020_1">
  <metadata id="CorelCorpID_0Corel-Layer"/>
  <rect class="fil0" width="2000" height="1824.6"/>
  <path class="fil1" d="M1144.25 1643.73c-0.23,-81.54 -1.88,-76.23 40.67,-117.59 -6.67,69.33 -2.05,39.08 45.29,60.94 -27.31,24.14 -35.38,41.74 -85.96,56.65zm-262.29 -907.15c85.41,31.37 80.2,27.86 117.52,-45.79 32.92,60.64 40.28,88.53 114.46,39.53 -56.8,-62.62 -52.99,6.69 -102.04,-106.99 -54.5,36.14 -19.78,30.39 -52.54,60.67 -23.16,21.39 -41.49,8.03 -77.4,52.58zm122.48 825.02c73.63,-57.56 114.51,11.47 103.49,59.51 -6.45,28.03 -24.57,31.03 -52.89,16.48 -38.92,-20.01 -35.03,-35.36 -50.6,-75.99zm16.91 -172.57c35.32,62.06 25.17,91.15 -15.4,129.69 -33.31,-14.89 -44.49,-11.47 -46.67,-65.48 -3.11,-76.6 15.35,-63.23 62.07,-64.21zm-54.85 -175.03l64.03 -0.18c38.37,109.76 14.28,133.5 -61.26,136.27 -13.21,-49.26 -20.26,-78.44 -2.77,-136.09zm-31.25 -692.68c83.99,12.33 16.53,41.79 130.07,2.35 11.18,135.85 96.3,150.88 92.39,360.41 -2.27,121.01 -52.55,298.84 -166.4,293.82 -101.98,-4.49 -145.69,-174.73 -147.8,-295.35 -3.57,-203.61 84.44,-237.31 91.74,-361.23zm547.91 -322.65c157.2,171.45 -52.94,471.21 -123.15,575.11 -67.19,-4.33 -153.16,-6.82 -190.42,-58.86l51.77 -14.93c24.97,-2 79.28,14.22 147.13,7.88 166.56,-221 -10.04,-243.7 -32.55,-478.55l104.16 52.95 43.06 -83.6zm-844.34 574.07c-24.83,-41.73 -52.87,-62.25 -82.16,-115.99 -28.77,-52.8 -38.09,-86.9 -58.56,-141.33 -39.04,-103.78 -56.8,-217.43 19.34,-319.03l42.08 84.72c63.25,-16.9 48.29,-30.17 104.27,-55.63 -2.28,205.99 -115.66,194.51 -102.23,315.82 29.64,267.87 179.84,120.52 268.4,173.62 -38.51,51.1 -122.33,55.28 -191.14,57.82zm-4.14 -98.9c-39.31,-142.94 -72.96,-113.17 0.67,-237.55 38.19,-64.51 77.17,-178.52 51.27,-250.39 -42.72,-7.34 -59.34,29.37 -114.15,52.83l-35.97 -99.6c-57.07,19.48 -55.95,23.16 -77.28,91.21 -10.28,32.76 -21.89,79.19 -25.09,114.97 -8.65,96.73 91.7,473.38 256.5,455.45 79.06,-8.6 79.3,-26.2 121.98,6.52 -15.28,77.96 21.06,26.82 -43.03,51.8 -44.17,17.21 -40.98,-6.22 -75.19,25.17 75.72,26.07 89.12,-19.67 118.13,46.18 -42.01,51.34 -10.66,16.09 -67.89,30.08 -22.19,5.42 -14.71,2.11 -38.04,8.93l-21.4 10.09c56.68,26.52 43.96,5.35 90.03,11.75 62.45,8.69 32.28,-51.99 55.67,46.91 -58.13,44.88 -75.8,3.4 -131.52,30.79 45.03,35.57 98.1,18.6 154.71,11 18.99,61.22 30.3,77.46 74.49,112.16 -6.03,72.04 -11,60.76 2.97,134.2 21.29,111.82 -34.99,115.34 54.95,284.72 73.12,137.7 237.97,62.42 293.25,-49.46 -11.08,-11.42 -31.47,-10.86 -53.7,-40.1 -14.31,-18.79 -4.61,-20.7 -19.97,-49.04 -93.79,37.36 -56.9,81.73 -128.26,44.38 -7.02,-26.73 -12.13,-95.42 -15.73,-132.58 -6.37,-65.92 13.52,-45.01 13.35,-114.72 -0.21,-93.5 -34.68,-39.49 21.7,-108.46l62.76 -79.66c49.49,6.52 104.03,14.22 141.65,-12.44 -3.77,-1.6 -9.11,-2.01 -12.02,-2.46 -151.7,-23.66 -99.27,-2.49 -119.11,-43.72 34.55,-67.98 -20.73,-20.41 66.21,-32.07 42.55,-5.7 20.93,18.58 75.57,-14.12 -31.05,-24.91 -27.93,-5.07 -74.46,-17.72 -68.62,-18.66 -34.99,18.17 -47.61,-43.84 40.8,-36.49 -18.47,-0.07 35.52,-16.32l83.79 -14.48c-28.02,-31.94 8.44,-4.75 -43.67,-19.49 -87.43,-24.73 -67.26,8.87 -79.88,-81.09 123.08,0.92 203.48,110.79 324.4,-195.93 44.46,-112.79 97.15,-283.86 6.23,-414.09 -23.96,-34.32 -5.7,-13.42 -33.35,-33.03 -22.83,18.17 -6.07,1.89 -23.82,26.71l-37.74 67.75c-49.52,-23.01 -56.74,-56.18 -112.76,-48.94 -14.25,86.39 12.38,183.99 53.49,249.22 74.15,117.65 41.44,108.77 2.46,240.94 -243.7,1.01 -222.86,-7.32 -282.45,-190.36 -49.6,3.31 -51.83,16.43 -77.29,16.42 -38.34,-0.02 -14.75,-12.27 -76.07,-19.07 -61.71,99.12 10.95,211.31 -294.3,190.55z"/>
 </g>
</svg>
