<?xml version="1.0" encoding="UTF-8"?>
<!DOCTYPE svg PUBLIC "-//W3C//DTD SVG 1.1//EN" "http://www.w3.org/Graphics/SVG/1.1/DTD/svg11.dtd">
<!-- Creator: CorelDRAW 2017 -->
<svg xmlns="http://www.w3.org/2000/svg" xml:space="preserve" width="20mm" height="18.246mm" version="1.1" style="shape-rendering:geometricPrecision; text-rendering:geometricPrecision; image-rendering:optimizeQuality; fill-rule:evenodd; clip-rule:evenodd"
viewBox="0 0 2000 1824.6"
 xmlns:xlink="http://www.w3.org/1999/xlink">
 <defs>
  <style type="text/css">
   <![CDATA[
    .fil0 {fill:none}
    .fil1 {fill:#373435}
   ]]>
  </style>
 </defs>
 <g id="Capa_x0020_1">
  <metadata id="CorelCorpID_0Corel-Layer"/>
  <rect class="fil0" width="2000" height="1824.6"/>
  <path class="fil1" d="M853.7 190.39c197.39,-46.57 394.61,3.72 496.99,116.14 153.08,168.07 41.55,334.36 112.49,487.01 138.07,297.07 25.3,423.04 -105.63,570.95 -51.9,58.65 -311.98,557.61 -639.46,113.42 -156.23,-211.93 -336,-363.32 -190.49,-666.35 85.18,-177.38 -101.78,-520.23 326.1,-621.17zm-40.94 1062.57c70.13,10.28 110.74,21.38 158.92,-12.6 3.86,-2.7 13.72,-12.81 16.65,-15.58l15.3 -17.22c31.98,73.83 80.64,59.06 175.86,45.4 -27.18,70.65 -88.59,119.21 -178.08,121.14 -138.96,2.98 -164,-78.71 -188.65,-121.14zm-45.09 -155.55c-74.58,-74.62 -72.48,-295.05 -50.4,-421.12 29.6,-168.91 102.75,-187.79 285.04,-185.71 184.99,2.12 247.29,23.45 272.97,198.19 17.1,116.34 30.04,335.69 -57.55,407.15 -64.32,-41.79 -70.1,-173.57 -72.93,-271.61 61.19,-51.52 62.96,1.4 81.45,-98.98l-83.43 -4.83c-62.1,81.15 -26.48,290.42 30.46,379.48 34.27,53.63 56.47,117.88 -48.21,129.54 -98.18,10.93 -117.71,-36.45 -103.33,-126.29 14.59,-9.76 25.22,-13.41 36.74,-20.79l36.18 -27.21c-53.54,-41.69 -70.94,-30.26 -97.69,24.91 -33.34,-48.17 -40.29,-71.07 -101.94,-24.91 2.6,2.77 7.16,5.47 9.1,6.84 42.38,30.06 94.16,50.85 63,124.58 -29.75,70.33 -115.5,43.51 -165.04,19.97 -24.84,-84.26 51.44,-129.6 68.74,-269.11 16.79,-135.27 37.27,-243.29 -105.54,-208.65 19.17,93.34 21.82,46.35 79.94,95.45 -0.65,98.18 -5.89,234.64 -77.56,273.1zm153.56 -637.11c-133.91,13.79 -198.94,45.76 -228.1,164.04 -25.5,103.49 -24.99,268.41 -3.61,372.73 17.69,86.37 41.17,91.07 62.13,141.95 0.13,0.33 32.31,344.67 314.37,257.68 113.03,-34.86 140.06,-92.56 164.96,-218.94 20.47,-103.88 76.82,-80.65 85.47,-322.36 10.78,-301.47 -49.13,-430.74 -395.22,-395.1zm-397.34 255.68c-168.29,-29.62 -161.26,-235.48 2.01,-260.79 -10.35,102.68 -4.4,82.76 -61.25,138.22l51.29 41c3.42,7.99 7,69.33 7.95,81.57zm1013.1 -127.78l-56.93 -22.66 -12.54 -109.06c159.36,13.8 186.64,227.7 6.59,260.1l6.12 -92.38c3.09,-2.41 7.83,-5.12 9.87,-6.33l46.89 -29.67zm-51.39 174.55c47.86,-46.64 159.28,-49.28 141.88,-194.27 -18.49,-154.06 -122.57,-98.18 -182.44,-172.13 -30.42,-37.57 -19.75,-58.54 -71.59,-112.57 -173.63,-180.93 -506.31,-169.54 -665.68,-77.34 -109.61,63.41 -132.06,148.25 -155.35,183.49 -57.77,87.42 -159.75,12.58 -179.86,175.57 -13.81,111.79 51.98,145.8 120.06,184.79l20.15 12.46c-102.71,235.57 -78.35,432.15 67.27,591.54 88.1,96.4 112.28,153.45 171.79,212.98 53.49,53.54 151.15,119.79 264.12,116.02 166.82,-5.56 258.2,-135.25 332.28,-251.55 35.25,-55.36 44.63,-55.38 85.84,-98.76 141.76,-149.21 151.97,-371.4 51.53,-570.23z"/>
 </g>
</svg>
