<?xml version="1.0" encoding="UTF-8"?>
<!DOCTYPE svg PUBLIC "-//W3C//DTD SVG 1.1//EN" "http://www.w3.org/Graphics/SVG/1.1/DTD/svg11.dtd">
<!-- Creator: CorelDRAW 2017 -->
<svg xmlns="http://www.w3.org/2000/svg" xml:space="preserve" width="20mm" height="18.246mm" version="1.1" style="shape-rendering:geometricPrecision; text-rendering:geometricPrecision; image-rendering:optimizeQuality; fill-rule:evenodd; clip-rule:evenodd"
viewBox="0 0 2000 1824.6"
 xmlns:xlink="http://www.w3.org/1999/xlink">
 <defs>
  <style type="text/css">
   <![CDATA[
    .fil0 {fill:none}
    .fil5 {fill:#121212}
    .fil2 {fill:#4C4C4C}
    .fil4 {fill:#6B6B6B}
    .fil3 {fill:#B7B7B7}
    .fil1 {fill:#DDDDDD}
   ]]>
  </style>
 </defs>
 <g id="Capa_x0020_1">
  <metadata id="CorelCorpID_0Corel-Layer"/>
  <rect class="fil0" width="2000" height="1824.6"/>
  <path class="fil1" d="M10968.64 7955.03c-76.52,22.5 -58.55,44.03 10.27,55.84l-10.27 -55.84z"/>
  <path class="fil1" d="M8825.74 7957.29c-42.43,9.44 -30.81,-13.11 -35.91,21.05 -8.48,56.8 2.58,19.07 25.46,31.53 2.03,-3.58 6.49,-12.41 6.77,-10.33 0.28,2.16 4.08,-9.4 4.34,-12.03 1.64,-16.82 0.4,-9.43 -0.66,-30.22z"/>
  <path class="fil1" d="M10790.12 5010.58c-35.15,6.57 -6.06,-3.99 -17.73,23.11 61.39,31.1 31.53,14.67 50.89,-15.39 -20.25,-8.3 -4.24,-13.13 -33.16,-7.72z"/>
  <path class="fil1" d="M11188.03 5033.69c58.77,28.79 30.93,14.26 50.15,-15.39 -65.55,-26.22 -29.11,-2.12 -50.15,15.39z"/>
  <path class="fil2" d="M3981.2 8033.82c21.69,-112.34 117.5,-84.19 83.82,8.22l-72 -2.47c-2.13,-4.97 -7.78,-4.04 -11.82,-5.75zm0 0c28.97,64.22 60.46,41.64 112.13,23.79 21.96,-166.06 -123.22,-123.11 -126.28,-52.86 -3.03,69.67 -3.3,10.63 14.15,29.07z"/>
  <path class="fil2" d="M10488.19 5102.11c154.9,-13.69 28.93,-82.49 160.1,8.98 -12.75,-51.78 -27.02,-88.48 -62.69,-123.88 -13.78,14.46 -75.01,128.05 -86.24,108.03 -1.74,-3.11 -7.62,4.33 -11.17,6.87z"/>
  <path class="fil2" d="M3766.03 7961.82c40.16,27.56 49.52,13.06 0,45.84 -1.65,-2.85 -40.51,-0.62 0,-45.84zm49.43 111.78c-26.04,-96.52 39.35,-124.79 -84.04,-129.44l-0.16 106.77 31.88 -6.73c14.16,1.77 35.52,19.1 52.32,29.4z"/>
  <path class="fil2" d="M8825.74 7957.29c1.06,20.79 2.3,13.4 0.66,30.22 -0.26,2.63 -4.06,14.19 -4.34,12.03 -0.28,-2.08 -4.74,6.75 -6.77,10.33 -22.88,-12.46 -33.94,25.27 -25.46,-31.53 5.1,-34.16 -6.52,-11.61 35.91,-21.05zm0 0l-57.19 -11.26 -1.07 126.28c3.26,-3.61 6.73,-9.4 9,-11.51 47.68,-44.34 -2.23,-31.74 78.15,10.66 -16.48,-37.13 -9.15,-31.36 -9.56,-59.37 -0.41,-28.3 38.93,-63.86 -19.33,-54.8z"/>
  <path class="fil2" d="M11238.18 5018.3c-19.22,29.65 8.62,44.18 -50.15,15.39 21.04,-17.51 -15.4,-41.61 50.15,-15.39zm2.62 49.69c12.36,-57.93 41.17,-90.46 -69.52,-80.47l2.89 121.09 66.63 -40.62z"/>
  <path class="fil2" d="M8643.9 5112.29c53.24,-25.04 10.09,-18.27 63.63,-44.43 47.33,16.73 18.88,9.13 62.26,44.43 -16.91,-58.36 -22.89,-87.99 -68.72,-127.53l-57.17 127.53z"/>
  <path class="fil2" d="M10772.39 5033.69c11.67,-27.1 -17.42,-16.54 17.73,-23.11 28.92,-5.41 12.91,-0.58 33.16,7.72 -19.36,30.06 10.5,46.49 -50.89,15.39zm52.34 34.81c10.87,-56.32 45.73,-92.02 -69.76,-80.17l3.82 120.02 65.94 -39.85z"/>
  <path class="fil2" d="M5890.41 7961.39c39.61,26.56 51.68,11.06 0,46.57 -14.71,-17.63 -15.17,-23.59 0,-46.57zm19.39 62.11c38.73,-31.8 25.83,3.47 26.09,-67.93l-81.65 -11.23 0.34 126.01 55.22 -46.85z"/>
  <path class="fil2" d="M5724.76 5109.55c61.79,-32 22.74,-59.57 108.61,-24.28 -25.26,-116.15 -35.97,-86.72 -55.31,-99.31l-53.3 123.59z"/>
  <path class="fil2" d="M8559.06 8030.49c-2.86,-101.8 44.14,-44.13 93.05,-76.8 -69.2,-14.22 -60.97,-13.54 -114.99,17.76 0.62,38.31 -9.42,93.07 53.03,103.76 52.06,8.91 57.12,-30.44 58.63,-32.15 -58.41,13.83 -53.68,16.04 -89.72,-12.57z"/>
  <path class="fil2" d="M11012.96 5005.13c-164.02,-94.76 -157.3,188.59 -0.52,82.52l-94.85 -2.06 3.93 -74.72 91.44 -5.74z"/>
  <path class="fil2" d="M11198.89 7959.51c-52.17,-24.43 -40.5,-24.37 -76.03,14.45 22.67,53.12 17.69,27.42 59.22,61.58 -18.47,14.58 -5.14,6.28 -35.14,12.16l-15.48 1.72c-0.75,-2.21 -4.66,0.55 -6.76,1.51 68.41,54.42 72.09,7.55 81.03,0 -15.32,-66.26 -22.5,-28.15 -53.17,-83.3l46.33 -8.12z"/>
  <path class="fil2" d="M10968.64 7955.03l10.27 55.84c-68.82,-11.81 -86.79,-33.34 -10.27,-55.84zm0 0l-57.79 -6.16 15.24 102.27c25.99,-19.55 -25.52,-40.64 68.49,16.38 -22.86,-74.69 -9.74,-5.05 -1.15,-60.16 12.34,-79.1 -7.35,-41.87 -24.79,-52.33z"/>
  <path class="fil2" d="M11018.35 8064.01c35.71,10.74 54.26,10.85 92.54,-2.16l-5.65 -113.03c-37.03,69.59 21.6,62.75 -42.42,108.79 -60.25,-44.7 -6.05,-39.04 -51.56,-107.9l7.09 114.3z"/>
  <path class="fil2" d="M6329.83 7976.53c19.45,-24.15 9.51,4.68 49.77,-16.17 -50.47,-26.28 -41.42,-25.46 -75.26,13.6 20.5,50.95 13.1,37.11 73.73,52.77l-48.24 -50.2z"/>
  <path class="fil3" d="M11064.39 2154.92c105.9,41.9 166.52,-3.09 121.51,-123 -36.06,-13.53 -81.88,-32.96 -118.6,3.62 -53.49,53.28 -2.97,119.26 -2.91,119.38z"/>
  <path class="fil3" d="M11155.11 5110.59c22.43,-59.76 22.43,-63.25 0,-123 -59.76,-22.44 -63.25,-22.44 -123,0 -42.92,114.32 9.17,165.73 123,123z"/>
  <path class="fil4" d="M8467.64 5053.54c48.03,12.84 21.93,0.69 34.95,26.33 -45.67,21.05 -33.2,16.72 -34.95,-26.33zm170.47 64.26c-40.43,-80.27 54.34,-145.14 -90.16,-134.35l-7.58 84.13c-50.91,-99.44 38.57,-80.09 -103.61,-91.66l-1.18 145.92c77.25,-6.56 58.69,12.5 95.81,-44.24 23.41,36.42 31.28,42.78 44.39,-3.7 41.29,57.31 -1.27,21.87 62.33,43.9z"/>
  <path class="fil4" d="M5957.32 5049.09c-17.97,26.76 -26.62,30.04 -69.87,40.94l-14.99 -40.94c15.36,-50.99 67.37,-58.16 84.86,0zm135.8 -65.51c-65.32,77.79 38.96,90.76 -69.71,106.01l-15.23 -98.67 -37.9 30.07c-26.74,-39.92 1.48,-38.38 -79.87,-37.88 -82.42,60.5 -73.11,120.59 46.18,139.97 44.41,-22.66 17.53,23.85 46.19,-46.62 36.72,42.82 32.53,43.45 102.15,38.9l8.19 -131.78z"/>
  <path class="fil4" d="M6317.44 5110.17c-7.28,-72.31 9,-67.73 -8.06,-126.3l-64.9 -1.22c-21.21,45.63 -13.24,56.58 -20.2,113.15l-44.56 -115.54c-28.83,14.62 -48.52,-24.47 -76.38,130.3 23.51,-20.41 27.83,-29.8 67.01,-41.66l43.34 40.16c47.3,-8.5 21.3,-26.51 71.33,-15.54l32.42 16.65z"/>
  <path class="fil4" d="M6042.46 7952.02c1.44,-6.57 5.99,-7.3 9.03,-10.92 -57.32,9.14 -50.96,2.46 -69.54,51.05 31.91,36.48 14.04,14.35 61.26,43.39l-37.8 23.78c-1.41,-2.91 -6.06,4.73 -9.15,7 55.22,18.93 50.76,3.95 78.88,-20.2 37.28,25.92 60.26,34.11 117.69,28.59 -39.2,-33.59 -47.41,-15.68 -79.02,-35.71 -17.21,-10.9 -21.32,-15.42 -11.15,-39.53 25.24,-59.8 32.43,-1.57 92.45,-52.18 -92.6,-12.85 -108.31,-7.75 -130.5,74.92 -42.24,-43.52 -33.67,-27.51 -51.56,-31.3l29.41 -38.89z"/>
  <path class="fil4" d="M10834.17 8076.46c22.63,4.31 34.64,1.73 56.96,0.42l-27.79 -19.75c-68.67,-41.59 -35.36,7.33 -68.46,-107.92l-21.03 93.98c-16.23,-48.89 -11.58,-62.47 -49.7,-95 -37.43,24.8 -53.55,78.15 -66.65,129.21l66.65 -50.97c47.74,28.73 16.15,20.13 45.06,36.45 31.45,17.76 -9.02,-3.29 19.68,-0.31 1.07,0.11 5.14,0.03 6.38,0.26l16.5 6.11c2.93,0.79 7.24,3.42 10.5,4.22 3.56,0.86 8.14,2.58 11.9,3.3z"/>
  <path class="fil4" d="M10902.9 2152.85c-0.92,-77.82 38.48,-142.05 -84.46,-116.67l-1.2 117.06c65.5,-28.34 -18.55,-50.96 85.66,-0.39z"/>
  <path class="fil4" d="M10685.85 5087.81c67.43,-48.13 45.55,17.31 60.79,-51.9 14.13,-64.23 -9.81,-45.51 -10.19,-51.37l-82.81 -8.31 3.55 138.78 28.66 -27.2z"/>
  <path class="fil4" d="M3596.02 8034.14c37.04,-111.66 111.43,-76.2 81.78,5.64 -40.54,16.07 1,10.35 -44.64,5.66 -3.3,-0.34 -23.04,-3.17 -24.68,-6.91 -2.14,-4.88 -8.22,-3.18 -12.46,-4.39zm0 0c5.6,21.56 -13.22,39.66 47.32,44.07 20.27,1.48 134.58,-23.37 35.5,-135.04 -71.25,0.16 -138.58,38.91 -82.82,90.97z"/>
  <path class="fil4" d="M3874.96 8035.76c20.28,-11.13 34.67,-10.94 54.53,-18.07 -11.7,-67.33 -18.79,-86.04 -97.49,-67.07l-4.19 117.05 47.15 -31.91z"/>
  <path class="fil4" d="M8340.67 8024.18l66.64 52.91c-22.12,-67.77 -2.2,-11.07 -16.8,-45.27l-52.44 -83.53c-39.63,28.78 -59.74,86.26 -55.67,125.66l58.27 -49.77z"/>
  <path class="fil4" d="M6476.94 4984.3c-76.3,87.21 42.7,84.75 -69.51,105.26l-24.41 -98.69c-44.13,70.27 -13.07,132.77 88.33,124.67l5.59 -131.24z"/>
  <path class="fil4" d="M8671.15 7943.94l4.14 129.15 72.36 -6.77 -50.6 -30.78c17.96,-34.68 -17.93,-21.68 48.72,-24.48 -3.79,-2.94 -8.8,-6.92 -11.31,-8.91l-36.19 -31.74 -27.12 -26.47z"/>
  <path class="fil4" d="M6210.14 7945.69l10.7 130.73 65.66 -14.34 -51.16 -26.54c18.25,-32.61 -14.35,-18.06 48.51,-24.79l-46.07 -36.79 -27.64 -28.27z"/>
  <path class="fil5" d="M1195.94 1652.66l-395.81 -0.22c-0.64,-99.76 88.68,-183.18 187.88,-188.39 110.21,-5.79 217.16,84.85 207.93,188.61zm255.16 -217.53l354.51 0.24c-8.42,227.94 -351.68,217.35 -354.51,-0.24zm-1258.57 2.78l357.44 -2.32c-14.06,221.09 -345.22,218.68 -357.44,2.32zm1316.72 -136.21l60.17 41.8c35.11,26.62 20.01,8.47 40.48,51.28l-138.6 5.75 154.61 -516.88 163.97 516.36 -140.79 1.54c14.23,-45.02 4.99,-33.69 35.06,-57.95l59.76 -36.02c-66.38,-49.89 -84.02,-30.34 -108.92,32.79 -0.01,0 -69.8,-107.32 -125.74,-38.67zm-1253.09 5.88c3.34,2.85 9.13,1.71 10.97,7.3 10.59,32.05 49.35,-4.41 83.82,82.8l-138.02 5.23c11.17,-51.51 120.16,-440.84 158.26,-501.39 37.29,65.54 145.39,413.29 157.17,500.62l-137.73 -1.34c23.92,-73.27 40.42,-48.31 92.16,-93.22 -63.21,-46.33 -70.78,-30.42 -111.6,27.43 -26.04,-36.9 -6.86,-32.93 -41.05,-47.1 -22.65,-9.38 -67.08,-2.17 -73.98,19.67zm799.15 127.94l-111.5 -2.67c-0.05,-184.86 -1.75,-371.11 0.17,-556.47 2.06,-198.11 -1.66,-100.45 -66.78,-212.97 -38.54,-66.59 -48.41,-144.63 -48.2,-236.59 78.37,6.36 136.19,44.94 172.94,44.75 44.77,-0.21 78.15,-38.98 167.41,-42.61 0.21,343.48 -116.94,159.64 -114.04,431.67 2.04,191.15 0.67,383.65 0,574.89zm-735.61 -638.2c25.87,-50.76 45.39,-47.94 83.08,-89.43 75.98,-83.64 124.13,-237.61 181.34,-326.78 166.01,-258.72 366.61,12.29 418.22,35.36 58.87,-36.47 106.02,-117.52 203.31,-139.32 235.85,-52.83 232.05,253.71 402.18,440.04 25.04,27.42 55.43,46.37 73.47,79.22 -153.33,8.78 -164.82,-127.04 -291.61,-276.28 -181.59,-213.75 -315.24,-86.87 -388.16,-85.6 -53.65,0.93 -228.37,-129.22 -397.23,90.29 -141.25,183.63 -132.1,275.91 -284.6,272.5zm562.92 -521.14c47.17,-122.73 150.54,-136.05 232.81,-15.4 -18.82,40.36 -11.13,24.73 -52.1,60.83 -22.2,19.54 -35.58,31.4 -60.99,48.74 -50.75,-23.9 -49.49,-40.18 -119.72,-94.17zm-487.82 544.23c174.48,-55.6 177.62,-354.39 400.76,-385.7 21.75,321.83 117.13,255.09 117.13,364.87l-0.19 652.17c-91.32,36.31 -143.64,100.44 -149.99,232.59l472.94 -2.07c-7.34,-214.88 -114.05,-165.09 -147.61,-266.93l-0.18 -615.76c0,-129.9 95.34,-32.32 117.46,-366.49 197.47,37.05 226.05,290.78 397.33,397.27 -29.52,259.22 -232.97,569.02 -161.12,699.35 30.51,55.35 99.2,109.81 192.46,109.19 93.24,-0.62 161.15,-53.11 192.18,-124.77 36.73,-84.82 -7.29,-134.23 -31.31,-212.48 -40.03,-130.41 -91.07,-341.33 -140.98,-453.43 35.4,-36.96 56.7,-25.26 97.42,-65.65 -78.42,-81.25 -105.69,0.7 -257.17,-320.18 -71.09,-150.59 -126.4,-259.56 -339.2,-206.39 -103.86,-131.23 -181.66,-175.88 -307.75,0.19 -350.49,-87.46 -308.36,306.4 -514.56,473.5 -49.41,40.03 9.27,-7.86 -46.45,28.89l-29.06 22.46c-1.67,-3.02 -6.78,5.5 -9.46,8.89 36.38,27.61 41.73,30.55 98.77,39.08 -28.01,140.99 -95.85,333.14 -138.14,469.32 -26.8,86.3 -77.02,136.17 -26.45,228.78 84.87,155.42 311.14,145.32 384.47,-10.45 38.95,-82.75 -5.48,-130.69 -31.53,-218.04 -43.05,-144.29 -115.59,-334.68 -139.77,-478.21z"/>
  <path class="fil5" d="M10729.52 7519.51c109.18,61.73 200.52,40.31 317.84,6.02 -24.94,49.48 -82.09,91.06 -166.84,86.87 -98.55,-4.88 -109.92,-44.99 -151,-92.89zm33.05 -248.51c91.78,-77.34 158.2,-56.98 254.2,-9.37 8.51,160.76 -34.03,83.26 -65.39,174.89 91.91,-1.27 85.4,2.02 118.35,-84.84 0.96,-2.53 2.34,-7.85 4.41,-11.33 24.1,121.13 9.27,149.18 -112.33,177.88 -106.86,25.23 -192.76,-13.6 -261.08,-59.32l5.89 -133.03c32.49,78.69 3.46,119.08 121.15,106.19 -25.16,-73.61 -75.69,-18.91 -65.2,-161.07zm450.28 -359.23l-18.27 322.08c-117.87,-44.92 -165.1,-297.75 -64.5,-485.92 32.76,-61.27 78.36,-94.65 93.03,-119.15l1.11 98.28c-3.55,2.36 -208.51,101.1 -54.38,170.33 26.44,11.87 3.72,-9.67 43.01,14.38zm-655.64 -184.73l-6.25 -93.6c67.96,32.53 140.96,168.36 152.74,281.63 14.79,142.21 -44.86,250.3 -97.79,323.79l-39.13 -327.09c3.8,-2.07 10.19,-7.77 12.29,-4.16l58.51 -21.98c104.88,-76.24 -80.27,-158.52 -80.37,-158.59zm1098.4 -123.15c-86.62,203.21 -355.51,141.39 -387.11,38.73 -35.07,-113.9 318.04,-210.67 387.11,-38.73zm-1428.66 -85.83c180.54,-37.63 438.99,108.18 186.67,207.42 -181.44,71.36 -422.87,-158.18 -186.67,-207.42zm958.51 760.77c-5.43,27.79 -8.93,49.46 -20.75,73.69l-44.64 54.06c-49.43,-269.45 -289.05,-255.59 -398.61,-143.11 -55.88,57.37 -39.06,83.46 -69.11,150.94l-61.18 -115.72c54.35,-74.71 104.83,-102.47 132.94,-218.28 23.9,-98.45 15.49,-204.78 -23.17,-299.39 -45.47,-111.29 -123.32,-161.1 -145.46,-206.77 -24.35,-50.19 -27.97,-277.13 -19.58,-339.82 96.76,-98.75 314.58,-113.87 479.39,-91.11 282.71,39.05 233.41,73.63 223.02,326.52 -8.22,200.23 -128.75,134.85 -184.03,386.81 -42.24,192.55 24.73,345.22 131.18,422.18zm-678.57 -857.99c-155.6,-27.04 -308.5,-156.65 -356,-268.36 82.64,22.23 132.75,65.96 229.49,88.18 150.17,34.49 114.14,0.23 126.51,180.18zm781.59 -160.87c165.46,-24.4 227.95,-81.16 339.91,-103.87 -49.07,115.67 -200.37,235.07 -355.71,265.67l15.8 -161.8zm-797.53 205.37c-75.22,53.21 -159.82,-6.06 -270.68,19.1 -228.87,51.94 -105.88,261.4 76.74,283.3 126.36,15.14 152.63,-32.5 224.76,-68.32 24.47,238.39 -15.26,590.22 101.69,728.56 50.44,59.68 29.03,34.77 67.1,102.38 68.99,122.53 281.82,192.78 405.55,-16.28 45.3,-76.55 91.87,-107.12 118.37,-204.71 30.03,-110.64 34.42,-469.13 41.41,-606.91 74.11,27.54 119.04,94.37 257.7,59.59 98.33,-24.67 173.63,-78.9 169.97,-188.95 -115.88,-174.94 -279.25,-28.13 -394.25,-107.76 69.81,-48.18 158.58,-70.94 230.69,-127.53 43.61,-34.24 151.88,-129.48 133.74,-199.88 -3.82,-2.23 -9.38,-4.05 -12.42,-4.72l-24.72 -5.91c-38.3,-1.95 -95.39,35.73 -132.42,51.25 -166.84,69.92 -184.06,51.99 -237.58,10.57l-127.47 -58.97c-403.76,-108.58 -625.85,94.85 -625.89,94.86 -134.77,-6.3 -289.87,-111.41 -367.32,-97.05 -31.92,171.12 313.88,304.22 365.03,337.38z"/>
  <path class="fil5" d="M11269.34 3841.69c-53.83,-137.39 45.99,-371.58 174.13,-374.7 41.28,165.91 -80.27,327.21 -174.13,374.7zm-683.35 -3.82c-106.08,-36.87 -233,-216.03 -183.63,-372.18 136.38,13.08 205.56,223 183.63,372.18zm-303.94 -659.3c298.87,5.31 505.88,242.66 563.18,502.58 289.63,6.31 63.98,-28.89 331.95,-334.37 74.64,-85.09 210.23,-166.51 384.46,-166.06 -53.33,39.83 -88.51,29.85 -177.27,95.85 -194.18,144.4 -214.87,379.9 -235.42,602.57 -46.84,19.11 -40.62,-9.73 -100.17,28.07 -5.45,90.45 31.84,127.53 114.48,118.36 21,-98.33 3.6,-238.15 56.8,-296.88 46.55,237.65 -11.62,253.89 -74.98,433.42 -52.45,148.64 -28.06,321.22 -205.97,336.27 -216.38,18.3 -207.31,-234.2 -229.92,-311.42 -22.56,-77.07 -58.49,-124.86 -82.5,-193.93 -30.42,-87.5 0.12,-173.01 -3.45,-261.89 81.44,82.96 3.97,208.56 77.94,293.34 96.96,6.46 162.1,-130.88 -3.62,-140.3 -62.36,-697.47 -311.8,-604.41 -415.51,-705.61zm596.04 467.62c-37.1,-65.61 -55.92,-135.84 -93.35,-197.07 -105.25,-172.17 -349.49,-356.35 -535.48,-292.47 -11.54,96.8 55.15,66.13 135.94,107.29 138.7,70.68 251.69,265.36 257.26,425.62 -69.69,-98.62 -101.94,-265.69 -256.98,-255.24 -42.94,83.19 -22.74,185.42 20.44,269.92 46.81,91.59 83.79,123.98 173.8,179.03 3.27,144.03 37.49,153.73 79.75,260.47 33.54,84.69 36.01,197.95 62.92,260.02 72.62,167.54 335.21,176.51 403.42,-14.55 33.53,-93.92 26.06,-167.84 70.18,-269.5 17.53,-40.41 39.8,-74.83 53.27,-116.24 16.18,-49.74 10.36,-91.36 32.44,-122.27 9.52,-13.33 34.85,-27.84 49.95,-40.82 302.1,-259.71 111.19,-686.1 -124.27,-152.63 -2.21,-123.88 76.54,-260.07 135.04,-329.41 25.59,-30.34 83.92,-77.68 130.53,-99.98 74.22,-35.52 133.13,-9.24 122.01,-96.93 -127.46,-67.84 -343.59,75.84 -409.08,132.72 -133.99,116.39 -160.19,248.52 -215.4,354.78l-92.39 -2.74z"/>
  <path class="fil5" d="M10554.94 463.2c3.13,-223.28 131.97,-268.56 353.61,-246.63 84.67,8.37 161.07,26.74 241.08,50.89 148.24,44.72 94.28,39.11 137.64,151.57 68.33,17.01 92.18,30.07 154.59,-6.86 -34.58,-25.32 -75.67,-3.87 -137.71,-22.9 -36.23,-177.12 213.34,-71.09 199.02,70.9 -7.19,71.3 -121.43,129.41 -216.49,144.48l-81.53 26.34c109.33,54.42 246.45,-61.54 305.91,-95.08 -6.39,271.59 -195.78,195.05 -321.47,264.41 2.92,2.56 7.61,4.97 10,5.94 2.41,0.97 7.39,4.27 10.5,5.28 3.2,1.06 7.7,3.21 11.43,4.09 3.94,0.94 8.27,1.96 12.57,2.55 78.36,10.62 202.32,-56.91 253.5,-102.21 -4.02,244.74 -258.41,196.34 -327.17,251.62 68.78,34.16 153.56,-3.8 223.16,-27.04 -38.51,53.41 -86.31,95.46 -157.26,131.09 -98.61,49.52 -117.34,28.26 -139.52,151.8 -18.15,101.1 -15.33,170.11 8.54,267.35 21.57,87.81 59.65,130.75 77.44,199.68l-425.61 -3.76c-67.9,-513.77 -172.63,-309.52 -368.81,-401.73 -10.82,-85.49 56.67,-55.96 -11.05,-111 27.61,-15.98 51.18,-11.36 79.22,-39.1l-75.21 -28.94c42.96,-94.27 11.05,-64.94 -35.06,-136.28 16.85,-33.45 12.46,-25.23 38.7,-56.88 187.94,-226.61 -81.18,-47.89 180.62,-416.31l268.5 54.38c2.05,87.75 -33.02,205.42 30.57,272.79 58.54,62.02 92.65,118.64 166,140.12l-70.93 -96.78c-177.02,-188.7 -66.92,-56.7 -95.23,-320.34 -54.57,-42.23 -212.73,-63.93 -299.55,-83.44zm665.25 1257.73c-5.17,-91.27 -128.72,-179.6 -110.8,-428.44 11.93,-165.77 44.56,-151.77 99.45,-176.42 188.38,-84.62 300.39,-243.29 327.49,-473.07 56.67,-480.55 -243.19,-360.88 -255.93,-361.53l-303.79 -87.07c-529.06,-82.61 -418.48,225.33 -473.68,323.2 -30.06,53.31 -78.01,93.54 -92.63,168.51 -24.89,127.67 34.15,98.35 -50.35,196.44 -55.42,64.33 -92.72,77.5 -5.48,164.08 -60.26,91.28 -12.13,101.19 -6.47,181.45 2.26,32.21 -22.66,5.65 2.75,65.69 75.97,136.24 296.63,-101.16 350.4,297.12 23.42,173.5 -14.67,131.2 192.3,130.27 108.89,-0.49 217.85,0.01 326.74,-0.23z"/>
  <path class="fil5" d="M10902.68 4285.96c-34.71,-33.99 -47.5,-35.61 -100.01,-10.2 26.61,31.65 -5.56,3.65 36.48,29.86 101.54,63.29 17.96,33.17 85.58,77.45 16.31,-27.09 17.06,-44.55 39.96,-62.64 37.84,-29.9 24.82,7.71 69.15,-47.77 -71.86,-25.7 -86.54,-30.15 -106.33,44.17l-24.83 -30.87z"/>
  <path class="fil5" d="M10951.77 1095.65l-38.43 -28.03c-10.48,49.88 -14.85,18.84 10.93,58.08 75.71,3.45 93.15,-33.39 121.99,-80.86l36.58 -105.96c-4.54,-75.19 -4.87,-25.74 -20.02,-41.25 -46.81,95.24 -7.76,141.64 -111.05,198.02z"/>
  <path class="fil5" d="M10461.35 759.89c153.75,-10 66.86,-9.16 163.7,28.27 -7.66,-57.83 -23.89,-113.88 -119.91,-70.51 -67.09,30.29 -24.29,7.29 -43.79,42.24z"/>
  <path class="fil5" d="M10502.11 893.27l113.01 -13.88c-22.94,-45.45 -126.78,-86.13 -149.18,-90.07 29.49,121.88 88.53,-50.34 36.17,103.95z"/>
 </g>
</svg>
