<?xml version="1.0" encoding="UTF-8"?>
<!DOCTYPE svg PUBLIC "-//W3C//DTD SVG 1.1//EN" "http://www.w3.org/Graphics/SVG/1.1/DTD/svg11.dtd">
<!-- Creator: CorelDRAW 2017 -->
<svg xmlns="http://www.w3.org/2000/svg" xml:space="preserve" width="20mm" height="18.246mm" version="1.1" style="shape-rendering:geometricPrecision; text-rendering:geometricPrecision; image-rendering:optimizeQuality; fill-rule:evenodd; clip-rule:evenodd"
viewBox="0 0 2000 1824.6"
 xmlns:xlink="http://www.w3.org/1999/xlink">
 <defs>
  <style type="text/css">
   <![CDATA[
    .fil0 {fill:none}
    .fil1 {fill:#121212}
   ]]>
  </style>
 </defs>
 <g id="Capa_x0020_1">
  <metadata id="CorelCorpID_0Corel-Layer"/>
  <rect class="fil0" width="2000" height="1824.6"/>
  <path class="fil1" d="M505.69 1211.34l4.06 -58.6 43.05 31.82 -47.11 26.78zm352.6 40.11c40.78,24.56 20.76,27 69.92,7.69 60.1,-108.39 -98.02,-134.05 -69.92,-7.69zm211.57 -597.2c113.4,17.86 93.94,-71.64 49.21,-94.38 -57.34,-29.18 -76.71,34.75 -49.21,94.38zm381.34 501.76l92.07 36.38c18.09,122.95 -30.61,70.92 -57.51,138.55 170.52,-10.8 83.76,-252.38 -34.56,-174.93zm-1029.05 -610.17c-4.59,53.12 -6.15,124.39 64.86,140.33 78.71,17.68 53.63,-10.02 58.25,-13.17 -3.51,-1.82 -9.06,-7.99 -10.89,-4.7 -0.4,0.71 -143.59,-25.66 -50.08,-131.98 21.4,-24.35 18.64,-11.45 25.05,-43.14 -48.76,7.84 -56.89,22.1 -87.19,52.66zm851.89 546.29l90.24 23.16c57.69,141.91 -29.21,100.02 -52.44,172.77 95.68,3.51 108.31,16.18 105.92,112.63l-69 68.8c60.04,0.61 77.74,-26.94 101.17,-72.97 6.42,-98.59 -7.85,-80.18 -58.04,-138.54 60.93,-152.12 -52.73,-231.53 -117.85,-165.85zm-692.02 -608.45c-0.53,-118.15 48.2,-62.74 67.48,-132.72 -131.26,18.48 -128.31,147.31 -41.94,214.28 -25.03,72.34 -38.41,173.96 61.22,189.22 82.71,12.67 52.11,-16.73 55.01,-19.87 -89.7,-35.38 -110.81,-5.57 -103.13,-127.21l68.5 -57.53c-62.78,-32.07 -65.88,-6.6 -107.14,-66.17zm781.38 1085.98c15.6,-13.75 145.74,-77.11 168.93,-86.45l9.79 150.23 -178.72 -63.78zm-667.09 -496.41c109.75,-56.37 355.2,-59.08 435.69,11.71 96.88,85.19 124.53,238.74 32.92,363.59 -166.45,226.83 -465.27,-136.29 -468.61,-375.3zm796.48 -430.1c3.58,54.4 -3.87,16.65 -10.4,29.63 -51.62,-37.57 -54.29,-20.97 0,-54.75 10.01,14.55 8.12,-9.84 10.4,25.12zm-239.31 660.65c10.38,-139.63 -53.17,-184.85 -104.32,-254.29 471.25,-58.59 367.41,-494.31 347.53,-710.33 203.03,103.43 347.24,452.09 251.93,769.89 -85.69,285.79 -315.94,465.46 -636.13,435.9 52.69,-68.23 129.77,-90.13 140.99,-241.17zm348.77 372.28c-79.94,-239.19 -9.79,-218.44 92.66,-375.26 173.43,-265.48 151.06,-593.75 -32.07,-854.24 -163.31,-232.32 -254.2,-85.16 -142.28,-303.5 -94.24,10.17 -97.12,13.46 -83.96,111.38 -43.26,-18.54 -55.69,-34.42 -114.71,-20.46l-12.77 68.53c125.31,-40.18 138.75,-23.76 166.18,115.35 38.96,197.7 29.86,131.46 -83.45,208.94 43.88,82.02 131.08,54.99 50.26,206.1 -155.71,291.13 -478.04,126.42 -776.37,209.22 -30.94,202.46 165.04,434.52 294.72,492.01 153.25,67.96 208.08,26.23 348.11,52.18 104.17,19.3 188.08,91.51 293.68,89.75zm-297.07 -918.26c-126.86,39.99 -351.76,61.13 -440.82,-21 -97.29,-89.71 -127.67,-227.74 -27.42,-355.16 182.18,-231.57 460.52,138.32 468.24,376.16zm-798.29 729.71c-97.85,-45.77 -190.95,-172.11 -241.65,-304.96 -150.42,-394.2 73.51,-942.49 617.55,-903.74 -46.86,80.69 -118.74,86.55 -135.19,228.81 -15.12,130.7 39.1,201.42 102.54,258.32 -98.64,53.81 -487.43,49.73 -343.25,721.57zm-34.25 -1141.79l-18.69 -153.98 178.12 65.61 -159.43 88.37zm226.95 -105.1c-96.75,-16.33 -193.56,-78.25 -302.4,-97.56 20.16,84.19 68.67,136.19 21.2,235.94 -20.98,44.11 -83.28,98.36 -120.14,156.9 -193.01,306.52 -136.76,746.07 177.1,975.25 105.31,76.89 27.79,109.97 3.72,170.35 103.01,-4.24 97.42,-21.98 85.57,-108.35 58.78,30.11 129.32,46.73 124.52,-45.74 -59.83,9.74 -53.66,26.98 -127.11,2.4 -28.54,-57.03 -58.04,-190.82 -52.16,-271.85l103.01 -66.8 -86.1 -69.1c-3.53,-157.82 138.38,-287.87 280.02,-308.4 153.66,-22.27 382.58,43.64 531.03,-38.61 16.33,-213.75 -164.35,-417.03 -294.11,-479.8 -148.42,-71.79 -205.18,-31.21 -344.15,-54.63z"/>
 </g>
</svg>
