<?xml version="1.0" encoding="UTF-8"?>
<!DOCTYPE svg PUBLIC "-//W3C//DTD SVG 1.1//EN" "http://www.w3.org/Graphics/SVG/1.1/DTD/svg11.dtd">
<!-- Creator: CorelDRAW 2017 -->
<svg xmlns="http://www.w3.org/2000/svg" xml:space="preserve" width="20mm" height="18.246mm" version="1.1" style="shape-rendering:geometricPrecision; text-rendering:geometricPrecision; image-rendering:optimizeQuality; fill-rule:evenodd; clip-rule:evenodd"
viewBox="0 0 2000 1824.6"
 xmlns:xlink="http://www.w3.org/1999/xlink">
 <defs>
  <style type="text/css">
   <![CDATA[
    .fil0 {fill:none}
    .fil1 {fill:#121212}
   ]]>
  </style>
 </defs>
 <g id="Capa_x0020_1">
  <metadata id="CorelCorpID_0Corel-Layer"/>
  <rect class="fil0" width="2000" height="1824.6"/>
  <path class="fil1" d="M1022.66 562c281.52,-95.49 375.57,36.84 561.76,314.81 -88.35,70.02 -187.41,138.89 -284.77,206.88 -84.61,59.1 -195.74,159.01 -280.82,200.22l3.83 -721.91zm-597.34 315.2c101.68,-178.09 254.13,-400.6 480.6,-340.5 89.35,23.72 84.5,28.28 83.37,128.78l-4.15 611.83c-40.89,-17.65 -101.37,-71.33 -138.93,-97.17 -54.88,-37.74 -91.02,-63.26 -143.85,-102.56 -81.85,-60.9 -191.17,-148.11 -277.04,-200.38zm593.26 -349.99c26.96,-74.61 266.64,-275.31 427.68,-54.48 149.61,205.18 -4.82,98.34 283.16,394.11 -232.66,95.08 -215.96,-506.79 -710.84,-339.63zm-745.29 339.63c236.22,-205.94 171.5,-251.83 288.86,-397.49 168.35,-208.95 388.36,-22.86 423.84,57.34 -92.51,-15.55 -127.6,-59.95 -252.47,-25.35 -197.49,54.72 -300.19,440.35 -460.23,365.5zm1437.25 39.54c102.72,-6.22 92.84,-54.9 92.85,-54.93 -101.62,-49.1 -82.64,-2.82 -192.63,-158.38 -56.54,-79.96 -79.31,-154.23 -127.94,-226.2 -178.05,-263.54 -404.12,-43.12 -464.17,-14.24 -5.89,-178.81 83.51,-1.87 -13.2,-292.94 -83.64,138.16 -19.35,219.92 -19.72,291.45 -70.29,-37.23 -130.68,-106.82 -242.21,-111.63 -209.67,-9.04 -257.61,220.35 -354,357.83 -92.73,132.28 -123.34,119.77 -193.17,157.54 74.22,103.29 147.58,12.97 233.16,63.65l556.99 410.14c2.68,51.62 8.36,105.39 -20.52,144.92 -11.68,16 -22.15,19.66 -42.79,34.11 -61.47,43 -26.27,-0.67 -45.09,39.07 73.86,22.32 56.94,-2.62 96.3,32.27l-95.79 57.51c49.08,38.75 61.43,37.62 106.29,-7.07 3.05,-3.03 15.7,-12.66 17.48,-19.74 1.58,-6.27 5.59,-7.2 8.89,-10.31 19.76,65.99 47.12,88.79 114.59,37.12l-38.36 -21.97c-42.13,-24.95 -42.79,-23 -62.33,-69.88 52.42,27.41 64.55,30.03 100.95,-15.91 -82.09,-53.43 -107.81,14.63 -106.44,-206.46 68.54,-32.73 117.22,-78.88 188.58,-129.66 64.61,-45.98 121.18,-88.85 187.19,-135.97 307.27,-219.34 159.81,-140.93 315.09,-150.32z"/>
 </g>
</svg>
