<?xml version="1.0" encoding="UTF-8"?>
<!DOCTYPE svg PUBLIC "-//W3C//DTD SVG 1.1//EN" "http://www.w3.org/Graphics/SVG/1.1/DTD/svg11.dtd">
<!-- Creator: CorelDRAW 2017 -->
<svg xmlns="http://www.w3.org/2000/svg" xml:space="preserve" width="20mm" height="18.246mm" version="1.1" style="shape-rendering:geometricPrecision; text-rendering:geometricPrecision; image-rendering:optimizeQuality; fill-rule:evenodd; clip-rule:evenodd"
viewBox="0 0 2000 1824.6"
 xmlns:xlink="http://www.w3.org/1999/xlink">
 <defs>
  <style type="text/css">
   <![CDATA[
    .fil0 {fill:none}
    .fil5 {fill:#121212}
    .fil2 {fill:#4C4C4C}
    .fil4 {fill:#6B6B6B}
    .fil3 {fill:#B7B7B7}
    .fil1 {fill:#DDDDDD}
   ]]>
  </style>
 </defs>
 <g id="Capa_x0020_1">
  <metadata id="CorelCorpID_0Corel-Layer"/>
  <rect class="fil0" width="2000" height="1824.6"/>
  <path class="fil1" d="M10968.64 7955.03c-76.52,22.5 -58.55,44.03 10.27,55.84l-10.27 -55.84z"/>
  <path class="fil1" d="M8825.74 7957.29c-42.43,9.44 -30.81,-13.11 -35.91,21.05 -8.48,56.8 2.58,19.07 25.46,31.53 2.03,-3.58 6.49,-12.41 6.77,-10.33 0.28,2.16 4.08,-9.4 4.34,-12.03 1.64,-16.82 0.4,-9.43 -0.66,-30.22z"/>
  <path class="fil1" d="M10790.12 5010.58c-35.15,6.57 -6.06,-3.99 -17.73,23.11 61.39,31.1 31.53,14.67 50.89,-15.39 -20.25,-8.3 -4.24,-13.13 -33.16,-7.72z"/>
  <path class="fil1" d="M11188.03 5033.69c58.77,28.79 30.93,14.26 50.15,-15.39 -65.55,-26.22 -29.11,-2.12 -50.15,15.39z"/>
  <path class="fil2" d="M3981.2 8033.82c21.69,-112.34 117.5,-84.19 83.82,8.22l-72 -2.47c-2.13,-4.97 -7.78,-4.04 -11.82,-5.75zm0 0c28.97,64.22 60.46,41.64 112.13,23.79 21.96,-166.06 -123.22,-123.11 -126.28,-52.86 -3.03,69.67 -3.3,10.63 14.15,29.07z"/>
  <path class="fil2" d="M10488.19 5102.11c154.9,-13.69 28.93,-82.49 160.1,8.98 -12.75,-51.78 -27.02,-88.48 -62.69,-123.88 -13.78,14.46 -75.01,128.05 -86.24,108.03 -1.74,-3.11 -7.62,4.33 -11.17,6.87z"/>
  <path class="fil2" d="M3766.03 7961.82c40.16,27.56 49.52,13.06 0,45.84 -1.65,-2.85 -40.51,-0.62 0,-45.84zm49.43 111.78c-26.04,-96.52 39.35,-124.79 -84.04,-129.44l-0.16 106.77 31.88 -6.73c14.16,1.77 35.52,19.1 52.32,29.4z"/>
  <path class="fil2" d="M8825.74 7957.29c1.06,20.79 2.3,13.4 0.66,30.22 -0.26,2.63 -4.06,14.19 -4.34,12.03 -0.28,-2.08 -4.74,6.75 -6.77,10.33 -22.88,-12.46 -33.94,25.27 -25.46,-31.53 5.1,-34.16 -6.52,-11.61 35.91,-21.05zm0 0l-57.19 -11.26 -1.07 126.28c3.26,-3.61 6.73,-9.4 9,-11.51 47.68,-44.34 -2.23,-31.74 78.15,10.66 -16.48,-37.13 -9.15,-31.36 -9.56,-59.37 -0.41,-28.3 38.93,-63.86 -19.33,-54.8z"/>
  <path class="fil2" d="M11238.18 5018.3c-19.22,29.65 8.62,44.18 -50.15,15.39 21.04,-17.51 -15.4,-41.61 50.15,-15.39zm2.62 49.69c12.36,-57.93 41.17,-90.46 -69.52,-80.47l2.89 121.09 66.63 -40.62z"/>
  <path class="fil2" d="M8643.9 5112.29c53.24,-25.04 10.09,-18.27 63.63,-44.43 47.33,16.73 18.88,9.13 62.26,44.43 -16.91,-58.36 -22.89,-87.99 -68.72,-127.53l-57.17 127.53z"/>
  <path class="fil2" d="M10772.39 5033.69c11.67,-27.1 -17.42,-16.54 17.73,-23.11 28.92,-5.41 12.91,-0.58 33.16,7.72 -19.36,30.06 10.5,46.49 -50.89,15.39zm52.34 34.81c10.87,-56.32 45.73,-92.02 -69.76,-80.17l3.82 120.02 65.94 -39.85z"/>
  <path class="fil2" d="M5890.41 7961.39c39.61,26.56 51.68,11.06 0,46.57 -14.71,-17.63 -15.17,-23.59 0,-46.57zm19.39 62.11c38.73,-31.8 25.83,3.47 26.09,-67.93l-81.65 -11.23 0.34 126.01 55.22 -46.85z"/>
  <path class="fil2" d="M5724.76 5109.55c61.79,-32 22.74,-59.57 108.61,-24.28 -25.26,-116.15 -35.97,-86.72 -55.31,-99.31l-53.3 123.59z"/>
  <path class="fil2" d="M8559.06 8030.49c-2.86,-101.8 44.14,-44.13 93.05,-76.8 -69.2,-14.22 -60.97,-13.54 -114.99,17.76 0.62,38.31 -9.42,93.07 53.03,103.76 52.06,8.91 57.12,-30.44 58.63,-32.15 -58.41,13.83 -53.68,16.04 -89.72,-12.57z"/>
  <path class="fil2" d="M11012.96 5005.13c-164.02,-94.76 -157.3,188.59 -0.52,82.52l-94.85 -2.06 3.93 -74.72 91.44 -5.74z"/>
  <path class="fil2" d="M11198.89 7959.51c-52.17,-24.43 -40.5,-24.37 -76.03,14.45 22.67,53.12 17.69,27.42 59.22,61.58 -18.47,14.58 -5.14,6.28 -35.14,12.16l-15.48 1.72c-0.75,-2.21 -4.66,0.55 -6.76,1.51 68.41,54.42 72.09,7.55 81.03,0 -15.32,-66.26 -22.5,-28.15 -53.17,-83.3l46.33 -8.12z"/>
  <path class="fil2" d="M10968.64 7955.03l10.27 55.84c-68.82,-11.81 -86.79,-33.34 -10.27,-55.84zm0 0l-57.79 -6.16 15.24 102.27c25.99,-19.55 -25.52,-40.64 68.49,16.38 -22.86,-74.69 -9.74,-5.05 -1.15,-60.16 12.34,-79.1 -7.35,-41.87 -24.79,-52.33z"/>
  <path class="fil2" d="M11018.35 8064.01c35.71,10.74 54.26,10.85 92.54,-2.16l-5.65 -113.03c-37.03,69.59 21.6,62.75 -42.42,108.79 -60.25,-44.7 -6.05,-39.04 -51.56,-107.9l7.09 114.3z"/>
  <path class="fil2" d="M6329.83 7976.53c19.45,-24.15 9.51,4.68 49.77,-16.17 -50.47,-26.28 -41.42,-25.46 -75.26,13.6 20.5,50.95 13.1,37.11 73.73,52.77l-48.24 -50.2z"/>
  <path class="fil3" d="M11064.39 2154.92c105.9,41.9 166.52,-3.09 121.51,-123 -36.06,-13.53 -81.88,-32.96 -118.6,3.62 -53.49,53.28 -2.97,119.26 -2.91,119.38z"/>
  <path class="fil3" d="M11155.11 5110.59c22.43,-59.76 22.43,-63.25 0,-123 -59.76,-22.44 -63.25,-22.44 -123,0 -42.92,114.32 9.17,165.73 123,123z"/>
  <path class="fil4" d="M8467.64 5053.54c48.03,12.84 21.93,0.69 34.95,26.33 -45.67,21.05 -33.2,16.72 -34.95,-26.33zm170.47 64.26c-40.43,-80.27 54.34,-145.14 -90.16,-134.35l-7.58 84.13c-50.91,-99.44 38.57,-80.09 -103.61,-91.66l-1.18 145.92c77.25,-6.56 58.69,12.5 95.81,-44.24 23.41,36.42 31.28,42.78 44.39,-3.7 41.29,57.31 -1.27,21.87 62.33,43.9z"/>
  <path class="fil4" d="M5957.32 5049.09c-17.97,26.76 -26.62,30.04 -69.87,40.94l-14.99 -40.94c15.36,-50.99 67.37,-58.16 84.86,0zm135.8 -65.51c-65.32,77.79 38.96,90.76 -69.71,106.01l-15.23 -98.67 -37.9 30.07c-26.74,-39.92 1.48,-38.38 -79.87,-37.88 -82.42,60.5 -73.11,120.59 46.18,139.97 44.41,-22.66 17.53,23.85 46.19,-46.62 36.72,42.82 32.53,43.45 102.15,38.9l8.19 -131.78z"/>
  <path class="fil4" d="M6317.44 5110.17c-7.28,-72.31 9,-67.73 -8.06,-126.3l-64.9 -1.22c-21.21,45.63 -13.24,56.58 -20.2,113.15l-44.56 -115.54c-28.83,14.62 -48.52,-24.47 -76.38,130.3 23.51,-20.41 27.83,-29.8 67.01,-41.66l43.34 40.16c47.3,-8.5 21.3,-26.51 71.33,-15.54l32.42 16.65z"/>
  <path class="fil4" d="M6042.46 7952.02c1.44,-6.57 5.99,-7.3 9.03,-10.92 -57.32,9.14 -50.96,2.46 -69.54,51.05 31.91,36.48 14.04,14.35 61.26,43.39l-37.8 23.78c-1.41,-2.91 -6.06,4.73 -9.15,7 55.22,18.93 50.76,3.95 78.88,-20.2 37.28,25.92 60.26,34.11 117.69,28.59 -39.2,-33.59 -47.41,-15.68 -79.02,-35.71 -17.21,-10.9 -21.32,-15.42 -11.15,-39.53 25.24,-59.8 32.43,-1.57 92.45,-52.18 -92.6,-12.85 -108.31,-7.75 -130.5,74.92 -42.24,-43.52 -33.67,-27.51 -51.56,-31.3l29.41 -38.89z"/>
  <path class="fil4" d="M10834.17 8076.46c22.63,4.31 34.64,1.73 56.96,0.42l-27.79 -19.75c-68.67,-41.59 -35.36,7.33 -68.46,-107.92l-21.03 93.98c-16.23,-48.89 -11.58,-62.47 -49.7,-95 -37.43,24.8 -53.55,78.15 -66.65,129.21l66.65 -50.97c47.74,28.73 16.15,20.13 45.06,36.45 31.45,17.76 -9.02,-3.29 19.68,-0.31 1.07,0.11 5.14,0.03 6.38,0.26l16.5 6.11c2.93,0.79 7.24,3.42 10.5,4.22 3.56,0.86 8.14,2.58 11.9,3.3z"/>
  <path class="fil4" d="M10902.9 2152.85c-0.92,-77.82 38.48,-142.05 -84.46,-116.67l-1.2 117.06c65.5,-28.34 -18.55,-50.96 85.66,-0.39z"/>
  <path class="fil4" d="M10685.85 5087.81c67.43,-48.13 45.55,17.31 60.79,-51.9 14.13,-64.23 -9.81,-45.51 -10.19,-51.37l-82.81 -8.31 3.55 138.78 28.66 -27.2z"/>
  <path class="fil4" d="M3596.02 8034.14c37.04,-111.66 111.43,-76.2 81.78,5.64 -40.54,16.07 1,10.35 -44.64,5.66 -3.3,-0.34 -23.04,-3.17 -24.68,-6.91 -2.14,-4.88 -8.22,-3.18 -12.46,-4.39zm0 0c5.6,21.56 -13.22,39.66 47.32,44.07 20.27,1.48 134.58,-23.37 35.5,-135.04 -71.25,0.16 -138.58,38.91 -82.82,90.97z"/>
  <path class="fil4" d="M3874.96 8035.76c20.28,-11.13 34.67,-10.94 54.53,-18.07 -11.7,-67.33 -18.79,-86.04 -97.49,-67.07l-4.19 117.05 47.15 -31.91z"/>
  <path class="fil4" d="M8340.67 8024.18l66.64 52.91c-22.12,-67.77 -2.2,-11.07 -16.8,-45.27l-52.44 -83.53c-39.63,28.78 -59.74,86.26 -55.67,125.66l58.27 -49.77z"/>
  <path class="fil4" d="M6476.94 4984.3c-76.3,87.21 42.7,84.75 -69.51,105.26l-24.41 -98.69c-44.13,70.27 -13.07,132.77 88.33,124.67l5.59 -131.24z"/>
  <path class="fil4" d="M8671.15 7943.94l4.14 129.15 72.36 -6.77 -50.6 -30.78c17.96,-34.68 -17.93,-21.68 48.72,-24.48 -3.79,-2.94 -8.8,-6.92 -11.31,-8.91l-36.19 -31.74 -27.12 -26.47z"/>
  <path class="fil4" d="M6210.14 7945.69l10.7 130.73 65.66 -14.34 -51.16 -26.54c18.25,-32.61 -14.35,-18.06 48.51,-24.79l-46.07 -36.79 -27.64 -28.27z"/>
  <path class="fil5" d="M10729.52 7519.51c109.18,61.73 200.52,40.31 317.84,6.02 -24.94,49.48 -82.09,91.06 -166.84,86.87 -98.55,-4.88 -109.92,-44.99 -151,-92.89zm33.05 -248.51c91.78,-77.34 158.2,-56.98 254.2,-9.37 8.51,160.76 -34.03,83.26 -65.39,174.89 91.91,-1.27 85.4,2.02 118.35,-84.84 0.96,-2.53 2.34,-7.85 4.41,-11.33 24.1,121.13 9.27,149.18 -112.33,177.88 -106.86,25.23 -192.76,-13.6 -261.08,-59.32l5.89 -133.03c32.49,78.69 3.46,119.08 121.15,106.19 -25.16,-73.61 -75.69,-18.91 -65.2,-161.07zm450.28 -359.23l-18.27 322.08c-117.87,-44.92 -165.1,-297.75 -64.5,-485.92 32.76,-61.27 78.36,-94.65 93.03,-119.15l1.11 98.28c-3.55,2.36 -208.51,101.1 -54.38,170.33 26.44,11.87 3.72,-9.67 43.01,14.38zm-655.64 -184.73l-6.25 -93.6c67.96,32.53 140.96,168.36 152.74,281.63 14.79,142.21 -44.86,250.3 -97.79,323.79l-39.13 -327.09c3.8,-2.07 10.19,-7.77 12.29,-4.16l58.51 -21.98c104.88,-76.24 -80.27,-158.52 -80.37,-158.59zm1098.4 -123.15c-86.62,203.21 -355.51,141.39 -387.11,38.73 -35.07,-113.9 318.04,-210.67 387.11,-38.73zm-1428.66 -85.83c180.54,-37.63 438.99,108.18 186.67,207.42 -181.44,71.36 -422.87,-158.18 -186.67,-207.42zm958.51 760.77c-5.43,27.79 -8.93,49.46 -20.75,73.69l-44.64 54.06c-49.43,-269.45 -289.05,-255.59 -398.61,-143.11 -55.88,57.37 -39.06,83.46 -69.11,150.94l-61.18 -115.72c54.35,-74.71 104.83,-102.47 132.94,-218.28 23.9,-98.45 15.49,-204.78 -23.17,-299.39 -45.47,-111.29 -123.32,-161.1 -145.46,-206.77 -24.35,-50.19 -27.97,-277.13 -19.58,-339.82 96.76,-98.75 314.58,-113.87 479.39,-91.11 282.71,39.05 233.41,73.63 223.02,326.52 -8.22,200.23 -128.75,134.85 -184.03,386.81 -42.24,192.55 24.73,345.22 131.18,422.18zm-678.57 -857.99c-155.6,-27.04 -308.5,-156.65 -356,-268.36 82.64,22.23 132.75,65.96 229.49,88.18 150.17,34.49 114.14,0.23 126.51,180.18zm781.59 -160.87c165.46,-24.4 227.95,-81.16 339.91,-103.87 -49.07,115.67 -200.37,235.07 -355.71,265.67l15.8 -161.8zm-797.53 205.37c-75.22,53.21 -159.82,-6.06 -270.68,19.1 -228.87,51.94 -105.88,261.4 76.74,283.3 126.36,15.14 152.63,-32.5 224.76,-68.32 24.47,238.39 -15.26,590.22 101.69,728.56 50.44,59.68 29.03,34.77 67.1,102.38 68.99,122.53 281.82,192.78 405.55,-16.28 45.3,-76.55 91.87,-107.12 118.37,-204.71 30.03,-110.64 34.42,-469.13 41.41,-606.91 74.11,27.54 119.04,94.37 257.7,59.59 98.33,-24.67 173.63,-78.9 169.97,-188.95 -115.88,-174.94 -279.25,-28.13 -394.25,-107.76 69.81,-48.18 158.58,-70.94 230.69,-127.53 43.61,-34.24 151.88,-129.48 133.74,-199.88 -3.82,-2.23 -9.38,-4.05 -12.42,-4.72l-24.72 -5.91c-38.3,-1.95 -95.39,35.73 -132.42,51.25 -166.84,69.92 -184.06,51.99 -237.58,10.57l-127.47 -58.97c-403.76,-108.58 -625.85,94.85 -625.89,94.86 -134.77,-6.3 -289.87,-111.41 -367.32,-97.05 -31.92,171.12 313.88,304.22 365.03,337.38z"/>
  <path class="fil5" d="M11269.35 3841.69c-53.85,-137.39 45.98,-371.58 174.13,-374.7 41.28,165.9 -80.27,327.22 -174.13,374.7zm-366.66 444.27c-34.71,-33.99 -47.51,-35.61 -100.02,-10.21 26.62,31.67 -5.56,3.66 36.49,29.87 101.53,63.29 17.94,33.17 85.57,77.45 16.31,-27.08 17.07,-44.55 39.97,-62.64 37.84,-29.91 24.81,7.71 69.14,-47.76 -71.86,-25.71 -86.54,-30.15 -106.34,44.15l-24.81 -30.86zm-316.7 -448.09c-106.09,-36.87 -233.01,-216.02 -183.63,-372.18 136.39,13.08 205.56,223 183.63,372.18zm-303.94 -659.29c298.87,5.3 505.88,242.64 563.19,502.57 289.62,6.31 63.97,-28.89 331.93,-334.37 74.65,-85.1 210.23,-166.52 384.46,-166.07 -53.32,39.84 -88.5,29.86 -177.26,95.86 -194.18,144.39 -214.88,379.9 -235.42,602.58 -46.84,19.1 -40.62,-9.74 -100.17,28.05 -5.46,90.46 31.83,127.55 114.48,118.36 21.01,-98.32 3.61,-238.13 56.81,-296.88 46.55,237.67 -11.63,253.9 -74.99,433.43 -52.44,148.65 -28.06,321.22 -205.97,336.27 -216.39,18.3 -207.31,-234.2 -229.92,-311.42 -22.56,-77.07 -58.5,-124.87 -82.5,-193.92 -30.42,-87.5 0.11,-173.03 -3.44,-261.9 81.43,82.96 3.95,208.56 77.93,293.34 96.95,6.46 162.1,-130.88 -3.62,-140.31 -62.35,-697.46 -311.79,-604.41 -415.51,-705.59zm596.04 467.61c-37.1,-65.61 -55.92,-135.83 -93.34,-197.07 -105.26,-172.17 -349.51,-356.35 -535.49,-292.46 -11.53,96.79 55.16,66.12 135.95,107.28 138.69,70.68 251.69,265.37 257.25,425.62 -69.69,-98.62 -101.94,-265.69 -256.97,-255.23 -42.96,83.17 -22.75,185.41 20.43,269.91 46.8,91.6 83.8,123.98 173.8,179.03 3.27,144.03 37.49,153.74 79.75,260.46 33.55,84.7 36.02,197.95 62.92,260.03 72.61,167.54 335.22,176.51 403.42,-14.55 33.54,-93.91 26.06,-167.83 70.18,-269.49 17.53,-40.42 39.8,-74.84 53.27,-116.25 16.19,-49.74 10.36,-91.37 32.43,-122.28 9.53,-13.32 34.85,-27.82 49.97,-40.8 302.09,-259.72 111.19,-686.11 -124.28,-152.64 -2.21,-123.88 76.54,-260.07 135.05,-329.42 25.59,-30.33 83.9,-77.67 130.52,-99.98 74.22,-35.51 133.13,-9.24 122,-96.92 -127.45,-67.84 -343.59,75.83 -409.08,132.71 -133.97,116.39 -160.18,248.54 -215.39,354.79l-92.39 -2.74z"/>
  <path class="fil5" d="M631.95 422.09c3.12,-223.28 131.96,-268.57 353.61,-246.65 84.67,8.39 161.07,26.75 241.08,50.9 148.24,44.72 94.29,39.11 137.63,151.56 68.35,17.02 92.18,30.08 154.6,-6.84 -34.58,-25.33 -75.66,-3.88 -137.71,-22.9 -36.24,-177.12 213.34,-71.1 199.03,70.89 -7.19,71.31 -121.44,129.41 -216.5,144.48l-81.53 26.34c109.34,54.42 246.45,-61.54 305.92,-95.09 -6.4,271.6 -195.8,195.05 -321.47,264.43 2.9,2.54 7.6,4.96 9.98,5.93 2.42,0.98 7.4,4.26 10.5,5.28 3.21,1.05 7.71,3.21 11.45,4.09 3.94,0.93 8.26,1.96 12.56,2.55 78.36,10.62 202.32,-56.91 253.49,-102.21 -4.01,244.74 -258.39,196.33 -327.16,251.62 68.79,34.16 153.57,-3.8 223.15,-27.03 -38.5,53.41 -86.3,95.44 -157.26,131.07 -98.6,49.52 -117.32,28.26 -139.51,151.81 -18.16,101.11 -15.34,170.1 8.55,267.35 21.55,87.81 59.63,130.75 77.42,199.67l-425.6 -3.75c-67.89,-513.77 -172.62,-309.52 -368.81,-401.73 -10.83,-85.49 56.68,-55.96 -11.05,-111 27.61,-15.98 51.18,-11.37 79.22,-39.1l-75.22 -28.94c42.97,-94.26 11.07,-64.95 -35.04,-136.28 16.84,-33.44 12.45,-25.22 38.69,-56.89 187.93,-226.6 -81.18,-47.87 180.63,-416.3l268.49 54.38c2.05,87.74 -33.01,205.43 30.57,272.79 58.54,62.02 92.65,118.64 165.99,140.13l-70.93 -96.78c-177.02,-188.71 -66.91,-56.71 -95.22,-320.35 -54.57,-42.23 -212.72,-63.92 -299.55,-83.43zm-52.84 430.07l113.02 -13.88c-22.94,-45.46 -126.78,-86.14 -149.18,-90.08 29.49,121.87 88.53,-50.35 36.16,103.96zm-40.75 -133.39c153.76,-10 66.85,-9.17 163.7,28.26 -7.66,-57.81 -23.88,-113.87 -119.91,-70.51 -67.1,30.29 -24.29,7.31 -43.79,42.25zm490.41 335.76l-38.41 -28.03c-10.48,49.88 -14.87,18.84 10.93,58.09 75.7,3.45 93.14,-33.39 121.97,-80.87l36.59 -105.96c-4.54,-75.2 -4.87,-25.75 -20.01,-41.25 -46.82,95.25 -7.76,141.64 -111.07,198.02zm268.43 625.28c-5.18,-91.28 -128.71,-179.59 -110.81,-428.45 11.95,-165.76 44.56,-151.75 99.47,-176.41 188.38,-84.61 300.39,-243.28 327.48,-473.07 56.66,-480.54 -243.19,-360.88 -255.93,-361.54l-303.79 -87.07c-529.05,-82.6 -418.48,225.33 -473.68,323.21 -30.06,53.3 -78.01,93.54 -92.64,168.51 -24.88,127.68 34.16,98.33 -50.35,196.44 -55.41,64.33 -92.72,77.49 -5.48,164.08 -60.25,91.28 -12.12,101.2 -6.46,181.45 2.26,32.21 -22.65,5.66 2.74,65.69 75.97,136.24 296.64,-101.16 350.41,297.12 23.42,173.5 -14.67,131.21 192.31,130.28 108.88,-0.51 217.83,0.01 326.73,-0.24z"/>
 </g>
</svg>
