<?xml version="1.0" encoding="UTF-8"?>
<!DOCTYPE svg PUBLIC "-//W3C//DTD SVG 1.1//EN" "http://www.w3.org/Graphics/SVG/1.1/DTD/svg11.dtd">
<!-- Creator: CorelDRAW 2017 -->
<svg xmlns="http://www.w3.org/2000/svg" xml:space="preserve" width="49.32mm" height="16.27mm" version="1.1" style="shape-rendering:geometricPrecision; text-rendering:geometricPrecision; image-rendering:optimizeQuality; fill-rule:evenodd; clip-rule:evenodd"
viewBox="0 0 4932 1627"
 xmlns:xlink="http://www.w3.org/1999/xlink">
 <defs>
  <style type="text/css">
   <![CDATA[
    .fil1 {fill:#201919}
    .fil2 {fill:white}
    .fil0 {fill:#373435;fill-rule:nonzero}
    .fil3 {fill:#373435;fill-rule:nonzero}
   ]]>
  </style>
 </defs>
 <g id="Capa_x0020_1">
  <metadata id="CorelCorpID_0Corel-Layer"/>
  <g id="_1888332521984">
   <path class="fil0" d="M1473.02 1460.45l0 158.47 -30.79 0 0 -370.93 47.95 0c30.95,0 55.68,7.57 74.19,22.71 22.54,18.16 33.81,45.75 33.81,82.76 0,44.08 -13.46,74.19 -40.38,90.34 -17.83,10.76 -46.09,16.32 -84.78,16.65zm23.72 -175.62l-23.72 0 0 138.78 26.24 0c44.08,0 66.11,-23.38 66.11,-70.15 0,-45.76 -22.87,-68.63 -68.63,-68.63zm144.84 9.59c-5.72,0 -10.43,-2.53 -14.13,-7.57 -3.7,-5.05 -5.55,-11.11 -5.55,-18.17 0,-6.73 1.85,-12.62 5.55,-17.67 3.7,-5.04 8.41,-7.57 14.13,-7.57 5.38,0 10.01,2.53 13.88,7.57 3.87,5.05 5.8,10.94 5.8,17.67 0,7.06 -1.93,13.12 -5.8,18.17 -3.87,5.04 -8.5,7.57 -13.88,7.57zm-13.12 324.5l0 -259.4 28.77 0 0 259.4 -28.77 0zm83.27 0l0 -370.93 28.77 0 0 370.93 -28.77 0zm166.04 8.07c-29.95,0 -54,-13.96 -72.17,-41.88 -17.16,-25.91 -25.74,-57.87 -25.74,-95.89 0,-38.02 8.41,-69.98 25.23,-95.89 17.83,-28.26 41.72,-42.39 71.67,-42.39 29.6,0 53.32,14.13 71.15,42.39 16.83,25.91 25.24,57.7 25.24,95.38 0,38.36 -7.91,70.32 -23.72,95.89 -17.5,28.26 -41.38,42.39 -71.66,42.39zm-1.01 -241.23c-21.2,0 -37.85,10.93 -49.97,32.72 -10.76,19.43 -16.15,43.15 -16.15,70.99 0,27.5 5.39,50.97 16.15,70.49 12.45,22.12 29.11,33.22 49.97,33.22 20.86,0 37.34,-11.44 49.45,-34.23 10.77,-19.77 16.15,-43.83 16.15,-72 0,-27.17 -5.55,-50.39 -16.65,-69.48 -12.11,-21.11 -28.43,-31.71 -48.95,-31.71zm184.7 239.72c-30.95,0 -46.43,-18.67 -46.43,-56.02l0 -277.06 29.28 0 0 66.61 45.42 0 0 33.82 -45.42 0 0 165.02c0,24.23 8.91,36.34 26.74,36.34 2.36,0 5.55,-0.51 9.59,-1.51 2.02,-0.68 6.23,-1.52 12.62,-2.53l0 31.29c-13.46,2.69 -24.06,4.04 -31.8,4.04zm159.48 1.51c-29.95,0 -54,-13.96 -72.17,-41.88 -17.16,-25.91 -25.74,-57.87 -25.74,-95.89 0,-38.02 8.41,-69.98 25.23,-95.89 17.83,-28.26 41.72,-42.39 71.67,-42.39 29.6,0 53.32,14.13 71.15,42.39 16.83,25.91 25.24,57.7 25.24,95.38 0,38.36 -7.91,70.32 -23.72,95.89 -17.5,28.26 -41.38,42.39 -71.66,42.39zm-1.01 -241.23c-21.2,0 -37.85,10.93 -49.97,32.72 -10.76,19.43 -16.15,43.15 -16.15,70.99 0,27.5 5.39,50.97 16.15,70.49 12.45,22.12 29.11,33.22 49.97,33.22 20.86,0 37.34,-11.44 49.45,-34.23 10.77,-19.77 16.15,-43.83 16.15,-72 0,-27.17 -5.55,-50.39 -16.65,-69.48 -12.11,-21.11 -28.43,-31.71 -48.95,-31.71zm368.4 233.16l-8.92 -47.95 -89.66 0 -9 47.95 -28.18 0 65.61 -370.93 33.31 0 68.63 370.93 -31.79 0zm-53.24 -298.6l-38.27 213.81 75.78 0 -37.51 -213.81zm205.65 298.6l-30.79 0 -84.78 -259.4 31.88 0 68.38 207.59 65.78 -207.59 31.79 0 -82.26 259.4zm126.16 -324.5c-5.72,0 -10.43,-2.53 -14.13,-7.57 -3.7,-5.05 -5.55,-11.11 -5.55,-18.17 0,-6.73 1.85,-12.62 5.55,-17.67 3.7,-5.04 8.41,-7.57 14.13,-7.57 5.38,0 10.01,2.53 13.88,7.57 3.87,5.05 5.8,10.94 5.8,17.67 0,7.06 -1.93,13.12 -5.8,18.17 -3.87,5.04 -8.5,7.57 -13.88,7.57zm-13.12 324.5l0 -259.4 28.77 0 0 259.4 -28.77 0zm224.07 0l0 -34.32c-17.16,28.26 -40.37,42.39 -69.64,42.39 -28.26,0 -50.47,-15.81 -66.62,-47.44 -13.79,-26.91 -20.69,-58.54 -20.69,-94.87 0,-36.34 7.74,-66.96 23.22,-91.85 17.15,-27.59 39.86,-41.39 68.13,-41.39 26.91,0 48.78,13.8 65.6,41.39l0 -41.39 28.77 0 0 267.48 -28.77 0zm-62.07 -235.68c-19.18,0 -34.99,10.26 -47.44,30.78 -11.44,18.84 -17.16,41.05 -17.16,66.62 0,28.26 4.37,52.65 13.12,73.18 10.43,25.57 25.57,38.35 45.42,38.35 45.42,0 68.13,-35.83 68.13,-107.49 0,-26.58 -5.04,-49.46 -15.14,-68.64 -11.44,-21.87 -27.08,-32.8 -46.93,-32.8zm283.62 235.68l0 -34.32c-17.16,28.26 -40.37,42.39 -69.64,42.39 -28.26,0 -50.47,-15.81 -66.62,-47.44 -13.79,-26.91 -20.69,-58.54 -20.69,-94.87 0,-36.34 7.74,-66.96 23.22,-91.85 17.15,-27.59 39.86,-41.39 68.13,-41.39 26.91,0 48.78,13.8 65.6,41.39l0 -144.84 28.77 0 0 370.93 -28.77 0zm-62.07 -235.68c-19.18,0 -34.99,10.26 -47.44,30.78 -11.44,18.84 -17.16,41.05 -17.16,66.62 0,28.26 4.37,52.65 13.12,73.18 10.43,25.57 25.57,38.35 45.42,38.35 45.42,0 68.13,-35.83 68.13,-107.49 0,-26.58 -5.04,-49.46 -15.14,-68.64 -11.44,-21.87 -27.08,-32.8 -46.93,-32.8zm227.1 243.75c-29.95,0 -54,-13.96 -72.17,-41.88 -17.16,-25.91 -25.74,-57.87 -25.74,-95.89 0,-38.02 8.41,-69.98 25.23,-95.89 17.83,-28.26 41.72,-42.39 71.67,-42.39 29.6,0 53.32,14.13 71.15,42.39 16.83,25.91 25.24,57.7 25.24,95.38 0,38.36 -7.91,70.32 -23.72,95.89 -17.5,28.26 -41.38,42.39 -71.66,42.39zm-1.01 -241.23c-21.2,0 -37.85,10.93 -49.97,32.72 -10.76,19.43 -16.15,43.15 -16.15,70.99 0,27.5 5.39,50.97 16.15,70.49 12.45,22.12 29.11,33.22 49.97,33.22 20.86,0 37.34,-11.44 49.45,-34.23 10.77,-19.77 16.15,-43.83 16.15,-72 0,-27.17 -5.55,-50.39 -16.65,-69.48 -12.11,-21.11 -28.43,-31.71 -48.95,-31.71zm224.57 -2.52c-19.85,0 -35.49,10.93 -46.93,32.8 -9.76,19.18 -14.64,42.06 -14.64,68.64l0 134.24 -29.27 0 0 -267.48 29.27 0 0 41.39c16.83,-28.27 40.21,-42.06 70.15,-41.39l0 31.8c-3.7,0 -6.56,0 -8.58,0z"/>
   <path class="fil1" d="M1355.93 1099.32l2193.42 0.99c24.28,-28.11 52.53,-68.14 64,-93.83 179.03,-17.52 394.39,10.85 571.76,-9.79 111.56,-12.98 108.27,-64.15 154.38,-135.02 49.11,-75.47 34.46,14.06 131.42,-164.23 48.84,-89.78 87.77,-86.2 129.42,-157.47 29.42,-50.34 73.69,-159.18 106.07,-189.26 66.05,-61.35 28.28,17.86 126.47,-160.96 21.08,-38.4 93.74,-160.13 99.05,-188.07l-1595.91 -0.96 -195.75 342.17 -1350.31 1.78c-25.92,-56.34 -63.36,-117.93 -94.69,-174.43 -29.84,-53.81 -67.55,-122.76 -98.74,-170.24l-1596.43 0.72c10.63,38.02 79.06,151.04 103.09,193.57 18.37,32.51 36.14,71.53 55.07,101.15 27.8,43.52 50.02,27.25 82.77,72.77 40.34,56.08 63.43,135.2 106.98,196.91 23.6,33.44 55.39,45.32 79.98,76.07 70.82,88.57 28.85,106.11 124.57,179.25 33.71,25.76 45.02,51.44 66.21,89.31 50.14,89.62 93.86,89.39 222.74,89.91l449.98 6.76c24.54,8.18 57.01,71.84 64.45,92.9z"/>
   <path class="fil2" d="M1022.02 312.19c34.2,40.5 75.23,127.39 101.78,174.9l280.49 499.05c0.25,0.45 12.18,20.03 12.37,20.26 11.58,14.06 5.92,11.39 23.85,18.99l2067.05 0.04 402.84 -712.76c179.57,-10.38 391.46,-0.93 574.39,-0.42 97.18,0.27 187.44,8.56 236.4,-53.43 20.41,-25.84 94.64,-161.92 102.37,-195.85l-1432.67 0.87 -192.31 351.98 -1462.67 -0.2 -195.6 -351.22 -1431.02 -0.54c7.2,27.97 79.7,166.14 98.09,190.92 48.43,65.26 132,57.06 232.05,57.12 193.88,0.13 388.94,-2.22 582.59,0.29z"/>
   <path class="fil2" d="M3806.57 581.98l579.75 1.05c74.75,0 127.28,-26.44 158.91,-73 24.83,-36.54 69.46,-121.96 82.77,-161.54l-703.58 0.71 -117.85 232.78z"/>
   <path class="fil2" d="M1124.05 583.35l-118.74 -232.31 -702.25 -2.09c83.41,153.86 70.07,234.99 292.27,234.1 172.64,-0.69 357.44,-5.82 528.72,0.3z"/>
   <path class="fil2" d="M3721.5 791.6c147.85,-0.94 295.28,0.11 443.27,0.04 213.41,-0.1 196.29,-6.1 276.07,-168.6l-629.24 -2.39c-21.17,50.33 -76.01,125.31 -90.1,170.95z"/>
   <path class="fil2" d="M1210.63 791.38l-89.53 -167.5 -629.55 -4.16c60.67,161.56 82.03,171.76 276.1,171.93 147.67,0.12 295.41,-0.26 442.98,-0.27z"/>
   <path class="fil2" d="M3667.68 955.22c123.51,-3.19 250.03,-0.79 374.01,-0.96 139.83,-0.2 210.74,1.43 242.73,-126.45l-544.36 1.44c-19.07,28.31 -62.57,90.36 -72.38,125.97z"/>
   <path class="fil2" d="M1265.13 954.31c-4.5,-24.48 -55.4,-97.33 -72.07,-124.89l-544.32 0.11c46.02,133.42 86.71,124.35 242,124.39 124.73,0.04 249.68,-0.46 374.39,0.39z"/>
   <path class="fil3" d="M2421.87 939.28l21.12 0 -19.71 -131.31 -27.35 0 -32.57 107.78 -32.78 -107.78 -27.35 0 -19.71 131.31 21.12 0 14.88 -107.78 31.37 107.78 24.73 0 31.37 -107.78 14.88 107.78zm56.71 -108.39c7.04,0 11.26,-3.62 11.26,-9.65 0,-6.03 -4.22,-9.65 -11.26,-9.65 -7.04,0 -11.26,3.62 -11.26,9.65 0,6.03 4.22,9.65 11.26,9.65zm-9.85 108.39l19.7 0 0 -95.72 -19.7 0 0 95.72zm147.4 -92.5l-2.42 -12.87 -21.71 8.65 0 4.82c-7.24,-4.22 -17.3,-6.43 -30.57,-6.43 -32.98,0 -46.05,13.67 -46.05,33.98 0,10.06 3.22,18.5 10.05,24.53 -4.82,3.22 -10.65,9.05 -10.65,17.1 0,5.63 3.21,9.45 8.24,11.86 -8.65,6.44 -14.48,15.49 -14.48,27.55 0,18.9 15.08,30.97 51.28,30.97 41.43,0 56.31,-16.69 56.31,-35.19 0,-45.65 -87.28,-21.32 -87.28,-40.22 0,-2.41 1.41,-5.03 4.43,-7.24 6.83,3.22 16.29,5.03 28.15,5.03 32.38,0 45.65,-13.88 45.65,-34.39 0,-10.05 -3.22,-18.5 -10.46,-24.33l19.51 -3.82zm-54.7 8.44c18.5,0 27.55,6.44 27.55,20.11 0,13.88 -9.05,20.51 -27.55,20.51 -18.7,0 -27.75,-6.63 -27.75,-20.51 0,-13.67 9.05,-20.11 27.75,-20.11zm0.2 118.04c-25.34,0 -35.99,-7.64 -35.99,-20.51 0,-7.44 3.62,-15.08 10.05,-20.51 23.93,3.82 59.92,0.2 59.92,21.32 0,11.46 -9.65,19.7 -33.98,19.7zm158.66 -129.7l-19.7 0 0 68.77c-7.44,8.85 -16.29,14.08 -27.55,14.08 -13.28,0 -19.91,-7.64 -19.91,-23.53l0 -59.32 -19.51 0 0 62.54c0,23.13 11.47,35.79 31.37,35.79 15.49,0 27.75,-7.44 36,-19.1l2.41 16.49 16.89 0 0 -95.72zm105.37 73.6c-10.66,5.83 -21.51,8.24 -32.17,8.24 -22.52,0 -30.57,-11.06 -31.37,-29.76l70.38 0c0.2,-1.81 0.4,-5.02 0.4,-7.84 0,-32.37 -16.29,-46.85 -42.23,-46.85 -29.56,0 -49.06,19.1 -49.06,53.69 0,29.36 15.68,47.25 45.64,47.25 13.88,0 29.56,-3.82 41.23,-10.85l-2.82 -13.88zm-63.14 -32.58c2.61,-22.52 16.49,-28.75 28.96,-28.75 15.48,0 23.32,9.85 23.32,28.75l-52.28 0zm93.71 54.7l19.71 0 0 -140.76 -19.71 0 0 140.76zm153.02 -143.98l19.71 -25.34 -18.3 -3.62 -12.07 28.96 10.66 0zm26.35 114.02l10.85 29.96 21.32 0 -49.07 -131.31 -28.15 0 -48.86 131.31 21.31 0 10.66 -29.96 61.94 0zm-6.04 -17.1l-49.67 0 24.74 -68.77 24.93 68.77zm72.6 -48.66l-16.89 0 0 95.72 19.71 0 0 -68.57c7.64,-9.05 16.69,-14.28 26.74,-14.28 12.87,0 20.51,7.64 20.51,23.53l0 59.32 19.71 0 0 -62.54c0,-23.12 -12.47,-35.79 -31.77,-35.79 -14.08,0 -27.15,7.24 -35.8,19.5l-2.21 -16.89zm195.06 3.22l-2.42 -12.87 -21.71 8.65 0 4.82c-7.24,-4.22 -17.3,-6.43 -30.57,-6.43 -32.98,0 -46.05,13.67 -46.05,33.98 0,10.06 3.22,18.5 10.05,24.53 -4.82,3.22 -10.65,9.05 -10.65,17.1 0,5.63 3.21,9.45 8.24,11.86 -8.65,6.44 -14.48,15.49 -14.48,27.55 0,18.9 15.08,30.97 51.28,30.97 41.43,0 56.31,-16.69 56.31,-35.19 0,-45.65 -87.28,-21.32 -87.28,-40.22 0,-2.41 1.41,-5.03 4.43,-7.24 6.83,3.22 16.29,5.03 28.15,5.03 32.38,0 45.65,-13.88 45.65,-34.39 0,-10.05 -3.22,-18.5 -10.46,-24.33l19.51 -3.82zm-54.7 8.44c18.5,0 27.55,6.44 27.55,20.11 0,13.88 -9.05,20.51 -27.55,20.51 -18.7,0 -27.75,-6.63 -27.75,-20.51 0,-13.67 9.05,-20.11 27.75,-20.11zm0.2 118.04c-25.34,0 -35.99,-7.64 -35.99,-20.51 0,-7.44 3.62,-15.08 10.05,-20.51 23.93,3.82 59.92,0.2 59.92,21.32 0,11.46 -9.65,19.7 -33.98,19.7zm149.41 -56.1c-10.66,5.83 -21.51,8.24 -32.17,8.24 -22.52,0 -30.57,-11.06 -31.37,-29.76l70.38 0c0.2,-1.81 0.4,-5.02 0.4,-7.84 0,-32.37 -16.29,-46.85 -42.23,-46.85 -29.56,0 -49.06,19.1 -49.06,53.69 0,29.36 15.68,47.25 45.64,47.25 13.88,0 29.56,-3.82 41.23,-10.85l-2.82 -13.88zm-63.14 -32.58c2.61,-22.52 16.49,-28.75 28.96,-28.75 15.48,0 23.32,9.85 23.32,28.75l-52.28 0zm93.71 54.7l19.71 0 0 -140.76 -19.71 0 0 140.76z"/>
   <path class="fil3" d="M1434.42 685.6l42.51 0 0 -73.83 -42.51 73.83zm42.51 46.09l-68.91 0 -22.82 39.83 -61.31 0 148.12 -250.15c15.81,-7.16 27,-18.34 33.56,-33.56 -15.21,14.02 -33.26,21.03 -54.14,21.03 -4.18,0 -8.36,-0.44 -12.53,-1.34l11.63 -42.96c4.78,0.9 9.4,1.34 13.87,1.34 23.27,0 42.52,-9.69 57.73,-29.08l24.17 -40.72 0 375.44 -69.37 0 0 -39.83zm253.73 -168.7l-13.87 58.17c-7.76,-4.47 -15.07,-6.71 -21.93,-6.71 -15.81,0 -28.19,10.89 -37.14,32.67l-33.56 124.4 -61.76 0 56.83 -211.22 61.76 0 -3.58 13.43c14.62,-9.25 27.89,-13.87 39.82,-13.87 5.37,0 9.85,1.04 13.43,3.13zm17.45 208.08c-24.17,-10.44 -36.25,-34.45 -36.25,-72.04 0,-20.89 4.48,-41.77 13.43,-62.65 9.84,-23.27 23.27,-42.29 40.27,-57.06 17.01,-14.76 34.01,-22.15 51.02,-22.15 16.7,0 29.98,6.86 39.82,20.59l4.92 -18.35 60.42 0 -38.94 150.36c-0.59,2.08 -0.89,4.02 -0.89,5.81 0,5.97 3.43,8.95 10.29,8.95 3.88,0 8.2,-0.89 12.98,-2.68l-11.19 39.38c-15.51,10.44 -29.83,15.66 -42.96,15.66 -14.91,0 -27.44,-6.71 -37.59,-20.14 -15.51,11.94 -30.87,17.9 -46.09,17.9 -6.86,0 -13.27,-1.19 -19.24,-3.58zm74.73 -166.02c-7.16,0 -14.84,4.48 -23.05,13.43 -8.2,8.95 -14.99,20.73 -20.36,35.35 -5.07,13.42 -7.6,26.4 -7.6,38.93 0,19.99 5.22,29.98 15.66,29.98 6.86,0 14.47,-4.77 22.82,-14.32 8.35,-9.54 15.21,-21.77 20.58,-36.69 5.37,-13.42 8.06,-26.1 8.06,-38.04 0,-19.09 -5.37,-28.64 -16.11,-28.64zm400.95 198.69c8.06,0.3 14.47,-2.39 19.24,-8.06l13.43 39.83c-14.02,14.92 -34.16,22.97 -60.41,24.17 -17.31,0 -31.48,-6.12 -42.52,-18.35 -9.54,-10.14 -14.46,-20.88 -14.76,-32.22 0,2.39 1.34,-10.14 4.03,-37.59l37.14 -143.2c0.59,-1.49 0.89,-2.98 0.89,-4.47 0,-5.07 -2.38,-8.95 -7.16,-11.64 -2.09,-1.79 -4.47,-2.68 -7.16,-2.68 -5.37,0 -11.19,2.53 -17.45,7.61 -9.25,7.45 -14.02,11.33 -14.32,11.63 -4.47,4.18 -8.05,9.1 -10.74,14.77l-33.56 127.98 -62.2 0 37.59 -140.96c0.3,-1.49 0.44,-2.98 0.44,-4.47 0,-5.08 -2.38,-8.95 -7.16,-11.64 -1.79,-1.79 -4.17,-2.68 -7.16,-2.68 -5.07,0 -10.88,2.53 -17.45,7.6 -10.74,8.65 -17.15,14.32 -19.24,17.01 -5.37,6.86 -9.25,17 -11.63,30.43l-0.45 0 -27.75 104.71 -61.75 0 55.49 -211.22 61.75 0 -4.47 16.56c17.6,-10.74 34.6,-16.11 51.01,-16.11 5.97,0 10.89,0.75 14.77,2.24 13.72,5.97 23.57,14.62 29.53,25.95 23.57,-20.28 46.99,-30.43 70.26,-30.43 5.67,0 10.59,0.75 14.77,2.24 24.46,10.74 36.69,28.94 36.69,54.6 0,4.77 -0.45,9.09 -1.34,12.97l-37.59 143.2c-0.3,12.83 1.64,21.63 5.82,26.4 2.68,3.28 7.16,5.22 13.42,5.82zm74.29 -55.04l-6.27 23.27 -61.75 0 83.23 -317.27 62.2 0 -32.66 123.5c15.81,-12.23 31.32,-18.34 46.53,-18.34 6.87,0 13.13,1.19 18.8,3.58 23.86,10.14 35.8,33.26 35.8,69.36 0,20.28 -4.48,40.72 -13.43,61.3 -9.84,23.27 -23.19,42.14 -40.05,56.61 -16.85,14.47 -33.63,21.7 -50.34,21.7 -17.9,0 -31.92,-7.9 -42.06,-23.71zm70.7 -146.33c-7.16,0 -14.92,4.62 -23.27,13.87 -8.35,9.25 -15.21,20.96 -20.58,35.13 -5.37,14.17 -8.06,27.22 -8.06,39.15 0,19.99 5.82,29.99 17.45,29.99 7.16,0 14.92,-4.63 23.27,-13.88 8.36,-9.24 15.37,-21.18 21.03,-35.8 5.08,-13.72 7.61,-26.55 7.61,-38.48 0,-19.99 -5.82,-29.98 -17.45,-29.98zm141.41 119.93c1.79,1.49 4.32,2.23 7.61,2.23 5.37,0 11.78,-1.79 19.24,-5.37 8.95,-4.47 16.26,-13.42 21.92,-26.85l34.46 -132.01 61.76 0 -55.05 213.01 -62.2 0 3.58 -12.98c-17.9,9.55 -36.09,14.32 -54.59,14.32 -3.88,0 -7.16,-0.15 -9.85,-0.45 -24.46,-6.26 -36.69,-24.16 -36.69,-53.69 0,-5.08 0.45,-9.85 1.34,-14.32l38.49 -145.89 61.75 0 -38.48 145.89c-0.3,1.49 -0.45,2.98 -0.45,4.47 0,5.07 2.39,8.95 7.16,11.64zm294.9 -159.31l-13.87 58.17c-7.76,-4.47 -15.07,-6.71 -21.93,-6.71 -15.81,0 -28.19,10.89 -37.14,32.67l-33.56 124.4 -61.76 0 56.83 -211.22 61.76 0 -3.58 13.43c14.62,-9.25 27.89,-13.87 39.82,-13.87 5.37,0 9.85,1.04 13.43,3.13zm24.61 206.29c-28.04,-13.72 -42.07,-39.97 -42.07,-78.76 0,-20.88 4.93,-41.31 14.77,-61.3 10.44,-21.78 24.61,-39.16 42.51,-52.13 17.9,-12.98 36.1,-19.47 54.6,-19.47 10.74,0 20.73,2.39 29.98,7.16 28.04,13.42 42.06,39.53 42.06,78.31 0,20.88 -4.92,41.32 -14.76,61.31 -10.45,21.77 -24.62,39.15 -42.52,52.13 -17.89,12.98 -36.09,19.46 -54.59,19.46 -10.74,0 -20.73,-2.23 -29.98,-6.71zm70.25 -163.33c-6.86,0 -14.46,4.25 -22.82,12.75 -8.35,8.5 -15.51,19.92 -21.48,34.24 -6.26,15.21 -9.39,29.68 -9.39,43.4 0,19.69 5.66,29.54 17,29.54 6.86,0 14.47,-4.18 22.82,-12.53 8.36,-8.36 15.59,-19.92 21.71,-34.68 6.11,-14.77 9.17,-29.02 9.17,-42.74 0,-19.99 -5.67,-29.98 -17.01,-29.98z"/>
  </g>
 </g>
</svg>
