<?xml version="1.0" encoding="UTF-8"?>
<!DOCTYPE svg PUBLIC "-//W3C//DTD SVG 1.1//EN" "http://www.w3.org/Graphics/SVG/1.1/DTD/svg11.dtd">
<!-- Creator: CorelDRAW 2017 -->
<svg xmlns="http://www.w3.org/2000/svg" xml:space="preserve" width="90.54mm" height="50.06mm" version="1.1" style="shape-rendering:geometricPrecision; text-rendering:geometricPrecision; image-rendering:optimizeQuality; fill-rule:evenodd; clip-rule:evenodd"
viewBox="0 0 9054 5006"
 xmlns:xlink="http://www.w3.org/1999/xlink">
 <defs>
  <style type="text/css">
   <![CDATA[
    .str0 {stroke:#E6E7E8;stroke-width:20;stroke-miterlimit:22.9256}
    .fil0 {fill:#E6E7E8}
    .fil2 {fill:#272D61}
    .fil3 {fill:#B3B3B3}
    .fil4 {fill:#FEFEFE;fill-rule:nonzero}
    .fil1 {fill:#373435;fill-rule:nonzero}
   ]]>
  </style>
   <clipPath id="id0">
    <path d="M1038.31 2.06l-1038.16 -2.06 0 5000 3024.14 5.99 -1985.98 -5003.93z"/>
   </clipPath>
 </defs>
 <g id="Capa_x0020_1">
  <metadata id="CorelCorpID_0Corel-Layer"/>
  <rect class="fil0 str0" x="5783.48" y="4137.34" width="161.59" height="161.59"/>
  <polygon class="fil0 str0" points="5783.48,3879.5 5945.08,3879.5 5929.12,3592.46 5803.43,3596.45 "/>
  <polygon class="fil0 str0" points="5823.52,3310.12 5917.31,3310.12 5909.34,3019.09 5843.47,3019.09 "/>
  <polygon class="fil0 str0" points="5839.48,2734.7 5909.34,2734.7 5889.39,2583.27 5859.42,2583.27 "/>
  <polygon class="fil0 str0" points="5173.46,2992.84 5097.58,2992.84 4667.01,3402.2 4765.65,3400.33 "/>
  <polygon class="fil0 str0" points="5575.97,2580.95 5541.14,2580.95 5343.48,2768.87 5388.76,2768.01 "/>
  <polygon class="fil0 str0" points="5301.09,2992.84 5225.21,2992.84 4838.52,3402.2 4937.16,3400.33 "/>
  <polygon class="fil0 str0" points="5634.56,2580.95 5599.73,2580.95 5422.21,2768.87 5467.5,2768.01 "/>
  <polygon class="fil0 str0" points="2702.69,4199.12 2702.69,4298 5430.6,2550.16 5382.35,2552.25 "/>
  <polygon class="fil0 str0" points="6577.01,2999.81 6652.89,2999.81 7083.46,3409.18 6984.82,3407.3 "/>
  <polygon class="fil0 str0" points="6174.5,2587.92 6209.33,2587.92 6406.99,2775.84 6361.71,2774.98 "/>
  <polygon class="fil0 str0" points="6449.38,2999.81 6525.26,2999.81 6911.95,3409.18 6813.31,3407.3 "/>
  <polygon class="fil0 str0" points="6115.91,2587.92 6150.74,2587.92 6328.26,2775.84 6282.97,2774.98 "/>
  <polygon class="fil0 str0" points="9047.78,4206.09 9047.78,4304.97 6319.87,2557.13 6368.12,2559.22 "/>
  <path class="fil1" d="M6602.98 3139.04l0 158.47 -30.79 0 0 -370.93 47.95 0c30.95,0 55.68,7.57 74.19,22.71 22.54,18.16 33.81,45.75 33.81,82.76 0,44.08 -13.46,74.19 -40.38,90.34 -17.83,10.76 -46.09,16.32 -84.78,16.65zm23.72 -175.62l-23.72 0 0 138.78 26.24 0c44.08,0 66.11,-23.38 66.11,-70.15 0,-45.76 -22.87,-68.63 -68.63,-68.63zm144.84 9.59c-5.72,0 -10.43,-2.53 -14.13,-7.57 -3.7,-5.05 -5.55,-11.11 -5.55,-18.17 0,-6.73 1.85,-12.62 5.55,-17.67 3.7,-5.04 8.41,-7.57 14.13,-7.57 5.38,0 10.01,2.53 13.88,7.57 3.87,5.05 5.8,10.94 5.8,17.67 0,7.06 -1.93,13.12 -5.8,18.17 -3.87,5.04 -8.5,7.57 -13.88,7.57zm-13.12 324.5l0 -259.4 28.77 0 0 259.4 -28.77 0zm83.27 0l0 -370.93 28.77 0 0 370.93 -28.77 0zm166.04 8.07c-29.95,0 -54,-13.96 -72.17,-41.88 -17.16,-25.91 -25.74,-57.87 -25.74,-95.89 0,-38.02 8.41,-69.98 25.23,-95.89 17.83,-28.26 41.72,-42.39 71.67,-42.39 29.6,0 53.32,14.13 71.15,42.39 16.83,25.91 25.24,57.7 25.24,95.38 0,38.36 -7.91,70.32 -23.72,95.89 -17.5,28.26 -41.38,42.39 -71.66,42.39zm-1.01 -241.23c-21.2,0 -37.85,10.93 -49.97,32.72 -10.76,19.43 -16.15,43.15 -16.15,70.99 0,27.5 5.39,50.97 16.15,70.49 12.45,22.12 29.11,33.22 49.97,33.22 20.86,0 37.34,-11.44 49.45,-34.23 10.77,-19.77 16.15,-43.83 16.15,-72 0,-27.17 -5.55,-50.39 -16.65,-69.48 -12.11,-21.11 -28.43,-31.71 -48.95,-31.71zm184.7 239.72c-30.95,0 -46.43,-18.67 -46.43,-56.02l0 -277.06 29.28 0 0 66.61 45.42 0 0 33.82 -45.42 0 0 165.02c0,24.23 8.91,36.34 26.74,36.34 2.36,0 5.55,-0.51 9.59,-1.51 2.02,-0.68 6.23,-1.52 12.62,-2.53l0 31.29c-13.46,2.69 -24.06,4.04 -31.8,4.04zm159.48 1.51c-29.95,0 -54,-13.96 -72.17,-41.88 -17.16,-25.91 -25.74,-57.87 -25.74,-95.89 0,-38.02 8.41,-69.98 25.23,-95.89 17.83,-28.26 41.72,-42.39 71.67,-42.39 29.6,0 53.32,14.13 71.15,42.39 16.83,25.91 25.24,57.7 25.24,95.38 0,38.36 -7.91,70.32 -23.72,95.89 -17.5,28.26 -41.38,42.39 -71.66,42.39zm-1.01 -241.23c-21.2,0 -37.85,10.93 -49.97,32.72 -10.76,19.43 -16.15,43.15 -16.15,70.99 0,27.5 5.39,50.97 16.15,70.49 12.45,22.12 29.11,33.22 49.97,33.22 20.86,0 37.34,-11.44 49.45,-34.23 10.77,-19.77 16.15,-43.83 16.15,-72 0,-27.17 -5.55,-50.39 -16.65,-69.48 -12.11,-21.11 -28.43,-31.71 -48.95,-31.71zm368.4 233.16l-8.92 -47.95 -89.66 0 -9 47.95 -28.18 0 65.61 -370.93 33.31 0 68.63 370.93 -31.79 0zm-53.24 -298.6l-38.27 213.81 75.78 0 -37.51 -213.81zm205.65 298.6l-30.79 0 -84.78 -259.4 31.88 0 68.38 207.59 65.78 -207.59 31.79 0 -82.26 259.4zm126.16 -324.5c-5.72,0 -10.43,-2.53 -14.13,-7.57 -3.7,-5.05 -5.55,-11.11 -5.55,-18.17 0,-6.73 1.85,-12.62 5.55,-17.67 3.7,-5.04 8.41,-7.57 14.13,-7.57 5.38,0 10.01,2.53 13.88,7.57 3.87,5.05 5.8,10.94 5.8,17.67 0,7.06 -1.93,13.12 -5.8,18.17 -3.87,5.04 -8.5,7.57 -13.88,7.57zm-13.12 324.5l0 -259.4 28.77 0 0 259.4 -28.77 0zm224.07 0l0 -34.32c-17.16,28.26 -40.37,42.39 -69.64,42.39 -28.26,0 -50.47,-15.81 -66.62,-47.44 -13.79,-26.91 -20.69,-58.54 -20.69,-94.87 0,-36.34 7.74,-66.96 23.22,-91.85 17.15,-27.59 39.86,-41.39 68.13,-41.39 26.91,0 48.78,13.8 65.6,41.39l0 -41.39 28.77 0 0 267.48 -28.77 0zm-62.07 -235.68c-19.18,0 -34.99,10.26 -47.44,30.78 -11.44,18.84 -17.16,41.05 -17.16,66.62 0,28.26 4.37,52.65 13.12,73.18 10.43,25.57 25.57,38.35 45.42,38.35 45.42,0 68.13,-35.83 68.13,-107.49 0,-26.58 -5.04,-49.46 -15.14,-68.64 -11.44,-21.87 -27.08,-32.8 -46.93,-32.8zm283.62 235.68l0 -34.32c-17.16,28.26 -40.37,42.39 -69.64,42.39 -28.26,0 -50.47,-15.81 -66.62,-47.44 -13.79,-26.91 -20.69,-58.54 -20.69,-94.87 0,-36.34 7.74,-66.96 23.22,-91.85 17.15,-27.59 39.86,-41.39 68.13,-41.39 26.91,0 48.78,13.8 65.6,41.39l0 -144.84 28.77 0 0 370.93 -28.77 0zm-62.07 -235.68c-19.18,0 -34.99,10.26 -47.44,30.78 -11.44,18.84 -17.16,41.05 -17.16,66.62 0,28.26 4.37,52.65 13.12,73.18 10.43,25.57 25.57,38.35 45.42,38.35 45.42,0 68.13,-35.83 68.13,-107.49 0,-26.58 -5.04,-49.46 -15.14,-68.64 -11.44,-21.87 -27.08,-32.8 -46.93,-32.8zm227.1 243.75c-29.95,0 -54,-13.96 -72.17,-41.88 -17.16,-25.91 -25.74,-57.87 -25.74,-95.89 0,-38.02 8.41,-69.98 25.23,-95.89 17.83,-28.26 41.72,-42.39 71.67,-42.39 29.6,0 53.32,14.13 71.15,42.39 16.83,25.91 25.24,57.7 25.24,95.38 0,38.36 -7.91,70.32 -23.72,95.89 -17.5,28.26 -41.38,42.39 -71.66,42.39zm-1.01 -241.23c-21.2,0 -37.85,10.93 -49.97,32.72 -10.76,19.43 -16.15,43.15 -16.15,70.99 0,27.5 5.39,50.97 16.15,70.49 12.45,22.12 29.11,33.22 49.97,33.22 20.86,0 37.34,-11.44 49.45,-34.23 10.77,-19.77 16.15,-43.83 16.15,-72 0,-27.17 -5.55,-50.39 -16.65,-69.48 -12.11,-21.11 -28.43,-31.71 -48.95,-31.71zm224.57 -2.52c-19.85,0 -35.49,10.93 -46.93,32.8 -9.76,19.18 -14.64,42.06 -14.64,68.64l0 134.24 -29.27 0 0 -267.48 29.27 0 0 41.39c16.83,-28.27 40.21,-42.06 70.15,-41.39l0 31.8c-3.7,0 -6.56,0 -8.58,0z"/>
  <g style="clip-path:url(#id0)">
   <image transform="matrix(-0.510237 -0 -0 0.472442 6048.43 11.9801)" x="0" y="0" width="17638.88" height="10583.32" xlink:href="miguel-aramburo-aviador-contacto_Images\miguel-aramburo-aviador-contacto_ImgID1.png"/>
  </g>
  <polygon class="fil2" points="1241.64,1713.97 9053.85,1713.97 9053.85,2778.81 1671.64,2778.81 "/>
  <g id="_1888327129152">
   <path class="fil1" d="M6592.48 458.1l97.47 0 -10.38 19.93 -68.38 0 0.15 49.63c3.48,-0.92 6.9,-1.58 10.27,-2.04 3.33,-0.46 6.6,-0.66 9.77,-0.66 18.29,0 33.22,5.98 44.87,17.88 11.6,11.91 17.43,27.2 17.43,45.9 0,19.22 -6.34,35.42 -19.01,48.46 -12.68,13.08 -28.32,19.62 -46.87,19.62 -9,0 -17.69,-1.79 -26.17,-5.36 -8.49,-3.58 -15.95,-8.64 -22.34,-15.18l10.48 -16.15c5.21,5.46 11.14,9.71 17.84,12.62 6.64,2.96 13.6,4.45 20.75,4.45 12.57,0 23.1,-4.4 31.54,-13.19 8.43,-8.79 12.62,-19.83 12.62,-33.12 0,-14.11 -4.34,-25.51 -13.03,-34.19 -8.64,-8.69 -20.09,-13.04 -34.25,-13.04 -5.26,0 -10.58,0.82 -15.84,2.4 -5.32,1.59 -10.94,4.04 -16.92,7.36l0 -95.32zm170.56 0l97.47 0 -10.38 19.93 -68.38 0 0.15 49.63c3.48,-0.92 6.9,-1.58 10.27,-2.04 3.33,-0.46 6.6,-0.66 9.77,-0.66 18.29,0 33.22,5.98 44.87,17.88 11.6,11.91 17.43,27.2 17.43,45.9 0,19.22 -6.34,35.42 -19.01,48.46 -12.68,13.08 -28.32,19.62 -46.87,19.62 -9,0 -17.69,-1.79 -26.17,-5.36 -8.49,-3.58 -15.95,-8.64 -22.34,-15.18l10.48 -16.15c5.21,5.46 11.14,9.71 17.84,12.62 6.64,2.96 13.6,4.45 20.75,4.45 12.57,0 23.1,-4.4 31.54,-13.19 8.43,-8.79 12.62,-19.83 12.62,-33.12 0,-14.11 -4.34,-25.51 -13.03,-34.19 -8.64,-8.69 -20.09,-13.04 -34.25,-13.04 -5.26,0 -10.58,0.82 -15.84,2.4 -5.32,1.59 -10.94,4.04 -16.92,7.36l0 -95.32zm239.81 20.24l0 -20.24 116.23 0 -66.65 196.27 -22.9 1.53 62.62 -177.56 -89.3 0zm251.17 74.78c10.47,3.47 18.6,9.3 24.43,17.48 5.82,8.18 8.74,17.94 8.74,29.18 0,16.31 -5.73,29.9 -17.12,40.89 -11.45,10.99 -25.82,16.46 -43.04,16.46 -11.09,0 -21.26,-2.61 -30.51,-7.77 -9.2,-5.16 -17.02,-12.57 -23.41,-22.23l14.97 -14.98c4.4,8.18 9.97,14.36 16.67,18.5 6.69,4.14 14.41,6.24 23.2,6.24 11.19,0 20.29,-3.48 27.29,-10.43 7.01,-6.95 10.48,-15.89 10.48,-26.88 0,-10.99 -3.68,-19.73 -11.04,-26.22 -7.31,-6.49 -17.22,-9.76 -29.75,-9.76l-15.69 0 0 -20.24 15.13 0c12.78,0 22.8,-3.02 30.11,-9.05 7.31,-6.03 10.93,-14.31 10.93,-24.79 0,-9.46 -3.37,-17.48 -10.17,-24.07 -6.79,-6.6 -15.23,-9.87 -25.35,-9.87 -7.46,0 -14.46,1.74 -20.9,5.21 -6.44,3.53 -12.27,8.69 -17.43,15.59l-14.88 -12.57c7.21,-9.1 15.39,-16.1 24.54,-21.06 9.15,-4.96 18.55,-7.41 28.26,-7.41 16.67,0 30.31,5.01 40.89,15.03 10.58,10.07 15.9,22.79 15.9,38.28 0,10.68 -2.86,19.99 -8.64,28.01 -5.72,7.97 -13.6,13.44 -23.61,16.46zm89.95 -74.78l0 -20.24 116.23 0 -66.65 196.27 -22.9 1.53 62.62 -177.56 -89.3 0zm251.17 74.78c10.47,3.47 18.6,9.3 24.43,17.48 5.82,8.18 8.74,17.94 8.74,29.18 0,16.31 -5.73,29.9 -17.12,40.89 -11.45,10.99 -25.82,16.46 -43.04,16.46 -11.09,0 -21.26,-2.61 -30.51,-7.77 -9.2,-5.16 -17.02,-12.57 -23.41,-22.23l14.97 -14.98c4.4,8.18 9.97,14.36 16.67,18.5 6.69,4.14 14.41,6.24 23.2,6.24 11.19,0 20.29,-3.48 27.29,-10.43 7.01,-6.95 10.48,-15.89 10.48,-26.88 0,-10.99 -3.68,-19.73 -11.04,-26.22 -7.31,-6.49 -17.22,-9.76 -29.75,-9.76l-15.69 0 0 -20.24 15.13 0c12.78,0 22.8,-3.02 30.11,-9.05 7.31,-6.03 10.93,-14.31 10.93,-24.79 0,-9.46 -3.37,-17.48 -10.17,-24.07 -6.79,-6.6 -15.23,-9.87 -25.35,-9.87 -7.46,0 -14.46,1.74 -20.9,5.21 -6.44,3.53 -12.27,8.69 -17.43,15.59l-14.88 -12.57c7.21,-9.1 15.39,-16.1 24.54,-21.06 9.15,-4.96 18.55,-7.41 28.26,-7.41 16.67,0 30.31,5.01 40.89,15.03 10.58,10.07 15.9,22.79 15.9,38.28 0,10.68 -2.86,19.99 -8.64,28.01 -5.72,7.97 -13.6,13.44 -23.61,16.46zm255.76 0c10.47,3.47 18.6,9.3 24.43,17.48 5.82,8.18 8.74,17.94 8.74,29.18 0,16.31 -5.73,29.9 -17.12,40.89 -11.45,10.99 -25.82,16.46 -43.04,16.46 -11.09,0 -21.26,-2.61 -30.51,-7.77 -9.2,-5.16 -17.02,-12.57 -23.41,-22.23l14.97 -14.98c4.4,8.18 9.97,14.36 16.67,18.5 6.69,4.14 14.41,6.24 23.2,6.24 11.19,0 20.29,-3.48 27.29,-10.43 7.01,-6.95 10.48,-15.89 10.48,-26.88 0,-10.99 -3.68,-19.73 -11.04,-26.22 -7.31,-6.49 -17.22,-9.76 -29.75,-9.76l-15.69 0 0 -20.24 15.13 0c12.78,0 22.8,-3.02 30.11,-9.05 7.31,-6.03 10.93,-14.31 10.93,-24.79 0,-9.46 -3.37,-17.48 -10.17,-24.07 -6.79,-6.6 -15.23,-9.87 -25.35,-9.87 -7.46,0 -14.46,1.74 -20.9,5.21 -6.44,3.53 -12.27,8.69 -17.43,15.59l-14.88 -12.57c7.21,-9.1 15.39,-16.1 24.54,-21.06 9.15,-4.96 18.55,-7.41 28.26,-7.41 16.67,0 30.31,5.01 40.89,15.03 10.58,10.07 15.9,22.79 15.9,38.28 0,10.68 -2.86,19.99 -8.64,28.01 -5.72,7.97 -13.6,13.44 -23.61,16.46zm89.95 -74.78l0 -20.24 116.23 0 -66.65 196.27 -22.9 1.53 62.62 -177.56 -89.3 0zm194.07 107.03l54.39 0 0.92 -81.47 -55.31 81.47zm-22.89 18.09l0 -12.26 96.9 -141.69 0 135.86 26.68 0 0 18.09 -26.68 0 0 49.99 -19.62 1.53 0 -51.52 -77.28 0zm169.94 -125.12l0 -20.24 116.23 0 -66.65 196.27 -22.9 1.53 62.62 -177.56 -89.3 0zm-2919.63 380.83l-7.05 16.92c-6.18,-3.37 -11.55,-5.78 -16.15,-7.16 -4.6,-1.38 -9.46,-2.09 -14.57,-2.09 -11.45,0 -21.11,4.04 -28.98,12.16 -7.82,8.13 -11.75,18.2 -11.75,30.16 0,11.86 3.88,21.77 11.7,29.75 7.77,7.97 17.48,11.96 29.03,11.96 5.42,0 10.79,-0.97 16.05,-2.92 5.32,-1.94 10.68,-4.85 16.2,-8.74l6.14 17.48c-5.98,4.19 -12.32,7.47 -19.02,9.77 -6.69,2.3 -13.18,3.42 -19.57,3.42 -16.97,0 -31.28,-5.93 -42.94,-17.74 -11.7,-11.85 -17.53,-26.16 -17.53,-43.08 0,-16.97 5.83,-31.28 17.43,-43.04 11.6,-11.7 25.97,-17.58 43.04,-17.58 6.49,0 12.93,0.92 19.37,2.71 6.44,1.84 12.62,4.5 18.6,8.02zm56.99 46c-6.79,0 -12.67,2.35 -17.68,7.11 -4.96,4.75 -7.46,10.32 -7.46,16.81 0,6.9 2.4,12.68 7.25,17.43 4.86,4.76 10.79,7.11 17.89,7.11 7.11,0 12.99,-2.35 17.74,-7.06 4.75,-4.65 7.1,-10.37 7.1,-17.17 0,-6.7 -2.4,-12.37 -7.2,-17.12 -4.76,-4.76 -10.63,-7.11 -17.64,-7.11zm43.24 -20.6l0 80.71 -17.78 3.37 0 -14.41c-3.53,5.06 -7.82,8.94 -13.04,11.6 -5.16,2.71 -10.93,4.04 -17.22,4.04 -11.14,0 -20.39,-3.83 -27.75,-11.45 -7.31,-7.61 -10.99,-17.33 -10.99,-29.08 0,-11.4 3.83,-20.86 11.45,-28.47 7.61,-7.57 17.42,-11.35 29.38,-11.35 5.73,0 10.89,1.18 15.49,3.48 4.65,2.3 8.59,5.67 11.76,10.07l0 -17.33c0,-6.59 -1.79,-11.3 -5.37,-14.11 -3.63,-2.81 -9.81,-4.19 -18.55,-4.19 -3.73,0 -7.57,0.21 -11.55,0.67 -3.99,0.46 -8.08,1.12 -12.27,2.04l4.65 -18.71c5.67,-0.51 10.53,-0.86 14.52,-1.12 3.98,-0.26 7.36,-0.36 10.17,-0.36 14.16,0 23.87,2.4 29.18,7.21 5.27,4.75 7.92,13.9 7.92,27.39zm53.11 63.79l0 68.13 -19.32 2.76 0 -164.98 19.32 -2.76 0 19.98c5.22,-7.16 11.55,-12.68 19.02,-16.56 7.46,-3.94 15.54,-5.88 24.12,-5.88 16.26,0 30.06,5.88 41.4,17.58 11.3,11.76 16.97,26.17 16.97,43.35 0,16.2 -5.83,30.15 -17.53,41.91 -11.65,11.81 -25.71,17.68 -42.06,17.68 -9.1,0 -17.18,-1.84 -24.33,-5.47 -7.11,-3.62 -12.99,-8.89 -17.59,-15.74zm40.79 -81.52c-11.5,0 -21.16,4.09 -29.03,12.27 -7.82,8.17 -11.76,18.19 -11.76,30.05 0,11.86 3.94,21.88 11.76,30.05 7.87,8.18 17.53,12.27 29.03,12.27 11.4,0 21.06,-4.14 28.93,-12.42 7.92,-8.28 11.86,-18.25 11.86,-29.9 0,-11.65 -3.94,-21.62 -11.86,-29.9 -7.87,-8.28 -17.53,-12.42 -28.93,-12.42zm112.34 72.37l15.54 15.59 -15.54 15.69 -15.74 -15.69 15.74 -15.59zm78.96 9.15l0 68.13 -19.32 2.76 0 -164.98 19.32 -2.76 0 19.98c5.22,-7.16 11.55,-12.68 19.02,-16.56 7.46,-3.94 15.54,-5.88 24.12,-5.88 16.26,0 30.06,5.88 41.4,17.58 11.3,11.76 16.97,26.17 16.97,43.35 0,16.2 -5.83,30.15 -17.53,41.91 -11.65,11.81 -25.71,17.68 -42.06,17.68 -9.1,0 -17.18,-1.84 -24.33,-5.47 -7.11,-3.62 -12.99,-8.89 -17.59,-15.74zm40.79 -81.52c-11.5,0 -21.16,4.09 -29.03,12.27 -7.82,8.17 -11.76,18.19 -11.76,30.05 0,11.86 3.94,21.88 11.76,30.05 7.87,8.18 17.53,12.27 29.03,12.27 11.4,0 21.06,-4.14 28.93,-12.42 7.92,-8.28 11.86,-18.25 11.86,-29.9 0,-11.65 -3.94,-21.62 -11.86,-29.9 -7.87,-8.28 -17.53,-12.42 -28.93,-12.42zm112.34 72.37l15.54 15.59 -15.54 15.69 -15.74 -15.69 15.74 -15.59zm95.52 -34.04c-6.79,0 -12.67,2.35 -17.68,7.11 -4.96,4.75 -7.46,10.32 -7.46,16.81 0,6.9 2.4,12.68 7.25,17.43 4.86,4.76 10.79,7.11 17.89,7.11 7.11,0 12.99,-2.35 17.74,-7.06 4.75,-4.65 7.1,-10.37 7.1,-17.17 0,-6.7 -2.4,-12.37 -7.2,-17.12 -4.76,-4.76 -10.63,-7.11 -17.64,-7.11zm43.24 -20.6l0 80.71 -17.78 3.37 0 -14.41c-3.53,5.06 -7.82,8.94 -13.04,11.6 -5.16,2.71 -10.93,4.04 -17.22,4.04 -11.14,0 -20.39,-3.83 -27.75,-11.45 -7.31,-7.61 -10.99,-17.33 -10.99,-29.08 0,-11.4 3.83,-20.86 11.45,-28.47 7.61,-7.57 17.42,-11.35 29.38,-11.35 5.73,0 10.89,1.18 15.49,3.48 4.65,2.3 8.59,5.67 11.76,10.07l0 -17.33c0,-6.59 -1.79,-11.3 -5.37,-14.11 -3.63,-2.81 -9.81,-4.19 -18.55,-4.19 -3.73,0 -7.57,0.21 -11.55,0.67 -3.99,0.46 -8.08,1.12 -12.27,2.04l4.65 -18.71c5.67,-0.51 10.53,-0.86 14.52,-1.12 3.98,-0.26 7.36,-0.36 10.17,-0.36 14.16,0 23.87,2.4 29.18,7.21 5.27,4.75 7.92,13.9 7.92,27.39zm59.35 54.64l15.54 15.59 -15.54 15.69 -15.74 -15.69 15.74 -15.59zm95.52 -34.04c-6.79,0 -12.67,2.35 -17.68,7.11 -4.96,4.75 -7.46,10.32 -7.46,16.81 0,6.9 2.4,12.68 7.25,17.43 4.86,4.76 10.79,7.11 17.89,7.11 7.11,0 12.99,-2.35 17.74,-7.06 4.75,-4.65 7.1,-10.37 7.1,-17.17 0,-6.7 -2.4,-12.37 -7.2,-17.12 -4.76,-4.76 -10.63,-7.11 -17.64,-7.11zm43.24 -20.6l0 80.71 -17.78 3.37 0 -14.41c-3.53,5.06 -7.82,8.94 -13.04,11.6 -5.16,2.71 -10.93,4.04 -17.22,4.04 -11.14,0 -20.39,-3.83 -27.75,-11.45 -7.31,-7.61 -10.99,-17.33 -10.99,-29.08 0,-11.4 3.83,-20.86 11.45,-28.47 7.61,-7.57 17.42,-11.35 29.38,-11.35 5.73,0 10.89,1.18 15.49,3.48 4.65,2.3 8.59,5.67 11.76,10.07l0 -17.33c0,-6.59 -1.79,-11.3 -5.37,-14.11 -3.63,-2.81 -9.81,-4.19 -18.55,-4.19 -3.73,0 -7.57,0.21 -11.55,0.67 -3.99,0.46 -8.08,1.12 -12.27,2.04l4.65 -18.71c5.67,-0.51 10.53,-0.86 14.52,-1.12 3.98,-0.26 7.36,-0.36 10.17,-0.36 14.16,0 23.87,2.4 29.18,7.21 5.27,4.75 7.92,13.9 7.92,27.39zm84.09 -34.29l0 20.55 -4.65 0c-8.49,0 -14.98,3.01 -19.53,9.04 -4.55,6.03 -6.8,14.72 -6.8,25.97l0 60.36 -19.32 2.76 0 -114.69 19.32 -2.76 0 17.83c3.68,-6.23 8.18,-10.93 13.45,-14.21 5.31,-3.22 11.14,-4.85 17.53,-4.85zm56.42 54.89c-6.79,0 -12.67,2.35 -17.68,7.11 -4.96,4.75 -7.46,10.32 -7.46,16.81 0,6.9 2.4,12.68 7.25,17.43 4.86,4.76 10.79,7.11 17.89,7.11 7.11,0 12.99,-2.35 17.74,-7.06 4.75,-4.65 7.1,-10.37 7.1,-17.17 0,-6.7 -2.4,-12.37 -7.2,-17.12 -4.76,-4.76 -10.63,-7.11 -17.64,-7.11zm43.24 -20.6l0 80.71 -17.78 3.37 0 -14.41c-3.53,5.06 -7.82,8.94 -13.04,11.6 -5.16,2.71 -10.93,4.04 -17.22,4.04 -11.14,0 -20.39,-3.83 -27.75,-11.45 -7.31,-7.61 -10.99,-17.33 -10.99,-29.08 0,-11.4 3.83,-20.86 11.45,-28.47 7.61,-7.57 17.42,-11.35 29.38,-11.35 5.73,0 10.89,1.18 15.49,3.48 4.65,2.3 8.59,5.67 11.76,10.07l0 -17.33c0,-6.59 -1.79,-11.3 -5.37,-14.11 -3.63,-2.81 -9.81,-4.19 -18.55,-4.19 -3.73,0 -7.57,0.21 -11.55,0.67 -3.99,0.46 -8.08,1.12 -12.27,2.04l4.65 -18.71c5.67,-0.51 10.53,-0.86 14.52,-1.12 3.98,-0.26 7.36,-0.36 10.17,-0.36 14.16,0 23.87,2.4 29.18,7.21 5.27,4.75 7.92,13.9 7.92,27.39zm111.18 -15.58c3.98,-6.09 8.79,-10.84 14.41,-14.21 5.62,-3.43 11.45,-5.11 17.43,-5.11 11.4,0 19.73,3.73 25.04,11.14 5.37,7.46 8.03,19.27 8.03,35.42l0 69.97 -19.63 2.76 0 -70.02c0,-10.48 -1.53,-18.15 -4.55,-23 -3.06,-4.86 -7.77,-7.26 -14.16,-7.26 -7.56,0 -13.34,2.91 -17.32,8.74 -3.99,5.88 -5.98,14.36 -5.98,25.55l0 63.23 -19.32 2.76 0 -70.02c0,-10.58 -1.48,-18.3 -4.5,-23.05 -3.02,-4.81 -7.87,-7.21 -14.57,-7.21 -7.41,0 -13.08,2.91 -17.02,8.69 -3.93,5.77 -5.93,14.1 -5.93,24.99l0 63.84 -19.32 2.76 0 -114.69 19.32 -2.76 0 15.23c3.43,-5.27 7.87,-9.51 13.34,-12.68 5.52,-3.12 11.15,-4.7 16.97,-4.7 6.19,0 11.66,1.69 16.41,5.11 4.75,3.37 8.54,8.23 11.35,14.52zm154.76 -1.84c-11.45,0 -21.16,4.08 -29.19,12.26 -7.97,8.18 -11.96,18.2 -11.96,30.06 0,11.75 3.99,21.77 11.91,30 7.93,8.23 17.69,12.32 29.24,12.32 11.4,0 21.01,-4.09 28.93,-12.27 7.87,-8.18 11.8,-17.99 11.8,-29.44 0,-11.96 -3.98,-22.13 -11.9,-30.46 -7.93,-8.33 -17.54,-12.47 -28.83,-12.47zm-40.84 -123.59l0 127.01c4.91,-6.8 11.04,-12.06 18.4,-15.69 7.41,-3.68 15.39,-5.52 23.97,-5.52 16.36,0 30.21,5.93 41.56,17.73 11.29,11.86 16.96,26.22 16.96,43.19 0,16.97 -5.82,31.13 -17.42,42.53 -11.66,11.4 -26.28,17.07 -43.96,17.07 -9.66,0 -18.6,-2.04 -26.78,-6.08 -8.18,-4.04 -14.98,-9.66 -20.4,-16.97 -4.29,-5.88 -7.36,-12.32 -9.2,-19.42 -1.84,-7.06 -2.76,-18.05 -2.76,-32.92l0 -3.12 0 -144.75 19.63 -3.06zm145.62 107.03l0 67.82c0,10.79 1.94,18.86 5.77,24.33 3.84,5.42 9.66,8.13 17.43,8.13 8.69,0 15.64,-3.07 20.86,-9.2 5.16,-6.14 7.76,-14.42 7.76,-24.89l0 -63.13 19.32 -3.06 0 114.38 -19.32 2.76 0 -16.25c-3.98,5.57 -9.09,9.97 -15.38,13.24 -6.29,3.22 -12.93,4.85 -19.88,4.85 -12.27,0 -21.37,-3.78 -27.3,-11.34 -5.93,-7.62 -8.89,-19.27 -8.89,-35.01l0 -69.57 19.63 -3.06zm155.74 -0.31l0 20.55 -4.65 0c-8.49,0 -14.98,3.01 -19.53,9.04 -4.55,6.03 -6.8,14.72 -6.8,25.97l0 60.36 -19.32 2.76 0 -114.69 19.32 -2.76 0 17.83c3.68,-6.23 8.18,-10.93 13.45,-14.21 5.31,-3.22 11.14,-4.85 17.53,-4.85zm72.98 16.56c-11.39,0 -21.05,4.09 -28.93,12.32 -7.92,8.23 -11.85,18.24 -11.85,30 0,11.86 3.93,21.88 11.75,30.05 7.87,8.18 17.53,12.27 29.03,12.27 11.3,0 20.86,-4.14 28.73,-12.42 7.82,-8.28 11.75,-18.25 11.75,-29.9 0,-11.65 -3.93,-21.62 -11.75,-29.9 -7.87,-8.28 -17.43,-12.42 -28.73,-12.42zm-0.2 -18.71c16.76,0 31.02,5.98 42.88,17.89 11.81,11.96 17.74,26.27 17.74,43.04 0,16.81 -5.88,31.12 -17.69,42.98 -11.75,11.91 -26.06,17.84 -42.93,17.84 -16.92,0 -31.18,-5.93 -42.93,-17.74 -11.71,-11.85 -17.59,-26.16 -17.59,-43.08 0,-16.87 5.88,-31.23 17.59,-43.09 11.75,-11.91 26.01,-17.84 42.93,-17.84zm264.65 -5.72l9.15 -19.37 11.96 0 -20.49 82.85c-0.97,3.63 -1.74,6.85 -2.3,9.66 -0.57,2.86 -0.82,5.01 -0.82,6.54 0,4.4 1.48,7.77 4.55,10.17 3.06,2.4 7.36,3.58 12.93,3.58 4.8,0 9.81,-0.97 14.97,-2.91 5.22,-1.95 10.33,-4.76 15.44,-8.49 10.07,-7.36 18.15,-17.68 24.23,-30.97 6.08,-13.29 9.15,-27.4 9.15,-42.27 0,-27.24 -9.97,-49.22 -29.85,-65.83 -19.94,-16.61 -46.16,-24.95 -78.66,-24.95 -16.77,0 -32.31,2.41 -46.52,7.21 -14.2,4.75 -27.14,11.96 -38.69,21.52 -15.38,12.78 -26.93,27.65 -34.75,44.52 -7.77,16.86 -11.66,35.57 -11.66,56.12 0,32.66 11.04,58.73 33.18,78.2 22.08,19.47 51.62,29.18 88.52,29.18 16.1,0 32.25,-2.5 48.51,-7.56 16.25,-5.01 31.17,-12.11 44.77,-21.31l4.34 6.74c-14.56,10.94 -30,19.17 -46.2,24.64 -16.2,5.47 -33.17,8.23 -50.86,8.23 -18.65,0 -35.78,-2.3 -51.36,-6.95 -15.54,-4.66 -29.39,-11.56 -41.46,-20.76 -15.18,-11.44 -26.47,-24.84 -33.93,-40.02 -7.42,-15.23 -11.15,-32.61 -11.15,-52.18 0,-16.15 2.51,-31.49 7.57,-45.95 5.06,-14.46 12.42,-27.7 22.08,-39.66 14.36,-17.48 31.64,-30.72 51.77,-39.77 20.09,-9.04 42.53,-13.54 67.32,-13.54 15.95,0 31.18,2.2 45.59,6.59 14.41,4.4 26.83,10.58 37.21,18.55 12.78,9.82 22.49,21.11 29.08,33.94 6.6,12.83 9.87,26.68 9.87,41.56 0,16.86 -3.17,32.25 -9.46,46.1 -6.29,13.9 -15.28,25.45 -27.09,34.76 -6.69,5.36 -13.95,9.5 -21.77,12.36 -7.87,2.82 -15.8,4.25 -23.92,4.25 -9.46,0 -16.61,-1.84 -21.47,-5.47 -4.85,-3.63 -7.26,-9.05 -7.26,-16.2 0,-1.23 0.16,-2.92 0.41,-5.12 0.1,-0.25 0.16,-0.51 0.16,-0.71 -4.86,8.74 -11.1,15.54 -18.71,20.34 -7.57,4.75 -15.9,7.16 -24.89,7.16 -15.34,0 -27.04,-4.14 -34.96,-12.42 -7.93,-8.28 -11.91,-20.45 -11.91,-36.45 0,-22.74 6.69,-42.01 20.14,-57.8 13.44,-15.8 29.74,-23.67 48.91,-23.67 9.51,0 17.48,2.15 23.97,6.49 6.49,4.3 11.3,10.63 14.36,19.07zm-12.57 53.92l9.46 -38.03c-2.2,-9.91 -6.29,-17.43 -12.22,-22.64 -5.93,-5.16 -13.49,-7.77 -22.64,-7.77 -15.18,0 -27.96,6.9 -38.29,20.65 -10.32,13.8 -15.48,30.77 -15.48,50.91 0,11.5 2.86,20.49 8.58,26.99 5.78,6.49 13.7,9.71 23.92,9.71 11.04,0 20.86,-3.63 29.34,-10.84 8.49,-7.26 14.26,-16.92 17.33,-28.98zm183.59 -28.57c-8.12,0 -14.97,2.71 -20.6,8.07 -5.67,5.42 -8.48,12.02 -8.48,19.84 0,7.71 2.81,14.2 8.38,19.57 5.62,5.37 12.37,8.03 20.4,8.03 8.07,0 14.97,-2.71 20.65,-8.08 5.67,-5.42 8.53,-11.81 8.53,-19.22 0,-7.82 -2.76,-14.46 -8.33,-19.98 -5.52,-5.47 -12.37,-8.23 -20.55,-8.23zm50.6 -17.79l-5.26 15.23c-0.51,0 -1.18,0.05 -2.05,0.16 -0.81,0.1 -1.48,0.15 -1.84,0.15l-3.47 0 -3.27 0c4.39,3.99 7.82,8.64 10.22,13.95 2.4,5.32 3.58,10.79 3.58,16.51 0,7.77 -2.3,14.93 -6.85,21.37 -4.55,6.44 -10.63,11.19 -18.35,14.31 7.46,4.6 13.19,10.12 17.12,16.51 3.94,6.44 5.93,13.59 5.93,21.52 0,13.74 -4.7,24.94 -14.16,33.58 -9.4,8.63 -21.67,12.93 -36.75,12.93 -8.38,0 -16.3,-1.95 -23.76,-5.78 -7.52,-3.83 -13.7,-9.15 -18.61,-16.05l11.4 -16.2c3.27,6.29 7.72,11.24 13.34,14.82 5.57,3.63 11.65,5.42 18.25,5.42 9.25,0 16.81,-2.66 22.59,-7.92 5.77,-5.32 8.69,-12.12 8.69,-20.5 0,-8.12 -2.66,-14.82 -7.92,-20.24 -5.32,-5.36 -11.91,-8.07 -19.78,-8.07 -5.17,0 -9.97,1.02 -14.37,3.01 -4.39,2 -8.58,5.06 -12.57,9.25l-9.71 -12.88c2.4,-1.89 4.65,-3.52 6.8,-5.01 2.14,-1.43 3.93,-2.5 5.31,-3.22 -7.67,-4.08 -13.54,-9.3 -17.53,-15.64 -3.99,-6.33 -5.98,-13.59 -5.98,-21.82 0,-13.39 4.75,-24.28 14.21,-32.71 9.51,-8.44 21.93,-12.68 37.31,-12.68 1.48,0 5.06,0.26 10.63,0.77 5.62,0.46 10.43,0.71 14.52,0.71 1.84,0 4.24,-0.1 7.31,-0.3 3.01,-0.21 8.02,-0.56 15.02,-1.18zm105.04 19.02c3.98,-6.09 8.79,-10.84 14.41,-14.21 5.62,-3.43 11.45,-5.11 17.43,-5.11 11.4,0 19.73,3.73 25.04,11.14 5.37,7.46 8.03,19.27 8.03,35.42l0 69.97 -19.63 2.76 0 -70.02c0,-10.48 -1.53,-18.15 -4.55,-23 -3.06,-4.86 -7.77,-7.26 -14.16,-7.26 -7.56,0 -13.34,2.91 -17.32,8.74 -3.99,5.88 -5.98,14.36 -5.98,25.55l0 63.23 -19.32 2.76 0 -70.02c0,-10.58 -1.48,-18.3 -4.5,-23.05 -3.02,-4.81 -7.87,-7.21 -14.57,-7.21 -7.41,0 -13.08,2.91 -17.02,8.69 -3.93,5.77 -5.93,14.1 -5.93,24.99l0 63.84 -19.32 2.76 0 -114.69 19.32 -2.76 0 15.23c3.43,-5.27 7.87,-9.51 13.34,-12.68 5.52,-3.12 11.15,-4.7 16.97,-4.7 6.19,0 11.66,1.69 16.41,5.11 4.75,3.37 8.54,8.23 11.35,14.52zm133.85 36.18c-6.79,0 -12.67,2.35 -17.68,7.11 -4.96,4.75 -7.46,10.32 -7.46,16.81 0,6.9 2.4,12.68 7.25,17.43 4.86,4.76 10.79,7.11 17.89,7.11 7.11,0 12.99,-2.35 17.74,-7.06 4.75,-4.65 7.1,-10.37 7.1,-17.17 0,-6.7 -2.4,-12.37 -7.2,-17.12 -4.76,-4.76 -10.63,-7.11 -17.64,-7.11zm43.24 -20.6l0 80.71 -17.78 3.37 0 -14.41c-3.53,5.06 -7.82,8.94 -13.04,11.6 -5.16,2.71 -10.93,4.04 -17.22,4.04 -11.14,0 -20.39,-3.83 -27.75,-11.45 -7.31,-7.61 -10.99,-17.33 -10.99,-29.08 0,-11.4 3.83,-20.86 11.45,-28.47 7.61,-7.57 17.42,-11.35 29.38,-11.35 5.73,0 10.89,1.18 15.49,3.48 4.65,2.3 8.59,5.67 11.76,10.07l0 -17.33c0,-6.59 -1.79,-11.3 -5.37,-14.11 -3.63,-2.81 -9.81,-4.19 -18.55,-4.19 -3.73,0 -7.57,0.21 -11.55,0.67 -3.99,0.46 -8.08,1.12 -12.27,2.04l4.65 -18.71c5.67,-0.51 10.53,-0.86 14.52,-1.12 3.98,-0.26 7.36,-0.36 10.17,-0.36 14.16,0 23.87,2.4 29.18,7.21 5.27,4.75 7.92,13.9 7.92,27.39zm54.34 -33.98l0 115.61 -19.32 2.76 0 -115.31 19.32 -3.06zm-9.86 -60.11l15.69 15.69 -15.69 15.59 -15.29 -15.59 15.29 -15.69zm66.03 -46.92l0 222.64 -19.32 2.76 0 -222.34 19.32 -3.06zm61.18 195.65l15.54 15.59 -15.54 15.69 -15.74 -15.69 15.74 -15.59zm149.8 -80.04l-7.05 16.92c-6.18,-3.37 -11.55,-5.78 -16.15,-7.16 -4.6,-1.38 -9.46,-2.09 -14.57,-2.09 -11.45,0 -21.11,4.04 -28.98,12.16 -7.82,8.13 -11.75,18.2 -11.75,30.16 0,11.86 3.88,21.77 11.7,29.75 7.77,7.97 17.48,11.96 29.03,11.96 5.42,0 10.79,-0.97 16.05,-2.92 5.32,-1.94 10.68,-4.85 16.2,-8.74l6.14 17.48c-5.98,4.19 -12.32,7.47 -19.02,9.77 -6.69,2.3 -13.18,3.42 -19.57,3.42 -16.97,0 -31.28,-5.93 -42.94,-17.74 -11.7,-11.85 -17.53,-26.16 -17.53,-43.08 0,-16.97 5.83,-31.28 17.43,-43.04 11.6,-11.7 25.97,-17.58 43.04,-17.58 6.49,0 12.93,0.92 19.37,2.71 6.44,1.84 12.62,4.5 18.6,8.02zm73.55 7.67c-11.39,0 -21.05,4.09 -28.93,12.32 -7.92,8.23 -11.85,18.24 -11.85,30 0,11.86 3.93,21.88 11.75,30.05 7.87,8.18 17.53,12.27 29.03,12.27 11.3,0 20.86,-4.14 28.73,-12.42 7.82,-8.28 11.75,-18.25 11.75,-29.9 0,-11.65 -3.93,-21.62 -11.75,-29.9 -7.87,-8.28 -17.43,-12.42 -28.73,-12.42zm-0.2 -18.71c16.76,0 31.02,5.98 42.88,17.89 11.81,11.96 17.74,26.27 17.74,43.04 0,16.81 -5.88,31.12 -17.69,42.98 -11.75,11.91 -26.06,17.84 -42.93,17.84 -16.92,0 -31.18,-5.93 -42.93,-17.74 -11.71,-11.85 -17.59,-26.16 -17.59,-43.08 0,-16.87 5.88,-31.23 17.59,-43.09 11.75,-11.91 26.01,-17.84 42.93,-17.84z"/>
   <path class="fil1" d="M8348.12 868.99c3.98,-6.09 8.79,-10.84 14.41,-14.21 5.62,-3.43 11.45,-5.11 17.43,-5.11 11.4,0 19.73,3.73 25.04,11.14 5.37,7.46 8.03,19.27 8.03,35.42l0 69.97 -19.63 2.76 0 -70.02c0,-10.48 -1.53,-18.15 -4.55,-23 -3.06,-4.86 -7.77,-7.26 -14.16,-7.26 -7.56,0 -13.34,2.91 -17.32,8.74 -3.99,5.88 -5.98,14.36 -5.98,25.55l0 63.23 -19.32 2.76 0 -70.02c0,-10.58 -1.48,-18.3 -4.5,-23.05 -3.02,-4.81 -7.87,-7.21 -14.57,-7.21 -7.41,0 -13.08,2.91 -17.02,8.69 -3.93,5.77 -5.93,14.1 -5.93,24.99l0 63.84 -19.32 2.76 0 -114.69 19.32 -2.76 0 15.23c3.43,-5.27 7.87,-9.51 13.34,-12.68 5.52,-3.12 11.15,-4.7 16.97,-4.7 6.19,0 11.66,1.69 16.41,5.11 4.75,3.37 8.54,8.23 11.35,14.52z"/>
  </g>
  <path class="fil3" d="M8715.72 276.45c0,56.63 83.84,25.25 -26.88,135.94 -115.67,115.64 -89.1,29.95 -135.93,29.95 -27.71,0 -79.88,36.42 -79.88,61.44 0,26.87 1.4,27.64 22.27,48.39 23.35,23.22 17.99,22.26 57.61,22.26 34.85,0 82.55,-26.75 106.24,-41.21 28.74,-17.53 58.47,-45.17 81.91,-68.61 46.88,-46.88 106.75,-123.58 106.75,-197.37 0,-23.79 -11.46,-31.4 -23.79,-43.79 -32.6,-32.79 -55.09,-33.47 -86.12,4.53 -10.34,12.66 -22.18,26.82 -22.18,48.47z"/>
  <path class="fil3" d="M8483.16 950.24c0,15.85 12.79,24.57 27.65,24.57l365.56 0c12,0 27.65,-11.72 27.65,-21.5l0 -181.24c-22.67,0 -72.79,33.37 -106.5,50.17 -128.1,63.85 -77.2,65.29 -209.91,-1.02 -8.22,-4.11 -16.38,-8.19 -24.6,-12.27 -20.92,-10.37 -57.79,-36.39 -79.85,-36.88l0 178.17z"/>
  <path class="fil3" d="M8483.16 707.56c0,22.11 40.56,36.91 68.65,51.15 33.17,16.81 113.39,68.65 143.32,68.65 14.34,0 20.97,-4.12 30.18,-9.75l131.65 -71.1c13.82,-7.74 47.06,-18.31 47.06,-35.88 0,-7.08 -2.14,-9.22 -9.22,-9.22l-402.42 0c-5.03,0 -9.22,1.84 -9.22,6.15z"/>
  <path class="fil0" d="M2089.79 345.66c-23.6,70.58 -165.23,411.73 -198.09,459.89 -65.57,96.12 -406.16,97.62 -535.39,64.51l16.29 -177.12c-57.94,20.45 -77.22,91.94 -115.17,140.63 -105.08,-34.91 -212.54,-151.69 -313.38,-143.91 70.57,92.26 188.68,162.13 242.8,265.32 -71.47,95.56 -167.85,151.68 -282.18,259.71 110.18,-6.38 246.91,-158.82 328.11,-177.04 27.45,-6.16 138.64,41.97 185.34,54.38 75.94,20.19 150.52,26.26 228.75,38.12 -76.75,145.59 -515.42,526.56 -673.24,664.97l-138.53 -83.71c154.41,211.63 201.69,84.16 488.09,-127.05 122.09,-90.03 242.47,-185.51 359.95,-275.59 11.52,8.45 138.92,141.03 249.08,49.3 117.13,-97.54 -113.38,-129.95 -133.14,-141.9 78.9,-25.28 80.01,-49.91 179.34,-76.47 93.34,-24.95 112.91,-26.91 215.27,-34.5 142.86,-10.59 285.23,-45.78 352.14,-136.58 -35.57,-68.49 -123.92,-105.33 -224.13,-125.88l-36.62 -102.56 -189.31 -1.52 52.87 -425.78c-59.67,-29.03 -99.28,-70.02 -159.11,-83.99l100.26 116.77z"/>
  <path class="fil4" d="M2134.86 2210.33l-132.56 244.12 -4.79 -236.32 -72.58 277.7 -82.77 0 94.77 -363.47c-13.6,8 -29.59,12 -47.98,12 -6,0 -12.2,-0.4 -18.6,-1.2l15 -57.58c5.2,0.8 10.19,1.2 14.99,1.2 25.99,0 45.79,-13.59 59.38,-40.78l98.36 0 4.2 179.93 98.37 -179.93 100.16 0 -117.56 449.83 -82.77 0 74.38 -285.5zm226.12 1.2l-74.38 284.9 -82.77 0 74.38 -284.9 82.77 0zm-19.2 -46.18c-13.59,0.4 -25.19,-2.7 -34.78,-9.3 -9.6,-6.59 -14.4,-14.89 -14.4,-24.89 0,-9.99 4.8,-18.69 14.4,-26.09 9.59,-7.39 21.19,-11.29 34.78,-11.69 13.6,-0.4 25.19,2.7 34.79,9.29 9.6,6.6 14.4,14.9 14.4,24.9 0,9.99 -4.8,18.69 -14.4,26.09 -9.6,7.39 -21.19,11.29 -34.79,11.69zm59.38 326.88c-32.39,-13.59 -48.58,-44.98 -48.58,-94.16 0,-27.19 6,-54.78 17.99,-82.77 13.2,-31.59 31.19,-57.18 53.98,-76.78 22.8,-19.59 45.59,-29.38 68.38,-29.38 21.99,0 39.78,8.79 53.38,26.39l6 -24 83.37 0 -74.98 284.3c-3.99,14.39 -7.39,24.59 -10.19,30.59 -13.6,27.59 -32.69,49.78 -57.28,66.57 -24.59,16.8 -49.28,25.2 -74.07,25.2 -14.4,0 -27.39,-2.8 -38.99,-8.4 -5.2,-2.8 -10.2,-7.4 -14.99,-13.8 -4.8,-6.39 -9.2,-12.59 -13.2,-18.59l15 -56.38c31.98,22.79 48.98,34.19 50.98,34.19 15.19,0 29.19,-8.4 41.98,-25.19 8.8,-11.6 14.6,-22.99 17.39,-34.19l4.8 -17.39c-18.79,12.79 -37.18,19.19 -55.18,19.19 -9.19,0 -17.79,-1.8 -25.79,-5.4zm105.56 -215.32c-10.39,0 -21.39,5.2 -32.98,15.59 -13.2,12.4 -23.6,28.59 -31.19,48.59 -6.8,18.39 -10.2,35.38 -10.2,50.98 0,25.99 7.2,38.98 21.59,38.98 9.2,0 19.3,-6.09 30.29,-18.29 11,-12.2 20.09,-27.89 27.29,-47.08l1.2 -3 7.8 -28.79c1.2,-8 1.8,-15.59 1.8,-22.79 0,-22.79 -5.2,-34.19 -15.6,-34.19zm202.13 152.94c2.4,2 5.79,3 10.19,3 7.2,0 15.8,-2.4 25.79,-7.19 12,-6 21.8,-18 29.39,-35.99l46.19 -176.94 82.77 0 -73.78 285.5 -83.37 0 4.8 -17.39c-23.99,12.79 -48.38,19.19 -73.17,19.19 -5.2,0 -9.6,-0.2 -13.2,-0.6 -32.79,-8.4 -49.18,-32.39 -49.18,-71.97 0,-6.8 0.6,-13.2 1.8,-19.2l51.58 -195.53 82.77 0 -51.58 195.53c-0.4,2 -0.6,4 -0.6,6 0,6.8 3.2,12 9.6,15.59zm268.7 -28.79c2.8,17.2 8.6,27.79 17.39,31.79 2.4,1.6 5.4,3.2 9,4.8 28.79,0.4 53.78,-10.19 74.97,-31.79l-20.99 80.37c-16.79,10.8 -34.79,16.2 -53.98,16.2 -16.79,0 -33.59,-4.2 -50.38,-12.6 -36.79,-17.99 -55.18,-52.38 -55.18,-103.16 0,-27.19 6.4,-53.98 19.19,-80.37 14,-28.79 33.39,-51.88 58.18,-69.28 24.79,-17.39 49.78,-26.09 74.97,-26.09 14,0 26.99,2.8 38.99,8.4 31.59,10.8 47.38,34.79 47.38,71.98 0,6.79 -0.6,12.99 -1.8,18.59 -5.59,25.19 -20.79,47.38 -45.58,66.57 -24.79,19.2 -51.78,28.79 -80.97,28.79 -10.8,0 -21.19,-1.4 -31.19,-4.2zm4.8 -52.18c7.6,1.6 15.19,2.4 22.79,2.4 19.99,0 36.39,-4.8 49.18,-14.39 13.2,-11.6 19.8,-23.19 19.8,-34.79 0,-6.4 -2.4,-12.59 -7.2,-18.59 -4.8,-6 -10.4,-9 -16.8,-9 -13.99,0 -28.19,9.2 -42.58,27.59 -12,15.2 -20.39,30.79 -25.19,46.78zm205.12 147.55l-82.76 0 111.55 -426.44 83.37 0 -112.16 426.44zm335.28 -115.76l56.98 0 0 -98.96 -56.98 98.96zm56.98 61.78l-92.37 0 -30.58 53.38 -82.17 0 198.52 -335.28c21.19,-9.59 36.19,-24.59 44.99,-44.98 -20.4,18.79 -44.59,28.19 -72.58,28.19 -5.6,0 -11.19,-0.6 -16.79,-1.8l15.59 -57.58c6.4,1.2 12.6,1.8 18.6,1.8 31.18,0 56.98,-12.99 77.37,-38.99l32.39 -54.58 0 503.22 -92.97 0 0 -53.38zm23.39 -418.05l15.6 -46.18 119.35 -36.59 -18.59 68.38 -116.36 14.39zm358.67 516.41c9.2,0.4 17.79,-3.4 25.79,-11.39l17.99 53.98c-18.79,19.99 -45.78,30.79 -80.97,32.39 -23.19,0 -42.18,-8.2 -56.98,-24.59 -12.79,-13.6 -19.39,-27.99 -19.79,-43.19 0,2 1.8,-15.39 5.4,-52.18l49.78 -190.13c0.8,-2 1.2,-4 1.2,-6 0,-6.8 -3.2,-11.99 -9.6,-15.59 -2.8,-2.4 -5.99,-3.6 -9.59,-3.6 -7.2,0 -15,3.4 -23.39,10.2 -6,4.79 -12,9.79 -18,14.99 -6,5.2 -10.59,11 -13.79,17.39l-45.59 172.74 -82.77 0 74.38 -283.1 82.77 0 -4.8 19.2c22.39,-13.2 44.18,-19.8 65.37,-19.8 7.6,0 14.2,0.8 19.8,2.4 32.79,14.8 49.18,39.39 49.18,73.78 0,6.39 -0.6,12.19 -1.8,17.39l-50.38 190.13c-0.4,28.39 8.2,43.38 25.79,44.98zm77.37 -48.58c-32.39,-13.59 -48.58,-44.98 -48.58,-94.16 0,-27.19 6,-54.78 17.99,-82.77 13.2,-31.59 31.19,-57.18 53.98,-76.78 22.8,-19.59 45.59,-29.38 68.38,-29.38 21.99,0 39.78,8.79 53.38,26.39l6 -24 83.37 0 -74.98 284.3c-3.99,14.39 -7.39,24.59 -10.19,30.59 -13.6,27.59 -32.69,49.78 -57.28,66.57 -24.59,16.8 -49.28,25.2 -74.07,25.2 -14.4,0 -27.39,-2.8 -38.99,-8.4 -5.2,-2.8 -10.2,-7.4 -14.99,-13.8 -4.8,-6.39 -9.2,-12.59 -13.2,-18.59l15 -56.38c31.98,22.79 48.98,34.19 50.98,34.19 15.19,0 29.19,-8.4 41.98,-25.19 8.8,-11.6 14.6,-22.99 17.39,-34.19l4.8 -17.39c-18.79,12.79 -37.18,19.19 -55.18,19.19 -9.19,0 -17.79,-1.8 -25.79,-5.4zm105.56 -215.32c-10.39,0 -21.39,5.2 -32.98,15.59 -13.2,12.4 -23.6,28.59 -31.19,48.59 -6.8,18.39 -10.2,35.38 -10.2,50.98 0,25.99 7.2,38.98 21.59,38.98 9.2,0 19.3,-6.09 30.29,-18.29 11,-12.2 20.09,-27.89 27.29,-47.08l1.2 -3 7.8 -28.79c1.2,-8 1.8,-15.59 1.8,-22.79 0,-22.79 -5.2,-34.19 -15.6,-34.19zm190.13 124.15c2.8,17.2 8.6,27.79 17.39,31.79 2.4,1.6 5.4,3.2 9,4.8 28.79,0.4 53.78,-10.19 74.97,-31.79l-20.99 80.37c-16.79,10.8 -34.79,16.2 -53.98,16.2 -16.79,0 -33.59,-4.2 -50.38,-12.6 -36.79,-17.99 -55.18,-52.38 -55.18,-103.16 0,-27.19 6.4,-53.98 19.19,-80.37 14,-28.79 33.39,-51.88 58.18,-69.28 24.79,-17.39 49.78,-26.09 74.97,-26.09 14,0 26.99,2.8 38.99,8.4 31.59,10.8 47.38,34.79 47.38,71.98 0,6.79 -0.6,12.99 -1.8,18.59 -5.59,25.19 -20.79,47.38 -45.58,66.57 -24.79,19.2 -51.78,28.79 -80.97,28.79 -10.8,0 -21.19,-1.4 -31.19,-4.2zm4.8 -52.18c7.6,1.6 15.19,2.4 22.79,2.4 19.99,0 36.39,-4.8 49.18,-14.39 13.2,-11.6 19.8,-23.19 19.8,-34.79 0,-6.4 -2.4,-12.59 -7.2,-18.59 -4.8,-6 -10.4,-9 -16.8,-9 -13.99,0 -28.19,9.2 -42.58,27.59 -12,15.2 -20.39,30.79 -25.19,46.78zm205.12 147.55l-82.76 0 111.55 -426.44 83.37 0 -112.16 426.44zm335.28 -115.76l56.98 0 0 -98.96 -56.98 98.96zm56.98 61.78l-92.37 0 -30.58 53.38 -82.17 0 198.52 -335.28c21.19,-9.59 36.19,-24.59 44.99,-44.98 -20.4,18.79 -44.59,28.19 -72.58,28.19 -5.6,0 -11.19,-0.6 -16.79,-1.8l15.59 -57.58c6.4,1.2 12.6,1.8 18.6,1.8 31.18,0 56.98,-12.99 77.37,-38.99l32.39 -54.58 0 503.22 -92.97 0 0 -53.38zm340.07 -226.12l-18.59 77.97c-10.39,-5.99 -20.19,-8.99 -29.39,-8.99 -21.19,0 -37.78,14.59 -49.78,43.78l-44.98 166.74 -82.77 0 76.17 -283.1 82.77 0 -4.8 18c19.59,-12.4 37.39,-18.6 53.38,-18.6 7.2,0 13.2,1.4 17.99,4.2zm23.4 278.9c-32.39,-13.99 -48.58,-46.18 -48.58,-96.56 0,-27.99 6,-55.98 17.99,-83.97 13.2,-31.19 31.19,-56.68 53.98,-76.48 22.8,-19.79 45.59,-29.68 68.38,-29.68 22.39,0 40.18,9.19 53.38,27.59l6.6 -24.6 80.97 0 -52.18 201.53c-0.8,2.8 -1.2,5.4 -1.2,7.8 0,7.99 4.59,11.99 13.79,11.99 5.2,0 11,-1.2 17.4,-3.6l-15 52.79c-20.79,13.99 -39.98,20.99 -57.58,20.99 -19.99,0 -36.78,-9 -50.38,-26.99 -20.79,15.99 -41.38,23.99 -61.78,23.99 -9.19,0 -17.79,-1.6 -25.79,-4.8zm100.17 -222.52c-9.6,0 -19.9,6 -30.89,18 -11,11.99 -20.1,27.79 -27.29,47.38 -6.8,17.99 -10.2,35.38 -10.2,52.18 0,26.79 7,40.18 20.99,40.18 9.2,0 19.4,-6.39 30.59,-19.19 11.2,-12.79 20.39,-29.19 27.59,-49.18 7.2,-17.99 10.8,-34.99 10.8,-50.98 0,-25.59 -7.2,-38.39 -21.59,-38.39zm537.39 266.3c10.8,0.4 19.4,-3.19 25.79,-10.79l18 53.38c-18.8,19.99 -45.79,30.79 -80.97,32.39 -23.19,0 -42.19,-8.2 -56.98,-24.59 -12.8,-13.6 -19.39,-27.99 -19.79,-43.19 0,3.2 1.79,-13.59 5.39,-50.38l49.79 -191.93c0.79,-2 1.19,-4 1.19,-6 0,-6.79 -3.19,-11.99 -9.59,-15.59 -2.8,-2.4 -6,-3.6 -9.6,-3.6 -7.2,0 -14.99,3.4 -23.39,10.2 -12.4,9.99 -18.79,15.19 -19.19,15.59 -6,5.6 -10.8,12.2 -14.4,19.79l-44.98 171.54 -83.37 0 50.38 -188.93c0.4,-2 0.6,-4 0.6,-6 0,-6.8 -3.2,-11.99 -9.6,-15.59 -2.39,-2.4 -5.59,-3.6 -9.59,-3.6 -6.8,0 -14.6,3.4 -23.39,10.19 -14.4,11.6 -22.99,19.2 -25.79,22.8 -7.2,9.19 -12.4,22.79 -15.6,40.78l-0.6 0 -37.18 140.35 -82.77 0 74.37 -283.1 82.77 0 -6 22.2c23.59,-14.4 46.38,-21.6 68.38,-21.6 7.99,0 14.59,1 19.79,3 18.39,8 31.59,19.6 39.58,34.79 31.59,-27.19 62.98,-40.79 94.17,-40.79 7.6,0 14.19,1 19.79,3 32.79,14.4 49.18,38.79 49.18,73.18 0,6.39 -0.6,12.19 -1.8,17.39l-50.38 191.93c-0.4,17.19 2.2,28.99 7.8,35.39 3.6,4.4 9.6,6.99 17.99,7.79zm99.56 -73.77l-8.39 31.19 -82.77 0 111.56 -425.24 83.37 0 -43.79 165.54c21.19,-16.4 41.99,-24.6 62.38,-24.6 9.2,0 17.59,1.6 25.19,4.8 31.99,13.6 47.98,44.59 47.98,92.97 0,27.19 -6,54.58 -17.99,82.17 -13.2,31.19 -31.09,56.48 -53.68,75.87 -22.59,19.39 -45.08,29.09 -67.48,29.09 -23.99,0 -42.78,-10.6 -56.38,-31.79zm94.77 -196.13c-9.6,0 -19.99,6.2 -31.19,18.6 -11.19,12.39 -20.39,28.09 -27.59,47.08 -7.2,18.99 -10.79,36.49 -10.79,52.48 0,26.79 7.79,40.19 23.39,40.19 9.59,0 19.99,-6.2 31.18,-18.6 11.2,-12.39 20.6,-28.39 28.19,-47.98 6.8,-18.39 10.2,-35.59 10.2,-51.58 0,-26.79 -7.8,-40.19 -23.39,-40.19zm189.53 160.74c2.4,2 5.79,3 10.19,3 7.2,0 15.8,-2.4 25.79,-7.19 12,-6 21.8,-18 29.39,-35.99l46.19 -176.94 82.77 0 -73.78 285.5 -83.37 0 4.8 -17.39c-23.99,12.79 -48.38,19.19 -73.17,19.19 -5.2,0 -9.6,-0.2 -13.2,-0.6 -32.79,-8.4 -49.18,-32.39 -49.18,-71.97 0,-6.8 0.6,-13.2 1.8,-19.2l51.58 -195.53 82.77 0 -51.58 195.53c-0.4,2 -0.6,4 -0.6,6 0,6.8 3.2,12 9.6,15.59zm395.25 -213.52l-18.59 77.97c-10.39,-5.99 -20.19,-8.99 -29.39,-8.99 -21.19,0 -37.78,14.59 -49.78,43.78l-44.98 166.74 -82.77 0 76.17 -283.1 82.77 0 -4.8 18c19.59,-12.4 37.39,-18.6 53.38,-18.6 7.2,0 13.2,1.4 17.99,4.2zm33 276.5c-37.59,-18.39 -56.38,-53.58 -56.38,-105.56 0,-27.99 6.6,-55.38 19.79,-82.17 14,-29.19 32.99,-52.48 56.98,-69.87 23.99,-17.4 48.38,-26.09 73.17,-26.09 14.4,0 27.79,3.19 40.19,9.59 37.59,18 56.38,52.98 56.38,104.96 0,27.99 -6.6,55.38 -19.79,82.17 -14,29.19 -32.99,52.48 -56.98,69.88 -23.99,17.39 -48.38,26.09 -73.18,26.09 -14.39,0 -27.79,-3 -40.18,-9zm94.16 -218.92c-9.19,0 -19.39,5.7 -30.58,17.1 -11.2,11.39 -20.8,26.69 -28.79,45.88 -8.4,20.39 -12.6,39.78 -12.6,58.18 0,26.39 7.6,39.58 22.79,39.58 9.2,0 19.4,-5.6 30.59,-16.79 11.2,-11.2 20.89,-26.69 29.09,-46.48 8.2,-19.8 12.3,-38.89 12.3,-57.28 0,-26.79 -7.6,-40.19 -22.8,-40.19zm402.46 -103.76c6,1.2 11.79,1.8 17.39,1.8 31.99,0 56.58,-17.19 73.78,-51.58 -15.6,18.39 -42.59,27.59 -80.98,27.59 -7.59,0 -15.59,-0.4 -23.99,-1.2l15 -57.58c35.98,1.2 63.77,-4.2 83.37,-16.19 33.59,-24 66.97,-35.99 100.16,-35.99 41.99,0 75.57,18.19 100.76,54.58l-18.59 70.77c-4.8,-7.59 -10.2,-14.19 -16.19,-19.79 -13.6,-13.6 -27.99,-20.59 -43.19,-20.99 -4.8,-1.2 -9.79,-1.8 -14.99,-1.8 -44.79,0 -82.97,40.58 -114.56,121.75 -12.8,33.19 -19.19,65.98 -19.19,98.37 0,45.58 10.19,73.77 30.59,84.57 3.59,2 9.39,3.99 17.39,5.99 35.59,0.4 69.17,-13.19 100.76,-40.78l-23.39 89.37c-32.39,22.39 -64.58,33.58 -96.56,33.58 -20.8,0 -39.99,-4.79 -57.58,-14.39 -24.39,-13.6 -43.19,-34.59 -56.38,-62.98 -13.2,-28.39 -19.79,-60.78 -19.79,-97.16 0,-57.98 15.39,-113.96 46.18,-167.94zm284.9 322.68c-37.59,-18.39 -56.38,-53.58 -56.38,-105.56 0,-27.99 6.6,-55.38 19.79,-82.17 14,-29.19 32.99,-52.48 56.98,-69.87 23.99,-17.4 48.38,-26.09 73.17,-26.09 14.4,0 27.79,3.19 40.19,9.59 37.59,18 56.38,52.98 56.38,104.96 0,27.99 -6.6,55.38 -19.79,82.17 -14,29.19 -32.99,52.48 -56.98,69.88 -23.99,17.39 -48.38,26.09 -73.18,26.09 -14.39,0 -27.79,-3 -40.18,-9zm94.16 -218.92c-9.19,0 -19.39,5.7 -30.58,17.1 -11.2,11.39 -20.8,26.69 -28.79,45.88 -8.4,20.39 -12.6,39.78 -12.6,58.18 0,26.39 7.6,39.58 22.79,39.58 9.2,0 19.4,-5.6 30.59,-16.79 11.2,-11.2 20.89,-26.69 29.09,-46.48 8.2,-19.8 12.3,-38.89 12.3,-57.28 0,-26.79 -7.6,-40.19 -22.8,-40.19zm304.69 -57.58l-18.59 77.97c-10.39,-5.99 -20.19,-8.99 -29.39,-8.99 -21.19,0 -37.78,14.59 -49.78,43.78l-44.98 166.74 -82.77 0 76.17 -283.1 82.77 0 -4.8 18c19.59,-12.4 37.39,-18.6 53.38,-18.6 7.2,0 13.2,1.4 17.99,4.2zm64.19 279.5l-82.77 0 57.58 -221.92 -37.79 0 16.19 -61.78 37.79 0 32.39 -122.95 82.77 0 -31.79 122.95 52.18 0 -16.79 61.78 -51.58 0 -58.18 221.92zm170.33 -94.77c2.8,17.2 8.6,27.79 17.39,31.79 2.4,1.6 5.4,3.2 9,4.8 28.79,0.4 53.78,-10.19 74.97,-31.79l-20.99 80.37c-16.79,10.8 -34.79,16.2 -53.98,16.2 -16.79,0 -33.59,-4.2 -50.38,-12.6 -36.79,-17.99 -55.18,-52.38 -55.18,-103.16 0,-27.19 6.4,-53.98 19.19,-80.37 14,-28.79 33.39,-51.88 58.18,-69.28 24.79,-17.39 49.78,-26.09 74.97,-26.09 14,0 26.99,2.8 38.99,8.4 31.59,10.8 47.38,34.79 47.38,71.98 0,6.79 -0.6,12.99 -1.8,18.59 -5.59,25.19 -20.79,47.38 -45.58,66.57 -24.79,19.2 -51.78,28.79 -80.97,28.79 -10.8,0 -21.19,-1.4 -31.19,-4.2zm4.8 -52.18c7.6,1.6 15.19,2.4 22.79,2.4 19.99,0 36.39,-4.8 49.18,-14.39 13.2,-11.6 19.8,-23.19 19.8,-34.79 0,-6.4 -2.4,-12.59 -7.2,-18.59 -4.8,-6 -10.4,-9 -16.8,-9 -13.99,0 -28.19,9.2 -42.58,27.59 -12,15.2 -20.39,30.79 -25.19,46.78zm27.59 -174.53l15.59 -46.19 119.36 -36.58 -18.59 68.37 -116.36 14.4zm340.07 118.15c-22.79,-16.39 -49.58,-24.59 -80.37,-24.59 -6.8,0 -13.59,2.2 -20.39,6.6 -6.8,4.4 -10.2,9.8 -10.2,16.2 0,6.39 8.6,13.99 25.79,22.79 23.99,11.99 39.99,21.19 47.98,27.59 16.8,13.99 25.19,30.79 25.19,50.38 0,33.99 -11.39,61.28 -34.18,81.87 -22.79,20.59 -51.38,30.89 -85.77,30.89 -11.6,0 -27.99,-2.4 -49.18,-7.2 -23.19,-4.8 -38.19,-9.8 -44.99,-14.99l16.8 -66.58c21.99,12.79 48.38,19.19 79.17,19.19 26.39,0 39.58,-7.39 39.58,-22.19 0,-11.2 -7.89,-21.19 -23.69,-29.99 -15.79,-8.8 -31.49,-17.39 -47.08,-25.79 -16.39,-12.39 -24.59,-27.99 -24.59,-46.78 0,-30.79 11.99,-56.58 35.99,-77.37 22.79,-19.6 49.78,-29.39 80.97,-29.39 35.58,0 64.17,7.39 85.76,22.19l-16.79 67.17z"/>
 </g>
</svg>
