<?xml version="1.0" encoding="UTF-8"?>
<!DOCTYPE svg PUBLIC "-//W3C//DTD SVG 1.1//EN" "http://www.w3.org/Graphics/SVG/1.1/DTD/svg11.dtd">
<!-- Creator: CorelDRAW 2017 -->
<svg xmlns="http://www.w3.org/2000/svg" xml:space="preserve" width="65.1932mm" height="15.8326mm" version="1.1" style="shape-rendering:geometricPrecision; text-rendering:geometricPrecision; image-rendering:optimizeQuality; fill-rule:evenodd; clip-rule:evenodd"
viewBox="0 0 6519.32 1583.26"
 xmlns:xlink="http://www.w3.org/1999/xlink">
 <defs>
  <style type="text/css">
   <![CDATA[
    .fil1 {fill:#01A0C7}
    .fil0 {fill:#373435;fill-rule:nonzero}
   ]]>
  </style>
 </defs>
 <g id="Capa_x0020_1">
  <metadata id="CorelCorpID_0Corel-Layer"/>
  <path class="fil0" d="M697.01 993.56l57.73 0 0 -100.26 -57.73 100.26zm57.73 62.58l-93.58 0 -30.99 54.08 -83.24 0 201.12 -339.67c21.47,-9.72 36.67,-24.91 45.58,-45.57 -20.66,19.04 -45.17,28.56 -73.53,28.56 -5.67,0 -11.34,-0.61 -17.01,-1.82l15.8 -58.33c6.48,1.21 12.76,1.82 18.84,1.82 31.59,0 57.72,-13.17 78.38,-39.5l32.81 -55.29 0 509.8 -94.18 0 0 -54.08zm344.53 -229.08l-18.84 79c-10.53,-6.08 -20.46,-9.12 -29.77,-9.12 -21.47,0 -38.28,14.79 -50.44,44.36l-45.57 168.92 -83.85 0 77.17 -286.8 83.85 0 -4.86 18.23c19.85,-12.56 37.87,-18.84 54.08,-18.84 7.29,0 13.37,1.42 18.23,4.25zm23.7 282.55c-32.81,-14.18 -49.22,-46.79 -49.22,-97.83 0,-28.35 6.08,-56.71 18.23,-85.06 13.37,-31.6 31.6,-57.43 54.69,-77.48 23.09,-20.05 46.18,-30.07 69.27,-30.07 22.68,0 40.71,9.31 54.08,27.95l6.68 -24.92 82.03 0 -52.86 204.17c-0.81,2.83 -1.22,5.47 -1.22,7.9 0,8.1 4.66,12.15 13.98,12.15 5.26,0 11.14,-1.22 17.62,-3.65l-15.19 53.47c-21.07,14.18 -40.51,21.27 -58.33,21.27 -20.26,0 -37.27,-9.11 -51.05,-27.34 -21.06,16.2 -41.92,24.3 -62.58,24.3 -9.32,0 -18.03,-1.62 -26.13,-4.86zm101.47 -225.43c-9.72,0 -20.15,6.08 -31.29,18.23 -11.14,12.15 -20.35,28.15 -27.65,48 -6.88,18.23 -10.33,35.85 -10.33,52.87 0,27.14 7.09,40.71 21.27,40.71 9.32,0 19.65,-6.48 30.99,-19.45 11.34,-12.96 20.66,-29.57 27.95,-49.82 7.29,-18.23 10.94,-35.45 10.94,-51.65 0,-25.93 -7.29,-38.89 -21.88,-38.89zm544.44 269.79c10.94,0.4 19.65,-3.24 26.13,-10.94l18.23 54.08c-19.04,20.26 -46.38,31.19 -82.03,32.81 -23.49,0 -42.74,-8.3 -57.72,-24.91 -12.97,-13.77 -19.65,-28.36 -20.06,-43.75 0,3.24 1.83,-13.77 5.47,-51.04l50.44 -194.44c0.81,-2.03 1.21,-4.05 1.21,-6.08 0,-6.88 -3.24,-12.15 -9.72,-15.8 -2.84,-2.43 -6.08,-3.64 -9.72,-3.64 -7.29,0 -15.19,3.44 -23.7,10.33 -12.56,10.12 -19.04,15.39 -19.44,15.8 -6.08,5.67 -10.94,12.35 -14.59,20.05l-45.57 173.78 -84.46 0 51.04 -191.4c0.41,-2.03 0.61,-4.05 0.61,-6.08 0,-6.89 -3.24,-12.15 -9.72,-15.8 -2.43,-2.43 -5.68,-3.64 -9.73,-3.64 -6.88,0 -14.78,3.44 -23.69,10.33 -14.59,11.74 -23.3,19.44 -26.13,23.09 -7.29,9.31 -12.56,23.09 -15.8,41.31l-0.61 0 -37.67 142.19 -83.85 0 75.34 -286.8 83.86 0 -6.08 22.48c23.9,-14.58 46.99,-21.87 69.27,-21.87 8.1,0 14.78,1.01 20.05,3.03 18.63,8.11 32,19.85 40.1,35.25 32.01,-27.55 63.81,-41.32 95.4,-41.32 7.7,0 14.38,1.01 20.05,3.04 33.22,14.58 49.83,39.29 49.83,74.13 0,6.48 -0.61,12.35 -1.82,17.62l-51.04 194.44c-0.41,17.42 2.22,29.37 7.9,35.85 3.64,4.46 9.72,7.09 18.22,7.9zm100.87 -74.74l-8.5 31.6 -83.86 0 113.02 -430.81 84.46 0 -44.35 167.7c21.47,-16.6 42.53,-24.91 63.19,-24.91 9.32,0 17.82,1.62 25.52,4.86 32.41,13.78 48.61,45.17 48.61,94.18 0,27.55 -6.08,55.3 -18.23,83.25 -13.37,31.6 -31.49,57.22 -54.38,76.87 -22.89,19.64 -45.68,29.47 -68.36,29.47 -24.31,0 -43.34,-10.74 -57.12,-32.21zm96.01 -198.69c-9.72,0 -20.26,6.27 -31.6,18.83 -11.34,12.56 -20.66,28.46 -27.95,47.7 -7.29,19.24 -10.94,36.97 -10.94,53.17 0,27.14 7.9,40.71 23.7,40.71 9.72,0 20.26,-6.28 31.6,-18.84 11.34,-12.55 20.86,-28.76 28.56,-48.61 6.88,-18.63 10.33,-36.05 10.33,-52.25 0,-27.14 -7.9,-40.71 -23.7,-40.71zm192.01 162.84c2.43,2.03 5.87,3.04 10.33,3.04 7.29,0 16,-2.43 26.13,-7.29 12.15,-6.08 22.07,-18.23 29.77,-36.46l46.79 -179.25 83.85 0 -74.74 289.23 -84.46 0 4.86 -17.62c-24.3,12.96 -49.01,19.44 -74.13,19.44 -5.26,0 -9.72,-0.2 -13.36,-0.6 -33.22,-8.51 -49.83,-32.82 -49.83,-72.92 0,-6.89 0.61,-13.37 1.82,-19.44l52.26 -198.09 83.85 0 -52.25 198.09c-0.41,2.02 -0.61,4.05 -0.61,6.07 0,6.89 3.24,12.15 9.72,15.8zm400.43 -216.32l-18.84 79c-10.53,-6.08 -20.46,-9.12 -29.77,-9.12 -21.47,0 -38.28,14.79 -50.44,44.36l-45.57 168.92 -83.85 0 77.17 -286.8 83.85 0 -4.86 18.23c19.85,-12.56 37.87,-18.84 54.08,-18.84 7.29,0 13.37,1.42 18.23,4.25zm33.42 280.12c-38.08,-18.63 -57.11,-54.28 -57.11,-106.94 0,-28.36 6.68,-56.11 20.05,-83.25 14.18,-29.57 33.42,-53.16 57.72,-70.79 24.31,-17.62 49.02,-26.43 74.13,-26.43 14.59,0 28.16,3.24 40.71,9.72 38.08,18.23 57.12,53.68 57.12,106.34 0,28.36 -6.68,56.1 -20.05,83.25 -14.18,29.57 -33.42,53.16 -57.73,70.78 -24.3,17.63 -49.01,26.44 -74.13,26.44 -14.58,0 -28.15,-3.04 -40.71,-9.12zm95.4 -221.78c-9.32,0 -19.65,5.77 -30.99,17.31 -11.34,11.55 -21.06,27.04 -29.16,46.49 -8.51,20.66 -12.77,40.3 -12.77,58.94 0,26.73 7.7,40.1 23.09,40.1 9.32,0 19.65,-5.67 30.99,-17.01 11.35,-11.34 21.17,-27.04 29.47,-47.09 8.31,-20.06 12.46,-39.4 12.46,-58.03 0,-27.14 -7.7,-40.71 -23.09,-40.71z"/>
  <path class="fil1" d="M1908.25 421.49c72.57,79.18 227.5,106.08 345.54,143.03 119.67,37.47 231.71,105.42 361.09,148.73 350.35,117.31 201.07,166.92 384.35,362.78 78.97,84.39 110.98,24.78 154.05,-24.91 -21.39,-3.68 -29.93,11.76 -68.81,-10.45l-16.02 -181.13c259.71,31.65 518.59,79.88 785.04,53.79l4.62 -16.98c35.48,-96.69 57.44,-66.47 117.8,-60 11.94,-117.59 -20.79,-113.85 80.84,-122.96 -48.09,-48.68 -43.7,-76.56 42.2,-119.33 -20.43,-19.36 -43.69,-58.9 -114.45,-24.57l-313.14 179.19c-3.45,-2.66 -8.33,-11.81 -9.78,-8.68l-29.42 -24.97c-59.02,-45.66 -197.99,-104.44 -258.23,-109.16 -122.04,-9.55 -41.28,1.24 -67.18,16.49 -66.26,39.04 41.17,59.67 -134.1,18.09 84.4,-135.05 191.78,-195.87 268.12,-348.35l-324.81 192.87c-194.86,102.79 -135.67,95.22 -371.5,25.89 -257.14,-75.6 -563.44,-212.26 -836.21,-89.37z"/>
  <path class="fil1" d="M5887.11 1290.51c-257.71,175.02 -1592.13,-314.61 -1803.63,-313.91l1149.84 360.15c204.43,59.91 394.73,113.59 604.4,159.65 106.44,23.39 207.79,45.93 318.98,62.52 88.37,13.18 303.01,58.98 356.19,-33.33 157.62,-273.63 -2601.4,-1458.17 -3077.95,-1524.28l1319.87 556.75c213.89,106.46 1116.14,511.58 1132.3,732.45z"/>
  <path class="fil1" d="M4325.35 947.49c108.18,81.31 1037.09,343.79 1182.63,257.1 -0.37,-183 -574.67,-443.19 -705.94,-512.2 -195.53,-102.78 -667.63,-324.81 -882.93,-368.6 36.65,37.86 73.5,48.75 126.77,69.94 142.59,56.72 1670.45,784.48 884.71,680.4 -196.85,-26.07 -432.84,-112.72 -605.24,-126.64z"/>
  <path class="fil0" d="M263.63 257.5l0 296.06 0 0 -63.23 -1.47 1.47 -221.55 -43.13 223.02 -52.45 0 0 -0.49 -1.47 0 -45.1 -216.16 0 216.16 -59.8 0 0 -296.06 100.49 0 30.39 188.71 31.86 -188.22 100.97 0zm29.41 87.74l61.76 0 0 208.32 -61.76 0 0 -208.32zm61.76 -44.6c0,8.49 -3.02,15.76 -9.06,21.81 -6.05,6.04 -13.32,9.07 -21.82,9.07 -8.49,0 -15.76,-3.03 -21.81,-9.07 -6.04,-6.05 -9.07,-13.32 -9.07,-21.81 0,-8.83 3.03,-16.26 9.07,-22.31 6.05,-6.04 13.32,-9.06 21.81,-9.06 8.5,0 15.77,3.02 21.82,9.06 6.04,6.05 9.06,13.48 9.06,22.31zm176.46 273.02c0,15.35 -5.39,28.43 -16.17,39.21 -10.79,10.78 -23.7,16.17 -38.73,16.17l-78.91 0 0 -43.13 71.56 0 0 -32.84 -28.92 0c-13.4,0 -25.16,-4.33 -35.29,-12.99 -10.13,-8.66 -16.34,-19.52 -18.63,-32.6l-0.98 0 0 -107.83c0,-15.03 5.39,-27.94 16.18,-38.72 10.78,-10.79 23.69,-16.18 38.72,-16.18l91.17 0 0 228.91zm-62.25 -63.23l0 -123.03 -10.78 0c-7.52,0 -11.28,4.57 -11.28,13.72l0 95.09c0,9.48 3.76,14.22 11.28,14.22l10.78 0zm176.46 -167.15l62.25 0 0 208.32 -91.17 0c-15.03,0 -27.94,-5.39 -38.72,-16.18 -10.79,-10.78 -16.18,-23.85 -16.18,-39.21l0 -152.93 61.76 0 0 151.46c0,9.15 3.76,13.73 11.28,13.73l10.78 0 0 -165.19zm181.85 1.47c15.36,0 28.43,5.48 39.22,16.42 10.78,10.95 16.17,23.94 16.17,38.97l0 64.7 -84.31 0 0 31.86c0,9.15 3.76,13.73 11.28,13.73 7.19,0 10.78,-4.58 10.78,-13.73l0 -16.66 62.25 0 0 18.13c0,15.03 -5.39,27.94 -16.17,38.72 -10.79,10.79 -23.86,16.18 -39.22,16.18l-35.78 0c-15.03,0 -27.94,-5.39 -38.72,-16.18 -10.79,-10.78 -16.18,-23.69 -16.18,-38.72l0 -98.03c0,-15.03 5.39,-28.02 16.18,-38.97 10.78,-10.94 23.69,-16.42 38.72,-16.42l35.78 0zm-6.86 60.78c0,-9.15 -3.59,-13.72 -10.78,-13.72 -7.52,0 -11.28,4.57 -11.28,13.72l0 18.63 22.06 0 0 -18.63zm88.23 -143.13l61.76 0 0 291.16 -61.76 0 0 -291.16zm292.63 290.67l-6.86 -48.04 -45.59 0 -7.35 48.04 -59.31 0 54.41 -294.59 72.54 0 51.96 294.59 -59.8 0zm-42.15 -102.93l24.5 0 -12.25 -117.64 -12.25 117.64zm9.8 -210.77l-38.72 0 27.45 -54.9 55.38 0 -44.11 54.9zm181.35 312.23l-62.25 0 0 -208.32 91.17 0c15.03,0 27.94,5.39 38.73,16.18 10.78,10.78 16.17,23.85 16.17,39.21l0 152.93 -61.76 0 0 -151.46c0,-9.48 -3.76,-14.21 -11.27,-14.21l-10.79 0 0 165.67zm259.3 22.06c0,15.35 -5.39,28.43 -16.17,39.21 -10.79,10.78 -23.7,16.17 -38.73,16.17l-78.91 0 0 -43.13 71.56 0 0 -32.84 -28.92 0c-13.4,0 -25.16,-4.33 -35.29,-12.99 -10.13,-8.66 -16.34,-19.52 -18.63,-32.6l-0.98 0 0 -107.83c0,-15.03 5.39,-27.94 16.18,-38.72 10.78,-10.79 23.69,-16.18 38.72,-16.18l91.17 0 0 228.91zm-62.25 -63.23l0 -123.03 -10.78 0c-7.52,0 -11.28,4.57 -11.28,13.72l0 95.09c0,9.48 3.76,14.22 11.28,14.22l10.78 0zm181.85 -165.68c15.36,0 28.43,5.48 39.22,16.42 10.78,10.95 16.17,23.94 16.17,38.97l0 64.7 -84.31 0 0 31.86c0,9.15 3.76,13.73 11.28,13.73 7.19,0 10.78,-4.58 10.78,-13.73l0 -16.66 62.25 0 0 18.13c0,15.03 -5.39,27.94 -16.17,38.72 -10.79,10.79 -23.86,16.18 -39.22,16.18l-35.78 0c-15.03,0 -27.94,-5.39 -38.72,-16.18 -10.79,-10.78 -16.18,-23.69 -16.18,-38.72l0 -98.03c0,-15.03 5.39,-28.02 16.18,-38.97 10.78,-10.94 23.69,-16.42 38.72,-16.42l35.78 0zm-6.86 60.78c0,-9.15 -3.59,-13.72 -10.78,-13.72 -7.52,0 -11.28,4.57 -11.28,13.72l0 18.63 22.06 0 0 -18.63zm88.23 -143.13l61.76 0 0 291.16 -61.76 0 0 -291.16z"/>
  <path class="fil0" d="M2006.44 1376.85l60.13 0 0 47.83c0,14.52 -5.28,26.91 -15.86,37.17 -10.57,10.26 -23.12,15.39 -37.64,15.39l-34.57 0c-14.83,0 -27.46,-5.13 -37.88,-15.39 -10.42,-10.26 -15.62,-22.65 -15.62,-37.17l0 -180.41c0,-14.52 5.2,-26.99 15.62,-37.41 10.42,-10.41 23.05,-15.62 37.88,-15.62l34.57 0c14.52,0 27.07,5.21 37.64,15.62 10.58,10.42 15.86,22.89 15.86,37.41l0 42.62 -60.13 0 0 -38.83c0,-8.84 -3.63,-13.26 -10.89,-13.26 -6.95,0 -10.42,4.42 -10.42,13.26l0 175.2c0,8.84 3.47,13.25 10.42,13.25 7.26,0 10.89,-4.41 10.89,-13.25l0 -46.41zm84.75 -48.77c0,-14.84 5.21,-27.46 15.63,-37.88 10.42,-10.42 22.89,-15.63 37.41,-15.63l34.56 0c14.84,0 27.47,5.21 37.88,15.63 10.42,10.42 15.63,23.04 15.63,37.88l0 94.7c0,14.52 -5.21,26.99 -15.63,37.41 -10.41,10.42 -23.04,15.63 -37.88,15.63l-34.56 0c-14.52,0 -26.99,-5.21 -37.41,-15.63 -10.42,-10.42 -15.63,-22.89 -15.63,-37.41l0 -94.7zm59.67 93.28c0,8.84 3.63,13.26 10.89,13.26 6.94,0 10.41,-4.42 10.41,-13.26l0 -88.07c0,-8.84 -3.47,-13.26 -10.41,-13.26 -7.26,0 -10.89,4.42 -10.89,13.26l0 88.07zm162.88 -94.23l0.47 148.69 -62.98 0 0 -200.77 88.08 0c14.52,0 27.07,5.21 37.64,15.62 10.58,10.42 15.86,22.89 15.86,37.41l0 44.98 -57.29 0 0 -32.67c0,-8.84 -3.63,-13.26 -10.89,-13.26l-10.89 0zm176.14 106.07l33.15 0 0 41.67 -50.67 0c-14.52,0 -26.99,-5.29 -37.4,-15.86 -10.42,-10.58 -15.63,-23.13 -15.63,-37.65l0 -229.18 59.66 0 0 80.97 38.83 0 0 40.25 -38.83 0 0 106.54c0,8.84 3.63,13.26 10.89,13.26zm140.16 -157.68c14.84,0 27.47,5.29 37.88,15.86 10.42,10.58 15.63,23.13 15.63,37.65l0 62.5 -81.45 0 0 30.78c0,8.84 3.63,13.26 10.9,13.26 6.94,0 10.41,-4.42 10.41,-13.26l0 -16.1 60.14 0 0 17.52c0,14.52 -5.21,26.99 -15.63,37.41 -10.41,10.41 -23.04,15.62 -37.88,15.62l-34.56 0c-14.53,0 -26.99,-5.21 -37.41,-15.62 -10.42,-10.42 -15.63,-22.89 -15.63,-37.41l0 -94.7c0,-14.52 5.21,-27.07 15.63,-37.65 10.42,-10.57 22.88,-15.86 37.41,-15.86l34.56 0zm-6.63 58.72c0,-8.84 -3.47,-13.26 -10.41,-13.26 -7.27,0 -10.9,4.42 -10.9,13.26l0 17.99 21.31 0 0 -17.99zm-13.26 -79.08l-37.4 0 26.99 -53.51 53.03 0 -42.62 53.51zm185.62 18.94c14.52,0 26.99,5.21 37.4,15.63 10.42,10.41 15.63,22.88 15.63,37.4l0 19.89 -59.66 0 0 -14.2c0,-9.16 -3.63,-13.74 -10.89,-13.74 -6.95,0 -10.42,4.58 -10.42,13.74l0 22.25 40.72 0c11.05,0 20.52,4.81 28.41,14.44 7.89,9.63 11.84,21.07 11.84,34.33l0 18c0,14.83 -5.21,27.46 -15.63,37.88 -10.41,10.41 -22.88,15.62 -37.4,15.62l-34.57 0c-14.84,0 -27.46,-5.21 -37.88,-15.62 -10.42,-10.42 -15.63,-23.05 -15.63,-37.88l0 -14.68 60.14 0 0 13.26c0,9.15 3.47,13.73 10.42,13.73 7.26,0 10.89,-4.58 10.89,-13.73l0 -20.84 -0.48 -0.47 -40.24 0c-11.05,0 -20.6,-4.34 -28.65,-13.02 -8.05,-8.69 -12.08,-19.02 -12.08,-31.02l0 -27.94c0,-14.52 5.21,-26.99 15.63,-37.4 10.42,-10.42 23.04,-15.63 37.88,-15.63l34.57 0z"/>
 </g>
</svg>
