<?xml version="1.0" encoding="UTF-8"?>
<!DOCTYPE svg PUBLIC "-//W3C//DTD SVG 1.1//EN" "http://www.w3.org/Graphics/SVG/1.1/DTD/svg11.dtd">
<!-- Creator: CorelDRAW 2017 -->
<svg xmlns="http://www.w3.org/2000/svg" xml:space="preserve" width="140.46mm" height="46.32mm" version="1.1" style="shape-rendering:geometricPrecision; text-rendering:geometricPrecision; image-rendering:optimizeQuality; fill-rule:evenodd; clip-rule:evenodd"
viewBox="0 0 14046 4632"
 xmlns:xlink="http://www.w3.org/1999/xlink">
 <defs>
  <style type="text/css">
   <![CDATA[
    .fil0 {fill:#435176}
    .fil1 {fill:#9DB9C5}
    .fil2 {fill:#373435;fill-rule:nonzero}
   ]]>
  </style>
 </defs>
 <g id="Capa_x0020_1">
  <metadata id="CorelCorpID_0Corel-Layer"/>
  <g id="_1888328835296">
   <path class="fil0" d="M10615.4 1699.9c-46.94,140.37 -328.62,818.87 -393.97,914.65 -130.42,191.16 -807.8,194.15 -1064.82,128.3l32.4 -352.27c-115.22,40.67 -153.57,182.85 -229.05,279.7 -208.99,-69.43 -422.7,-301.69 -623.26,-286.22 140.34,183.5 375.26,322.46 482.88,527.68 -142.14,190.06 -333.82,301.68 -561.21,516.52 219.14,-12.69 491.07,-315.87 652.56,-352.11 54.6,-12.25 275.74,83.49 368.62,108.17 151.03,40.14 299.36,52.23 454.95,75.8 -152.64,289.56 -1025.1,1047.25 -1338.98,1322.54l-275.51 -166.49c307.1,420.9 401.14,167.38 970.73,-252.68 242.82,-179.07 482.25,-368.95 715.89,-548.11 22.91,16.81 276.3,280.48 495.39,98.04 232.94,-193.98 -225.5,-258.45 -264.8,-282.22 156.91,-50.27 159.13,-99.26 356.68,-152.08 185.64,-49.63 224.56,-53.52 428.13,-68.61 284.14,-21.06 567.29,-91.06 700.36,-271.64 -70.74,-136.22 -246.45,-209.48 -445.76,-250.35l-72.84 -203.98 -376.51 -3.03 105.16 -846.8c-118.67,-57.74 -197.46,-139.27 -316.45,-167.05l199.41 232.24z"/>
   <path class="fil1" d="M10617.36 538c418.6,-146.83 715,-380.46 1269.95,-385.51 634.21,-5.78 815.97,259.68 1047.16,622.77 -253.34,134.41 -657.37,337.68 -795.09,607.1l-610.62 50.7c-123.02,-452.02 -702.88,-515.54 -1192.96,-411.56 -174.62,-193.71 -231.33,-407.07 -634.86,-381.64 -303.67,19.14 -554.69,204.61 -697.89,354.56 303.72,-109.59 824.77,-519.04 1158.36,74.73 -99.96,90.38 -275.11,163.28 -396.62,239.5 -145.35,91.16 -230.61,182.36 -344.51,283.35 -228.63,-181.38 -270.04,-388.49 -742.51,-381.38 -429.48,6.47 -922.01,278.99 -1174.84,553.7 -327.6,355.94 -358.84,-52.99 -1007.09,438.12 -104.37,79.07 -104.8,74.82 -152.45,190.3 183.26,-96.06 235.89,-172.24 475.26,-252.66 211.03,-70.9 388.35,-77.49 624.37,-82.44 269.4,-263.88 445.61,-457.82 834.5,-614.26 413.41,-166.3 836.18,-74.32 996.32,260.77 4.08,63 -251.79,333.83 -309.44,627.03 75.34,-87.38 125.56,-188.66 196.38,-285.9 172.37,-236.7 533.18,-566.35 801.46,-713.33 491.99,-269.54 1194.47,-351.59 1432.47,160.53 -173.59,162.03 -348.52,237.8 -427.93,505.21 223.07,-131.87 298.36,-304.9 696.1,-412.12 581.33,-156.71 375.73,127.27 808.74,-322.83 171.01,-177.76 417.34,-335.54 732.28,-395.41 501.62,-95.35 578.17,85.45 841.98,295.91 -69.31,-428.38 -516.55,-513.28 -976.2,-432.02 -141.66,-407.99 -525.8,-753.2 -1112.26,-730.37 -445.97,17.37 -1089.72,302.8 -1340.06,537.15z"/>
   <path class="fil0" d="M2240.97 2444.98c413.46,638.36 5343.84,532.54 6350.93,470.77 -317.4,64.45 -3736.27,-125.08 -4267.9,-181.13 -1182.11,-124.65 -1813.77,-338.82 -256.32,-735.85 257.05,-65.53 916.55,-160.31 1089.08,-262.92 -465.95,8.09 -1120.26,147.75 -1582.81,227.19 -321.41,55.2 -768.06,154.5 -1071.87,268.1 -151.26,56.56 -213.86,71.93 -261.11,213.84z"/>
   <path class="fil2" d="M220.42 1136.4l-68.37 -493.89 -83.55 532.66 -68.37 -13.45 118.69 -692.02 60.77 -60.77 46.68 400.85 50.17 -341.98 62.66 -60.77 100.65 752.95 -65.36 13.29 -64.72 -532.82 -89.25 495.95zm288.64 23.58l0 -439.61 73.11 0 0 439.61 -73.11 0zm76.75 -658.15l-37.82 109.5 -43.52 -109.5 81.34 0zm163.31 440.72c1.26,49.53 7.28,86.56 18.04,111.09 10.6,24.68 30.7,37.34 59.82,37.98 28.48,0 47.79,-11.08 57.91,-33.24 9.5,-21.52 14.25,-53.17 14.25,-94.94l0 -23.74c-1.27,-50.64 -5.38,-87.67 -12.35,-111.25 -7.59,-23.26 -28.17,-35.29 -61.71,-35.92 -49.38,0 -75.33,46.52 -77.86,139.57 1.26,2.53 1.9,6.02 1.9,10.45zm148.12 265.85l0 -74.06c-22.16,25.96 -46.05,38.93 -72.01,38.93 -0.63,0 -1.42,0 -2.21,0 -91.63,0 -138.63,-75.64 -141.32,-226.93 0,-4.9 0,-9.65 0,-14.24 0,-33.39 3.8,-66.15 11.4,-97.8 8.23,-35.28 22.94,-65.04 43.67,-89.25 20.89,-23.42 48.43,-36.08 82.61,-37.98 1.9,0 3.8,0 5.7,0 22.78,0 41.77,10.76 56.81,32.13l13.45 16.3 0 -33.23 66.46 0 0 484.39c0,64.41 -11.71,110.62 -34.97,138.63 -20.26,24.53 -52.86,36.87 -97.96,36.87 -46.2,0 -81.02,-13.61 -104.6,-40.83l33.39 -92.1c1.27,19.62 8.86,36.4 22.79,50.33 11.39,12.02 25.32,18.04 41.62,18.04 2.69,0 5.22,0 7.75,0 28.33,-2.54 46.69,-13.46 55.07,-33.08 8.23,-19.62 12.35,-44.94 12.35,-76.12zm136.72 -187.05l0 -302.88 66.46 0 0 262.06c0,36.55 3.8,65.04 11.56,85.29 7.59,21.05 26.9,31.49 57.76,31.49 29.11,0 47.47,-10.44 55.07,-31.49 7.59,-20.25 11.39,-48.74 11.39,-85.29l0 -262.06 66.47 0 0 305.57c0,48.9 -12.03,85.93 -36.08,111.25 -24.53,25.16 -55.55,38.46 -92.9,39.88 -1.9,0 -3.79,0 -5.85,0 -40.51,0 -72.48,-12.97 -95.9,-38.93 -25.32,-27.37 -37.98,-65.67 -37.98,-114.89zm624.76 -154.76l-128.18 129.92 -51.11 -50.32 101.43 -101.44 -3.8 -9.5c-13.29,-27.21 -31.65,-40.82 -55.07,-40.82 -27.85,0 -47.47,14.56 -58.86,43.51 -12.03,29.91 -18.04,64.41 -18.04,103.66 0,39.24 6.01,73.74 18.04,103.33 11.39,29.91 30.38,44.79 56.97,44.79 20.88,0 36.71,-8.86 47.47,-26.59l5.54 -8.7 65.67 37.19 -11.39 16.14c-31.65,44.94 -68.05,67.41 -109.19,67.41 -50.64,0 -87.67,-24.05 -111.25,-72.32 -22.63,-44.94 -34.03,-96.21 -34.03,-153.66 0,-3.16 0,-6.33 0,-9.49 1.27,-62.67 12.98,-116.16 35.29,-160.47 22,-43.67 58.71,-66.46 109.99,-68.36 1.26,0 2.53,0 3.79,0 22.79,0 43.36,5.7 61.56,16.93 18.36,12.66 33.71,29.12 45.74,49.38 12.02,20.89 20.57,43.99 25.47,69.31l3.96 20.1zm145.43 293.39l-67.41 0 0 -793.77 67.41 0 0 793.77zm461.77 -532.66l-91.15 545.95 -74.22 -13.29 131.03 -693.13 63.78 -61.71 132.77 754.84 -68.37 13.29 -93.84 -545.95zm0 513.67l-69.47 -92.1 137.84 0 -68.37 92.1zm477.6 -247.82l0 264.91 -64.57 0 0 -239.27 0 -13.45c0,-76.44 -18.67,-114.73 -56.02,-114.73 -53.17,0 -79.75,40.83 -79.75,122.48l0 244.97 -66.47 0 0 -449.11 66.47 0 0 42.73c22.31,-29.75 51.9,-44.63 89.09,-44.63 74.22,1.9 111.25,63.94 111.25,186.1zm139.73 49.38c1.26,49.53 7.28,86.56 18.04,111.09 10.6,24.68 30.7,37.34 59.82,37.98 28.48,0 47.79,-11.08 57.91,-33.24 9.5,-21.52 14.25,-53.17 14.25,-94.94l0 -23.74c-1.27,-50.64 -5.38,-87.67 -12.35,-111.25 -7.59,-23.26 -28.17,-35.29 -61.71,-35.92 -49.38,0 -75.33,46.52 -77.86,139.57 1.26,2.53 1.9,6.02 1.9,10.45zm148.12 265.85l0 -74.06c-22.16,25.96 -46.05,38.93 -72.01,38.93 -0.63,0 -1.42,0 -2.21,0 -91.63,0 -138.63,-75.64 -141.32,-226.93 0,-4.9 0,-9.65 0,-14.24 0,-33.39 3.8,-66.15 11.4,-97.8 8.23,-35.28 22.94,-65.04 43.67,-89.25 20.89,-23.42 48.43,-36.08 82.61,-37.98 1.9,0 3.8,0 5.7,0 22.78,0 41.77,10.76 56.81,32.13l13.45 16.3 0 -33.23 66.46 0 0 484.39c0,64.41 -11.71,110.62 -34.97,138.63 -20.26,24.53 -52.86,36.87 -97.96,36.87 -46.2,0 -81.02,-13.61 -104.6,-40.83l33.39 -92.1c1.27,19.62 8.86,36.4 22.79,50.33 11.39,12.02 25.32,18.04 41.62,18.04 2.69,0 5.22,0 7.75,0 28.33,-2.54 46.69,-13.46 55.07,-33.08 8.23,-19.62 12.35,-44.94 12.35,-76.12zm414.92 -341.81l-128.18 129.92 -51.11 -50.32 101.43 -101.44 -3.8 -9.5c-13.29,-27.21 -31.65,-40.82 -55.07,-40.82 -27.85,0 -47.47,14.56 -58.86,43.51 -12.03,29.91 -18.04,64.41 -18.04,103.66 0,39.24 6.01,73.74 18.04,103.33 11.39,29.91 30.38,44.79 56.97,44.79 20.88,0 36.71,-8.86 47.47,-26.59l5.54 -8.7 65.67 37.19 -11.39 16.14c-31.65,44.94 -68.05,67.41 -109.19,67.41 -50.64,0 -87.67,-24.05 -111.25,-72.32 -22.63,-44.94 -34.03,-96.21 -34.03,-153.66 0,-3.16 0,-6.33 0,-9.49 1.27,-62.67 12.98,-116.16 35.29,-160.47 22,-43.67 58.71,-66.46 109.99,-68.36 1.26,0 2.53,0 3.79,0 22.79,0 43.36,5.7 61.56,16.93 18.36,12.66 33.71,29.12 45.74,49.38 12.02,20.89 20.57,43.99 25.47,69.31l3.96 20.1zm145.43 293.39l-67.41 0 0 -793.77 67.41 0 0 793.77zm461.77 -532.66l-91.15 545.95 -74.22 -13.29 131.03 -693.13 63.78 -61.71 132.77 754.84 -68.37 13.29 -93.84 -545.95zm0 513.67l-69.47 -92.1 137.84 0 -68.37 92.1zm290.55 -352.42c26.58,-49.21 56.97,-73.9 91.15,-73.9l11.39 0 -24.84 72.16c-23.26,5.06 -38.77,11.39 -46.37,18.99 -9.02,8.86 -16.3,24.21 -21.84,45.58 -6.33,22.15 -9.49,47.15 -9.49,74.85l0 231.83 -64.57 0 0 -437.71 64.57 0 0 68.2zm285.8 301.15l1.74 0c28.64,0 47.63,-8.86 57.13,-26.59 8.86,-17.72 13.45,-45.26 13.45,-82.6l0 -38.93c-1.43,-53.81 -5.7,-93.05 -12.5,-117.74 -6.33,-22.15 -23.74,-33.23 -52.23,-33.23 -3.16,0 -6.33,0 -9.49,0 -15.83,0.63 -28.8,8.54 -38.93,23.74 -10.76,15.66 -18.83,35.6 -24.69,59.81 -4.43,19.63 -6.64,38.62 -6.64,56.97 0,4.43 0,8.86 0,13.3 1.9,96.84 25.95,145.27 72.16,145.27zm66.46 31.33c-21.52,33.55 -47.47,50.32 -77.86,50.32 -1.26,0 -2.53,0 -3.79,0 -42.41,-1.9 -73.11,-25 -92.1,-69.31 -18.84,-43.52 -28.96,-94.79 -30.39,-153.66 0,-4.43 0,-9.02 0,-13.45 0,-53.8 10.13,-103.81 30.39,-150.02 21.52,-50.01 53.48,-75.96 95.89,-77.86 26.59,0 48.74,10.13 66.47,30.39l15.03 16.14 0 -33.23 64.73 0 0 441.51 -68.37 0 0 -40.83zm403.54 -188.95l0 229.78 -64.57 0 0 -229.78 0 -29.43c0,-67.73 -14.87,-103.81 -44.78,-108.24 -6.17,-1.27 -11.71,-1.9 -16.93,-1.9 -25.32,0 -43.68,11.07 -55.07,33.23 -13.93,26.59 -20.89,59.5 -20.89,98.75l0 237.37 -64.57 0 0 -451.01 64.57 0 0 42.73c21.52,-29.75 50,-44.63 85.45,-44.63 38.61,0 74.06,18.04 106.19,54.12 8.22,-15.82 21.68,-29.11 40.03,-39.88 17.73,-10.76 37.67,-16.14 59.82,-16.14 28.48,0 53.17,8.23 74.06,24.85 17.25,12.66 28.17,29.43 33.23,50.32 5.07,21.36 7.6,50.17 7.6,86.4l0 291.34 -66.47 0 0 -256.36 0 -16.3c0,-58.08 -16.77,-89.1 -50.32,-92.89 -5.06,-0.64 -9.97,-0.95 -15.19,-0.95 -28.49,0 -47.16,11.39 -56.18,34.02 -10.6,26.59 -16.62,60.29 -18.04,100.96 1.42,1.27 2.06,1.74 2.06,1.74 0,0.64 0,1.27 0,1.9zm485.98 1.9c0,-3.8 0,-7.59 0,-11.39 0,-32.29 -5.06,-61.09 -15.03,-86.41 -11.4,-27.21 -29.91,-41.77 -55.23,-43.67 -2.37,0 -4.59,0 -6.65,0 -25.16,0 -42.25,9.81 -51.27,29.43 -9.34,21.52 -14.72,51.27 -15.98,89.25 1.26,6.33 1.9,14.56 1.9,24.69 0,10.76 -0.64,19.94 -1.9,27.54 1.26,43.04 6.64,75.01 15.98,95.89 8.23,18.99 24.05,28.49 47.47,28.49 2.54,0 5.39,0 8.71,0 23.26,-3.17 40.98,-14.88 53.01,-35.13 12.03,-19.63 18.36,-59.19 18.99,-118.69zm-133.72 185.15l0 38.93 -68.52 0 1.9 -791.87 64.56 0 0 383.75 15.35 -16.3c16.3,-17.72 35.61,-26.59 57.92,-26.59 1.74,0 4.12,0 6.65,0 84.03,4.43 126.12,81.98 126.12,232.63 0,148.75 -40.82,224.55 -122.32,227.88 -1.9,0 -3.8,0 -5.86,0 -32.28,0 -57.6,-16.15 -75.8,-48.43zm268.55 -97.8l0 -302.88 66.46 0 0 262.06c0,36.55 3.8,65.04 11.56,85.29 7.59,21.05 26.9,31.49 57.76,31.49 29.11,0 47.47,-10.44 55.07,-31.49 7.59,-20.25 11.39,-48.74 11.39,-85.29l0 -262.06 66.47 0 0 305.57c0,48.9 -12.03,85.93 -36.08,111.25 -24.53,25.16 -55.55,38.46 -92.9,39.88 -1.9,0 -3.79,0 -5.85,0 -40.51,0 -72.48,-12.97 -95.9,-38.93 -25.32,-27.37 -37.98,-65.67 -37.98,-114.89zm424.42 -232.78c26.58,-49.21 56.97,-73.9 91.15,-73.9l11.39 0 -24.84 72.16c-23.26,5.06 -38.77,11.39 -46.37,18.99 -9.02,8.86 -16.3,24.21 -21.84,45.58 -6.33,22.15 -9.49,47.15 -9.49,74.85l0 231.83 -64.57 0 0 -437.71 64.57 0 0 68.2zm214.59 153.03c0,39.24 5.69,73.74 17.09,103.49 11.55,29.75 32.28,44.63 62.66,44.63 51.91,0 77.86,-51.91 77.86,-155.72 0,-41.78 -4.75,-75.32 -14.08,-100.64 -10.29,-25.32 -31.49,-38.93 -63.78,-40.83 -0.63,0 -1.26,0 -1.9,0 -48.58,0 -74.53,49.69 -77.85,149.07zm79.75 -237.38c39.88,0 70.9,10.77 93.21,32.29 21.52,22.15 36.08,49.05 43.52,80.55 6.96,32.28 11.08,71.37 12.34,116.94 0,3.8 0,7.6 0,11.24 0,59.5 -10.12,111.25 -30.38,154.92 -21.52,46.21 -59.66,69.31 -114.73,69.31 -101.44,0 -152.08,-77.22 -152.08,-231.51 0,-155.88 49.38,-233.74 148.12,-233.74zm669.4 340.71l28.48 83.72 -11.39 11.39c-21.52,20.89 -50.64,31.33 -87.35,31.33 -0.64,0 -1.27,0 -2.06,0 -46.84,0 -81.82,-18.35 -105.24,-54.91 -24.68,-36.87 -40.51,-81.81 -47.47,-134.98 -6.96,-53.18 -10.45,-114.89 -10.45,-185.15 0,-74.7 3.17,-137.36 9.5,-188 5.7,-50.64 20.57,-95.27 44.47,-133.88 23.58,-37.98 60.61,-57.29 111.25,-57.92 37.82,0 67.57,11.08 89.25,33.23l9.49 9.5 -28.48 81.65 -7.6 -15.03c-13.92,-23.58 -34.81,-35.29 -62.51,-35.29 -36.87,0 -61.24,18.04 -73.27,54.28 -12.02,35.92 -18.67,86.56 -19.93,151.76 1.26,23.42 1.89,56.65 1.89,99.7 0,45.57 -0.63,81.33 -1.89,107.29 1.26,44.31 4.11,79.12 8.54,104.44 4.59,25.95 13.45,47.48 26.74,64.57 13.3,17.72 32.6,26.58 57.92,26.58 28.96,0 49.85,-12.97 62.51,-38.93l7.6 -15.35zm157.77 -103.33c0,39.24 5.69,73.74 17.09,103.49 11.55,29.75 32.28,44.63 62.66,44.63 51.91,0 77.86,-51.91 77.86,-155.72 0,-41.78 -4.75,-75.32 -14.08,-100.64 -10.29,-25.32 -31.49,-38.93 -63.78,-40.83 -0.63,0 -1.26,0 -1.9,0 -48.58,0 -74.53,49.69 -77.85,149.07zm79.75 -237.38c39.88,0 70.9,10.77 93.21,32.29 21.52,22.15 36.08,49.05 43.52,80.55 6.96,32.28 11.08,71.37 12.34,116.94 0,3.8 0,7.6 0,11.24 0,59.5 -10.12,111.25 -30.38,154.92 -21.52,46.21 -59.66,69.31 -114.73,69.31 -101.44,0 -152.08,-77.22 -152.08,-231.51 0,-155.88 49.38,-233.74 148.12,-233.74zm295.14 84.35c26.58,-49.21 56.97,-73.9 91.15,-73.9l11.39 0 -24.84 72.16c-23.26,5.06 -38.77,11.39 -46.37,18.99 -9.02,8.86 -16.3,24.21 -21.84,45.58 -6.33,22.15 -9.49,47.15 -9.49,74.85l0 231.83 -64.57 0 0 -437.71 64.57 0 0 68.2zm194.65 -4.59l-64.41 0 17.88 -61.71 46.53 0 0 -356.06 64.56 0 0 354.16 87.2 0 -21.84 63.61 -65.36 0 0 376 -64.56 0 0 -376zm474.74 82.61l-128.18 129.92 -51.11 -50.32 101.43 -101.44 -3.8 -9.5c-13.29,-27.21 -31.65,-40.82 -55.07,-40.82 -27.85,0 -47.47,14.56 -58.86,43.51 -12.03,29.91 -18.04,64.41 -18.04,103.66 0,39.24 6.01,73.74 18.04,103.33 11.39,29.91 30.38,44.79 56.97,44.79 20.88,0 36.71,-8.86 47.47,-26.59l5.54 -8.7 65.67 37.19 -11.39 16.14c-31.65,44.94 -68.05,67.41 -109.19,67.41 -50.64,0 -87.67,-24.05 -111.25,-72.32 -22.63,-44.94 -34.03,-96.21 -34.03,-153.66 0,-3.16 0,-6.33 0,-9.49 1.27,-62.67 12.98,-116.16 35.29,-160.47 22,-43.67 58.71,-66.46 109.99,-68.36 1.26,0 2.53,0 3.79,0 22.79,0 43.36,5.7 61.56,16.93 18.36,12.66 33.71,29.12 45.74,49.38 12.02,20.89 20.57,43.99 25.47,69.31l3.96 20.1zm149.23 -164.26l51.43 56.81 -33.39 31.49c-19.62,20.89 -31.97,43.99 -37.03,69.31 1.9,17.57 9.65,34.66 22.95,51.27l14.08 18.99c28.48,36.08 42.73,69.95 42.73,101.6 0,36.71 -19.63,73.74 -58.71,110.93l-37.19 36.24 -54.28 -52.22 33.39 -31.49c26.11,-23.27 39.72,-43.21 40.83,-59.82 0,-1.27 0,-2.38 0,-3.64 0,-21.52 -8.55,-43.04 -25.64,-64.57l-17.25 -21.04c-22.79,-28.49 -34.97,-59.03 -36.87,-91.95 1.9,-27.85 9.81,-54.43 23.74,-79.75 5.06,-9.5 11.39,-18.36 18.99,-26.75 7.59,-7.59 16.14,-15.51 25.79,-23.58 9.34,-7.59 18.2,-14.87 26.43,-21.83z"/>
  </g>
 </g>
</svg>
