<?xml version="1.0" encoding="UTF-8"?>
<!DOCTYPE svg PUBLIC "-//W3C//DTD SVG 1.1//EN" "http://www.w3.org/Graphics/SVG/1.1/DTD/svg11.dtd">
<!-- Creator: CorelDRAW 2017 -->
<svg xmlns="http://www.w3.org/2000/svg" xml:space="preserve" width="27.6858mm" height="6.1806mm" version="1.1" style="shape-rendering:geometricPrecision; text-rendering:geometricPrecision; image-rendering:optimizeQuality; fill-rule:evenodd; clip-rule:evenodd"
viewBox="0 0 2768.58 618.06"
 xmlns:xlink="http://www.w3.org/1999/xlink">
 <defs>
  <style type="text/css">
   <![CDATA[
    .fil4 {fill:none}
    .fil9 {fill:#FEFEFE}
    .fil2 {fill:#EC268F}
    .fil5 {fill:#AA3362}
    .fil6 {fill:#EC268F}
    .fil3 {fill:#EE4552}
    .fil8 {fill:#FEFEFE;fill-rule:nonzero}
    .fil0 {fill:#EC268F;fill-rule:nonzero}
    .fil7 {fill:#AA3362;fill-rule:nonzero}
    .fil1 {fill:#AA3362;fill-rule:nonzero}
   ]]>
  </style>
    <clipPath id="id0">
     <path d="M1383.39 2.15c-76.07,26.73 -39.52,141.74 38.65,118.12 8.13,-2.46 15.98,-7.16 20.06,-10.66 55.77,-47.85 3.4,-129.3 -58.71,-107.46z"/>
    </clipPath>
    <clipPath id="id1">
     <path d="M2686.11 11.22c-76.06,26.73 -39.51,141.74 38.65,118.12 8.14,-2.46 15.99,-7.16 20.06,-10.66 55.77,-47.85 3.41,-129.3 -58.71,-107.46z"/>
    </clipPath>
    <clipPath id="id2">
     <path d="M489.45 273.86c-47.96,16.86 -24.91,89.36 24.36,74.47 5.13,-1.55 10.08,-4.51 12.65,-6.72 35.16,-30.16 2.15,-81.51 -37.01,-67.75z"/>
    </clipPath>
    <clipPath id="id3">
     <path d="M487.06 185.52c-47.96,16.86 -24.92,89.36 24.36,74.47 5.13,-1.55 10.08,-4.51 12.65,-6.72 35.16,-30.16 2.14,-81.51 -37.01,-67.75z"/>
    </clipPath>
    <clipPath id="id4">
     <path d="M478.76 262.28c-47.96,16.85 -24.92,89.36 24.36,74.47 5.13,-1.55 10.08,-4.52 12.65,-6.72 35.16,-30.17 2.14,-81.51 -37.01,-67.75z"/>
    </clipPath>
    <clipPath id="id5">
     <path d="M476.36 173.94c-47.95,16.86 -24.91,89.36 24.37,74.47 5.13,-1.55 10.08,-4.52 12.65,-6.72 35.16,-30.17 2.14,-81.51 -37.02,-67.75z"/>
    </clipPath>
 </defs>
 <g id="Capa_x0020_1">
  <metadata id="CorelCorpID_0Corel-Layer"/>
  <g id="_2101836811568">
   <g>
    <path class="fil0" d="M999.18 176.35l0 282.42c0,54.62 -13.33,95.07 -40.03,121.36 -26.7,26.29 -66.94,39.43 -120.74,39.43 -29.75,0 -57.97,-4.38 -84.67,-13.14 -26.7,-8.77 -48.4,-20.9 -65.1,-36.38l22 -33.01c15.49,13.86 34.34,24.66 56.55,32.39 22.22,7.75 45.55,11.63 70,11.63 40.76,0 70.71,-9.49 89.87,-28.44 19.15,-18.95 28.72,-48.4 28.72,-88.33l0 -40.95c-13.44,20.37 -31.07,35.85 -52.87,46.45 -21.81,10.6 -45.95,15.9 -72.44,15.9 -30.17,0 -57.57,-6.63 -82.23,-19.87 -24.66,-13.25 -44.02,-31.79 -58.08,-55.63 -14.06,-23.85 -21.08,-50.85 -21.08,-81.01 0,-30.15 7.02,-57.05 21.08,-80.69 14.06,-23.63 33.32,-41.98 57.78,-55.01 24.45,-13.05 51.95,-19.57 82.53,-19.57 27.3,0 51.95,5.51 73.97,16.51 22,11 39.73,26.89 53.18,47.68l0 -61.74 41.56 0zm-164.44 270.81c23.23,0 44.22,-4.99 62.96,-14.98 18.76,-9.98 33.33,-23.94 43.72,-41.88 10.39,-17.92 15.59,-38.3 15.59,-61.13 0,-22.82 -5.2,-43.1 -15.59,-60.81 -10.39,-17.73 -24.86,-31.59 -43.4,-41.58 -18.55,-9.98 -39.64,-14.98 -63.28,-14.98 -23.22,0 -44.11,4.9 -62.65,14.68 -18.55,9.77 -33.02,23.63 -43.42,41.56 -10.39,17.94 -15.58,38.31 -15.58,61.13 0,22.83 5.19,43.21 15.58,61.13 10.4,17.94 24.87,31.9 43.42,41.88 18.54,9.99 39.43,14.98 62.65,14.98zm502.84 -270.81l0 321.55 -41.57 0 0 -58.68c-11.41,19.55 -27.1,34.74 -47.07,45.54 -19.97,10.8 -42.79,16.2 -68.47,16.2 -41.97,0 -75.09,-11.72 -99.34,-35.15 -24.24,-23.44 -36.37,-57.78 -36.37,-103.01l0 -186.45 43.4 0 0 182.18c0,33.81 8.36,59.5 25.06,77.02 16.72,17.53 40.56,26.29 71.53,26.29 33.83,0 60.52,-10.3 80.09,-30.87 19.55,-20.59 29.34,-49.22 29.34,-85.9l0 -168.72 43.4 0zm48.62 0l43.41 0 0 321.55 -43.41 0 0 -321.55zm22.01 -70.3c-8.97,0 -16.51,-3.07 -22.62,-9.17 -6.12,-6.12 -9.17,-13.45 -9.17,-22.01 0,-8.15 3.05,-15.29 9.17,-21.39 6.11,-6.12 13.65,-9.18 22.62,-9.18 8.97,0 16.5,2.96 22.62,8.86 6.1,5.92 9.17,12.95 9.17,21.1 0,8.97 -3.07,16.5 -9.17,22.62 -6.12,6.1 -13.65,9.17 -22.62,9.17zm362.84 70.3l0 321.55 -41.57 0 0 -63.58c-13.05,21.6 -30.27,38.12 -51.66,49.52 -21.39,11.42 -45.54,17.12 -72.43,17.12 -30.17,0 -57.48,-6.93 -81.93,-20.79 -24.45,-13.85 -43.61,-33.21 -57.46,-58.08 -13.86,-24.86 -20.79,-53.17 -20.79,-84.96 0,-31.79 6.93,-60.12 20.79,-84.98 13.85,-24.87 33.01,-44.12 57.46,-57.77 24.45,-13.65 51.76,-20.48 81.93,-20.48 26.08,0 49.61,5.4 70.6,16.2 20.99,10.8 38.2,26.6 51.66,47.38l0 -61.13 43.4 0zm-162.01 286.09c22.43,0 42.7,-5.19 60.83,-15.58 18.14,-10.39 32.41,-25.16 42.8,-44.33 10.39,-19.15 15.58,-40.95 15.58,-65.4 0,-24.46 -5.19,-46.26 -15.58,-65.42 -10.39,-19.15 -24.66,-33.93 -42.8,-44.32 -18.13,-10.39 -38.4,-15.59 -60.83,-15.59 -22.82,0 -43.29,5.2 -61.43,15.59 -18.14,10.39 -32.41,25.17 -42.8,44.32 -10.39,19.16 -15.58,40.96 -15.58,65.42 0,24.45 5.19,46.25 15.58,65.4 10.39,19.17 24.66,33.94 42.8,44.33 18.14,10.39 38.61,15.58 61.43,15.58z"/>
    <path class="fil1" d="M1893.64 212.42c11.4,-15.9 26.79,-27.92 46.15,-36.07 19.36,-8.16 41.67,-12.22 66.93,-12.22l0 88.02c-10.59,-0.81 -17.73,-1.22 -21.38,-1.22 -27.31,0 -48.71,7.64 -64.2,22.92 -15.48,15.29 -23.23,38.21 -23.23,68.78l0 155.27 -95.36 0 0 -328.89 91.09 0 0 43.41zm281.19 290.37c-34.66,0 -65.72,-7.23 -93.24,-21.7 -27.51,-14.47 -49,-34.54 -64.49,-60.21 -15.49,-25.68 -23.23,-54.82 -23.23,-87.42 0,-32.61 7.74,-61.75 23.23,-87.42 15.49,-25.68 36.98,-45.75 64.49,-60.21 27.52,-14.47 58.58,-21.7 93.24,-21.7 34.63,0 65.6,7.23 92.9,21.7 27.32,14.46 48.72,34.53 64.2,60.21 15.49,25.67 23.23,54.81 23.23,87.42 0,32.6 -7.74,61.74 -23.23,87.42 -15.48,25.67 -36.88,45.74 -64.2,60.21 -27.3,14.47 -58.27,21.7 -92.9,21.7zm0 -78.25c24.45,0 44.52,-8.25 60.21,-24.75 15.69,-16.51 23.53,-38.62 23.53,-66.33 0,-27.71 -7.84,-49.82 -23.53,-66.33 -15.69,-16.5 -35.76,-24.76 -60.21,-24.76 -24.47,0 -44.64,8.26 -60.53,24.76 -15.9,16.51 -23.84,38.62 -23.84,66.33 0,27.71 7.94,49.82 23.84,66.33 15.89,16.5 36.06,24.75 60.53,24.75zm318.47 78.25c-27.32,0 -54,-3.36 -80.09,-10.09 -26.09,-6.72 -46.87,-15.17 -62.35,-25.37l31.79 -68.46c14.66,9.37 32.39,17.01 53.19,22.92 20.78,5.92 41.15,8.86 61.13,8.86 40.34,0 60.51,-9.98 60.51,-29.95 0,-9.37 -5.5,-16.09 -16.51,-20.17 -10.99,-4.08 -27.92,-7.55 -50.74,-10.39 -26.89,-4.08 -49.11,-8.77 -66.63,-14.06 -17.53,-5.3 -32.7,-14.68 -45.54,-28.13 -12.84,-13.44 -19.26,-32.59 -19.26,-57.46 0,-20.78 6.02,-39.22 18.04,-55.32 12.02,-16.1 29.55,-28.63 52.57,-37.6 23.03,-8.97 50.22,-13.44 81.62,-13.44 23.22,0 46.35,2.54 69.37,7.64 23.03,5.09 42.09,12.11 57.16,21.08l-31.79 67.85c-28.93,-16.29 -60.51,-24.45 -94.74,-24.45 -20.39,0 -35.67,2.86 -45.85,8.56 -10.19,5.71 -15.3,13.05 -15.3,22.01 0,10.19 5.51,17.32 16.51,21.4 11.01,4.07 28.54,7.94 52.58,11.61 26.9,4.49 48.9,9.27 66.02,14.37 17.12,5.09 31.99,14.37 44.63,27.82 12.64,13.44 18.95,32.2 18.95,56.24 0,20.37 -6.11,38.51 -18.33,54.41 -12.23,15.89 -30.07,28.21 -53.5,36.98 -23.43,8.76 -51.25,13.14 -83.44,13.14zm165.64 -333.78l95.36 0 0 328.89 -95.36 0 0 -328.89zm47.68 -45.85c-17.52,0 -31.79,-5.09 -42.8,-15.28 -11,-10.2 -16.49,-22.82 -16.49,-37.91 0,-15.07 5.49,-27.71 16.49,-37.89 11.01,-10.19 25.28,-15.28 42.8,-15.28 17.53,0 31.79,4.88 42.79,14.66 11,9.79 16.51,22.02 16.51,36.68 0,15.89 -5.51,29.04 -16.51,39.43 -11,10.39 -25.26,15.59 -42.79,15.59z"/>
   </g>
   <path class="fil2" d="M1383.39 2.15c-76.07,26.73 -39.52,141.74 38.65,118.12 8.13,-2.46 15.98,-7.16 20.06,-10.66 55.77,-47.85 3.4,-129.3 -58.71,-107.46z"/>
   <g style="clip-path:url(#id0)">
    <g>
     <ellipse class="fil3" cx="1414.14" cy="301.09" rx="173.65" ry="150.41"/>
    </g>
   </g>
   <path class="fil4" d="M1383.39 2.15c-76.07,26.73 -39.52,141.74 38.65,118.12 8.13,-2.46 15.98,-7.16 20.06,-10.66 55.77,-47.85 3.4,-129.3 -58.71,-107.46z"/>
   <path class="fil5" d="M2686.11 11.22c-76.06,26.73 -39.51,141.74 38.65,118.12 8.14,-2.46 15.99,-7.16 20.06,-10.66 55.77,-47.85 3.41,-129.3 -58.71,-107.46z"/>
   <g style="clip-path:url(#id1)">
    <g>
     <ellipse class="fil3" cx="2716.87" cy="310.16" rx="173.65" ry="150.41"/>
    </g>
   </g>
   <path class="fil4" d="M2686.11 11.22c-76.06,26.73 -39.51,141.74 38.65,118.12 8.14,-2.46 15.99,-7.16 20.06,-10.66 55.77,-47.85 3.41,-129.3 -58.71,-107.46z"/>
   <path class="fil6" d="M308.68 2.1c170.41,0 308.57,138.14 308.57,308.57 0,170.42 -138.16,308.58 -308.57,308.58 -170.42,0 -308.58,-138.16 -308.58,-308.58 0,-170.43 138.16,-308.57 308.58,-308.57z"/>
   <path class="fil7" d="M291.3 207.34l0 178.04c0,34.43 -8.42,59.93 -25.25,76.5 -16.83,16.57 -42.2,24.86 -76.11,24.86 -18.76,0 -36.55,-2.77 -53.37,-8.29 -16.83,-5.52 -30.51,-13.17 -41.05,-22.93l13.88 -20.81c9.76,8.73 21.64,15.54 35.64,20.42 14.01,4.88 28.72,7.33 44.13,7.33 25.69,0 44.58,-5.98 56.65,-17.92 12.08,-11.95 18.11,-30.51 18.11,-55.69l0 -25.82c-8.47,12.84 -19.59,22.61 -33.33,29.29 -13.75,6.68 -28.97,10.02 -45.67,10.02 -19.01,0 -36.29,-4.18 -51.83,-12.53 -15.54,-8.35 -27.75,-20.04 -36.61,-35.07 -8.87,-15.03 -13.3,-32.05 -13.3,-51.06 0,-19.01 4.43,-35.97 13.3,-50.87 8.86,-14.9 21,-26.46 36.42,-34.69 15.41,-8.22 32.75,-12.33 52.02,-12.33 17.21,0 32.76,3.47 46.63,10.41 13.88,6.94 25.05,16.96 33.53,30.06l0 -38.92 26.21 0zm-103.67 170.72c14.64,0 27.87,-3.15 39.69,-9.44 11.82,-6.3 21.01,-15.1 27.56,-26.4 6.55,-11.31 9.83,-24.15 9.83,-38.54 0,-14.39 -3.28,-27.17 -9.83,-38.35 -6.55,-11.17 -15.67,-19.91 -27.37,-26.2 -11.69,-6.3 -24.98,-9.45 -39.88,-9.45 -14.64,0 -27.81,3.09 -39.5,9.25 -11.69,6.17 -20.81,14.91 -27.36,26.21 -6.56,11.31 -9.83,24.15 -9.83,38.54 0,14.39 3.27,27.23 9.83,38.54 6.55,11.3 15.67,20.1 27.36,26.4 11.69,6.29 24.86,9.44 39.5,9.44zm181.33 -147.99c7.2,-10.02 16.9,-17.6 29.1,-22.73 12.21,-5.14 26.27,-7.71 42.2,-7.71l0 55.49c-6.68,-0.51 -11.18,-0.77 -13.49,-0.77 -17.21,0 -30.7,4.82 -40.47,14.45 -9.76,9.64 -14.64,24.09 -14.64,43.36l0 97.88 -60.12 0 0 -207.33 57.42 0 0 27.36z"/>
   <path class="fil5" d="M489.45 273.86c-47.96,16.86 -24.91,89.36 24.36,74.47 5.13,-1.55 10.08,-4.51 12.65,-6.72 35.16,-30.16 2.15,-81.51 -37.01,-67.75z"/>
   <g style="clip-path:url(#id2)">
    <g>
     <ellipse class="fil3" cx="508.83" cy="462.33" rx="109.47" ry="94.82"/>
    </g>
   </g>
   <path class="fil4" d="M489.45 273.86c-47.96,16.86 -24.91,89.36 24.36,74.47 5.13,-1.55 10.08,-4.51 12.65,-6.72 35.16,-30.16 2.15,-81.51 -37.01,-67.75z"/>
   <path class="fil5" d="M487.06 185.52c-47.96,16.86 -24.92,89.36 24.36,74.47 5.13,-1.55 10.08,-4.51 12.65,-6.72 35.16,-30.16 2.14,-81.51 -37.01,-67.75z"/>
   <g style="clip-path:url(#id3)">
    <g>
     <ellipse class="fil3" cx="506.44" cy="373.99" rx="109.47" ry="94.82"/>
    </g>
   </g>
   <path class="fil4" d="M487.06 185.52c-47.96,16.86 -24.92,89.36 24.36,74.47 5.13,-1.55 10.08,-4.51 12.65,-6.72 35.16,-30.16 2.14,-81.51 -37.01,-67.75z"/>
   <path class="fil8" d="M280.6 195.75l0 178.05c0,34.43 -8.41,59.92 -25.24,76.49 -16.83,16.58 -42.2,24.86 -76.11,24.86 -18.76,0 -36.55,-2.76 -53.38,-8.28 -16.83,-5.53 -30.51,-13.17 -41.04,-22.93l13.87 -20.81c9.76,8.73 21.65,15.54 35.65,20.42 14,4.88 28.71,7.32 44.13,7.32 25.69,0 44.57,-5.97 56.65,-17.92 12.07,-11.94 18.11,-30.51 18.11,-55.68l0 -25.83c-8.48,12.85 -19.59,22.62 -33.34,29.29 -13.74,6.68 -28.96,10.02 -45.66,10.02 -19.01,0 -36.29,-4.17 -51.84,-12.52 -15.54,-8.35 -27.74,-20.04 -36.61,-35.07 -8.86,-15.03 -13.29,-32.05 -13.29,-51.06 0,-19.02 4.43,-35.98 13.29,-50.88 8.87,-14.9 21.01,-26.46 36.42,-34.68 15.42,-8.22 32.76,-12.33 52.03,-12.33 17.21,0 32.75,3.47 46.63,10.4 13.87,6.94 25.05,16.96 33.52,30.07l0 -38.93 26.21 0zm-103.66 170.73c14.64,0 27.87,-3.15 39.69,-9.45 11.82,-6.29 21,-15.09 27.55,-26.39 6.55,-11.31 9.83,-24.16 9.83,-38.54 0,-14.39 -3.28,-27.17 -9.83,-38.35 -6.55,-11.18 -15.67,-19.91 -27.36,-26.21 -11.69,-6.29 -24.98,-9.44 -39.88,-9.44 -14.65,0 -27.82,3.08 -39.51,9.25 -11.69,6.17 -20.81,14.91 -27.36,26.21 -6.55,11.3 -9.82,24.15 -9.82,38.54 0,14.38 3.27,27.23 9.82,38.54 6.55,11.3 15.67,20.1 27.36,26.39 11.69,6.3 24.86,9.45 39.51,9.45zm181.33 -147.99c7.19,-10.02 16.89,-17.6 29.1,-22.74 12.2,-5.14 26.26,-7.71 42.2,-7.71l0 55.5c-6.69,-0.51 -11.18,-0.77 -13.5,-0.77 -17.21,0 -30.69,4.81 -40.46,14.45 -9.76,9.63 -14.64,24.09 -14.64,43.36l0 97.88 -60.12 0 0 -207.33 57.42 0 0 27.36z"/>
   <path class="fil9" d="M478.76 262.28c-47.96,16.85 -24.92,89.36 24.36,74.47 5.13,-1.55 10.08,-4.52 12.65,-6.72 35.16,-30.17 2.14,-81.51 -37.01,-67.75z"/>
   <g style="clip-path:url(#id4)">
    <g>
     <ellipse class="fil3" cx="498.14" cy="450.74" rx="109.47" ry="94.82"/>
    </g>
   </g>
   <path class="fil4" d="M478.76 262.28c-47.96,16.85 -24.92,89.36 24.36,74.47 5.13,-1.55 10.08,-4.52 12.65,-6.72 35.16,-30.17 2.14,-81.51 -37.01,-67.75z"/>
   <path class="fil9" d="M476.36 173.94c-47.95,16.86 -24.91,89.36 24.37,74.47 5.13,-1.55 10.08,-4.52 12.65,-6.72 35.16,-30.17 2.14,-81.51 -37.02,-67.75z"/>
   <g style="clip-path:url(#id5)">
    <g>
     <ellipse class="fil3" cx="495.75" cy="362.4" rx="109.47" ry="94.82"/>
    </g>
   </g>
   <path class="fil4" d="M476.36 173.94c-47.95,16.86 -24.91,89.36 24.37,74.47 5.13,-1.55 10.08,-4.52 12.65,-6.72 35.16,-30.17 2.14,-81.51 -37.02,-67.75z"/>
  </g>
 </g>
</svg>
