<?xml version="1.0" encoding="UTF-8"?>
<!DOCTYPE svg PUBLIC "-//W3C//DTD SVG 1.1//EN" "http://www.w3.org/Graphics/SVG/1.1/DTD/svg11.dtd">
<!-- Creator: CorelDRAW 2017 -->
<svg xmlns="http://www.w3.org/2000/svg" xml:space="preserve" width="5.0798mm" height="5.0798mm" version="1.1" style="shape-rendering:geometricPrecision; text-rendering:geometricPrecision; image-rendering:optimizeQuality; fill-rule:evenodd; clip-rule:evenodd"
viewBox="0 0 507.98 507.98"
 xmlns:xlink="http://www.w3.org/1999/xlink">
 <defs>
  <style type="text/css">
   <![CDATA[
    .fil4 {fill:none}
    .fil6 {fill:#FEFEFE}
    .fil2 {fill:#AA3362}
    .fil0 {fill:#EC268F}
    .fil3 {fill:#EE4552}
    .fil5 {fill:#FEFEFE;fill-rule:nonzero}
    .fil1 {fill:#AA3362;fill-rule:nonzero}
   ]]>
  </style>
    <clipPath id="id0">
     <path d="M403.77 223.49c-39.73,13.97 -20.64,74.04 20.19,61.7 4.25,-1.28 8.35,-3.74 10.48,-5.56 29.13,-25 1.77,-67.54 -30.67,-56.14z"/>
    </clipPath>
    <clipPath id="id1">
     <path d="M401.79 150.3c-39.73,13.97 -20.64,74.04 20.19,61.7 4.25,-1.28 8.35,-3.74 10.48,-5.57 29.13,-24.99 1.77,-67.53 -30.67,-56.13z"/>
    </clipPath>
    <clipPath id="id2">
     <path d="M394.91 213.89c-39.73,13.97 -20.64,74.04 20.19,61.71 4.25,-1.29 8.35,-3.75 10.48,-5.57 29.13,-24.99 1.77,-67.54 -30.67,-56.14z"/>
    </clipPath>
    <clipPath id="id3">
     <path d="M392.93 140.7c-39.73,13.97 -20.64,74.04 20.19,61.7 4.25,-1.28 8.35,-3.74 10.48,-5.56 29.13,-25 1.77,-67.54 -30.67,-56.14z"/>
    </clipPath>
 </defs>
 <g id="Capa_x0020_1">
  <metadata id="CorelCorpID_0Corel-Layer"/>
  <g id="_2101833473200">
   <path class="fil0" d="M253.99 -1.68c141.2,0 255.67,114.46 255.67,255.67 0,141.2 -114.47,255.67 -255.67,255.67 -141.2,0 -255.67,-114.47 -255.67,-255.67 0,-141.21 114.47,-255.67 255.67,-255.67z"/>
   <path class="fil1" d="M239.59 168.37l0 147.52c0,28.53 -6.97,49.65 -20.91,63.38 -13.95,13.73 -34.97,20.6 -63.07,20.6 -15.54,0 -30.28,-2.29 -44.22,-6.87 -13.95,-4.57 -25.28,-10.91 -34.01,-18.99l11.5 -17.25c8.09,7.24 17.93,12.88 29.53,16.92 11.6,4.05 23.79,6.07 36.57,6.07 21.28,0 36.93,-4.95 46.93,-14.85 10.01,-9.89 15.01,-25.28 15.01,-46.13l0 -21.4c-7.02,10.64 -16.23,18.73 -27.62,24.27 -11.39,5.53 -24,8.3 -37.84,8.3 -15.75,0 -30.07,-3.46 -42.94,-10.38 -12.88,-6.91 -22.99,-16.6 -30.34,-29.06 -7.34,-12.45 -11.01,-26.55 -11.01,-42.3 0,-15.76 3.67,-29.81 11.01,-42.15 7.35,-12.35 17.4,-21.93 30.18,-28.74 12.77,-6.81 27.14,-10.22 43.1,-10.22 14.26,0 27.14,2.88 38.64,8.62 11.49,5.75 20.76,14.05 27.78,24.91l0 -32.25 21.71 0zm-85.89 141.45c12.13,0 23.09,-2.6 32.89,-7.82 9.79,-5.21 17.4,-12.51 22.83,-21.87 5.42,-9.37 8.14,-20.01 8.14,-31.93 0,-11.92 -2.72,-22.52 -8.14,-31.77 -5.43,-9.27 -12.99,-16.5 -22.68,-21.72 -9.68,-5.21 -20.7,-7.82 -33.04,-7.82 -12.14,0 -23.05,2.55 -32.73,7.66 -9.69,5.11 -17.25,12.35 -22.67,21.72 -5.43,9.36 -8.14,20.01 -8.14,31.93 0,11.92 2.71,22.56 8.14,31.93 5.42,9.36 12.98,16.66 22.67,21.87 9.68,5.22 20.59,7.82 32.73,7.82zm150.24 -122.61c5.96,-8.3 14,-14.58 24.11,-18.84 10.11,-4.26 21.77,-6.38 34.96,-6.38l0 45.97c-5.53,-0.42 -9.26,-0.63 -11.17,-0.63 -14.26,0 -25.44,3.99 -33.53,11.97 -8.09,7.98 -12.13,19.96 -12.13,35.92l0 81.11 -49.81 0 0 -171.79 47.57 0 0 22.67z"/>
   <path class="fil2" d="M403.77 223.49c-39.73,13.97 -20.64,74.04 20.19,61.7 4.25,-1.28 8.35,-3.74 10.48,-5.56 29.13,-25 1.77,-67.54 -30.67,-56.14z"/>
   <g style="clip-path:url(#id0)">
    <g>
     <ellipse class="fil3" cx="419.83" cy="379.65" rx="90.7" ry="78.57"/>
    </g>
   </g>
   <path class="fil4" d="M403.77 223.49c-39.73,13.97 -20.64,74.04 20.19,61.7 4.25,-1.28 8.35,-3.74 10.48,-5.56 29.13,-25 1.77,-67.54 -30.67,-56.14z"/>
   <path class="fil2" d="M401.79 150.3c-39.73,13.97 -20.64,74.04 20.19,61.7 4.25,-1.28 8.35,-3.74 10.48,-5.57 29.13,-24.99 1.77,-67.53 -30.67,-56.13z"/>
   <g style="clip-path:url(#id1)">
    <g>
     <ellipse class="fil3" cx="417.85" cy="306.45" rx="90.7" ry="78.57"/>
    </g>
   </g>
   <path class="fil4" d="M401.79 150.3c-39.73,13.97 -20.64,74.04 20.19,61.7 4.25,-1.28 8.35,-3.74 10.48,-5.57 29.13,-24.99 1.77,-67.53 -30.67,-56.13z"/>
   <path class="fil5" d="M230.73 158.77l0 147.52c0,28.53 -6.97,49.65 -20.91,63.38 -13.95,13.74 -34.97,20.6 -63.07,20.6 -15.54,0 -30.28,-2.29 -44.22,-6.86 -13.95,-4.58 -25.28,-10.92 -34.01,-19l11.5 -17.25c8.09,7.24 17.93,12.88 29.53,16.93 11.6,4.04 23.79,6.07 36.57,6.07 21.28,0 36.93,-4.96 46.93,-14.85 10.01,-9.9 15.01,-25.28 15.01,-46.14l0 -21.4c-7.03,10.65 -16.23,18.74 -27.62,24.27 -11.39,5.54 -24,8.3 -37.84,8.3 -15.75,0 -30.07,-3.46 -42.94,-10.38 -12.88,-6.91 -23,-16.6 -30.34,-29.05 -7.34,-12.45 -11.02,-26.56 -11.02,-42.31 0,-15.75 3.68,-29.8 11.02,-42.15 7.34,-12.35 17.4,-21.93 30.18,-28.74 12.77,-6.81 27.14,-10.21 43.1,-10.21 14.26,0 27.14,2.87 38.64,8.62 11.49,5.74 20.75,14.05 27.78,24.9l0 -32.25 21.71 0zm-85.89 141.46c12.13,0 23.09,-2.61 32.89,-7.83 9.79,-5.21 17.4,-12.5 22.83,-21.87 5.42,-9.37 8.14,-20.01 8.14,-31.93 0,-11.92 -2.72,-22.51 -8.14,-31.77 -5.43,-9.26 -12.99,-16.5 -22.68,-21.71 -9.68,-5.22 -20.7,-7.83 -33.04,-7.83 -12.14,0 -23.05,2.56 -32.73,7.66 -9.69,5.11 -17.25,12.35 -22.67,21.72 -5.43,9.37 -8.14,20.01 -8.14,31.93 0,11.92 2.71,22.56 8.14,31.93 5.42,9.37 12.98,16.66 22.67,21.87 9.68,5.22 20.59,7.83 32.73,7.83zm150.24 -122.62c5.96,-8.3 14,-14.58 24.11,-18.84 10.11,-4.25 21.76,-6.38 34.96,-6.38l0 45.98c-5.53,-0.43 -9.26,-0.64 -11.17,-0.64 -14.27,0 -25.44,3.99 -33.53,11.97 -8.09,7.99 -12.13,19.96 -12.13,35.92l0 81.11 -49.81 0 0 -171.79 47.57 0 0 22.67z"/>
   <path class="fil6" d="M394.91 213.89c-39.73,13.97 -20.64,74.04 20.19,61.71 4.25,-1.29 8.35,-3.75 10.48,-5.57 29.13,-24.99 1.77,-67.54 -30.67,-56.14z"/>
   <g style="clip-path:url(#id2)">
    <g>
     <ellipse class="fil3" cx="410.97" cy="370.05" rx="90.7" ry="78.57"/>
    </g>
   </g>
   <path class="fil4" d="M394.91 213.89c-39.73,13.97 -20.64,74.04 20.19,61.71 4.25,-1.29 8.35,-3.75 10.48,-5.57 29.13,-24.99 1.77,-67.54 -30.67,-56.14z"/>
   <path class="fil6" d="M392.93 140.7c-39.73,13.97 -20.64,74.04 20.19,61.7 4.25,-1.28 8.35,-3.74 10.48,-5.56 29.13,-25 1.77,-67.54 -30.67,-56.14z"/>
   <g style="clip-path:url(#id3)">
    <g>
     <ellipse class="fil3" cx="408.99" cy="296.85" rx="90.7" ry="78.57"/>
    </g>
   </g>
   <path class="fil4" d="M392.93 140.7c-39.73,13.97 -20.64,74.04 20.19,61.7 4.25,-1.28 8.35,-3.74 10.48,-5.56 29.13,-25 1.77,-67.54 -30.67,-56.14z"/>
  </g>
 </g>
</svg>
