<?xml version="1.0" encoding="UTF-8"?>
<!DOCTYPE svg PUBLIC "-//W3C//DTD SVG 1.1//EN" "http://www.w3.org/Graphics/SVG/1.1/DTD/svg11.dtd">
<!-- Creator: CorelDRAW 2017 -->
<svg xmlns="http://www.w3.org/2000/svg" xml:space="preserve" width="192.99mm" height="85.41mm" version="1.1" style="shape-rendering:geometricPrecision; text-rendering:geometricPrecision; image-rendering:optimizeQuality; fill-rule:evenodd; clip-rule:evenodd"
viewBox="0 0 19299 8541"
 xmlns:xlink="http://www.w3.org/1999/xlink">
 <defs>
  <style type="text/css">
   <![CDATA[
    .str1 {stroke:#FEFEFE;stroke-width:100;stroke-miterlimit:22.9256}
    .str0 {stroke:#581413;stroke-width:100;stroke-miterlimit:22.9256}
    .str2 {stroke:#FEFEFE;stroke-width:20;stroke-miterlimit:22.9256}
    .fil0 {fill:none}
    .fil13 {fill:#FEFEFE}
    .fil10 {fill:#FEFEFE}
    .fil11 {fill:#373435}
    .fil12 {fill:#373435}
    .fil8 {fill:#48A366}
    .fil4 {fill:#48A366}
    .fil7 {fill:#581413}
    .fil1 {fill:#581413}
    .fil3 {fill:#E12E43}
    .fil2 {fill:#F5AA2B}
    .fil6 {fill:#FEFEFE;fill-rule:nonzero}
    .fil9 {fill:#373435;fill-rule:nonzero}
    .fil5 {fill:#F5AA2B;fill-rule:nonzero}
   ]]>
  </style>
 </defs>
 <g id="Capa_x0020_1">
  <metadata id="CorelCorpID_0Corel-Layer"/>
  <path class="fil0 str0" d="M189.1 0.22l18920.8 0c104.03,0 189.16,85.13 189.16,189.19l0 8162.18c0,104.06 -85.13,189.19 -189.16,189.19l-18920.8 0c-104.03,0 -189.16,-85.13 -189.16,-189.19l0 -8162.18c0,-104.06 85.13,-189.19 189.16,-189.19z"/>
  <path class="fil1" d="M338.75 120.47l18621.5 0c101.11,0 183.86,82.73 183.86,183.86l0 7932.33c0,101.13 -82.75,183.86 -183.86,183.86l-18621.5 0c-101.11,0 -183.86,-82.73 -183.86,-183.86l0 -7932.33c0,-101.13 82.75,-183.86 183.86,-183.86z"/>
  <path class="fil2" d="M6670.66 7874.82c-80.1,0 -79.3,-1.43 -155.81,-40.27 -42.37,-21.5 -55.12,-38.99 -119.53,-38.99 29.88,-42.99 147.44,66.74 241.96,66.74 140.83,0 178.59,-108.46 212.76,-108.46 12.68,0 14.17,7.24 16.69,16.69 -11.76,0.98 -19.14,3.95 -28.01,9.54 -12.04,7.59 -9.22,7.92 -18.94,18.6 -28.5,31.34 -99.41,76.15 -149.12,76.15zm-25.03 -20.86c-92.93,0 -154.66,-75.09 -241.96,-75.09 -31.85,0 -47.61,16.4 -50.06,45.89 39.01,-26.13 54.39,-9.7 99.15,30.18 77.16,68.75 131.19,111.66 242.93,111.66 55.78,0 104.55,-16.86 143.25,-36.14 40.13,-19.99 98.71,-49.55 98.71,-93.19 0,-12.57 -5.03,-9.91 -14.74,-14.46 -24.8,-11.64 -29.39,-18.95 -43.72,-52.23 -14.96,-34.69 -27.06,-37.8 -67.78,-1.13 -47.34,42.63 -94.21,84.51 -165.78,84.51z"/>
  <path class="fil2" d="M6929.31 7797.63c-4.24,-2.45 -16.59,5.81 -2.91,-16.93 4.95,-8.24 10.13,-11.46 15.42,-16.42 -5.92,17.3 -9.13,15.38 -12.51,33.35zm-43.8 -47.96c2.32,35.45 19.21,62.58 52.14,66.75 0.29,-27.24 11.15,-45.07 25.97,-57.26 61.14,-50.24 107.76,-6.86 111.69,-5.32 10.82,-7.24 11.3,-6.17 15.65,-20.86 -20.92,-17.76 -44.66,-16.68 -69.88,-16.68 -49.5,0 -92.56,46.65 -135.57,33.37z"/>
  <path class="fil3" d="M6410.86 2296.92c-400.87,0 -396.87,-7.18 -779.73,-201.51 -212.04,-107.6 -275.85,-195.14 -598.18,-195.14 149.5,-215.14 737.81,334.02 1210.87,334.02 704.77,0 893.7,-542.8 1064.73,-542.8 63.44,0 70.89,36.23 83.51,83.52 -58.85,4.88 -95.79,19.78 -140.15,47.74 -60.29,37.97 -46.16,39.65 -94.79,93.11 -142.64,156.8 -497.49,381.06 -746.26,381.06zm-125.27 -104.38c-465.07,0 -774.01,-375.78 -1210.87,-375.78 -159.39,0 -238.24,82.08 -250.52,229.63 195.24,-130.73 272.2,-48.52 496.16,151.03 386.17,344.05 656.54,558.8 1215.76,558.8 279.12,0 523.19,-84.38 716.85,-180.84 200.86,-100.04 493.99,-247.99 493.99,-466.35 0,-62.93 -25.17,-49.64 -73.72,-72.4 -124.16,-58.22 -147.11,-94.83 -218.84,-261.35 -74.84,-173.64 -135.42,-189.17 -339.17,-5.69 -236.94,213.34 -471.48,422.95 -829.64,422.95z"/>
  <path class="fil4" d="M7705.22 1910.65c-21.18,-12.3 -83.02,29.05 -14.55,-84.72 24.81,-41.25 50.72,-57.36 77.18,-82.19 -29.62,86.55 -45.69,76.94 -62.63,166.91zm-219.16 -240.04c11.61,177.44 96.12,313.2 260.9,334.04 1.48,-136.28 55.83,-225.55 130,-286.53 305.93,-251.46 539.27,-34.34 558.94,-26.63 54.13,-36.22 56.54,-30.87 78.32,-104.37 -104.7,-88.89 -223.53,-83.52 -349.7,-83.52 -247.76,0 -463.25,233.49 -678.46,167.01z"/>
  <path class="fil2" d="M8308.37 2923.08c-12.94,122.01 -66.87,245.79 -96.21,364.22 -29.02,117.17 -85.42,244.19 -95.92,358.13l-24.76 0c-44.8,-178.65 -163.21,-500.28 -192.16,-659.72 -18.14,-22 -10.01,-5.01 -27.19,-39.18 -1.26,-2.52 -15.76,-42.22 -17.04,-46.09 -13.39,-39.89 -13.17,-41.74 -22.47,-81.76l-129.67 0c-26.95,11.71 -51.34,12.33 -57.26,15.46 -57.67,30.28 -52.02,-22.49 -22.02,26.6l13.12 28.46c1.01,3.75 3.65,11.29 4.81,16 28.6,117.15 23.52,541.81 17.14,654.69 -4.24,75.03 10.13,247.02 7.2,366.47 -2.79,113.52 -0.99,273.08 -46.51,332.83 48.68,40.24 45.82,29.54 179.76,29.54 -58.22,-329.58 -41.75,-139.57 -41.75,-509.53 0,-178.11 0,-356.21 0,-534.31l24.76 0c35.61,142.08 90.2,268.37 136.88,424.73 47.73,159.95 103.85,290.29 134.53,431.21l25.15 -29.04c53.04,-80.58 259.57,-829 263.25,-868.65l25.07 785.33c1.48,145.5 0.27,141.93 -42.09,237.63l287.81 -26.63 -40.91 -50.73c-37.18,-69.36 -21.4,-168.68 -21.16,-265.12 0.69,-271.11 -32.69,-975.71 33.46,-1123.16 -31.31,-28.55 12.06,-14.18 -38.63,-18.84l-170.46 14.43c-21.6,92.81 -13.79,114.78 -66.73,167.03z"/>
  <path class="fil2" d="M5304.36 4008.71l-43.4 -774.13c7.92,-105.95 88.06,-101.96 147.63,-56.56 183.08,33.23 291.23,255.57 249.44,458.01 -37.9,183.56 -163.71,339.67 -353.67,372.68zm4.27 501c-3.28,-4.27 -7.47,-10.11 -9.03,-13.39l-29.39 -98.46c-9.15,-52.42 -7.57,-84.11 -7.77,-138.35 -1.03,-299.94 54.92,-168.56 62.63,-162.92 121.62,131.5 206.36,277.85 303.61,441.7 44.88,75.57 90.08,172.48 170.19,210.85 102.63,49.14 267.81,27.47 244.68,-101.62 -4.34,-1.16 -11.78,-4.9 -13.46,-0.07l-37.95 7.64c-45.49,18.91 -6.51,14.58 -52.96,34.18 -37.41,-55.85 -77.53,-87.24 -116.96,-152.31 -36.39,-60.07 -61.27,-120.16 -91.5,-179.27 -75.31,-147.1 -120.41,-206.6 -250.85,-298.6 163.09,-92.35 332.74,-157.37 356.26,-445.72 7.05,-86.42 8.58,-140.6 -13.54,-221.42 -108.66,-397.12 -523.01,-289.31 -756.37,-289.31l26.7 1309.89c-3.13,76.07 -4.81,110.4 -47.59,168.49l287.93 -25.4c-24.76,-50.32 0.17,-10.45 -24.63,-45.91z"/>
  <path class="fil2" d="M6210.58 3077.88c176.33,0 274.17,34.1 294.44,182.94 17.44,127.95 14.53,853.87 -26.31,944.61 -38.78,86.18 -144.2,182.62 -268.35,191.59 -20.93,-245.22 -8.18,-934.38 -9.93,-1223.44l10.15 -95.7zm-196.57 -71.19c-16.59,29.07 -13.63,23.21 -20.86,66.92 36.82,88.23 21.58,1318.61 -8.33,1403.01 628.45,0 727.06,-116.34 726.81,-739.19 -0.27,-620.91 15.88,-804.83 -697.62,-730.74z"/>
  <path class="fil2" d="M9113.6 4051.42c-77.45,-16.89 -69.68,-12.72 -87.61,-87.58 -68.65,-121.81 -33.41,-1069.24 -33.41,-1277.75 -62.9,22.29 -135.77,20.89 -225.77,20.89 50.28,284.62 41.89,66.99 41.75,426.01 -0.05,159.68 -31.81,794.87 34.84,892.22 139.17,203.25 515.15,160.03 600.32,-125.21 39.15,-131.16 12.99,-861.08 21.35,-1081.5 5.84,-153.39 9.12,-92.07 49.44,-174.18l-246.7 20.59 0.44 1198.17c-6.66,77.72 -102.62,208.44 -154.65,188.34z"/>
  <path class="fil2" d="M4627.8 4167.36c-102.75,58.17 -196.72,76.64 -295.82,145.85 -37.41,26.11 -65.05,69.93 -51.41,-15.75l221.97 -843.79c3.3,141.93 102.13,503.8 125.26,713.69zm-555.34 463.54l0 46.16c82.48,0 84.99,-6.58 146.46,-20.88 0,-18.67 -2.73,-69.66 -0.88,-84.58 12.35,-99.47 0,-27.39 21.67,-61.64 17.9,-74.05 15.9,-66.23 87.68,-83.42 83.99,-76.12 218.18,-75.48 300.41,-137.81 52.57,98.53 61.94,219.7 41.75,334.04 97.07,-6.49 140.84,-20.89 267.53,-20.89l-41.18 -78.19c-21.92,-46.48 -14.79,-22.49 -30.67,-91.13 -76.56,-331.33 65.17,-213.25 26.73,-383.38 -40.44,-179.09 -30.01,-14.92 -101.02,13.78 -6.46,-252.62 -173.89,-722.42 -104.38,-918.58 -59.11,14.16 -212.45,18.62 -237.83,28.31 -80.73,30.8 -37.01,-20.22 -52.17,82.09 -32.5,219.25 -247.69,1240.55 -324.1,1376.12z"/>
  <path class="fil2" d="M6915.9 4384.33c25.52,-36.84 -7.3,-13.52 43.25,-23.06l457.79 -43.67c0,-190.31 -56.39,-225.74 4.07,-292.27 2.1,-26.53 8.83,-54.39 2.07,-82.6 -17.18,-71.83 14.38,-20.2 -35.68,-63.82 -79.17,145.63 6.88,332.07 -209.44,407.77 -114.04,39.92 -109.9,-8.09 -108.62,-134.63 1.04,-102.16 1.01,-204.09 1.01,-306.28 72.03,0 118.95,3.83 167.04,20.86l8.8 -142.54c-40.49,10.16 -31.1,5.74 -59.23,25.42 -41.77,34.52 -25.2,37.5 -124.94,45.84l0 -855.63 187.57 0c61.18,115.47 20.89,105.88 20.89,400.74 21.97,14.85 42.53,42.96 102.92,22.96 77.74,-25.77 49.93,-15.54 51.88,-119.2l-35.85 15.91c-3.78,1.57 -11.84,5.25 -16.25,7.05 -36.25,14.79 22.88,10.18 -52.3,18.79 31.07,-90.79 102.4,-331.9 104.4,-438.42 -139.89,24.71 -445.17,62.63 -601.55,62.63 63.98,144.57 50.84,141.54 50.3,342.52 -0.84,317.4 15.58,880.95 -29.44,1135.87l71.31 -4.24z"/>
  <path class="fil5" d="M2199.58 7702.31l-87.16 235.33 -30.37 0 -85.31 -235.33 30.7 0 65.15 186.59c2.07,6 3.64,12.94 4.76,20.84l0.61 0c0.9,-6.55 2.69,-13.61 5.44,-21.17l66.49 -186.26 29.69 0zm143.92 158.02l-118.65 0c0.45,18.71 5.49,33.17 15.12,43.36 9.64,10.14 22.86,15.24 39.72,15.24 18.93,0 36.3,-6.22 52.21,-18.71l0 25.26c-14.79,10.76 -34.34,16.08 -58.6,16.08 -23.75,0 -42.4,-7.62 -55.96,-22.85 -13.61,-15.3 -20.39,-36.75 -20.39,-64.43 0,-26.16 7.45,-47.44 22.24,-63.91 14.85,-16.47 33.28,-24.71 55.23,-24.71 22.02,0 38.99,7.12 51.04,21.35 12.04,14.17 18.04,33.94 18.04,59.21l0 14.11zm-27.57 -22.79c-0.11,-15.52 -3.86,-27.62 -11.2,-36.3 -7.39,-8.63 -17.65,-12.94 -30.81,-12.94 -12.66,0 -23.47,4.53 -32.32,13.61 -8.85,9.07 -14.34,20.95 -16.42,35.63l90.75 0zm155.96 -40.73c-4.7,-3.59 -11.48,-5.38 -20.33,-5.38 -11.54,0 -21.12,5.38 -28.85,16.25 -7.68,10.81 -11.54,25.6 -11.54,44.31l0 85.65 -26.95 0 0 -168.05 26.95 0 0 34.61 0.67 0c3.81,-11.82 9.64,-21 17.54,-27.67 7.89,-6.61 16.69,-9.91 26.44,-9.91 7,0 12.32,0.78 16.07,2.29l0 27.9zm19.05 134.78l0 -28.91c14.62,10.82 30.81,16.25 48.4,16.25 23.64,0 35.46,-7.9 35.46,-23.64 0,-4.48 -1.01,-8.29 -3.03,-11.37 -2.07,-3.14 -4.76,-5.88 -8.23,-8.29 -3.42,-2.41 -7.51,-4.6 -12.16,-6.5 -4.65,-1.91 -9.64,-3.92 -15.01,-5.99 -7.45,-2.97 -13.95,-5.94 -19.61,-8.97 -5.6,-2.97 -10.31,-6.38 -14.12,-10.14 -3.75,-3.81 -6.61,-8.06 -8.51,-12.88 -1.91,-4.82 -2.86,-10.48 -2.86,-16.92 0,-7.9 1.79,-14.84 5.38,-20.95 3.64,-6.05 8.46,-11.15 14.45,-15.24 6.05,-4.09 12.89,-7.22 20.62,-9.3 7.67,-2.07 15.68,-3.08 23.86,-3.08 14.57,0 27.56,2.52 39.05,7.51l0 27.28c-12.33,-8.12 -26.56,-12.15 -42.63,-12.15 -5.05,0 -9.58,0.56 -13.67,1.73 -4.04,1.12 -7.51,2.75 -10.42,4.82 -2.86,2.07 -5.1,4.59 -6.72,7.45 -1.57,2.91 -2.36,6.11 -2.36,9.63 0,4.37 0.79,8.02 2.36,10.98 1.62,2.97 3.92,5.61 7,7.9 3.02,2.3 6.78,4.37 11.15,6.22 4.36,1.85 9.35,3.87 14.95,6.05 7.4,2.86 14.12,5.77 20,8.8 5.88,3.02 10.92,6.38 15.13,10.19 4.14,3.75 7.33,8.12 9.57,13.05 2.25,4.93 3.37,10.76 3.37,17.54 0,8.34 -1.85,15.57 -5.49,21.68 -3.7,6.1 -8.57,11.2 -14.68,15.23 -6.16,4.09 -13.22,7.06 -21.18,9.08 -8.01,1.96 -16.35,2.91 -25.15,2.91 -17.25,0 -32.26,-3.3 -44.92,-9.97zm166.54 -204.69c-4.77,0 -8.91,-1.63 -12.27,-4.93 -3.42,-3.25 -5.1,-7.39 -5.1,-12.44 0,-5.04 1.68,-9.24 5.1,-12.54 3.36,-3.37 7.5,-5.05 12.27,-5.05 4.93,0 9.13,1.68 12.6,5.05 3.42,3.3 5.15,7.5 5.15,12.54 0,4.82 -1.73,8.91 -5.15,12.27 -3.47,3.42 -7.67,5.1 -12.6,5.1zm13.16 210.74l-26.95 0 0 -168.05 26.95 0 0 168.05zm124.69 3.92c-24.81,0 -44.64,-7.84 -59.49,-23.53 -14.79,-15.68 -22.24,-36.52 -22.24,-62.46 0,-28.23 7.73,-50.25 23.14,-66.15 15.46,-15.86 36.3,-23.76 62.57,-23.76 25.04,0 44.59,7.68 58.65,23.14 14.06,15.4 21.06,36.8 21.06,64.14 0,26.83 -7.56,48.29 -22.68,64.42 -15.19,16.13 -35.52,24.2 -61.01,24.2zm1.96 -153.26c-17.25,0 -30.92,5.88 -41,17.64 -10.09,11.76 -15.13,27.95 -15.13,48.68 0,19.89 5.1,35.57 15.3,47.06 10.19,11.48 23.8,17.25 40.83,17.25 17.42,0 30.81,-5.66 40.17,-16.92 9.35,-11.26 14,-27.28 14,-48.06 0,-21.01 -4.65,-37.2 -14,-48.57 -9.36,-11.43 -22.75,-17.08 -40.17,-17.08zm39.33 -104.37l-42.97 53.84 -20.84 0 36.58 -53.84 27.23 0zm224.97 253.71l-26.95 0 0 -95.85c0,-35.68 -12.99,-53.49 -39.04,-53.49 -13.45,0 -24.6,5.04 -33.39,15.18 -8.85,10.14 -13.22,22.91 -13.22,38.31l0 95.85 -26.95 0 0 -168.05 26.95 0 0 27.89 0.67 0c12.66,-21.23 31.04,-31.82 55.12,-31.82 18.38,0 32.44,5.94 42.19,17.82 9.74,11.82 14.62,29.02 14.62,51.42l0 102.74zm60.05 -135.23c-5.04,0 -9.3,-1.79 -12.88,-5.43 -3.53,-3.59 -5.33,-7.9 -5.33,-12.94 0,-5.04 1.8,-9.3 5.33,-12.83 3.58,-3.47 7.84,-5.27 12.88,-5.27 5.15,0 9.52,1.8 13.16,5.27 3.59,3.53 5.38,7.79 5.38,12.83 0,5.04 -1.79,9.35 -5.38,12.94 -3.64,3.64 -8.01,5.43 -13.16,5.43zm0 138.82c-5.04,0 -9.3,-1.8 -12.88,-5.38 -3.53,-3.64 -5.33,-7.96 -5.33,-13 0,-5.04 1.8,-9.35 5.33,-13.05 3.58,-3.64 7.84,-5.49 12.88,-5.49 5.15,0 9.52,1.85 13.16,5.49 3.59,3.7 5.38,8.01 5.38,13.05 0,5.04 -1.79,9.36 -5.38,13 -3.64,3.58 -8.01,5.38 -13.16,5.38zm349.32 -3.59l-54.56 0 -15.82 -49.48 -79.06 0 -15.66 49.48 -54.3 0 80.97 -222.3 59.37 0 79.06 222.3zm-81.86 -87.89l-23.87 -74.72c-1.75,-5.61 -3.02,-12.28 -3.76,-20.01l-1.21 0c-0.53,6.51 -1.8,12.97 -3.87,19.37l-24.18 75.36 56.89 0zm208.39 -26.67c-5.93,-3.23 -12.81,-4.82 -20.64,-4.82 -10.64,0 -18.95,3.92 -24.98,11.69 -5.98,7.84 -8.99,18.42 -8.99,31.86l0 75.83 -48.95 0 0 -158.75 48.95 0 0 29.47 0.63 0c7.78,-21.53 21.7,-32.27 41.86,-32.27 5.18,0 9.21,0.63 12.12,1.85l0 45.14zm176.85 114.56l-49 0 0 -21.85 -0.58 0c-11.17,17.14 -27.57,25.71 -49.16,25.71 -19.85,0 -35.83,-6.98 -47.89,-21.01 -12.12,-13.97 -18.15,-33.54 -18.15,-58.68 0,-26.25 6.66,-47.25 20,-63.08 13.33,-15.82 30.8,-23.7 52.39,-23.7 20.47,0 34.71,7.3 42.81,22.01l0.58 0 0 -94.4 49 0 0 235zm-48.05 -77.21l0 -11.95c0,-10.32 -3.02,-18.9 -9,-25.72 -5.98,-6.83 -13.81,-10.22 -23.39,-10.22 -10.84,0 -19.36,4.24 -25.45,12.76 -6.08,8.57 -9.15,20.26 -9.15,35.13 0,13.97 2.96,24.72 8.83,32.23 5.93,7.57 14.08,11.32 24.5,11.32 9.95,0 18.05,-3.96 24.29,-11.9 6.25,-7.99 9.37,-18.52 9.37,-31.65zm231.94 11.8l-103.56 0c1.64,23.02 16.19,34.56 43.55,34.56 17.46,0 32.81,-4.13 46.04,-12.38l0 35.35c-14.66,7.83 -33.71,11.74 -57.2,11.74 -25.62,0 -45.51,-7.09 -59.69,-21.32 -14.13,-14.18 -21.22,-34.03 -21.22,-59.43 0,-26.35 7.62,-47.25 22.96,-62.65 15.29,-15.4 34.08,-23.07 56.41,-23.07 23.13,0 41.06,6.88 53.71,20.58 12.65,13.76 19,32.44 19,55.99l0 20.63zm-45.4 -30.1c0,-22.71 -9.21,-34.08 -27.63,-34.08 -7.83,0 -14.65,3.22 -20.37,9.73 -5.77,6.51 -9.21,14.66 -10.48,24.35l58.48 0zm326.6 95.51l-48.84 0 0 -90.54c0,-23.07 -8.47,-34.56 -25.4,-34.56 -8.05,0 -14.61,3.44 -19.69,10.38 -5.08,6.93 -7.62,15.55 -7.62,25.87l0 88.85 -48.95 0 0 -91.49c0,-22.39 -8.36,-33.61 -24.97,-33.61 -8.36,0 -15.08,3.29 -20.06,9.9 -5.02,6.61 -7.56,15.61 -7.56,26.99l0 88.21 -48.95 0 0 -158.75 48.95 0 0 24.82 0.63 0c5.08,-8.47 12.17,-15.4 21.33,-20.69 9.15,-5.35 19.15,-7.99 30,-7.99 22.44,0 37.78,9.84 46.04,29.58 12.12,-19.74 29.84,-29.58 53.34,-29.58 34.5,0 51.75,21.27 51.75,63.87l0 98.74zm189.6 0l-48.84 0 0 -24.18 -0.74 0c-12.12,18.68 -28.26,28.04 -48.53,28.04 -36.83,0 -55.19,-22.28 -55.19,-66.83l0 -95.78 48.84 0 0 91.44c0,22.44 8.89,33.65 26.67,33.65 8.79,0 15.77,-3.06 21.06,-9.2 5.3,-6.14 7.89,-14.5 7.89,-25.03l0 -90.86 48.84 0 0 158.75zm200.61 50.54l-22.65 0c-32.01,-36.57 -48.04,-81.71 -48.04,-135.37 0,-53.81 16.03,-99.64 48.04,-137.47l22.97 0c-32.44,39.26 -48.68,84.98 -48.68,137.21 0,51.75 16.14,97 48.36,135.63zm22.17 -59.54l0 -30.69c3.55,3.12 7.78,5.88 12.65,8.36 4.92,2.49 10.11,4.61 15.5,6.3 5.45,1.69 10.91,3.02 16.36,3.97 5.5,0.9 10.58,1.37 15.18,1.37 16.04,0 28,-2.96 35.93,-8.94 7.89,-5.92 11.86,-14.5 11.86,-25.61 0,-6.03 -1.33,-11.22 -3.97,-15.66 -2.65,-4.45 -6.3,-8.52 -10.9,-12.17 -4.66,-3.71 -10.16,-7.2 -16.51,-10.59 -6.41,-3.33 -13.23,-6.88 -20.59,-10.58 -7.72,-3.92 -14.97,-7.94 -21.69,-11.96 -6.72,-4.02 -12.54,-8.47 -17.52,-13.33 -4.97,-4.87 -8.84,-10.38 -11.69,-16.51 -2.86,-6.14 -4.29,-13.34 -4.29,-21.59 0,-10.16 2.22,-18.95 6.67,-26.46 4.44,-7.52 10.32,-13.66 17.51,-18.52 7.25,-4.87 15.51,-8.47 24.77,-10.85 9.21,-2.38 18.68,-3.6 28.26,-3.6 21.9,0 37.88,2.65 47.94,7.94l0 29.31c-13.13,-9.1 -30.01,-13.65 -50.54,-13.65 -5.71,0 -11.37,0.58 -17.09,1.75 -5.66,1.21 -10.74,3.17 -15.19,5.82 -4.44,2.7 -8.04,6.19 -10.84,10.42 -2.81,4.24 -4.18,9.37 -4.18,15.51 0,5.66 1.05,10.58 3.17,14.71 2.12,4.13 5.24,7.88 9.37,11.32 4.12,3.39 9.2,6.72 15.13,9.9 5.93,3.23 12.81,6.72 20.53,10.53 7.99,3.97 15.51,8.09 22.65,12.43 7.14,4.34 13.39,9.16 18.73,14.4 5.4,5.29 9.63,11.11 12.81,17.51 3.17,6.4 4.71,13.76 4.71,22.02 0,10.95 -2.12,20.26 -6.4,27.83 -4.29,7.62 -10.11,13.81 -17.36,18.52 -7.3,4.76 -15.72,8.2 -25.19,10.32 -9.52,2.12 -19.53,3.17 -30.11,3.17 -3.49,0 -7.83,-0.26 -13.02,-0.84 -5.13,-0.58 -10.42,-1.38 -15.82,-2.49 -5.34,-1.06 -10.42,-2.43 -15.24,-4.02 -4.81,-1.59 -8.68,-3.39 -11.59,-5.35zm188.71 -190.07c-4.5,0 -8.42,-1.54 -11.59,-4.66 -3.23,-3.07 -4.82,-6.98 -4.82,-11.75 0,-4.76 1.59,-8.73 4.82,-11.85 3.17,-3.18 7.09,-4.76 11.59,-4.76 4.65,0 8.62,1.58 11.9,4.76 3.23,3.12 4.87,7.09 4.87,11.85 0,4.55 -1.64,8.42 -4.87,11.59 -3.28,3.23 -7.25,4.82 -11.9,4.82zm12.43 199.07l-25.45 0 0 -158.75 25.45 0 0 158.75zm276.86 0l-25.4 0 0 -91.18c0,-17.56 -2.75,-30.26 -8.15,-38.1 -5.45,-7.88 -14.55,-11.8 -27.35,-11.8 -10.85,0 -20.11,4.98 -27.68,14.87 -7.62,9.95 -11.43,21.81 -11.43,35.67l0 90.54 -25.4 0 0 -94.24c0,-31.23 -12.06,-46.84 -36.14,-46.84 -11.17,0 -20.32,4.66 -27.57,14.03 -7.25,9.36 -10.85,21.53 -10.85,36.51l0 90.54 -25.45 0 0 -158.75 25.45 0 0 25.14 0.64 0c11.21,-19.27 27.67,-28.84 49.26,-28.84 10.85,0 20.32,3.01 28.36,9.04 8.1,6.04 13.6,13.97 16.62,23.82 11.75,-21.91 29.32,-32.86 52.71,-32.86 34.92,0 52.38,21.53 52.38,64.61l0 97.84zm74.14 -22.97l-0.64 0 0 96 -25.45 0 0 -231.78 25.45 0 0 27.89 0.64 0c12.48,-21.06 30.79,-31.59 54.87,-31.59 20.43,0 36.41,7.09 47.89,21.32 11.48,14.18 17.2,33.23 17.2,57.1 0,26.56 -6.46,47.83 -19.37,63.82 -12.91,15.92 -30.59,23.91 -53.02,23.91 -20.59,0 -36.41,-8.89 -47.57,-26.67zm-0.64 -64.03l0 22.18c0,13.12 4.23,24.29 12.81,33.44 8.52,9.15 19.31,13.71 32.43,13.71 15.4,0 27.47,-5.88 36.2,-17.68 8.73,-11.8 13.12,-28.15 13.12,-49.16 0,-17.67 -4.07,-31.48 -12.27,-41.54 -8.15,-10 -19.21,-15.03 -33.13,-15.03 -14.82,0 -26.67,5.14 -35.67,15.4 -8.99,10.32 -13.49,23.18 -13.49,38.68zm186.64 87l-25.45 0 0 -235 25.45 0 0 235zm179.02 -73.03l-112.08 0c0.43,17.68 5.19,31.33 14.29,40.96 9.1,9.58 21.59,14.4 37.52,14.4 17.88,0 34.29,-5.88 49.32,-17.68l0 23.87c-13.97,10.16 -32.44,15.18 -55.35,15.18 -22.44,0 -40.06,-7.19 -52.87,-21.59 -12.86,-14.44 -19.26,-34.71 -19.26,-60.85 0,-24.71 7.04,-44.82 21.01,-60.38 14.02,-15.56 31.43,-23.33 52.17,-23.33 20.8,0 36.83,6.72 48.21,20.16 11.38,13.38 17.04,32.06 17.04,55.93l0 13.33zm-26.04 -21.53c-0.1,-14.66 -3.65,-26.09 -10.58,-34.29 -6.98,-8.15 -16.67,-12.23 -29.1,-12.23 -11.96,0 -22.17,4.29 -30.54,12.86 -8.36,8.58 -13.54,19.79 -15.5,33.66l85.72 0zm65.14 145.1l-22.65 0c32.28,-38.63 48.37,-83.88 48.37,-135.63 0,-52.23 -16.19,-97.95 -48.63,-137.21l22.91 0c32.23,37.83 48.37,83.66 48.37,137.47 0,53.66 -16.14,98.8 -48.37,135.37z"/>
  <path class="fil6" d="M13931.73 2267.99l0 229.03 -70.96 0 0 -605.9 166.44 0c64.76,0 114.95,15.72 150.72,47.3 35.62,31.59 53.36,76.01 53.36,133.56 0,57.4 -19.76,104.42 -59.42,141.05 -39.52,36.64 -93.03,54.96 -160.24,54.96l-79.9 0zm0 -312.69l0 248.5 74.42 0c48.9,0 86.39,-11.25 112.07,-33.6 25.81,-22.36 38.65,-54.09 38.65,-94.9 0,-80.05 -47.31,-120 -141.92,-120l-83.22 0zm686.24 541.72l-69.38 0 0 -67.64 -1.58 0c-30.15,51.92 -74.57,77.74 -133.13,77.74 -43.12,0 -76.87,-11.4 -101.24,-34.19 -24.38,-22.78 -36.49,-53.07 -36.49,-90.86 0,-80.77 47.59,-127.93 142.78,-141.06l129.66 -18.17c0,-73.55 -29.71,-110.33 -89.13,-110.33 -52.07,0 -99.08,17.74 -141.05,53.22l0 -70.96c42.54,-27.12 91.44,-40.53 146.96,-40.53 101.68,0 152.6,53.8 152.6,161.39l0 281.39zm-69.38 -218.94l-104.27 14.42c-32.17,4.48 -56.4,12.41 -72.69,23.95 -16.3,11.39 -24.52,31.58 -24.52,60.57 0,21.06 7.5,38.37 22.64,51.78 15,13.41 35.05,20.05 60.14,20.05 34.33,0 62.74,-12.12 85.1,-36.06 22.5,-24.09 33.6,-54.66 33.6,-91.58l0 -43.13zm559.18 218.94l-69.38 0 0 -246.77c0,-91.88 -33.46,-137.74 -100.52,-137.74 -34.62,0 -63.32,12.98 -85.96,39.08 -22.79,26.11 -34.04,58.99 -34.04,98.66l0 246.77 -69.38 0 0 -432.68 69.38 0 0 71.82 1.73 0c32.6,-54.66 79.9,-81.92 141.92,-81.92 47.31,0 83.51,15.29 108.6,45.86 25.1,30.44 37.65,74.71 37.65,132.41l0 264.51zm331.29 -4.18c-16.3,8.94 -37.93,13.41 -64.61,13.41 -75.87,0 -113.66,-42.26 -113.66,-126.78l0 -256 -74.42 0 0 -59.13 74.42 0 0 -105.58 69.23 -22.5 0 128.08 109.04 0 0 59.13 -109.04 0 0 243.89c0,28.99 4.91,49.61 14.86,62.02 9.81,12.4 26.11,18.6 49.04,18.6 17.45,0 32.45,-4.76 45.14,-14.42l0 59.28zm266.54 14.28c-63.9,0 -114.95,-20.2 -153.17,-60.58 -38.08,-40.38 -57.26,-94.04 -57.26,-160.81 0,-72.7 19.9,-129.38 59.56,-170.34 39.81,-40.81 93.46,-61.15 161.11,-61.15 64.47,0 114.8,19.76 151,59.57 36.21,39.66 54.23,94.75 54.23,165.14 0,69.08 -19.47,124.32 -58.41,165.86 -39.08,41.54 -91.44,62.31 -157.06,62.31zm5.05 -394.61c-44.43,0 -79.62,15.14 -105.58,45.43 -25.96,30.29 -38.94,71.97 -38.94,125.33 0,51.2 13.12,91.59 39.37,121.16 26.25,29.56 61.3,44.42 105.15,44.42 44.85,0 79.32,-14.57 103.41,-43.56 24.08,-28.99 36.05,-70.24 36.05,-123.75 0,-54.08 -11.97,-95.76 -36.05,-125.04 -24.09,-29.43 -58.56,-43.99 -103.41,-43.99zm680.47 384.51l-69.38 0 0 -246.77c0,-91.88 -33.46,-137.74 -100.52,-137.74 -34.62,0 -63.32,12.98 -85.96,39.08 -22.79,26.11 -34.04,58.99 -34.04,98.66l0 246.77 -69.38 0 0 -432.68 69.38 0 0 71.82 1.73 0c32.6,-54.66 79.9,-81.92 141.92,-81.92 47.31,0 83.51,15.29 108.6,45.86 25.1,30.44 37.65,74.71 37.65,132.41l0 264.51zm478.26 -199.04l-305.48 0c1.16,48.18 14.14,85.39 38.95,111.64 24.8,26.1 58.84,39.23 102.25,39.23 48.75,0 93.46,-16.01 134.42,-48.17l0 65.04c-38.07,27.69 -88.41,41.4 -150.86,41.4 -61.15,0 -109.18,-19.62 -144.08,-58.85 -35.05,-39.37 -52.5,-94.61 -52.5,-165.86 0,-67.36 19.18,-122.16 57.26,-164.57 38.22,-42.4 85.67,-63.6 142.21,-63.6 56.68,0 100.38,18.32 131.39,54.95 31.01,36.49 46.44,87.4 46.44,152.45l0 36.34zm-70.96 -58.7c-0.29,-39.95 -9.95,-71.1 -28.85,-93.46 -19.03,-22.21 -45.43,-33.31 -79.32,-33.31 -32.6,0 -60.43,11.68 -83.22,35.04 -22.79,23.37 -36.92,53.95 -42.26,91.73l233.65 0z"/>
  <polygon class="fil7" points="13438.54,3012.25 15457.83,3012.25 15457.83,5031.54 13438.54,5031.54 "/>
  <polygon class="fil2" points="13438.54,5031.54 15457.83,5031.54 15457.83,7050.83 13438.54,7050.83 "/>
  <polygon class="fil3" points="15458.06,3011.92 17477.35,3011.92 17477.35,5031.2 15458.06,5031.2 "/>
  <polygon class="fil8" points="15458.06,5031.2 17477.35,5031.2 17477.35,7050.49 15458.06,7050.49 "/>
  <path class="fil0 str1" d="M13500.55 2987.69l3859.9 0c49.21,0 89.46,40.25 89.46,89.46l0 3859.33c0,49.2 -40.25,89.45 -89.46,89.45l-3859.9 0c-49.2,0 -89.45,-40.25 -89.45,-89.45l0 -3859.33c0,-49.21 40.25,-89.46 89.45,-89.46z"/>
  <path class="fil6" d="M13907.32 3349.61l-4.37 20.19 -49.84 0 -12.05 57.27 53.68 0 -5.14 20.26 -52.51 0 -16.81 75.77 -24.04 0 16.42 -75.77 -47.76 0 -16.02 75.77 -23.85 0 16.03 -75.77 -49.97 0 3.78 -20.26 50.62 0 11.59 -57.27 -52.83 0 3.97 -20.19 52.9 0 16.03 -76.75 24.04 0 -16.03 76.75 48.08 0 16.42 -76.75 23.52 0 -16.03 76.75 50.17 0zm-77.86 20.19l-48.14 0 -12.57 57.27 48.47 0 12.24 -57.27zm117.53 170.04l0 -33.16c18.76,12.05 37.79,18.11 57.07,18.11 19.35,0 34.99,-5.47 46.78,-16.42 11.85,-10.94 17.78,-25.47 17.78,-43.52 0,-17.91 -6.06,-31.92 -18.17,-41.95 -12.06,-10.1 -29.39,-15.12 -51.86,-15.12 -7.69,0 -21.96,0.79 -43,2.28l0 -137.2 132.51 0 0 28.21 -102.93 0 0 80.2c8.4,-0.52 16.22,-0.78 23.32,-0.78 29.25,0 51.92,7.36 67.95,22.08 16.03,14.66 24.04,34.79 24.04,60.39 0,26.45 -8.6,47.76 -25.86,63.92 -17.27,16.15 -40.85,24.23 -70.88,24.23 -25.35,0 -44.24,-3.71 -56.75,-11.27zm257.66 -136.81l0 -0.78c-32.83,-15.25 -49.25,-37.4 -49.25,-66.39 0,-19.74 7.56,-35.96 22.54,-48.6 14.99,-12.64 34.34,-19.02 58.05,-19.02 21.37,0 38.89,5.92 52.64,17.78 13.75,11.86 20.65,27.04 20.65,45.61 0,30.29 -16.94,53.81 -50.81,70.62l0 0.78c40,14.27 59.93,38.96 59.93,74.07 0,22.61 -8.14,40.65 -24.43,54.01 -16.29,13.36 -38.89,20 -67.95,20 -23.39,0 -42.67,-6.58 -57.78,-19.8 -15.18,-13.29 -22.74,-30.43 -22.74,-51.54 0,-35.18 19.74,-60.72 59.15,-76.74zm72.58 -67.56c0,-12.64 -3.98,-22.54 -11.86,-29.77 -7.88,-7.3 -18.63,-10.88 -32.25,-10.88 -12.77,0 -23.52,3.78 -32.38,11.33 -8.86,7.56 -13.22,17.2 -13.22,28.93 0,23.78 14.79,41.76 44.43,53.81 30.16,-12.44 45.28,-30.29 45.28,-53.42zm-47.36 82.41c-34.86,13.88 -52.32,34.01 -52.32,60.33 0,13.62 5.08,24.82 15.18,33.49 10.1,8.73 23.45,13.09 40,13.09 15.77,0 28.67,-4.3 38.64,-12.9 9.96,-8.6 14.98,-19.41 14.98,-32.51 0,-27.49 -18.83,-48.01 -56.48,-61.5zm245.41 128.67l-31.27 0 0 -236.49c-2.41,2.41 -6,5.21 -10.62,8.34 -4.63,3.06 -9.84,6.19 -15.64,9.25 -5.79,3 -11.92,5.86 -18.3,8.54 -6.45,2.73 -12.71,4.82 -18.83,6.32l0 -31.67c6.84,-1.95 14.14,-4.49 21.82,-7.75 7.76,-3.26 15.31,-6.84 22.74,-10.88 7.43,-3.97 14.46,-8.21 21.11,-12.57 6.58,-4.43 12.31,-8.67 17.2,-12.9l11.79 0 0 279.81zm234.73 -273.69l0 180.72 35.11 0 0 28.67 -35.11 0 0 64.3 -30.88 0 0 -64.3 -128.67 0 0 -27.1c11.99,-13.49 24.04,-27.95 36.29,-43.26 12.18,-15.31 23.84,-30.88 34.98,-46.65 11.14,-15.76 21.44,-31.53 30.95,-47.23 9.45,-15.77 17.46,-30.75 23.97,-45.15l33.36 0zm-124.24 180.72l93.36 0 0 -133.94c-9.58,16.61 -18.63,31.53 -27.1,44.62 -8.54,13.1 -16.68,25.02 -24.37,35.71 -7.69,10.68 -15.05,20.32 -22.02,28.99 -7.03,8.66 -13.61,16.87 -19.87,24.62zm310.89 92.97l-31.27 0 0 -236.49c-2.41,2.41 -6,5.21 -10.62,8.34 -4.63,3.06 -9.84,6.19 -15.64,9.25 -5.79,3 -11.92,5.86 -18.3,8.54 -6.45,2.73 -12.71,4.82 -18.83,6.32l0 -31.67c6.84,-1.95 14.14,-4.49 21.82,-7.75 7.76,-3.26 15.31,-6.84 22.74,-10.88 7.43,-3.97 14.46,-8.21 21.11,-12.57 6.58,-4.43 12.31,-8.67 17.2,-12.9l11.79 0 0 279.81zm97.53 -10.1l0 -33.81c18.69,14.79 39.8,22.15 63.32,22.15 19.09,0 34.33,-4.76 45.74,-14.33 11.4,-9.51 17.06,-22.35 17.06,-38.57 0,-35.7 -25.34,-53.62 -76.15,-53.62l-22.68 0 0 -26.51 21.57 0c45.15,0 67.75,-16.81 67.75,-50.36 0,-31.08 -17.26,-46.58 -51.73,-46.58 -19.21,0 -37.33,6.51 -54.39,19.61l0 -30.49c17.52,-10.43 38.3,-15.7 62.21,-15.7 23.07,0 41.44,6.12 55.25,18.37 13.81,12.18 20.72,27.82 20.72,46.9 0,36.03 -18.31,59.22 -54.99,69.52l0 0.78c19.74,1.89 35.44,8.8 47.04,20.65 11.66,11.92 17.52,26.78 17.52,44.56 0,24.56 -8.86,44.43 -26.45,59.48 -17.65,15.12 -40.91,22.61 -69.77,22.61 -25.93,0 -46.65,-4.89 -62.02,-14.66z"/>
  <path class="fil6" d="M15957.5 3348.96l-4.37 20.19 -49.84 0 -12.05 57.27 53.68 0 -5.14 20.26 -52.51 0 -16.81 75.77 -24.04 0 16.42 -75.77 -47.76 0 -16.02 75.77 -23.85 0 16.03 -75.77 -49.97 0 3.78 -20.26 50.62 0 11.59 -57.27 -52.83 0 3.97 -20.19 52.9 0 16.03 -76.75 24.04 0 -16.03 76.75 48.08 0 16.42 -76.75 23.52 0 -16.03 76.75 50.17 0zm-77.86 20.19l-48.14 0 -12.57 57.27 48.47 0 12.24 -57.27zm267.18 176.75l-145.02 0 0 -273.69 138.96 0 0 28.99 -106.91 0 0 91.08 98.89 0 0 28.8 -98.89 0 0 95.83 112.97 0 0 28.99zm154.99 0l-31.27 0 0 -236.49c-2.41,2.41 -6,5.21 -10.62,8.34 -4.63,3.06 -9.84,6.19 -15.64,9.25 -5.79,3 -11.92,5.86 -18.3,8.54 -6.45,2.73 -12.71,4.82 -18.83,6.32l0 -31.67c6.84,-1.95 14.14,-4.49 21.82,-7.75 7.76,-3.26 15.31,-6.84 22.74,-10.88 7.43,-3.97 14.46,-8.21 21.11,-12.57 6.58,-4.43 12.31,-8.67 17.2,-12.9l11.79 0 0 279.81zm219.88 -201.96c0,-8.4 -1.31,-15.7 -3.91,-21.95 -2.61,-6.19 -6.19,-11.41 -10.69,-15.51 -4.56,-4.17 -9.84,-7.23 -15.96,-9.25 -6.12,-2.09 -12.7,-3.06 -19.87,-3.06 -6.06,0 -12.05,0.78 -17.92,2.47 -5.86,1.63 -11.53,3.91 -17.06,6.84 -5.54,2.93 -10.88,6.45 -16.03,10.49 -5.21,4.11 -9.97,8.6 -14.46,13.55l0 -33.55c8.79,-8.53 18.63,-15.05 29.51,-19.61 10.88,-4.49 24.17,-6.77 39.8,-6.77 11.21,0 21.57,1.63 31.08,4.88 9.58,3.26 17.85,8.02 24.82,14.2 7.04,6.26 12.51,13.95 16.55,23.13 3.97,9.19 5.99,19.68 5.99,31.47 0,10.81 -1.23,20.65 -3.71,29.45 -2.48,8.73 -6.25,17 -11.27,24.75 -5.02,7.82 -11.34,15.25 -19.02,22.35 -7.63,7.16 -16.55,14.4 -26.91,21.76 -12.83,9.18 -23.39,17 -31.73,23.52 -8.34,6.45 -14.98,12.5 -19.87,18.17 -4.88,5.67 -8.34,11.34 -10.29,17.01 -2.02,5.66 -3,12.18 -3,19.54l136.29 0 0 28.08 -168.93 0 0 -13.55c0,-11.73 1.31,-22.02 3.85,-30.95 2.54,-8.86 6.71,-17.33 12.57,-25.34 5.86,-8.01 13.55,-16.03 23,-24.04 9.51,-8.01 21.11,-17.07 34.85,-27.1 9.9,-7.17 18.24,-13.94 24.89,-20.46 6.71,-6.51 12.05,-12.96 16.15,-19.48 4.04,-6.45 6.98,-13.03 8.67,-19.74 1.76,-6.71 2.61,-13.74 2.61,-21.3zm244.24 201.96l-145.02 0 0 -273.69 138.96 0 0 28.99 -106.91 0 0 91.08 98.89 0 0 28.8 -98.89 0 0 95.83 112.97 0 0 28.99zm179.03 -273.69l0 180.72 35.11 0 0 28.67 -35.11 0 0 64.3 -30.88 0 0 -64.3 -128.67 0 0 -27.1c11.99,-13.49 24.04,-27.95 36.29,-43.26 12.18,-15.31 23.84,-30.88 34.98,-46.65 11.14,-15.76 21.44,-31.53 30.95,-47.23 9.45,-15.77 17.46,-30.75 23.97,-45.15l33.36 0zm-124.24 180.72l93.36 0 0 -133.94c-9.58,16.61 -18.63,31.53 -27.1,44.62 -8.54,13.1 -16.68,25.02 -24.37,35.71 -7.69,10.68 -15.05,20.32 -22.02,28.99 -7.03,8.66 -13.61,16.87 -19.87,24.62zm310.89 92.97l-31.27 0 0 -236.49c-2.41,2.41 -6,5.21 -10.62,8.34 -4.63,3.06 -9.84,6.19 -15.64,9.25 -5.79,3 -11.92,5.86 -18.3,8.54 -6.45,2.73 -12.71,4.82 -18.83,6.32l0 -31.67c6.84,-1.95 14.14,-4.49 21.82,-7.75 7.76,-3.26 15.31,-6.84 22.74,-10.88 7.43,-3.97 14.46,-8.21 21.11,-12.57 6.58,-4.43 12.31,-8.67 17.2,-12.9l11.79 0 0 279.81z"/>
  <path class="fil9" d="M13861.26 5359.32l-4.37 20.19 -49.84 0 -12.05 57.27 53.68 0 -5.14 20.26 -52.51 0 -16.81 75.77 -24.04 0 16.42 -75.77 -47.76 0 -16.02 75.77 -23.85 0 16.03 -75.77 -49.97 0 3.78 -20.26 50.62 0 11.59 -57.27 -52.83 0 3.97 -20.19 52.9 0 16.03 -76.75 24.04 0 -16.03 76.75 48.08 0 16.42 -76.75 23.52 0 -16.03 76.75 50.17 0zm-77.86 20.19l-48.14 0 -12.57 57.27 48.47 0 12.24 -57.27zm261.12 -67.95l-106.91 0 0 94.66 98.89 0 0 28.86 -98.89 0 0 121.18 -32.05 0 0 -273.69 138.96 0 0 28.99zm47.29 237.99l0 -33.16c18.76,12.05 37.79,18.11 57.07,18.11 19.35,0 34.99,-5.47 46.78,-16.42 11.85,-10.94 17.78,-25.47 17.78,-43.52 0,-17.91 -6.06,-31.92 -18.17,-41.95 -12.06,-10.1 -29.39,-15.12 -51.86,-15.12 -7.69,0 -21.96,0.79 -43,2.28l0 -137.2 132.51 0 0 28.21 -102.93 0 0 80.2c8.4,-0.52 16.22,-0.78 23.32,-0.78 29.25,0 51.92,7.36 67.95,22.08 16.03,14.66 24.04,34.79 24.04,60.39 0,26.45 -8.6,47.76 -25.86,63.92 -17.27,16.15 -40.85,24.23 -70.88,24.23 -25.35,0 -44.24,-3.71 -56.75,-11.27zm326.79 -195.25c0,-8.4 -1.31,-15.7 -3.91,-21.95 -2.61,-6.19 -6.19,-11.41 -10.69,-15.51 -4.56,-4.17 -9.84,-7.23 -15.96,-9.25 -6.12,-2.09 -12.7,-3.06 -19.87,-3.06 -6.06,0 -12.05,0.78 -17.92,2.47 -5.86,1.63 -11.53,3.91 -17.06,6.84 -5.54,2.93 -10.88,6.45 -16.03,10.49 -5.21,4.11 -9.97,8.6 -14.46,13.55l0 -33.55c8.79,-8.53 18.63,-15.05 29.51,-19.61 10.88,-4.49 24.17,-6.77 39.8,-6.77 11.21,0 21.57,1.63 31.08,4.88 9.58,3.26 17.85,8.02 24.82,14.2 7.04,6.26 12.51,13.95 16.55,23.13 3.97,9.19 5.99,19.68 5.99,31.47 0,10.81 -1.23,20.65 -3.71,29.45 -2.48,8.73 -6.25,17 -11.27,24.75 -5.02,7.82 -11.34,15.25 -19.02,22.35 -7.63,7.16 -16.55,14.4 -26.91,21.76 -12.83,9.18 -23.39,17 -31.73,23.52 -8.34,6.45 -14.98,12.5 -19.87,18.17 -4.88,5.67 -8.34,11.34 -10.29,17.01 -2.02,5.66 -3,12.18 -3,19.54l136.29 0 0 28.08 -168.93 0 0 -13.55c0,-11.73 1.31,-22.02 3.85,-30.95 2.54,-8.86 6.71,-17.33 12.57,-25.34 5.86,-8.01 13.55,-16.03 23,-24.04 9.51,-8.01 21.11,-17.07 34.85,-27.1 9.9,-7.17 18.24,-13.94 24.89,-20.46 6.71,-6.51 12.05,-12.96 16.15,-19.48 4.04,-6.45 6.98,-13.03 8.67,-19.74 1.76,-6.71 2.61,-13.74 2.61,-21.3zm210.69 0c0,-8.4 -1.31,-15.7 -3.91,-21.95 -2.61,-6.19 -6.19,-11.41 -10.69,-15.51 -4.56,-4.17 -9.84,-7.23 -15.96,-9.25 -6.12,-2.09 -12.7,-3.06 -19.87,-3.06 -6.06,0 -12.05,0.78 -17.92,2.47 -5.86,1.63 -11.53,3.91 -17.06,6.84 -5.54,2.93 -10.88,6.45 -16.03,10.49 -5.21,4.11 -9.97,8.6 -14.46,13.55l0 -33.55c8.79,-8.53 18.63,-15.05 29.51,-19.61 10.88,-4.49 24.17,-6.77 39.8,-6.77 11.21,0 21.57,1.63 31.08,4.88 9.58,3.26 17.85,8.02 24.82,14.2 7.04,6.26 12.51,13.95 16.55,23.13 3.97,9.19 5.99,19.68 5.99,31.47 0,10.81 -1.23,20.65 -3.71,29.45 -2.48,8.73 -6.25,17 -11.27,24.75 -5.02,7.82 -11.34,15.25 -19.02,22.35 -7.63,7.16 -16.55,14.4 -26.91,21.76 -12.83,9.18 -23.39,17 -31.73,23.52 -8.34,6.45 -14.98,12.5 -19.87,18.17 -4.88,5.67 -8.34,11.34 -10.29,17.01 -2.02,5.66 -3,12.18 -3,19.54l136.29 0 0 28.08 -168.93 0 0 -13.55c0,-11.73 1.31,-22.02 3.85,-30.95 2.54,-8.86 6.71,-17.33 12.57,-25.34 5.86,-8.01 13.55,-16.03 23,-24.04 9.51,-8.01 21.11,-17.07 34.85,-27.1 9.9,-7.17 18.24,-13.94 24.89,-20.46 6.71,-6.51 12.05,-12.96 16.15,-19.48 4.04,-6.45 6.98,-13.03 8.67,-19.74 1.76,-6.71 2.61,-13.74 2.61,-21.3zm88.34 191.86l0 -33.81c18.69,14.79 39.8,22.15 63.32,22.15 19.09,0 34.33,-4.76 45.74,-14.33 11.4,-9.51 17.06,-22.35 17.06,-38.57 0,-35.7 -25.34,-53.62 -76.15,-53.62l-22.68 0 0 -26.51 21.57 0c45.15,0 67.75,-16.81 67.75,-50.36 0,-31.08 -17.26,-46.58 -51.73,-46.58 -19.21,0 -37.33,6.51 -54.39,19.61l0 -30.49c17.52,-10.43 38.3,-15.7 62.21,-15.7 23.07,0 41.44,6.12 55.25,18.37 13.81,12.18 20.72,27.82 20.72,46.9 0,36.03 -18.31,59.22 -54.99,69.52l0 0.78c19.74,1.89 35.44,8.8 47.04,20.65 11.66,11.92 17.52,26.78 17.52,44.56 0,24.56 -8.86,44.43 -26.45,59.48 -17.65,15.12 -40.91,22.61 -69.77,22.61 -25.93,0 -46.65,-4.89 -62.02,-14.66zm347.89 -263.59l0 180.72 35.11 0 0 28.67 -35.11 0 0 64.3 -30.88 0 0 -64.3 -128.67 0 0 -27.1c11.99,-13.49 24.04,-27.95 36.29,-43.26 12.18,-15.31 23.84,-30.88 34.98,-46.65 11.14,-15.76 21.44,-31.53 30.95,-47.23 9.45,-15.77 17.46,-30.75 23.97,-45.15l33.36 0zm-124.24 180.72l93.36 0 0 -133.94c-9.58,16.61 -18.63,31.53 -27.1,44.62 -8.54,13.1 -16.68,25.02 -24.37,35.71 -7.69,10.68 -15.05,20.32 -22.02,28.99 -7.03,8.66 -13.61,16.87 -19.87,24.62z"/>
  <path class="fil6" d="M15933.45 5296.67l-4.37 20.19 -49.84 0 -12.05 57.27 53.68 0 -5.14 20.26 -52.51 0 -16.81 75.77 -24.04 0 16.42 -75.77 -47.76 0 -16.02 75.77 -23.85 0 16.03 -75.77 -49.97 0 3.78 -20.26 50.62 0 11.59 -57.27 -52.83 0 3.97 -20.19 52.9 0 16.03 -76.75 24.04 0 -16.03 76.75 48.08 0 16.42 -76.75 23.52 0 -16.03 76.75 50.17 0zm-77.86 20.19l-48.14 0 -12.57 57.27 48.47 0 12.24 -57.27zm334.02 176.75l-35.51 0 -28.99 -76.74 -116.09 0 -27.3 76.74 -35.64 0 104.96 -273.69 33.22 0 105.35 273.69zm-75.05 -105.54l-42.93 -116.62c-1.37,-3.84 -2.81,-9.96 -4.17,-18.3l-0.79 0c-1.23,7.75 -2.73,13.81 -4.36,18.3l-42.61 116.62 94.86 0zm241.63 -168.15l0 180.72 35.11 0 0 28.67 -35.11 0 0 64.3 -30.88 0 0 -64.3 -128.67 0 0 -27.1c11.99,-13.49 24.04,-27.95 36.29,-43.26 12.18,-15.31 23.84,-30.88 34.98,-46.65 11.14,-15.76 21.44,-31.53 30.95,-47.23 9.45,-15.77 17.46,-30.75 23.97,-45.15l33.36 0zm-124.24 180.72l93.36 0 0 -133.94c-9.58,16.61 -18.63,31.53 -27.1,44.62 -8.54,13.1 -16.68,25.02 -24.37,35.71 -7.69,10.68 -15.05,20.32 -22.02,28.99 -7.03,8.66 -13.61,16.87 -19.87,24.62zm197.73 82.87l0 -33.81c18.69,14.79 39.8,22.15 63.32,22.15 19.09,0 34.33,-4.76 45.74,-14.33 11.4,-9.51 17.06,-22.35 17.06,-38.57 0,-35.7 -25.34,-53.62 -76.15,-53.62l-22.68 0 0 -26.51 21.57 0c45.15,0 67.75,-16.81 67.75,-50.36 0,-31.08 -17.26,-46.58 -51.73,-46.58 -19.21,0 -37.33,6.51 -54.39,19.61l0 -30.49c17.52,-10.43 38.3,-15.7 62.21,-15.7 23.07,0 41.44,6.12 55.25,18.37 13.81,12.18 20.72,27.82 20.72,46.9 0,36.03 -18.31,59.22 -54.99,69.52l0 0.78c19.74,1.89 35.44,8.8 47.04,20.65 11.66,11.92 17.52,26.78 17.52,44.56 0,24.56 -8.86,44.43 -26.45,59.48 -17.65,15.12 -40.91,22.61 -69.77,22.61 -25.93,0 -46.65,-4.89 -62.02,-14.66zm417.79 10.1l-38.17 0 -45.87 -76.74c-4.17,-7.11 -8.21,-13.16 -12.18,-18.25 -3.97,-5.01 -8.01,-9.12 -12.12,-12.24 -4.17,-3.2 -8.6,-5.54 -13.35,-6.98 -4.76,-1.49 -10.17,-2.21 -16.16,-2.21l-26.32 0 0 116.42 -32.05 0 0 -273.69 81.69 0c11.92,0 23,1.5 33.1,4.5 10.1,2.99 18.89,7.49 26.32,13.61 7.49,6.13 13.29,13.75 17.46,22.8 4.23,9.13 6.32,19.74 6.32,31.99 0,9.51 -1.44,18.31 -4.3,26.26 -2.87,7.95 -6.91,15.05 -12.19,21.24 -5.27,6.25 -11.66,11.59 -19.08,15.96 -7.5,4.36 -15.83,7.82 -25.15,10.23l0 0.71c4.62,2.09 8.6,4.37 11.99,6.97 3.32,2.67 6.58,5.74 9.57,9.32 3.06,3.52 6.13,7.56 9.12,12.12 3,4.49 6.32,9.7 9.97,15.7l51.4 82.28zm-164.17 -244.7l0 99.29 43.52 0c8.01,0 15.44,-1.24 22.21,-3.65 6.84,-2.41 12.71,-5.86 17.66,-10.42 4.95,-4.5 8.86,-10.04 11.66,-16.62 2.8,-6.51 4.17,-13.87 4.17,-22.02 0,-14.65 -4.69,-26.06 -14.2,-34.26 -9.45,-8.21 -23.19,-12.32 -41.11,-12.32l-43.91 0zm313.24 42.74c0,-8.4 -1.31,-15.7 -3.91,-21.95 -2.61,-6.19 -6.19,-11.41 -10.69,-15.51 -4.56,-4.17 -9.84,-7.23 -15.96,-9.25 -6.12,-2.09 -12.7,-3.06 -19.87,-3.06 -6.06,0 -12.05,0.78 -17.92,2.47 -5.86,1.63 -11.53,3.91 -17.06,6.84 -5.54,2.93 -10.88,6.45 -16.03,10.49 -5.21,4.11 -9.97,8.6 -14.46,13.55l0 -33.55c8.79,-8.53 18.63,-15.05 29.51,-19.61 10.88,-4.49 24.17,-6.77 39.8,-6.77 11.21,0 21.57,1.63 31.08,4.88 9.58,3.26 17.85,8.02 24.82,14.2 7.04,6.26 12.51,13.95 16.55,23.13 3.97,9.19 5.99,19.68 5.99,31.47 0,10.81 -1.23,20.65 -3.71,29.45 -2.48,8.73 -6.25,17 -11.27,24.75 -5.02,7.82 -11.34,15.25 -19.02,22.35 -7.63,7.16 -16.55,14.4 -26.91,21.76 -12.83,9.18 -23.39,17 -31.73,23.52 -8.34,6.45 -14.98,12.5 -19.87,18.17 -4.88,5.67 -8.34,11.34 -10.29,17.01 -2.02,5.66 -3,12.18 -3,19.54l136.29 0 0 28.08 -168.93 0 0 -13.55c0,-11.73 1.31,-22.02 3.85,-30.95 2.54,-8.86 6.71,-17.33 12.57,-25.34 5.86,-8.01 13.55,-16.03 23,-24.04 9.51,-8.01 21.11,-17.07 34.85,-27.1 9.9,-7.17 18.24,-13.94 24.89,-20.46 6.71,-6.51 12.05,-12.96 16.15,-19.48 4.04,-6.45 6.98,-13.03 8.67,-19.74 1.76,-6.71 2.61,-13.74 2.61,-21.3zm88.34 191.86l0 -33.81c18.69,14.79 39.8,22.15 63.32,22.15 19.09,0 34.33,-4.76 45.74,-14.33 11.4,-9.51 17.06,-22.35 17.06,-38.57 0,-35.7 -25.34,-53.62 -76.15,-53.62l-22.68 0 0 -26.51 21.57 0c45.15,0 67.75,-16.81 67.75,-50.36 0,-31.08 -17.26,-46.58 -51.73,-46.58 -19.21,0 -37.33,6.51 -54.39,19.61l0 -30.49c17.52,-10.43 38.3,-15.7 62.21,-15.7 23.07,0 41.44,6.12 55.25,18.37 13.81,12.18 20.72,27.82 20.72,46.9 0,36.03 -18.31,59.22 -54.99,69.52l0 0.78c19.74,1.89 35.44,8.8 47.04,20.65 11.66,11.92 17.52,26.78 17.52,44.56 0,24.56 -8.86,44.43 -26.45,59.48 -17.65,15.12 -40.91,22.61 -69.77,22.61 -25.93,0 -46.65,-4.89 -62.02,-14.66z"/>
  <polygon class="fil10 str2" points="2432.73,5365.67 5135.89,5365.67 5135.89,7013.58 2432.73,7013.58 "/>
  <polygon class="fil10 str2" points="5283.84,5359 7987,5359 7987,7006.91 5283.84,7006.91 "/>
  <polygon class="fil11" points="8134.95,5352.33 10838.11,5352.33 10838.11,7000.24 8134.95,7000.24 "/>
  <path class="fil12" d="M3692.58 5928.31c-153.1,0 -151.57,-2.74 -297.8,-76.96 -80.98,-41.09 -105.36,-74.53 -228.46,-74.53 57.1,-82.17 281.79,127.57 462.47,127.57 269.17,0 341.33,-207.31 406.65,-207.31 24.23,0 27.08,13.84 31.9,31.9 -22.48,1.87 -36.59,7.55 -53.53,18.23 -23.03,14.51 -17.63,15.15 -36.2,35.56 -54.48,59.89 -190.01,145.54 -285.03,145.54zm-47.84 -39.86c-177.62,0 -295.62,-143.52 -462.47,-143.52 -60.88,0 -90.99,31.35 -95.68,87.7 74.57,-49.93 103.96,-18.53 189.5,57.68 147.49,131.41 250.75,213.43 464.33,213.43 106.61,0 199.83,-32.23 273.79,-69.07 76.72,-38.21 188.68,-94.72 188.68,-178.12 0,-24.03 -9.62,-18.96 -28.16,-27.65 -47.42,-22.23 -56.19,-36.22 -83.58,-99.82 -28.59,-66.31 -51.73,-72.25 -129.54,-2.17 -90.5,81.48 -180.08,161.54 -316.87,161.54z"/>
  <path class="fil12" d="M4186.94 5780.79c-8.09,-4.7 -31.71,11.09 -5.55,-32.36 9.47,-15.76 19.37,-21.91 29.47,-31.39 -11.31,33.06 -17.45,29.38 -23.92,63.75zm-83.7 -91.68c4.43,67.77 36.71,119.62 99.65,127.58 0.56,-52.05 21.32,-86.15 49.65,-109.44 116.84,-96.04 205.96,-13.11 213.47,-10.17 20.68,-13.83 21.6,-11.79 29.92,-39.86 -39.99,-33.95 -85.38,-31.9 -133.57,-31.9 -94.62,0 -176.92,89.18 -259.12,63.79z"/>
  <path class="fil12" d="M4417.31 6167.47c-4.95,46.59 -25.54,93.87 -36.75,139.1 -11.09,44.76 -32.62,93.27 -36.64,136.78l-9.45 0c-17.11,-68.23 -62.34,-191.07 -73.39,-251.96 -6.93,-8.4 -3.83,-1.92 -10.39,-14.97 -0.48,-0.96 -6.02,-16.12 -6.51,-17.6 -5.11,-15.24 -5.03,-15.94 -8.58,-31.23l-49.52 0c-10.3,4.47 -19.61,4.71 -21.87,5.91 -22.03,11.56 -19.87,-8.59 -8.41,10.16l5.01 10.87c0.38,1.43 1.39,4.31 1.83,6.11 10.93,44.74 8.99,206.93 6.55,250.05 -1.62,28.65 3.87,94.34 2.75,139.96 -1.06,43.36 -0.38,104.3 -17.76,127.12 18.59,15.37 17.5,11.28 68.65,11.28 -22.23,-125.87 -15.94,-53.3 -15.94,-194.6 0,-68.03 0,-136.05 0,-204.07l9.45 0c13.6,54.26 34.45,102.5 52.28,162.21 18.23,61.1 39.67,110.88 51.38,164.7l9.61 -11.09c20.26,-30.78 99.14,-316.63 100.54,-331.77l9.58 299.94c0.57,55.58 0.1,54.21 -16.08,90.76l109.93 -10.17 -15.63 -19.37c-14.2,-26.49 -8.17,-64.43 -8.08,-101.26 0.27,-103.55 -12.49,-372.66 12.78,-428.97 -11.96,-10.91 4.61,-5.42 -14.76,-7.2l-65.1 5.51c-8.25,35.45 -5.26,43.84 -25.48,63.8z"/>
  <path class="fil12" d="M3269.98 6582.1l-16.58 -295.66c3.02,-40.47 33.63,-38.94 56.39,-21.61 69.92,12.7 111.23,97.62 95.26,174.94 -14.47,70.1 -62.52,129.72 -135.07,142.33zm1.63 191.35c-1.26,-1.63 -2.86,-3.86 -3.45,-5.11l-11.23 -37.61c-3.49,-20.02 -2.89,-32.12 -2.96,-52.84 -0.4,-114.55 20.97,-64.38 23.92,-62.22 46.45,50.22 78.81,106.12 115.96,168.7 17.14,28.86 34.4,65.87 65,80.53 39.19,18.77 102.28,10.49 93.45,-38.81 -1.66,-0.45 -4.5,-1.88 -5.14,-0.03l-14.5 2.92c-17.37,7.22 -2.48,5.56 -20.23,13.05 -14.28,-21.33 -29.61,-33.32 -44.66,-58.17 -13.9,-22.94 -23.41,-45.89 -34.95,-68.47 -28.76,-56.18 -45.99,-78.91 -95.81,-114.05 62.29,-35.26 127.08,-60.1 136.07,-170.23 2.69,-33.01 3.27,-53.7 -5.17,-84.57 -41.51,-151.67 -199.76,-110.5 -288.89,-110.5l10.2 500.3c-1.2,29.05 -1.84,42.16 -18.18,64.35l109.97 -9.7c-9.45,-19.22 0.07,-4 -9.4,-17.54z"/>
  <path class="fil12" d="M3616.09 6226.59c67.35,0 104.72,13.02 112.46,69.87 6.66,48.87 5.55,326.12 -10.05,360.78 -14.81,32.91 -55.07,69.75 -102.49,73.17 -8,-93.65 -3.13,-356.87 -3.8,-467.27l3.88 -36.55zm-75.07 -27.19c-6.34,11.1 -5.21,8.86 -7.97,25.56 14.06,33.7 8.24,503.62 -3.18,535.85 240.02,0 277.68,-44.43 277.59,-282.32 -0.1,-237.14 6.06,-307.39 -266.44,-279.09z"/>
  <path class="fil12" d="M4724.85 6598.42c-29.58,-6.45 -26.62,-4.86 -33.46,-33.46 -26.22,-46.52 -12.76,-408.37 -12.76,-488.01 -24.03,8.52 -51.86,7.98 -86.23,7.98 19.2,108.71 16,25.59 15.94,162.71 -0.02,60.99 -12.15,303.58 13.31,340.77 53.15,77.62 196.75,61.12 229.28,-47.83 14.96,-50.09 4.96,-328.87 8.16,-413.05 2.23,-58.59 3.48,-35.17 18.88,-66.53l-94.22 7.86 0.17 457.62c-2.55,29.69 -39.2,79.61 -59.07,71.94z"/>
  <path class="fil12" d="M3011.58 6642.7c-39.25,22.21 -75.14,29.27 -112.99,55.7 -14.28,9.98 -24.84,26.71 -19.63,-6.01l84.77 -322.28c1.27,54.21 39.01,192.42 47.85,272.59zm-212.11 177.04l0 17.63c31.5,0 32.46,-2.52 55.94,-7.98 0,-7.13 -1.04,-26.6 -0.34,-32.3 4.72,-37.99 0,-10.46 8.28,-23.54 6.84,-28.28 6.08,-25.3 33.49,-31.86 32.08,-29.08 83.33,-28.83 114.74,-52.64 20.07,37.63 23.65,83.91 15.94,127.58 37.08,-2.48 53.79,-7.97 102.18,-7.97l-15.73 -29.87c-8.37,-17.75 -5.65,-8.59 -11.71,-34.81 -29.24,-126.54 24.89,-81.44 10.21,-146.42 -15.45,-68.4 -11.46,-5.7 -38.59,5.26 -2.46,-96.48 -66.41,-275.91 -39.86,-350.83 -22.58,5.4 -81.14,7.11 -90.83,10.81 -30.84,11.76 -14.14,-7.72 -19.93,31.35 -12.41,83.74 -94.6,473.81 -123.79,525.59z"/>
  <path class="fil12" d="M3885.47 6725.56c9.75,-14.07 -2.78,-5.16 16.52,-8.8l174.85 -16.68c0,-72.69 -21.54,-86.22 1.55,-111.63 0.81,-10.13 3.38,-20.77 0.8,-31.55 -6.57,-27.43 5.49,-7.71 -13.63,-24.37 -30.24,55.62 2.63,126.83 -79.99,155.74 -43.56,15.25 -41.98,-3.09 -41.49,-51.42 0.4,-39.02 0.39,-77.95 0.39,-116.98 27.51,0 45.43,1.46 63.79,7.97l3.36 -54.44c-15.46,3.88 -11.87,2.19 -22.62,9.71 -15.95,13.18 -9.62,14.32 -47.72,17.5l0 -326.79 71.64 0c23.37,44.11 7.98,40.44 7.98,153.06 8.39,5.67 16.25,16.4 39.31,8.77 29.69,-9.85 19.07,-5.94 19.81,-45.53l-13.69 6.08c-1.44,0.6 -4.52,2 -6.21,2.69 -13.84,5.65 8.74,3.89 -19.97,7.17 11.87,-34.67 39.11,-126.76 39.87,-167.44 -53.42,9.44 -170.02,23.92 -229.75,23.92 24.44,55.22 19.42,54.06 19.21,130.82 -0.32,121.22 5.96,336.46 -11.24,433.82l27.23 -1.62z"/>
  <path class="fil3" d="M6543.69 5921.64c-153.1,0 -151.57,-2.74 -297.8,-76.96 -80.98,-41.09 -105.36,-74.53 -228.46,-74.53 57.1,-82.17 281.79,127.57 462.47,127.57 269.17,0 341.33,-207.31 406.65,-207.31 24.23,0 27.08,13.84 31.9,31.9 -22.48,1.87 -36.59,7.55 -53.53,18.23 -23.03,14.51 -17.63,15.15 -36.2,35.56 -54.48,59.89 -190.01,145.54 -285.03,145.54zm-47.84 -39.86c-177.62,0 -295.62,-143.52 -462.47,-143.52 -60.88,0 -90.99,31.35 -95.68,87.7 74.57,-49.93 103.96,-18.53 189.5,57.68 147.49,131.41 250.75,213.43 464.33,213.43 106.61,0 199.83,-32.23 273.79,-69.07 76.72,-38.21 188.68,-94.72 188.68,-178.12 0,-24.03 -9.62,-18.96 -28.16,-27.65 -47.42,-22.23 -56.19,-36.22 -83.58,-99.82 -28.59,-66.31 -51.73,-72.25 -129.54,-2.17 -90.5,81.48 -180.08,161.54 -316.87,161.54z"/>
  <path class="fil4" d="M7038.05 5774.12c-8.09,-4.7 -31.71,11.09 -5.55,-32.36 9.47,-15.76 19.37,-21.91 29.47,-31.39 -11.31,33.06 -17.45,29.38 -23.92,63.75zm-83.7 -91.68c4.43,67.77 36.71,119.62 99.65,127.58 0.56,-52.05 21.32,-86.15 49.65,-109.44 116.84,-96.04 205.96,-13.11 213.47,-10.17 20.68,-13.83 21.6,-11.79 29.92,-39.86 -39.99,-33.95 -85.38,-31.9 -133.57,-31.9 -94.62,0 -176.92,89.18 -259.12,63.79z"/>
  <path class="fil2" d="M7268.42 6160.8c-4.95,46.59 -25.54,93.87 -36.75,139.1 -11.09,44.76 -32.62,93.27 -36.64,136.78l-9.45 0c-17.11,-68.23 -62.34,-191.07 -73.39,-251.96 -6.93,-8.4 -3.83,-1.92 -10.39,-14.97 -0.48,-0.96 -6.02,-16.12 -6.51,-17.6 -5.11,-15.24 -5.03,-15.94 -8.58,-31.23l-49.52 0c-10.3,4.47 -19.61,4.71 -21.87,5.91 -22.03,11.56 -19.87,-8.59 -8.41,10.16l5.01 10.87c0.38,1.43 1.39,4.31 1.83,6.11 10.93,44.74 8.99,206.93 6.55,250.05 -1.62,28.65 3.87,94.34 2.75,139.96 -1.06,43.36 -0.38,104.3 -17.76,127.12 18.59,15.37 17.5,11.28 68.65,11.28 -22.23,-125.87 -15.94,-53.3 -15.94,-194.6 0,-68.03 0,-136.05 0,-204.07l9.45 0c13.6,54.26 34.45,102.5 52.28,162.21 18.23,61.1 39.67,110.88 51.38,164.7l9.61 -11.09c20.26,-30.78 99.14,-316.63 100.54,-331.77l9.58 299.94c0.57,55.58 0.1,54.21 -16.08,90.76l109.93 -10.17 -15.63 -19.37c-14.2,-26.49 -8.17,-64.43 -8.08,-101.26 0.27,-103.55 -12.49,-372.66 12.78,-428.97 -11.96,-10.91 4.61,-5.42 -14.76,-7.2l-65.1 5.51c-8.25,35.45 -5.26,43.84 -25.48,63.8z"/>
  <path class="fil2" d="M6121.09 6575.43l-16.58 -295.66c3.02,-40.47 33.63,-38.94 56.39,-21.61 69.92,12.7 111.23,97.62 95.26,174.94 -14.47,70.1 -62.52,129.72 -135.07,142.33zm1.63 191.35c-1.26,-1.63 -2.86,-3.86 -3.45,-5.11l-11.23 -37.61c-3.49,-20.02 -2.89,-32.12 -2.96,-52.84 -0.4,-114.55 20.97,-64.38 23.92,-62.22 46.45,50.22 78.81,106.12 115.96,168.7 17.14,28.86 34.4,65.87 65,80.53 39.19,18.77 102.28,10.49 93.45,-38.81 -1.66,-0.45 -4.5,-1.88 -5.14,-0.03l-14.5 2.92c-17.37,7.22 -2.48,5.56 -20.23,13.05 -14.28,-21.33 -29.61,-33.32 -44.66,-58.17 -13.9,-22.94 -23.41,-45.89 -34.95,-68.47 -28.76,-56.18 -45.99,-78.91 -95.81,-114.05 62.29,-35.26 127.08,-60.1 136.07,-170.23 2.69,-33.01 3.27,-53.7 -5.17,-84.57 -41.51,-151.67 -199.76,-110.5 -288.89,-110.5l10.2 500.3c-1.2,29.05 -1.84,42.16 -18.18,64.35l109.97 -9.7c-9.45,-19.22 0.07,-4 -9.4,-17.54z"/>
  <path class="fil2" d="M6467.2 6219.92c67.35,0 104.72,13.02 112.46,69.87 6.66,48.87 5.55,326.12 -10.05,360.78 -14.81,32.91 -55.07,69.75 -102.49,73.17 -8,-93.65 -3.13,-356.87 -3.8,-467.27l3.88 -36.55zm-75.07 -27.19c-6.34,11.1 -5.21,8.86 -7.97,25.56 14.06,33.7 8.24,503.62 -3.18,535.85 240.02,0 277.68,-44.43 277.59,-282.32 -0.1,-237.14 6.06,-307.39 -266.44,-279.09z"/>
  <path class="fil2" d="M7575.96 6591.75c-29.58,-6.45 -26.62,-4.86 -33.46,-33.46 -26.22,-46.52 -12.76,-408.37 -12.76,-488.01 -24.03,8.52 -51.86,7.98 -86.23,7.98 19.2,108.71 16,25.59 15.94,162.71 -0.02,60.99 -12.15,303.58 13.31,340.77 53.15,77.62 196.75,61.12 229.28,-47.83 14.96,-50.09 4.96,-328.87 8.16,-413.05 2.23,-58.59 3.48,-35.17 18.88,-66.53l-94.22 7.86 0.17 457.62c-2.55,29.69 -39.2,79.61 -59.07,71.94z"/>
  <path class="fil2" d="M5862.69 6636.03c-39.25,22.21 -75.14,29.27 -112.99,55.7 -14.28,9.98 -24.84,26.71 -19.63,-6.01l84.77 -322.28c1.27,54.21 39.01,192.42 47.85,272.59zm-212.11 177.04l0 17.63c31.5,0 32.46,-2.52 55.94,-7.98 0,-7.13 -1.04,-26.6 -0.34,-32.3 4.72,-37.99 0,-10.46 8.28,-23.54 6.84,-28.28 6.08,-25.3 33.49,-31.86 32.08,-29.08 83.33,-28.83 114.74,-52.64 20.07,37.63 23.65,83.91 15.94,127.58 37.08,-2.48 53.79,-7.97 102.18,-7.97l-15.73 -29.87c-8.37,-17.75 -5.65,-8.59 -11.71,-34.81 -29.24,-126.54 24.89,-81.44 10.21,-146.42 -15.45,-68.4 -11.46,-5.7 -38.59,5.26 -2.46,-96.48 -66.41,-275.91 -39.86,-350.83 -22.58,5.4 -81.14,7.11 -90.83,10.81 -30.84,11.76 -14.14,-7.72 -19.93,31.35 -12.41,83.74 -94.6,473.81 -123.79,525.59z"/>
  <path class="fil2" d="M6736.58 6718.89c9.75,-14.07 -2.78,-5.16 16.52,-8.8l174.85 -16.68c0,-72.69 -21.54,-86.22 1.55,-111.63 0.81,-10.13 3.38,-20.77 0.8,-31.55 -6.57,-27.43 5.49,-7.71 -13.63,-24.37 -30.24,55.62 2.63,126.83 -79.99,155.74 -43.56,15.25 -41.98,-3.09 -41.49,-51.42 0.4,-39.02 0.39,-77.95 0.39,-116.98 27.51,0 45.43,1.46 63.79,7.97l3.36 -54.44c-15.46,3.88 -11.87,2.19 -22.62,9.71 -15.95,13.18 -9.62,14.32 -47.72,17.5l0 -326.79 71.64 0c23.37,44.11 7.98,40.44 7.98,153.06 8.39,5.67 16.25,16.4 39.31,8.77 29.69,-9.85 19.07,-5.94 19.81,-45.53l-13.69 6.08c-1.44,0.6 -4.52,2 -6.21,2.69 -13.84,5.65 8.74,3.89 -19.97,7.17 11.87,-34.67 39.11,-126.76 39.87,-167.44 -53.42,9.44 -170.02,23.92 -229.75,23.92 24.44,55.22 19.42,54.06 19.21,130.82 -0.32,121.22 5.96,336.46 -11.24,433.82l27.23 -1.62z"/>
  <path class="fil13" d="M9394.8 5914.97c-153.1,0 -151.57,-2.74 -297.8,-76.96 -80.98,-41.09 -105.36,-74.53 -228.46,-74.53 57.1,-82.17 281.79,127.57 462.47,127.57 269.17,0 341.33,-207.31 406.65,-207.31 24.23,0 27.08,13.84 31.9,31.9 -22.48,1.87 -36.59,7.55 -53.53,18.23 -23.03,14.51 -17.63,15.15 -36.2,35.56 -54.48,59.89 -190.01,145.54 -285.03,145.54zm-47.84 -39.86c-177.62,0 -295.62,-143.52 -462.47,-143.52 -60.88,0 -90.99,31.35 -95.68,87.7 74.57,-49.93 103.96,-18.53 189.5,57.68 147.49,131.41 250.75,213.43 464.33,213.43 106.61,0 199.83,-32.23 273.79,-69.07 76.72,-38.21 188.68,-94.72 188.68,-178.12 0,-24.03 -9.62,-18.96 -28.16,-27.65 -47.42,-22.23 -56.19,-36.22 -83.58,-99.82 -28.59,-66.31 -51.73,-72.25 -129.54,-2.17 -90.5,81.48 -180.08,161.54 -316.87,161.54z"/>
  <path class="fil13" d="M9889.16 5767.45c-8.09,-4.7 -31.71,11.09 -5.55,-32.36 9.47,-15.76 19.37,-21.91 29.47,-31.39 -11.31,33.06 -17.45,29.38 -23.92,63.75zm-83.7 -91.68c4.43,67.77 36.71,119.62 99.65,127.58 0.56,-52.05 21.32,-86.15 49.65,-109.44 116.84,-96.04 205.96,-13.11 213.47,-10.17 20.68,-13.83 21.6,-11.79 29.92,-39.86 -39.99,-33.95 -85.38,-31.9 -133.57,-31.9 -94.62,0 -176.92,89.18 -259.12,63.79z"/>
  <path class="fil13" d="M10119.53 6154.13c-4.95,46.59 -25.54,93.87 -36.75,139.1 -11.09,44.76 -32.62,93.27 -36.64,136.78l-9.45 0c-17.11,-68.23 -62.34,-191.07 -73.39,-251.96 -6.93,-8.4 -3.83,-1.92 -10.39,-14.97 -0.48,-0.96 -6.02,-16.12 -6.51,-17.6 -5.11,-15.24 -5.03,-15.94 -8.58,-31.23l-49.52 0c-10.3,4.47 -19.61,4.71 -21.87,5.91 -22.03,11.56 -19.87,-8.59 -8.41,10.16l5.01 10.87c0.38,1.43 1.39,4.31 1.83,6.11 10.93,44.74 8.99,206.93 6.55,250.05 -1.62,28.65 3.87,94.34 2.75,139.96 -1.06,43.36 -0.38,104.3 -17.76,127.12 18.59,15.37 17.5,11.28 68.65,11.28 -22.23,-125.87 -15.94,-53.3 -15.94,-194.6 0,-68.03 0,-136.05 0,-204.07l9.45 0c13.6,54.26 34.45,102.5 52.28,162.21 18.23,61.1 39.67,110.88 51.38,164.7l9.61 -11.09c20.26,-30.78 99.14,-316.63 100.54,-331.77l9.58 299.94c0.57,55.58 0.1,54.21 -16.08,90.76l109.93 -10.17 -15.63 -19.37c-14.2,-26.49 -8.17,-64.43 -8.08,-101.26 0.27,-103.55 -12.49,-372.66 12.78,-428.97 -11.96,-10.91 4.61,-5.42 -14.76,-7.2l-65.1 5.51c-8.25,35.45 -5.26,43.84 -25.48,63.8z"/>
  <path class="fil13" d="M8972.2 6568.76l-16.58 -295.66c3.02,-40.47 33.63,-38.94 56.39,-21.61 69.92,12.7 111.23,97.62 95.26,174.94 -14.47,70.1 -62.52,129.72 -135.07,142.33zm1.63 191.35c-1.26,-1.63 -2.86,-3.86 -3.45,-5.11l-11.23 -37.61c-3.49,-20.02 -2.89,-32.12 -2.96,-52.84 -0.4,-114.55 20.97,-64.38 23.92,-62.22 46.45,50.22 78.81,106.12 115.96,168.7 17.14,28.86 34.4,65.87 65,80.53 39.19,18.77 102.28,10.49 93.45,-38.81 -1.66,-0.45 -4.5,-1.88 -5.14,-0.03l-14.5 2.92c-17.37,7.22 -2.48,5.56 -20.23,13.05 -14.28,-21.33 -29.61,-33.32 -44.66,-58.17 -13.9,-22.94 -23.41,-45.89 -34.95,-68.47 -28.76,-56.18 -45.99,-78.91 -95.81,-114.05 62.29,-35.26 127.08,-60.1 136.07,-170.23 2.69,-33.01 3.27,-53.7 -5.17,-84.57 -41.51,-151.67 -199.76,-110.5 -288.89,-110.5l10.2 500.3c-1.2,29.05 -1.84,42.16 -18.18,64.35l109.97 -9.7c-9.45,-19.22 0.07,-4 -9.4,-17.54z"/>
  <path class="fil13" d="M9318.31 6213.25c67.35,0 104.72,13.02 112.46,69.87 6.66,48.87 5.55,326.12 -10.05,360.78 -14.81,32.91 -55.07,69.75 -102.49,73.17 -8,-93.65 -3.13,-356.87 -3.8,-467.27l3.88 -36.55zm-75.07 -27.19c-6.34,11.1 -5.21,8.86 -7.97,25.56 14.06,33.7 8.24,503.62 -3.18,535.85 240.02,0 277.68,-44.43 277.59,-282.32 -0.1,-237.14 6.06,-307.39 -266.44,-279.09z"/>
  <path class="fil13" d="M10427.07 6585.08c-29.58,-6.45 -26.62,-4.86 -33.46,-33.46 -26.22,-46.52 -12.76,-408.37 -12.76,-488.01 -24.03,8.52 -51.86,7.98 -86.23,7.98 19.2,108.71 16,25.59 15.94,162.71 -0.02,60.99 -12.15,303.58 13.31,340.77 53.15,77.62 196.75,61.12 229.28,-47.83 14.96,-50.09 4.96,-328.87 8.16,-413.05 2.23,-58.59 3.48,-35.17 18.88,-66.53l-94.22 7.86 0.17 457.62c-2.55,29.69 -39.2,79.61 -59.07,71.94z"/>
  <path class="fil13" d="M8713.8 6629.36c-39.25,22.21 -75.14,29.27 -112.99,55.7 -14.28,9.98 -24.84,26.71 -19.63,-6.01l84.77 -322.28c1.27,54.21 39.01,192.42 47.85,272.59zm-212.11 177.04l0 17.63c31.5,0 32.46,-2.52 55.94,-7.98 0,-7.13 -1.04,-26.6 -0.34,-32.3 4.72,-37.99 0,-10.46 8.28,-23.54 6.84,-28.28 6.08,-25.3 33.49,-31.86 32.08,-29.08 83.33,-28.83 114.74,-52.64 20.07,37.63 23.65,83.91 15.94,127.58 37.08,-2.48 53.79,-7.97 102.18,-7.97l-15.73 -29.87c-8.37,-17.75 -5.65,-8.59 -11.71,-34.81 -29.24,-126.54 24.89,-81.44 10.21,-146.42 -15.45,-68.4 -11.46,-5.7 -38.59,5.26 -2.46,-96.48 -66.41,-275.91 -39.86,-350.83 -22.58,5.4 -81.14,7.11 -90.83,10.81 -30.84,11.76 -14.14,-7.72 -19.93,31.35 -12.41,83.74 -94.6,473.81 -123.79,525.59z"/>
  <path class="fil13" d="M9587.69 6712.22c9.75,-14.07 -2.78,-5.16 16.52,-8.8l174.85 -16.68c0,-72.69 -21.54,-86.22 1.55,-111.63 0.81,-10.13 3.38,-20.77 0.8,-31.55 -6.57,-27.43 5.49,-7.71 -13.63,-24.37 -30.24,55.62 2.63,126.83 -79.99,155.74 -43.56,15.25 -41.98,-3.09 -41.49,-51.42 0.4,-39.02 0.39,-77.95 0.39,-116.98 27.51,0 45.43,1.46 63.79,7.97l3.36 -54.44c-15.46,3.88 -11.87,2.19 -22.62,9.71 -15.95,13.18 -9.62,14.32 -47.72,17.5l0 -326.79 71.64 0c23.37,44.11 7.98,40.44 7.98,153.06 8.39,5.67 16.25,16.4 39.31,8.77 29.69,-9.85 19.07,-5.94 19.81,-45.53l-13.69 6.08c-1.44,0.6 -4.52,2 -6.21,2.69 -13.84,5.65 8.74,3.89 -19.97,7.17 11.87,-34.67 39.11,-126.76 39.87,-167.44 -53.42,9.44 -170.02,23.92 -229.75,23.92 24.44,55.22 19.42,54.06 19.21,130.82 -0.32,121.22 5.96,336.46 -11.24,433.82l27.23 -1.62z"/>
  <path class="fil5" d="M8181.93 7981.01l-140.16 0 0 -235.33 53.05 0 0 192.31 87.11 0 0 43.02zm186.26 0l-51.71 0 0 -25.6 -0.78 0c-12.83,19.77 -29.91,29.69 -51.37,29.69 -38.99,0 -58.43,-23.58 -58.43,-70.75l0 -101.39 51.71 0 0 96.79c0,23.76 9.41,35.63 28.23,35.63 9.3,0 16.7,-3.25 22.3,-9.74 5.6,-6.5 8.34,-15.35 8.34,-26.5l0 -96.18 51.71 0 0 168.05zm69.91 -194.66c-8.74,0 -15.91,-2.58 -21.45,-7.79 -5.6,-5.21 -8.4,-11.54 -8.4,-19.1 0,-7.79 2.8,-14.12 8.4,-19.05 5.54,-4.93 12.71,-7.39 21.45,-7.39 8.91,0 16.08,2.46 21.63,7.39 5.49,4.93 8.29,11.26 8.29,19.05 0,7.84 -2.8,14.34 -8.29,19.38 -5.55,4.99 -12.72,7.51 -21.63,7.51zm25.6 194.66l-51.81 0 0 -168.05 51.81 0 0 168.05zm32.66 -4.43l0 -42.01c8.57,5.15 17.09,8.96 25.55,11.48 8.45,2.53 16.47,3.76 24.03,3.76 9.18,0 16.47,-1.23 21.73,-3.76 5.32,-2.52 7.96,-6.33 7.96,-11.48 0,-3.3 -1.18,-6.05 -3.59,-8.23 -2.41,-2.19 -5.49,-4.09 -9.3,-5.72 -3.75,-1.62 -7.9,-3.13 -12.38,-4.42 -4.48,-1.35 -8.79,-2.8 -12.94,-4.43 -6.66,-2.52 -12.55,-5.26 -17.64,-8.12 -5.1,-2.91 -9.36,-6.28 -12.83,-10.14 -3.42,-3.81 -6.05,-8.24 -7.84,-13.28 -1.8,-5.04 -2.75,-10.98 -2.75,-17.87 0,-9.41 2.07,-17.53 6.16,-24.31 4.09,-6.78 9.58,-12.32 16.42,-16.64 6.83,-4.31 14.67,-7.5 23.47,-9.52 8.79,-2.02 17.98,-3.02 27.5,-3.02 7.45,0 14.96,0.56 22.64,1.73 7.67,1.12 15.23,2.8 22.68,4.99l0 40.05c-6.61,-3.86 -13.61,-6.72 -21.12,-8.63 -7.5,-1.9 -14.84,-2.85 -22.07,-2.85 -3.41,0 -6.61,0.28 -9.58,0.89 -3.02,0.56 -5.71,1.46 -8.01,2.64 -2.29,1.12 -4.09,2.57 -5.38,4.42 -1.34,1.79 -1.96,3.87 -1.96,6.16 0,3.03 0.96,5.66 2.92,7.85 2.01,2.18 4.53,4.09 7.73,5.65 3.19,1.63 6.72,3.03 10.59,4.26 3.86,1.29 7.73,2.58 11.59,3.87 6.89,2.41 13.11,5.04 18.71,7.9 5.55,2.85 10.36,6.16 14.34,10.02 3.98,3.81 7.06,8.29 9.19,13.45 2.13,5.15 3.19,11.26 3.19,18.37 0,9.97 -2.13,18.49 -6.5,25.55 -4.31,7.05 -10.02,12.77 -17.19,17.19 -7.17,4.43 -15.47,7.68 -24.82,9.69 -9.36,2.02 -19.05,3.03 -29.13,3.03 -18.49,0 -35.57,-2.86 -51.37,-8.52zm384.06 4.43l-47.55 0 29.85 -140.83c3.25,-14.96 7.57,-31.76 12.78,-50.36l-1.29 0c-1.52,3.47 -3.14,7 -4.88,10.47 -1.68,3.53 -3.36,6.84 -4.98,9.98 -1.63,3.08 -3.2,5.88 -4.6,8.34 -1.4,2.47 -2.68,4.48 -3.75,6l-63.02 85.82 -37.08 0 -24.48 -84.2c-0.56,-1.62 -1.07,-4.2 -1.57,-7.79 -0.51,-3.52 -0.73,-7.22 -0.73,-11.09l0 -17.53 -1.46 0c-1.57,10.25 -3.08,19.72 -4.53,28.4 -1.46,8.63 -2.81,15.91 -4.04,21.79l-30.02 141 -47.73 0 50.02 -235.33 63.02 0 24.15 81.73c0.78,2.63 1.45,5.43 2.13,8.46 0.67,2.97 1.17,5.99 1.62,9.02 0.45,2.96 0.78,5.88 1.01,8.68 0.22,2.8 0.34,5.26 0.34,7.45l0.78 0c1.23,-2.41 2.52,-5.1 3.86,-8.12 1.41,-2.97 2.81,-6.05 4.26,-9.19 1.51,-3.08 3.08,-6.11 4.71,-9.02 1.62,-2.91 3.25,-5.43 4.93,-7.62l60.05 -81.39 68.29 0 -50.09 235.33zm216.68 -55.46c-0.78,3.36 -1.51,7.51 -2.24,12.27 -0.73,4.82 -1.35,9.86 -1.96,15.07 -0.62,5.15 -1.12,10.25 -1.46,15.24 -0.39,4.98 -0.61,9.29 -0.61,12.88l-52.49 0c0,-1.62 0.05,-3.75 0.22,-6.33 0.17,-2.58 0.34,-5.21 0.56,-7.84 0.23,-2.69 0.51,-5.32 0.79,-7.9 0.28,-2.58 0.5,-4.76 0.72,-6.5l-0.67 0c-3.19,4.26 -6.44,8.4 -9.86,12.32 -3.36,3.93 -7.17,7.4 -11.31,10.42 -4.15,3.03 -8.8,5.44 -13.84,7.23 -5.1,1.79 -10.98,2.69 -17.65,2.69 -8.23,0 -15.51,-1.46 -21.9,-4.43 -6.44,-2.97 -11.82,-7.22 -16.19,-12.77 -4.37,-5.6 -7.73,-12.43 -10.03,-20.44 -2.29,-8.07 -3.41,-17.15 -3.41,-27.34 0,-5.16 0.56,-11.49 1.68,-18.94 1.17,-7.5 3.25,-15.4 6.27,-23.64 3.03,-8.29 7.17,-16.47 12.55,-24.64 5.38,-8.13 12.21,-15.52 20.61,-22.08 8.35,-6.55 18.49,-11.87 30.37,-15.9 11.82,-4.04 25.82,-6.05 41.9,-6.05 6.22,0 12.49,0.22 18.82,0.72 6.27,0.51 12.44,1.12 18.54,1.96 6.05,0.84 11.93,1.8 17.65,2.86 5.66,1.12 10.98,2.19 15.91,3.31l-22.97 107.83zm-35.29 -78.65c-2.52,-0.5 -5.32,-0.95 -8.4,-1.23 -3.03,-0.22 -5.94,-0.39 -8.69,-0.39 -7.56,0 -14.17,1.29 -19.83,3.81 -5.71,2.46 -10.64,5.77 -14.9,9.8 -4.2,4.09 -7.73,8.68 -10.59,13.78 -2.8,5.15 -5.09,10.36 -6.77,15.69 -1.68,5.32 -2.92,10.47 -3.65,15.51 -0.67,5.04 -1.06,9.47 -1.06,13.28 0,4.09 0.45,7.84 1.23,11.26 0.84,3.47 2.13,6.44 3.87,8.96 1.73,2.52 3.92,4.48 6.5,5.88 2.57,1.46 5.54,2.13 8.96,2.13 6.22,0 11.76,-1.79 16.64,-5.38 4.87,-3.64 9.13,-8.23 12.77,-13.89 3.7,-5.66 6.78,-11.99 9.24,-19.04 2.41,-7.06 4.43,-14.01 5.94,-20.9l8.74 -39.27zm211.08 12.16c-3.75,-2.86 -8.57,-5.27 -14.45,-7.4 -5.94,-2.07 -12.33,-3.08 -19.22,-3.08 -7.95,0 -15.18,1.85 -21.68,5.55 -6.44,3.75 -11.93,8.57 -16.41,14.45 -4.48,5.94 -7.9,12.55 -10.31,19.89 -2.41,7.34 -3.64,14.51 -3.64,21.62 0,11.32 2.63,20 7.9,26.11 5.26,6.16 13.11,9.18 23.64,9.18 3.25,0 6.66,-0.33 10.25,-0.95 3.53,-0.67 7.06,-1.57 10.59,-2.74 3.47,-1.13 6.89,-2.41 10.08,-3.87 3.25,-1.4 6.16,-2.91 8.8,-4.59l-8.07 39.71c-7.45,3.87 -15.35,6.84 -23.75,8.97 -8.46,2.12 -16.86,3.19 -25.32,3.19 -10.93,0 -20.51,-1.68 -28.8,-5.1 -8.23,-3.36 -15.18,-8.12 -20.72,-14.23 -5.61,-6.16 -9.81,-13.44 -12.61,-21.96 -2.74,-8.45 -4.14,-17.75 -4.14,-27.95 0,-9.41 1.06,-18.6 3.19,-27.5 2.13,-8.91 5.21,-17.31 9.24,-25.21 4.09,-7.85 9.08,-15.13 15.02,-21.79 5.99,-6.67 12.82,-12.44 20.55,-17.26 7.68,-4.81 16.25,-8.57 25.61,-11.2 9.35,-2.69 19.43,-4.03 30.25,-4.03 5.04,0 9.8,0.28 14.28,0.89 4.48,0.62 8.57,1.35 12.32,2.3 3.7,0.9 7.01,1.96 9.86,3.14 2.8,1.12 5.1,2.18 6.89,3.19l-9.35 40.67zm112.21 -100.27c0,4.25 -0.84,8.12 -2.47,11.48 -1.62,3.42 -3.86,6.33 -6.66,8.79 -2.75,2.47 -6.05,4.37 -9.81,5.66 -3.81,1.35 -7.84,1.96 -12.27,1.96 -4.14,0 -8.01,-0.61 -11.54,-1.85 -3.58,-1.28 -6.61,-3.02 -9.18,-5.26 -2.58,-2.24 -4.6,-4.93 -6.11,-7.96 -1.46,-3.08 -2.18,-6.44 -2.18,-10.02 0,-4.26 0.78,-8.13 2.35,-11.49 1.62,-3.41 3.81,-6.33 6.61,-8.79 2.74,-2.47 6.05,-4.32 9.91,-5.66 3.81,-1.29 7.96,-1.96 12.44,-1.96 4.2,0 8.01,0.62 11.54,1.9 3.47,1.24 6.5,2.97 9.08,5.21 2.57,2.24 4.59,4.93 6.1,7.96 1.46,3.08 2.19,6.44 2.19,10.03zm-17.09 220.76c-1.96,0.51 -4.2,1.07 -6.78,1.63 -2.57,0.56 -5.32,1.06 -8.23,1.57 -2.86,0.5 -5.88,0.84 -9.02,1.12 -3.08,0.28 -6.22,0.45 -9.24,0.45 -7.34,0 -13.62,-1.01 -18.83,-2.92 -5.21,-1.9 -9.46,-4.59 -12.88,-8.01 -3.36,-3.47 -5.88,-7.56 -7.45,-12.32 -1.57,-4.76 -2.41,-9.97 -2.41,-15.69 0,-2.41 0.17,-5.1 0.45,-8.01 0.28,-2.97 0.61,-6.05 1.06,-9.3 0.45,-3.19 0.96,-6.5 1.57,-9.86 0.56,-3.3 1.23,-6.49 1.85,-9.58 0.45,-1.84 1.18,-5.26 2.24,-10.25 1.01,-4.98 2.24,-10.7 3.59,-17.14 1.4,-6.5 2.85,-13.27 4.37,-20.45 1.51,-7.17 2.96,-14 4.36,-20.44 1.35,-6.44 2.58,-12.16 3.59,-17.14 1.06,-4.99 1.79,-8.41 2.24,-10.25l52.49 0 -20 94.5c-0.9,3.86 -1.85,8.18 -2.8,12.88 -1.01,4.76 -1.46,8.91 -1.46,12.44 0,4.14 1.29,7.06 3.93,8.68 2.63,1.63 5.6,2.47 9.01,2.47 2.86,0 5.72,-0.34 8.63,-0.9 2.91,-0.62 5.55,-1.4 7.96,-2.41 -1.46,6.55 -2.81,13.05 -4.09,19.44 -1.35,6.44 -2.69,12.88 -4.15,19.49zm191.36 -123.29c0,8.68 -1.85,16.58 -5.49,23.8 -3.64,7.23 -9.8,13.45 -18.37,18.72 -8.57,5.26 -20,9.41 -34.23,12.38 -14.23,3.02 -31.93,4.7 -53.16,5.04 -0.23,0.61 -0.34,1.23 -0.34,1.73 0,0.45 0,1.01 0,1.52 0,3.41 0.56,6.77 1.63,10.19 1.12,3.42 2.97,6.44 5.65,9.19 2.69,2.74 6.22,4.93 10.59,6.66 4.37,1.68 9.86,2.53 16.42,2.53 3.97,0 8.23,-0.34 12.88,-1.07 4.65,-0.73 9.41,-1.74 14.23,-3.14 4.82,-1.34 9.58,-2.97 14.34,-4.93 4.76,-1.9 9.19,-3.97 13.22,-6.27l-8.07 38.71c-3.36,1.74 -7.28,3.47 -11.65,5.1 -4.37,1.62 -9.07,3.13 -14.17,4.42 -5.1,1.35 -10.53,2.35 -16.25,3.14 -5.77,0.73 -11.65,1.12 -17.64,1.12 -12.72,0 -23.59,-1.85 -32.66,-5.55 -9.08,-3.75 -16.58,-8.74 -22.41,-15.01 -5.88,-6.33 -10.14,-13.67 -12.88,-22.13 -2.75,-8.4 -4.09,-17.36 -4.09,-26.89 0,-14.34 2.35,-27.95 7.11,-40.83 4.76,-12.94 11.54,-24.26 20.34,-34.01 8.85,-9.74 19.43,-17.47 31.87,-23.19 12.38,-5.77 26.27,-8.62 41.57,-8.62 11.09,0 20.5,1.28 28.23,3.92 7.79,2.63 14.12,6.16 19.05,10.58 4.93,4.43 8.57,9.47 10.86,15.19 2.3,5.71 3.42,11.59 3.42,17.7zm-49.41 0.67c0,-4.03 -1.51,-7.4 -4.48,-10.08 -3.02,-2.69 -7.28,-4.04 -12.72,-4.04 -4.81,0 -9.46,1.07 -13.89,3.14 -4.42,2.07 -8.46,4.93 -12.15,8.63 -3.65,3.64 -6.78,8.01 -9.41,13.1 -2.64,5.1 -4.6,10.59 -5.94,16.47 19.72,0.23 34.39,-2.01 44.08,-6.72 9.69,-4.7 14.51,-11.54 14.51,-20.5zm139.49 122.62c-1.96,0.51 -4.2,1.07 -6.78,1.63 -2.57,0.56 -5.32,1.06 -8.23,1.57 -2.86,0.5 -5.88,0.84 -9.02,1.12 -3.08,0.28 -6.22,0.45 -9.24,0.45 -7.34,0 -13.62,-1.01 -18.83,-2.92 -5.21,-1.9 -9.46,-4.59 -12.88,-8.01 -3.36,-3.47 -5.88,-7.56 -7.45,-12.32 -1.57,-4.76 -2.41,-9.97 -2.41,-15.69 0,-2.41 0.17,-5.1 0.45,-8.01 0.28,-2.97 0.61,-6.05 1.06,-9.3 0.45,-3.19 0.96,-6.5 1.57,-9.86 0.56,-3.3 1.23,-6.49 1.85,-9.58 0.34,-1.4 1.06,-4.87 2.24,-10.42 1.12,-5.54 2.58,-12.32 4.37,-20.44 1.74,-8.07 3.64,-17.09 5.71,-27 2.08,-9.86 4.26,-20 6.5,-30.36 2.24,-10.31 4.37,-20.45 6.5,-30.37 2.07,-9.86 3.98,-18.87 5.71,-27 1.74,-8.06 3.2,-14.9 4.37,-20.39 1.12,-5.54 1.85,-9.02 2.19,-10.42l52.54 0 -37.25 175.23c-0.9,3.86 -1.85,8.18 -2.8,12.88 -1.01,4.76 -1.46,8.91 -1.46,12.44 0,4.14 1.29,7.06 3.93,8.68 2.63,1.63 5.6,2.47 9.01,2.47 2.86,0 5.72,-0.34 8.63,-0.9 2.91,-0.62 5.55,-1.4 7.96,-2.41 -1.46,6.55 -2.81,13.05 -4.09,19.44 -1.35,6.44 -2.69,12.88 -4.15,19.49zm137.93 -143.65l-37.72 5.08 27 29.12 -25.08 17.21 -18.9 -34.99 -18.87 34.99 -25.21 -17.21 27.14 -29.12 -37.77 -5.08 9.79 -27.84 34.71 14.91 -5.93 -39.56 32.27 0 -5.93 39.56 34.43 -14.91 10.07 27.84zm135.61 -31.56l-77.19 0 0 68.34 71.4 0 0 20.84 -71.4 0 0 87.49 -23.14 0 0 -197.6 100.33 0 0 20.93zm142.19 176.67l-104.7 0 0 -197.6 100.33 0 0 20.93 -77.19 0 0 65.76 71.4 0 0 20.79 -71.4 0 0 69.19 81.56 0 0 20.93zm38.06 0l0 -197.6 56.21 0c17.07,0 30.66,4.19 40.64,12.51 10.01,8.37 15.05,19.29 15.05,32.69 0,11.2 -3.06,20.93 -9.13,29.21 -6.07,8.28 -14.39,14.16 -25.07,17.64l0 0.56c13.31,1.56 23.99,6.59 31.99,15.06 7.99,8.51 11.99,19.56 11.99,33.16 0,16.88 -6.07,30.57 -18.2,41.06 -12.14,10.49 -27.42,15.71 -45.91,15.71l-57.57 0zm23.14 -176.67l0 63.83 23.71 0c12.65,0 22.62,-3.06 29.91,-9.17 7.24,-6.12 10.87,-14.73 10.87,-25.87 0,-19.19 -12.61,-28.79 -37.92,-28.79l-26.57 0zm0 84.62l0 71.12 31.42 0c13.59,0 24.13,-3.25 31.61,-9.64 7.52,-6.45 11.24,-15.29 11.24,-26.49 0,-23.33 -15.9,-34.99 -47.7,-34.99l-26.57 0zm143.41 95.06c-4.23,0 -7.8,-1.5 -10.81,-4.52 -2.97,-3.05 -4.47,-6.67 -4.47,-10.91 0,-4.23 1.5,-7.85 4.47,-10.96 3.01,-3.05 6.58,-4.61 10.81,-4.61 4.33,0 8,1.56 11.06,4.61 3.01,3.11 4.51,6.73 4.51,10.96 0,4.24 -1.5,7.86 -4.51,10.91 -3.06,3.02 -6.73,4.52 -11.06,4.52zm136.88 -148.82c0,-6.07 -0.94,-11.34 -2.83,-15.86 -1.88,-4.46 -4.46,-8.23 -7.71,-11.19 -3.29,-3.01 -7.1,-5.22 -11.52,-6.68 -4.42,-1.5 -9.18,-2.21 -14.35,-2.21 -4.37,0 -8.7,0.56 -12.93,1.79 -4.24,1.17 -8.33,2.82 -12.33,4.94 -4,2.11 -7.85,4.65 -11.57,7.57 -3.76,2.96 -7.2,6.21 -10.44,9.78l0 -24.22c6.35,-6.16 13.45,-10.87 21.31,-14.16 7.85,-3.24 17.45,-4.89 28.74,-4.89 8.09,0 15.56,1.18 22.43,3.53 6.92,2.35 12.89,5.78 17.92,10.25 5.08,4.52 9.03,10.07 11.95,16.7 2.87,6.63 4.33,14.2 4.33,22.72 0,7.81 -0.9,14.91 -2.68,21.26 -1.79,6.3 -4.52,12.27 -8.14,17.87 -3.62,5.65 -8.18,11.01 -13.74,16.14 -5.5,5.17 -11.94,10.39 -19.42,15.71 -9.27,6.63 -16.89,12.27 -22.91,16.98 -6.02,4.65 -10.82,9.03 -14.34,13.12 -3.53,4.09 -6.03,8.18 -7.44,12.28 -1.45,4.09 -2.16,8.79 -2.16,14.11l98.4 0 0 20.27 -121.97 0 0 -9.78c0,-8.47 0.95,-15.9 2.78,-22.35 1.83,-6.39 4.84,-12.51 9.08,-18.29 4.23,-5.79 9.78,-11.57 16.6,-17.36 6.87,-5.79 15.24,-12.32 25.17,-19.57 7.15,-5.17 13.17,-10.06 17.96,-14.77 4.85,-4.7 8.71,-9.36 11.67,-14.06 2.92,-4.66 5.03,-9.41 6.26,-14.25 1.27,-4.85 1.88,-9.93 1.88,-15.38zm186.27 46.19c0,16.51 -1.46,31.18 -4.47,43.93 -2.97,12.79 -7.29,23.56 -12.94,32.31 -5.64,8.8 -12.6,15.43 -20.84,19.99 -8.23,4.57 -17.54,6.82 -28.03,6.82 -9.92,0 -18.77,-2.16 -26.53,-6.53 -7.76,-4.38 -14.3,-10.73 -19.61,-19.1 -5.36,-8.33 -9.41,-18.63 -12.14,-30.76 -2.77,-12.19 -4.14,-26.16 -4.14,-41.87 0,-17.26 1.46,-32.5 4.33,-45.72 2.92,-13.26 7.15,-24.31 12.75,-33.3 5.59,-8.93 12.56,-15.71 20.88,-20.27 8.33,-4.52 17.83,-6.82 28.6,-6.82 41.44,0 62.14,33.77 62.14,101.32zm-23.15 2.21c0,-56.26 -13.35,-84.34 -40.07,-84.34 -28.22,0 -42.33,28.6 -42.33,85.84 0,53.39 13.82,80.06 41.48,80.06 27.28,0 40.92,-27.19 40.92,-81.56zm65.43 100.42c-4.23,0 -7.8,-1.5 -10.81,-4.52 -2.97,-3.05 -4.47,-6.67 -4.47,-10.91 0,-4.23 1.5,-7.85 4.47,-10.96 3.01,-3.05 6.58,-4.61 10.81,-4.61 4.33,0 8,1.56 11.06,4.61 3.01,3.11 4.51,6.73 4.51,10.96 0,4.24 -1.5,7.86 -4.51,10.91 -3.06,3.02 -6.73,4.52 -11.06,4.52zm136.88 -148.82c0,-6.07 -0.94,-11.34 -2.83,-15.86 -1.88,-4.46 -4.46,-8.23 -7.71,-11.19 -3.29,-3.01 -7.1,-5.22 -11.52,-6.68 -4.42,-1.5 -9.18,-2.21 -14.35,-2.21 -4.37,0 -8.7,0.56 -12.93,1.79 -4.24,1.17 -8.33,2.82 -12.33,4.94 -4,2.11 -7.85,4.65 -11.57,7.57 -3.76,2.96 -7.2,6.21 -10.44,9.78l0 -24.22c6.35,-6.16 13.45,-10.87 21.31,-14.16 7.85,-3.24 17.45,-4.89 28.74,-4.89 8.09,0 15.56,1.18 22.43,3.53 6.92,2.35 12.89,5.78 17.92,10.25 5.08,4.52 9.03,10.07 11.95,16.7 2.87,6.63 4.33,14.2 4.33,22.72 0,7.81 -0.9,14.91 -2.68,21.26 -1.79,6.3 -4.52,12.27 -8.14,17.87 -3.62,5.65 -8.18,11.01 -13.74,16.14 -5.5,5.17 -11.94,10.39 -19.42,15.71 -9.27,6.63 -16.89,12.27 -22.91,16.98 -6.02,4.65 -10.82,9.03 -14.34,13.12 -3.53,4.09 -6.03,8.18 -7.44,12.28 -1.45,4.09 -2.16,8.79 -2.16,14.11l98.4 0 0 20.27 -121.97 0 0 -9.78c0,-8.47 0.95,-15.9 2.78,-22.35 1.83,-6.39 4.84,-12.51 9.08,-18.29 4.23,-5.79 9.78,-11.57 16.6,-17.36 6.87,-5.79 15.24,-12.32 25.17,-19.57 7.15,-5.17 13.17,-10.06 17.96,-14.77 4.85,-4.7 8.71,-9.36 11.67,-14.06 2.92,-4.66 5.03,-9.41 6.26,-14.25 1.27,-4.85 1.88,-9.93 1.88,-15.38zm186.27 46.19c0,16.51 -1.46,31.18 -4.47,43.93 -2.97,12.79 -7.29,23.56 -12.94,32.31 -5.64,8.8 -12.6,15.43 -20.84,19.99 -8.23,4.57 -17.54,6.82 -28.03,6.82 -9.92,0 -18.77,-2.16 -26.53,-6.53 -7.76,-4.38 -14.3,-10.73 -19.61,-19.1 -5.36,-8.33 -9.41,-18.63 -12.14,-30.76 -2.77,-12.19 -4.14,-26.16 -4.14,-41.87 0,-17.26 1.46,-32.5 4.33,-45.72 2.92,-13.26 7.15,-24.31 12.75,-33.3 5.59,-8.93 12.56,-15.71 20.88,-20.27 8.33,-4.52 17.83,-6.82 28.6,-6.82 41.44,0 62.14,33.77 62.14,101.32zm-23.15 2.21c0,-56.26 -13.35,-84.34 -40.07,-84.34 -28.22,0 -42.33,28.6 -42.33,85.84 0,53.39 13.82,80.06 41.48,80.06 27.28,0 40.92,-27.19 40.92,-81.56z"/>
 </g>
</svg>
