<?xml version="1.0" encoding="UTF-8"?>
<!DOCTYPE svg PUBLIC "-//W3C//DTD SVG 1.1//EN" "http://www.w3.org/Graphics/SVG/1.1/DTD/svg11.dtd">
<!-- Creator: CorelDRAW 2017 -->
<svg xmlns="http://www.w3.org/2000/svg" xml:space="preserve" width="6.7732mm" height="6.7732mm" version="1.1" style="shape-rendering:geometricPrecision; text-rendering:geometricPrecision; image-rendering:optimizeQuality; fill-rule:evenodd; clip-rule:evenodd"
viewBox="0 0 677.32 677.32"
 xmlns:xlink="http://www.w3.org/1999/xlink">
 <defs>
  <style type="text/css">
   <![CDATA[
    .str0 {stroke:#D2D3D5;stroke-width:5.74;stroke-linecap:round;stroke-linejoin:round;stroke-miterlimit:22.9256}
    .fil0 {fill:none}
    .fil1 {fill:#AB2429}
   ]]>
  </style>
 </defs>
 <g id="Capa_x0020_1">
  <metadata id="CorelCorpID_0Corel-Layer"/>
  <rect class="fil0" x="-0" y="-0" width="677.33" height="677.33"/>
  <g id="_1516066528912">
   <path class="fil1" d="M52.2 275.3l13.62 0c9.68,0 17.43,2.02 23.32,6.05 5.89,4.03 9.76,9.89 11.65,17.61 0.58,2.47 0.86,5.07 0.86,7.76 0,8.86 -3.07,16.19 -9.24,22.02 -6.16,5.83 -14.02,8.71 -23.56,8.71l-16.75 0.01c-2.71,0 -5.04,-0.98 -6.98,-2.93 -1.94,-1.95 -2.93,-4.35 -2.93,-7.16l0 -42.03c0,-2.81 0.96,-5.19 2.89,-7.13 1.94,-1.93 4.32,-2.89 7.13,-2.89l-0.01 -0.02zm29.24 27.97c-0.61,-3.17 -2.33,-5.74 -5.09,-7.72 -2.75,-1.97 -6.18,-2.97 -10.27,-2.97l-3.97 0 0 27.71 4.75 0c4.49,0 8.12,-1.26 10.87,-3.79 2.76,-2.54 4.15,-5.79 4.15,-9.76 0,-0.98 -0.14,-2.13 -0.44,-3.45l0 -0.02zm35.9 -17.67c1.38,-3.45 3.4,-6.14 6,-8.03 2.61,-1.9 5.63,-2.85 9.02,-2.85 3.39,0 6.4,0.93 9.02,2.79 2.61,1.85 4.62,4.59 6,8.08l14.84 38.04c0.76,2.07 1.12,3.83 1.12,5.27 0,1.95 -0.52,3.67 -1.56,5.18 -1.03,1.52 -2.53,2.66 -4.48,3.47 -1.32,0.58 -2.69,0.86 -4.13,0.86 -2.08,0 -3.95,-0.62 -5.6,-1.85 -1.66,-1.24 -2.91,-2.97 -3.71,-5.23l-0.96 -2.85 -20.99 -0.01 -1.04 2.85c-0.81,2.17 -2.06,3.91 -3.75,5.16 -1.68,1.25 -3.58,1.89 -5.64,1.89 -1.38,0 -2.73,-0.28 -4.05,-0.86 -4.03,-1.73 -6.05,-4.63 -6.05,-8.65 0,-1.44 0.38,-3.19 1.12,-5.27l14.84 -38.04 0 0.05zm15.03 9.13l-4.67 16.58 9.31 0 -4.67 -16.58 0.03 0zm42.12 -19.43l13.63 0c9.67,0 17.43,2.02 23.31,6.05 5.89,4.03 9.76,9.89 11.65,17.61 0.58,2.47 0.86,5.07 0.86,7.76 0,8.86 -3.07,16.19 -9.24,22.02 -6.16,5.83 -14.02,8.71 -23.55,8.71l-16.76 0.01c-2.72,0 -5.05,-0.98 -6.98,-2.93 -1.94,-1.95 -2.94,-4.35 -2.94,-7.16l0 -42.03c0,-2.81 0.96,-5.19 2.9,-7.13 1.94,-1.93 4.31,-2.89 7.12,-2.89l0 -0.02zm29.24 27.97c-0.62,-3.17 -2.34,-5.74 -5.09,-7.72 -2.75,-1.97 -6.18,-2.97 -10.28,-2.97l-3.95 0 0 27.71 4.74 0c4.48,0 8.12,-1.26 10.87,-3.79 2.75,-2.54 4.15,-5.79 4.15,-9.76 0,-0.98 -0.15,-2.13 -0.44,-3.45l0 -0.02zm34.45 -27.97l13.62 0c9.67,0 17.43,2.02 23.32,6.05 5.89,4.03 9.75,9.89 11.65,17.61 0.58,2.47 0.86,5.07 0.86,7.76 0,8.86 -3.07,16.19 -9.24,22.02 -6.17,5.83 -14.02,8.71 -23.56,8.71l-16.75 0.01c-2.71,0 -5.04,-0.98 -6.98,-2.93 -1.94,-1.95 -2.93,-4.35 -2.93,-7.16l0 -42.03c0,-2.81 0.96,-5.19 2.89,-7.13 1.94,-1.93 4.32,-2.89 7.13,-2.89l-0.01 -0.02zm29.26 27.97c-0.62,-3.17 -2.34,-5.74 -5.09,-7.72 -2.75,-1.97 -6.18,-2.97 -10.28,-2.97l-3.96 0 0 27.71 4.75 0c4.48,0 8.12,-1.26 10.87,-3.79 2.75,-2.54 4.14,-5.79 4.14,-9.76 0,-0.98 -0.14,-2.13 -0.43,-3.45l0 -0.02zm47.03 -11.8l9.83 -11.85c2.72,-3.28 5.65,-4.89 8.81,-4.89 1.96,0 3.89,0.72 5.78,2.16 1.1,0.8 2,1.83 2.69,3.11 0.92,1.66 1.38,3.37 1.38,5.17 0,2.07 -0.66,3.85 -1.98,5.32l-16.48 17.85 0 19.83c0,2.71 -0.96,5.06 -2.85,7.1 -1.89,2.03 -4.27,3.07 -7.08,3.07 -2.75,0 -5.13,-1 -7.06,-2.97 -1.94,-1.98 -2.94,-4.37 -2.94,-7.2l0 -19.83 -16.47 -17.85c-1.32,-1.44 -2,-3.24 -2,-5.43 0,-0.98 0.1,-1.83 0.26,-2.56 0.16,-0.72 0.58,-1.63 1.2,-2.73 0.64,-1.11 1.49,-2.09 2.59,-2.89 1.95,-1.44 3.91,-2.16 5.87,-2.16 3.11,0 6,1.62 8.71,4.89l9.76 11.85 -0.02 0.01zm55.3 29.34c1.56,-2.41 3.59,-3.64 6.13,-3.64 0.46,0 0.92,0 1.38,0 0.18,0 0.71,0.12 1.63,0.37l3.79 1.04 3.46 0.87 2.49 0.6 0.96 0.25 1.45 0.26c1.32,0.18 2.38,0.26 3.12,0.26 0.46,0 0.92,-0.04 1.38,-0.15 0.46,-0.1 0.77,-0.14 0.95,-0.22 1.04,-0.34 1.78,-0.7 2.22,-1.07 0.45,-0.38 0.64,-0.84 0.64,-1.44 0,-0.52 -0.28,-0.98 -0.86,-1.38l-0.7 -0.26 -1.63 -0.52 -1.12 -0.34 -4.59 -1.12 -0.86 -0.18 -5.71 -1.63c-1.61,-0.46 -3.05,-0.96 -4.36,-1.46 -1.31,-0.49 -2.5,-1.11 -3.58,-1.81 -2.37,-1.44 -4.16,-3.36 -5.44,-5.73 -1.27,-2.36 -1.91,-4.98 -1.91,-7.81 0,-2.32 0.42,-4.53 1.26,-6.71 0.83,-2.17 2.15,-4.2 3.92,-6.16 1.77,-1.95 4.15,-3.65 7.13,-5.05 2.97,-1.39 6.3,-2.33 9.97,-2.81 1.55,-0.18 3.07,-0.25 4.57,-0.25 3.17,0 6.3,0.46 9.41,1.38 3.12,0.92 5.45,1.95 6.99,3.15 1.55,1.2 2.61,2.69 3.18,4.53 0.19,0.52 0.28,1.14 0.34,1.85 0.06,0.72 0.09,1.12 0.09,1.16 0,1.77 -0.46,3.29 -1.38,4.56 -1.68,2.42 -3.92,3.64 -6.73,3.64 -1.61,0 -3.39,-0.28 -5.34,-0.86l-0.7 -0.26 -2.5 -0.77 -1.04 -0.26 -2.41 -0.6 -1.22 -0.25 -0.87 -0.18 -1.12 -0.1c-1.55,0 -2.61,0.22 -3.18,0.7 -0.58,0.48 -0.88,0.96 -0.88,1.45 0,0.34 0.18,0.66 0.52,0.96l1.38 0.6 1.64 0.43 0.59 0.19 1.72 0.43 2.85 0.68 5.71 1.55c2.81,0.82 5.32,1.76 7.5,2.85 3.05,1.56 5.4,3.69 7.08,6.43 1.67,2.73 2.49,5.68 2.49,8.83 0,2.26 -0.37,4.39 -1.11,6.43 -0.74,2.03 -2,4.07 -3.71,6.08 -2.66,3.11 -6.05,5.32 -10.19,6.68 -4.15,1.36 -9.3,2.03 -15.44,2.03 -3.46,0 -6.43,-0.34 -8.9,-0.99 -2.47,-0.66 -4.59,-1.52 -6.3,-2.56 -2.17,-1.27 -3.67,-2.57 -4.49,-3.92 -0.81,-1.36 -1.21,-3.04 -1.21,-5.05 0,-1.67 0.5,-3.25 1.48,-4.75l0.06 0.05zm78.29 -35.23c0,-2.87 1,-5.31 2.97,-7.3 1.98,-1.99 4.39,-2.97 7.2,-2.97l14.33 -0.01 3.79 0.26c5.65,0.76 10.11,2.81 13.43,6.23 3.31,3.41 4.96,7.42 4.96,12.08 0,0.52 0,0.92 0,1.22 -0.06,0.34 -0.09,0.59 -0.09,0.77 -0.34,3.33 -1.4,6.18 -3.19,8.54l0.18 0.18 1.21 0.77 1.2 0.78 0.52 0.44c3.67,2.99 5.53,7.02 5.53,12.08 0,1.89 -0.31,3.79 -0.9,5.65 -0.6,1.85 -1.46,3.55 -2.59,5 -1.12,1.46 -2.2,2.66 -3.24,3.59 -1.89,1.56 -3.93,2.69 -6.08,3.46 -2.16,0.76 -4.73,1.11 -7.72,1.11l-21.49 0.02c-2.94,0 -5.35,-1 -7.2,-2.97 -1.86,-1.98 -2.82,-4.63 -2.82,-7.98l0 -40.91 0 -0.04zm26.93 11.39c0.58,-0.4 0.86,-0.99 0.86,-1.79 0,-0.76 -0.34,-1.4 -0.99,-1.94 -0.66,-0.54 -1.46,-0.82 -2.38,-0.82l-4.39 0 0 5.53 4.59 -0.01c0.8,0 1.57,-0.3 2.33,-0.95l-0.02 -0.02zm5.26 20.54c0,-0.87 -0.25,-1.59 -0.77,-2.15 -0.52,-0.56 -1.2,-0.88 -2,-0.88l-9.41 0 0 5.79 9.41 0c0.68,0 1.32,-0.26 1.89,-0.78 0.57,-0.52 0.88,-1.18 0.88,-1.98l0 0zm28.48 -28.91c3.06,-4.37 6.99,-7.82 11.83,-10.36 4.85,-2.53 10,-3.8 15.44,-3.8 5.53,0 10.68,1.23 15.46,3.71 4.79,2.47 8.72,5.94 11.83,10.43 3.85,5.47 5.78,11.41 5.78,17.79 0,6.39 -1.93,12.3 -5.78,17.77 -3.05,4.49 -6.98,7.98 -11.79,10.45 -4.81,2.47 -9.95,3.71 -15.5,3.71 -5.55,0 -10.67,-1.24 -15.44,-3.71 -4.78,-2.47 -8.73,-5.96 -11.83,-10.45 -3.85,-5.53 -5.78,-11.45 -5.78,-17.77 0,-6.32 1.94,-12.25 5.78,-17.79l0 0.02zm40.4 15.11c-0.58,-3.57 -2.1,-6.46 -4.53,-8.64 -2.44,-2.18 -5.31,-3.27 -8.6,-3.27 -3.73,0 -6.88,1.38 -9.45,4.11 -2.57,2.73 -3.85,6.22 -3.85,10.49 0,4.27 1.29,7.76 3.85,10.5 2.55,2.73 5.68,4.1 9.38,4.1 0.86,0 1.72,-0.09 2.57,-0.25 3.17,-0.62 5.76,-2.26 7.82,-4.89 2.05,-2.63 3.05,-5.72 3.05,-9.38 0,-0.85 -0.08,-1.77 -0.26,-2.75l0.02 -0.02zm46.79 -12.24l9.83 -11.85c2.71,-3.28 5.65,-4.89 8.81,-4.89 1.96,0 3.89,0.72 5.78,2.16 1.11,0.8 2,1.83 2.7,3.11 0.92,1.66 1.38,3.37 1.38,5.17 0,2.07 -0.66,3.85 -1.98,5.32l-16.49 17.85 0 19.83c0,2.71 -0.96,5.06 -2.85,7.1 -1.9,2.03 -4.27,3.07 -7.08,3.07 -2.75,0 -5.13,-1 -7.08,-2.97 -1.95,-1.98 -2.93,-4.37 -2.93,-7.2l0 -19.83 -16.48 -17.85c-1.32,-1.44 -1.99,-3.24 -1.99,-5.43 0,-0.98 0.09,-1.83 0.25,-2.56 0.16,-0.72 0.58,-1.63 1.2,-2.73 0.64,-1.11 1.49,-2.09 2.59,-2.89 1.96,-1.44 3.92,-2.16 5.87,-2.16 3.11,0 6,1.62 8.71,4.89l9.76 11.85 0 0.01z"/>
   <path class="fil1" d="M143.55 553.41c0.3,-0.04 0.56,-0.06 0.8,-0.06 0.38,0 0.68,0 0.88,0 0.92,0 1.69,0.09 2.33,0.25 0.64,0.16 1.2,0.5 1.68,0.98 2,1.98 2.97,4.41 2.97,7.26l0 24.46c0,2.47 -0.74,4.42 -2.26,5.9 -1.49,1.46 -3.4,2.17 -5.72,2.17 -1.26,0 -2.73,-0.64 -4.42,-1.91 -0.54,-0.4 -1.26,-1.04 -2.17,-1.94l0 0.36c0,1.32 -0.65,2.23 -1.92,2.79 -1.27,0.56 -3.01,0.84 -5.21,0.84 -1.89,0 -3.91,-0.2 -6.08,-0.62 -2.17,-0.42 -4.29,-1.32 -6.33,-2.71 -2.03,-1.4 -3.83,-3.28 -5.38,-5.61 -1.05,-1.67 -1.85,-3.55 -2.35,-5.56 -0.5,-2.01 -0.76,-4.21 -0.76,-6.52 0,-4.82 1.51,-9.05 4.53,-12.64 3.01,-3.59 6.66,-5.81 10.93,-6.62 1.36,-0.24 2.53,-0.36 3.55,-0.36 3.63,0 6.64,1.11 8.99,3.33 0.24,-0.44 0.49,-0.76 0.74,-1.02 1.46,-1.66 3.19,-2.57 5.23,-2.77l-0.03 0zm-7.75 24.35c0.14,-0.21 0.3,-0.52 0.43,-0.86 0.14,-0.33 0.26,-0.77 0.34,-1.31 0.06,-0.52 0.12,-0.96 0.12,-1.3 0,-0.34 0,-0.6 0,-0.8 -0.36,-2.45 -1.47,-4.09 -3.4,-4.91 -0.94,-0.34 -1.7,-0.5 -2.3,-0.5 -1.29,0 -2.41,0.46 -3.4,1.36 -0.98,0.92 -1.62,2.17 -1.92,3.77l0 1.3c0,1.6 0.52,3.01 1.55,4.29 1.04,1.27 2.34,1.91 3.89,1.91 2.14,0 3.71,-0.98 4.73,-2.95l-0.04 0zm24.53 -23.31l0 -3.41c0,-2.28 0.81,-4.19 2.43,-5.77 1.62,-1.57 3.53,-2.37 5.71,-2.37 2.23,0 4.13,0.84 5.7,2.47 1.58,1.64 2.38,3.57 2.38,5.81l0 3.27 0.93 0c1.79,0 3.39,0.64 4.75,1.93 1.35,1.3 2.07,2.88 2.07,4.75 0,1.76 -0.62,3.28 -1.89,4.53 -1.46,1.44 -3.09,2.16 -4.93,2.16l-1.01 -0.01 0 18.34c0,2.29 -0.8,4.23 -2.36,5.84 -1.55,1.61 -3.46,2.41 -5.7,2.41 -2.24,0 -4.13,-0.81 -5.72,-2.47 -1.6,-1.64 -2.4,-3.57 -2.4,-5.81l0 -18.28 -0.58 -0.01c-2.04,0 -3.77,-0.72 -5.23,-2.17 -1.25,-1.28 -1.89,-2.78 -1.89,-4.51 0,-1.89 0.7,-3.47 2.11,-4.77 1.41,-1.29 3.06,-1.91 4.93,-1.91l0.72 -0.01 -0.02 -0.01zm62.2 17.05l3.71 -11.03c0.15,-0.44 0.37,-0.96 0.66,-1.6 0.29,-0.64 0.56,-1.2 0.8,-1.67 0.62,-1.06 1.48,-1.89 2.55,-2.47 1.08,-0.58 2.28,-0.88 3.64,-0.88 1.15,0 2.27,0.22 3.31,0.66 1.03,0.43 2,1.14 2.87,2.11 1.3,1.39 1.95,3.09 1.95,5.06 0,1.32 -0.25,2.54 -0.8,3.64l-17.85 40.65c-1.69,3.86 -4.19,5.8 -7.48,5.8 -0.81,0 -1.67,-0.14 -2.53,-0.44 -1.64,-0.48 -2.97,-1.35 -3.95,-2.65 -0.98,-1.3 -1.49,-2.71 -1.49,-4.31 0,-1.06 0.28,-2.17 0.8,-3.33l5.6 -11.31 -11.11 -24.93c-0.38,-0.92 -0.58,-1.86 -0.58,-2.84 0,-1.51 0.43,-2.91 1.27,-4.23 0.84,-1.32 1.94,-2.31 3.27,-2.93 1.32,-0.64 2.56,-0.96 3.67,-0.96 3.58,0 6.15,2.14 7.68,6.39l4.08 11.25 -0.07 0.02zm41.32 -17.63c5.66,0 10.47,1.72 14.44,5.15 2.31,1.99 4.07,4.29 5.27,6.92 1.2,2.63 1.77,5.36 1.77,8.21 0,3.58 -0.9,6.92 -2.69,10.04 -1.79,3.11 -4.37,5.62 -7.74,7.5 -3.36,1.89 -7.04,2.83 -11.07,2.83 -6.04,0 -11.13,-1.95 -15.28,-5.84 -4.15,-3.89 -6.2,-8.65 -6.2,-14.32 0,-5.69 2.03,-10.53 6.14,-14.52 4.09,-3.98 9.21,-5.97 15.36,-5.97l0 0zm5.52 21.86c0.1,-0.66 0.15,-1.18 0.15,-1.52 0,-1.35 -0.32,-2.53 -0.96,-3.55 -1.16,-1.87 -2.73,-2.81 -4.71,-2.81 -1.97,0 -3.55,0.94 -4.7,2.81 -0.62,1 -0.96,2.22 -0.96,3.61 0,1.92 0.56,3.52 1.68,4.81 1.11,1.28 2.45,1.92 3.98,1.92 0.24,0 0.6,-0.04 1.1,-0.14 2.51,-0.53 3.99,-2.24 4.43,-5.13l-0.01 0zm19.53 -13.66c0,-2.23 0.8,-4.13 2.37,-5.71 1.58,-1.57 3.49,-2.35 5.77,-2.35 2.23,0 4.13,0.81 5.71,2.44 1.57,1.62 2.35,3.55 2.35,5.76l0 13.78c0,1.36 0.3,2.38 0.92,3.06 0.62,0.67 1.38,1.11 2.29,1.32 1.55,0.24 2.79,-0.2 3.71,-1.32 0.62,-0.65 0.95,-1.64 0.95,-3.06l0 -13.78c0,-2.27 0.8,-4.2 2.4,-5.8 1.6,-1.6 3.52,-2.4 5.72,-2.4 2.28,0 4.2,0.8 5.77,2.35 1.58,1.56 2.35,3.47 2.35,5.71l0 14.02c0,5.6 -1.32,9.88 -3.95,12.81 -2.63,2.93 -6.78,4.75 -12.44,5.4 -1.26,0.15 -2.5,0.22 -3.71,0.22 -1.26,0 -2.51,-0.06 -3.77,-0.22 -5.66,-0.67 -9.82,-2.47 -12.45,-5.4 -2.63,-2.93 -3.97,-7.2 -3.97,-12.81l0 -14.02 -0.02 0zm44.5 0c0,-2.23 0.8,-4.13 2.37,-5.71 1.58,-1.57 3.47,-2.35 5.71,-2.35 2.61,0 4.64,0.84 6.1,2.53 0.49,0.54 0.94,1.38 1.38,2.56l1.32 -1.86c0.82,-1.25 1.72,-2.09 2.72,-2.55 0.99,-0.46 2.13,-0.68 3.45,-0.68 0.78,0 1.45,0.1 2.04,0.28 1.39,0.38 2.59,1.08 3.58,2.07 1,1 1.62,2.17 1.86,3.55 0.1,0.38 0.14,0.96 0.14,1.74 0,3.4 -2.47,5.9 -7.4,7.5l-1.46 0.59c-2.47,1.06 -4.04,2.11 -4.7,3.18 -0.66,1.06 -1.02,2.97 -1.02,5.78l0 7.06c0,2.34 -0.77,4.33 -2.34,5.97 -1.56,1.63 -3.43,2.47 -5.64,2.47 -2.22,0 -4.13,-0.76 -5.71,-2.29 -1.57,-1.52 -2.37,-3.37 -2.37,-5.55l0 -24.31 -0.03 0.02zm60.25 18.07l1.46 0.44 1.02 0.36c0.98,0.37 1.77,0.65 2.43,0.83 0.66,0.19 1.3,0.31 1.92,0.4l1.31 0c0.64,0 1.05,-0.21 1.29,-0.65 0.24,-0.58 -0.02,-1.12 -0.8,-1.6l-0.49 -0.3 -0.66 -0.22 -1.45 -0.36 -1.9 -0.58 -1.38 -0.36c-3.29,-0.88 -5.72,-1.86 -7.28,-2.97 -1.56,-1.12 -2.75,-2.6 -3.53,-4.43 -0.52,-1.2 -0.8,-2.56 -0.8,-4.05 0,-3.43 1.56,-6.4 4.71,-8.86 3.33,-2.61 7.66,-3.91 12.98,-3.91 2.81,0 5.19,0.26 7.12,0.8 1.94,0.54 3.49,1.12 4.65,1.76 1.15,0.65 2.03,1.35 2.65,2.15 0.62,0.8 0.9,1.76 0.9,2.9 0,1.15 -0.36,2.21 -1.08,3.17 -0.72,0.96 -1.72,1.62 -2.97,1.94 -0.58,0.14 -1.2,0.22 -1.82,0.22 -0.71,0 -1.26,-0.04 -1.59,-0.1 -0.34,-0.06 -1,-0.22 -1.98,-0.48l-2.17 -0.5 -1.08 -0.28 -1.15 -0.22 -0.8 -0.14c-0.76,0 -1.24,0 -1.38,0 -0.38,0 -0.74,0.06 -1.02,0.22l-0.36 0.36c-0.44,0.44 -0.26,0.92 0.5,1.45l0.52 0.28 0.65 0.22 1.08 0.36 2.56 0.8 1.81 0.5 1.6 0.58c0.92,0.3 1.72,0.62 2.4,0.98 0.68,0.36 1.48,0.84 2.4,1.42 1.59,1.15 2.81,2.53 3.67,4.11 0.86,1.57 1.27,3.25 1.27,5.04 0,1.73 -0.4,3.41 -1.2,5.01 -0.8,1.59 -2.03,3.05 -3.73,4.35 -1.45,1.15 -3.21,2.07 -5.27,2.72 -2.06,0.66 -4.39,0.98 -7,0.98 -0.54,0 -1.1,0 -1.7,0 -0.59,0 -1.08,0 -1.41,0 -2.18,0 -4.11,-0.25 -5.79,-0.77 -1.67,-0.52 -3.19,-1.2 -4.6,-2.01 -3.09,-1.86 -4.65,-3.93 -4.65,-6.25 0,-0.67 0.1,-1.29 0.3,-1.83 0.38,-1.21 1.14,-2.21 2.3,-2.95 1.15,-0.74 2.47,-1.14 4.02,-1.14 1.06,0 2.26,0.22 3.55,0.65l-0.03 -0.04zm44.5 -2.18l1.3 1.36c1.7,1.27 4.47,1.91 8.36,1.91 1.26,0 3.11,-0.34 5.59,-0.98 1.75,-0.42 2.95,-0.64 3.63,-0.64 1.83,0 3.35,0.54 4.53,1.61 1.18,1.08 1.77,2.45 1.77,4.09 0,0.62 -0.04,1.08 -0.14,1.38 -0.38,1.36 -1.1,2.47 -2.13,3.35 -1.04,0.89 -2.76,1.76 -5.13,2.58 -0.98,0.27 -1.98,0.52 -2.97,0.73 -1,0.22 -1.98,0.38 -2.87,0.52 -0.9,0.12 -1.8,0.2 -2.72,0.26 -0.92,0.06 -1.75,0.06 -2.47,0.06 -7.2,0 -12.97,-1.97 -17.23,-5.9 -4.29,-3.95 -6.43,-8.9 -6.43,-14.82 0,-5.47 2.08,-10.07 6.21,-13.84 4.14,-3.75 9.29,-5.65 15.44,-5.65 1.99,0 3.86,0.24 5.66,0.72 1.79,0.47 3.51,1.19 5.15,2.11 2.89,1.69 5.28,3.92 7.14,6.7 1.85,2.77 2.79,5.46 2.79,8.03 0,2.32 -0.49,3.98 -1.46,4.94 -0.97,0.95 -2.69,1.45 -5.15,1.45l-18.87 0.02 0 0.01zm8.69 -8.57c-0.37,-2.32 -1.73,-3.49 -4.04,-3.49 -0.38,0 -0.68,0.02 -0.88,0.06 -1.69,0.38 -2.85,1.55 -3.49,3.49l-0.14 0.66 8.64 0 -0.09 -0.74 0 0.02zm20.11 -7.32c0,-2.23 0.8,-4.13 2.37,-5.71 1.58,-1.57 3.47,-2.35 5.71,-2.35 2.62,0 4.65,0.84 6.11,2.53 0.48,0.54 0.93,1.38 1.38,2.56l1.32 -1.86c0.81,-1.25 1.72,-2.09 2.71,-2.55 1,-0.46 2.13,-0.68 3.45,-0.68 0.78,0 1.46,0.1 2.04,0.28 1.39,0.38 2.59,1.08 3.59,2.07 0.99,1 1.61,2.17 1.85,3.55 0.1,0.38 0.14,0.96 0.14,1.74 0,3.4 -2.47,5.9 -7.4,7.5l-1.45 0.59c-2.48,1.06 -4.05,2.11 -4.71,3.18 -0.65,1.06 -1.01,2.97 -1.01,5.78l0 7.06c0,2.34 -0.78,4.33 -2.34,5.97 -1.56,1.63 -3.43,2.47 -5.65,2.47 -2.21,0 -4.13,-0.76 -5.71,-2.29 -1.57,-1.52 -2.37,-3.37 -2.37,-5.55l0 -24.31 -0.03 0.02zm47.77 10.17l4.13 -12.93c0.54,-1.55 1.52,-2.81 2.97,-3.81 1.46,-0.99 3.07,-1.47 4.85,-1.47 2.28,0 4.19,0.77 5.72,2.31 1.56,1.55 2.34,3.45 2.34,5.68 -0.04,0.38 -0.08,0.68 -0.08,0.88 -0.15,1.15 -0.46,2.19 -0.94,3.05l-11.33 22.54c-1.89,3.83 -4.36,5.75 -7.48,5.75 -0.92,0 -1.89,-0.16 -2.95,-0.5 -1.07,-0.34 -1.92,-0.88 -2.63,-1.6 -0.74,-0.72 -1.54,-1.94 -2.4,-3.65l-11.33 -22.54c-0.58,-1.05 -0.88,-2.09 -0.88,-3.05 -0.03,-0.38 -0.06,-0.7 -0.06,-0.94 0,-2.13 0.77,-3.98 2.3,-5.56 1.51,-1.55 3.43,-2.35 5.7,-2.35 1.9,0 3.55,0.48 4.97,1.45 1.42,0.98 2.4,2.26 2.87,3.86l4.21 12.92 0.02 -0.04zm21.62 -10.17c0,-2.28 0.78,-4.19 2.34,-5.72 1.56,-1.53 3.49,-2.32 5.8,-2.32 2.18,0 4.08,0.8 5.67,2.4 1.59,1.6 2.39,3.51 2.39,5.72l0 24.1c0,2.29 -0.8,4.2 -2.37,5.78 -1.58,1.57 -3.49,2.35 -5.77,2.35 -2.28,0 -4.19,-0.78 -5.72,-2.32 -1.55,-1.55 -2.34,-3.46 -2.34,-5.72l0 -24.25 0 -0.02zm2.12 -24.32c1.73,-1.64 3.73,-2.47 5.94,-2.47 2.32,0 4.31,0.83 5.99,2.55 1.67,1.72 2.49,3.73 2.49,6.09 0,2.37 -0.83,4.38 -2.49,6.06 -1.66,1.67 -3.67,2.49 -5.99,2.49 -2.34,0 -4.31,-0.83 -6,-2.49 -1.69,-1.66 -2.49,-3.71 -2.49,-6.15 0,-2.37 0.83,-4.38 2.55,-6.1l0 0.02zm22.71 23.72c0.74,-0.77 1.24,-1.32 1.56,-1.64 0.31,-0.32 0.83,-0.74 1.55,-1.27 3.67,-2.79 8.28,-4.2 13.78,-4.2 0.54,0 1.06,0 1.55,0 0.5,0 1.1,0.04 1.78,0.15 4.02,0.43 7.06,1.41 9.11,2.97 2.06,1.54 3.09,3.41 3.09,5.62 0,0.52 -0.02,0.94 -0.06,1.22 -0.3,1.77 -1.1,3.18 -2.4,4.2 -1.29,1.02 -2.89,1.52 -4.81,1.52l-1.23 -0.22 -0.33 0.01 -2.84 -0.62 -1.54 -0.26c-0.71,-0.14 -1.39,-0.19 -2.03,-0.19 -1.94,0 -3.43,0.53 -4.53,1.61 -1.1,1.08 -1.64,2.49 -1.64,4.21 0,1.89 0.96,3.37 2.84,4.47 0.98,0.53 2.07,0.79 3.33,0.79 0.58,0 1.32,-0.06 2.17,-0.21l2.77 -0.58c0.76,-0.2 1.2,-0.28 1.3,-0.28 0.28,-0.04 0.78,-0.06 1.45,-0.06 2.18,0 4.01,0.64 5.49,1.91 1.48,1.28 2.22,2.91 2.22,4.91 0,0.48 -0.02,0.84 -0.08,1.08 -0.34,2.41 -1.72,4.29 -4.17,5.62 -2.45,1.34 -6.18,2 -11.21,2 -3.98,0 -7.47,-0.7 -10.5,-2.13 -3.03,-1.44 -5.52,-3.5 -7.51,-6.19 -1.3,-1.77 -2.32,-3.68 -3.02,-5.72 -0.7,-2.03 -1.05,-4.07 -1.05,-6.16 0,-4.45 1.63,-8.64 4.93,-12.55l0.03 -0.01zm51.85 16.49l1.29 1.36c1.7,1.27 4.47,1.91 8.36,1.91 1.26,0 3.12,-0.34 5.59,-0.98 1.76,-0.42 2.96,-0.64 3.63,-0.64 1.84,0 3.36,0.54 4.53,1.61 1.18,1.08 1.78,2.45 1.78,4.09 0,0.62 -0.04,1.08 -0.15,1.38 -0.37,1.36 -1.1,2.47 -2.13,3.35 -1.03,0.89 -2.75,1.76 -5.13,2.58 -0.98,0.27 -1.97,0.52 -2.97,0.73 -0.99,0.22 -1.97,0.38 -2.87,0.52 -0.9,0.12 -1.79,0.2 -2.71,0.26 -0.92,0.06 -1.76,0.06 -2.48,0.06 -7.19,0 -12.96,-1.97 -17.23,-5.9 -4.29,-3.95 -6.42,-8.9 -6.42,-14.82 0,-5.47 2.07,-10.07 6.2,-13.84 4.15,-3.75 9.3,-5.65 15.44,-5.65 2,0 3.87,0.24 5.66,0.72 1.8,0.47 3.52,1.19 5.15,2.11 2.9,1.69 5.29,3.92 7.14,6.7 1.86,2.77 2.79,5.46 2.79,8.03 0,2.32 -0.48,3.98 -1.45,4.94 -0.98,0.95 -2.7,1.45 -5.15,1.45l-18.87 0.02 0 0.01zm8.69 -8.57c-0.38,-2.32 -1.73,-3.49 -4.05,-3.49 -0.38,0 -0.68,0.02 -0.87,0.06 -1.7,0.38 -2.85,1.55 -3.49,3.49l-0.15 0.66 8.64 0 -0.08 -0.74 0 0.02z"/>
   <g>
    <path class="fil0 str0" d="M53.84 178.09l13.62 0c9.67,0 17.43,2.01 23.32,6.05 5.88,4.03 9.75,9.89 11.64,17.61 0.58,2.47 0.86,5.06 0.86,7.76 0,8.85 -3.07,16.19 -9.23,22.02 -6.17,5.82 -14.02,8.71 -23.56,8.71l-16.75 0c-2.72,0 -5.04,-0.98 -6.98,-2.93 -1.94,-1.95 -2.93,-4.35 -2.93,-7.16l0 -42.03c0,-2.81 0.95,-5.19 2.89,-7.13 1.94,-1.93 4.31,-2.89 7.12,-2.89l0 -0.01zm29.25 27.96c-0.61,-3.17 -2.33,-5.74 -5.08,-7.72 -2.76,-1.97 -6.19,-2.97 -10.28,-2.97l-3.96 0 0 27.71 4.74 0c4.49,0 8.12,-1.26 10.88,-3.79 2.75,-2.54 4.14,-5.79 4.14,-9.76 0,-0.98 -0.14,-2.13 -0.44,-3.45l0 -0.02zm35.91 -17.69c1.38,-3.45 3.39,-6.14 6,-8.04 2.61,-1.89 5.62,-2.85 9.02,-2.85 3.39,0 6.4,0.94 9.01,2.79 2.62,1.86 4.63,4.59 6,8.08l14.85 38.04c0.76,2.08 1.11,3.83 1.11,5.27 0,1.96 -0.52,3.67 -1.55,5.19 -1.03,1.52 -2.53,2.65 -4.49,3.47 -1.31,0.58 -2.69,0.86 -4.13,0.86 -2.07,0 -3.95,-0.62 -5.6,-1.86 -1.65,-1.23 -2.91,-2.97 -3.71,-5.22l-0.95 -2.85 -20.99 -0.02 -1.04 2.85c-0.82,2.17 -2.06,3.92 -3.75,5.17 -1.69,1.25 -3.59,1.89 -5.64,1.89 -1.38,0 -2.73,-0.28 -4.05,-0.86 -4.03,-1.73 -6.05,-4.63 -6.05,-8.65 0,-1.44 0.38,-3.19 1.12,-5.27l14.84 -38.04 0 0.05zm15.02 9.14l-4.67 16.57 9.32 0 -4.67 -16.57 0.02 0zm42.11 -19.41l13.62 0c9.67,0 17.43,2.01 23.32,6.05 5.88,4.03 9.75,9.89 11.64,17.61 0.58,2.47 0.86,5.06 0.86,7.76 0,8.85 -3.07,16.19 -9.23,22.02 -6.17,5.82 -14.02,8.71 -23.56,8.71l-16.76 0c-2.71,0 -5.04,-0.98 -6.98,-2.93 -1.94,-1.95 -2.93,-4.35 -2.93,-7.16l0 -42.03c0,-2.81 0.96,-5.19 2.89,-7.13 1.94,-1.93 4.32,-2.89 7.13,-2.89l0 -0.01zm29.25 27.96c-0.61,-3.17 -2.33,-5.74 -5.08,-7.72 -2.76,-1.97 -6.19,-2.97 -10.28,-2.97l-3.96 0 0 27.71 4.75 0c4.48,0 8.11,-1.26 10.87,-3.79 2.75,-2.54 4.14,-5.79 4.14,-9.76 0,-0.98 -0.14,-2.13 -0.44,-3.45l0 -0.02zm34.43 -27.96l13.63 0c9.67,0 17.42,2.01 23.31,6.05 5.89,4.03 9.76,9.89 11.65,17.61 0.58,2.47 0.86,5.06 0.86,7.76 0,8.85 -3.07,16.19 -9.24,22.02 -6.16,5.82 -14.02,8.71 -23.55,8.71l-16.76 0c-2.72,0 -5.05,-0.98 -6.98,-2.93 -1.94,-1.95 -2.94,-4.35 -2.94,-7.16l0 -42.03c0,-2.81 0.96,-5.19 2.9,-7.13 1.94,-1.93 4.31,-2.89 7.12,-2.89l0 -0.01zm29.26 27.96c-0.62,-3.17 -2.34,-5.74 -5.09,-7.72 -2.75,-1.97 -6.18,-2.97 -10.27,-2.97l-3.97 0 0 27.71 4.75 0c4.49,0 8.12,-1.26 10.87,-3.79 2.75,-2.54 4.15,-5.79 4.15,-9.76 0,-0.98 -0.15,-2.13 -0.44,-3.45l0 -0.02zm47.03 -11.83l9.83 -11.85c2.72,-3.27 5.65,-4.88 8.82,-4.88 1.95,0 3.89,0.72 5.78,2.16 1.1,0.79 2,1.83 2.69,3.11 0.92,1.66 1.38,3.37 1.38,5.16 0,2.08 -0.66,3.85 -1.98,5.32l-16.49 17.86 0 19.82c0,2.72 -0.96,5.07 -2.85,7.1 -1.89,2.04 -4.27,3.07 -7.08,3.07 -2.75,0 -5.12,-0.99 -7.06,-2.97 -1.94,-1.97 -2.93,-4.36 -2.93,-7.2l0 -19.82 -16.48 -17.86c-1.32,-1.44 -1.99,-3.23 -1.99,-5.42 0,-0.98 0.09,-1.84 0.25,-2.56 0.16,-0.72 0.58,-1.63 1.2,-2.73 0.64,-1.11 1.49,-2.09 2.59,-2.89 1.96,-1.44 3.92,-2.16 5.87,-2.16 3.11,0 6,1.61 8.71,4.89l9.76 11.85 -0.02 0zm55.34 29.34c1.55,-2.41 3.58,-3.63 6.12,-3.63 0.46,0 0.92,0 1.38,0 0.18,0 0.71,0.12 1.63,0.36l3.8 1.04 3.45 0.88 2.49 0.59 0.96 0.26 1.46 0.26c1.31,0.18 2.37,0.25 3.11,0.25 0.46,0 0.92,-0.04 1.38,-0.14 0.46,-0.11 0.77,-0.14 0.96,-0.22 1.04,-0.34 1.77,-0.7 2.21,-1.08 0.45,-0.37 0.64,-0.83 0.64,-1.44 0,-0.52 -0.28,-0.98 -0.86,-1.38l-0.7 -0.25 -1.63 -0.52 -1.12 -0.34 -4.59 -1.12 -0.86 -0.18 -5.71 -1.64c-1.61,-0.46 -3.05,-0.95 -4.36,-1.45 -1.31,-0.5 -2.5,-1.12 -3.57,-1.82 -2.38,-1.44 -4.17,-3.35 -5.45,-5.72 -1.27,-2.37 -1.91,-4.98 -1.91,-7.82 0,-2.31 0.42,-4.53 1.26,-6.7 0.83,-2.17 2.15,-4.2 3.92,-6.16 1.78,-1.96 4.15,-3.65 7.13,-5.05 2.98,-1.39 6.3,-2.33 9.97,-2.81 1.56,-0.18 3.07,-0.26 4.57,-0.26 3.17,0 6.3,0.46 9.42,1.38 3.11,0.92 5.44,1.96 6.98,3.15 1.55,1.2 2.61,2.7 3.19,4.54 0.18,0.52 0.27,1.13 0.33,1.85 0.07,0.72 0.09,1.12 0.09,1.15 0,1.77 -0.46,3.3 -1.38,4.57 -1.68,2.41 -3.91,3.64 -6.73,3.64 -1.61,0 -3.39,-0.28 -5.34,-0.86l-0.7 -0.26 -2.5 -0.78 -1.04 -0.25 -2.41 -0.6 -1.21 -0.26 -0.88 -0.18 -1.11 -0.09c-1.56,0 -2.62,0.21 -3.19,0.7 -0.58,0.48 -0.88,0.95 -0.88,1.45 0,0.34 0.18,0.66 0.52,0.96l1.38 0.59 1.64 0.44 0.59 0.18 1.72 0.44 2.85 0.68 5.71 1.55c2.81,0.82 5.32,1.76 7.5,2.85 3.05,1.55 5.41,3.69 7.08,6.42 1.67,2.74 2.49,5.69 2.49,8.84 0,2.25 -0.37,4.39 -1.11,6.42 -0.74,2.04 -2,4.07 -3.71,6.09 -2.65,3.11 -6.05,5.32 -10.19,6.67 -4.15,1.36 -9.3,2.04 -15.44,2.04 -3.45,0 -6.42,-0.34 -8.9,-0.99 -2.47,-0.66 -4.59,-1.52 -6.3,-2.56 -2.17,-1.27 -3.67,-2.57 -4.49,-3.93 -0.81,-1.35 -1.21,-3.03 -1.21,-5.04 0,-1.67 0.5,-3.25 1.48,-4.75l0.07 0.04zm78.26 -35.2c0,-2.87 1,-5.31 2.97,-7.3 1.98,-1.99 4.39,-2.97 7.2,-2.97l14.32 0 3.8 0.26c5.64,0.76 10.11,2.81 13.42,6.23 3.32,3.41 4.97,7.41 4.97,12.08 0,0.52 0,0.92 0,1.21 -0.06,0.34 -0.1,0.6 -0.1,0.78 -0.34,3.33 -1.39,6.18 -3.19,8.53l0.18 0.18 1.22 0.78 1.2 0.78 0.52 0.43c3.67,3 5.52,7.02 5.52,12.09 0,1.89 -0.3,3.79 -0.89,5.65 -0.6,1.85 -1.46,3.55 -2.6,5 -1.11,1.46 -2.19,2.65 -3.23,3.59 -1.89,1.55 -3.93,2.69 -6.08,3.45 -2.16,0.76 -4.73,1.12 -7.72,1.12l-21.5 0.01c-2.93,0 -5.34,-0.99 -7.2,-2.97 -1.85,-1.97 -2.81,-4.63 -2.81,-7.97l0 -40.92 0 -0.04zm26.94 11.39c0.59,-0.4 0.86,-0.99 0.86,-1.79 0,-0.77 -0.34,-1.4 -0.99,-1.94 -0.66,-0.54 -1.46,-0.82 -2.38,-0.82l-4.38 0 0 5.53 4.58 0c0.8,0 1.58,-0.3 2.34,-0.96l-0.03 -0.02zm5.27 20.54c0,-0.87 -0.25,-1.6 -0.77,-2.15 -0.52,-0.56 -1.2,-0.88 -2,-0.88l-9.42 0 0 5.78 9.42 0c0.68,0 1.32,-0.25 1.89,-0.77 0.58,-0.52 0.88,-1.18 0.88,-1.98l0 0zm28.46 -28.91c3.06,-4.37 6.98,-7.82 11.83,-10.36 4.85,-2.53 10,-3.8 15.44,-3.8 5.53,0 10.67,1.23 15.46,3.71 4.79,2.47 8.72,5.94 11.83,10.43 3.85,5.47 5.78,11.41 5.78,17.79 0,6.39 -1.94,12.3 -5.78,17.77 -3.05,4.48 -6.98,7.98 -11.79,10.45 -4.81,2.47 -9.95,3.71 -15.5,3.71 -5.55,0 -10.68,-1.24 -15.44,-3.71 -4.79,-2.47 -8.74,-5.97 -11.83,-10.45 -3.85,-5.53 -5.78,-11.45 -5.78,-17.77 0,-6.32 1.94,-12.25 5.78,-17.79l0 0.02zm40.42 15.09c-0.58,-3.57 -2.1,-6.46 -4.53,-8.63 -2.44,-2.18 -5.31,-3.28 -8.6,-3.28 -3.73,0 -6.88,1.38 -9.45,4.11 -2.57,2.73 -3.85,6.23 -3.85,10.5 0,4.26 1.29,7.75 3.85,10.49 2.55,2.74 5.68,4.11 9.38,4.11 0.86,0 1.72,-0.1 2.57,-0.26 3.17,-0.62 5.76,-2.25 7.81,-4.88 2.06,-2.63 3.06,-5.72 3.06,-9.38 0,-0.86 -0.09,-1.77 -0.26,-2.75l0.02 -0.03zm46.77 -12.25l9.83 -11.85c2.71,-3.27 5.64,-4.88 8.81,-4.88 1.95,0 3.89,0.72 5.78,2.16 1.1,0.79 2,1.83 2.69,3.11 0.92,1.66 1.38,3.37 1.38,5.16 0,2.08 -0.65,3.85 -1.97,5.32l-16.5 17.86 0 19.82c0,2.72 -0.96,5.07 -2.85,7.1 -1.89,2.04 -4.26,3.07 -7.08,3.07 -2.75,0 -5.12,-0.99 -7.07,-2.97 -1.96,-1.97 -2.94,-4.36 -2.94,-7.2l0 -19.82 -16.47 -17.86c-1.32,-1.44 -2,-3.23 -2,-5.42 0,-0.98 0.1,-1.84 0.26,-2.56 0.16,-0.72 0.58,-1.63 1.2,-2.73 0.64,-1.11 1.49,-2.09 2.59,-2.89 1.95,-1.44 3.91,-2.16 5.87,-2.16 3.11,0 6,1.61 8.71,4.89l9.76 11.85 0 0z"/>
   </g>
   <g>
    <path class="fil0 str0" d="M51.61 466.03l13.62 0c9.67,0 17.43,2.01 23.31,6.04 5.89,4.04 9.76,9.89 11.65,17.61 0.58,2.48 0.86,5.07 0.86,7.76 0,8.86 -3.07,16.19 -9.23,22.02 -6.17,5.83 -14.03,8.72 -23.56,8.72l-16.76 0c-2.71,0 -5.04,-0.98 -6.98,-2.94 -1.94,-1.95 -2.93,-4.35 -2.93,-7.16l0 -42.03c0,-2.81 0.95,-5.18 2.89,-7.12 1.94,-1.94 4.31,-2.89 7.13,-2.89l0 -0.01zm29.23 27.96c-0.62,-3.18 -2.34,-5.75 -5.09,-7.72 -2.75,-1.98 -6.18,-2.97 -10.27,-2.97l-3.96 0 0 27.7 4.74 0c4.49,0 8.12,-1.26 10.87,-3.79 2.75,-2.53 4.15,-5.78 4.15,-9.75 0,-0.98 -0.15,-2.14 -0.44,-3.46l0 -0.01zm35.91 -17.69c1.38,-3.46 3.39,-6.15 6,-8.04 2.61,-1.89 5.62,-2.85 9.01,-2.85 3.4,0 6.4,0.93 9.02,2.79 2.61,1.85 4.63,4.59 6,8.08l14.84 38.04c0.76,2.07 1.12,3.83 1.12,5.27 0,1.95 -0.52,3.67 -1.55,5.19 -1.04,1.51 -2.54,2.65 -4.49,3.46 -1.32,0.58 -2.69,0.86 -4.13,0.86 -2.07,0 -3.95,-0.62 -5.6,-1.85 -1.65,-1.24 -2.91,-2.97 -3.71,-5.23l-0.96 -2.85 -20.99 -0.01 -1.04 2.85c-0.81,2.17 -2.05,3.91 -3.74,5.16 -1.69,1.25 -3.59,1.9 -5.65,1.9 -1.38,0 -2.73,-0.28 -4.05,-0.86 -4.02,-1.74 -6.04,-4.63 -6.04,-8.66 0,-1.44 0.37,-3.19 1.11,-5.27l14.85 -38.04 0 0.06zm15.01 9.13l-4.66 16.58 9.31 0 -4.66 -16.58 0.01 0zm42.13 -19.4l13.62 0c9.67,0 17.43,2.01 23.32,6.04 5.89,4.04 9.75,9.89 11.64,17.61 0.58,2.48 0.86,5.07 0.86,7.76 0,8.86 -3.06,16.19 -9.23,22.02 -6.17,5.83 -14.02,8.72 -23.56,8.72l-16.75 0c-2.71,0 -5.04,-0.98 -6.98,-2.94 -1.94,-1.95 -2.93,-4.35 -2.93,-7.16l0 -42.03c0,-2.81 0.95,-5.18 2.89,-7.12 1.94,-1.94 4.31,-2.89 7.13,-2.89l-0.01 -0.01zm29.24 27.96c-0.62,-3.18 -2.34,-5.75 -5.09,-7.72 -2.75,-1.98 -6.18,-2.97 -10.27,-2.97l-3.97 0 0 27.7 4.75 0c4.49,0 8.12,-1.26 10.87,-3.79 2.75,-2.53 4.15,-5.78 4.15,-9.75 0,-0.98 -0.15,-2.14 -0.44,-3.46l0 -0.01zm34.44 -27.96l13.63 0c9.67,0 17.43,2.01 23.31,6.04 5.89,4.04 9.76,9.89 11.65,17.61 0.58,2.48 0.86,5.07 0.86,7.76 0,8.86 -3.07,16.19 -9.24,22.02 -6.16,5.83 -14.02,8.72 -23.55,8.72l-16.75 0c-2.72,0 -5.05,-0.98 -6.98,-2.94 -1.94,-1.95 -2.94,-4.35 -2.94,-7.16l0 -42.03c0,-2.81 0.96,-5.18 2.9,-7.12 1.94,-1.94 4.31,-2.89 7.12,-2.89l-0.01 -0.01zm29.27 27.96c-0.62,-3.18 -2.34,-5.75 -5.09,-7.72 -2.75,-1.98 -6.18,-2.97 -10.27,-2.97l-3.97 0 0 27.7 4.75 0c4.48,0 8.12,-1.26 10.87,-3.79 2.75,-2.53 4.15,-5.78 4.15,-9.75 0,-0.98 -0.15,-2.14 -0.44,-3.46l0 -0.01zm47.03 -11.83l9.83 -11.85c2.72,-3.27 5.65,-4.89 8.81,-4.89 1.96,0 3.89,0.72 5.79,2.16 1.1,0.8 1.99,1.83 2.69,3.11 0.92,1.66 1.38,3.37 1.38,5.17 0,2.07 -0.66,3.85 -1.98,5.32l-16.49 17.85 0 19.83c0,2.71 -0.96,5.06 -2.85,7.1 -1.89,2.03 -4.27,3.07 -7.08,3.07 -2.75,0 -5.13,-1 -7.06,-2.97 -1.94,-1.98 -2.94,-4.37 -2.94,-7.2l0 -19.83 -16.47 -17.85c-1.32,-1.44 -2,-3.23 -2,-5.43 0,-0.98 0.1,-1.83 0.26,-2.55 0.16,-0.73 0.58,-1.64 1.2,-2.73 0.64,-1.12 1.49,-2.1 2.59,-2.9 1.96,-1.44 3.92,-2.15 5.87,-2.15 3.11,0 6,1.61 8.71,4.88l9.76 11.85 -0.02 0.01zm55.31 29.34c1.56,-2.41 3.59,-3.63 6.12,-3.63 0.46,0 0.92,0 1.38,0 0.18,0 0.72,0.12 1.64,0.36l3.79 1.04 3.45 0.87 2.5 0.6 0.96 0.26 1.45 0.25c1.32,0.18 2.38,0.26 3.11,0.26 0.46,0 0.92,-0.04 1.38,-0.15 0.46,-0.1 0.78,-0.14 0.96,-0.21 1.04,-0.34 1.77,-0.71 2.22,-1.08 0.44,-0.38 0.64,-0.84 0.64,-1.44 0,-0.52 -0.28,-0.98 -0.86,-1.38l-0.7 -0.26 -1.64 -0.52 -1.11 -0.34 -4.59 -1.11 -0.86 -0.18 -5.71 -1.64c-1.61,-0.46 -3.05,-0.96 -4.37,-1.45 -1.31,-0.5 -2.49,-1.12 -3.57,-1.82 -2.37,-1.44 -4.17,-3.36 -5.44,-5.72 -1.28,-2.37 -1.92,-4.99 -1.92,-7.82 0,-2.32 0.43,-4.53 1.26,-6.7 0.84,-2.17 2.16,-4.21 3.93,-6.17 1.77,-1.95 4.15,-3.65 7.12,-5.04 2.98,-1.4 6.31,-2.34 9.98,-2.81 1.55,-0.19 3.07,-0.26 4.57,-0.26 3.17,0 6.3,0.46 9.41,1.38 3.12,0.92 5.44,1.97 6.98,3.13 1.56,1.2 2.62,2.69 3.19,4.53 0.18,0.52 0.28,1.14 0.34,1.85 0.06,0.72 0.08,1.12 0.08,1.16 0,1.77 -0.46,3.31 -1.38,4.56 -1.67,2.42 -3.91,3.64 -6.72,3.64 -1.61,0 -3.39,-0.28 -5.35,-0.86l-0.7 -0.26 -2.49 -0.77 -1.04 -0.26 -2.41 -0.6 -1.22 -0.25 -0.87 -0.18 -1.12 -0.1c-1.55,0 -2.61,0.22 -3.19,0.7 -0.57,0.48 -0.87,0.96 -0.87,1.45 0,0.34 0.18,0.66 0.52,0.96l1.38 0.6 1.63 0.43 0.6 0.19 1.72 0.43 2.85 0.68 5.7 1.55c2.82,0.82 5.33,1.76 7.51,2.85 3.05,1.56 5.4,3.69 7.07,6.43 1.68,2.73 2.5,5.68 2.5,8.83 0,2.26 -0.38,4.39 -1.12,6.43 -0.73,2.03 -1.99,4.07 -3.7,6.08 -2.66,3.11 -6.05,5.32 -10.2,6.68 -4.14,1.35 -9.29,2.03 -15.44,2.03 -3.45,0 -6.42,-0.34 -8.89,-0.99 -2.47,-0.66 -4.59,-1.52 -6.3,-2.56 -2.17,-1.27 -3.67,-2.57 -4.49,-3.93 -0.81,-1.35 -1.21,-3.03 -1.21,-5.04 0,-1.67 0.49,-3.25 1.47,-4.75l0.07 0.07zm78.28 -35.2c0,-2.88 1,-5.31 2.97,-7.3 1.98,-1.99 4.39,-2.97 7.2,-2.97l14.33 0 3.8 0.25c5.64,0.77 10.1,2.82 13.42,6.23 3.32,3.42 4.97,7.42 4.97,12.09 0,0.52 0,0.91 0,1.21 -0.06,0.34 -0.1,0.59 -0.1,0.78 -0.34,3.33 -1.39,6.18 -3.19,8.53l0.18 0.18 1.22 0.78 1.2 0.77 0.52 0.44c3.67,2.99 5.52,7.02 5.52,12.08 0,1.9 -0.3,3.8 -0.9,5.65 -0.59,1.86 -1.45,3.55 -2.59,5.01 -1.11,1.45 -2.19,2.65 -3.23,3.58 -1.89,1.56 -3.93,2.7 -6.09,3.46 -2.15,0.76 -4.72,1.11 -7.72,1.11l-21.49 0.02c-2.93,0 -5.34,-1 -7.2,-2.97 -1.85,-1.98 -2.81,-4.65 -2.81,-7.98l0 -40.91 -0.01 -0.04zm26.93 11.39c0.58,-0.4 0.86,-1 0.86,-1.8 0,-0.76 -0.34,-1.39 -0.99,-1.94 -0.66,-0.54 -1.46,-0.81 -2.38,-0.81l-4.39 0 0 5.53 4.59 0c0.8,0 1.57,-0.31 2.33,-0.96l-0.02 -0.02zm5.27 20.54c0,-0.88 -0.26,-1.6 -0.78,-2.16 -0.52,-0.56 -1.19,-0.87 -1.99,-0.87l-9.42 0 0 5.78 9.42 0.01c0.67,0 1.32,-0.26 1.89,-0.78 0.57,-0.52 0.87,-1.17 0.87,-1.97l0.01 -0.01zm28.48 -28.92c3.05,-4.36 6.98,-7.82 11.83,-10.35 4.85,-2.53 10,-3.81 15.44,-3.81 5.52,0 10.67,1.24 15.46,3.71 4.79,2.47 8.71,5.94 11.83,10.44 3.85,5.46 5.78,11.4 5.78,17.79 0,6.38 -1.94,12.3 -5.78,17.76 -3.06,4.49 -6.98,7.98 -11.79,10.45 -4.81,2.48 -9.95,3.71 -15.5,3.71 -5.55,0 -10.68,-1.23 -15.44,-3.71 -4.79,-2.47 -8.74,-5.96 -11.83,-10.45 -3.85,-5.52 -5.78,-11.45 -5.78,-17.76 0,-6.32 1.94,-12.25 5.78,-17.79l0 0.01zm40.42 15.1c-0.59,-3.57 -2.1,-6.46 -4.54,-8.64 -2.43,-2.18 -5.3,-3.27 -8.59,-3.27 -3.73,0 -6.88,1.38 -9.45,4.11 -2.57,2.73 -3.86,6.22 -3.86,10.49 0,4.27 1.3,7.76 3.86,10.5 2.55,2.73 5.68,4.1 9.38,4.1 0.85,0 1.71,-0.09 2.57,-0.25 3.17,-0.64 5.76,-2.26 7.81,-4.89 2.05,-2.63 3.06,-5.72 3.06,-9.38 0,-0.85 -0.09,-1.77 -0.26,-2.75l0.02 -0.02zm46.76 -12.25l9.83 -11.85c2.72,-3.27 5.65,-4.89 8.82,-4.89 1.95,0 3.89,0.72 5.78,2.16 1.1,0.8 2,1.83 2.69,3.11 0.92,1.66 1.38,3.37 1.38,5.17 0,2.07 -0.66,3.85 -1.97,5.32l-16.5 17.85 0 19.83c0,2.71 -0.96,5.06 -2.85,7.1 -1.89,2.03 -4.27,3.07 -7.08,3.07 -2.75,0 -5.12,-1 -7.08,-2.97 -1.95,-1.98 -2.93,-4.37 -2.93,-7.2l0 -19.83 -16.47 -17.85c-1.32,-1.44 -2,-3.23 -2,-5.43 0,-0.98 0.1,-1.83 0.26,-2.55 0.16,-0.73 0.58,-1.64 1.2,-2.73 0.64,-1.12 1.49,-2.1 2.59,-2.9 1.95,-1.44 3.91,-2.15 5.86,-2.15 3.12,0 6.01,1.61 8.72,4.88l9.75 11.85 0 0.01z"/>
   </g>
   <g>
    <path class="fil0 str0" d="M52.86 77.18l13.62 0c9.67,0 17.43,2.01 23.32,6.05 5.88,4.03 9.75,9.89 11.64,17.59 0.58,2.47 0.86,5.07 0.86,7.76 0,8.86 -3.07,16.19 -9.23,22.02 -6.17,5.83 -14.02,8.71 -23.56,8.71l-16.75 0c-2.72,0 -5.04,-0.98 -6.98,-2.93 -1.94,-1.95 -2.93,-4.35 -2.93,-7.16l0 -42.03c0,-2.81 0.95,-5.18 2.89,-7.12 1.94,-1.94 4.31,-2.9 7.12,-2.9l0 0.01zm29.26 27.97c-0.62,-3.17 -2.34,-5.75 -5.09,-7.72 -2.75,-1.98 -6.18,-2.97 -10.27,-2.97l-3.97 0 0 27.7 4.75 0c4.49,0 8.12,-1.26 10.87,-3.79 2.75,-2.53 4.15,-5.78 4.15,-9.75 0,-0.98 -0.14,-2.14 -0.44,-3.46l0 -0.01zm35.9 -17.69c1.38,-3.46 3.39,-6.15 6,-8.04 2.61,-1.89 5.62,-2.85 9.02,-2.85 3.39,0 6.4,0.94 9.01,2.79 2.62,1.85 4.63,4.59 6,8.08l14.85 38.04c0.76,2.07 1.11,3.83 1.11,5.27 0,1.95 -0.52,3.67 -1.55,5.19 -1.03,1.51 -2.53,2.65 -4.49,3.46 -1.31,0.58 -2.69,0.86 -4.13,0.86 -2.07,0 -3.95,-0.61 -5.6,-1.85 -1.65,-1.24 -2.91,-2.97 -3.71,-5.23l-0.95 -2.84 -20.99 -0.02 -1.04 2.85c-0.82,2.17 -2.06,3.91 -3.75,5.16 -1.69,1.26 -3.59,1.9 -5.64,1.9 -1.38,0 -2.73,-0.28 -4.05,-0.86 -4.03,-1.74 -6.05,-4.63 -6.05,-8.66 0,-1.44 0.38,-3.19 1.12,-5.27l14.84 -38.04 0 0.06zm15.02 9.13l-4.66 16.58 9.31 -0.01 -4.67 -16.57 0.02 0zm42.11 -19.41l13.62 0c9.67,0 17.43,2.01 23.32,6.05 5.88,4.03 9.75,9.89 11.64,17.59 0.58,2.47 0.86,5.07 0.86,7.76 0,8.86 -3.07,16.19 -9.23,22.02 -6.17,5.83 -14.02,8.71 -23.56,8.71l-16.75 0c-2.71,0 -5.04,-0.98 -6.98,-2.93 -1.94,-1.95 -2.93,-4.35 -2.93,-7.16l0 -42.03c0,-2.81 0.95,-5.18 2.89,-7.12 1.94,-1.94 4.31,-2.9 7.12,-2.9l0 0.01zm29.25 27.97c-0.61,-3.17 -2.33,-5.75 -5.08,-7.72 -2.76,-1.98 -6.19,-2.97 -10.28,-2.97l-3.96 0 0 27.7 4.74 0c4.49,0 8.12,-1.26 10.88,-3.79 2.75,-2.53 4.14,-5.78 4.14,-9.75 0,-0.98 -0.14,-2.14 -0.44,-3.46l0 -0.01zm34.46 -27.97l13.62 0c9.67,0 17.43,2.01 23.31,6.05 5.89,4.03 9.76,9.89 11.65,17.59 0.58,2.47 0.86,5.07 0.86,7.76 0,8.86 -3.07,16.19 -9.23,22.02 -6.17,5.83 -14.03,8.71 -23.56,8.71l-16.76 0c-2.71,0 -5.04,-0.98 -6.98,-2.93 -1.94,-1.95 -2.93,-4.35 -2.93,-7.16l0 -42.03c0,-2.81 0.95,-5.18 2.89,-7.12 1.94,-1.94 4.31,-2.9 7.13,-2.9l0 0.01zm29.23 27.97c-0.62,-3.17 -2.34,-5.75 -5.09,-7.72 -2.75,-1.98 -6.18,-2.97 -10.27,-2.97l-3.96 0 0 27.7 4.74 0c4.49,0 8.12,-1.26 10.87,-3.79 2.75,-2.53 4.15,-5.78 4.15,-9.75 0,-0.98 -0.15,-2.14 -0.44,-3.46l0 -0.01zm47.06 -11.83l9.83 -11.85c2.71,-3.27 5.64,-4.88 8.81,-4.88 1.95,0 3.89,0.71 5.78,2.15 1.1,0.8 2,1.83 2.69,3.11 0.92,1.66 1.38,3.4 1.38,5.17 0,2.07 -0.65,3.85 -1.97,5.32l-16.5 17.85 0 19.83c0,2.71 -0.96,5.06 -2.85,7.1 -1.89,2.04 -4.26,3.07 -7.08,3.07 -2.75,0 -5.12,-1 -7.06,-2.97 -1.94,-1.98 -2.93,-4.37 -2.93,-7.2l0 -19.83 -16.47 -17.85c-1.32,-1.44 -2,-3.23 -2,-5.43 0,-0.98 0.1,-1.83 0.25,-2.55 0.16,-0.73 0.59,-1.64 1.2,-2.73 0.64,-1.12 1.5,-2.1 2.6,-2.9 1.95,-1.44 3.91,-2.15 5.86,-2.15 3.12,0 6,1.61 8.72,4.88l9.75 11.85 -0.01 0.01zm55.31 29.34c1.55,-2.41 3.58,-3.63 6.12,-3.63 0.46,0 0.92,0 1.38,0 0.18,0 0.71,0.12 1.63,0.36l3.8 1.04 3.45 0.87 2.49 0.6 0.96 0.26 1.46 0.25c1.31,0.18 2.37,0.26 3.11,0.26 0.46,0 0.92,-0.04 1.38,-0.14 0.46,-0.11 0.77,-0.15 0.96,-0.22 1.04,-0.34 1.77,-0.7 2.21,-1.08 0.45,-0.38 0.64,-0.84 0.64,-1.44 0,-0.52 -0.28,-0.98 -0.86,-1.38l-0.7 -0.26 -1.63 -0.52 -1.12 -0.34 -4.59 -1.11 -0.86 -0.18 -5.71 -1.64c-1.61,-0.46 -3.05,-0.96 -4.36,-1.45 -1.31,-0.5 -2.5,-1.12 -3.57,-1.82 -2.38,-1.44 -4.17,-3.36 -5.45,-5.72 -1.27,-2.37 -1.91,-4.99 -1.91,-7.82 0,-2.31 0.42,-4.53 1.26,-6.7 0.83,-2.17 2.15,-4.21 3.92,-6.17 1.78,-1.95 4.15,-3.65 7.13,-5.04 2.98,-1.4 6.3,-2.34 9.97,-2.81 1.56,-0.18 3.07,-0.26 4.57,-0.26 3.17,0 6.3,0.46 9.42,1.38 3.11,0.92 5.44,1.97 6.98,3.15 1.55,1.2 2.61,2.69 3.19,4.53 0.18,0.52 0.27,1.14 0.33,1.86 0.07,0.71 0.09,1.11 0.09,1.15 0,1.77 -0.46,3.31 -1.38,4.57 -1.68,2.41 -3.91,3.63 -6.73,3.63 -1.61,0 -3.39,-0.28 -5.34,-0.86l-0.7 -0.25 -2.5 -0.78 -1.04 -0.26 -2.41 -0.59 -1.21 -0.26 -0.88 -0.18 -1.11 -0.1c-1.56,0 -2.62,0.22 -3.19,0.7 -0.58,0.49 -0.88,0.96 -0.88,1.46 0,0.34 0.18,0.65 0.52,0.96l1.38 0.59 1.64 0.44 0.59 0.18 1.72 0.44 2.85 0.68 5.71 1.55c2.81,0.81 5.32,1.75 7.5,2.85 3.05,1.55 5.41,3.68 7.08,6.42 1.67,2.74 2.49,5.68 2.49,8.84 0,2.25 -0.37,4.38 -1.11,6.42 -0.74,2.03 -2,4.07 -3.71,6.08 -2.65,3.12 -6.05,5.32 -10.19,6.68 -4.15,1.36 -9.3,2.04 -15.44,2.04 -3.45,0 -6.42,-0.34 -8.9,-1 -2.47,-0.65 -4.59,-1.51 -6.3,-2.55 -2.17,-1.28 -3.67,-2.57 -4.49,-3.93 -0.81,-1.36 -1.21,-3.03 -1.21,-5.04 0,-1.68 0.5,-3.25 1.48,-4.75l0.07 0.04zm78.28 -35.2c0,-2.88 1,-5.31 2.97,-7.3 1.98,-1.99 4.39,-2.97 7.2,-2.97l14.33 -0.01 3.79 0.26c5.65,0.76 10.11,2.81 13.43,6.22 3.31,3.42 4.96,7.42 4.96,12.09 0,0.52 0,0.92 0,1.21 -0.06,0.34 -0.09,0.6 -0.09,0.78 -0.34,3.33 -1.4,6.18 -3.19,8.53l0.18 0.18 1.21 0.78 1.2 0.78 0.52 0.43c3.67,3 5.53,7.02 5.53,12.09 0,1.89 -0.31,3.79 -0.9,5.64 -0.6,1.86 -1.46,3.55 -2.59,5.01 -1.12,1.45 -2.2,2.65 -3.24,3.59 -1.89,1.55 -3.93,2.69 -6.08,3.45 -2.16,0.76 -4.73,1.12 -7.72,1.12l-21.49 0.01c-2.94,0 -5.35,-0.99 -7.2,-2.97 -1.86,-1.97 -2.82,-4.63 -2.82,-7.97l0 -40.92 0 -0.03zm26.93 11.39c0.58,-0.4 0.86,-1 0.86,-1.8 0,-0.76 -0.34,-1.39 -0.99,-1.93 -0.66,-0.55 -1.46,-0.82 -2.38,-0.82l-4.39 -0.01 0 5.53 4.59 0c0.8,0 1.57,-0.3 2.33,-0.96l-0.02 -0.01zm5.26 20.54c0,-0.88 -0.25,-1.6 -0.77,-2.16 -0.52,-0.55 -1.2,-0.87 -2,-0.87l-9.41 0 0 5.78 9.41 0c0.68,0 1.32,-0.26 1.89,-0.78 0.58,-0.52 0.88,-1.17 0.88,-1.97l0 0zm28.48 -28.93c3.06,-4.36 6.99,-7.81 11.83,-10.35 4.85,-2.53 10,-3.8 15.44,-3.8 5.53,0 10.68,1.23 15.46,3.71 4.79,2.47 8.72,5.94 11.83,10.43 3.85,5.46 5.78,11.4 5.78,17.79 0,6.38 -1.93,12.3 -5.78,17.77 -3.05,4.48 -6.98,7.97 -11.79,10.45 -4.81,2.47 -9.95,3.71 -15.5,3.71 -5.55,0 -10.67,-1.24 -15.44,-3.71 -4.78,-2.48 -8.73,-5.97 -11.83,-10.45 -3.85,-5.53 -5.78,-11.45 -5.78,-17.77 0,-6.32 1.94,-12.25 5.78,-17.79l0 0.01zm40.4 15.1c-0.58,-3.57 -2.1,-6.46 -4.53,-8.64 -2.44,-2.17 -5.31,-3.27 -8.6,-3.27 -3.73,0 -6.88,1.38 -9.45,4.11 -2.57,2.73 -3.85,6.23 -3.85,10.49 0,4.27 1.29,7.76 3.85,10.5 2.55,2.74 5.68,4.11 9.38,4.11 0.86,0 1.72,-0.1 2.57,-0.26 3.17,-0.64 5.76,-2.25 7.81,-4.88 2.06,-2.64 3.06,-5.73 3.06,-9.38 0,-0.86 -0.09,-1.77 -0.26,-2.75l0.02 -0.03zm46.77 -12.24l9.83 -11.85c2.72,-3.27 5.65,-4.88 8.82,-4.88 1.95,0 3.89,0.71 5.78,2.15 1.1,0.8 2,1.83 2.69,3.11 0.92,1.66 1.38,3.4 1.38,5.17 0,2.07 -0.66,3.85 -1.98,5.32l-16.49 17.85 0 19.83c0,2.71 -0.96,5.06 -2.85,7.1 -1.89,2.04 -4.27,3.07 -7.08,3.07 -2.75,0 -5.12,-1 -7.08,-2.97 -1.95,-1.98 -2.93,-4.37 -2.93,-7.2l0 -19.83 -16.47 -17.85c-1.32,-1.44 -2,-3.23 -2,-5.43 0,-0.98 0.1,-1.83 0.26,-2.55 0.16,-0.73 0.58,-1.64 1.2,-2.73 0.64,-1.12 1.49,-2.1 2.59,-2.9 1.95,-1.44 3.91,-2.15 5.86,-2.15 3.12,0 6,1.61 8.72,4.88l9.75 11.85 0 0.01z"/>
   </g>
   <path class="fil1" d="M347.44 274.96l4.33 -16.31c0.28,-0.88 0.59,-1.55 0.98,-2.07 0.71,-0.98 1.67,-1.68 2.89,-2.1 1.22,-0.42 2.32,-0.53 3.31,-0.3 1,0.23 1.8,0.58 2.48,1.05 0.98,0.72 1.67,1.68 2.09,2.88 0.42,1.2 0.5,2.39 0.22,3.55l-4.19 16.42c-0.02,0.19 -0.1,0.52 -0.32,0.93 -0.19,0.42 -0.44,0.82 -0.71,1.2 -0.78,1.05 -1.78,1.83 -2.96,2.28 -1.18,0.44 -2.41,0.49 -3.71,0.09 -0.25,-0.03 -0.58,-0.14 -0.98,-0.34 -0.4,-0.19 -0.78,-0.42 -1.15,-0.67 -1,-0.76 -1.74,-1.72 -2.17,-2.9 -0.44,-1.17 -0.46,-2.41 -0.1,-3.71l-0.01 0z"/>
   <path class="fil1" d="M351.47 86.46l4.32 -16.31c0.28,-0.88 0.6,-1.56 0.98,-2.08 0.72,-0.98 1.68,-1.67 2.9,-2.09 1.22,-0.42 2.31,-0.54 3.31,-0.3 0.99,0.23 1.79,0.58 2.47,1.05 0.98,0.72 1.67,1.68 2.1,2.87 0.42,1.2 0.49,2.4 0.22,3.56l-4.2 16.43c-0.02,0.2 -0.09,0.52 -0.31,0.93 -0.2,0.43 -0.44,0.82 -0.72,1.2 -0.78,1.06 -1.77,1.83 -2.95,2.28 -1.19,0.44 -2.42,0.5 -3.71,0.1 -0.26,-0.04 -0.58,-0.15 -0.98,-0.34 -0.4,-0.2 -0.78,-0.42 -1.16,-0.68 -0.99,-0.76 -1.73,-1.72 -2.17,-2.9 -0.43,-1.17 -0.46,-2.41 -0.1,-3.7l0 -0.02z"/>
   <g>
    <path class="fil0 str0" d="M48.83 367.73l13.62 0c9.68,0 17.43,2.02 23.32,6.05 5.89,4.03 9.76,9.89 11.65,17.61 0.58,2.47 0.86,5.06 0.86,7.76 0,8.85 -3.07,16.19 -9.24,22.02 -6.16,5.82 -14.02,8.71 -23.56,8.71l-16.75 0.01c-2.71,0 -5.04,-0.98 -6.98,-2.93 -1.93,-1.96 -2.93,-4.35 -2.93,-7.17l0 -42.02c0,-2.82 0.96,-5.19 2.89,-7.13 1.94,-1.94 4.32,-2.89 7.13,-2.89l-0.01 -0.02zm29.26 27.97c-0.62,-3.17 -2.34,-5.74 -5.09,-7.72 -2.75,-1.97 -6.18,-2.97 -10.28,-2.97l-3.96 -0.01 0 27.71 4.75 0c4.48,0 8.12,-1.25 10.87,-3.79 2.75,-2.53 4.15,-5.78 4.15,-9.75 0,-0.98 -0.15,-2.14 -0.44,-3.45l0 -0.02zm35.9 -17.68c1.38,-3.45 3.4,-6.14 6.01,-8.03 2.6,-1.9 5.62,-2.85 9.01,-2.85 3.39,0 6.4,0.93 9.02,2.79 2.61,1.85 4.63,4.59 6,8.08l14.84 38.04c0.76,2.07 1.12,3.83 1.12,5.27 0,1.95 -0.52,3.67 -1.56,5.18 -1.03,1.52 -2.53,2.66 -4.48,3.47 -1.32,0.58 -2.69,0.86 -4.13,0.86 -2.08,0 -3.95,-0.62 -5.6,-1.85 -1.65,-1.24 -2.91,-2.97 -3.71,-5.23l-0.96 -2.85 -20.99 -0.01 -1.04 2.85c-0.81,2.17 -2.06,3.91 -3.74,5.16 -1.69,1.25 -3.59,1.89 -5.65,1.89 -1.38,0 -2.73,-0.28 -4.05,-0.86 -4.02,-1.73 -6.04,-4.63 -6.04,-8.65 0,-1.44 0.37,-3.19 1.11,-5.27l14.84 -38.04 0 0.05zm15.02 9.14l-4.66 16.58 9.31 0 -4.66 -16.58 0.01 0zm42.1 -19.43l13.63 0c9.68,0 17.43,2.02 23.32,6.05 5.89,4.03 9.76,9.89 11.65,17.61 0.58,2.47 0.86,5.06 0.86,7.76 0,8.85 -3.07,16.19 -9.24,22.02 -6.16,5.82 -14.02,8.71 -23.56,8.71l-16.75 0.01c-2.72,0 -5.05,-0.98 -6.98,-2.93 -1.94,-1.96 -2.94,-4.35 -2.94,-7.17l0 -42.02c0,-2.82 0.96,-5.19 2.9,-7.13 1.94,-1.94 4.31,-2.89 7.12,-2.89l-0.01 -0.02zm29.27 27.97c-0.62,-3.17 -2.34,-5.74 -5.09,-7.72 -2.75,-1.97 -6.18,-2.97 -10.27,-2.97l-3.97 -0.01 0 27.71 4.75 0c4.48,0 8.12,-1.25 10.87,-3.79 2.75,-2.53 4.15,-5.78 4.15,-9.75 0,-0.98 -0.15,-2.14 -0.44,-3.45l0 -0.02zm34.44 -27.97l13.62 0c9.68,0 17.43,2.02 23.32,6.05 5.89,4.03 9.76,9.89 11.65,17.61 0.58,2.47 0.86,5.06 0.86,7.76 0,8.85 -3.07,16.19 -9.24,22.02 -6.16,5.82 -14.02,8.71 -23.55,8.71l-16.76 0.01c-2.71,0 -5.04,-0.98 -6.98,-2.93 -1.93,-1.96 -2.93,-4.35 -2.93,-7.17l0 -42.02c0,-2.82 0.96,-5.19 2.9,-7.13 1.93,-1.94 4.31,-2.89 7.12,-2.89l-0.01 -0.02zm29.24 27.97c-0.61,-3.17 -2.33,-5.74 -5.08,-7.72 -2.76,-1.97 -6.19,-2.97 -10.28,-2.97l-3.96 -0.01 0 27.71 4.75 0c4.48,0 8.11,-1.25 10.87,-3.79 2.75,-2.53 4.14,-5.78 4.14,-9.75 0,-0.98 -0.14,-2.14 -0.44,-3.45l0 -0.02zm47.04 -11.81l9.83 -11.85c2.71,-3.27 5.64,-4.89 8.81,-4.89 1.95,0 3.89,0.72 5.78,2.16 1.1,0.8 2,1.83 2.69,3.11 0.92,1.66 1.38,3.37 1.38,5.17 0,2.07 -0.65,3.85 -1.97,5.32l-16.5 17.85 0 19.83c0,2.71 -0.95,5.06 -2.85,7.1 -1.89,2.03 -4.26,3.06 -7.07,3.06 -2.76,0 -5.13,-0.99 -7.07,-2.97 -1.94,-1.97 -2.93,-4.36 -2.93,-7.19l0 -19.83 -16.47 -17.85c-1.32,-1.44 -2,-3.24 -2,-5.43 0,-0.98 0.1,-1.83 0.26,-2.56 0.15,-0.72 0.58,-1.63 1.2,-2.72 0.64,-1.12 1.49,-2.1 2.59,-2.9 1.95,-1.44 3.91,-2.16 5.86,-2.16 3.12,0 6,1.62 8.72,4.89l9.75 11.85 -0.01 0.01zm55.32 29.34c1.56,-2.41 3.59,-3.64 6.12,-3.64 0.46,0 0.92,0 1.38,0 0.19,0 0.72,0.12 1.64,0.37l3.79 1.04 3.45 0.87 2.5 0.6 0.96 0.25 1.45 0.26c1.32,0.18 2.38,0.26 3.12,0.26 0.46,0 0.92,-0.04 1.38,-0.15 0.46,-0.1 0.77,-0.14 0.95,-0.22 1.04,-0.34 1.77,-0.7 2.22,-1.07 0.44,-0.38 0.64,-0.84 0.64,-1.44 0,-0.52 -0.28,-0.98 -0.86,-1.38l-0.7 -0.26 -1.64 -0.52 -1.11 -0.34 -4.59 -1.12 -0.86 -0.18 -5.71 -1.63c-1.61,-0.46 -3.05,-0.96 -4.36,-1.46 -1.32,-0.49 -2.5,-1.11 -3.58,-1.81 -2.37,-1.44 -4.17,-3.36 -5.44,-5.73 -1.27,-2.36 -1.92,-4.98 -1.92,-7.81 0,-2.32 0.43,-4.53 1.26,-6.71 0.84,-2.17 2.16,-4.2 3.93,-6.16 1.77,-1.95 4.15,-3.65 7.13,-5.05 2.97,-1.39 6.3,-2.33 9.97,-2.81 1.55,-0.18 3.07,-0.25 4.57,-0.25 3.17,0 6.3,0.46 9.41,1.38 3.12,0.92 5.45,1.97 6.98,3.12 1.56,1.2 2.62,2.7 3.19,4.54 0.18,0.52 0.28,1.13 0.34,1.85 0.06,0.72 0.08,1.12 0.08,1.15 0,1.77 -0.46,3.31 -1.37,4.57 -1.68,2.41 -3.92,3.64 -6.73,3.64 -1.61,0 -3.39,-0.28 -5.34,-0.86l-0.71 -0.26 -2.49 -0.78 -1.04 -0.25 -2.41 -0.6 -1.22 -0.26 -0.87 -0.18 -1.12 -0.09c-1.55,0 -2.61,0.21 -3.19,0.7 -0.57,0.48 -0.87,0.95 -0.87,1.45 0,0.34 0.18,0.66 0.52,0.96l1.38 0.59 1.64 0.44 0.59 0.18 1.72 0.44 2.85 0.68 5.71 1.55c2.81,0.82 5.32,1.76 7.5,2.85 3.05,1.55 5.4,3.69 7.08,6.42 1.67,2.74 2.49,5.69 2.49,8.84 0,2.25 -0.38,4.39 -1.11,6.42 -0.74,2.04 -2,4.07 -3.71,6.09 -2.66,3.11 -6.05,5.32 -10.2,6.68 -4.14,1.35 -9.29,2.03 -15.44,2.03 -3.45,0 -6.42,-0.34 -8.89,-0.99 -2.47,-0.66 -4.59,-1.52 -6.3,-2.56 -2.17,-1.27 -3.67,-2.57 -4.49,-3.93 -0.81,-1.35 -1.21,-3.03 -1.21,-5.04 0,-1.67 0.5,-3.25 1.48,-4.75l0.06 0.07zm78.28 -35.22c0,-2.87 0.99,-5.31 2.97,-7.3 1.97,-1.99 4.38,-2.97 7.2,-2.97l14.32 -0.01 3.79 0.26c5.65,0.76 10.11,2.81 13.43,6.23 3.31,3.41 4.97,7.41 4.97,12.08 0,0.52 0,0.92 0,1.21 -0.07,0.34 -0.1,0.6 -0.1,0.78 -0.34,3.33 -1.4,6.18 -3.19,8.53l0.18 0.18 1.21 0.78 1.2 0.78 0.52 0.43c3.67,3 5.53,7.02 5.53,12.09 0,1.89 -0.3,3.79 -0.9,5.65 -0.6,1.85 -1.45,3.55 -2.59,5 -1.12,1.46 -2.2,2.65 -3.24,3.59 -1.89,1.55 -3.92,2.69 -6.08,3.45 -2.16,0.76 -4.73,1.12 -7.72,1.12l-21.49 0.01c-2.93,0 -5.35,-0.99 -7.2,-2.97 -1.86,-1.97 -2.81,-4.64 -2.81,-7.97l0 -40.92 0 -0.03zm26.94 11.39c0.58,-0.4 0.86,-1 0.86,-1.8 0,-0.76 -0.34,-1.39 -1,-1.93 -0.65,-0.55 -1.45,-0.82 -2.37,-0.82l-4.39 -0.01 0 5.53 4.58 0c0.8,0 1.58,-0.3 2.34,-0.96l-0.02 -0.01zm5.27 20.56c0,-0.88 -0.26,-1.6 -0.78,-2.16 -0.52,-0.56 -1.2,-0.87 -2,-0.87l-9.41 0 0 5.78 9.41 0c0.68,0 1.32,-0.25 1.9,-0.77 0.57,-0.52 0.87,-1.18 0.87,-1.98l0.01 0zm28.48 -28.92c3.05,-4.37 6.98,-7.82 11.83,-10.35 4.84,-2.54 9.99,-3.81 15.44,-3.81 5.52,0 10.67,1.24 15.46,3.71 4.78,2.47 8.71,5.94 11.83,10.43 3.85,5.47 5.78,11.41 5.78,17.79 0,6.39 -1.94,12.31 -5.78,17.77 -3.06,4.49 -6.98,7.98 -11.79,10.45 -4.81,2.47 -9.96,3.71 -15.5,3.71 -5.55,0 -10.68,-1.24 -15.44,-3.71 -4.79,-2.47 -8.74,-5.96 -11.83,-10.45 -3.85,-5.52 -5.78,-11.45 -5.78,-17.77 0,-6.31 1.93,-12.25 5.78,-17.79l0 0.02zm40.39 15.1c-0.58,-3.58 -2.09,-6.46 -4.53,-8.64 -2.43,-2.18 -5.31,-3.27 -8.59,-3.27 -3.74,0 -6.89,1.38 -9.46,4.11 -2.57,2.72 -3.85,6.22 -3.85,10.49 0,4.27 1.3,7.76 3.85,10.49 2.56,2.74 5.69,4.11 9.38,4.11 0.86,0 1.72,-0.1 2.57,-0.26 3.18,-0.64 5.77,-2.25 7.82,-4.88 2.05,-2.63 3.05,-5.72 3.05,-9.38 0,-0.86 -0.08,-1.77 -0.25,-2.75l0.01 -0.02zm46.77 -12.25l9.83 -11.85c2.71,-3.27 5.65,-4.89 8.81,-4.89 1.96,0 3.89,0.72 5.79,2.16 1.1,0.8 1.99,1.83 2.69,3.11 0.92,1.66 1.38,3.37 1.38,5.17 0,2.07 -0.66,3.85 -1.98,5.32l-16.49 17.85 0 19.83c0,2.71 -0.96,5.06 -2.85,7.1 -1.9,2.03 -4.27,3.06 -7.08,3.06 -2.75,0 -5.13,-0.99 -7.08,-2.97 -1.95,-1.97 -2.93,-4.36 -2.93,-7.19l0 -19.83 -16.47 -17.85c-1.32,-1.44 -2,-3.24 -2,-5.43 0,-0.98 0.1,-1.83 0.25,-2.56 0.16,-0.72 0.58,-1.63 1.2,-2.72 0.64,-1.12 1.5,-2.1 2.6,-2.9 1.95,-1.44 3.91,-2.16 5.86,-2.16 3.11,0 6,1.62 8.72,4.89l9.75 11.85 0 0.01z"/>
   </g>
   <path class="fil1" d="M349.81 192.21l4.33 -16.31c0.27,-0.88 0.59,-1.55 0.98,-2.07 0.71,-0.98 1.67,-1.68 2.89,-2.1 1.22,-0.42 2.31,-0.54 3.31,-0.3 0.99,0.23 1.79,0.58 2.47,1.05 0.98,0.72 1.68,1.68 2.1,2.88 0.42,1.19 0.5,2.39 0.22,3.55l-4.19 16.43c-0.03,0.2 -0.1,0.52 -0.32,0.94 -0.2,0.42 -0.44,0.81 -0.72,1.19 -0.77,1.06 -1.77,1.84 -2.95,2.28 -1.19,0.45 -2.41,0.5 -3.71,0.1 -0.26,-0.04 -0.58,-0.14 -0.98,-0.34 -0.4,-0.2 -0.78,-0.42 -1.15,-0.68 -1,-0.76 -1.74,-1.72 -2.18,-2.89 -0.43,-1.18 -0.46,-2.42 -0.09,-3.71l-0.01 -0.02z"/>
   <path class="fil1" d="M347.78 373.74l4.33 -16.31c0.28,-0.88 0.59,-1.56 0.98,-2.08 0.71,-0.98 1.67,-1.67 2.87,-2.09 1.2,-0.42 2.31,-0.54 3.31,-0.3 0.99,0.23 1.79,0.58 2.47,1.05 0.98,0.72 1.68,1.68 2.1,2.87 0.42,1.2 0.5,2.4 0.22,3.55l-4.2 16.42c-0.02,0.2 -0.09,0.52 -0.31,0.94 -0.2,0.42 -0.44,0.81 -0.72,1.2 -0.77,1.05 -1.77,1.83 -2.95,2.27 -1.19,0.45 -2.42,0.5 -3.71,0.1 -0.26,-0.04 -0.58,-0.14 -0.98,-0.34 -0.4,-0.19 -0.78,-0.42 -1.16,-0.68 -0.99,-0.76 -1.73,-1.71 -2.17,-2.89 -0.43,-1.18 -0.46,-2.41 -0.09,-3.71l0.01 0z"/>
   <path class="fil1" d="M347.94 476.8l4.33 -16.31c0.27,-0.88 0.59,-1.56 0.98,-2.08 0.71,-0.98 1.67,-1.67 2.89,-2.09 1.22,-0.42 2.29,-0.54 3.31,-0.3 1.02,0.23 1.79,0.58 2.47,1.05 0.98,0.72 1.68,1.68 2.1,2.87 0.42,1.2 0.5,2.4 0.22,3.55l-4.19 16.42c-0.03,0.2 -0.1,0.52 -0.32,0.94 -0.2,0.42 -0.44,0.81 -0.72,1.2 -0.77,1.05 -1.75,1.83 -2.93,2.27 -1.18,0.45 -2.41,0.5 -3.71,0.1 -0.25,-0.04 -0.58,-0.14 -0.98,-0.34 -0.4,-0.19 -0.77,-0.42 -1.15,-0.68 -1,-0.76 -1.74,-1.71 -2.17,-2.89 -0.44,-1.18 -0.46,-2.41 -0.1,-3.71l-0.03 0z"/>
  </g>
 </g>
</svg>
