<?xml version="1.0" encoding="UTF-8"?>
<!DOCTYPE svg PUBLIC "-//W3C//DTD SVG 1.1//EN" "http://www.w3.org/Graphics/SVG/1.1/DTD/svg11.dtd">
<!-- Creator: CorelDRAW 2017 -->
<svg xmlns="http://www.w3.org/2000/svg" xml:space="preserve" width="8.3818mm" height="9.0592mm" version="1.1" style="shape-rendering:geometricPrecision; text-rendering:geometricPrecision; image-rendering:optimizeQuality; fill-rule:evenodd; clip-rule:evenodd"
viewBox="0 0 838.18 905.92"
 xmlns:xlink="http://www.w3.org/1999/xlink">
 <defs>
  <style type="text/css">
   <![CDATA[
    .fil0 {fill:none}
    .fil3 {fill:#050402}
    .fil5 {fill:#312D2C}
    .fil6 {fill:#663F18}
    .fil1 {fill:#8B6642}
    .fil7 {fill:#BA8956}
    .fil2 {fill:#CFB088}
    .fil4 {fill:#EAD7B1}
   ]]>
  </style>
 </defs>
 <g id="Capa_x0020_1">
  <metadata id="CorelCorpID_0Corel-Layer"/>
  <rect class="fil0" x="-0" y="-0" width="838.19" height="905.93"/>
  <g id="_1978052307536">
   <path class="fil1" d="M287.36 464.58c-5.47,10.49 13.06,28.65 18.38,28.44 5.71,-2.61 21.07,-19.75 15.93,-30.04 -11.92,3.94 -1.88,21.5 -18.38,22.67 -10.38,-6.59 -5.09,-18.91 -15.93,-21.07z"/>
   <path class="fil1" d="M511.61 549.88c2.57,-1.23 2.91,-1.55 4.87,-3.05 -2.67,-4.96 -6.38,-5.04 -9,-8.32 -4.03,-5.04 0.23,-7.1 -7.25,-10.77 -2.07,10.99 4.73,20.23 11.38,22.14z"/>
   <path class="fil1" d="M304.67 384.96c-6.35,0.42 -8.76,4.17 -9.91,10.9 12.61,-2.11 9.56,-5.89 19.61,-8.43 2.07,-2.92 0.96,-0.03 1.84,-5.58l-11.54 3.11z"/>
   <path class="fil1" d="M524.86 526.15c3.83,-2.07 5.53,-4.71 7.56,-10.13 1.8,-4.83 1.64,-10.24 0.36,-14.87 -3.24,1.81 -4.6,2.47 -6.39,10.12 -1.09,4.69 -1.28,9.96 -1.53,14.88z"/>
   <path class="fil1" d="M328.84 407.36c2.45,3.69 1.99,3.91 7.65,5.01 -0.74,-5.87 -1.24,-11.12 -3.44,-14.68 -1.31,0.06 -2.22,0.04 -3.42,0.3 -1.95,0.42 -1.86,0.8 -3.03,1.29l2.24 8.08z"/>
   <path class="fil1" d="M300.16 639.14l5.79 0.5c1.14,-6.4 1.77,-5.79 6.64,-9.5l-1.48 -3.76c-7.54,2.47 -8.66,5.04 -10.95,12.76z"/>
   <path class="fil1" d="M299.19 607.82c-4.44,4.25 -4.52,0.58 -5.31,8.46l9.34 -4.26 1.44 -5.19 -5.47 0.99z"/>
   <path class="fil1" d="M300.79 453.76l8.22 -0.49 1.84 -6.99c-7.54,1.39 -8.26,1.13 -10.06,7.48z"/>
   <path class="fil2" d="M268.99 580.38c-3.26,-0.34 -2.84,-0.06 -5.18,1.77 21.51,2.21 18.59,12.32 35.51,19.58l-0.13 6.09 5.47 -0.99 -1.44 5.19c3.18,0.54 8.4,0.35 10.59,0.93 4.41,1.17 2.09,1.69 5.11,4.98 5.64,6.13 36.8,17.51 45.52,20.41 20.16,6.71 13.16,29.58 5.77,36.39 -1.04,0.96 -1.67,1.27 -2.58,2.29 -4.2,4.72 -0.97,7.26 -23.1,7.15l-5.25 -8.98c-9.98,1.8 -7.61,7.45 -19.82,2.43 -6.14,-2.53 -10.82,-4.94 -17.52,-7.18 4.69,18.04 11.44,15.86 19.89,25.37 3.12,3.51 5.59,9 12.18,7.84 14.4,-2.52 39.03,-9.07 46.42,-22.35 11.48,-20.63 3.89,-26.7 5.48,-37.55 11.65,7.82 3.65,32.67 1.07,42.74 24.02,-6.84 15.65,-32.53 23.98,-39.25 2.39,16.21 -4.34,21.58 -4.38,35.31 6.5,-0.4 24.15,-8.12 30.41,-10.95 15.72,-7.09 10.44,-11.1 17.08,-25.4 3.7,-0.24 7.21,0.25 10.33,-1.35 3.41,-12.54 -12.16,-4.03 -42.21,-6.58 -22.05,-1.88 -10.47,5.69 -20.74,-1.01 -6.32,-4.12 -12.9,-6.33 -21.41,-7.15 -8.38,-0.4 0.48,-5.44 -10.79,-9.54 -14.39,-5.24 -24.96,-4.07 -47.15,-15.4 -29.91,-15.28 -41.27,-35.86 -48.84,-23.68 -8.03,1.21 -1.8,0.69 -4.27,-1.11z"/>
   <path class="fil2" d="M639.4 725.64c3.94,-1.51 3.56,-1.4 6.85,-4.14 6.61,-5.53 5.13,-8.6 5.97,-24.23 0.91,-17.04 -1.55,-9.81 -2.8,-16.24 -0.97,-5.07 2.47,-11.11 3.06,-16.69 -14.01,-0.09 -30.91,11.1 -43.33,7.62l-3.31 -12.58 -36.44 0.22c1.83,-5.5 5.71,-6.39 8.44,-11.82 -9.52,2.28 -19.26,5.57 -21.6,14.42 16,4.71 25.31,1.01 42.06,1.14l1.83 14.15c13.04,3.41 31,-4.72 43.74,-6.43 -1.98,6.47 -4.66,6.1 -5.99,13.92l10.66 5.76c-1.86,8.97 -5.22,9.72 -6.66,15.63 -2.25,9.25 2.46,-0.34 -2.48,19.27z"/>
   <path class="fil2" d="M277.06 660.78c3.28,9.72 13.9,19.57 24.35,22.11 -4.66,-16.49 -6.53,-13.09 -5.53,-33.29 -4.15,5.91 -2.64,5.55 -5.01,10.61 -0.14,0.3 -0.39,0.72 -0.51,0.96 -0.13,0.25 -0.32,0.67 -0.55,0.97 -7.33,0.4 -6.54,0.69 -12.75,-1.36z"/>
   <path class="fil2" d="M656.39 735.63c-7.72,1.92 -10.36,6.7 -20.08,5.96l3.35 -15.03c-7.64,3.02 -7.71,11.76 -6.64,19.46 9.96,1.23 20.26,-0.04 23.37,-10.39z"/>
   <path class="fil3" d="M287.36 464.58c10.84,2.16 5.55,14.48 15.93,21.07 16.5,-1.17 6.46,-18.73 18.38,-22.67 5.14,10.29 -10.22,27.43 -15.93,30.04 -5.32,0.21 -23.85,-17.95 -18.38,-28.44zm13.43 -10.82c1.8,-6.35 2.52,-6.09 10.06,-7.48l-1.84 6.99 -8.22 0.49zm-29 -1.77c-0.55,-10.16 4.04,-17.4 10.67,-20.43 3.75,5.76 3.85,8.33 3.28,15.9 -3.76,3.6 -7.49,5.03 -13.95,4.53zm50.44 -1.43c-1.95,-11.14 1.94,-15.46 11.36,-17.6 -0.65,7.3 -1.32,12.05 -4.12,17.23l-7.24 0.37zm-25 -11.79c-8.49,-21.7 -0.71,-23.91 4.99,-30.73l13.06 4.87c-0.21,16.67 -2.04,22.7 -18.05,25.86zm7.44 -53.81c8.9,-13.98 25.57,4.36 28.38,12.73 2.2,3.56 2.7,8.81 3.44,14.68 -5.66,-1.1 -5.2,-1.32 -7.65,-5.01l-3.26 -2.76c-1.04,-8.07 0.79,-9.42 -2.91,-17.19l-8.3 0.02c-10.05,2.54 -7,6.32 -19.61,8.43 1.15,-6.73 3.56,-10.48 9.91,-10.9zm-23.86 111.18c-0.74,-8.28 -1.47,-9.01 -4.61,-15.47 -1.96,-4.02 -6.21,-11.24 -3.54,-15.7 4.13,3.77 6.97,13.64 9.98,19.01 3.83,6.83 8.11,13.36 13.54,17.08 16.3,11.16 27.98,-10.93 33.41,-22.38 41.12,-86.64 -4.14,-121.39 -32.29,-103.32 -10.3,6.62 -20.45,20.38 -26.81,34.39 -11.64,25.65 -16.73,46.54 -5.75,72.51 3.77,8.92 3.95,15.97 16.07,13.88z"/>
   <path class="fil3" d="M507.48 538.51c2.62,3.28 6.33,3.36 9,8.32 -1.96,1.5 -2.3,1.82 -4.87,3.05 -6.65,-1.91 -13.45,-11.15 -11.38,-22.14 7.48,3.67 3.22,5.73 7.25,10.77zm17.38 -12.36c0.25,-4.92 0.44,-10.19 1.53,-14.88 1.79,-7.65 3.15,-8.31 6.39,-10.12 1.28,4.63 1.44,10.04 -0.36,14.87 -2.03,5.42 -3.73,8.06 -7.56,10.13zm-18.43 -21.24c-0.56,-11.82 3.33,-19.97 12.34,-22.92 1.83,13.19 -1.21,20.21 -12.34,22.92zm-4.11 -37.26c-0.08,-9.25 8.55,-15.75 18.16,-16.75 -1.72,5.12 -4.21,7.81 -7.11,11.8 -3.39,4.64 -3.11,5.28 -11.05,4.95zm-15.05 88.07c1.52,-15 -3.93,-22.02 -5.07,-36.04 -0.82,-10.18 2.35,-28.19 8.24,-33.94 7.93,16.08 -8.65,22.74 -1.74,48.28 3.28,12.1 15.27,33.69 30.88,24.27 14.5,-8.76 33.46,-62.75 27.3,-88.57 -4.38,-18.37 -29.2,-55.49 -60.23,-1.92 -12.92,22.3 -19,44.25 -13.02,70.35 2.17,9.48 4.54,16.18 13.64,17.57z"/>
   <path class="fil3" d="M493.23 898.02c1.95,-4.77 1.16,-1.99 1.78,-6.63 -5.14,0.09 -2.04,-0.39 -3.9,1.68l0.1 9.93c-35.56,4.09 -107.04,-25.61 -110.5,-25.31 -8.25,0.7 -15.84,16.08 -22.28,22.82 -23.57,3.42 -52.67,-25.22 -72.28,-25.23 -21.08,-0.01 -51.17,21.59 -71.19,25.05 -8.93,-32.55 -8.89,-38.03 -56.33,-47.52l1.28 6.03c-7.9,-1.12 -2.62,0.85 -7.63,-3.43 -5.71,-4.88 -7.1,-3.71 -15.25,-6.5 -4.18,-1.43 -7.36,-2.86 -11.38,-4.58 -4.81,-2.06 -6.36,-4.1 -9.84,-3.95 17.96,10.79 33.56,11.87 37.98,18.46 -10.03,0.84 -23.57,5.44 -31.7,8.73 -8.14,3.3 -20.74,9.48 -20.99,20.66 12.92,1.07 19.82,0.93 34.38,-1.15 11.3,-1.62 22.93,-3.75 35.47,-3.75l3.67 13.47c7.41,-0.62 24.85,-7.88 33.09,-9.79 0.49,5.88 3.56,11.37 4.9,17.14 11.05,-0.25 30.01,-11.87 40.87,-15.5 9.29,-3.1 13.63,-4.85 19.73,2.7 5.38,6.67 9.21,10.82 17.36,7.51 16.3,-6.63 3.87,-15.92 39.33,-1.71 6.35,2.55 13.9,5.8 20.75,7.57 5.24,1.35 6.62,0.83 9.72,-2.29l7.87 -6.85c28.91,13.86 32.66,16.3 41.66,-2.45 19.4,0 47.44,14.69 83.33,14.69 1.17,-5.05 2.32,-3.8 0,-9.8z"/>
   <path class="fil3" d="M243.25 173.19c-2.53,0.04 0.1,-0.05 1.15,1.16l6.7 8.2c27.35,31.08 40.71,83.2 50.97,92.3l51.1 -22.6c8.13,-4.08 5.93,-10.14 13.82,-10.96 2.06,8.62 -1.9,9.57 1.24,16.39 10.07,3.55 21.68,-13.87 36.41,-17.84 -1.45,9.13 -4.07,19.51 6.01,21.54 14.39,2.9 48.69,-24.92 64.35,-25.9 -0.21,16.34 -14.84,32.93 -8.21,40.57 1.73,1.99 -3.7,2.39 10.13,0.48 3.78,-0.52 8.21,-1.05 12.35,-1.24l3.07 7.03c19.95,-0.73 31.87,-9.27 49.57,-9.94 -0.45,18.75 -8.68,21.3 -11.24,36 11.36,3.28 27.26,-1.43 40.05,-0.79 -1.14,11.84 -9.04,14.6 -10.9,28.39l14.03 5c0.3,0.13 0.86,0.88 1.08,0.57 0.23,-0.32 0.76,0.36 1.09,0.61 -2.59,7.41 -4.67,4.64 -7.95,9.98 -2.27,3.71 -0.5,6.36 2.36,8.67 10.64,-1.55 21.21,-22.1 27.2,-31.72l52.75 -67.44c5.23,-5.21 10.49,-8.05 15.68,-13.78 2.51,-2.78 0.68,-0.97 3.92,-3.39 2.51,-1.89 1.86,-1.61 3.97,-3.41l26.17 -19.19c5.69,-3.82 11.79,-7.57 18.09,-11.35 6.35,-3.8 11.93,-6.5 18.79,-10.65 16.91,-10.25 57.58,-29.37 78.07,-40.78 6.81,-3.79 15.98,-9.12 21.26,-6.72 -0.6,6.9 -0.98,13.61 -2.93,19.95 -2.02,6.58 -3.03,11.42 -4,18 -2.18,-2.02 -3.84,3.01 -2.66,-3.77l0.41 2.67c3.01,2 0.29,9.88 -0.41,13.18 -3.27,15.52 -4.05,22.28 -9.52,38.37 -11.08,32.63 -33.42,71.01 -54.72,97.32l-10.41 12.9c-4.98,6.84 -20.87,22.07 -26.23,26.53 -26.33,21.89 -68.16,44.83 -102.18,52.47 -30.82,6.92 -29.9,2.26 -33.61,29.64 -1.22,-1.34 -3.14,2.57 -2.18,-3.62l-0.91 11.19c0.2,0.21 0.34,0.36 0.37,0.77 0.11,1.44 1.06,0.73 0.45,6.03 -1.78,15.5 -8.48,36.41 -13.39,50.71 -11.09,32.31 -25.75,70.46 -53.83,90.96 -6.59,4.81 -15.71,8.84 -25,11.93l-24.81 7.13c-3.2,1.88 -1.89,-0.4 -0.83,1.66 12.07,-2.64 30.33,-8.14 40.06,-13.01 34.1,-17.08 53.18,-61.23 64.88,-95.57 4.73,-13.89 8.9,-25.15 11.99,-40.67 1.68,-8.41 6.21,-40.67 8.25,-45.63 2.17,-5.25 9.51,-5.37 19.17,-7.78 24.43,-6.1 36.95,-8.09 59.91,-20.95 17.93,-10.05 57.87,-35.16 69.01,-49.82 8.64,-11.37 16.73,-18.64 30.11,-37.24 18.03,-25.06 37.41,-57.53 46.13,-87.37 1.94,-6.65 4.21,-13.59 5.77,-21.17 3.8,-18.5 12.34,-53.03 12.34,-68.48 -10.39,0.23 -80.92,39.8 -100.09,49.37 -15.88,7.93 -41.7,25.06 -55.37,35.28 -24.39,18.24 -41.24,36.13 -60.49,59.54 -14.64,17.79 -24.35,34.3 -36.07,53.34 -12.25,19.87 -23.99,12.06 -12.66,3.29 3.58,-2.77 4.41,-4.01 4.9,-9.82 -3.5,-0.81 -4.32,-0.7 -8.4,-1.4 -4.23,-0.73 -3.51,-1.34 -7.53,-2.27 0,-20.54 29.84,-34.04 -8.22,-29.02 -6.28,0.82 -13.12,0.86 -21.19,0.86 1.09,-13.12 11.03,-16.96 11.03,-36.73 -20.52,0 -30.19,9.79 -50.24,9.79 -0.85,-3.17 -2.14,-4.44 -3.68,-7.35 -7.34,0 -14.72,2.45 -22.06,2.45 0,-17.93 3.33,-17.11 7.25,-29.5 1.33,-4.21 4.22,-11.94 0.22,-12.83 -10.03,-2.23 -50.08,30.51 -65.4,25.59 -4.36,-1.39 -5.32,-3.78 -5.03,-8.41 0.37,-5.82 1.69,-6.72 1.69,-12.8 -13.61,1.13 -34.33,27.33 -37.67,15.8 -1.15,-3.96 3.05,-6.24 -1.54,-15.8 -8.91,4.71 -6.74,7.65 -12.73,11.77l-52.21 23.73c-11.62,-21.93 -12.34,-24.96 -22.04,-46.54 -1.22,-2.71 -1.79,-4.77 -3.26,-7.77l-7.07 -12.52c-2.57,-4.27 -5.44,-8.88 -8.23,-12.59 -2.43,-3.22 -14.04,-20.87 -18.22,-20.98z"/>
   <path class="fil3" d="M386.8 572.16c-1.8,-3.96 -2.96,-5.82 -5.14,-9.54 -0.93,-1.57 -1.76,-3.43 -2.54,-4.77 -3.05,-5.18 0.8,-1.75 -3.67,-4.01 -6.13,-4.08 -26.03,1.28 -34.48,1.89 -1.15,-5.42 -6.42,-30.01 -8.34,-33.18 -9.8,1.19 -8.23,6.65 -6.65,16.01 1.03,6.11 2.97,14.11 4.87,19.68 5.6,16.39 16.47,2.1 38.61,5.5 3.67,5.79 8.15,17.41 14.67,18.66 16.03,3.09 13.6,-2.34 23.05,9.79 7.39,9.5 9.94,8.69 22.49,3.56 4.19,-1.71 20.85,-8.9 14.87,-15.16 -4.16,-4.36 -14.08,5.09 -29.04,8.04 -5.48,-14.3 -10.29,-15.65 -28.7,-16.47z"/>
   <path class="fil3" d="M217.69 399.7l-0.58 3 14.98 -66.41c0.63,-4.61 0.23,-3.2 -2.15,-5.18 -17.65,-14.68 -86.7,-52.84 -103.66,-67.88l-10.26 -10.71c-22.49,-28.12 -30.32,-40.98 -47.5,-73.98 -20.94,-40.25 -61.77,-139.23 -65.99,-178.63 11.83,1.66 23.6,12.46 36.26,21.2 2.12,1.46 4.15,2.97 6.43,4.58l69.16 44.77c15.97,9.84 26.26,18.1 40.19,27.19l30.24 22.44c1.44,1.21 0.34,0.37 1.98,1.69l4.19 3.17c0.19,0.16 0.45,0.41 0.64,0.57 0.44,0.37 1.03,1.01 1.95,1.73l12.27 9.81c2.85,2.89 8.69,9.55 12.9,9.21l-76.86 -59.13c-16.26,-12.2 -61.36,-39.48 -83.91,-54.5 -9.41,-6.27 -17.64,-12.15 -26.97,-18.36 -8.07,-5.36 -18.45,-15.9 -30.38,-16.17 0.16,7.32 4.31,21.35 6.27,28.02 2.58,8.79 5.4,18.67 8.27,27.24 5.98,17.86 12.33,34.5 19.25,51.78 3.61,9.02 6.97,16.7 10.32,25.19 3.17,8.02 6.75,16.89 10.61,24.91 14.42,30.01 31.43,63.01 52.27,88.58 17.67,21.68 15.96,19.3 37.11,33.94l43.62 27.42c7.4,4.67 14.79,9.02 21.83,13.69l20.82 14.71 -10.28 48.49c-1.1,4.78 -3.18,13.12 -3.02,17.62z"/>
   <path class="fil3" d="M491.9 878.44l3.16 12.97c15.67,4.3 22.14,9.43 41.81,6.07 0.19,-7.65 0.36,-12.26 -4.15,-16.6 -5.73,-2.73 -32.91,-2.96 -40.82,-2.44z"/>
   <path class="fil3" d="M250.38 795.18c5.55,-2.71 7.6,0.74 14.69,-0.41 -0.97,-6.7 -13.14,-8.96 -20.38,-3.27 -1.17,10.25 8.1,14.73 18.16,12.19 -4.81,-5.98 -9,-0.87 -12.47,-8.51z"/>
   <path class="fil3" d="M598.61 560.1c0,5.06 10.07,13.72 19.61,7.34 -1.74,-7.44 -19.61,-15.16 -19.61,-7.34z"/>
   <path class="fil3" d="M599.83 527.04c0.53,6.31 2.34,6.12 7.36,6.12 6.52,0 11.93,-1.11 14.7,-4.9 -5.98,-8.92 -14.6,-2.96 -22.06,-1.22z"/>
   <path class="fil3" d="M466 673.96l-15.38 14.98c-7.04,-4.81 -7.38,-5.11 -11.31,-12.53 19,-12.71 10.77,-15.97 20.39,-20.02 3.19,-1.35 7.91,-2.94 11.47,-3.24 0,-7.4 -1.23,-8.76 -1.23,-15.55 -2.39,2.66 -0.66,9.43 -0.66,13.1 -4.05,2.97 -5.29,2.27 -10.42,4.94 -5.26,2.76 -3.57,2.08 -7.43,7.1 -7.08,9.21 -6.98,6.71 -10.99,11.36 -1.1,1.28 -0.53,1.21 -2.36,2.55 2.39,4.51 1.8,4.65 5.22,8.07 1.8,1.8 4.2,4.65 7.99,5.45l11.81 -10.81c3.21,-2.76 2.68,-1.4 2.9,-5.4z"/>
   <path class="fil3" d="M581.45 582.14c0,7.22 2.81,16.49 9.81,18.36 3.42,-14.69 -1.08,-9.86 -3.68,-19.59 -2.33,0.2 -4.29,0.51 -6.13,1.23z"/>
   <path class="fil3" d="M244.46 599.28l0.22 -0.01c-2.35,-4.25 -0.8,-0.94 -2.73,-3.58 -2.79,-3.81 -1.11,1.5 -2.37,-6.2l15.34 -7.08 0.58 -0.28c-3.41,-1.85 -4.69,0.83 -10.61,4.1 -3.56,1.96 -4.74,2.45 -7.77,4.48l7.34 8.57z"/>
   <path class="fil3" d="M257.95 579.35l5.87 -1.92c-0.87,-1.38 -1.72,-3.52 -2.12,-4.03 -2.51,-3.17 0.4,-1.88 -3.75,-1.6 2.85,2.71 2.54,1.19 3.68,5.44 -3.4,0.81 -1.66,-0.13 -3.68,2.11z"/>
   <path class="fil4" d="M578.62 646.35l-0.78 1.43c-2.73,5.43 -6.61,6.32 -8.44,11.82l36.44 -0.22 3.31 12.58c12.42,3.48 29.32,-7.71 43.33,-7.62 -0.59,5.58 -4.03,11.62 -3.06,16.69 1.25,6.43 3.71,-0.8 2.8,16.24 -0.84,15.63 0.64,18.7 -5.97,24.23 -3.29,2.74 -2.91,2.63 -6.85,4.14l0.26 0.92 -3.35 15.03c9.72,0.74 12.36,-4.04 20.08,-5.96l8 -3.14 0.28 17.19 12.66 -1.55c0.31,5.94 -0.09,11.87 4.31,13.45 13.76,-37.55 15.37,-37.38 23.57,-80.22 4.23,-22.09 1.96,-73.42 -10.08,-89.03 -1.77,5.09 -0.47,15.03 -3.39,18.72 -4.75,-4.43 -1.57,-4.27 -4.9,-8.83 -30.77,27.39 -24.42,30.5 -75.22,38.2 -11.03,1.67 -23.07,4.63 -33,5.93z"/>
   <path class="fil4" d="M300.16 639.14c2.29,-7.72 3.41,-10.29 10.95,-12.76l1.48 3.76c-4.87,3.71 -5.5,3.1 -6.64,9.5l-5.79 -0.5zm-23.1 21.64c6.21,2.05 5.42,1.76 12.75,1.36 0.23,-0.3 0.42,-0.72 0.55,-0.97 0.12,-0.24 0.37,-0.66 0.51,-0.96 2.37,-5.06 0.86,-4.7 5.01,-10.61l3.86 2.12c0.27,5.41 -2.12,15.88 2.2,18.72 6.7,2.24 11.38,4.65 17.52,7.18 12.21,5.02 9.84,-0.63 19.82,-2.43l5.25 8.98c22.13,0.11 18.9,-2.43 23.1,-7.15 0.91,-1.02 1.54,-1.33 2.58,-2.29 7.39,-6.81 14.39,-29.68 -5.77,-36.39 -8.72,-2.9 -39.88,-14.28 -45.52,-20.41 -3.02,-3.29 -0.7,-3.81 -5.11,-4.98 -2.19,-0.58 -7.41,-0.39 -10.59,-0.93l-9.34 4.26c0.79,-7.88 0.87,-4.21 5.31,-8.46l0.13 -6.09c-16.92,-7.26 -14,-17.37 -35.51,-19.58 -13.49,2 -10.01,5.41 -14.96,15.29 -3.69,7.36 -9.46,8.8 -10.18,20.4 9.29,9.64 2.32,-0.24 12.77,17.38 3.87,6.55 8.8,14.34 15.09,16.3 6.57,-7.3 3.59,-21.6 16.28,-26.28 -3.21,15.06 -5.32,9 -7.74,16.87 -1.9,6.16 0.26,13.26 1.99,18.67z"/>
   <path class="fil5" d="M491.9 878.44c7.91,-0.52 35.09,-0.29 40.82,2.44 4.51,4.34 4.34,8.95 4.15,16.6 -19.67,3.36 -26.14,-1.77 -41.81,-6.07l-3.16 -12.97zm189.74 -116.86c-2.95,9.76 -2.46,4.7 -6.26,9.98 -1.53,2.12 0.04,-0.45 -1.66,3.2 -14.07,30.4 -42.98,51.81 -74.24,62.72 -26.18,9.14 -40.78,8.9 -65.69,-0.88 -42.57,-16.72 -28.33,-26.8 -45.7,-72.9 -2.5,-6.62 -7.49,-23.22 -10.81,-28.46 -5.49,-8.68 -9.63,-16.34 -14.63,-24.54 -2.42,-3.95 -5.11,-8.48 -7.05,-12.66 -2.57,-5.54 0.56,-8.51 3.93,-12.45 27.36,-32.03 68.08,-32.18 119.09,-39.24 9.93,-1.3 21.97,-4.26 33,-5.93 50.8,-7.7 44.45,-10.81 75.22,-38.2 3.33,4.56 0.15,4.4 4.9,8.83 2.92,-3.69 1.62,-13.63 3.39,-18.72 12.04,15.61 14.31,66.94 10.08,89.03 -8.2,42.84 -9.81,42.67 -23.57,80.22zm-423.69 -189.78c4.15,-0.28 1.24,-1.57 3.75,1.6 0.4,0.51 1.25,2.65 2.12,4.03l-5.87 1.92c-4.33,0.74 -1.45,-0.5 -2.45,2.78l-0.58 0.28 -15.34 7.08c1.26,7.7 -0.42,2.39 2.37,6.2 1.93,2.64 0.38,-0.67 2.73,3.58l-0.22 0.01c-3.34,1.36 -3.58,0.66 -7.18,6.31 -6.41,10.08 -6.71,23.14 3.52,25.52 0,8.83 0.61,11.79 -1.94,18.88 -1.77,4.91 -3.99,9.98 -6.22,14.6 -2.7,5.62 -4.45,8.49 -6.41,14.41 -1.82,5.49 -3.37,10.13 -5.2,15.62 -11.47,34.39 -21.53,61.38 -28.53,96.37l-7.82 33.83c-5.25,12.17 -49.87,3.05 -63.85,4.77 -3.41,0.41 -5.26,1.52 -8.7,2.32 0.39,4.71 1.1,4.99 3.68,8.47 3.48,-0.15 5.03,1.89 9.84,3.95 4.02,1.72 7.2,3.15 11.38,4.58 8.15,2.79 9.54,1.62 15.25,6.5 5.01,4.28 -0.27,2.31 7.63,3.43l-1.28 -6.03c-10.71,-8.06 -29.72,-5.76 -35.49,-17.56 13.51,-0.23 27.04,0.36 40.51,0.11 13.63,-0.24 23.58,-0.19 27.5,-11.44 6.6,-18.97 7.19,-45.21 14.06,-65.65 7.11,-21.21 13.13,-39.96 19.82,-59.82 5.69,-16.88 14.32,-41.77 24.07,-53.16 1.97,1.26 9.22,7.4 10.48,8.75 3.97,4.23 5.02,5.45 9.02,9.22 2.64,2.48 5.79,6.53 8.46,9.9 2.44,3.07 16.04,14.35 21.44,16.63 22.57,9.54 17.71,5.42 29.29,26.02l9.81 0.29c2.54,-3.67 1.42,-2.06 2.72,-7.67 4.06,-0.92 13.65,-3.55 16.96,-3.72 7.03,-0.37 8.15,1.88 15.66,-1.48 6.27,-2.8 19.2,-11.76 24.71,-15.67 1.95,0.55 3.11,2.71 6.91,3.39 1.08,-0.8 12.95,-6.11 16.03,-7.34 21.68,-8.68 23.64,12.8 36.55,31.26 16.55,23.69 22.3,36.67 29.81,65.7 4,15.5 7.52,44.23 21.63,51.94 23.78,12.99 63.42,19.47 80.83,38.58 -6.61,4.84 -14.87,5.58 -23.88,5.45 -21.44,-0.32 -55.75,-7.34 -78.4,-2.66 -0.41,5.62 1.48,15.12 3.98,19.19 1.86,-2.07 -1.24,-1.59 3.9,-1.68 -0.62,4.64 0.17,1.86 -1.78,6.63 3.04,-1.27 2.45,2.05 2.45,-2.44 7.99,4.22 19.45,7.42 31.87,7.42 7.05,0 12.3,0.27 14.11,-5.62 2.26,-7.36 -1.36,-10.38 -1.87,-16.5 9.98,0 34.58,0.69 43.03,-1.08 4.41,-0.92 7.82,-2.23 12.11,-2.59 0,-22.52 -17.73,-16.03 -25.73,-26.94 18.49,-0.41 43.32,-8.55 59.82,-19.81 15.59,-10.65 29.03,-23.79 40.68,-38.94 7.65,-9.96 14.74,-21.84 19.41,-34.48 10.15,-27.52 16.98,-51.34 22.61,-83.92 4.08,-23.62 -4.26,-80.94 -16.31,-89.76 -5.27,1.41 -2.01,0.53 -5.31,4.48 -1.88,2.25 -2.83,2.96 -4.83,4.98 -4.84,4.89 -3.95,6.85 -7.51,12.08 -16.22,23.89 -56.8,31.64 -85.48,34.58 -34.65,3.55 -73.47,3.33 -102.33,17.75 -7.21,3.6 -19.07,10.72 -23.95,16.73 -0.22,4 0.31,2.64 -2.9,5.4l-11.81 10.81c-3.79,-0.8 -6.19,-3.65 -7.99,-5.45 -3.42,-3.42 -2.83,-3.56 -5.22,-8.07 1.83,-1.34 1.26,-1.27 2.36,-2.55 4.01,-4.65 3.91,-2.15 10.99,-11.36 3.86,-5.02 2.17,-4.34 7.43,-7.1 5.13,-2.67 6.37,-1.97 10.42,-4.94 0,-3.67 -1.73,-10.44 0.66,-13.1l0 -1.2c-1.06,-2.06 -2.37,0.22 0.83,-1.66l24.81 -7.13c9.29,-3.09 18.41,-7.12 25,-11.93 28.08,-20.5 42.74,-58.65 53.83,-90.96 4.91,-14.3 11.61,-35.21 13.39,-50.71 0.61,-5.3 -0.34,-4.59 -0.45,-6.03 -0.03,-0.41 -0.17,-0.56 -0.37,-0.77 -1.52,1.62 -0.38,-0.08 -1.56,2.51l-1.8 6.92c-3.63,16.64 -14.3,49.6 -20.12,64.38 -4.84,12.28 -14.56,39.47 -24.68,47.48 -6.28,4.97 -3.25,6.78 -12.71,16.7 -15.29,16.01 -42.24,22.23 -63.53,25.79 -49.95,8.37 -64.67,-7.37 -84.58,-5.98l2.04 5.1c8.51,0.82 15.09,3.03 21.41,7.15 10.27,6.7 -1.31,-0.87 20.74,1.01 30.05,2.55 45.62,-5.96 42.21,6.58 -3.12,1.6 -6.63,1.11 -10.33,1.35 -6.64,14.3 -1.36,18.31 -17.08,25.4 -6.26,2.83 -23.91,10.55 -30.41,10.95 0.04,-13.73 6.77,-19.1 4.38,-35.31 -8.33,6.72 0.04,32.41 -23.98,39.25 2.58,-10.07 10.58,-34.92 -1.07,-42.74 -1.59,10.85 6,16.92 -5.48,37.55 -7.39,13.28 -32.02,19.83 -46.42,22.35 -6.59,1.16 -9.06,-4.33 -12.18,-7.84 -8.45,-9.51 -15.2,-7.33 -19.89,-25.37 -4.32,-2.84 -1.93,-13.31 -2.2,-18.72l-3.86 -2.12c-1,20.2 0.87,16.8 5.53,33.29 -10.45,-2.54 -21.07,-12.39 -24.35,-22.11 -1.73,-5.41 -3.89,-12.51 -1.99,-18.67 2.42,-7.87 4.53,-1.81 7.74,-16.87 -12.69,4.68 -9.71,18.98 -16.28,26.28 -6.29,-1.96 -11.22,-9.75 -15.09,-16.3 -10.45,-17.62 -3.48,-7.74 -12.77,-17.38 0.72,-11.6 6.49,-13.04 10.18,-20.4 4.95,-9.88 1.47,-13.29 14.96,-15.29 2.34,-1.83 1.92,-2.11 5.18,-1.77 2.54,-2.18 4.7,4.35 1.23,-5.23 -5.05,-13.94 -35.67,-24.58 -49.81,-59.41 -14.95,-36.85 -1.69,-67.94 -1.86,-104.86l-3.49 -1.52c-2.52,1.75 -3.41,18.86 -3.78,22.08 -3.11,27.17 -7.52,49.46 -0.65,76.76 9.63,38.28 28.23,43.97 47.32,63.6z"/>
   <path class="fil5" d="M217.11 402.7c0.67,4.84 1,5.12 3.08,7.78 1.15,-1.72 7.26,-31.49 8.6,-36.42 3.21,-11.79 7.07,-23.38 9.85,-35.54 2.7,1.05 5.99,3.42 8.53,3.4 4.32,-0.05 1.24,0.56 3.53,-1.19 4.64,-5.13 -6.28,-7.57 -18.31,-14.74 -28.06,-16.7 -86.07,-50.7 -107.73,-73.52 -33.77,-35.58 -62.55,-91.83 -80.05,-136.62 -7.09,-18.14 -11.64,-35.78 -18.01,-54.22l-17.52 -54.5c4.04,1.55 6.97,4.45 11.04,6.99 3.79,2.37 7.41,4.95 10.97,7.48 26.82,19.1 30.22,24.48 67.5,44.02 19.16,10.04 93.87,62.52 108.31,77.79l19.64 18.29c46.24,35.84 66.85,131.04 86.17,138.89l-6.79 -19.6c2.77,-2.22 41.63,-19.21 51.18,-25.9 2.47,-1.73 3.47,-2.88 5.81,-4.34l-0.98 15.1c7.47,-1.46 11.89,-2.88 17.87,-6.27l15.4 -9.26c8.54,10.29 3.18,10.16 4.12,21.51 27.32,-6.95 47.08,-20.7 70.86,-30.66 -2.02,11.48 -13.97,28.85 -9.62,39.36 7.79,3.3 14.45,0.16 23.31,-0.59l6.91 8.52 46.56 -11.81c-2.21,14.32 -13.15,19.73 -12.17,34.82 13.77,5.73 24.91,0.84 39.36,0.24 -2.11,7.42 -4.08,10.04 -8.32,14.97 -2.87,3.33 -9.85,10.17 -10.5,14.21 12.65,0.63 11.28,0.71 22.21,3.92 -1.67,1.72 -2.5,2.24 -5.25,4.23 -1.12,0.8 -1.38,0.69 -2.8,2.18 -7.23,7.56 3.84,2.84 14.02,25.47 1.73,3.87 0.53,1.46 1.44,2.79 8.55,-4.84 2.32,1.97 1.33,-15.32 13.84,-5.57 16.11,-19.07 24.75,-32.78 13.94,-22.11 18.59,-31.12 36.62,-49.01 4.74,-4.7 9.68,-10.89 14.49,-14.94 6.43,-5.41 10.02,-8.77 15.08,-14.31 21.56,-23.59 94.09,-61.92 124.7,-78.45 8.16,-4.41 31.31,-16.33 39.99,-18.24l-5.55 30.13c-1.18,6.78 0.48,1.75 2.66,3.77 0.97,-6.58 1.98,-11.42 4,-18 1.95,-6.34 2.33,-13.05 2.93,-19.95 -5.28,-2.4 -14.45,2.93 -21.26,6.72 -20.49,11.41 -61.16,30.53 -78.07,40.78 -6.86,4.15 -12.44,6.85 -18.79,10.65 -6.3,3.78 -12.4,7.53 -18.09,11.35l-26.17 19.19c-2.11,1.8 -1.46,1.52 -3.97,3.41 -3.24,2.42 -1.41,0.61 -3.92,3.39 -5.19,5.73 -10.45,8.57 -15.68,13.78l-52.75 67.44c-5.99,9.62 -16.56,30.17 -27.2,31.72 -2.86,-2.31 -4.63,-4.96 -2.36,-8.67 3.28,-5.34 5.36,-2.57 7.95,-9.98 -0.33,-0.25 -0.86,-0.93 -1.09,-0.61 -0.22,0.31 -0.78,-0.44 -1.08,-0.57l-14.03 -5c1.86,-13.79 9.76,-16.55 10.9,-28.39 -12.79,-0.64 -28.69,4.07 -40.05,0.79 2.56,-14.7 10.79,-17.25 11.24,-36 -17.7,0.67 -29.62,9.21 -49.57,9.94l-3.07 -7.03c-4.14,0.19 -8.57,0.72 -12.35,1.24 -13.83,1.91 -8.4,1.51 -10.13,-0.48 -6.63,-7.64 8,-24.23 8.21,-40.57 -15.66,0.98 -49.96,28.8 -64.35,25.9 -10.08,-2.03 -7.46,-12.41 -6.01,-21.54 -14.73,3.97 -26.34,21.39 -36.41,17.84 -3.14,-6.82 0.82,-7.77 -1.24,-16.39 -7.89,0.82 -5.69,6.88 -13.82,10.96l-51.1 22.6c-10.26,-9.1 -23.62,-61.22 -50.97,-92.3l-6.7 -8.2c-1.05,-1.21 -3.68,-1.12 -1.15,-1.16 -3.11,-7.61 -18.73,-19.33 -24.51,-26.92 -4.21,0.34 -10.05,-6.32 -12.9,-9.21l-12.27 -9.81c-0.92,-0.72 -1.51,-1.36 -1.95,-1.73 -0.19,-0.16 -0.45,-0.41 -0.64,-0.57l-4.19 -3.17c-1.64,-1.32 -0.54,-0.48 -1.98,-1.69l-30.24 -22.44c-13.93,-9.09 -24.22,-17.35 -40.19,-27.19l-69.16 -44.77c-2.28,-1.61 -4.31,-3.12 -6.43,-4.58 -12.66,-8.74 -24.43,-19.54 -36.26,-21.2 4.22,39.4 45.05,138.38 65.99,178.63 17.18,33 25.01,45.86 47.5,73.98l10.26 10.71c16.96,15.04 86.01,53.2 103.66,67.88 2.38,1.98 2.78,0.57 2.15,5.18l-14.98 66.41z"/>
   <path class="fil5" d="M587.89 456.02c-0.96,6.19 0.96,2.28 2.18,3.62 3.71,-27.38 2.79,-22.72 33.61,-29.64 34.02,-7.64 75.85,-30.58 102.18,-52.47 5.36,-4.46 21.25,-19.69 26.23,-26.53l10.41 -12.9c21.3,-26.31 43.64,-64.69 54.72,-97.32 5.47,-16.09 6.25,-22.85 9.52,-38.37 0.7,-3.3 3.42,-11.18 0.41,-13.18l-2.54 5.44c-3.31,12.65 -4.84,26.99 -10.04,41.34 -9.66,26.69 -34.43,71.19 -52.32,94.62 -9.57,12.53 -17.72,20.78 -28.58,31.39 -20.57,20.06 -20.64,19.97 -50.17,37.89 -23.56,14.3 -55.44,26.09 -87.46,31.1 -3.29,-3.69 -2.53,-6.96 -9.25,-7.61 -0.61,6.45 2.56,9.94 1.1,32.62z"/>
   <path class="fil5" d="M384.06 769.04c9.47,-7.99 4.82,-17.07 4.34,-30.22 -0.41,-11.27 0.95,-6.1 -3.48,-15.38 -1.84,-3.84 -3.6,-9.78 -9.02,-8.71 -8.58,1.7 -5.57,20.94 -4.76,30.06 1.07,12.16 3.73,20.95 12.92,24.25z"/>
   <path class="fil5" d="M310.64 717.96c-8.85,11.5 -12.53,48.71 2.45,53.91 6.71,-7.76 7.6,-15.67 6.62,-28.12 -1.81,-23.07 0.82,-25.04 -9.07,-25.79z"/>
   <path class="fil6" d="M67.51 74.02l-15.49 7.11 0.29 10c20.19,11.73 37.83,10.96 47.55,15.95 -6.44,5.84 -20.51,3.17 -27.8,8.94 -11.85,9.39 6.08,16.05 14.56,17.88 21.69,4.65 54.86,3.99 65.09,11.13 -12,7.91 -35.42,4.25 -52.41,10.42 -7.4,2.69 -7.85,4.6 -12.82,8.72 1.41,11.37 4.67,12.28 15.99,13.86 22.73,3.17 69.44,2.83 80.68,8.33 -13.34,2.77 -27.02,3.83 -40.34,6.5 -12.28,2.46 -28.16,5.62 -28.32,18.83 19.02,11.7 57.66,8.83 82.34,8.68 -4.94,6.54 -27.3,8.9 -34.51,10.34 -10.82,2.17 -28.88,9.75 -16.4,18.88 10.67,7.8 69.26,2.02 96.83,2.61 -1.08,6.56 -19.93,12.76 -26.91,17.26 -9.19,5.94 -18.48,20.04 -3.46,26.46 5.59,2.39 12.53,2.74 18.83,4.5l42.73 1.72c11,-0.42 13.37,-0.64 12.25,-11.4 -12.31,-7.11 -45.07,-1.93 -59.22,-8.58 11.19,-17.17 42.14,-11.33 40.99,-39.55 -25.36,-10.68 -35.95,-2.04 -59.7,-6.5 5.72,0.2 21.12,-3.93 27.07,-5.95 9.91,-3.36 18.28,-6.05 17.52,-16.85 -17.1,-14.69 -49.31,-0.63 -67.13,-10.73 10.27,-8.8 39.27,1.33 38.27,-24.78 -41.82,-13.99 -75.83,-2.85 -88.58,-13.28 16,-5.68 45.64,-3.2 50.91,-19.49 -4.83,-19.84 -48.99,-15.1 -67.49,-22.58 2.25,-1.26 28.35,-9.35 6,-23.16 -10.92,-6.75 -31.41,-7.47 -38.23,-11.8 2.42,-15.72 8.92,-17.03 -6.32,-25.72 -5.65,-3.22 -33.25,-22.38 -40.3,-15.71 -3.8,3.6 0.95,11.02 3.86,12.96 9.76,6.51 18.04,4.69 23.67,15z"/>
   <path class="fil6" d="M743.17 238.09c-3.38,1.73 -21.17,5.4 -27.12,7.15 -7.95,2.35 -18.05,5.64 -24.44,9.99 -2.73,20.27 15.42,15.87 30.3,16.47 -18.59,12.79 -62.57,7.38 -72.12,27.61 4.02,20.88 36.78,8.73 52.65,16.12 -8.36,4.6 -32.91,6.48 -44.23,7.98 -15.36,2.03 -31.01,4.8 -42,11.79 0.76,20.92 20.45,15.66 37.4,19.43 -12.29,6.28 -47.53,3.17 -56.72,12.65 -1.28,14.13 4.28,10.26 11.46,16.38 -10.87,2.56 -21.98,1.88 -32.62,5.36l2.17 10.36c18.05,1.43 38.66,-0.62 56.04,-2.31 29.55,-2.86 43.08,-0.8 42.16,-18.47 -6.06,-3.24 -5.48,-3.63 -13.95,-5.46 1.92,-1.73 -1.66,0.12 3.23,-2.15 9.22,-4.3 35.84,-3.37 51.07,-7.77 9.72,-2.81 8.23,-3.39 8.51,-14.01 -22.98,-5.39 -42.91,-6.43 -66.91,-10.25l50.32 -9.71c16.74,-2.77 38.21,-2.06 49.64,-11.58l0.12 -12.46 -64.05 -6.66c7.91,-9.46 57.56,-15.74 75.36,-20.8 9.93,-2.82 14.83,-5.81 14.52,-17.85 -17.12,-4.41 -24.51,-3.33 -42.73,-4.08 6.54,-6.57 21.74,-8.12 32.28,-10.6 12.08,-2.83 27.85,-4.61 25.61,-19.04 -6.3,-6.36 -17.79,-4.29 -28.71,-4.47 7.04,-12.91 47.39,-12.64 41.8,-32.9 -13.92,-3.12 -34.91,9.96 -45.97,15.96 -33.3,18.04 -26.01,17.78 -23.07,33.32z"/>
   <path class="fil6" d="M304.67 384.96l11.54 -3.11c-0.88,5.55 0.23,2.66 -1.84,5.58l8.3 -0.02c3.7,7.77 1.87,9.12 2.91,17.19l3.26 2.76 -2.24 -8.08c1.17,-0.49 1.08,-0.87 3.03,-1.29 1.2,-0.26 2.11,-0.24 3.42,-0.3 -2.81,-8.37 -19.48,-26.71 -28.38,-12.73z"/>
   <path class="fil7" d="M332.63 522.55c1.92,3.17 7.19,27.76 8.34,33.18 8.45,-0.61 28.35,-5.97 34.48,-1.89 4.47,2.26 0.62,-1.17 3.67,4.01 0.78,1.34 1.61,3.2 2.54,4.77 2.18,3.72 3.34,5.58 5.14,9.54 18.41,0.82 23.22,2.17 28.7,16.47 14.96,-2.95 24.88,-12.4 29.04,-8.04 5.98,6.26 -10.68,13.45 -14.87,15.16 -12.55,5.13 -15.1,5.94 -22.49,-3.56 -9.45,-12.13 -7.02,-6.7 -23.05,-9.79 -6.52,-1.25 -11,-12.87 -14.67,-18.66 -22.14,-3.4 -33.01,10.89 -38.61,-5.5 -1.9,-5.57 -3.84,-13.57 -4.87,-19.68 -1.58,-9.36 -3.15,-14.82 6.65,-16.01zm154.64 33.17c-9.1,-1.39 -11.47,-8.09 -13.64,-17.57 -5.98,-26.1 0.1,-48.05 13.02,-70.35 31.03,-53.57 55.85,-16.45 60.23,1.92 6.16,25.82 -12.8,79.81 -27.3,88.57 -15.61,9.42 -27.6,-12.17 -30.88,-24.27 -6.91,-25.54 9.67,-32.2 1.74,-48.28 -5.89,5.75 -9.06,23.76 -8.24,33.94 1.14,14.02 6.59,21.04 5.07,36.04zm-206.46 -59.58c-12.12,2.09 -12.3,-4.96 -16.07,-13.88 -10.98,-25.97 -5.89,-46.86 5.75,-72.51 6.36,-14.01 16.51,-27.77 26.81,-34.39 28.15,-18.07 73.41,16.68 32.29,103.32 -5.43,11.45 -17.11,33.54 -33.41,22.38 -5.43,-3.72 -9.71,-10.25 -13.54,-17.08 -3.01,-5.37 -5.85,-15.24 -9.98,-19.01 -2.67,4.46 1.58,11.68 3.54,15.7 3.14,6.46 3.87,7.19 4.61,15.47zm462.36 -258.05c-2.94,-15.54 -10.23,-15.28 23.07,-33.32 11.06,-6 32.05,-19.08 45.97,-15.96 5.59,20.26 -34.76,19.99 -41.8,32.9 10.92,0.18 22.41,-1.89 28.71,4.47 2.24,14.43 -13.53,16.21 -25.61,19.04 -10.54,2.48 -25.74,4.03 -32.28,10.6 18.22,0.75 25.61,-0.33 42.73,4.08 0.31,12.04 -4.59,15.03 -14.52,17.85 -17.8,5.06 -67.45,11.34 -75.36,20.8l64.05 6.66 -0.12 12.46c-11.43,9.52 -32.9,8.81 -49.64,11.58l-50.32 9.71c24,3.82 43.93,4.86 66.91,10.25 -0.28,10.62 1.21,11.2 -8.51,14.01 -15.23,4.4 -41.85,3.47 -51.07,7.77 -4.89,2.27 -1.31,0.42 -3.23,2.15 8.47,1.83 7.89,2.22 13.95,5.46 0.92,17.67 -12.61,15.61 -42.16,18.47 -17.38,1.69 -37.99,3.74 -56.04,2.31l-2.17 -10.36c10.64,-3.48 21.75,-2.8 32.62,-5.36 -7.18,-6.12 -12.74,-2.25 -11.46,-16.38 9.19,-9.48 44.43,-6.37 56.72,-12.65 -16.95,-3.77 -36.64,1.49 -37.4,-19.43 10.99,-6.99 26.64,-9.76 42,-11.79 11.32,-1.5 35.87,-3.38 44.23,-7.98 -15.87,-7.39 -48.63,4.76 -52.65,-16.12 9.55,-20.23 53.53,-14.82 72.12,-27.61 -14.88,-0.6 -33.03,3.8 -30.3,-16.47 6.39,-4.35 16.49,-7.64 24.44,-9.99 5.95,-1.75 23.74,-5.42 27.12,-7.15zm-671.11 -122.07c7.29,-5.77 21.36,-3.1 27.8,-8.94 -9.72,-4.99 -27.36,-4.22 -47.55,-15.95l-0.29 -10 15.49 -7.11c-5.63,-10.31 -13.91,-8.49 -23.67,-15 -2.91,-1.94 -7.66,-9.36 -3.86,-12.96 7.05,-6.67 34.65,12.49 40.3,15.71 15.24,8.69 8.74,10 6.32,25.72 6.82,4.33 27.31,5.05 38.23,11.8 22.35,13.81 -3.75,21.9 -6,23.16 18.5,7.48 62.66,2.74 67.49,22.58 -5.27,16.29 -34.91,13.81 -50.91,19.49 12.75,10.43 46.76,-0.71 88.58,13.28 1,26.11 -28,15.98 -38.27,24.78 17.82,10.1 50.03,-3.96 67.13,10.73 0.76,10.8 -7.61,13.49 -17.52,16.85 -5.95,2.02 -21.35,6.15 -27.07,5.95 23.75,4.46 34.34,-4.18 59.7,6.5 1.15,28.22 -29.8,22.38 -40.99,39.55 14.15,6.65 46.91,1.47 59.22,8.58 1.12,10.76 -1.25,10.98 -12.25,11.4l-42.73 -1.72c-6.3,-1.76 -13.24,-2.11 -18.83,-4.5 -15.02,-6.42 -5.73,-20.52 3.46,-26.46 6.98,-4.5 25.83,-10.7 26.91,-17.26 -27.57,-0.59 -86.16,5.19 -96.83,-2.61 -12.48,-9.13 5.58,-16.71 16.4,-18.88 7.21,-1.44 29.57,-3.8 34.51,-10.34 -24.68,0.15 -63.32,3.02 -82.34,-8.68 0.16,-13.21 16.04,-16.37 28.32,-18.83 13.32,-2.67 27,-3.73 40.34,-6.5 -11.24,-5.5 -57.95,-5.16 -80.68,-8.33 -11.32,-1.58 -14.58,-2.49 -15.99,-13.86 4.97,-4.12 5.42,-6.03 12.82,-8.72 16.99,-6.17 40.41,-2.51 52.41,-10.42 -10.23,-7.14 -43.4,-6.48 -65.09,-11.13 -8.48,-1.83 -26.41,-8.49 -14.56,-17.88zm145.05 286.68l0.58 -3 -2.63 9.66 3.49 1.52c0.17,36.92 -13.09,68.01 1.86,104.86 14.14,34.83 44.76,45.47 49.81,59.41 3.47,9.58 1.31,3.05 -1.23,5.23 2.47,1.8 -3.76,2.32 4.27,1.11 7.57,-12.18 18.93,8.4 48.84,23.68 22.19,11.33 32.76,10.16 47.15,15.4 11.27,4.1 2.41,9.14 10.79,9.54l-2.04 -5.1c19.91,-1.39 34.63,14.35 84.58,5.98 21.29,-3.56 48.24,-9.78 63.53,-25.79 9.46,-9.92 6.43,-11.73 12.71,-16.7 10.12,-8.01 19.84,-35.2 24.68,-47.48 5.82,-14.78 16.49,-47.74 20.12,-64.38l1.8 -6.92c1.18,-2.59 0.04,-0.89 1.56,-2.51l0.91 -11.19c1.46,-22.68 -1.71,-26.17 -1.1,-32.62 6.72,0.65 5.96,3.92 9.25,7.61 32.02,-5.01 63.9,-16.8 87.46,-31.1 29.53,-17.92 29.6,-17.83 50.17,-37.89 10.86,-10.61 19.01,-18.86 28.58,-31.39 17.89,-23.43 42.66,-67.93 52.32,-94.62 5.2,-14.35 6.73,-28.69 10.04,-41.34l2.54 -5.44 -0.41 -2.67 5.55 -30.13c-8.68,1.91 -31.83,13.83 -39.99,18.24 -30.61,16.53 -103.14,54.86 -124.7,78.45 -5.06,5.54 -8.65,8.9 -15.08,14.31 -4.81,4.05 -9.75,10.24 -14.49,14.94 -18.03,17.89 -22.68,26.9 -36.62,49.01 -8.64,13.71 -10.91,27.21 -24.75,32.78 0.99,17.29 7.22,10.48 -1.33,15.32 -0.91,-1.33 0.29,1.08 -1.44,-2.79 -10.18,-22.63 -21.25,-17.91 -14.02,-25.47 1.42,-1.49 1.68,-1.38 2.8,-2.18 2.75,-1.99 3.58,-2.51 5.25,-4.23 -10.93,-3.21 -9.56,-3.29 -22.21,-3.92 0.65,-4.04 7.63,-10.88 10.5,-14.21 4.24,-4.93 6.21,-7.55 8.32,-14.97 -14.45,0.6 -25.59,5.49 -39.36,-0.24 -0.98,-15.09 9.96,-20.5 12.17,-34.82l-46.56 11.81 -6.91 -8.52c-8.86,0.75 -15.52,3.89 -23.31,0.59 -4.35,-10.51 7.6,-27.88 9.62,-39.36 -23.78,9.96 -43.54,23.71 -70.86,30.66 -0.94,-11.35 4.42,-11.22 -4.12,-21.51l-15.4 9.26c-5.98,3.39 -10.4,4.81 -17.87,6.27l0.98 -15.1c-2.34,1.46 -3.34,2.61 -5.81,4.34 -9.55,6.69 -48.41,23.68 -51.18,25.9l6.79 19.6c-19.32,-7.85 -39.93,-103.05 -86.17,-138.89l-19.64 -18.29c-14.44,-15.27 -89.15,-67.75 -108.31,-77.79 -37.28,-19.54 -40.68,-24.92 -67.5,-44.02 -3.56,-2.53 -7.18,-5.11 -10.97,-7.48 -4.07,-2.54 -7,-5.44 -11.04,-6.99l17.52 54.5c6.37,18.44 10.92,36.08 18.01,54.22 17.5,44.79 46.28,101.04 80.05,136.62 21.66,22.82 79.67,56.82 107.73,73.52 12.03,7.17 22.95,9.61 18.31,14.74 -2.29,1.75 0.79,1.14 -3.53,1.19 -2.54,0.02 -5.83,-2.35 -8.53,-3.4 -2.78,12.16 -6.64,23.75 -9.85,35.54 -1.34,4.93 -7.45,34.7 -8.6,36.42 -2.08,-2.66 -2.41,-2.94 -3.08,-7.78z"/>
   <path class="fil7" d="M250.38 795.18c3.47,7.64 7.66,2.53 12.47,8.51 -10.06,2.54 -19.33,-1.94 -18.16,-12.19 7.24,-5.69 19.41,-3.43 20.38,3.27 -7.09,1.15 -9.14,-2.3 -14.69,0.41zm60.26 -77.22c9.89,0.75 7.26,2.72 9.07,25.79 0.98,12.45 0.09,20.36 -6.62,28.12 -14.98,-5.2 -11.3,-42.41 -2.45,-53.91zm73.42 51.08c-9.19,-3.3 -11.85,-12.09 -12.92,-24.25 -0.81,-9.12 -3.82,-28.36 4.76,-30.06 5.42,-1.07 7.18,4.87 9.02,8.71 4.43,9.28 3.07,4.11 3.48,15.38 0.48,13.15 5.13,22.23 -4.34,30.22zm-225.43 83.77c47.44,9.49 47.4,14.97 56.33,47.52 20.02,-3.46 50.11,-25.06 71.19,-25.05 19.61,0.01 48.71,28.65 72.28,25.23 6.44,-6.74 14.03,-22.12 22.28,-22.82 3.46,-0.3 74.94,29.4 110.5,25.31l-0.1 -9.93c-2.5,-4.07 -4.39,-13.57 -3.98,-19.19 22.65,-4.68 56.96,2.34 78.4,2.66 9.01,0.13 17.27,-0.61 23.88,-5.45 -17.41,-19.11 -57.05,-25.59 -80.83,-38.58 -14.11,-7.71 -17.63,-36.44 -21.63,-51.94 -7.51,-29.03 -13.26,-42.01 -29.81,-65.7 -12.91,-18.46 -14.87,-39.94 -36.55,-31.26 -3.08,1.23 -14.95,6.54 -16.03,7.34 -3.8,-0.68 -4.96,-2.84 -6.91,-3.39 -5.51,3.91 -18.44,12.87 -24.71,15.67 -7.51,3.36 -8.63,1.11 -15.66,1.48 -3.31,0.17 -12.9,2.8 -16.96,3.72 -1.3,5.61 -0.18,4 -2.72,7.67l-9.81 -0.29c-11.58,-20.6 -6.72,-16.48 -29.29,-26.02 -5.4,-2.28 -19,-13.56 -21.44,-16.63 -2.67,-3.37 -5.82,-7.42 -8.46,-9.9 -4,-3.77 -5.05,-4.99 -9.02,-9.22 -1.26,-1.35 -8.51,-7.49 -10.48,-8.75 -9.75,11.39 -18.38,36.28 -24.07,53.16 -6.69,19.86 -12.71,38.61 -19.82,59.82 -6.87,20.44 -7.46,46.68 -14.06,65.65 -3.92,11.25 -13.87,11.2 -27.5,11.44 -13.47,0.25 -27,-0.34 -40.51,-0.11 5.77,11.8 24.78,9.5 35.49,17.56z"/>
   <path class="fil7" d="M681.64 761.58c-4.4,-1.58 -4,-7.51 -4.31,-13.45l-12.66 1.55 -0.28 -17.19 -8 3.14c-3.11,10.35 -13.41,11.62 -23.37,10.39 -1.07,-7.7 -1,-16.44 6.64,-19.46l-0.26 -0.92c4.94,-19.61 0.23,-10.02 2.48,-19.27 1.44,-5.91 4.8,-6.66 6.66,-15.63l-10.66 -5.76c1.33,-7.82 4.01,-7.45 5.99,-13.92 -12.74,1.71 -30.7,9.84 -43.74,6.43l-1.83 -14.15c-16.75,-0.13 -26.06,3.57 -42.06,-1.14 2.34,-8.85 12.08,-12.14 21.6,-14.42l0.78 -1.43c-51.01,7.06 -91.73,7.21 -119.09,39.24 -3.37,3.94 -6.5,6.91 -3.93,12.45 1.94,4.18 4.63,8.71 7.05,12.66 5,8.2 9.14,15.86 14.63,24.54 3.32,5.24 8.31,21.84 10.81,28.46 17.37,46.1 3.13,56.18 45.7,72.9 24.91,9.78 39.51,10.02 65.69,0.88 31.26,-10.91 60.17,-32.32 74.24,-62.72 1.7,-3.65 0.13,-1.08 1.66,-3.2 3.8,-5.28 3.31,-0.22 6.26,-9.98z"/>
   <path class="fil7" d="M297.23 438.77c16.01,-3.16 17.84,-9.19 18.05,-25.86l-13.06 -4.87c-5.7,6.82 -13.48,9.03 -4.99,30.73z"/>
   <path class="fil7" d="M271.79 451.99c6.46,0.5 10.19,-0.93 13.95,-4.53 0.57,-7.57 0.47,-10.14 -3.28,-15.9 -6.63,3.03 -11.22,10.27 -10.67,20.43z"/>
   <path class="fil7" d="M506.43 504.91c11.13,-2.71 14.17,-9.73 12.34,-22.92 -9.01,2.95 -12.9,11.1 -12.34,22.92z"/>
   <path class="fil7" d="M502.32 467.65c7.94,0.33 7.66,-0.31 11.05,-4.95 2.9,-3.99 5.39,-6.68 7.11,-11.8 -9.61,1 -18.24,7.5 -18.16,16.75z"/>
   <path class="fil7" d="M322.23 450.56l7.24 -0.37c2.8,-5.18 3.47,-9.93 4.12,-17.23 -9.42,2.14 -13.31,6.46 -11.36,17.6z"/>
  </g>
 </g>
</svg>
