<?xml version="1.0" encoding="UTF-8"?>
<!DOCTYPE svg PUBLIC "-//W3C//DTD SVG 1.1//EN" "http://www.w3.org/Graphics/SVG/1.1/DTD/svg11.dtd">
<!-- Creator: CorelDRAW 2017 -->
<svg xmlns="http://www.w3.org/2000/svg" xml:space="preserve" width="21.627mm" height="21.9286mm" version="1.1" style="shape-rendering:geometricPrecision; text-rendering:geometricPrecision; image-rendering:optimizeQuality; fill-rule:evenodd; clip-rule:evenodd"
viewBox="0 0 2162.7 2192.86"
 xmlns:xlink="http://www.w3.org/1999/xlink">
 <defs>
  <style type="text/css">
   <![CDATA[
    .fil6 {fill:#FEFEFE;fill-rule:nonzero}
    .fil0 {fill:whitesmoke;fill-rule:nonzero}
    .fil3 {fill:#9E9E9D;fill-rule:nonzero}
    .fil5 {fill:#2B2A29;fill-rule:nonzero}
    .fil4 {fill:#E3C3B0;fill-rule:nonzero}
    .fil9 {fill:#EB5F6A;fill-rule:nonzero}
    .fil11 {fill:#E52D2E;fill-rule:nonzero}
    .fil8 {fill:#E52A32;fill-rule:nonzero}
    .fil7 {fill:#FDD02C;fill-rule:nonzero}
    .fil1 {fill:#F1BC2C;fill-rule:nonzero}
    .fil2 {fill:#E7CBA5;fill-rule:nonzero}
    .fil10 {fill:#D7BE9B;fill-rule:nonzero}
   ]]>
  </style>
   <clipPath id="id0">
    <rect x="0.01" y="1.57" width="2162.68" height="2189.72"/>
   </clipPath>
 </defs>
<symbol id="Fm97-312-0" viewBox="17383.14 -25561.57 1058.34 1058.33">
 <path class="fil0" d="M17383.14 -25032.41c0,-292.24 236.93,-529.16 529.17,-529.16 292.24,0 529.17,236.92 529.17,529.16 0,292.25 -236.93,529.17 -529.17,529.17 -292.24,0 -529.17,-236.92 -529.17,-529.17z"/>
</symbol>
<symbol id="Fm92-302-0" viewBox="20928.56 -23797.68 1605.14 1605.14">
 <path class="fil0" d="M20928.56 -22995.11c0,-443.27 359.34,-802.57 802.57,-802.57 443.23,0 802.57,359.3 802.57,802.57 0,443.23 -359.34,802.57 -802.57,802.57 -443.23,0 -802.57,-359.34 -802.57,-802.57z"/>
</symbol>
<symbol id="Fm51-204-0" viewBox="6529.58 -18727.71 524.26 109.58">
 <path class="fil1" d="M6529.58 -18640.18c0,0 166.01,36.23 294.14,15.8 128.17,-20.42 230.12,-103.33 230.12,-103.33l-147.07 51.09c0,0 -96.24,38.34 -176.92,40.39 -80.68,2.05 -200.27,-3.95 -200.27,-3.95z"/>
</symbol>
<symbol id="Fm33-164-0" viewBox="5825.24 -22250.72 136.04 252.2">
 <path class="fil2" d="M5825.24 -22171.94c0,0 69.85,110.17 59.91,173.42l76.13 -190.25 -40.96 -61.95 -95.08 78.78z"/>
</symbol>
<symbol id="Fm21-138-0" viewBox="5490.96 -21827.7 325.75 180.79">
 <path class="fil2" d="M5490.96 -21646.91c0,0 164.85,-172.86 325.75,-93.55 0,0 -89.18,-127.32 -188.59,-74.33 -99.38,52.98 -137.16,167.88 -137.16,167.88z"/>
</symbol>
<symbol id="Fm15-124-0" viewBox="9177.6 -17367.61 1058.33 1058.34">
 <path class="fil0" d="M10235.93 -16838.44c0,292.24 -236.92,529.17 -529.16,529.17 -292.24,0 -529.17,-236.93 -529.17,-529.17 0,-292.24 236.93,-529.17 529.17,-529.17 292.24,0 529.16,236.93 529.16,529.17z"/>
</symbol>
<symbol id="Fm14-122-0" viewBox="7149.13 -20101.63 1058.33 1058.33">
 <path class="fil0" d="M8207.46 -19572.47c0,292.24 -236.92,529.17 -529.17,529.17 -292.24,0 -529.16,-236.93 -529.16,-529.17 0,-292.24 236.92,-529.16 529.16,-529.16 292.25,0 529.17,236.92 529.17,529.16z"/>
</symbol>
<symbol id="Fm95-308-0" viewBox="15532.86 -23095.18 1325.17 1325.17">
 <path class="fil0" d="M15532.86 -22432.6c0,-365.93 296.65,-662.58 662.58,-662.58 365.94,0 662.59,296.65 662.59,662.58 0,365.94 -296.65,662.59 -662.59,662.59 -365.93,0 -662.58,-296.65 -662.58,-662.59z"/>
</symbol>
<symbol id="Fm91-300-0" viewBox="5144.84 -28806.5 4091.89 1400.49">
 <image x="5143.68" y="-28806.5" width="4093.05" height="1400.88" xlink:href="esfera-4-estrellas_Images\esfera-4-estrellas_ImgID1.png"/>
</symbol>
<symbol id="Fm69-242-0" viewBox="6807.1 -16545.78 40.28 104.17">
 <polygon class="fil2" points="6807.1,-16545.78 6829,-16463.34 6836.16,-16441.61 6847.38,-16498.93 "/>
</symbol>
<symbol id="Fm63-230-0" viewBox="3838.18 -17741.07 48.93 246.65">
 <path class="fil2" d="M3887.11 -17721.74c0,0 -26.25,205.46 -39.23,224.05 -12.98,18.62 -9.17,-48.51 -9.17,-48.51l0.18 -155.72 13.19 -39.15 35.03 19.33z"/>
</symbol>
<symbol id="Fm58-218-0" viewBox="3694.26 -17601.42 38.15 88.37">
 <path class="fil2" d="M3705.63 -17601.42c0,0 -19.33,26.81 -7.58,53.51 11.71,26.71 21.76,34.86 21.76,34.86l12.6 -19.26c0,0 -32,-2.97 -26.78,-69.11z"/>
</symbol>
<symbol id="Fm45-190-0" viewBox="6547.79 -20254.51 234.38 546.81">
 <path class="fil2" d="M6547.79 -20039.7c0,0 130.67,244.54 234.38,332 0,0 -87.2,-221.09 -102.16,-380.48 0,0 -7.52,-104.52 16.58,-149.04l-15.07 -17.29c0,0 -100.5,56.51 -133.73,214.81z"/>
</symbol>
<symbol id="Fm40-180-0" viewBox="7893.09 -20622.07 160.02 650.6">
 <path class="fil2" d="M7973.95 -20599.88c0,0 14.82,513.44 -80.86,628.41 0,0 70.42,-77.61 83.05,-96.28 12.63,-18.69 76.97,-401.46 76.97,-401.46l-48.79 -152.86 -30.37 22.19z"/>
</symbol>
<symbol id="Fm18-130-0" viewBox="6452.14 -17610.05 515.59 261.04">
 <path class="fil2" d="M6452.14 -17517.48c0,0 199.74,202.85 378.07,163.37 0,0 118.32,-0.56 137.52,-99.66l-0.25 -68.93 -499.15 -87.35 -16.19 92.57z"/>
</symbol>
<symbol id="Fm106-92-0" viewBox="19364.13 -10951.71 1181.8 1181.81">
 <path class="fil0" d="M19364.13 -10360.8c0,-326.36 264.54,-590.91 590.9,-590.91 326.35,0 590.9,264.55 590.9,590.91 0,326.35 -264.55,590.9 -590.9,590.9 -326.36,0 -590.9,-264.55 -590.9,-590.9z"/>
</symbol>
<symbol id="Fm99-316-0" viewBox="19349.93 -23277.37 502.67 502.64">
 <path class="fil0" d="M19349.93 -23026.05c0,-138.82 112.53,-251.32 251.31,-251.32 138.82,0 251.36,112.5 251.36,251.32 0,138.82 -112.54,251.32 -251.36,251.32 -138.78,0 -251.31,-112.5 -251.31,-251.32z"/>
</symbol>
<symbol id="Fm86-280-0" viewBox="7452.77 -20882.77 269.88 564.27">
 <path class="fil2" d="M7452.77 -20476.72l27.1 158.22c0,0 83.18,-349.01 242.78,-564.27l-85.94 38.63 -183.94 367.42z"/>
</symbol>
<symbol id="Fm80-268-0" viewBox="6834.01 -19161.21 335.84 94.87">
 <path class="fil2" d="M6834.01 -19066.34c0,0 43.67,-65.59 294.85,-94.87l40.99 12.21 -92.35 11.08 -106.23 18.98 -41.87 9.45 -54.01 18.38 -41.38 24.77z"/>
</symbol>
<symbol id="Fm52-206-0" viewBox="6723.13 -18624.01 307.27 38.13">
 <path class="fil1" d="M7030.4 -18624.01c0,0 -279.97,29.64 -307.27,29.25 0,0 154.58,17.67 205.38,3.14 50.77,-14.54 101.89,-32.39 101.89,-32.39z"/>
</symbol>
<symbol id="Fm49-198-0" viewBox="5859.42 -19147.77 475.51 492.62">
 <path class="fil1" d="M5859.42 -19147.77c0,0 121.5,227.86 205.64,315.03 0,0 199.91,146.4 269.87,177.59l-88.16 -61.74 -126.93 -106.26c0,0 -125.83,-112.39 -145.34,-162.94l-115.08 -161.68z"/>
</symbol>
<symbol id="Fm28-152-0" viewBox="5276.73 -21394.24 139.84 227.4">
 <path class="fil2" d="M5276.73 -21394.24c0,0 135.54,202.57 107.6,227.4 0,0 37.92,-18.66 31.5,-50.87 0,0 -97.51,-145.45 -139.1,-176.53z"/>
</symbol>
<symbol id="Fm23-142-0" viewBox="4945.22 -21554.54 237.45 131.79">
 <path class="fil2" d="M4945.22 -21422.75c0,0 120.19,-126.01 237.45,-68.19 0,0 -65.02,-92.82 -137.44,-54.19 -72.46,38.63 -100.01,122.38 -100.01,122.38z"/>
</symbol>
<symbol id="Fm44-188-0" viewBox="7094.25 -19562.2 531.04 177.52">
 <path class="fil2" d="M7094.25 -19458.15c0,0 397.3,102.34 496.11,65.44 0,0 48.76,-64.94 31.05,-137.33 -17.75,-72.36 0,0 0,0 0,0 -126.12,122.84 -527.16,71.89z"/>
</symbol>
<symbol id="Fm29-154-0" viewBox="5569 -21470.41 174.94 309.03">
 <path class="fil2" d="M5569 -21470.41c0,0 124.46,278.45 103.19,309.03 0,0 78.32,-46.81 71.3,-66.89 0,0 -30.34,-19.33 -52,-63.85 -21.66,-44.52 -100.33,-151.69 -122.49,-178.29z"/>
</symbol>
<symbol id="Fm85-278-0" viewBox="7067.27 -21079.34 562.54 446.54">
 <path class="fil2" d="M7067.27 -20632.8l77.4 -173.46 318.56 -229.9 166.58 -43.18 -19.93 113.87c0,0 -381,155.12 -542.61,332.67z"/>
</symbol>
<symbol id="Fm22-140-0" viewBox="5210.04 -21682.66 237.46 131.79">
 <path class="fil2" d="M5210.04 -21550.87c0,0 120.19,-126.02 237.46,-68.2 0,0 -65.02,-92.81 -137.45,-54.18 -72.46,38.63 -100.01,122.38 -100.01,122.38z"/>
</symbol>
<symbol id="Fm102-84-0" viewBox="20200.1 -27431.65 198.58 56.83">
 <polygon class="fil3" points="20398.68,-27414.19 20373.88,-27431.65 20200.1,-27383.74 20254.46,-27374.82 "/>
</symbol>
<symbol id="Fm101-82-0" viewBox="20156.51 -27656.67 217.37 272.91">
 <path class="fil3" d="M20373.88 -27431.67c0,0 -56.27,-129.96 -12.42,-172.22 0,0 -98.21,-15.49 -171.55,-52.78 0,0 -81.53,142.91 10.19,272.91l173.78 -47.91z"/>
</symbol>
<symbol id="Fm96-310-0" viewBox="16695.23 -27554.77 1605.14 1605.14">
 <path class="fil0" d="M16695.23 -26752.2c0,-443.26 359.34,-802.57 802.57,-802.57 443.23,0 802.57,359.31 802.57,802.57 0,443.23 -359.34,802.57 -802.57,802.57 -443.23,0 -802.57,-359.34 -802.57,-802.57z"/>
</symbol>
<symbol id="Fm6-222-0" viewBox="9116.52 -2691.02 1058.33 1058.34">
 <path class="fil0" d="M10174.85 -2161.85c0,292.24 -236.93,529.17 -529.17,529.17 -292.24,0 -529.16,-236.93 -529.16,-529.17 0,-292.24 236.92,-529.17 529.16,-529.17 292.24,0 529.17,236.93 529.17,529.17z"/>
</symbol>
<symbol id="Fm32-162-0" viewBox="5500.3 -22103.86 78 208.06">
 <path class="fil2" d="M5500.3 -22082.16c0,0 56.77,50.69 35.14,143.16 -21.59,92.46 -1.02,7.72 -1.02,7.72l43.88 -172.58 -78 21.7z"/>
</symbol>
<symbol id="Fm31-160-0" viewBox="5144.85 -21985.85 78.07 159.74">
 <path class="fil2" d="M5144.85 -21969.45c0,0 53.51,35.81 56.9,143.34 0,0 22.86,-134.66 21.06,-159.74l-77.96 16.4z"/>
</symbol>
<symbol id="Fm2-134-0" viewBox="4989.02 -5548.52 1181.8 1181.81">
 <path class="fil0" d="M6170.82 -4957.61c0,326.35 -264.55,590.9 -590.9,590.9 -326.36,0 -590.9,-264.55 -590.9,-590.9 0,-326.36 264.54,-590.91 590.9,-590.91 326.35,0 590.9,264.55 590.9,590.91z"/>
</symbol>
<symbol id="Fm19-132-0" viewBox="4542.38 -18758.65 409.91 556.22">
 <path class="fil2" d="M4572.46 -18694.34c0,0 -76.42,128.55 14.39,255.76 90.84,127.22 293.65,236.15 293.65,236.15l71.79 -68.82 -259.15 -277.29 -37.08 -210.11 -83.6 64.31z"/>
</symbol>
<symbol id="Fm109-98-0" viewBox="17388.57 -10951.71 1058.33 1058.34">
 <path class="fil0" d="M17388.57 -10422.54c0,-292.24 236.93,-529.17 529.17,-529.17 292.24,0 529.16,236.93 529.16,529.17 0,292.24 -236.92,529.17 -529.16,529.17 -292.24,0 -529.17,-236.93 -529.17,-529.17z"/>
</symbol>
<symbol id="Fm59-220-0" viewBox="3661.16 -17670.04 44.46 85.86">
 <path class="fil2" d="M3677.78 -17670.04c0,0 -25.93,12.1 -13.01,35.88 12.91,23.74 12.45,46.46 26.45,49.64 13.97,3.17 14.4,-16.9 14.4,-16.9 0,0 -32.78,-19.79 -27.84,-68.62z"/>
</symbol>
<symbol id="Fm5-200-0" viewBox="7088.04 -5425.04 1058.34 1058.33">
 <path class="fil0" d="M8146.38 -4895.88c0,292.24 -236.93,529.17 -529.17,529.17 -292.24,0 -529.17,-236.93 -529.17,-529.17 0,-292.24 236.93,-529.16 529.17,-529.16 292.24,0 529.17,236.92 529.17,529.16z"/>
</symbol>
<symbol id="Fm16-126-0" viewBox="5738.01 -21830.14 502.67 502.64">
 <path class="fil0" d="M6240.68 -21578.82c0,138.82 -112.54,251.32 -251.32,251.32 -138.82,0 -251.35,-112.5 -251.35,-251.32 0,-138.82 112.53,-251.32 251.35,-251.32 138.78,0 251.32,112.5 251.32,251.32z"/>
</symbol>
<symbol id="Fm113-116-0" viewBox="19041.11 -10847.78 77.19 77.19">
 <path class="fil4" d="M19118.3 -10770.59c0,0 -70.14,-15.1 -77.19,-77.19l77.19 77.19z"/>
</symbol>
<symbol id="Fm60-224-0" viewBox="3644 -17721.58 27.91 67.55">
 <path class="fil2" d="M3660.91 -17721.58c0,0 -24.49,54.39 11,53.34l-8.67 14.21c0,0 -19.27,-11.78 -19.23,-21.9 0,-10.16 16.9,-45.65 16.9,-45.65z"/>
</symbol>
<symbol id="Fm47-194-0" viewBox="5934.37 -19466.03 350.6 462.13">
 <path class="fil2" d="M6082.12 -19003.9c0,0 -14.54,-205.14 135.96,-383.04 150.49,-177.94 0,0 0,0 0,0 -158.93,129.68 -283.71,177.16 0,0 110.18,140.02 147.75,205.88z"/>
</symbol>
<symbol id="Fm26-148-0" viewBox="5779.22 -21112.06 130.04 164.82">
 <path class="fil2" d="M5779.22 -21080.56c0,0 103.15,66.25 115.25,133.32 0,0 33.48,-95.29 -0.32,-164.82l-114.93 31.5z"/>
</symbol>
<symbol id="Fm79-264-0" viewBox="6980.46 -19256.85 247.37 100.93">
 <path class="fil2" d="M6980.46 -19155.92c0,0 133.45,-77.82 204.54,-96.84l42.83 -4.09c0,0 -111.2,32.25 -247.37,100.93z"/>
</symbol>
<symbol id="Fm64-232-0" viewBox="3839.84 -17567.64 159.38 75.6">
 <path class="fil2" d="M3839.84 -17492.04c0,0 1.23,-0.53 3.52,-1.41 21.17,-8.47 131.17,-51.15 155.86,-34.32l-59.55 -39.87 -99.83 75.6z"/>
</symbol>
<symbol id="Fm57-216-0" viewBox="3715.86 -17526.55 72.14 94.08">
 <path class="fil2" d="M3725.28 -17526.55c0,0 19.4,76.7 62.72,83.75 0,0 -16.54,32.35 -49.35,-17.46 -32.81,-49.81 -23.39,-39.02 -13.37,-66.29z"/>
</symbol>
<symbol id="Fm43-186-0" viewBox="6987.18 -19401.9 325.12 80.96">
 <path class="fil2" d="M7063.38 -19401.9c0,0 158.64,21.27 248.92,80.96l-56.34 -4.79c0,0 -110.38,-55.92 -173.71,-35.49l-95.07 13.05 76.2 -53.73z"/>
</symbol>
<symbol id="Fm112-114-0" viewBox="19669.83 -9738.91 2162.69 2189.72">
 <image x="19669.22" y="-9738.91" width="2163.3" height="2190.34" xlink:href="esfera-4-estrellas_Images\esfera-4-estrellas_ImgID2.png"/>
</symbol>
<symbol id="Fm111-104-0" viewBox="19355.35 -8667.51 502.67 502.64">
 <path class="fil0" d="M19355.35 -8416.19c0,-138.82 112.54,-251.32 251.32,-251.32 138.82,0 251.35,112.5 251.35,251.32 0,138.82 -112.53,251.32 -251.35,251.32 -138.78,0 -251.32,-112.5 -251.32,-251.32z"/>
</symbol>
<symbol id="Fm11-100-0" viewBox="5050.1 -20225.11 1181.81 1181.81">
 <path class="fil0" d="M6231.91 -19634.2c0,326.35 -264.55,590.9 -590.91,590.9 -326.35,0 -590.9,-264.55 -590.9,-590.9 0,-326.36 264.55,-590.91 590.9,-590.91 326.36,0 590.91,264.55 590.91,590.91z"/>
</symbol>
<symbol id="Fm76-258-0" viewBox="6498.59 -19653.59 43.08 190.22">
 <path class="fil2" d="M6498.59 -19463.37c0,0 37.89,-76.91 43.08,-164.65l-2.4 -25.57c0,0 1.97,53.62 -40.68,190.22z"/>
</symbol>
<symbol id="Fm7-244-0" viewBox="5676.92 -7153.55 502.68 502.64">
 <path class="fil0" d="M6179.6 -6902.23c0,138.82 -112.54,251.32 -251.32,251.32 -138.82,0 -251.36,-112.5 -251.36,-251.32 0,-138.82 112.54,-251.32 251.36,-251.32 138.78,0 251.32,112.5 251.32,251.32z"/>
</symbol>
<symbol id="Fm61-226-0" viewBox="3765.05 -17616.15 25.08 47.38">
 <path class="fil2" d="M3765.05 -17568.77c0,0 11.78,-10.58 10.34,-38.66 -1.45,-28.12 14.74,20.81 14.74,20.81l-25.08 17.85z"/>
</symbol>
<symbol id="Fm54-210-0" viewBox="7374.31 -18426.58 63.68 169.01">
 <path class="fil1" d="M7374.31 -18403.23c0,0 3.35,81.2 63.68,145.66 0,0 -49.29,-106.68 -38.07,-150.67 11.22,-44 -25.61,5.01 -25.61,5.01z"/>
</symbol>
<symbol id="Fm46-192-0" viewBox="6708.17 -19464.38 146.38 108.69">
 <path class="fil2" d="M6708.36 -19464.38c0,0 -11.47,136.17 146.19,103.68 0,0 -135.96,-50.98 -146.19,-103.68z"/>
</symbol>
<symbol id="Fm41-182-0" viewBox="7698.18 -20338.14 64.31 239.5">
 <path class="fil2" d="M7713.81 -20331.9c0,0 17.21,180.38 -15.63,233.26 0,0 60.64,-137.86 64.31,-239.5l-48.68 6.24z"/>
</symbol>
<symbol id="Fm39-176-0" viewBox="7591.13 -20348.81 425.98 47.03">
 <path class="fil2" d="M7591.13 -20313.18c0,0 47.02,-27.51 161.29,-34.92 114.26,-7.41 264.69,46.32 264.69,46.32 0,0 -206.8,-37.08 -425.98,-11.4z"/>
</symbol>
<symbol id="Fm17-128-0" viewBox="3028.88 -22956.83 3626.28 3041.35">
 <path class="fil5" d="M4535.05 -20899.89c-71.54,-26.63 -133.74,-49.78 -200.73,-74.72 -11.92,31.08 -20.14,59.2 -33.16,84.92 -21.38,42.4 -4.3,68.08 33.2,85.58 54.39,25.44 109.43,49.53 173,78.14 10.05,-63.15 18.8,-117.97 27.69,-173.92zm-39.33 224.9c-74.83,-34.89 -149.83,-69.89 -230.65,-107.6 -4.9,30.87 -12.45,57.47 -12.42,84.07 0,25.33 -0.81,63.92 13.9,73.62 61.67,40.54 129.05,72.43 199.85,110.46 10.97,-59.98 19.79,-108.48 29.32,-160.55zm581.23 -208.67c-71.61,8.47 -135.67,16.02 -199.7,23.56l0 188.04c78.56,-10.09 151.51,-19.48 226.06,-29.04 -9.95,-68.72 -17.71,-122.55 -26.36,-182.56zm264.69 -83.79c-79.3,27.27 -151.37,52.04 -217.31,74.72 12.98,60.86 24.48,114.73 37.57,176.25 66.96,-25.96 131.73,-48.86 194.14,-77.08 13.61,-6.14 28.61,-33.3 25.78,-47.27 -8.5,-42.16 -25.5,-82.55 -40.18,-126.62zm-176.74 299.37c6.28,53.06 12.77,107.81 20.29,171.2 51.85,-23.1 97.22,-39.61 139.03,-62.58 137.16,-75.46 118.25,-36.48 91.82,-187.04 -0.31,-1.76 -2.43,-3.21 -7.9,-10.06 -77.4,28.16 -156.95,57.08 -243.24,88.48zm-289.31 231.07c94.12,-16.05 179.81,-30.66 263.45,-44.94 -13.16,-65.48 -23.67,-117.58 -34.68,-172.26 -78.07,10.58 -152.36,20.63 -228.77,30.97l0 186.23zm-55.42 -233.19c0,-63.28 1.41,-113.48 -1.13,-163.47 -0.53,-10.48 -14.5,-27.87 -23.99,-29.11 -67.95,-9.03 -136.39,-14.67 -206.94,-21.62 -6.74,49.53 -15.1,93.03 -17.18,136.81 -0.67,13.68 13.44,38.41 24.34,40.64 71.47,14.46 143.86,24.13 224.9,36.75zm-3.99 232.59l0 -183.73c-91.51,-12.77 -178.4,-24.87 -271.29,-37.85 -6.03,55.39 -11.85,108.8 -18.66,171.42 99.84,17.28 192.05,33.23 289.95,50.16zm38.98 -1336.39c454.94,0 909.89,0 1364.83,0 16.9,0 37.25,5.85 49.99,-1.48 20.99,-12.07 37.04,-32.67 55.17,-49.71 -17.46,-15.66 -32.95,-35.03 -53.06,-45.68 -13.26,-7.02 -33.16,-1.56 -50.09,-1.56 -909.85,-0.03 -1819.73,-0.03 -2729.58,-0.03 -14.82,0 -29.67,0.6 -44.45,0.07 -41.84,-1.59 -49.71,26.1 -47.8,58.38 2.85,48.05 40.35,39.9 71.15,39.9 461.29,0.18 922.55,0.14 1383.84,0.11zm1213.98 -801.3c-11.15,13.3 -17.96,23.95 -27.13,31.93 -80.18,69.67 -160.41,139.31 -241.4,208.03 -33.59,28.5 -39.97,55.91 -18.42,98.14 33.69,65.97 58.56,136.42 90.31,212.55 130.18,-115.53 260.04,-230.79 389.12,-345.4 82.83,76.58 162.7,91.01 241.58,48.01 68.72,-37.5 102.59,-111.41 84.59,-193.22 -26.38,-119.98 -118.46,-140.09 -228.63,-136.73 17.43,-111.8 -11.25,-197.07 -125.02,-231 -80.93,-24.13 -161.61,-0.64 -209.2,76.27 -51.33,82.9 -33.02,165.1 44.2,231.42zm-2245.15 559.26c27.06,-72.36 43.57,-140.9 77.08,-199.78 40.04,-70.41 6.5,-104.14 -42.72,-145.2 -83.01,-69.29 -161.46,-144.04 -241.23,-215.94 67.91,-108.13 85.41,-186.23 46.89,-232.66 -64.24,-77.43 -120.12,-109.92 -219.82,-80.08 -111.55,33.38 -134.27,121.08 -118.25,229.73 -32.42,0 -57.61,-2.33 -82.23,0.43 -84.92,9.45 -141.68,65.29 -148.42,146.4 -5.99,72.81 4.24,137.76 78.46,177.73 78,41.98 147.89,31.64 219.29,-15.42 14.6,-9.66 46.81,-9.31 61.1,0.57 33.97,23.53 61.74,55.95 92.71,84.03 90.98,82.48 182.28,164.6 277.14,250.19zm-85.93 1523.47c-94.44,-82.55 -192.09,-110.56 -295.35,-14.71 -56.51,52.46 -56.66,119.87 -34.15,180.8 35.49,96.09 121.85,117.72 215.41,114.61 6.95,143.62 40.99,202.75 131.13,229.77 68.54,20.53 161.32,-6.88 201.11,-59.48 48.19,-63.64 39.97,-161.01 -22.12,-252.34 53.24,-46.78 103.23,-98.43 160.8,-139.38 70.66,-50.28 94.58,-113.92 93.45,-198.05 -0.85,-62.27 11.93,-125.31 24.24,-186.91 8.01,-40.07 26.07,-78.14 39.65,-117.12 -3.67,-1.76 -7.34,-3.53 -11.01,-5.33 -165.2,147.15 -330.44,294.29 -503.16,448.14zm2000.32 202c-108.24,156.31 -64.21,188.38 -14.61,259.71 36.23,52.11 123.72,72.68 190.29,52.14 90.7,-27.97 129.72,-92.71 136.24,-230.64 101.71,10.16 182.99,-25.93 219.61,-124.81 27.23,-73.56 -3.53,-153.57 -72.75,-197.67 -96.23,-61.34 -183.72,-28.99 -263.03,42.55 -170.42,-152.97 -338.06,-303.46 -504.58,-452.9 22.72,130.5 42.8,258.24 68.48,384.88 6.81,33.62 24.41,70.17 48.29,94.2 59.91,60.29 126.23,114.22 192.06,172.54zm-1498.11 -282.54c-1.3,112.68 18.03,206.2 61.56,297.78 43.46,91.51 108.55,159.1 195.23,204.29 183.34,95.64 378.39,97.26 573.47,49.5 253.37,-62.02 386.72,-305.76 362.09,-523.7 -399.27,204.47 -795.26,214.56 -1192.35,-27.87zm-254.32 -1651.28l1713.69 0c-135.39,-279.33 -426.01,-489.38 -788.84,-506.87 -405.21,-19.55 -717.55,140.4 -924.85,506.87zm1816.6 510.75l-1905.29 0c0,18.27 -4.23,34.36 0.67,46.85 40.86,103.93 77.23,210.25 126.83,309.95 71.89,144.46 189.19,247.79 331.4,321.94 208.14,108.52 430.56,131.59 659.3,98.43 197.91,-28.72 378.78,-99.06 517.14,-250.83 58.35,-63.99 119.24,-129.29 160.94,-204.04 54.29,-97.33 107.49,-199.22 109.01,-322.3zm-367.63 699.84c166.61,150 330.69,297.71 497.41,447.82 81.95,-52.07 168.67,-66.08 259.65,-33.38 79.02,28.4 114.51,98.22 140.54,168.35 41.39,111.44 -68.33,241.93 -234.2,282.71 -3,104.92 -50.7,181.83 -154.91,217.6 -97.22,33.37 -184.75,10.58 -257.88,-55.78 -61.67,-55.95 -79.59,-138.57 -53.48,-210.6 27.83,-76.7 10.27,-119.24 -50.8,-159.92 -28.86,-19.19 -53.27,-45.01 -84.42,-71.9 -44.45,145.84 -99.38,280.15 -227.51,367.21 -154.27,104.85 -328.79,129.4 -508.63,115.47 -326.92,-25.37 -503.35,-190.47 -575.91,-491.57 -44.63,37.05 -87.95,72.01 -130.14,108.34 -28.75,24.73 -38.84,48.55 -22.47,91.94 49.35,130.98 -7.31,249.38 -135.65,303.17 -103.4,43.33 -265.74,-6.28 -303.31,-121 -10.02,-30.58 -24.1,-59.83 -40.68,-100.4 -58.21,-19.51 -124.95,-41.63 -175.33,-108.94 -98.78,-131.9 -2.96,-314.32 134.55,-347.98 67.1,-16.44 128.87,-9.66 189.69,23.57 14.88,8.15 44.31,12.2 54.25,3.49 163.24,-142.31 324.38,-287.02 479.61,-425.48 -78.96,-90.67 -156.85,-176.68 -230.47,-266.18 -35.14,-42.72 -70.88,-88.65 -90.95,-139.24 -33.76,-85.02 -53.37,-175.54 -83.5,-262.15 -5.86,-16.82 -32.39,-37 -49.92,-37.53 -114.26,-3.39 -228.95,2.72 -342.86,-4.48 -35.42,-2.26 -83.37,-27.77 -100.23,-57.15 -41.27,-71.93 8.26,-145.31 93.38,-147.04 107.95,-2.15 216.01,-0.18 324.03,0.04 20.49,0.03 41.03,0 81.21,0 -64.38,-61.11 -115.08,-110.81 -167.5,-158.61 -64.7,-59.06 -132.22,-115.04 -195.72,-175.33 -30.2,-28.68 -51.51,-43.15 -96.31,-18.7 -84,45.86 -202.57,25.19 -265.78,-35.17 -79.45,-75.89 -104.29,-171.35 -60.05,-269.28 38.35,-84.91 112.86,-125.73 207.72,-135.85 1.59,-119.98 67.24,-193.36 174.55,-226.98 91.48,-28.65 179.43,-5.96 244.09,63.57 84.74,91.12 97.97,194.59 16.23,297.57 92.67,83.01 181.01,162.17 269.77,241.69 425.24,-596.69 1307,-606.25 1762.3,0.21 87.31,-77.61 174.31,-154.91 263.42,-234.1 -72.75,-100.69 -67.77,-198.94 12.73,-290.55 66.5,-75.67 155.65,-97.76 247.86,-70.66 106.93,31.39 172.69,107.13 177.63,212.3 54.57,29.38 108.83,46.99 147.67,81.84 88.94,79.84 106.43,217.49 41.49,296.3 -89.93,109.11 -204.61,132.22 -320.78,72.92 -30.24,-15.45 -46.82,-14.5 -70.38,6.88 -114.37,103.89 -229.98,206.44 -344.77,309.88 -3.92,3.56 -3.67,11.75 -7.48,25.15 16.54,2.47 31.5,6.6 46.53,6.67 118.57,0.7 237.17,0.14 355.78,0.95 68.44,0.5 110.38,36.02 112.96,93.35 2.57,56.62 -44.07,104.24 -110.39,105.48 -120.68,2.18 -241.44,0.6 -362.12,0.95 -12.35,0.03 -24.7,2.5 -39.48,4.09 -44.59,297.92 -200.8,525.89 -441.04,706.44z"/>
 <path class="fil6" d="M4846.88 -21021.54c63.14,0.81 104.95,-29.63 103.32,-75.28 -1.48,-42.33 -44.06,-72.57 -101.63,-72.18 -52.67,0.39 -100.01,35.1 -100.4,73.7 -0.46,43.39 39.16,72.99 98.71,73.76zm-647.21 -401.07c3.53,126.86 122.84,268.43 265.92,266.21 137.59,-2.12 269.6,-127.71 267.55,-257.11 -2.01,-129.12 -141.57,-255.69 -280.35,-253.33 -141.18,2.4 -251.43,119.91 -253.12,244.23zm1033.14 -238.09c-147.7,-6.28 -268.57,125.2 -266.55,244.51 2.36,141.22 114.19,254.71 283.06,256.22 132.75,1.24 251.29,-136.98 250.41,-262.85 -0.85,-114.51 -127.25,-246.38 -266.92,-237.88zm569.74 -52.95c-1.55,123.08 -54.72,224.96 -109.01,322.33 -41.7,74.75 -102.59,140.02 -160.94,204.01 -138.35,151.77 -319.22,222.15 -517.13,250.83 -228.74,33.19 -451.17,10.12 -659.31,-98.43 -142.2,-74.15 -259.5,-177.48 -331.4,-321.94 -49.6,-99.7 -86.01,-206.02 -126.82,-309.95 -4.91,-12.49 -0.67,-28.54 -0.67,-46.85l1905.28 0z"/>
 <path class="fil7" d="M4572.95 -22406.78c-25.15,44.87 -43.71,72.53 -55.24,102.87 -2.51,6.56 20.17,22.68 31.25,34.43 19.93,-27.3 41.81,-53.51 58.21,-82.76 3.32,-5.93 -14.11,-23.42 -34.22,-54.54zm664.77 1.02c-12.48,15.39 -27.48,26.6 -25.64,32.78 12.84,43.14 28.43,85.55 45.96,126.96 1.24,2.93 36.73,-3.88 36.69,-5.85 -0.49,-31.79 0.71,-65.13 -8.82,-94.73 -6.7,-20.84 -29.06,-36.65 -48.19,-59.16zm-748.48 11.89c-7.55,-13.86 -10.52,-27.51 -17.47,-30.02 -9.49,-3.46 -27.44,-2.64 -32.45,3.67 -34.43,43.6 -67.31,88.51 -98.22,134.69 -4.62,6.88 0.08,28.01 7.13,32.84 10.41,7.13 35.35,11.93 39.27,6.67 35.77,-47.98 68.33,-98.35 101.74,-147.85zm909.25 -75c-18.63,10.02 -33.27,13.34 -34.72,19.62 -2.82,12.52 -2.29,28.89 3.78,39.83 28.89,52.07 58.59,103.89 91.61,153.38 8.26,12.39 29.95,15.81 45.44,23.36 5.65,-16.16 17.82,-33.38 15.45,-48.26 -4.2,-26.32 -12.45,-54.61 -27.62,-76.03 -27.9,-39.47 -62.05,-74.57 -93.94,-111.9zm-1011.38 1.87c-8.26,-10.41 -14.29,-25.5 -23.11,-27.37 -12.28,-2.61 -31.33,0.21 -39.33,8.53 -44.56,46.43 -89.19,93.31 -127.99,144.43 -10.41,13.72 -0.57,42.83 -0.04,64.91 18.35,-8.68 41.03,-13.16 54.26,-26.81 40.25,-41.45 77.12,-86.29 114.72,-130.32 7.87,-9.17 13.3,-20.46 21.49,-33.37zm-401.15 242.61c207.3,-366.47 519.65,-526.42 924.85,-506.87 362.83,17.49 653.45,227.54 788.84,506.87l-1713.69 0z"/>
 <path class="fil6" d="M4240.28 -20573.12c397.05,242.43 793.08,232.34 1192.35,27.9 24.62,217.95 -108.73,461.68 -362.09,523.67 -195.09,47.76 -390.17,46.14 -573.51,-49.5 -86.68,-45.19 -151.73,-112.78 -195.23,-204.29 -43.5,-91.58 -62.86,-185.1 -61.52,-297.78z"/>
 <path class="fil6" d="M5738.39 -20290.56c-65.87,-58.35 -132.19,-112.25 -192.09,-172.54 -23.88,-24.06 -41.45,-60.61 -48.3,-94.23 -25.64,-126.61 -45.72,-254.39 -68.43,-384.88 166.51,149.47 334.15,299.97 504.57,452.89 79.27,-71.54 166.8,-103.85 263.03,-42.54 69.18,44.13 99.95,124.14 72.71,197.7 -36.58,98.88 -117.9,134.97 -219.6,124.77 -6.49,137.98 -45.51,202.67 -136.21,230.65 -66.6,20.57 -154.06,0 -190.29,-52.14 -49.6,-71.33 -93.63,-103.36 14.61,-259.68z"/>
 <path class="fil6" d="M3738.06 -20492.58c172.72,-153.85 337.93,-300.99 503.13,-448.1 3.71,1.77 7.37,3.53 11.04,5.29 -13.58,38.99 -31.64,77.05 -39.65,117.13 -12.31,61.59 -25.08,124.63 -24.23,186.9 1.12,84.14 -22.79,147.78 -93.46,198.05 -57.57,40.96 -107.56,92.6 -160.79,139.38 62.09,91.37 70.31,188.7 22.12,252.34 -39.83,52.6 -132.58,80.01 -201.16,59.48 -90.1,-26.99 -124.14,-86.15 -131.09,-229.76 -93.56,3.1 -179.92,-18.52 -215.4,-114.62 -22.51,-60.93 -22.37,-128.34 34.14,-180.8 103.26,-95.85 200.91,-67.84 295.35,14.71z"/>
 <path class="fil6" d="M3823.98 -22016.04c-94.86,-85.58 -186.16,-167.71 -277.1,-250.19 -30.98,-28.08 -58.74,-60.5 -92.75,-84.03 -14.29,-9.91 -46.46,-10.23 -61.1,-0.57 -71.37,47.07 -141.29,57.4 -219.25,15.42 -74.23,-39.97 -84.49,-104.91 -78.46,-177.73 6.7,-81.1 63.5,-136.95 148.38,-146.44 24.62,-2.71 49.81,-0.38 82.27,-0.38 -16.02,-108.66 6.66,-196.36 118.21,-229.73 99.7,-29.85 155.58,2.64 219.82,80.08 38.52,46.42 21.06,124.53 -46.89,232.65 79.77,71.9 158.22,146.65 241.23,215.94 49.25,41.06 82.76,74.79 42.72,145.2 -33.47,58.88 -50.02,127.43 -77.08,199.78z"/>
 <path class="fil6" d="M6069.16 -22575.3c-77.22,-66.32 -95.53,-148.52 -44.24,-231.42 47.63,-76.91 128.27,-100.4 209.2,-76.27 113.8,33.93 142.45,119.2 125.06,231 110.17,-3.36 202.21,16.75 228.63,136.73 17.99,81.81 -15.91,155.72 -84.63,193.22 -78.84,43 -158.75,28.57 -241.55,-48.01 -129.11,114.61 -258.97,229.87 -389.11,345.4 -31.75,-76.13 -56.66,-146.58 -90.35,-212.55 -21.55,-42.23 -15.17,-69.64 18.45,-98.14 81,-68.72 161.22,-138.36 241.37,-208.03 9.18,-7.98 15.99,-18.63 27.17,-31.93z"/>
 <path class="fil7" d="M4855.17 -21773.99c-461.29,0 -922.58,0.07 -1383.84,-0.1 -30.83,0 -68.3,8.11 -71.15,-39.9 -1.91,-32.28 5.96,-59.97 47.8,-58.42 14.78,0.56 29.6,-0.04 44.41,-0.04 909.89,0 1819.77,0 2729.62,0 16.93,0 36.83,-5.43 50.09,1.59 20.11,10.65 35.6,30.02 53.03,45.68 -18.1,17.01 -34.15,37.65 -55.14,49.71 -12.74,7.3 -33.09,1.48 -50.03,1.48 -454.9,0 -909.85,0 -1364.79,0z"/>
 <path class="fil6" d="M4816.17 -20437.61c-97.86,-16.93 -190.08,-32.87 -289.95,-50.16 6.84,-62.62 12.66,-116.03 18.66,-171.42 92.89,12.99 179.78,25.09 271.29,37.86l0 183.72z"/>
 <path class="fil6" d="M4820.17 -20670.21c-81.04,-12.63 -153.46,-22.29 -224.9,-36.76 -10.9,-2.22 -25.01,-26.95 -24.34,-40.64 2.08,-43.77 10.44,-87.27 17.18,-136.8 70.55,6.95 138.96,12.63 206.94,21.62 9.49,1.27 23.46,18.63 23.99,29.14 2.54,49.99 1.13,100.16 1.13,163.44z"/>
 <path class="fil6" d="M4875.58 -20437.02l0 -186.23c76.41,-10.34 150.74,-20.39 228.78,-30.94 11,54.65 21.52,106.75 34.68,172.26 -83.61,14.25 -169.34,28.86 -263.46,44.91z"/>
 <path class="fil6" d="M5164.9 -20668.07c86.29,-31.4 165.87,-60.36 243.24,-88.48 5.47,6.85 7.62,8.29 7.9,10.06 26.42,150.56 45.33,111.58 -91.83,187 -41.8,23 -87.17,39.51 -139.03,62.62 -7.51,-63.39 -14,-118.14 -20.28,-171.2z"/>
 <path class="fil6" d="M5341.65 -20967.46c14.67,44.06 31.68,84.49 40.18,126.61 2.82,14.01 -12.17,41.14 -25.79,47.31 -62.41,28.19 -127.18,51.08 -194.13,77.05 -13.09,-61.53 -24.59,-115.4 -37.57,-176.22 65.93,-22.68 138,-47.48 217.31,-74.75z"/>
 <path class="fil6" d="M5076.94 -20883.66c8.68,60.01 16.44,113.84 26.35,182.56 -74.5,9.57 -147.46,18.95 -226.06,29.04l0 -188.03c64.07,-7.55 128.1,-15.1 199.71,-23.57z"/>
 <path class="fil6" d="M4495.7 -20674.98c-9.49,52.04 -18.34,100.54 -29.28,160.55 -70.84,-38.03 -138.18,-69.92 -199.85,-110.49 -14.74,-9.67 -13.9,-48.3 -13.93,-73.59 -0.04,-26.6 7.51,-53.2 12.42,-84.1 80.82,37.71 155.85,72.71 230.64,107.63z"/>
 <path class="fil6" d="M4535.05 -20899.89c-8.89,55.95 -17.64,110.77 -27.69,173.92 -63.57,-28.61 -118.61,-52.7 -173,-78.14 -37.5,-17.5 -54.58,-43.18 -33.2,-85.58 13.02,-25.72 21.24,-53.84 33.16,-84.92 66.99,24.94 129.19,48.09 200.73,74.72z"/>
 <path class="fil5" d="M5232.83 -21660.7c139.63,-8.53 266.07,123.37 266.88,237.88 0.92,125.84 -117.65,264.09 -250.37,262.86 -168.87,-1.56 -280.7,-115.01 -283.1,-256.23 -2.01,-119.31 118.85,-250.79 266.59,-244.51z"/>
 <path class="fil5" d="M4199.66 -21422.6c1.73,-124.35 111.97,-241.83 253.12,-244.23 138.78,-2.36 278.38,124.22 280.39,253.33 2.01,129.37 -130,254.99 -267.58,257.11 -143.09,2.22 -262.4,-139.39 -265.93,-266.21z"/>
 <path class="fil5" d="M4846.88 -21021.54c-59.55,-0.77 -99.17,-30.37 -98.71,-73.76 0.39,-38.6 47.73,-73.31 100.4,-73.7 57.57,-0.39 100.15,29.85 101.63,72.18 1.63,45.65 -40.18,76.09 -103.32,75.28z"/>
 <path class="fil5" d="M4387.1 -22466.99c-8.18,12.91 -13.61,24.17 -21.48,33.38 -37.61,44.02 -74.44,88.82 -114.69,130.31 -13.26,13.65 -35.95,18.13 -54.29,26.78 -0.53,-22.05 -10.37,-51.16 0.07,-64.91 38.77,-51.12 83.4,-97.97 127.95,-144.4 8.01,-8.32 27.06,-11.14 39.34,-8.57 8.82,1.87 14.85,16.97 23.1,27.41z"/>
 <path class="fil5" d="M5398.47 -22468.86c31.89,37.33 66.04,72.39 93.98,111.9 15.13,21.38 23.42,49.71 27.62,76.03 2.36,14.88 -9.84,32.1 -15.45,48.26 -15.52,-7.55 -37.18,-10.97 -45.44,-23.36 -33.05,-49.49 -62.72,-101.31 -91.62,-153.42 -6.06,-10.9 -6.59,-27.27 -3.77,-39.79 1.41,-6.28 16.05,-9.6 34.68,-19.62z"/>
 <path class="fil5" d="M4489.23 -22393.86c-33.38,49.49 -65.94,99.87 -101.71,147.85 -3.95,5.25 -28.89,0.45 -39.26,-6.67 -7.06,-4.84 -11.79,-25.97 -7.17,-32.85 30.91,-46.17 63.79,-91.08 98.22,-134.69 5.01,-6.31 22.96,-7.12 32.45,-3.67 6.99,2.51 9.92,16.16 17.47,30.03z"/>
 <path class="fil5" d="M5237.72 -22405.77c19.15,22.51 41.48,38.31 48.19,59.16 9.56,29.63 8.32,62.94 8.82,94.72 0.03,1.98 -35.46,8.82 -36.69,5.89 -17.54,-41.45 -33.13,-83.85 -45.97,-127 -1.83,-6.17 13.16,-17.35 25.65,-32.77z"/>
 <path class="fil5" d="M4572.95 -22406.78c20.11,31.12 37.54,48.61 34.22,54.54 -16.4,29.25 -38.28,55.46 -58.21,82.76 -11.08,-11.75 -33.76,-27.87 -31.25,-34.43 11.53,-30.34 30.09,-58 55.24,-102.87z"/>
 <path class="fil8" d="M3965.26 -22186.58c0,0 -84.21,179.39 -69.71,262.22l1906.98 0c0,0 -36.48,-201.85 -75.42,-262.22l-1761.85 0z"/>
</symbol>
<symbol id="Fm103-86-0" viewBox="20160.28 -27559.48 189.58 184.63">
 <path class="fil9" d="M20297.86 -27411.86c0,0 -26.59,-2.11 -15.84,-36.44 10.76,-34.32 -34.25,-37.6 -43.42,-17.25 -9.21,20.32 -43.96,5.33 -33.66,-18.31 10.3,-23.67 47.1,-68.12 8.26,-74.68 -38.88,-6.53 -52.18,23.39 -52.18,23.39 0,0 -9.91,69.57 43.22,151.41l54.36 8.89 91.26 -24.87c0,0 -9.31,-10.27 -52,-12.14z"/>
</symbol>
<symbol id="Fm1-76-0" viewBox="7229.16 -8123.79 1605.13 1605.13">
 <path class="fil0" d="M8834.29 -7321.23c0,443.23 -359.34,802.57 -802.57,802.57 -443.23,0 -802.56,-359.34 -802.56,-802.57 0,-443.23 359.33,-802.56 802.56,-802.56 443.23,0 802.57,359.33 802.57,802.56z"/>
</symbol>
<symbol id="Fm78-262-0" viewBox="6681.23 -19435.42 7.62 75.03">
 <polygon class="fil2" points="6688.85,-19360.39 6687.51,-19416.97 6681.23,-19435.42 "/>
</symbol>
<symbol id="Fm74-254-0" viewBox="7670.12 -18652.28 393.41 230.62">
 <path class="fil2" d="M7676.54 -18421.67c0,0 117.47,0.6 130.07,-26.07 12.63,-26.71 103.36,-151.31 163.58,-139.42 60.18,11.85 93.34,-6.81 93.34,-6.81l-30.97 -39.26 -108.87 -19.05 -140.97 128.97 -112.6 35.21 6.42 66.43z"/>
</symbol>
<symbol id="Fm35-168-0" viewBox="5966.67 -21305.29 646.47 218.08">
 <path class="fil2" d="M5966.67 -21169.19c0,0 284.27,82.48 423.3,43.22 0,0 175.65,-3.1 222.99,-179.32 0,0 7.69,88.34 -78.32,158.15 -85.97,69.85 -0.46,5.33 -0.46,5.33 0,0 -153.49,47.59 -210.64,51.93 -57.12,4.3 -250.79,14.78 -356.87,-79.31z"/>
</symbol>
<symbol id="Fm25-146-0" viewBox="7802.64 -18387.22 133.03 92.85">
 <path class="fil2" d="M7935.67 -18294.37c-35.28,-42.22 -133.03,-92.85 -133.03,-92.85l133.03 92.85z"/>
</symbol>
<symbol id="Fm4-178-0" viewBox="7229.16 -3978.66 1605.13 1605.14">
 <path class="fil0" d="M8834.29 -3176.09c0,443.23 -359.34,802.57 -802.57,802.57 -443.23,0 -802.56,-359.34 -802.56,-802.57 0,-443.23 359.33,-802.57 802.56,-802.57 443.23,0 802.57,359.34 802.57,802.57z"/>
</symbol>
<symbol id="Fm24-144-0" viewBox="5892.14 -21923.25 271.61 111.09">
 <path class="fil2" d="M5892.14 -21812.16c0,0 159.28,-106.82 271.61,-16.68 0,0 -47.77,-115.29 -134.91,-91.06 -87.1,24.24 -136.7,107.74 -136.7,107.74z"/>
</symbol>
<symbol id="Fm104-88-0" viewBox="20933.99 -9187.82 1605.14 1605.14">
 <path class="fil0" d="M20933.99 -8385.25c0,-443.23 359.3,-802.57 802.57,-802.57 443.23,0 802.57,359.34 802.57,802.57 0,443.23 -359.34,802.57 -802.57,802.57 -443.27,0 -802.57,-359.34 -802.57,-802.57z"/>
</symbol>
<symbol id="Fm10-78-0" viewBox="7290.24 -22800.38 1605.14 1605.13">
 <path class="fil0" d="M8895.38 -21997.81c0,443.26 -359.34,802.56 -802.57,802.56 -443.23,0 -802.57,-359.3 -802.57,-802.56 0,-443.23 359.34,-802.57 802.57,-802.57 443.23,0 802.57,359.34 802.57,802.57z"/>
</symbol>
<symbol id="Fm70-246-0" viewBox="6496.57 -16760.81 258.26 229.16">
 <path class="fil2" d="M6711.77 -16760.81c0,0 -190.15,52.42 -215.2,229.16 0,0 102.84,-129.82 181.9,-167.53 79.02,-37.72 76.34,-42.62 76.34,-42.62l-43.04 -19.01z"/>
</symbol>
<symbol id="Fm68-240-0" viewBox="6742.66 -16531 38.63 167.06">
 <path class="fil2" d="M6742.66 -16531c0,0 17.96,78.32 16.83,90.42 -1.13,12.1 -2.97,52.49 -2.97,52.49 0,0 -5.18,30.44 1.45,22.97 6.6,-7.45 23.32,-78.71 23.32,-78.71l-38.63 -87.17z"/>
</symbol>
<symbol id="Fm3-156-0" viewBox="8671.49 -8158.27 1325.17 1325.17">
 <path class="fil0" d="M9996.66 -7495.68c0,365.93 -296.65,662.58 -662.59,662.58 -365.93,0 -662.58,-296.65 -662.58,-662.58 0,-365.94 296.65,-662.59 662.58,-662.59 365.94,0 662.59,296.65 662.59,662.59z"/>
</symbol>
<symbol id="Fm108-96-0" viewBox="16700.65 -12944.9 1605.14 1605.14">
 <path class="fil0" d="M16700.65 -12142.33c0,-443.23 359.34,-802.57 802.57,-802.57 443.23,0 802.57,359.34 802.57,802.57 0,443.23 -359.34,802.57 -802.57,802.57 -443.23,0 -802.57,-359.34 -802.57,-802.57z"/>
</symbol>
<symbol id="Fm107-94-0" viewBox="15538.29 -8485.32 1325.17 1325.17">
 <path class="fil0" d="M15538.29 -7822.73c0,-365.94 296.65,-662.59 662.58,-662.59 365.94,0 662.59,296.65 662.59,662.59 0,365.93 -296.65,662.58 -662.59,662.58 -365.93,0 -662.58,-296.65 -662.58,-662.58z"/>
</symbol>
<symbol id="Fm88-284-0" viewBox="7171.11 -20837.64 119.12 408.03">
 <path class="fil2" d="M7171.11 -20767.93c0,0 137.27,179.64 115.71,338.32 0,0 19.54,-208 -34.96,-296.66 0,0 -54.96,-98.1 -77.82,-111.37l-2.93 69.71z"/>
</symbol>
<symbol id="Fm81-270-0" viewBox="6773.85 -18949.66 77.47 103.14">
 <path class="fil2" d="M6773.85 -18949.66c0,0 51.93,63.32 66.36,65.58l11.11 37.08c0,0 -0.81,3.46 -10.4,-8.36 -9.6,-11.78 -67.07,-94.3 -67.07,-94.3z"/>
</symbol>
<symbol id="Fm72-250-0" viewBox="6516.09 -17120.25 28.34 108.76">
 <path class="fil2" d="M6522.12 -17120.25c0,0 30.48,90.1 20.18,108.76l-26.21 -74.26 6.03 -34.5z"/>
</symbol>
<symbol id="Fm62-228-0" viewBox="3711.08 -17712.68 39.44 10.66">
 <polygon class="fil2" points="3711.08,-17708.94 3750.52,-17702.02 3737.08,-17712.68 "/>
</symbol>
<symbol id="Fm100-80-0" viewBox="19449.18 -23819.67 2913.57 1467.54">
 <path class="fil5" d="M22016.26 -22613.26c-19.44,74.26 -37.89,148.76 -59.13,222.49 -4.09,14.11 -18.77,35.46 -29.25,35.85 -78.63,3.03 -157.4,1.65 -249.23,1.65 41.31,-230.29 43.64,-454.62 -0.57,-682.87l120.85 0 126.62 126.62 -19.18 201.99c4.69,1.27 9.38,2.51 14.04,3.78 4.23,-11.25 9.56,-22.23 12.45,-33.83 11.02,-43.87 22.1,-87.72 33,-131.63l343.91 343.91c-47.12,42.57 -38.87,98.76 20.74,125.68 12.21,5.5 21.55,17.43 32.24,26.39 -14.04,6.7 -27.87,18.62 -42.08,19.15 -59.37,2.19 -118.96,-1.16 -178.26,1.73 -36.87,1.84 -54.33,-7.62 -62.02,-46.95 -14.11,-72.15 -35.35,-142.88 -53.62,-214.25 -3.53,0.11 -7.02,0.18 -10.51,0.29z"/>
 <path class="fil5" d="M20707.38 -23112.61c11.08,-89.57 21.77,-175.86 32.46,-262.11 -76.88,71.26 -111.31,155.15 -87.88,260.98l-243.28 0c0.6,-52.32 -21.31,-106.01 32.56,-154.27 29.67,-26.53 45.69,-68.33 74.83,-90.2 32.49,-15.1 70.2,-24.59 95.25,-47.77 11.92,-11.01 9.38,-57.61 -3.88,-71.19 -20.22,-20.71 -55.42,-26.71 -84.28,-38.98 -3.39,5.22 -6.81,10.44 -10.2,15.63 -27.05,-52.29 -45.75,-111.87 -83.32,-154.98 -44.13,-50.69 -39.16,-102.62 -37.11,-162.98l255.58 0c-16.75,104.88 19.93,195.97 92.18,279.01 -10.51,-92.08 -21.02,-184.12 -31.96,-280.14l280.21 0c-37.85,234.42 -45.61,468.98 3.74,707l-284.9 0z"/>
 <path class="fil5" d="M21605.59 -23229.48c5.99,37.06 14.63,74.62 22.44,116.27l-233.11 0 16.21 -310.73 194.46 194.46z"/>
 <path class="fil5" d="M20007.42 -23819.21c22.4,168.77 34.54,207.43 98.29,282.36 -3.32,-46.67 -4.94,-93.56 -10.45,-139.95 -5.53,-46.32 -14.95,-92.14 -23.46,-142.87l284.2 0c-40.28,234.14 -48.72,468.45 4.24,706.61l-289.92 0c12.14,-68.3 22.79,-133.42 36.34,-197.91 1.87,-8.71 18.73,-14.07 28.29,-21.41 33.87,-25.93 41.77,-59.51 19.33,-94.72 -22.33,-35.03 -57.11,-45.23 -93.59,-22.72 -35.21,21.73 -47.98,57.15 -24.37,92.53 16.96,25.44 14.6,41.28 1.55,66.75 -14.11,27.59 -20.29,60.29 -24.73,91.47 -3.95,27.73 -0.85,56.45 -0.85,87.35l-219.32 0c22.19,-42.93 36.93,-86.53 -8.43,-116.24 40.21,-63.92 79.51,-123.61 115.18,-185.45 6.84,-11.89 4.52,-34.96 -2.58,-47.98 -42.58,-78.46 -92.46,-153.28 -129.92,-234 -15.91,-34.25 -7.59,-79.76 -10.52,-123.82l250.72 0z"/>
 <path class="fil5" d="M21058.72 -22496.65l0 -134.58c-60.36,-0.85 -74.75,11 -77.05,59.93 -2.57,55.07 13.06,71.48 77.05,74.65zm-24.76 -540.53l271.46 0c-40.25,227.58 -42.97,451.98 -0.35,673.32 -149.37,0 -288.93,5.89 -427.61,-2.51 -68.75,-4.2 -108.33,-68.33 -113.63,-144.39 -7.09,-102.48 17.29,-151.17 95.54,-183.13 35.27,-14.43 64.38,-37.11 54.75,-74.79 -6.35,-24.73 -31.93,-54.11 -55.42,-62.05 -21.13,-7.16 -51.19,12.07 -79.77,20.32 -11.81,-69.21 -24.76,-144.99 -38.66,-226.38l243.84 0c2.26,64.21 4.83,127.78 6.67,191.38 1.23,42.37 11.14,75.78 75.84,69.04 -10.69,-85.51 -21.3,-170.07 -32.66,-260.81z"/>
 <path class="fil5" d="M19449.18 -23709.59l0 -109.08 276.57 0c-8.43,49.04 -16.51,96.31 -24.76,143.55 -0.92,5.22 -4.23,10.3 -4.2,15.45 1.62,134.44 3.63,268.89 5.19,403.37 0.1,10.69 1.06,25.15 -5.05,31.57 -33.37,35.21 -26.99,70.94 -1.51,112.08l-245.33 0c9.53,-151.59 18.95,-301.73 28.76,-457.34 42.61,-9.95 90.45,-28.54 75.81,-92.25 -12.21,-53.1 -54.75,-60.36 -105.48,-47.35z"/>
 <path class="fil5" d="M21295.18 -23539.89c-0.27,32.57 -0.27,65.13 0.52,97.69 0.78,31.29 -1.41,54.4 -35.49,74.04 -46.99,27.13 -36.97,94.76 12.85,117.73 12.7,5.85 27.12,8.04 45.47,13.26l0 64.03 0 61.14 -206.94 0c35.24,-77.54 29.1,-97.44 -40.29,-137.02 0,-128.24 3.18,-255.8 -1.37,-383.05 -1.86,-51.45 -14.38,-102.52 -25.19,-158.26l250.44 250.44z"/>
 <path class="fil5" d="M19858.95 -22459.02c48.64,2.71 91.33,-6.07 97.61,-61.49 5.86,-51.72 -28.26,-73.84 -78.63,-82.41 0,-25.29 1.44,-50.34 -0.25,-75.18 -6.99,-101.14 -15.07,-202.21 -22.3,-303.35 -1.23,-17.46 -0.17,-35.1 -0.17,-55.63l266.73 0c-43.14,227.68 -45.65,453.07 0.64,681.25l-263.63 0 0 -103.19z"/>
 <path class="fil5" d="M21360.77 -22954.26l0 -82.27 266.28 0c-9.6,51.4 -22.08,96.91 -25.79,143.13 -5.15,64.34 -3.77,129.22 -5.01,193.88 -0.95,48.26 8.36,93.91 -42.3,133 -44.37,34.25 -11.95,92.18 61.78,114.83l0 95.74c-13.06,1.1 -23.46,2.65 -33.84,2.68 -71.72,0.22 -143.4,0.11 -229.58,0.11 8.18,-51.51 16.01,-97.12 22.5,-142.95 3.46,-24.69 6.07,-49.67 6.53,-74.57 1.02,-53.98 0.74,-108.02 0.35,-162 -0.24,-37.11 -0.74,-68.08 37.5,-96.27 51.44,-37.89 21.52,-99.17 -58.42,-125.31z"/>
 <path class="fil5" d="M20419.08 -22723.34c10.62,59.66 20.53,115.22 30.41,170.78 3.64,-0.46 7.27,-0.95 10.9,-1.44 8.65,-55.43 17.29,-110.88 26.43,-169.34l-67.74 0zm83.36 -140.65l0 -42.4c74.19,-23.78 84.18,-45.76 59.69,-130.99l161.08 0c-12.42,59.83 -24.16,113.77 -34.71,167.99 -20.92,107.71 -41.31,215.55 -61.7,323.36 -11.71,61.84 -23.04,123.72 -35.17,189.09l-214.88 0c5.04,-93.7 -23.6,-122.73 -110.81,-103.79 -20.21,-97.86 -38.49,-196.18 -61.42,-293.44 -13.37,-56.69 -38.03,-110.84 -50.16,-167.71 -7.59,-35.67 -1.41,-74.26 -1.41,-114.94l272.62 0c-7.69,58.49 -15.02,114.2 -22.75,172.83l99.62 0z"/>
</symbol>
<symbol id="Fm98-314-0" viewBox="15354.67 -28295.6 1058.34 1058.33">
 <path class="fil0" d="M15354.67 -27766.43c0,-292.24 236.93,-529.17 529.17,-529.17 292.24,0 529.17,236.93 529.17,529.17 0,292.24 -236.93,529.16 -529.17,529.16 -292.24,0 -529.17,-236.92 -529.17,-529.16z"/>
</symbol>
<symbol id="Fm90-290-0" viewBox="6093.17 -19206.14 349.35 65.12">
 <path class="fil2" d="M6093.17 -19141.02c0,0 295.02,-8.43 349.35,-65.12 0,0 -84.56,45.19 -346.67,49.7l-2.68 15.42z"/>
</symbol>
<symbol id="Fm89-286-0" viewBox="5892.37 -20554.23 649.18 393.7">
 <path class="fil10" d="M5892.37 -20266.43c0,0 513.12,-26.74 635.67,-287.8 0,0 23.92,80.54 8.08,145.7 0,0 -7.51,115.99 -310.09,216.88 0,0 -156.35,70.7 -253.36,-1.05 0,0 -74.16,-45.72 -80.3,-73.73z"/>
</symbol>
<symbol id="Fm84-276-0" viewBox="6992.51 -19107.93 238.34 401.53">
 <path class="fil2" d="M7230.85 -19107.93c0,0 -156.43,316.27 -238.34,401.53l61.35 -21.27c0,0 92.32,-60.71 97.68,-59.8 5.36,0.96 28.54,-209.37 79.31,-320.46z"/>
</symbol>
<symbol id="Fm77-260-0" viewBox="6542.89 -19682.56 35.2 205.04">
 <path class="fil2" d="M6578.09 -19650.21c0,0 -3.45,111.97 -35.2,172.69 0,0 34.64,-102.63 30.16,-205.04l5.04 32.35z"/>
</symbol>
<symbol id="Fm75-256-0" viewBox="6458.27 -19539.63 38.83 306.78">
 <path class="fil2" d="M6495.28 -19463.96c0,0 14.25,96.28 -37.01,231.11 0,0 44.1,-161.43 21.52,-266.35l-10.09 -40.43 25.58 75.67z"/>
</symbol>
<symbol id="Fm71-248-0" viewBox="6476.35 -16751.64 33.08 230.4">
 <path class="fil2" d="M6509.27 -16748.82c0,0 2.54,177.87 -13.02,227.58 0,0 -1.13,-182.03 -19.9,-230.4l32.92 2.82z"/>
</symbol>
<symbol id="Fm56-214-0" viewBox="3837.58 -17829.01 454.46 461.52">
 <path class="fil2" d="M3837.58 -17370.9c0,0 42.79,-5.86 111.97,-71.62 69.18,-65.79 94.65,-121.85 94.65,-121.85l100.4 -134.41c0,0 129.69,-109.22 143.55,-125.62 13.86,-16.44 -13.86,16.4 -13.86,16.4l-17.15 31.75c0,0 -62.19,36.73 -114.62,104.53 -52.38,67.77 -140.4,186.62 -140.4,186.62 0,0 -96.42,141.08 -164.54,114.2z"/>
</symbol>
<symbol id="Fm48-196-0" viewBox="5880.92 -19209.78 481.96 458.61">
 <path class="fil1" d="M5934.36 -19209.78l40.61 52.7 83.46 173.11c0,0 60.65,106.86 165.92,160.58 105.3,53.77 138.53,72.22 138.53,72.22 0,0 -195.05,-45.48 -275.8,-141.78 -80.79,-96.31 -206.16,-301.56 -206.16,-301.56l53.44 -15.27z"/>
</symbol>
<symbol id="Fm42-184-0" viewBox="6235.51 -19469.25 232.7 304.09">
 <path class="fil2" d="M6235.62 -19469.04c-2.79,-8.26 51.26,236.68 232.59,303.88 0,0 -176.71,-138.61 -232.59,-303.88z"/>
</symbol>
<symbol id="Fm38-174-0" viewBox="7077.66 -20294.58 195.72 246.48">
 <path class="fil2" d="M7273.38 -20294.58c0,0 -109.5,182.56 -195.72,204.29 0,0 11.46,29.39 29.21,42.19 0,0 -9,-11.29 -2.12,-30.37 0,0 45.02,-17.67 60.75,-32.28 15.7,-14.64 81.39,-87.74 107.88,-183.83z"/>
</symbol>
<symbol id="Fm37-172-0" viewBox="6772.35 -20157.35 747.33 566.74">
 <path class="fil2" d="M6772.35 -20157.35c0,0 145.1,24.87 349.82,172.01 204.68,147.18 377.65,332.95 397.51,394.73 0,0 -99.87,-111.62 -164.82,-180.17 -64.91,-68.54 -328.47,-269.94 -440.69,-319.76 -112.22,-49.77 -141.82,-66.81 -141.82,-66.81z"/>
</symbol>
<symbol id="Fm34-166-0" viewBox="6191.43 -21932.03 353.35 469.73">
 <path class="fil2" d="M6191.43 -21932.03c0,0 36.93,110.84 60.36,214.63 15.59,69.08 25.19,135.01 13.93,163.09 0,0 61.53,-33.23 140.69,-11.04 79.16,22.22 121.57,103.05 121.57,103.05 8.61,-39.13 16.79,-195.48 16.79,-195.48 0.35,-43.11 -78.92,-45.08 -110.81,-74.96 -31.89,-29.88 -165.77,18.23 -165.77,18.23l-76.76 -217.52z"/>
</symbol>
<symbol id="Fm12-118-0" viewBox="8732.57 -22834.86 1325.18 1325.17">
 <path class="fil0" d="M10057.75 -22172.27c0,365.93 -296.66,662.58 -662.59,662.58 -365.94,0 -662.59,-296.65 -662.59,-662.58 0,-365.94 296.65,-662.59 662.59,-662.59 365.93,0 662.59,296.65 662.59,662.59z"/>
</symbol>
<symbol id="Fm9-288-0" viewBox="3056.91 -22412.33 1605.13 1605.14">
 <path class="fil0" d="M4662.04 -21609.76c0,443.27 -359.33,802.57 -802.56,802.57 -443.23,0 -802.57,-359.3 -802.57,-802.57 0,-443.23 359.34,-802.57 802.57,-802.57 443.23,0 802.56,359.34 802.56,802.57z"/>
</symbol>
<symbol id="Fm83-274-0" viewBox="6585.29 -18991.96 202.11 276.55">
 <path class="fil2" d="M6585.29 -18991.96c0,0 107.42,191.24 190.64,236.89l11.47 39.66 -8.47 -1.49c0,0 -146.69,-130.35 -193.64,-275.06z"/>
</symbol>
<symbol id="Fm82-272-0" viewBox="6339.36 -19019.93 235.94 31.41">
 <path class="fil2" d="M6365.78 -19018.8c0,0 93.28,29.07 209.52,17.74 0,0 -164.33,35.67 -235.94,-13.33l0.99 -5.54 25.43 1.13z"/>
</symbol>
<symbol id="Fm8-266-0" viewBox="3011.26 -7728.4 3260.61 1739.13">
 <path class="fil11" d="M3754.74 -6792.31c-60.78,60.79 -121.57,121.57 -197.87,197.88 289.45,62.02 557.31,119.38 837.1,179.31 -10.12,-25.89 -15.48,-40.92 -21.83,-55.56 -24.24,-56.12 -54.83,-110.35 -72.08,-168.56 -43.92,-148.23 1.94,-248.84 138.96,-321.52 85.66,-45.43 92.43,-64.52 29.21,-140.05 -29.63,-35.38 -70.98,-73.8 -113.17,-83.29 -92.43,-20.74 -188.74,-24.73 -283.63,-33.58 -24.87,-2.33 -50.45,2.5 -99.56,5.53 52.78,-90.62 88.9,-170.49 140.69,-238.47 212.55,-279.09 504.47,-350.52 822.29,-202.29 80.79,37.68 158.29,84.88 231.28,136.25 80.19,56.37 162.67,83.32 259.12,59.58 24.83,-6.1 49.67,-12.17 82.69,-20.28 -30.52,101.45 -78.21,143.93 -264.73,253.89 130,-6.67 200.06,-110.35 298.31,-162.6 38.24,143.13 -100.93,272.38 -439.7,414.2 52.39,13.05 143.16,-10.37 221.33,-57.93 106.37,-64.69 209.8,-134.86 319.44,-193.39 113.21,-60.36 318.88,-16.97 397.55,78.92 -23.11,6.45 -43.08,15.41 -63.68,17.18 -94.05,8.04 -171.27,48.96 -237.17,114.79 -161.33,161.26 -349.99,281.48 -560.63,368.44 2.32,6.04 4.65,12.1 7.02,18.14 71.05,-26.32 148.13,-42.69 211.84,-81.18 110.21,-66.53 212.05,-146.97 317.6,-221.3 51.9,-36.54 105.7,-70.55 156.14,-108.97 152.47,-116.17 301.52,-52.7 390.04,77.93 -233.58,84.84 -407.78,257.7 -603.18,399.59 -202.32,146.93 -431.49,226.84 -686.76,256.72 19.05,10.12 37.29,22.4 57.29,29.98 315.04,119.28 592.49,55.32 835.06,-173.6 33.38,-31.5 66.26,-64.31 94.13,-100.57 14.04,-18.35 16.33,-45.72 23.91,-69.01 -24.55,-2.26 -50.65,-10.97 -73.27,-5.43 -39.9,9.81 -77.64,28.33 -117.19,43.53 61.74,-107.35 368.41,-303.78 478.65,-307.3 0.56,3.91 3,10.09 1.37,11.43 -115.71,97.26 -166.22,232.55 -218.96,367.7 -50.91,130.49 -148.21,224.79 -256.23,309.42 -259.22,203.06 -555.2,253.12 -863.07,167.53 -634.65,-176.42 -1264.6,-369.71 -1896.43,-556.19 -3.91,-1.16 -7.23,-4.37 -25.36,-15.66 235.94,-120.05 486.06,-151.98 727.57,-213.01 5.29,7.27 10.62,14.54 15.91,21.8z"/>
</symbol>
<symbol id="Fm67-238-0" viewBox="6644.44 -16504.9 27.94 159.99">
 <polygon class="fil2" points="6644.44,-16504.9 6658.9,-16415.82 6645.25,-16365.41 6667.83,-16344.91 6672.38,-16417.2 "/>
</symbol>
<symbol id="Fm66-236-0" viewBox="6346.7 -17019.72 148.56 655.1">
 <path class="fil2" d="M6495.26 -17019.72c0,0 -31.82,177.9 -22.79,207.29 9.07,29.42 -106.22,218.62 -101.88,239.29 4.34,20.64 -7.62,134.23 -7.62,134.23 0,0 -0.99,91.37 106.89,26.53 0,0 -21.24,38.59 -45.3,44.56 -24.05,5.99 -59.23,8.11 -72.14,-36.37 -12.91,-44.53 0.07,-126.23 0.07,-126.23l-0.21 -51.89 32.7 -114.9 41.42 -115.32 8.18 -5.19 3.64 -26.35c0,0 7.83,-75.96 27.02,-102.94 19.23,-26.99 30.02,-72.71 30.02,-72.71z"/>
</symbol>
<symbol id="Fm55-212-0" viewBox="4251.79 -17908.39 70.85 48.26">
 <path class="fil2" d="M4252.37 -17860.13l57.89 -6.67 12.38 -37.53 -7.16 -4.06 -40.11 23.42c0,0 -27.91,12.49 -23,24.84z"/>
</symbol>
<symbol id="Fm53-208-0" viewBox="7036.25 -18779.33 120.82 160.67">
 <path class="fil1" d="M7107.47 -18761.48c0,0 -16.37,113.63 -53.44,133.67 -37.08,20 -4.63,0.95 -4.63,0.95 0,0 85.55,-29.21 98.43,-62.3l9.24 -83.18 -1.41 -6.99c0,0 -36.93,4.02 -48.19,17.85z"/>
</symbol>
<symbol id="Fm50-202-0" viewBox="6365.12 -18714.84 150.74 35.91">
 <path class="fil1" d="M6365.12 -18714.84c0,0 100.08,33.87 150.74,32.14 0,0 -93.63,20 -150.74,-32.14z"/>
</symbol>
<symbol id="Fm36-170-0" viewBox="7056.49 -20921.06 57.08 61.7">
 <polygon class="fil2" points="7056.49,-20897.99 7090.36,-20859.36 7113.57,-20897.21 7071.13,-20921.06 "/>
</symbol>
<symbol id="Fm27-150-0" viewBox="6062.59 -21109.1 53.78 144.71">
 <path class="fil2" d="M6079.22 -21109.1c0,0 -31.5,92.85 -7.79,144.71 0,0 26.21,-138.32 44.94,-134.44l-37.15 -10.27z"/>
</symbol>
<symbol id="Fm20-136-0" viewBox="6255.49 -21927.46 128.63 197.56">
 <path class="fil2" d="M6384.12 -21927.46c0,0 -69.54,144.36 -128.63,197.56l128.63 -197.56z"/>
 <path class="fil5" d="M6384.11 -21927.46c0,0 -5.29,13.9 -14.6,34.12 -9.32,20.25 -23.36,46.42 -38.7,71.89 -15.81,25.16 -33.09,49.5 -48.26,66.01 -15.07,16.61 -27.06,25.54 -27.06,25.54 0,0 10.23,-10.83 23.21,-28.68 13.09,-17.78 29.46,-42.23 44.59,-67.49 15.74,-24.94 30.45,-50.55 41.84,-69.6 11.4,-19.05 18.98,-31.79 18.98,-31.79z"/>
</symbol>
<symbol id="Fm13-120-0" viewBox="7290.24 -18655.25 1605.14 1605.14">
 <path class="fil0" d="M8895.38 -17852.68c0,443.27 -359.34,802.57 -802.57,802.57 -443.23,0 -802.57,-359.3 -802.57,-802.57 0,-443.23 359.34,-802.57 802.57,-802.57 443.23,0 802.57,359.34 802.57,802.57z"/>
</symbol>
<symbol id="Fm105-90-0" viewBox="16700.65 -8799.76 1605.14 1605.14">
 <path class="fil0" d="M16700.65 -7997.19c0,-443.23 359.34,-802.57 802.57,-802.57 443.23,0 802.57,359.34 802.57,802.57 0,443.23 -359.34,802.57 -802.57,802.57 -443.23,0 -802.57,-359.34 -802.57,-802.57z"/>
</symbol>
<symbol id="Fm0-74-0" viewBox="2995.82 -7735.74 1605.14 1605.14">
 <path class="fil0" d="M4600.96 -6933.17c0,443.23 -359.34,802.57 -802.57,802.57 -443.23,0 -802.57,-359.34 -802.57,-802.57 0,-443.23 359.34,-802.57 802.57,-802.57 443.23,0 802.57,359.34 802.57,802.57z"/>
</symbol>
<symbol id="Fm94-306-0" viewBox="19358.7 -25561.57 1181.81 1181.8">
 <path class="fil0" d="M19358.7 -24970.67c0,-326.35 264.55,-590.9 590.9,-590.9 326.36,0 590.91,264.55 590.91,590.9 0,326.36 -264.55,590.9 -590.91,590.9 -326.35,0 -590.9,-264.54 -590.9,-590.9z"/>
</symbol>
<symbol id="Fm93-304-0" viewBox="16695.23 -23409.63 1605.14 1605.14">
 <path class="fil0" d="M16695.23 -22607.06c0,-443.26 359.34,-802.57 802.57,-802.57 443.23,0 802.57,359.31 802.57,802.57 0,443.23 -359.34,802.57 -802.57,802.57 -443.23,0 -802.57,-359.34 -802.57,-802.57z"/>
</symbol>
<symbol id="Fm87-282-0" viewBox="6802 -21058.76 385.13 574.89">
 <polygon class="fil2" points="6808.77,-20522.57 6802,-20483.87 7013.35,-20782.81 7187.13,-21058.76 6934.86,-20859.19 "/>
</symbol>
<symbol id="Fm73-252-0" viewBox="7720.79 -18390.53 172.33 246.28">
 <path class="fil2" d="M7783.8 -18390.53c0,0 16.05,195.83 -63.01,246.28 0,0 40.18,-26.14 71.83,-89.82 31.68,-63.71 48.96,-103.12 90.02,-95.46 41.1,7.69 -48.61,-45.12 -98.84,-61z"/>
</symbol>
<symbol id="Fm65-234-0" viewBox="6485.16 -16546.97 51.48 170.56">
 <path class="fil2" d="M6520.16 -16546.97l16.48 170.56c0,0 -27.06,-96.45 -46.85,-111.37 -19.79,-14.96 30.37,-59.19 30.37,-59.19z"/>
</symbol>
<symbol id="Fm30-158-0" viewBox="5878.84 -21725.43 92.22 372.29">
 <path class="fil2" d="M5880.18 -21725.43c0,0 -8.54,219.32 17.63,282.19 26.15,62.9 12.07,90.1 12.07,90.1 0,0 27.34,-53.55 60.39,-77.4 0,0 7.06,5.71 -21.16,-42.97 -28.22,-48.65 -26.14,-113.66 -26.14,-113.66 0,0 -23.07,-118.89 -42.79,-138.26z"/>
</symbol>
<symbol id="Fm110-102-0" viewBox="15360.1 -13685.74 1058.33 1058.34">
 <path class="fil0" d="M15360.1 -13156.57c0,-292.24 236.92,-529.17 529.16,-529.17 292.25,0 529.17,236.93 529.17,529.17 0,292.24 -236.92,529.17 -529.17,529.17 -292.24,0 -529.16,-236.93 -529.16,-529.17z"/>
</symbol>
 <g id="Capa_x0020_1">
  <metadata id="CorelCorpID_0Corel-Layer"/>
  <g style="clip-path:url(#id0)">
   <image x="0.01" y="1.57" width="2162.68" height="2189.72" xlink:href="esfera-4-estrellas_Images\esfera-4-estrellas_ImgID3.png"/>
  </g>
 </g>
</svg>
