<?xml version="1.0" encoding="UTF-8"?>
<!DOCTYPE svg PUBLIC "-//W3C//DTD SVG 1.1//EN" "http://www.w3.org/Graphics/SVG/1.1/DTD/svg11.dtd">
<!-- Creator: CorelDRAW 2017 -->
<svg xmlns="http://www.w3.org/2000/svg" xml:space="preserve" width="10.2446mm" height="9.3978mm" version="1.1" style="shape-rendering:geometricPrecision; text-rendering:geometricPrecision; image-rendering:optimizeQuality; fill-rule:evenodd; clip-rule:evenodd"
viewBox="0 0 1024.46 939.78"
 xmlns:xlink="http://www.w3.org/1999/xlink">
 <defs>
  <style type="text/css">
   <![CDATA[
    .fil0 {fill:black}
   ]]>
  </style>
 </defs>
 <g id="Capa_x0020_1">
  <metadata id="CorelCorpID_0Corel-Layer"/>
  <path class="fil0" d="M647.16 740.39c-7.33,2.84 -67.4,4.72 -79.74,-4.17 -3.24,-2.33 -1.59,-1.22 -3.84,-3.81 -5.37,-3.25 -12.13,-11.43 -13.08,-19.2 3.56,-3.58 0.49,-0.97 3.83,-2.21 5.39,-12.29 11.84,-13.77 11.25,-30.71 -12.14,-6.49 -13.38,-13.11 -16.11,-29.57 -1.75,-2.56 -4.65,-5.81 -6.99,-8.66 -4.43,-5.4 -2.93,-2.76 -6.1,-8.84 -4.99,-1.48 -9.05,-4.02 -12.29,-9.69 -4.71,-2.13 -6.68,-3.33 -11.11,-6.21 -1.65,-1.06 -2.61,-1.71 -4.13,-2.84 -4.12,-3.09 -1.52,-0.89 -4.08,-3.46l-7.24 0.83 -8.28 -14.92c-2.67,-2.86 0.34,1.08 -3.55,-3.9 -0.42,-0.54 -1.67,-2.24 -2.05,-2.82 -3.7,-5.61 -1.25,-1.58 -3.48,-6.68 -5.42,-2.31 -7.05,-5.88 -16.75,-8.96 -5.67,-1.8 -15.48,-3.73 -21.45,-4.23 -17.06,-1.45 -31.6,5.55 -45.15,4.51l-7.76 4.54c-1.78,0.74 -4.14,1.32 -6.56,2.24 -7.54,2.84 -8.87,4.02 -16.42,5.73 -5.4,5.25 -16.71,9.49 -26.81,12.06 -14.13,3.6 -20.52,7.95 -27.98,-0.28 -1.79,-1.4 -3.83,-1.77 -5.52,-7.73 -0.97,-3.45 -0.28,-6.97 -0.14,-10.94 -1.02,-0.09 -4.61,-0.62 -5.46,-0.84l-3.14 -1.64c0.73,-14.99 2.75,-10.49 7.45,-20.49 3.56,-7.59 2.89,-17.76 4.49,-20.68l2.55 -19.53c21.1,-6.72 14.49,-6.37 26.65,-15.98 4.8,-3.79 24.13,-13.83 28.5,-15.57 2.18,-4 1.87,-5.8 7.78,-6.97 6.07,-12.84 21.66,-37.52 31.36,-47.36 8.79,6.25 10.9,9.02 27.05,7.97l16.97 -1.83c11.88,-1.06 14.13,-6.74 18.7,-15.24l11.57 -1.14c11.71,-0.94 22.72,-4.3 31.17,-8.35 4.9,-2.35 7.92,-3.72 13.1,-7.19 5.76,-3.86 6.52,-5.33 11.96,-6.92 2.08,-3.14 0.85,-2.1 3.42,-4.68 2.95,-2.96 0.86,-0.86 4.88,-3.13 2.47,-6.8 10.21,-15.13 15,-24.39 3.49,-6.76 5.7,-24.74 11.45,-29.17 5.51,-4.23 45.73,-25.75 51.95,-26.38 3.64,-4.84 2.06,-3.6 9.04,-6.43 5.17,-4.19 13.09,-8.9 19.93,-9.5 3.46,-4.34 0.74,-1.93 6.32,-5.67 1.59,-1.07 4.93,-2.75 7.29,-3.98 6.14,-3.23 9.49,-5.27 16.56,-7.6l0.09 -1.48 140.48 -76.35c10.71,-6.35 31,-17.52 44.25,-24.04l12.04 -6.55 0.1 1.33c2.6,-3.16 -0.77,-1.04 5.3,-4.77 5.71,-3.5 1.23,-0.98 7.6,-2.91l15.82 -8.12c5.21,-5.6 24.6,-15.43 30.37,-17.58l2.54 -0.02c3.22,-3.95 0.64,-1.93 6.34,-5.69 3.23,-2.13 4.22,-2.39 7.17,-3.98 6.59,-3.53 8.49,-4.53 15.2,-6.85 4.99,-6.23 14.08,-10 20.85,-10.57 3.79,-5.13 1.86,-3.52 9.05,-6.8l23.08 -10.99c5.02,-9.1 2.49,-2.07 1.72,-12.64 -5.76,-4.55 -14.86,-22.76 -17.33,-29.26l-28.35 -49.73 -7.51 0.94c-3.9,5.38 -1.51,2.82 -7.81,6.32 -2.86,1.59 -4.99,2.43 -7.46,3.74 -5.05,2.67 -9.48,5.61 -15.88,8.1l-2.26 0.03c-5.88,6.86 -18.61,13.05 -28.96,16.59 -4.79,4.74 -47.74,28.15 -53.83,28.74l-25.73 15.37 -3.29 0.58c-5.31,5.86 -7.52,5.93 -14.37,9.54 -5.6,2.95 -8.85,5.1 -15.36,8.03 -8.37,5.59 -18.67,10.09 -28.39,15.77 -9.06,5.3 -18.79,11.52 -29.54,15.74 -8.12,6.2 -43.68,26.26 -54.84,29.84l-10.74 4.56c-2.84,3.35 -0.57,1.71 -5.37,5.04 -0.2,0.14 -3.74,2.06 -4.31,2.36 -5.62,2.99 -4.71,2.62 -11.26,4.72 -2.28,3.98 -18.2,12.18 -23.98,12.89 -2.06,2.17 -1.23,1.65 -4.44,3.88 -3.52,2.47 3.73,-1.17 -3.93,1.61 -5.23,4.08 -13.32,8.92 -19.88,9.62 -2.31,2.78 -0.63,1.27 -3.81,3.69 -0.4,0.31 -0.96,0.7 -1.39,0.99l-23.74 11.71 -0.32 -0.6c-5.27,7.08 -25.17,16.37 -32.97,18.61 -6.34,8.97 -17.8,12.35 -27.73,6.03 -8.55,-2.41 -14.82,-5.07 -23.66,-6.28 -10.17,-1.4 -18.81,-0.24 -29.01,-2.21 -4.19,2.98 -0.86,1.08 -7.89,2.7 -3.86,0.88 -5.67,0.97 -9.55,1.99 -6.23,1.62 -11.03,3.58 -17.33,5.58 -2,2.57 -17.42,11 -21.52,14.44 -6.45,5.42 -10.03,13.6 -17.24,17.53 -1.31,4.63 -10.18,24.09 -12.38,28.69 -3.29,24.76 -1.22,26.93 0.73,49.12 -11.27,5.47 -25.22,8.49 -35.45,13.93 -12.48,6.66 -16.7,16.27 -24.82,21.17 -2.95,3.73 4.96,2.47 -7.06,3.66l-19.82 5.63c-7.6,10.7 -7.7,6.4 -18.52,5.76 -10.73,-0.63 -10.54,2.88 -20.14,4.5 1.54,-31.17 -5.06,-27.62 -13,-46.93 -2.97,-1.2 -1.8,0.52 -6.06,-4.06 -5.18,-5.58 -1.48,-1.31 -2.86,-4.89 -6.05,-2.99 -2.56,-0.81 -7.54,-5.2 -9.4,-8.28 -10.82,-6.42 -16.44,-14.31 -4.36,-0.02 -1.9,3.37 -3.72,-1.79l-24.83 -12.57 13.63 17.3c5.14,1.07 6.03,3.83 8.62,9.22l-55.11 -13.34 -28.58 -2.01 -29.36 0.17c-6.22,2.61 -1.14,-1.87 -0.84,1.59 0.01,0.12 0.64,1.57 0.67,1.22 0.03,-0.45 0.66,0.96 0.99,1.44 7.71,-0.23 9.63,1.38 17.32,4.43 6.35,2.52 8.9,2.42 13.44,7.5 8.32,0.7 13.96,5.05 21.52,8.92l8.26 5.67c-1.76,1.89 -0.44,1.09 -3.82,2.97l-32.07 8.95c-4.26,3.23 -16.53,7.24 -22.78,7.4 -5.84,6.44 -32.5,17.7 -41.74,22.41 -13.69,6.96 -13.21,4.82 -5.4,7.73l21.78 -8.09c-4.5,4.28 -26.56,21.89 -32.33,23.3 -2.63,3.57 -0.61,1.15 -3.74,4.18 -15.03,14.58 -29.42,16 -19.53,18.86 12.11,-3.4 27.38,-9.39 40.23,-8.09 8.02,-5.48 26.82,-5.32 37.36,-5.82l-13.4 14.03c-1.78,4.93 -0.42,2.59 -4.83,7.61 -3.03,3.44 -3.93,4.08 -6.56,5.81 -3.52,6.8 -7.67,11.54 -15.95,15.36 -1.82,4.07 -2.37,4.79 -6.03,8.94 -1.41,1.61 -2.62,2.84 -4.36,4.29 -2.94,2.45 -1.31,1.25 -3.37,2.19 -2.43,4.93 -2.94,6.17 -6.99,10.22 -3.18,3.18 -4.11,3.87 -9.31,6.58 0.55,4.64 0.06,1.7 2.17,3.93l8.19 -1.16c0.5,-0.42 1.19,-0.89 1.58,-1.14 12.05,-7.73 72.28,-27.83 80,-28.61 -4.98,8.14 -25.19,25.46 -26.02,24.07 -0.29,-0.48 -1.14,0.7 -1.72,1.03l-13.93 15.06c7.83,-2.09 10.34,-6.7 17.42,-6.45 6.3,-7.04 15.62,-11.06 24.73,-13.74l4.06 -1.22 8.88 -5.98c3.51,-1.57 5.93,-2.46 9.46,-3.9 6.46,-2.64 11.23,-4.74 18.02,-6.26l-18.82 23.88c0.94,9.44 -0.35,8.84 -3.44,16.27 -3.11,23.63 0.83,20.18 7.05,37.18 1.69,0.86 0.67,0.07 3.4,2.25l6.53 7.42 16.04 24.1c-15.11,1.94 -19.29,1.17 -23.03,13.74l14.69 -2.87c13.54,-3.1 0.75,-0.21 9.9,3 0.62,0.21 1.3,0.45 1.89,0.64 0.63,0.2 1.55,0.36 2.09,0.51 0.57,0.16 3.85,0.62 4.59,0.67 5.13,-4.27 2.69,-3.1 11.19,-3.01l3.8 11.04 -4.37 11.5 11.83 7.08 -14.48 4.99c-3.91,5.04 -1.93,3.5 -9.35,6.34l-21.02 12.12 -2.68 2.66c-0.37,0.35 -0.91,0.87 -1.33,1.24l-18.21 12.68c-1.53,3.05 -4.48,7.41 -7.61,9.92 -1.19,10.16 -1.71,4.17 3.58,6.1 1.31,-2.51 0.86,-3.35 5.53,-6.81 6.29,-4.66 3.88,-2.91 9.24,-3.63l13.48 -5.03c6.29,-3.4 1.17,-3.02 10.24,-6.9 1.15,-2.6 0.52,-3.08 4.24,-5.87 8.58,-6.42 1.06,-1.65 7.44,-2.66 2.26,-2.86 0.77,-1.52 3.81,-4.03l20.04 -10.23 1.39 29.15 3.66 24.11c4.24,2.35 2.17,-4.21 4.02,6.03 5.87,8.07 14.14,13.26 13.83,24.34 3.63,4.11 1.25,-0.1 4.36,7.51 0.84,2.05 2.23,6.58 2.85,8.73 2.38,8.26 0.68,9.93 0.66,19.47 -1.55,3.6 -0.66,2.06 -3.51,5.66 -5.4,6.83 -0.08,2.17 -6.4,5.46 -9.8,5.1 -2.36,-3.22 -12.12,7.74 -0.14,0.96 -0.96,6.63 -1.32,7.83 -1.71,5.8 0.18,1.17 -2.81,4.65 -1.19,4.48 0.64,0.03 -2.58,5.58 -1.36,2.34 -1.56,2.25 -3.57,5.4 -4.24,6.64 -1.1,5.85 -7.5,9.03 -1.98,14.22 4.67,16.87 9.08,29.06l5.31 5.28c-9.93,8.23 -12.84,3.83 -19.39,19.46 1.11,14.73 14.95,21.26 21.52,29.76 34.97,52.6 76.77,32.16 38.02,-0.2l-6.86 -25.91 2.98 -12.56 19.34 -3.5c1.68,-1.37 1.86,-1.48 4.81,-3.18 51.75,-29.78 32.36,-34.01 52.83,-51.09l19.05 -17.55c0.11,-9.62 3.55,-19.15 7,-28.58 2.08,-5.67 4.06,-8.51 5.27,-13.29 1.62,-6.43 0.07,-6.89 1.74,-12.33 2.85,-9.14 2.77,-15.65 9.91,-20.6 3.51,-2.43 14.23,-7.98 18.52,-9.81l7.82 -5.5c2.79,5.33 4.75,8.67 8.12,14.21 2.43,4.01 7.1,9.12 8.16,11.53 5.3,1.15 10.76,2.35 16.81,4.13 3.44,1.01 3.78,0.92 6.68,2.66 5.08,3.05 0.71,-0.67 4.14,3.78 3.95,0.4 1.92,-1.67 3.78,2.83 7.79,4.36 8.63,7.67 14.37,11.28 7.46,4.7 41.11,6.3 41.73,6.25 6.25,-0.52 10.71,-4.37 18.45,-5.81 12.33,10.3 8.88,8.42 10.08,12.66 11.64,-0.16 8.24,2.27 13.32,11.64 5.66,10.43 4.84,3.81 6.34,18.83 4.19,10.48 3.01,9.49 11.06,14.43 15.39,1.3 20.8,-5.33 31.34,-9.87 4.21,-5.44 12.64,-6.6 20.67,-5.94l6.59 -3.86c96.69,-36.47 116.17,-54.21 49.51,-51.05z"/>
 </g>
</svg>
