<?xml version="1.0" encoding="UTF-8"?>
<!DOCTYPE svg PUBLIC "-//W3C//DTD SVG 1.1//EN" "http://www.w3.org/Graphics/SVG/1.1/DTD/svg11.dtd">
<!-- Creator: CorelDRAW 2017 -->
<svg xmlns="http://www.w3.org/2000/svg" xml:space="preserve" width="6.7732mm" height="1.8626mm" version="1.1" style="shape-rendering:geometricPrecision; text-rendering:geometricPrecision; image-rendering:optimizeQuality; fill-rule:evenodd; clip-rule:evenodd"
viewBox="0 0 677.32 186.26"
 xmlns:xlink="http://www.w3.org/1999/xlink">
 <defs>
  <style type="text/css">
   <![CDATA[
    .str0 {stroke:#0060AE;stroke-width:9.14;stroke-linecap:round;stroke-linejoin:round;stroke-miterlimit:22.9256}
    .str1 {stroke:#0060AE;stroke-width:9.14;stroke-linecap:round;stroke-linejoin:round;stroke-miterlimit:22.9256}
    .str2 {stroke:#0060AE;stroke-width:9.14;stroke-linecap:round;stroke-linejoin:round;stroke-miterlimit:22.9256}
    .fil0 {fill:none}
    .fil2 {fill:none;fill-rule:nonzero}
    .fil1 {fill:#0060AE}
    .fil3 {fill:#0060AE;fill-rule:nonzero}
   ]]>
  </style>
 </defs>
 <g id="Capa_x0020_1">
  <metadata id="CorelCorpID_0Corel-Layer"/>
  <rect class="fil0" x="-0" width="677.33" height="186.26"/>
  <g id="_2982804155920">
   <path class="fil1" d="M407.55 117.46c0.68,3.6 -0.96,11.51 -1.94,14.94 -4.43,15.4 -20.44,20.51 -31.25,12.21 -8.63,-6.62 -2.07,-18.93 3.83,-23.1 7.88,-5.58 18.34,-4.9 29.36,-4.05zm-58.13 -22.73c3.52,-0.8 11.16,-4.87 16.02,-6.49 9.32,-3.09 29.55,-6.87 37.76,-0.29 3.72,2.98 5.47,10.53 4.17,17.01 -32.97,1.32 -81.17,-1.86 -73.34,40.82 3.68,20.1 38.94,30.29 58.84,19.52 3.44,-1.87 6.04,-3.82 8.52,-6.03 2.59,-2.3 4.58,-4.64 7.47,-6.16l0.58 15.5 38.63 0.35c-0.67,-3.38 -2.42,-6.77 -3.32,-10.62 -1.74,-7.41 -0.57,-30.72 -0.5,-39.77 0.14,-18.43 1.35,-33.67 -10.08,-44.37 -7.56,-7.08 -33.08,-9 -45.7,-8.76 -17.16,0.33 -30.74,4.24 -46.53,8.41l7.48 20.88z"/>
   <path class="fil1" d="M263.78 167.42c0.26,-2.94 -2.12,-27.46 -2.44,-33.35 -1.31,-24.02 -1.31,-49.48 -0.92,-73.68 0.14,-9 1.35,-28.23 0.76,-35.61 -9.37,3.13 -18.78,5.5 -28.78,5.56 0.35,5.93 5.78,14.82 5.73,66.53 -0.01,12.54 -0.13,24.93 -0.54,37.21 -0.4,11.5 -1.49,23.56 -1.76,34.5l27.95 -1.16z"/>
   <g>
    <path class="fil2 str0" d="M17.74 60.86c1.63,-0.54 3.19,-0.9 4.68,-1.16 1.52,-0.25 3.08,-0.36 4.72,-0.36 3.81,0 6.82,1.01 9,3.01 2.18,2.03 3.41,4.94 3.66,8.75 5.63,-3.85 11.07,-6.68 16.41,-8.53 5.37,-1.85 10.67,-2.76 16,-2.76 5.16,0 10.02,1.02 14.59,3.05 4.58,1.99 8.82,5.04 12.78,9.07 5.62,-3.99 11.57,-7.15 17.93,-9.4 6.35,-2.25 12.45,-3.37 18.25,-3.37 12.7,0 22.47,3.7 29.25,11.06 6.75,7.37 10.16,17.9 10.16,31.65 0,2 -0.1,5.92 -0.32,11.8 -0.22,5.88 -0.33,10.81 -0.33,14.77 0,9.14 0.44,16.18 1.27,21.12 0.87,4.9 2.25,8.89 4.18,11.94 -3.56,1.71 -6.5,2.94 -8.9,3.67 -2.35,0.76 -4.5,1.12 -6.31,1.12 -3.34,0 -5.63,-0.83 -6.9,-2.5 -1.23,-1.67 -1.85,-4.9 -1.85,-9.73 0,-4.39 0.26,-11.47 0.76,-21.16 0.51,-9.72 0.77,-17.16 0.77,-22.35 0,-12.74 -1.93,-21.96 -5.81,-27.66 -3.85,-5.66 -10.09,-8.49 -18.65,-8.49 -4.69,0 -9.19,0.69 -13.54,2.07 -4.39,1.38 -9.07,3.66 -14.12,6.86 0.73,4.35 1.24,8.85 1.56,13.57 0.33,4.72 0.47,11.29 0.47,19.74l0 11.15c0,9.79 0.37,17.05 1.06,21.84 0.72,4.79 1.96,8.82 3.73,12.09 -3.12,1.63 -5.88,2.79 -8.31,3.52 -2.39,0.69 -4.72,1.05 -7,1.05 -3.2,0 -5.41,-0.87 -6.64,-2.65 -1.24,-1.78 -1.85,-5.04 -1.85,-9.8 0,-2.54 0.18,-8.31 0.58,-17.27 0.4,-8.97 0.58,-16.66 0.58,-23.01 0,-15.06 -1.67,-25.26 -5.05,-30.63 -3.37,-5.41 -9.14,-8.1 -17.34,-8.1 -4.32,0 -8.72,0.84 -13.18,2.51 -4.46,1.67 -9.04,4.17 -13.79,7.47 -0.14,5.92 -0.33,13.43 -0.58,22.61 -0.25,9.19 -0.36,14.89 -0.36,17.06 0,9.44 0.43,17.06 1.27,22.83 0.83,5.77 2.14,10.56 3.95,14.41 -2.97,1.56 -5.69,2.72 -8.16,3.45 -2.47,0.76 -4.9,1.12 -7.3,1.12 -3.26,0 -5.48,-0.91 -6.68,-2.76 -1.19,-1.85 -1.81,-5.73 -1.81,-11.61 0,-1.71 0.4,-8.75 1.2,-21.09 0.8,-12.37 1.2,-23.91 1.2,-34.66 0,-8.41 -0.44,-15.49 -1.28,-21.15 -0.87,-5.67 -2.17,-10.38 -3.95,-14.16zm202.98 100.64c-2.98,1.63 -5.81,2.83 -8.49,3.63 -2.73,0.76 -5.3,1.16 -7.81,1.16 -3.44,0 -5.8,-0.94 -7.07,-2.83 -1.24,-1.85 -1.86,-5.66 -1.86,-11.32 0,-3.27 0.33,-10.56 0.99,-21.92 0.65,-11.33 0.97,-21.09 0.97,-29.22 0,-8.89 -0.43,-16.08 -1.27,-21.59 -0.87,-5.55 -2.25,-10.27 -4.13,-14.16 2.61,-1.56 5.3,-2.76 8.05,-3.55 2.8,-0.84 5.52,-1.24 8.21,-1.24 3.26,0 5.51,0.8 6.71,2.4 1.2,1.59 1.81,4.53 1.81,8.89 0,1.12 -0.32,7.33 -0.97,18.58 -0.66,11.29 -0.99,21.99 -0.99,32.16 0,9.47 0.48,17.34 1.46,23.59 0.94,6.24 2.43,11.39 4.39,15.42zm-0.84 -133.45c0,4.03 -1.41,7.41 -4.24,10.09 -2.83,2.69 -6.43,4.03 -10.74,4.03 -3.78,0 -6.76,-1.05 -8.93,-3.19 -2.22,-2.11 -3.31,-4.97 -3.31,-8.6 0,-3.96 1.42,-7.33 4.25,-10.13 2.83,-2.79 6.28,-4.21 10.31,-4.21 3.7,0 6.71,1.12 9.11,3.41 2.36,2.25 3.55,5.12 3.55,8.6z"/>
    <path id="1" class="fil3" d="M17.74 60.86c1.63,-0.54 3.19,-0.9 4.68,-1.16 1.52,-0.25 3.08,-0.36 4.72,-0.36 3.81,0 6.82,1.01 9,3.01 2.18,2.03 3.41,4.94 3.66,8.75 5.63,-3.85 11.07,-6.68 16.41,-8.53 5.37,-1.85 10.67,-2.76 16,-2.76 5.16,0 10.02,1.02 14.59,3.05 4.58,1.99 8.82,5.04 12.78,9.07 5.62,-3.99 11.57,-7.15 17.93,-9.4 6.35,-2.25 12.45,-3.37 18.25,-3.37 12.7,0 22.47,3.7 29.25,11.06 6.75,7.37 10.16,17.9 10.16,31.65 0,2 -0.1,5.92 -0.32,11.8 -0.22,5.88 -0.33,10.81 -0.33,14.77 0,9.14 0.44,16.18 1.27,21.12 0.87,4.9 2.25,8.89 4.18,11.94 -3.56,1.71 -6.5,2.94 -8.9,3.67 -2.35,0.76 -4.5,1.12 -6.31,1.12 -3.34,0 -5.63,-0.83 -6.9,-2.5 -1.23,-1.67 -1.85,-4.9 -1.85,-9.73 0,-4.39 0.26,-11.47 0.76,-21.16 0.51,-9.72 0.77,-17.16 0.77,-22.35 0,-12.74 -1.93,-21.96 -5.81,-27.66 -3.85,-5.66 -10.09,-8.49 -18.65,-8.49 -4.69,0 -9.19,0.69 -13.54,2.07 -4.39,1.38 -9.07,3.66 -14.12,6.86 0.73,4.35 1.24,8.85 1.56,13.57 0.33,4.72 0.47,11.29 0.47,19.74l0 11.15c0,9.79 0.37,17.05 1.06,21.84 0.72,4.79 1.96,8.82 3.73,12.09 -3.12,1.63 -5.88,2.79 -8.31,3.52 -2.39,0.69 -4.72,1.05 -7,1.05 -3.2,0 -5.41,-0.87 -6.64,-2.65 -1.24,-1.78 -1.85,-5.04 -1.85,-9.8 0,-2.54 0.18,-8.31 0.58,-17.27 0.4,-8.97 0.58,-16.66 0.58,-23.01 0,-15.06 -1.67,-25.26 -5.05,-30.63 -3.37,-5.41 -9.14,-8.1 -17.34,-8.1 -4.32,0 -8.72,0.84 -13.18,2.51 -4.46,1.67 -9.04,4.17 -13.79,7.47 -0.14,5.92 -0.33,13.43 -0.58,22.61 -0.25,9.19 -0.36,14.89 -0.36,17.06 0,9.44 0.43,17.06 1.27,22.83 0.83,5.77 2.14,10.56 3.95,14.41 -2.97,1.56 -5.69,2.72 -8.16,3.45 -2.47,0.76 -4.9,1.12 -7.3,1.12 -3.26,0 -5.48,-0.91 -6.68,-2.76 -1.19,-1.85 -1.81,-5.73 -1.81,-11.61 0,-1.71 0.4,-8.75 1.2,-21.09 0.8,-12.37 1.2,-23.91 1.2,-34.66 0,-8.41 -0.44,-15.49 -1.28,-21.15 -0.87,-5.67 -2.17,-10.38 -3.95,-14.16zm202.98 100.64c-2.98,1.63 -5.81,2.83 -8.49,3.63 -2.73,0.76 -5.3,1.16 -7.81,1.16 -3.44,0 -5.8,-0.94 -7.07,-2.83 -1.24,-1.85 -1.86,-5.66 -1.86,-11.32 0,-3.27 0.33,-10.56 0.99,-21.92 0.65,-11.33 0.97,-21.09 0.97,-29.22 0,-8.89 -0.43,-16.08 -1.27,-21.59 -0.87,-5.55 -2.25,-10.27 -4.13,-14.16 2.61,-1.56 5.3,-2.76 8.05,-3.55 2.8,-0.84 5.52,-1.24 8.21,-1.24 3.26,0 5.51,0.8 6.71,2.4 1.2,1.59 1.81,4.53 1.81,8.89 0,1.12 -0.32,7.33 -0.97,18.58 -0.66,11.29 -0.99,21.99 -0.99,32.16 0,9.47 0.48,17.34 1.46,23.59 0.94,6.24 2.43,11.39 4.39,15.42zm-0.84 -133.45c0,4.03 -1.41,7.41 -4.24,10.09 -2.83,2.69 -6.43,4.03 -10.74,4.03 -3.78,0 -6.76,-1.05 -8.93,-3.19 -2.22,-2.11 -3.31,-4.97 -3.31,-8.6 0,-3.96 1.42,-7.33 4.25,-10.13 2.83,-2.79 6.28,-4.21 10.31,-4.21 3.7,0 6.71,1.12 9.11,3.41 2.36,2.25 3.55,5.12 3.55,8.6z"/>
   </g>
   <g>
    <path class="fil2 str1" d="M477.54 88.41c-0.15,7.8 -0.33,16.19 -0.58,25.15 -0.26,8.97 -0.37,14.05 -0.37,15.17 0,9.22 0.44,16.7 1.27,22.43 0.84,5.77 2.15,10.53 3.96,14.37 -2.98,1.56 -5.7,2.73 -8.16,3.45 -2.47,0.76 -4.9,1.13 -7.3,1.13 -3.27,0 -5.48,-0.91 -6.68,-2.76 -1.2,-1.85 -1.81,-5.7 -1.81,-11.58 0,-1.31 0.36,-7.88 1.09,-19.74 0.72,-11.87 1.09,-23.09 1.09,-33.65 0,-9.98 -0.4,-17.71 -1.17,-23.15 -0.8,-5.44 -2.07,-10.34 -3.84,-14.66 1.56,-0.51 3.16,-0.91 4.75,-1.16 1.6,-0.29 3.16,-0.44 4.65,-0.44 3.77,0 6.75,1.05 8.96,3.12 2.18,2.07 3.45,5.01 3.7,8.82 5.34,-3.81 10.96,-6.75 16.91,-8.82 5.96,-2.07 11.84,-3.12 17.68,-3.12 7.08,0 13.43,1.52 19.05,4.61 5.67,3.08 9.95,7.37 12.92,12.81 2.07,3.78 3.56,8.13 4.43,13.14 0.87,5.01 1.34,12.59 1.34,22.79 0,1.05 -0.07,3.59 -0.18,7.55 -0.11,3.96 -0.14,7.4 -0.14,10.31 0,7.29 0.47,13.57 1.41,18.8 0.95,5.26 2.36,9.36 4.25,12.33 -3.3,1.64 -6.21,2.84 -8.64,3.64 -2.43,0.76 -4.64,1.16 -6.64,1.16 -3.3,0 -5.63,-0.88 -6.93,-2.62 -1.31,-1.74 -1.96,-5.01 -1.96,-9.83 0,-2.91 0.21,-9.18 0.65,-18.77 0.44,-9.61 0.65,-17.78 0.65,-24.53 0,-12.81 -1.96,-22.14 -5.84,-27.91 -3.88,-5.77 -10.16,-8.67 -18.8,-8.67 -4.39,0 -9.11,0.91 -14.22,2.72 -5.09,1.81 -10.28,4.43 -15.5,7.91zm114.79 77.12c-2.98,1.56 -5.7,2.73 -8.17,3.45 -2.47,0.76 -4.93,1.13 -7.33,1.13 -3.05,0 -5.23,-1.02 -6.53,-3.05 -1.31,-2 -1.96,-5.56 -1.96,-10.67 0,-1.71 0.47,-12.23 1.41,-31.58 0.95,-19.38 1.42,-37.89 1.42,-55.52 0,-17.46 -0.4,-29.44 -1.16,-35.97 -0.8,-6.5 -2.14,-11.5 -4.07,-14.99 3.05,-1.56 5.84,-2.72 8.35,-3.45 2.54,-0.76 4.83,-1.12 6.86,-1.12 3.34,0 5.62,0.94 6.89,2.83 1.24,1.85 1.86,5.59 1.86,11.1 0,1.27 -0.18,4.87 -0.51,10.75 -1.56,25.48 -2.32,50.12 -2.32,73.96 14.95,-12.12 26.42,-22.14 34.44,-30.09 8.02,-7.94 13.28,-14.44 15.86,-19.56 4.86,1.78 8.31,3.52 10.3,5.23 2,1.67 2.98,3.67 2.98,5.91 0,3.05 -9,11.62 -27.04,25.63 -8.02,6.24 -14.37,11.29 -19.12,15.09 1.34,1.28 3.3,3.09 5.84,5.45 27.8,26.27 44.06,39.41 48.81,39.41l0.44 0c-0.66,4.25 -1.89,7.48 -3.74,9.69 -1.81,2.22 -4.21,3.34 -7.11,3.34 -4.76,0 -14.88,-7.91 -30.42,-23.7 -12.41,-12.59 -22.9,-22.75 -31.46,-30.45l0 4.76c0,11.5 0.43,20.58 1.3,27.22 0.91,6.67 2.29,11.72 4.18,15.2z"/>
    <path id="1" class="fil3" d="M477.54 88.41c-0.15,7.8 -0.33,16.19 -0.58,25.15 -0.26,8.97 -0.37,14.05 -0.37,15.17 0,9.22 0.44,16.7 1.27,22.43 0.84,5.77 2.15,10.53 3.96,14.37 -2.98,1.56 -5.7,2.73 -8.16,3.45 -2.47,0.76 -4.9,1.13 -7.3,1.13 -3.27,0 -5.48,-0.91 -6.68,-2.76 -1.2,-1.85 -1.81,-5.7 -1.81,-11.58 0,-1.31 0.36,-7.88 1.09,-19.74 0.72,-11.87 1.09,-23.09 1.09,-33.65 0,-9.98 -0.4,-17.71 -1.17,-23.15 -0.8,-5.44 -2.07,-10.34 -3.84,-14.66 1.56,-0.51 3.16,-0.91 4.75,-1.16 1.6,-0.29 3.16,-0.44 4.65,-0.44 3.77,0 6.75,1.05 8.96,3.12 2.18,2.07 3.45,5.01 3.7,8.82 5.34,-3.81 10.96,-6.75 16.91,-8.82 5.96,-2.07 11.84,-3.12 17.68,-3.12 7.08,0 13.43,1.52 19.05,4.61 5.67,3.08 9.95,7.37 12.92,12.81 2.07,3.78 3.56,8.13 4.43,13.14 0.87,5.01 1.34,12.59 1.34,22.79 0,1.05 -0.07,3.59 -0.18,7.55 -0.11,3.96 -0.14,7.4 -0.14,10.31 0,7.29 0.47,13.57 1.41,18.8 0.95,5.26 2.36,9.36 4.25,12.33 -3.3,1.64 -6.21,2.84 -8.64,3.64 -2.43,0.76 -4.64,1.16 -6.64,1.16 -3.3,0 -5.63,-0.88 -6.93,-2.62 -1.31,-1.74 -1.96,-5.01 -1.96,-9.83 0,-2.91 0.21,-9.18 0.65,-18.77 0.44,-9.61 0.65,-17.78 0.65,-24.53 0,-12.81 -1.96,-22.14 -5.84,-27.91 -3.88,-5.77 -10.16,-8.67 -18.8,-8.67 -4.39,0 -9.11,0.91 -14.22,2.72 -5.09,1.81 -10.28,4.43 -15.5,7.91zm114.79 77.12c-2.98,1.56 -5.7,2.73 -8.17,3.45 -2.47,0.76 -4.93,1.13 -7.33,1.13 -3.05,0 -5.23,-1.02 -6.53,-3.05 -1.31,-2 -1.96,-5.56 -1.96,-10.67 0,-1.71 0.47,-12.23 1.41,-31.58 0.95,-19.38 1.42,-37.89 1.42,-55.52 0,-17.46 -0.4,-29.44 -1.16,-35.97 -0.8,-6.5 -2.14,-11.5 -4.07,-14.99 3.05,-1.56 5.84,-2.72 8.35,-3.45 2.54,-0.76 4.83,-1.12 6.86,-1.12 3.34,0 5.62,0.94 6.89,2.83 1.24,1.85 1.86,5.59 1.86,11.1 0,1.27 -0.18,4.87 -0.51,10.75 -1.56,25.48 -2.32,50.12 -2.32,73.96 14.95,-12.12 26.42,-22.14 34.44,-30.09 8.02,-7.94 13.28,-14.44 15.86,-19.56 4.86,1.78 8.31,3.52 10.3,5.23 2,1.67 2.98,3.67 2.98,5.91 0,3.05 -9,11.62 -27.04,25.63 -8.02,6.24 -14.37,11.29 -19.12,15.09 1.34,1.28 3.3,3.09 5.84,5.45 27.8,26.27 44.06,39.41 48.81,39.41l0.44 0c-0.66,4.25 -1.89,7.48 -3.74,9.69 -1.81,2.22 -4.21,3.34 -7.11,3.34 -4.76,0 -14.88,-7.91 -30.42,-23.7 -12.41,-12.59 -22.9,-22.75 -31.46,-30.45l0 4.76c0,11.5 0.43,20.58 1.3,27.22 0.91,6.67 2.29,11.72 4.18,15.2z"/>
   </g>
   <g>
    <path class="fil2 str2" d="M286.23 80.5c-1.2,0 -2.87,0.04 -5.01,0.15 -2.11,0.1 -3.49,0.18 -4.14,0.18 -2.9,0 -4.94,-0.4 -6.13,-1.24 -1.17,-0.79 -1.74,-2.21 -1.74,-4.17 0,-0.94 0.14,-2 0.47,-3.23 0.32,-1.27 0.83,-2.65 1.56,-4.21 0.54,0 1.52,0.04 2.86,0.11 1.35,0.07 2.4,0.11 3.2,0.11 1.85,0 4.79,-0.11 8.82,-0.33 0.51,0 0.9,-0.03 1.16,-0.11 0,-0.8 0.03,-1.96 0.11,-3.52 0.07,-1.56 0.11,-2.68 0.11,-3.41 0,-5.52 -0.33,-10.41 -1.06,-14.62 -0.69,-4.22 -1.81,-7.92 -3.3,-11.11 3.05,-1.49 5.77,-2.61 8.2,-3.41 2.4,-0.77 4.47,-1.16 6.17,-1.16 2.9,0 5.01,0.9 6.32,2.72 1.3,1.81 1.96,4.75 1.96,8.85 0,1.78 -0.33,7.37 -0.95,16.7 -0.21,3.48 -0.39,6.24 -0.54,8.31 4.1,-0.58 7.8,-1.02 11.1,-1.31 3.27,-0.29 6.25,-0.43 8.86,-0.43 2.32,0 3.99,0.43 5.04,1.27 1.02,0.87 1.53,2.25 1.53,4.17 0,1.05 -0.33,2.4 -0.95,3.99 -0.65,1.6 -1.56,3.38 -2.79,5.37 -1.82,-0.43 -3.78,-0.76 -5.81,-0.98 -2.06,-0.21 -4.53,-0.32 -7.44,-0.32 -0.5,0 -1.99,0.03 -4.46,0.14 -2.47,0.11 -4.57,0.22 -6.35,0.29 -0.66,11.07 -1.09,20.14 -1.38,27.33 -0.29,7.15 -0.44,12.99 -0.44,17.53 0,9.83 0.88,16.73 2.62,20.65 1.7,3.96 4.64,5.92 8.74,5.92 1.13,0 2.33,-0.22 3.56,-0.62 1.23,-0.44 2.47,-1.09 3.74,-2 0.65,1.42 1.12,2.65 1.38,3.74 0.29,1.05 0.43,2 0.43,2.87 0,3.45 -1.41,6.31 -4.28,8.56 -2.87,2.22 -6.61,3.34 -11.21,3.34 -7.66,0 -13.32,-2.54 -17.03,-7.58 -3.73,-5.08 -5.58,-12.89 -5.58,-23.37 0,-2.98 0.36,-10.86 1.05,-23.63 0.72,-12.81 1.23,-23.3 1.6,-31.54z"/>
    <path id="1" class="fil3" d="M286.23 80.5c-1.2,0 -2.87,0.04 -5.01,0.15 -2.11,0.1 -3.49,0.18 -4.14,0.18 -2.9,0 -4.94,-0.4 -6.13,-1.24 -1.17,-0.79 -1.74,-2.21 -1.74,-4.17 0,-0.94 0.14,-2 0.47,-3.23 0.32,-1.27 0.83,-2.65 1.56,-4.21 0.54,0 1.52,0.04 2.86,0.11 1.35,0.07 2.4,0.11 3.2,0.11 1.85,0 4.79,-0.11 8.82,-0.33 0.51,0 0.9,-0.03 1.16,-0.11 0,-0.8 0.03,-1.96 0.11,-3.52 0.07,-1.56 0.11,-2.68 0.11,-3.41 0,-5.52 -0.33,-10.41 -1.06,-14.62 -0.69,-4.22 -1.81,-7.92 -3.3,-11.11 3.05,-1.49 5.77,-2.61 8.2,-3.41 2.4,-0.77 4.47,-1.16 6.17,-1.16 2.9,0 5.01,0.9 6.32,2.72 1.3,1.81 1.96,4.75 1.96,8.85 0,1.78 -0.33,7.37 -0.95,16.7 -0.21,3.48 -0.39,6.24 -0.54,8.31 4.1,-0.58 7.8,-1.02 11.1,-1.31 3.27,-0.29 6.25,-0.43 8.86,-0.43 2.32,0 3.99,0.43 5.04,1.27 1.02,0.87 1.53,2.25 1.53,4.17 0,1.05 -0.33,2.4 -0.95,3.99 -0.65,1.6 -1.56,3.38 -2.79,5.37 -1.82,-0.43 -3.78,-0.76 -5.81,-0.98 -2.06,-0.21 -4.53,-0.32 -7.44,-0.32 -0.5,0 -1.99,0.03 -4.46,0.14 -2.47,0.11 -4.57,0.22 -6.35,0.29 -0.66,11.07 -1.09,20.14 -1.38,27.33 -0.29,7.15 -0.44,12.99 -0.44,17.53 0,9.83 0.88,16.73 2.62,20.65 1.7,3.96 4.64,5.92 8.74,5.92 1.13,0 2.33,-0.22 3.56,-0.62 1.23,-0.44 2.47,-1.09 3.74,-2 0.65,1.42 1.12,2.65 1.38,3.74 0.29,1.05 0.43,2 0.43,2.87 0,3.45 -1.41,6.31 -4.28,8.56 -2.87,2.22 -6.61,3.34 -11.21,3.34 -7.66,0 -13.32,-2.54 -17.03,-7.58 -3.73,-5.08 -5.58,-12.89 -5.58,-23.37 0,-2.98 0.36,-10.86 1.05,-23.63 0.72,-12.81 1.23,-23.3 1.6,-31.54z"/>
   </g>
  </g>
 </g>
</svg>
