<?xml version="1.0" encoding="UTF-8"?>
<!DOCTYPE svg PUBLIC "-//W3C//DTD SVG 1.1//EN" "http://www.w3.org/Graphics/SVG/1.1/DTD/svg11.dtd">
<!-- Creator: CorelDRAW 2017 -->
<svg xmlns="http://www.w3.org/2000/svg" xml:space="preserve" width="19.0498mm" height="11.0912mm" version="1.1" style="shape-rendering:geometricPrecision; text-rendering:geometricPrecision; image-rendering:optimizeQuality; fill-rule:evenodd; clip-rule:evenodd"
viewBox="0 0 1904.98 1109.12"
 xmlns:xlink="http://www.w3.org/1999/xlink">
 <defs>
  <style type="text/css">
   <![CDATA[
    .fil11 {fill:#0D1013}
    .fil9 {fill:#353635}
    .fil5 {fill:#56480F}
    .fil3 {fill:#787878}
    .fil8 {fill:#92520A}
    .fil7 {fill:#9EA1A7}
    .fil2 {fill:#B9A734}
    .fil10 {fill:#C6C6C8}
    .fil4 {fill:#CB782B}
    .fil1 {fill:#D1B16C}
    .fil12 {fill:#E7AA47}
    .fil13 {fill:#F6CD2E}
    .fil14 {fill:#FCD969}
    .fil6 {fill:#FDFDFD}
    .fil0 {fill:#FEF8C9}
   ]]>
  </style>
     <mask id="id0">
  <linearGradient id="id1" gradientUnits="userSpaceOnUse" x1="1755.35" y1="731" x2="1779.88" y2="731">
   <stop offset="0" style="stop-opacity:0; stop-color:white"/>
   <stop offset="1" style="stop-opacity:1; stop-color:white"/>
  </linearGradient>
      <rect style="fill:url(#id1)" x="1755.1" y="716.51" width="25.03" height="28.98"/>
     </mask>
     <mask id="id2">
  <linearGradient id="id3" gradientUnits="userSpaceOnUse" x1="493.39" y1="758.86" x2="509.88" y2="758.86">
   <stop offset="0" style="stop-opacity:0; stop-color:white"/>
   <stop offset="1" style="stop-opacity:1; stop-color:white"/>
  </linearGradient>
      <rect style="fill:url(#id3)" x="493.14" y="750.7" width="16.99" height="16.31"/>
     </mask>
     <mask id="id4">
  <linearGradient id="id5" gradientUnits="userSpaceOnUse" x1="1677.29" y1="362.63" x2="1735.53" y2="362.63">
   <stop offset="0" style="stop-opacity:0; stop-color:white"/>
   <stop offset="1" style="stop-opacity:1; stop-color:white"/>
  </linearGradient>
      <rect style="fill:url(#id5)" x="1677.04" y="334.3" width="58.74" height="56.66"/>
     </mask>
     <mask id="id6">
  <linearGradient id="id7" gradientUnits="userSpaceOnUse" x1="1011.62" y1="1065.05" x2="1038.6" y2="1065.05">
   <stop offset="0" style="stop-opacity:0; stop-color:white"/>
   <stop offset="1" style="stop-opacity:1; stop-color:white"/>
  </linearGradient>
      <rect style="fill:url(#id7)" x="1011.37" y="1056.88" width="27.48" height="16.35"/>
     </mask>
     <mask id="id8">
  <linearGradient id="id9" gradientUnits="userSpaceOnUse" x1="1475.16" y1="320.31" x2="1541.24" y2="320.31">
   <stop offset="0" style="stop-opacity:0; stop-color:white"/>
   <stop offset="1" style="stop-opacity:1; stop-color:white"/>
  </linearGradient>
      <rect style="fill:url(#id9)" x="1474.91" y="291.73" width="66.58" height="57.15"/>
     </mask>
     <mask id="id10">
  <linearGradient id="id11" gradientUnits="userSpaceOnUse" x1="1569.39" y1="350.18" x2="1667.06" y2="350.18">
   <stop offset="0" style="stop-opacity:0; stop-color:white"/>
   <stop offset="1" style="stop-opacity:1; stop-color:white"/>
  </linearGradient>
      <rect style="fill:url(#id11)" x="1569.14" y="335.73" width="98.17" height="28.9"/>
     </mask>
     <mask id="id12">
  <linearGradient id="id13" gradientUnits="userSpaceOnUse" x1="706.58" y1="368.06" x2="787.16" y2="368.06">
   <stop offset="0" style="stop-opacity:0; stop-color:white"/>
   <stop offset="1" style="stop-opacity:1; stop-color:white"/>
  </linearGradient>
      <rect style="fill:url(#id13)" x="706.33" y="321.65" width="81.08" height="92.82"/>
     </mask>
     <mask id="id14">
  <linearGradient id="id15" gradientUnits="userSpaceOnUse" x1="444.97" y1="114.87" x2="506.48" y2="114.87">
   <stop offset="0" style="stop-opacity:0; stop-color:white"/>
   <stop offset="1" style="stop-opacity:1; stop-color:white"/>
  </linearGradient>
      <rect style="fill:url(#id15)" x="444.72" y="65.5" width="62.01" height="98.74"/>
     </mask>
     <mask id="id16">
  <linearGradient id="id17" gradientUnits="userSpaceOnUse" x1="1394.28" y1="248.42" x2="1464.26" y2="248.42">
   <stop offset="0" style="stop-opacity:0; stop-color:white"/>
   <stop offset="1" style="stop-opacity:1; stop-color:white"/>
  </linearGradient>
      <rect style="fill:url(#id17)" x="1394.03" y="206.37" width="70.48" height="84.1"/>
     </mask>
     <mask id="id18">
  <linearGradient id="id19" gradientUnits="userSpaceOnUse" x1="167.93" y1="20.05" x2="233.28" y2="20.05">
   <stop offset="0" style="stop-opacity:0; stop-color:white"/>
   <stop offset="1" style="stop-opacity:1; stop-color:white"/>
  </linearGradient>
      <rect style="fill:url(#id19)" x="167.68" y="-1.69" width="65.85" height="43.47"/>
     </mask>
     <mask id="id20">
  <linearGradient id="id21" gradientUnits="userSpaceOnUse" x1="922.09" y1="342.32" x2="968.75" y2="342.32">
   <stop offset="0" style="stop-opacity:0; stop-color:white"/>
   <stop offset="1" style="stop-opacity:1; stop-color:white"/>
  </linearGradient>
      <rect style="fill:url(#id21)" x="921.84" y="320.24" width="47.16" height="44.16"/>
     </mask>
     <mask id="id22">
  <linearGradient id="id23" gradientUnits="userSpaceOnUse" x1="244.73" y1="26.17" x2="304.19" y2="26.17">
   <stop offset="0" style="stop-opacity:0; stop-color:white"/>
   <stop offset="1" style="stop-opacity:1; stop-color:white"/>
  </linearGradient>
      <rect style="fill:url(#id23)" x="244.48" y="12.37" width="59.96" height="27.6"/>
     </mask>
     <mask id="id24">
  <linearGradient id="id25" gradientUnits="userSpaceOnUse" x1="395.8" y1="52.71" x2="431.26" y2="52.71">
   <stop offset="0" style="stop-opacity:0; stop-color:white"/>
   <stop offset="1" style="stop-opacity:1; stop-color:white"/>
  </linearGradient>
      <rect style="fill:url(#id25)" x="395.55" y="37.68" width="35.96" height="30.05"/>
     </mask>
     <mask id="id26">
  <linearGradient id="id27" gradientUnits="userSpaceOnUse" x1="837.29" y1="331.93" x2="874.57" y2="331.93">
   <stop offset="0" style="stop-opacity:0; stop-color:white"/>
   <stop offset="1" style="stop-opacity:1; stop-color:white"/>
  </linearGradient>
      <rect style="fill:url(#id27)" x="837.04" y="321.19" width="37.78" height="21.47"/>
     </mask>
     <mask id="id28">
  <linearGradient id="id29" gradientUnits="userSpaceOnUse" x1="1022.95" y1="329.8" x2="1055.43" y2="329.8">
   <stop offset="0" style="stop-opacity:0; stop-color:white"/>
   <stop offset="1" style="stop-opacity:1; stop-color:white"/>
  </linearGradient>
      <rect style="fill:url(#id29)" x="1022.7" y="316.23" width="32.98" height="27.14"/>
     </mask>
     <mask id="id30">
  <linearGradient id="id31" gradientUnits="userSpaceOnUse" x1="1501.23" y1="244.16" x2="1519.65" y2="244.16">
   <stop offset="0" style="stop-opacity:0; stop-color:white"/>
   <stop offset="1" style="stop-opacity:1; stop-color:white"/>
  </linearGradient>
      <rect style="fill:url(#id31)" x="1500.98" y="229.54" width="18.92" height="29.24"/>
     </mask>
     <mask id="id32">
  <linearGradient id="id33" gradientUnits="userSpaceOnUse" x1="1351.82" y1="1070.56" x2="1401.03" y2="1070.56">
   <stop offset="0" style="stop-opacity:0; stop-color:white"/>
   <stop offset="1" style="stop-opacity:1; stop-color:white"/>
  </linearGradient>
      <rect style="fill:url(#id33)" x="1351.57" y="1062.17" width="49.71" height="16.77"/>
     </mask>
     <mask id="id34">
  <linearGradient id="id35" gradientUnits="userSpaceOnUse" x1="842.23" y1="319.87" x2="858.17" y2="319.87">
   <stop offset="0" style="stop-opacity:0; stop-color:white"/>
   <stop offset="1" style="stop-opacity:1; stop-color:white"/>
  </linearGradient>
      <rect style="fill:url(#id35)" x="841.98" y="315.76" width="16.44" height="8.22"/>
     </mask>
     <mask id="id36">
  <linearGradient id="id37" gradientUnits="userSpaceOnUse" x1="1395.71" y1="1059.07" x2="1403.04" y2="1059.07">
   <stop offset="0" style="stop-opacity:0; stop-color:white"/>
   <stop offset="1" style="stop-opacity:1; stop-color:white"/>
  </linearGradient>
      <rect style="fill:url(#id37)" x="1395.46" y="1055.47" width="7.83" height="7.2"/>
     </mask>
     <mask id="id38">
  <linearGradient id="id39" gradientUnits="userSpaceOnUse" x1="1509.55" y1="999.03" x2="1649.95" y2="999.03">
   <stop offset="0" style="stop-opacity:0; stop-color:white"/>
   <stop offset="1" style="stop-opacity:1; stop-color:white"/>
  </linearGradient>
      <rect style="fill:url(#id39)" x="1509.3" y="933.02" width="140.9" height="132.03"/>
     </mask>
     <mask id="id40">
  <linearGradient id="id41" gradientUnits="userSpaceOnUse" x1="166.43" y1="987.56" x2="229.77" y2="987.56">
   <stop offset="0" style="stop-opacity:0; stop-color:white"/>
   <stop offset="1" style="stop-opacity:1; stop-color:white"/>
  </linearGradient>
      <rect style="fill:url(#id41)" x="166.18" y="913.01" width="63.84" height="149.1"/>
     </mask>
     <mask id="id42">
  <linearGradient id="id43" gradientUnits="userSpaceOnUse" x1="1403.04" y1="1018.56" x2="1501.49" y2="1018.56">
   <stop offset="0" style="stop-opacity:0; stop-color:white"/>
   <stop offset="1" style="stop-opacity:1; stop-color:white"/>
  </linearGradient>
      <rect style="fill:url(#id43)" x="1402.79" y="971.23" width="98.95" height="94.66"/>
     </mask>
     <mask id="id44">
  <linearGradient id="id45" gradientUnits="userSpaceOnUse" x1="298.89" y1="939.26" x2="464.33" y2="939.26">
   <stop offset="0" style="stop-opacity:0; stop-color:white"/>
   <stop offset="1" style="stop-opacity:1; stop-color:white"/>
  </linearGradient>
      <rect style="fill:url(#id45)" x="298.64" y="892.6" width="165.94" height="93.33"/>
     </mask>
     <mask id="id46">
  <linearGradient id="id47" gradientUnits="userSpaceOnUse" x1="1326.83" y1="754.45" x2="1367.64" y2="754.45">
   <stop offset="0" style="stop-opacity:0; stop-color:white"/>
   <stop offset="1" style="stop-opacity:1; stop-color:white"/>
  </linearGradient>
      <rect style="fill:url(#id47)" x="1326.58" y="705.64" width="41.31" height="97.61"/>
     </mask>
     <mask id="id48">
  <linearGradient id="id49" gradientUnits="userSpaceOnUse" x1="939" y1="1055.72" x2="1009.38" y2="1055.72">
   <stop offset="0" style="stop-opacity:0; stop-color:white"/>
   <stop offset="1" style="stop-opacity:1; stop-color:white"/>
  </linearGradient>
      <rect style="fill:url(#id49)" x="938.75" y="1026.64" width="70.88" height="58.17"/>
     </mask>
     <mask id="id50">
  <linearGradient id="id51" gradientUnits="userSpaceOnUse" x1="840.53" y1="1054.53" x2="878.67" y2="1054.53">
   <stop offset="0" style="stop-opacity:0; stop-color:white"/>
   <stop offset="1" style="stop-opacity:1; stop-color:white"/>
  </linearGradient>
      <rect style="fill:url(#id51)" x="840.27" y="1031.17" width="38.65" height="46.72"/>
     </mask>
     <mask id="id52">
  <linearGradient id="id53" gradientUnits="userSpaceOnUse" x1="1318.42" y1="908.42" x2="1359.38" y2="908.42">
   <stop offset="0" style="stop-opacity:0; stop-color:white"/>
   <stop offset="1" style="stop-opacity:1; stop-color:white"/>
  </linearGradient>
      <rect style="fill:url(#id53)" x="1318.17" y="883.4" width="41.47" height="50.04"/>
     </mask>
     <mask id="id54">
  <linearGradient id="id55" gradientUnits="userSpaceOnUse" x1="945.14" y1="1005.56" x2="987.31" y2="1005.56">
   <stop offset="0" style="stop-opacity:0; stop-color:white"/>
   <stop offset="1" style="stop-opacity:1; stop-color:white"/>
  </linearGradient>
      <rect style="fill:url(#id55)" x="944.89" y="991.2" width="42.67" height="28.7"/>
     </mask>
     <mask id="id56">
  <linearGradient id="id57" gradientUnits="userSpaceOnUse" x1="753.71" y1="1077.96" x2="1071.91" y2="1077.96">
   <stop offset="0" style="stop-opacity:0; stop-color:white"/>
   <stop offset="1" style="stop-opacity:1; stop-color:white"/>
  </linearGradient>
      <rect style="fill:url(#id57)" x="753.46" y="1056.31" width="318.7" height="43.31"/>
     </mask>
     <mask id="id58">
  <linearGradient id="id59" gradientUnits="userSpaceOnUse" x1="1397.71" y1="1055.73" x2="1638.27" y2="1055.73">
   <stop offset="0" style="stop-opacity:0; stop-color:white"/>
   <stop offset="1" style="stop-opacity:1; stop-color:white"/>
  </linearGradient>
      <rect style="fill:url(#id59)" x="1397.46" y="1032.15" width="241.06" height="47.16"/>
     </mask>
     <mask id="id60">
  <linearGradient id="id61" gradientUnits="userSpaceOnUse" x1="223.99" y1="1002.89" x2="297.36" y2="1002.89">
   <stop offset="0" style="stop-opacity:0; stop-color:white"/>
   <stop offset="1" style="stop-opacity:1; stop-color:white"/>
  </linearGradient>
      <rect style="fill:url(#id61)" x="223.74" y="956.82" width="73.87" height="92.13"/>
     </mask>
     <mask id="id62">
  <linearGradient id="id63" gradientUnits="userSpaceOnUse" x1="1502.44" y1="1008.91" x2="1573.57" y2="1008.91">
   <stop offset="0" style="stop-opacity:0; stop-color:white"/>
   <stop offset="1" style="stop-opacity:1; stop-color:white"/>
  </linearGradient>
      <rect style="fill:url(#id63)" x="1502.18" y="963.92" width="71.64" height="89.98"/>
     </mask>
     <mask id="id64">
  <linearGradient id="id65" gradientUnits="userSpaceOnUse" x1="1466.84" y1="242.91" x2="1494.8" y2="242.91">
   <stop offset="0" style="stop-opacity:0; stop-color:white"/>
   <stop offset="1" style="stop-opacity:1; stop-color:white"/>
  </linearGradient>
      <rect style="fill:url(#id65)" x="1466.59" y="224.08" width="28.46" height="37.67"/>
     </mask>
     <mask id="id66">
  <linearGradient id="id67" gradientUnits="userSpaceOnUse" x1="1282.76" y1="747.57" x2="1314.57" y2="747.57">
   <stop offset="0" style="stop-opacity:0; stop-color:white"/>
   <stop offset="1" style="stop-opacity:1; stop-color:white"/>
  </linearGradient>
      <rect style="fill:url(#id67)" x="1282.51" y="729.65" width="32.31" height="35.85"/>
     </mask>
     <mask id="id68">
  <linearGradient id="id69" gradientUnits="userSpaceOnUse" x1="794.22" y1="357.47" x2="838.12" y2="357.47">
   <stop offset="0" style="stop-opacity:0; stop-color:white"/>
   <stop offset="1" style="stop-opacity:1; stop-color:white"/>
  </linearGradient>
      <rect style="fill:url(#id69)" x="793.97" y="347.36" width="44.4" height="20.21"/>
     </mask>
     <mask id="id70">
  <linearGradient id="id71" gradientUnits="userSpaceOnUse" x1="1415.88" y1="1067.67" x2="1905.61" y2="1067.67">
   <stop offset="0" style="stop-opacity:0; stop-color:white"/>
   <stop offset="1" style="stop-opacity:1; stop-color:white"/>
  </linearGradient>
      <rect style="fill:url(#id71)" x="1415.63" y="1049.85" width="490.23" height="35.65"/>
     </mask>
     <mask id="id72">
  <linearGradient id="id73" gradientUnits="userSpaceOnUse" x1="1449.64" y1="233.56" x2="1631.68" y2="233.56">
   <stop offset="0" style="stop-opacity:0; stop-color:white"/>
   <stop offset="1" style="stop-opacity:1; stop-color:white"/>
  </linearGradient>
      <rect style="fill:url(#id73)" x="1449.39" y="189.97" width="182.54" height="87.17"/>
     </mask>
     <mask id="id74">
  <linearGradient id="id75" gradientUnits="userSpaceOnUse" x1="1020.77" y1="365.48" x2="1106.85" y2="365.48">
   <stop offset="0" style="stop-opacity:0; stop-color:white"/>
   <stop offset="1" style="stop-opacity:1; stop-color:white"/>
  </linearGradient>
      <rect style="fill:url(#id75)" x="1020.52" y="314.97" width="86.59" height="101.01"/>
     </mask>
     <mask id="id76">
  <linearGradient id="id77" gradientUnits="userSpaceOnUse" x1="823.62" y1="343.09" x2="908.6" y2="343.09">
   <stop offset="0" style="stop-opacity:0; stop-color:white"/>
   <stop offset="1" style="stop-opacity:1; stop-color:white"/>
  </linearGradient>
      <rect style="fill:url(#id77)" x="823.37" y="315.76" width="85.48" height="54.66"/>
     </mask>
     <mask id="id78">
  <linearGradient id="id79" gradientUnits="userSpaceOnUse" x1="412.04" y1="100.71" x2="483.19" y2="100.71">
   <stop offset="0" style="stop-opacity:0; stop-color:white"/>
   <stop offset="1" style="stop-opacity:1; stop-color:white"/>
  </linearGradient>
      <rect style="fill:url(#id79)" x="411.79" y="39.08" width="71.65" height="123.25"/>
     </mask>
     <mask id="id80">
  <linearGradient id="id81" gradientUnits="userSpaceOnUse" x1="1365.26" y1="288.84" x2="1395.62" y2="288.84">
   <stop offset="0" style="stop-opacity:0; stop-color:white"/>
   <stop offset="1" style="stop-opacity:1; stop-color:white"/>
  </linearGradient>
      <rect style="fill:url(#id81)" x="1365.01" y="256.98" width="30.86" height="63.72"/>
     </mask>
     <mask id="id82">
  <linearGradient id="id83" gradientUnits="userSpaceOnUse" x1="885.71" y1="1074.53" x2="940.55" y2="1074.53">
   <stop offset="0" style="stop-opacity:0; stop-color:white"/>
   <stop offset="1" style="stop-opacity:1; stop-color:white"/>
  </linearGradient>
      <rect style="fill:url(#id83)" x="885.46" y="1065.22" width="55.34" height="18.62"/>
     </mask>
     <mask id="id84">
  <linearGradient id="id85" gradientUnits="userSpaceOnUse" x1="252.95" y1="1051.06" x2="293.86" y2="1051.06">
   <stop offset="0" style="stop-opacity:0; stop-color:white"/>
   <stop offset="1" style="stop-opacity:1; stop-color:white"/>
  </linearGradient>
      <rect style="fill:url(#id85)" x="252.7" y="1037" width="41.41" height="28.12"/>
     </mask>
     <mask id="id86">
  <linearGradient id="id87" gradientUnits="userSpaceOnUse" x1="1002.35" y1="324.64" x2="1032.55" y2="324.64">
   <stop offset="0" style="stop-opacity:0; stop-color:white"/>
   <stop offset="1" style="stop-opacity:1; stop-color:white"/>
  </linearGradient>
      <rect style="fill:url(#id87)" x="1002.1" y="310.27" width="30.7" height="28.72"/>
     </mask>
     <mask id="id88">
  <linearGradient id="id89" gradientUnits="userSpaceOnUse" x1="761.49" y1="333.33" x2="788.56" y2="333.33">
   <stop offset="0" style="stop-opacity:0; stop-color:white"/>
   <stop offset="1" style="stop-opacity:1; stop-color:white"/>
  </linearGradient>
      <rect style="fill:url(#id89)" x="761.24" y="316.02" width="27.57" height="34.61"/>
     </mask>
     <mask id="id90">
  <linearGradient id="id91" gradientUnits="userSpaceOnUse" x1="1414.63" y1="269.91" x2="1433.89" y2="269.91">
   <stop offset="0" style="stop-opacity:0; stop-color:white"/>
   <stop offset="1" style="stop-opacity:1; stop-color:white"/>
  </linearGradient>
      <rect style="fill:url(#id91)" x="1414.38" y="255.2" width="19.76" height="29.42"/>
     </mask>
     <mask id="id92">
  <linearGradient id="id93" gradientUnits="userSpaceOnUse" x1="135.62" y1="1025.63" x2="433.43" y2="1025.63">
   <stop offset="0" style="stop-opacity:0; stop-color:white"/>
   <stop offset="1" style="stop-opacity:1; stop-color:white"/>
  </linearGradient>
      <rect style="fill:url(#id93)" x="135.37" y="974.14" width="298.31" height="102.98"/>
     </mask>
     <mask id="id94">
  <linearGradient id="id95" gradientUnits="userSpaceOnUse" x1="784.62" y1="1042.66" x2="886.92" y2="1042.66">
   <stop offset="0" style="stop-opacity:0; stop-color:white"/>
   <stop offset="1" style="stop-opacity:1; stop-color:white"/>
  </linearGradient>
      <rect style="fill:url(#id95)" x="784.37" y="996.5" width="102.8" height="92.32"/>
     </mask>
     <mask id="id96">
  <linearGradient id="id97" gradientUnits="userSpaceOnUse" x1="896.01" y1="982.55" x2="918.63" y2="982.55">
   <stop offset="0" style="stop-opacity:0; stop-color:white"/>
   <stop offset="1" style="stop-opacity:1; stop-color:white"/>
  </linearGradient>
      <rect style="fill:url(#id97)" x="895.76" y="972.07" width="23.12" height="20.96"/>
     </mask>
     <mask id="id98">
  <linearGradient id="id99" gradientUnits="userSpaceOnUse" x1="4.39" y1="325.42" x2="299.99" y2="325.42">
   <stop offset="0" style="stop-opacity:0; stop-color:white"/>
   <stop offset="1" style="stop-opacity:1; stop-color:white"/>
  </linearGradient>
      <rect style="fill:url(#id99)" x="4.14" y="250.02" width="296.1" height="150.8"/>
     </mask>
     <mask id="id100">
  <linearGradient id="id101" gradientUnits="userSpaceOnUse" x1="865.06" y1="625.72" x2="1127.22" y2="625.72">
   <stop offset="0" style="stop-opacity:0; stop-color:white"/>
   <stop offset="1" style="stop-opacity:1; stop-color:white"/>
  </linearGradient>
      <rect style="fill:url(#id101)" x="864.81" y="584.55" width="262.66" height="82.33"/>
     </mask>
     <mask id="id102">
  <linearGradient id="id103" gradientUnits="userSpaceOnUse" x1="327.42" y1="336.06" x2="434.96" y2="336.06">
   <stop offset="0" style="stop-opacity:0; stop-color:white"/>
   <stop offset="1" style="stop-opacity:1; stop-color:white"/>
  </linearGradient>
      <rect style="fill:url(#id103)" x="327.17" y="294.56" width="108.04" height="83"/>
     </mask>
     <mask id="id104">
  <linearGradient id="id105" gradientUnits="userSpaceOnUse" x1="1123.6" y1="1013.57" x2="1166.41" y2="1013.57">
   <stop offset="0" style="stop-opacity:0; stop-color:white"/>
   <stop offset="1" style="stop-opacity:1; stop-color:white"/>
  </linearGradient>
      <rect style="fill:url(#id105)" x="1123.35" y="969.77" width="43.32" height="87.61"/>
     </mask>
     <mask id="id106">
  <linearGradient id="id107" gradientUnits="userSpaceOnUse" x1="1384.47" y1="274.01" x2="1412.94" y2="274.01">
   <stop offset="0" style="stop-opacity:0; stop-color:white"/>
   <stop offset="1" style="stop-opacity:1; stop-color:white"/>
  </linearGradient>
      <rect style="fill:url(#id107)" x="1384.21" y="238.37" width="28.98" height="71.28"/>
     </mask>
     <mask id="id108">
  <linearGradient id="id109" gradientUnits="userSpaceOnUse" x1="35.56" y1="833.13" x2="55.64" y2="833.13">
   <stop offset="0" style="stop-opacity:0; stop-color:white"/>
   <stop offset="1" style="stop-opacity:1; stop-color:white"/>
  </linearGradient>
      <rect style="fill:url(#id109)" x="35.31" y="786.02" width="20.59" height="94.23"/>
     </mask>
     <mask id="id110">
  <linearGradient id="id111" gradientUnits="userSpaceOnUse" x1="456.69" y1="834.91" x2="479.71" y2="834.91">
   <stop offset="0" style="stop-opacity:0; stop-color:white"/>
   <stop offset="1" style="stop-opacity:1; stop-color:white"/>
  </linearGradient>
      <rect style="fill:url(#id111)" x="456.44" y="825.9" width="23.52" height="18.02"/>
     </mask>
     <mask id="id112">
  <linearGradient id="id113" gradientUnits="userSpaceOnUse" x1="389.88" y1="82" x2="420.12" y2="82">
   <stop offset="0" style="stop-opacity:0; stop-color:white"/>
   <stop offset="1" style="stop-opacity:1; stop-color:white"/>
  </linearGradient>
      <rect style="fill:url(#id113)" x="389.63" y="74.15" width="30.74" height="15.69"/>
     </mask>
     <mask id="id114">
  <linearGradient id="id115" gradientUnits="userSpaceOnUse" x1="818.33" y1="1083.14" x2="1446.97" y2="1083.14">
   <stop offset="0" style="stop-opacity:0; stop-color:white"/>
   <stop offset="1" style="stop-opacity:1; stop-color:white"/>
  </linearGradient>
      <rect style="fill:url(#id115)" x="818.08" y="1055.47" width="629.14" height="55.33"/>
     </mask>
     <mask id="id116">
  <linearGradient id="id117" gradientUnits="userSpaceOnUse" x1="869.21" y1="344.7" x2="1034.48" y2="344.7">
   <stop offset="0" style="stop-opacity:0; stop-color:white"/>
   <stop offset="1" style="stop-opacity:1; stop-color:white"/>
  </linearGradient>
      <rect style="fill:url(#id117)" x="868.96" y="318.84" width="165.78" height="51.72"/>
     </mask>
     <mask id="id118">
  <linearGradient id="id119" gradientUnits="userSpaceOnUse" x1="772.95" y1="340.33" x2="845.02" y2="340.33">
   <stop offset="0" style="stop-opacity:0; stop-color:white"/>
   <stop offset="1" style="stop-opacity:1; stop-color:white"/>
  </linearGradient>
      <rect style="fill:url(#id119)" x="772.7" y="309.01" width="72.57" height="62.64"/>
     </mask>
     <mask id="id120">
  <linearGradient id="id121" gradientUnits="userSpaceOnUse" x1="331.5" y1="56.1" x2="451.59" y2="56.1">
   <stop offset="0" style="stop-opacity:0; stop-color:white"/>
   <stop offset="1" style="stop-opacity:1; stop-color:white"/>
  </linearGradient>
      <rect style="fill:url(#id121)" x="331.25" y="34.87" width="120.59" height="42.46"/>
     </mask>
     <mask id="id122">
  <linearGradient id="id123" gradientUnits="userSpaceOnUse" x1="1516.79" y1="238.76" x2="1547.35" y2="238.76">
   <stop offset="0" style="stop-opacity:0; stop-color:white"/>
   <stop offset="1" style="stop-opacity:1; stop-color:white"/>
  </linearGradient>
      <rect style="fill:url(#id123)" x="1516.53" y="218.7" width="31.07" height="40.12"/>
     </mask>
     <mask id="id124">
  <linearGradient id="id125" gradientUnits="userSpaceOnUse" x1="222.29" y1="14.31" x2="246.54" y2="14.31">
   <stop offset="0" style="stop-opacity:0; stop-color:white"/>
   <stop offset="1" style="stop-opacity:1; stop-color:white"/>
  </linearGradient>
      <rect style="fill:url(#id125)" x="222.04" y="1.13" width="24.75" height="26.36"/>
     </mask>
     <mask id="id126">
  <linearGradient id="id127" gradientUnits="userSpaceOnUse" x1="1566.26" y1="254.45" x2="1586.83" y2="254.45">
   <stop offset="0" style="stop-opacity:0; stop-color:white"/>
   <stop offset="1" style="stop-opacity:1; stop-color:white"/>
  </linearGradient>
      <rect style="fill:url(#id127)" x="1566.01" y="245.2" width="21.07" height="18.5"/>
     </mask>
     <mask id="id128">
  <linearGradient id="id129" gradientUnits="userSpaceOnUse" x1="867.62" y1="334.41" x2="884.52" y2="334.41">
   <stop offset="0" style="stop-opacity:0; stop-color:white"/>
   <stop offset="1" style="stop-opacity:1; stop-color:white"/>
  </linearGradient>
      <rect style="fill:url(#id129)" x="867.37" y="326.17" width="17.4" height="16.49"/>
     </mask>
     <mask id="id130">
  <linearGradient id="id131" gradientUnits="userSpaceOnUse" x1="1309.08" y1="475.86" x2="1776.81" y2="475.86">
   <stop offset="0" style="stop-opacity:0; stop-color:white"/>
   <stop offset="1" style="stop-opacity:1; stop-color:white"/>
  </linearGradient>
      <rect style="fill:url(#id131)" x="1308.83" y="341.33" width="468.23" height="269.07"/>
     </mask>
     <mask id="id132">
  <linearGradient id="id133" gradientUnits="userSpaceOnUse" x1="671.05" y1="550.23" x2="1006.39" y2="550.23">
   <stop offset="0" style="stop-opacity:0; stop-color:white"/>
   <stop offset="1" style="stop-opacity:1; stop-color:white"/>
  </linearGradient>
      <rect style="fill:url(#id133)" x="670.79" y="425.68" width="335.85" height="249.1"/>
     </mask>
     <mask id="id134">
  <linearGradient id="id135" gradientUnits="userSpaceOnUse" x1="649.15" y1="995.23" x2="744.03" y2="995.23">
   <stop offset="0" style="stop-opacity:0; stop-color:white"/>
   <stop offset="1" style="stop-opacity:1; stop-color:white"/>
  </linearGradient>
      <rect style="fill:url(#id135)" x="648.9" y="928.87" width="95.39" height="132.73"/>
     </mask>
     <mask id="id136">
  <linearGradient id="id137" gradientUnits="userSpaceOnUse" x1="358.04" y1="234.55" x2="506.48" y2="234.55">
   <stop offset="0" style="stop-opacity:0; stop-color:white"/>
   <stop offset="1" style="stop-opacity:1; stop-color:white"/>
  </linearGradient>
      <rect style="fill:url(#id137)" x="357.79" y="117.83" width="148.94" height="233.45"/>
     </mask>
     <mask id="id138">
  <linearGradient id="id139" gradientUnits="userSpaceOnUse" x1="1263.64" y1="828.84" x2="1366.68" y2="828.84">
   <stop offset="0" style="stop-opacity:0; stop-color:white"/>
   <stop offset="1" style="stop-opacity:1; stop-color:white"/>
  </linearGradient>
      <rect style="fill:url(#id139)" x="1263.39" y="764.43" width="103.54" height="128.82"/>
     </mask>
     <mask id="id140">
  <linearGradient id="id141" gradientUnits="userSpaceOnUse" x1="1083.76" y1="993.26" x2="1182.98" y2="993.26">
   <stop offset="0" style="stop-opacity:0; stop-color:white"/>
   <stop offset="1" style="stop-opacity:1; stop-color:white"/>
  </linearGradient>
      <rect style="fill:url(#id141)" x="1083.51" y="927.73" width="99.72" height="131.05"/>
     </mask>
     <mask id="id142">
  <linearGradient id="id143" gradientUnits="userSpaceOnUse" x1="434.32" y1="843.93" x2="523.33" y2="843.93">
   <stop offset="0" style="stop-opacity:0; stop-color:white"/>
   <stop offset="1" style="stop-opacity:1; stop-color:white"/>
  </linearGradient>
      <rect style="fill:url(#id143)" x="434.06" y="776.94" width="89.52" height="133.99"/>
     </mask>
     <mask id="id144">
  <linearGradient id="id145" gradientUnits="userSpaceOnUse" x1="148.94" y1="370.67" x2="350.07" y2="370.67">
   <stop offset="0" style="stop-opacity:0; stop-color:white"/>
   <stop offset="1" style="stop-opacity:1; stop-color:white"/>
  </linearGradient>
      <rect style="fill:url(#id145)" x="148.69" y="339.33" width="201.63" height="62.68"/>
     </mask>
     <mask id="id146">
  <linearGradient id="id147" gradientUnits="userSpaceOnUse" x1="1091.79" y1="524.1" x2="1165.39" y2="524.1">
   <stop offset="0" style="stop-opacity:0; stop-color:white"/>
   <stop offset="1" style="stop-opacity:1; stop-color:white"/>
  </linearGradient>
      <rect style="fill:url(#id147)" x="1091.54" y="418.65" width="74.11" height="210.9"/>
     </mask>
     <mask id="id148">
  <linearGradient id="id149" gradientUnits="userSpaceOnUse" x1="1755.41" y1="812.85" x2="1794.63" y2="812.85">
   <stop offset="0" style="stop-opacity:0; stop-color:white"/>
   <stop offset="1" style="stop-opacity:1; stop-color:white"/>
  </linearGradient>
      <rect style="fill:url(#id149)" x="1755.16" y="755.95" width="39.72" height="113.8"/>
     </mask>
     <mask id="id150">
  <linearGradient id="id151" gradientUnits="userSpaceOnUse" x1="182.1" y1="43.8" x2="216.05" y2="43.8">
   <stop offset="0" style="stop-opacity:0; stop-color:white"/>
   <stop offset="1" style="stop-opacity:1; stop-color:white"/>
  </linearGradient>
      <rect style="fill:url(#id151)" x="181.85" y="19.87" width="34.45" height="47.85"/>
     </mask>
     <mask id="id152">
  <linearGradient id="id153" gradientUnits="userSpaceOnUse" x1="52.34" y1="478.11" x2="484.46" y2="478.11">
   <stop offset="0" style="stop-opacity:0; stop-color:white"/>
   <stop offset="1" style="stop-opacity:1; stop-color:white"/>
  </linearGradient>
      <rect style="fill:url(#id153)" x="52.09" y="273.44" width="432.63" height="409.35"/>
     </mask>
     <mask id="id154">
  <linearGradient id="id155" gradientUnits="userSpaceOnUse" x1="102.87" y1="240.68" x2="464.55" y2="240.68">
   <stop offset="0" style="stop-opacity:0; stop-color:white"/>
   <stop offset="1" style="stop-opacity:1; stop-color:white"/>
  </linearGradient>
      <rect style="fill:url(#id155)" x="102.62" y="117.41" width="362.19" height="246.54"/>
     </mask>
     <mask id="id156">
  <linearGradient id="id157" gradientUnits="userSpaceOnUse" x1="216.15" y1="884.45" x2="509.31" y2="884.45">
   <stop offset="0" style="stop-opacity:0; stop-color:white"/>
   <stop offset="1" style="stop-opacity:1; stop-color:white"/>
  </linearGradient>
      <rect style="fill:url(#id157)" x="215.9" y="707" width="293.66" height="354.9"/>
     </mask>
     <mask id="id158">
  <linearGradient id="id159" gradientUnits="userSpaceOnUse" x1="1397.09" y1="983.66" x2="1720.18" y2="983.66">
   <stop offset="0" style="stop-opacity:0; stop-color:white"/>
   <stop offset="1" style="stop-opacity:1; stop-color:white"/>
  </linearGradient>
      <rect style="fill:url(#id159)" x="1396.84" y="901.43" width="323.59" height="164.46"/>
     </mask>
     <mask id="id160">
  <linearGradient id="id161" gradientUnits="userSpaceOnUse" x1="709.93" y1="999.21" x2="919.4" y2="999.21">
   <stop offset="0" style="stop-opacity:0; stop-color:white"/>
   <stop offset="1" style="stop-opacity:1; stop-color:white"/>
  </linearGradient>
      <rect style="fill:url(#id161)" x="709.68" y="922.13" width="209.97" height="154.15"/>
     </mask>
     <mask id="id162">
  <linearGradient id="id163" gradientUnits="userSpaceOnUse" x1="935.45" y1="1009.64" x2="1120.35" y2="1009.64">
   <stop offset="0" style="stop-opacity:0; stop-color:white"/>
   <stop offset="1" style="stop-opacity:1; stop-color:white"/>
  </linearGradient>
      <rect style="fill:url(#id163)" x="935.2" y="945.62" width="185.4" height="128.05"/>
     </mask>
     <mask id="id164">
  <linearGradient id="id165" gradientUnits="userSpaceOnUse" x1="1549.24" y1="316.27" x2="1710.3" y2="316.27">
   <stop offset="0" style="stop-opacity:0; stop-color:white"/>
   <stop offset="1" style="stop-opacity:1; stop-color:white"/>
  </linearGradient>
      <rect style="fill:url(#id165)" x="1548.99" y="276.19" width="161.56" height="80.16"/>
     </mask>
     <mask id="id166">
  <linearGradient id="id167" gradientUnits="userSpaceOnUse" x1="835.1" y1="659.58" x2="1118.39" y2="659.58">
   <stop offset="0" style="stop-opacity:0; stop-color:white"/>
   <stop offset="1" style="stop-opacity:1; stop-color:white"/>
  </linearGradient>
      <rect style="fill:url(#id167)" x="834.85" y="626.39" width="283.79" height="66.38"/>
     </mask>
     <mask id="id168">
  <linearGradient id="id169" gradientUnits="userSpaceOnUse" x1="1493.36" y1="608.72" x2="1689.27" y2="608.72">
   <stop offset="0" style="stop-opacity:0; stop-color:white"/>
   <stop offset="1" style="stop-opacity:1; stop-color:white"/>
  </linearGradient>
      <rect style="fill:url(#id169)" x="1493.11" y="584.49" width="196.41" height="48.47"/>
     </mask>
     <mask id="id170">
  <linearGradient id="id171" gradientUnits="userSpaceOnUse" x1="1260.52" y1="752.24" x2="1374.94" y2="752.24">
   <stop offset="0" style="stop-opacity:0; stop-color:white"/>
   <stop offset="1" style="stop-opacity:1; stop-color:white"/>
  </linearGradient>
      <rect style="fill:url(#id171)" x="1260.27" y="694.12" width="114.92" height="116.24"/>
     </mask>
     <mask id="id172">
  <linearGradient id="id173" gradientUnits="userSpaceOnUse" x1="138.88" y1="899.63" x2="217.49" y2="899.63">
   <stop offset="0" style="stop-opacity:0; stop-color:white"/>
   <stop offset="1" style="stop-opacity:1; stop-color:white"/>
  </linearGradient>
      <rect style="fill:url(#id173)" x="138.63" y="840.68" width="79.11" height="117.91"/>
     </mask>
     <mask id="id174">
  <linearGradient id="id175" gradientUnits="userSpaceOnUse" x1="155.29" y1="1012.46" x2="205.23" y2="1012.46">
   <stop offset="0" style="stop-opacity:0; stop-color:white"/>
   <stop offset="1" style="stop-opacity:1; stop-color:white"/>
  </linearGradient>
      <rect style="fill:url(#id175)" x="155.04" y="960.74" width="50.44" height="103.44"/>
     </mask>
     <mask id="id176">
  <linearGradient id="id177" gradientUnits="userSpaceOnUse" x1="651.16" y1="876.27" x2="696.11" y2="876.27">
   <stop offset="0" style="stop-opacity:0; stop-color:white"/>
   <stop offset="1" style="stop-opacity:1; stop-color:white"/>
  </linearGradient>
      <rect style="fill:url(#id177)" x="650.91" y="814.1" width="45.45" height="124.35"/>
     </mask>
     <mask id="id178">
  <linearGradient id="id179" gradientUnits="userSpaceOnUse" x1="1592.34" y1="1016.9" x2="1637.3" y2="1016.9">
   <stop offset="0" style="stop-opacity:0; stop-color:white"/>
   <stop offset="1" style="stop-opacity:1; stop-color:white"/>
  </linearGradient>
      <rect style="fill:url(#id179)" x="1592.1" y="971.74" width="45.45" height="90.32"/>
     </mask>
     <mask id="id180">
  <linearGradient id="id181" gradientUnits="userSpaceOnUse" x1="1775.39" y1="746.08" x2="1819.09" y2="746.08">
   <stop offset="0" style="stop-opacity:0; stop-color:white"/>
   <stop offset="1" style="stop-opacity:1; stop-color:white"/>
  </linearGradient>
      <rect style="fill:url(#id181)" x="1775.14" y="717.27" width="44.2" height="57.63"/>
     </mask>
     <mask id="id182">
  <linearGradient id="id183" gradientUnits="userSpaceOnUse" x1="88.13" y1="934.8" x2="140.17" y2="934.8">
   <stop offset="0" style="stop-opacity:0; stop-color:white"/>
   <stop offset="1" style="stop-opacity:1; stop-color:white"/>
  </linearGradient>
      <rect style="fill:url(#id183)" x="87.88" y="908.17" width="52.54" height="53.25"/>
     </mask>
     <mask id="id184">
  <linearGradient id="id185" gradientUnits="userSpaceOnUse" x1="504.61" y1="788.34" x2="545.14" y2="788.34">
   <stop offset="0" style="stop-opacity:0; stop-color:white"/>
   <stop offset="1" style="stop-opacity:1; stop-color:white"/>
  </linearGradient>
      <rect style="fill:url(#id185)" x="504.36" y="760.07" width="41.03" height="56.53"/>
     </mask>
     <mask id="id186">
  <linearGradient id="id187" gradientUnits="userSpaceOnUse" x1="655.38" y1="797.15" x2="1180.76" y2="797.15">
   <stop offset="0" style="stop-opacity:0; stop-color:white"/>
   <stop offset="1" style="stop-opacity:1; stop-color:white"/>
  </linearGradient>
      <rect style="fill:url(#id187)" x="655.13" y="595.58" width="525.88" height="403.15"/>
     </mask>
     <mask id="id188">
  <linearGradient id="id189" gradientUnits="userSpaceOnUse" x1="679.96" y1="498.75" x2="1147.01" y2="498.75">
   <stop offset="0" style="stop-opacity:0; stop-color:white"/>
   <stop offset="1" style="stop-opacity:1; stop-color:white"/>
  </linearGradient>
      <rect style="fill:url(#id189)" x="679.71" y="363.55" width="467.55" height="270.41"/>
     </mask>
     <mask id="id190">
  <linearGradient id="id191" gradientUnits="userSpaceOnUse" x1="1396.78" y1="549.64" x2="1721.66" y2="549.64">
   <stop offset="0" style="stop-opacity:0; stop-color:white"/>
   <stop offset="1" style="stop-opacity:1; stop-color:white"/>
  </linearGradient>
      <rect style="fill:url(#id191)" x="1396.53" y="517.05" width="325.38" height="65.18"/>
     </mask>
     <mask id="id192">
  <linearGradient id="id193" gradientUnits="userSpaceOnUse" x1="1352.14" y1="914.96" x2="1507.07" y2="914.96">
   <stop offset="0" style="stop-opacity:0; stop-color:white"/>
   <stop offset="1" style="stop-opacity:1; stop-color:white"/>
  </linearGradient>
      <rect style="fill:url(#id193)" x="1351.89" y="871.47" width="155.43" height="86.98"/>
     </mask>
     <mask id="id194">
  <linearGradient id="id195" gradientUnits="userSpaceOnUse" x1="1584.03" y1="912.54" x2="1753.9" y2="912.54">
   <stop offset="0" style="stop-opacity:0; stop-color:white"/>
   <stop offset="1" style="stop-opacity:1; stop-color:white"/>
  </linearGradient>
      <rect style="fill:url(#id195)" x="1583.78" y="880.27" width="170.37" height="64.54"/>
     </mask>
     <mask id="id196">
  <linearGradient id="id197" gradientUnits="userSpaceOnUse" x1="1353.44" y1="785.61" x2="1386.79" y2="785.61">
   <stop offset="0" style="stop-opacity:0; stop-color:white"/>
   <stop offset="1" style="stop-opacity:1; stop-color:white"/>
  </linearGradient>
      <rect style="fill:url(#id197)" x="1353.19" y="704.16" width="33.85" height="162.89"/>
     </mask>
     <mask id="id198">
  <linearGradient id="id199" gradientUnits="userSpaceOnUse" x1="15.43" y1="751.71" x2="53.97" y2="751.71">
   <stop offset="0" style="stop-opacity:0; stop-color:white"/>
   <stop offset="1" style="stop-opacity:1; stop-color:white"/>
  </linearGradient>
      <rect style="fill:url(#id199)" x="15.18" y="712.76" width="39.04" height="77.89"/>
     </mask>
     <mask id="id200">
  <linearGradient id="id201" gradientUnits="userSpaceOnUse" x1="479.75" y1="783.43" x2="530.25" y2="783.43">
   <stop offset="0" style="stop-opacity:0; stop-color:white"/>
   <stop offset="1" style="stop-opacity:1; stop-color:white"/>
  </linearGradient>
      <rect style="fill:url(#id201)" x="479.5" y="748.33" width="51" height="70.2"/>
     </mask>
     <mask id="id202">
  <linearGradient id="id203" gradientUnits="userSpaceOnUse" x1="123.99" y1="948.35" x2="191.7" y2="948.35">
   <stop offset="0" style="stop-opacity:0; stop-color:white"/>
   <stop offset="1" style="stop-opacity:1; stop-color:white"/>
  </linearGradient>
      <rect style="fill:url(#id203)" x="123.73" y="934.8" width="68.22" height="27.09"/>
     </mask>
     <mask id="id204">
  <linearGradient id="id205" gradientUnits="userSpaceOnUse" x1="1562.67" y1="895.81" x2="1582.88" y2="895.81">
   <stop offset="0" style="stop-opacity:0; stop-color:white"/>
   <stop offset="1" style="stop-opacity:1; stop-color:white"/>
  </linearGradient>
      <rect style="fill:url(#id205)" x="1562.42" y="888.35" width="20.71" height="14.92"/>
     </mask>
     <mask id="id206">
  <linearGradient id="id207" gradientUnits="userSpaceOnUse" x1="-0.64" y1="653" x2="557.32" y2="653">
   <stop offset="0" style="stop-opacity:0; stop-color:white"/>
   <stop offset="1" style="stop-opacity:1; stop-color:white"/>
  </linearGradient>
      <rect style="fill:url(#id207)" x="-0.89" y="352.34" width="558.46" height="601.32"/>
     </mask>
     <mask id="id208">
  <linearGradient id="id209" gradientUnits="userSpaceOnUse" x1="1229.76" y1="727.66" x2="1823.99" y2="727.66">
   <stop offset="0" style="stop-opacity:0; stop-color:white"/>
   <stop offset="1" style="stop-opacity:1; stop-color:white"/>
  </linearGradient>
      <rect style="fill:url(#id209)" x="1229.5" y="512.81" width="594.74" height="429.7"/>
     </mask>
     <mask id="id210">
  <linearGradient id="id211" gradientUnits="userSpaceOnUse" x1="1317.59" y1="406.64" x2="1769.15" y2="406.64">
   <stop offset="0" style="stop-opacity:0; stop-color:white"/>
   <stop offset="1" style="stop-opacity:1; stop-color:white"/>
  </linearGradient>
      <rect style="fill:url(#id211)" x="1317.33" y="258.26" width="452.07" height="296.76"/>
     </mask>
     <mask id="id212">
  <linearGradient id="id213" gradientUnits="userSpaceOnUse" x1="9.19" y1="185.96" x2="454.25" y2="185.96">
   <stop offset="0" style="stop-opacity:0; stop-color:white"/>
   <stop offset="1" style="stop-opacity:1; stop-color:white"/>
  </linearGradient>
      <rect style="fill:url(#id213)" x="8.94" y="26.74" width="445.56" height="318.45"/>
     </mask>
     <mask id="id214">
  <linearGradient id="id215" gradientUnits="userSpaceOnUse" x1="718.7" y1="808.74" x2="1119.25" y2="808.74">
   <stop offset="0" style="stop-opacity:0; stop-color:white"/>
   <stop offset="1" style="stop-opacity:1; stop-color:white"/>
  </linearGradient>
      <rect style="fill:url(#id215)" x="718.45" y="658.91" width="401.05" height="299.65"/>
     </mask>
     <mask id="id216">
  <linearGradient id="id217" gradientUnits="userSpaceOnUse" x1="694.56" y1="504.53" x2="1077.84" y2="504.53">
   <stop offset="0" style="stop-opacity:0; stop-color:white"/>
   <stop offset="1" style="stop-opacity:1; stop-color:white"/>
  </linearGradient>
      <rect style="fill:url(#id217)" x="694.31" y="390.78" width="383.78" height="227.5"/>
     </mask>
     <mask id="id218">
  <linearGradient id="id219" gradientUnits="userSpaceOnUse" x1="1304.52" y1="741.04" x2="1343.86" y2="741.04">
   <stop offset="0" style="stop-opacity:0; stop-color:white"/>
   <stop offset="1" style="stop-opacity:1; stop-color:white"/>
  </linearGradient>
      <rect style="fill:url(#id219)" x="1304.27" y="708.6" width="39.84" height="64.88"/>
     </mask>
 </defs>
 <g id="Capa_x0020_1">
  <metadata id="CorelCorpID_0Corel-Layer"/>
  <g id="_2982804174768">
   <g>
    <path class="fil0" style="mask:url(#id0)" d="M1775.39 739.26c1.59,-2.23 2.7,-2.76 4.49,-5.68l-2 -16.82c-7.13,0.64 -17.13,0.01 -21.14,4.55 -3.28,5.43 0.15,17.05 1.13,23.93l17.52 -5.98z"/>
    <path class="fil0" style="mask:url(#id2)" d="M509.88 765.09l-0.4 -5.72c-0.19,-0.34 -0.36,-1.28 -0.45,-1.06 -0.55,1.38 2.88,-4.41 -12.57,-7.36l-3.07 15.81c8.03,-4.12 6.94,-4.55 16.49,-1.67z"/>
   </g>
   <g>
    <path class="fil1" style="mask:url(#id4)" d="M1710.3 356.1l13.43 2.65 0.77 17.74c-12.71,-2.84 -17.46,-6.79 -22.58,-16.36 -6.68,-0.15 -19.48,2.43 -24.63,5.35l49.86 25.23 8.38 -23.83c-1.49,-7.55 -6.18,-13.28 -10.66,-18.75 -5.12,-6.24 -10.53,-10.73 -18.44,-13.58l3.87 21.55z"/>
    <path class="fil1" style="mask:url(#id6)" d="M1038.5 1071.72l0.1 -1.94c-3.18,-5.64 0.84,-1.52 -4.14,-5.4 -1.82,-1.42 -3.82,-2.4 -6.28,-3.58 -4.54,-2.19 -10.55,-3.55 -16.56,-3.67 3.93,10.95 0.24,9.04 10.21,12.86 1.17,0.45 6.82,2.86 7.79,2.94 4.83,0.42 1.11,-2.21 8.88,-1.21z"/>
   </g>
   <g>
    <path class="fil2" style="mask:url(#id8)" d="M1484.89 293.78l19.91 7.6 -22.35 5.1c21.13,7.06 3.86,18.46 -1.36,23.55 -5.45,5.33 -4.74,8.65 -5.93,18.6 11.36,-3.24 17.33,-8.04 31.53,-7.45 11.58,0.49 22.54,4.05 34.55,4.95 -2,-8.58 -9.24,-38.33 -12.49,-43.51 -6.49,-10.33 -30.81,-12.82 -43.86,-8.84z"/>
    <path class="fil2" style="mask:url(#id10)" d="M1569.91 338.62c4.93,8.55 0.12,6.36 1.37,9.85l17.49 0.13c-5.28,3.5 -10.34,3.37 -14.87,5.44l-4.51 3c12.07,7.57 32.39,1.84 48.2,1.83 18.69,-0.02 31.79,3.71 49.47,5.51l-2.39 -2.27c-11.82,-9.4 -27.82,-9.13 -42.07,-8.76l1.92 -1.57c5.63,-3.64 8.71,-3.37 14.41,-5.72l5.73 -3.49 -49.8 -6.59c-8.29,0.39 -11.75,3.42 -20.84,3.06l-4.11 -0.42z"/>
   </g>
   <g>
    <path class="fil3" style="mask:url(#id12)" d="M711.57 414.22c10.23,-2.01 11.55,-5.56 16.95,-12.09 3.92,-4.75 10.14,-9.06 16.93,-12.58 12.6,-6.54 30.31,-11.69 41.71,-18.15 -2.52,-12.47 -2.78,-10.23 -9.36,-13.13 -3.33,-1.46 -0.04,0.17 -3.01,-1.58l-1.84 -1.45c3.9,-1.77 4.88,-1.49 7.2,-4.86l0.1 -11.8 -14.57 1.78 -4.19 -18.46c-15.25,11.12 -17.94,3.12 -40.1,36.53 -9.17,13.83 -22,37.24 -9.82,55.79z"/>
    <path class="fil3" style="mask:url(#id14)" d="M483.18 162.08c0.86,2.24 -1.42,1.53 1.76,1.91 9.39,-18.48 1.82,-15.98 21.54,-21.57 0,-27.34 -8.15,-61.19 -31.14,-74.82l-5.39 -1.84c-3.41,0.08 -1.55,-0.47 -4.17,1.74l-20.81 26.47c2.19,4.38 9.35,10.61 13.06,14.94 9.86,11.5 25.32,50.85 25.15,53.17z"/>
    <path class="fil3" style="mask:url(#id16)" d="M1394.28 238.62l11.68 2.54c-0.83,22.41 7.6,29.26 6.94,49.06 0.95,-1.19 0.2,0.14 1.92,-2.55 1.41,-2.19 1.14,-1.94 1.81,-3.3 -2.65,-13.19 -3.02,-17.71 1.09,-28.92 5.22,2.32 6.12,5.05 9.6,9.48 2.73,3.46 4.82,5.66 6.57,10.75l30.37 -8.29c-2.58,-11.73 -6.68,-17.04 -8.61,-27.94 -1.95,-11.05 -3.32,-22.09 -6.01,-32.83 -27.83,0 -31.12,6.04 -50.11,24.87 -3.63,3.6 -3.22,2.59 -5.25,7.13z"/>
    <path class="fil3" style="mask:url(#id18)" d="M186.49 32.3l-4.39 -12.06c5.4,2.04 5.83,1.6 10.87,-0.12 6.59,8.49 6.43,13.22 11.48,21.41 4.32,-2.84 5.94,-8.72 11.55,-12.91 3.58,-2.58 6.95,-1.29 12.35,-1.4l-6.06 -9.27 9.77 -9.55c-3.67,-11.34 6.26,-6.68 -2.53,-9.5 -0.49,-0.16 -1.49,-0.27 -2.81,-0.34l-16.29 0 -0.19 0 -0.17 0c-0.41,4.98 -2.51,10.38 -5.62,12.66l-4.21 -1.41 0 -9.84c-6.16,4.13 -5.04,2.75 -11.24,-1.41l0 12.66c-9.77,-5.18 -12.79,-1.58 -21.07,2.81l18.56 18.27z"/>
    <path class="fil3" style="mask:url(#id20)" d="M922.09 338.77c4.79,9.69 11.3,19.43 18.45,25.38 15.43,-3.58 24.15,-9.24 28.21,-24.01l-14.28 -5.28c1.37,-1.98 0.43,-0.73 2.05,-2.5l7.97 -7.65 -7.82 -4.22c-5.66,1.76 -10.97,5.92 -17.06,8.91 -6.82,3.35 -11.1,6.23 -17.52,9.37z"/>
    <path class="fil3" style="mask:url(#id22)" d="M246.54 27.24c16.42,3.98 41.03,14.75 57.65,12.05 -5.38,-7.87 -14.37,-13.82 -23.41,-18.71 -8.63,-4.68 -23.28,-7.96 -36.05,-7.96l1.81 14.62z"/>
    <path class="fil3" style="mask:url(#id24)" d="M425.29 58.2c-0.06,-5.06 -2.17,-8.5 -0.12,-11.75 3.07,-4.86 5.14,-0.63 6.09,-7.12 -12.9,0 -21.33,-1.4 -35.08,-1.4 -0.14,5.21 -1.18,15.45 0.94,19.66 1.22,2.43 9.56,8.14 12.43,9.89 6.08,-2.08 10.11,-6.72 15.74,-9.28z"/>
    <path class="fil3" style="mask:url(#id26)" d="M871.64 342.41c-2.15,-4.29 -3.14,-4.64 -4.02,-9.7 3.46,-4.35 1.67,-3.67 6.95,-6.29l0 -1.71c-3.67,-3.11 -2.44,-2.44 -8.48,-3.15 -5.2,-0.93 -12.37,3.93 -17.46,6.75 -8.58,4.74 -7.58,5.5 -11.34,14.05l34.35 0.05z"/>
    <path class="fil3" style="mask:url(#id28)" d="M1032.55 317.68l-9.36 4.22c-0.25,6.94 -0.87,12.5 1.9,16.84l6.78 2.03c10.73,4.36 14.87,2.05 23.56,-2.11 -7.02,-6.79 -19.76,-8.32 -25.81,-15.75l14.88 -0.27c0.23,-0.49 0.05,-5.59 0,-5.86 -5.39,-0.75 -7.7,0.1 -11.95,0.9z"/>
    <path class="fil3" style="mask:url(#id30)" d="M1505.49 258.51l14.16 0.02 -1.57 -26.72 -12.73 -2.02c-7.69,12.89 -2.8,15.49 0.14,28.72z"/>
    <path class="fil3" style="mask:url(#id32)" d="M1397.71 1078.69l3.32 -16.27c-11.43,4.08 -35.87,6.15 -49.21,7.2 10.14,5.63 32.78,6.12 45.89,9.07z"/>
    <path class="fil3" style="mask:url(#id34)" d="M858.17 319.09c-6.88,-0.5 -6.98,-2.78 -13.15,-2.25l-2.79 -0.83 0.08 7.72c4.7,-0.47 13.29,-0.48 15.86,-4.64z"/>
    <path class="fil3" style="mask:url(#id36)" d="M1401.03 1062.42l2.01 -6.6 -5.54 -0.1c-1.45,2.11 -0.86,1.6 -1.79,4.38l5.32 2.32z"/>
   </g>
   <g>
    <path class="fil4" style="mask:url(#id38)" d="M1510.94 974.83l62.63 -10.66 -7.27 68.51 6.41 -0.19c0.06,-0.19 0.03,-0.04 0.04,0.22l1.29 4.69c0.97,2.07 3.05,4.92 4.44,6.92 12.21,17.52 12.66,20.51 47.37,20.47l0.17 -4.69c-37.51,-23.16 -33.61,-15.02 -33.51,-49.39 0.1,-35.19 12.71,-36.57 44.79,-38.72 6.48,2.07 5.39,3.6 12.65,0.8l-0.63 0.4c-6.13,-8.8 -28.24,-4.43 -35.36,-23.56 -20.22,0.37 -15.87,6.35 -28.64,10.49 -6.58,-6.09 -14.34,-18.88 -19.35,-24.21l-3.12 -2.64c-6.8,9.59 -7.1,16.32 -19.12,20.38 -10.3,3.48 -24.93,1.01 -33.14,4.54 -2.13,6.35 -0.43,9.06 0.35,16.64z"/>
    <path class="fil4" style="mask:url(#id40)" d="M188.16 958.34l-17.77 2.65c10.47,9.49 38.85,5.3 34.36,51.46 -2.87,29.51 -13.89,32.53 -32.09,43.76l-6.23 5.65c10.68,-1.74 33.27,-5.18 40.39,-10.79 8.99,-7.07 11.52,-20.51 22.95,-26.98l-5.78 -66.43c0.85,-6.67 0.46,-13.8 -1.81,-17.95 -1.33,-2.46 -4.01,-5.25 -4.7,-6.86 -1.55,-3.64 -1.25,-8.31 -1.33,-12.46l1.34 -7.13 -8.52 0.25c-0.69,6.66 -2.29,13.45 -3.15,20.05 -1.21,9.41 2.01,10.29 3.07,19.39l-20.73 5.39z"/>
    <path class="fil4" style="mask:url(#id42)" d="M1450.46 978.4c-5.02,13.02 4.78,35.32 -11.18,52.07 -12.1,12.72 -34.24,7.99 -36.24,25.35 16.06,-3.74 31.23,-5.11 47.53,-1.62 10.55,2.26 12.43,4.42 20.21,7.89 7.14,3.18 16.17,3.06 24.28,3.55 -12.73,-27.9 -30.7,1.54 -32.25,-73.9 34.96,2.66 22.87,0.6 30.75,19.21l7.93 -33.95c-10.22,-7.81 -29.02,-5.74 -41.71,-3.38 -5.32,0.98 -9.73,0.64 -9.32,4.78z"/>
    <path class="fil4" style="mask:url(#id44)" d="M318.14 985.68c-0.46,-9.34 3.36,-9.49 12.73,-10.16 4.56,-0.33 15.56,-2.4 18.28,0.07 11.03,-0.64 27.84,-4.39 37.41,-7.54 30.17,-9.91 53.79,-25.78 73.41,-50.23 3.21,-4 3.05,-1.79 4.36,-7.14 -8.21,-3.84 -7.19,-5.33 -11.31,-8.09 -6.66,-4.48 -1.3,1.08 -8.2,-7.43 -2.12,-2.6 0.66,-0.32 -2.45,-2.31 3.9,35.88 2.59,33.74 -56.99,54.33 -14.06,4.85 -27.53,9.8 -41.59,14.61 -10.09,3.46 -39.9,6.15 -44.9,12.4 1.77,7.76 11.18,8.96 19.25,11.49z"/>
    <path class="fil4" style="mask:url(#id46)" d="M1341.17 742.13c-1.39,6.83 -2.39,12.43 -3.35,19.52 -1.08,7.9 -1.98,12.03 -10.99,11.53 8.44,9.81 17.86,19.52 26.61,29.82l14.2 -81.9 -0.69 -10.76 -9.11 -4.45 -16.67 36.24z"/>
    <path class="fil4" style="mask:url(#id48)" d="M943.44 1055.49l-3.37 10.87 -1.07 17.23 1.55 -0.41c13.46,1.45 22.89,2.8 35.48,-1.8 13.09,-4.79 13.85,-8.18 29.57,-8.45 -0.64,-9.41 -3.56,-9.25 -6.07,-16.37l9.85 0.95c-0.13,-6.38 -1.7,-9.86 -3.31,-15.35 -1.47,-5.01 -2.32,-9.33 -3.72,-13.79l-16.07 -1.48c-1.19,10.13 -3.5,22.88 -6.32,31.74 -4.39,13.84 -7.81,11.44 -20.97,14.79 -5.43,-6.19 -10.94,-17.28 -15.55,-17.93z"/>
    <path class="fil4" style="mask:url(#id50)" d="M850.16 1031.42c-2.98,9.71 -9.3,20.97 -9.62,32.77 -0.47,17.62 13.45,12.8 27.01,12.96 8.51,0.1 11.18,-1.26 11.11,-10.13 -0.04,-5.75 -1.84,-12.15 -3.57,-17.48 -4.9,-15.17 -8.29,-15.03 -24.93,-18.12z"/>
    <path class="fil4" style="mask:url(#id52)" d="M1318.42 886.46c1.42,7.24 3.07,9.04 5.6,14.65 2.17,4.83 3.4,8.66 6.07,13.61 4.82,8.94 13.09,14.6 22.05,18.47 11.56,-4.97 5.95,-36.3 5.4,-49.54l-8.46 3.16c-1.51,1.14 -2.1,3.55 -4.04,6.19l-26.62 -6.54z"/>
    <path class="fil4" style="mask:url(#id54)" d="M945.14 998.04l1.11 14.64 2.68 6.26c23.82,1.51 29.6,2.2 38.38,-15.23 -5.48,-9.11 0.46,-9.18 -19.19,-11.87 -7.58,-1.04 -19.78,-0.25 -22.98,6.2z"/>
   </g>
   <g>
    <path class="fil5" style="mask:url(#id56)" d="M940.55 1083.18l-53.63 0.27c-43.81,13.07 -53.35,-2.97 -62.95,-3.57 -12.87,-0.81 -28.18,3.91 -39.35,5.65 -7.39,-0.58 -27.82,2.43 -30.91,10.96 12.81,0 19.82,1.51 32.32,1.4 12.29,-0.1 20.03,2.6 32.3,0.92l253.58 -0.22c-3.41,-9.09 -2.71,-9.33 -13.58,-11.73 -10.09,-2.24 -11.46,-3.14 -21.76,-1.22l1.93 -13.92c-7.77,-1 -4.05,1.63 -8.88,1.21 -0.97,-0.08 -6.62,-2.49 -7.79,-2.94 -9.97,-3.82 -6.28,-1.91 -10.21,-12.86l-2.24 0.38 -9.85 -0.95c2.51,7.12 5.43,6.96 6.07,16.37 -15.72,0.27 -16.48,3.66 -29.57,8.45 -12.59,4.6 -22.02,3.25 -35.48,1.8z"/>
    <path class="fil5" style="mask:url(#id58)" d="M1566.3 1032.68c-10.11,10.73 -17.26,19.3 -39.71,20.53l-13.91 1.59c-0.14,6.56 3.01,6.36 -3.95,8.48 -3.57,1.09 -9.99,1.94 -13.67,2.36 -8.11,-0.49 -17.14,-0.37 -24.28,-3.55 -7.78,-3.47 -9.66,-5.63 -20.21,-7.89 -16.3,-3.49 -31.47,-2.12 -47.53,1.62l-2.01 6.6 -3.32 16.27 18.17 0.08c7.89,-5.04 196.08,0.11 222.39,0.29l-2.67 -10.69 -9.75 -3.58c-34.71,0.04 -35.16,-2.95 -47.37,-20.47 -1.39,-2 -3.47,-4.85 -4.44,-6.92l-1.29 -4.69c-0.01,-0.26 0.02,-0.41 -0.04,-0.22l-6.41 0.19z"/>
   </g>
   <g>
    <path class="fil6" style="mask:url(#id60)" d="M223.99 957.66l5.78 66.43c3.83,4.02 4.9,10.41 8.87,14.3 2.17,2.13 5.15,3.49 7.55,5.11 2.84,1.92 4.59,3.77 6.76,5.2l35.8 -3.21 4.18 -8.24 4.43 -64.37c-13.9,-1.32 -25.38,-4.48 -37.09,-8.16 -17.23,-5.42 -16.66,-9.14 -36.28,-7.06z"/>
    <path class="fil6" style="mask:url(#id62)" d="M1510.94 974.83l-8.26 1.82c-0.11,23.06 -2.58,61.25 11.01,77l12.9 -0.44c22.45,-1.23 29.6,-9.8 39.71,-20.53l7.27 -68.51 -62.63 10.66z"/>
    <path class="fil6" style="mask:url(#id64)" d="M1470.57 261.5l24.23 -2.12 -1.63 -34.96c-5.45,-0.78 -19.8,4.01 -26.33,5.65l3.73 31.43z"/>
    <path class="fil6" style="mask:url(#id66)" d="M1304.97 764.68l9.6 0.57 -1.85 -34.22 -8.2 -1.13 -21.76 12.33c5.46,10.69 12.84,16.09 22.21,22.45z"/>
    <path class="fil6" style="mask:url(#id68)" d="M824.28 365.31c2.43,-1.82 3.78,-2.79 6.97,-5.16 3.82,-2.83 5.13,-2.89 6.87,-7.53 -7.1,-5.66 -2.37,-3.36 -14.24,-4.83 -14.29,-0.67 -21.09,0.3 -29.66,7.77l3.06 11.76 27 -2.01z"/>
   </g>
   <g>
    <path class="fil7" style="mask:url(#id70)" d="M1626.02 1060.1l-0.17 4.69 9.75 3.58 2.67 10.69c-26.31,-0.18 -214.5,-5.33 -222.39,-0.29 9.59,2.62 21.52,-2.93 31.09,0.26l0 4.81c39.89,0 76.52,1.41 117.28,1.41l275.54 -4.02c16.89,-1.84 30.43,-0.89 53.34,-5.66 5.42,-1.13 7.27,-2.54 12.48,-2.98 -2.94,-4.01 -21.61,-8.19 -27.02,-9.5 -7.51,-1.82 -104.91,-5.41 -121.93,-5.92 -7.19,-0.21 -8.64,-1.48 -16.76,-1.49 -19.29,-0.03 -100.86,-3.25 -105.1,-5.58l-0.2 11.71 -8.58 -1.71z"/>
    <path class="fil7" style="mask:url(#id72)" d="M1449.64 206.62c2.69,10.74 4.06,21.78 6.01,32.83 1.93,10.9 6.03,16.21 8.61,27.94l6.31 -5.89 -3.73 -31.43c6.53,-1.64 20.88,-6.43 26.33,-5.65l1.63 34.96 10.69 -0.87c-2.94,-13.23 -7.83,-15.83 -0.14,-28.72l12.73 2.02c1.31,-4.14 1.14,-2.3 0.7,-6.58 -0.6,-5.86 -3.99,-1.8 -0.29,-4.48 3.28,-1.4 11.77,-2.35 16.06,-1.44 16.95,3.58 12.21,29.26 12.13,39.26l19.58 1.77c2.67,-6.78 4.27,-11.71 12.04,-14.89 3.31,3.48 6.88,12.15 8.53,18l36.47 12.99 8.38 0.45c-7.05,-14.6 -13.87,-40.04 -28.67,-51.41 -40.99,-31.49 -33.55,-17.37 -54.21,-27.29 -1.81,2.71 -1.86,2.77 -3.67,6.16 -6.08,11.34 -10.66,6.76 -23.02,6.49 1.16,-4.34 1.59,-3.22 8.11,-8.75 4.42,-3.74 7.16,-3.58 8.75,-9.52 -37.47,0 -33.17,-10.23 -49.73,12.08 -3.61,4.87 -7.46,7 -10.68,11.81 -20.93,-1.74 -18.17,-4.62 -28.92,-9.84z"/>
    <path class="fil7" style="mask:url(#id74)" d="M1031.87 340.77c1.99,4.48 4.14,10 1.09,15.98 -2.06,4.03 -8.06,6.09 -12.19,8.8 5.1,4.97 35.99,14.39 45.9,19.89 6.69,3.71 15.73,9.84 20.14,13.63 5.68,4.9 10.65,13.66 16.69,16.66 0,-21.03 11.85,-31.14 -9.02,-66.53 -5.3,-8.99 -10.63,-17.47 -19.47,-22.7l-26.59 -11.18c-3.86,0.07 -1.78,-0.75 -3.92,1.46 0.05,0.27 0.23,5.37 0,5.86l-14.88 0.27c6.05,7.43 18.79,8.96 25.81,15.75 -8.69,4.16 -12.83,6.47 -23.56,2.11z"/>
    <path class="fil7" style="mask:url(#id76)" d="M823.88 347.79c11.87,1.47 7.14,-0.83 14.24,4.83 -1.74,4.64 -3.05,4.7 -6.87,7.53 -3.19,2.37 -4.54,3.34 -6.97,5.16l-0.66 3.14 69.69 1.72c-0.24,-0.34 -0.58,-0.73 -0.77,-0.95l-1.54 -1.77c-5.32,-5.55 -14.55,-10.44 -21.79,-18.86l28.22 14 11.17 -21.01c-9.25,-4.25 -24.56,-14.62 -34.03,-16.87l0 1.71 2.34 3.01c8.7,17.78 4.1,2.9 7.61,11.37l-12.88 1.61 -34.35 -0.05c3.76,-8.55 2.76,-9.31 11.34,-14.05 5.09,-2.82 12.26,-7.68 17.46,-6.75l0 -2.47 -7.92 0c-2.57,4.16 -11.16,4.17 -15.86,4.64l-0.08 -7.72 -11.28 0.2c-0.72,10.5 -2,20.03 -0.41,28.13 -3.85,1.36 -3.41,-4.5 -6.66,3.45z"/>
    <path class="fil7" style="mask:url(#id78)" d="M425.29 58.2c4.48,-3.47 5.13,-5.35 10.95,-7.7 3.01,5.78 2.15,12.75 2.53,19.45l12.82 6.85 -33.02 0.28c1.23,11.8 4.9,12.21 -6.53,12.51 4.61,6.76 16.77,12.97 30.03,28.49 11.44,4.95 17.89,8.34 22.84,19.07 5.31,11.51 8.76,22.54 18.27,24.93 0.17,-2.32 -15.29,-41.67 -25.15,-53.17 -3.71,-4.33 -10.87,-10.56 -13.06,-14.94l20.81 -26.47c2.62,-2.21 0.76,-1.66 4.17,-1.74l-3.92 -4.27c-4.91,-4.02 -30.41,-21.24 -34.77,-22.16 -0.95,6.49 -3.02,2.26 -6.09,7.12 -2.05,3.25 0.06,6.69 0.12,11.75z"/>
    <path class="fil7" style="mask:url(#id80)" d="M1373.21 320.45c13.52,-2.66 13.56,-2.34 22.41,-11.05 -4.28,-3.17 -7.07,-16.83 -8.63,-22.31 -2.9,-10.18 -2.87,-19.12 -2.02,-29.86 -12.47,6.74 -8.61,14.77 -17.18,28.35 -7.51,11.89 4,18.1 5.42,34.87z"/>
    <path class="fil7" style="mask:url(#id82)" d="M886.92 1083.45l53.63 -0.27 -1.55 0.41 1.07 -17.23c-7.51,1.92 -48.35,1 -54.36,-0.89l1.21 17.98z"/>
    <path class="fil7" style="mask:url(#id84)" d="M252.95 1048.7l1.1 13.82c19.17,2.13 21.06,4.36 39.81,-0.87l-0.93 -24.4 -4.18 8.24 -35.8 3.21z"/>
    <path class="fil7" style="mask:url(#id86)" d="M1009.38 337.37c6.34,2.54 8.34,0.48 15.71,1.37 -2.77,-4.34 -2.15,-9.9 -1.9,-16.84l9.36 -4.22c-3.89,-2.09 -1.29,0.08 -0.7,-7.03 -16.61,0 -18.95,-1.44 -29.5,5.62 0,16.82 1.7,10.9 7.03,21.1z"/>
    <path class="fil7" style="mask:url(#id88)" d="M761.49 321.9l4.19 18.46 14.57 -1.78 -0.1 11.8c2.89,-2.1 2.12,-1.45 4.67,-4.41 2.42,-2.82 1.57,-1.77 3.74,-4.59l-10.24 -25.11c-4.66,0.49 -12.42,3.95 -16.83,5.63z"/>
    <path class="fil7" style="mask:url(#id90)" d="M1416.63 284.37l17.26 -8.69c-1.75,-5.09 -3.84,-7.29 -6.57,-10.75 -3.48,-4.43 -4.38,-7.16 -9.6,-9.48 -4.11,11.21 -3.74,15.73 -1.09,28.92z"/>
   </g>
   <g>
    <path class="fil8" style="mask:url(#id92)" d="M318.14 985.68c3.69,1.68 6.5,3.61 10.44,6.27 5.81,3.92 5.29,2.52 5.98,10.7 3.78,44.8 -3.26,45.29 -40.7,59 -18.75,5.23 -20.64,3 -39.81,0.87l-1.1 -13.82c-2.17,-1.43 -3.92,-3.28 -6.76,-5.2 -2.4,-1.62 -5.38,-2.98 -7.55,-5.11 -3.97,-3.89 -5.04,-10.28 -8.87,-14.3 -11.43,6.47 -13.96,19.91 -22.95,26.98 -7.12,5.61 -29.71,9.05 -40.39,10.79l-9.74 2.07 -16.7 4.6c-2.8,1.21 -2.23,0.8 -4.37,2.66 7.92,0 8.93,1.4 16.81,1.45 8.41,0.06 11.97,0.77 18.39,1.28l169.95 2.95c7.97,-0.1 9.72,-1.5 18.16,-1.51 17.64,-0.03 58.98,0.85 74.5,-2.77l-7.01 -4.23c-2.69,-1.32 -4.6,-2.28 -7.31,-3.93 -4.79,-2.91 -10.24,-4.87 -14.15,-8.33 -9.57,-8.48 -11.82,-13.95 -27.2,-17.77 -11.13,-2.76 -17.19,1.42 -22.19,-22.77 -2.48,-11.93 -3.79,-33.16 -6.42,-39.97 -2.72,-2.47 -13.72,-0.4 -18.28,-0.07 -9.37,0.67 -13.19,0.82 -12.73,10.16z"/>
    <path class="fil8" style="mask:url(#id94)" d="M850.16 1031.42c16.64,3.09 20.03,2.95 24.93,18.12 1.73,5.33 3.53,11.73 3.57,17.48 0.07,8.87 -2.6,10.23 -11.11,10.13 -13.56,-0.16 -27.48,4.66 -27.01,-12.96 0.32,-11.8 6.64,-23.06 9.62,-32.77zm-62.73 44.61c-1.79,2.77 -2.48,5.15 -2.81,9.5 11.17,-1.74 26.48,-6.46 39.35,-5.65 9.6,0.6 19.14,16.64 62.95,3.57l-1.21 -17.98c-2.39,-10.28 -6.88,-19.94 -9.27,-29.91 -3.01,-12.54 -2.1,-24.1 -1.74,-37.1l-40.46 -1.71c0.11,23.75 3.92,36.62 -5.81,56.43 -7.81,15.89 -3.1,14.57 -15.21,17.04 -8.99,1.83 -17.16,3.79 -25.79,5.81z"/>
    <path class="fil8" style="mask:url(#id96)" d="M896.01 992.78l21.67 -4.32 0.6 -9.67 0.35 -6.47c-16.62,1.01 -20.04,4.48 -22.62,20.46z"/>
   </g>
   <g>
    <path class="fil9" style="mask:url(#id98)" d="M28.86 352.59c3.02,1.27 9.41,7.15 11.93,9.4 3.57,3.17 9.48,7.81 11.55,10.23 34.69,9.41 56.33,25.83 96.6,28.35 4.36,-4.55 49.3,-4.2 60.45,-6.33l-40.18 -13.56c17.92,-0.62 89.59,-6.98 106.36,-12.88 10.87,-3.82 20.65,-9.44 24.42,-17.1 -34.16,5.8 -64.72,12.41 -101.13,12.96 -21.5,0.33 -67.75,-1.71 -88.17,-11.21 -6.89,-3.21 -3.01,-2.74 -7.82,-8 -26.38,3.99 -52.14,-17.68 -65.02,-28.71 -6.94,-5.93 -16.11,-14.8 -20.4,-26.01 -3.48,-9.11 -4.62,-34.03 -8.26,-39.46 -1.57,18.55 -13.98,42.03 8.68,79.81 3.07,5.12 9.56,16.87 10.99,22.51z"/>
    <path class="fil9" style="mask:url(#id100)" d="M865.06 633.69c19.24,14.27 88.78,-6.43 111.1,9.63 8.99,6.46 17.1,9.46 30.23,11.66l-3.49 11.65c33.93,-3.33 83.18,-18.46 101.94,-37.33l-13.05 -1.89c4.1,-14.82 32.61,-24.58 35.43,-35.13 -6.04,-0.45 -9.02,-2.26 -13.8,0.99 -4.59,3.13 -2.23,5.05 -8.16,4.18l0.15 -12.65c-5.7,1.77 -34.57,17.27 -50.26,23.29 -17.98,6.91 -35.24,12.53 -55.35,16.39 -41.05,7.87 -91.28,8.69 -134.74,9.21z"/>
    <path class="fil9" style="mask:url(#id102)" d="M358.04 328.78l-21.79 10.8c0.91,4.27 1.51,8.71 -1.73,12.65 -1.16,1.42 -4.85,3.88 -7.1,5.51l4.87 -2.11c2.92,4.98 0.5,3.58 7.87,4.96 3.07,0.57 7.24,1.28 9.91,2.16l-3.72 14.56c9.48,-2.16 21.51,-3.71 29.28,-7.82 5.85,-3.08 16.17,-14.05 19.62,-18.72 -3.26,-0.14 -0.45,1.05 -2.26,-0.76 1.94,-34.14 32.3,-20.84 41.97,-55.2 -5.93,3.05 -11.88,10.87 -17.08,15.76 -11.82,11.09 -49.1,42.39 -59.84,18.21z"/>
    <path class="fil9" style="mask:url(#id104)" d="M1124.57 1057.13c6.7,-1.06 22.8,-4.94 26.29,-8.83 2.94,-3.3 8.48,-21.06 10.23,-26.31 -5.45,2.74 -3.01,2.26 -9.56,1.53 3.76,-8.16 13.16,-14.37 14.72,-27.19 1.58,-13 -8.68,-22.53 -16.4,-26.31 -16.59,10.75 -3.47,27.39 -0.97,41.01 -4.23,1.67 -6.93,3.72 -11.48,5.45 -4.65,1.77 -9.59,2 -13.8,4.1 3.58,13.49 17.89,19.06 6.48,30.69l-5.51 5.86z"/>
    <path class="fil9" style="mask:url(#id106)" d="M1384.97 257.23c-0.85,10.74 -0.88,19.68 2.02,29.86 1.56,5.48 4.35,19.14 8.63,22.31 3.33,-3.69 5.33,-6.42 8.55,-9.97 3.17,-3.49 6.08,-5.55 8.73,-9.21 0.66,-19.8 -7.77,-26.65 -6.94,-49.06l-11.68 -2.54c-2.79,0.49 -0.37,-0.85 -3.95,1.97 -0.1,0.07 -3.14,3.46 -3.29,3.76 -1.73,3.28 -2.34,9.23 -2.07,12.88z"/>
    <path class="fil9" style="mask:url(#id108)" d="M37.29 790.4c-6.21,23.28 6.27,30.9 6.86,36.26 0.9,8.17 -10.71,26.16 -5.12,37.52 2.92,5.95 11.29,12.24 16.44,15.82 1.15,-12.62 -3.84,-31.91 -5.32,-45.37 -2.15,-19.55 1.96,-31.11 2.61,-48.36l-15.47 4.13z"/>
    <path class="fil9" style="mask:url(#id110)" d="M456.91 840.64c0.28,0.1 0.71,-0.29 0.79,-0.06 2.38,7.32 -1.43,-4.56 5.62,0.79 1.8,1.36 6.66,5.91 16.39,-3.55 -5.62,-10.04 -8.47,-9.17 -23.02,-11.67l0.22 14.49z"/>
    <path class="fil9" style="mask:url(#id112)" d="M412.04 89.59c11.43,-0.3 7.76,-0.71 6.53,-12.51 -4.49,-1.25 -22.14,-2.88 -28.69,-2.65l22.16 15.16z"/>
   </g>
   <g>
    <path class="fil10" style="mask:url(#id114)" d="M1038.6 1069.78l-0.1 1.94 -1.93 13.92c10.3,-1.92 11.67,-1.02 21.76,1.22 10.87,2.4 10.17,2.64 13.58,11.73l-253.58 0.22c5.71,5.3 25.88,7.71 32.67,8.57 5.99,0.76 14.53,1.31 19.38,1.69 7.33,0.57 13.74,0.91 19.67,1.41l0.95 0.07 122.47 0 1.53 0 0.7 0c14.66,-0.03 24.71,-1.44 40.03,-1.4 14.7,0.03 25.17,-1.43 40.74,-1.41l101.2 -2.76c8.11,-0.1 10.59,-1.53 19.58,-1.49 6.91,0.03 14.29,0.28 21.15,0.08l39.36 -2.78c7.28,-0.6 12.89,0.18 20.19,-0.89 13.23,-1.94 25.35,-1.94 38.31,-3.83 11.46,-1.66 24.25,-3.32 34.75,-7.41 25.11,-9.76 45.32,-4.82 75.96,-4.82l0 -4.81c-9.57,-3.19 -21.5,2.36 -31.09,-0.26l-18.17 -0.08c-13.11,-2.95 -35.75,-3.44 -45.89,-9.07 13.34,-1.05 37.78,-3.12 49.21,-7.2l-5.32 -2.32c0.93,-2.78 0.34,-2.27 1.79,-4.38 -11.52,2.36 -55.49,5.55 -66.38,5.68 -22.64,0.28 -45.44,0.16 -68.63,3.02l-42.5 6.67c-15.66,1.73 -28.3,3.44 -43.65,1.71 -24.64,-2.78 -39.21,4.79 -91.71,-2.41 -7.38,-1.02 -14.61,-2.03 -21.84,-2.08 -10.19,-0.07 -14.18,1.47 -24.19,1.47z"/>
    <path class="fil10" style="mask:url(#id116)" d="M956.67 320.49l7.82 4.22 -7.97 7.65c-1.62,1.77 -0.68,0.52 -2.05,2.5l14.28 5.28c-4.06,14.77 -12.78,20.43 -28.21,24.01 -7.15,-5.95 -13.66,-15.69 -18.45,-25.38 -5.25,1.31 -6.65,2.81 -13.49,2.81l-11.17 21.01 -28.22 -14c7.24,8.42 16.47,13.31 21.79,18.86l1.54 1.77c0.19,0.22 0.53,0.61 0.77,0.95 24.59,0.65 39.43,-1.07 62.04,-5.12 19.43,-3.49 44.28,1.61 65.42,0.5 4.13,-2.71 10.13,-4.77 12.19,-8.8 3.05,-5.98 0.9,-11.5 -1.09,-15.98l-6.78 -2.03c-7.37,-0.89 -9.37,1.17 -15.71,-1.37 -4.37,4.59 -2.38,3.64 -13.99,4.27 -6.6,0.36 -8.81,1.34 -16.92,1.34 0,-5.55 -1.7,-16.33 -2.81,-21.08 3.8,-0.09 2.96,0.06 6.26,-0.77l4.98 -2.04c-11.79,0 -20.55,0.74 -30.23,1.4z"/>
    <path class="fil10" style="mask:url(#id118)" d="M778.32 316.27l10.24 25.11c-2.17,2.82 -1.32,1.77 -3.74,4.59 -2.55,2.96 -1.78,2.31 -4.67,4.41 -2.32,3.37 -3.3,3.09 -7.2,4.86l1.84 1.45c2.97,1.75 -0.32,0.12 3.01,1.58 6.58,2.9 6.84,0.66 9.36,13.13l36.46 -2.95 0.66 -3.14 -27 2.01 -3.06 -11.76c8.57,-7.47 15.37,-8.44 29.66,-7.77 3.25,-7.95 2.81,-2.09 6.66,-3.45 -1.59,-8.1 -0.31,-17.63 0.41,-28.13l11.28 -0.2 2.79 0.83c-1.54,-2.68 -0.15,-0.61 -2.04,-2.63 -4.94,-5.25 -6.02,-5.21 -10.18,-4.75 -15.51,1.75 -0.64,6.81 -54.48,6.81z"/>
    <path class="fil10" style="mask:url(#id120)" d="M331.5 43.55c3.97,9.02 12.24,17.2 22.18,22.16 11.87,5.94 24.37,5.47 36.2,8.72 6.55,-0.23 24.2,1.4 28.69,2.65l33.02 -0.28 -12.82 -6.85c-0.38,-6.7 0.48,-13.67 -2.53,-19.45 -5.82,2.35 -6.47,4.23 -10.95,7.7 -5.63,2.56 -9.66,7.2 -15.74,9.28 -2.87,-1.75 -11.21,-7.46 -12.43,-9.89 -2.12,-4.21 -1.08,-14.45 -0.94,-19.66l-21.75 22.49c-10.04,-0.84 -13.94,-0.87 -18.6,-8.09 -3.92,-6.07 -7.65,-11.06 -10.9,-17.21 -2.6,1.37 -4.6,2.25 -7.36,3.91 -0.05,0.03 -3.38,2.16 -3.39,2.17l-2.07 1.74c-0.12,0.11 -0.44,0.38 -0.61,0.61z"/>
    <path class="fil10" style="mask:url(#id122)" d="M1518.08 231.81l1.57 26.72 27.03 0.04c0.08,-10 4.82,-35.68 -12.13,-39.26 -4.29,-0.91 -12.78,0.04 -16.06,1.44 -3.7,2.68 -0.31,-1.38 0.29,4.48 0.44,4.28 0.61,2.44 -0.7,6.58z"/>
    <path class="fil10" style="mask:url(#id124)" d="M232.06 8.4l-9.77 9.55 6.06 9.27 18.19 0.02 -1.81 -14.62c-1.19,-4.1 -0.59,-6.74 0.46,-11.24 -5.66,1.32 -8.32,4.4 -13.13,7.02z"/>
    <path class="fil10" style="mask:url(#id126)" d="M1566.26 260.34l20.57 3.11c-1.65,-5.85 -5.22,-14.52 -8.53,-18 -7.77,3.18 -9.37,8.11 -12.04,14.89z"/>
    <path class="fil10" style="mask:url(#id128)" d="M871.64 342.41l12.88 -1.61c-3.51,-8.47 1.09,6.41 -7.61,-11.37l-2.34 -3.01c-5.28,2.62 -3.49,1.94 -6.95,6.29 0.88,5.06 1.87,5.41 4.02,9.7z"/>
   </g>
   <g>
    <path class="fil11" style="mask:url(#id130)" d="M1321.23 513.06c10.7,4.74 23.05,26.98 32.35,35.12 10.63,9.31 25.41,19.47 39.89,27.55 29.29,16.33 62.57,28.39 99.89,33.91 36.62,0.53 70.15,1.85 105.69,-4.06 30.51,-5.08 61.16,-16.73 90.22,-20.84 4.17,-6.68 25.16,-17.88 42.14,-35.1 3.61,-3.67 4.44,-5.72 7.58,-9.32 3.92,-4.48 13.05,-12.44 17.72,-14.51 3.87,-7.55 7.15,-17.29 10.63,-25.98 3.06,-7.61 7.98,-19.43 8.88,-27.66 2.8,-25.74 -5.18,-43.31 -8.67,-63.11 -0.75,11.28 1.94,27.3 1.56,40.8 -0.37,12.68 -2.12,24.69 -6.2,35.7 -7.5,20.19 -23.67,36.6 -41.25,44.68 -58.81,45.86 -178.46,59.46 -251.8,47.76 -26.91,-4.3 -60.8,-15.12 -73.08,-30.63 -36.86,-10.17 -71.35,-44.33 -77.88,-85.57 -3.99,-25.19 1.53,-46.69 11.09,-66.47 8.28,-17.11 22.56,-35.49 27.24,-53.75 -8.4,2.75 -23.74,20.97 -28.7,28.39 -17.27,25.89 -23,63.45 -17.34,95.53l10.04 47.56z"/>
    <path class="fil11" style="mask:url(#id132)" d="M676.45 595.83c7.89,3.51 16.58,13.5 21.84,19.12 6.58,7.06 13.44,13.44 22.9,19.27 17.93,11.05 42.12,14.93 57.67,24.94l56.24 11.13c55.59,5.11 113.75,7.38 167.8,-3.66l3.49 -11.65c-13.13,-2.2 -21.24,-5.2 -30.23,-11.66 -22.32,-16.06 -91.86,4.64 -111.1,-9.63 -42.39,0.56 -122.5,-17.61 -142.74,-41.65 -18.41,-4.84 -20.94,-7.57 -27.76,-23.82 -33.23,-28.62 -1.27,-90.58 12.86,-123.96 3.74,-8.85 2.48,-9.51 4.71,-18.33l-8.99 0c-14.13,10.32 -25.55,55.42 -28.34,75.66 -2.84,20.65 -7.53,76.63 1.65,94.24z"/>
    <path class="fil11" style="mask:url(#id134)" d="M651.16 938.2c-0.15,5.75 -0.89,3.81 -1.33,9.32 -4.05,50.74 8.88,113.83 72.98,113.83 0.3,-13.48 6.57,-22.04 13.61,-31.36 9.32,-12.33 7.46,1.58 7.46,-29.09 -5.23,-2.77 -8.97,-5.23 -14.5,-7.99 -6.9,-3.43 -9.52,-3.97 -14.72,-9.16 -7.82,-7.82 -11.52,-21.36 -11.52,-36.33 -2.74,-4.99 -1.02,-7.27 -2.27,-12.27 -1.36,-5.48 -2.17,-2.36 -4.76,-6.03l-44.95 9.08z"/>
    <path class="fil11" style="mask:url(#id136)" d="M454.2 147.21c1.51,1.49 2.44,2.16 4.1,5.05 16.93,29.34 -4.43,84.75 -17.98,110.47 -23.25,44.1 -68.53,54.5 -82.28,66.05 10.74,24.18 48.02,-7.12 59.84,-18.21 5.2,-4.89 11.15,-12.71 17.08,-15.76 -9.67,34.36 -40.03,21.06 -41.97,55.2 1.81,1.81 -1,0.62 2.26,0.76 14.41,-1.76 35.6,-22.84 42.17,-31.91l21.17 -33.61c1.28,-1.98 2.63,-4.26 3.81,-6.01 2.75,-4.1 1.68,-3.13 4.74,-5.55 2.46,-9.08 9.01,-20.8 12.47,-29.29 3.85,-9.47 10.04,-22.21 12.47,-31.09 4.66,-17.05 -2.67,-28.9 8.37,-54.9 1.93,-4.55 5.55,-11.01 6.03,-15.99 -19.72,5.59 -12.15,3.09 -21.54,21.57 -3.18,-0.38 -0.9,0.33 -1.76,-1.91 -9.51,-2.39 -12.96,-13.42 -18.27,-24.93 -4.95,-10.73 -11.4,-14.12 -22.84,-19.07 3.2,8.6 12.93,18.63 12.13,29.13z"/>
    <path class="fil11" style="mask:url(#id138)" d="M1280.69 797.45l-17.05 1.64c3.54,5.48 3.55,12.84 8.75,17.33l16.53 10.16c0,17.81 6.09,42.89 14.5,52.97 3.08,3.69 10.45,5.6 15,6.91l26.62 6.54c1.94,-2.64 2.53,-5.05 4.04,-6.19l8.46 -3.16c2.45,-4.29 5.31,-9.37 9.14,-11.93 -1.95,-3.66 -1.17,-1.59 -2.21,-4.92 0.83,-11.65 2.47,-25.69 -0.24,-36.74 -2.39,-9.72 -8.72,-17.95 -10.79,-27.06 -8.75,-10.3 -18.17,-20.01 -26.61,-29.82 -3.81,-1.85 -9.06,-5.58 -12.26,-7.93l-9.6 -0.57c3.99,16.56 17.36,25.07 4.27,37.23 -4.61,4.29 -10.04,9.72 -17.27,7.8 -15.04,-3.98 -8.54,-3.12 -11.28,-12.26z"/>
    <path class="fil11" style="mask:url(#id140)" d="M1130.19 942.86c0,22.02 -7.26,34.94 -24.37,43.5 -5.28,2.64 -9.93,6.08 -13.97,9.92 -12.72,12.1 -8.62,17.94 -0.15,30.48 1.88,2.8 2.9,4.01 4.49,6.75 5.06,8.71 8.32,21.27 10.12,25.02 8.71,0 11.59,-0.45 18.26,-1.4l5.51 -5.86c11.41,-11.63 -2.9,-17.2 -6.48,-30.69 4.21,-2.1 9.15,-2.33 13.8,-4.1 4.55,-1.73 7.25,-3.78 11.48,-5.45 -2.5,-13.62 -15.62,-30.26 0.97,-41.01 7.72,3.78 17.98,13.31 16.4,26.31 -1.56,12.82 -10.96,19.03 -14.72,27.19 6.55,0.73 4.11,1.21 9.56,-1.53 4.77,1.16 0.57,1.05 6.21,-0.72 3.7,-1.16 2.85,-1.26 6.43,-2.1 3.72,-15.94 13.64,-66.35 7.03,-81.83l-46.77 -9.36 -3.8 14.88z"/>
    <path class="fil11" style="mask:url(#id142)" d="M456.69 826.15c14.55,2.5 17.4,1.63 23.02,11.67 -9.73,9.46 -14.59,4.91 -16.39,3.55 -7.05,-5.35 -3.24,6.53 -5.62,-0.79 -0.08,-0.23 -0.51,0.16 -0.79,0.06l-0.22 -14.49zm-4.2 -21.61c-5.24,12.5 -15.34,24.11 -17.68,39.02 -2.76,17.62 6.94,33.47 7.56,49.29 3.11,1.99 0.33,-0.29 2.45,2.31 6.9,8.51 1.54,2.95 8.2,7.43 4.12,2.76 3.1,4.25 11.31,8.09 3.94,-2.42 7.34,-9.43 14.43,-14.84 21.08,-16.11 16.8,-31.52 29.47,-60.48 4.28,-9.8 4.6,-7.36 9.29,-10.38 3.93,-2.52 4.74,-3.81 5.81,-14.76l-18.25 6.13c-15.63,8.03 -32.85,-10.67 -21.85,-25.73 3.75,-5.14 4.25,-5.65 7.66,-12.49l-2.97 -0.94c-32.11,6.67 -19.11,20.23 -35.43,27.35z"/>
    <path class="fil11" style="mask:url(#id144)" d="M299.99 350.7c-3.77,7.66 -13.55,13.28 -24.42,17.1 -16.77,5.9 -88.44,12.26 -106.36,12.88l40.18 13.56c-11.15,2.13 -56.09,1.78 -60.45,6.33 71.74,2.34 137.57,3.99 197.41,-23.26l3.72 -14.56c-2.67,-0.88 -6.84,-1.59 -9.91,-2.16 -7.37,-1.38 -4.95,0.02 -7.87,-4.96l-4.87 2.11c2.25,-1.63 5.94,-4.09 7.1,-5.51 3.24,-3.94 2.64,-8.38 1.73,-12.65l-36.26 11.12z"/>
    <path class="fil11" style="mask:url(#id146)" d="M1105.41 584.8l-0.15 12.65c5.93,0.87 3.57,-1.05 8.16,-4.18 4.78,-3.25 7.76,-1.44 13.8,-0.99 -2.82,10.55 -31.33,20.31 -35.43,35.13l13.05 1.89 9.65 -2.66c4.97,-5.92 25.99,-25.74 35.36,-29.64 5.33,-8.24 15.36,-31.21 15.54,-44.51 0.29,-22.45 -19.61,-71.29 -28.16,-92.84 -2.72,-6.84 -5.48,-14.4 -8.47,-21.05 -2.36,-5.29 -7.09,-16.94 -11.66,-19.7l-13.2 5.56c21.62,50.44 74,100.46 18.23,146.65 -2.88,2.38 -5.39,4.71 -8.49,6.96 -3.02,2.2 -5.9,3.92 -8.23,6.73z"/>
    <path class="fil11" style="mask:url(#id148)" d="M1763.73 869.5l5.15 -6.82c5.46,-10.33 9.15,-14.82 20.14,-20.64 -0.51,-22.67 -10.77,-28.08 -14.05,-42.17 3.45,-2.31 10.99,-6.03 13.44,-9.04 2.53,-3.13 5.81,-11.33 6.22,-16.18 -2.38,-1.11 -14.47,-10.88 -16.67,-13.33 -6.54,-0.08 -10.78,-3.53 -17.3,-5.12 -2.21,36.56 -2.77,73.32 -5.25,109.74l8.32 3.56z"/>
    <path class="fil11" style="mask:url(#id150)" d="M186.49 32.3l0.14 4.22c5.88,16.6 9.24,26.29 23.38,30.95 2.21,-5.25 5.61,-9.44 5.97,-16.82 0.35,-7.44 -0.85,-14.31 0.02,-22.03 -5.61,4.19 -7.23,10.07 -11.55,12.91 -5.05,-8.19 -4.89,-12.92 -11.48,-21.41 -5.04,1.72 -5.47,2.16 -10.87,0.12l4.39 12.06z"/>
   </g>
   <g>
    <path class="fil12" style="mask:url(#id152)" d="M395.25 350.77c-3.45,4.67 -13.77,15.64 -19.62,18.72 -7.77,4.11 -19.8,5.66 -29.28,7.82 -59.84,27.25 -125.67,25.6 -197.41,23.26 -40.27,-2.52 -61.91,-18.94 -96.6,-28.35 1.82,3.07 0.05,0.56 2.68,3.68 6.62,7.85 14.89,14.44 23.8,19.72 36.75,21.77 123.58,34.5 164.96,32.68 15.23,-0.67 29.81,-3 44.94,-4.06 29.58,-2.08 63.09,4.7 93.31,6.82 2.96,8.62 1.11,29.45 4.81,42.96 4.5,16.45 10.45,18.4 20.92,26.3 0.21,23.93 -1.64,112.6 1.42,128.57 3.35,17.52 20.14,22.2 34.06,30.41 13.1,7.71 12.71,9.26 29.78,18 2.55,1.3 3,1.83 5.28,3.26 3.22,2.02 0.19,2.24 4.72,1.76 5.43,-38.31 -6.65,-77.35 -1.06,-118.63 7.94,-45.6 -16.05,-159.41 -17.67,-213.63 -0.39,-12.84 0.05,-26.47 0.04,-39.41 0,-24.74 2.6,-26.05 2.81,-36.96 -3.06,2.42 -1.99,1.45 -4.74,5.55 -1.18,1.75 -2.53,4.03 -3.81,6.01l-21.17 33.61c-6.57,9.07 -27.76,30.15 -42.17,31.91z"/>
    <path class="fil12" style="mask:url(#id154)" d="M102.87 344.45c4.81,5.26 0.93,4.79 7.82,8 20.42,9.5 66.67,11.54 88.17,11.21 36.41,-0.55 66.97,-7.16 101.13,-12.96l36.26 -11.12 21.79 -10.8c13.75,-11.55 59.03,-21.95 82.28,-66.05 13.55,-25.72 34.91,-81.13 17.98,-110.47 -1.66,-2.89 -2.59,-3.56 -4.1,-5.05l-3.91 9.09c-2.76,-5.29 -3.41,-4.81 -9.26,-7.87 -4.78,-2.5 -5.84,-3.85 -8.5,-8.4 -4.16,-7.11 -7.83,-15.26 -13.15,-20.42 -5.56,0.41 -7.84,1.17 -10.87,4.42 -3.92,4.23 -2.67,3.4 -8.1,7.43l0.35 2.2c0.95,4.3 0.78,-2.47 0.41,1.15l-7.08 3.87 -0.84 -4.34c-1.27,-3.76 -0.44,-1.5 -2.34,-4.58 -9.42,-15.2 -10.76,-11.72 -35.4,-11.81 3.59,14.94 17.26,22.92 32.62,28l-35.42 0.19c0.31,14.98 3.51,41.51 -4.49,52.53 -17.58,24.22 -25.96,47.09 -39.04,76.18 -5.32,11.85 -10.7,30.93 -20.77,35.41l1.9 13.05c-7.99,3.26 -13.59,1.19 -19.81,7.04 -15.2,14.29 -45.6,11.48 -66.05,11.16 -48.49,-0.74 -53.21,-1.32 -101.58,2.94z"/>
    <path class="fil12" style="mask:url(#id156)" d="M216.15 920.39c0.08,4.15 -0.22,8.82 1.33,12.46 0.69,1.61 3.37,4.4 4.7,6.86 2.27,4.15 2.66,11.28 1.81,17.95 19.62,-2.08 19.05,1.64 36.28,7.06 11.71,3.68 23.19,6.84 37.09,8.16l-4.43 64.37 0.93 24.4c37.44,-13.71 44.48,-14.2 40.7,-59 -0.69,-8.18 -0.17,-6.78 -5.98,-10.7 -3.94,-2.66 -6.75,-4.59 -10.44,-6.27 -8.07,-2.53 -17.48,-3.73 -19.25,-11.49 5,-6.25 34.81,-8.94 44.9,-12.4 14.06,-4.81 27.53,-9.76 41.59,-14.61 59.58,-20.59 60.89,-18.45 56.99,-54.33 -0.62,-15.82 -10.32,-31.67 -7.56,-49.29 2.34,-14.91 12.44,-26.52 17.68,-39.02 -3.23,-2.35 -0.02,-28.09 0.29,-34.19 0.62,-12.27 1.45,-24.21 2.07,-36.38 14.48,-0.98 24.26,12.04 54.46,13.13 -4.77,-14 -17.38,-27.99 -29.95,-33.96 -13.22,-6.28 -38.54,-8.28 -53.43,-2.31 -5.81,20.5 -2.94,47.14 -7.15,69.95 -2.02,10.97 -4.25,21.06 -6.61,31.55 -2.3,10.22 -3.38,22.32 -5.73,32.19 -5.87,2.52 -8.06,5.3 -14.38,6.73 -6.88,-18.44 -5.88,1.43 -6.91,-32.97l-16.39 39.14c-6.55,15.93 -9.07,26.07 -20.65,33.81l-1.57 15.85c-5.57,-1.6 -9.93,-4.29 -15.13,-6.56 -8.78,-3.82 -7.55,-2.83 -14.31,0.64 2.06,3.79 11.89,12.47 15.66,14.85 -1.5,6.84 -23.67,36.68 -25.76,37.4 -18.56,-0.2 -23.04,-2.2 -29.71,-15.44 -11.31,-0.7 -25.62,0.19 -35.21,-4.23 -9.47,-4.36 -12.48,-10.47 -25.93,-13.35z"/>
    <path class="fil12" style="mask:url(#id158)" d="M1507.07 942.26c-6.39,7.8 -39,9.67 -52.23,11.15 -15.73,1.75 -42.71,5.34 -57.75,4.66 11.94,14.44 29.1,15.91 44.81,17.56l8.56 2.77c-0.41,-4.14 4,-3.8 9.32,-4.78 12.69,-2.36 31.49,-4.43 41.71,3.38l-7.93 33.95c-7.88,-18.61 4.21,-16.55 -30.75,-19.21 1.55,75.44 19.52,46 32.25,73.9 3.68,-0.42 10.1,-1.27 13.67,-2.36 6.96,-2.12 3.81,-1.92 3.95,-8.48l13.91 -1.59 -12.9 0.44c-13.59,-15.75 -11.12,-53.94 -11.01,-77l8.26 -1.82c-0.78,-7.58 -2.48,-10.29 -0.35,-16.64 8.21,-3.53 22.84,-1.06 33.14,-4.54 12.02,-4.06 12.32,-10.79 19.12,-20.38l3.12 2.64c5.01,5.33 12.77,18.12 19.35,24.21 12.77,-4.14 8.42,-10.12 28.64,-10.49 7.12,19.13 29.23,14.76 35.36,23.56l0.63 -0.4c1.99,4.77 -0.34,1.66 3.92,2.32 0.25,0.04 4.16,-0.55 5.76,-0.92 3.66,-0.83 8.52,-1.73 11.7,-2.5 7.98,-1.92 13.97,-4.32 20.55,-7.55 7.67,-3.77 9.99,-5.08 16.02,-10.68 11.96,-11.1 4.17,-0.58 12.28,-16.5 -12.63,-0.14 -21.79,-3.45 -36.08,-1.61 -11.44,1.47 -20.43,5.97 -31.38,7.91 -11.78,2.08 -23.49,1.77 -34.67,-1.79 -16.09,-5.14 -18.04,-2.6 -33.15,-5.13l-0.87 -12.09 -1.15 -21.23 -20.21 -1.34c-3.4,1.83 -18.73,18.84 -24.51,23.9 -7.53,6.61 -18.37,13.45 -31.09,16.68z"/>
    <path class="fil12" style="mask:url(#id160)" d="M709.93 943.26c3.9,2.36 6.44,6.98 10.41,10.91 24.11,23.88 37.59,25.62 69.09,37.69 10.56,4.05 22.07,7.73 30.31,13.26 0,40.05 1.89,36.58 -18.61,57.29 -8.04,8.11 -10.65,7.73 -13.7,13.62 8.63,-2.02 16.8,-3.98 25.79,-5.81 12.11,-2.47 7.4,-1.15 15.21,-17.04 9.73,-19.81 5.92,-32.68 5.81,-56.43l40.46 1.71c10.05,0.75 13.94,-0.4 21.31,-5.68 2.58,-15.98 6,-19.45 22.62,-20.46l-0.35 6.47c2.61,-6.52 -0.09,-34.01 -0.64,-43.81 -4.56,2.76 -11.85,12.25 -16.32,16.83 -20.03,20.49 -2.67,5.29 -9.37,17.19 -9.1,1.62 2.51,-5.05 -8.93,0.86 -4.49,2.31 -6.16,3.12 -11.17,4.52 -62.73,17.6 -86.85,-24.87 -134.78,-41.14 -23.54,-7.99 -9.16,-7.74 -18.48,-10.86 -3.51,6.42 -5.8,14.72 -8.66,20.88z"/>
    <path class="fil12" style="mask:url(#id162)" d="M935.45 998.48c5.92,-1.45 5.04,-2.29 9.69,-0.44 3.2,-6.45 15.4,-7.24 22.98,-6.2 19.65,2.69 13.71,2.76 19.19,11.87 -8.78,17.43 -14.56,16.74 -38.38,15.23l-2.68 -6.26c0.85,13.32 -1.44,29.47 -2.81,42.81 4.61,0.65 10.12,11.74 15.55,17.93 13.16,-3.35 16.58,-0.95 20.97,-14.79 2.82,-8.86 5.13,-21.61 6.32,-31.74l16.07 1.48c0,-9.66 1.41,-14.17 1.41,-24.66l33.72 -8.43c11.33,-3.2 22.23,-6.05 33.11,-10.44 11.28,-4.56 19.64,-8.31 29,-14.56 6.44,-4.3 18.21,-14.89 20.76,-22.1 -9.4,-1.1 -19.19,-3.91 -28.52,-1.09l-68.22 20.24c-22.02,6.2 -32.39,11.59 -45.15,15.3 -7.67,2.23 -15.78,2.23 -24.82,4.71 -12.85,3.53 -12.37,-0.26 -18.19,11.14z"/>
    <path class="fil12" style="mask:url(#id164)" d="M1569.91 338.62l4.11 0.42c9.09,0.36 12.55,-2.67 20.84,-3.06 1.4,-1.58 0.24,-0.71 2.4,-2.07 0.71,-0.44 2.59,-1.35 2.85,-1.45 2.17,-0.89 5.64,-1.64 7.85,-1.97 13.11,-1.95 67.38,7.25 78.6,12.39 8.68,3.97 15.57,9.68 23.74,13.22l-3.87 -21.55c-0.15,-2.43 0.91,-0.64 -1.16,-4.71 -6.58,-12.93 -45.8,-30.96 -55.63,-37.16 -7.34,-4.62 -12.61,-9.57 -17.96,-15.79l-8.38 -0.45c-16.53,8.83 -27.31,3.07 -44.86,6.21 -15.33,2.75 -21.35,8.26 -29.2,20.46 19.89,3.2 42.11,6.57 62.63,4.56 10.27,-1 20.6,-2.1 31.01,-2.84 23.96,-1.68 15.4,-0.42 20.23,14.62 -68.3,-11.35 -27.9,-11.2 -104.24,-6.86 1.92,8.73 2.76,3.99 0.68,14.3l7.41 -0.4c-3.61,6.83 2.49,2.18 2.9,10.43 0.1,2 -1.09,-0.33 0.05,1.7z"/>
    <path class="fil12" style="mask:url(#id166)" d="M1104.84 629.3c-18.76,18.87 -68.01,34 -101.94,37.33 -54.05,11.04 -112.21,8.77 -167.8,3.66 6.02,10.86 4.66,7.68 15.23,14.61 10.89,7.14 9.3,5.37 24.77,6.59 22.49,-7.52 82.38,10.95 132.36,-7.42 47.63,-17.51 30.14,10.78 110.93,-34.86l-3.9 -22.57 -9.65 2.66z"/>
    <path class="fil12" style="mask:url(#id168)" d="M1493.36 609.64c6.22,18.91 2.48,19.32 45.32,21.89 20.93,1.26 43.77,1.56 64.92,0.66 48.75,-2.08 70.72,-6.83 85.67,-47.45 -29.06,4.11 -59.71,15.76 -90.22,20.84 -35.54,5.91 -69.07,4.59 -105.69,4.06z"/>
    <path class="fil12" style="mask:url(#id170)" d="M1280.69 797.45c2.74,9.14 -3.76,8.28 11.28,12.26 7.23,1.92 12.66,-3.51 17.27,-7.8 13.09,-12.16 -0.28,-20.67 -4.27,-37.23 -9.37,-6.36 -16.75,-11.76 -22.21,-22.45l21.76 -12.33 39.34 -21.05 -2.69 33.28 16.67 -36.24 9.11 4.45 0.69 10.76c0.95,-0.46 2.18,-0.8 3.1,-1.16l4 -1.61 0.2 -13.92c-16.74,-17.24 -44.72,-9.24 -63.35,1.46 -14.95,8.58 -23.59,17.25 -35.17,28.06 -6.5,6.07 -8.42,3.44 -15.9,6.89 1.92,11.71 8.87,24.42 14.34,30.96 7.46,8.91 20.52,8.87 5.83,25.67z"/>
    <path class="fil12" style="mask:url(#id172)" d="M138.88 935.65c10.49,11.51 37.62,4.43 52.82,7.68l-3.54 15.01 20.73 -5.39c-1.06,-9.1 -4.28,-9.98 -3.07,-19.39 0.86,-6.6 2.46,-13.39 3.15,-20.05l8.52 -0.25c-0.24,-13.1 -1.06,-32.93 -3.63,-45.43 -2.55,-12.44 -9.88,-25.67 -21.49,-26.9 -0.72,35.68 2.2,19.08 -9.51,51.19 -4.73,12.99 -10.67,31.7 -16.56,43.75l-27.42 -0.22z"/>
    <path class="fil12" style="mask:url(#id174)" d="M156.69 1063.93l9.74 -2.07 6.23 -5.65c18.2,-11.23 29.22,-14.25 32.09,-43.76 4.49,-46.16 -23.89,-41.97 -34.36,-51.46l-15.1 0.65c0.31,0.19 0.85,-0.06 1.03,0.34 1.03,2.28 7.56,-2.33 9.96,4.02 1.85,4.91 0.78,39.33 0.35,44.84 -0.88,11.36 -1.44,17.14 -3.49,27.44l-6.45 25.65z"/>
    <path class="fil12" style="mask:url(#id176)" d="M655.38 835.5l-1.34 3.82c-0.22,1.58 -0.13,5.14 -0.12,6.87l-2.76 92.01 44.95 -9.08 -18.09 -53.47c-6.1,-22.27 -5.31,-38.96 -9.1,-61.3 -4.18,6.12 -7.77,16.78 -13.54,21.15z"/>
    <path class="fil12" style="mask:url(#id178)" d="M1626.02 1060.1l8.58 1.71 0.2 -11.71c-1.2,-14.05 -6.67,-25.93 -7.35,-39.35 -0.44,-8.77 -0.09,-15.02 1.96,-21.97 2.44,-8.28 5.17,-9.94 7.89,-16.79 -32.08,2.15 -44.69,3.53 -44.79,38.72 -0.1,34.37 -4,26.23 33.51,49.39z"/>
    <path class="fil12" style="mask:url(#id180)" d="M1779.88 733.58c-1.79,2.92 -2.9,3.45 -4.49,5.68l5.7 21.14c-2.9,2.56 1.12,1.06 -3.13,0.92 2.2,2.45 14.29,12.22 16.67,13.33 2.71,-2.09 9.57,-12.3 12.09,-16.1 4.36,-6.57 10.44,-13.56 10.67,-17.73l1.7 -23.3c-23.87,3.6 -25.15,6.09 -39.21,16.06z"/>
    <path class="fil12" style="mask:url(#id182)" d="M91.48 930.61c3.29,7.31 12.99,14.18 19.96,18.58 7.72,4.87 18.64,8.13 28.4,11.98 1.6,-8.13 -2.79,-12.07 -9.72,-15.24 -4.53,-2.07 -7.99,-2.33 -5.03,-7.25 2.98,-4.96 3.48,-1.18 8.8,-3.63 -3.21,-2.58 -43.96,-26.13 -45.76,-26.63l3.35 22.19z"/>
    <path class="fil12" style="mask:url(#id184)" d="M505.08 816.35l18.25 -6.13c3.39,-6.24 8.21,-10.48 12.46,-16.16 2.14,-2.86 3.93,-5.28 5.88,-8.2 2.7,-4.06 3.83,-4.46 3.02,-9.89l0.45 -4.34c-1.79,-0.62 -9.26,-3.24 -9.65,-3.52 -2.47,-1.74 -2.77,-4.9 -5.24,-7.79 -2.51,22.08 -4.45,14.3 -15.31,25.53 -2.04,2.11 -7.12,8.79 -8.66,12.38 -4.1,9.58 0.94,11.48 -1.2,18.12z"/>
   </g>
   <g>
    <path class="fil13" style="mask:url(#id186)" d="M655.38 835.5c5.77,-4.37 9.36,-15.03 13.54,-21.15 3.79,22.34 3,39.03 9.1,61.3l18.09 53.47c2.59,3.67 3.4,0.55 4.76,6.03 1.25,5 -0.47,7.28 2.27,12.27 3.88,-2.49 2.06,-2.78 6.79,-4.16 2.86,-6.16 5.15,-14.46 8.66,-20.88 9.32,3.12 -5.06,2.87 18.48,10.86 47.93,16.27 72.05,58.74 134.78,41.14 5.01,-1.4 6.68,-2.21 11.17,-4.52 11.44,-5.91 -0.17,0.76 8.93,-0.86 6.7,-11.9 -10.66,3.3 9.37,-17.19 4.47,-4.58 11.76,-14.07 16.32,-16.83 0.55,9.8 3.25,37.29 0.64,43.81l-0.6 9.67 17.77 10.02c5.82,-11.4 5.34,-7.61 18.19,-11.14 9.04,-2.48 17.15,-2.48 24.82,-4.71 12.76,-3.71 23.13,-9.1 45.15,-15.3l68.22 -20.24c9.33,-2.82 19.12,-0.01 28.52,1.09 3.22,-3.2 6.83,-5.95 9.84,-5.32l3.8 -14.88 46.77 9.36c0,-30.98 -2.73,-59.49 -2.76,-89.72l-9.49 -129.68c-4.44,-34.24 -6.79,-94.42 -18.66,-120.94 -9.37,3.9 -30.39,23.72 -35.36,29.64l3.9 22.57c-80.79,45.64 -63.3,17.35 -110.93,34.86 -49.98,18.37 -109.87,-0.1 -132.36,7.42 3.6,2.4 21.36,7.64 26.9,9.17 19.21,5.31 85.35,2.81 103.47,-0.37 37.29,-6.54 72.02,-31.85 111.66,-3.04 2.73,30.71 1.39,69.53 2.02,101.21 0.67,33.44 -1.79,59.17 -23.45,77.95 -9.7,8.42 -20.93,11.75 -34.5,17.48 -13.26,5.61 -12.44,18.92 -15.86,34.78 -2.04,9.51 -5.84,8.06 -14.41,10.8 -15.46,4.94 -44.28,16.32 -56.55,18.84 -6.46,-7.28 -12.78,-13.12 -16.58,-26.68 -3,-10.67 -1.51,-31.97 -4.6,-39.06 -6.09,-2.43 -58.62,-3.25 -68.4,-2.35 -3.49,12.12 -2.83,20.39 -7.73,33.1 -3.82,9.94 -8.94,18.69 -12.68,28.25 -29.56,5.23 -66.86,5.7 -83.95,-21 -29.66,-46.32 -31.94,-30.6 -56.95,-49.74 -1.71,-35.56 -0.45,-77.35 0.2,-113.31 0.32,-17.67 2.15,-35.45 2.01,-53.41 -0.17,-20.63 -6.32,-30.54 -7,-48.97 11.6,0.47 22.32,4.31 33.98,5.04 20.29,1.26 16.49,-6.38 26.18,-11.02 -15.55,-10.01 -39.74,-13.89 -57.67,-24.94 -9.46,-5.83 -16.32,-12.21 -22.9,-19.27 -5.26,-5.62 -13.95,-15.61 -21.84,-19.12l-1.66 5.57c-0.65,3.11 -0.66,3.83 -1.04,7.39l-5.66 75.88c-0.4,4.84 0.05,10.51 -0.01,15.44 -0.09,7.58 -1.29,8.28 -1.48,15.4 -1.06,41.42 -11.22,76.84 -11.22,119.99z"/>
    <path class="fil13" style="mask:url(#id188)" d="M893.31 370.17l-69.69 -1.72 -36.46 2.95c-11.4,6.46 -29.11,11.61 -41.71,18.15 -6.79,3.52 -13.01,7.83 -16.93,12.58 -5.4,6.53 -6.72,10.08 -16.95,12.09 -3.27,7.39 -4.68,6.1 -8.43,11.71l8.99 0c-2.23,8.82 -0.97,9.48 -4.71,18.33 -14.13,33.38 -46.09,95.34 -12.86,123.96 11.07,0.04 14.8,2.2 22.05,-4.53 -4.21,-21.15 -8.63,-19.13 -17.13,-32.33 6.35,-9.16 14.19,1.19 8.72,-31.9 -1.07,-6.48 -2.1,-5.82 -4.07,-10.17 22.31,-2.64 21.64,-19.71 25.4,-42.64 1.75,-10.69 1.1,-7.4 9.48,-11.54 27.25,-13.48 0.8,-22.05 59.58,-27.48 -1.57,-6.66 -1.18,-6.93 -5.44,-11.37 -4.25,-4.43 5.15,5.34 -1.58,-1.58l-1.59 -1.75c20.88,-0.3 40.73,0.58 62.03,-0.22 18.2,-0.68 42.12,-2.93 59.82,-0.75 9.57,1.18 16.13,4.53 27.33,4.45 21.5,-0.15 65.02,-11.02 82.08,2.18 6.34,4.91 8.82,12.25 12.11,20.21 12.44,30.14 25.48,34.63 39.39,53.39 12.41,16.74 0.51,13.79 -17.94,34.37 -18.87,21.04 -2.53,18.84 0.99,27.78 1.31,3.33 0.59,11.77 0.42,15.65 -7.5,2.38 -10.03,7.04 -19.17,7.19l-8.89 -12.03c-5.67,3.73 -6.89,10.1 -17.64,18.26 -25.98,19.72 -55.08,15.74 -86.78,18.37 3.12,10.46 9.2,10.54 16.43,16.63 -9.01,1.05 -24.07,-0.54 -31.51,2.08 -17.45,6.13 -3.26,27.39 -76.17,12.13 -26.57,-5.55 -84.64,-23.52 -110.16,-20.58 20.24,24.04 100.35,42.21 142.74,41.65 43.46,-0.52 93.69,-1.34 134.74,-9.21 20.11,-3.86 37.37,-9.48 55.35,-16.39 15.69,-6.02 44.56,-21.52 50.26,-23.29 2.33,-2.81 5.21,-4.53 8.23,-6.73 3.1,-2.25 5.61,-4.58 8.49,-6.96 55.77,-46.19 3.39,-96.21 -18.23,-146.65l13.2 -5.56c-3.35,-1.97 -8.26,-2.64 -13.6,-3.17 -6.04,-3 -11.01,-11.76 -16.69,-16.66 -4.41,-3.79 -13.45,-9.92 -20.14,-13.63 -9.91,-5.5 -40.8,-14.92 -45.9,-19.89 -21.14,1.11 -45.99,-3.99 -65.42,-0.5 -22.61,4.05 -37.45,5.77 -62.04,5.12z"/>
    <path class="fil13" style="mask:url(#id190)" d="M1396.78 547.37c12.28,15.51 46.17,26.33 73.08,30.63 73.34,11.7 192.99,-1.9 251.8,-47.76 -0.22,-0.34 -0.37,-0.83 -0.47,-1.11l-1.06 -3.56c-3.56,-14.39 -7.16,-6.89 -26.04,-0.65 -20.4,6.75 -37.18,9.43 -57.08,13.22 -20.76,3.96 -5.05,-4.08 -26.48,5.76 -8.48,3.9 -4.17,5.18 -9.68,7.17 -0.65,0.24 -3.77,0.58 -4.66,0.63 -3.36,0.17 -7.4,0.03 -10.84,0.05 -23.61,0.09 -76.42,4.68 -90.04,2.37 -13,-2.2 -25.24,-6.13 -36.91,-9.55 -19.2,-5.61 -25.75,-6.36 -37.04,1.8 -2.36,-3.17 -11.37,-13.01 -15.99,-15.18 -2.16,5.8 -6,10.38 -8.59,16.18z"/>
    <path class="fil13" style="mask:url(#id192)" d="M1357.54 883.65c0.55,13.24 6.16,44.57 -5.4,49.54 3.79,6.27 11.58,13.44 18.13,17.23 5.87,3.39 18.16,8.63 26.82,7.65 15.04,0.68 42.02,-2.91 57.75,-4.66 13.23,-1.48 45.84,-3.35 52.23,-11.15 -29.28,-5.88 -57.55,-11.54 -84.95,-21.26 -23.22,-8.23 -57.24,-21.83 -55.44,-49.28 -3.83,2.56 -6.69,7.64 -9.14,11.93z"/>
    <path class="fil13" style="mask:url(#id194)" d="M1584.03 924.25l0.87 12.09c15.11,2.53 17.06,-0.01 33.15,5.13 11.18,3.56 22.89,3.87 34.67,1.79 10.95,-1.94 19.94,-6.44 31.38,-7.91 14.29,-1.84 23.45,1.47 36.08,1.61 7.05,-2.52 16.94,-17.76 20.16,-24.14 4.3,-8.53 11.94,-23.26 13.56,-32.3 -8.56,0.8 -18.75,0.93 -25.12,5.24 -4.78,3.23 -9.18,9.5 -14.75,13.38 -6.89,4.8 -12.18,5.63 -20.33,9.18 -17.3,7.54 -24.26,27.57 -60.54,24.87l-49.13 -8.94z"/>
    <path class="fil13" style="mask:url(#id196)" d="M1367.64 721.1l-14.2 81.9c2.07,9.11 8.4,17.34 10.79,27.06 2.71,11.05 1.07,25.09 0.24,36.74 3.76,-3.01 8.19,-10.73 9.67,-15.4 1.99,-6.29 1.73,-15 2.15,-21.96 19.62,-13.57 1.41,-9.38 -0.5,-35.13 -2.08,-28.07 26.34,-57.23 -0.85,-89.9l-0.2 13.92 -4 1.61c-0.92,0.36 -2.15,0.7 -3.1,1.16z"/>
    <path class="fil13" style="mask:url(#id198)" d="M17.02 764.72l-1.59 4.44c5.54,8.99 10.07,16.99 21.86,21.24l15.47 -4.13c-6.67,-13.13 -27.94,-19.89 -15.19,-36.75 9.06,-11.98 25.86,-18.23 9.55,-36.51 -20.66,5.96 -31.79,29.75 -30.1,51.71z"/>
    <path class="fil13" style="mask:url(#id200)" d="M509.48 759.37l0.4 5.72c-3.27,5.67 -4,3.84 -2.03,10.35l-19.93 1.75 2.97 0.94c-3.41,6.84 -3.91,7.35 -7.66,12.49 -11,15.06 6.22,33.76 21.85,25.73 2.14,-6.64 -2.9,-8.54 1.2,-18.12 1.54,-3.59 6.62,-10.27 8.66,-12.38 10.86,-11.23 12.8,-3.45 15.31,-25.53l-2.11 -11.74c-2.35,0.1 -8.75,1.06 -11.91,1.58 -7.13,1.16 -6.56,2.38 -6.75,9.21z"/>
    <path class="fil13" style="mask:url(#id202)" d="M139.84 961.17l15.45 0.47 15.1 -0.65 17.77 -2.65 3.54 -15.01c-15.2,-3.25 -42.33,3.83 -52.82,-7.68l-4.99 -0.6c-5.32,2.45 -5.82,-1.33 -8.8,3.63 -2.96,4.92 0.5,5.18 5.03,7.25 6.93,3.17 11.32,7.11 9.72,15.24z"/>
    <polygon class="fil13" style="mask:url(#id204)" points="1562.67,901.68 1582.88,903.02 1580.08,888.6 1567.62,890.54 "/>
   </g>
   <g>
    <path class="fil14" style="mask:url(#id206)" d="M17.02 764.72c-1.69,-21.96 9.44,-45.75 30.1,-51.71 16.31,18.28 -0.49,24.53 -9.55,36.51 -12.75,16.86 8.52,23.62 15.19,36.75 -0.65,17.25 -4.76,28.81 -2.61,48.36 1.48,13.46 6.47,32.75 5.32,45.37 2.59,5.05 5.87,17.43 12.22,30.02 5.97,11.82 11.54,16.17 23.79,20.59l-3.35 -22.19c1.8,0.5 42.55,24.05 45.76,26.63l4.99 0.6 27.42 0.22c5.89,-12.05 11.83,-30.76 16.56,-43.75 11.71,-32.11 8.79,-15.51 9.51,-51.19 11.61,1.23 18.94,14.46 21.49,26.9 2.57,12.5 3.39,32.33 3.63,45.43l-1.34 7.13c13.45,2.88 16.46,8.99 25.93,13.35 9.59,4.42 23.9,3.53 35.21,4.23 6.67,13.24 11.15,15.24 29.71,15.44 2.09,-0.72 24.26,-30.56 25.76,-37.4 -3.77,-2.38 -13.6,-11.06 -15.66,-14.85 6.76,-3.47 5.53,-4.46 14.31,-0.64 5.2,2.27 9.56,4.96 15.13,6.56l1.57 -15.85c11.58,-7.74 14.1,-17.88 20.65,-33.81l16.39 -39.14c1.03,34.4 0.03,14.53 6.91,32.97 6.32,-1.43 8.51,-4.21 14.38,-6.73 2.35,-9.87 3.43,-21.97 5.73,-32.19 2.36,-10.49 4.59,-20.58 6.61,-31.55 4.21,-22.81 1.34,-49.45 7.15,-69.95 14.89,-5.97 40.21,-3.97 53.43,2.31 12.57,5.97 25.18,19.96 29.95,33.96 -30.2,-1.09 -39.98,-14.11 -54.46,-13.13 -0.62,12.17 -1.45,24.11 -2.07,36.38 -0.31,6.1 -3.52,31.84 -0.29,34.19 16.32,-7.12 3.32,-20.68 35.43,-27.35l19.93 -1.75c-1.97,-6.51 -1.24,-4.68 2.03,-10.35 -9.55,-2.88 -8.46,-2.45 -16.49,1.67l3.07 -15.81c15.45,2.95 12.02,8.74 12.57,7.36 0.09,-0.22 0.26,0.72 0.45,1.06 0.19,-6.83 -0.38,-8.05 6.75,-9.21 3.16,-0.52 9.56,-1.48 11.91,-1.58l2.11 11.74c2.47,2.89 2.77,6.05 5.24,7.79 0.39,0.28 7.86,2.9 9.65,3.52l-0.45 4.34c30.59,-21.12 -3.21,-51.43 -9.52,-59.64 -12.22,-15.86 -24.02,-18.19 -32.39,-23.82 -7.65,-5.14 -7.23,-17.88 -8.57,-27.98 -0.79,-6.03 -0.05,-11.89 -0.37,-17.9 -0.36,-6.73 -1.48,-9.69 -1.43,-18.25 0.11,-18.26 1.54,-34.97 -2.17,-52.65 -1.56,-7.47 -2.72,-9.15 -8.28,-12.04 -5.59,41.28 6.49,80.32 1.06,118.63 -4.53,0.48 -1.5,0.26 -4.72,-1.76 -2.28,-1.43 -2.73,-1.96 -5.28,-3.26 -17.07,-8.74 -16.68,-10.29 -29.78,-18 -13.92,-8.21 -30.71,-12.89 -34.06,-30.41 -3.06,-15.97 -1.21,-104.64 -1.42,-128.57 -10.47,-7.9 -16.42,-9.85 -20.92,-26.3 -3.7,-13.51 -1.85,-34.34 -4.81,-42.96 -30.22,-2.12 -63.73,-8.9 -93.31,-6.82 -15.13,1.06 -29.71,3.39 -44.94,4.06 -41.38,1.82 -128.21,-10.91 -164.96,-32.68 -8.91,-5.28 -17.18,-11.87 -23.8,-19.72 -2.63,-3.12 -0.86,-0.61 -2.68,-3.68 -2.07,-2.42 -7.98,-7.06 -11.55,-10.23 -2.52,-2.25 -8.91,-8.13 -11.93,-9.4l21.11 213.87c0.17,6.51 -0.16,9.91 0.77,16.1 2.14,14.17 1.2,71.93 -1.36,90.24 -2.12,15.21 -2.69,13.06 -12.1,20.21 -12.71,9.66 -34.8,25.48 -37.92,43.48l0 8.38c0.21,1.16 0.5,2.32 0.9,3.49 2.41,7.12 10.21,13.78 16.76,16.36z"/>
    <path class="fil14" style="mask:url(#id208)" d="M1263.64 799.09l17.05 -1.64c14.69,-16.8 1.63,-16.76 -5.83,-25.67 -5.47,-6.54 -12.42,-19.25 -14.34,-30.96 7.48,-3.45 9.4,-0.82 15.9,-6.89 11.58,-10.81 20.22,-19.48 35.17,-28.06 18.63,-10.7 46.61,-18.7 63.35,-1.46 27.19,32.67 -1.23,61.83 0.85,89.9 1.91,25.75 20.12,21.56 0.5,35.13 -0.42,6.96 -0.16,15.67 -2.15,21.96 -1.48,4.67 -5.91,12.39 -9.67,15.4 1.04,3.33 0.26,1.26 2.21,4.92 -1.8,27.45 32.22,41.05 55.44,49.28 27.4,9.72 55.67,15.38 84.95,21.26 12.72,-3.23 23.56,-10.07 31.09,-16.68 5.78,-5.06 21.11,-22.07 24.51,-23.9l4.95 -11.14 12.46 -1.94 2.8 14.42 1.15 21.23 49.13 8.94c36.28,2.7 43.24,-17.33 60.54,-24.87 8.15,-3.55 13.44,-4.38 20.33,-9.18 5.57,-3.88 9.97,-10.15 14.75,-13.38 6.37,-4.31 16.56,-4.44 25.12,-5.24 2.66,-0.7 -0.25,0.78 2.33,-1.17 2.38,-1.8 0.84,-0.5 2.7,-2.64 2.6,-2.99 3.12,-3.93 4.8,-7.21l-8.32 -3.56c2.48,-36.42 3.04,-73.18 5.25,-109.74 6.52,1.59 10.76,5.04 17.3,5.12 4.25,0.14 0.23,1.64 3.13,-0.92l-5.7 -21.14 -17.52 5.98c-0.98,-6.88 -4.41,-18.5 -1.13,-23.93 4.01,-4.54 14.01,-3.91 21.14,-4.55l2 16.82c14.06,-9.97 15.34,-12.46 39.21,-16.06l-1.7 23.3c3.78,-3.09 0.2,0.59 2.44,-2.67 5.02,-7.28 5.27,-18.91 1.95,-27.3 -8.79,-22.24 -47.84,-36.26 -66.48,-48.75 0,-12.8 1.49,-20.76 1.43,-32.31l-0.02 -103.98c-4.67,2.07 -13.8,10.03 -17.72,14.51 -3.14,3.6 -3.97,5.65 -7.58,9.32 -16.98,17.22 -37.97,28.42 -42.14,35.1 -14.95,40.62 -36.92,45.37 -85.67,47.45 -21.15,0.9 -43.99,0.6 -64.92,-0.66 -42.84,-2.57 -39.1,-2.98 -45.32,-21.89 -37.32,-5.52 -70.6,-17.58 -99.89,-33.91 -14.48,-8.08 -29.26,-18.24 -39.89,-27.55 -9.3,-8.14 -21.65,-30.38 -32.35,-35.12 -9.25,17.71 -9.27,66.05 -8.47,92.86l1.48 40.75c0.04,8.99 -1.43,11.53 -1.43,19.65l-39.42 22.41c-14.59,8.7 -23.07,16.71 -33.22,28.61 -4.38,5.13 -8.73,13.9 -9.95,21.01 -1.84,10.76 2.15,17.94 5.76,24.53 6.53,11.95 22.61,24.13 27.66,36.21z"/>
    <path class="fil14" style="mask:url(#id210)" d="M1484.89 293.78c13.05,-3.98 37.37,-1.49 43.86,8.84 3.25,5.18 10.49,34.93 12.49,43.51 -12.01,-0.9 -22.97,-4.46 -34.55,-4.95 -14.2,-0.59 -20.17,4.21 -31.53,7.45 1.19,-9.95 0.48,-13.27 5.93,-18.6 5.22,-5.09 22.49,-16.49 1.36,-23.55l22.35 -5.1 -19.91 -7.6zm-14.32 -32.28l-6.31 5.89 -30.37 8.29 -17.26 8.69c-0.67,1.36 -0.4,1.11 -1.81,3.3 -1.72,2.69 -0.97,1.36 -1.92,2.55 -2.65,3.66 -5.56,5.72 -8.73,9.21 -3.22,3.55 -5.22,6.28 -8.55,9.97 -8.85,8.71 -8.89,8.39 -22.41,11.05 -0.61,7.39 -2.79,4.13 -7.86,10.45 -3.09,3.85 -6.27,6.57 -8.12,10.68 -4.68,18.26 -18.96,36.64 -27.24,53.75 -9.56,19.78 -15.08,41.28 -11.09,66.47 6.53,41.24 41.02,75.4 77.88,85.57 2.59,-5.8 6.43,-10.38 8.59,-16.18 4.62,2.17 13.63,12.01 15.99,15.18 11.29,-8.16 17.84,-7.41 37.04,-1.8 11.67,3.42 23.91,7.35 36.91,9.55 13.62,2.31 66.43,-2.28 90.04,-2.37 3.44,-0.02 7.48,0.12 10.84,-0.05 0.89,-0.05 4.01,-0.39 4.66,-0.63 5.51,-1.99 1.2,-3.27 9.68,-7.17 21.43,-9.84 5.72,-1.8 26.48,-5.76 19.9,-3.79 36.68,-6.47 57.08,-13.22 18.88,-6.24 22.48,-13.74 26.04,0.65l1.06 3.56c0.1,0.28 0.25,0.77 0.47,1.11 17.58,-8.08 33.75,-24.49 41.25,-44.68 4.08,-11.01 5.83,-23.02 6.2,-35.7 0.38,-13.5 -2.31,-29.52 -1.56,-40.8 -3.22,-10.44 -5.77,-18.84 -11.89,-25.66 -4.39,-4.88 -13.78,-14.88 -20.13,-16.52l-8.38 23.83 -49.86 -25.23c5.15,-2.92 17.95,-5.5 24.63,-5.35 5.12,9.57 9.87,13.52 22.58,16.36l-0.77 -17.74 -13.43 -2.65c-8.17,-3.54 -15.06,-9.25 -23.74,-13.22 -11.22,-5.14 -65.49,-14.34 -78.6,-12.39 -2.21,0.33 -5.68,1.08 -7.85,1.97 -0.26,0.1 -2.14,1.01 -2.85,1.45 -2.16,1.36 -1,0.49 -2.4,2.07l49.8 6.59 -5.73 3.49c-5.7,2.35 -8.78,2.08 -14.41,5.72l-1.92 1.57c14.25,-0.37 30.25,-0.64 42.07,8.76l2.39 2.27c-17.68,-1.8 -30.78,-5.53 -49.47,-5.51 -15.81,0.01 -36.13,5.74 -48.2,-1.83l4.51 -3c4.53,-2.07 9.59,-1.94 14.87,-5.44l-17.49 -0.13c-1.25,-3.49 3.56,-1.3 -1.37,-9.85 -1.14,-2.03 0.05,0.3 -0.05,-1.7 -0.41,-8.25 -6.51,-3.6 -2.9,-10.43l-7.41 0.4c2.08,-10.31 1.24,-5.57 -0.68,-14.3 76.34,-4.34 35.94,-4.49 104.24,6.86 -4.83,-15.04 3.73,-16.3 -20.23,-14.62 -10.41,0.74 -20.74,1.84 -31.01,2.84 -20.52,2.01 -42.74,-1.36 -62.63,-4.56 7.85,-12.2 13.87,-17.71 29.2,-20.46 17.55,-3.14 28.33,2.62 44.86,-6.21l-36.47 -12.99 -20.57 -3.11 -19.58 -1.77 -27.03 -0.04 -14.16 -0.02 -10.69 0.87 -24.23 2.12z"/>
    <path class="fil14" style="mask:url(#id212)" d="M186.63 36.52c-35.2,-7.13 -82.04,20.53 -103.31,41.85 -5.2,5.2 -7.7,5.45 -12.32,11.56 -3.42,4.52 -7.59,8.91 -11.57,13.74 -44.94,54.51 -48.64,143.17 -50.24,146.6 3.64,5.43 4.78,30.35 8.26,39.46 4.29,11.21 13.46,20.08 20.4,26.01 12.88,11.03 38.64,32.7 65.02,28.71 48.37,-4.26 53.09,-3.68 101.58,-2.94 20.45,0.32 50.85,3.13 66.05,-11.16 6.22,-5.85 11.82,-3.78 19.81,-7.04l-1.9 -13.05c10.07,-4.48 15.45,-23.56 20.77,-35.41 13.08,-29.09 21.46,-51.96 39.04,-76.18 8,-11.02 4.8,-37.55 4.49,-52.53l35.42 -0.19c-15.36,-5.08 -29.03,-13.06 -32.62,-28 24.64,0.09 25.98,-3.39 35.4,11.81 1.9,3.08 1.07,0.82 2.34,4.58l0.84 4.34 7.08 -3.87c0.37,-3.62 0.54,3.15 -0.41,-1.15l-0.35 -2.2c5.43,-4.03 4.18,-3.2 8.1,-7.43 3.03,-3.25 5.31,-4.01 10.87,-4.42 5.32,5.16 8.99,13.31 13.15,20.42 2.66,4.55 3.72,5.9 8.5,8.4 5.85,3.06 6.5,2.58 9.26,7.87l3.91 -9.09c0.8,-10.5 -8.93,-20.53 -12.13,-29.13 -13.26,-15.52 -25.42,-21.73 -30.03,-28.49l-22.16 -15.16c-11.83,-3.25 -24.33,-2.78 -36.2,-8.72 -9.94,-4.96 -18.21,-13.14 -22.18,-22.16 -14.34,0 -17.52,1.12 -27.31,-4.26 -16.62,2.7 -41.23,-8.07 -57.65,-12.05l-18.19 -0.02c-5.4,0.11 -8.77,-1.18 -12.35,1.4 -0.87,7.72 0.33,14.59 -0.02,22.03 -0.36,7.38 -3.76,11.57 -5.97,16.82 -14.14,-4.66 -17.5,-14.35 -23.38,-30.95z"/>
    <path class="fil14" style="mask:url(#id214)" d="M875.1 691.49c-15.47,-1.22 -13.88,0.55 -24.77,-6.59 -10.57,-6.93 -9.21,-3.75 -15.23,-14.61l-56.24 -11.13c-9.69,4.64 -5.89,12.28 -26.18,11.02 -11.66,-0.73 -22.38,-4.57 -33.98,-5.04 0.68,18.43 6.83,28.34 7,48.97 0.14,17.96 -1.69,35.74 -2.01,53.41 -0.65,35.96 -1.91,77.75 -0.2,113.31 25.01,19.14 27.29,3.42 56.95,49.74 17.09,26.7 54.39,26.23 83.95,21 3.74,-9.56 8.86,-18.31 12.68,-28.25 4.9,-12.71 4.24,-20.98 7.73,-33.1 9.78,-0.9 62.31,-0.08 68.4,2.35 3.09,7.09 1.6,28.39 4.6,39.06 3.8,13.56 10.12,19.4 16.58,26.68 12.27,-2.52 41.09,-13.9 56.55,-18.84 8.57,-2.74 12.37,-1.29 14.41,-10.8 3.42,-15.86 2.6,-29.17 15.86,-34.78 13.57,-5.73 24.8,-9.06 34.5,-17.48 21.66,-18.78 24.12,-44.51 23.45,-77.95 -0.63,-31.68 0.71,-70.5 -2.02,-101.21 -39.64,-28.81 -74.37,-3.5 -111.66,3.04 -18.12,3.18 -84.26,5.68 -103.47,0.37 -5.54,-1.53 -23.3,-6.77 -26.9,-9.17z"/>
    <path class="fil14" style="mask:url(#id216)" d="M694.56 568.22c6.82,16.25 9.35,18.98 27.76,23.82 25.52,-2.94 83.59,15.03 110.16,20.58 72.91,15.26 58.72,-6 76.17,-12.13 7.44,-2.62 22.5,-1.03 31.51,-2.08 -7.23,-6.09 -13.31,-6.17 -16.43,-16.63 31.7,-2.63 60.8,1.35 86.78,-18.37 10.75,-8.16 11.97,-14.53 17.64,-18.26l8.89 12.03c9.14,-0.15 11.67,-4.81 19.17,-7.19 0.17,-3.88 0.89,-12.32 -0.42,-15.65 -3.52,-8.94 -19.86,-6.74 -0.99,-27.78 18.45,-20.58 30.35,-17.63 17.94,-34.37 -13.91,-18.76 -26.95,-23.25 -39.39,-53.39 -3.29,-7.96 -5.77,-15.3 -12.11,-20.21 -17.06,-13.2 -60.58,-2.33 -82.08,-2.18 -11.2,0.08 -17.76,-3.27 -27.33,-4.45 -17.7,-2.18 -41.62,0.07 -59.82,0.75 -21.3,0.8 -41.15,-0.08 -62.03,0.22l1.59 1.75c6.73,6.92 -2.67,-2.85 1.58,1.58 4.26,4.44 3.87,4.71 5.44,11.37 -58.78,5.43 -32.33,14 -59.58,27.48 -8.38,4.14 -7.73,0.85 -9.48,11.54 -3.76,22.93 -3.09,40 -25.4,42.64 1.97,4.35 3,3.69 4.07,10.17 5.47,33.09 -2.37,22.74 -8.72,31.9 8.5,13.2 12.92,11.18 17.13,32.33 -7.25,6.73 -10.98,4.57 -22.05,4.53z"/>
    <path class="fil14" style="mask:url(#id218)" d="M1304.52 729.9l8.2 1.13 1.85 34.22c3.2,2.35 8.45,6.08 12.26,7.93 9.01,0.5 9.91,-3.63 10.99,-11.53 0.96,-7.09 1.96,-12.69 3.35,-19.52l2.69 -33.28 -39.34 21.05z"/>
   </g>
  </g>
 </g>
</svg>
