<!-- Generated by IcoMoon.io -->
<svg version="1.1" xmlns="http://www.w3.org/2000/svg" width="32" height="32" viewBox="0 0 32 32">
<title>satan-is-my-suggar-dady</title>
<path fill="#dc2120" d="M5.379 15.606l0.029-0.006 0.417-0.006-0.844-3.483c-0.286-1.143-0.55-2.304-0.844-3.473l-1.26-5.24c-0.069-0.306-0.141-0.566-0.213-0.854-0.062-0.245-0.188-0.651-0.194-0.921h21.046c0 0.277 0.689 3.255 0.763 3.602 0.258 1.209 0.535 2.39 0.784 3.582 0.251 1.203 0.534 2.375 0.783 3.583 0.479 2.319 1.086 4.859 1.585 7.195l2.157 9.873c0.050 0.236 0.182 0.657 0.182 0.933-0.852 0-1.625 0.048-2.521 0.048-0.857 0-1.714 0.003-2.57 0-0.452-0.002-0.737 0.049-1.212 0.049-1.1-0.001-2.944-0.051-3.88 0l-1.212 0.049c-0.988 0-3.086-0.043-3.838 0.041-0.548 0.062-2.949 0.007-3.824 0.007-0.483 0-0.83 0.048-1.26 0.048-0.007-0.321-0.167-0.607-0.194-0.915l-0.436 0.001c0.107 0.43 0.189 1.006 0.388 1.303 0.873 0 1.746 0 2.619 0h0.086c0.89-0.003 1.632-0.049 2.532-0.049 3.953 0 7.879-0.097 11.832-0.097 0.227 0 0.454 0.002 0.681 0.002 0.291-0.001 0.352-0.049 0.627-0.052 2.861-0.035 2.845 0.386 2.524-0.968-0.072-0.304-0.13-0.597-0.204-0.912l-3.655-16.67c-0.52-2.36-1.067-5.058-1.621-7.402l-0.706-3.223c-0.050-0.269-0.050-0.241-0.167-0.415h-20.165c-0.958 0.011-1.539 0.027-1.561 0.049-0.133 0.133 0.254 1.508 0.32 1.766l2.173 8.935c0.079 0.316 0.849 3.379 0.854 3.622z"></path>
<path fill="#e86a69" d="M5.825 15.593l-0.417 0.006 0.074 0.030c0.15 0.029 0.224 0.031 0.342-0.037z"></path>
<path fill="none" stroke="#201e1e" stroke-linejoin="round" stroke-linecap="round" stroke-miterlimit="22.9256" stroke-width="38.8274" d="M7.832 9.579c-0.546 0-0.964-0.161-1.253-0.482-0.288-0.322-0.449-0.761-0.484-1.316l0.869-0.218c0.042 0.869 0.332 1.303 0.868 1.303 0.434 0 0.652-0.216 0.652-0.651 0-0.129-0.017-0.248-0.053-0.358-0.035-0.11-0.088-0.211-0.161-0.302-0.072-0.091-0.138-0.164-0.197-0.22s-0.139-0.124-0.241-0.206l-1.085-0.868c-0.199-0.155-0.357-0.354-0.476-0.595s-0.179-0.515-0.179-0.822c0-0.448 0.139-0.804 0.418-1.069 0.278-0.265 0.646-0.397 1.106-0.397 0.492 0 0.884 0.12 1.175 0.361s0.47 0.582 0.537 1.023c0.007 0.048 0.015 0.112 0.024 0.196l-0.868 0.218c-0.002-0.038-0.008-0.096-0.017-0.172-0.038-0.277-0.125-0.498-0.259-0.664-0.135-0.167-0.332-0.25-0.592-0.25-0.208 0-0.369 0.060-0.482 0.175-0.113 0.117-0.17 0.279-0.17 0.487 0 0.341 0.144 0.628 0.434 0.858l1.086 0.868c0.579 0.468 0.868 1.028 0.868 1.679 0 0.446-0.137 0.794-0.412 1.045-0.275 0.25-0.644 0.376-1.108 0.376zM10.909 7.346h0.869l-0.434-2.605-0.435 2.605zM9.607 9.517l1.302-6.078h0.869l1.302 6.078h-0.868l-0.325-1.52h-1.086l-0.325 1.52h-0.868zM14.047 9.517v-5.305h-1.086v-0.774h3.039v0.774h-1.085v5.305h-0.869zM17.265 7.346h0.869l-0.434-2.605-0.435 2.605zM15.963 9.517l1.302-6.078h0.869l1.302 6.078h-0.868l-0.325-1.52h-1.086l-0.325 1.52h-0.868zM19.925 9.517v-6.078h0.652l1.519 3.758v-3.758h0.868v6.078h-0.617l-1.554-4.043v4.043h-0.868zM7.364 16.094v-6.078h0.868v6.078h-0.868zM10.746 16.155c-0.546 0-0.964-0.161-1.253-0.482-0.288-0.322-0.449-0.761-0.484-1.316l0.869-0.218c0.042 0.869 0.332 1.303 0.868 1.303 0.434 0 0.652-0.216 0.652-0.651 0-0.129-0.017-0.248-0.053-0.358-0.035-0.11-0.088-0.211-0.161-0.302-0.072-0.091-0.138-0.164-0.197-0.22s-0.139-0.124-0.241-0.206l-1.085-0.868c-0.199-0.155-0.357-0.354-0.476-0.595s-0.179-0.515-0.179-0.822c0-0.448 0.139-0.804 0.418-1.069 0.278-0.265 0.646-0.397 1.106-0.397 0.492 0 0.884 0.12 1.175 0.361s0.47 0.582 0.537 1.023c0.007 0.048 0.015 0.112 0.024 0.196l-0.868 0.218c-0.002-0.038-0.008-0.096-0.017-0.172-0.038-0.277-0.125-0.498-0.259-0.664-0.135-0.167-0.332-0.25-0.592-0.25-0.208 0-0.369 0.060-0.482 0.175-0.113 0.117-0.17 0.279-0.17 0.487 0 0.341 0.144 0.628 0.434 0.858l1.086 0.868c0.579 0.468 0.868 1.028 0.868 1.679 0 0.446-0.137 0.794-0.412 1.045-0.275 0.25-0.644 0.376-1.108 0.376zM14.311 16.094v-6.078h1.201l0.861 4.654 0.861-4.654h1.201v6.078h-0.868v-4.797l-0.868 4.797h-0.652l-0.869-4.797v4.797h-0.868zM20.162 16.094v-1.955l-1.302-4.124h0.868l0.868 3.039 0.869-3.039h0.868l-1.303 4.124v1.955h-0.868zM6.928 22.732c-0.546 0-0.964-0.161-1.253-0.482-0.288-0.322-0.449-0.761-0.484-1.316l0.869-0.218c0.042 0.869 0.332 1.303 0.868 1.303 0.434 0 0.652-0.216 0.652-0.651 0-0.129-0.017-0.248-0.053-0.358-0.035-0.11-0.088-0.211-0.161-0.302-0.072-0.091-0.138-0.164-0.197-0.22s-0.139-0.124-0.241-0.206l-1.085-0.868c-0.199-0.155-0.357-0.355-0.476-0.595s-0.179-0.515-0.179-0.822c0-0.448 0.139-0.804 0.418-1.069 0.278-0.265 0.646-0.397 1.106-0.397 0.492 0 0.884 0.12 1.175 0.361s0.47 0.582 0.537 1.023c0.007 0.048 0.015 0.112 0.024 0.196l-0.868 0.218c-0.002-0.038-0.008-0.096-0.017-0.172-0.038-0.277-0.125-0.498-0.259-0.664-0.135-0.167-0.332-0.25-0.592-0.25-0.208 0-0.369 0.060-0.482 0.175-0.113 0.117-0.17 0.279-0.17 0.487 0 0.341 0.144 0.628 0.434 0.858l1.086 0.868c0.579 0.468 0.868 1.028 0.868 1.679 0 0.446-0.137 0.794-0.412 1.045-0.275 0.25-0.644 0.376-1.108 0.376zM11.471 22.63c-0.202 0.070-0.434 0.105-0.699 0.105s-0.498-0.035-0.699-0.105c-0.2-0.070-0.366-0.168-0.497-0.294-0.129-0.125-0.235-0.283-0.317-0.472-0.081-0.19-0.139-0.396-0.172-0.616s-0.051-0.47-0.051-0.748v-3.907h0.868v3.907c0 0.188 0.004 0.345 0.012 0.471 0.008 0.128 0.029 0.262 0.062 0.405 0.035 0.143 0.081 0.258 0.141 0.345s0.144 0.156 0.254 0.213c0.109 0.057 0.242 0.085 0.399 0.085s0.289-0.028 0.398-0.085c0.11-0.057 0.195-0.127 0.255-0.213s0.107-0.202 0.141-0.345c0.033-0.144 0.054-0.278 0.062-0.405 0.008-0.126 0.011-0.283 0.011-0.471v-3.907h0.868v3.907c0 0.278-0.017 0.528-0.051 0.748s-0.091 0.426-0.172 0.616c-0.082 0.19-0.187 0.347-0.317 0.472s-0.296 0.223-0.496 0.294zM14.957 22.732c-0.278 0-0.519-0.040-0.724-0.119s-0.372-0.187-0.5-0.322c-0.13-0.136-0.233-0.309-0.309-0.519-0.077-0.211-0.13-0.432-0.16-0.665s-0.044-0.501-0.044-0.803v-1.54c0-1.488 0.59-2.232 1.771-2.232 0.283 0 0.528 0.043 0.735 0.127 0.208 0.085 0.377 0.208 0.506 0.372s0.226 0.353 0.292 0.572c0.065 0.218 0.104 0.47 0.115 0.757 0.002 0.042 0.003 0.103 0.003 0.187h-0.868v-0.183c-0.002-0.142-0.009-0.265-0.022-0.368-0.011-0.101-0.034-0.203-0.067-0.303s-0.077-0.181-0.134-0.242c-0.057-0.062-0.132-0.112-0.226-0.149s-0.204-0.057-0.333-0.057c-0.177 0-0.325 0.033-0.447 0.097-0.12 0.065-0.213 0.159-0.278 0.282s-0.11 0.259-0.138 0.407c-0.026 0.148-0.041 0.321-0.041 0.517v1.954c0 0.145 0.005 0.276 0.014 0.392 0.009 0.117 0.024 0.236 0.046 0.356s0.052 0.226 0.095 0.314c0.042 0.088 0.094 0.168 0.155 0.24 0.062 0.070 0.14 0.125 0.235 0.162 0.093 0.037 0.201 0.056 0.323 0.056 0.144 0 0.271-0.028 0.376-0.085 0.107-0.057 0.191-0.129 0.253-0.219s0.111-0.203 0.147-0.34c0.036-0.138 0.060-0.274 0.073-0.411 0.013-0.135 0.019-0.29 0.019-0.464v-0.218h-0.868v-0.644h1.736v3.032h-0.651l-0.218-0.652c-0.169 0.476-0.459 0.713-0.868 0.713zM18.319 20.5h0.869l-0.434-2.605-0.435 2.605zM17.017 22.671l1.302-6.078h0.869l1.302 6.078h-0.868l-0.325-1.52h-1.086l-0.325 1.52h-0.868zM21.846 19.197h0.218c0.361 0 0.632-0.076 0.814-0.229 0.18-0.153 0.271-0.402 0.271-0.748s-0.090-0.595-0.271-0.748c-0.182-0.153-0.453-0.23-0.814-0.23h-0.218v1.955zM20.978 22.671v-6.078h1.086c0.647 0 1.134 0.125 1.461 0.376s0.492 0.668 0.492 1.252c0 0.362-0.065 0.664-0.194 0.909s-0.317 0.412-0.566 0.502l0.977 3.039h-0.862l-0.874-2.823h-0.652v2.823h-0.868zM5.848 29.247v-6.078h1.346c0.636 0 1.084 0.13 1.345 0.391 0.261 0.259 0.392 0.708 0.392 1.346v2.387c0 0.668-0.133 1.16-0.399 1.477-0.266 0.318-0.714 0.477-1.345 0.477h-1.34zM6.716 28.595h0.478c0.143 0 0.265-0.013 0.367-0.038 0.101-0.026 0.184-0.074 0.247-0.143 0.064-0.069 0.113-0.134 0.149-0.196s0.062-0.159 0.076-0.291c0.015-0.131 0.023-0.238 0.026-0.323s0.003-0.216 0.003-0.396c0-0.059 0-0.103 0-0.132v-1.954c0-0.11 0-0.198-0.001-0.264s-0.005-0.144-0.011-0.233c-0.006-0.089-0.014-0.16-0.025-0.212s-0.028-0.111-0.048-0.175c-0.021-0.064-0.046-0.115-0.076-0.151s-0.069-0.074-0.113-0.113c-0.044-0.039-0.095-0.069-0.152-0.088-0.057-0.020-0.124-0.036-0.202-0.048-0.077-0.013-0.162-0.020-0.258-0.020h-0.461v4.776zM10.505 27.076h0.869l-0.434-2.605-0.435 2.605zM9.203 29.247l1.302-6.078h0.869l1.302 6.078h-0.868l-0.325-1.52h-1.086l-0.325 1.52h-0.868zM13.165 29.247v-6.078h1.346c0.636 0 1.084 0.13 1.345 0.391 0.261 0.259 0.392 0.708 0.392 1.346v2.387c0 0.668-0.133 1.16-0.399 1.477-0.266 0.318-0.714 0.477-1.345 0.477h-1.339zM14.033 28.595h0.478c0.143 0 0.265-0.013 0.367-0.038 0.101-0.026 0.184-0.074 0.247-0.143 0.064-0.069 0.113-0.134 0.149-0.196s0.062-0.159 0.076-0.291c0.015-0.131 0.023-0.238 0.026-0.323s0.003-0.216 0.003-0.396c0-0.059 0-0.103 0-0.132v-1.954c0-0.11 0-0.198-0.001-0.264s-0.005-0.144-0.011-0.233c-0.006-0.089-0.014-0.16-0.025-0.212s-0.028-0.111-0.048-0.175c-0.021-0.064-0.046-0.115-0.076-0.151s-0.069-0.074-0.113-0.113c-0.044-0.039-0.095-0.069-0.152-0.088-0.057-0.020-0.124-0.036-0.202-0.048-0.077-0.013-0.162-0.020-0.258-0.020h-0.461v4.776zM17.007 29.247v-6.078h1.346c0.636 0 1.084 0.13 1.345 0.391 0.261 0.259 0.392 0.708 0.392 1.346v2.387c0 0.668-0.133 1.16-0.399 1.477-0.266 0.318-0.714 0.477-1.345 0.477h-1.34zM17.875 28.595h0.478c0.143 0 0.265-0.013 0.367-0.038 0.101-0.026 0.184-0.074 0.247-0.143 0.064-0.069 0.113-0.134 0.149-0.196s0.062-0.159 0.076-0.291c0.015-0.131 0.023-0.238 0.026-0.323s0.003-0.216 0.003-0.396c0-0.059 0-0.103 0-0.132v-1.954c0-0.11 0-0.198-0.001-0.264s-0.005-0.144-0.011-0.233c-0.006-0.089-0.014-0.16-0.025-0.212s-0.028-0.111-0.048-0.175c-0.021-0.064-0.046-0.115-0.076-0.151s-0.069-0.074-0.113-0.113c-0.044-0.039-0.095-0.069-0.152-0.088-0.057-0.020-0.124-0.036-0.202-0.048-0.077-0.013-0.162-0.020-0.258-0.020h-0.461v4.776zM21.637 29.247v-1.955l-1.302-4.124h0.868l0.868 3.039 0.869-3.039h0.868l-1.303 4.124v1.955h-0.868z"></path>
<path fill="#201e1e" d="M7.832 9.579c-0.546 0-0.964-0.161-1.253-0.482-0.288-0.322-0.449-0.761-0.484-1.316l0.869-0.218c0.042 0.869 0.332 1.303 0.868 1.303 0.434 0 0.652-0.216 0.652-0.651 0-0.129-0.017-0.248-0.053-0.358-0.035-0.11-0.088-0.211-0.161-0.302-0.072-0.091-0.138-0.164-0.197-0.22s-0.139-0.124-0.241-0.206l-1.085-0.868c-0.199-0.155-0.357-0.354-0.476-0.595s-0.179-0.515-0.179-0.822c0-0.448 0.139-0.804 0.418-1.069 0.278-0.265 0.646-0.397 1.106-0.397 0.492 0 0.884 0.12 1.175 0.361s0.47 0.582 0.537 1.023c0.007 0.048 0.015 0.112 0.024 0.196l-0.868 0.218c-0.002-0.038-0.008-0.096-0.017-0.172-0.038-0.277-0.125-0.498-0.259-0.664-0.135-0.167-0.332-0.25-0.592-0.25-0.208 0-0.369 0.060-0.482 0.175-0.113 0.117-0.17 0.279-0.17 0.487 0 0.341 0.144 0.628 0.434 0.858l1.086 0.868c0.579 0.468 0.868 1.028 0.868 1.679 0 0.446-0.137 0.794-0.412 1.045-0.275 0.25-0.644 0.376-1.108 0.376zM10.909 7.346h0.869l-0.434-2.605-0.435 2.605zM9.607 9.517l1.302-6.078h0.869l1.302 6.078h-0.868l-0.325-1.52h-1.086l-0.325 1.52h-0.868zM14.047 9.517v-5.305h-1.086v-0.774h3.039v0.774h-1.085v5.305h-0.869zM17.265 7.346h0.869l-0.434-2.605-0.435 2.605zM15.963 9.517l1.302-6.078h0.869l1.302 6.078h-0.868l-0.325-1.52h-1.086l-0.325 1.52h-0.868zM19.925 9.517v-6.078h0.652l1.519 3.758v-3.758h0.868v6.078h-0.617l-1.554-4.043v4.043h-0.868zM7.364 16.094v-6.078h0.868v6.078h-0.868zM10.746 16.155c-0.546 0-0.964-0.161-1.253-0.482-0.288-0.322-0.449-0.761-0.484-1.316l0.869-0.218c0.042 0.869 0.332 1.303 0.868 1.303 0.434 0 0.652-0.216 0.652-0.651 0-0.129-0.017-0.248-0.053-0.358-0.035-0.11-0.088-0.211-0.161-0.302-0.072-0.091-0.138-0.164-0.197-0.22s-0.139-0.124-0.241-0.206l-1.085-0.868c-0.199-0.155-0.357-0.354-0.476-0.595s-0.179-0.515-0.179-0.822c0-0.448 0.139-0.804 0.418-1.069 0.278-0.265 0.646-0.397 1.106-0.397 0.492 0 0.884 0.12 1.175 0.361s0.47 0.582 0.537 1.023c0.007 0.048 0.015 0.112 0.024 0.196l-0.868 0.218c-0.002-0.038-0.008-0.096-0.017-0.172-0.038-0.277-0.125-0.498-0.259-0.664-0.135-0.167-0.332-0.25-0.592-0.25-0.208 0-0.369 0.060-0.482 0.175-0.113 0.117-0.17 0.279-0.17 0.487 0 0.341 0.144 0.628 0.434 0.858l1.086 0.868c0.579 0.468 0.868 1.028 0.868 1.679 0 0.446-0.137 0.794-0.412 1.045-0.275 0.25-0.644 0.376-1.108 0.376zM14.311 16.094v-6.078h1.201l0.861 4.654 0.861-4.654h1.201v6.078h-0.868v-4.797l-0.868 4.797h-0.652l-0.869-4.797v4.797h-0.868zM20.162 16.094v-1.955l-1.302-4.124h0.868l0.868 3.039 0.869-3.039h0.868l-1.303 4.124v1.955h-0.868zM6.928 22.732c-0.546 0-0.964-0.161-1.253-0.482-0.288-0.322-0.449-0.761-0.484-1.316l0.869-0.218c0.042 0.869 0.332 1.303 0.868 1.303 0.434 0 0.652-0.216 0.652-0.651 0-0.129-0.017-0.248-0.053-0.358-0.035-0.11-0.088-0.211-0.161-0.302-0.072-0.091-0.138-0.164-0.197-0.22s-0.139-0.124-0.241-0.206l-1.085-0.868c-0.199-0.155-0.357-0.355-0.476-0.595s-0.179-0.515-0.179-0.822c0-0.448 0.139-0.804 0.418-1.069 0.278-0.265 0.646-0.397 1.106-0.397 0.492 0 0.884 0.12 1.175 0.361s0.47 0.582 0.537 1.023c0.007 0.048 0.015 0.112 0.024 0.196l-0.868 0.218c-0.002-0.038-0.008-0.096-0.017-0.172-0.038-0.277-0.125-0.498-0.259-0.664-0.135-0.167-0.332-0.25-0.592-0.25-0.208 0-0.369 0.060-0.482 0.175-0.113 0.117-0.17 0.279-0.17 0.487 0 0.341 0.144 0.628 0.434 0.858l1.086 0.868c0.579 0.468 0.868 1.028 0.868 1.679 0 0.446-0.137 0.794-0.412 1.045-0.275 0.25-0.644 0.376-1.108 0.376zM11.471 22.63c-0.202 0.070-0.434 0.105-0.699 0.105s-0.498-0.035-0.699-0.105c-0.2-0.070-0.366-0.168-0.497-0.294-0.129-0.125-0.235-0.283-0.317-0.472-0.081-0.19-0.139-0.396-0.172-0.616s-0.051-0.47-0.051-0.748v-3.907h0.868v3.907c0 0.188 0.004 0.345 0.012 0.471 0.008 0.128 0.029 0.262 0.062 0.405 0.035 0.143 0.081 0.258 0.141 0.345s0.144 0.156 0.254 0.213c0.109 0.057 0.242 0.085 0.399 0.085s0.289-0.028 0.398-0.085c0.11-0.057 0.195-0.127 0.255-0.213s0.107-0.202 0.141-0.345c0.033-0.144 0.054-0.278 0.062-0.405 0.008-0.126 0.011-0.283 0.011-0.471v-3.907h0.868v3.907c0 0.278-0.017 0.528-0.051 0.748s-0.091 0.426-0.172 0.616c-0.082 0.19-0.187 0.347-0.317 0.472s-0.296 0.223-0.496 0.294zM14.957 22.732c-0.278 0-0.519-0.040-0.724-0.119s-0.372-0.187-0.5-0.322c-0.13-0.136-0.233-0.309-0.309-0.519-0.077-0.211-0.13-0.432-0.16-0.665s-0.044-0.501-0.044-0.803v-1.54c0-1.488 0.59-2.232 1.771-2.232 0.283 0 0.528 0.043 0.735 0.127 0.208 0.085 0.377 0.208 0.506 0.372s0.226 0.353 0.292 0.572c0.065 0.218 0.104 0.47 0.115 0.757 0.002 0.042 0.003 0.103 0.003 0.187h-0.868v-0.183c-0.002-0.142-0.009-0.265-0.022-0.368-0.011-0.101-0.034-0.203-0.067-0.303s-0.077-0.181-0.134-0.242c-0.057-0.062-0.132-0.112-0.226-0.149s-0.204-0.057-0.333-0.057c-0.177 0-0.325 0.033-0.447 0.097-0.12 0.065-0.213 0.159-0.278 0.282s-0.11 0.259-0.138 0.407c-0.026 0.148-0.041 0.321-0.041 0.517v1.954c0 0.145 0.005 0.276 0.014 0.392 0.009 0.117 0.024 0.236 0.046 0.356s0.052 0.226 0.095 0.314c0.042 0.088 0.094 0.168 0.155 0.24 0.062 0.070 0.14 0.125 0.235 0.162 0.093 0.037 0.201 0.056 0.323 0.056 0.144 0 0.271-0.028 0.376-0.085 0.107-0.057 0.191-0.129 0.253-0.219s0.111-0.203 0.147-0.34c0.036-0.138 0.060-0.274 0.073-0.411 0.013-0.135 0.019-0.29 0.019-0.464v-0.218h-0.868v-0.644h1.736v3.032h-0.651l-0.218-0.652c-0.169 0.476-0.459 0.713-0.868 0.713zM18.319 20.5h0.869l-0.434-2.605-0.435 2.605zM17.017 22.671l1.302-6.078h0.869l1.302 6.078h-0.868l-0.325-1.52h-1.086l-0.325 1.52h-0.868zM21.846 19.197h0.218c0.361 0 0.632-0.076 0.814-0.229 0.18-0.153 0.271-0.402 0.271-0.748s-0.090-0.595-0.271-0.748c-0.182-0.153-0.453-0.23-0.814-0.23h-0.218v1.955zM20.978 22.671v-6.078h1.086c0.647 0 1.134 0.125 1.461 0.376s0.492 0.668 0.492 1.252c0 0.362-0.065 0.664-0.194 0.909s-0.317 0.412-0.566 0.502l0.977 3.039h-0.862l-0.874-2.823h-0.652v2.823h-0.868zM5.848 29.247v-6.078h1.346c0.636 0 1.084 0.13 1.345 0.391 0.261 0.259 0.392 0.708 0.392 1.346v2.387c0 0.668-0.133 1.16-0.399 1.477-0.266 0.318-0.714 0.477-1.345 0.477h-1.34zM6.716 28.595h0.478c0.143 0 0.265-0.013 0.367-0.038 0.101-0.026 0.184-0.074 0.247-0.143 0.064-0.069 0.113-0.134 0.149-0.196s0.062-0.159 0.076-0.291c0.015-0.131 0.023-0.238 0.026-0.323s0.003-0.216 0.003-0.396c0-0.059 0-0.103 0-0.132v-1.954c0-0.11 0-0.198-0.001-0.264s-0.005-0.144-0.011-0.233c-0.006-0.089-0.014-0.16-0.025-0.212s-0.028-0.111-0.048-0.175c-0.021-0.064-0.046-0.115-0.076-0.151s-0.069-0.074-0.113-0.113c-0.044-0.039-0.095-0.069-0.152-0.088-0.057-0.020-0.124-0.036-0.202-0.048-0.077-0.013-0.162-0.020-0.258-0.020h-0.461v4.776zM10.505 27.076h0.869l-0.434-2.605-0.435 2.605zM9.203 29.247l1.302-6.078h0.869l1.302 6.078h-0.868l-0.325-1.52h-1.086l-0.325 1.52h-0.868zM13.165 29.247v-6.078h1.346c0.636 0 1.084 0.13 1.345 0.391 0.261 0.259 0.392 0.708 0.392 1.346v2.387c0 0.668-0.133 1.16-0.399 1.477-0.266 0.318-0.714 0.477-1.345 0.477h-1.339zM14.033 28.595h0.478c0.143 0 0.265-0.013 0.367-0.038 0.101-0.026 0.184-0.074 0.247-0.143 0.064-0.069 0.113-0.134 0.149-0.196s0.062-0.159 0.076-0.291c0.015-0.131 0.023-0.238 0.026-0.323s0.003-0.216 0.003-0.396c0-0.059 0-0.103 0-0.132v-1.954c0-0.11 0-0.198-0.001-0.264s-0.005-0.144-0.011-0.233c-0.006-0.089-0.014-0.16-0.025-0.212s-0.028-0.111-0.048-0.175c-0.021-0.064-0.046-0.115-0.076-0.151s-0.069-0.074-0.113-0.113c-0.044-0.039-0.095-0.069-0.152-0.088-0.057-0.020-0.124-0.036-0.202-0.048-0.077-0.013-0.162-0.020-0.258-0.020h-0.461v4.776zM17.007 29.247v-6.078h1.346c0.636 0 1.084 0.13 1.345 0.391 0.261 0.259 0.392 0.708 0.392 1.346v2.387c0 0.668-0.133 1.16-0.399 1.477-0.266 0.318-0.714 0.477-1.345 0.477h-1.34zM17.875 28.595h0.478c0.143 0 0.265-0.013 0.367-0.038 0.101-0.026 0.184-0.074 0.247-0.143 0.064-0.069 0.113-0.134 0.149-0.196s0.062-0.159 0.076-0.291c0.015-0.131 0.023-0.238 0.026-0.323s0.003-0.216 0.003-0.396c0-0.059 0-0.103 0-0.132v-1.954c0-0.11 0-0.198-0.001-0.264s-0.005-0.144-0.011-0.233c-0.006-0.089-0.014-0.16-0.025-0.212s-0.028-0.111-0.048-0.175c-0.021-0.064-0.046-0.115-0.076-0.151s-0.069-0.074-0.113-0.113c-0.044-0.039-0.095-0.069-0.152-0.088-0.057-0.020-0.124-0.036-0.202-0.048-0.077-0.013-0.162-0.020-0.258-0.020h-0.461v4.776zM21.637 29.247v-1.955l-1.302-4.124h0.868l0.868 3.039 0.869-3.039h0.868l-1.303 4.124v1.955h-0.868z"></path>
</svg>
