<?xml version="1.0" encoding="UTF-8"?>
<!DOCTYPE svg PUBLIC "-//W3C//DTD SVG 1.1//EN" "http://www.w3.org/Graphics/SVG/1.1/DTD/svg11.dtd">
<!-- Creator: CorelDRAW 2017 -->
<svg xmlns="http://www.w3.org/2000/svg" xml:space="preserve" width="39.226mm" height="30.19mm" version="1.1" style="shape-rendering:geometricPrecision; text-rendering:geometricPrecision; image-rendering:optimizeQuality; fill-rule:evenodd; clip-rule:evenodd"
viewBox="0 0 3922.6 3019"
 xmlns:xlink="http://www.w3.org/1999/xlink">
 <defs>
  <style type="text/css">
   <![CDATA[
    .str1 {stroke:#FEFEFE;stroke-width:8.82;stroke-miterlimit:10}
    .str0 {stroke:#7A3E35;stroke-width:105.83;stroke-linecap:round;stroke-linejoin:round;stroke-miterlimit:10}
    .fil0 {fill:none}
    .fil9 {fill:none;fill-rule:nonzero}
    .fil10 {fill:#FEFEFE;fill-rule:nonzero}
    .fil8 {fill:#EF4448;fill-rule:nonzero}
    .fil4 {fill:#7A3E35;fill-rule:nonzero}
    .fil3 {fill:#6D3931;fill-rule:nonzero}
    .fil6 {fill:url(#id0)}
    .fil2 {fill:url(#id1)}
    .fil1 {fill:url(#id2)}
    .fil11 {fill:url(#id3)}
    .fil12 {fill:url(#id4)}
    .fil7 {fill:url(#id5)}
    .fil5 {fill:url(#id6)}
   ]]>
  </style>
  <radialGradient id="id0" gradientUnits="userSpaceOnUse" gradientTransform="matrix(-0.0912903 5.69652 5.69651 0.0912902 -3048 -10839)" cx="2050.75" cy="927.9" r="672.84" fx="2050.75" fy="927.9">
   <stop offset="0" style="stop-opacity:1; stop-color:#F8ED3F"/>
   <stop offset="0.109804" style="stop-opacity:1; stop-color:#F8ED3F"/>
   <stop offset="1" style="stop-opacity:1; stop-color:#F79633"/>
  </radialGradient>
  <radialGradient id="id1" gradientUnits="userSpaceOnUse" gradientTransform="matrix(-0.215666 2.78096 2.78096 0.215666 -1628 -4341)" xlink:href="#id0" cx="1968.92" cy="1446.01" r="721.51" fx="1968.92" fy="1446.01">
  </radialGradient>
  <radialGradient id="id2" gradientUnits="userSpaceOnUse" gradientTransform="matrix(-0.0840424 5.24424 5.24428 0.0840429 -2653 -9930)" xlink:href="#id0" cx="2056.07" cy="930.89" r="730.86" fx="2056.07" fy="930.89">
  </radialGradient>
  <radialGradient id="id3" gradientUnits="userSpaceOnUse" gradientTransform="matrix(-5.11505 449.272 449.272 5.11505 1.69748E+06 -955841)" xlink:href="#id0" cx="2161.87" cy="-3748.87" r="14.41" fx="2161.87" fy="-3748.87">
  </radialGradient>
  <radialGradient id="id4" gradientUnits="userSpaceOnUse" gradientTransform="matrix(-5.11505 449.272 449.862 5.12177 1.69972E+06 -955761)" xlink:href="#id0" cx="2161.75" cy="-3748.93" r="14.41" fx="2161.75" fy="-3748.93">
  </radialGradient>
  <radialGradient id="id5" gradientUnits="userSpaceOnUse" gradientTransform="matrix(0.0862746 1.4353 1.4353 -0.0862752 -1015 -642)" xlink:href="#id0" cx="1896.52" cy="1914.62" r="1566.29" fx="1896.52" fy="1914.62">
  </radialGradient>
  <radialGradient id="id6" gradientUnits="userSpaceOnUse" gradientTransform="matrix(-0.236375 3.04799 3.04801 0.236377 -1982 -4871)" xlink:href="#id0" cx="1960.07" cy="1445.23" r="658.3" fx="1960.07" fy="1445.23">
  </radialGradient>
 </defs>
 <g id="Capa_x0020_6">
  <metadata id="CorelCorpID_0Corel-Layer"/>
  <rect class="fil0" width="3922.6" height="3019"/>
  <g id="_2924095871056">
   <path class="fil1" d="M3843.25 825.01c-54.53,-130.37 -111.55,-258.61 -181.81,-376.49l0 0c-255.9,286.81 -524.2,536.49 -774.78,839.29l0 0c-111.58,131.27 -209.1,273.11 -301.99,417.94l0 0 339.02 204.48c511.81,-122.49 794.58,-628.16 919.56,-1085.22l0 0z"/>
   <path class="fil2" d="M2886.66 1287.81c250.58,-302.8 518.88,-552.48 774.78,-839.29 -39.11,-65.62 -82.28,-128.08 -131.52,-185.79 -434.92,440.63 -1122.2,1336.28 -1122.2,1336.28l0 0 176.95 106.74c92.89,-144.83 190.41,-286.67 301.99,-417.94l0 0z"/>
   <path class="fil3" d="M3910.22 131.67c-10.98,-56.9 -28.97,-94.2 -52.91,-105.08 -47.6,-21.64 -171.25,77.94 -327.39,236.15 49.25,57.71 92.4,120.15 131.53,185.79 45.18,-50.65 90.03,-102.31 134.28,-155.78 42.14,-54.18 78.37,-108.34 114.49,-161.08z"/>
   <path class="fil4" d="M3795.72 292.75c-44.25,53.46 -89.09,105.13 -134.28,155.77 70.26,117.87 127.28,246.11 181.81,376.49 77.9,-284.89 94.47,-550.81 66.97,-693.34 -36.12,52.73 -72.36,106.89 -114.5,161.08z"/>
   <path class="fil4" d="M290.18 1336.57c13.64,-261.66 65.16,-518.56 138.82,-772 -133.52,-114.47 -276.06,-213.78 -428.91,-293.23 -3.38,268.27 79.74,705.75 290.09,1065.23z"/>
   <path class="fil3" d="M65.29 26.58c-40.07,18.22 -63.5,110.24 -65.2,244.76 152.85,79.45 295.39,178.76 428.91,293.22 19.33,-66.54 40.11,-132.85 62.23,-198.94 -201.48,-215.74 -368.71,-365.06 -425.94,-339.04z"/>
   <path class="fil5" d="M1514.87 1599.01c0,0 -590.9,-770.06 -1023.63,-1233.39 -22.12,66.09 -42.9,132.4 -62.23,198.94 229.33,196.61 432.17,437.58 614.95,698.67l0 0c103.83,155.75 216.66,289.09 332.99,418.98l0 0 137.92 -83.2z"/>
   <path class="fil6" d="M1376.95 1682.21c-116.33,-129.89 -229.16,-263.23 -332.99,-418.98l0 0c-182.78,-261.09 -385.62,-502.06 -614.95,-698.67 -73.66,253.45 -125.2,510.34 -138.83,772.01 158.37,270.64 388.75,497.08 708.75,573.66l0 0 378.02 -228.02z"/>
   <path class="fil7" d="M3525.46 2995.37c0,-865.04 -701.24,-1566.29 -1566.28,-1566.29 -865.05,0 -1566.3,701.25 -1566.3,1566.29l3132.58 0z"/>
   <path class="fil4" d="M1552.08 2244.18c-71.19,123.31 -199.49,182.52 -286.56,132.25 -87.07,-50.28 -99.95,-190.99 -28.76,-314.3 71.19,-123.31 199.49,-182.51 286.56,-132.23 87.08,50.26 99.95,190.98 28.76,314.28z"/>
   <path class="fil4" d="M2731.39 2053.2c79.55,118.09 76.43,259.35 -6.96,315.53 -83.38,56.18 -215.47,5.99 -295.02,-112.09 -79.55,-118.1 -76.44,-259.37 6.95,-315.53 83.39,-56.18 215.47,-6 295.03,112.09z"/>
   <path class="fil8" d="M902.53 2442.2c-196.06,0 -369.96,94.54 -478.55,240.69 -20.37,100.81 -31.1,201.19 -31.1,311.75l1103.75 0c-22.07,-307.12 -279.53,-552.44 -594.1,-552.44z"/>
   <path class="fil8" d="M3013.93 2442.2c196.07,0 369.97,94.54 478.55,240.69 20.37,100.81 31.11,201.19 31.11,311.75l-1103.75 0c22.06,-307.12 279.52,-552.44 594.09,-552.44z"/>
   <path class="fil9 str0" d="M1882.4 2747.42c0,0 325.54,0.75 354.33,-182.01"/>
   <path class="fil4" d="M2059.56 2459.24c0,22.77 -31.17,41.24 -69.64,41.24 -38.48,0 -69.65,-18.47 -69.65,-41.24 0,-22.78 31.17,-41.24 69.65,-41.24 38.47,0 69.64,18.46 69.64,41.24z"/>
   <path class="fil10" d="M1583.55 2031.69c0,65.73 -53.27,119.02 -119.01,119.02 -65.72,0 -119,-53.29 -119,-119.02 0,-65.72 53.28,-119.01 119,-119.01 65.74,0 119.01,53.29 119.01,119.01z"/>
   <path class="fil10" d="M2621.28 2038.94c0,65.72 -53.28,119.01 -119.02,119.01 -65.72,0 -119,-53.29 -119,-119.01 0,-65.73 53.28,-119.02 119,-119.02 65.74,0 119.02,53.29 119.02,119.02z"/>
   <path class="fil10" d="M874.28 1325.03c0,-11.24 -9.11,-20.35 -20.35,-20.35 -11.25,0 -20.37,9.11 -20.37,20.35 0,11.24 9.12,20.36 20.37,20.36 11.24,0 20.35,-9.12 20.35,-20.36z"/>
   <path class="fil9 str1" d="M874.28 1325.03c0,-11.24 -9.11,-20.35 -20.35,-20.35 -11.25,0 -20.37,9.11 -20.37,20.35 0,11.24 9.12,20.36 20.37,20.36 11.24,0 20.35,-9.12 20.35,-20.36z"/>
   <path class="fil10" d="M937.24 2162.46c0,-3.55 -2.87,-6.42 -6.42,-6.42 -3.55,0 -6.43,2.87 -6.43,6.42 0,3.55 2.88,6.43 6.43,6.43 3.55,0 6.42,-2.88 6.42,-6.43z"/>
   <path class="fil9 str1" d="M937.24 2162.46c0,-3.55 -2.87,-6.42 -6.42,-6.42 -3.55,0 -6.43,2.87 -6.43,6.42 0,3.55 2.88,6.43 6.43,6.43 3.55,0 6.42,-2.88 6.42,-6.43z"/>
   <path class="fil10" d="M3041.01 2102.69c0,-3.55 -2.88,-6.43 -6.43,-6.43 -3.55,0 -6.42,2.88 -6.42,6.43 0,3.55 2.87,6.42 6.42,6.42 3.55,0 6.43,-2.87 6.43,-6.42z"/>
   <path class="fil9 str1" d="M3041.01 2102.69c0,-3.55 -2.88,-6.43 -6.43,-6.43 -3.55,0 -6.42,2.88 -6.42,6.43 0,3.55 2.87,6.42 6.42,6.42 3.55,0 6.43,-2.87 6.43,-6.42z"/>
   <path class="fil10" d="M3386.8 1390.18c0,-3.55 -2.87,-6.43 -6.42,-6.43 -3.55,0 -6.42,2.88 -6.42,6.43 0,3.55 2.87,6.42 6.42,6.42 3.55,0 6.42,-2.87 6.42,-6.42z"/>
   <path class="fil9 str1" d="M3386.8 1390.18c0,-3.55 -2.87,-6.43 -6.42,-6.43 -3.55,0 -6.42,2.88 -6.42,6.43 0,3.55 2.87,6.42 6.42,6.42 3.55,0 6.42,-2.87 6.42,-6.42z"/>
   <path class="fil10" d="M337.88 1304.67c0,-3.55 -2.87,-6.43 -6.42,-6.43 -3.55,0 -6.43,2.88 -6.43,6.43 0,3.55 2.88,6.43 6.43,6.43 3.55,0 6.42,-2.88 6.42,-6.43z"/>
   <path class="fil9 str1" d="M337.88 1304.67c0,-3.55 -2.87,-6.43 -6.42,-6.43 -3.55,0 -6.43,2.88 -6.43,6.43 0,3.55 2.88,6.43 6.43,6.43 3.55,0 6.42,-2.88 6.42,-6.43z"/>
   <path class="fil10" d="M3792.03 188.62c0,-3.56 -2.88,-6.43 -6.43,-6.43 -3.55,0 -6.42,2.87 -6.42,6.43 0,3.54 2.87,6.42 6.42,6.42 3.55,0 6.43,-2.88 6.43,-6.42z"/>
   <path class="fil9 str1" d="M3792.03 188.62c0,-3.56 -2.88,-6.43 -6.43,-6.43 -3.55,0 -6.42,2.87 -6.42,6.43 0,3.54 2.87,6.42 6.42,6.42 3.55,0 6.43,-2.88 6.43,-6.42z"/>
   <path class="fil10" d="M2018.76 1587.64c0,-11.24 -9.11,-20.36 -20.35,-20.36 -11.26,0 -20.37,9.12 -20.37,20.36 0,11.24 9.11,20.36 20.37,20.36 11.24,0 20.35,-9.12 20.35,-20.36z"/>
   <path class="fil9 str1" d="M2018.76 1587.64c0,-11.24 -9.11,-20.36 -20.35,-20.36 -11.26,0 -20.37,9.12 -20.37,20.36 0,11.24 9.11,20.36 20.37,20.36 11.24,0 20.35,-9.12 20.35,-20.36z"/>
   <polygon class="fil11" points="587.94,1939.05 597.06,1939.05 597.06,1910.23 587.94,1910.23 "/>
   <polygon class="fil12" points="606.91,1920.83 578.09,1920.83 578.09,1928.44 606.91,1928.44 "/>
  </g>
 </g>
</svg>
