<?xml version="1.0" encoding="UTF-8"?>
<!DOCTYPE svg PUBLIC "-//W3C//DTD SVG 1.1//EN" "http://www.w3.org/Graphics/SVG/1.1/DTD/svg11.dtd">
<!-- Creator: CorelDRAW 2017 -->
<svg xmlns="http://www.w3.org/2000/svg" xml:space="preserve" width="14.3932mm" height="14.3932mm" version="1.1" style="shape-rendering:geometricPrecision; text-rendering:geometricPrecision; image-rendering:optimizeQuality; fill-rule:evenodd; clip-rule:evenodd"
viewBox="0 0 1439.32 1439.32"
 xmlns:xlink="http://www.w3.org/1999/xlink">
 <defs>
  <style type="text/css">
   <![CDATA[
    .fil0 {fill:none}
    .fil1 {fill:#373435}
   ]]>
  </style>
 </defs>
 <g id="Capa_x0020_1">
  <metadata id="CorelCorpID_0Corel-Layer"/>
  <rect class="fil0" x="-0" y="-0" width="1439.33" height="1439.33"/>
  <path class="fil1" d="M968.97 605.49c-11.02,-80.72 -13.69,-56.26 -60.94,-84.5l-34.21 84.37 95.15 0.13zm-333.51 -432.58c324.13,-58.33 586.04,174.34 633.92,445.74 132.48,750.85 -987.78,896.32 -1097.72,194.28 -54.29,-346.68 180.94,-589.11 463.8,-640.02zm-1.84 -62.45c-835.77,138.47 -609.51,1341.62 181.65,1219.5 812.83,-125.46 609.15,-1350.52 -181.65,-1219.5zm374.43 750.79c-106.66,29.61 -155.36,103.16 -301.18,102.56 -142.48,-0.58 -195.38,-86.71 -292.01,-96.76 130.25,304.47 539.11,225.34 593.19,-5.8zm-529.26 -155.03c124.66,28.99 103.51,-106.19 68.25,-187.99 -60.68,-1.65 -87.22,-12.53 -102.86,60.05 -15.56,72.21 7.12,97.12 34.61,127.94zm490.18 -100.73l-95.15 -0.13 34.21 -84.37c-51.29,-12.91 -71.96,17.88 -77.22,78.5 -7.25,83.36 21.7,102.07 77.12,117.56 57.1,-35.11 50.65,-23.82 61.04,-111.56zm-103.55 -188.95c48.59,31.41 106.09,35.95 166.58,47.16 -135.4,-165.14 -164.61,-48.83 -166.58,-47.16zm-489.98 71.76l195.87 -71.76c-62.19,-97.54 -119.58,17.74 -195.87,71.76z"/>
 </g>
</svg>
