<?xml version="1.0" encoding="UTF-8"?>
<!DOCTYPE svg PUBLIC "-//W3C//DTD SVG 1.1//EN" "http://www.w3.org/Graphics/SVG/1.1/DTD/svg11.dtd">
<!-- Creator: CorelDRAW 2017 -->
<svg xmlns="http://www.w3.org/2000/svg" xml:space="preserve" width="14.3932mm" height="14.3932mm" version="1.1" style="shape-rendering:geometricPrecision; text-rendering:geometricPrecision; image-rendering:optimizeQuality; fill-rule:evenodd; clip-rule:evenodd"
viewBox="0 0 1439.32 1439.32"
 xmlns:xlink="http://www.w3.org/1999/xlink">
 <defs>
  <style type="text/css">
   <![CDATA[
    .fil0 {fill:none}
    .fil1 {fill:#373435}
    .fil2 {fill:#A9D6D7}
   ]]>
  </style>
 </defs>
 <g id="Capa_x0020_1">
  <metadata id="CorelCorpID_0Corel-Layer"/>
  <g id="_1893620024880">
   <rect class="fil0" x="-0.02" y="0" width="1439.33" height="1439.33"/>
   <path class="fil1" d="M632.37 577.55c11.24,9.59 -16.07,15.61 55.35,30.48l45.55 -72.58 -27.8 -15.66c-51.17,-7.36 16.86,-5.08 -39.39,-0.94l-33.71 58.7zm-72.91 74.72c3.23,-4.21 30.66,22.62 20.42,-48.72 -11.55,-80.52 -32.55,-48.14 -47.41,-57.99 -64.01,26.32 -20.52,-7.65 -42.33,52.08l58.02 -2 11.3 56.63zm76.67 -479.55c705.95,-122.7 912.1,965.18 179.11,1094.62 -707.76,124.98 -935.59,-963.14 -179.11,-1094.62zm-2.39 -63.28c-813.26,117.85 -636.24,1347.74 186.61,1219.01 786.5,-123.04 624.71,-1336.58 -186.61,-1219.01zm76.3 894.63c-101.65,123.29 -8.16,243.38 109.35,190.27 87.62,-39.61 97.24,-232.63 -109.35,-190.27zm-77.67 -426.52c-0.19,94.56 -9.98,100.67 55.35,145.66 114.34,-33.6 95,-125.29 45.55,-187.76l-45.55 72.58c-71.42,-14.87 -44.11,-20.89 -55.35,-30.48zm-72.91 74.72l-11.3 -56.63 -58.02 2c21.81,-59.73 -21.68,-25.76 42.33,-52.08 -16.02,-20.94 27.79,-34.33 -52.92,-17.2 -62.12,66.55 -69.65,196.42 68.25,187.07l11.66 -63.16zm72.62 -197.88c27.48,47.6 126.09,52.9 180.78,64.73 -20.34,-23.8 -38.86,-50.88 -79.83,-69.98 -76.9,-35.86 -69.2,-33.18 -100.95,5.25zm-234.14 64.39c75.68,-16.77 127.16,-20.85 175.05,-61.99 -0.22,-0.17 -6.06,-86.27 -131.1,14.63 -45.08,36.39 -23.42,20.96 -43.95,47.36z"/>
   <path class="fil2" d="M785.84 672.91c-5.34,72.87 -25.13,205.17 40.88,252.4 138.41,99.03 339.46,-172.43 -40.88,-252.4z"/>
  </g>
 </g>
</svg>
