<?xml version="1.0" encoding="UTF-8"?>
<!DOCTYPE svg PUBLIC "-//W3C//DTD SVG 1.1//EN" "http://www.w3.org/Graphics/SVG/1.1/DTD/svg11.dtd">
<!-- Creator: CorelDRAW 2017 -->
<svg xmlns="http://www.w3.org/2000/svg" xml:space="preserve" width="14.3932mm" height="14.3932mm" version="1.1" style="shape-rendering:geometricPrecision; text-rendering:geometricPrecision; image-rendering:optimizeQuality; fill-rule:evenodd; clip-rule:evenodd"
viewBox="0 0 1439.32 1439.32"
 xmlns:xlink="http://www.w3.org/1999/xlink">
 <defs>
  <style type="text/css">
   <![CDATA[
    .fil2 {fill:#242424}
    .fil0 {fill:#525151}
    .fil1 {fill:#A9D6D7}
   ]]>
  </style>
 </defs>
 <g id="Capa_x0020_1">
  <metadata id="CorelCorpID_0Corel-Layer"/>
  <g id="_1893616568528">
   <path class="fil0" d="M628.32 574.61c-24,-56.99 -24.58,-38.64 -42.05,-55.17 -22.99,28.69 -36.09,39.6 -32.43,77.88l74.48 -22.71z"/>
   <path class="fil0" d="M945.07 591.02l-20.75 -43.74c-79.52,-2.37 -36.5,0.39 -60.44,20.62 34.55,53.06 2.59,36.24 81.19,23.12z"/>
   <path class="fil1" d="M507.87 688.54l-7.09 -132.76c-31.16,41.23 1.71,-40.23 -30.23,50.13 -5.57,15.72 -6.29,36.2 -6.87,43.79 -120.86,-40.7 -196.63,-14.52 -142.28,117.85 108.8,23.09 57.83,22.21 148.31,-53.18l38.16 -25.83z"/>
   <path class="fil1" d="M927.24 704.52c113.11,2.33 34.55,113.79 194.87,58.67 34.89,-77.45 27.47,-29.86 8.5,-117.38 -78.33,-25.43 -86.74,-10.59 -171.16,1.69l-14.38 -56.48 -17.83 113.5z"/>
   <path class="fil2" d="M598.07 175.97c724.17,-165.7 944.31,939.84 239.06,1086.81 -331.61,69.11 -606.15,-153.71 -664.31,-423.63 -72.79,-337.81 153.59,-601.01 425.25,-663.18zm-25.43 -53.24c-811.94,215.48 -484.05,1390.36 300.02,1193.06 281.49,-70.83 544.39,-368.81 442.77,-757.3 -72.47,-277.08 -371.77,-534.22 -742.79,-435.76z"/>
   <path class="fil2" d="M370.65 1011.77c349.09,-69.32 353.09,-78.41 703.9,1.93 -22.52,-44.04 -12.03,-60.37 -148.04,-106.09 -55.79,-18.75 -133.74,-31.05 -201.62,-31.34 -118.04,-0.51 -289.15,23.92 -354.24,135.5z"/>
   <path class="fil2" d="M500.78 555.78l7.09 132.76c108.46,81.6 117.21,-19.63 120.45,-113.93l-74.48 22.71c-3.66,-38.28 9.44,-49.19 32.43,-77.88 -61.48,-6.57 -52.59,-4.57 -85.49,36.34z"/>
   <path class="fil2" d="M927.24 704.52l17.83 -113.5c-78.6,13.12 -46.64,29.94 -81.19,-23.12 23.94,-20.23 -19.08,-22.99 60.44,-20.62l-36.39 -37.15c-106.78,49.12 -79.88,119.79 -48.11,203.66l87.42 -9.27z"/>
   <path class="fil2" d="M857.54 419.33c43.42,83.24 99.97,90.25 137.34,159.34 -16.35,-68.78 -53.15,-195.59 -137.34,-159.34z"/>
   <path class="fil2" d="M448.48 567.53c38.79,-47.7 97.43,-97.24 135.13,-137.98 -58.44,-24.63 -54.76,-25.49 -90.15,27.11 -24.99,37.13 -34.77,67.19 -44.98,110.87z"/>
  </g>
 </g>
</svg>
