<?xml version="1.0" encoding="UTF-8"?>
<!DOCTYPE svg PUBLIC "-//W3C//DTD SVG 1.1//EN" "http://www.w3.org/Graphics/SVG/1.1/DTD/svg11.dtd">
<!-- Creator: CorelDRAW 2017 -->
<svg xmlns="http://www.w3.org/2000/svg" xml:space="preserve" width="14.3932mm" height="14.3932mm" version="1.1" style="shape-rendering:geometricPrecision; text-rendering:geometricPrecision; image-rendering:optimizeQuality; fill-rule:evenodd; clip-rule:evenodd"
viewBox="0 0 1439.32 1439.32"
 xmlns:xlink="http://www.w3.org/1999/xlink">
 <defs>
  <style type="text/css">
   <![CDATA[
    .fil0 {fill:none}
    .fil1 {fill:#373435}
   ]]>
  </style>
 </defs>
 <g id="Capa_x0020_1">
  <metadata id="CorelCorpID_0Corel-Layer"/>
  <g id="_1893612364432">
   <rect class="fil0" x="-0.02" y="0" width="1439.33" height="1439.33"/>
   <path class="fil1" d="M878.36 407.44c22.89,83.41 114.99,90.28 208.74,85.35 -201.21,-88.89 -137.31,-171.37 -208.74,-85.35zm97.88 170.11l-21.13 -40.03c-99.62,-0.07 -41.81,2.5 -66.29,25.83 35.04,42.8 43.76,28.67 87.42,14.2zm-342.04 -402.16c316.19,-55.27 579.4,174.43 631.49,435.01 66.31,331.7 -170.86,608.59 -434.72,657.77 -734.18,136.84 -948.48,-961.41 -196.77,-1092.78zm-3.51 -62.91c-317.52,50.6 -583.2,335.41 -522.01,710.92 128.07,785.95 1343.37,623.98 1222.29,-197.16 -45.44,-308.23 -334.95,-571.98 -700.28,-513.76zm-41.91 922.01c124.4,69.51 167.28,78.71 260.59,-23.12 -7.39,-177.57 -158.36,-165.63 -264.02,-94.43l3.43 117.55zm-29.94 -326.71c32.55,-83.09 60.06,-165.53 -48.16,-201.44 -38.14,22.92 -64.66,43.45 -59.83,116.33 5.68,85.97 40.8,81.43 107.99,85.11zm417.4 -130.23c-43.66,14.47 -52.38,28.6 -87.42,-14.2 24.48,-23.33 -33.33,-25.9 66.29,-25.83l-40.68 -34.95c-104.41,49.43 -109.78,168.56 -2.15,207.97 72.1,-39.21 59.53,-45.24 63.96,-132.99zm-574.16 -90.19c85.96,-7.91 175.66,-13.99 153.18,-85.57 -21.58,-8.45 0.3,-16.21 -31.22,-3.78l-121.96 89.35z"/>
  </g>
 </g>
</svg>
