<?xml version="1.0" encoding="UTF-8"?>
<!DOCTYPE svg PUBLIC "-//W3C//DTD SVG 1.1//EN" "http://www.w3.org/Graphics/SVG/1.1/DTD/svg11.dtd">
<!-- Creator: CorelDRAW 2017 -->
<svg xmlns="http://www.w3.org/2000/svg" xml:space="preserve" width="14.3932mm" height="14.3932mm" version="1.1" style="shape-rendering:geometricPrecision; text-rendering:geometricPrecision; image-rendering:optimizeQuality; fill-rule:evenodd; clip-rule:evenodd"
viewBox="0 0 1439.32 1439.32"
 xmlns:xlink="http://www.w3.org/1999/xlink">
 <defs>
  <style type="text/css">
   <![CDATA[
    .fil0 {fill:none}
    .fil2 {fill:#242424}
    .fil3 {fill:#92316A}
    .fil1 {fill:#FDFDFD}
   ]]>
  </style>
 </defs>
 <g id="Capa_x0020_1">
  <metadata id="CorelCorpID_0Corel-Layer"/>
  <rect class="fil0" x="-0" y="-0" width="1439.33" height="1439.33"/>
  <rect class="fil0" x="-0.02" y="-0.01" width="1439.33" height="1439.33"/>
  <g id="_1893571289296">
   <path class="fil1" d="M421.48 881.41c45.98,118.2 375.13,89.02 478.09,71.32 71.07,-12.22 99.38,-8.24 119.84,-70.25 -72.42,-52.05 -185.47,-15.09 -294.66,-14.64 -105.79,0.45 -228.91,-36.35 -303.27,13.57z"/>
   <path class="fil1" d="M556.19 1059.91c50.01,36.19 150.17,72.37 262.76,35.51 114.16,-37.36 4.54,6.16 56.84,-37.23l-319.6 1.72z"/>
   <g>
    <path class="fil2" d="M556.19 1059.91l319.6 -1.72c-52.3,43.39 57.32,-0.13 -56.84,37.23 -112.59,36.86 -212.75,0.68 -262.76,-35.51zm148.24 -11.32c-69.05,0.06 -76.74,-10.98 -101.05,-27.33 44.05,-51.74 157.99,-30.57 207.52,-7.54 -15.14,12.66 -13.86,34.8 -106.47,34.87zm195.14 -95.86c-102.96,17.7 -432.11,46.88 -478.09,-71.32 74.36,-49.92 197.48,-13.12 303.27,-13.57 109.19,-0.45 222.24,-37.41 294.66,14.64 -20.46,62.01 -48.77,58.03 -119.84,70.25zm72.7 96.25c34.16,-27.85 100.81,-102.68 66.73,-179.05 -27.85,-62.39 -113,-43.18 -179.03,-37.25 -145.74,13.1 -346.97,-20.24 -454.01,10.04 -93.06,263.97 351.01,381.79 566.31,206.26zm-330.23 -880.23c317.67,-48.26 578.64,184.91 624.09,453.08 57.72,340.61 -180.53,603.96 -460.65,646.7 -737.44,112.54 -894.88,-988.65 -163.44,-1099.78zm-1.2 -61.62c-813.61,109.01 -657.34,1320.72 154.96,1225.21 319.8,-37.61 578.56,-330.29 535.78,-692.27 -36.87,-311.93 -333.82,-580.76 -690.74,-532.94zm-55.11 412.68c-16.9,-74.68 1.54,-51.61 -41.8,-86.81 -3.93,6.61 -9.7,8.13 -11.68,19.9l-30.43 67.79 83.91 -0.88zm339.82 116.58c77.89,-71.06 66.38,-179.8 -40.16,-196.84 -69.96,68.35 -83.53,186.08 40.16,196.84zm-339.82 -116.58l-83.91 0.88 30.43 -67.79c1.98,-11.77 7.75,-13.29 11.68,-19.9 -72.91,7.4 -97.98,31.5 -97,106.77 1.05,80.88 19.73,84.62 77.02,101.87 56.35,-33.08 51.81,-30.59 61.78,-121.83z"/>
    <path class="fil3" d="M603.38 1021.26c24.31,16.35 32,27.39 101.05,27.33 92.61,-0.07 91.33,-22.21 106.47,-34.87 -49.53,-23.03 -163.47,-44.2 -207.52,7.54z"/>
   </g>
  </g>
 </g>
</svg>
