<?xml version="1.0" encoding="UTF-8"?>
<!DOCTYPE svg PUBLIC "-//W3C//DTD SVG 1.1//EN" "http://www.w3.org/Graphics/SVG/1.1/DTD/svg11.dtd">
<!-- Creator: CorelDRAW 2017 -->
<svg xmlns="http://www.w3.org/2000/svg" xml:space="preserve" width="14.3932mm" height="14.3932mm" version="1.1" style="shape-rendering:geometricPrecision; text-rendering:geometricPrecision; image-rendering:optimizeQuality; fill-rule:evenodd; clip-rule:evenodd"
viewBox="0 0 1439.32 1439.32"
 xmlns:xlink="http://www.w3.org/1999/xlink">
 <defs>
  <style type="text/css">
   <![CDATA[
    .fil0 {fill:none}
    .fil1 {fill:#242424}
    .fil2 {fill:#92316A}
    .fil3 {fill:#A9D6D7}
   ]]>
  </style>
 </defs>
 <g id="Capa_x0020_1">
  <metadata id="CorelCorpID_0Corel-Layer"/>
  <rect class="fil0" x="-0" y="-0" width="1439.33" height="1439.33"/>
  <g id="_1893571306512">
   <path class="fil1" d="M1267.8 830.61c-168.85,742.14 -1249.64,478.82 -1088.85,-237.72 157.88,-703.56 1248.45,-463.79 1088.85,237.72zm-675.35 -714.04c-797.82,175.63 -547.09,1370.71 258.75,1208.68 786.02,-158.05 549.23,-1386.53 -258.75,-1208.68zm-41.89 662.96l-34.81 35.74c-79.33,59.13 -119.21,90.62 -100.34,218.38l130.79 14.08c41.94,-70.94 72.99,-135.93 173.39,-138.96 103.67,-3.13 152.44,58.49 186.21,140.18l131.17 -12.03c54.74,-328.22 -385.63,-262.55 -486.41,-257.39zm209.75 -175.33c50.54,6.69 50.55,5.74 82.74,-28.99l16.15 -22.73c160.72,151.69 151.31,-13.48 -45.96,-109.19l-52.93 160.91zm-274.59 -22.16c56.95,40.26 56.81,35.87 104.89,-34.49 48.64,37.17 21.72,47.07 87.87,63.19 20.84,-43.75 20.79,-9.28 -2.1,-77.1 -10.13,-30.04 -22.23,-60.28 -31.1,-88.14 -47.54,23.12 -137.9,92.29 -159.56,136.54z"/>
   <g>
    <path class="fil2" d="M546.2 1047.73l359.6 1.22c-33.77,-81.69 -82.54,-143.31 -186.21,-140.18 -100.4,3.03 -131.45,68.02 -173.39,138.96z"/>
    <g>
     <path class="fil3" d="M445.59 582.66c-417,-104.7 -136.18,344.18 0,0z"/>
     <path class="fil3" d="M1018.04 586.12c48.62,94.79 198.87,241.89 212.4,23.61 -68.34,-79.27 -120.65,-43.68 -212.4,-23.61z"/>
     <path class="fil3" d="M515.75 815.27l34.81 -35.74c-26.6,-55.81 37.11,-95.85 -90.51,-146.77l-28.28 134.76 83.98 47.75z"/>
     <path class="fil3" d="M909.58 780.9c157.92,30.83 128.52,-37.37 88.06,-151.09 -63.45,39.46 -93.3,41.64 -88.06,151.09z"/>
     <path class="fil3" d="M1001.37 547.25l126.72 -19.71 -8.69 -91.29c-102.74,-26.83 -111.18,18.43 -118.03,111z"/>
     <path class="fil3" d="M333.89 489.25c43.03,68.17 32.12,45.56 126.03,59.8 -17.42,-177.98 -116.4,-153.72 -126.03,-59.8z"/>
    </g>
   </g>
  </g>
 </g>
</svg>
