<?xml version="1.0" encoding="UTF-8"?>
<!DOCTYPE svg PUBLIC "-//W3C//DTD SVG 1.1//EN" "http://www.w3.org/Graphics/SVG/1.1/DTD/svg11.dtd">
<!-- Creator: CorelDRAW 2017 -->
<svg xmlns="http://www.w3.org/2000/svg" xml:space="preserve" width="14.3932mm" height="14.3932mm" version="1.1" style="shape-rendering:geometricPrecision; text-rendering:geometricPrecision; image-rendering:optimizeQuality; fill-rule:evenodd; clip-rule:evenodd"
viewBox="0 0 1439.32 1439.32"
 xmlns:xlink="http://www.w3.org/1999/xlink">
 <defs>
  <style type="text/css">
   <![CDATA[
    .fil0 {fill:none}
    .fil1 {fill:#373435}
    .fil2 {fill:#92316A}
    .fil3 {fill:#FDFDFD}
   ]]>
  </style>
 </defs>
 <g id="Capa_x0020_1">
  <metadata id="CorelCorpID_0Corel-Layer"/>
  <g id="_1893576130000">
   <rect class="fil0" x="-0.02" y="-0.01" width="1439.33" height="1439.33"/>
   <path class="fil1" d="M587.71 186.26c714.88,-185.53 973.87,906.77 266.37,1077.68 -334.8,80.88 -609.21,-144.55 -674.29,-405.39 -87.65,-351.35 137.63,-602.14 407.92,-672.29zm-3.96 -64.38c-295.95,72.2 -554.61,356.14 -468.56,738.64 175.26,779.07 1391.6,539.01 1206.58,-282.16 -63.18,-280.39 -368.64,-546.59 -738.02,-456.48zm-36.94 936.3l342.64 -1.71c-86.77,63.88 -246.99,62.67 -342.64,1.71zm74.69 -43.94c77.3,-45.74 138.99,-30.9 200.6,3.98 -62.9,31.9 -140.95,39.68 -200.6,-3.98zm-91.66 -68.63c-124.54,-24.61 -99.45,-52.18 -103.19,-71.93 59.7,-36.78 546.06,-25.71 592.97,2.76 -16.03,64.73 -38.99,58.87 -116.38,72.25 -57.71,9.98 -119.51,15.15 -178.1,15.27 -64.54,0.13 -131.95,-5.84 -195.3,-18.35zm518.35 -33.96c2.46,-102.84 -70.43,-90.21 -161.61,-85.19 -123.31,6.77 -386.56,-10.76 -475.36,13.87 -158.74,312.49 628.8,412.59 636.97,71.32zm-291.13 -319.09c19.01,24.27 1.99,10.44 32.95,35.27 13.48,10.82 21.81,15.07 37.31,25.28 37.19,24.49 37.5,38.42 81.58,21.61 24,-62.8 22.02,-12.68 -45.14,-82.16 41.8,-51.32 78.8,-48.28 70.37,-107.4 -9.93,-2.63 -19.66,-26.17 -87.41,27.46 -42.44,33.6 -59.61,51.01 -89.66,79.94zm-196.52 0c-81.15,76.11 -65.76,-6.39 -47.62,93.13l154.56 -93.13c-54.28,-45.38 -105.62,-107.33 -177.96,-116.43 -1.97,73.31 25.91,63.58 71.02,116.43z"/>
   <path class="fil2" d="M621.5 1014.24c59.65,43.66 137.7,35.88 200.6,3.98 -61.61,-34.88 -123.3,-49.72 -200.6,-3.98z"/>
   <path class="fil3" d="M426.65 873.68c3.74,19.75 -21.35,47.32 103.19,71.93 63.35,12.51 130.76,18.48 195.3,18.35 58.59,-0.12 120.39,-5.29 178.1,-15.27 77.39,-13.38 100.35,-7.52 116.38,-72.25 -46.91,-28.47 -533.27,-39.54 -592.97,-2.76z"/>
   <path class="fil3" d="M546.81 1058.18c95.65,60.96 255.87,62.17 342.64,-1.71l-342.64 1.71z"/>
  </g>
 </g>
</svg>
