<?xml version="1.0" encoding="UTF-8"?>
<!DOCTYPE svg PUBLIC "-//W3C//DTD SVG 1.1//EN" "http://www.w3.org/Graphics/SVG/1.1/DTD/svg11.dtd">
<!-- Creator: CorelDRAW 2017 -->
<svg xmlns="http://www.w3.org/2000/svg" xml:space="preserve" width="14.3932mm" height="14.3932mm" version="1.1" style="shape-rendering:geometricPrecision; text-rendering:geometricPrecision; image-rendering:optimizeQuality; fill-rule:evenodd; clip-rule:evenodd"
viewBox="0 0 1439.32 1439.32"
 xmlns:xlink="http://www.w3.org/1999/xlink">
 <defs>
  <style type="text/css">
   <![CDATA[
    .fil0 {fill:none}
    .fil1 {fill:#373435}
    .fil3 {fill:#B43A47}
    .fil4 {fill:#E8464A}
    .fil2 {fill:#EC9095}
   ]]>
  </style>
 </defs>
 <g id="Capa_x0020_1">
  <metadata id="CorelCorpID_0Corel-Layer"/>
  <rect class="fil0" x="-0.02" y="-0.01" width="1439.33" height="1439.33"/>
  <g id="_1893567851536">
   <path class="fil1" d="M574.63 596.96c-12.88,-73.35 7.21,-52.49 -58.05,-78.37l-26.66 79.32 84.71 -0.95zm393.79 -13.1c-27.61,-82.13 2.5,-18.27 -42.28,-45.02 -92.94,25.15 -19.59,-27.4 -45.18,70.42l87.46 -25.4zm-884.45 81.02c62.67,9.26 26.84,12.81 70.38,-42.1 39.86,-249.09 242.41,-441.61 506.64,-458.45 307.05,-19.56 488.87,167.31 569.87,386.78 44.31,-8.04 25.98,11.48 46.8,-30.74 -43.56,-235 -342.26,-455.03 -661.71,-413.85 -288.49,37.2 -497.55,263.33 -531.98,558.36zm1133.63 251.43c-48.06,168.75 -235.81,329.9 -445.95,353.88 -122.6,13.98 -228.6,-6.18 -328.1,-58.14 -79.07,-41.3 -173.87,-121.25 -207.85,-190.91 -98.13,-10.45 -36.26,-6.05 -60.34,13.58 82.45,172.86 333.25,346.35 628.82,293.38 257.03,-46.06 437.46,-224.26 495.67,-464.14l-82.25 52.35zm-789.79 33.73c27.48,122.77 156.76,142.49 289.8,138.85 128.29,-3.51 241.09,-33.87 253.84,-146.41 -188.67,136.79 -337.12,122.83 -526.06,16.71 -4.45,-2.51 -11.69,-6.16 -17.58,-9.15zm540.61 -366.18l-87.46 25.4c25.59,-97.82 -47.76,-45.27 45.18,-70.42 -14.19,-22.67 50.07,-19.53 -48.22,-23.24 -73.82,77.44 -81.48,219.69 70.34,192.48l20.16 -124.22zm-393.79 13.1l-84.71 0.95 26.66 -79.32c-49.81,-7.59 -69.43,25.35 -74.53,81.56 -7.03,77.42 24.21,99.66 74.43,117.35 50.86,-27.15 63.34,-37.62 58.15,-120.54zm-178.78 -119.48l179.03 -53.11c-26.77,-51.26 -10.78,-74.62 -94.4,-26.36 -44.27,25.54 -63.84,52.96 -84.63,79.47zm469.12 -61.13l190.33 56.84c-31.19,-30.22 -162.77,-149.86 -190.33,-56.84z"/>
   <path class="fil2" d="M344.67 691.09c-18.5,-62.27 -57.87,-32.85 -85.31,-15.05 1.17,103.72 30.92,98.59 124.26,87.71 -8.9,-47.64 6.51,-14.44 -17.69,-56.84 -1.28,-2.23 -5.69,-8.05 -6.99,-9.89l-14.27 -5.93z"/>
   <path class="fil2" d="M1407.81 633.95l14.23 -35.35 -45.29 -42.37c-109.58,-60.02 -91.35,16.68 -99.44,28.74l44.88 48.6 85.62 0.38z"/>
   <path class="fil3" d="M1230.86 551.11c-248.74,-107.04 -275.74,231.25 -69.96,285.92 -37.69,-87.62 -83.8,-61.08 -64.42,-156.8 29.4,-145.23 127.55,-84.68 180.83,-95.26 8.09,-12.06 -10.14,-88.76 99.44,-28.74l45.29 42.37c-51.68,-95.87 -51.2,-45.7 -144.38,-78.23 -20.82,42.22 -2.49,22.7 -46.8,30.74z"/>
   <path class="fil3" d="M83.97 664.88c-126.41,63.93 -109.35,157.73 -29.4,260.42 14.38,-23.84 7.62,-246.25 91.84,-199.77 58.76,-39.78 12.6,16.56 30.83,-47.47 -24.73,-24.43 -24.2,28.36 -22.89,-55.28 -43.54,54.91 -7.71,51.36 -70.38,42.1z"/>
   <path class="fil3" d="M1407.81 633.95c-66.77,150.08 -41.55,208.83 -246.91,203.08 2.41,4.15 6.7,5.56 7.97,11.98 1.76,8.96 14.24,18.61 17.18,22.44 28.69,37.45 8.27,-6.24 31.55,44.86l82.25 -52.35c73,-44.66 164.96,-130.18 144.85,-224.75 -17.89,-84.17 -0.29,-14.85 -22.66,-40.61l-14.23 35.35z"/>
   <path class="fil4" d="M54.57 925.3l120.79 109.42c24.08,-19.63 -37.79,-24.03 60.34,-13.58 65.86,-32.81 123.28,-64.56 158.71,-125.84 57.76,-99.91 32.89,-172.94 -49.74,-204.21l14.27 5.93c1.3,1.84 5.71,7.66 6.99,9.89 24.2,42.4 8.79,9.2 17.69,56.84 -93.34,10.88 -123.09,16.01 -124.26,-87.71 -63.06,18.8 -35.19,23.62 -82.12,2.02 -18.23,64.03 27.93,7.69 -30.83,47.47 -84.22,-46.48 -77.46,175.93 -91.84,199.77z"/>
   <path class="fil4" d="M1160.9 837.03c205.36,5.75 180.14,-53 246.91,-203.08l-85.62 -0.38 -44.88 -48.6c-53.28,10.58 -151.43,-49.97 -180.83,95.26 -19.38,95.72 26.73,69.18 64.42,156.8z"/>
  </g>
 </g>
</svg>
