<?xml version="1.0" encoding="UTF-8"?>
<!DOCTYPE svg PUBLIC "-//W3C//DTD SVG 1.1//EN" "http://www.w3.org/Graphics/SVG/1.1/DTD/svg11.dtd">
<!-- Creator: CorelDRAW 2017 -->
<svg xmlns="http://www.w3.org/2000/svg" xml:space="preserve" width="14.3932mm" height="14.3932mm" version="1.1" style="shape-rendering:geometricPrecision; text-rendering:geometricPrecision; image-rendering:optimizeQuality; fill-rule:evenodd; clip-rule:evenodd"
viewBox="0 0 1439.32 1439.32"
 xmlns:xlink="http://www.w3.org/1999/xlink">
 <defs>
  <style type="text/css">
   <![CDATA[
    .fil0 {fill:none}
    .fil1 {fill:#373435}
   ]]>
  </style>
 </defs>
 <g id="Capa_x0020_1">
  <metadata id="CorelCorpID_0Corel-Layer"/>
  <g id="_1893576886000">
   <rect class="fil0" x="-0.02" y="0" width="1439.33" height="1439.33"/>
   <path class="fil1" d="M885.46 407.32l188 108.58c-30.15,-72.97 -10.35,-40.24 -71.39,-99.53 -46.22,-44.89 -73.2,-90.51 -116.61,-9.05zm-284.36 164.66c-16.78,-71.1 2.34,-33.93 -38.78,-45.45 -69.88,46.24 -32.58,83.09 38.78,45.45zm662.5 269.81c-169.51,719.66 -1259.29,469.3 -1085.57,-256.56 166.69,-696.56 1252.87,-453.74 1085.57,256.56zm-628.33 -733.19c-823.28,125.6 -626.64,1347.92 182.62,1221.41 802.02,-125.38 611.03,-1342.49 -182.62,-1221.41zm58.37 765.19c-136.93,54.56 -63.92,243.7 75.37,201.83 122.15,-36.72 64.07,-257.39 -75.37,-201.83zm244.3 -165.79c95.41,-71.04 74.64,-177.68 -20.08,-203.84 -78.48,53.08 -96.01,163.97 20.08,203.84zm-336.84 -136.02c-71.36,37.64 -108.66,0.79 -38.78,-45.45 -14.23,-22.23 44.02,-14.26 -48.54,-23.8 -55.99,66.26 -80.65,177.28 42.64,203.25 51.61,-44.96 56.85,-41.37 44.68,-134zm-197.03 -57.82l131.92 -73.13c68.48,-43.6 17.14,-7.67 44.01,-41 -96.54,-61.15 -135.5,54.25 -175.93,114.13z"/>
  </g>
 </g>
</svg>
