<?xml version="1.0" encoding="UTF-8"?>
<!DOCTYPE svg PUBLIC "-//W3C//DTD SVG 1.1//EN" "http://www.w3.org/Graphics/SVG/1.1/DTD/svg11.dtd">
<!-- Creator: CorelDRAW 2017 -->
<svg xmlns="http://www.w3.org/2000/svg" xml:space="preserve" width="14.3932mm" height="14.3932mm" version="1.1" style="shape-rendering:geometricPrecision; text-rendering:geometricPrecision; image-rendering:optimizeQuality; fill-rule:evenodd; clip-rule:evenodd"
viewBox="0 0 1439.32 1439.32"
 xmlns:xlink="http://www.w3.org/1999/xlink">
 <defs>
  <style type="text/css">
   <![CDATA[
    .fil0 {fill:none}
    .fil1 {fill:#373435}
    .fil2 {fill:#92316A}
   ]]>
  </style>
 </defs>
 <g id="Capa_x0020_1">
  <metadata id="CorelCorpID_0Corel-Layer"/>
  <g id="_1893555361696">
   <rect class="fil0" x="-0.02" y="0" width="1439.33" height="1439.33"/>
   <g id="_1893571306064">
    <path class="fil1" d="M965.19 528.29c-9.95,-52.15 4.29,-12.61 -8.57,-37.58 -16.63,-32.26 -14.88,-24.26 -25.17,-34.43l-24.58 62.85c21.57,6.01 35.37,7.49 58.32,9.16zm-797.98 272.88c-98.78,-736.87 986.44,-872.12 1099.91,-179.56 125.43,765.52 -1005.35,885.05 -1099.91,179.56zm458.34 -691.47c-820.68,138.07 -614.03,1338.75 188.07,1220.13 311.96,-46.13 571.58,-338.69 515.97,-709.13 -45.53,-303.3 -348.08,-570.88 -704.04,-511zm-79.71 929.75c84.17,-32.37 37.02,-75.12 158.29,-78.86 85.66,-2.64 130.52,21.51 139.76,102.51 101.92,-29.27 203.67,-102.1 157.98,-221.77 -51.07,-24.57 -524.51,-18.73 -554.65,0.56 -23.24,28.97 -20.4,-43.47 -22.22,59.26 -1.21,68.35 62.5,118.09 120.84,138.3zm-22.63 -398.92c56.61,-14.23 79.13,-19.12 78.79,-99.98 -0.36,-85.46 -27.52,-97.64 -104.66,-102.57 -41.4,82.12 -58.46,149.16 25.87,202.55zm441.98 -112.24c-22.95,-1.67 -36.75,-3.15 -58.32,-9.16l24.58 -62.85 -71.85 -18.11c-39.09,79.2 -66.37,171.93 45.13,203.15 56.7,-34.93 51.52,-25.02 60.46,-113.03z"/>
    <path class="fil2" d="M545.84 1039.45c72.23,60.12 206.37,76.39 298.05,23.65 -9.24,-81 -54.1,-105.15 -139.76,-102.51 -121.27,3.74 -74.12,46.49 -158.29,78.86z"/>
   </g>
  </g>
 </g>
</svg>
