<?xml version="1.0" encoding="UTF-8"?>
<!DOCTYPE svg PUBLIC "-//W3C//DTD SVG 1.1//EN" "http://www.w3.org/Graphics/SVG/1.1/DTD/svg11.dtd">
<!-- Creator: CorelDRAW 2017 -->
<svg xmlns="http://www.w3.org/2000/svg" xml:space="preserve" width="14.3932mm" height="14.3932mm" version="1.1" style="shape-rendering:geometricPrecision; text-rendering:geometricPrecision; image-rendering:optimizeQuality; fill-rule:evenodd; clip-rule:evenodd"
viewBox="0 0 1439.32 1439.32"
 xmlns:xlink="http://www.w3.org/1999/xlink">
 <defs>
  <style type="text/css">
   <![CDATA[
    .fil0 {fill:none}
    .fil1 {fill:#242424}
    .fil2 {fill:#92316A}
   ]]>
  </style>
 </defs>
 <g id="Capa_x0020_1">
  <metadata id="CorelCorpID_0Corel-Layer"/>
  <g id="_1893615492160">
   <rect class="fil0" x="-0.01" y="-0.01" width="1439.33" height="1439.33"/>
   <path class="fil1" d="M148.09 809.77c-115.86,-756 1035.13,-872.9 1141.75,-180.53 51.1,331.81 -198.43,603.55 -484.12,640.35 -340.3,43.83 -615.29,-183.57 -657.63,-459.82zm429.97 -691.56c-835.46,195.75 -541.37,1369.49 283.11,1204.74 300.64,-60.08 570.27,-369.44 482.66,-747.78 -66.2,-285.86 -387.06,-545.69 -765.77,-456.96zm-36.63 1012.78c50.23,-41.91 65.57,-106.44 162.24,-112.4 114.04,-7.03 133.47,55.39 170.57,110.6 334.04,10.81 123.93,-247.77 -87.83,-281.9 -221.44,-35.7 -434.11,74.74 -402.98,275.22l158 8.48zm16.66 -622.51c-85.54,58.44 -71.43,118.27 -27.52,203.41l75.48 0.06c40.66,-80.74 64.64,-172.27 -47.96,-203.47zm270.75 205.82c122.16,-47.4 90.47,-224.24 -28.56,-193.93 -53.47,59 -69.1,139.45 28.56,193.93zm-296.48 -262.03c14.52,8.08 25.68,12.52 41.31,20.55 35.7,18.33 50.16,26.91 93.81,46.15 -5.22,-72.1 32.54,-58.38 -50.6,-86.79 -27.2,-9.3 -96.44,-6.75 -126.23,-6.32l41.71 26.41zm204.57 45.99c52.57,7.36 130.81,-37.08 178.28,-71.67 -79.72,-2.09 -179,-14.72 -178.28,71.67z"/>
   <path class="fil2" d="M541.43 1130.99l332.81 -1.8c-37.1,-55.21 -56.53,-117.63 -170.57,-110.6 -96.67,5.96 -112.01,70.49 -162.24,112.4z"/>
  </g>
 </g>
</svg>
