<?xml version="1.0" encoding="UTF-8"?>
<!DOCTYPE svg PUBLIC "-//W3C//DTD SVG 1.1//EN" "http://www.w3.org/Graphics/SVG/1.1/DTD/svg11.dtd">
<!-- Creator: CorelDRAW 2017 -->
<svg xmlns="http://www.w3.org/2000/svg" xml:space="preserve" width="14.3932mm" height="14.3932mm" version="1.1" style="shape-rendering:geometricPrecision; text-rendering:geometricPrecision; image-rendering:optimizeQuality; fill-rule:evenodd; clip-rule:evenodd"
viewBox="0 0 1439.32 1439.32"
 xmlns:xlink="http://www.w3.org/1999/xlink">
 <defs>
  <style type="text/css">
   <![CDATA[
    .fil0 {fill:none}
    .fil1 {fill:#242424}
    .fil2 {fill:#92316A}
   ]]>
  </style>
 </defs>
 <g id="Capa_x0020_1">
  <metadata id="CorelCorpID_0Corel-Layer"/>
  <g id="_1893616297968">
   <rect class="fil0" x="-0.01" y="-0.01" width="1439.33" height="1439.33"/>
   <path class="fil1" d="M168.18 803.97c-44.75,-329.85 189.87,-589.87 465.4,-630.9 736.4,-109.66 894.13,1002.52 162.95,1099.83 -327.01,43.52 -591.02,-193.87 -628.35,-468.93zm458.06 -691c-317.25,54.5 -576.36,329.87 -517.95,707.11 122.81,793.08 1344.1,625.42 1222.48,-196.58 -44.93,-303.63 -349.07,-571.6 -704.53,-510.53zm-37.27 986.82c22.57,-60.37 54.75,-104.91 137.5,-108.75 76.13,-3.53 121.87,27.19 139.32,106.2l167.24 -7.14c79.54,-356.13 -687.36,-363.92 -615.1,4.27l171.04 5.42zm-65.06 -455.81c50.75,-15.64 75.58,-23.8 76.87,-101.11 1.43,-85.71 -26.62,-97.3 -103.76,-102.18 -43.75,79.11 -58.2,152.98 26.89,203.29zm429.51 -12.35c50.8,-59.6 62.56,-140.23 -27.91,-193.47 -117.04,46.27 -92.7,224.56 27.91,193.47z"/>
   <path class="fil2" d="M588.97 1099.79l276.82 -2.55c-17.45,-79.01 -63.19,-109.73 -139.32,-106.2 -82.75,3.84 -114.93,48.38 -137.5,108.75z"/>
  </g>
 </g>
</svg>
