<?xml version="1.0" encoding="UTF-8"?>
<!DOCTYPE svg PUBLIC "-//W3C//DTD SVG 1.1//EN" "http://www.w3.org/Graphics/SVG/1.1/DTD/svg11.dtd">
<!-- Creator: CorelDRAW 2017 -->
<svg xmlns="http://www.w3.org/2000/svg" xml:space="preserve" width="14.3932mm" height="14.3932mm" version="1.1" style="shape-rendering:geometricPrecision; text-rendering:geometricPrecision; image-rendering:optimizeQuality; fill-rule:evenodd; clip-rule:evenodd"
viewBox="0 0 1439.32 1439.32"
 xmlns:xlink="http://www.w3.org/1999/xlink">
 <defs>
  <style type="text/css">
   <![CDATA[
    .fil0 {fill:none}
    .fil5 {fill:#242424}
    .fil1 {fill:#767575}
    .fil4 {fill:#92316A}
    .fil2 {fill:#AEADAE}
    .fil3 {fill:#FDFDFD}
   ]]>
  </style>
 </defs>
 <g id="Capa_x0020_1">
  <metadata id="CorelCorpID_0Corel-Layer"/>
  <g id="_1893612311792">
   <rect class="fil0" x="-0.01" y="0" width="1439.33" height="1439.33"/>
   <g id="_1893567874480">
    <path class="fil1" d="M1158.66 639c3.71,3.22 9.33,3.17 11.08,9.74l48 46.84 59.12 -82.53c-13.63,-56.71 -23.68,-58.65 -41.37,-105.65 -11.42,-30.37 -6.48,-37.92 -14.37,-58.25 -17.32,-44.58 -15.78,-34.8 -39.63,-60.76 -26.26,36.73 49.57,35.42 -67.9,18.92l-2.84 20.65c4.14,4.06 10.87,4 12.96,11.59 8.8,31.82 27.33,0.26 60.53,58.66 20.48,36.04 17.54,83.98 13.02,131.04l-38.6 9.75z"/>
    <path class="fil1" d="M255.31 420.33c-1.57,3.89 -3.74,6.17 -4.17,11.88 -0.59,7.97 -5.88,19.19 -6.86,23 -0.65,2.48 -11.19,43.59 -13.12,54.8 -10.49,61.07 -6.61,81.14 -1.34,141.94 51.07,-0.35 53.14,18.84 99.5,-32.39l-56.91 4.55c-1.57,-168.33 -22.36,-112.69 68.35,-201.05l-19.73 -15.7 -65.72 12.97z"/>
    <path class="fil2" d="M1158.66 639l38.6 -9.75c4.52,-47.06 7.46,-95 -13.02,-131.04 -33.2,-58.4 -51.73,-26.84 -60.53,-58.66 -2.09,-7.59 -8.82,-7.53 -12.96,-11.59l-130.36 6.67c-16.31,134.13 75.77,200.59 178.27,204.37z"/>
    <path class="fil2" d="M329.32 619.56c90.53,-17.03 144.2,-73.51 142.29,-190.58l-130.85 -5.92c-90.71,88.36 -69.92,32.72 -68.35,201.05l56.91 -4.55z"/>
    <path class="fil3" d="M645.37 987.04l141.51 1.6c106.11,-1.87 230.56,-3.8 262.89,-78.27 -65.09,-75.68 -198.55,-26.82 -315.77,-25.16 -117.52,1.67 -244.72,-37.14 -336.65,5.26 10.82,59.14 -2.95,51.45 80.59,75.23 52.35,14.9 111.58,19.21 167.43,21.34z"/>
    <g>
     <path class="fil4" d="M786.88 988.64l-141.51 -1.6 29.13 20.69c-60.71,39.77 -39.84,5.89 -79.22,62.09l238.78 5.75c-59.93,-97.91 -67.18,-12.24 -47.18,-86.93z"/>
     <path class="fil5" d="M340.76 423.06l130.85 5.92c1.91,117.07 -51.76,173.55 -142.29,190.58 -46.36,51.23 -48.43,32.04 -99.5,32.39 -5.27,-60.8 -9.15,-80.87 1.34,-141.94 1.93,-11.21 12.47,-52.32 13.12,-54.8 0.98,-3.81 6.27,-15.03 6.86,-23 0.43,-5.71 2.6,-7.99 4.17,-11.88 74.71,-124.14 240.87,-253.11 458.78,-256.32 109.6,-1.61 212.32,26.85 291.11,74.14 88.3,52.99 96.77,101.21 176.29,150.24 23.85,25.96 22.31,16.18 39.63,60.76 7.89,20.33 2.95,27.88 14.37,58.25 17.69,47 27.74,48.94 41.37,105.65 -4.18,220.94 -8.09,347.72 -141.05,478.57 -435.53,428.62 -1047.27,50.67 -957.5,-482.36 49.19,121.83 87.07,214.56 275.06,191.66 151.37,-18.43 191.51,-109.82 260.75,-191.32 43.48,42.3 36.3,60.78 89.42,110.64 119.46,112.14 338.32,121.2 414.2,-24.66l-48 -46.84c-1.75,-6.57 -7.37,-6.52 -11.08,-9.74 -102.5,-3.78 -194.58,-70.24 -178.27,-204.37l130.36 -6.67 2.84 -20.65c-251.01,-5 -326.29,99.19 -399.87,97.93 -66.37,-1.13 -92.34,-56.7 -175.77,-81.43 -63.87,-18.93 -143.84,-15.85 -216.92,-16.45l19.73 15.7zm250.76 -305.02c-817.97,187.12 -522.21,1385.42 272.94,1203.22 776.08,-177.82 525.79,-1385.94 -272.94,-1203.22zm195.36 870.6c-20,74.69 -12.75,-10.98 47.18,86.93l-238.78 -5.75c39.38,-56.2 18.51,-22.32 79.22,-62.09l-29.13 -20.69c-55.85,-2.13 -115.08,-6.44 -167.43,-21.34 -83.54,-23.78 -69.77,-16.09 -80.59,-75.23 91.93,-42.4 219.13,-3.59 336.65,-5.26 117.22,-1.66 250.68,-50.52 315.77,25.16 -32.33,74.47 -156.78,76.4 -262.89,78.27zm-143.76 170.11l-110.19 -66.37 380.13 -0.52c-116.13,82.18 -182.86,23.6 -272.84,79.49 453.32,12.14 541.95,-328.53 334.94,-327.9 -58.05,0.18 -567.09,8.41 -574.58,13.27 -75.88,49.2 -16.12,164.29 22.77,204.13 48.87,50.07 122.55,86.82 219.77,97.9z"/>
    </g>
   </g>
  </g>
 </g>
</svg>
