<?xml version="1.0" encoding="UTF-8"?>
<!DOCTYPE svg PUBLIC "-//W3C//DTD SVG 1.1//EN" "http://www.w3.org/Graphics/SVG/1.1/DTD/svg11.dtd">
<!-- Creator: CorelDRAW 2017 -->
<svg xmlns="http://www.w3.org/2000/svg" xml:space="preserve" width="14.3932mm" height="14.3932mm" version="1.1" style="shape-rendering:geometricPrecision; text-rendering:geometricPrecision; image-rendering:optimizeQuality; fill-rule:evenodd; clip-rule:evenodd"
viewBox="0 0 1439.32 1439.32"
 xmlns:xlink="http://www.w3.org/1999/xlink">
 <defs>
  <style type="text/css">
   <![CDATA[
    .fil0 {fill:none}
    .fil1 {fill:#373435}
   ]]>
  </style>
 </defs>
 <g id="Capa_x0020_1">
  <metadata id="CorelCorpID_0Corel-Layer"/>
  <g id="_1893558490016">
   <rect class="fil0" x="-0.02" y="0" width="1439.33" height="1439.33"/>
   <path class="fil1" d="M603.87 617.79c-0.69,-7.47 -2.83,-25.71 -4.78,-22.02 -1.82,3.46 -3.7,-15.68 -6.3,-20.15 -20.18,-34.74 -9.85,-20.71 -33.12,-41.11 -51.88,34.05 -26.7,9.89 -42.14,82.11l86.34 1.17zm-434.01 180.83c-97.49,-740.11 1007.79,-870.7 1103.13,-160.8 100.89,751.24 -1010.37,865.03 -1103.13,160.8zm463.63 -687.79c-833.23,139.17 -612.86,1341.35 184.96,1218.83 808.46,-124.16 605.41,-1350.83 -184.96,-1218.83zm-153.35 953.89c291.85,-72.83 201.19,-104.85 503.47,7 -37.81,-76.72 -122.73,-142.26 -238.44,-148.75 -63.09,-3.54 -105.04,12.52 -155.75,38.08 -77.28,38.96 -79.33,30.72 -109.28,103.67zm447.65 -339.84c103.18,-59.12 68.19,-139.88 25.51,-204.81 -65.46,7.59 -88.55,15.21 -97.33,83.44 -10.22,79.47 21.14,100.72 71.82,121.37zm-323.92 -107.09l-86.34 -1.17c15.44,-72.22 -9.74,-48.06 42.14,-82.11l-52.65 -16.33c-53.88,81.14 -54.52,114.95 -10.58,205.18 96.66,-6.85 95.25,-0.41 107.43,-105.57zm-209.13 -28.91c24.17,-45.38 91.78,-86.47 142.38,-143.46 2.25,-2.55 6.44,-8.34 9.7,-12.48 -74.68,-34.67 -64.27,-31.63 -105.61,39.82 -26.13,45.17 -37.92,71.53 -46.47,116.12zm516.37 -149.59c31.77,37.58 26.02,26.03 60.06,53.81 24.61,20.09 9.75,9.13 32.55,28.15 34.92,29.13 14.48,14.88 49.71,37.88 -14.72,-54.63 -80.02,-202.79 -142.32,-119.84z"/>
  </g>
 </g>
</svg>
