<?xml version="1.0" encoding="UTF-8"?>
<!DOCTYPE svg PUBLIC "-//W3C//DTD SVG 1.1//EN" "http://www.w3.org/Graphics/SVG/1.1/DTD/svg11.dtd">
<!-- Creator: CorelDRAW 2017 -->
<svg xmlns="http://www.w3.org/2000/svg" xml:space="preserve" width="15.5786mm" height="15.5786mm" version="1.1" style="shape-rendering:geometricPrecision; text-rendering:geometricPrecision; image-rendering:optimizeQuality; fill-rule:evenodd; clip-rule:evenodd"
viewBox="0 0 1557.86 1557.86"
 xmlns:xlink="http://www.w3.org/1999/xlink">
 <defs>
  <style type="text/css">
   <![CDATA[
    .fil1 {fill:none}
    .fil5 {fill:#004DFD}
    .fil9 {fill:#008125}
    .fil0 {fill:#150C35}
    .fil2 {fill:#17FF5D}
    .fil8 {fill:#760789}
    .fil11 {fill:#93CA2D}
    .fil4 {fill:#E8443B}
    .fil3 {fill:#EE4552}
    .fil6 {fill:#FEED01}
    .fil7 {fill:#FF8B00}
    .fil10 {fill:#FEFEFE;fill-rule:nonzero}
    .fil12 {fill:#D2D3D5;fill-rule:nonzero}
   ]]>
  </style>
    <clipPath id="id0">
     <path d="M282.7 814.77c-29.87,-90.13 -56.79,-134.26 -54.91,-267.46 4.47,-317.08 193.18,-432.14 231,-78.67 13.6,127.07 -6.54,185.39 -41.94,312.77l45.72 9.61c39.39,-98.54 113.24,-205.02 179.07,-246.43 54.15,-34.05 230.86,-68.17 313.67,5.46 52.63,46.82 17.57,94.35 -39.73,109.41 -145.67,38.26 -133.1,54.38 -235.45,141.46 -44.71,38.05 -73.61,43.49 -118.06,74.08 7.52,40.5 51.09,105.54 -4.11,193.91 -84.44,-60.2 -153.88,-105.29 -278.24,-96.32 -20.63,1.5 -30.69,5.1 -47.68,6.77 -90.88,9.03 14.3,-141.6 50.66,-164.59z"/>
    </clipPath>
    <clipPath id="id1">
     <path d="M331.29 1070.83c-100.62,15.21 -82.19,164.95 20.31,154.05 10.66,-1.13 21.51,-5.09 27.38,-8.44 80.39,-45.85 34.48,-158.04 -47.69,-145.61z"/>
    </clipPath>
    <clipPath id="id2">
     <path d="M843.26 771.73c-38.94,13.55 -20.23,71.84 19.79,59.87 4.16,-1.24 8.18,-3.63 10.27,-5.4 28.55,-24.25 1.74,-65.54 -30.06,-54.47z"/>
    </clipPath>
    <clipPath id="id3">
     <path d="M920.55 771.74c-38.94,13.55 -20.23,71.85 19.79,59.88 4.17,-1.25 8.19,-3.63 10.27,-5.41 28.55,-24.25 1.74,-65.54 -30.06,-54.47z"/>
    </clipPath>
 </defs>
 <g id="Capa_x0020_1">
  <metadata id="CorelCorpID_0Corel-Layer"/>
  <g id="_2673934065088">
   <polygon class="fil0" points="-1.05,-1.05 1558.92,-1.05 1558.92,1558.91 -1.05,1558.91 "/>
   <path class="fil1" d="M282.7 814.77c-29.87,-90.13 -56.79,-134.26 -54.91,-267.46 4.47,-317.08 193.18,-432.14 231,-78.67 13.6,127.07 -6.54,185.39 -41.94,312.77l45.72 9.61c39.39,-98.54 113.24,-205.02 179.07,-246.43 54.15,-34.05 230.86,-68.17 313.67,5.46 52.63,46.82 17.57,94.35 -39.73,109.41 -145.67,38.26 -133.1,54.38 -235.45,141.46 -44.71,38.05 -73.61,43.49 -118.06,74.08 7.52,40.5 51.09,105.54 -4.11,193.91 -84.44,-60.2 -153.88,-105.29 -278.24,-96.32 -20.63,1.5 -30.69,5.1 -47.68,6.77 -90.88,9.03 14.3,-141.6 50.66,-164.59z"/>
   <path id="1" class="fil2" d="M282.7 814.77c-29.87,-90.13 -56.79,-134.26 -54.91,-267.46 4.47,-317.08 193.18,-432.14 231,-78.67 13.6,127.07 -6.54,185.39 -41.94,312.77l45.72 9.61c39.39,-98.54 113.24,-205.02 179.07,-246.43 54.15,-34.05 230.86,-68.17 313.67,5.46 52.63,46.82 17.57,94.35 -39.73,109.41 -145.67,38.26 -133.1,54.38 -235.45,141.46 -44.71,38.05 -73.61,43.49 -118.06,74.08 7.52,40.5 51.09,105.54 -4.11,193.91 -84.44,-60.2 -153.88,-105.29 -278.24,-96.32 -20.63,1.5 -30.69,5.1 -47.68,6.77 -90.88,9.03 14.3,-141.6 50.66,-164.59z"/>
   <g style="clip-path:url(#id0)">
    <g>
     <circle class="fil2" transform="matrix(0.441023 0.0823808 -0.0832033 0.436663 385.291 947.018)" r="578.6"/>
    </g>
   </g>
   <path class="fil1" d="M331.29 1070.83c-100.62,15.21 -82.19,164.95 20.31,154.05 10.66,-1.13 21.51,-5.09 27.38,-8.44 80.39,-45.85 34.48,-158.04 -47.69,-145.61z"/>
   <path id="1" class="fil2" d="M331.29 1070.83c-100.62,15.21 -82.19,164.95 20.31,154.05 10.66,-1.13 21.51,-5.09 27.38,-8.44 80.39,-45.85 34.48,-158.04 -47.69,-145.61z"/>
   <g style="clip-path:url(#id1)">
    <g>
     <ellipse class="fil3" transform="matrix(0.441023 0.0823808 -0.0832033 0.436663 299.476 1445.17)" rx="488.48" ry="423.12"/>
    </g>
   </g>
   <path class="fil4" d="M626.21 105.25c13,0 23.56,10.44 23.56,23.34 0,12.87 -10.56,23.31 -23.56,23.31 -13.01,0 -23.57,-10.44 -23.57,-23.31 0,-12.9 10.56,-23.34 23.57,-23.34z"/>
   <path class="fil5" d="M870.58 106.87c13.01,0 23.54,10.44 23.54,23.34 0,12.87 -10.53,23.31 -23.54,23.31 -13,0 -23.56,-10.44 -23.56,-23.31 0,-12.9 10.56,-23.34 23.56,-23.34z"/>
   <path class="fil6" d="M751.33 105.25c13.01,0 23.56,10.44 23.56,23.34 0,12.87 -10.55,23.31 -23.56,23.31 -13.01,0 -23.54,-10.44 -23.54,-23.31 0,-12.9 10.53,-23.34 23.54,-23.34z"/>
   <path class="fil7" d="M685.08 105.11c13.01,0 23.56,10.44 23.56,23.31 0,12.87 -10.55,23.31 -23.56,23.31 -13.01,0 -23.53,-10.44 -23.53,-23.31 0,-12.87 10.52,-23.31 23.53,-23.31z"/>
   <path class="fil8" d="M929.46 106.73c13.01,0 23.56,10.44 23.56,23.31 0,12.87 -10.55,23.31 -23.56,23.31 -13.01,0 -23.56,-10.44 -23.56,-23.31 0,-12.87 10.55,-23.31 23.56,-23.31z"/>
   <path class="fil9" d="M810.23 105.11c13.01,0 23.53,10.44 23.53,23.31 0,12.87 -10.52,23.31 -23.53,23.31 -13.01,0 -23.56,-10.44 -23.56,-23.31 0,-12.87 10.55,-23.31 23.56,-23.31z"/>
   <path class="fil10" d="M765.26 1019.48l-36.94 -51.11 -38.16 51.11 -53.21 0 64.8 -83.97 -62.59 -82.72 54.74 0 35.71 48.63 36.6 -48.63 51.95 0 -62.59 81.49 65.1 85.2 -55.41 0zm63.59 -166.69l48.83 0 0 166.69 -48.83 0 0 -166.69zm24.4 -23.25c-8.96,0 -16.25,-2.57 -21.89,-7.73 -5.64,-5.17 -8.46,-11.59 -8.46,-19.21 0,-7.65 2.82,-14.04 8.46,-19.21 5.64,-5.16 12.93,-7.76 21.89,-7.76 8.99,0 16.27,2.49 21.91,7.43 5.64,4.97 8.43,11.17 8.43,18.59 0,8.07 -2.79,14.74 -8.43,19.99 -5.64,5.28 -12.92,7.9 -21.91,7.9zm54.21 23.25l48.83 0 0 166.69 -48.83 0 0 -166.69zm24.4 -23.25c-8.96,0 -16.25,-2.57 -21.89,-7.73 -5.63,-5.17 -8.45,-11.59 -8.45,-19.21 0,-7.65 2.82,-14.04 8.45,-19.21 5.64,-5.16 12.93,-7.76 21.89,-7.76 8.96,0 16.28,2.49 21.92,7.43 5.63,4.97 8.43,11.17 8.43,18.59 0,8.07 -2.8,14.74 -8.43,19.99 -5.64,5.28 -12.96,7.9 -21.92,7.9zm153.74 20.77c15.63,0 29.87,3.57 42.71,10.69 12.81,7.12 22.89,17.14 30.2,30.04 7.29,12.92 10.92,27.94 10.92,45.08 0,17.17 -3.63,32.19 -10.92,45.09 -7.31,12.92 -17.39,22.95 -30.2,30.07 -12.84,7.11 -27.08,10.69 -42.71,10.69 -23.17,0 -40.82,-7.23 -52.91,-21.69l0 19.2 -46.64 0 0 -229.89 48.85 0 0 80.85c12.28,-13.43 29.17,-20.13 50.7,-20.13zm-8.46 131.99c12.5,0 22.78,-4.19 30.82,-12.54 8.01,-8.37 12.06,-19.57 12.06,-33.64 0,-14.04 -4.05,-25.23 -12.06,-33.61 -8.04,-8.37 -18.32,-12.53 -30.82,-12.53 -12.54,0 -22.78,4.16 -30.82,12.53 -8.04,8.38 -12.06,19.57 -12.06,33.61 0,14.07 4.02,25.27 12.06,33.64 8.04,8.35 18.28,12.54 30.82,12.54zm194.04 0.92c8.8,0 16.53,-1.29 23.34,-3.85 6.76,-2.6 13.07,-6.68 18.9,-12.26l26.02 27.89c-15.89,17.98 -39.03,26.97 -69.48,26.97 -19.02,0 -35.79,-3.69 -50.39,-11 -14.6,-7.34 -25.88,-17.51 -33.81,-30.51 -7.93,-13.04 -11.89,-27.81 -11.89,-44.34 0,-16.3 3.91,-31.01 11.72,-44.13 7.85,-13.12 18.59,-23.34 32.27,-30.68 13.63,-7.34 29.04,-11 46.15,-11 16.05,0 30.65,3.35 43.8,10.08 13.15,6.7 23.64,16.41 31.46,29.11 7.79,12.71 11.73,27.73 11.73,45.09l-124.54 23.84c3.55,8.26 9.13,14.46 16.75,18.59 7.59,4.13 16.95,6.2 27.97,6.2zm-7.17 -96.34c-12.31,0 -22.33,3.91 -30.07,11.75 -7.7,7.88 -11.78,18.71 -12.2,32.55l81.99 -15.8c-2.29,-8.68 -7,-15.6 -14.07,-20.77 -7.11,-5.16 -15.66,-7.73 -25.65,-7.73zm150.86 -12.09c5.83,-8.07 13.71,-14.15 23.64,-18.28 9.89,-4.13 21.3,-6.2 34.26,-6.2l0 44.61c-5.42,-0.42 -9.08,-0.61 -10.95,-0.61 -13.98,0 -24.93,3.88 -32.88,11.61 -7.9,7.76 -11.87,19.37 -11.87,34.87l0 78.69 -48.82 0 0 -166.69 46.62 0 0 22z"/>
   <path class="fil1" d="M843.26 771.73c-38.94,13.55 -20.23,71.84 19.79,59.87 4.16,-1.24 8.18,-3.63 10.27,-5.4 28.55,-24.25 1.74,-65.54 -30.06,-54.47z"/>
   <path id="1" class="fil11" d="M843.26 771.73c-38.94,13.55 -20.23,71.84 19.79,59.87 4.16,-1.24 8.18,-3.63 10.27,-5.4 28.55,-24.25 1.74,-65.54 -30.06,-54.47z"/>
   <g style="clip-path:url(#id2)">
    <g>
     <ellipse class="fil3" cx="859" cy="923.26" rx="88.9" ry="76.24"/>
    </g>
   </g>
   <path class="fil1" d="M920.55 771.74c-38.94,13.55 -20.23,71.85 19.79,59.88 4.17,-1.25 8.19,-3.63 10.27,-5.41 28.55,-24.25 1.74,-65.54 -30.06,-54.47z"/>
   <path id="1" class="fil11" d="M920.55 771.74c-38.94,13.55 -20.23,71.85 19.79,59.88 4.17,-1.25 8.19,-3.63 10.27,-5.41 28.55,-24.25 1.74,-65.54 -30.06,-54.47z"/>
   <g style="clip-path:url(#id3)">
    <g>
     <ellipse class="fil3" cx="936.3" cy="923.27" rx="88.9" ry="76.24"/>
    </g>
   </g>
   <path class="fil12" d="M899.67 1181.59c-2.34,2.12 -5.24,3.72 -8.65,4.83 -3.41,1.09 -6.98,1.65 -10.78,1.65 -8.71,0 -15.41,-2.32 -20.12,-6.98 -4.72,-4.66 -7.07,-11.25 -7.07,-19.76l0 -86.27 12.54 0 0 20.13 28.08 0 0 10.5 -28.08 0 0 54.94c0,5.47 1.34,9.63 4.05,12.5 2.7,2.85 6.67,4.27 11.86,4.27 5.64,0 10.22,-1.56 13.76,-4.71l4.41 8.9zm26.64 -68.39c2.98,-6.17 7.34,-10.83 13.17,-13.99 5.84,-3.15 13.07,-4.72 21.67,-4.72l0 12.06 -3.02 -0.16c-9.77,0 -17.42,2.98 -22.95,8.93 -5.55,5.95 -8.32,14.26 -8.32,25.01l0 46.87 -12.56 0 0 -92.01 12.01 0 0 18.01zm133.21 -18.01l0 92.01 -12.03 0 0 -18.2c-3.77,6.2 -8.74,10.92 -14.94,14.18 -6.16,3.27 -13.14,4.89 -20.9,4.89 -8.71,0 -16.61,-1.98 -23.71,-5.95 -7.03,-3.96 -12.59,-9.49 -16.61,-16.61 -3.99,-7.12 -6,-15.21 -6,-24.31 0,-9.1 2.01,-17.2 6,-24.32 4.02,-7.12 9.58,-12.62 16.61,-16.52 7.1,-3.91 15,-5.87 23.71,-5.87 7.51,0 14.34,1.54 20.4,4.64 6.06,3.1 11.03,7.62 14.91,13.56l0 -17.5 12.56 0zm-46.81 81.88c6.45,0 12.31,-1.51 17.56,-4.47 5.24,-2.98 9.38,-7.2 12.39,-12.67 2.99,-5.5 4.47,-11.73 4.47,-18.73 0,-7.01 -1.48,-13.23 -4.47,-18.71 -3.01,-5.5 -7.15,-9.71 -12.39,-12.7 -5.25,-2.96 -11.11,-4.44 -17.56,-4.44 -6.59,0 -12.51,1.48 -17.76,4.44 -5.25,2.99 -9.38,7.2 -12.39,12.7 -2.99,5.48 -4.5,11.7 -4.5,18.71 0,7 1.51,13.23 4.5,18.73 3.01,5.47 7.14,9.69 12.39,12.67 5.25,2.96 11.17,4.47 17.76,4.47zm151.72 -81.88l-41.34 92.01 -12.9 0 -41.18 -92.01 13.1 0 34.78 78.36 35.15 -78.36 12.39 0zm46.59 81.88c5.78,0 11.11,-1.03 16,-3.07 4.91,-2.04 9.04,-5.05 12.45,-9.02l7.09 8.04c-4.16,4.92 -9.24,8.66 -15.38,11.2 -6.14,2.56 -12.9,3.85 -20.32,3.85 -9.52,0 -18.01,-2.01 -25.44,-6.03 -7.42,-4.02 -13.17,-9.58 -17.3,-16.69 -4.14,-7.12 -6.2,-15.16 -6.2,-24.15 0,-8.99 1.98,-17.03 5.92,-24.15 3.93,-7.09 9.38,-12.65 16.36,-16.61 6.92,-3.96 14.82,-5.95 23.64,-5.95 8.26,0 15.72,1.87 22.36,5.61 6.65,3.72 11.95,8.91 15.91,15.55 3.94,6.65 6.03,14.24 6.26,22.76l-76.3 14.68c2.35,7.45 6.59,13.32 12.79,17.59 6.2,4.24 13.57,6.39 22.16,6.39zm-3.18 -71.91c-6.45,0 -12.25,1.5 -17.39,4.46 -5.14,2.99 -9.13,7.12 -12,12.43 -2.88,5.3 -4.33,11.39 -4.33,18.28 0,1.73 0.05,3.02 0.17,3.85l65.57 -12.61c-1.45,-7.68 -5.02,-14.02 -10.8,-18.96 -5.75,-4.97 -12.84,-7.45 -21.22,-7.45zm88.16 82.91c-8.37,0 -14.82,-2.32 -19.32,-6.98 -4.55,-4.66 -6.84,-11.14 -6.84,-19.43l0 -104.24 12.57 0 0 103.21c0,5.47 1.28,9.63 3.88,12.5 2.59,2.85 6.47,4.27 11.67,4.27 3.29,0 6.11,-0.53 8.45,-1.56l0.9 10.3c-3.66,1.29 -7.4,1.93 -11.31,1.93z"/>
  </g>
 </g>
</svg>
