<?xml version="1.0" standalone="no"?>
<!DOCTYPE svg PUBLIC "-//W3C//DTD SVG 1.1//EN" "http://www.w3.org/Graphics/SVG/1.1/DTD/svg11.dtd" >
<svg xmlns="http://www.w3.org/2000/svg">
<metadata>
<json>
<![CDATA[
{
	"fontFamily": "Banderas-Glyphs",
	"majorVersion": 1,
	"minorVersion": 0,
	"fontURL": "https://hihello.monster/",
	"description": "Agiliza la carga de tu web con Banderas Glyphs.  Los glyphs son de gran ayuda para el rendimiento del tiempo que transcurre entre el usuario que inicia la carga de la página y la página que presenta su contenido principal.\nFont generated by IcoMoon.",
	"copyright": "hihello.monster",
	"designer": "luisangelmaciel",
	"designerURL": "https://hihello.monster/luisangelmaciel",
	"licenseURL": "https://www.gnu.org/licenses/gpl-3.0.html",
	"license": "GNU GPL 3.0",
	"version": "Version 1.0",
	"fontId": "Banderas-Glyphs",
	"psName": "Banderas-Glyphs",
	"subFamily": "Regular",
	"fullName": "Banderas-Glyphs"
}
]]>
</json>
</metadata>
<defs>
<font id="Banderas-Glyphs" horiz-adv-x="1024">
<font-face units-per-em="1024" ascent="960" descent="-64" />
<missing-glyph horiz-adv-x="1024" />
<glyph unicode="&#x20;" horiz-adv-x="512" d="" />
<glyph unicode="&#xe900;" d="M-0.018 336.8h1024.037v222.382h-1024.037z" />
<glyph unicode="&#xe901;" d="M-0.018 559.182h1024.037v111.218h-1024.037z" />
<glyph unicode="&#xe902;" d="M-0.018 225.582h1024.037v111.218h-1024.037z" />
<glyph unicode="&#xe903;" d="M-0.018 670.4h1024.037v111.182h-1024.037z" />
<glyph unicode="&#xe904;" d="M-0.018 114.4h1024.037v111.182h-1024.037z" />
<glyph unicode="&#xe905;" d="M-0.018 114.4h1024.037v667.127l-1024.037 0.055z" />
<glyph unicode="&#xe906;" d="M-0.018 559.127h1024.037v222.455h-1024.037z" />
<glyph unicode="&#xe907;" d="M-0.018 114.4h1024.037v222.4l-1024.037 0.018z" />
<glyph unicode="&#xe908;" d="M-0.018 336.818l1024.037-0.018v222.327h-1024.037z" />
<glyph unicode="&#xe909;" d="M-0.018 118.193h338.694l-0.092 659.613h-338.603z" />
<glyph unicode="&#xe90a;" d="M688.586 118.193h335.432v659.613h-335.323z" />
<glyph unicode="&#xe90b;" d="M410.146 387.251c4.27 2.437 19.718 12.315 21.551 13.066 1.118 0.458 3.848 1.246 4.966 1.649l39.418-23.622c40.316-40.225-0.018-70.682-38.007-36.431-19.26 17.354-16.127 26.939-27.928 45.338zM648.508 461.891c7.862-21.771-3.848-17.025 7.055-26.975l2.492-16.475-21.954-16.438-18.729-40.426c-17.446-27.837-16.621-10.775-39.308-38.814l-20.323 9.969c-43.212-6.542-33.792-9.438-57.671 10.372l46.62 22.65c1.686 43.322-2.712-5.553 13.634 35.753-0.788 1.704-1.448 4.838-1.704 5.351l-9.383 10.812c-21.111-11.38-3.335-0.22-18.381-12.003l-9.548-10.94c-0.403 0.293-18.875 12.15-23.402 14.697-2.364 1.319-10.94 5.479-12.736 6.487l-12.791 8.87c14.587 41.782 20.012 1.1-4.49 83.602 2.712 1.136 6.286 2.071 8.375 2.785l15.833 5.369c21.038 7.807 9.584 2.529 19.352 8.778l-3.628 35.277c2.712-1.631 5.992-3.573 8.045-4.985 38.612-26.352 60.859-39.638 60.823-75.593 19.59-21.423 11.124-39.583 7.422-73.816l19.352-9.364c1.026 2.107 4.050-3.445 6.689-4.856l6.469 32.84c-1.411 18.967-9.548 40.701 5.479 40.701l-24.501 77.298c31.63-9.493 37.311-9.859 47.518-41.214 11.655-35.827-10.849-1.045 3.39-39.712zM382.493 416.938c4.581 26.096 6.982 20.781 9.309 42.974 2.052 19.627-22.119 37.458 34.8 84.426 40.994-40.188-19.828-9.401-4.307-148.768l-39.803 21.368zM338.676 118.193h349.91l0.11 659.613h-350.111l0.092-659.613z" />
<glyph unicode="&#xe90c;" d="M560.325 401.508l8.888 42.625-13.799 47.427c-7.459 13.249-3.464 8.65-19.81 20.085-9.694 6.78-18.362 10.317-24.153 13.671-9.768-6.249 1.686-0.971-19.352-8.778l-15.833-5.369c-2.089-0.715-5.663-1.649-8.375-2.785 24.501-82.502 19.077-41.819 4.49-83.602l12.791-8.87c1.796-1.008 10.372-5.168 12.736-6.487 4.526-2.547 22.999-14.404 23.402-14.697l9.548 10.94c15.045 11.783-2.731 0.623 18.381 12.003l9.383-10.812c0.257-0.513 0.916-3.647 1.704-5.351z" />
<glyph unicode="&#xe90d;" d="M569.213 444.133l-8.888-42.625c-16.346-41.306-11.948 7.568-13.634-35.753l11.050-33.023 20.323-9.969c22.687 28.038 21.862 10.977 39.308 38.814l18.729 40.426-13.396 21.258c-0.898 1.136-3.995 1.521-6.084 1.558l-6.469-32.84c-2.639 1.411-5.663 6.964-6.689 4.856l-19.352 9.364c3.702 34.232 12.168 52.393-7.422 73.816l-7.477-35.882z" />
<glyph unicode="&#xe90e;" d="M382.493 416.938l39.803-21.368c-15.522 139.366 45.301 108.579 4.307 148.768-56.919-46.969-32.748-64.799-34.8-84.426-2.327-22.192-4.728-16.878-9.309-42.974z" />
<glyph unicode="&#xe90f;" d="M431.697 400.317c-1.833-0.751-17.281-10.629-21.551-13.066 11.802-18.399 8.668-27.983 27.928-45.338 37.989-34.251 78.324-3.793 38.007 36.431l-39.418 23.622c-1.118-0.403-3.848-1.191-4.966-1.649z" />
<glyph unicode="&#xe910;" d="M622.1 465.519l7.788-22.192c4.783 22.174 5.791 6.927 18.619 18.564-14.239 38.667 8.265 3.885-3.39 39.712-10.207 31.355-15.888 31.722-47.518 41.214l24.501-77.298z" />
<glyph unicode="&#xe911;" d="M511.45 525.316c5.791-3.354 14.459-6.89 24.153-13.671 16.346-11.435 12.351-6.835 19.81-20.085 2.639-1.723 6.89-0.495 8.338-4.435 10.995-30.054-2.584 4.728 12.938-7.11 0.037 35.955-22.211 49.241-60.823 75.593-2.052 1.411-5.333 3.354-8.045 4.985l3.628-35.277z" />
<glyph unicode="&#xe912;" d="M616.621 424.818c2.089-0.037 5.186-0.421 6.084-1.558l13.396-21.258 21.954 16.438-2.492 16.475c-10.904 9.951 0.806 5.204-7.055 26.975-12.828-11.637-13.836 3.61-18.619-18.564l-7.788 22.192c-15.027 0-6.89-21.734-5.479-40.701z" />
<glyph unicode="&#xe913;" d="M557.741 332.732l-11.050 33.023-46.62-22.65c23.878-19.81 14.459-16.915 57.671-10.372z" />
<glyph unicode="&#xe914;" d="M569.213 444.133l7.477 35.882c-15.522 11.838-1.943-22.944-12.938 7.11-1.448 3.94-5.699 2.712-8.338 4.435l13.799-47.427z" />
<glyph unicode="&#xe915;" d="M-0.018 114.4h1024.037v333.582l-682.483 0.971-341.553-0.935z" />
<glyph unicode="&#xe916;" d="M341.535 448.953l682.483-0.971v333.6h-682.722z" />
<glyph unicode="&#xe917;" d="M139.623 640.657c25.784 18.417 17.299 17.703 32.125 50.945l15.815-49.626 57.341-3.573-40.628-33.188 10.519-50.689-47.243 24.721c-20.305-12.645-22.394-16.915-43.56-26.261l12.975 51.88-41.563 34.947 44.22 0.843zM-0.018 448.018l341.553 0.935-0.238 332.629h-341.315v-333.563z" />
<glyph unicode="&#xe918;" d="M139.623 640.657l-44.22-0.843 41.563-34.947-12.975-51.88c21.166 9.346 23.255 13.616 43.56 26.261l47.243-24.721-10.519 50.689 40.628 33.188-57.341 3.573-15.815 49.626c-14.825-33.243-6.341-32.528-32.125-50.945z" />
<glyph unicode="&#xe919;" d="M0 447.982h1024v333.6h-1024z" />
<glyph unicode="&#xe91a;" d="M0 114.4h1024v166.8h-1024z" />
<glyph unicode="&#xe91b;" d="M0 281.2h1024v166.782h-1024z" />
<glyph unicode="&#xe91c;" d="M-0.018 336.965h1024.037v222.052h-1024.037z" />
<glyph unicode="&#xe91d;" d="M-0.018 559.017h1024.037v111.621h-1024.037z" />
<glyph unicode="&#xe91e;" d="M-0.018 225.343h1024.037v111.621h-1024.037z" />
<glyph unicode="&#xe91f;" d="M-0.018 670.638h1024.037v110.943h-1024.037z" />
<glyph unicode="&#xe920;" d="M-0.018 114.4h1024.037v110.943h-1024.037z" />
<glyph unicode="&#xe921;" d="M682.337 114.418h341.682v667.163h-341.718z" />
<glyph unicode="&#xe922;" d="M-0.018 114.418h341.443l0.055 667.163h-341.498z" />
<glyph unicode="&#xe923;" d="M341.425 114.418h340.912l-0.037 667.163h-340.82z" />
<glyph unicode="&#xe924;" d="M575.535 393.17l-15.852 0.037-15.009 36.211c-8.87-35.478 13.671-15.613-13.689-22.925l-51.55 3.17-21.459-14.221c20.653-8.503 11.948 4.416 22.925-13.854l2.639-12.095c-7.239-21.643-45.759-23.329-45.961-23.365-20.8 34.342-35.497 39.070-36.944 92.563-54.83 0-10.134 4.581-24.538-20.965 17.409-22.632 45.118-105.831 128.060-101.212 39.583 2.199 103.943-4.856 137.222 95.257l5.003 29.101c-16.072-12.755-5.992-2.144-19.059-16.237l-32.363-51.697c-27.397 14.239-10.409 5.754-19.425 20.232z" />
<glyph unicode="&#xe925;" d="M436.425 522.897l20.048-7.587c21.826-0.275 14.715 3.867 9.639-20.928 19.205 18.93 22.467-29.724 12.516 35.405-23.823-4.105-8.485-7.862-9.969 8.466l-2.144 28.35c44.366-14.404 18.875 14.862 54.794 29.999 19.627-39.748-10.83-6.927 12.223-43.578l17.941-58.734 35.68-5.516c6.047-28.112 20.25-54.061 19.645-62.271l19.682 36.413c-18.784 196.946-139.092 130.369-177.319 130.955 11.545-52.045-13.323 8.448-12.736-70.975z" />
<glyph unicode="&#xe926;" d="M466.113 494.382l-4.252 3.445 25.491-50.634c2.712 1.484 10.867 5.516 12.425 6.341l17.354 9.713c11.105-33.609-5.204-20.873 27.543-33.829l15.009-36.211 15.852-0.037 28.9 3.28-44.11 70.077c-19.022 0.128-2.162-3.042-8.851 27.763l-17.941 58.734c-23.054 36.651 7.404 3.83-12.223 43.578-35.918-15.137-10.427-44.403-54.794-29.999l2.144-28.35c1.484-16.328-13.854-12.571 9.969-8.466 9.951-65.129 6.689-16.475-12.516-35.405z" />
<glyph unicode="&#xe927;" d="M376.097 417.726c14.404 25.546-30.292 20.965 24.538 20.965 1.448-53.493 16.145-58.221 36.944-92.563 0.202 0.037 38.722 1.723 45.961 23.365l-2.639 12.095c-10.977 18.271-2.272 5.351-22.925 13.854l21.459 14.221-15.998 33.646 23.915 3.885-25.491 50.634c-25.234-40.042-1.191-43.065-0.183-45.154l-19.865-0.843c-0.641-0.715-2.547-3.427-2.969-4.288-0.421-0.825-0.935-4.105-1.136-4.966-7.367-32.326 1.283-7.312 2.731-10.042l-71.983 47.39 7.642-62.197z" />
<glyph unicode="&#xe928;" d="M456.473 515.31l-20.048 7.587c-35.020-23.787 38.282-1.026-17.611 3.042l-12.095-1.118c-0.33-0.788-12.59 4.288-5.938-28.661 8.063-39.987 10.977-21.441 23.988-29.578 44.128 11.417 23.805 1.173 31.703 48.728z" />
<glyph unicode="&#xe929;" d="M280.529 495.702c4.142 26.352 13.469 3.775 16.108 0.11l30.879-1.008-14.276-17.849-7.55-21.533 12.516-17.006-20.341 12.718-18.747 0.128-17.373-14.331 9.878 18.069-7.422 22.082-15.833 18.326 32.161 0.293zM166.214 500.246l34.562-16.53c-9.438-21.111-5.131-3.647-8.576-39.858-26.132 21.862-21.954-5.168-44.073 29.376-14.789 12.388-8.925-19.444-13.414 26.865l31.502 0.147zM48.123 496.013l9.328 17.977 10.482-12.571 30.219-6.817-17.574-15.595 3.335-38.301c-42.002 9.053-9.309 1.924-24.3 14.514l-21.258-9.584 0.806 29.596c-15.229 10.574-6.212-8.613-17.574 16.127l26.536 4.655zM236.199 574.868c15.412-28.093 0.861-17.941 33.316-25.381-12.406-16.456-15.155-17.739-11.527-44.128-29.541 13.763-13.982 13.323-42.167 0.073 1.484 48.783-3.079 24.85-12.187 35.094l17.208 12.351c14.715 14.587 2.694-5.992 15.357 21.991zM86.57 546.903c35.24 8.503 15.045-2.272 34.434 19.883 19.462-21.826-0.788-11.417 34.599-19.663-23.438-19.095-14.825-2.291-15.394-40.683l-38.392 3.005c-0.476 35.039 8.576 18.344-15.247 37.458zM168.193 615.331c15.412 22.137-3.482 6.066 36.413-6.982-8.925-18.802-8.137-14.367-8.503-42.112l-40.463 5.168-1.448 25.986-17.593 16.273 31.593 1.668zM279.191 622.918c-2.84 42.222 16.31-1.283 19.755-10.299l21.991-3.060c-20.525-23.237-8.192-1.063-15.503-35.405l12.81-15.265-21.313 10.83-29.706 0.66c-0.733 29.852 2.474 17.556-12.681 36.981 25.088 8.32 12.883 5.021 24.648 15.558zM57.414 577.855c-13.121-13.873 12.681-2.364-17.299-15.155l-2.547 38.319-10.94 9.878c26.444 7.019 25.436 9.969 38.282 25.088 15.43-35.149-6.726-6.762 28.771-31.593-10.647-12.81-3.573-3.225-11.325-17.593-0.715-1.319-2.236-4.471-2.895-5.754l-22.046-3.189zM281.060 698.456c0-14.422 3.427-10.372-11.747-10.72 6.909-50.707 9.529-17.593-7.202-30.585l-12.59-17.519 12.681-17.043c-38.044 4.948-5.204-2.217-19.425 13.085l-30.311-5.076c-4.087 57.249-23.64 21.111 9.144 49.553l8.961 17.501 12.351-17.006 17.593 6.817 11.179 18.637-19.572 21.020c26.719 14.917 16.841 4.801 37.238 28.276 12.718-24.593-5.021-13.323 32.143-25.069-18.894-19.535-6.451-7.66-14.734-22.669l-25.711-9.199zM184.704 738.406l27.873-4.93c-12.498-22.999-5.278-8.815-19.15-16.97l1.997-27.36-33.041 2.859c-7.752-52.081-0.293-17.684-13.451-32.528-6.322-7.935-3.977-3.354-10.006-16.548-0.183-0.367-3.354-10.281-5.736-15.65l-25.289 10.482-14.294-18.491 9.658 24.098c-11.087 33.371-1.466 11.325-17.043 20.726 32.326 21.056 12.681-6.634 31.612 30.677l7.935-16.053c28.35-3.592 13.506-7.953 23.127 13.524 10.189 21.624 1.814 24.813-8.082 39.932 46.272 9.713 8.961-10.427 34.947 22.687l8.943-16.456zM47.555 737.124l11.050 19.517 9.401-14.202 32.455-7.55-20.616-14.239 2.492-40.591c-38.685 13.506-7.568 1.833-22.247 16.585l-21.588-9.786 0.733 29.504c-14.917 10.739-5.369-8.998-18.087 16.64l26.407 4.123zM-0.018 422.106l343.441 0.037 1.979 52.833-0.037 48.508 0.018 54.097 0.055 48.655-0.037 53.932 0.037 48.416-0.348 52.998h-345.108v-359.476z" />
<glyph unicode="&#xe92a;" d="M-0.018 216.785h1024.037v51.825h-1024.037z" />
<glyph unicode="&#xe92b;" d="M-0.018 319.482h1024.037v51.825h-1024.037z" />
<glyph unicode="&#xe92c;" d="M-0.018 114.4h1024.037v51.715h-1024.037z" />
<glyph unicode="&#xe92d;" d="M-0.018 268.61h1024.037v50.872h-1024.037z" />
<glyph unicode="&#xe92e;" d="M-0.018 371.307h1024.037v50.78l-1024.037 0.018z" />
<glyph unicode="&#xe92f;" d="M-0.018 166.115h1024.037v50.67h-1024.037z" />
<glyph unicode="&#xe930;" d="M345.365 523.483l678.653 1.063v52.063l-678.635 0.971z" />
<glyph unicode="&#xe931;" d="M345.438 626.235l678.58 1.228v51.715l-678.617 0.99z" />
<glyph unicode="&#xe932;" d="M345.438 728.584l678.58 1.283v51.715h-678.928z" />
<glyph unicode="&#xe933;" d="M343.422 422.143l680.596-0.055v51.678l-678.617 1.209z" />
<glyph unicode="&#xe934;" d="M345.383 577.581l678.635-0.971v50.854l-678.58-1.228z" />
<glyph unicode="&#xe935;" d="M345.402 474.975l678.617-1.209v50.78l-678.653-1.063z" />
<glyph unicode="&#xe936;" d="M345.402 680.168l678.617-0.99v50.689l-678.58-1.283z" />
<glyph unicode="&#xe937;" d="M257.988 505.359c-3.628 26.389-0.88 27.672 11.527 44.128-32.455 7.44-17.904-2.712-33.316 25.381-12.663-27.983-0.641-7.404-15.357-21.991l-17.208-12.351c9.108-10.244 13.671 13.689 12.187-35.094 28.185 13.249 12.626 13.689 42.167-0.073z" />
<glyph unicode="&#xe938;" d="M148.896 692.244l13.488-0.238 33.041-2.859-1.997 27.36-8.723 21.899-8.943 16.456c-25.986-33.114 11.325-12.975-34.947-22.687 9.896-15.119 18.271-18.307 8.082-39.932z" />
<glyph unicode="&#xe939;" d="M296.93 569.719l8.503 4.435c7.312 34.342-5.021 12.168 15.503 35.405l-21.991 3.060-19.755 10.299c-11.765-10.537 0.44-7.239-24.648-15.558 15.155-19.425 11.948-7.129 12.681-36.981l29.706-0.66z" />
<glyph unicode="&#xe93a;" d="M155.603 547.123c-35.387 8.247-15.137-2.162-34.599 19.663-19.389-22.156 0.806-11.38-34.434-19.883 23.823-19.114 14.77-2.419 15.247-37.458l38.392-3.005c0.568 38.392-8.045 21.588 15.394 40.683z" />
<glyph unicode="&#xe93b;" d="M242.778 635.673l6.744 3.958 12.59 17.519-19.187 23.493-21.313-0.495c-32.785-28.441-13.231 7.697-9.144-49.553l30.311 5.076z" />
<glyph unicode="&#xe93c;" d="M154.192 597.391l1.448-25.986 40.463-5.168c0.367 27.745-0.421 23.31 8.503 42.112-39.895 13.048-21.001 29.119-36.413 6.982l-14.001-17.941z" />
<glyph unicode="&#xe93d;" d="M103.265 643.37l4.636-5.608 25.289-10.482c2.382 5.369 5.553 15.284 5.736 15.65 6.029 13.194 3.683 8.613 10.006 16.548-1.851 1.484-4.197 3.665-5.388 4.655l-17.776 14.587-7.935 16.053c-18.93-37.311 0.715-9.621-31.612-30.677 15.577-9.401 5.956 12.645 17.043-20.726z" />
<glyph unicode="&#xe93e;" d="M271.696 706.098l9.364-7.642 25.711 9.199c8.283 15.009-4.16 3.134 14.734 22.669-37.164 11.747-19.425 0.476-32.143 25.069-20.396-23.475-10.519-13.359-37.238-28.276l19.572-21.020z" />
<glyph unicode="&#xe93f;" d="M37.568 601.019c1.704-2.144 4.453-2.456 5.351-6.249l14.496-16.915 22.046 3.189c0.66 1.283 2.181 4.435 2.895 5.754 7.752 14.367 0.678 4.783 11.325 17.593-35.497 24.831-13.341-3.555-28.771 31.593-12.846-15.119-11.838-18.069-38.282-25.088l10.94-9.878z" />
<glyph unicode="&#xe940;" d="M264.201 477.083l7.422-22.082 7.495-3.738 18.747-0.128 7.825 4.288 7.55 21.533-16.603 18.857c-2.639 3.665-11.967 26.242-16.108-0.11l-16.328-18.619z" />
<glyph unicode="&#xe941;" d="M166.214 500.246c-1.759-2.547-7.77-11.857-9.016-13.726-1.081-1.631-3.72-8.192-4.545-6.726-0.806 1.448-2.95-4.435-4.526-6.561 22.119-34.544 17.941-7.514 44.073-29.376 3.445 36.211-0.861 18.747 8.576 39.858l-34.562 16.53z" />
<glyph unicode="&#xe942;" d="M47.555 737.124c-7.587-12.168-3.115-7.678-8.32-20.763l-0.733-29.504 21.588 9.786 15.302 17.813c1.081 1.374 3.079 4.068 4.453 6.194l-11.838 21.789-9.401 14.202-11.050-19.517z" />
<glyph unicode="&#xe943;" d="M48.123 496.013c-7.843-11.545-3.683-8.302-8.961-20.781l-0.806-29.596 21.258 9.584 20.965 23.787-12.645 22.412-10.482 12.571-9.328-17.977z" />
<glyph unicode="&#xe944;" d="M242.925 680.644l19.187-23.493c16.731 12.993 14.111-20.122 7.202 30.585l-8.796-0.275-17.593-6.817z" />
<glyph unicode="&#xe945;" d="M125.769 678.72l17.776-14.587c1.191-0.99 3.537-3.17 5.388-4.655 13.158 14.844 5.699-19.553 13.451 32.528l-13.488 0.238c-9.621-21.478 5.223-17.116-23.127-13.524z" />
<glyph unicode="&#xe946;" d="M148.126 473.234c1.576 2.126 3.72 8.008 4.526 6.561 0.825-1.466 3.464 5.095 4.545 6.726 1.246 1.869 7.257 11.179 9.016 13.726l-31.502-0.147c4.49-46.309-1.374-14.477 13.414-26.865z" />
<glyph unicode="&#xe947;" d="M59.613 455.22c14.99-12.59-17.703-5.461 24.3-14.514l-3.335 38.301-20.965-23.787z" />
<glyph unicode="&#xe948;" d="M60.090 696.642c14.679-14.752-16.438-3.079 22.247-16.585l-2.492 40.591c-1.374-2.126-3.372-4.82-4.453-6.194l-15.302-17.813z" />
<glyph unicode="&#xe949;" d="M57.414 577.855l-14.496 16.915c-0.898 3.793-3.647 4.105-5.351 6.249l2.547-38.319c29.981 12.791 4.178 1.283 17.299 15.155z" />
<glyph unicode="&#xe94a;" d="M193.427 716.507c13.873 8.155 6.652-6.029 19.15 16.97l-27.873 4.93 8.723-21.899z" />
<glyph unicode="&#xe94b;" d="M79.845 720.649l20.616 14.239-32.455 7.55z" />
<glyph unicode="&#xe94c;" d="M39.235 716.361c5.204 13.085 0.733 8.595 8.32 20.763l-26.407-4.123c12.718-25.638 3.17-5.901 18.087-16.64z" />
<glyph unicode="&#xe94d;" d="M264.201 477.083l16.328 18.619-32.161-0.293z" />
<glyph unicode="&#xe94e;" d="M39.162 475.232c5.278 12.48 1.118 9.236 8.961 20.781l-26.536-4.655c11.362-24.74 2.346-5.553 17.574-16.127z" />
<glyph unicode="&#xe94f;" d="M80.578 479.007l17.574 15.595-30.219 6.817z" />
<glyph unicode="&#xe950;" d="M313.24 476.955l14.276 17.849-30.879 1.008z" />
<glyph unicode="&#xe951;" d="M154.192 597.391l14.001 17.941-31.593-1.668z" />
<glyph unicode="&#xe952;" d="M298.946 612.619c-3.445 9.016-22.596 52.521-19.755 10.299l19.755-10.299z" />
<glyph unicode="&#xe953;" d="M260.517 687.461l8.796 0.275c15.174 0.348 11.747-3.702 11.747 10.72l-9.364 7.642-11.179-18.637z" />
<glyph unicode="&#xe954;" d="M221.612 680.149l21.313 0.495-12.351 17.006z" />
<glyph unicode="&#xe955;" d="M242.778 635.673c14.221-15.302-18.619-8.137 19.425-13.085l-12.681 17.043-6.744-3.958z" />
<glyph unicode="&#xe956;" d="M297.865 451.134l20.341-12.718-12.516 17.006z" />
<glyph unicode="&#xe957;" d="M296.93 569.719l21.313-10.83-12.81 15.265z" />
<glyph unicode="&#xe958;" d="M279.118 451.262l-7.495 3.738-9.878-18.069z" />
<glyph unicode="&#xe959;" d="M107.901 637.762l-4.636 5.608-9.658-24.098z" />
</font>
</defs>
</svg>
