<?xml version="1.0" encoding="UTF-8"?>
<!DOCTYPE svg PUBLIC "-//W3C//DTD SVG 1.1//EN" "http://www.w3.org/Graphics/SVG/1.1/DTD/svg11.dtd">
<!-- Creator: CorelDRAW 2017 -->
<svg xmlns="http://www.w3.org/2000/svg" xml:space="preserve" width="39.9626mm" height="12.9538mm" version="1.1" style="shape-rendering:geometricPrecision; text-rendering:geometricPrecision; image-rendering:optimizeQuality; fill-rule:evenodd; clip-rule:evenodd"
viewBox="0 0 3996.26 1295.38"
 xmlns:xlink="http://www.w3.org/1999/xlink">
 <defs>
  <style type="text/css">
   <![CDATA[
    .fil0 {fill:#FEFEFE}
   ]]>
  </style>
 </defs>
 <g id="Capa_x0020_1">
  <metadata id="CorelCorpID_0Corel-Layer"/>
  <path class="fil0" d="M699.57 429.2c1.45,120.1 -39.44,221.89 -122.86,305.62 -83.28,83.57 -185.51,125.81 -306.52,126.46l-269.59 2.25 0 -863.06 267.44 -0.05c119.55,0 220.99,41.59 304.41,124.86 83.28,83.27 125.81,184.56 127.12,304.02l0 -0.1zm-146.73 1.05c-0.8,-79.47 -28.48,-146.58 -83.18,-201.28 -54.69,-54.55 -121.95,-81.97 -201.67,-81.97l-120.56 0 0 567.35 121.66 0.05c79.72,-0.65 147.13,-28.48 202.18,-83.03 55.09,-54.69 82.22,-121.8 81.57,-201.27l0 0.15zm449.39 12.16c-39.83,0 -73.86,14.01 -102.09,41.84 -28.22,27.82 -42.39,61.7 -42.39,101.43l0 274.5 -146.67 0 0 -274.5c0,-81.02 28.22,-149.48 84.72,-205.63 56.5,-56.14 125.41,-84.07 206.43,-84.07l0 146.33 0 0.1zm665.88 417.87l-155.98 0 -30.73 -84.73c-58,68.06 -131.87,102.09 -221.89,102.09 -81.18,0 -149.89,-28.22 -206.03,-84.72 -56.15,-56.5 -84.23,-125.01 -84.23,-205.38 0,-61.71 17.47,-117.21 52.3,-166.85 34.83,-49.64 81.17,-85.02 139.02,-106.04 34.18,-12.31 67.41,-18.52 99.99,-18.52 61.55,0 117.2,17.62 166.84,52.7 49.65,35.08 84.88,81.67 105.95,139.67l134.76 371.83 0 -0.05zm-264.13 -273.39c0,-51 -20.67,-90.58 -61.95,-118.76 -23.82,-16.96 -51.4,-25.27 -82.62,-25.27 -50.7,0 -89.93,20.27 -117.31,61.05 -17.46,25.68 -26.22,53.1 -26.22,83.03 0,50.19 20.67,89.52 61.95,117.7 25.28,17.46 52.55,26.22 81.58,26.22 39.83,0 73.86,-13.91 102.09,-41.98 28.32,-27.93 42.48,-61.96 42.48,-101.94l0 -0.05zm815.77 417.86c0,104.49 -42.79,184.86 -128.17,241.36 -49.39,32.58 -103.29,48.85 -161.94,48.85 -102.99,0 -183.36,-43.04 -241.36,-129.37 -33.23,-49.89 -49.89,-103.69 -49.89,-160.89 0,-37.58 7.15,-73.86 21.72,-108.69l135.87 54.39c-7.16,17.37 -10.86,35.49 -10.86,54.3 0,39.84 14.16,73.77 42.38,101.69 28.23,27.93 62.36,41.84 102.24,41.84 39.19,0 72.82,-14.16 101.04,-42.64 28.23,-28.47 42.39,-62.1 42.39,-101.44 0,-63.95 -30.08,-108.69 -90.03,-134.27 -18.12,4.36 -36.03,6.51 -54.15,6.51 -81.67,0 -150.53,-28.08 -206.58,-84.22 -56.05,-56.15 -84.07,-125.11 -84.07,-207.09 0,-81.17 28.07,-149.88 84.32,-205.88 56.25,-56 125.01,-84.22 205.78,-84.22l84.73 -201.13 116.1 49.25 -77.22 180.05c51.1,24.63 91.88,60.41 122.06,107.65 30.17,47.24 45.54,98.54 45.54,154.23 0,82.63 -30.08,152.14 -90.18,208.79 60.25,57.2 90.18,127.51 90.18,210.78l0.1 0.15zm-146.73 -419.62c0,-39.18 -14.16,-72.81 -42.39,-101.03 -28.22,-28.23 -61.95,-42.39 -101.04,-42.39 -39.83,0 -73.86,13.91 -102.24,41.84 -28.37,27.92 -42.38,61.85 -42.38,101.53 0,39.84 14.16,73.87 42.38,102.24 28.23,28.38 62.36,42.39 102.24,42.39 39.84,0 73.77,-14.16 101.54,-42.39 27.78,-28.22 41.84,-62.35 41.84,-102.24l0.05 0.05zm614.79 -289.05l-268.54 564.2 -271.69 -564.2 173.96 0 98.88 231.45 98.89 -231.45 168.6 0 -0.1 0zm510.29 289.35c0,14.32 -1.05,28.88 -3.3,43.29l-425.07 0c9.41,30.48 26.72,54.95 52.14,73.37 25.43,18.41 54.05,27.82 85.83,27.82 44.24,0 80.77,-17.06 109.75,-51.09l89.12 118.5c-55.74,52.85 -122.05,79.32 -199.02,79.32 -81.82,0 -150.93,-28.08 -206.93,-84.07 -56,-56 -84.23,-125.01 -84.23,-206.69 0,-81.02 28.23,-149.48 84.73,-205.63 56.5,-56.14 125.41,-84.07 206.43,-84.07 81.17,0 149.88,27.93 206.03,83.82 56.15,55.9 84.22,124.46 84.22,205.48l0.3 -0.05zm-164.19 -66.5c-26.72,-50.7 -68.86,-76.12 -126.06,-76.12 -58,0 -100.39,25.42 -127.11,76.12l253.32 0 -0.15 0zm574.5 174.65c0,34.83 -11.66,66.36 -34.83,94.68 -46.34,56.65 -112.29,83.93 -197.82,81.67 -34.03,-0.8 -71.21,-8.35 -111.35,-22.77 -40.13,-14.41 -73.11,-32.57 -98.38,-54.39l81.57 -105.4c39.18,36.94 80.77,55.5 125.01,55.5l3.3 -0.05c18.12,0 34.43,-3.3 48.84,-9.81 18.82,-8.75 28.33,-21.06 28.33,-36.93l0 -4.35c-2.25,-16.67 -13.36,-28.63 -33.78,-35.88 -7.96,-1.46 -24.87,-4.66 -51,-9.81 -32.57,-6.51 -60.25,-14.42 -82.62,-23.82 -65.96,-28.33 -98.89,-77.97 -98.89,-148.98 0,-68.21 33.63,-119.16 101.04,-153.19 29.68,-15.21 61.96,-23.17 96.79,-23.97 36.28,-0.8 73.86,5.41 112.95,18.52 45.04,15.21 76.91,35.08 95.73,59.7l-97.83 88.03c-25.43,-26.08 -52.95,-39.19 -82.63,-39.19 -46.34,0 -69.51,15.22 -69.51,45.79l0 2.25c0,14.42 18.82,26.73 56.55,36.94 2.9,0.65 26.72,5.4 71.76,14.16 91.23,17.61 136.92,73.36 136.92,167.9l0 3.3 -0.15 0.1zm260.33 166.7c-81.17,0 -150.03,-28.08 -206.58,-84.08 -56.55,-56 -84.72,-124.86 -84.72,-205.78l0 -569.9 146.83 0.05 0 295.66 144.62 0 0 125.01 -144.62 0 0 148.98c0,39.84 14.16,73.77 42.38,101.69 28.23,27.92 62.36,41.84 102.09,41.84l0 146.73 0 -0.2zm126.71 -689.16c0,24.62 -8.2,45.44 -24.87,62.51 -16.66,17.06 -37.33,25.57 -61.95,25.57 -24.62,0 -45.44,-8.61 -62.51,-25.57 -17.06,-16.97 -25.57,-37.89 -25.57,-62.51 0,-24.62 8.61,-45.29 25.57,-61.95 16.97,-16.67 37.89,-24.87 62.51,-24.87 23.97,0 44.49,8.45 61.45,25.57 16.97,17.11 25.57,37.48 25.57,61.45l-0.2 -0.2zm-13.11 689.16l-146.73 0 0 -564.2 146.73 0 0 564.2z"/>
 </g>
</svg>
