<?xml version="1.0" encoding="UTF-8"?>
<!DOCTYPE svg PUBLIC "-//W3C//DTD SVG 1.1//EN" "http://www.w3.org/Graphics/SVG/1.1/DTD/svg11.dtd">
<!-- Creator: CorelDRAW 2017 -->
<svg xmlns="http://www.w3.org/2000/svg" xml:space="preserve" width="7.6198mm" height="7.6198mm" version="1.1" style="shape-rendering:geometricPrecision; text-rendering:geometricPrecision; image-rendering:optimizeQuality; fill-rule:evenodd; clip-rule:evenodd"
viewBox="0 0 761.98 761.98"
 xmlns:xlink="http://www.w3.org/1999/xlink">
 <defs>
  <style type="text/css">
   <![CDATA[
    .fil0 {fill:none}
    .fil1 {fill:#111111}
    .fil2 {fill:white}
   ]]>
  </style>
 </defs>
 <g id="Capa_x0020_1">
  <metadata id="CorelCorpID_0Corel-Layer"/>
  <rect class="fil0" x="-0" y="-0" width="761.99" height="761.99"/>
  <g id="_1819029859616">
   <path class="fil1" d="M501.6 569.52c0.51,-8.64 4.1,-13.87 2.78,-23.67 -0.99,-7.27 -4.79,-12.61 -6.02,-19.47 14.95,1.23 24.34,36.98 3.24,43.14zm-6.06 -49c-3.04,-2.1 -14.06,-15.67 -15.28,-20.58 11.15,-1.8 23.47,11.87 15.28,20.58zm-158.04 -24.65c11.66,-2.39 26.59,-2.48 38.9,-3.82 5.23,-0.57 5.89,-0.95 8.7,2.18 2.02,2.24 3.02,3.69 4.91,5.99 2.55,3.1 7.5,8.53 9.27,12.28 -8.11,2.14 -18.43,4.73 -23.29,9.53 -8.17,8.06 -11.25,16.07 -14.43,17.43 -3.99,-5.38 -6.45,-17.29 -10.26,-23.94 -3.5,-6.11 -11.91,-13.55 -13.8,-19.65zm52.87 -8.36c-20.55,-0.26 -43.14,4.77 -64.7,5.1 -18.86,0.28 -81.66,0.94 -70.13,-30.93 3.32,-9.16 10.62,-11.38 20.76,-14.34 19.09,-5.57 41.31,-7.72 62.5,-5.22 0.83,21.59 15.9,13.36 20.5,16.94 2.73,3.56 3.95,9.85 6.51,13.11 6.22,7.92 34.74,8.96 41.92,-2.65 4.23,-6.84 1.73,-7.05 11.57,-7.29 6.05,-0.14 10.93,-1.42 16.14,1.16 5.34,2.65 24.58,21.66 29.51,26.67 9.33,9.48 18.37,18.61 25.73,30.42 19.85,31.87 12.06,54.79 -20.19,71.82 -8.41,4.45 -18.85,6.48 -26.47,10.95 -12.96,7.61 -42.12,13.28 -59.01,15.81 -20.61,3.09 -50.55,8.43 -57.71,-12.53 -3.22,-9.44 -4.39,-23.58 1.19,-31.4 2.83,-3.96 6.2,-5.3 11.6,-7.12 6.86,-2.32 3.73,-7.19 9.16,-9.65 0.97,3.28 2.25,5.97 1.32,10.27l-7.86 0.71c2.36,3.51 5.88,3.76 10.44,3.03l2.47 -5.22c4.71,-0.74 4.74,1.89 8.18,-0.29 -0.57,-3.31 -2.46,-3.1 -6.27,-3.91 -0.26,-14.7 15.11,-33.93 21.8,-39.15 17.84,-13.91 36.19,-5.64 49.04,-4.81 -4.41,-2.47 -5.27,-3.62 -11.75,-4.86 -21.38,-4.11 -14.78,-6.58 -28.22,-22.35 1.45,-2.78 1.72,-0.89 1.97,-4.27zm-49.59 -44.91c19.65,1.99 32.9,4.41 53.6,2.83 21.03,-1.61 40.97,-9.65 45.11,-9.16l1.24 0.37c2.68,10.01 -3.02,20.34 -11.44,21.57 -5.47,0.8 -11.58,-0.13 -17.05,0.35 -5.36,0.47 -5.35,4.16 -7.95,8.29 -4.76,7.57 -15.63,8.83 -26.79,6.77 -10.81,-1.99 -12.81,-8.33 -13.88,-19.58 -11.14,-0.87 -20.14,-0.72 -22.84,-11.44zm-243.38 28.29c17.21,-1.56 14.39,4.82 31.65,-3.84 9.98,-5.01 19.64,1.87 28.9,3.85 22.91,4.92 42.84,-6.52 51.18,-19.72 6.96,-10.99 3.5,-14.12 18.8,-17.86 23.43,-5.73 9.34,0.47 23.94,-11.94 15.24,-12.94 43.41,3.69 43.24,18.94 -24.03,4.21 -28.62,13.24 -42.75,8.4 3.96,13.29 -5.93,14.65 0.83,29.16 6.34,13.61 20.41,7.09 15.47,17.25 2.76,-1.21 5.71,-3.47 9.27,-1.45 6.77,3.83 8.91,20.4 19.36,15.96 -3.1,-3.08 -12.85,-6.59 -14.82,-16.18 19.75,0.25 11.43,4.91 16.95,11.28 2.07,-10.8 3.77,-11.2 21.63,-9.73 20.41,1.69 18.62,7.68 27.32,21.88 9.8,16.02 7.59,14.56 4.45,39.75 -10.8,-1.7 -5.99,2.48 -13.95,7.04 -7.33,4.2 -10.88,-2.79 -18.63,-2.3 -2.57,18.19 8.94,34.75 -2.82,49.49 -7.88,9.89 -22.51,17.14 -37.29,22.77 -36.79,14.01 -69.7,5.17 -89.68,-16.64l-27.03 -33.03c-8.36,-11.37 -16.67,-22.39 -25.01,-34.27 -7.45,-10.6 -40.51,-64.15 -41.01,-78.81zm159.93 -60.76c-1.15,19.66 -38.01,19.16 -43.51,24.68 -2,2.02 -3.94,8.29 -5.79,11.38 -11.24,18.84 -35.86,29.31 -57.52,20.45 -17.05,-6.98 -7.93,-8.78 -23.41,-1.53 -20.66,9.68 -39.08,3.21 -38.97,-20.67 0.16,-38.54 33.64,-64.97 57.02,-79.04 13.03,-7.83 33.37,-15.72 51.77,-16.39 4.07,-0.15 12.58,-0.09 15.41,2.06 4.08,3.11 -0.1,8.35 -1.29,12.37 -1.7,5.7 0,9.78 -0.34,15.43 -0.3,4.88 -3.19,7.46 -4.89,10.42l6.72 -4.86c11.89,12.9 14.54,6.5 23.5,11.55 7.47,4.21 15.53,8.89 21.3,14.15zm261.16 -173.39c33.59,-4.98 73.76,33.15 84.91,48.67 29.04,40.41 5.52,78.96 -38.63,66.72 -10.72,-2.97 -14.36,-10.81 -25.04,-2.56 -64.45,49.81 -90.42,-102.58 -21.24,-112.83zm-280.09 46.79c-8.4,-10.18 -5.01,-24.4 3.32,-31.38 16.48,-13.78 55.23,-5.96 36.39,5.96 -9.51,6.02 -33.94,24.13 -39.71,25.42zm209.79 -44.08c4.43,-3.32 7.81,-12.58 10.76,-18.17 23.98,-45.29 74.72,-79.07 127.54,-49.98 13.05,7.19 23.82,15.51 33.07,23.9 2.71,2.46 4.49,5.05 7.25,7.54 11.86,10.69 10.19,9.21 20.64,21.49 13.1,15.41 39.15,55.73 16.76,78.96 -6.96,7.22 -25.5,18.68 -40.88,12.22 -9.77,-4.11 -6.37,-16.92 -21.16,-35.8 -12.38,-15.81 -39.54,-40.22 -68.77,-45.08 -36.08,-6.01 -55.19,22.15 -58.91,53.9 -2.56,21.89 4.55,51.08 18.72,65 5.48,5.38 12.14,5.76 17.4,10.69 -0.18,6.47 -5.04,13 -7.92,17.04 -1.89,2.67 -8.21,11.72 -10.82,13.62 -7.31,-2.29 -5.3,-13.64 -21.84,-14.1 -14.57,-0.42 -16.79,4.17 -22.85,12.87 -3.76,5.4 -5.4,2.61 -13.08,1.8 -20.3,-2.14 -18.2,28.7 -5.57,29.51 -4.89,-4.67 -11.05,-13.05 -5.71,-22.12 5.85,-9.93 14.48,-2.24 23.01,-1.24 4.15,-6.22 5.75,-12.94 12.79,-16.04 6.98,-3.07 16.66,-1.71 22.2,2.18 12.93,9.07 10.41,29.91 0.57,40.1 -21.09,21.85 -27.34,-1.09 -39.21,2.01 -2.86,0.75 -7.22,2.84 -10.28,3.89 -46.59,15.94 -86.15,9.55 -131.24,-6.33 -14.11,-4.97 -28.21,-10.35 -39.39,-17.55 -10,-6.43 -8.02,-5.96 -7.98,-19.91 0.02,-8.19 -0.75,-18.44 -8.62,-19.35 3.17,6.06 10.48,12.45 6.19,27.85 -10.61,1.01 -9.47,-4.68 -17.06,-7.16 -9.5,-3.09 -9.8,0.9 -16.66,-6.74 -7.38,-8.23 -4.53,-24.94 3.97,-35.18 4.24,1.78 5.6,7.06 9.35,9.58 -1.39,-7.82 -7.75,-8.72 -9.01,-16.13 -2.2,-12.89 3.32,-52.6 9.08,-65.07 2.77,1.7 5.04,7.11 7.87,9.81 6.66,-1.97 31.07,-19.57 38.16,-24.66 30.32,-21.75 -12.72,-17.7 -19.71,-21.89 3.92,-9.21 33.55,-28.28 46.03,-35.25 41.5,-23.16 85.43,-26.71 130,-9.51 48.34,18.64 15.55,18.2 15.31,43.3zm-207.98 -49.33c14.84,-3.29 29.32,3.16 37.66,10.44 16.35,14.26 0.07,16.17 -9.95,24.76 -2.38,2.03 -4.04,4.17 -6.28,6.18l-19.93 16.74c-23.01,17.9 3.92,42.67 -37.65,33.16 -6.83,-1.57 -12.8,-4.23 -16.9,-8.12 -19.73,-18.71 9.71,-73.53 53.05,-83.16zm17.4 -67.4c25.35,-2.04 50.53,7.51 63.3,20.79 8.02,8.33 12.42,12.77 18.27,24.64 10.06,20.44 0.37,19.03 -10.69,22.61 -12.03,3.9 -19.45,8.09 -29.38,13.46 -15.88,8.6 -7.96,1.52 -24.52,-9.73 -22.04,-14.97 -44.84,-7.21 -62.4,5.54 -31.69,23 -29.5,44.43 -34.04,51.01 -5.88,8.53 -30.84,-15.82 -17.23,-55.46 11.94,-34.79 50.83,-69.17 96.69,-72.86zm66.5 489.27c7.66,4.15 -0.06,15.36 43.67,12.47 31.68,-2.1 61.67,-9.93 90.16,-22.1 23.43,-10.01 25.17,-13.26 42.77,-28.23 12.03,-10.22 28.05,-23.31 9.14,-43.94 -10.97,-11.97 -6.92,-7.52 -9.24,-18.72 -1.66,-8 -6.36,-12.48 -14.99,-13.33 -11.07,-1.09 -12.25,-4.73 -17.68,-10.3 -9.21,-9.45 -19.78,-18 -29.64,-27.1 0.11,-5.95 2.94,-6.32 4.1,-11.15 1.28,-5.38 -0.41,-9.97 -0.24,-14.14 13.04,-1.6 16.78,5.39 29.06,1.69 22.99,-6.93 20.73,-29.56 26.48,-42.24 2.18,-4.81 9.04,-13.49 13.46,-20.86 4.66,-7.76 9.49,-10.96 18.56,-14.93 8.93,-3.92 13.51,-10.31 26.02,-6.54 20.39,6.16 41.35,6.85 54.81,-6.32 11.48,-11.25 7.55,-17.43 10.78,-22.72 3.29,-5.4 19.1,-3.35 28.06,-6.31 10.88,-3.58 14.32,-6.62 19.74,-14.58 4.92,-7.21 8.14,-15.77 7.5,-26.68 -1.04,-17.6 -13.03,-36.49 -21.09,-47.32 -11.06,-14.85 -20.51,-23.18 -33.01,-35.65l-18.35 -15.2c-44.74,-33.27 -94.51,-26.07 -129.77,16.05 -1.41,1.68 -6.82,8.2 -8,9.14 -8.81,7.03 -28.85,-16.71 -79.09,-20.62 -24.61,-1.92 -37.09,6.73 -42.6,-8.76 -12.48,-35.14 -48.35,-62.3 -97.61,-53.3 -67.89,12.4 -120.71,93.53 -80.16,131.07 16.03,14.84 14.62,30.98 34.8,33.08 11.98,1.25 20.67,0.61 19.64,14.97 -0.83,11.45 -2.71,19.36 -2.45,31.95 0.77,36.99 -1.33,-5.73 -71.07,28.96 -30.9,15.36 -55.18,39.12 -61.86,74.55 -3.72,19.75 7.23,38.31 13.86,53.51 17.25,39.57 41.52,72.97 66,104.04 14.87,18.87 28.46,40.58 55.25,47.71 28.63,7.62 58.63,1.58 82.47,-14.23 3.98,-2.64 6.1,-4.55 9.74,-7.42 2.81,-2.21 6.37,-6.57 10.78,-6.5z"/>
   <path class="fil1" d="M354.94 315.77c-2.98,29.38 -16.83,58.16 -33.43,69.91 -28.71,20.3 -47.12,-18.03 -46.63,-45.74 1.01,-57.15 55.96,-89.7 72.64,-67.85 7.87,10.31 8.96,28.36 7.42,43.68zm-110.42 7.29c-11.63,2.02 -7.73,38.25 13.27,37.49 7.41,-0.26 9.12,-5.19 14.16,-7.14 6.29,12.5 4.73,19.87 14.23,30.68 3.17,3.62 8.35,6.02 14.6,8.07 10.24,3.38 5.54,9.09 10.14,12.62 1.71,-7.96 -7.61,-6.38 7.92,-13.93 15.29,-7.44 27.3,-30.34 32.94,-46.69 4.57,-13.27 7.76,-30.97 6.49,-46.31 -1.43,-17.18 -7.5,-28.23 -18.9,-34 -25.09,-12.69 -52.06,26.14 -59.01,41.76 -4.53,10.16 -7.73,32.82 -13.36,39.65 -4.39,5.32 -13.77,5.3 -18.13,-0.31 -5.36,-6.92 -2,-15.66 -4.35,-21.89z"/>
   <path class="fil1" d="M373.92 354.83l-5.78 -0.07c-7.49,44.37 43.13,45.2 52.98,17.4 3.03,-8.58 -4.03,-16.48 -9.54,-7.95 -3.76,5.8 -5.13,13.15 -11.43,15.84 -7.53,3.21 -15.76,0.06 -19.81,-4.29 -5.11,-5.48 -5.3,-12.36 -6.42,-20.93z"/>
   <path class="fil1" d="M396.89 281.34c8.14,-3.69 28.78,14.8 31.19,17.87 6.01,7.66 13.73,28.71 5.06,38.98 -11.29,13.37 -33.05,-33.33 -36.98,-46.84 -1.97,-6.79 -2.3,-8.63 0.73,-10.01zm-0.38 -2.58c-8.79,2.76 -4.27,12.39 -1.55,19.24 2.79,7.04 5.93,13.5 9.13,19.71 3.95,7.65 17.89,32.13 29.18,24.51 11.22,-7.57 4.96,-34.35 -1.3,-43.01 -3.86,-5.35 -23.99,-24.05 -35.46,-20.45z"/>
   <path class="fil1" d="M344.94 425.72c-5.92,5.17 -42.02,-3.32 -51.26,-10.74l0.94 -0.74c1.66,-0.93 0.06,-0.24 1.62,-0.8 14.18,-5.14 43.38,4.19 48.7,12.28zm-52.65 -10.14c7.46,6.5 45.87,20.63 57.31,12.48 -0.08,-8.98 -15.58,-13.39 -24.61,-15.63 -8.79,-2.18 -28.69,-5.53 -32.7,3.15z"/>
   <path class="fil1" d="M160.21 403.08c-7.01,0.97 -27.61,13.76 -33,4.75 -3.25,-10.08 13.04,-16.23 15.83,-22.05 -7.65,1.79 -26.9,17.14 -17.58,25.58 8.12,7.36 29.98,-3.66 34.75,-8.28z"/>
   <path class="fil1" d="M165.63 500.48c4.24,10.59 16.92,24.59 15.75,38.17 -10.43,-2.35 -9.22,-11.52 -15.96,-13.88 1.54,7.59 9.57,17.57 18.82,16.33 1.07,-14.06 -11.65,-36.89 -18.61,-40.62z"/>
   <path class="fil1" d="M259.95 503.43l-4.24 0.25 1.59 -10.38c-4.79,0.8 -5.31,2.45 -10.52,2.78l1.76 -11.92 -13.88 -1.06c2.25,5.86 7.34,9.44 11.22,13 4.03,3.7 6.35,10.38 14.07,7.33z"/>
   <path class="fil1" d="M256.29 547.94c2.67,7.99 14.09,16.48 15.18,31.69 -8.06,-2.06 -10.6,-11.15 -16.62,-15.6 0.62,3.11 8.91,19.08 19.04,18.86 2.91,-11.32 -12.08,-32.17 -17.6,-34.95z"/>
   <path class="fil1" d="M348.34 585.79c5.11,5.39 10.5,11.48 4.31,21.29 -6.42,10.16 -12.29,2.21 -17.23,-3.15 0.26,11.84 13.6,14.29 20.25,5.39 6.8,-9.1 2.81,-21.14 -7.33,-23.53z"/>
   <path class="fil1" d="M169.85 370.8c5.41,-0.35 33.24,-11.78 25.91,3.01 -3.32,6.71 -10.07,8.49 -13.5,14.2 5.3,-2.37 21.39,-13.38 17.78,-21.56 -3.47,-7.89 -26.46,0.38 -30.19,4.35z"/>
   <path class="fil1" d="M361.84 575.33l9.13 -3.9c0.17,6.14 -1.7,12.39 -5.51,15.4 -1.91,-0.93 -2.94,-2.47 -5.23,-3.97 -0.25,7.6 6.69,12.48 12.47,-0.19 2.07,-4.52 2.96,-9.52 2.11,-14.94 -6.37,-0.04 -11.14,3.27 -12.97,7.6z"/>
   <path class="fil1" d="M234.37 481.56c2.96,-1.81 5.35,-4.49 7.54,-7.59 -1.6,-2.3 -11.06,-9.41 -13.67,-10.14 -0.6,4.48 1.58,3.75 3.49,8.22 1.23,2.88 1.17,7.2 2.64,9.51z"/>
   <path class="fil1" d="M229.01 463.36c11.79,-0.83 11.17,-0.3 12.51,-15.23 -3.23,1.85 -11.2,11.91 -12.51,15.23z"/>
   <path class="fil2" d="M292.29 415.58c4.01,-8.68 23.91,-5.33 32.7,-3.15 9.03,2.24 24.53,6.65 24.61,15.63 -11.44,8.15 -49.85,-5.98 -57.31,-12.48zm81.63 -60.75c1.12,8.57 1.31,15.45 6.42,20.93 4.05,4.35 12.28,7.5 19.81,4.29 6.3,-2.69 7.67,-10.04 11.43,-15.84 5.51,-8.53 12.57,-0.63 9.54,7.95 -9.85,27.8 -60.47,26.97 -52.98,-17.4l5.78 0.07zm-129.4 -31.77c2.35,6.23 -1.01,14.97 4.35,21.89 4.36,5.61 13.74,5.63 18.13,0.31 5.63,-6.83 8.83,-29.49 13.36,-39.65 6.95,-15.62 33.92,-54.45 59.01,-41.76 11.4,5.77 17.47,16.82 18.9,34 1.27,15.34 -1.92,33.04 -6.49,46.31 -5.64,16.35 -17.65,39.25 -32.94,46.69 -15.53,7.55 -6.21,5.97 -7.92,13.93 -4.6,-3.53 0.1,-9.24 -10.14,-12.62 -6.25,-2.05 -11.43,-4.45 -14.6,-8.07 -9.5,-10.81 -7.94,-18.18 -14.23,-30.68 -5.04,1.95 -6.75,6.88 -14.16,7.14 -21,0.76 -24.9,-35.47 -13.27,-37.49zm151.99 -44.3c11.47,-3.6 31.6,15.1 35.46,20.45 6.26,8.66 12.52,35.44 1.3,43.01 -11.29,7.62 -25.23,-16.86 -29.18,-24.51 -3.2,-6.21 -6.34,-12.67 -9.13,-19.71 -2.72,-6.85 -7.24,-16.48 1.55,-19.24zm51.68 -39.31c0.24,-25.1 33.03,-24.66 -15.31,-43.3 -44.57,-17.2 -88.5,-13.65 -130,9.51 -12.48,6.97 -42.11,26.04 -46.03,35.25 6.99,4.19 50.03,0.14 19.71,21.89 -7.09,5.09 -31.5,22.69 -38.16,24.66 -2.83,-2.7 -5.1,-8.11 -7.87,-9.81 -5.76,12.47 -11.28,52.18 -9.08,65.07 1.26,7.41 7.62,8.31 9.01,16.13 -3.75,-2.52 -5.11,-7.8 -9.35,-9.58 -8.5,10.24 -11.35,26.95 -3.97,35.18 6.86,7.64 7.16,3.65 16.66,6.74 7.59,2.48 6.45,8.17 17.06,7.16 4.29,-15.4 -3.02,-21.79 -6.19,-27.85 7.87,0.91 8.64,11.16 8.62,19.35 -0.04,13.95 -2.02,13.48 7.98,19.91 11.18,7.2 25.28,12.58 39.39,17.55 45.09,15.88 84.65,22.27 131.24,6.33 3.06,-1.05 7.42,-3.14 10.28,-3.89 11.87,-3.1 18.12,19.84 39.21,-2.01 9.84,-10.19 12.36,-31.03 -0.57,-40.1 -5.54,-3.89 -15.22,-5.25 -22.2,-2.18 -7.04,3.1 -8.64,9.82 -12.79,16.04 -8.53,-1 -17.16,-8.69 -23.01,1.24 -5.34,9.07 0.82,17.45 5.71,22.12 -12.63,-0.81 -14.73,-31.65 5.57,-29.51 7.68,0.81 9.32,3.6 13.08,-1.8 6.06,-8.7 8.28,-13.29 22.85,-12.87 16.54,0.46 14.53,11.81 21.84,14.1 2.61,-1.9 8.93,-10.95 10.82,-13.62 2.88,-4.04 7.74,-10.57 7.92,-17.04 -5.26,-4.93 -11.92,-5.31 -17.4,-10.69 -14.17,-13.92 -21.28,-43.11 -18.72,-65 3.72,-31.75 22.83,-59.91 58.91,-53.9 29.23,4.86 56.39,29.27 68.77,45.08 14.79,18.88 11.39,31.69 21.16,35.8 15.38,6.46 33.92,-5 40.88,-12.22 22.39,-23.23 -3.66,-63.55 -16.76,-78.96 -10.45,-12.28 -8.78,-10.8 -20.64,-21.49 -2.76,-2.49 -4.54,-5.08 -7.25,-7.54 -9.25,-8.39 -20.02,-16.71 -33.07,-23.9 -52.82,-29.09 -103.56,4.69 -127.54,49.98 -2.95,5.59 -6.33,14.85 -10.76,18.17z"/>
   <path class="fil2" d="M256.29 547.94c5.52,2.78 20.51,23.63 17.6,34.95 -10.13,0.22 -18.42,-15.75 -19.04,-18.86 6.02,4.45 8.56,13.54 16.62,15.6 -1.09,-15.21 -12.51,-23.7 -15.18,-31.69zm-90.66 -47.46c6.96,3.73 19.68,26.56 18.61,40.62 -9.25,1.24 -17.28,-8.74 -18.82,-16.33 6.74,2.36 5.53,11.53 15.96,13.88 1.17,-13.58 -11.51,-27.58 -15.75,-38.17zm90.08 3.2l4.24 -0.25c-7.72,3.05 -10.04,-3.63 -14.07,-7.33 -3.88,-3.56 -8.97,-7.14 -11.22,-13l13.88 1.06 -1.76 11.92c5.21,-0.33 5.73,-1.98 10.52,-2.78l-1.59 10.38zm-13.8 -29.71c-2.19,3.1 -4.58,5.78 -7.54,7.59 -1.47,-2.31 -1.41,-6.63 -2.64,-9.51 -1.91,-4.47 -4.09,-3.74 -3.49,-8.22 2.61,0.73 12.07,7.84 13.67,10.14zm-12.9 -10.61c1.31,-3.32 9.28,-13.38 12.51,-15.23 -1.34,14.93 -0.72,14.4 -12.51,15.23zm-131.61 7.53c0.5,14.66 33.56,68.21 41.01,78.81 8.34,11.88 16.65,22.9 25.01,34.27l27.03 33.03c19.98,21.81 52.89,30.65 89.68,16.64 14.78,-5.63 29.41,-12.88 37.29,-22.77 11.76,-14.74 0.25,-31.3 2.82,-49.49 7.75,-0.49 11.3,6.5 18.63,2.3 7.96,-4.56 3.15,-8.74 13.95,-7.04 3.14,-25.19 5.35,-23.73 -4.45,-39.75 -8.7,-14.2 -6.91,-20.19 -27.32,-21.88 -17.86,-1.47 -19.56,-1.07 -21.63,9.73 -5.52,-6.37 2.8,-11.03 -16.95,-11.28 1.97,9.59 11.72,13.1 14.82,16.18 -10.45,4.44 -12.59,-12.13 -19.36,-15.96 -3.56,-2.02 -6.51,0.24 -9.27,1.45 4.94,-10.16 -9.13,-3.64 -15.47,-17.25 -6.76,-14.51 3.13,-15.87 -0.83,-29.16 14.13,4.84 18.72,-4.19 42.75,-8.4 0.17,-15.25 -28,-31.88 -43.24,-18.94 -14.6,12.41 -0.51,6.21 -23.94,11.94 -15.3,3.74 -11.84,6.87 -18.8,17.86 -8.34,13.2 -28.27,24.64 -51.18,19.72 -9.26,-1.98 -18.92,-8.86 -28.9,-3.85 -17.26,8.66 -14.44,2.28 -31.65,3.84z"/>
   <path class="fil2" d="M348.34 585.79c10.14,2.39 14.13,14.43 7.33,23.53 -6.65,8.9 -19.99,6.45 -20.25,-5.39 4.94,5.36 10.81,13.31 17.23,3.15 6.19,-9.81 0.8,-15.9 -4.31,-21.29zm13.5 -10.46c1.83,-4.33 6.6,-7.64 12.97,-7.6 0.85,5.42 -0.04,10.42 -2.11,14.94 -5.78,12.67 -12.72,7.79 -12.47,0.19 2.29,1.5 3.32,3.04 5.23,3.97 3.81,-3.01 5.68,-9.26 5.51,-15.4l-9.13 3.9zm28.53 -87.82c-0.25,3.38 -0.52,1.49 -1.97,4.27 13.44,15.77 6.84,18.24 28.22,22.35 6.48,1.24 7.34,2.39 11.75,4.86 -12.85,-0.83 -31.2,-9.1 -49.04,4.81 -6.69,5.22 -22.06,24.45 -21.8,39.15 3.81,0.81 5.7,0.6 6.27,3.91 -3.44,2.18 -3.47,-0.45 -8.18,0.29l-2.47 5.22c-4.56,0.73 -8.08,0.48 -10.44,-3.03l7.86 -0.71c0.93,-4.3 -0.35,-6.99 -1.32,-10.27 -5.43,2.46 -2.3,7.33 -9.16,9.65 -5.4,1.82 -8.77,3.16 -11.6,7.12 -5.58,7.82 -4.41,21.96 -1.19,31.4 7.16,20.96 37.1,15.62 57.71,12.53 16.89,-2.53 46.05,-8.2 59.01,-15.81 7.62,-4.47 18.06,-6.5 26.47,-10.95 32.25,-17.03 40.04,-39.95 20.19,-71.82 -7.36,-11.81 -16.4,-20.94 -25.73,-30.42 -4.93,-5.01 -24.17,-24.02 -29.51,-26.67 -5.21,-2.58 -10.09,-1.3 -16.14,-1.16 -9.84,0.24 -7.34,0.45 -11.57,7.29 -7.18,11.61 -35.7,10.57 -41.92,2.65 -2.56,-3.26 -3.78,-9.55 -6.51,-13.11 -4.6,-3.58 -19.67,4.65 -20.5,-16.94 -21.19,-2.5 -43.41,-0.35 -62.5,5.22 -10.14,2.96 -17.44,5.18 -20.76,14.34 -11.53,31.87 51.27,31.21 70.13,30.93 21.56,-0.33 44.15,-5.36 64.7,-5.1z"/>
   <path class="fil2" d="M518.49 236.74c-69.18,10.25 -43.21,162.64 21.24,112.83 10.68,-8.25 14.32,-0.41 25.04,2.56 44.15,12.24 67.67,-26.31 38.63,-66.72 -11.15,-15.52 -51.32,-53.65 -84.91,-48.67z"/>
   <path class="fil2" d="M160.21 403.08c-4.77,4.62 -26.63,15.64 -34.75,8.28 -9.32,-8.44 9.93,-23.79 17.58,-25.58 -2.79,5.82 -19.08,11.97 -15.83,22.05 5.39,9.01 25.99,-3.78 33,-4.75zm9.64 -32.28c3.73,-3.97 26.72,-12.24 30.19,-4.35 3.61,8.18 -12.48,19.19 -17.78,21.56 3.43,-5.71 10.18,-7.49 13.5,-14.2 7.33,-14.79 -20.5,-3.36 -25.91,-3.01zm87.48 39.33c-5.77,-5.26 -13.83,-9.94 -21.3,-14.15 -8.96,-5.05 -11.61,1.35 -23.5,-11.55l-6.72 4.86c1.7,-2.96 4.59,-5.54 4.89,-10.42 0.34,-5.65 -1.36,-9.73 0.34,-15.43 1.19,-4.02 5.37,-9.26 1.29,-12.37 -2.83,-2.15 -11.34,-2.21 -15.41,-2.06 -18.4,0.67 -38.74,8.56 -51.77,16.39 -23.38,14.07 -56.86,40.5 -57.02,79.04 -0.11,23.88 18.31,30.35 38.97,20.67 15.48,-7.25 6.36,-5.45 23.41,1.53 21.66,8.86 46.28,-1.61 57.52,-20.45 1.85,-3.09 3.79,-9.36 5.79,-11.38 5.5,-5.52 42.36,-5.02 43.51,-24.68z"/>
   <path class="fil2" d="M257.61 122.72c-45.86,3.69 -84.75,38.07 -96.69,72.86 -13.61,39.64 11.35,63.99 17.23,55.46 4.54,-6.58 2.35,-28.01 34.04,-51.01 17.56,-12.75 40.36,-20.51 62.4,-5.54 16.56,11.25 8.64,18.33 24.52,9.73 9.93,-5.37 17.35,-9.56 29.38,-13.46 11.06,-3.58 20.75,-2.17 10.69,-22.61 -5.85,-11.87 -10.25,-16.31 -18.27,-24.64 -12.77,-13.28 -37.95,-22.83 -63.3,-20.79z"/>
   <path class="fil2" d="M354.94 315.77c1.54,-15.32 0.45,-33.37 -7.42,-43.68 -16.68,-21.85 -71.63,10.7 -72.64,67.85 -0.49,27.71 17.92,66.04 46.63,45.74 16.6,-11.75 30.45,-40.53 33.43,-69.91z"/>
   <path class="fil2" d="M240.21 190.12c-43.34,9.63 -72.78,64.45 -53.05,83.16 4.1,3.89 10.07,6.55 16.9,8.12 41.57,9.51 14.64,-15.26 37.65,-33.16l19.93 -16.74c2.24,-2.01 3.9,-4.15 6.28,-6.18 10.02,-8.59 26.3,-10.5 9.95,-24.76 -8.34,-7.28 -22.82,-13.73 -37.66,-10.44z"/>
   <path class="fil2" d="M340.78 442.6c2.7,10.72 11.7,10.57 22.84,11.44 1.07,11.25 3.07,17.59 13.88,19.58 11.16,2.06 22.03,0.8 26.79,-6.77 2.6,-4.13 2.59,-7.82 7.95,-8.29 5.47,-0.48 11.58,0.45 17.05,-0.35 8.42,-1.23 14.12,-11.56 11.44,-21.57l-1.24 -0.37c-4.14,-0.49 -24.08,7.55 -45.11,9.16 -20.7,1.58 -33.95,-0.84 -53.6,-2.83z"/>
   <path class="fil2" d="M337.5 495.87c1.89,6.1 10.3,13.54 13.8,19.65 3.81,6.65 6.27,18.56 10.26,23.94 3.18,-1.36 6.26,-9.37 14.43,-17.43 4.86,-4.8 15.18,-7.39 23.29,-9.53 -1.77,-3.75 -6.72,-9.18 -9.27,-12.28 -1.89,-2.3 -2.89,-3.75 -4.91,-5.99 -2.81,-3.13 -3.47,-2.75 -8.7,-2.18 -12.31,1.34 -27.24,1.43 -38.9,3.82z"/>
   <path class="fil2" d="M396.89 281.34c-3.03,1.38 -2.7,3.22 -0.73,10.01 3.93,13.51 25.69,60.21 36.98,46.84 8.67,-10.27 0.95,-31.32 -5.06,-38.98 -2.41,-3.07 -23.05,-21.56 -31.19,-17.87z"/>
   <path class="fil2" d="M238.4 283.53c5.77,-1.29 30.2,-19.4 39.71,-25.42 18.84,-11.92 -19.91,-19.74 -36.39,-5.96 -8.33,6.98 -11.72,21.2 -3.32,31.38z"/>
   <path class="fil2" d="M344.94 425.72c-5.32,-8.09 -34.52,-17.42 -48.7,-12.28 -1.56,0.56 0.04,-0.13 -1.62,0.8l-0.94 0.74c9.24,7.42 45.34,15.91 51.26,10.74z"/>
   <path class="fil2" d="M501.6 569.52c21.1,-6.16 11.71,-41.91 -3.24,-43.14 1.23,6.86 5.03,12.2 6.02,19.47 1.32,9.8 -2.27,15.03 -2.78,23.67z"/>
   <path class="fil2" d="M495.54 520.52c8.19,-8.71 -4.13,-22.38 -15.28,-20.58 1.22,4.91 12.24,18.48 15.28,20.58z"/>
  </g>
 </g>
</svg>
