<?xml version="1.0" encoding="UTF-8"?>
<!DOCTYPE svg PUBLIC "-//W3C//DTD SVG 1.1//EN" "http://www.w3.org/Graphics/SVG/1.1/DTD/svg11.dtd">
<!-- Creator: CorelDRAW 2017 -->
<svg xmlns="http://www.w3.org/2000/svg" xml:space="preserve" width="6.7732mm" height="6.7732mm" version="1.1" style="shape-rendering:geometricPrecision; text-rendering:geometricPrecision; image-rendering:optimizeQuality; fill-rule:evenodd; clip-rule:evenodd"
viewBox="0 0 677.32 677.32"
 xmlns:xlink="http://www.w3.org/1999/xlink">
 <defs>
  <style type="text/css">
   <![CDATA[
    .fil0 {fill:none}
    .fil3 {fill:black}
    .fil1 {fill:#313131}
    .fil5 {fill:#5C5C5C}
    .fil2 {fill:#FEFEFE}
    .fil4 {fill:white}
   ]]>
  </style>
 </defs>
 <g id="Capa_x0020_1">
  <metadata id="CorelCorpID_0Corel-Layer"/>
  <rect class="fil0" x="-0" y="-0" width="677.33" height="677.33"/>
  <g id="_1819039165184">
   <path class="fil1" d="M194.2 106.81c5.3,0.67 8.71,4.81 12.2,7.11 10.19,6.71 11.29,6.73 20.38,17.04 2.13,2.42 4.43,4.43 4.56,10.12 0.07,3.43 0.74,3.32 -2.15,3.27 0.92,0.89 1.6,2.02 3.05,1 0.23,-0.17 2.2,-2.66 2.56,-3.01 1.08,0.42 0.47,-0.12 1.05,1.27l0.61 -4.19c-0.18,-1.41 -0.56,-3.43 -0.87,-4.77 -1.28,-5.58 -11.02,-14.55 -15.02,-17.44 -6.22,-4.49 -2.88,-3.45 -12.06,-9.16 -2.4,-1.49 -4.32,-2.51 -6.64,-3.95 -3.08,-1.9 -4.69,-2.61 -4.45,-7.03l-0.5 1.07c-0.39,1.13 -0.19,0.59 -0.47,1.6 -0.46,1.65 0.3,0.56 -1.05,2.54 -1.55,2.27 -1.91,1.56 -1.2,4.53z"/>
   <path class="fil1" d="M235.89 102.31c1.91,-1.04 1.96,-0.51 4.07,-0.97 1.61,-1.81 2.4,-1.25 5.11,-0.68l0.75 -2.98c-1.97,-2.49 -3.46,-1.67 -6.28,-0.57 -2.54,1 -3.31,2.23 -3.65,5.2z"/>
   <path class="fil2" d="M245.07 100.66c-2.71,-0.57 -3.5,-1.13 -5.11,0.68 -1.83,7.37 -3.23,3.81 -1.47,12.85 -3.67,-0.63 -4.62,-2.42 -6.33,-4.83l-19.53 -17.87c-9.44,-7.7 -5,-16.32 -6.32,-30.44 -2.27,-0.83 -4.77,-2.95 -8.25,-2.47 -2.14,0.29 -5.01,2.03 -7.65,2.73 -0.31,7.74 5.1,12.28 8.05,16.88 1.68,2.62 3.04,5.78 2.61,9.77 -0.46,4.13 -2.62,4.41 -3.65,9.11 -0.24,4.42 1.37,5.13 4.45,7.03 2.32,1.44 4.24,2.46 6.64,3.95 9.18,5.71 5.84,4.67 12.06,9.16 4,2.89 13.74,11.86 15.02,17.44 0.31,1.34 0.69,3.36 0.87,4.77l-0.61 4.19c1.61,7.59 6.24,13.38 1.2,21.51 -3.56,5.75 -11.84,9.04 -20.44,5.96 -17.23,-6.16 -21.29,-12.45 -27.34,-30.03 -12.13,-35.24 21.6,-45.41 -8.44,-78.28 -0.8,-0.88 -2.34,-2.64 -3.05,-3.82 -0.92,-1.52 -1.2,-3.6 -2.22,-5.33 -9.25,0.7 -11.81,7.38 -7.1,15.29 3.75,6.31 10.46,10.05 10.07,17.13 -0.18,3.23 -1.94,6.86 -2.55,10.43l-3.48 23.97c0.34,4.8 7.4,4.55 4.73,7.39 -4.74,3.71 -17.2,-10.63 -23.5,-11.78 -3.32,5.4 -5.98,9.28 -0.53,13.66 3.77,3.03 9,4.3 13.36,7.22 15.57,10.42 12.29,28.24 25.19,37.19 14.64,10.16 16.92,9.17 30.57,9.6 7.75,0.24 9.31,4.75 13.1,7.77 2.38,-0.84 7.05,-4.01 8.4,-5.9 2.27,-3.2 -1.53,-5.8 1.49,-12.22 11.27,-23.97 3.26,-30.49 -0.92,-46.3 -4.24,-16.09 14.25,-18.41 0.68,-26.41z"/>
   <path class="fil2" d="M335.95 155.67c1.23,2.87 3.64,6.58 2.99,10.31 -1.51,2.19 -5.25,5.48 -9.27,3.7 -4.78,-2.11 -3.42,-4.83 -5.62,-8.84 -2.55,14.99 12.57,16.82 17.42,12.04 4.57,-4.52 5.14,-21.13 -12.14,-18.36l6.62 1.15z"/>
   <path class="fil3" d="M331.17 621.74c0.82,-9.77 6.47,-13.9 10.36,-20.21 16.1,-0.48 4.33,10.53 4.32,10.53 -2.72,4.74 1.68,6.3 -14.68,9.68zm0.64 4.6l-6.7 0c-0.16,-0.01 -0.32,-0.03 -0.47,-0.05 -17.35,-2 6.19,-28.96 10.15,-37.15l5.39 -11.44c5.17,4.6 -2.6,12.04 -1.41,16.38 3.32,2.57 6.93,0.91 10.15,3.56 1.73,1.42 5.01,6.04 6.98,6.85 2.24,-2.31 2.75,-4.95 5.01,-7.93 2.24,-2.97 4.92,-3.41 6.29,-7.44 2.29,-6.74 5.02,-42.95 3.82,-49.88 -1.09,-6.33 -3.81,-4.06 -4.71,-22.66 -1.14,-23.54 10.21,-45.78 3.66,-74.08 -1.41,-6.11 -6.45,-19.52 0.26,-21.48 0.83,3.53 0.49,6.21 0.82,9.94 0.26,2.94 1.33,6.24 2,9.04 1.5,6.26 1.73,12.48 3,18.63 1.97,1.09 4.2,0.13 6.49,-0.74 6.66,-2.52 11.11,-5.15 17.22,-7.75 4.51,-1.91 22.58,-7.65 27.21,-5.44 3.65,1.74 11.03,14.34 13.85,19.83 5.69,11.07 15.07,39.12 20.98,45.78 16.68,18.79 22.63,10.7 21.9,45.54 -0.11,5.26 0.14,10.95 -1.16,15.78 -1.14,4.25 -4.08,8.19 -4.48,12.3 2.36,1.57 6.24,2.16 9.18,3.83 3.42,1.94 4.27,4.57 7.59,5.49 6.69,-6.2 -0.95,-14.5 11.1,-21.72 0,-8.43 0.23,-16.66 0.82,-25.02 0.45,-6.47 2.55,-17.92 -0.39,-23.41 -1.24,-2.3 -3.99,-5.28 -5.68,-7.41 -19.09,-24.01 -8.88,-44.55 -2.22,-72.23 4,-16.6 1.51,-29.75 -4.2,-44.23 -5.02,-12.71 -11.17,-26.15 -19.25,-33.16 -10.39,-9.01 -18.49,-16.05 -32.77,-19.62 -23.92,-5.97 -26.61,6.57 -44.07,5.79 -8.41,-0.38 -16.18,-0.79 -24.15,-2.45 -5.7,-1.18 -18.43,-2.62 -24.21,-1.4 1.26,2.54 2.8,3.38 3.7,6.12 -8.11,-0.89 -10.3,-4.93 -13.62,-10.45 -16.17,-26.92 -20.96,-73.21 -28,-104.83 -1.62,-7.29 -6.39,-4.48 -11.65,-12.71 -1.86,-2.9 -2.88,-5.36 -2.15,-9.74 7.86,-2.13 2.93,10.6 24.29,18.15 14.45,5.1 21.74,6.31 34.05,-1.58 -0.5,-5.77 -8.65,-7.93 -18.42,-14.04 -39.14,-24.45 -24.58,-19.39 -41.12,-11.18 -4.72,2.34 -10.13,0.83 -12.06,-2.38 -2.06,-3.44 -1.49,-10.12 -2.31,-14.59 -2.72,0.26 -3.51,2.68 -6.05,1.71l-0.52 -4.33c-19.75,-4.18 -26.61,6.1 -30.53,8.11 -4.58,2.36 -4.06,-4.2 -9.84,0.05 -5.66,4.15 -4.02,11.44 -8.43,18.39 -2.6,4.1 -9.21,12.2 -8.58,18.26 8.52,6.88 12.34,4.61 11.38,11.27 -1.21,8.31 -5.24,10.49 -9.29,14.51 -4.63,4.6 -13.81,13.91 -12.04,22.26 0.52,2.45 1.43,7.6 2.48,9.43 6.76,-2.81 -2.1,-22.27 21.24,-20.28 9.59,0.82 10.44,10.33 21.17,20.82 6.85,6.7 17.76,12.74 28.59,4.29 12.41,-9.71 6.71,-15.93 8.55,-33.29 2.6,-0.82 5.81,-0.32 8.59,-0.12 -1.33,3.36 -1.19,3.29 -3.22,6.16 -6.96,9.84 4.2,13.38 -3.3,23.52 -5.75,7.79 -13.49,11.45 -21.68,17.61 -14.1,10.62 -3.79,23.15 -7.89,49.49 -0.86,5.5 -2.05,12.11 -0.78,17.59 5.27,-2.43 11.81,-9.57 19.28,0.76 4.33,5.98 7.27,12.59 10.38,20.18 2.87,7.04 5.56,15.18 8.97,21.59 2.12,3.98 3.09,6.02 5.61,9.36 2.75,3.63 4.96,3.75 6.37,9.44 -19.92,-6.04 -25.02,-60.53 -40.8,-61.88 -13.31,-1.14 -13.84,25.91 -11.06,37.42 2.24,9.25 5.57,19.61 11.39,26.66 1.86,2.25 4.66,4.33 5.34,8.04 7.28,-0.43 6.49,3.91 10.96,3.31l0.13 -4.98c3.26,1.23 5.25,4.06 7.34,6.05 2.42,2.31 4.08,3.57 7.52,5.57 5.2,3.03 11.06,7.8 17.97,8.81 -0.06,-15.4 -6.18,-16.73 -8.21,-28 3.15,0.84 4.33,2.36 5.91,5.38 4.53,8.65 25.18,88.16 25.76,94.68 0.32,3.53 0.39,32.83 -1.92,36.26 -1.36,2.04 -1.75,1.92 -3.13,1.11 0,-4.76 0.01,-8.63 0.51,-12.52 1.55,-12.15 0.75,-22.76 -1.88,-34.07 -0.63,-2.7 -9.38,-35.43 -11.72,-38.8 0,9.81 3.06,16.73 5.11,24.82 3.41,13.4 -1.54,11.72 -2.64,25.06l-6.84 52.42c-3.49,0.29 -6.16,0.29 -7.68,1.68 -1.97,1.8 -4.92,8.28 -14.31,11.88 -7.52,2.89 -22.36,4.5 -29.77,-0.46 0,-8.6 4.29,-12.23 10.46,-18.86 12.16,-13.08 17.67,-23.64 17.61,-45.39 -0.05,-15.6 -1.95,-28.26 -6.51,-39.66l-9.97 -19.34c-0.86,-1.43 -1.25,-2 -2.04,-3.57 -3.13,-6.23 -6.12,-19.25 -8.22,-26.09 -0.87,-2.82 -1.87,-6.12 -3.01,-8.84 -4.49,-10.67 -10.86,-15.45 -13.25,-32.9 -0.37,-2.67 -1.18,-7.57 -1.25,-9.99 -0.21,-7.65 5.05,-40.74 4.96,-52.99 -0.03,-4.55 0.6,-6.76 0.65,-10.58 0.06,-4.42 -0.77,-18.87 -1.9,-21.23 -0.98,-1.64 -5.84,-2.97 -7.4,-2.91 -2.72,0.1 -22.5,11.32 -34.58,-9.37 -1.39,-2.39 -2.48,-3.75 -3.9,-6.07 -1.41,-2.31 -2.59,-3.91 -3.8,-6.18 -1.09,-2.05 -2.76,-5.08 -3.44,-7.17 -1.81,-5.6 0.67,-7.09 1.01,-7.96 1.68,-4.41 -1.76,-4.54 5.87,-14.09 1.9,-2.39 3.47,-2.94 5.58,-5.02 6.26,-6.18 1.42,-4.83 -2.36,-21.08 -4.12,0.96 -4,0.59 -7.36,2.63 -5.62,3.4 -16.97,5.29 -23.31,1.85 -1.95,-1.05 -4.28,-2.71 -5.61,-4.37 -1.3,-1.63 -2.81,-3.59 -3.85,-5.5 -3.38,-6.17 -0.23,-8.36 4.57,-10.83 8.28,-4.26 16.82,-8.47 25.94,-12.11 7.52,-3.02 20.73,-7.71 24.58,-13.46 -0.63,-2.72 -1.86,-3.52 -2.49,-6.24 -10.2,0 -13.09,-0.37 -21.08,-2.62 -19.54,-5.5 -26.42,-18.72 -34,-35.23 -2.78,-6.04 -5.77,-9.12 -11.44,-12.26 -3.88,-2.15 -12.09,-5.59 -14.32,-8.75 -4.85,-6.85 2.15,-22.53 12.76,-16.51 2.62,1.49 4.24,3.01 8.22,3.01l0 -6.62c1.77,-1.94 2.81,-7.65 3.68,-10.89 5.36,-19.99 2.14,-12.8 -7.87,-31.31 -7.7,-14.22 8.3,-24.17 18.83,-10.13 0.66,0.88 0.85,1.52 1.49,2.28 1.41,1.7 -0.01,1.04 2.54,1.41 0.79,0.11 2.79,-0.08 3.66,-0.13 -0.31,7.74 5.1,12.28 8.05,16.88 1.68,2.62 3.04,5.78 2.61,9.77 -0.46,4.13 -2.62,4.41 -3.65,9.11l-0.5 1.07c-0.39,1.13 -0.19,0.59 -0.47,1.6 -0.46,1.65 0.3,0.56 -1.05,2.54 -1.55,2.27 -1.91,1.56 -1.2,4.53 -0.72,12 -4.3,13.38 -0.74,31.31 1.78,8.96 5.76,20.06 13.99,21.55 2.2,-4.86 2.39,-10.68 6.17,-13.62 2.92,-2.28 11.86,-5.18 15.57,-1.7 0.92,0.89 1.6,2.02 3.05,1 0.23,-0.17 2.2,-2.66 2.56,-3.01 1.08,0.42 0.47,-0.12 1.05,1.27 1.61,7.59 6.24,13.38 1.2,21.51 -3.56,5.75 -11.84,9.04 -20.44,5.96 -17.23,-6.16 -21.29,-12.45 -27.34,-30.03 -12.13,-35.24 21.6,-45.41 -8.44,-78.28 -0.8,-0.88 -2.34,-2.64 -3.05,-3.82 -0.92,-1.52 -1.2,-3.6 -2.22,-5.33 -9.25,0.7 -11.81,7.38 -7.1,15.29 3.75,6.31 10.46,10.05 10.07,17.13 -0.18,3.23 -1.94,6.86 -2.55,10.43l-3.48 23.97c0.34,4.8 7.4,4.55 4.73,7.39 -4.74,3.71 -17.2,-10.63 -23.5,-11.78 -3.32,5.4 -5.98,9.28 -0.53,13.66 3.77,3.03 9,4.3 13.36,7.22 15.57,10.42 12.29,28.24 25.19,37.19 14.64,10.16 16.92,9.17 30.57,9.6 7.75,0.24 9.31,4.75 13.1,7.77 2.38,-0.84 7.05,-4.01 8.4,-5.9 2.27,-3.2 -1.53,-5.8 1.49,-12.22 11.27,-23.97 3.26,-30.49 -0.92,-46.3 -4.24,-16.09 14.25,-18.41 0.68,-26.41l0.75 -2.98c4.98,0.54 9.52,5.57 7.61,12.06 -1.66,5.66 -6.27,9.13 -4.27,16.27 3.42,12.25 9.22,18.57 4.9,36.15 -3.02,12.27 -14.93,24.5 8.8,23.27 19.22,-0.99 20.39,5.7 36.24,-5.1 0.94,-5.38 -1.18,-14.33 -0.35,-21.49 2.17,-18.56 8.71,-16.41 3.13,-38.16 -2,-7.8 -2.67,-12.22 -2.4,-21.07 5.96,-3.11 5.24,-5.22 15.5,-4.47 4.78,5.96 4.42,9.48 7.61,15.42 6.25,-0.49 5.39,-7.41 22.72,-13.67 14.95,-5.39 20.53,-2.95 24.08,-12.13 3.41,-8.81 2.51,-21.95 10.37,-25.79 4.09,-2 11.91,-1.05 14.34,1.91 3.03,3.7 -0.03,11.59 -1.09,15.73 -2.28,8.87 -1.98,23.04 -6.81,29.37 -11.02,14.46 -35.53,4.34 -51.08,21.26 -4.36,4.74 -11.11,16.53 -11.81,25.02 5.31,-0.98 16.32,-8.31 24.13,5.21 2.58,4.47 2.6,9.56 0.59,14.49 -2.89,7.11 -5.81,4.27 -9.83,8.37 7.19,4.63 23.07,-0.64 29.31,-3.85 8.26,-4.25 13.81,-10.74 18.46,-17.72 5.25,-7.87 7.97,-17.17 6.7,-28.52 -0.61,-5.48 -2.17,-10.19 -2.71,-15.39 -1.21,-11.64 1.62,-7.92 3.56,-14.65 11.33,-0.78 20.91,-18.45 36.45,-18.38 3.5,3.74 5.49,7.75 6.16,14.3 -3.8,6.47 -16.93,9.86 -19.37,13.6 -1.79,2.74 -1.2,22.93 -1.8,30.64 -1.47,18.76 -7.96,26.44 -18.12,39.26 -1.26,1.6 -2.68,3 -3.66,4.45 2.04,3.05 5.05,5.44 8.11,7.49 0,5.02 -0.46,7.98 -2.95,10.77 -0.95,1.06 -2.39,2.54 -3.4,3.46 -5.92,5.38 -17.81,-1.97 -25.72,-3.99 -10.52,-2.69 -17.96,2.81 -37.6,0.19 -2.71,-0.36 -8.91,-1.08 -12.02,-1.08 1.66,3.46 0.19,2.67 4.15,4.59l16.4 9.16c4.93,2.86 31.82,17.54 19.49,26.31 -5.47,3.89 -14.92,2.82 -21.91,2.32 -2.06,-0.15 -5.04,-0.76 -6.97,-1.14 -2.82,-0.56 -4.55,-1.13 -6.85,-1.88 -12.36,-4.07 -5.45,6.48 -4.31,17.41l7.12 35.29c2.24,11.32 10.42,40.14 16.11,46.89 3.43,4.07 9.69,3.97 16.32,4.89 8.74,1.2 29.93,2.87 39.05,2.78 8.38,-0.08 11.55,-2.91 16.55,-4.65 7.4,-2.57 13.93,-1.22 17.48,-3.72 1.67,-1.18 3.85,-3.69 5.38,-5.23 4.76,-4.82 12.84,-9.52 19.57,-11.61 27.53,-8.58 57.34,5.86 69.88,30.99 9.7,19.45 3.37,52.51 -9,64.85 -2.3,2.3 -3.08,3.07 -5.76,4.84 -9.21,6.06 -4.83,1.73 -9.74,21.45 -6.68,26.8 -16.47,46.31 4.02,74.07 1.49,2.03 3.21,3.98 4.58,6.02 2.88,4.28 1.03,12.05 0.04,17.13 -4.53,23.12 -0.16,18.12 -0.16,37.89 -17.05,3.97 -6.3,19.41 -16.21,25.58 -6.39,3.97 -17.69,4.86 -25.55,4.35 -3.64,-0.23 -5.14,-1.16 -8.13,-1.86 0,-5.47 -0.2,-7.02 1.88,-10.6l9.38 -14.95c1.33,-2.23 3.32,-4.8 4.52,-7.32 3.72,-7.81 3.7,-34.39 0,-42.18 -3.32,-6.99 -11.35,-13.75 -17.39,-18.77 -8.92,-7.41 -13.1,-33.87 -20.84,-39.05 0,4.24 -0.66,6.99 -0.64,11.87 0.01,4.12 0.76,7.83 1.79,10.69 3.12,8.58 9.7,9.66 6.81,15.94 -1.31,2.85 -3.31,5.19 -4.81,7.69 -4.81,7.99 -7.8,16.67 -10.41,25.76 -1.68,5.84 -3.42,13.91 -5.79,18.54 -2.16,4.23 -4.41,2.78 -6.58,5.9 -1.82,2.63 -1.9,5.85 -2.78,9.07 -3.32,12.17 -31.32,8.7 -38.7,8.7 0,-10.53 2.9,-8.07 13.29,-20.4 6.1,-7.22 7.83,-12.84 11.56,-22.12 2.08,-5.17 4.92,-9.95 6.56,-15.27 5.72,-18.49 4.72,-18.2 -4.24,-33.02l-12.32 -21.36c-1.42,-2.34 -2.38,-4.63 -3.62,-6.98 -6.8,0 -11.69,1.85 -13.92,6.66 -1.76,3.81 -2.49,12.52 -2.94,17.65 -1.02,11.82 -2.72,26.28 0.87,37.23 2.12,6.47 4.11,8.72 2.04,16.83 -1.37,5.39 -0.72,13.64 -1.47,19.11 -0.46,3.36 0.11,6.91 -0.34,10.27 -1.33,9.83 -0.69,19.12 -4.2,25.74l-6.86 0c0,5.15 -1.82,10.3 -4.24,13.23 -4.14,5.01 -15.92,9.05 -25.95,9.85zm-47.17 -23.25c0.73,-3.1 8.16,-14.05 9.81,-16.03 6.41,0.64 9.05,6 10.76,12.01 -5.84,3.68 -12.12,4.65 -20.57,4.02zm193.97 0.81l-5.09 -1.02c0.67,-3.49 5.75,-11.09 7.59,-12.71 2.62,0.9 3.38,1.53 4.62,3.74 -1.95,3.72 -4.92,5.69 -7.12,9.99zm-89.16 -20.6c0.72,-3.04 2.34,-3.68 3.98,-5.36 2.63,-2.72 1.43,-4.55 2.93,-7.01 4.39,-4.68 10.9,5.38 11.83,9.25 -3.65,2.61 -13.95,6.45 -18.74,3.12zm4.85 -115.4c2.37,-2.24 11.59,-7.4 15.32,-9.14 6.71,-3.13 12.23,-4.23 20.55,-4.03 7.06,16.76 5.71,7.48 3.16,27.63 -2.11,16.65 7.03,23.63 8.03,26.56 1.26,3.7 -2.77,8.87 -4.36,11.55 -4.6,7.73 -7.52,16.31 -9.68,25.22 -1.06,4.35 -1.63,10.82 -3.1,14.41 -3.68,1.74 -5.39,0.57 -7.5,4.33 -1.49,2.65 -1.57,6.13 -2.96,8.92 -4.67,0.46 -5.2,-1.66 -7.14,-4.12 -1.22,-1.54 -4.15,-3.49 -6.07,-5.27 0.21,-8.91 17.05,-31.33 15.75,-51.16 -0.77,-11.87 -20.69,-36.61 -22,-44.9zm-117.1 -18.7c2.5,1.3 2,3.91 6.74,6.35 7.59,3.91 19.61,8.6 27.66,12.24 9.59,4.33 7.25,6.86 8.76,18.09 1.03,7.74 3.08,14.63 5.1,21.68 4.06,14.23 0.8,32.35 -1.58,46.98 -1.85,11.38 -1.3,34.78 -14.83,38.57 -2.74,-2.1 -4.8,-5.12 -7.04,-7.18 -2.52,-2.34 -7.53,-4.01 -9,-5.75 1.77,-4.61 4.8,-8.25 6.93,-14.06 6.69,-18.26 4.51,-37.62 -0.27,-55.85 -4.19,-15.99 -13.5,-27.82 -19.17,-45.06 -1.94,-5.88 -5.62,-13.54 -3.3,-16.01zm99.73 18.83c1.97,-6.87 9.74,-7.46 16.7,-10.29 5.92,-2.4 11.58,-7.93 19.29,-6.57 -3.23,4.1 -11.66,6.62 -16.85,9.63 -5.76,3.35 -11.57,6.74 -19.14,7.23zm59.83 -127.39c3.44,-8.8 26.18,-18.13 39.66,-16.51 16.92,2.03 30.93,8.08 38.75,17.39 25.27,30.12 4.85,78.62 -9.74,78.94 -1.3,-2 -6.23,-20.23 -9.54,-27.86 -21.84,-50.32 -52,-46.7 -59.13,-51.96zm-216.32 -41.09c-1.41,-6.83 -3.85,-6.52 -1.08,-14.26 2.91,-8.16 -0.63,-6.99 8.45,-9.05 7.2,-1.64 8.06,1.58 11.02,6.1 3.09,4.69 5.2,5.73 8.17,9.14 -8.65,8.85 -6.41,9.39 -26.56,8.07zm-41.85 -72c10.43,-6.65 35.01,-19.11 47.47,-22.07 0.28,5.25 -5.4,11.74 -7.65,15.22 -3.56,5.5 -4.19,9.49 -9.39,13.06 -9.04,6.19 -29.04,6.9 -30.43,-6.21zm152.51 -69.7c2.91,-1.15 4.83,0.96 5.56,3.59 0.86,3.16 0.66,6.11 -2.72,6.44 -7.09,0.69 -9.75,-7.3 -2.84,-10.03zm-100.55 -6c1.84,2.06 2.01,5.27 1.64,8.47 -0.4,3.35 -1.42,4.66 -3.9,6.03 -5.93,3.25 -11.75,1.08 -13.38,-4.11 -2.65,-2.7 -2.44,-12.66 2.24,-14.54 2.35,-0.95 5.99,-1.15 8.53,-0.64 3.12,0.62 3.91,2.14 4.87,4.79zm98.78 2.67c17.28,-2.77 16.71,13.84 12.14,18.36 -4.85,4.78 -19.97,2.95 -17.42,-12.04 2.2,4.01 0.84,6.73 5.62,8.84 4.02,1.78 7.76,-1.51 9.27,-3.7 0.65,-3.73 -1.76,-7.44 -2.99,-10.31l-6.62 -1.15zm47.73 -90.86c4.72,-0.82 6.07,-3.45 9.24,-3.3 2.95,0.15 6.2,2.82 6.05,5.73 -0.07,1.3 -2.44,5.94 -3.13,8.59 -0.86,3.3 -1.65,6.21 -2.3,9.52 -2.32,11.91 -0.41,22.15 -11.3,24.3 -15.13,3 -34.06,4.6 -43.78,15.45 -6.4,7.15 -13.4,19.97 -14.22,33.27 -1.03,16.94 6.34,23.62 20.29,27.22 25.27,6.52 46.8,-11.3 56.47,-35.36 6.87,-17.09 -1.97,-32.22 -1.64,-41.73 3.9,-3.26 9.32,-8.14 14.65,-10.74 10.19,-4.96 19.49,-17.22 22.91,-6.37 2.13,6.75 -6.4,7.83 -12.67,12.24 -11.9,8.39 -6.73,7.82 -7.25,30.44 -0.51,21.69 -5.86,31.34 -19.6,45 -2.18,2.17 -4.03,3.58 -4.99,7.4 3.07,5.05 13.78,4.73 8.61,13.06 -3.92,6.32 -11.71,2.07 -18.09,0.08 -9.18,-2.85 -10.76,-3.26 -20.86,-1.7 -31.66,4.87 -34.99,-4.64 -43.78,-2.57 -7.39,1.73 -12.15,7.06 -15.65,8.71 -9.41,4.45 -11.48,-5.47 -6.97,-11.34 1.05,-1.37 5.02,-4.08 6.98,-5.5 11.15,-8.05 5.98,-4.1 5.69,-16.93 -0.08,-3.71 0.13,-8.06 0.58,-11.66 0.94,-7.61 4.06,-12.88 5.16,-19.82 1.06,-6.65 -2.17,-14.61 -3.61,-20.77 -2.15,-9.2 -0.47,-12.66 2.75,-20.04 16.68,1.27 4.93,12.05 13,20.5 4.46,-0.69 13.07,-9.18 16.41,-11.67 18.6,-13.81 28.99,-3.63 36.1,-19.41 2.96,-6.55 4.05,-14.67 4.95,-22.6z"/>
   <path class="fil3" d="M190.41 61.31c2.64,-0.7 5.51,-2.44 7.65,-2.73 3.48,-0.48 5.98,1.64 8.25,2.47 1.32,14.12 -3.12,22.74 6.32,30.44l19.53 17.87c1.71,2.41 2.66,4.2 6.33,4.83 -1.76,-9.04 -0.36,-5.48 1.47,-12.85 -2.11,0.46 -2.16,-0.07 -4.07,0.97l-1.62 2.33c-2.8,-1.37 -10.53,-8.29 -13.48,-10.74 -5.53,-4.61 -8.49,-5.72 -9.29,-15.71 -0.75,-9.42 1.91,-23.87 -14.15,-22.82 -4.12,0.27 -6.05,2.28 -6.94,5.94z"/>
   <path class="fil3" d="M287.32 239.46c2.45,7.56 -4.99,13.16 -12.98,12.33 1.59,-3.38 3.32,-2.63 4.99,-5.08 1.24,-1.84 1.76,-5.23 2.74,-7.38l5.25 0.13zm-24.54 8.24l7.64 1.79c-1.24,2.94 -2.07,2.71 -2.58,6.57 8.52,-0.17 12.99,0.85 18.47,-4.23 3.61,-3.35 7.14,-9.03 5.11,-15.88 -6.84,-1.07 -17.34,3.03 -23.04,6.66 -2.63,1.67 -4.67,2.63 -5.6,5.09z"/>
   <path class="fil3" d="M423.11 386.41c-12.46,-0.19 -19.96,-20.06 -15.15,-22.23 3.57,-1.6 16.88,8.8 16.28,18.2l-1.13 4.03zm4.52 3.62c0.94,-10.11 0,-15.09 -5.11,-21.34 -11.58,-14.17 -30.17,-10.41 -14.09,12.21 2.44,3.43 4.05,4.23 6.55,7.18 2.78,3.29 2.77,2.01 12.65,1.95z"/>
   <path class="fil3" d="M433.17 377.6c-5.75,11.57 5.39,14.82 8.51,13.49 2.22,-0.95 1.77,-1.86 0.87,-4.32 -1.45,-3.97 -5.19,-8.12 -9.38,-9.17z"/>
   <path class="fil3" d="M263.57 238.52c5.39,-1.55 3.8,-4.91 7.18,-7.26 4.29,-2.97 9.06,0.09 12.18,-2.9 -2.24,-4.36 -18.25,-5.39 -19.36,10.16z"/>
   <path class="fil4" d="M433.17 377.6c4.19,1.05 7.93,5.2 9.38,9.17 0.9,2.46 1.35,3.37 -0.87,4.32 -3.12,1.33 -14.26,-1.92 -8.51,-13.49zm-5.54 12.43c-9.88,0.06 -9.87,1.34 -12.65,-1.95 -2.5,-2.95 -4.11,-3.75 -6.55,-7.18 -16.08,-22.62 2.51,-26.38 14.09,-12.21 5.11,6.25 6.05,11.23 5.11,21.34zm-164.85 -142.33c0.93,-2.46 2.97,-3.42 5.6,-5.09 5.7,-3.63 16.2,-7.73 23.04,-6.66 2.03,6.85 -1.5,12.53 -5.11,15.88 -5.48,5.08 -9.95,4.06 -18.47,4.23 0.51,-3.86 1.34,-3.63 2.58,-6.57l-7.64 -1.79zm0.79 -9.18c1.11,-15.55 17.12,-14.52 19.36,-10.16 -3.12,2.99 -7.89,-0.07 -12.18,2.9 -3.38,2.35 -1.79,5.71 -7.18,7.26zm76.61 337.85l0 1.33c5.17,4.6 -2.6,12.04 -1.41,16.38 3.32,2.57 6.93,0.91 10.15,3.56 1.73,1.42 5.01,6.04 6.98,6.85 2.24,-2.31 2.75,-4.95 5.01,-7.93 2.24,-2.97 4.92,-3.41 6.29,-7.44 2.29,-6.74 5.02,-42.95 3.82,-49.88 -1.09,-6.33 -3.81,-4.06 -4.71,-22.66 -1.14,-23.54 10.21,-45.78 3.66,-74.08 -1.41,-6.11 -6.45,-19.52 0.26,-21.48 0.83,3.53 0.49,6.21 0.82,9.94 0.26,2.94 1.33,6.24 2,9.04 1.5,6.26 1.73,12.48 3,18.63 1.97,1.09 4.2,0.13 6.49,-0.74 6.66,-2.52 11.11,-5.15 17.22,-7.75 4.51,-1.91 22.58,-7.65 27.21,-5.44 3.65,1.74 11.03,14.34 13.85,19.83 5.69,11.07 15.07,39.12 20.98,45.78 16.68,18.79 22.63,10.7 21.9,45.54 -0.11,5.26 0.14,10.95 -1.16,15.78 -1.14,4.25 -4.08,8.19 -4.48,12.3 2.36,1.57 6.24,2.16 9.18,3.83 3.42,1.94 4.27,4.57 7.59,5.49 6.69,-6.2 -0.95,-14.5 11.1,-21.72 0,-8.43 0.23,-16.66 0.82,-25.02 0.45,-6.47 2.55,-17.92 -0.39,-23.41 -1.24,-2.3 -3.99,-5.28 -5.68,-7.41 -19.09,-24.01 -8.88,-44.55 -2.22,-72.23 4,-16.6 1.51,-29.75 -4.2,-44.23 -5.02,-12.71 -11.17,-26.15 -19.25,-33.16 -10.39,-9.01 -18.49,-16.05 -32.77,-19.62 -23.92,-5.97 -26.61,6.57 -44.07,5.79 -8.41,-0.38 -16.18,-0.79 -24.15,-2.45 -5.7,-1.18 -18.43,-2.62 -24.21,-1.4 1.26,2.54 2.8,3.38 3.7,6.12 -8.11,-0.89 -10.3,-4.93 -13.62,-10.45 -16.17,-26.92 -20.96,-73.21 -28,-104.83 -1.62,-7.29 -6.39,-4.48 -11.65,-12.71 -1.86,-2.9 -2.88,-5.36 -2.15,-9.74 7.86,-2.13 2.93,10.6 24.29,18.15 14.45,5.1 21.74,6.31 34.05,-1.58 -0.5,-5.77 -8.65,-7.93 -18.42,-14.04 -39.14,-24.45 -24.58,-19.39 -41.12,-11.18 -4.72,2.34 -10.13,0.83 -12.06,-2.38 -2.06,-3.44 -1.49,-10.12 -2.31,-14.59 -2.72,0.26 -3.51,2.68 -6.05,1.71l-0.52 -4.33c-19.75,-4.18 -26.61,6.1 -30.53,8.11 -4.58,2.36 -4.06,-4.2 -9.84,0.05 -5.66,4.15 -4.02,11.44 -8.43,18.39 -2.6,4.1 -9.21,12.2 -8.58,18.26 8.52,6.88 12.34,4.61 11.38,11.27 -1.21,8.31 -5.24,10.49 -9.29,14.51 -4.63,4.6 -13.81,13.91 -12.04,22.26 0.52,2.45 1.43,7.6 2.48,9.43 6.76,-2.81 -2.1,-22.27 21.24,-20.28 9.59,0.82 10.44,10.33 21.17,20.82 6.85,6.7 17.76,12.74 28.59,4.29 12.41,-9.71 6.71,-15.93 8.55,-33.29 2.6,-0.82 5.81,-0.32 8.59,-0.12 -1.33,3.36 -1.19,3.29 -3.22,6.16 -6.96,9.84 4.2,13.38 -3.3,23.52 -5.75,7.79 -13.49,11.45 -21.68,17.61 -14.1,10.62 -3.79,23.15 -7.89,49.49 -0.86,5.5 -2.05,12.11 -0.78,17.59 5.27,-2.43 11.81,-9.57 19.28,0.76 4.33,5.98 7.27,12.59 10.38,20.18 2.87,7.04 5.56,15.18 8.97,21.59 2.12,3.98 3.09,6.02 5.61,9.36 2.75,3.63 4.96,3.75 6.37,9.44 -19.92,-6.04 -25.02,-60.53 -40.8,-61.88 -13.31,-1.14 -13.84,25.91 -11.06,37.42 2.24,9.25 5.57,19.61 11.39,26.66 1.86,2.25 4.66,4.33 5.34,8.04 7.28,-0.43 6.49,3.91 10.96,3.31l0.13 -4.98c3.26,1.23 5.25,4.06 7.34,6.05 2.42,2.31 4.08,3.57 7.52,5.57 5.2,3.03 11.06,7.8 17.97,8.81 -0.06,-15.4 -6.18,-16.73 -8.21,-28 3.15,0.84 4.33,2.36 5.91,5.38 4.53,8.65 25.18,88.16 25.76,94.68 0.32,3.53 0.39,32.83 -1.92,36.26 -1.36,2.04 -1.75,1.92 -3.13,1.11z"/>
   <path class="fil4" d="M377.06 63.66c-0.9,7.93 -1.99,16.05 -4.95,22.6 -7.11,15.78 -17.5,5.6 -36.1,19.41 -3.34,2.49 -11.95,10.98 -16.41,11.67 -8.07,-8.45 3.68,-19.23 -13,-20.5 -3.22,7.38 -4.9,10.84 -2.75,20.04 1.44,6.16 4.67,14.12 3.61,20.77 -1.1,6.94 -4.22,12.21 -5.16,19.82 -0.45,3.6 -0.66,7.95 -0.58,11.66 0.29,12.83 5.46,8.88 -5.69,16.93 -1.96,1.42 -5.93,4.13 -6.98,5.5 -4.51,5.87 -2.44,15.79 6.97,11.34 3.5,-1.65 8.26,-6.98 15.65,-8.71 8.79,-2.07 12.12,7.44 43.78,2.57 10.1,-1.56 11.68,-1.15 20.86,1.7 6.38,1.99 14.17,6.24 18.09,-0.08 5.17,-8.33 -5.54,-8.01 -8.61,-13.06 0.96,-3.82 2.81,-5.23 4.99,-7.4 13.74,-13.66 19.09,-23.31 19.6,-45 0.52,-22.62 -4.65,-22.05 7.25,-30.44 6.27,-4.41 14.8,-5.49 12.67,-12.24 -3.42,-10.85 -12.72,1.41 -22.91,6.37 -5.33,2.6 -10.75,7.48 -14.65,10.74 -0.33,9.51 8.51,24.64 1.64,41.73 -9.67,24.06 -31.2,41.88 -56.47,35.36 -13.95,-3.6 -21.32,-10.28 -20.29,-27.22 0.82,-13.3 7.82,-26.12 14.22,-33.27 9.72,-10.85 28.65,-12.45 43.78,-15.45 10.89,-2.15 8.98,-12.39 11.3,-24.3 0.65,-3.31 1.44,-6.22 2.3,-9.52 0.69,-2.65 3.06,-7.29 3.13,-8.59 0.15,-2.91 -3.1,-5.58 -6.05,-5.73 -3.17,-0.15 -4.52,2.48 -9.24,3.3z"/>
   <path class="fil4" d="M436.76 340.64c7.13,5.26 37.29,1.64 59.13,51.96 3.31,7.63 8.24,25.86 9.54,27.86 14.59,-0.32 35.01,-48.82 9.74,-78.94 -7.82,-9.31 -21.83,-15.36 -38.75,-17.39 -13.48,-1.62 -36.22,7.71 -39.66,16.51z"/>
   <path class="fil4" d="M311.6 467.79c-8.05,-3.64 -20.07,-8.33 -27.66,-12.24 -4.74,-2.44 -4.24,-5.05 -6.74,-6.35 -2.32,2.47 1.36,10.13 3.3,16.01 5.67,17.24 14.98,29.07 19.17,45.06 4.78,18.23 6.96,37.59 0.27,55.85 -2.13,5.81 -5.16,9.45 -6.93,14.06 1.47,1.74 6.48,3.41 9,5.75 2.24,2.06 4.3,5.08 7.04,7.18 13.53,-3.79 12.98,-27.19 14.83,-38.57 2.38,-14.63 5.64,-32.75 1.58,-46.98 -2.02,-7.05 -4.07,-13.94 -5.1,-21.68 -1.51,-11.23 0.83,-13.76 -8.76,-18.09z"/>
   <path class="fil4" d="M394.3 467.9c1.31,8.29 21.23,33.03 22,44.9 1.3,19.83 -15.54,42.25 -15.75,51.16 1.92,1.78 4.85,3.73 6.07,5.27 1.94,2.46 2.47,4.58 7.14,4.12 1.39,-2.79 1.47,-6.27 2.96,-8.92 2.11,-3.76 3.82,-2.59 7.5,-4.33 1.47,-3.59 2.04,-10.06 3.1,-14.41 2.16,-8.91 5.08,-17.49 9.68,-25.22 1.59,-2.68 5.62,-7.85 4.36,-11.55 -1,-2.93 -10.14,-9.91 -8.03,-26.56 2.55,-20.15 3.9,-10.87 -3.16,-27.63 -8.32,-0.2 -13.84,0.9 -20.55,4.03 -3.73,1.74 -12.95,6.9 -15.32,9.14z"/>
   <path class="fil4" d="M178.59 227.55c1.39,13.11 21.39,12.4 30.43,6.21 5.2,-3.57 5.83,-7.56 9.39,-13.06 2.25,-3.48 7.93,-9.97 7.65,-15.22 -12.46,2.96 -37.04,15.42 -47.47,22.07z"/>
   <path class="fil4" d="M220.44 299.55c20.15,1.32 17.91,0.78 26.56,-8.07 -2.97,-3.41 -5.08,-4.45 -8.17,-9.14 -2.96,-4.52 -3.82,-7.74 -11.02,-6.1 -9.08,2.06 -5.54,0.89 -8.45,9.05 -2.77,7.74 -0.33,7.43 1.08,14.26z"/>
   <path class="fil4" d="M423.11 386.41l1.13 -4.03c0.6,-9.4 -12.71,-19.8 -16.28,-18.2 -4.81,2.17 2.69,22.04 15.15,22.23z"/>
   <path class="fil4" d="M331.17 621.74c16.36,-3.38 11.96,-4.94 14.68,-9.68 0.01,0 11.78,-11.01 -4.32,-10.53 -3.89,6.31 -9.54,10.44 -10.36,20.21z"/>
   <path class="fil4" d="M284.64 603.09c8.45,0.63 14.73,-0.34 20.57,-4.02 -1.71,-6.01 -4.35,-11.37 -10.76,-12.01 -1.65,1.98 -9.08,12.93 -9.81,16.03z"/>
   <path class="fil4" d="M214.91 162.24c1.63,5.19 7.45,7.36 13.38,4.11 2.48,-1.37 3.5,-2.68 3.9,-6.03 0.37,-3.2 0.2,-6.41 -1.64,-8.47l-2.01 0.58 0.28 5.5c-2.2,-1.2 -3.99,-3.76 -5.16,-6.33 -9.35,0.43 -6.1,4.94 -5,9.55 -2.2,-0.31 -2.77,-0.69 -4.09,-1.5l0.34 2.59z"/>
   <path class="fil4" d="M389.45 583.3c4.79,3.33 15.09,-0.51 18.74,-3.12 -0.93,-3.87 -7.44,-13.93 -11.83,-9.25 -1.5,2.46 -0.3,4.29 -2.93,7.01 -1.64,1.68 -3.26,2.32 -3.98,5.36z"/>
   <path class="fil4" d="M376.93 468.03c7.57,-0.49 13.38,-3.88 19.14,-7.23 5.19,-3.01 13.62,-5.53 16.85,-9.63 -7.71,-1.36 -13.37,4.17 -19.29,6.57 -6.96,2.83 -14.73,3.42 -16.7,10.29z"/>
   <path class="fil4" d="M282.07 239.33c-0.98,2.15 -1.5,5.54 -2.74,7.38 -1.67,2.45 -3.4,1.7 -4.99,5.08 7.99,0.83 15.43,-4.77 12.98,-12.33l-5.25 -0.13z"/>
   <path class="fil4" d="M478.61 603.9c2.2,-4.3 5.17,-6.27 7.12,-9.99 -1.24,-2.21 -2,-2.84 -4.62,-3.74 -1.84,1.62 -6.92,9.22 -7.59,12.71l5.09 1.02z"/>
   <path class="fil4" d="M331.1 157.85c-6.91,2.73 -4.25,10.72 2.84,10.03 3.38,-0.33 3.58,-3.28 2.72,-6.44 -0.73,-2.63 -2.65,-4.74 -5.56,-3.59z"/>
   <path class="fil5" d="M214.91 162.24l-0.34 -2.59c1.32,0.81 1.89,1.19 4.09,1.5 -1.1,-4.61 -4.35,-9.12 5,-9.55 1.17,2.57 2.96,5.13 5.16,6.33l-0.28 -5.5 2.01 -0.58c-0.96,-2.65 -1.75,-4.17 -4.87,-4.79 -2.54,-0.51 -6.18,-0.31 -8.53,0.64 -4.68,1.88 -4.89,11.84 -2.24,14.54z"/>
  </g>
 </g>
</svg>
