<?xml version="1.0" encoding="UTF-8"?>
<!DOCTYPE svg PUBLIC "-//W3C//DTD SVG 1.1//EN" "http://www.w3.org/Graphics/SVG/1.1/DTD/svg11.dtd">
<!-- Creator: CorelDRAW 2017 -->
<svg xmlns="http://www.w3.org/2000/svg" xml:space="preserve" width="7.6198mm" height="7.6198mm" version="1.1" style="shape-rendering:geometricPrecision; text-rendering:geometricPrecision; image-rendering:optimizeQuality; fill-rule:evenodd; clip-rule:evenodd"
viewBox="0 0 761.98 761.98"
 xmlns:xlink="http://www.w3.org/1999/xlink">
 <defs>
  <style type="text/css">
   <![CDATA[
    .fil5 {fill:#FEFEFE}
    .fil4 {fill:#848688}
    .fil3 {fill:#606062}
    .fil2 {fill:#4B4B4D}
    .fil1 {fill:#73C4B8}
    .fil0 {fill:#ED6B9A}
   ]]>
  </style>
 </defs>
 <g id="Capa_x0020_1">
  <metadata id="CorelCorpID_0Corel-Layer"/>
  <path class="fil0" d="M42.33 42.33l465.26 0c57.14,6.74 104.34,30.26 143.27,68.8l-608.53 608.53 0 -677.33z"/>
  <path class="fil1" d="M719.66 261.45l0 458.21 -677.33 0 608.53 -608.53c40.45,43.45 64.02,93.23 68.8,150.32z"/>
  <path class="fil2" d="M336.91 289.93c4.31,29.58 26.94,28.86 21.81,-3.32 -4.9,-30.9 -26.5,-28.95 -21.81,3.32zm60.91 270.19c-1.99,-39 -15.89,-64.84 -53.33,-79.12 -24.28,-9.25 -59.48,-9.17 -83.62,0.14 -5.29,2.04 -18.53,8.42 -23.32,7.42l3.17 -5.59c-7.15,-9.14 -43.05,-33.27 -53.95,-31.17 -5.61,13.14 17.67,45.66 13.94,52.64 -9.42,-7.49 -4.93,-27.72 -22.75,-30.01l-5.4 -1.68c-4.28,7.21 -2.1,16.94 -1.03,25.07 1.84,24.83 22.23,54.12 22.66,56.71 -10.19,-3.42 -7.17,-22.34 -23.33,-21.49 -2.03,13.59 21.16,42.25 30.52,52.46 21.06,22.98 35.14,25.2 46.61,35.13 15.52,4.17 28.44,12.35 46.31,13.98 29.11,2.67 69.97,-6.47 88.7,-30.49 18.39,-23.58 11.75,-33.58 14.82,-44zm-210.97 -114.55c20.63,1.98 52.31,31.33 55.77,33.27 5.68,3.23 26.85,-5.29 34.26,-7.26 29.23,-7.78 83.35,1.16 102.95,26.7 22.59,29.42 18.6,34.65 21.29,69.97 1.52,6.79 -0.18,14.95 -2.39,21.47 -2.56,7.59 -6.87,16.51 3.9,17.32 7.67,-3.15 14.35,-8.26 23.06,-11.28 9.3,-3.18 20.09,-4.63 27.56,-7.31 -1.01,-8.37 -21.42,-30.67 -9.37,-57.32 4.87,-10.71 9.91,-15.49 22.28,-14.81 14.43,0.79 14.48,9 23.8,14.3 7.08,-17.45 3.76,-28.4 27.82,-28.1 3.73,-24 -21.65,-72.07 -41.45,-82.34 -0.68,0.88 -1.14,0.99 -1.31,1.02l-1.39 -2.37c-3.35,-5.8 -3.2,-2.13 -1.27,-4.62 -4.51,-4.46 -16.23,-12.36 -22.83,-12.97 0.07,4.54 1.49,9.82 -0.21,13.57 -5.11,-5.05 -2.98,-15.23 -3.03,-22.05 -5.56,0.86 -3.92,2.43 -8.4,0.22 8.77,-7.7 49.35,-15.29 82.24,-52.64 4.73,-5.39 20.44,-24.49 10.55,-30.67 -1.34,-6.3 -6,-9.92 -8.71,-16.65 -5.55,-13.78 -1.44,-22.42 -18.75,-61.35 -5.01,-11.24 -12.94,-22.22 -21.07,-30.79 -19.89,-21.01 -24.51,-17.4 -29.95,-23.89 -4.11,-0.02 -22.66,-4.51 -25.76,-6.26 7.16,-14.88 12.51,-20.4 15.27,-38.72 8.83,-58.49 -29.52,-53.37 -35.59,-23.07 -2.96,14.78 6.27,39.48 2.67,45.85 -1.72,-3.37 -1.74,-17.78 -8.46,-33.61 -5.11,-12.08 -8.32,-15.41 -15.78,-25.54l-3.7 -2.03c-37.53,-13.22 -35.09,33.33 -10.84,63.99 4.31,5.45 18.16,14.86 19.76,17.86 -7.64,-0.8 -6.56,-2.88 -16.12,0.53 -5.2,1.84 -8.9,4.52 -14.18,5.34 -5.65,7.06 -14.29,6.25 -28.04,25.39 -9.83,13.69 -13.03,18.53 -17.99,35.41 -7.83,26.58 -4.92,55.42 -8.9,70.87 -1.82,7.06 -7.34,13.3 -8.31,20.03 -12.99,10.16 44.25,47.4 69.33,54.23 6.78,1.87 30.8,6.43 34.37,8.43 -3.39,1.97 -4.78,0.99 -9.12,1.23 0.05,6.8 1.22,15.3 -2.93,21.19 -2.61,-4.25 -0.92,-15.83 -1.95,-22.07l-12.48 -3.56 2.43 4.23c-15.81,11.41 -35.96,19.28 -15.5,39.2 18.25,17.8 78.02,47.2 102.67,28.38 11.71,-8.95 17.86,-25.17 13.4,-39.69 -0.44,-1.42 -0.86,-2.34 -1.36,-3.26 0.29,0.25 1.09,1.02 2.5,3.47 1.3,2.26 2.01,3.19 2.81,5.76 4.47,14.53 -1.69,30.75 -13.4,39.69 -24.65,18.83 -94.3,-14.57 -112.58,-32.35 -20.44,-19.92 -0.3,-27.8 15.52,-39.21l-2.42 -4.23 -9.14 -1.31c-15.24,-1.52 -14.1,4.11 -28.48,6.55l-3.27 -0.48c-5.59,2.88 -27.3,8.14 -36.17,11.44 -9.46,3.52 -24.85,10.69 -33.38,12.9 1.59,-5.54 12.1,-5.71 15.66,-10.64 -8.83,-5.17 -72.96,-19.79 -83.61,-17.68l-1.67 1.09c-2.14,11.1 -2.14,37.82 -0.61,49.23zm139.16 -157.36c-6.54,-44.67 32.84,-61.51 41.6,-11.44 0.54,3.11 1.2,7.16 1.62,11.55 -0.36,-2.66 -0.76,-5.09 -1.11,-7.12 -8.46,-48.39 -45.52,-34.3 -42.11,7.01zm37.74 29.23c-1.75,1.8 -3.97,3.13 -6.76,3.79 -5.13,1.22 -9.59,0.52 -13.4,-1.44 -17.75,-12.79 -22.59,-58.81 0.37,-64.7 14.65,-3.76 19.75,18.65 21.46,29.93 1.25,8.36 3.46,24.03 -1.67,32.42zm152.2 0.74c4.52,4.8 5.79,8.08 4.67,10.71 -0.65,-1.88 -2.16,-4.07 -4.67,-6.74 -33.86,-2.69 -67.2,-24.57 -99.95,-15.02 -13.4,3.89 -28.86,12.42 -41.6,18.49 -8.13,3.86 -31.11,11.72 -36.25,19.44 -0.33,-0.84 -0.59,-1.68 -0.75,-2.52 2.93,-8.17 28.36,-16.8 37,-20.9 12.74,-6.06 28.2,-14.61 41.6,-18.5 32.75,-9.53 66.09,12.33 99.95,15.04zm-57.53 -60.11c-1.27,-40.13 34.59,-38.69 40.79,4.82 0.65,4.59 1.25,10.2 1.08,15.73 -0.12,-4.19 -0.58,-8.26 -1.08,-11.76 -5.99,-42.02 -39.64,-44.8 -40.79,-8.79zm32.7 41.65c-1.97,1.18 -4.32,1.99 -7.13,2.32 -4.04,0.48 -7.55,-0.91 -10.56,-3.41l-0.04 -0.03 -0.03 -0.03c-6.25,-6.22 -10.15,-17.49 -11.33,-24.11 -7.68,-43.41 24.79,-54.03 33.3,-8.54 1.66,8.9 3.15,26.45 -4.21,33.8zm8.78 293.85l10.92 -14.69c2.17,-8.87 9.65,-18.15 12.36,-28.99 10.53,-42.21 -16.18,-53.45 -25.78,-31.96 -6.46,14.5 -2.12,24.08 -4.95,35.75 -6.18,-8.59 -2.41,-22.55 -16.27,-29.5 -23.24,-11.6 -42.31,14.71 -27.13,49.96 9.51,22.07 18,19.87 19.03,25.63 -6.64,-0.01 -6.04,-5.27 -15.88,-5.19 -10.06,0.09 -41.77,10.32 -46.55,17.38 -7.35,3.3 -10.15,5.68 -16.4,11.14 -7.45,6.5 -11.21,-1.43 -18.21,-1.27 -1.51,0.05 -27.66,12.33 -36.25,13.99 -14.89,2.89 -31.41,4.59 -46.43,1.51 -6.61,-1.37 -13.42,-3.31 -19.79,-5.52 -11.19,-3.91 -15.56,-8.07 -17.54,-3.57 8.25,10.11 14.25,16.72 25.67,23.51 7.57,4.49 9.84,4.92 18.32,7.06 7.11,1.81 10.25,5.03 15.69,7.22 10.63,1.09 19.67,4.79 30.9,5.24 37.31,1.46 82.23,-7.02 111,-32.36 2.02,-1.78 58.13,-17.71 60.51,-46.74l-0.02 -7.45c-5.46,1.91 -3.21,6.62 -12.54,12.01l-0.66 -3.16zm-156.42 -249.08c27.41,-0.29 40.44,6.51 89.63,2.69 17.94,-1.4 60.23,-9.54 73.41,-20.83l-3.3 -2.52c4.72,0.84 12.21,1.8 13.36,6.6 -10.14,11.51 -57.18,19.31 -74.77,21.46 -19.93,2.44 -48.85,1.39 -69.29,-1.84 -8.47,-1.34 -14.65,-3.99 -20.14,-1.01 8.74,12.55 83.71,8.59 106.18,5.09 8.36,-1.31 24,-5.83 30.76,-5.97 -19.91,15.78 -40.21,31.07 -68.49,30.22l-0.2 0 -0.2 -0.01 -1.25 -0.06 -0.75 -0.04 -0.71 -0.05c-1.47,-0.1 -2.97,-0.24 -4.48,-0.44 -15.59,-1.97 -80.72,-19.29 -69.76,-33.29zm129.04 -93.35c-10.14,5.67 -0.6,47.85 12.19,40.78 8.13,-4.49 4.5,-50.11 -12.19,-40.78z"/>
  <path class="fil3" d="M333.51 289.15c4.31,29.58 26.94,28.86 21.81,-3.32 -4.9,-30.9 -26.5,-28.95 -21.81,3.32zm60.91 270.19c-1.99,-39 -15.89,-64.84 -53.33,-79.12 -24.28,-9.25 -59.48,-9.17 -83.62,0.14 -5.29,2.04 -18.53,8.42 -23.32,7.42l3.17 -5.59c-7.15,-9.14 -43.05,-33.27 -53.95,-31.17 -5.61,13.14 17.67,45.66 13.94,52.64 -9.42,-7.49 -4.93,-27.72 -22.75,-30.01l-5.4 -1.68c-4.28,7.21 -2.1,16.94 -1.03,25.07 1.84,24.83 22.23,54.12 22.66,56.71 -10.19,-3.42 -7.17,-22.34 -23.33,-21.49 -2.03,13.59 21.16,42.25 30.52,52.46 21.06,22.98 35.14,25.2 46.61,35.13 15.52,4.17 28.44,12.35 46.31,13.98 29.11,2.67 69.97,-6.47 88.7,-30.49 18.39,-23.58 11.75,-33.58 14.82,-44zm-210.97 -114.55c20.63,1.98 52.31,31.33 55.77,33.27 5.68,3.23 26.85,-5.29 34.26,-7.26 29.23,-7.78 83.35,1.16 102.95,26.7 22.59,29.42 18.6,34.65 21.29,69.97 1.52,6.79 -0.18,14.95 -2.39,21.47 -2.56,7.59 -6.87,16.51 3.9,17.32 7.67,-3.15 14.35,-8.26 23.06,-11.28 9.3,-3.18 20.09,-4.63 27.56,-7.31 -1.01,-8.37 -21.42,-30.67 -9.37,-57.32 4.87,-10.71 9.91,-15.49 22.28,-14.81 14.43,0.79 14.48,9 23.8,14.3 7.08,-17.45 3.76,-28.4 27.82,-28.1 3.73,-24 -21.65,-72.07 -41.45,-82.34 -0.68,0.88 -1.14,0.99 -1.31,1.02l-1.39 -2.37c-3.35,-5.8 -3.2,-2.13 -1.27,-4.62 -4.51,-4.46 -16.23,-12.36 -22.83,-12.97 0.07,4.54 1.49,9.82 -0.21,13.57 -5.11,-5.05 -2.98,-15.23 -3.03,-22.05 -5.56,0.86 -3.92,2.43 -8.4,0.22 8.77,-7.7 49.35,-15.29 82.24,-52.64 4.73,-5.39 20.44,-24.49 10.55,-30.67 -1.34,-6.3 -6,-9.92 -8.71,-16.65 -5.55,-13.78 -1.44,-22.42 -18.75,-61.35 -5.01,-11.24 -12.94,-22.22 -21.07,-30.79 -19.89,-21.01 -24.51,-17.4 -29.95,-23.89 -4.11,-0.02 -22.66,-4.51 -25.76,-6.26 7.16,-14.88 12.51,-20.4 15.27,-38.72 8.83,-58.49 -29.52,-53.37 -35.59,-23.07 -2.96,14.78 6.27,39.48 2.67,45.85 -1.72,-3.37 -1.74,-17.78 -8.46,-33.61 -5.11,-12.08 -8.32,-15.41 -15.78,-25.54l-3.7 -2.03c-37.53,-13.22 -35.09,33.33 -10.84,63.99 4.31,5.45 18.16,14.86 19.76,17.86 -7.64,-0.8 -6.56,-2.88 -16.12,0.53 -5.2,1.84 -8.9,4.52 -14.18,5.34 -5.65,7.06 -14.29,6.25 -28.04,25.39 -9.83,13.69 -13.03,18.53 -17.99,35.41 -7.83,26.58 -4.92,55.42 -8.9,70.87 -1.82,7.06 -7.34,13.3 -8.31,20.03 -12.99,10.16 44.25,47.4 69.33,54.23 6.78,1.87 30.8,6.43 34.37,8.43 -3.39,1.97 -4.78,0.99 -9.12,1.23 0.05,6.8 1.22,15.3 -2.93,21.19 -2.61,-4.25 -0.92,-15.83 -1.95,-22.07l-12.48 -3.56 2.43 4.23c-15.81,11.41 -35.96,19.28 -15.5,39.2 18.25,17.8 78.02,47.2 102.67,28.38 11.71,-8.95 17.86,-25.17 13.4,-39.69 -0.44,-1.42 -0.86,-2.34 -1.36,-3.26 0.29,0.25 1.09,1.02 2.5,3.47 1.3,2.26 2.01,3.19 2.81,5.76 4.47,14.53 -1.69,30.75 -13.4,39.69 -24.65,18.83 -94.3,-14.57 -112.58,-32.35 -20.44,-19.92 -0.3,-27.8 15.52,-39.21l-2.42 -4.23 -9.14 -1.31c-15.24,-1.52 -14.1,4.11 -28.48,6.55l-3.27 -0.48c-5.59,2.88 -27.3,8.14 -36.17,11.44 -9.46,3.52 -24.85,10.69 -33.38,12.9 1.59,-5.54 12.1,-5.71 15.66,-10.64 -8.83,-5.17 -72.96,-19.79 -83.61,-17.68l-1.67 1.09c-2.14,11.1 -2.14,37.82 -0.61,49.23zm139.16 -157.36c-6.54,-44.67 32.84,-61.51 41.6,-11.44 0.54,3.11 1.2,7.16 1.62,11.55 -0.36,-2.66 -0.76,-5.09 -1.11,-7.12 -8.46,-48.39 -45.52,-34.3 -42.11,7.01zm37.74 29.23c-1.75,1.8 -3.97,3.13 -6.76,3.79 -5.13,1.22 -9.59,0.52 -13.4,-1.44 -17.75,-12.79 -22.59,-58.81 0.37,-64.7 14.65,-3.76 19.75,18.65 21.46,29.93 1.25,8.36 3.46,24.03 -1.67,32.42zm152.2 0.74c4.52,4.8 5.79,8.08 4.67,10.71 -0.65,-1.88 -2.16,-4.07 -4.67,-6.74 -33.86,-2.69 -67.2,-24.57 -99.95,-15.02 -13.4,3.89 -28.86,12.42 -41.6,18.49 -8.13,3.86 -31.11,11.72 -36.25,19.44 -0.33,-0.84 -0.59,-1.68 -0.75,-2.52 2.93,-8.17 28.36,-16.8 37,-20.9 12.74,-6.06 28.2,-14.61 41.6,-18.5 32.75,-9.53 66.09,12.33 99.95,15.04zm-57.53 -60.11c-1.27,-40.13 34.59,-38.69 40.79,4.82 0.65,4.59 1.25,10.2 1.08,15.73 -0.12,-4.19 -0.58,-8.26 -1.08,-11.76 -5.99,-42.02 -39.64,-44.8 -40.79,-8.79zm32.7 41.65c-1.97,1.18 -4.32,1.99 -7.13,2.32 -4.04,0.48 -7.55,-0.91 -10.56,-3.41l-0.04 -0.03 -0.03 -0.03c-6.25,-6.22 -10.15,-17.49 -11.33,-24.11 -7.68,-43.41 24.79,-54.03 33.3,-8.54 1.66,8.9 3.15,26.45 -4.21,33.8zm8.78 293.85l10.92 -14.69c2.17,-8.87 9.65,-18.15 12.36,-28.99 10.53,-42.21 -16.18,-53.45 -25.78,-31.96 -6.46,14.5 -2.12,24.08 -4.95,35.75 -6.18,-8.59 -2.41,-22.55 -16.27,-29.5 -23.24,-11.6 -42.31,14.71 -27.13,49.96 9.51,22.07 18,19.87 19.03,25.63 -6.64,-0.01 -6.04,-5.27 -15.88,-5.19 -10.06,0.09 -41.77,10.32 -46.55,17.38 -7.35,3.3 -10.15,5.68 -16.4,11.14 -7.45,6.5 -11.21,-1.43 -18.21,-1.27 -1.51,0.05 -27.66,12.33 -36.25,13.99 -14.89,2.89 -31.41,4.59 -46.43,1.51 -6.61,-1.37 -13.42,-3.31 -19.79,-5.52 -11.19,-3.91 -15.56,-8.07 -17.54,-3.57 8.25,10.11 14.25,16.72 25.67,23.51 7.57,4.49 9.84,4.92 18.32,7.06 7.11,1.81 10.25,5.03 15.69,7.22 10.63,1.09 19.67,4.79 30.9,5.24 37.31,1.46 82.23,-7.02 111,-32.36 2.02,-1.78 58.13,-17.71 60.51,-46.74l-0.02 -7.45c-5.46,1.91 -3.21,6.62 -12.54,12.01l-0.66 -3.16zm-156.42 -249.08c27.41,-0.29 40.44,6.51 89.63,2.69 17.94,-1.4 60.23,-9.54 73.41,-20.83l-3.3 -2.52c4.72,0.84 12.21,1.8 13.36,6.6 -10.14,11.51 -57.18,19.31 -74.77,21.46 -19.93,2.44 -48.85,1.39 -69.29,-1.84 -8.47,-1.34 -14.65,-3.99 -20.14,-1.01 8.74,12.55 83.71,8.59 106.18,5.09 8.36,-1.31 24,-5.83 30.76,-5.97 -19.91,15.78 -40.21,31.07 -68.49,30.22l-0.2 0 -0.2 -0.01 -1.25 -0.06 -0.75 -0.04 -0.71 -0.05c-1.47,-0.1 -2.97,-0.24 -4.48,-0.44 -15.59,-1.97 -80.72,-19.29 -69.76,-33.29zm129.04 -93.35c-10.14,5.67 -0.6,47.85 12.19,40.78 8.13,-4.49 4.5,-50.11 -12.19,-40.78z"/>
  <path class="fil4" d="M332.47 286.79c4.31,29.58 26.94,28.86 21.81,-3.32 -4.9,-30.9 -26.5,-28.95 -21.81,3.32zm60.91 270.19c-1.99,-39 -15.89,-64.84 -53.33,-79.12 -24.28,-9.25 -59.48,-9.17 -83.62,0.14 -5.29,2.04 -18.53,8.42 -23.32,7.42l3.17 -5.59c-7.15,-9.14 -43.05,-33.27 -53.95,-31.17 -5.61,13.14 17.67,45.66 13.94,52.64 -9.42,-7.49 -4.93,-27.72 -22.75,-30.01l-5.4 -1.68c-4.28,7.21 -2.1,16.94 -1.03,25.07 1.84,24.83 22.23,54.12 22.66,56.71 -10.19,-3.42 -7.17,-22.34 -23.33,-21.49 -2.03,13.59 21.16,42.25 30.52,52.46 21.06,22.98 35.14,25.2 46.61,35.13 15.52,4.17 28.44,12.35 46.31,13.98 29.11,2.67 69.97,-6.47 88.7,-30.49 18.39,-23.58 11.75,-33.58 14.82,-44zm-210.97 -114.55c20.63,1.98 52.31,31.33 55.77,33.27 5.68,3.23 26.85,-5.29 34.26,-7.26 29.23,-7.78 83.35,1.16 102.95,26.7 22.59,29.42 18.6,34.65 21.29,69.97 1.52,6.79 -0.18,14.95 -2.39,21.47 -2.56,7.59 -6.87,16.51 3.9,17.32 7.67,-3.15 14.35,-8.26 23.06,-11.28 9.3,-3.18 20.09,-4.63 27.56,-7.31 -1.01,-8.37 -21.42,-30.67 -9.37,-57.32 4.87,-10.71 9.91,-15.49 22.28,-14.81 14.43,0.79 14.48,9 23.8,14.3 7.08,-17.45 3.76,-28.4 27.82,-28.1 3.73,-24 -21.65,-72.07 -41.45,-82.34 -0.68,0.88 -1.14,0.99 -1.31,1.02l-1.39 -2.37c-3.35,-5.8 -3.2,-2.13 -1.27,-4.62 -4.51,-4.46 -16.23,-12.36 -22.83,-12.97 0.07,4.54 1.49,9.82 -0.21,13.57 -5.11,-5.05 -2.98,-15.23 -3.03,-22.05 -5.56,0.86 -3.92,2.43 -8.4,0.22 8.77,-7.7 49.35,-15.29 82.24,-52.64 4.73,-5.39 20.44,-24.49 10.55,-30.67 -1.34,-6.3 -6,-9.92 -8.71,-16.65 -5.55,-13.78 -1.44,-22.42 -18.75,-61.35 -5.01,-11.24 -12.94,-22.22 -21.07,-30.79 -19.89,-21.01 -24.51,-17.4 -29.95,-23.89 -4.11,-0.02 -22.66,-4.51 -25.76,-6.26 7.16,-14.88 12.51,-20.4 15.27,-38.72 8.83,-58.49 -29.52,-53.37 -35.59,-23.07 -2.96,14.78 6.27,39.48 2.67,45.85 -1.72,-3.37 -1.74,-17.78 -8.46,-33.61 -5.11,-12.08 -8.32,-15.41 -15.78,-25.54l-3.7 -2.03c-37.53,-13.22 -35.09,33.33 -10.84,63.99 4.31,5.45 18.16,14.86 19.76,17.86 -7.64,-0.8 -6.56,-2.88 -16.12,0.53 -5.2,1.84 -8.9,4.52 -14.18,5.34 -5.65,7.06 -14.29,6.25 -28.04,25.39 -9.83,13.69 -13.03,18.53 -17.99,35.41 -7.83,26.58 -4.92,55.42 -8.9,70.87 -1.82,7.06 -7.34,13.3 -8.31,20.03 -12.99,10.16 44.25,47.4 69.33,54.23 6.78,1.87 30.8,6.43 34.37,8.43 -3.39,1.97 -4.78,0.99 -9.12,1.23 0.05,6.8 1.22,15.3 -2.93,21.19 -2.61,-4.25 -0.92,-15.83 -1.95,-22.07l-12.48 -3.56 2.43 4.23c-15.81,11.41 -35.96,19.28 -15.5,39.2 18.25,17.8 78.02,47.2 102.67,28.38 11.71,-8.95 17.86,-25.17 13.4,-39.69 -0.44,-1.42 -0.86,-2.34 -1.36,-3.26 0.29,0.25 1.09,1.02 2.5,3.47 1.3,2.26 2.01,3.19 2.81,5.76 4.47,14.53 -1.69,30.75 -13.4,39.69 -24.65,18.83 -94.3,-14.57 -112.58,-32.35 -20.44,-19.92 -0.3,-27.8 15.52,-39.21l-2.42 -4.23 -9.14 -1.31c-15.24,-1.52 -14.1,4.11 -28.48,6.55l-3.27 -0.48c-5.59,2.88 -27.3,8.14 -36.17,11.44 -9.46,3.52 -24.85,10.69 -33.38,12.9 1.59,-5.54 12.1,-5.71 15.66,-10.64 -8.83,-5.17 -72.96,-19.79 -83.61,-17.68l-1.67 1.09c-2.14,11.1 -2.14,37.82 -0.61,49.23zm139.16 -157.36c-6.54,-44.67 32.84,-61.51 41.6,-11.44 0.54,3.11 1.2,7.16 1.62,11.55 -0.36,-2.66 -0.76,-5.09 -1.11,-7.12 -8.46,-48.39 -45.52,-34.3 -42.11,7.01zm37.74 29.23c-1.75,1.8 -3.97,3.13 -6.76,3.79 -5.13,1.22 -9.59,0.52 -13.4,-1.44 -17.75,-12.79 -22.59,-58.81 0.37,-64.7 14.65,-3.76 19.75,18.65 21.46,29.93 1.25,8.36 3.46,24.03 -1.67,32.42zm152.2 0.74c4.52,4.8 5.79,8.08 4.67,10.71 -0.65,-1.88 -2.16,-4.07 -4.67,-6.74 -33.86,-2.69 -67.2,-24.57 -99.95,-15.02 -13.4,3.89 -28.86,12.42 -41.6,18.49 -8.13,3.86 -31.11,11.72 -36.25,19.44 -0.33,-0.84 -0.59,-1.68 -0.75,-2.52 2.93,-8.17 28.36,-16.8 37,-20.9 12.74,-6.06 28.2,-14.61 41.6,-18.5 32.75,-9.53 66.09,12.33 99.95,15.04zm-57.53 -60.11c-1.27,-40.13 34.59,-38.69 40.79,4.82 0.65,4.59 1.25,10.2 1.08,15.73 -0.12,-4.19 -0.58,-8.26 -1.08,-11.76 -5.99,-42.02 -39.64,-44.8 -40.79,-8.79zm32.7 41.65c-1.97,1.18 -4.32,1.99 -7.13,2.32 -4.04,0.48 -7.55,-0.91 -10.56,-3.41l-0.04 -0.03 -0.03 -0.03c-6.25,-6.22 -10.15,-17.49 -11.33,-24.11 -7.68,-43.41 24.79,-54.03 33.3,-8.54 1.66,8.9 3.15,26.45 -4.21,33.8zm8.78 293.85l10.92 -14.69c2.17,-8.87 9.65,-18.15 12.36,-28.99 10.53,-42.21 -16.18,-53.45 -25.78,-31.96 -6.46,14.5 -2.12,24.08 -4.95,35.75 -6.18,-8.59 -2.41,-22.55 -16.27,-29.5 -23.24,-11.6 -42.31,14.71 -27.13,49.96 9.51,22.07 18,19.87 19.03,25.63 -6.64,-0.01 -6.04,-5.27 -15.88,-5.19 -10.06,0.09 -41.77,10.32 -46.55,17.38 -7.35,3.3 -10.15,5.68 -16.4,11.14 -7.45,6.5 -11.21,-1.43 -18.21,-1.27 -1.51,0.05 -27.66,12.33 -36.25,13.99 -14.89,2.89 -31.41,4.59 -46.43,1.51 -6.61,-1.37 -13.42,-3.31 -19.79,-5.52 -11.19,-3.91 -15.56,-8.07 -17.54,-3.57 8.25,10.11 14.25,16.72 25.67,23.51 7.57,4.49 9.84,4.92 18.32,7.06 7.11,1.81 10.25,5.03 15.69,7.22 10.63,1.09 19.67,4.79 30.9,5.24 37.31,1.46 82.23,-7.02 111,-32.36 2.02,-1.78 58.13,-17.71 60.51,-46.74l-0.02 -7.45c-5.46,1.91 -3.21,6.62 -12.54,12.01l-0.66 -3.16zm-156.42 -249.08c27.41,-0.29 40.44,6.51 89.63,2.69 17.94,-1.4 60.23,-9.54 73.41,-20.83l-3.3 -2.52c4.72,0.84 12.21,1.8 13.36,6.6 -10.14,11.51 -57.18,19.31 -74.77,21.46 -19.93,2.44 -48.85,1.39 -69.29,-1.84 -8.47,-1.34 -14.65,-3.99 -20.14,-1.01 8.74,12.55 83.71,8.59 106.18,5.09 8.36,-1.31 24,-5.83 30.76,-5.97 -19.91,15.78 -40.21,31.07 -68.49,30.22l-0.2 0 -0.2 -0.01 -1.25 -0.06 -0.75 -0.04 -0.71 -0.05c-1.47,-0.1 -2.97,-0.24 -4.48,-0.44 -15.59,-1.97 -80.72,-19.29 -69.76,-33.29zm129.04 -93.35c-10.14,5.67 -0.6,47.85 12.19,40.78 8.13,-4.49 4.5,-50.11 -12.19,-40.78z"/>
  <path class="fil5" d="M330.93 285.55c4.31,29.58 26.94,28.86 21.81,-3.32 -4.9,-30.9 -26.5,-28.95 -21.81,3.32zm60.91 270.19c-1.99,-39 -15.89,-64.84 -53.33,-79.12 -24.28,-9.25 -59.48,-9.17 -83.62,0.14 -5.29,2.04 -18.53,8.42 -23.32,7.42l3.17 -5.59c-7.15,-9.14 -43.05,-33.27 -53.95,-31.17 -5.61,13.14 17.67,45.66 13.94,52.64 -9.42,-7.49 -4.93,-27.72 -22.75,-30.01l-5.4 -1.68c-4.28,7.21 -2.1,16.94 -1.03,25.07 1.84,24.83 22.23,54.12 22.66,56.71 -10.19,-3.42 -7.17,-22.34 -23.33,-21.49 -2.03,13.59 21.16,42.25 30.52,52.46 21.06,22.98 35.14,25.2 46.61,35.13 15.52,4.17 28.44,12.35 46.31,13.98 29.11,2.67 69.97,-6.47 88.7,-30.49 18.39,-23.58 11.75,-33.58 14.82,-44zm-210.97 -114.55c20.63,1.98 52.31,31.33 55.77,33.27 5.68,3.23 26.85,-5.29 34.26,-7.26 29.23,-7.78 83.35,1.16 102.95,26.7 22.59,29.42 18.6,34.65 21.29,69.97 1.52,6.79 -0.18,14.95 -2.39,21.47 -2.56,7.59 -6.87,16.51 3.9,17.32 7.67,-3.15 14.35,-8.26 23.06,-11.28 9.3,-3.18 20.09,-4.63 27.56,-7.31 -1.01,-8.37 -21.42,-30.67 -9.37,-57.32 4.87,-10.71 9.91,-15.49 22.28,-14.81 14.43,0.79 14.48,9 23.8,14.3 7.08,-17.45 3.76,-28.4 27.82,-28.1 3.73,-24 -21.65,-72.07 -41.45,-82.34 -0.68,0.88 -1.14,0.99 -1.31,1.02l-1.39 -2.37c-3.35,-5.8 -3.2,-2.13 -1.27,-4.62 -4.51,-4.46 -16.23,-12.36 -22.83,-12.97 0.07,4.54 1.49,9.82 -0.21,13.57 -5.11,-5.05 -2.98,-15.23 -3.03,-22.05 -5.56,0.86 -3.92,2.43 -8.4,0.22 8.77,-7.7 49.35,-15.29 82.24,-52.64 4.73,-5.39 20.44,-24.49 10.55,-30.67 -1.34,-6.3 -6,-9.92 -8.71,-16.65 -5.55,-13.78 -1.44,-22.42 -18.75,-61.35 -5.01,-11.24 -12.94,-22.22 -21.07,-30.79 -19.89,-21.01 -24.51,-17.4 -29.95,-23.89 -4.11,-0.02 -22.66,-4.51 -25.76,-6.26 7.16,-14.88 12.51,-20.4 15.27,-38.72 8.83,-58.49 -29.52,-53.37 -35.59,-23.07 -2.96,14.78 6.27,39.48 2.67,45.85 -1.72,-3.37 -1.74,-17.78 -8.46,-33.61 -5.11,-12.08 -8.32,-15.41 -15.78,-25.54l-3.7 -2.03c-37.53,-13.22 -35.09,33.33 -10.84,63.99 4.31,5.45 18.16,14.86 19.76,17.86 -7.64,-0.8 -6.56,-2.88 -16.12,0.53 -5.2,1.84 -8.9,4.52 -14.18,5.34 -5.65,7.06 -14.29,6.25 -28.04,25.39 -9.83,13.69 -13.03,18.53 -17.99,35.41 -7.83,26.58 -4.92,55.42 -8.9,70.87 -1.82,7.06 -7.34,13.3 -8.31,20.03 -12.99,10.16 44.25,47.4 69.33,54.23 6.78,1.87 30.8,6.43 34.37,8.43 -3.39,1.97 -4.78,0.99 -9.12,1.23 0.05,6.8 1.22,15.3 -2.93,21.19 -2.61,-4.25 -0.92,-15.83 -1.95,-22.07l-12.48 -3.56 2.43 4.23c-15.81,11.41 -35.96,19.28 -15.5,39.2 18.25,17.8 78.02,47.2 102.67,28.38 11.71,-8.95 17.86,-25.17 13.4,-39.69 -0.44,-1.42 -0.86,-2.34 -1.36,-3.26 0.29,0.25 1.09,1.02 2.5,3.47 1.3,2.26 2.01,3.19 2.81,5.76 4.47,14.53 -1.69,30.75 -13.4,39.69 -24.65,18.83 -94.3,-14.57 -112.58,-32.35 -20.44,-19.92 -0.3,-27.8 15.52,-39.21l-2.42 -4.23 -9.14 -1.31c-15.24,-1.52 -14.1,4.11 -28.48,6.55l-3.27 -0.48c-5.59,2.88 -27.3,8.14 -36.17,11.44 -9.46,3.52 -24.85,10.69 -33.38,12.9 1.59,-5.54 12.1,-5.71 15.66,-10.64 -8.83,-5.17 -72.96,-19.79 -83.61,-17.68l-1.67 1.09c-2.14,11.1 -2.14,37.82 -0.61,49.23zm139.16 -157.36c-6.54,-44.67 32.84,-61.51 41.6,-11.44 0.54,3.11 1.2,7.16 1.62,11.55 -0.36,-2.66 -0.76,-5.09 -1.11,-7.12 -8.46,-48.39 -45.52,-34.3 -42.11,7.01zm37.74 29.23c-1.75,1.8 -3.97,3.13 -6.76,3.79 -5.13,1.22 -9.59,0.52 -13.4,-1.44 -17.75,-12.79 -22.59,-58.81 0.37,-64.7 14.65,-3.76 19.75,18.65 21.46,29.93 1.25,8.36 3.46,24.03 -1.67,32.42zm152.2 0.74c4.52,4.8 5.79,8.08 4.67,10.71 -0.65,-1.88 -2.16,-4.07 -4.67,-6.74 -33.86,-2.69 -67.2,-24.57 -99.95,-15.02 -13.4,3.89 -28.86,12.42 -41.6,18.49 -8.13,3.86 -31.11,11.72 -36.25,19.44 -0.33,-0.84 -0.59,-1.68 -0.75,-2.52 2.93,-8.17 28.36,-16.8 37,-20.9 12.74,-6.06 28.2,-14.61 41.6,-18.5 32.75,-9.53 66.09,12.33 99.95,15.04zm-57.53 -60.11c-1.27,-40.13 34.59,-38.69 40.79,4.82 0.65,4.59 1.25,10.2 1.08,15.73 -0.12,-4.19 -0.58,-8.26 -1.08,-11.76 -5.99,-42.02 -39.64,-44.8 -40.79,-8.79zm32.7 41.65c-1.97,1.18 -4.32,1.99 -7.13,2.32 -4.04,0.48 -7.55,-0.91 -10.56,-3.41l-0.04 -0.03 -0.03 -0.03c-6.25,-6.22 -10.15,-17.49 -11.33,-24.11 -7.68,-43.41 24.79,-54.03 33.3,-8.54 1.66,8.9 3.15,26.45 -4.21,33.8zm8.78 293.85l10.92 -14.69c2.17,-8.87 9.65,-18.15 12.36,-28.99 10.53,-42.21 -16.18,-53.45 -25.78,-31.96 -6.46,14.5 -2.12,24.08 -4.95,35.75 -6.18,-8.59 -2.41,-22.55 -16.27,-29.5 -23.24,-11.6 -42.31,14.71 -27.13,49.96 9.51,22.07 18,19.87 19.03,25.63 -6.64,-0.01 -6.04,-5.27 -15.88,-5.19 -10.06,0.09 -41.77,10.32 -46.55,17.38 -7.35,3.3 -10.15,5.68 -16.4,11.14 -7.45,6.5 -11.21,-1.43 -18.21,-1.27 -1.51,0.05 -27.66,12.33 -36.25,13.99 -14.89,2.89 -31.41,4.59 -46.43,1.51 -6.61,-1.37 -13.42,-3.31 -19.79,-5.52 -11.19,-3.91 -15.56,-8.07 -17.54,-3.57 8.25,10.11 14.25,16.72 25.67,23.51 7.57,4.49 9.84,4.92 18.32,7.06 7.11,1.81 10.25,5.03 15.69,7.22 10.63,1.09 19.67,4.79 30.9,5.24 37.31,1.46 82.23,-7.02 111,-32.36 2.02,-1.78 58.13,-17.71 60.51,-46.74l-0.02 -7.45c-5.46,1.91 -3.21,6.62 -12.54,12.01l-0.66 -3.16zm-156.42 -249.08c27.41,-0.29 40.44,6.51 89.63,2.69 17.94,-1.4 60.23,-9.54 73.41,-20.83l-3.3 -2.52c4.72,0.84 12.21,1.8 13.36,6.6 -10.14,11.51 -57.18,19.31 -74.77,21.46 -19.93,2.44 -48.85,1.39 -69.29,-1.84 -8.47,-1.34 -14.65,-3.99 -20.14,-1.01 8.74,12.55 83.71,8.59 106.18,5.09 8.36,-1.31 24,-5.83 30.76,-5.97 -19.91,15.78 -40.21,31.07 -68.49,30.22l-0.2 0 -0.2 -0.01 -1.25 -0.06 -0.75 -0.04 -0.71 -0.05c-1.47,-0.1 -2.97,-0.24 -4.48,-0.44 -15.59,-1.97 -80.72,-19.29 -69.76,-33.29zm129.04 -93.35c-10.14,5.67 -0.6,47.85 12.19,40.78 8.13,-4.49 4.5,-50.11 -12.19,-40.78z"/>
 </g>
</svg>
