<?xml version="1.0" encoding="UTF-8"?>
<!DOCTYPE svg PUBLIC "-//W3C//DTD SVG 1.1//EN" "http://www.w3.org/Graphics/SVG/1.1/DTD/svg11.dtd">
<!-- Creator: CorelDRAW 2017 -->
<svg xmlns="http://www.w3.org/2000/svg" xml:space="preserve" width="6.7732mm" height="6.7732mm" version="1.1" style="shape-rendering:geometricPrecision; text-rendering:geometricPrecision; image-rendering:optimizeQuality; fill-rule:evenodd; clip-rule:evenodd"
viewBox="0 0 677.32 677.32"
 xmlns:xlink="http://www.w3.org/1999/xlink">
 <defs>
  <style type="text/css">
   <![CDATA[
    .fil2 {fill:#FEFEFE}
    .fil1 {fill:#727376}
    .fil0 {fill:#ED6B9A}
   ]]>
  </style>
 </defs>
 <g id="Capa_x0020_1">
  <metadata id="CorelCorpID_0Corel-Layer"/>
  <path class="fil0" d="M6.22 677.33l664.88 0c3.42,0 6.23,-2.81 6.23,-6.23l0 -436.94c0,-128.79 -105.38,-234.17 -234.17,-234.17l-436.94 0c-3.42,0 -6.23,2.81 -6.23,6.23l0 664.88c0,3.42 2.81,6.23 6.23,6.23z"/>
  <g id="_2350944624768">
   <path class="fil1" d="M292.03 392.58c-3.57,10.98 -37.65,35.31 -54.69,20.12 -12.76,-11.38 1.61,-46.12 22.27,-52.69 -7.8,9.74 -11.14,22.74 -1.36,33.18 4.03,4.3 8.47,6.62 16.59,6.23 9.48,-0.46 11.3,-3.6 17.19,-6.84z"/>
   <path class="fil1" d="M365.54 447.82c-5.04,18.67 -33.63,39.36 -34,2.37 -0.1,-10.71 3.2,-22.53 7.35,-31.03 2.89,-5.93 12.69,-20.59 21.46,-16.44 -11,-0.46 -13.7,19.52 -13.14,30.21 0.31,6.05 1.89,12.5 5.02,16.1 5.64,6.5 9.08,2.52 13.31,-1.21z"/>
   <path class="fil1" d="M290.42 389.9c-5.26,2.9 -6.89,5.7 -15.35,6.11 -7.25,0.35 -11.22,-1.72 -14.83,-5.57 -8.73,-9.32 -5.75,-20.94 1.22,-29.63 5.66,-5.84 24.56,-7.07 31.62,-0.67 4.07,3.71 4.93,9.06 3.59,15.69 -0.96,4.78 -3.47,11.96 -6.25,14.07z"/>
   <path class="fil1" d="M365.65 445.29c-3.91,3.45 -7.07,7.11 -12.28,1.12 -2.88,-3.31 -4.34,-9.27 -4.63,-14.84 -0.51,-9.86 1.98,-28.29 12.13,-27.86 5.51,1.71 8.16,11.1 8.7,18.1 0.6,7.81 -1.04,17 -3.92,23.48z"/>
   <path class="fil1" d="M196.64 453.19c0,26.01 -4.62,48.69 -14.54,70.65 -3.43,7.6 -10.58,20.74 -16.74,22.36 -21.31,5.62 -12.89,-66.3 -0.47,-92.22 15.85,-33.06 31.75,-32.46 31.75,-0.79z"/>
   <path class="fil1" d="M305.85 534.34c-2.48,12.26 -36.36,22.59 -48.51,25.21 -8.81,1.9 -64.84,9.81 -59.17,-6.71 4.92,-14.34 59.09,-29.08 81.88,-29.44 8.96,-0.14 27.96,0.29 25.8,10.94z"/>
   <path class="fil1" d="M297.87 420.63c20.77,5.6 27.09,29.79 3.91,24.19 -20.42,-4.94 -27.64,-30.58 -3.91,-24.19z"/>
   <path class="fil1" d="M234.58 461.72l-7 3.18 3.34 7.9 -7.49 2.41c0.63,2.97 2.94,4.79 2.02,7.34 -19.49,8.28 -22.52,-29.18 -2.99,-29.67 5.93,-0.15 11.55,3.67 12.12,8.84z"/>
   <path class="fil1" d="M258.01 506.86l6.85 -1.63 -0.33 -8.13 7.75 0.21 1.54 -5.92c9.31,0.11 10.51,12.85 4.49,19.41 -6.23,6.82 -18.75,5.29 -20.3,-3.94z"/>
   <path class="fil1" d="M248.35 87.54c-7.05,4.14 -6.74,11.49 -6.55,20.57 -8.16,-0.73 -9.89,1.69 -10.59,9.86 -3.93,-2.23 -5.55,-4.61 -11.28,-6.34 -14.68,-4.42 -26.5,7.52 -25.52,27.92 -4.87,-2.56 -7.24,-5.67 -14.98,-3.79 -5.41,1.32 -8.83,4.87 -11.63,7.79 -7.22,7.55 -9.84,14.45 -10.38,27.86 -5.63,1.78 -8.19,1.36 -14.55,7.96 -4.33,4.49 -6.65,6.65 -10.76,12.48 -6.51,9.23 -12.18,19.81 -12.18,34.42 -0.74,3.64 -12.81,0.35 -22.92,26.52 -8.13,21.06 -4.49,27.08 -1.57,42.45 -16.28,0.81 -18.13,16.07 -18.12,31.87 -5.59,-7.79 -2.76,-37.88 -0.59,-48.34 2.95,-14.26 7.47,-27.86 12.82,-40.27 11.41,-26.44 24.41,-46.8 38.43,-68.09 13.57,-20.57 78.68,-110.64 120.37,-82.87z"/>
   <path class="fil1" d="M428.42 491.36c5.57,-1.49 14.63,-6.26 19.66,-9.12 8.12,-4.61 14.06,-7.41 12.89,-14.63 11.63,-2.29 24.48,-10.67 31.95,-18.45 3.51,-3.66 5.14,-5.61 4.5,-12.47 11.59,-2.41 33.37,-21.66 30.82,-35.87 13.64,-2.53 25.36,-14.85 30.97,-25.49 4.7,-8.93 1.76,-9.23 -0.46,-15.39 11.39,-2.48 20.61,-16.43 20.47,-26.97 -0.08,-6.45 -2.89,-7.78 -4.3,-11.28 2.94,-2.11 5.24,-3.01 6.28,-7.01 1.37,-5.28 -0.79,-7.97 -2.94,-10.27 3.13,-3.62 9.42,-6.39 10.02,-15.77 0.69,-10.89 -4.62,-11.33 -11.93,-14.09 19.55,-6.13 27.19,4.23 25.37,23.85 -1.34,14.4 -6.68,28.6 -12.08,40.6 -26,57.8 -80.4,124.15 -140.89,147.65 -3.31,1.29 -6.18,2.25 -9.44,3.24 -2.89,0.87 -7.94,3.32 -10.89,1.47z"/>
   <path class="fil1" d="M119.87 391.57c-2.88,2.49 -5.37,3.77 -8.02,6.09 -2.74,2.38 -5.05,4.14 -7.41,6.83 -16.82,19.22 -26.61,36.25 -26.61,65.23 0,27.12 17.37,41.03 41.68,44.84 -2.22,1.75 -5.58,2.1 -8.41,2.66 -29.08,5.72 -43.83,-13.12 -43.83,-43.74 0,-21.88 6.42,-42.99 15.02,-58.96 4.08,-7.58 10.85,-15.97 16.23,-20.5 7.29,-6.14 11.63,-10.74 16.38,-7.14 1.9,1.44 3.99,2.78 4.97,4.69z"/>
   <path class="fil1" d="M292.28 250.57c-0.52,-5.05 -16.06,-28.48 -33.9,-29.61 -21.81,-1.38 -27.79,18.28 -33.41,31.41 -1.69,-10.29 2.3,-30.92 6.09,-39.26 13.03,-28.62 38.79,-24.26 52.49,0.6 4.13,7.49 10.72,26.4 8.73,36.86z"/>
   <path class="fil1" d="M346.55 532.78c15.68,-19.14 10.98,-14.23 23.26,-33.24l6.32 0.68c0.65,4.13 -7.76,17.34 -9.73,20.19 -20.14,29.06 -52.84,54.01 -87.44,66.2 -10.77,3.8 -41.45,12.46 -43.63,-5.63 6.5,5.24 11.28,6.84 22.66,4.75 27.43,-5.02 70.58,-31 88.56,-52.95z"/>
   <path class="fil1" d="M492.15 388.74c1.02,-1.64 22.54,-17.23 12.97,-37.69 -2.66,-5.69 -8.02,-10.09 -14.18,-12.82 -8.2,-3.64 -13.86,-3.26 -22.85,-4.96 8.27,0.06 16.9,-4.48 35.05,-1.23 11.57,2.07 20.43,6.96 24.44,15.18 10.08,20.66 -19.02,38.86 -35.43,41.52z"/>
   <path class="fil1" d="M316.44 361.81c-1.02,-29.02 17.65,-83.67 27.88,-108.48 6.78,-16.45 14.32,-30.97 22.95,-45.39 4.4,-7.36 26.29,-39.03 36.7,-28.8 8.4,8.24 -8.18,21.95 -20.95,26.62 -8.24,3.02 -8.65,0.79 -11.8,5.4 -19.22,28.19 -31.67,61.87 -41.9,95.42 -4.28,14.06 -11.66,41.77 -12.88,55.23z"/>
   <path class="fil1" d="M346.99 379.88c-0.04,-10.32 14.34,-38.68 19.33,-46.66 16.12,-25.79 39.64,-53.92 67.98,-66.93 60.74,-27.89 62.21,2.42 32.72,5.93 -5.26,0.63 -10.42,0.21 -15.37,-1.26 -7.22,-2.15 -4.87,-3.72 -12.63,-0.72 -30.78,11.88 -53.32,37.25 -70.02,64.92 -3.58,5.93 -21.72,38.7 -22.01,44.72z"/>
   <path class="fil1" d="M218.76 426.24c-3.16,-1.77 -7.02,-6.97 -9.69,-9.94l-103.09 -112.07c-6.54,-8.04 -9.84,-16.48 -8.07,-30.46 1.19,-9.42 10.53,-39.23 19.86,-39.46 5.67,-0.14 23.52,26.84 26.99,31.71 20.22,28.38 42.67,65.88 59.31,97.44 20.01,37.94 11.38,19.65 12.09,44.65 0.2,7.32 1.67,11.58 2.6,18.13z"/>
   <path class="fil1" d="M234.55 362.54c-8.57,6.48 -10.57,14.38 -14.33,19.7 -1.83,-2 -10.01,-19.49 -12.13,-23.58 -25.55,-49.29 -40.88,-68.52 -70.2,-112.8 -4.49,-6.8 -11.83,-14.24 -11.5,-25.62 0.55,-18.65 23.76,-45.65 32.3,-38.87 1.82,1.44 11.09,20.05 13,23.73 14.97,28.88 33.68,70.08 44.94,101.32 4.19,11.61 16.73,45.71 17.92,56.12z"/>
   <path class="fil1" d="M239.66 357.51c-2.31,-4.04 -11.04,-75.14 -11.3,-84.66 -0.4,-14.74 3.01,-29.09 10.98,-37.14 8.9,-9 23.07,-10.95 34.36,-2.31 20.08,15.36 18.19,47.21 16.01,78.55 -2.77,39.99 -2.06,29.77 -16.06,31.9 -19.95,3.03 -22.67,8.21 -33.99,13.66z"/>
   <path class="fil1" d="M372.76 414.43c-2.24,-12 -7.96,-9.29 -9.37,-19.1 2.99,-3.31 9.48,-8.2 13.29,-11.12 4.77,-3.66 9.28,-7.07 14.11,-10.59 94.51,-68.78 131.41,-15.34 98.37,8.63 -24.54,17.8 -62.48,19.34 -96.11,27.44 -6.1,1.47 -14.16,4.03 -20.29,4.74z"/>
   <path class="fil1" d="M219.9 435.91c-7.01,5.25 -20.22,-1.64 -22.98,-4.37 -2.69,-2.65 -3.73,-5.9 -9.05,-6.81 -7.59,-1.3 -1.61,2.02 -12.45,-3.92 -31.87,-17.47 -94.08,-56.24 -94.08,-99.12 0,-14.22 8.73,-24.16 14.43,-20.02l17.12 19.65c5.79,5.95 11.61,13.56 17.55,19.19l89.46 95.4z"/>
   <path class="fil1" d="M228.82 324.29c-1.33,-12.44 -28.73,-75.04 -35.3,-89.2 -6.67,-14.38 -13.61,-28.29 -20.89,-42.13 -3.35,-6.37 -8.21,-14.48 -8.64,-23.02 -0.53,-10.37 4.46,-28.24 18.84,-27.78 6.61,0.22 7.32,1.44 10.78,4.88 10.81,10.74 24.34,50.79 28.87,65.71 1.71,5.64 -2.25,14.66 -2.95,27.02 -1.68,29.43 9.72,75.44 9.29,84.52z"/>
   <path class="fil1" d="M305.19 236.79c0,24.59 -0.29,37.9 -3.77,63.55 -1.11,8.17 -5.49,39.51 -9.41,42.92 -1.76,-2.84 1.01,-11.56 1.56,-15.53 3.81,-27.72 8.83,-89.68 -3.36,-113.92 -5.79,-11.52 -11.39,-16.96 -20.91,-23.33 -2.69,-1.8 -1.85,-0.51 -2.64,-4.14 -3.12,-14.45 -5.44,-27.94 -9.1,-41.8 -3.46,-13.08 -10.55,-28.21 -10.55,-41.5 0,-11.08 3.54,-14.17 11.74,-7.91 36.36,27.78 46.44,98.79 46.44,141.66z"/>
   <path class="fil1" d="M360.48 389.53c-1.72,-4.56 0.4,-5.18 6.94,-10.86 4.02,-3.48 7.18,-6.33 11.32,-9.67 36.82,-29.77 88.46,-59.48 132.82,-76.89 12.27,-4.82 55.14,-20.29 67.2,-11.33 4.31,3.2 5.56,8.15 2.03,13.96 -5.55,9.15 -19.38,10.31 -28.98,12.9 -15.11,4.09 -33,10.05 -47.46,15.55 -5.44,2.06 -12.92,0.77 -19.41,1.43 -6.1,0.61 -11.78,1.89 -17.51,3.52 -49.76,14.17 -102.1,59.53 -106.95,61.39z"/>
   <path class="fil1" d="M372.83 443.24c2.26,-16.42 2.06,-9.83 1.48,-23.17 12.01,-1.52 25.29,-4.51 37.68,-6.29 36,-5.19 65.04,-6.82 100.32,-9.77 9.2,-0.76 13.41,0.51 7.54,9.12 -16.26,23.84 -38.4,21.3 -64.81,23.36 -27.37,2.13 -55.12,4.23 -82.21,6.75z"/>
   <path class="fil1" d="M390.73 468.1l-32.82 -0.05c1.93,-4.3 7.19,-4.6 13.22,-20.05 11.94,-0.65 116.31,-9.34 118.76,-7.18 5.44,4.8 -10.4,13.99 -13.91,16.09 -7.83,4.68 -14.06,6.06 -24.32,7.81 -17.22,2.94 -42.6,3.38 -60.93,3.38z"/>
   <path class="fil1" d="M247.75 187.19c-6.39,3.72 -7.93,2.75 -12.83,8.01 -5.56,5.97 -6.22,10.35 -8.72,12.98l-14.95 -43.61c-4.67,-11.9 -17.93,-32.59 -7.28,-44.03 5.39,-5.79 15.9,-5.73 21.82,-0.55 8.47,7.42 12.97,31.96 15.82,43.37 1.69,6.75 5.42,17.7 6.14,23.83z"/>
   <path class="fil1" d="M177.27 426.89c-1.54,2.49 -4.55,4.42 -6.76,7.17 -4.49,5.59 -2.42,4.63 -17.6,4.5l-63.1 -1.07c4.78,-16.85 23.09,-35.67 34.68,-42.69l52.78 32.09z"/>
   <path class="fil1" d="M453.58 471.22c-0.99,5.1 -18.34,13.48 -24.55,15.91 -10.05,3.94 -22.63,6.82 -34.56,6.92 -15.67,0.13 -59.42,-4.52 -71.71,-9.81 15.27,-4.21 16.94,-8.73 24.93,-11.13 10.52,-3.16 24.04,-0.98 35.56,-0.91 9.21,0.06 67.63,-2.07 70.33,-0.98z"/>
   <path class="fil1" d="M364.43 499.02c-2.19,8.1 -19.22,27.52 -24.02,32.71l-31 -21.63c-9.58,-6.73 -7.06,-5.7 -14.71,-12.28 -11.79,-10.13 -13.76,-6.24 -13.37,-13.75 7.65,1.36 13.39,2.68 21.9,2.58 16.63,-0.18 4.85,-1.84 21,3.22 9.7,3.04 39.92,9.03 40.2,9.15z"/>
   <path class="fil1" d="M535.98 359.15c-0.2,-13.75 -3.77,-17.45 -9.89,-24.59 8.12,-2.43 16.57,-4.89 25.2,-7.07 8.69,-2.19 21.68,-7.42 22.81,4.72 0.85,9.22 -6.87,18.11 -11.37,21.04 -4.67,3.04 -19.96,5.67 -26.75,5.9z"/>
   <path class="fil1" d="M151.98 476.25c-8.79,1.56 -15.71,3.44 -23.34,-0.92 -5.28,-3.03 -9.36,-11.29 -6.16,-19.69 2.63,-6.93 8.15,-8.82 16.91,-10.75 7.25,-1.6 17.5,-3.17 25.38,-3.22 -1.62,4.59 -5.17,10.44 -7.32,16.07 -2.31,6.03 -3.53,12.24 -5.47,18.51z"/>
   <path class="fil1" d="M455.69 403.55c4.23,-1.86 22.48,-4.22 29.09,-5.98 16.14,-4.3 35.69,-12.48 45.55,-25.05 4.37,-5.57 1.53,-7.17 9.57,-8.42 3.6,-0.56 12.52,-2.78 15.02,-0.69 6.45,5.4 -13.3,31.95 -34.18,34.05 -12.51,1.26 -55.81,6.05 -65.05,6.09z"/>
   <path class="fil1" d="M139.93 482.14c-5.59,1.34 -16.03,5.76 -22.09,7.91 -5.05,1.79 -19.28,7.45 -23.26,7.58 -5.13,-6.24 -9.66,-12.33 -10.12,-23.55l33.29 -6.45c5.52,6.31 3,12.49 22.18,14.51z"/>
   <path class="fil1" d="M117.07 463.85l-33.1 6.1c-0.12,-10.3 1.45,-18.98 4.06,-27.85l45.66 -0.34c-3.75,2.65 -7.9,1.63 -12.17,6.94 -3.39,4.23 -4.45,7.95 -4.45,15.15z"/>
   <path class="fil1" d="M99.96 502.03c1.48,-1.65 2.83,-1.7 5.49,-2.61 12.06,-4.14 37.71,-14.7 45.29,-16.74 -0.24,5.93 -1.8,12.94 -2.38,19.38 -0.43,4.75 -0.22,4.32 -4.62,5.8 -13.49,4.55 -34.43,2.46 -43.78,-5.83z"/>
   <path class="fil1" d="M262.17 187.36l-9.78 -0.97c-2.42,-12.17 -6.58,-25.75 -9.79,-38.27 -0.81,-3.17 -13.28,-40.98 -2.76,-35.7 6.6,3.31 20.64,62.32 22.33,74.94z"/>
   <path class="fil1" d="M300.87 547.86c2.84,-3.95 9,-6.65 9.63,-14.36 0.45,-5.66 -1.99,-5.82 -2.62,-9.06 -0.45,-2.29 -0.57,-8.3 -0.95,-11.18 6.89,3.32 22.88,17.63 29.33,21.55 -1.97,5.32 -25.85,22.62 -30.03,23.79l-5.36 -10.74z"/>
   <path class="fil1" d="M509.51 326.24c3.43,-2.88 27.65,-9.87 33.45,-11.57 5.97,-1.76 34.98,-11.53 34.39,-2.06 -0.34,5.28 -10.24,5.68 -15.42,6.83l-35.47 9.43c-9.59,2.92 -8.02,-0.14 -16.95,-2.63z"/>
   <path class="fil1" d="M267.19 577.98c-5.81,1.39 -36.19,10 -31.56,-9.4 4.88,-0.99 10.82,-1.07 15.96,-1.91 4.69,-0.76 10.65,-2.68 14.74,-2.98l0.86 14.29z"/>
   <path class="fil1" d="M301.68 562.25c-9.36,4.48 -18.68,10.81 -29.85,14l-1.39 -14.05c15.58,-5.24 17.72,-8.15 26.16,-11.43l5.08 11.48z"/>
   <path class="fil1" d="M303.48 522.57c-6.61,-3.76 -22.13,-3.85 -31.35,-3.63 3.42,-2.89 7.33,-1.99 11.18,-8.43 3.58,-5.98 2.25,-9.27 0.85,-16.14 6.42,2.69 20.77,16.85 19.32,28.2z"/>
   <path class="fil1" d="M283.48 436.44l-4.93 1.92c-0.29,-3.66 0.19,-3.69 1.24,-6.42l2.21 2.08c0.6,0.8 1,1.65 1.48,2.42z"/>
   <path class="fil1" d="M310.06 448.74c-1.17,2.11 -1.95,3.44 -4.77,3.71l-0.93 -3.82 5.7 0.11z"/>
   <path class="fil1" d="M238.96 463.12c-0.2,-5.97 -7.91,-13.32 -14.25,-13.86 -16.99,-1.46 -24.89,20.22 -15.23,32 5.75,7.01 16.45,5.74 20.49,2.59l-2.34 -6.93 7.43 -2.77c-0.28,-4.13 -2.43,-4.37 -3.51,-8.21l7.41 -2.82zm65.78 -7.88c4.81,-0.06 6.68,-3.82 8.99,-6.54 2.8,-3.3 6.18,-3.48 6.29,-9 0.26,-13.47 -21.87,-27.49 -35.79,-22.17 -4.34,1.66 -4.87,4.17 -5.44,9.36 -0.53,4.82 -2.85,6.64 -2.64,12.83 16.12,-0.22 6.77,-1.2 17.46,5.09 1.64,0.96 6.67,2.76 7.51,3.7 0.81,0.89 2.34,5.08 3.62,6.73zm-17.52 -103.5c-21.39,-4.86 -42.03,9.72 -49.49,20.63 -10.21,14.94 -15.67,42.1 6.04,47.34 22.26,5.37 41.91,-10.59 49.9,-21.22 11.07,-14.73 17.06,-41.41 -6.45,-46.75zm26.47 1.51c0.86,5.97 -1.29,9.11 1.28,15.01 4.88,-1.54 2.96,-7.02 5.46,-11.79 6.19,2.13 12.73,7.95 17.21,11.78 13.58,11.62 2.66,6.88 5.95,18.83 4.54,-0.28 3.11,-2.47 6.01,-5.27 2.78,2.78 7.4,10.73 8.36,15.77 -4.57,2.44 -10.28,2.2 -16.97,10.88 -10.4,13.48 -18.35,37.83 -11.49,55.17 1.64,4.15 3.86,5.92 5.91,8.34 -8.21,8.6 -35.27,10.93 -50.52,7.97 -5.11,-0.99 -12.68,-3.98 -16.93,-3.65 0.84,5.91 4.7,3.84 8.45,6.95l-0.18 3.81 -5.02 -0.94 -1.15 7.7 -6.34 0.05c-3.53,0.63 -1.92,2.63 -2.29,8.92l-7.7 2.78c0.14,8.25 8.19,10.85 11.16,12.99 -2.12,2.01 -16.51,4.15 -20.64,5.26 -25.17,6.74 -26.3,14.04 -38.54,8.48 -6.57,-2.98 -11.33,-6.49 -16.12,-10.73l9.17 -33.48c2.75,-13.74 3.81,-25.72 2.68,-40.3 7.32,-2.41 14.68,-6.31 23.5,-7.42 1.17,2.82 2.99,6.24 6.57,6.76 0.03,-8.57 -25.69,-41.88 4.29,-78.21 17.61,-21.33 56.73,-25.69 77.89,-15.66z"/>
   <path class="fil1" d="M200.27 439.96l6.11 -0.03c-2.84,1.59 -5.91,5.21 -6.11,0.03z"/>
  </g>
  <g id="_2350944597376">
   <path class="fil1" d="M300.5 393.45c-3.57,10.98 -37.65,35.31 -54.69,20.12 -12.76,-11.38 1.61,-46.12 22.27,-52.69 -7.8,9.74 -11.14,22.74 -1.36,33.18 4.03,4.3 8.47,6.62 16.59,6.23 9.48,-0.46 11.3,-3.6 17.19,-6.84z"/>
   <path class="fil1" d="M374.01 448.69c-5.04,18.67 -33.63,39.36 -34,2.37 -0.1,-10.71 3.2,-22.53 7.35,-31.03 2.89,-5.93 12.69,-20.59 21.46,-16.44 -11,-0.46 -13.7,19.52 -13.14,30.21 0.31,6.05 1.89,12.5 5.02,16.1 5.64,6.5 9.08,2.52 13.31,-1.21z"/>
   <path class="fil1" d="M298.89 390.77c-5.26,2.9 -6.89,5.7 -15.35,6.11 -7.25,0.35 -11.22,-1.72 -14.83,-5.57 -8.73,-9.32 -5.75,-20.94 1.22,-29.63 5.66,-5.84 24.56,-7.07 31.62,-0.67 4.07,3.71 4.93,9.06 3.59,15.69 -0.96,4.78 -3.47,11.96 -6.25,14.07z"/>
   <path class="fil1" d="M374.12 446.16c-3.91,3.45 -7.07,7.11 -12.28,1.12 -2.88,-3.31 -4.34,-9.27 -4.63,-14.84 -0.51,-9.86 1.98,-28.29 12.13,-27.86 5.51,1.71 8.16,11.1 8.7,18.1 0.6,7.81 -1.04,17 -3.92,23.48z"/>
   <path class="fil1" d="M205.11 454.06c0,26.01 -4.62,48.69 -14.54,70.65 -3.43,7.6 -10.58,20.74 -16.74,22.36 -21.31,5.62 -12.89,-66.3 -0.47,-92.22 15.85,-33.06 31.75,-32.46 31.75,-0.79z"/>
   <path class="fil1" d="M314.32 535.21c-2.48,12.26 -36.36,22.59 -48.51,25.21 -8.81,1.9 -64.84,9.81 -59.17,-6.71 4.92,-14.34 59.09,-29.08 81.88,-29.44 8.96,-0.14 27.96,0.29 25.8,10.94z"/>
   <path class="fil1" d="M306.34 421.5c20.77,5.6 27.09,29.79 3.91,24.19 -20.42,-4.94 -27.64,-30.58 -3.91,-24.19z"/>
   <path class="fil1" d="M243.05 462.59l-7 3.18 3.34 7.9 -7.49 2.41c0.63,2.97 2.94,4.79 2.02,7.34 -19.49,8.28 -22.52,-29.18 -2.99,-29.67 5.93,-0.15 11.55,3.67 12.12,8.84z"/>
   <path class="fil1" d="M266.48 507.73l6.85 -1.63 -0.33 -8.13 7.75 0.21 1.54 -5.92c9.31,0.11 10.51,12.85 4.49,19.41 -6.23,6.82 -18.75,5.29 -20.3,-3.94z"/>
   <path class="fil1" d="M256.82 88.41c-7.05,4.14 -6.74,11.49 -6.55,20.57 -8.16,-0.73 -9.89,1.69 -10.59,9.86 -3.93,-2.23 -5.55,-4.61 -11.28,-6.34 -14.68,-4.42 -26.5,7.52 -25.52,27.92 -4.87,-2.56 -7.24,-5.67 -14.98,-3.79 -5.41,1.32 -8.83,4.87 -11.63,7.79 -7.22,7.55 -9.84,14.45 -10.38,27.86 -5.63,1.78 -8.19,1.36 -14.55,7.96 -4.33,4.49 -6.65,6.65 -10.76,12.48 -6.51,9.23 -12.18,19.81 -12.18,34.42 -0.74,3.64 -12.81,0.35 -22.92,26.52 -8.13,21.06 -4.49,27.08 -1.57,42.45 -16.28,0.81 -18.13,16.07 -18.12,31.87 -5.59,-7.79 -2.76,-37.88 -0.59,-48.34 2.95,-14.26 7.47,-27.86 12.82,-40.27 11.41,-26.44 24.41,-46.8 38.43,-68.09 13.57,-20.57 78.68,-110.64 120.37,-82.87z"/>
   <path class="fil1" d="M436.89 492.23c5.57,-1.49 14.63,-6.26 19.66,-9.12 8.12,-4.61 14.06,-7.41 12.89,-14.63 11.63,-2.29 24.48,-10.67 31.95,-18.45 3.51,-3.66 5.14,-5.61 4.5,-12.47 11.59,-2.41 33.37,-21.66 30.82,-35.87 13.64,-2.53 25.36,-14.85 30.97,-25.49 4.7,-8.93 1.76,-9.23 -0.46,-15.39 11.39,-2.48 20.61,-16.43 20.47,-26.97 -0.08,-6.45 -2.89,-7.78 -4.3,-11.28 2.94,-2.11 5.24,-3.01 6.28,-7.01 1.37,-5.28 -0.79,-7.97 -2.94,-10.27 3.13,-3.62 9.42,-6.39 10.02,-15.77 0.69,-10.89 -4.62,-11.33 -11.93,-14.09 19.55,-6.13 27.19,4.23 25.37,23.85 -1.34,14.4 -6.68,28.6 -12.08,40.6 -26,57.8 -80.4,124.15 -140.89,147.65 -3.31,1.29 -6.18,2.25 -9.44,3.24 -2.89,0.87 -7.94,3.32 -10.89,1.47z"/>
   <path class="fil1" d="M128.34 392.44c-2.88,2.49 -5.37,3.77 -8.02,6.09 -2.74,2.38 -5.05,4.14 -7.41,6.83 -16.82,19.22 -26.61,36.25 -26.61,65.23 0,27.12 17.37,41.03 41.68,44.84 -2.22,1.75 -5.58,2.1 -8.41,2.66 -29.08,5.72 -43.83,-13.12 -43.83,-43.74 0,-21.88 6.42,-42.99 15.02,-58.96 4.08,-7.58 10.85,-15.97 16.23,-20.5 7.29,-6.14 11.63,-10.74 16.38,-7.14 1.9,1.44 3.99,2.78 4.97,4.69z"/>
   <path class="fil1" d="M300.75 251.44c-0.52,-5.05 -16.06,-28.48 -33.9,-29.61 -21.81,-1.38 -27.79,18.28 -33.41,31.41 -1.69,-10.29 2.3,-30.92 6.09,-39.26 13.03,-28.62 38.79,-24.26 52.49,0.6 4.13,7.49 10.72,26.4 8.73,36.86z"/>
   <path class="fil1" d="M355.02 533.65c15.68,-19.14 10.98,-14.23 23.26,-33.24l6.32 0.68c0.65,4.13 -7.76,17.34 -9.73,20.19 -20.14,29.06 -52.84,54.01 -87.44,66.2 -10.77,3.8 -41.45,12.46 -43.63,-5.63 6.5,5.24 11.28,6.84 22.66,4.75 27.43,-5.02 70.58,-31 88.56,-52.95z"/>
   <path class="fil1" d="M500.62 389.61c1.02,-1.64 22.54,-17.23 12.97,-37.69 -2.66,-5.69 -8.02,-10.09 -14.18,-12.82 -8.2,-3.64 -13.86,-3.26 -22.85,-4.96 8.27,0.06 16.9,-4.48 35.05,-1.23 11.57,2.07 20.43,6.96 24.44,15.18 10.08,20.66 -19.02,38.86 -35.43,41.52z"/>
   <path class="fil1" d="M324.91 362.68c-1.02,-29.02 17.65,-83.67 27.88,-108.48 6.78,-16.45 14.32,-30.97 22.95,-45.39 4.4,-7.36 26.29,-39.03 36.7,-28.8 8.4,8.24 -8.18,21.95 -20.95,26.62 -8.24,3.02 -8.65,0.79 -11.8,5.4 -19.22,28.19 -31.67,61.87 -41.9,95.42 -4.28,14.06 -11.66,41.77 -12.88,55.23z"/>
   <path class="fil1" d="M355.46 380.75c-0.04,-10.32 14.34,-38.68 19.33,-46.66 16.12,-25.79 39.64,-53.92 67.98,-66.93 60.74,-27.89 62.21,2.42 32.72,5.93 -5.26,0.63 -10.42,0.21 -15.37,-1.26 -7.22,-2.15 -4.87,-3.72 -12.63,-0.72 -30.78,11.88 -53.32,37.25 -70.02,64.92 -3.58,5.93 -21.72,38.7 -22.01,44.72z"/>
   <path class="fil1" d="M227.23 427.11c-3.16,-1.77 -7.02,-6.97 -9.69,-9.94l-103.09 -112.07c-6.54,-8.04 -9.84,-16.48 -8.07,-30.46 1.19,-9.42 10.53,-39.23 19.86,-39.46 5.67,-0.14 23.52,26.84 26.99,31.71 20.22,28.38 42.67,65.88 59.31,97.44 20.01,37.94 11.38,19.65 12.09,44.65 0.2,7.32 1.67,11.58 2.6,18.13z"/>
   <path class="fil1" d="M243.02 363.41c-8.57,6.48 -10.57,14.38 -14.33,19.7 -1.83,-2 -10.01,-19.49 -12.13,-23.58 -25.55,-49.29 -40.88,-68.52 -70.2,-112.8 -4.49,-6.8 -11.83,-14.24 -11.5,-25.62 0.55,-18.65 23.76,-45.65 32.3,-38.87 1.82,1.44 11.09,20.05 13,23.73 14.97,28.88 33.68,70.08 44.94,101.32 4.19,11.61 16.73,45.71 17.92,56.12z"/>
   <path class="fil1" d="M248.13 358.38c-2.31,-4.04 -11.04,-75.14 -11.3,-84.66 -0.4,-14.74 3.01,-29.09 10.98,-37.14 8.9,-9 23.07,-10.95 34.36,-2.31 20.08,15.36 18.19,47.21 16.01,78.55 -2.77,39.99 -2.06,29.77 -16.06,31.9 -19.95,3.03 -22.67,8.21 -33.99,13.66z"/>
   <path class="fil1" d="M381.23 415.3c-2.24,-12 -7.96,-9.29 -9.37,-19.1 2.99,-3.31 9.48,-8.2 13.29,-11.12 4.77,-3.66 9.28,-7.07 14.11,-10.59 94.51,-68.78 131.41,-15.34 98.37,8.63 -24.54,17.8 -62.48,19.34 -96.11,27.44 -6.1,1.47 -14.16,4.03 -20.29,4.74z"/>
   <path class="fil1" d="M228.37 436.78c-7.01,5.25 -20.22,-1.64 -22.98,-4.37 -2.69,-2.65 -3.73,-5.9 -9.05,-6.81 -7.59,-1.3 -1.61,2.02 -12.45,-3.92 -31.87,-17.47 -94.08,-56.24 -94.08,-99.12 0,-14.22 8.73,-24.16 14.43,-20.02l17.12 19.65c5.79,5.95 11.61,13.56 17.55,19.19l89.46 95.4z"/>
   <path class="fil1" d="M237.29 325.16c-1.33,-12.44 -28.73,-75.04 -35.3,-89.2 -6.67,-14.38 -13.61,-28.29 -20.89,-42.13 -3.35,-6.37 -8.21,-14.48 -8.64,-23.02 -0.53,-10.37 4.46,-28.24 18.84,-27.78 6.61,0.22 7.32,1.44 10.78,4.88 10.81,10.74 24.34,50.79 28.87,65.71 1.71,5.64 -2.25,14.66 -2.95,27.02 -1.68,29.43 9.72,75.44 9.29,84.52z"/>
   <path class="fil1" d="M313.66 237.66c0,24.59 -0.29,37.9 -3.77,63.55 -1.11,8.17 -5.49,39.51 -9.41,42.92 -1.76,-2.84 1.01,-11.56 1.56,-15.53 3.81,-27.72 8.83,-89.68 -3.36,-113.92 -5.79,-11.52 -11.39,-16.96 -20.91,-23.33 -2.69,-1.8 -1.85,-0.51 -2.64,-4.14 -3.12,-14.45 -5.44,-27.94 -9.1,-41.8 -3.46,-13.08 -10.55,-28.21 -10.55,-41.5 0,-11.08 3.54,-14.17 11.74,-7.91 36.36,27.78 46.44,98.79 46.44,141.66z"/>
   <path class="fil1" d="M368.95 390.4c-1.72,-4.56 0.4,-5.18 6.94,-10.86 4.02,-3.48 7.18,-6.33 11.32,-9.67 36.82,-29.77 88.46,-59.48 132.82,-76.89 12.27,-4.82 55.14,-20.29 67.2,-11.33 4.31,3.2 5.56,8.15 2.03,13.96 -5.55,9.15 -19.38,10.31 -28.98,12.9 -15.11,4.09 -33,10.05 -47.46,15.55 -5.44,2.06 -12.92,0.77 -19.41,1.43 -6.1,0.61 -11.78,1.89 -17.51,3.52 -49.76,14.17 -102.1,59.53 -106.95,61.39z"/>
   <path class="fil1" d="M381.3 444.11c2.26,-16.42 2.06,-9.83 1.48,-23.17 12.01,-1.52 25.29,-4.51 37.68,-6.29 36,-5.19 65.04,-6.82 100.32,-9.77 9.2,-0.76 13.41,0.51 7.54,9.12 -16.26,23.84 -38.4,21.3 -64.81,23.36 -27.37,2.13 -55.12,4.23 -82.21,6.75z"/>
   <path class="fil1" d="M399.2 468.97l-32.82 -0.05c1.93,-4.3 7.19,-4.6 13.22,-20.05 11.94,-0.65 116.31,-9.34 118.76,-7.18 5.44,4.8 -10.4,13.99 -13.91,16.09 -7.83,4.68 -14.06,6.06 -24.32,7.81 -17.22,2.94 -42.6,3.38 -60.93,3.38z"/>
   <path class="fil1" d="M256.22 188.06c-6.39,3.72 -7.93,2.75 -12.83,8.01 -5.56,5.97 -6.22,10.35 -8.72,12.98l-14.95 -43.61c-4.67,-11.9 -17.93,-32.59 -7.28,-44.03 5.39,-5.79 15.9,-5.73 21.82,-0.55 8.47,7.42 12.97,31.96 15.82,43.37 1.69,6.75 5.42,17.7 6.14,23.83z"/>
   <path class="fil1" d="M185.74 427.76c-1.54,2.49 -4.55,4.42 -6.76,7.17 -4.49,5.59 -2.42,4.63 -17.6,4.5l-63.1 -1.07c4.78,-16.85 23.09,-35.67 34.68,-42.69l52.78 32.09z"/>
   <path class="fil1" d="M462.05 472.09c-0.99,5.1 -18.34,13.48 -24.55,15.91 -10.05,3.94 -22.63,6.82 -34.56,6.92 -15.67,0.13 -59.42,-4.52 -71.71,-9.81 15.27,-4.21 16.94,-8.73 24.93,-11.13 10.52,-3.16 24.04,-0.98 35.56,-0.91 9.21,0.06 67.63,-2.07 70.33,-0.98z"/>
   <path class="fil1" d="M372.9 499.89c-2.19,8.1 -19.22,27.52 -24.02,32.71l-31 -21.63c-9.58,-6.73 -7.06,-5.7 -14.71,-12.28 -11.79,-10.13 -13.76,-6.24 -13.37,-13.75 7.65,1.36 13.39,2.68 21.9,2.58 16.63,-0.18 4.85,-1.84 21,3.22 9.7,3.04 39.92,9.03 40.2,9.15z"/>
   <path class="fil1" d="M544.45 360.02c-0.2,-13.75 -3.77,-17.45 -9.89,-24.59 8.12,-2.43 16.57,-4.89 25.2,-7.07 8.69,-2.19 21.68,-7.42 22.81,4.72 0.85,9.22 -6.87,18.11 -11.37,21.04 -4.67,3.04 -19.96,5.67 -26.75,5.9z"/>
   <path class="fil1" d="M160.45 477.12c-8.79,1.56 -15.71,3.44 -23.34,-0.92 -5.28,-3.03 -9.36,-11.29 -6.16,-19.69 2.63,-6.93 8.15,-8.82 16.91,-10.75 7.25,-1.6 17.5,-3.17 25.38,-3.22 -1.62,4.59 -5.17,10.44 -7.32,16.07 -2.31,6.03 -3.53,12.24 -5.47,18.51z"/>
   <path class="fil1" d="M464.16 404.42c4.23,-1.86 22.48,-4.22 29.09,-5.98 16.14,-4.3 35.69,-12.48 45.55,-25.05 4.37,-5.57 1.53,-7.17 9.57,-8.42 3.6,-0.56 12.52,-2.78 15.02,-0.69 6.45,5.4 -13.3,31.95 -34.18,34.05 -12.51,1.26 -55.81,6.05 -65.05,6.09z"/>
   <path class="fil1" d="M148.4 483.01c-5.59,1.34 -16.03,5.76 -22.09,7.91 -5.05,1.79 -19.28,7.45 -23.26,7.58 -5.13,-6.24 -9.66,-12.33 -10.12,-23.55l33.29 -6.45c5.52,6.31 3,12.49 22.18,14.51z"/>
   <path class="fil1" d="M125.54 464.72l-33.1 6.1c-0.12,-10.3 1.45,-18.98 4.06,-27.85l45.66 -0.34c-3.75,2.65 -7.9,1.63 -12.17,6.94 -3.39,4.23 -4.45,7.95 -4.45,15.15z"/>
   <path class="fil1" d="M108.43 502.9c1.48,-1.65 2.83,-1.7 5.49,-2.61 12.06,-4.14 37.71,-14.7 45.29,-16.74 -0.24,5.93 -1.8,12.94 -2.38,19.38 -0.43,4.75 -0.22,4.32 -4.62,5.8 -13.49,4.55 -34.43,2.46 -43.78,-5.83z"/>
   <path class="fil1" d="M270.64 188.23l-9.78 -0.97c-2.42,-12.17 -6.58,-25.75 -9.79,-38.27 -0.81,-3.17 -13.28,-40.98 -2.76,-35.7 6.6,3.31 20.64,62.32 22.33,74.94z"/>
   <path class="fil1" d="M309.34 548.73c2.84,-3.95 9,-6.65 9.63,-14.36 0.45,-5.66 -1.99,-5.82 -2.62,-9.06 -0.45,-2.29 -0.57,-8.3 -0.95,-11.18 6.89,3.32 22.88,17.63 29.33,21.55 -1.97,5.32 -25.85,22.62 -30.03,23.79l-5.36 -10.74z"/>
   <path class="fil1" d="M517.98 327.11c3.43,-2.88 27.65,-9.87 33.45,-11.57 5.97,-1.76 34.98,-11.53 34.39,-2.06 -0.34,5.28 -10.24,5.68 -15.42,6.83l-35.47 9.43c-9.59,2.92 -8.02,-0.14 -16.95,-2.63z"/>
   <path class="fil1" d="M275.66 578.85c-5.81,1.39 -36.19,10 -31.56,-9.4 4.88,-0.99 10.82,-1.07 15.96,-1.91 4.69,-0.76 10.65,-2.68 14.74,-2.98l0.86 14.29z"/>
   <path class="fil1" d="M310.15 563.12c-9.36,4.48 -18.68,10.81 -29.85,14l-1.39 -14.05c15.58,-5.24 17.72,-8.15 26.16,-11.43l5.08 11.48z"/>
   <path class="fil1" d="M311.95 523.44c-6.61,-3.76 -22.13,-3.85 -31.35,-3.63 3.42,-2.89 7.33,-1.99 11.18,-8.43 3.58,-5.98 2.25,-9.27 0.85,-16.14 6.42,2.69 20.77,16.85 19.32,28.2z"/>
   <path class="fil1" d="M291.95 437.31l-4.93 1.92c-0.29,-3.66 0.19,-3.69 1.24,-6.42l2.21 2.08c0.6,0.8 1,1.65 1.48,2.42z"/>
   <path class="fil1" d="M318.53 449.61c-1.17,2.11 -1.95,3.44 -4.77,3.71l-0.93 -3.82 5.7 0.11z"/>
   <path class="fil1" d="M247.43 463.99c-0.2,-5.97 -7.91,-13.32 -14.25,-13.86 -16.99,-1.46 -24.89,20.22 -15.23,32 5.75,7.01 16.45,5.74 20.49,2.59l-2.34 -6.93 7.43 -2.77c-0.28,-4.13 -2.43,-4.37 -3.51,-8.21l7.41 -2.82zm65.78 -7.88c4.81,-0.06 6.68,-3.82 8.99,-6.54 2.8,-3.3 6.18,-3.48 6.29,-9 0.26,-13.47 -21.87,-27.49 -35.79,-22.17 -4.34,1.66 -4.87,4.17 -5.44,9.36 -0.53,4.82 -2.85,6.64 -2.64,12.83 16.12,-0.22 6.77,-1.2 17.46,5.09 1.64,0.96 6.67,2.76 7.51,3.7 0.81,0.89 2.34,5.08 3.62,6.73zm-17.52 -103.5c-21.39,-4.86 -42.03,9.72 -49.49,20.63 -10.21,14.94 -15.67,42.1 6.04,47.34 22.26,5.37 41.91,-10.59 49.9,-21.22 11.07,-14.73 17.06,-41.41 -6.45,-46.75zm26.47 1.51c0.86,5.97 -1.29,9.11 1.28,15.01 4.88,-1.54 2.96,-7.02 5.46,-11.79 6.19,2.13 12.73,7.95 17.21,11.78 13.58,11.62 2.66,6.88 5.95,18.83 4.54,-0.28 3.11,-2.47 6.01,-5.27 2.78,2.78 7.4,10.73 8.36,15.77 -4.57,2.44 -10.28,2.2 -16.97,10.88 -10.4,13.48 -18.35,37.83 -11.49,55.17 1.64,4.15 3.86,5.92 5.91,8.34 -8.21,8.6 -35.27,10.93 -50.52,7.97 -5.11,-0.99 -12.68,-3.98 -16.93,-3.65 0.84,5.91 4.7,3.84 8.45,6.95l-0.18 3.81 -5.02 -0.94 -1.15 7.7 -6.34 0.05c-3.53,0.63 -1.92,2.63 -2.29,8.92l-7.7 2.78c0.14,8.25 8.19,10.85 11.16,12.99 -2.12,2.01 -16.51,4.15 -20.64,5.26 -25.17,6.74 -26.3,14.04 -38.54,8.48 -6.57,-2.98 -11.33,-6.49 -16.12,-10.73l9.17 -33.48c2.75,-13.74 3.81,-25.72 2.68,-40.3 7.32,-2.41 14.68,-6.31 23.5,-7.42 1.17,2.82 2.99,6.24 6.57,6.76 0.03,-8.57 -25.69,-41.88 4.29,-78.21 17.61,-21.33 56.73,-25.69 77.89,-15.66z"/>
   <path class="fil1" d="M208.74 440.83l6.11 -0.03c-2.84,1.59 -5.91,5.21 -6.11,0.03z"/>
  </g>
  <g id="_2350834805488">
   <path class="fil1" d="M292.82 390.04c-3.57,10.98 -37.65,35.31 -54.69,20.12 -12.76,-11.38 1.61,-46.12 22.27,-52.69 -7.8,9.74 -11.14,22.74 -1.36,33.18 4.03,4.3 8.47,6.62 16.59,6.23 9.48,-0.46 11.3,-3.6 17.19,-6.84z"/>
   <path class="fil1" d="M366.33 445.28c-5.04,18.67 -33.63,39.36 -34,2.37 -0.1,-10.71 3.2,-22.53 7.35,-31.03 2.89,-5.93 12.69,-20.59 21.46,-16.44 -11,-0.46 -13.7,19.52 -13.14,30.21 0.31,6.05 1.89,12.5 5.02,16.1 5.64,6.5 9.08,2.52 13.31,-1.21z"/>
   <path class="fil1" d="M291.21 387.36c-5.26,2.9 -6.89,5.7 -15.35,6.11 -7.25,0.35 -11.22,-1.72 -14.83,-5.57 -8.73,-9.32 -5.75,-20.94 1.22,-29.63 5.66,-5.84 24.56,-7.07 31.62,-0.67 4.07,3.71 4.93,9.06 3.59,15.69 -0.96,4.78 -3.47,11.96 -6.25,14.07z"/>
   <path class="fil1" d="M366.44 442.75c-3.91,3.45 -7.07,7.11 -12.28,1.12 -2.88,-3.31 -4.34,-9.27 -4.63,-14.84 -0.51,-9.86 1.98,-28.29 12.13,-27.86 5.51,1.71 8.16,11.1 8.7,18.1 0.6,7.81 -1.04,17 -3.92,23.48z"/>
   <path class="fil1" d="M197.43 450.65c0,26.01 -4.62,48.69 -14.54,70.65 -3.43,7.6 -10.58,20.74 -16.74,22.36 -21.31,5.62 -12.89,-66.3 -0.47,-92.22 15.85,-33.06 31.75,-32.46 31.75,-0.79z"/>
   <path class="fil1" d="M306.64 531.8c-2.48,12.26 -36.36,22.59 -48.51,25.21 -8.81,1.9 -64.84,9.81 -59.17,-6.71 4.92,-14.34 59.09,-29.08 81.88,-29.44 8.96,-0.14 27.96,0.29 25.8,10.94z"/>
   <path class="fil1" d="M298.66 418.09c20.77,5.6 27.09,29.79 3.91,24.19 -20.42,-4.94 -27.64,-30.58 -3.91,-24.19z"/>
   <path class="fil1" d="M235.37 459.18l-7 3.18 3.34 7.9 -7.49 2.41c0.63,2.97 2.94,4.79 2.02,7.34 -19.49,8.28 -22.52,-29.18 -2.99,-29.67 5.93,-0.15 11.55,3.67 12.12,8.84z"/>
   <path class="fil1" d="M258.8 504.32l6.85 -1.63 -0.33 -8.13 7.75 0.21 1.54 -5.92c9.31,0.11 10.51,12.85 4.49,19.41 -6.23,6.82 -18.75,5.29 -20.3,-3.94z"/>
   <path class="fil1" d="M249.14 85c-7.05,4.14 -6.74,11.49 -6.55,20.57 -8.16,-0.73 -9.89,1.69 -10.59,9.86 -3.93,-2.23 -5.55,-4.61 -11.28,-6.34 -14.68,-4.42 -26.5,7.52 -25.52,27.92 -4.87,-2.56 -7.24,-5.67 -14.98,-3.79 -5.41,1.32 -8.83,4.87 -11.63,7.79 -7.22,7.55 -9.84,14.45 -10.38,27.86 -5.63,1.78 -8.19,1.36 -14.55,7.96 -4.33,4.49 -6.65,6.65 -10.76,12.48 -6.51,9.23 -12.18,19.81 -12.18,34.42 -0.74,3.64 -12.81,0.35 -22.92,26.52 -8.13,21.06 -4.49,27.08 -1.57,42.45 -16.28,0.81 -18.13,16.07 -18.12,31.87 -5.59,-7.79 -2.76,-37.88 -0.59,-48.34 2.95,-14.26 7.47,-27.86 12.82,-40.27 11.41,-26.44 24.41,-46.8 38.43,-68.09 13.57,-20.57 78.68,-110.64 120.37,-82.87z"/>
   <path class="fil1" d="M429.21 488.82c5.57,-1.49 14.63,-6.26 19.66,-9.12 8.12,-4.61 14.06,-7.41 12.89,-14.63 11.63,-2.29 24.48,-10.67 31.95,-18.45 3.51,-3.66 5.14,-5.61 4.5,-12.47 11.59,-2.41 33.37,-21.66 30.82,-35.87 13.64,-2.53 25.36,-14.85 30.97,-25.49 4.7,-8.93 1.76,-9.23 -0.46,-15.39 11.39,-2.48 20.61,-16.43 20.47,-26.97 -0.08,-6.45 -2.89,-7.78 -4.3,-11.28 2.94,-2.11 5.24,-3.01 6.28,-7.01 1.37,-5.28 -0.79,-7.97 -2.94,-10.27 3.13,-3.62 9.42,-6.39 10.02,-15.77 0.69,-10.89 -4.62,-11.33 -11.93,-14.09 19.55,-6.13 27.19,4.23 25.37,23.85 -1.34,14.4 -6.68,28.6 -12.08,40.6 -26,57.8 -80.4,124.15 -140.89,147.65 -3.31,1.29 -6.18,2.25 -9.44,3.24 -2.89,0.87 -7.94,3.32 -10.89,1.47z"/>
   <path class="fil1" d="M120.66 389.03c-2.88,2.49 -5.37,3.77 -8.02,6.09 -2.74,2.38 -5.05,4.14 -7.41,6.83 -16.82,19.22 -26.61,36.25 -26.61,65.23 0,27.12 17.37,41.03 41.68,44.84 -2.22,1.75 -5.58,2.1 -8.41,2.66 -29.08,5.72 -43.83,-13.12 -43.83,-43.74 0,-21.88 6.42,-42.99 15.02,-58.96 4.08,-7.58 10.85,-15.97 16.23,-20.5 7.29,-6.14 11.63,-10.74 16.38,-7.14 1.9,1.44 3.99,2.78 4.97,4.69z"/>
   <path class="fil1" d="M293.07 248.03c-0.52,-5.05 -16.06,-28.48 -33.9,-29.61 -21.81,-1.38 -27.79,18.28 -33.41,31.41 -1.69,-10.29 2.3,-30.92 6.09,-39.26 13.03,-28.62 38.79,-24.26 52.49,0.6 4.13,7.49 10.72,26.4 8.73,36.86z"/>
   <path class="fil1" d="M347.34 530.24c15.68,-19.14 10.98,-14.23 23.26,-33.24l6.32 0.68c0.65,4.13 -7.76,17.34 -9.73,20.19 -20.14,29.06 -52.84,54.01 -87.44,66.2 -10.77,3.8 -41.45,12.46 -43.63,-5.63 6.5,5.24 11.28,6.84 22.66,4.75 27.43,-5.02 70.58,-31 88.56,-52.95z"/>
   <path class="fil1" d="M492.94 386.2c1.02,-1.64 22.54,-17.23 12.97,-37.69 -2.66,-5.69 -8.02,-10.09 -14.18,-12.82 -8.2,-3.64 -13.86,-3.26 -22.85,-4.96 8.27,0.06 16.9,-4.48 35.05,-1.23 11.57,2.07 20.43,6.96 24.44,15.18 10.08,20.66 -19.02,38.86 -35.43,41.52z"/>
   <path class="fil1" d="M317.23 359.27c-1.02,-29.02 17.65,-83.67 27.88,-108.48 6.78,-16.45 14.32,-30.97 22.95,-45.39 4.4,-7.36 26.29,-39.03 36.7,-28.8 8.4,8.24 -8.18,21.95 -20.95,26.62 -8.24,3.02 -8.65,0.79 -11.8,5.4 -19.22,28.19 -31.67,61.87 -41.9,95.42 -4.28,14.06 -11.66,41.77 -12.88,55.23z"/>
   <path class="fil1" d="M347.78 377.34c-0.04,-10.32 14.34,-38.68 19.33,-46.66 16.12,-25.79 39.64,-53.92 67.98,-66.93 60.74,-27.89 62.21,2.42 32.72,5.93 -5.26,0.63 -10.42,0.21 -15.37,-1.26 -7.22,-2.15 -4.87,-3.72 -12.63,-0.72 -30.78,11.88 -53.32,37.25 -70.02,64.92 -3.58,5.93 -21.72,38.7 -22.01,44.72z"/>
   <path class="fil1" d="M219.55 423.7c-3.16,-1.77 -7.02,-6.97 -9.69,-9.94l-103.09 -112.07c-6.54,-8.04 -9.84,-16.48 -8.07,-30.46 1.19,-9.42 10.53,-39.23 19.86,-39.46 5.67,-0.14 23.52,26.84 26.99,31.71 20.22,28.38 42.67,65.88 59.31,97.44 20.01,37.94 11.38,19.65 12.09,44.65 0.2,7.32 1.67,11.58 2.6,18.13z"/>
   <path class="fil1" d="M235.34 360c-8.57,6.48 -10.57,14.38 -14.33,19.7 -1.83,-2 -10.01,-19.49 -12.13,-23.58 -25.55,-49.29 -40.88,-68.52 -70.2,-112.8 -4.49,-6.8 -11.83,-14.24 -11.5,-25.62 0.55,-18.65 23.76,-45.65 32.3,-38.87 1.82,1.44 11.09,20.05 13,23.73 14.97,28.88 33.68,70.08 44.94,101.32 4.19,11.61 16.73,45.71 17.92,56.12z"/>
   <path class="fil1" d="M240.45 354.97c-2.31,-4.04 -11.04,-75.14 -11.3,-84.66 -0.4,-14.74 3.01,-29.09 10.98,-37.14 8.9,-9 23.07,-10.95 34.36,-2.31 20.08,15.36 18.19,47.21 16.01,78.55 -2.77,39.99 -2.06,29.77 -16.06,31.9 -19.95,3.03 -22.67,8.21 -33.99,13.66z"/>
   <path class="fil1" d="M373.55 411.89c-2.24,-12 -7.96,-9.29 -9.37,-19.1 2.99,-3.31 9.48,-8.2 13.29,-11.12 4.77,-3.66 9.28,-7.07 14.11,-10.59 94.51,-68.78 131.41,-15.34 98.37,8.63 -24.54,17.8 -62.48,19.34 -96.11,27.44 -6.1,1.47 -14.16,4.03 -20.29,4.74z"/>
   <path class="fil1" d="M220.69 433.37c-7.01,5.25 -20.22,-1.64 -22.98,-4.37 -2.69,-2.65 -3.73,-5.9 -9.05,-6.81 -7.59,-1.3 -1.61,2.02 -12.45,-3.92 -31.87,-17.47 -94.08,-56.24 -94.08,-99.12 0,-14.22 8.73,-24.16 14.43,-20.02l17.12 19.65c5.79,5.95 11.61,13.56 17.55,19.19l89.46 95.4z"/>
   <path class="fil1" d="M229.61 321.75c-1.33,-12.44 -28.73,-75.04 -35.3,-89.2 -6.67,-14.38 -13.61,-28.29 -20.89,-42.13 -3.35,-6.37 -8.21,-14.48 -8.64,-23.02 -0.53,-10.37 4.46,-28.24 18.84,-27.78 6.61,0.22 7.32,1.44 10.78,4.88 10.81,10.74 24.34,50.79 28.87,65.71 1.71,5.64 -2.25,14.66 -2.95,27.02 -1.68,29.43 9.72,75.44 9.29,84.52z"/>
   <path class="fil1" d="M305.98 234.25c0,24.59 -0.29,37.9 -3.77,63.55 -1.11,8.17 -5.49,39.51 -9.41,42.92 -1.76,-2.84 1.01,-11.56 1.56,-15.53 3.81,-27.72 8.83,-89.68 -3.36,-113.92 -5.79,-11.52 -11.39,-16.96 -20.91,-23.33 -2.69,-1.8 -1.85,-0.51 -2.64,-4.14 -3.12,-14.45 -5.44,-27.94 -9.1,-41.8 -3.46,-13.08 -10.55,-28.21 -10.55,-41.5 0,-11.08 3.54,-14.17 11.74,-7.91 36.36,27.78 46.44,98.79 46.44,141.66z"/>
   <path class="fil1" d="M361.27 386.99c-1.72,-4.56 0.4,-5.18 6.94,-10.86 4.02,-3.48 7.18,-6.33 11.32,-9.67 36.82,-29.77 88.46,-59.48 132.82,-76.89 12.27,-4.82 55.14,-20.29 67.2,-11.33 4.31,3.2 5.56,8.15 2.03,13.96 -5.55,9.15 -19.38,10.31 -28.98,12.9 -15.11,4.09 -33,10.05 -47.46,15.55 -5.44,2.06 -12.92,0.77 -19.41,1.43 -6.1,0.61 -11.78,1.89 -17.51,3.52 -49.76,14.17 -102.1,59.53 -106.95,61.39z"/>
   <path class="fil1" d="M373.62 440.7c2.26,-16.42 2.06,-9.83 1.48,-23.17 12.01,-1.52 25.29,-4.51 37.68,-6.29 36,-5.19 65.04,-6.82 100.32,-9.77 9.2,-0.76 13.41,0.51 7.54,9.12 -16.26,23.84 -38.4,21.3 -64.81,23.36 -27.37,2.13 -55.12,4.23 -82.21,6.75z"/>
   <path class="fil1" d="M391.52 465.56l-32.82 -0.05c1.93,-4.3 7.19,-4.6 13.22,-20.05 11.94,-0.65 116.31,-9.34 118.76,-7.18 5.44,4.8 -10.4,13.99 -13.91,16.09 -7.83,4.68 -14.06,6.06 -24.32,7.81 -17.22,2.94 -42.6,3.38 -60.93,3.38z"/>
   <path class="fil1" d="M248.54 184.65c-6.39,3.72 -7.93,2.75 -12.83,8.01 -5.56,5.97 -6.22,10.35 -8.72,12.98l-14.95 -43.61c-4.67,-11.9 -17.93,-32.59 -7.28,-44.03 5.39,-5.79 15.9,-5.73 21.82,-0.55 8.47,7.42 12.97,31.96 15.82,43.37 1.69,6.75 5.42,17.7 6.14,23.83z"/>
   <path class="fil1" d="M178.06 424.35c-1.54,2.49 -4.55,4.42 -6.76,7.17 -4.49,5.59 -2.42,4.63 -17.6,4.5l-63.1 -1.07c4.78,-16.85 23.09,-35.67 34.68,-42.69l52.78 32.09z"/>
   <path class="fil1" d="M454.37 468.68c-0.99,5.1 -18.34,13.48 -24.55,15.91 -10.05,3.94 -22.63,6.82 -34.56,6.92 -15.67,0.13 -59.42,-4.52 -71.71,-9.81 15.27,-4.21 16.94,-8.73 24.93,-11.13 10.52,-3.16 24.04,-0.98 35.56,-0.91 9.21,0.06 67.63,-2.07 70.33,-0.98z"/>
   <path class="fil1" d="M365.22 496.48c-2.19,8.1 -19.22,27.52 -24.02,32.71l-31 -21.63c-9.58,-6.73 -7.06,-5.7 -14.71,-12.28 -11.79,-10.13 -13.76,-6.24 -13.37,-13.75 7.65,1.36 13.39,2.68 21.9,2.58 16.63,-0.18 4.85,-1.84 21,3.22 9.7,3.04 39.92,9.03 40.2,9.15z"/>
   <path class="fil1" d="M536.77 356.61c-0.2,-13.75 -3.77,-17.45 -9.89,-24.59 8.12,-2.43 16.57,-4.89 25.2,-7.07 8.69,-2.19 21.68,-7.42 22.81,4.72 0.85,9.22 -6.87,18.11 -11.37,21.04 -4.67,3.04 -19.96,5.67 -26.75,5.9z"/>
   <path class="fil1" d="M152.77 473.71c-8.79,1.56 -15.71,3.44 -23.34,-0.92 -5.28,-3.03 -9.36,-11.29 -6.16,-19.69 2.63,-6.93 8.15,-8.82 16.91,-10.75 7.25,-1.6 17.5,-3.17 25.38,-3.22 -1.62,4.59 -5.17,10.44 -7.32,16.07 -2.31,6.03 -3.53,12.24 -5.47,18.51z"/>
   <path class="fil1" d="M456.48 401.01c4.23,-1.86 22.48,-4.22 29.09,-5.98 16.14,-4.3 35.69,-12.48 45.55,-25.05 4.37,-5.57 1.53,-7.17 9.57,-8.42 3.6,-0.56 12.52,-2.78 15.02,-0.69 6.45,5.4 -13.3,31.95 -34.18,34.05 -12.51,1.26 -55.81,6.05 -65.05,6.09z"/>
   <path class="fil1" d="M140.72 479.6c-5.59,1.34 -16.03,5.76 -22.09,7.91 -5.05,1.79 -19.28,7.45 -23.26,7.58 -5.13,-6.24 -9.66,-12.33 -10.12,-23.55l33.29 -6.45c5.52,6.31 3,12.49 22.18,14.51z"/>
   <path class="fil1" d="M117.86 461.31l-33.1 6.1c-0.12,-10.3 1.45,-18.98 4.06,-27.85l45.66 -0.34c-3.75,2.65 -7.9,1.63 -12.17,6.94 -3.39,4.23 -4.45,7.95 -4.45,15.15z"/>
   <path class="fil1" d="M100.75 499.49c1.48,-1.65 2.83,-1.7 5.49,-2.61 12.06,-4.14 37.71,-14.7 45.29,-16.74 -0.24,5.93 -1.8,12.94 -2.38,19.38 -0.43,4.75 -0.22,4.32 -4.62,5.8 -13.49,4.55 -34.43,2.46 -43.78,-5.83z"/>
   <path class="fil1" d="M262.96 184.82l-9.78 -0.97c-2.42,-12.17 -6.58,-25.75 -9.79,-38.27 -0.81,-3.17 -13.28,-40.98 -2.76,-35.7 6.6,3.31 20.64,62.32 22.33,74.94z"/>
   <path class="fil1" d="M301.66 545.32c2.84,-3.95 9,-6.65 9.63,-14.36 0.45,-5.66 -1.99,-5.82 -2.62,-9.06 -0.45,-2.29 -0.57,-8.3 -0.95,-11.18 6.89,3.32 22.88,17.63 29.33,21.55 -1.97,5.32 -25.85,22.62 -30.03,23.79l-5.36 -10.74z"/>
   <path class="fil1" d="M510.3 323.7c3.43,-2.88 27.65,-9.87 33.45,-11.57 5.97,-1.76 34.98,-11.53 34.39,-2.06 -0.34,5.28 -10.24,5.68 -15.42,6.83l-35.47 9.43c-9.59,2.92 -8.02,-0.14 -16.95,-2.63z"/>
   <path class="fil1" d="M267.98 575.44c-5.81,1.39 -36.19,10 -31.56,-9.4 4.88,-0.99 10.82,-1.07 15.96,-1.91 4.69,-0.76 10.65,-2.68 14.74,-2.98l0.86 14.29z"/>
   <path class="fil1" d="M302.47 559.71c-9.36,4.48 -18.68,10.81 -29.85,14l-1.39 -14.05c15.58,-5.24 17.72,-8.15 26.16,-11.43l5.08 11.48z"/>
   <path class="fil1" d="M304.27 520.03c-6.61,-3.76 -22.13,-3.85 -31.35,-3.63 3.42,-2.89 7.33,-1.99 11.18,-8.43 3.58,-5.98 2.25,-9.27 0.85,-16.14 6.42,2.69 20.77,16.85 19.32,28.2z"/>
   <path class="fil1" d="M284.27 433.9l-4.93 1.92c-0.29,-3.66 0.19,-3.69 1.24,-6.42l2.21 2.08c0.6,0.8 1,1.65 1.48,2.42z"/>
   <path class="fil1" d="M310.85 446.2c-1.17,2.11 -1.95,3.44 -4.77,3.71l-0.93 -3.82 5.7 0.11z"/>
   <path class="fil1" d="M239.75 460.58c-0.2,-5.97 -7.91,-13.32 -14.25,-13.86 -16.99,-1.46 -24.89,20.22 -15.23,32 5.75,7.01 16.45,5.74 20.49,2.59l-2.34 -6.93 7.43 -2.77c-0.28,-4.13 -2.43,-4.37 -3.51,-8.21l7.41 -2.82zm65.78 -7.88c4.81,-0.06 6.68,-3.82 8.99,-6.54 2.8,-3.3 6.18,-3.48 6.29,-9 0.26,-13.47 -21.87,-27.49 -35.79,-22.17 -4.34,1.66 -4.87,4.17 -5.44,9.36 -0.53,4.82 -2.85,6.64 -2.64,12.83 16.12,-0.22 6.77,-1.2 17.46,5.09 1.64,0.96 6.67,2.76 7.51,3.7 0.81,0.89 2.34,5.08 3.62,6.73zm-17.52 -103.5c-21.39,-4.86 -42.03,9.72 -49.49,20.63 -10.21,14.94 -15.67,42.1 6.04,47.34 22.26,5.37 41.91,-10.59 49.9,-21.22 11.07,-14.73 17.06,-41.41 -6.45,-46.75zm26.47 1.51c0.86,5.97 -1.29,9.11 1.28,15.01 4.88,-1.54 2.96,-7.02 5.46,-11.79 6.19,2.13 12.73,7.95 17.21,11.78 13.58,11.62 2.66,6.88 5.95,18.83 4.54,-0.28 3.11,-2.47 6.01,-5.27 2.78,2.78 7.4,10.73 8.36,15.77 -4.57,2.44 -10.28,2.2 -16.97,10.88 -10.4,13.48 -18.35,37.83 -11.49,55.17 1.64,4.15 3.86,5.92 5.91,8.34 -8.21,8.6 -35.27,10.93 -50.52,7.97 -5.11,-0.99 -12.68,-3.98 -16.93,-3.65 0.84,5.91 4.7,3.84 8.45,6.95l-0.18 3.81 -5.02 -0.94 -1.15 7.7 -6.34 0.05c-3.53,0.63 -1.92,2.63 -2.29,8.92l-7.7 2.78c0.14,8.25 8.19,10.85 11.16,12.99 -2.12,2.01 -16.51,4.15 -20.64,5.26 -25.17,6.74 -26.3,14.04 -38.54,8.48 -6.57,-2.98 -11.33,-6.49 -16.12,-10.73l9.17 -33.48c2.75,-13.74 3.81,-25.72 2.68,-40.3 7.32,-2.41 14.68,-6.31 23.5,-7.42 1.17,2.82 2.99,6.24 6.57,6.76 0.03,-8.57 -25.69,-41.88 4.29,-78.21 17.61,-21.33 56.73,-25.69 77.89,-15.66z"/>
   <path class="fil1" d="M201.06 437.42l6.11 -0.03c-2.84,1.59 -5.91,5.21 -6.11,0.03z"/>
  </g>
  <g id="_2350834775024">
   <path class="fil2" d="M296.06 394.08c-3.57,10.98 -37.65,35.31 -54.69,20.12 -12.76,-11.38 1.61,-46.12 22.27,-52.69 -7.8,9.74 -11.14,22.74 -1.36,33.18 4.03,4.3 8.47,6.62 16.59,6.23 9.48,-0.46 11.3,-3.6 17.19,-6.84z"/>
   <path class="fil2" d="M369.57 449.32c-5.04,18.67 -33.63,39.36 -34,2.37 -0.1,-10.71 3.2,-22.53 7.35,-31.03 2.89,-5.93 12.69,-20.59 21.46,-16.44 -11,-0.46 -13.7,19.52 -13.14,30.21 0.31,6.05 1.89,12.5 5.02,16.1 5.64,6.5 9.08,2.52 13.31,-1.21z"/>
   <path class="fil2" d="M294.45 391.4c-5.26,2.9 -6.89,5.7 -15.35,6.11 -7.25,0.35 -11.22,-1.72 -14.83,-5.57 -8.73,-9.32 -5.75,-20.94 1.22,-29.63 5.66,-5.84 24.56,-7.07 31.62,-0.67 4.07,3.71 4.93,9.06 3.59,15.69 -0.96,4.78 -3.47,11.96 -6.25,14.07z"/>
   <path class="fil2" d="M369.68 446.79c-3.91,3.45 -7.07,7.11 -12.28,1.12 -2.88,-3.31 -4.34,-9.27 -4.63,-14.84 -0.51,-9.86 1.98,-28.29 12.13,-27.86 5.51,1.71 8.16,11.1 8.7,18.1 0.6,7.81 -1.04,17 -3.92,23.48z"/>
   <path class="fil2" d="M200.67 454.69c0,26.01 -4.62,48.69 -14.54,70.65 -3.43,7.6 -10.58,20.74 -16.74,22.36 -21.31,5.62 -12.89,-66.3 -0.47,-92.22 15.85,-33.06 31.75,-32.46 31.75,-0.79z"/>
   <path class="fil2" d="M309.88 535.84c-2.48,12.26 -36.36,22.59 -48.51,25.21 -8.81,1.9 -64.84,9.81 -59.17,-6.71 4.92,-14.34 59.09,-29.08 81.88,-29.44 8.96,-0.14 27.96,0.29 25.8,10.94z"/>
   <path class="fil2" d="M301.9 422.13c20.77,5.6 27.09,29.79 3.91,24.19 -20.42,-4.94 -27.64,-30.58 -3.91,-24.19z"/>
   <path class="fil2" d="M238.61 463.22l-7 3.18 3.34 7.9 -7.49 2.41c0.63,2.97 2.94,4.79 2.02,7.34 -19.49,8.28 -22.52,-29.18 -2.99,-29.67 5.93,-0.15 11.55,3.67 12.12,8.84z"/>
   <path class="fil2" d="M262.04 508.36l6.85 -1.63 -0.33 -8.13 7.75 0.21 1.54 -5.92c9.31,0.11 10.51,12.85 4.49,19.41 -6.23,6.82 -18.75,5.29 -20.3,-3.94z"/>
   <path class="fil2" d="M252.38 89.04c-7.05,4.14 -6.74,11.49 -6.55,20.57 -8.16,-0.73 -9.89,1.69 -10.59,9.86 -3.93,-2.23 -5.55,-4.61 -11.28,-6.34 -14.68,-4.42 -26.5,7.52 -25.52,27.92 -4.87,-2.56 -7.24,-5.67 -14.98,-3.79 -5.41,1.32 -8.83,4.87 -11.63,7.79 -7.22,7.55 -9.84,14.45 -10.38,27.86 -5.63,1.78 -8.19,1.36 -14.55,7.96 -4.33,4.49 -6.65,6.65 -10.76,12.48 -6.51,9.23 -12.18,19.81 -12.18,34.42 -0.74,3.64 -12.81,0.35 -22.92,26.52 -8.13,21.06 -4.49,27.08 -1.57,42.45 -16.28,0.81 -18.13,16.07 -18.12,31.87 -5.59,-7.79 -2.76,-37.88 -0.59,-48.34 2.95,-14.26 7.47,-27.86 12.82,-40.27 11.41,-26.44 24.41,-46.8 38.43,-68.09 13.57,-20.57 78.68,-110.64 120.37,-82.87z"/>
   <path class="fil2" d="M432.45 492.86c5.57,-1.49 14.63,-6.26 19.66,-9.12 8.12,-4.61 14.06,-7.41 12.89,-14.63 11.63,-2.29 24.48,-10.67 31.95,-18.45 3.51,-3.66 5.14,-5.61 4.5,-12.47 11.59,-2.41 33.37,-21.66 30.82,-35.87 13.64,-2.53 25.36,-14.85 30.97,-25.49 4.7,-8.93 1.76,-9.23 -0.46,-15.39 11.39,-2.48 20.61,-16.43 20.47,-26.97 -0.08,-6.45 -2.89,-7.78 -4.3,-11.28 2.94,-2.11 5.24,-3.01 6.28,-7.01 1.37,-5.28 -0.79,-7.97 -2.94,-10.27 3.13,-3.62 9.42,-6.39 10.02,-15.77 0.69,-10.89 -4.62,-11.33 -11.93,-14.09 19.55,-6.13 27.19,4.23 25.37,23.85 -1.34,14.4 -6.68,28.6 -12.08,40.6 -26,57.8 -80.4,124.15 -140.89,147.65 -3.31,1.29 -6.18,2.25 -9.44,3.24 -2.89,0.87 -7.94,3.32 -10.89,1.47z"/>
   <path class="fil2" d="M123.9 393.07c-2.88,2.49 -5.37,3.77 -8.02,6.09 -2.74,2.38 -5.05,4.14 -7.41,6.83 -16.82,19.22 -26.61,36.25 -26.61,65.23 0,27.12 17.37,41.03 41.68,44.84 -2.22,1.75 -5.58,2.1 -8.41,2.66 -29.08,5.72 -43.83,-13.12 -43.83,-43.74 0,-21.88 6.42,-42.99 15.02,-58.96 4.08,-7.58 10.85,-15.97 16.23,-20.5 7.29,-6.14 11.63,-10.74 16.38,-7.14 1.9,1.44 3.99,2.78 4.97,4.69z"/>
   <path class="fil2" d="M296.31 252.07c-0.52,-5.05 -16.06,-28.48 -33.9,-29.61 -21.81,-1.38 -27.79,18.28 -33.41,31.41 -1.69,-10.29 2.3,-30.92 6.09,-39.26 13.03,-28.62 38.79,-24.26 52.49,0.6 4.13,7.49 10.72,26.4 8.73,36.86z"/>
   <path class="fil2" d="M350.58 534.28c15.68,-19.14 10.98,-14.23 23.26,-33.24l6.32 0.68c0.65,4.13 -7.76,17.34 -9.73,20.19 -20.14,29.06 -52.84,54.01 -87.44,66.2 -10.77,3.8 -41.45,12.46 -43.63,-5.63 6.5,5.24 11.28,6.84 22.66,4.75 27.43,-5.02 70.58,-31 88.56,-52.95z"/>
   <path class="fil2" d="M496.18 390.24c1.02,-1.64 22.54,-17.23 12.97,-37.69 -2.66,-5.69 -8.02,-10.09 -14.18,-12.82 -8.2,-3.64 -13.86,-3.26 -22.85,-4.96 8.27,0.06 16.9,-4.48 35.05,-1.23 11.57,2.07 20.43,6.96 24.44,15.18 10.08,20.66 -19.02,38.86 -35.43,41.52z"/>
   <path class="fil2" d="M320.47 363.31c-1.02,-29.02 17.65,-83.67 27.88,-108.48 6.78,-16.45 14.32,-30.97 22.95,-45.39 4.4,-7.36 26.29,-39.03 36.7,-28.8 8.4,8.24 -8.18,21.95 -20.95,26.62 -8.24,3.02 -8.65,0.79 -11.8,5.4 -19.22,28.19 -31.67,61.87 -41.9,95.42 -4.28,14.06 -11.66,41.77 -12.88,55.23z"/>
   <path class="fil2" d="M351.02 381.38c-0.04,-10.32 14.34,-38.68 19.33,-46.66 16.12,-25.79 39.64,-53.92 67.98,-66.93 60.74,-27.89 62.21,2.42 32.72,5.93 -5.26,0.63 -10.42,0.21 -15.37,-1.26 -7.22,-2.15 -4.87,-3.72 -12.63,-0.72 -30.78,11.88 -53.32,37.25 -70.02,64.92 -3.58,5.93 -21.72,38.7 -22.01,44.72z"/>
   <path class="fil2" d="M222.79 427.74c-3.16,-1.77 -7.02,-6.97 -9.69,-9.94l-103.09 -112.07c-6.54,-8.04 -9.84,-16.48 -8.07,-30.46 1.19,-9.42 10.53,-39.23 19.86,-39.46 5.67,-0.14 23.52,26.84 26.99,31.71 20.22,28.38 42.67,65.88 59.31,97.44 20.01,37.94 11.38,19.65 12.09,44.65 0.2,7.32 1.67,11.58 2.6,18.13z"/>
   <path class="fil2" d="M238.58 364.04c-8.57,6.48 -10.57,14.38 -14.33,19.7 -1.83,-2 -10.01,-19.49 -12.13,-23.58 -25.55,-49.29 -40.88,-68.52 -70.2,-112.8 -4.49,-6.8 -11.83,-14.24 -11.5,-25.62 0.55,-18.65 23.76,-45.65 32.3,-38.87 1.82,1.44 11.09,20.05 13,23.73 14.97,28.88 33.68,70.08 44.94,101.32 4.19,11.61 16.73,45.71 17.92,56.12z"/>
   <path class="fil2" d="M243.69 359.01c-2.31,-4.04 -11.04,-75.14 -11.3,-84.66 -0.4,-14.74 3.01,-29.09 10.98,-37.14 8.9,-9 23.07,-10.95 34.36,-2.31 20.08,15.36 18.19,47.21 16.01,78.55 -2.77,39.99 -2.06,29.77 -16.06,31.9 -19.95,3.03 -22.67,8.21 -33.99,13.66z"/>
   <path class="fil2" d="M376.79 415.93c-2.24,-12 -7.96,-9.29 -9.37,-19.1 2.99,-3.31 9.48,-8.2 13.29,-11.12 4.77,-3.66 9.28,-7.07 14.11,-10.59 94.51,-68.78 131.41,-15.34 98.37,8.63 -24.54,17.8 -62.48,19.34 -96.11,27.44 -6.1,1.47 -14.16,4.03 -20.29,4.74z"/>
   <path class="fil2" d="M223.93 437.41c-7.01,5.25 -20.22,-1.64 -22.98,-4.37 -2.69,-2.65 -3.73,-5.9 -9.05,-6.81 -7.59,-1.3 -1.61,2.02 -12.45,-3.92 -31.87,-17.47 -94.08,-56.24 -94.08,-99.12 0,-14.22 8.73,-24.16 14.43,-20.02l17.12 19.65c5.79,5.95 11.61,13.56 17.55,19.19l89.46 95.4z"/>
   <path class="fil2" d="M232.85 325.79c-1.33,-12.44 -28.73,-75.04 -35.3,-89.2 -6.67,-14.38 -13.61,-28.29 -20.89,-42.13 -3.35,-6.37 -8.21,-14.48 -8.64,-23.02 -0.53,-10.37 4.46,-28.24 18.84,-27.78 6.61,0.22 7.32,1.44 10.78,4.88 10.81,10.74 24.34,50.79 28.87,65.71 1.71,5.64 -2.25,14.66 -2.95,27.02 -1.68,29.43 9.72,75.44 9.29,84.52z"/>
   <path class="fil2" d="M309.22 238.29c0,24.59 -0.29,37.9 -3.77,63.55 -1.11,8.17 -5.49,39.51 -9.41,42.92 -1.76,-2.84 1.01,-11.56 1.56,-15.53 3.81,-27.72 8.83,-89.68 -3.36,-113.92 -5.79,-11.52 -11.39,-16.96 -20.91,-23.33 -2.69,-1.8 -1.85,-0.51 -2.64,-4.14 -3.12,-14.45 -5.44,-27.94 -9.1,-41.8 -3.46,-13.08 -10.55,-28.21 -10.55,-41.5 0,-11.08 3.54,-14.17 11.74,-7.91 36.36,27.78 46.44,98.79 46.44,141.66z"/>
   <path class="fil2" d="M364.51 391.03c-1.72,-4.56 0.4,-5.18 6.94,-10.86 4.02,-3.48 7.18,-6.33 11.32,-9.67 36.82,-29.77 88.46,-59.48 132.82,-76.89 12.27,-4.82 55.14,-20.29 67.2,-11.33 4.31,3.2 5.56,8.15 2.03,13.96 -5.55,9.15 -19.38,10.31 -28.98,12.9 -15.11,4.09 -33,10.05 -47.46,15.55 -5.44,2.06 -12.92,0.77 -19.41,1.43 -6.1,0.61 -11.78,1.89 -17.51,3.52 -49.76,14.17 -102.1,59.53 -106.95,61.39z"/>
   <path class="fil2" d="M376.86 444.74c2.26,-16.42 2.06,-9.83 1.48,-23.17 12.01,-1.52 25.29,-4.51 37.68,-6.29 36,-5.19 65.04,-6.82 100.32,-9.77 9.2,-0.76 13.41,0.51 7.54,9.12 -16.26,23.84 -38.4,21.3 -64.81,23.36 -27.37,2.13 -55.12,4.23 -82.21,6.75z"/>
   <path class="fil2" d="M394.76 469.6l-32.82 -0.05c1.93,-4.3 7.19,-4.6 13.22,-20.05 11.94,-0.65 116.31,-9.34 118.76,-7.18 5.44,4.8 -10.4,13.99 -13.91,16.09 -7.83,4.68 -14.06,6.06 -24.32,7.81 -17.22,2.94 -42.6,3.38 -60.93,3.38z"/>
   <path class="fil2" d="M251.78 188.69c-6.39,3.72 -7.93,2.75 -12.83,8.01 -5.56,5.97 -6.22,10.35 -8.72,12.98l-14.95 -43.61c-4.67,-11.9 -17.93,-32.59 -7.28,-44.03 5.39,-5.79 15.9,-5.73 21.82,-0.55 8.47,7.42 12.97,31.96 15.82,43.37 1.69,6.75 5.42,17.7 6.14,23.83z"/>
   <path class="fil2" d="M181.3 428.39c-1.54,2.49 -4.55,4.42 -6.76,7.17 -4.49,5.59 -2.42,4.63 -17.6,4.5l-63.1 -1.07c4.78,-16.85 23.09,-35.67 34.68,-42.69l52.78 32.09z"/>
   <path class="fil2" d="M457.61 472.72c-0.99,5.1 -18.34,13.48 -24.55,15.91 -10.05,3.94 -22.63,6.82 -34.56,6.92 -15.67,0.13 -59.42,-4.52 -71.71,-9.81 15.27,-4.21 16.94,-8.73 24.93,-11.13 10.52,-3.16 24.04,-0.98 35.56,-0.91 9.21,0.06 67.63,-2.07 70.33,-0.98z"/>
   <path class="fil2" d="M368.46 500.52c-2.19,8.1 -19.22,27.52 -24.02,32.71l-31 -21.63c-9.58,-6.73 -7.06,-5.7 -14.71,-12.28 -11.79,-10.13 -13.76,-6.24 -13.37,-13.75 7.65,1.36 13.39,2.68 21.9,2.58 16.63,-0.18 4.85,-1.84 21,3.22 9.7,3.04 39.92,9.03 40.2,9.15z"/>
   <path class="fil2" d="M540.01 360.65c-0.2,-13.75 -3.77,-17.45 -9.89,-24.59 8.12,-2.43 16.57,-4.89 25.2,-7.07 8.69,-2.19 21.68,-7.42 22.81,4.72 0.85,9.22 -6.87,18.11 -11.37,21.04 -4.67,3.04 -19.96,5.67 -26.75,5.9z"/>
   <path class="fil2" d="M156.01 477.75c-8.79,1.56 -15.71,3.44 -23.34,-0.92 -5.28,-3.03 -9.36,-11.29 -6.16,-19.69 2.63,-6.93 8.15,-8.82 16.91,-10.75 7.25,-1.6 17.5,-3.17 25.38,-3.22 -1.62,4.59 -5.17,10.44 -7.32,16.07 -2.31,6.03 -3.53,12.24 -5.47,18.51z"/>
   <path class="fil2" d="M459.72 405.05c4.23,-1.86 22.48,-4.22 29.09,-5.98 16.14,-4.3 35.69,-12.48 45.55,-25.05 4.37,-5.57 1.53,-7.17 9.57,-8.42 3.6,-0.56 12.52,-2.78 15.02,-0.69 6.45,5.4 -13.3,31.95 -34.18,34.05 -12.51,1.26 -55.81,6.05 -65.05,6.09z"/>
   <path class="fil2" d="M143.96 483.64c-5.59,1.34 -16.03,5.76 -22.09,7.91 -5.05,1.79 -19.28,7.45 -23.26,7.58 -5.13,-6.24 -9.66,-12.33 -10.12,-23.55l33.29 -6.45c5.52,6.31 3,12.49 22.18,14.51z"/>
   <path class="fil2" d="M121.1 465.35l-33.1 6.1c-0.12,-10.3 1.45,-18.98 4.06,-27.85l45.66 -0.34c-3.75,2.65 -7.9,1.63 -12.17,6.94 -3.39,4.23 -4.45,7.95 -4.45,15.15z"/>
   <path class="fil2" d="M103.99 503.53c1.48,-1.65 2.83,-1.7 5.49,-2.61 12.06,-4.14 37.71,-14.7 45.29,-16.74 -0.24,5.93 -1.8,12.94 -2.38,19.38 -0.43,4.75 -0.22,4.32 -4.62,5.8 -13.49,4.55 -34.43,2.46 -43.78,-5.83z"/>
   <path class="fil2" d="M266.2 188.86l-9.78 -0.97c-2.42,-12.17 -6.58,-25.75 -9.79,-38.27 -0.81,-3.17 -13.28,-40.98 -2.76,-35.7 6.6,3.31 20.64,62.32 22.33,74.94z"/>
   <path class="fil2" d="M304.9 549.36c2.84,-3.95 9,-6.65 9.63,-14.36 0.45,-5.66 -1.99,-5.82 -2.62,-9.06 -0.45,-2.29 -0.57,-8.3 -0.95,-11.18 6.89,3.32 22.88,17.63 29.33,21.55 -1.97,5.32 -25.85,22.62 -30.03,23.79l-5.36 -10.74z"/>
   <path class="fil2" d="M513.54 327.74c3.43,-2.88 27.65,-9.87 33.45,-11.57 5.97,-1.76 34.98,-11.53 34.39,-2.06 -0.34,5.28 -10.24,5.68 -15.42,6.83l-35.47 9.43c-9.59,2.92 -8.02,-0.14 -16.95,-2.63z"/>
   <path class="fil2" d="M271.22 579.48c-5.81,1.39 -36.19,10 -31.56,-9.4 4.88,-0.99 10.82,-1.07 15.96,-1.91 4.69,-0.76 10.65,-2.68 14.74,-2.98l0.86 14.29z"/>
   <path class="fil2" d="M305.71 563.75c-9.36,4.48 -18.68,10.81 -29.85,14l-1.39 -14.05c15.58,-5.24 17.72,-8.15 26.16,-11.43l5.08 11.48z"/>
   <path class="fil2" d="M307.51 524.07c-6.61,-3.76 -22.13,-3.85 -31.35,-3.63 3.42,-2.89 7.33,-1.99 11.18,-8.43 3.58,-5.98 2.25,-9.27 0.85,-16.14 6.42,2.69 20.77,16.85 19.32,28.2z"/>
   <path class="fil2" d="M287.51 437.94l-4.93 1.92c-0.29,-3.66 0.19,-3.69 1.24,-6.42l2.21 2.08c0.6,0.8 1,1.65 1.48,2.42z"/>
   <path class="fil2" d="M314.09 450.24c-1.17,2.11 -1.95,3.44 -4.77,3.71l-0.93 -3.82 5.7 0.11z"/>
   <path class="fil2" d="M242.99 464.62c-0.2,-5.97 -7.91,-13.32 -14.25,-13.86 -16.99,-1.46 -24.89,20.22 -15.23,32 5.75,7.01 16.45,5.74 20.49,2.59l-2.34 -6.93 7.43 -2.77c-0.28,-4.13 -2.43,-4.37 -3.51,-8.21l7.41 -2.82zm65.78 -7.88c4.81,-0.06 6.68,-3.82 8.99,-6.54 2.8,-3.3 6.18,-3.48 6.29,-9 0.26,-13.47 -21.87,-27.49 -35.79,-22.17 -4.34,1.66 -4.87,4.17 -5.44,9.36 -0.53,4.82 -2.85,6.64 -2.64,12.83 16.12,-0.22 6.77,-1.2 17.46,5.09 1.64,0.96 6.67,2.76 7.51,3.7 0.81,0.89 2.34,5.08 3.62,6.73zm-17.52 -103.5c-21.39,-4.86 -42.03,9.72 -49.49,20.63 -10.21,14.94 -15.67,42.1 6.04,47.34 22.26,5.37 41.91,-10.59 49.9,-21.22 11.07,-14.73 17.06,-41.41 -6.45,-46.75zm26.47 1.51c0.86,5.97 -1.29,9.11 1.28,15.01 4.88,-1.54 2.96,-7.02 5.46,-11.79 6.19,2.13 12.73,7.95 17.21,11.78 13.58,11.62 2.66,6.88 5.95,18.83 4.54,-0.28 3.11,-2.47 6.01,-5.27 2.78,2.78 7.4,10.73 8.36,15.77 -4.57,2.44 -10.28,2.2 -16.97,10.88 -10.4,13.48 -18.35,37.83 -11.49,55.17 1.64,4.15 3.86,5.92 5.91,8.34 -8.21,8.6 -35.27,10.93 -50.52,7.97 -5.11,-0.99 -12.68,-3.98 -16.93,-3.65 0.84,5.91 4.7,3.84 8.45,6.95l-0.18 3.81 -5.02 -0.94 -1.15 7.7 -6.34 0.05c-3.53,0.63 -1.92,2.63 -2.29,8.92l-7.7 2.78c0.14,8.25 8.19,10.85 11.16,12.99 -2.12,2.01 -16.51,4.15 -20.64,5.26 -25.17,6.74 -26.3,14.04 -38.54,8.48 -6.57,-2.98 -11.33,-6.49 -16.12,-10.73l9.17 -33.48c2.75,-13.74 3.81,-25.72 2.68,-40.3 7.32,-2.41 14.68,-6.31 23.5,-7.42 1.17,2.82 2.99,6.24 6.57,6.76 0.03,-8.57 -25.69,-41.88 4.29,-78.21 17.61,-21.33 56.73,-25.69 77.89,-15.66z"/>
   <path class="fil2" d="M204.3 441.46l6.11 -0.03c-2.84,1.59 -5.91,5.21 -6.11,0.03z"/>
  </g>
 </g>
</svg>
