<?xml version="1.0" encoding="UTF-8"?>
<!DOCTYPE svg PUBLIC "-//W3C//DTD SVG 1.1//EN" "http://www.w3.org/Graphics/SVG/1.1/DTD/svg11.dtd">
<!-- Creator: CorelDRAW 2017 -->
<svg xmlns="http://www.w3.org/2000/svg" xml:space="preserve" width="7.6198mm" height="7.6198mm" version="1.1" style="shape-rendering:geometricPrecision; text-rendering:geometricPrecision; image-rendering:optimizeQuality; fill-rule:evenodd; clip-rule:evenodd"
viewBox="0 0 761.98 761.98"
 xmlns:xlink="http://www.w3.org/1999/xlink">
 <defs>
  <style type="text/css">
   <![CDATA[
    .fil0 {fill:none}
    .fil2 {fill:#FEFEFE}
    .fil1 {fill:#ED6B9A}
   ]]>
  </style>
 </defs>
 <g id="Capa_x0020_1">
  <metadata id="CorelCorpID_0Corel-Layer"/>
  <rect class="fil0" x="-0" y="-0" width="761.99" height="761.99"/>
  <path class="fil1" d="M48.56 719.65l664.86 0c3.43,0 6.23,-2.8 6.23,-6.23l0 -436.92c0,-128.8 -105.37,-234.17 -234.17,-234.17l-436.92 0c-3.43,0 -6.23,2.8 -6.23,6.23l0 664.86c0,3.43 2.8,6.23 6.23,6.23z"/>
  <path class="fil2" d="M74.76 503.08l612.47 0 0 88.46 -612.47 0 0 -88.46zm446.5 -179.35c-3.19,28.62 -27.25,53.37 -59.77,49.6 -27.44,-3.17 -50.18,-29.42 -46.99,-61.64 2.82,-28.38 27.74,-53.42 60.03,-49.49 27.32,3.32 50.24,30.07 46.73,61.53zm-241.66 -137.3c-25.71,6.42 -61.37,28.41 -79.27,41.55 -23.23,17.05 -43.42,37.32 -60.65,60.33 -34.76,46.5 -58.7,106.69 -58.22,182.52l407.92 0.28c-1.61,-11.41 -5.99,-25.15 -9.11,-35.85 -2.37,-8.14 -10.33,-27.6 -11.04,-33.64 30.22,-2.12 51.85,-15.4 66.7,-39.17 2.02,-3.27 3.43,-7.19 5.68,-10.27 4.73,5.63 19.86,46.11 23.56,56.68 3.44,9.86 6.73,20.17 9.92,30.71 2.97,9.84 5.41,22.98 8.78,31.54l84.4 -0.18c0.78,-85.67 -35.14,-168.08 -96.39,-224.77 -2.35,-2.18 -4.16,-3.34 -6.67,-5.63 -4.01,-3.66 -9.1,-7.51 -13.63,-10.96 -54.38,-41.47 -110.32,-57.8 -186,-59.12 1.92,1.76 1.08,1.15 3.74,2.33 18.37,8.16 30.49,13.58 48.13,25.59 8.07,5.5 40.29,30.36 42.56,35.95 -25.19,3.08 -51.73,19.71 -60.82,40.29 -2.49,-1.58 -4.42,-4.51 -6.53,-6.99 -2.4,-2.85 -3.93,-4.61 -6.07,-7.18 -8.79,-10.51 -29.43,-28.79 -40.21,-37.27 -10.99,-8.65 -49.49,-33.77 -66.78,-36.74zm188.39 87.65c24.14,0 43.69,19.55 43.69,43.69 0,24.13 -19.55,43.68 -43.69,43.68 -24.13,0 -43.68,-19.55 -43.68,-43.68 0,-24.14 19.55,-43.69 43.68,-43.69z"/>
 </g>
</svg>
