<?xml version="1.0" encoding="UTF-8"?>
<!DOCTYPE svg PUBLIC "-//W3C//DTD SVG 1.1//EN" "http://www.w3.org/Graphics/SVG/1.1/DTD/svg11.dtd">
<!-- Creator: CorelDRAW 2017 -->
<svg xmlns="http://www.w3.org/2000/svg" xml:space="preserve" width="7.6198mm" height="7.6198mm" version="1.1" style="shape-rendering:geometricPrecision; text-rendering:geometricPrecision; image-rendering:optimizeQuality; fill-rule:evenodd; clip-rule:evenodd"
viewBox="0 0 761.98 761.98"
 xmlns:xlink="http://www.w3.org/1999/xlink">
 <defs>
  <style type="text/css">
   <![CDATA[
    .fil0 {fill:none}
    .fil2 {fill:#FEFEFE}
    .fil1 {fill:#ED6B9A}
   ]]>
  </style>
 </defs>
 <g id="Capa_x0020_1">
  <metadata id="CorelCorpID_0Corel-Layer"/>
  <rect class="fil0" x="-0" y="-0" width="761.99" height="761.99"/>
  <path class="fil1" d="M48.55 719.66l664.88 0c3.42,0 6.23,-2.81 6.23,-6.23l0 -436.94c0,-128.79 -105.38,-234.17 -234.17,-234.17l-436.94 0c-3.42,0 -6.23,2.81 -6.23,6.23l0 664.88c0,3.42 2.81,6.23 6.23,6.23z"/>
  <g id="_2350834762672">
   <path class="fil2" d="M334.92 440.92c-3.86,11.88 -40.72,38.2 -59.15,21.76 -13.8,-12.31 1.74,-49.87 24.09,-56.98 -8.45,10.53 -12.05,24.59 -1.48,35.88 4.36,4.66 9.17,7.16 17.95,6.74 10.25,-0.5 12.22,-3.89 18.59,-7.4z"/>
   <path class="fil2" d="M414.43 500.66c-5.46,20.2 -36.38,42.58 -36.78,2.57 -0.11,-11.58 3.46,-24.37 7.95,-33.56 3.13,-6.41 13.72,-22.27 23.21,-17.77 -11.9,-0.51 -14.82,21.11 -14.22,32.67 0.34,6.53 2.05,13.52 5.44,17.41 6.1,7.02 9.81,2.72 14.4,-1.32z"/>
   <path class="fil2" d="M333.18 438.03c-5.69,3.13 -7.45,6.16 -16.61,6.6 -7.84,0.38 -12.13,-1.85 -16.03,-6.02 -9.45,-10.08 -6.22,-22.64 1.32,-32.05 6.12,-6.32 26.56,-7.64 34.19,-0.72 4.4,4.01 5.33,9.8 3.89,16.97 -1.04,5.17 -3.75,12.93 -6.76,15.22z"/>
   <path class="fil2" d="M414.55 497.94c-4.23,3.72 -7.66,7.68 -13.28,1.21 -3.12,-3.59 -4.7,-10.03 -5.02,-16.06 -0.55,-10.66 2.14,-30.6 13.12,-30.13 5.96,1.85 8.82,12 9.41,19.57 0.65,8.46 -1.12,18.4 -4.23,25.41z"/>
   <path class="fil2" d="M231.75 506.47c0,28.13 -5,52.67 -15.73,76.42 -3.71,8.21 -11.44,22.43 -18.1,24.18 -23.05,6.08 -13.95,-71.7 -0.51,-99.74 17.14,-35.76 34.34,-35.11 34.34,-0.86z"/>
   <path class="fil2" d="M349.87 594.24c-2.69,13.26 -39.33,24.43 -52.47,27.27 -9.53,2.06 -70.13,10.61 -64,-7.26 5.32,-15.5 63.91,-31.45 88.56,-31.84 9.69,-0.15 30.24,0.32 27.91,11.83z"/>
   <path class="fil2" d="M341.23 471.26c22.47,6.06 29.31,32.22 4.24,26.16 -22.09,-5.34 -29.9,-33.07 -4.24,-26.16z"/>
   <path class="fil2" d="M272.78 515.7l-7.56 3.44 3.6 8.54 -8.09 2.61c0.67,3.21 3.18,5.18 2.18,7.94 -21.08,8.96 -24.35,-31.56 -3.24,-32.09 6.42,-0.16 12.49,3.97 13.11,9.56z"/>
   <path class="fil2" d="M298.13 564.53l7.4 -1.77 -0.35 -8.8 8.38 0.23 1.66 -6.4c10.07,0.12 11.36,13.9 4.86,21 -6.74,7.37 -20.28,5.72 -21.95,-4.26z"/>
   <path class="fil2" d="M287.68 111.01c-7.63,4.47 -7.3,12.42 -7.09,22.25 -8.83,-0.79 -10.69,1.83 -11.45,10.67 -4.26,-2.42 -6.01,-5 -12.2,-6.86 -15.88,-4.78 -28.66,8.12 -27.6,30.19 -5.27,-2.77 -7.83,-6.13 -16.21,-4.09 -5.85,1.42 -9.54,5.26 -12.57,8.41 -7.82,8.17 -10.64,15.64 -11.23,30.14 -6.09,1.92 -8.85,1.47 -15.73,8.61 -4.68,4.86 -7.19,7.19 -11.65,13.5 -7.04,9.97 -13.16,21.42 -13.16,37.22 -0.8,3.94 -13.86,0.38 -24.79,28.68 -8.8,22.78 -4.86,29.3 -1.71,45.92 -17.6,0.88 -19.6,17.38 -19.59,34.46 -6.05,-8.42 -2.99,-40.97 -0.64,-52.28 3.19,-15.42 8.08,-30.12 13.87,-43.55 12.34,-28.6 26.39,-50.62 41.57,-73.64 14.66,-22.26 85.08,-119.66 130.18,-89.63z"/>
   <path class="fil2" d="M482.43 547.76c6.03,-1.61 15.83,-6.77 21.27,-9.86 8.78,-4.99 15.2,-8.02 13.94,-15.82 12.57,-2.48 26.47,-11.54 34.55,-19.96 3.8,-3.96 5.56,-6.07 4.87,-13.49 12.53,-2.61 36.08,-23.43 33.33,-38.79 14.75,-2.74 27.42,-16.06 33.49,-27.58 5.09,-9.65 1.91,-9.97 -0.49,-16.64 12.31,-2.68 22.28,-17.77 22.14,-29.17 -0.08,-6.97 -3.12,-8.41 -4.65,-12.19 3.18,-2.29 5.67,-3.26 6.79,-7.59 1.48,-5.71 -0.86,-8.62 -3.18,-11.1 3.38,-3.92 10.19,-6.91 10.83,-17.06 0.75,-11.78 -4.99,-12.25 -12.9,-15.24 21.15,-6.63 29.42,4.58 27.44,25.79 -1.44,15.58 -7.23,30.93 -13.07,43.92 -28.11,62.5 -86.95,134.27 -152.38,159.69 -3.57,1.39 -6.68,2.43 -10.21,3.5 -3.12,0.94 -8.58,3.59 -11.77,1.59z"/>
   <path class="fil2" d="M148.72 439.84c-3.11,2.69 -5.8,4.07 -8.68,6.58 -2.96,2.58 -5.45,4.47 -8,7.38 -18.2,20.79 -28.79,39.21 -28.79,70.55 0,29.34 18.78,44.38 45.08,48.5 -2.4,1.9 -6.04,2.27 -9.09,2.88 -31.45,6.19 -47.41,-14.19 -47.41,-47.31 0,-23.66 6.94,-46.49 16.24,-63.77 4.42,-8.2 11.74,-17.26 17.56,-22.16 7.89,-6.65 12.57,-11.62 17.72,-7.73 2.05,1.55 4.31,3 5.37,5.08z"/>
   <path class="fil2" d="M335.18 287.33c-0.56,-5.46 -17.36,-30.79 -36.66,-32.02 -23.58,-1.49 -30.05,19.77 -36.13,33.97 -1.82,-11.12 2.48,-33.44 6.59,-42.46 14.09,-30.95 41.95,-26.24 56.77,0.65 4.46,8.1 11.59,28.55 9.43,39.86z"/>
   <path class="fil2" d="M393.88 592.56c16.97,-20.7 11.88,-15.4 25.16,-35.95l6.84 0.73c0.7,4.47 -8.39,18.76 -10.53,21.84 -21.78,31.43 -57.15,58.41 -94.56,71.6 -11.66,4.11 -44.83,13.48 -47.19,-6.1 7.02,5.68 12.2,7.4 24.5,5.15 29.67,-5.44 76.34,-33.54 95.78,-57.27z"/>
   <path class="fil2" d="M551.36 436.77c1.1,-1.77 24.38,-18.63 14.02,-40.77 -2.87,-6.15 -8.67,-10.9 -15.33,-13.86 -8.87,-3.93 -14.99,-3.52 -24.72,-5.36 8.94,0.07 18.28,-4.85 37.92,-1.33 12.5,2.24 22.09,7.53 26.43,16.41 10.9,22.35 -20.58,42.04 -38.32,44.91z"/>
   <path class="fil2" d="M361.32 407.64c-1.1,-31.38 19.09,-90.49 30.15,-117.32 7.34,-17.79 15.48,-33.49 24.82,-49.09 4.76,-7.96 28.44,-42.21 39.7,-31.15 9.08,8.91 -8.85,23.74 -22.67,28.79 -8.9,3.26 -9.35,0.85 -12.76,5.84 -20.79,30.49 -34.25,66.92 -45.31,103.2 -4.64,15.21 -12.61,45.18 -13.93,59.73z"/>
   <path class="fil2" d="M394.36 427.19c-0.04,-11.17 15.51,-41.84 20.9,-50.47 17.44,-27.89 42.88,-58.32 73.53,-72.39 65.69,-30.16 67.29,2.63 35.39,6.42 -5.69,0.68 -11.27,0.23 -16.62,-1.37 -7.81,-2.32 -5.27,-4.01 -13.67,-0.77 -33.28,12.84 -57.67,40.29 -75.73,70.21 -3.87,6.41 -23.49,41.85 -23.8,48.37z"/>
   <path class="fil2" d="M255.68 477.33c-3.42,-1.92 -7.6,-7.54 -10.49,-10.75l-111.49 -121.21c-7.07,-8.7 -10.64,-17.82 -8.73,-32.94 1.28,-10.2 11.38,-42.43 21.48,-42.68 6.13,-0.16 25.44,29.03 29.19,34.3 21.87,30.69 46.14,71.25 64.15,105.37 21.64,41.04 12.31,21.26 13.07,48.3 0.22,7.91 1.81,12.53 2.82,19.61z"/>
   <path class="fil2" d="M272.75 408.44c-9.26,7.01 -11.43,15.55 -15.5,21.3 -1.97,-2.17 -10.82,-21.08 -13.12,-25.5 -27.63,-53.31 -44.21,-74.11 -75.92,-122 -4.86,-7.35 -12.8,-15.4 -12.44,-27.71 0.59,-20.17 25.69,-49.37 34.94,-42.04 1.96,1.55 11.99,21.69 14.05,25.67 16.2,31.23 36.43,75.79 48.61,109.58 4.53,12.55 18.09,49.44 19.38,60.7z"/>
   <path class="fil2" d="M278.28 402.99c-2.5,-4.36 -11.94,-81.26 -12.22,-91.56 -0.44,-15.95 3.25,-31.46 11.87,-40.17 9.63,-9.73 24.95,-11.84 37.16,-2.5 21.72,16.61 19.67,51.06 17.32,84.96 -3,43.25 -2.23,32.19 -17.37,34.5 -21.58,3.28 -24.52,8.88 -36.76,14.77z"/>
   <path class="fil2" d="M422.24 464.56c-2.43,-12.99 -8.61,-10.05 -10.14,-20.66 3.23,-3.58 10.25,-8.87 14.37,-12.02 5.16,-3.96 10.03,-7.65 15.27,-11.46 102.21,-74.39 142.12,-16.59 106.38,9.34 -26.54,19.25 -67.57,20.91 -103.94,29.67 -6.6,1.59 -15.32,4.36 -21.94,5.13z"/>
   <path class="fil2" d="M256.91 487.78c-7.58,5.68 -21.87,-1.76 -24.86,-4.72 -2.91,-2.87 -4.03,-6.38 -9.79,-7.37 -8.21,-1.41 -1.73,2.19 -13.46,-4.23 -34.47,-18.9 -101.76,-60.83 -101.76,-107.2 0,-15.39 9.45,-26.14 15.62,-21.66l18.51 21.26c6.26,6.43 12.56,14.66 18.98,20.75l96.76 103.17z"/>
   <path class="fil2" d="M266.56 367.07c-1.44,-13.46 -31.08,-81.17 -38.18,-96.48 -7.22,-15.55 -14.72,-30.59 -22.59,-45.56 -3.63,-6.89 -8.89,-15.67 -9.36,-24.9 -0.56,-11.22 4.83,-30.55 20.38,-30.04 7.15,0.23 7.92,1.55 11.66,5.27 11.69,11.62 26.32,54.94 31.22,71.08 1.85,6.09 -2.43,15.85 -3.19,29.21 -1.81,31.83 10.52,81.6 10.06,91.42z"/>
   <path class="fil2" d="M349.15 272.43c0,26.6 -0.32,40.99 -4.08,68.73 -1.19,8.84 -5.94,42.74 -10.17,46.43 -1.91,-3.08 1.09,-12.51 1.68,-16.8 4.12,-29.99 9.55,-97 -3.63,-123.21 -6.26,-12.46 -12.32,-18.35 -22.62,-25.24 -2.91,-1.94 -2,-0.54 -2.85,-4.47 -3.38,-15.63 -5.89,-30.22 -9.85,-45.21 -3.74,-14.15 -11.4,-30.52 -11.4,-44.89 0,-11.98 3.82,-15.32 12.69,-8.55 39.33,30.04 50.23,106.84 50.23,153.21z"/>
   <path class="fil2" d="M408.95 437.63c-1.86,-4.94 0.43,-5.61 7.51,-11.75 4.35,-3.76 7.77,-6.84 12.24,-10.46 39.82,-32.2 95.67,-64.33 143.65,-83.16 13.27,-5.21 59.64,-21.95 72.68,-12.26 4.66,3.47 6.01,8.82 2.2,15.11 -6,9.9 -20.96,11.14 -31.35,13.95 -16.34,4.42 -35.69,10.87 -51.33,16.81 -5.89,2.24 -13.98,0.84 -20.99,1.55 -6.6,0.67 -12.74,2.04 -18.94,3.81 -53.82,15.33 -110.42,64.38 -115.67,66.4z"/>
   <path class="fil2" d="M422.31 495.72c2.44,-17.77 2.22,-10.63 1.6,-25.06 12.99,-1.65 27.35,-4.88 40.75,-6.81 38.94,-5.61 70.34,-7.37 108.5,-10.56 9.95,-0.83 14.5,0.55 8.16,9.86 -17.58,25.78 -41.54,23.04 -70.1,25.26 -29.6,2.31 -59.61,4.58 -88.91,7.31z"/>
   <path class="fil2" d="M441.66 522.61l-35.49 -0.06c2.09,-4.65 7.78,-4.98 14.3,-21.69 12.91,-0.7 125.79,-10.1 128.44,-7.76 5.88,5.19 -11.24,15.13 -15.04,17.4 -8.47,5.06 -15.2,6.55 -26.3,8.45 -18.63,3.18 -46.08,3.66 -65.91,3.66z"/>
   <path class="fil2" d="M287.03 218.79c-6.91,4.02 -8.57,2.97 -13.88,8.66 -6.02,6.45 -6.73,11.2 -9.43,14.04l-16.17 -47.17c-5.04,-12.87 -19.39,-35.25 -7.87,-47.62 5.83,-6.26 17.2,-6.19 23.59,-0.59 9.17,8.02 14.03,34.56 17.12,46.9 1.82,7.31 5.86,19.14 6.64,25.78z"/>
   <path class="fil2" d="M210.8 478.03c-1.67,2.69 -4.92,4.78 -7.31,7.75 -4.85,6.06 -2.62,5.02 -19.03,4.88l-68.25 -1.16c5.16,-18.23 24.97,-38.58 37.51,-46.17l57.08 34.7z"/>
   <path class="fil2" d="M509.64 525.98c-1.07,5.52 -19.83,14.57 -26.55,17.21 -10.87,4.25 -24.47,7.37 -37.38,7.48 -16.95,0.14 -64.26,-4.89 -77.56,-10.62 16.52,-4.54 18.32,-9.43 26.96,-12.03 11.38,-3.41 26.01,-1.06 38.47,-0.98 9.96,0.06 73.14,-2.25 76.06,-1.06z"/>
   <path class="fil2" d="M413.23 556.05c-2.37,8.75 -20.79,29.76 -25.98,35.37l-33.54 -23.39c-10.36,-7.28 -7.63,-6.17 -15.91,-13.28 -12.75,-10.96 -14.87,-6.75 -14.46,-14.87 8.28,1.47 14.49,2.89 23.69,2.79 17.99,-0.2 5.24,-2 22.72,3.48 10.48,3.28 43.17,9.76 43.48,9.9z"/>
   <path class="fil2" d="M598.76 404.77c-0.22,-14.88 -4.08,-18.88 -10.69,-26.59 8.78,-2.64 17.92,-5.3 27.25,-7.65 9.39,-2.37 23.45,-8.03 24.67,5.1 0.92,9.97 -7.43,19.59 -12.3,22.75 -5.05,3.29 -21.59,6.14 -28.93,6.39z"/>
   <path class="fil2" d="M183.45 531.42c-9.51,1.68 -16.99,3.72 -25.24,-1 -5.72,-3.27 -10.13,-12.2 -6.67,-21.3 2.85,-7.49 8.81,-9.53 18.29,-11.62 7.84,-1.73 18.93,-3.42 27.45,-3.48 -1.75,4.96 -5.59,11.29 -7.92,17.37 -2.5,6.53 -3.81,13.25 -5.91,20.03z"/>
   <path class="fil2" d="M511.93 452.79c4.57,-2.01 24.31,-4.57 31.46,-6.47 17.45,-4.65 38.59,-13.49 49.26,-27.09 4.73,-6.03 1.65,-7.76 10.35,-9.11 3.89,-0.61 13.55,-3.01 16.25,-0.75 6.97,5.85 -14.39,34.57 -36.97,36.84 -13.54,1.36 -60.36,6.53 -70.35,6.58z"/>
   <path class="fil2" d="M170.41 537.79c-6.04,1.45 -17.33,6.23 -23.88,8.55 -5.47,1.94 -20.86,8.06 -25.16,8.2 -5.55,-6.75 -10.45,-13.33 -10.94,-25.47l35.99 -6.97c5.97,6.82 3.25,13.5 23.99,15.69z"/>
   <path class="fil2" d="M145.69 518l-35.8 6.6c-0.12,-11.13 1.57,-20.52 4.4,-30.11l49.37 -0.38c-4.05,2.87 -8.54,1.76 -13.15,7.51 -3.67,4.57 -4.82,8.6 -4.82,16.38z"/>
   <path class="fil2" d="M127.19 559.3c1.6,-1.79 3.06,-1.84 5.93,-2.82 13.04,-4.48 40.79,-15.91 48.99,-18.11 -0.27,6.42 -1.95,13.99 -2.58,20.96 -0.46,5.14 -0.23,4.67 -4.99,6.28 -14.59,4.92 -37.25,2.65 -47.35,-6.31z"/>
   <path class="fil2" d="M302.62 218.97l-10.58 -1.05c-2.61,-13.16 -7.11,-27.85 -10.58,-41.39 -0.88,-3.43 -14.37,-44.33 -2.98,-38.61 7.13,3.58 22.31,67.4 24.14,81.05z"/>
   <path class="fil2" d="M344.47 608.87c3.08,-4.28 9.75,-7.19 10.42,-15.54 0.5,-6.11 -2.15,-6.29 -2.83,-9.8 -0.49,-2.47 -0.62,-8.98 -1.03,-12.08 7.46,3.59 24.75,19.07 31.72,23.31 -2.13,5.74 -27.95,24.45 -32.48,25.72l-5.8 -11.61z"/>
   <path class="fil2" d="M570.13 369.17c3.71,-3.12 29.9,-10.67 36.17,-12.51 6.47,-1.9 37.85,-12.47 37.2,-2.22 -0.36,5.7 -11.07,6.14 -16.67,7.38l-38.37 10.2c-10.37,3.15 -8.67,-0.16 -18.33,-2.85z"/>
   <path class="fil2" d="M308.05 641.44c-6.28,1.51 -39.14,10.82 -34.13,-10.16 5.28,-1.08 11.71,-1.16 17.26,-2.06 5.08,-0.83 11.52,-2.91 15.95,-3.24l0.92 15.46z"/>
   <path class="fil2" d="M345.35 624.43c-10.12,4.84 -20.2,11.69 -32.28,15.15l-1.51 -15.21c16.86,-5.66 19.18,-8.81 28.3,-12.36l5.49 12.42z"/>
   <path class="fil2" d="M347.3 581.51c-7.15,-4.06 -23.94,-4.16 -33.9,-3.92 3.69,-3.13 7.92,-2.16 12.09,-9.12 3.87,-6.47 2.43,-10.03 0.92,-17.46 6.94,2.91 22.46,18.23 20.89,30.5z"/>
   <path class="fil2" d="M325.67 488.36l-5.34 2.08c-0.31,-3.96 0.22,-3.99 1.35,-6.94l2.39 2.24c0.64,0.87 1.08,1.79 1.6,2.62z"/>
   <path class="fil2" d="M354.41 501.67c-1.26,2.27 -2.11,3.71 -5.15,4l-1 -4.13 6.15 0.13z"/>
   <path class="fil2" d="M277.52 517.22c-0.22,-6.46 -8.55,-14.41 -15.42,-15 -18.37,-1.57 -26.91,21.88 -16.47,34.61 6.22,7.58 17.8,6.21 22.16,2.8l-2.53 -7.48 8.04 -3c-0.3,-4.47 -2.63,-4.73 -3.8,-8.88l8.02 -3.05zm71.14 -8.53c5.2,-0.06 7.23,-4.13 9.72,-7.06 3.04,-3.58 6.69,-3.78 6.81,-9.75 0.28,-14.56 -23.65,-29.72 -38.71,-23.97 -4.69,1.79 -5.27,4.51 -5.88,10.12 -0.57,5.22 -3.09,7.18 -2.85,13.88 17.43,-0.24 7.32,-1.3 18.88,5.51 1.77,1.04 7.21,2.98 8.12,3.99 0.87,0.96 2.53,5.5 3.91,7.28zm-18.94 -111.94c-23.14,-5.26 -45.47,10.52 -53.53,22.32 -11.04,16.15 -16.94,45.53 6.53,51.2 24.08,5.81 45.33,-11.45 53.97,-22.96 11.97,-15.93 18.45,-44.78 -6.97,-50.56zm28.63 1.64c0.92,6.46 -1.4,9.85 1.38,16.24 5.28,-1.67 3.2,-7.6 5.9,-12.76 6.7,2.31 13.77,8.6 18.62,12.75 14.68,12.56 2.88,7.44 6.44,20.36 4.9,-0.31 3.35,-2.67 6.49,-5.7 3,3.01 8,11.6 9.04,17.06 -4.94,2.63 -11.11,2.37 -18.35,11.76 -11.24,14.58 -19.85,40.91 -12.43,59.67 1.77,4.48 4.17,6.4 6.39,9.02 -8.87,9.3 -38.15,11.82 -54.64,8.62 -5.52,-1.07 -13.71,-4.31 -18.3,-3.95 0.9,6.4 5.07,4.16 9.13,7.52l-0.2 4.12 -5.42 -1.02 -1.24 8.33 -6.86 0.05c-3.82,0.68 -2.08,2.85 -2.47,9.65l-8.33 3.01c0.15,8.92 8.85,11.73 12.07,14.05 -2.29,2.17 -17.86,4.49 -22.33,5.69 -27.22,7.29 -28.44,15.18 -41.68,9.17 -7.1,-3.23 -12.26,-7.02 -17.43,-11.6l9.91 -36.21c2.98,-14.86 4.12,-27.82 2.91,-43.59 7.91,-2.61 15.87,-6.82 25.41,-8.03 1.26,3.05 3.24,6.75 7.1,7.31 0.04,-9.27 -27.79,-45.29 4.64,-84.58 19.04,-23.07 61.36,-27.79 84.25,-16.94z"/>
   <path class="fil2" d="M235.68 492.17l6.61 -0.03c-3.08,1.71 -6.4,5.63 -6.61,0.03z"/>
  </g>
 </g>
</svg>
