<?xml version="1.0" encoding="UTF-8"?>
<!DOCTYPE svg PUBLIC "-//W3C//DTD SVG 1.1//EN" "http://www.w3.org/Graphics/SVG/1.1/DTD/svg11.dtd">
<!-- Creator: CorelDRAW 2017 -->
<svg xmlns="http://www.w3.org/2000/svg" xml:space="preserve" width="7.6198mm" height="7.6198mm" version="1.1" style="shape-rendering:geometricPrecision; text-rendering:geometricPrecision; image-rendering:optimizeQuality; fill-rule:evenodd; clip-rule:evenodd"
viewBox="0 0 761.98 761.98"
 xmlns:xlink="http://www.w3.org/1999/xlink">
 <defs>
  <style type="text/css">
   <![CDATA[
    .fil0 {fill:none}
    .fil2 {fill:#FEFEFE}
    .fil1 {fill:#00A859}
   ]]>
  </style>
 </defs>
 <g id="Capa_x0020_1">
  <metadata id="CorelCorpID_0Corel-Layer"/>
  <rect class="fil0" x="-0" y="-0" width="761.99" height="761.99"/>
  <path class="fil1" d="M48.56 719.65l664.86 0c3.43,0 6.23,-2.8 6.23,-6.23l0 -436.92c0,-128.8 -105.37,-234.17 -234.17,-234.17l-436.92 0c-3.43,0 -6.23,2.8 -6.23,6.23l0 664.86c0,3.43 2.8,6.23 6.23,6.23z"/>
  <g id="_1819034636528">
   <path class="fil2" d="M394.02 234.35c-0.45,-7.93 4.82,-4.61 10.63,-7.01 4.92,-2.04 8.26,-3.27 12.54,1.68 -1.67,1.15 -3.52,1.35 -5.55,1.87 -3.33,0.86 -3.33,0.67 -3.17,4.05 1.5,0.91 0.16,0.21 1.99,0.66 0.86,0.22 1.1,0.05 1.94,0.41 1.42,0.61 1.25,0.73 1.55,2.46l-5.29 0.41c-1.22,4.96 -0.09,4.51 0.38,8.33 -2.92,0.05 -4.76,-0.96 -6.89,-1.71 0.63,-1.2 1.59,-3.91 2.01,-4.38 1.56,-1.72 2.29,-0.11 2.69,-3.22 -1.97,-1.25 -4.5,-0.32 -7.3,-1.13 -1.14,-0.33 -4.2,-1.73 -5.53,-2.42zm-35.86 -6.25c2.67,-0.66 3.02,-2 4.33,-3.66 3.6,-0.11 17.97,2.92 21.58,8.37 6.39,9.68 -2.21,17.94 4.8,24.04l-4.15 2.19c-1.84,-6.31 2.72,-20.26 -2.68,-23.12 -3.27,-1.82 -4.57,0.53 -6.82,1.74 -0.04,4.03 0.74,4.14 1.34,7.35 -2.24,1.66 -5.29,3.45 -8.61,1.77 0.72,-3.24 0.34,0.98 3.07,-4.57 0.95,-1.91 -0.09,-0.44 1.62,-1.78l1.8 -2.14c-2.49,-3.15 -7.18,-1.57 -10.22,-0.12l-0.23 -2.18c3.32,-0.56 4.32,-0.43 6.26,-2.03 -1.19,-4.14 -7.24,-5.35 -10.96,-1.98l0.64 7.56c-3.12,-0.43 -5.54,-2.91 -6.3,1.34 2.6,1.18 3.34,0.68 6.27,0.82 1.56,2.58 1.79,7.96 1.98,11.68 -0.26,0.04 -1.8,0.17 -1.92,0.2 -0.37,0.07 -0.62,0.12 -0.98,0.24 -1.42,0.46 -0.45,-0.11 -1.38,0.66 1.51,2.87 2.17,1.29 4.8,2.37 1.51,2.1 2.06,5.12 2.99,7.67 1.45,4 10.2,17.44 13.28,19.92 4.03,3.26 13.19,3.84 18.83,2.18 5.19,-1.53 9.55,-6.77 12.3,-10.27 8.46,-10.77 8.8,-16.97 10.43,-33.82 0.61,-6.32 1.67,-15.19 -0.85,-20.71 -1.3,-2.84 -7.61,-11.11 -10.16,-12.45 -4.68,0.07 -3.58,2.76 -7.54,4.41l-9.35 3.11c-4.09,1.23 -6.62,0.17 -9.71,-1.55 -6.18,-3.45 -3.01,-1.78 -8.93,-1.3 -1.73,-2.01 -1.97,-4.45 -4.69,-4.55 -8.37,-0.33 -10.9,13.27 -10.84,18.61z"/>
   <path class="fil2" d="M394.24 306.14c0.44,-1.96 0.39,-1.07 1.09,-2.19 6.33,-10.14 0.86,-10.49 6.56,-14.23 10.44,-6.86 10.86,-5.79 10.89,-12.71 -3.03,0.37 -3.91,2.44 -5.54,4.49 -8.41,10.55 -12.25,6.5 -22.55,7.69 -0.25,3.66 2.13,2.74 0.66,8.25 -1.33,4.99 -0.98,3.63 0.83,7.45 -3.22,-0.71 -2.45,-1.72 -2.16,-5.39 0.48,-6.06 0.55,-6.62 -1.45,-7.12 -5.88,-1.49 -5.95,14.69 -5.81,17.68 9.49,5.48 8.59,12.88 11.73,13.1 2.37,-0.55 4.08,-4.36 5.71,-6.12 7.84,-8.41 11.02,-8.13 8.8,-18.57 -0.57,-2.67 -0.03,-2.64 -2.07,-2.78 -2.06,5.82 2.85,9.22 -6.69,10.45z"/>
   <path class="fil2" d="M242.5 327.51c1.75,-0.77 0.83,0.27 1.58,-1.09 1.71,1.47 2.09,4.25 7.28,8.02 9.18,6.68 18.04,11.88 29.78,12.48 2.23,0.11 2.21,0.33 3.91,-0.77l0.21 -2.96c-0.65,-0.34 -0.38,-1.19 -3.96,-0.03 -3.42,1.11 -8.14,1.82 -8.74,-3.06 -0.87,-7.07 4.24,-8.45 7.43,-10.95 0.21,-14.67 2.18,-5.4 3.89,-13.67 -1.47,1.03 -1.4,1.28 -3.32,1.62 0.94,-11.63 -0.73,-16.81 1.27,-29.56 0.46,-2.97 1.07,-5.29 0.01,-7.89 -0.82,-2.01 -4.75,-1.77 -7.1,5.02 -1.53,4.41 -0.91,7.17 -1.8,11.4 -4.28,-2.87 -6.45,-16.78 -7.06,-21.08 -1.06,-7.47 -1.63,-20.93 -7.89,-18.72 -2.92,6.73 0.41,20.3 0.3,27.91 -2.61,-0.77 -1.76,-0.14 -2.88,-2.92l-3.24 -11.2c-0.96,-4.47 -1.96,-10.71 -4.24,-14.11l-2.69 -0.08c-1.23,3.81 -1.2,8.31 -0.58,12.54 0.43,2.94 1.89,9.28 0.9,10.99 -1.83,-1.06 -2.09,-3.9 -3.01,-7.29 -0.88,-3.25 -1.18,-5.21 -4.7,-5.31 -1.25,3.09 -1.37,6.05 -1.21,10.11 -2.87,1.57 -3.49,-0.18 -3.47,4.67 0.01,2.75 0.41,4.4 0.8,6.98 3.59,23.62 11.22,29.66 12.13,35.09 -2.48,1.78 -3.02,0.05 -3.6,3.86z"/>
   <path class="fil2" d="M357.45 304.66c3.74,1.45 3.49,2.67 8.2,3.47 0.43,1.71 0.92,3.1 1.65,4.82 1.59,3.7 1.08,3.35 2.84,4.58 2.75,-2.34 4.66,-14.99 6.63,-21.02 3.6,-11.03 2.67,-5.74 -5.1,-12.18 -1.64,-1.36 -4.62,-5.39 -6.18,-6.07 -1.31,2.86 -0.01,3.71 -2.57,5.7 -1.91,1.5 -2.55,1.96 -3.61,4.76 -1.87,4.9 -2.42,10.51 -1.86,15.94z"/>
   <path class="fil2" d="M393.53 356.06c-7.76,-0.29 -7.57,2.26 -8.99,8.85 -1.85,8.61 -5.17,37.68 -5.61,45.88 -0.38,7.04 -0.22,5.69 -1.7,9.98 -0.03,0.07 -0.09,0.24 -0.1,0.31 -0.02,0.07 -0.04,0.24 -0.05,0.3 -0.3,2.26 0.45,-0.99 -0.06,2.15 -2.12,13.22 -3.26,19.27 4.22,27.08 2.81,2.93 5.28,5.82 8.23,8.92 5.1,-1.29 12.45,-13.57 12.88,-19.11 0.74,-9.65 -4.53,-58.02 -6.31,-71.36 -1.4,-10.58 -0.05,-3.49 -2.51,-13z"/>
   <path class="fil2" d="M283.53 317.95c-1.71,8.27 -3.68,-0.99 -3.89,13.68 -3.2,2.49 -8.3,3.88 -7.43,10.95 0.6,4.87 5.31,4.17 8.73,3.06 3.58,-1.16 3.32,-0.32 3.96,0.03l-0.21 2.96c-1.69,1.09 -1.68,0.88 -3.91,0.76 -11.73,-0.6 -20.6,-5.8 -29.78,-12.47 -5.18,-3.78 -5.57,-6.55 -7.28,-8.02 -0.74,1.36 0.18,0.32 -1.57,1.08 -0.72,1.19 -3.15,9.5 -3.99,12.11 -2.9,9.06 -9.51,27.31 -13.29,34.83 -2.98,5.93 -9.13,15.68 -8.98,23.81 0.17,8.68 5.76,16.6 7.33,24.67 4.53,3.19 10.74,10.58 14.3,14.99 3.33,4.13 10.42,10.66 18.7,5.72l23.04 -19.6c2.07,-1.78 5.95,-4.5 7.7,-6.52 1.25,-1.46 2.01,-2.92 2.97,-4.14 5.48,-6.9 7.18,-5.13 6.95,-14.52 -0.52,-21.15 -1.91,-12.68 -5.3,-23.31 -2.78,-8.71 -6.87,-42.33 -3.93,-50.55 1.43,8.22 0.49,20 1.45,28.82 0.66,6.18 2.93,20.15 6.71,23.64l1.18 -4.34c1.1,4.61 2.54,34.85 2.99,42.12 0.57,9.04 2.01,45.38 4.24,52 3.89,11.58 1.43,14.1 -0.04,29.86 -1.24,13.24 -3.33,28.58 -3.7,41.72 6.24,1.31 14.55,2.58 16.99,7.47 -2.25,6.66 -8.64,5.29 -10.69,10.06 3.65,3.58 8.54,1.99 11.15,7.11 -2.15,8.93 -17.75,4.22 -23.59,7.7 1.23,4.8 4.43,0.7 6.07,6.51 -4.49,8 -9.15,-2.36 -9.48,20.13 -0.13,8.73 3.66,15.82 5.13,23.69l65.41 0c0.28,-24.05 0.37,-48.19 1.17,-72.22 0.38,-11.49 0.88,-22.93 1.61,-34.38 0.56,-8.78 2.15,-26.45 0.35,-34.41 -1.66,-8.76 0.4,-32.52 0.97,-41.93 0.98,-16.09 -0.14,-37.05 -0.14,-54.53 0.01,-4.88 -2.12,-4.32 -2.54,-7.76 -0.47,-3.83 2.9,-4.3 3.48,-7.11l-0.17 -31.28c0.43,-7.38 -2.19,-13.02 -2.13,-19.7 0.71,-10.04 -12.6,-14.25 -17.37,-1.29 -7.72,20.97 9.89,20.13 5.97,24.24 -1.48,1.48 -1.82,0.79 -2.73,-0.69 -1.43,-2.32 0.41,-1.91 -2.89,-2.85 -0.71,0.98 -0.53,-0.18 -0.84,2.1 -0.28,2.03 0.85,3.03 1.11,4.35l-3.27 18.27c-1.2,5.41 -0.76,7.83 3.65,9.86 3.43,1.57 8.16,1.49 5.78,7.69 -1.56,0.72 -3.6,1.18 -5.83,0.67 -1.84,-0.43 -0.95,-0.23 -2.08,-1 -2.95,-2 -6.79,-1.54 -7.58,-6.89 -0.6,-4.07 0.48,-6.91 -0.73,-11.21 -0.93,-3.35 -1.97,-5.62 -1.75,-9.94 10.92,-6.09 1.36,-20.87 4.95,-33.42 0.51,-1.77 2.81,-4.17 3.75,-6.17 2.13,-4.48 -0.74,-3.45 4.21,-5.82 2.65,-1.27 3.95,-2.31 4.43,-5.49 2.08,-13.93 -0.55,-10.3 -18.74,-5.32 -6.29,1.72 -12.31,3.55 -18.4,5.32 -8.48,2.45 -29.5,6.93 -32.18,14.9z"/>
   <path class="fil2" d="M153.56 515.71l25.71 1.35c0.51,4.66 -8.69,8.97 -13.43,9.19 -6.16,0.28 -12.04,-5.03 -12.28,-10.54zm-82.44 1.23l0 17.62c3.92,-0.56 10.23,-3.22 13.18,-5.18 4.43,-2.94 3.97,-6.62 11.69,-6.57 7.49,9.07 9.77,27.33 11.32,40.14 0.4,3.28 2.09,13.95 -0.07,16.68 -3.33,-1.47 -2.78,-9.79 -3.13,-13.34 -0.51,-5.27 -1.02,-10.38 -1.9,-15.47 -1,-5.78 -2.76,-14.22 -5.28,-19.57 -1.27,-2.7 -1.66,-3.89 -5.4,-4.03 -2.44,4.52 -5.85,8.39 -7.9,14.51 -7.01,20.88 -5,14.97 -8.16,36.9 -0.44,3.12 -1.13,6.79 -1.3,9.84 -0.25,4.71 1.4,7.76 -3.05,8.98l0 26.51 222.28 0c-0.75,-8.25 -4.61,-19.5 -7.47,-26.51 -6,-14.73 -5.4,-9.54 -18.77,-14.48 -8.4,-3.1 -15.57,-7.54 -20.99,-12.67 -5.46,-5.17 -3.92,-3.71 -7.83,-8.73 -2.54,-3.25 -5.79,-4.58 -5.84,-10.07 2.95,0.54 4.17,2.75 5.54,4.93l9.99 12.02c1.7,1.66 3.6,3.1 5.98,4.69 9.85,6.58 14.62,8.63 23.46,3.79 3.04,-1.66 5.24,-1.8 4.79,-5.67 -3.02,-1.64 -5.06,-2.24 -8.13,-4.06 -4.22,-2.49 -16.42,-9.88 -19.37,-13.13l-1.5 -2.08c3.07,0.44 8.16,4.66 11.03,6.69 8.19,5.8 15.05,10.67 23.79,8.08 4.29,-1.27 8.61,-3.4 9.96,-6.99 -4.98,-2.12 -11.7,-3.63 -16.97,-5.56 -9.16,-3.35 -40.79,-17.42 -42.25,-24.78 10.29,4.7 31.32,19.66 45.65,23.42 7.56,1.98 13.56,-2.83 14.96,-8.24l-8.04 -2.7c-8.66,-0.67 -15.93,-3.52 -24.55,-5.9 -3.28,-0.91 -20.45,-6.25 -23.03,-7.77 -3.1,-1.82 -1.46,-3.78 -3.54,-6.55l-5 -5.63c-3.56,-4.35 -11.22,-10.79 -15.73,-14.47 -35.52,-28.91 -66.7,-23.62 -103.43,-0.21 -4.2,2.67 -7.41,6.12 -11.69,8.43 -6.62,3.56 -24.69,6.32 -33.3,7.13zm54.52 107.02l4.04 0c1.3,-4.3 3.23,-7.48 5.26,-10.52 1.06,-1.59 2.13,-2.95 3.23,-4.47 1.05,-1.46 2.56,-2.16 3.74,-3.39 3.33,-3.48 2.81,-3.5 8.5,-6.87 3.37,-1.99 7.54,-2.93 11.67,-2.82 7.37,0.19 16.13,3.3 20.79,9.05 1.57,1.94 2.06,1.44 3.75,3.95 6.19,9.18 4.05,5.47 2.29,15.07l4.08 0c2.78,-6.85 7.18,-13.53 10.54,-19.21 3.47,-5.89 11.01,-13.73 11.64,-18.51 -5.69,-0.48 -5.12,1.79 -7.61,4.8 -5.5,6.63 -9.24,12.42 -13.4,20.14 -2.61,-0.82 -3.72,-5.56 -8.99,-10.33 -6.47,-5.85 -20.67,-10.98 -30.68,-8.37 -6.22,1.63 -15.62,9.71 -17.82,12.62 -4.16,5.48 -10.14,11.69 -11.03,18.86z"/>
   <path class="fil2" d="M410.18 465.96c-1.54,11.07 -0.74,27.41 -0.69,38.98 0.05,13.41 0.14,26.85 0.43,40.27 0.58,26.36 1.35,52.48 2.28,78.75l88.89 0c-1.72,-19.22 -4.73,-40.68 -6.97,-60.5 -0.68,-6.09 -1.02,-4.92 -5.73,-7.39 -2.69,-1.41 -5.93,-3.57 -4.73,-8.02 1.11,-4.13 4.65,-3.1 8.38,-4.42 -1.84,-6.44 -8.14,-1.84 -7.02,-13.83 1.64,-0.85 3.11,-1.51 4.42,-2.62l-2.3 -9.57c-2.33,0.85 -5.03,2.2 -7.49,3.32 -12.54,5.72 -4.7,3.58 -4.28,12.87 -3.24,-0.72 -6.77,-6.09 -7.36,-9.39 -6.2,-5.57 -20.24,-44.36 -19.38,-51.69 3.22,0.29 2.3,3.84 6.74,1.45 1.29,-0.7 2.85,-3 4.73,-4.77 3.03,-2.85 7.5,-5.26 11.63,-7.93 2.01,-1.31 4.08,-2.48 6.08,-3.99 3.88,-2.93 1.53,-2.26 2.34,-6.04 1.21,-5.59 6.95,-1.57 7.54,-11.61 0.48,-8.12 -6.47,-14.11 -8.78,-30.57 -1.09,-7.84 -8.55,-4.09 -9.77,-19.24 -0.12,-1.54 -0.17,-3.12 -0.3,-4.65 -0.11,-1.41 -0.23,-2.96 -1.06,-3.69 -1.33,-1.14 -24.56,-2.83 -25.97,-0.62 -0.06,0.09 -0.21,0.27 -0.28,0.39 -1.77,3.06 0.99,-2.48 -0.45,0.85l-2.81 9.59c-3.71,11.03 -7.25,21.4 -11.81,32.01 -4.95,11.5 -7.85,20.58 -11.44,32.4 -1.36,4.49 -0.79,7.94 -4.84,9.66z"/>
   <path class="fil2" d="M470.87 520.6c2.65,-0.08 15.97,-7.3 19.54,-9.12 32.89,-16.72 36.37,-26.55 49.64,-34.84 2.08,-4.05 6.25,-6.07 8.08,-11.49 2.07,-6.17 -3.35,-24.8 -5.93,-31.77l-7.09 -22.49c-1.2,-2.48 -2.55,-2.43 -1.77,-6.84 1.79,-10.13 1.16,-8.58 -4.07,-13.83 -6.57,-6.6 -18.66,-12.59 -19.5,-19.68 7.19,1.5 8.29,9.73 14.73,9.99 0.01,-6.14 0.19,-8.07 -4.16,-10.29 -5.05,-2.59 -14.48,-7.95 -17.92,-11.8 -5.4,-6.04 -6.87,-3.5 -6.88,-7.92 6.08,2.28 13.83,10.37 20.6,11.93 0.01,-9.95 -1.58,-14.53 -3.49,-23.35 -1.36,-6.26 -2.69,-16.95 -9.17,-16.44 -6.32,0.5 -8.94,9.15 -11.17,14.91 -2.43,6.27 -4.4,12.4 -6.51,18.97 -15.74,48.83 -6.05,40.87 -3.7,50.67 1.56,6.49 7.38,23.71 9.94,28.51 6.54,-2.08 10.06,-16.86 14.75,-20.65 1.75,9.29 -14.88,23.9 -16.62,30.92 8.23,-0.5 24.62,-4.7 29.58,1.52 -2.71,2.18 -17.59,0.95 -22.32,1.27 -17.06,1.16 -14.35,3.22 -13.96,9.39l-15.95 9.75c-5.39,3.45 -10.38,7.28 -14.49,10.77 0.5,11.41 10.91,31.41 16.26,41.99l1.58 -0.08z"/>
   <path class="fil2" d="M402.02 399.65c1.03,1.29 1.23,2.14 1.32,4.04 0.08,1.61 -0.12,2.71 0.11,4.41 0.29,2.16 0.58,6.12 0.88,8.59 1.03,8.19 -0.1,5.65 1.82,16.53 2.52,14.26 -4.54,17.67 -8.78,26.72 8.16,0.02 6.51,1.33 9.07,-3.77 1.85,-3.68 1.07,-22.27 1.03,-27.02 -0.15,-21.82 2.01,-49.35 3.54,-71.13 0.66,-9.41 1.77,-26.22 4.13,-33.67 0.5,0.4 1.83,0.33 1.91,4.13l-2.06 27.93c-2.51,24.58 -2.91,40.51 -3.41,65.04 -0.22,10.98 -1,22.93 -0.69,33.79 2.79,-1.87 6.47,-16.29 7.76,-19.63 2.56,-6.6 5.8,-12.86 8.43,-19.39 1.84,-4.55 13.35,-38.92 13.58,-42.13 -4.23,-3.88 -6.39,-5.92 -6.85,-16.1 -0.12,-2.73 0.87,-5.33 0.74,-6.98 -0.33,-3.99 -14.62,-11.28 -14.96,-16.3 6.95,0.38 5.56,8.8 12.68,1.44 1.32,-1.37 2.74,-2.56 3.99,-3.72 6.07,-5.62 1.23,-4.86 2.22,-12.08 0.37,-6.54 -10.08,-34.07 -15.7,-36.19 -1.5,2.53 -2.89,18.45 -3.73,23.41 -1.36,8.11 -0.31,14.06 -4.01,16.05 -1.33,0.71 -3.03,1.52 -4.64,1.68 -0.98,-1.96 -0.49,-3.3 -1.77,-5.18 -4.52,-0.25 -6.26,2.03 -9.06,4.06 -4.29,3.09 -3.27,2.81 -3.46,9.07 -0.12,3.71 -1.34,7.9 -1.22,11.22 0.09,2.66 1.43,7.55 1.95,10.58 0.96,5.6 5.39,40.41 5.18,44.6z"/>
   <path class="fil2" d="M435.07 293.94l7.86 23.86c1.45,3.39 4.61,21.36 5.74,26.2 1.05,4.46 1.98,4.29 3.47,7.23 2.23,4.39 0.9,2.77 4.25,5.71 0.07,6.09 -1.69,1.44 -4.33,8.56 -1.21,2.81 -0.99,1.22 -2.4,3.26 2.18,2.5 5.65,2.08 9.27,2.41 5.46,0.49 5.57,1.25 9.69,2.49 0.35,-3.41 0.14,-12.36 3.36,-13.64 2.42,4.26 -2.54,22.54 0.59,29.2 3.05,0 1.77,-0.6 3.36,-8.25 1.35,-6.5 6.53,-22.3 8.67,-28.61 2.05,-6.06 4.08,-12.3 6.24,-18.06 1.04,-2.77 2.44,-6.19 3.9,-8.53 2.2,-3.54 5.25,-3.92 6.38,-6.16 -3.46,-3.34 -27.23,-11.24 -33.41,-13.93l-30.95 -13.56c-1.19,-0.59 -1.78,-1.39 -0.9,-0.34 -0.91,0.68 -0.42,-0.27 -0.79,2.16z"/>
   <path class="fil2" d="M527.27 556.52c6.64,-10.32 18.9,-6.97 23.02,-16.5 2.09,-4.83 3.49,-9.88 5.35,-14.78 1.9,-4.99 4.52,-9.07 6.15,-13.63l-3.47 0.13c-8.05,-0.36 -27.05,5.29 -34.97,7.52 2.69,3.82 5.42,4 7.78,7.78 -8.04,3.57 -18.69,1.95 -27.59,4.04 0.96,5.22 5.48,7.4 9.49,9.15 3.6,1.57 2.97,1.3 3.79,2.95l-15.59 3.24c0.51,2.78 2.16,4.96 3.63,6.17 10.14,8.4 13.76,4.48 22.41,3.93z"/>
   <path class="fil2" d="M139.97 458.17c-0.09,4.38 2.22,22.38 3.98,25.32 3.84,0.34 6.84,-1.23 10.2,-2.1 3.65,-0.93 7.51,-1.26 11.41,-1.64 -1.57,-7 -7.02,-7.12 -8.22,-7.71l-0.18 -8.95 6.35 -1.34c2.32,-5.69 -0.72,-5.47 8.13,-5.2 2.51,4.45 2.64,4.78 7.89,6.74l0.24 8.49 -5.65 1.69c-0.75,1.82 -1.14,4.24 -0.69,5.61 3.12,1.54 7.97,1.37 11.75,2.37 3.91,1.04 7.7,3.22 11.87,2.65 1.38,-5.08 2.94,-17.12 2.26,-22.44 -0.34,-2.6 -0.91,-2.52 -2.75,-3.41 -4.82,-2.34 -8.68,-3.65 -14.2,-4.73 -12.75,-2.49 -32.69,-1.49 -42.39,4.65z"/>
   <path class="fil2" d="M606.89 451.71c-6.45,0.2 -8.53,3.56 -8.22,10.02 0.27,5.61 1.53,10.74 1.78,16.39 3.41,3.49 4.83,1.79 10.57,0.64 3.65,-0.74 7.95,-1.86 11.76,-2.27l-2.72 -6.84c-2.07,-0.56 -3.27,-0.91 -3.79,-2.93 -1.4,-5.42 1.25,-5.97 2.73,-6.58 4.6,-1.91 2.13,-2.53 5.03,-5.47l6.64 0.06c2.56,3.04 -0.21,2.12 4.82,4.53 0.78,0.38 0.68,0.35 1.17,0.65 1.86,1.11 1.51,5.67 1.54,8.17 -1.9,0.68 -3.23,0.78 -4.29,2.09l-0.64 5.48 20.37 2.86c3.51,0.62 2.81,1.87 5.45,2.03 0.89,-3.36 0.59,-6.14 0.59,-9.94 -0.66,-0.34 -1.48,-0.82 -2.13,-1.19 -0.61,-6 1.37,-7.51 1.16,-12.43 -3.5,-1.39 -4.52,-3.15 -10.24,-4.53 -11.28,-2.71 -30.55,-1.27 -41.58,-0.74z"/>
   <path class="fil2" d="M384.92 478.47c4,-0.34 10.72,-1.37 11.97,3.1 3.85,13.83 -17.06,10 -18.16,6.05 -0.4,-1.41 0.02,-6.23 0.56,-7.43 0.82,-1.8 0.14,-1.26 5.63,-1.72zm-19.04 4.48c1.66,7.96 0.2,25.63 -0.32,34.41 -0.67,11.45 -1.14,22.89 -1.49,34.38 -0.74,24.03 -0.82,48.17 -1.08,72.22l46.82 0c-0.86,-26.27 -1.57,-52.39 -2.1,-78.75 -0.27,-13.42 -0.36,-26.86 -0.4,-40.27 -0.05,-11.57 -0.79,-27.91 0.64,-38.98 0.35,-4.66 1.41,-6.18 -1.99,-7.35 -0.46,0.85 -0.08,-0.52 -0.47,1.41 -0.12,0.63 -0.14,1.02 -0.17,1.66 -0.18,3.41 0.62,7.16 -0.73,8.22 -3.68,1.71 -30.1,-0.83 -35.53,-1.39 -0.29,-4.97 1.32,-4.08 -0.67,-8.7 -1.99,2.28 -1.33,8.05 -1.43,11.97l-0.27 9.1c-0.48,2.33 -0.06,0.99 -0.81,2.07z"/>
   <path class="fil2" d="M392.58 315.57c0.21,-4.54 0.39,-5.21 2.81,-8.44 2.43,-0.23 2.83,-0.54 4.68,1.22 -0.18,3.13 -1.36,2.6 -3.25,4.16 -2.13,1.76 -1.07,1.98 -4.24,3.06zm-2.27 -0.81c-0.9,-2.31 -0.63,-4.89 -0.57,-7.74l2.92 0.19c-0.87,2.88 -0.54,6.09 -2.35,7.55zm-6.61 -10.8c0.65,2.69 2.22,2.22 4.29,3.79 0.33,2.04 0.17,4.95 0.89,6.85 0.79,2.09 2.11,1.48 2.77,3.15 0.9,2.28 0.04,0.87 -0.21,1.35l-2.91 0.74c-3.2,-2.12 -2.77,-4.28 -6.57,-6.73 0.95,2.49 1.54,2.99 2.9,5.41 0.84,1.5 1.47,3.14 2.47,4.57 4,0.44 3.95,-2.55 6.47,-5.29 7.89,-8.61 11.53,-8.6 9.43,-18.77 -0.58,-2.84 -0.29,-2.61 -2.45,-3.37 -1.08,6.77 1.45,9.11 -6.38,10.31 0.85,-3.08 0.49,-0.63 1.83,-2.94 3.01,-5.2 2.92,-9.98 3.36,-10.84 2.11,-3.39 9.81,-6.52 13.21,-9.99l0.19 -5.43c-3.32,0.3 -4.1,2.32 -5.81,4.49 -7.42,9.38 -10.87,7.27 -22.18,7.64 -0.39,3.4 1.64,4.86 0.02,9.47 -1.27,3.6 -0.7,4.62 1.62,6.77 -1.19,-0.44 -1.8,-0.76 -2.94,-1.18z"/>
   <path class="fil2" d="M289.85 556.89l-0.22 -1.87c5.77,-1.24 5.54,4.69 14.03,2.64 1.48,-0.36 12.12,-4.63 11.6,-8 -0.72,-4.66 -13.04,-5.39 -16.13,-5.9 0.24,5.03 -7.08,10.5 -13.19,9.29 -12.93,-2.57 -42.24,-22.07 -47.29,-23.71 2.05,8.39 41.57,26.34 51.2,27.55z"/>
   <path class="fil2" d="M441.63 347c3.1,5.65 4.17,12.78 3.2,20.05 1.66,-1.02 2.56,-2.05 5.14,-2.44l-0.24 2.58 2.97 -1.54c0.37,-5.7 4.67,-1.98 3.83,-9.53 -3.78,-2.14 -2.41,-2.13 -6.02,-8.13 -1.79,-2.99 -2.24,-7.47 -2.96,-11.19 -1.1,-5.67 -2.59,-19.33 -6.37,-22.42 1.48,6.02 2.58,12.36 3.94,18.39l3.99 17.14c-3.89,0.05 -4.21,-1.69 -7.48,-2.91z"/>
   <path class="fil2" d="M242.75 567.47c3.87,2.61 7.59,9.76 25.64,16.13 3.57,1.26 7.93,1.92 11.47,2.95l0.11 -2.42c3.08,-1.07 7.48,0.58 8.7,-1.36l-13.29 -0.85c0.58,-1.64 2.86,-2.38 4.68,-3.37 2.41,-1.32 3.22,-2.33 5.04,-3.79l2.83 0.19c-1.16,-1.62 -2.93,-2.24 -5.42,-4.2l-0.52 3.29c-7.22,4.57 -11.68,7.65 -21.16,2.86 -10.23,-5.17 -11.17,-8.06 -16.81,-12.65l-2.47 -0.65 1.2 3.87z"/>
   <path class="fil1" d="M272.48 385.55c-0.16,7.1 -5.26,13.35 -3.72,17.6 4.38,-0.49 2.19,-4.44 5.04,-6.73 2.64,5.92 -2.64,18.66 -0.18,25.49 3.54,-0.76 2.86,-3.94 3.33,-7.7 0.88,-7.21 1.75,-12.22 1.33,-19.69 -0.24,-4.27 -1.38,-5.56 -2.02,-8.9 -1.65,-0.58 -2.1,-0.64 -3.78,-0.07z"/>
   <path class="fil2" d="M373.28 309.53l1.56 -1.95 2.35 1.71c0.08,-0.13 0.3,0.22 0.45,0.33 -1.17,-3.68 0.8,-13.58 3.15,-16.34l2.9 0.21 -0.55 -2.35 -5.3 -2.44 0.73 1.54c-1.8,3.5 -5.18,15.04 -5.29,19.29z"/>
   <path class="fil2" d="M372.23 377.8c-0.78,1.65 -1.98,2.42 -3.51,3.31 -1.95,14.07 -0.98,33.3 -0.82,47.89 0.08,8.07 -0.28,16.38 0.02,24.38 0.18,4.7 0.23,6.66 4.74,7.54 3.44,0.67 8.61,0.53 11.34,-1.01 -0.95,-2.47 -3.57,-5.65 -5.14,-7.56 -1.28,-1.54 -4.63,-5.49 -5,-7.72 -1.73,-7.48 1.13,-24.56 2.26,-32.33 1.15,-7.89 4.22,-24.64 3.58,-32.38 -1.12,-12.94 3.77,-21.76 4,-32.94 0.12,-5.51 -0.94,-11.76 -1.93,-16.88 -1.08,-5.56 -4.23,-8.57 -10.34,-9.22 -1,11.08 2.13,19.86 4.6,30.07 2.82,11.62 5.11,20.46 -3.8,26.85z"/>
   <path class="fil2" d="M360.47 287.54l2.19 -0.13 0.44 18.14c-2.15,-0.03 -3.04,-0.82 -4.88,-1.36 0.92,1.45 0.37,1.11 3.21,2.73 1.85,1.05 2.32,0.92 4.17,1.21l2.9 7.69c0.92,1.72 0.61,1.01 1.59,1.73 0.85,-0.74 0.28,0.16 1.06,-1.08l2.13 -6.94c0.11,-4.25 3.49,-15.79 5.29,-19.29l-0.73 -1.54c-0.39,-1.21 -1.42,-1.23 -3.09,-2.26 -5.12,-3.17 -5.85,-5.28 -7.8,-7.05 -0.92,-0.84 -0.38,-0.49 -1.8,-0.99 -2.67,10.62 -2.96,2.3 -4.68,9.14z"/>
   <path class="fil2" d="M437.34 623.96l3.06 0c-1.59,-16.5 -6.68,-32.29 -8.58,-48.57l-4.37 -38.24c-0.42,-3.2 -0.58,-9.9 -2.54,-12.46 -1.01,0.87 -1.38,-2.05 -1.11,5.95 1.1,31.52 8.15,62.5 13.54,93.32z"/>
   <path class="fil2" d="M377.64 309.62c0.65,1.24 0.81,1.03 2.11,2.17 1.39,1.23 0.42,1.13 2.21,1.32 3.8,2.45 3.37,4.61 6.57,6.73l2.91 -0.74c0.25,-0.48 1.11,0.93 0.21,-1.35 -0.66,-1.67 -1.98,-1.06 -2.77,-3.15 -0.72,-1.9 -0.56,-4.81 -0.89,-6.85 -2.07,-1.57 -3.64,-1.1 -4.29,-3.79l-0.01 -10.47 -2.9 -0.21c-2.35,2.76 -4.32,12.66 -3.15,16.34z"/>
   <path class="fil2" d="M299.95 570.53c5.46,0.43 11.62,-0.91 14.79,-3.63 -0.87,-3.38 -2.53,-2.76 -5.95,-4.05 -2.32,-0.88 -4.87,-2.71 -7.84,-1.46 -2.23,0.94 -9.98,6.6 -11.14,8.48l10.14 0.66z"/>
   <path class="fil2" d="M487.71 531.85c0.63,5.12 3.5,6.25 7.77,8.22 3.17,1.47 9.78,3.16 13.25,2.14 -1.42,-2.69 -2.45,-2.07 -5.09,-4.85 -1.82,-1.91 -2.9,-4.44 -4.57,-6.13l-11.36 0.62z"/>
   <path class="fil2" d="M486.47 548.47c3.13,8.17 16.68,10.02 20.96,9.61 -2.18,-2.52 -7.72,-6.69 -8.19,-10.19 -4.19,-1.03 -8.49,-1.53 -12.77,0.58z"/>
   <path class="fil2" d="M288.67 582.77c4.34,0.25 7.28,-0.66 8.72,-3.39 -2.34,-2.26 -4.85,-1.75 -7.43,-4.54l-2.03 0.11 -2.83 -0.19c-1.82,1.46 -2.63,2.47 -5.04,3.79 -1.82,0.99 -4.1,1.73 -4.68,3.37l13.29 0.85z"/>
   <path class="fil2" d="M516.67 368.38c-0.38,-2.58 0.69,-13.29 -0.73,-13.87l-0.11 7.56c-3.49,-0.14 -16.06,-10.46 -20.7,-11.92 0.47,3.94 4.19,5.94 9.41,10.4 5.09,4.35 5.98,4.48 12.13,7.83z"/>
   <path class="fil2" d="M257.62 557.17c-1.37,-2.85 -2.53,-2.74 -4.48,-5.06l2.66 0.51c-1.66,-3.08 -0.43,-2.25 -3.1,-3.85 -2.56,-1.53 -6.32,-7.4 -12.22,-7.94 -0.13,4.46 3.4,5.82 4.98,7.5 3.07,3.25 2.11,1.75 4.48,3.82 2.57,2.26 1.74,2.73 7.68,5.02z"/>
   <path class="fil2" d="M242.75 567.47l-1.2 -3.87 2.47 0.65c-1.29,-4.36 -2.7,-3.28 -5.02,-7.12 -1.93,-3.2 -2.38,-5.3 -7.1,-6.1 0.33,7.1 4.4,7.94 7.42,12.91 1.37,2.25 1.07,1.94 3.43,3.53z"/>
   <path class="fil2" d="M511.55 521.13c0.86,5.87 8.89,5.74 13.26,5.36 0.19,-2.43 -2.07,-4.92 -3.83,-5.7 -2.73,-1.22 -6.54,-0.2 -9.43,0.34z"/>
   <path class="fil2" d="M434.63 293.32c0.2,2.33 1.16,2.4 1.64,5.2 0.19,1.08 0.12,2.01 0.54,3.06 0.88,2.17 0.74,1.22 1.61,1.81l-0.24 -6.33c2.4,-1.85 3.52,-2.09 6.51,-0.89 -1.46,-1.71 -6.97,-4.86 -9.82,-4.75l-0.24 1.9z"/>
   <path class="fil2" d="M392.58 315.57c3.17,-1.08 2.11,-1.3 4.24,-3.06 1.89,-1.56 3.07,-1.03 3.25,-4.16 -1.85,-1.76 -2.25,-1.45 -4.68,-1.22 -2.42,3.23 -2.6,3.9 -2.81,8.44z"/>
   <path class="fil2" d="M467.78 525.86c2.46,3.57 3.13,8 7.95,8.2 -0.04,-3.58 -1.47,-5.55 -2.85,-8.18l1.34 -2.41c-2.09,1.18 -1.99,0.68 -2.54,3.01l-3.9 -0.62z"/>
   <path class="fil2" d="M377.31 422.5c0.02,0.13 -0.53,0.85 -0.75,1.15 0.06,4.36 -0.43,8.38 -0.89,12.3 -1.24,10.47 4.67,13.78 13.71,23.67 5.62,-1.26 12.72,-14.17 13.11,-19.27 0.59,-7.77 -4.49,-59.91 -6.32,-71.11 -0.35,-2.16 -0.42,-4.75 -0.76,-7.1 -0.39,-2.7 -1.04,-3.85 -1.73,-6.07 -4.78,-0.17 -6.68,0.01 -7.99,3.68 -1.83,5.16 -3.38,20.1 -4.22,26.07 -0.58,4.12 -2.32,31.87 -4.37,34.72 -0.06,0.08 -0.26,0.46 -0.3,0.36 -0.05,-0.1 -0.22,0.25 -0.32,0.38l0.83 1.22z"/>
   <path class="fil2" d="M412.88 320.83c1.32,-0.54 1.12,0.11 2.23,-1.37 0.4,-0.53 0.63,-1.49 0.92,-2.21l4.57 -38.02c-2.14,0.6 -1.69,0.08 -3.29,1.43l-12.04 10.45c-0.78,1.68 4.65,26.46 6.26,28.53 0.35,0.45 0.77,0.9 0.85,0.79 0.08,-0.13 0.34,0.26 0.5,0.4z"/>
   <path class="fil2" d="M626.9 524c-1.33,-0.13 -11.87,-3.81 -10.36,-10.2 8.1,-0.57 15.13,-1.25 22.55,1.05 0.11,4.28 -1.73,4.73 -4.3,6.47 -2.22,1.5 -4.51,3.03 -7.89,2.68zm-12.02 -15.17c-3.75,-0.67 -2.43,-2.32 -3.22,-6.43 -1.18,-9.91 3.18,-9.43 4.4,-6.69l0.66 9.92c-0.44,3.33 -1.62,3.02 -1.84,3.2zm23.86 -0.09c-2.7,-3.24 -1.95,-11.3 -1,-13.52 0.56,-1.3 0.37,-0.61 1,-1.35 2.61,0.27 2.55,0.31 4.14,1.88 0.76,4.18 1.22,12.68 -4.14,12.99zm-36.56 -24.52c-4.18,0.98 -9.95,4.38 -12.79,6.56 -3.66,2.82 -7.24,6.98 -11.86,8.4l-1.61 1.62c-0.95,1.74 -1.13,1.69 -2.59,3.06 -1.17,1.1 -1.94,1.77 -2.82,2.93 0.17,4.94 4.76,12.18 6.91,24 0.99,5.5 5.23,22.37 1.89,26.53 -3.2,-1.16 -2.02,-2.71 -2.93,-11.23 -0.94,-8.77 -3.24,-30.32 -9.11,-34.81 -4.2,1.59 -5.78,8.55 -7.77,13.82 -2.15,5.68 -4,10.35 -5.73,16.28 -1.69,5.8 -3.26,11.93 -3.87,18.3 -0.48,4.99 1.37,17.12 -3.32,19.2 -2.33,-9.85 1.47,-20.26 1.16,-30.31 -1.92,0.79 -3.19,1.97 -5.21,2.94 -8.58,4.12 -8.34,2.01 -10.69,7.17l-8.8 17.33c-1.12,2.11 -2.05,3.72 -2.88,6.03l-2 4.51c-0.07,0.1 -0.17,0.25 -0.25,0.35l-0.85 1.03c-3.23,6.41 -10.23,28.29 -11.03,36.03l79.54 0c2.36,-10.99 15.83,-28.32 27.93,-31.8 8.94,-2.57 17.15,0.74 23.06,4.85 6.76,4.7 12.23,13.08 15.28,14.44 1.15,-2.79 2.64,-6.02 3.73,-9.3 1.1,-3.32 2.14,-7.04 3.49,-10.19 1.38,-3.21 2.69,-5.93 4.23,-8.84 1.76,-3.32 2.23,-6.51 6.1,-7.04 -0.43,7.65 -15.02,28.68 -16.45,47.88l15.49 0c1.67,-4.05 9.81,-11.69 12.73,-14.64 3.52,-3.55 6.5,-5.96 9.8,-10.41 1.14,-1.54 1.58,-2.62 2.74,-4.39l1.51 0.52 0 -78.01c-2.35,-0.61 -3.01,-2.29 -4.68,-4.28 -1.28,-1.53 -2.65,-2.98 -3.82,-4.52l-8.37 -8.87c-3,-2.86 -5.63,-5.45 -9.27,-7.97 -2.81,-1.94 -6.76,-4.77 -10.19,-6.45 -7.8,-3.84 -17.92,-6.24 -27.84,-5.9 -18.94,0.64 -20.89,4.48 -28.86,5.18z"/>
   <path class="fil2" d="M438.42 303.39l2.76 10.99c3.78,3.09 5.27,16.75 6.37,22.42 0.72,3.72 1.17,8.2 2.96,11.19 3.61,6 2.24,5.99 6.02,8.13 0.84,7.55 -3.46,3.83 -3.83,9.53l-2.71 3.32c4.76,2.85 8.85,1.18 14.61,2.8 1.48,0.42 2.73,1.25 3.63,1.47 1.71,-6.08 0.22,-11.35 3.5,-13.47 0.74,0.86 0.51,-0.26 0.92,1.45 0.61,2.54 -2.54,23.42 0.26,27.89 2.52,-0.67 1.45,-2.53 2.91,-8.76 2.83,-12.12 13.12,-43.3 18.38,-54.23 1.55,-3.23 3.91,-3.96 6.59,-5.88l-0.42 -1.49c-5.73,-4.15 -19.95,-8.32 -27.66,-11.35 -6.68,-2.62 -21.97,-10.35 -28.02,-11.23 -2.99,-1.2 -4.11,-0.96 -6.51,0.89l0.24 6.33z"/>
   <path class="fil2" d="M527.4 556.32c4.94,-9.31 18.87,-6.82 23,-16.56 5.14,-12.14 3.66,-12.29 11.39,-27.95 -2.67,-0.95 -2.19,-0.23 -4.81,0.02 -9.73,-0.02 -24.58,5.27 -33.65,7.45 1.18,2.32 2.27,2.08 4.13,3.77 0.76,0.7 0.89,1.05 1.75,1.79 1.98,1.71 1,-0.03 1.99,2.33 -9.21,3.2 -19.75,1.39 -27.47,3.98 0.22,5.9 8.64,8.5 13.18,11.23 -0.68,0.65 0.33,0.38 -1.62,1.12l-14.09 3.19c1.2,4.48 6.09,8.02 9.92,9.91 5.94,2.94 10.24,0.11 16.28,-0.28z"/>
   <path class="fil2" d="M589.53 623.96l60.54 0c0.48,-8.72 -2.77,-12.8 -10.01,-19.75 -4.42,-4.24 -11.08,-9.8 -20.34,-9.81 -16.4,-0.01 -29.06,18.48 -30.19,29.56z"/>
   <path class="fil2" d="M610.61 451.03c-2.73,-0.34 -6.28,0.87 -8.48,1.96 -2.96,1.47 -3.56,2.63 -3.54,6.92 0.03,5.88 1.2,12.94 2,18.67l1.35 0.89c0.97,0.65 -0.19,-0.04 1.14,0.79 0.43,0.1 17.78,-3.06 19.49,-4.3l-2.46 -6.09c-3.48,-1.96 -4.24,0.57 -3.87,-8.89 1.6,-0.56 3.65,-0.71 4.95,-2 2.42,-2.4 -0.35,-5.24 9.76,-4.31 2.11,4.61 1.82,3.02 6.7,5.4l0.56 8.16c-2.2,0.6 -3.91,0.77 -4.63,2.27l-0.3 4.86c3.65,1.37 9,1.09 13.03,1.91 4.68,0.96 8.94,0.67 11.31,3.35l1.91 -0.03c1.2,-3.24 0.9,-7.15 0.32,-10.58 -2.77,-1.62 -2.44,-2.7 -1.73,-6.15 0.5,-2.44 0.99,-4.12 1.11,-6.68 -3.09,-2.39 -4.07,-3.2 -8.85,-4.65 -11.22,-3.39 -26.25,-1.55 -37.02,-2.11l-2.75 0.61z"/>
   <path class="fil2" d="M139.97 457.85c-0.13,7.19 1.99,19.31 3.76,25.71 4.33,0.22 6.27,-1.12 10.15,-2.13 3.74,-0.96 7.55,-1.39 11.54,-1.61 -0.08,-1.76 -1.28,-3.21 -2.37,-4.84 -1.47,-2.21 -3.01,-2.06 -5.72,-2.59l-0.17 -9.51 6.64 -1.14c0.27,-2.61 0.18,-3.32 1.54,-5.06l6.2 -0.22c0.6,1 1.71,3.64 3.11,4.54 5.76,3.69 4.74,-0.98 5.2,10.83l-6.01 1.68c-1.19,8.77 -1.73,4.62 11.27,7.91 3.9,0.98 7.85,2.97 11.91,2.8 1.45,-6.06 2.81,-15.93 2.29,-22.54 -0.23,-2.88 -2.58,-3.66 -6.99,-5.3 -18.89,-7.01 -35.12,-4.86 -52.35,1.47z"/>
   <path class="fil2" d="M672.22 623.96l22.99 0 0 -23.2c-4.75,1.96 -9.09,8.63 -11.83,11.38 -1.13,1.12 -2.04,1.67 -3.1,2.82l-8.06 9z"/>
   <path class="fil2" d="M390.31 314.76c1.81,-1.46 1.48,-4.67 2.35,-7.55l-2.92 -0.19c-0.06,2.85 -0.33,5.43 0.57,7.74z"/>
   <path class="fil2" d="M354.82 235.53l4.06 1.12c-0.25,-5.81 -3.22,-12 7.07,-9.59 3.21,0.75 7.61,4.75 12.75,2.85 4.57,-1.69 0.3,4.23 3.15,-2.46 -5.02,-2.24 -6.86,-2.53 -12.71,-4.1 -10.33,-2.79 -5.56,-0.38 -11.29,2.45 0.06,-4.82 1.12,-8.06 2.62,-11.68 2.7,-6.5 1.67,-5.01 8.8,-7.31l4.12 6.11c4.45,-2.66 0.97,-3.31 7.65,-0.46 4.29,1.83 4.52,3.34 9.92,2.51 7.86,-1.2 14.75,-7.13 17.83,-7.87 2.63,2.04 8.67,9.4 10.21,12.67 2.87,6.13 -0.04,31.07 -1.5,37.66 -2.16,9.77 -3.9,8.62 -6.78,15.5l3.01 2.44c1.81,-5.13 3.86,-4.44 4.07,-5.21 0.1,-0.39 0.52,-0.31 0.74,-0.52 -2.87,-5.21 3.19,-11.78 5.45,-14.48 4.85,-5.79 4.81,-9.26 3.4,-18.48 2.99,-6.46 -0.9,-0.45 1.48,-6.62 1.88,-4.89 0.44,-2.65 4.33,-4.41 -1.14,-1.85 -0.4,-2.4 -1.47,-3.75 -2.54,-0.81 -2.06,-0.08 -4.42,-2.65l-0.82 -2.76c-0.3,-1.01 -1.7,-3.55 -2,-4.29 -2.05,-5.07 0.28,-4.33 -4.14,-13.48l-5.53 -8.53c-2.93,-3.67 -0.16,-1.76 -4.1,-3.6 -2.32,-1.08 -3.62,-0.72 -5.76,-1.73 -3.37,-1.6 -3.29,-5.12 -18.91,-3.31l-10.91 2.6c-4.8,1 -15.49,10.51 -17.65,14.61 -0.07,0.14 -0.24,0.46 -0.31,0.6l-2.64 5.57c-0.04,0.09 -0.15,0.4 -0.19,0.49l-3.23 7.1c-3.54,9.64 3.65,19.07 4.05,20.37 0.06,0.18 -0.27,2.05 -0.35,2.64z"/>
   <path class="fil2" d="M226.47 623.96l5.42 0c2.31,-2.6 5.51,-2.86 7.24,-6.54 -2.37,-2.07 -4.54,0.79 -6.62,2.12 -2.56,1.63 -4.23,2.2 -6.04,4.42z"/>
   <path class="fil2" d="M129.68 623.96l59.23 0c1.76,-9.6 3.9,-5.89 -2.29,-15.07 -1.69,-2.51 -2.18,-2.01 -3.75,-3.95 -4.66,-5.75 -13.42,-8.86 -20.79,-9.05 -4.13,-0.11 -8.3,0.83 -11.67,2.82 -5.69,3.37 -5.17,3.39 -8.5,6.87 -1.18,1.23 -2.69,1.93 -3.74,3.39 -1.1,1.52 -2.17,2.88 -3.23,4.47 -2.03,3.04 -3.96,6.22 -5.26,10.52z"/>
   <path class="fil1" d="M154.05 509c-3.75,-0.66 -2.42,-2.31 -3.21,-6.42 -1.18,-9.91 3.18,-9.43 4.4,-6.7l0.65 9.92c-0.43,3.34 -1.61,3.02 -1.84,3.2zm23.87 -0.08c-2.7,-3.25 -1.95,-11.3 -1,-13.53 0.56,-1.3 0.37,-0.6 1,-1.34 2.61,0.27 2.54,0.3 4.13,1.88 0.76,4.17 1.22,12.67 -4.13,12.99z"/>
  </g>
 </g>
</svg>
