<?xml version="1.0" encoding="UTF-8"?>
<!DOCTYPE svg PUBLIC "-//W3C//DTD SVG 1.1//EN" "http://www.w3.org/Graphics/SVG/1.1/DTD/svg11.dtd">
<!-- Creator: CorelDRAW 2017 -->
<svg xmlns="http://www.w3.org/2000/svg" xml:space="preserve" width="7.6198mm" height="7.6198mm" version="1.1" style="shape-rendering:geometricPrecision; text-rendering:geometricPrecision; image-rendering:optimizeQuality; fill-rule:evenodd; clip-rule:evenodd"
viewBox="0 0 761.98 761.98"
 xmlns:xlink="http://www.w3.org/1999/xlink">
 <defs>
  <style type="text/css">
   <![CDATA[
    .fil0 {fill:none}
    .fil2 {fill:#FEFEFE}
    .fil1 {fill:#BB9E65}
   ]]>
  </style>
 </defs>
 <g id="Capa_x0020_1">
  <metadata id="CorelCorpID_0Corel-Layer"/>
  <rect class="fil0" x="-0" y="-0" width="761.99" height="761.99"/>
  <rect class="fil0" x="-0" y="-0" width="761.99" height="761.99"/>
  <path class="fil1" d="M48.56 719.65l664.86 0c3.43,0 6.23,-2.8 6.23,-6.23l0 -436.92c0,-128.8 -105.37,-234.17 -234.17,-234.17l-436.92 0c-3.43,0 -6.23,2.8 -6.23,6.23l0 664.86c0,3.43 2.8,6.23 6.23,6.23z"/>
  <g id="_1344122257024">
   <path class="fil2" d="M388.75 406.59c0.82,-0.5 1.98,-2.33 2.37,-1.66 0.39,0.65 1.8,-1.25 2.32,-1.66 15.99,-12.49 18.32,-18.88 45.26,-19.79 -14.44,15.11 -27.17,27.63 -11.8,57.54 13.48,26.22 10.42,40.43 -16.55,50.9 -43.27,16.8 -118.82,9.44 -124.22,-37.03 8.77,-20.22 35.05,-33.68 -0.67,-54.58 26.6,-1.54 34.7,6.09 40.72,26.68 34.19,-33.6 -10.72,-40.8 -8.49,-64 1.67,-17.51 33.91,-37.89 57.62,-38.6 -38.03,60.56 8.4,18.31 13.44,82.2zm-111.26 -87.08c-37.76,-17.19 -43.96,-59.76 -23.77,-102.01 -20.88,9.49 -49.22,45.97 -52.27,82.09 -4.38,51.99 23.22,71.48 37.66,102.54 -28.15,-6.25 -37.9,-20.23 -58.18,-31.05 14.27,82.57 100.67,142.82 202.57,133.91 89.83,-7.85 163.42,-84.44 175.82,-163.07 -19.61,9.06 -39.38,37.81 -91.33,38.29 5.21,-7.29 -2.12,0.25 7.34,-8.13 28.47,-25.2 83.44,-57.86 46.55,-124.92 -15.94,17.02 -20.42,50.16 -93.43,53.74 3.39,-46.45 3.88,-83.33 -12.91,-122.52 -12.1,-28.24 -38.89,-58.99 -72.05,-66.81 26.47,55.16 29.88,49.47 -30.55,97.83 -50.73,40.59 -47.36,68.22 -35.45,110.11z"/>
   <g>
    <polygon class="fil2" points="120.33,529.54 200.88,529.88 258.26,601.47 373.56,601.12 374.94,652.29 224.47,651.33 "/>
    <rect class="fil2" x="234.98" y="536.95" width="273.72" height="15.65"/>
    <polygon class="fil2" points="625.08,529.67 544.53,530.02 487.15,601.6 371.84,601.26 370.46,652.43 520.94,651.46 "/>
   </g>
  </g>
 </g>
</svg>
