<?xml version="1.0" encoding="UTF-8"?>
<!DOCTYPE svg PUBLIC "-//W3C//DTD SVG 1.1//EN" "http://www.w3.org/Graphics/SVG/1.1/DTD/svg11.dtd">
<!-- Creator: CorelDRAW 2017 -->
<svg xmlns="http://www.w3.org/2000/svg" xml:space="preserve" width="7.6198mm" height="7.6198mm" version="1.1" style="shape-rendering:geometricPrecision; text-rendering:geometricPrecision; image-rendering:optimizeQuality; fill-rule:evenodd; clip-rule:evenodd"
viewBox="0 0 761.98 761.98"
 xmlns:xlink="http://www.w3.org/1999/xlink">
 <defs>
  <style type="text/css">
   <![CDATA[
    .fil0 {fill:none}
    .fil6 {fill:#FEFEFE}
    .fil1 {fill:#BB9E65}
    .fil5 {fill:#FCFDFD}
    .fil4 {fill:#FEFEFE}
    .fil2 {fill:#FEFEFE}
    .fil3 {fill:white}
   ]]>
  </style>
 </defs>
 <g id="Capa_x0020_1">
  <metadata id="CorelCorpID_0Corel-Layer"/>
  <rect class="fil0" x="-0" y="-0" width="761.99" height="761.99"/>
  <path class="fil1" d="M48.55 719.66l664.88 0c3.42,0 6.23,-2.81 6.23,-6.23l0 -436.94c0,-128.79 -105.38,-234.17 -234.17,-234.17l-436.94 0c-3.42,0 -6.23,2.81 -6.23,6.23l0 664.88c0,3.42 2.81,6.23 6.23,6.23z"/>
  <g id="_2351002387984">
   <path class="fil2" d="M278.24 120.62c-2.97,-0.62 -3.84,-1.24 -5.61,0.75 -2.01,8.09 -3.56,4.19 -1.62,14.11 -4.03,-0.69 -5.07,-2.66 -6.95,-5.3l-21.46 -19.64c-10.36,-8.45 -5.49,-17.92 -6.94,-33.43 -2.5,-0.91 -5.24,-3.24 -9.06,-2.72 -2.36,0.32 -5.5,2.23 -8.4,3.01 -0.35,8.5 5.6,13.48 8.84,18.54 1.85,2.88 3.34,6.35 2.86,10.73 -0.5,4.54 -2.88,4.85 -4.01,10.01 -0.25,4.85 1.51,5.63 4.89,7.72 2.56,1.58 4.66,2.7 7.3,4.34 10.08,6.27 6.42,5.13 13.24,10.06 4.4,3.18 15.1,13.04 16.5,19.16 0.34,1.47 0.77,3.69 0.96,5.24l-0.66 4.61c1.76,8.33 6.85,14.69 1.31,23.62 -3.91,6.31 -13.01,9.93 -22.46,6.55 -18.92,-6.76 -23.39,-13.68 -30.03,-32.99 -13.32,-38.71 23.73,-49.88 -9.26,-85.99 -0.89,-0.97 -2.57,-2.9 -3.36,-4.2 -1.01,-1.67 -1.31,-3.95 -2.44,-5.85 -10.16,0.76 -12.97,8.11 -7.8,16.8 4.12,6.93 11.49,11.03 11.06,18.82 -0.19,3.54 -2.13,7.52 -2.79,11.45l-3.83 26.32c0.37,5.29 8.13,5.01 5.2,8.13 -5.21,4.07 -18.89,-11.67 -25.82,-12.94 -3.65,5.93 -6.57,10.2 -0.58,15 4.14,3.33 9.89,4.73 14.67,7.93 17.11,11.45 13.51,31.02 27.68,40.86 16.08,11.16 18.58,10.08 33.58,10.54 8.51,0.27 10.23,5.22 14.39,8.54 2.61,-0.92 7.75,-4.4 9.22,-6.48 2.5,-3.51 -1.67,-6.37 1.64,-13.42 12.39,-26.33 3.58,-33.5 -1,-50.87 -4.66,-17.67 15.65,-20.22 0.74,-29.01z"/>
   <path class="fil2" d="M378.08 181.06c1.35,3.15 4,7.22 3.28,11.32 -1.66,2.41 -5.76,6.01 -10.19,4.06 -5.24,-2.32 -3.75,-5.3 -6.17,-9.71 -2.79,16.46 13.81,18.48 19.13,13.23 5.03,-4.97 5.66,-23.21 -13.33,-20.17l7.28 1.27z"/>
   <path class="fil3" d="M486.17 424.85c4.6,1.15 8.71,5.72 10.3,10.08 0.99,2.69 1.49,3.69 -0.96,4.74 -3.42,1.46 -15.66,-2.11 -9.34,-14.82zm-6.09 13.65c-10.86,0.07 -10.84,1.47 -13.9,-2.14 -2.74,-3.24 -4.51,-4.12 -7.19,-7.89 -17.66,-24.84 2.76,-28.97 15.48,-13.41 5.61,6.87 6.64,12.34 5.61,23.44zm-181.09 -156.35c1.02,-2.7 3.26,-3.75 6.15,-5.59 6.26,-3.99 17.79,-8.5 25.31,-7.32 2.23,7.53 -1.64,13.76 -5.61,17.45 -6.02,5.58 -10.93,4.45 -20.29,4.64 0.56,-4.24 1.47,-3.98 2.83,-7.22l-8.39 -1.96zm0.86 -10.09c1.22,-17.08 18.81,-15.95 21.28,-11.16 -3.44,3.28 -8.67,-0.07 -13.38,3.19 -3.71,2.58 -1.97,6.27 -7.9,7.97zm84.17 371.14l0 1.46c5.68,5.06 -2.86,13.24 -1.56,17.99 3.65,2.83 7.62,1.01 11.16,3.91 1.9,1.57 5.5,6.64 7.66,7.54 2.47,-2.55 3.03,-5.44 5.51,-8.72 2.46,-3.26 5.4,-3.75 6.91,-8.17 2.52,-7.4 5.51,-47.18 4.19,-54.8 -1.2,-6.95 -4.18,-4.46 -5.17,-24.89 -1.25,-25.86 11.22,-50.29 4.02,-81.38 -1.55,-6.71 -7.09,-21.44 0.28,-23.59 0.91,3.87 0.54,6.82 0.9,10.91 0.29,3.24 1.47,6.86 2.2,9.94 1.65,6.88 1.91,13.71 3.3,20.46 2.16,1.2 4.61,0.15 7.13,-0.81 7.32,-2.77 12.21,-5.66 18.92,-8.51 4.96,-2.11 24.8,-8.4 29.88,-5.98 4.02,1.91 12.13,15.75 15.23,21.78 6.24,12.16 16.55,42.98 23.04,50.29 18.32,20.65 24.86,11.76 24.05,50.04 -0.12,5.77 0.16,12.02 -1.26,17.33 -1.26,4.67 -4.49,9 -4.93,13.5 2.6,1.73 6.86,2.38 10.09,4.22 3.75,2.13 4.69,5.01 8.33,6.03 7.35,-6.82 -1.04,-15.93 12.19,-23.86 0.01,-9.27 0.26,-18.3 0.91,-27.49 0.49,-7.11 2.8,-19.69 -0.43,-25.71 -1.36,-2.53 -4.38,-5.8 -6.25,-8.15 -20.96,-26.37 -9.74,-48.93 -2.42,-79.34 4.38,-18.23 1.65,-32.68 -4.62,-48.59 -5.51,-13.97 -12.28,-28.73 -21.15,-36.42 -11.42,-9.91 -20.32,-17.64 -36,-21.56 -26.27,-6.56 -29.23,7.22 -48.41,6.36 -9.23,-0.42 -17.78,-0.87 -26.53,-2.69 -6.26,-1.3 -20.25,-2.88 -26.6,-1.54 1.38,2.79 3.08,3.71 4.07,6.72 -8.91,-0.97 -11.32,-5.41 -14.96,-11.48 -17.77,-29.57 -23.03,-80.42 -30.76,-115.15 -1.79,-8.01 -7.02,-4.93 -12.8,-13.97 -2.04,-3.19 -3.17,-5.88 -2.37,-10.7 8.64,-2.34 3.23,11.64 26.69,19.94 15.88,5.61 23.89,6.93 37.4,-1.73 -0.55,-6.34 -9.49,-8.72 -20.23,-15.43 -42.99,-26.86 -27,-21.3 -45.17,-12.28 -5.19,2.57 -11.13,0.91 -13.24,-2.62 -2.27,-3.78 -1.65,-11.11 -2.54,-16.02 -3,0.29 -3.86,2.94 -6.65,1.87l-0.58 -4.75c-21.69,-4.6 -29.23,6.7 -33.54,8.91 -5.02,2.59 -4.45,-4.62 -10.8,0.05 -6.21,4.57 -4.41,12.57 -9.26,20.21 -2.86,4.5 -10.12,13.4 -9.42,20.06 9.36,7.55 13.55,5.06 12.49,12.38 -1.32,9.13 -5.75,11.52 -10.2,15.94 -5.09,5.05 -15.18,15.28 -13.23,24.45 0.57,2.69 1.57,8.35 2.73,10.36 7.42,-3.09 -2.31,-24.47 23.33,-22.28 10.53,0.9 11.47,11.35 23.25,22.87 7.53,7.36 19.52,14 31.41,4.71 13.64,-10.66 7.38,-17.49 9.4,-36.57 2.85,-0.9 6.38,-0.35 9.43,-0.13 -1.46,3.69 -1.31,3.62 -3.54,6.77 -7.64,10.81 4.62,14.7 -3.62,25.84 -6.32,8.55 -14.82,12.57 -23.82,19.35 -15.49,11.65 -4.16,25.42 -8.66,54.36 -0.95,6.04 -2.26,13.3 -0.86,19.32 5.79,-2.67 12.97,-10.52 21.18,0.83 4.76,6.58 7.99,13.84 11.4,22.17 3.16,7.74 6.11,16.68 9.85,23.72 2.33,4.38 3.4,6.61 6.17,10.28 3.02,3.99 5.45,4.12 7,10.37 -21.89,-6.64 -27.49,-66.49 -44.82,-67.97 -14.63,-1.25 -15.21,28.46 -12.15,41.1 2.46,10.16 6.11,21.54 12.51,29.29 2.05,2.47 5.11,4.76 5.86,8.84 8,-0.48 7.13,4.29 12.05,3.63l0.13 -5.48c3.59,1.36 5.78,4.47 8.07,6.66 2.66,2.54 4.48,3.91 8.26,6.12 5.71,3.32 12.15,8.57 19.74,9.67 -0.07,-16.92 -6.79,-18.38 -9.02,-30.75 3.46,0.91 4.76,2.59 6.49,5.9 4.98,9.51 27.66,96.85 28.3,104.01 0.35,3.88 0.43,36.06 -2.1,39.83 -1.5,2.24 -1.93,2.11 -3.44,1.22z"/>
   <path class="fil3" d="M423.24 79.98c-0.99,8.7 -2.19,17.63 -5.44,24.83 -7.81,17.33 -19.23,6.15 -39.66,21.32 -3.67,2.72 -13.12,12.05 -18.02,12.82 -8.88,-9.29 4.04,-21.13 -14.29,-22.52 -3.53,8.1 -5.38,11.91 -3.02,22.01 1.59,6.77 5.13,15.51 3.97,22.82 -1.21,7.61 -4.63,13.41 -5.67,21.77 -0.49,3.95 -0.73,8.74 -0.63,12.8 0.31,14.1 5.99,9.76 -6.26,18.61 -2.15,1.55 -6.51,4.54 -7.66,6.04 -4.96,6.45 -2.69,17.35 7.65,12.46 3.85,-1.82 9.07,-7.67 17.19,-9.58 9.66,-2.27 13.31,8.18 48.09,2.83 11.1,-1.71 12.84,-1.27 22.92,1.87 7.01,2.18 15.56,6.86 19.88,-0.09 5.68,-9.15 -6.09,-8.8 -9.46,-14.35 1.05,-4.2 3.08,-5.75 5.47,-8.12 15.1,-15.01 20.98,-25.61 21.54,-49.44 0.58,-24.85 -5.11,-24.22 7.97,-33.44 6.88,-4.85 16.25,-6.04 13.91,-13.45 -3.76,-11.91 -13.97,1.55 -25.16,7 -5.86,2.86 -11.81,8.22 -16.1,11.81 -0.36,10.44 9.35,27.06 1.8,45.83 -10.62,26.43 -34.27,46.01 -62.03,38.85 -15.33,-3.96 -23.42,-11.3 -22.29,-29.9 0.89,-14.61 8.59,-28.7 15.62,-36.55 10.67,-11.92 31.47,-13.69 48.1,-16.97 11.96,-2.37 9.86,-13.62 12.41,-26.7 0.71,-3.64 1.58,-6.83 2.52,-10.46 0.76,-2.91 3.37,-8 3.44,-9.44 0.16,-3.2 -3.4,-6.13 -6.65,-6.29 -3.47,-0.17 -4.96,2.73 -10.14,3.63z"/>
   <path class="fil3" d="M488.82 384.25c7.83,5.77 40.97,1.8 64.95,57.07 3.64,8.38 9.05,28.42 10.48,30.61 16.03,-0.36 38.46,-53.63 10.7,-86.72 -8.58,-10.23 -23.98,-16.87 -42.57,-19.1 -14.81,-1.78 -39.78,8.47 -43.56,18.14z"/>
   <path class="fil3" d="M351.32 523.92c-8.84,-4 -22.05,-9.15 -30.38,-13.45 -5.2,-2.68 -4.65,-5.54 -7.4,-6.97 -2.55,2.71 1.49,11.13 3.62,17.59 6.23,18.94 16.46,31.93 21.06,49.5 5.25,20.02 7.64,41.3 0.3,61.35 -2.34,6.39 -5.67,10.39 -7.62,15.45 1.62,1.91 7.12,3.75 9.89,6.31 2.46,2.27 4.72,5.58 7.74,7.89 14.86,-4.16 14.25,-29.86 16.28,-42.37 2.62,-16.07 6.2,-35.98 1.74,-51.61 -2.22,-7.74 -4.47,-15.31 -5.61,-23.82 -1.65,-12.33 0.92,-15.1 -9.62,-19.87z"/>
   <path class="fil3" d="M442.18 524.04c1.43,9.11 23.31,36.29 24.17,49.33 1.42,21.78 -17.07,46.41 -17.31,56.21 2.11,1.95 5.33,4.09 6.67,5.78 2.13,2.71 2.71,5.03 7.84,4.53 1.53,-3.07 1.62,-6.89 3.25,-9.8 2.32,-4.13 4.2,-2.85 8.24,-4.76 1.62,-3.95 2.25,-11.05 3.41,-15.83 2.38,-9.78 5.58,-19.21 10.63,-27.7 1.75,-2.95 6.18,-8.63 4.79,-12.7 -1.09,-3.22 -11.14,-10.87 -8.82,-29.17 2.8,-22.14 4.29,-11.94 -3.47,-30.35 -9.14,-0.22 -15.2,0.99 -22.58,4.43 -4.09,1.9 -14.22,7.58 -16.82,10.03z"/>
   <path class="fil3" d="M372.82 693.04c17.97,-3.71 13.14,-5.42 16.13,-10.63 0.01,0 12.94,-12.09 -4.74,-11.57 -4.27,6.93 -10.48,11.47 -11.39,22.2z"/>
   <path class="fil3" d="M526.26 674.86c15.84,-2.82 11.58,-4.12 14.22,-8.07 0,-0.01 11.4,-9.19 -4.18,-8.79 -3.77,5.26 -9.24,8.71 -10.04,16.86z"/>
   <path class="fil3" d="M321.7 672.56c9.29,0.69 16.19,-0.38 22.61,-4.42 -1.88,-6.61 -4.79,-12.49 -11.83,-13.2 -1.8,2.19 -9.97,14.21 -10.78,17.62z"/>
   <path class="fil3" d="M245.11 188.27c1.79,5.7 8.18,8.09 14.69,4.51 2.73,-1.5 3.86,-2.94 4.29,-6.62 0.41,-3.51 0.22,-7.04 -1.8,-9.3l-2.21 0.64 0.31 6.04c-2.42,-1.32 -4.38,-4.14 -5.67,-6.96 -10.27,0.47 -6.7,5.43 -5.49,10.49 -2.42,-0.34 -3.05,-0.76 -4.5,-1.65l0.38 2.85z"/>
   <path class="fil3" d="M436.85 650.82c5.26,3.66 16.57,-0.56 20.58,-3.43 -1.02,-4.25 -8.17,-15.31 -12.99,-10.16 -1.65,2.7 -0.33,4.71 -3.22,7.69 -1.8,1.85 -3.58,2.56 -4.37,5.9z"/>
   <path class="fil3" d="M318.88 272.95c-1.07,2.37 -1.64,6.09 -3.01,8.11 -1.82,2.69 -3.73,1.87 -5.47,5.58 8.78,0.91 16.95,-5.24 14.26,-13.54l-5.78 -0.15z"/>
   <path class="fil3" d="M540.98 677.32c2.88,-5.61 6.75,-8.18 9.29,-13.04 -1.61,-2.88 -2.6,-3.71 -6.03,-4.87 -2.39,2.11 -9.02,12.02 -9.9,16.58l6.64 1.33z"/>
   <path class="fil3" d="M372.75 183.44c-7.6,3.01 -4.68,11.78 3.12,11.02 3.71,-0.36 3.93,-3.6 2.98,-7.07 -0.79,-2.89 -2.91,-5.21 -6.1,-3.95z"/>
   <path class="fil4" d="M372.59 187.06l5.17 1.94c1.15,0.51 0.9,-1.44 0.9,1.65l0.9 1.79c0.91,0.99 0.89,-1.57 0.89,2.69 0.48,0.76 1.2,-0.17 0.88,3.5 -0.18,2.01 -0.53,2.31 -1.9,3.54 -1.98,1.79 -4.31,2.59 -7.05,1.21 -3.32,-0.75 -6.72,-4.17 -4.48,-6.43 0,-1.23 0.3,-1 -0.9,-0.7 -1.91,-1.42 -0.35,-0.51 -2.8,-0.96l-0.55 0.73 1.56 0 0 6.28 0.9 1.79c1.2,0 0.95,-0.29 0.73,0.9 4.41,5.59 16.62,7.78 19.62,-1.17 3.27,-9.75 -2.05,-16.08 -10.49,-17.48l-3.38 0.72z"/>
   <path class="fil5" d="M306.41 360.77c-3.11,-0.14 -1.42,0.42 -3.67,-4.2 -4.12,-8.47 -13.58,-1.77 -21.37,-1.07 -10.59,0.96 -17.5,-2.92 -23.4,-10.79 -1.63,-2.18 -3.07,-4.41 -4.57,-6.9 -0.63,-1.06 -7.72,-12.13 -8.21,-12.56l-0.85 1.6c-0.34,0.54 -0.73,0.95 -1.06,1.45 -3.57,-2.4 -1,-7.4 -0.41,-10.8 0.01,-2.5 1.11,-5.68 1.77,-8.02 0.74,-2.62 1.22,-5.38 1.89,-8.02 -0.93,0.52 -3.24,3.79 -3.87,5 -1.09,2.08 -1.38,4.25 -1.97,6.86 -0.57,2.49 -1.16,4.71 -1.84,6.99 -0.32,1.1 -0.53,2.06 -0.6,2.98l0 1.45c0.08,1 0.34,2.01 0.79,3.15 1.34,3.33 5.92,10.28 8.03,14.19l2.47 4.14c0.31,0.51 0.52,0.86 0.86,1.36 0.33,0.5 0.51,0.85 0.85,1.36l4.9 6.27c1.05,1.19 3.69,3.26 4.92,4.06 6.17,3.96 14.75,4.34 21.8,1.99 1.16,-0.38 2.22,-0.74 3.35,-1.05 1.07,-0.3 2.64,-0.67 3.8,-0.76 3.72,-0.29 5.74,0.49 7.62,3.4 0.64,1 1.85,3.83 1.94,4.83l0.05 0 0.05 0 3.45 0c0.6,-0.05 0.6,-0.21 0.93,-0.67 0.28,-0.39 0.45,-0.63 0.75,-1.01 0.29,-0.38 0.53,-0.55 0.68,-0.94 0.12,-0.32 0.2,-2.23 0.92,-4.29z"/>
   <path class="fil6" d="M267.86 337.82c-5.01,0 -11.09,-0.66 -11.09,-7.07 0,-2.06 1.77,-9.34 2.53,-10.58 1.58,-2.57 6.19,-3.26 9.57,-3.54 6.02,4.03 6.07,9.08 12.09,13.12 -2.95,4.41 -5.74,8.07 -13.1,8.07z"/>
  </g>
 </g>
</svg>
