<?xml version="1.0" encoding="UTF-8"?>
<!DOCTYPE svg PUBLIC "-//W3C//DTD SVG 1.1//EN" "http://www.w3.org/Graphics/SVG/1.1/DTD/svg11.dtd">
<!-- Creator: CorelDRAW 2017 -->
<svg xmlns="http://www.w3.org/2000/svg" xml:space="preserve" width="7.6198mm" height="7.6198mm" version="1.1" style="shape-rendering:geometricPrecision; text-rendering:geometricPrecision; image-rendering:optimizeQuality; fill-rule:evenodd; clip-rule:evenodd"
viewBox="0 0 761.98 761.98"
 xmlns:xlink="http://www.w3.org/1999/xlink">
 <defs>
  <style type="text/css">
   <![CDATA[
    .fil0 {fill:none}
    .fil2 {fill:#108D66}
    .fil1 {fill:#BABAB4}
    .fil3 {fill:white}
   ]]>
  </style>
 </defs>
 <g id="Capa_x0020_1">
  <metadata id="CorelCorpID_0Corel-Layer"/>
  <rect class="fil0" x="-0" y="-0" width="761.99" height="761.99"/>
  <path class="fil1" d="M48.56 719.65l664.87 0c3.43,0 6.23,-2.8 6.23,-6.23l0 -332.5 -677.33 -0.29 0 332.79c0,3.4 2.8,6.23 6.23,6.23z"/>
  <path class="fil2" d="M719.66 380.92l0 -104.43c0,-128.8 -105.39,-234.17 -234.17,-234.17l-436.93 0c-3.41,0 -6.23,2.82 -6.23,6.23l0 332.08 677.33 0.29z"/>
  <g id="_1819034588112">
   <path class="fil3" d="M294.91 410.27c4.03,-8.73 24.03,-5.36 32.86,-3.17 9.08,2.25 24.66,6.68 24.73,15.71 -11.49,8.18 -50.09,-6.02 -57.59,-12.54zm82.03 -61.06c1.13,8.62 1.32,15.54 6.45,21.04 4.07,4.37 12.34,7.54 19.91,4.31 6.33,-2.7 7.71,-10.09 11.48,-15.92 5.54,-8.57 12.64,-0.63 9.59,7.99 -9.9,27.94 -60.76,27.1 -53.23,-17.48l5.8 0.06zm-130.03 -31.92c2.37,6.26 -1.01,15.05 4.38,22 4.37,5.64 13.8,5.66 18.21,0.31 5.66,-6.86 8.87,-29.63 13.42,-39.85 6.99,-15.69 34.09,-54.7 59.3,-41.95 11.45,5.79 17.56,16.9 18.99,34.16 1.28,15.42 -1.92,33.2 -6.52,46.53 -5.66,16.43 -17.74,39.45 -33.09,46.92 -15.61,7.59 -6.24,6 -7.96,14.01 -4.62,-3.55 0.1,-9.3 -10.2,-12.69 -6.28,-2.06 -11.48,-4.47 -14.67,-8.11 -9.55,-10.87 -7.97,-18.26 -14.3,-30.83 -5.06,1.96 -6.78,6.91 -14.23,7.18 -21.1,0.76 -25.02,-35.65 -13.33,-37.68zm152.73 -44.51c11.53,-3.62 31.75,15.17 35.63,20.54 6.29,8.71 12.58,35.62 1.31,43.22 -11.35,7.66 -25.35,-16.94 -29.32,-24.62 -3.22,-6.24 -6.37,-12.73 -9.18,-19.81 -2.73,-6.88 -7.27,-16.56 1.56,-19.33zm51.94 -39.5c0.23,-25.23 33.18,-24.78 -15.4,-43.52 -44.78,-17.27 -88.93,-13.71 -130.62,9.56 -12.55,7 -42.32,26.17 -46.25,35.43 7.01,4.21 50.26,0.14 19.8,21.99 -7.13,5.12 -31.65,22.8 -38.35,24.78 -2.85,-2.71 -5.13,-8.15 -7.91,-9.86 -5.79,12.54 -11.33,52.44 -9.12,65.39 1.26,7.44 7.66,8.35 9.05,16.2 -3.76,-2.52 -5.13,-7.83 -9.39,-9.62 -8.54,10.29 -11.41,27.09 -3.99,35.35 6.89,7.68 7.2,3.67 16.73,6.78 7.64,2.48 6.49,8.2 17.15,7.19 4.31,-15.48 -3.03,-21.9 -6.22,-27.99 7.91,0.92 8.69,11.21 8.67,19.45 -0.05,14.01 -2.03,13.55 8.01,20.01 11.24,7.23 25.41,12.64 39.59,17.63 45.3,15.96 85.05,22.38 131.87,6.36 3.08,-1.05 7.46,-3.15 10.34,-3.91 11.92,-3.11 18.2,19.94 39.39,-2.02 9.89,-10.24 12.42,-31.18 -0.57,-40.29 -5.57,-3.91 -15.29,-5.28 -22.31,-2.19 -7.07,3.12 -8.68,9.86 -12.85,16.12 -8.57,-1.01 -17.24,-8.73 -23.12,1.24 -5.37,9.11 0.83,17.54 5.74,22.23 -12.69,-0.82 -14.8,-31.81 5.6,-29.66 7.71,0.82 9.36,3.62 13.14,-1.81 6.08,-8.74 8.31,-13.35 22.96,-12.93 16.62,0.47 14.6,11.88 21.94,14.17 2.63,-1.91 8.98,-11 10.88,-13.68 2.89,-4.07 7.77,-10.62 7.96,-17.13 -5.29,-4.95 -11.98,-5.33 -17.49,-10.74 -14.24,-13.99 -21.38,-43.32 -18.81,-65.32 3.74,-31.9 22.95,-60.2 59.19,-54.16 29.38,4.89 56.67,29.41 69.12,45.3 14.85,18.97 11.44,31.84 21.26,35.97 15.45,6.5 34.08,-5.02 41.07,-12.27 22.5,-23.35 -3.67,-63.86 -16.84,-79.35 -10.5,-12.34 -8.82,-10.85 -20.74,-21.59 -2.77,-2.51 -4.56,-5.11 -7.29,-7.58 -9.28,-8.44 -20.11,-16.79 -33.23,-24.01 -53.07,-29.24 -104.06,4.71 -128.15,50.22 -2.97,5.61 -6.37,14.92 -10.81,18.26z"/>
   <path class="fil3" d="M260.65 545.05c5.44,2.73 20.21,23.28 17.34,34.44 -9.98,0.22 -18.16,-15.53 -18.76,-18.59 5.93,4.39 8.44,13.35 16.38,15.38 -1.08,-14.99 -12.33,-23.36 -14.96,-31.23zm-89.37 -46.78c6.87,3.67 19.4,26.18 18.35,40.04 -9.11,1.21 -17.03,-8.62 -18.56,-16.1 6.65,2.32 5.46,11.36 15.74,13.68 1.16,-13.39 -11.35,-27.19 -15.53,-37.62zm88.79 3.15l4.19 -0.25c-7.61,3.01 -9.9,-3.57 -13.88,-7.22 -3.82,-3.51 -8.83,-7.04 -11.06,-12.82l13.68 1.05 -1.72 11.75c5.13,-0.33 5.64,-1.96 10.36,-2.74l-1.57 10.23zm-13.6 -29.28c-2.15,3.05 -4.51,5.7 -7.43,7.48 -1.45,-2.28 -1.39,-6.53 -2.61,-9.38 -1.88,-4.41 -4.03,-3.69 -3.43,-8.1 2.57,0.72 11.89,7.73 13.47,10zm-12.71 -10.46c1.29,-3.27 9.15,-13.19 12.33,-15.01 -1.32,14.71 -0.71,14.19 -12.33,15.01zm-129.73 7.42c0.5,14.45 33.08,67.23 40.42,77.68 8.23,11.71 16.41,22.57 24.66,33.78l26.63 32.56c19.7,21.49 52.14,30.21 88.4,16.4 14.57,-5.55 28.99,-12.7 36.76,-22.44 11.59,-14.54 0.24,-30.86 2.78,-48.78 7.64,-0.49 11.14,6.39 18.36,2.26 7.85,-4.49 3.11,-8.62 13.75,-6.94 3.1,-24.83 5.27,-23.39 -4.39,-39.18 -8.57,-13.99 -6.81,-19.9 -26.92,-21.56 -17.61,-1.46 -19.28,-1.06 -21.32,9.58 -5.45,-6.27 2.76,-10.87 -16.71,-11.11 1.94,9.45 11.55,12.91 14.61,15.94 -10.31,4.39 -12.41,-11.95 -19.08,-15.73 -3.52,-1.99 -6.42,0.24 -9.14,1.44 4.86,-10.02 -9.01,-3.6 -15.25,-17.01 -6.66,-14.31 3.08,-15.65 -0.82,-28.74 13.93,4.77 18.46,-4.13 42.13,-8.28 0.17,-15.04 -27.59,-31.42 -42.61,-18.67 -14.4,12.23 -0.51,6.12 -23.6,11.77 -15.08,3.68 -11.67,6.77 -18.52,17.61 -8.23,13 -27.87,24.28 -50.46,19.43 -9.12,-1.96 -18.64,-8.73 -28.48,-3.8 -17.01,8.54 -14.23,2.25 -31.2,3.79z"/>
   <path class="fil3" d="M524.26 237.11c-65.31,9.68 -40.8,153.54 20.05,106.52 10.08,-7.79 13.52,-0.39 23.64,2.42 41.68,11.55 63.89,-24.84 36.47,-62.99 -10.53,-14.65 -48.45,-50.65 -80.16,-45.95z"/>
   <path class="fil3" d="M162.19 397.7c-4.79,4.65 -26.76,15.72 -34.92,8.33 -9.36,-8.49 9.98,-23.92 17.67,-25.71 -2.81,5.85 -19.18,12.03 -15.92,22.15 5.42,9.06 26.12,-3.79 33.17,-4.77zm9.68 -32.44c3.75,-3.99 26.85,-12.29 30.35,-4.37 3.63,8.22 -12.55,19.29 -17.87,21.67 3.45,-5.74 10.23,-7.53 13.57,-14.27 7.36,-14.86 -20.6,-3.38 -26.05,-3.03zm87.91 39.52c-5.8,-5.28 -13.9,-9.98 -21.4,-14.21 -9.01,-5.08 -11.67,1.36 -23.62,-11.6l-6.74 4.87c1.7,-2.97 4.61,-5.56 4.9,-10.47 0.35,-5.67 -1.36,-9.77 0.34,-15.5 1.2,-4.04 5.41,-9.3 1.3,-12.43 -2.84,-2.16 -11.39,-2.22 -15.48,-2.08 -18.49,0.68 -38.93,8.61 -52.03,16.48 -23.49,14.13 -57.12,40.69 -57.29,79.42 -0.11,24 18.39,30.5 39.16,20.77 15.56,-7.29 6.39,-5.47 23.52,1.54 21.77,8.91 46.5,-1.62 57.81,-20.55 1.85,-3.1 3.8,-9.4 5.81,-11.43 5.53,-5.55 42.57,-5.05 43.72,-24.81z"/>
   <path class="fil3" d="M260.07 115.98c-46.09,3.71 -85.17,38.26 -97.17,73.21 -13.67,39.84 11.41,64.3 17.32,55.73 4.56,-6.61 2.36,-28.15 34.2,-51.26 17.65,-12.81 40.56,-20.6 62.7,-5.56 16.64,11.3 8.69,18.41 24.64,9.78 9.99,-5.41 17.44,-9.62 29.53,-13.53 11.11,-3.6 20.85,-2.19 10.74,-22.72 -5.87,-11.93 -10.3,-16.39 -18.35,-24.76 -12.84,-13.35 -38.15,-22.94 -63.61,-20.89z"/>
   <path class="fil3" d="M353.5 312.07c1.41,-13.86 0.42,-30.2 -6.71,-39.53 -15.09,-19.77 -64.82,9.69 -65.73,61.41 -0.44,25.07 16.22,59.76 42.19,41.38 15.03,-10.63 27.57,-36.67 30.25,-63.26z"/>
   <path class="fil3" d="M239.97 186.8c-38.33,8.52 -64.36,56.99 -46.92,73.53 3.63,3.44 8.91,5.8 14.95,7.18 36.76,8.42 12.95,-13.49 33.29,-29.31l17.63 -14.81c1.98,-1.78 3.45,-3.67 5.55,-5.46 8.86,-7.6 23.25,-9.29 8.79,-21.9 -7.37,-6.43 -20.17,-12.14 -33.29,-9.23z"/>
   <path class="fil3" d="M343.64 437.42c2.71,10.77 11.76,10.62 22.95,11.49 1.08,11.31 3.09,17.68 13.95,19.68 11.21,2.06 22.13,0.8 26.92,-6.81 2.61,-4.15 2.6,-7.86 7.99,-8.32 5.49,-0.48 11.64,0.45 17.13,-0.36 8.46,-1.23 14.19,-11.61 11.49,-21.68l-1.24 -0.37c-4.16,-0.48 -24.2,7.59 -45.33,9.21 -20.8,1.58 -34.11,-0.85 -53.86,-2.84z"/>
   <path class="fil3" d="M342.88 492.43c1.79,5.76 9.73,12.79 13.04,18.57 3.61,6.28 5.93,17.53 9.7,22.62 3,-1.29 5.91,-8.86 13.64,-16.47 4.59,-4.54 14.34,-6.99 22,-9.01 -1.67,-3.55 -6.34,-8.67 -8.76,-11.6 -1.78,-2.18 -2.73,-3.55 -4.63,-5.67 -2.66,-2.95 -3.28,-2.59 -8.23,-2.06 -11.63,1.27 -25.74,1.36 -36.76,3.62z"/>
   <path class="fil3" d="M240.76 277.57c5.79,-1.3 30.35,-19.49 39.91,-25.54 18.93,-11.98 -20.02,-19.84 -36.57,-5.99 -8.37,7.01 -11.78,21.3 -3.34,31.53z"/>
   <path class="fil3" d="M345.85 420.16c-4.88,-7.41 -31.64,-15.97 -44.64,-11.26 -1.43,0.52 0.03,-0.11 -1.48,0.74l-0.87 0.68c8.47,6.8 41.56,14.58 46.99,9.84z"/>
   <path class="fil3" d="M505.74 571.52c25.36,-7.41 14.08,-50.37 -3.89,-51.85 1.48,8.24 6.05,14.66 7.23,23.39 1.59,11.78 -2.73,18.06 -3.34,28.46z"/>
   <path class="fil3" d="M498.47 512.63c9.83,-10.47 -4.98,-26.9 -18.37,-24.74 1.46,5.9 14.71,22.21 18.37,24.74z"/>
   <path class="fil3" d="M351.24 581.3c10.19,2.4 14.19,14.51 7.36,23.65 -6.68,8.94 -20.08,6.48 -20.35,-5.42 4.97,5.38 10.86,13.38 17.31,3.17 6.23,-9.86 0.81,-15.99 -4.32,-21.4zm13.56 -10.5c1.84,-4.36 6.64,-7.68 13.03,-7.65 0.86,5.45 -0.04,10.47 -2.11,15.02 -5.82,12.73 -12.79,7.82 -12.54,0.19 2.31,1.51 3.34,3.06 5.26,3.99 3.83,-3.02 5.71,-9.31 5.54,-15.47l-9.18 3.92zm28.67 -88.26c-0.25,3.4 -0.52,1.5 -1.98,4.29 13.51,15.85 6.88,18.33 28.36,22.46 6.51,1.25 7.38,2.41 11.81,4.88 -12.91,-0.83 -31.35,-9.14 -49.28,4.84 -6.73,5.24 -22.17,24.57 -21.91,39.34 3.83,0.81 5.73,0.6 6.3,3.93 -3.46,2.19 -3.48,-0.45 -8.21,0.29l-2.49 5.25c-4.59,0.73 -8.12,0.48 -10.49,-3.05l7.9 -0.71c0.93,-4.32 -0.36,-7.03 -1.33,-10.32 -5.46,2.47 -2.31,7.36 -9.21,9.69 -5.42,1.84 -8.81,3.18 -11.65,7.16 -5.61,7.86 -4.44,22.07 -1.2,31.55 7.2,21.07 37.29,15.7 58,12.6 16.96,-2.55 46.27,-8.25 59.29,-15.89 7.66,-4.5 18.15,-6.53 26.61,-11 32.39,-17.12 40.23,-40.15 20.28,-72.18 -7.4,-11.86 -16.48,-21.03 -25.86,-30.57 -4.95,-5.03 -24.29,-24.13 -29.65,-26.79 -5.24,-2.59 -10.14,-1.31 -16.22,-1.17 -9.89,0.24 -7.38,0.45 -11.63,7.33 -7.21,11.66 -35.87,10.62 -42.12,2.66 -2.58,-3.28 -3.8,-9.59 -6.54,-13.18 -4.62,-3.59 -19.77,4.68 -20.6,-17.02 -21.3,-2.51 -43.62,-0.35 -62.8,5.25 -10.19,2.98 -17.53,5.2 -20.87,14.41 -11.58,32.02 51.52,31.36 70.47,31.08 21.67,-0.33 44.37,-5.38 65.02,-5.13z"/>
   <path class="fil3" d="M400.02 275.37c-3.04,1.38 -2.71,3.24 -0.73,10.06 3.95,13.57 25.81,60.5 37.16,47.07 8.71,-10.32 0.96,-31.48 -5.09,-39.17 -2.42,-3.09 -23.15,-21.67 -31.34,-17.96z"/>
  </g>
 </g>
</svg>
