<?xml version="1.0" encoding="UTF-8"?>
<!DOCTYPE svg PUBLIC "-//W3C//DTD SVG 1.1//EN" "http://www.w3.org/Graphics/SVG/1.1/DTD/svg11.dtd">
<!-- Creator: CorelDRAW 2017 -->
<svg xmlns="http://www.w3.org/2000/svg" xml:space="preserve" width="7.6198mm" height="7.6198mm" version="1.1" style="shape-rendering:geometricPrecision; text-rendering:geometricPrecision; image-rendering:optimizeQuality; fill-rule:evenodd; clip-rule:evenodd"
viewBox="0 0 761.98 761.98"
 xmlns:xlink="http://www.w3.org/1999/xlink">
 <defs>
  <style type="text/css">
   <![CDATA[
    .fil0 {fill:none}
    .fil2 {fill:#FEFEFE}
    .fil1 {fill:#CC1235}
   ]]>
  </style>
 </defs>
 <g id="Capa_x0020_1">
  <metadata id="CorelCorpID_0Corel-Layer"/>
  <rect class="fil0" x="-0" y="-0" width="761.99" height="761.99"/>
  <rect class="fil0" x="-0" y="-0" width="761.99" height="761.99"/>
  <path class="fil1" d="M48.56 719.65l664.86 0c3.43,0 6.23,-2.8 6.23,-6.23l0 -436.92c0,-128.8 -105.37,-234.17 -234.17,-234.17l-436.92 0c-3.43,0 -6.23,2.8 -6.23,6.23l0 664.86c0,3.43 2.8,6.23 6.23,6.23z"/>
  <g id="_1344034671328">
   <path class="fil2" d="M522.69 477.35c6.17,-0.97 5.26,0.96 4.36,-4.57 -18.39,-10.43 -77.35,-57.59 -68.9,-86.49 7.21,-24.65 62.48,-65.79 78.28,-83.46 -96.13,17.1 -130.93,67.07 -157.84,-86.28l-6.86 15.41c-5.71,21.67 -14.3,76.46 -37.23,86.81 -35.16,15.87 -86.93,-11.55 -118.22,-15.63 16.68,15.08 79.19,66.55 79.92,90.05 0.94,30.39 -61.06,73.4 -80.46,89.37 30.21,-5.45 85.92,-31.94 119.63,-15.95 23.53,11.16 31.53,70.96 37.29,90.75l5.57 12.06c27.45,-154.95 63,-103.23 144.46,-92.07z"/>
   <path class="fil2" d="M384.75 102.03c135.66,10.24 243.46,123 249.66,262.77l-22.19 0c-6.52,-126.91 -104.27,-229.23 -227.47,-239.54l0 -23.23zm249.59 289.85c-7.11,141.41 -118.1,254.75 -256.57,261.6l0 -21.53c126.46,-6.92 227.8,-110.67 234.45,-240.07l22.12 0zm-283.65 261.6c-140.23,-7.24 -252.33,-123.78 -256.25,-267.99l21.53 0c3.59,132.33 106.11,239.41 234.72,246.46l0 21.53zm-255.66 -295.07c9.46,-141.34 122.87,-253.44 262.64,-257.03l0 23.1c-127.63,3.45 -231.26,105.25 -240.98,233.93l-21.66 0z"/>
  </g>
 </g>
</svg>
