<?xml version="1.0" encoding="UTF-8"?>
<!DOCTYPE svg PUBLIC "-//W3C//DTD SVG 1.1//EN" "http://www.w3.org/Graphics/SVG/1.1/DTD/svg11.dtd">
<!-- Creator: CorelDRAW 2017 -->
<svg xmlns="http://www.w3.org/2000/svg" xml:space="preserve" width="7.6198mm" height="7.6198mm" version="1.1" style="shape-rendering:geometricPrecision; text-rendering:geometricPrecision; image-rendering:optimizeQuality; fill-rule:evenodd; clip-rule:evenodd"
viewBox="0 0 761.98 761.98"
 xmlns:xlink="http://www.w3.org/1999/xlink">
 <defs>
  <style type="text/css">
   <![CDATA[
    .fil0 {fill:none}
    .fil4 {fill:#FEFEFE}
    .fil2 {fill:#108D66}
    .fil3 {fill:#BABAB4}
    .fil1 {fill:#FDCF13}
   ]]>
  </style>
 </defs>
 <g id="Capa_x0020_1">
  <metadata id="CorelCorpID_0Corel-Layer"/>
  <rect class="fil0" x="-0" y="-0" width="761.99" height="761.99"/>
  <path class="fil1" d="M42.33 42.34l465.24 0c57.14,6.74 104.34,30.26 143.27,68.8l-608.51 608.51 0 -677.31z"/>
  <path class="fil2" d="M719.64 261.46l0 458.19 -338.65 0 0 -338.66 269.85 -269.85c40.45,43.45 64.02,93.23 68.8,150.32z"/>
  <polygon class="fil3" points="382.84,719.65 42.33,719.65 380.99,380.99 "/>
  <g id="_1819034632656">
   <path class="fil4" d="M343.89 447.1c2.49,0 4.95,0.03 4.81,-2.94 -2.03,-1.92 -2.6,-1.34 -5.31,-0.88l0.5 3.82z"/>
   <path class="fil4" d="M240.07 469.78l5.05 -3.36 -1.09 -4.44c-3.86,1.31 -4.49,3.88 -3.96,7.8z"/>
   <path class="fil4" d="M301.75 420.99c3.06,-2.18 3.03,-6.29 -0.67,-7.76 -3.74,1.78 -4.23,7.24 0.67,7.76z"/>
   <path class="fil4" d="M330.26 445.01c4.18,-1.8 6.1,-2.53 5.83,-7.07 -1.59,-1.83 -1.56,-2.2 -3.87,-2.56 -1.36,2.92 -1.97,6.37 -1.96,9.63z"/>
   <path class="fil4" d="M304.95 375c1.19,1.48 2.2,1.94 3.48,3.68 1.11,1.51 1.91,3.51 2.81,4.41 2.47,-2.94 5.54,-8.57 6.29,-12.29 -3.45,0.54 -10.2,1.85 -12.58,4.2z"/>
   <path class="fil4" d="M245.42 395.77c1.53,2.43 8.37,6.09 11.25,6.2l1 -12.22c-2.73,0.55 -10.4,3.9 -12.25,6.02z"/>
   <path class="fil4" d="M254.57 239.06c-0.42,-7.82 3.29,-16.45 4.33,-24.06 -5.54,4.52 -12.88,19.77 -5.77,26.15l1.08 0.87 0.36 -2.96z"/>
   <path class="fil4" d="M260.16 468.86c2.03,3.26 8.66,5.36 12.39,6.12 0.09,-3.19 -1.19,-12.27 -2.66,-14.73 -3.52,2.48 -4.72,5.98 -9.73,8.61z"/>
   <path class="fil4" d="M344.63 449.55c1.18,6.25 3.59,9.91 4.12,17.36l8.46 0.56c0.06,-4.05 -1.96,-19.51 -4.3,-22.13 -3.35,0.04 -1.79,0.49 -3.88,2.29 -1.77,1.54 -2.27,1.02 -4.4,1.92z"/>
   <path class="fil4" d="M507.4 649.97l22.24 -0.56c-0.37,-5.21 -6.57,-20.41 -11.19,-21.83 -1.69,4.2 -2.5,7.87 -4.57,12.22 -1.29,2.68 -6.28,9.26 -6.48,10.17z"/>
   <path class="fil4" d="M321.39 259.93l29.28 1.49c-1.33,-3.99 -6.07,-7.69 -6.18,-19.37 -3.28,1.81 -21.54,15.4 -23.1,17.88z"/>
   <path class="fil4" d="M333.47 483.31c5.71,0.45 27.23,0.32 31.37,-1.88 -0.97,-6.41 -8.93,-15.15 -15.54,-12.12 -4.1,1.88 -14.12,10.61 -15.83,14z"/>
   <path class="fil4" d="M176.34 590.47c9.01,-0.61 10.68,-10.8 12.59,-18.7 1.34,-5.51 7.65,-21.56 0.13,-23.84 -2.79,3.29 -12.84,37.54 -12.72,42.54z"/>
   <path class="fil4" d="M350.8 237.35c-9.04,5.5 -2.53,17.8 3.28,23.99l9.09 -0.72c5.75,-7.76 7.3,-23.46 2.02,-31.41 -3.93,1.49 -1.65,0.55 -2.35,1.98 -4.76,9.77 0.52,8.1 1.26,11.36 -0.82,4.79 -3.1,11.25 -8.52,11.35 -4.52,-2.68 -3.63,-7.59 -3.83,-12.31l0.79 -4.81c-3.33,-0.34 -0.49,-0.2 -1.74,0.57z"/>
   <path class="fil4" d="M367.18 259.43c18.04,-3.37 10.46,-23.19 12.73,-34.73 -3.37,-0.66 -10,1.73 -12.76,3.6 0.88,5.83 6.86,15.18 -0.58,30.24 -0.81,0.92 -0.81,-1.39 -0.61,1.57l1.22 -0.68z"/>
   <path class="fil4" d="M405.58 657.35c3.75,1.45 24.92,-3.14 30.98,-3.36l-19.34 -18.33c-3.93,3.34 -12.19,16.36 -11.64,21.69z"/>
   <path class="fil4" d="M195.36 633.34l30.38 16.65c2.05,-6.49 5.22,-11.16 5.27,-18.19 -9.06,-4.65 -26.83,-3.77 -35.65,1.54z"/>
   <path class="fil4" d="M363.38 626.36c5.65,5.41 41.13,10.86 50.08,10.83 4.61,-7.4 1.11,-5.17 -4.37,-8.05 -4.24,-2.23 -6.06,-5.42 -8.8,-9.22 -5.64,0.27 -13.13,6.28 -36.91,6.44z"/>
   <path class="fil4" d="M218.54 370.17c12.64,-15.2 3.5,-41.68 -10.14,-34.06 -2.41,1.35 -5.29,5.42 -6.45,7.96 -1.86,4.08 0.89,6.46 3.32,9.96 2.09,3.01 10.64,15.19 13.27,16.14z"/>
   <path class="fil4" d="M474.29 431.47c2.12,8.67 12.29,17.24 21.91,15.44 7.87,-1.48 16.11,-14.34 16.12,-21.63 -8.32,-3.53 -31.56,0.83 -38.03,6.19z"/>
   <path class="fil4" d="M276.99 444.45c-4.11,-5.03 -7.97,-5.83 -18.73,-19.51 -6.16,4.58 -16.98,34.03 -10.11,41.3 10.15,10.72 25.97,-13.96 28.84,-21.79z"/>
   <path class="fil4" d="M179.22 332c-6.28,1.85 -21.85,13.3 -11.88,19.07 7.49,4.34 14.14,10.47 22.09,14.88 4.09,2.27 9.91,6.51 10.94,-0.74 1.67,-11.74 -3.88,-38.28 -21.15,-33.21z"/>
   <path class="fil4" d="M448.48 213.94c2.64,11.84 7.21,22.67 9.48,35.95 2.73,15.99 2.41,26.86 3.18,42.62 5.21,-2.77 18.39,-17.37 17.63,-23.94 -3.29,-4.23 -10.62,-6.03 -12.97,-11.03 0.76,-10.67 17.44,-9.66 3.03,-24.4 -5.16,-5.27 -14.06,-15.81 -19.84,-19.43l-1.27 -1.25 0.76 1.48z"/>
   <path class="fil4" d="M294.09 312.5c9.56,2.29 34.36,2.38 44.58,1.44 15.66,-1.46 24.53,-3.53 39.07,-8.16 -2.98,-7.26 -10.12,-9.7 -17.61,-9.67 -10.16,0.04 -15.73,-0.69 -25.89,1.77 -6.52,1.58 -35.46,11.44 -40.15,14.62z"/>
   <path class="fil4" d="M184.89 388.5c-8.02,-12.9 -37.73,-39.45 -45.91,-24.45 -4.18,7.64 0.33,24.62 9.7,26.5 5.48,1.1 32.04,0.32 36.21,-2.05z"/>
   <path class="fil4" d="M220.24 335.76c3.83,5.79 6,6.33 6.62,14.24 0.59,7.42 -2.34,10.38 -3.47,16.38l9.67 -7.06c0.62,3.65 -11.05,9.77 -13.59,13.15 -1.17,7.4 1.22,18.91 8.5,22.14 1.66,-5.38 5.26,-12.89 7.97,-17.93 2.03,-3.79 9.5,-12.72 8.02,-16.52 -1.85,-4.77 -9.08,-12.22 -6.76,-17.2 3.13,-6.68 9.19,-8.83 12.5,-13.4l-4.69 -6.55 -24.77 12.75z"/>
   <path class="fil4" d="M225.36 598.74c4.06,2.37 7.86,0 15.56,6.51 5.12,4.32 8.62,7.84 15.55,3.59 5.23,-3.22 22.96,-16.91 20.42,-23.94 -0.71,-1.99 -11.76,-6.25 -14.45,-7.68 -9.97,-5.3 -5.58,-4.84 -17.69,-3.46 -6.74,0.77 -7.84,4.98 -11.51,10.52 -2.31,3.5 -7.82,10.5 -7.88,14.46z"/>
   <path class="fil4" d="M221.27 332.71c4.85,-1.48 28.31,-16.34 30.79,-14.53l-5.3 3.73c1.7,3.47 4.28,3.25 4.91,8.3l-10.59 10.13 8.54 14.27 21.37 -20.76c4.66,-6.08 20.56,-15.75 22.87,-19.05 -9.04,-2.24 -13.88,3.36 -23.94,0.51 -3.29,-0.93 -6.26,-2.65 -8.87,-4.77 -4.92,-4.01 -3.36,-3.48 -9.94,-2.5 -22.59,3.38 -29.44,3.18 -29.84,24.67z"/>
   <path class="fil4" d="M190.3 631.19c0.65,-13.79 -22.13,-20.84 -32.82,-22.31 -10.95,-1.51 -11.61,1.99 -19.1,8.38 -3.38,2.89 -18.24,18.64 -17.35,23.57 0.33,1.85 3.93,7.74 5.61,8.68 3.92,2.18 15.66,-4.74 19.99,-6.46 9.26,-3.68 20.97,-8.64 30.9,-10.61 4.18,-0.83 9.96,-0.61 12.77,-1.25z"/>
   <path class="fil4" d="M468.06 628c-9.61,1.71 -27.24,11.74 -30.86,20.92 -2.78,7.05 30.27,14.06 35.8,14.27 6.73,0.25 15.01,-1.27 21.07,-4.26 7.08,-3.49 11.51,-6.63 6.85,-13.91 -7.47,-11.66 -18.41,-19.58 -32.86,-17.02z"/>
   <path class="fil4" d="M404.34 386.68c10.26,12.4 20.17,23.34 31.47,34.63 8.36,8.34 27.63,32.52 40.45,19.14 -1.53,-11.86 -22.26,-18.36 -30.46,-26.54 -15.92,-15.91 -3.33,-36.01 -10.41,-44.67 -4.39,1.41 -13.37,11.5 -19.21,8.92 0.56,-2.15 2.7,-1.59 5.5,-2.55l-9.46 -17.25c-2.29,3.9 -0.05,17.86 -2.89,23.65 -1.75,3.58 -3.22,2.55 -4.99,4.67z"/>
   <path class="fil4" d="M236.03 125.17c0.06,7.04 15.65,20.05 18.84,27.34 3.45,7.89 6.89,28.96 17.13,28.91 5.9,-8.89 12,-21.2 19.95,-29.11 2.8,-2.77 6.33,-5.11 8.8,-7.74 -2.6,-3.68 -22.44,-14.05 -27.27,-16.56 -10.48,-5.47 -26.09,-6.25 -37.45,-2.84z"/>
   <path class="fil4" d="M174.67 585.94c-3,0.29 -6.75,0.86 -8.61,-0.69 2.07,-1.92 6.48,-0.92 9.31,-1.16l11.13 -36.72c-2.07,-2.32 -8.63,-4.54 -11.83,-6.32 -4.03,-2.24 -6.95,-4.65 -10.3,-7.36 -3.94,2.18 -12.87,11.36 -16.3,14.74 -8.87,8.72 -7.3,9.69 -5.03,22.92 4.3,25.04 4,24.88 22.58,21.84 7.59,-1.24 8.47,0.08 9.05,-7.25z"/>
   <path class="fil4" d="M410.73 352.11c3.66,1.47 7.66,17.99 13.63,21.92l9.87 -6.62c-0.54,-2.99 -4.82,-10.82 -6.08,-15.01 -1.86,-6.19 -1.05,-12.16 -3.18,-17.62 -8.78,-22.5 1.77,-21.28 4.51,-29.15 -14.1,-0.59 -19.01,6.45 -25.27,17.39 -7.26,12.68 -25.4,51.98 -4.51,60.46 13.84,5.62 8.2,-24.5 11.03,-31.37z"/>
   <path class="fil4" d="M321.11 403.82c6.49,10.45 1.08,21.77 1.04,23.59l8.1 2.55c2.11,-11.9 15.17,-22.96 16.93,-22.54 0.7,3.35 -15.04,10.73 -14.97,25.54 4.91,1.98 5.86,2.73 5.9,8.37 3.79,0.34 3.72,0.01 7.14,-0.21 5.49,-0.35 3.14,1.5 7.12,2.19 3.75,0.65 11.86,-0.96 13.21,-5.04 8.71,-26.08 -29.12,-54.93 -51.93,-54.5 -1.95,2.07 -4.18,13.23 -4.76,16.54 7.47,9.04 8.67,20.11 0.44,29.03 -3,3.25 -2.96,1.03 -11.09,9.02 -3.91,3.85 -5.86,5.67 -10.45,9.04 6.68,5.28 20.42,-9.15 25.16,-13.14 7.51,-6.33 13.81,-18.97 6.79,-28.91l-0.16 -1.93 1.53 0.4z"/>
   <path class="fil4" d="M285.59 587.31c6.16,7.82 39.79,24.18 50.23,28.79 12.65,5.6 15.87,8.38 30.13,8.33 7.24,-0.02 27.27,-2.3 32.81,-6.84 -4.79,-11.38 -17.77,-25.67 -17.88,-38.28 -6.18,1.8 -14.16,5.16 -20.78,7.28 -8.28,2.66 -15,3.87 -23.7,4.87 -30.86,3.52 -31.59,-1.67 -50.81,-4.15z"/>
   <path class="fil4" d="M416.21 562.75c3.55,7.53 8.55,14.56 11.62,22.32 2.17,5.47 3.75,6.96 0.51,12.65 -1.53,2.68 -4.97,9.84 -7.53,9.16 -0.11,-2.25 4.27,-7.37 5.65,-9.72 3.28,-5.57 1.47,-7.14 -0.83,-12.48 -3.23,-7.46 -7.65,-14.79 -11.73,-21.91 -8.08,-0.51 -26.6,10.43 -31.11,16.79 -0.4,6.9 12.12,27.72 16.09,34.49 8.6,14.63 14.31,20.69 27.81,6.68 4.17,-4.33 7.47,-9.55 10.61,-14.67 4.86,-7.91 6.38,-8.82 3.3,-18.16 -1.9,-5.75 -4.99,-12.15 -7.83,-17.52 -4.62,-8.7 -5.87,-10.2 -16.56,-7.63z"/>
   <path class="fil4" d="M279.02 445.87c-1.75,1.83 -7.12,10.82 -7.11,12.77 0.01,1.34 2.93,16.05 3.33,16.85 5.95,4.25 46.24,7.65 55.04,7.49 1.73,-1.13 16.38,-14.78 16.55,-15.95 0.67,-4.48 -4.76,-20.78 -8.1,-23.69 -4.49,-0.13 -6.87,4.76 -10.17,4.64 -1.79,-3.88 1.95,-11.4 1.68,-15.94 -12.77,-4.32 -6.21,-4.48 -24.33,10.77 -16.61,13.98 -13,6.08 -26.89,3.06z"/>
   <path class="fil4" d="M285.95 373.38c-9.43,1.72 -13.74,5.32 -21.06,10.84 -8.35,6.29 -6.04,16.73 -5.97,26.48 0.09,12.84 -0.08,13.73 8.99,22.79 16.87,16.87 18.42,13.64 28.09,4.58 4.99,-4.67 5.07,-4.03 2.52,-9.89 -4.58,-10.53 -4.8,-14.14 2.56,-23.34 2.57,-3.2 5.63,-4.31 6.95,-8.61 6.09,-19.79 -10.25,-25 -22.08,-22.85z"/>
   <path class="fil4" d="M487.07 544.7c-7,0.88 -5.41,1.64 -7.04,8.01 -2.76,10.76 -9.4,30.9 0.64,35.96 43.66,22.03 40.21,22.19 52.52,-6.12 4.58,-10.54 5.74,-12.04 -1.49,-22.21 -5.03,-7.08 -8.21,-11.68 -16.95,-13.51 -7.68,-1.61 -20.01,-3.1 -27.68,-2.13z"/>
   <path class="fil4" d="M402.18 202.42c5.52,7.22 22.55,11.56 31.86,9.57 15.62,-3.34 28.37,-21.92 51.92,-34.36 4.85,-2.56 27.89,-11.02 29.14,-14.24 -4.08,-2.48 -12.32,-1.45 -18.13,-3.18 -5.54,-1.65 -10.77,-4.16 -16.35,-5.77 -14.67,-4.24 -40.34,-0.7 -54.7,5.98 -11.29,5.25 -8.04,7.93 -16.42,27.05 -2.02,4.61 -5.82,10.61 -7.32,14.95z"/>
   <path class="fil4" d="M441.94 432.04c1.84,22.73 2.21,25.81 -5.76,46.93l-0.83 1.04c2.42,0.32 2.93,0.5 4.53,-0.53 16.77,0.56 25.09,2.11 40.04,8.68 5.9,2.6 10.38,5.22 16.04,8.63 2.89,1.74 12.51,9.45 14.44,9.73l-2.86 -30.77c3.09,1.27 2.77,8.49 3.21,11.47 11.45,-5.34 7.45,-8.22 5.31,-17.16 -1.44,-6.02 8.34,-10.78 12.48,-14.2 7.41,-6.12 3.59,-10.66 -0.39,-18.55 -2.41,-4.79 -6.18,-16.82 -7.77,-19.39 -6.95,6.7 -7.65,18.14 -14.7,25.45 -8.48,8.79 -19.44,6.69 -27.38,-1.4 -7.48,2.53 -11.06,7.64 -20.66,1.65 -5.81,-3.64 -10.25,-9.41 -15.09,-12.59l-1.32 -1.08 0.71 2.09z"/>
   <path class="fil4" d="M202.58 356.64c-0.38,4.35 0.93,11.36 -2.98,14.15 -8.84,2.79 -28.71,-17.62 -36.98,-19.82 -2.22,2.72 -6.72,5.02 -7.49,8.45 8.34,5.24 11.24,6.01 18.43,13.33 3.58,3.63 13.08,12.51 14.59,17.16 -4.87,3.26 -30.8,2.5 -37.87,2.99 -0.04,1.73 2.69,5.85 2.84,10.64 0.5,15.59 -9.29,25.52 3.09,34.6 10.6,7.76 30.33,28.93 33.53,15.4l-16.31 -7.33c4.64,-2.83 18.82,7.48 20.73,7.73 5.97,0.74 14.22,-7.45 18.41,-11.05 7.13,-6.14 3.69,-4.22 7.74,-22.1 1.88,-8.3 4.19,-15.64 6.61,-23.72 -10.24,-12.05 -7.4,-7.48 -9.68,-23.32 -0.58,-4.03 -12.14,-14 -13.91,-19.85 -0.74,-0.95 1.32,-0.81 -1.36,-0.8 -0.16,2.02 -0.42,2.05 0.61,3.54z"/>
   <path class="fil4" d="M151.8 596.91l-1.58 9.12c5.67,1.92 12.97,0.05 27.36,6.75 7.5,3.5 14.18,10.35 14.91,19 7.31,-1.53 13.42,-4.37 21.66,-4.91 18.86,-1.25 14.19,5.49 21.44,2.7 9.23,-3.56 9.87,-7.55 7.82,-17.77 -0.99,-4.95 -10.83,-11.15 -16.01,-10.1 1.44,2.96 4.7,5.55 4.87,8.89 -2.19,-0.45 -7.25,-7.94 -8.41,-10.4 -1.75,-3.75 3.01,-9.78 5.15,-12.98 2.53,-3.79 5.16,-7.54 7.57,-11.28 3.52,-5.45 8.08,-3.73 14.61,-4.86 -1.49,-2.27 -14.76,-11.18 -18.31,-14.89 -5.55,-5.8 -11.2,-11.59 -15.46,-18.29 -16.32,-25.7 -9.12,-44.83 -10.36,-52.84 -7.15,-0.11 -26.44,18.25 -30.52,24.33 -15.66,23.35 -11.51,24.68 2.91,32.08 7.93,4.08 15.47,3.38 14.86,13.34 -0.36,6.05 -3.17,17.21 -5.14,23.07 -3.44,10.22 -1.85,11.91 -12.87,14.98 -7.96,2.21 -18.37,2.24 -24.5,4.06z"/>
   <path class="fil4" d="M428.97 346.99c1.08,11.69 12.1,21.08 10.69,32.86 -3.46,28.82 6.2,32.61 22.58,43.57 5.96,3.99 8.36,7.04 14.88,4.38 13.88,-5.68 22.11,-6.88 36.77,-4.37 5.02,-4.28 12,-23.23 13.78,-30.08 3.61,-13.83 -1.98,-23.08 -5.76,-36.08 -4.27,-14.72 -5.33,-22.25 -6.74,-37.37 -1.04,-11.08 -8.83,-20.63 -19.19,-24.44 -1.24,4.37 -0.81,8.23 -2.69,13.5 -1.18,3.32 -3.85,8.68 -4.59,11.51 3.99,2.73 8.85,3.33 14.2,7.77 4.33,3.59 8.27,9.38 5.88,15.65 -4.05,10.59 -16.28,22.17 -18.41,26.71l5.8 2.62c-1.93,1.45 0.13,2.01 -5.68,-0.77 -2.27,-1.08 -4.07,-1.22 -6.29,-2.12 -6.34,-2.55 -28.32,-16.26 -29.61,-20 -0.04,-9.34 11.9,-20.56 16.92,-27.06 -3.07,-0.3 -9.66,1.44 -13.07,2.11 -4.3,0.84 -10.16,-0.22 -13.02,3.18 -3.03,3.63 -11,18.19 -12.63,19.15l-3.29 -3.03 -1.43 -1.38 0.9 3.69z"/>
   <path class="fil4" d="M640.66 572.26c-2.46,-3.25 -28.05,-7.07 -33.9,-8.45 -13.36,-3.16 -18.79,-6.01 -30.51,-11.45l3.18 5.93c-4.01,0.22 -7.38,-8.81 -9.06,-11.95 -3.54,-6.61 -3.24,-9.85 -11.28,-10.52l12.65 16.48c-3.32,0.45 -9.41,-8.78 -11.48,-11.45 -5.89,-7.6 -6.82,-6.53 -17.15,-6.86 2.25,4.71 7.66,6.9 10.71,15.95 1.53,4.55 2.46,18.56 -1.62,21.58 -1.67,-2.06 5.7,-16.12 -5.58,-30.64 -4.17,-5.37 -6.42,-3.9 -7.37,-12.71 -0.68,-6.3 0.94,-14.87 -0.06,-20.11 -3.57,-2.88 -22.61,-8.96 -27.33,-9.31 0.68,12.9 -1.26,7.32 6.26,16.13 4.32,5.07 3.79,12.75 4.3,19.13 0.76,9.59 -1.09,11.26 5.08,18.2 14.31,16.11 14.58,22.91 -0.79,48.52 -1.35,2.24 -4.32,5.05 -4.84,6.81 -0.69,2.3 -0.92,7.47 -1.44,10.31 -1.83,9.95 0.12,7.54 5.35,15.94 5.05,8.1 3.68,5.93 14.82,3.61 16.29,-3.39 39.3,-10.66 53.88,-17.56 12.75,-6.02 49.7,-31.13 46.18,-47.58z"/>
   <path class="fil4" d="M391.36 569.58c9.82,-3.38 7.47,-8.43 30.48,-9.41 8.72,-0.38 8.16,0.95 11.89,7.97 2.42,4.57 4.54,8.81 6.53,13.6 6.42,15.46 4.74,15.32 -3.33,28.47 -6.92,11.28 -9.49,13.47 -20.18,20.59 2.18,4.59 13.8,16.42 17.99,18.25 8.88,-9.46 15.93,-21.16 35.2,-23.38 22.52,-2.59 31.02,19.26 35.73,22.58 7.55,-7.57 15.34,-30.52 13.84,-41.25 -10.51,-1.82 -19.67,-6.41 -29.14,-11.16 -17.89,-8.98 -20.73,-8.03 -13.01,-40.62 2.6,-11 0.84,-14.78 26.72,-11.95 5.57,0.6 12.92,2.83 17.46,3.12 -3.23,-29.3 1.59,-29.35 -24.62,-46.68 -14.98,-9.89 -34.9,-18.46 -53.1,-18.5 -32.64,-0.08 -48.47,25.94 -52.72,54.56 -0.94,6.37 -2.55,29.37 0.26,33.81z"/>
   <path class="fil4" d="M381.61 223.66c0,17.83 4.17,34.09 -16.88,38.51 -9.98,2.09 -27.55,0.51 -38.99,-0.07 -7.31,-0.37 -5.92,-0.9 -11.38,2.85 -11.62,7.99 -33.29,10.42 -46.92,7.38 -18.91,-4.23 -11.77,-21.52 -14.1,-27.41 -0.48,-1.21 -4.81,-8.13 -5.22,-8.58 -6.02,5.35 -8.73,19.94 -8.28,27.69 0.54,9.21 4.97,19.23 9.22,27.37 11.74,22.44 21.16,26.69 45.42,18.57 19.91,-6.66 34.59,-15.8 56.56,-15.77 10.98,0.01 22.14,0.74 32.73,-2.66 13.7,-4.39 13.45,-10.72 21.29,-15.26 -0.28,6.11 -11.62,12.96 -16.86,15.78l0.39 9.22c6.78,-1.42 20.35,-6.11 26.15,-9.91 13.71,-8.97 9.67,-16.96 14.11,-22.25 1.34,1.59 1.08,0.4 0.62,3.79 -0.11,0.84 -0.71,2.82 -0.97,3.67 -0.76,2.39 -1.68,4.6 -3.04,6.7 -10.17,15.72 -24.18,13.5 -36.71,20.32 -0.61,3.53 0.07,10.07 -2.69,12.48l-6.49 -8.6c-17.37,2.42 -22.94,9.72 -57.78,8.74 -5.74,-0.16 -10.57,-0.23 -16.34,-0.68 -8.13,-0.63 -6.8,-1.29 -13.24,3.2 -3.72,2.59 -17.03,12.09 -18.55,15.49 24.12,-11.56 41.11,-11.93 66.68,-4.35 28.08,8.32 42.75,30.26 47.18,33.31 1.34,-2.27 11.09,-49.66 29.8,-57.54 6.37,-2.68 10.62,-0.74 14.57,-1.82 1.48,-0.41 8.22,-4.9 11.23,-6.11 5.99,-2.4 9.33,-1.67 15.29,-2.25 5.59,-16.86 -6.37,-68.22 -13.8,-85.35 -22.38,7.56 -23.79,5.4 -43.61,-5.73 -5.74,5.23 -4.04,10.49 -19.39,19.27z"/>
   <path class="fil4" d="M339.39 132.64c-43.62,4.44 -62.56,36.56 -75.71,74.45 -4.31,12.43 -14.92,52.45 -2.19,60.81 6.96,4.58 24.4,4.07 32.48,2.67 26.21,-4.53 36.79,-26.69 69.48,-42.83 17.33,-8.56 24.33,-0.99 41.08,-34.18 2.98,-5.9 9.48,-20.25 10.85,-26.29 1.88,-8.32 -9.76,-16.57 -15.89,-20.53 -18.58,-12.01 -38.11,-16.34 -60.1,-14.1z"/>
   <path class="fil4" d="M218.05 460.08c3.24,-1.75 7.36,-7.64 12.32,-7.66 3.51,-0.02 10.18,5.15 13.2,6.54 1.62,-10.98 2.63,-16.81 7.7,-26.7 0.93,-1.8 5.83,-9.76 6.03,-10.7 0.23,-1.1 -0.36,-14.85 -0.56,-16.7 -3.78,-3.14 -11.08,-3.89 -13.63,-8.44 1.21,-6.08 12.65,-7.11 17.03,-10.45 9.23,-7.03 21.4,-19.28 38.44,-13.64 5.5,1.82 4.2,0.82 9.81,-1.08 17.59,-5.97 10.22,1.59 6.5,10.13 4.77,3.39 23.14,1.89 42.43,23.05 5.66,6.23 10.08,13.16 10.76,21.86 1.67,21.13 -6.65,15.66 -12.52,19.45l3.9 22.64c0.26,2.2 2.7,3.73 4.09,5.75 1.54,2.25 2.35,5.44 3.72,7.23 7.86,-0.35 19.2,-7.54 24.3,-6.66 4.66,0.82 17.71,8.88 18.38,13.15 -2.58,-0.31 -10.33,-7.52 -13.75,-9.39 -8.49,-4.62 -9.26,-0.6 -16.92,2.01 -21.87,7.48 -62.61,4.89 -85.64,1.27 -27.33,-4.3 -21.87,-6.53 -35.67,-10.98 -1.44,2.79 -2.39,7.51 -4.9,9.03 -4.48,-2.93 -1.23,-8.69 -6.51,-12 -2.5,1.09 -4.14,4.25 -6.94,4.36 -4.85,-5.82 0.72,-8.89 1.36,-11.81 -15.26,-17.26 -35.91,10.17 -32.1,47.81 4.77,47.19 67.97,82.28 105.14,82.28 24.28,-0.01 55.08,-3.98 75.14,-18.78 -3.39,-32.32 -0.1,-71.73 32.59,-87.61 7.87,-3.82 14.19,0.6 18.29,-22.64 5.85,-33.13 -3.08,-35.41 -22.65,-56.71 -6.5,-7.07 -11.95,-15.71 -20.26,-20.63 -4.68,-2.77 -7.85,-6.61 -8.88,-11.99 -1.54,-8.04 -2.01,-7.54 -7.33,-13.35 -28.81,-31.49 -80.85,-45.21 -116.04,-16.04 -32.31,26.8 -47.07,76.78 -46.83,117.4z"/>
   <path class="fil4" d="M386.18 311.62l0.44 -18.59c-5.93,0.99 -9.24,2.33 -15.37,2.71 0.99,1.57 5.49,5.34 7.32,7.57 2.07,2.5 4.08,5.99 6.28,8.44l0.47 0.85 0.86 -0.98z"/>
   <path class="fil4" d="M451.43 297.73c-10.4,1.15 -20.42,7.74 -25.73,16.3 -5.17,8.33 1.22,23.74 6.27,31.28 4.26,-2.18 8.04,-15.15 13.6,-19.23 0.11,-7.58 4.41,-21.86 10.68,-27.15 0.59,-0.98 1.48,1.39 0.25,-1.46 -2.23,-0.62 -3.2,-0.63 -5.07,0.26z"/>
   <path class="fil4" d="M447.51 324.43c7.19,0.09 12.22,-1.22 19.1,-2.56 7.43,-1.44 13.63,-1.1 19.93,-2.08 8.08,-14.19 14.02,-41.11 -12.99,-32.53 -12.2,3.88 -26.53,24.74 -26.04,37.17z"/>
   <path class="fil4" d="M478.51 321.98c-6.34,0.62 -22.18,20.66 -21.76,27.03 0.28,4.19 24.69,19.33 29.49,20.03 4.68,0.68 20.09,-21.94 21.1,-27.3 2.34,-12.46 -18.52,-20.77 -28.83,-19.76z"/>
   <path class="fil4" d="M511.82 300.45l-4.7 -1.01c0.09,3.64 -0.16,0.41 0.89,1.81 10.82,7.24 8.77,27.16 11.45,39.01 3.07,13.57 8.09,26.19 11.22,39.21 8.17,-5.68 -5.17,-27.53 -2.51,-32.02 4.49,3.49 4.8,19.83 7.22,24.46 11.04,-13.74 10.47,-25.42 -2.9,-36.3 -19.46,-15.83 0.68,-35.82 -20.67,-35.16z"/>
   <path class="fil4" d="M251.89 472.74l0.96 3.54 2.63 -4.94c-0.81,-1.5 -2.44,-0.94 -4.3,-0.86 -0.1,2.38 -0.72,0.78 0.71,2.26z"/>
  </g>
 </g>
</svg>
