<?xml version="1.0" encoding="UTF-8"?>
<!DOCTYPE svg PUBLIC "-//W3C//DTD SVG 1.1//EN" "http://www.w3.org/Graphics/SVG/1.1/DTD/svg11.dtd">
<!-- Creator: CorelDRAW 2017 -->
<svg xmlns="http://www.w3.org/2000/svg" xml:space="preserve" width="7.6198mm" height="7.6198mm" version="1.1" style="shape-rendering:geometricPrecision; text-rendering:geometricPrecision; image-rendering:optimizeQuality; fill-rule:evenodd; clip-rule:evenodd"
viewBox="0 0 761.98 761.98"
 xmlns:xlink="http://www.w3.org/1999/xlink">
 <defs>
  <style type="text/css">
   <![CDATA[
    .fil0 {fill:none}
    .fil3 {fill:#E6E7E8}
    .fil2 {fill:#108D66}
    .fil1 {fill:#BABAB4}
   ]]>
  </style>
 </defs>
 <g id="Capa_x0020_1">
  <metadata id="CorelCorpID_0Corel-Layer"/>
  <rect class="fil0" x="-0" y="-0" width="761.99" height="761.99"/>
  <path class="fil1" d="M48.56 719.65l664.87 0c3.43,0 6.23,-2.8 6.23,-6.23l0 -332.5 -677.33 -0.29 0 332.79c0,3.4 2.8,6.23 6.23,6.23z"/>
  <path class="fil2" d="M719.66 380.92l0 -104.43c0,-128.8 -105.39,-234.17 -234.17,-234.17l-436.93 0c-3.41,0 -6.23,2.82 -6.23,6.23l0 332.08 677.33 0.29z"/>
  <g id="_1819034082176">
   <path class="fil3" d="M251.89 602.99l1.51 40.49 222.03 0.23c5.13,-43.78 -1.73,-72.31 45.03,-74.18 89.38,-3.58 80.01,13.55 80.01,-155.31 0,-57.29 -54.94,-44.89 -107.91,-44.91 -66.16,-0.03 -93.47,-6.88 -92.08,63.73 1.81,91 -56,41.95 -87.16,70.88 -22.7,21.09 -4.04,35.13 -15.42,64.18 -11.9,30.36 -37.02,14.08 -46.01,34.89z"/>
   <path class="fil3" d="M128.47 547.76c38.37,27.18 10.28,20.57 86.04,21.32 96.93,0.96 38.9,-61.03 77.28,-91.56 18.12,-14.41 25.14,-5.29 49.66,-8.07 31.16,-3.53 47.04,-43.07 31,-76.06 -14.52,-29.85 -41.57,-24.46 -82.64,-24.41 -125.46,0.15 -163.34,-17.83 -162.51,64.02 0.38,37.63 -1.4,77.54 1.17,114.76z"/>
   <path class="fil3" d="M379.02 339.57c23.69,11.68 71.41,11.59 95.35,0.28 8.09,-29.24 4.42,-96.92 4.44,-133.28 0.03,-65.67 16.3,-85.12 -52.27,-85.14 -67.61,-0.02 -51.89,20.17 -51.86,85.14 0.02,35.75 -3.62,104.61 4.34,133z"/>
   <path class="fil3" d="M248.8 159.38l0 151.01c0,43.1 20.51,36.92 69.3,36.92 26.46,0 34.73,-9.92 34.73,-36.92l0 -151.01c0,-43.64 -15.62,-37.69 -67.74,-37.69 -31.83,0 -36.29,6.36 -36.29,37.69z"/>
   <path class="fil3" d="M494.14 187.69c0,170.78 -14.14,159.62 68.85,159.62 50.83,0 35.29,-54.64 35.29,-159.62 0,-11.93 -2.66,-21.33 -5.57,-29.5 -20,-7.42 -40.4,-5.84 -62.43,-5.84 -30.42,0 -36.14,6.5 -36.14,35.34z"/>
   <path class="fil3" d="M127.46 192.41c0,163.8 -13.71,154.9 68.05,154.9 51.26,0 35.81,-45.73 35.81,-159.62 0,-13.39 -2.63,-21 -5.6,-30.13 -16.93,-5.5 -42.12,-6.5 -63.65,-5.51 -32.07,1.48 -34.61,8.63 -34.61,40.36z"/>
  </g>
 </g>
</svg>
