<?xml version="1.0" encoding="UTF-8"?>
<!DOCTYPE svg PUBLIC "-//W3C//DTD SVG 1.1//EN" "http://www.w3.org/Graphics/SVG/1.1/DTD/svg11.dtd">
<!-- Creator: CorelDRAW 2017 -->
<svg xmlns="http://www.w3.org/2000/svg" xml:space="preserve" width="7.6198mm" height="7.6198mm" version="1.1" style="shape-rendering:geometricPrecision; text-rendering:geometricPrecision; image-rendering:optimizeQuality; fill-rule:evenodd; clip-rule:evenodd"
viewBox="0 0 761.98 761.98"
 xmlns:xlink="http://www.w3.org/1999/xlink">
 <defs>
  <style type="text/css">
   <![CDATA[
    .fil0 {fill:#AF9800}
    .fil6 {fill:#F6F4DD}
    .fil1 {fill:#F8F7E8}
    .fil7 {fill:#FAFAF2}
    .fil5 {fill:#FCFCFC}
    .fil2 {fill:#FDFCF8}
    .fil3 {fill:#FDFCFA}
    .fil4 {fill:#FDFDFA}
   ]]>
  </style>
 </defs>
 <g id="Capa_x0020_1">
  <metadata id="CorelCorpID_0Corel-Layer"/>
  <g id="_1819034813584">
   <path class="fil0" d="M48.56 719.65l664.86 0c3.43,0 6.23,-2.8 6.23,-6.23l0 -436.92c0,-128.8 -105.37,-234.17 -234.17,-234.17l-436.92 0c-3.43,0 -6.23,2.8 -6.23,6.23l0 664.86c0,3.43 2.8,6.23 6.23,6.23z"/>
   <path class="fil1" d="M390.74 418.93c1.63,-1.32 3.07,-2.04 4.14,-3.97 -2.99,0.83 -4.25,0.64 -4.14,3.97z"/>
   <polygon class="fil1" points="359.47,447.37 359.91,450.37 363.19,447.12 "/>
   <path class="fil2" d="M559.86 381.54c-2.09,-3.6 -3.96,-5.22 -6.71,-7.85 -1.75,-1.68 -6.17,-5.89 -8.56,-6.32 0.89,1.85 2.35,2.65 3.6,3.79l7.35 7.63c0.75,0.76 3.05,2.35 4.32,2.75z"/>
   <path class="fil2" d="M542.79 339.89l4.9 1.46 -0.98 -13.26c-1.95,4.14 -0.93,7.35 -1.78,9.54 -0.66,1.72 0.12,0.2 -0.93,1.22l-1.21 1.04z"/>
   <path class="fil2" d="M373.07 373.88l5.93 1.17c-1.74,-1.65 -2.99,-5.05 -5.87,-5.96l-0.06 4.79z"/>
   <path class="fil2" d="M463.78 361.06l3.54 0.57c-0.76,-2.1 -3.04,-5.56 -4.22,-7.05 -0.13,0.99 -0.03,1.55 0.01,2.62 0.11,2.94 -0.25,2.37 0.67,3.86z"/>
   <path class="fil2" d="M416.43 500.18l3.77 0.51c-0.94,-1.77 -1.28,-2.11 -2.94,-3.05 -0.2,0.27 -0.45,0.33 -0.7,1.05 -0.37,1.11 -0.18,0.4 -0.13,1.49z"/>
   <path class="fil3" d="M512.78 535.58l-1.33 3.42c6.09,-0.79 8.8,-4.67 20.17,-5.97l3.35 -0.98c-1.12,-2.31 -4.27,-5.09 -6.27,-6.57 -2.07,-1.55 -5.21,-4.34 -8.06,-5.18 1.77,1.58 3.17,2.64 5.33,4.17 2.12,1.5 4.56,3.37 1.57,6 -5.59,4.94 -7.49,4.81 -14.76,5.11z"/>
   <path class="fil3" d="M367.3 409.49c3.88,-0.31 6.08,2.12 9.48,2.88 -1.4,-8.1 -5.36,-0.42 -6.9,-8.62l-2.58 5.74z"/>
   <path class="fil3" d="M409.77 365.03l3.36 -0.87 -1.28 -2.19c-0.69,-1.5 0.02,-1.15 -0.93,-2.73l-0.87 2.48c-0.17,1.04 -0.25,2.18 -0.28,3.31z"/>
   <path class="fil4" d="M303.62 356.57c4.33,-1.24 10.85,-5.85 15.38,-7.89 2.73,-1.22 14.29,2.85 18.39,3.66 7.38,1.45 20.21,1.79 24.5,10.36 1.4,2.79 3.57,5.19 2.39,8.3 -3.48,1.32 -13.11,0.28 -17.89,0.58 2.61,1.01 20.44,2.18 23.94,1.72 1.19,-13.21 -3.07,-6.79 -9.7,-16.85 -1.52,-2.3 -5.33,-3.12 -9.25,-4.66 -4.9,-1.92 -7.39,-0.51 -12.77,-1.16 -9.67,-1.17 -23.97,-13.54 -30.94,-4.15 -1.63,2.21 -3.6,6.84 -4.05,10.09z"/>
   <path class="fil4" d="M503.09 462.19l0.29 26.93c13.56,2.65 27.96,8.05 39.07,13.51 15.04,7.41 20.65,11.49 20.61,32.63 0,2.6 -0.71,6.75 0.28,8.91 0.63,-0.18 1.22,0.62 1.44,-2.97 0.11,-1.77 0.18,-3.64 0.24,-5.41 0.49,-16.1 -2.92,-19.95 -11.61,-29.12 -2.55,-2.68 -3.14,-2 -6.7,-3.48 -5.13,-2.15 -8.05,-4.98 -13.19,-7.14 -5.13,-2.16 -10.16,-3.21 -15.45,-4.88 -7.49,-2.36 -8.39,-2.36 -10.13,-10.2 -1.4,-6.36 -3.41,-10.56 2.73,-13.9 1.43,-0.77 8.22,-8.62 8.04,-11.99 -5.15,1.11 -10.75,12.98 -15.62,7.11z"/>
   <path class="fil4" d="M158.72 394.54l2.13 13.1c22.84,-2.44 24.73,5.03 35.4,5.05 -5.86,-5.76 -25.72,-6.54 -27.27,-7.98 -1.52,-2.13 -3.03,-10.1 -3.87,-13.25 -11.1,-0.66 -15.69,-0.54 -25.16,-8.03 -1.74,-1.38 -4.44,-3.83 -6.6,-4.27 -0.12,4.07 1.14,3.9 3.77,6.03 11.26,9.1 12.12,5.78 21.6,9.35z"/>
   <path class="fil4" d="M359.05 484.83c9.46,1.46 16.64,-5.05 30.78,2.94 3.56,2.01 2.02,3.33 4.55,4.58l22.59 4.57c0.92,-4.39 -2.21,-3.16 1.06,-4.91 -17.38,-1.62 -26.55,-7.38 -41.67,-10.56 -4.09,-0.86 -12.82,-1.4 -15.3,-2.69l-2.01 6.07z"/>
   <path class="fil4" d="M550.02 339l10.17 -0.6c-1.02,-6.54 -3.07,-11.2 -3.61,-19.02 -0.57,-8.23 1.91,-14.32 1.68,-20.44 -0.72,4.03 -4.55,13.57 -6.07,18.11 -3.17,9.47 -3.14,11.12 -2.17,21.95z"/>
   <path class="fil4" d="M439.19 355.23c14.98,0.8 10.68,2.31 21.4,4.59l-0.34 -6.86c-3.97,-5.03 -11.78,-3.22 -18.42,-2.79l-0.22 -5.77 -2.42 10.83z"/>
   <path class="fil4" d="M371.97 399.21c6.46,-10.49 12.07,-6.47 18.91,-24.49 -6.41,1.49 -10.11,3.52 -12.54,9.26 -1.86,4.38 -5.28,11.03 -6.37,15.23z"/>
   <path class="fil4" d="M534.23 341.87l-0.46 3.97c2.01,1.28 26.47,6.2 29.99,6.3 -9.81,-6.17 -14.82,-6.25 -17.07,-7.84 -3.05,-2.17 -10.1,-3.76 -12.46,-2.43z"/>
   <path class="fil4" d="M348.41 496.41c-2.98,7.78 -6.12,14.76 -10.54,19.38 4.3,-0.25 3.65,2.53 5.93,5.04 0.21,-3.73 -0.14,-4.33 1.3,-7.44 2.57,-5.56 8.27,-14.92 8.81,-17.62l-5.5 0.64z"/>
   <path class="fil4" d="M280.5 319.85c0.38,-2.03 0.5,-3 -0.51,-4.2 -1.4,-1.67 -1.03,0.09 -2.8,-3.1 -2.08,-3.73 -1.68,-4.13 -3.09,-8.12l-10.02 -1.09c1.86,3.57 13.29,16.12 16.42,16.51z"/>
   <path class="fil4" d="M533.55 349.63c1.28,1.2 17.44,4.51 20.64,5.37 6.22,1.66 15.32,4.99 21.23,5.9 -3.38,-5.24 -3.29,-4.12 -8.52,-5.22l-22.22 -4.51c-2.55,-0.53 -9.6,-2.96 -11.13,-1.54z"/>
   <path class="fil4" d="M440.21 335.68l0.58 4.84c4.49,2.03 3.09,0.73 3.59,6.57l8.03 -0.38c-0.63,-4.42 -2.63,-5.34 -4.4,-8.07 -0.98,-1.5 -0.58,-1.48 -1.32,-2.79 -3.03,-0.77 -3.83,-1.54 -6.48,-0.17z"/>
   <path class="fil4" d="M272.56 466.7c2.37,6.45 4.89,4.57 14.25,9.39l-3.67 -9.81c-3.67,0.76 -6.58,0.77 -10.58,0.42z"/>
   <path class="fil4" d="M236.77 359.19l11.93 -1.94c-2.6,-3.36 -10.97,-4.07 -16.08,-4.42 1.06,2.19 2.9,4.54 4.15,6.36z"/>
   <polygon class="fil4" points="497.6,260.04 507.87,251.9 497.94,249.67 "/>
   <path class="fil4" d="M211.31 419.65c8.48,0.5 12.21,-3.59 14.27,-10.1 -3.46,0.73 -2.32,1.82 -7.01,5.14 -2.1,1.49 -5.51,3.42 -7.26,4.96z"/>
   <path class="fil4" d="M524.99 347.45c-0.92,-2.08 -1.31,-2.77 -3.94,-3.01 -2.23,-0.2 -4.86,-0.2 -7.14,-0.3 0.64,6.65 7.81,5.34 11.08,3.31z"/>
   <path class="fil4" d="M522.14 450.14c1.31,-0.79 8.79,-16.1 9.13,-17.35 -3.32,1.19 -3.65,3.25 -6.04,7.64 -1.09,2.01 -4.83,7.46 -3.09,9.71z"/>
   <path class="fil4" d="M347.85 347.86l10.29 3.71c-0.88,-1.21 -0.97,-1.24 -2.13,-2.26 -3.96,-3.49 -1.63,-2.51 -8.83,-7.4l0.67 5.95z"/>
   <path class="fil4" d="M525.02 342.47c0.3,1.29 1.31,1.86 2.45,3.39 1.36,1.83 0.92,2.73 3.87,2.68l0.05 -6.93 -6.37 0.86z"/>
   <path class="fil4" d="M193.23 418.89l5.16 0.66c-0.8,-4.53 -1.27,-4.12 -5.86,-4.44l0.7 3.78z"/>
   <path class="fil4" d="M157.27 402.46c-0.02,-1.12 -0.16,-3.31 -0.43,-4.37 -0.53,-2.1 -1.18,-1.75 -3.67,-2.11 0.4,4.54 0.33,5.14 4.1,6.48z"/>
   <path class="fil4" d="M377.39 406.44c1.48,2.23 1.28,3.99 2.41,6.14 3.1,-3.2 1.05,-5.33 -0.73,-8.19 -1.07,1.03 -0.94,0.63 -1.68,2.05z"/>
   <path class="fil5" d="M419.31 387.52c-1.05,3.2 -4.61,8.47 -6.44,11.73 -2.64,4.7 -5.18,6.75 -8.48,9.71 -3.13,2.82 -5.43,6.24 -8.87,9.31 -8.01,7.15 -4.48,3.93 -6.05,7.93 -0.83,2.12 -0.22,0.75 -2.44,2.05 -0.33,3.47 -0.35,6.99 -0.51,10.48 -0.27,5.7 -0.78,4.79 2.06,8.03 4.72,5.4 1.32,9.81 -0.85,15.61 -2.8,0.22 -7.9,0.96 -10.38,0.4 -2.07,-2.52 -1.51,-6.15 -2.86,-8.87 -1.26,-2.55 -13.3,-9.78 -12.2,1.52 2.71,27.57 38.26,8.61 61.36,22.08l19.03 10.93c4.42,2.65 9.31,0.02 29.45,12.3 2.82,1.72 6.02,1.35 7.86,3.9 3.02,4.21 1.41,2.93 7.59,4.24 6.57,1.38 13.31,2.61 19.89,4.13 6.4,1.47 12.31,3.39 17.21,6.33 3.83,2.31 10.97,7.91 12.6,11.49 7.03,15.49 6.85,22.43 5.53,40.69 -0.44,6.2 -1.43,17.49 2.07,21.27 4.69,5.07 7.72,7.39 17.86,6.3 0.09,-6.99 -1.81,-10.58 -2.36,-16.96l-0.01 -46.86c-0.04,-18.46 -2.55,-22.54 -20.58,-31.03 -12.19,-5.74 -24.47,-9.93 -38.91,-13.02 -0.49,-15.67 0.97,-34.92 -3.88,-49.07 -1.1,-3.21 -3.89,-8.5 -3.03,-12.07 6.11,7.27 7.2,16.18 9.19,24.09 0.36,1.43 0.69,2.74 1.15,4.23 0.74,2.39 0.95,1.89 2.31,3.47 6.94,-8.31 10.59,-6.31 12.56,-14.08 1.1,-4.35 6.25,-15.1 9.81,-16.96 4.83,-2.53 3.38,-2.83 5.58,-7.8 9.41,-21.26 6.31,-4.45 6.33,-34.37 0,-8.27 0.12,-16.15 1.18,-24.21 4.28,0.89 2.16,-1.53 7.75,2.95 12.18,9.77 9.38,9.91 15.11,17.38l55.12 -3.65c1.01,-1.7 1.51,-2.79 1.58,-4.8l-26.51 -6.58c-17.64,-4.97 -33.69,-10.63 -51.61,-14.77 -8.74,-2.02 -13.07,-3.12 -21.94,-3.24 -3.11,-0.04 -4.98,-1.26 -6.59,0.87 -5.99,7.9 -9.24,9.28 -17.8,15.39 -6.57,4.69 -13.36,8.84 -20.4,13.31 -19.65,12.46 -31.89,6.18 -57.48,6.22z"/>
   <path class="fil5" d="M358.94 615.76c0.89,-2.03 -2.66,-10.79 -3.34,-12.96 -1.81,-5.82 -0.75,-2.87 -7.93,-9.2 -6.83,-6.02 -6.31,-5.03 -12.67,-13.01 -1.41,-1.78 -2.67,-2.71 -4.2,-4.35 -13.04,-14.08 -23.34,-19.56 -12.59,-37.83 0.41,-0.71 1.2,-2.25 1.6,-2.7 1.11,-1.28 0.3,-0.46 1.23,-0.95 0.14,-0.07 0.63,-0.25 0.76,-0.31l0.79 -0.26c-0.23,-12.56 7.17,-11.28 16.63,-24.54 3.49,-4.88 4.7,-9.47 7.43,-15.54 0.43,-0.94 0.39,-1.14 0.76,-1.96l4.89 -5.81c3.59,-2.62 2.58,2.08 6.68,-8.83 1.09,-2.9 2.2,-4.32 1.66,-7.6 -2.14,-13.07 -3.22,-22.08 -7.54,-34.22 -3.03,-8.49 -2.94,-7.95 -2.35,-17.78 3.33,-1.14 6.34,-4.52 10.21,-6.37 4.75,-2.27 3.02,-1.11 7,-10.13 3.27,-7.41 7.4,-16.05 10.06,-23.46 -3.51,-2.54 -18.73,-2.56 -24.27,-2.93 -8.19,-0.55 -16.96,-2 -25,-0.51 -11.33,2.1 -20.15,6 -28.19,13.01 -8.9,7.75 -8.83,6.73 -12.66,14.63 -7.18,14.87 -8.24,15.11 -7.1,34.67 1.56,26.92 10.28,39.12 10.62,44.41 0.47,7.18 0.32,19.72 -0.16,26.91 -0.55,8.15 -2.58,15.19 -5.39,22.02 -2.85,6.95 -2.43,16.56 -0.65,24.21 1.93,8.28 3.06,6.75 13.09,14.75l14.26 13.04c3.93,4.38 9.03,8.21 13.62,14.19 1.97,2.57 3.7,4.63 5.87,7.5 3.55,4.7 4.62,8.36 8.76,12.13 1.97,1.79 2.18,1.34 5.62,0.98 4.18,-0.45 8.38,-0.74 12.5,-1.2z"/>
   <path class="fil5" d="M76.16 345.31l-0.51 2.8c6.84,1.41 9.68,3.26 12.7,7.73 1.73,2.56 1.71,4.16 5.07,5.09 4.43,1.22 2.57,1.71 4.93,5.31 0.82,-1.48 0.22,-5.12 0.11,-7.06 5.01,0.59 10.54,3.3 16,4.27 8.39,1.49 10.96,-0.14 18.35,-1.37 12.17,-2.04 16.2,9.86 32.96,7.71l6.23 -15.55c8.9,-1.1 26.62,2.02 33.29,5.59 5.43,2.91 5.74,5.48 13.97,5.12 4.05,-0.18 13.06,-1.3 16.08,-3.05 -1.53,-3.52 -4.93,-6.03 -7.53,-12.2 6.52,0.41 17.93,1.59 22.27,4.93 1.53,1.18 2.13,2.5 3.17,3.29 1.7,1.3 6.85,-1.37 13.68,6.09 2.05,2.24 3.71,5.22 5.55,7.82 4.41,6.21 8.2,7.82 17.5,9.79l8.64 1.67c0.21,0.03 1.28,0.11 1.44,0.1l1.85 -0.55c0.87,-1.23 1.03,-19.79 -4.98,-22.61 -1.2,-0.56 -2.77,-1.2 -4.1,-1.78 -2.8,-1.19 -5.46,-2.3 -8.17,-3.55 -0.88,-11.93 2.1,-24.04 -6.89,-33.29 -6.06,-6.24 -6.6,-4.35 -14.91,-15.06 -1.77,-2.29 -2.18,-3.71 -5.57,-4.66 -4.46,-1.24 -5.62,4.19 -13.47,5.39 -5.67,0.87 -12.64,-1.02 -17.93,-2.26 -2.96,-0.69 -5.42,-1.12 -7.96,-2.25 -2.71,-1.2 -3.58,-3.32 -6.43,-2.23 -13.44,5.16 -12.8,7.67 -21.68,8.4 -3.36,0.28 -14.21,9.79 -19.15,11.34 -15.82,4.97 -20.21,0.58 -38.5,11.78 -1.55,0.95 -5.51,2.96 -6.41,3.75 -2.5,2.17 -1.74,7.06 -12.41,7.91 -9.84,0.79 -18.43,-1.78 -29.05,0.39 -1.37,0.28 -2.62,0.6 -3.99,0.82l-4.15 0.38z"/>
   <path class="fil5" d="M135.27 364.64c-1.16,1.98 -2.14,8.64 -2.44,11.37 4.65,1.22 9.87,6.74 14.42,9.22 6.8,3.68 11.57,3.69 20.01,3.45l3.42 14.14c12.56,1.64 24.82,4.2 31.47,10.98 4.68,4.78 4.4,6.73 15.77,-1.88 2.67,-2.02 1.73,-1.69 2.62,-2.75 1.4,-1.68 5.08,-3.01 7.46,-3.44 0.59,0.73 1.11,1.46 1.85,2.14 2.74,-1.35 0.46,-1.43 5.51,-3.67l19.36 -8.49c13.95,-5.35 21.35,1.34 32.51,1.01 1.79,-2.74 3.13,-3.48 5.34,-5.42l5.37 -5.32c-2.46,-1.11 -6.05,-1.27 -8.82,-1.87 -4.19,-0.92 -12.86,-3.47 -15.48,-6.48 -3.03,-3.49 -7.71,-4.11 -11.37,-10.55 -5.48,-9.63 -5.25,-4.17 -9.32,-6.17 -2.22,-1.09 -0.29,-1.7 -4.51,-1.02 -3.39,0.55 -6.44,1.2 -9.8,1.69 -1.52,3.82 -1.53,2.93 -6.13,3.92 -34.72,7.49 -14.73,-8.73 -58.93,-8.71 -0.78,3.33 -2.83,8.04 -4.1,11.5 -1.97,5.33 -4.8,4.84 -11.2,4.26 -9.64,-0.87 -14.48,-8.17 -23.01,-7.91z"/>
   <path class="fil5" d="M266.1 475.33l-2.26 1.94c1.99,3.29 2.92,3.3 3.81,7.69 -1.52,2.2 -4.82,5.27 -5.66,6.94l5.02 -1.24c-0.85,3.36 2.31,10.86 -3.36,15.12 -9.14,6.88 -23.97,-1.04 -32.19,-4.1 -5.51,-2.04 -12.67,-1.6 -15.88,-4.95 1.24,-2.84 1.54,-2.87 4.32,-4.09 -4.8,-0.63 -6.98,-1.76 -10.79,-2.78 -9.92,9.01 10.47,20.98 15.76,24.28 1.7,1.06 5.29,3.26 6.25,4.46 3.15,3.9 -0.46,5.6 16.84,16.88 6.36,4.14 6.36,4.37 9.93,11.99 5.49,11.73 13.7,36.79 33.08,22.03 0.13,-0.1 0.81,-0.68 0.87,-0.73 0.66,-0.66 0.3,-0.22 0.73,-0.88 -5.04,-4.98 -8.02,-1.54 -10.41,-15.7 -0.68,-4.02 -0.86,-8.02 -0.82,-12.12 0.06,-6.42 0.21,-5.96 2.25,-11.13 6.37,-16.11 5.46,-28.75 5.19,-47.19 -2.72,-3.45 -6.36,-5.32 -11.76,-6.9 -4.18,-1.22 -9.36,-7.63 -6.18,-10.11 1.62,-1.41 7.35,0.49 11.07,-1.2 0.26,-2.69 -1.8,-10.89 -2.33,-14.23 -0.83,-5.23 -0.86,-10.55 -1.68,-15.47l-30.19 -0.24c-0.88,2.22 -2.3,3.8 -2.79,5.35 -0.67,2.1 0.97,3.32 1.78,5.74 3.19,9.6 2.3,6.49 11.02,13.6 4.37,3.56 2.77,9.44 4.13,13.03 0.62,1.64 2.73,2.58 4.25,4.01z"/>
   <path class="fil5" d="M477.21 308.26c16.02,-3.52 11.12,-7.26 23.38,-4.01 7.87,2.08 18.78,0.03 25.42,-4.3 5.47,-3.57 7.26,-7.11 10.58,-10.81 5.21,0.17 13.92,2.54 19.51,3.53 7.28,1.28 11.76,1.8 17.61,5.36 8.38,5.09 4.08,9.28 8.86,14.15 3.75,3.83 11.13,5.52 17.69,6.08 11.56,-11.24 5.83,-19.35 3.39,-26.09 -1.11,-3.06 -0.3,-3.03 -3.58,-3.96 -15.36,-4.32 -10.69,-9.48 -24.99,-19.92 -9.35,-6.82 -9.36,-6.69 -23.91,-5.59 -12.47,0.94 -14.4,-1.41 -26.35,3.42 -4.38,1.78 -7.46,1.93 -11.7,3.29 -2.04,0.65 -2.4,2.19 -3.72,3.77 -1.7,2.05 -1.98,1.62 -4.52,2.98 -7.39,3.97 -27.5,26.64 -27.67,32.1z"/>
   <path class="fil5" d="M424.88 491.52c1.45,3.36 2.52,0.73 4.61,8.96 -1.39,2.09 -3.97,2.76 -4.42,5.86 -0.39,2.69 -0.74,7.06 -0.88,9.85 2.75,2.33 7.84,5.72 8.54,7.48l-2.96 2.3c7.19,3.35 18.83,-0.08 25.62,1.67 3.95,1.02 4.36,7.34 16.63,11.16 3.47,1.09 6.56,2.22 10.11,3.3 3.51,1.07 8.83,0.94 12.72,1.17 9.35,0.56 11.36,1.43 16.37,-10.21 2.4,-0.09 6.89,-0.09 8.98,-0.8 2.47,-0.83 3.59,-2.63 5.86,-3.76 -1.08,-2.07 -7.88,-6.55 -9.97,-8.07 -5.25,-3.82 -4.33,-3.88 -12.09,-5.51l-21.75 -4.49c-1.99,-0.52 -1.68,-0.42 -2.67,-1.63 -2.07,-2.5 0.12,-0.82 -2.77,-2.13 -3.36,-1.52 1.35,0.02 -5.29,-3.2 -4.16,-2.02 -5.6,-5 -17.72,-9.03 -5.49,-1.82 -7.43,-1.79 -10.22,-2.62 -2.06,-0.61 -1.62,-1.01 -3.24,-1.59 -2.3,-0.84 -12.26,0.81 -15.46,1.29z"/>
   <path class="fil5" d="M359.92 300.9c3.23,14.51 9.54,15.32 14.86,26.45 11.29,-0.95 8.94,-6.66 21.31,-9.59 8.76,-2.08 19.34,-0.91 27.87,1.08 6.86,1.59 5.34,2.93 10.18,-1.06 1.96,-1.61 1.56,-2.6 2.2,-5.28l3.09 -12.44c0.52,-1.33 2.68,-5.21 2.68,-5.23 0.37,-1.5 -2.54,-9.77 -3.45,-11.68 -13.94,-0.24 -61.33,1.24 -72.77,12.41 -3.11,3.04 -2.12,4.09 -4,4.94l-1.65 0.34c-0.05,0.01 -0.22,0.01 -0.32,0.06z"/>
   <path class="fil5" d="M133.99 288.26l-1.12 -5.4c-1.27,1.73 -3.7,6.64 -4.46,8.95 2.84,2.86 12.92,4.35 17.78,8.88 5.92,5.51 0.36,13.3 6.74,20.07 2.51,0.04 15.02,-2.25 17.23,-3.16 2.73,-1.13 10.7,-6.17 12.98,-7.89 3.12,-2.37 1.2,-3.02 6.69,-3.35 5.32,-0.33 4.24,-0.44 8.15,-2.66 4.12,-2.34 10.63,-4.07 14.08,-6.4 -2.96,-4.68 -12.17,-7.5 -15.02,-12.68l5.03 -0.53c-8.55,-1.13 -18.34,-1.55 -27.18,-2.36 -6.27,-0.58 -4.14,-0.62 -8.07,2.05 -11.41,7.74 -18.62,5.24 -32.83,4.48z"/>
   <path class="fil5" d="M502.63 307.47c-0.06,6.23 0.17,10.8 1.86,16.43 0.74,2.47 3.32,11.88 4.37,13.27 2.46,1.73 12.88,2.99 16.82,2.58 5.9,-0.61 10.66,-2.48 16.8,-3.02 0.41,-3.39 0.13,-8.76 2.52,-10.83 3.2,-2.79 1.99,-1.65 4.58,-9.32 1.74,-5.18 6.24,-16.49 6.8,-21.03 -2.87,-1.2 -11.51,-2.34 -15.1,-3.1 -4.22,-0.88 -3.48,-0.59 -5.6,2.19 -1.15,1.51 -3.16,3.32 -4.48,4.61 -6.24,6.1 -17.06,8.69 -28.57,8.22z"/>
   <path class="fil5" d="M382.89 375.02c3.7,-1.44 7.43,-3.38 11.29,-4.61 5.28,-1.7 7.26,-1.05 12.44,-3.7l1.22 -8.05c-1.62,-1.09 -5.1,-4.6 -6.36,-6.13 -1.58,-1.91 -3.04,-5.57 -4.52,-7.78 -8.41,-12.62 -3.26,-10.06 -27.35,-10.05 -4.84,0.01 -3.21,0.1 -7.53,-5.36 -2.35,-2.98 -9.17,-12.68 -11.24,-13.98 -1.69,3.46 -2.82,3.94 -3.24,9.06 -1.48,17.97 -3.35,9.72 11.64,24.33 2.55,2.49 2.45,5.12 4.54,7.77 1.41,1.78 5.13,4.37 6.96,5.89 2.16,1.78 4.16,4.09 6.18,6.12 2.27,2.29 3.29,4.45 5.97,6.49z"/>
   <path class="fil5" d="M592.23 332.21c11.78,0.65 17.95,2.37 18.81,14.38 -15.47,-1.1 -14.27,-1.73 -18.81,-14.38zm-23.83 11.5c3.75,4.2 48.02,21.13 55.94,23.48 4.51,-3.95 8.25,-11.29 8.64,-19.83 -7.9,-2.8 -7.46,-5.92 -12.85,-11.22 -6.89,-6.76 -6.73,-6.6 -16.7,-8.03 0.3,-1.21 2.28,-4.71 0.33,-5.86 -0.77,-0.46 -5.07,0.78 -6.31,0.97 -16.74,2.62 -19.45,-4.61 -29.05,20.49z"/>
   <path class="fil5" d="M392.76 570.01l-0.14 -7.45c-10.11,-4.72 -22.47,-12.04 -30.6,-18.08 -21.65,-16.09 -15.75,-16.28 -22.88,-25.79 -1.41,0.5 -1.3,0.53 -2.52,1.75l-5.59 7.24c-1.74,2.96 -1.67,2.71 -4.11,4.46 -2.47,1.77 -0.95,0.31 -1.81,2.49 -0.68,1.7 -1.23,2.09 -1.13,3.07 0.35,3.52 5.46,7.68 7.89,9.11 13.98,8.23 22.68,6.87 33.04,19.4 1.62,1.96 2.75,2.42 4.83,3.75 3.98,2.54 1.57,1.04 5.77,0.54 4.78,-0.58 12.21,-0.38 17.25,-0.49z"/>
   <path class="fil5" d="M422.15 384.72c7.6,1.07 17.6,0.91 25.62,1.48 12.25,0.87 12.79,-0.71 22.47,-4.08 0.25,-3.42 -1.14,-2.74 2.39,-4.44 1.63,-0.79 3.81,-1.41 4.66,-2.85 3.21,-5.4 -0.06,-6.28 -2.76,-8.69 -4.69,-4.2 -3.91,-0.43 -11.81,-2.64 -8.83,-2.46 -14.07,-5.94 -23.56,-5.59 -3.92,0.15 -6.78,3.26 -9.53,5.12 -3.6,2.45 -3.32,5.24 -4.62,9.83 -0.75,2.63 -2.9,9.54 -2.86,11.86z"/>
   <path class="fil5" d="M345.64 318.92c2.07,-1.89 2.28,-6.13 5.29,-6.29 3.57,-0.19 13.98,18.08 16.57,19.28 1.6,0.75 20.09,-0.09 22.3,0.32 1.94,0.36 1.85,1.13 3.12,1.52 3.51,1.08 14.69,-5.57 19.53,-7.15 4.11,-1.34 11.8,-2.35 15.07,-3.76 -0.18,-0.15 -0.34,-0.32 -1.06,-0.63 -0.62,-0.27 -0.91,-0.35 -1.64,-0.53 -7.87,-2.03 -18.69,-3.16 -26.51,-1.74 -5.99,1.09 -8.01,2.56 -11.68,5.44 -2.12,1.66 -2.02,2.22 -5.39,3.19 -2.54,0.73 -4.71,1.62 -7.51,1.26l-14.41 -20.76c-0.92,-2.39 -2.2,-7.63 -1.91,-10.31 2.04,-1.56 2.28,-0.85 3.79,-1.92 0.98,-0.69 1.59,-2.16 2.76,-3.21 1.65,-1.48 4.94,-3.47 7.66,-4.66 5.9,-2.58 12.34,-3.94 19.02,-4.99 7.23,-1.13 14.41,-1.75 21.78,-2.22 3.95,-0.26 7.84,-0.44 11.8,-0.62l11.22 -1.1c-0.16,-1.54 -0.44,-2.1 -4.8,-3.77 -2.87,-1.09 -48.42,7.76 -52.6,8.46 -8,1.34 -22.78,3.26 -28.73,6.53 -3.39,1.86 -2.3,1.14 -4.43,4.14 -1.9,2.67 -1.59,1.28 -1.54,7.64 0.03,4.46 0.48,12.55 2.3,15.88z"/>
   <path class="fil5" d="M378.73 401.58c2.85,0.4 5.59,4.85 5.25,9.11 1.79,0.8 3.05,2.19 4.92,3.33 3.84,0.75 24.74,-9.62 25.85,-30.17 0.25,-4.66 0.54,-13.88 -1.93,-16.91 -2.01,0.29 -2.28,1.41 -7.23,3.12 -2.32,0.8 -5.58,2.25 -7.87,3.32 -7.41,3.47 -3.19,3.41 -9.75,12.73 -1.69,2.39 -3.24,4.48 -5.23,6.03 -2.45,1.91 -11.12,8.56 -9.85,12.51 1.15,3.54 3.18,-2.22 5.84,-3.07z"/>
   <path class="fil5" d="M432.42 251.67l0.38 9.12c-9.35,0.96 -3.52,2.63 -11.34,5.66 0.82,2.05 4.43,6.27 7.54,6.81 4.36,0.75 6.84,3.25 9.87,4.51 3.79,1.57 6.81,0.4 11.17,3.21l6.03 4.67c1.28,1.42 0.24,1.06 1.73,1.84 0.04,-2.79 0.44,-5.68 0.75,-8.46 0.15,-1.37 0.42,-2.83 0.25,-4.21 -0.17,-1.45 -0.83,-1.93 -0.62,-3.71 0.5,-4.33 7.44,-5.78 12.25,-6.46 -0.09,-5.21 -0.05,-4.89 5.16,-4.92 0.09,-0.1 0.19,-0.41 0.23,-0.32 0.19,0.46 0.28,-2.02 3.02,-2.22 2.18,-0.16 12,2.27 16.02,2l0.32 -7.5c-2.48,-0.03 -8.14,0.39 -10.01,-0.57 -2.33,-1.18 0.27,-1.6 -2.84,-1.35l-12.75 2.83c-7.89,1.73 -2.95,1.81 -6.61,4.12 -0.33,0.21 -6.92,2.95 -7.3,3.01 -2.79,0.49 -13.57,-6.09 -23.25,-8.06z"/>
   <path class="fil5" d="M301.52 360.83c0.89,3.13 1.99,5.06 2.65,8.69 0.69,3.81 0.66,7.32 0.62,11.2 9.49,-3.81 9.06,-6.32 25.34,-9.12 2.63,-0.45 5.87,-0.14 7.83,-0.6 2.76,-0.66 2.57,-1.6 6.61,-1.97 5.88,-0.55 11.86,0.37 17.47,-0.14 -2.38,-5.59 -4.52,-9.27 -10.65,-11.25 -6.48,-2.1 -16.26,-2.4 -27.22,-5.94 -4.58,-1.48 -3.81,-0.72 -7.78,1.37 -4.33,2.27 -11.14,5.36 -14.87,7.76z"/>
   <path class="fil5" d="M240.63 404.6c0.86,2.16 7.96,11.36 10.89,13.34 4.75,3.2 8.47,3.49 13.81,4.39 0.7,0.12 2.11,0.36 2.69,0.55l2.1 1.18c-5.3,3.41 -6.17,1.75 -8.45,4.19l16.26 0.41c0.14,-7.79 -0.4,-9.8 2.3,-16.51 1.53,-3.82 5.07,-9.53 5.87,-12.72 -8.72,-1.14 -15.53,-4.15 -24.99,-2.61 -7.84,1.29 -13.68,5.61 -20.48,7.78z"/>
   <path class="fil5" d="M562.73 340.37c-3.62,1.08 -8.65,0.42 -11.9,1.53 0,0.08 0.05,0.14 0.07,0.25l6.19 3.52c10.26,5.14 10.24,5.34 20.77,9.71l2.31 1.4 -3.88 0.68c1.67,2.07 2.63,2.64 5.86,3.39 4.33,1.01 4.93,-0.17 7.93,-0.99 -0.2,-3.93 -3.17,-3.96 -6.38,-5.48 -18.43,-8.74 -19.72,-7.4 -16.16,-15.58 10.64,-24.44 15.06,-14.54 29.41,-18.39 -27.14,-5.05 -14.17,-14.16 -24.8,-20.29 -2.11,-1.22 -8.12,-4.01 -10.66,-3.79 -1,8.18 -2.88,14.13 -2.31,22.74 0.23,3.63 0.7,7.22 1.48,10.68 0.65,2.93 2.71,7.86 2.07,10.62z"/>
   <path class="fil5" d="M371.62 639.45c1.02,-10.56 -1.48,-11.56 -6.51,-20.99 -8.16,-0.68 -16.11,1.66 -23.83,1.4l-17.51 -16.86c1.96,4.36 5.21,8.36 7.65,13.81 2.52,5.64 3.32,11.2 5.47,16.46 3.95,9.67 26.02,7.72 34.73,6.18z"/>
   <path class="fil5" d="M432.55 327.27c16.97,0.22 6.87,6.07 27.7,-0.5 0.31,-2.23 -1.34,-16.35 -1.75,-20.55 -0.26,-2.74 -0.23,-3.04 -2,-3.46l-1.36 -0.25 -0.51 -7.82c-12.84,2.31 -12.47,2.68 -14.37,12.65 -3.02,15.79 -3.57,10.2 -6.41,13.92 -1.16,1.51 -1.09,4.06 -1.3,6.01z"/>
   <path class="fil5" d="M447.78 577.5c12.02,-0.16 17.42,-5.88 28.17,-13.51l23.38 -17.69 -24.42 -1.98c-0.96,2.5 -4.67,7.12 -6.24,8.63 -11.51,11.09 -21.48,10.03 -20.89,24.55z"/>
   <path class="fil5" d="M410.9 593.03c-0.48,-3.9 -3.05,-7.66 -4.7,-10.33 -1.05,-1.7 -1.9,-2.74 -3,-4.49 -1.06,-1.68 -1.72,-3.86 -2.7,-5.22 -7.62,-0.37 -14.25,-0.1 -21.8,-0.01 -8.46,0.11 -5.29,8.12 -2.91,13.38 1.5,3.32 3.35,3.15 6.95,4.3 10.33,3.3 17.8,5.49 28.16,2.37z"/>
   <path class="fil5" d="M364.38 477.19c22.5,1.97 30.12,9.28 53.97,12.21 2.17,0.27 2.83,0.8 3.92,0.5 0.09,-0.03 1.09,-0.58 1.71,-0.79 0.86,-0.28 1.46,-0.33 2.36,-0.45 2.56,-0.34 7.26,-0.56 9.41,-1.31 -24.94,-16.85 -32.31,-11.39 -57.01,-13.63 -3.3,-0.3 -6.79,-0.99 -9.52,-2.26 -4.07,-1.89 -4.03,-3.02 -6.45,-5.66l1.61 11.39z"/>
   <path class="fil5" d="M633.45 381.35l30.25 -2.11c0.39,-1.65 -2.72,-14.51 -3.81,-15.96 -0.89,-1.18 -3.74,-2.62 -5.55,-4.63 -3.16,-3.53 -5.84,-4.46 -10.69,-3.56 -3.19,0.59 -3.43,2.01 -6.94,8.48 -2.98,5.49 -3.75,10.63 -3.26,17.78z"/>
   <path class="fil5" d="M535.98 609.74c4.1,2.38 18.37,18.77 29.5,16.9 1.28,-5.6 -1.26,-15.35 -1.47,-21.83 -5.37,-4.3 -7.42,-2.04 -13.17,-4.09 -5.54,-1.97 -4.82,-5.64 -11.19,-6.24 -1.2,2.33 -3.18,3.2 -3.66,5.53 -0.41,1.99 -0.13,7.48 -0.01,9.73z"/>
   <path class="fil5" d="M418.22 583.41l27.06 -0.07c0.15,-2.56 -0.15,-4.92 -0.18,-7.45 -0.05,-3.42 0.67,-3.69 1.57,-6.5 1.33,-4.16 -1.77,-1.2 -0.86,-5.52 0.25,-1.22 1.82,-3.98 2.31,-5.41 -6.75,-1.07 -20.4,-4.33 -21.99,3.94 -1.58,8.28 -5.74,13.68 -7.91,21.01z"/>
   <path class="fil5" d="M432.85 238.7l-0.67 9.99c4.49,1.28 10.6,3.4 14.99,5.18 1.62,0.66 5.92,2.99 7.1,3.13 2.19,0.26 5.48,-1.91 7.73,-2.44 -0.32,-3.14 -3.24,-20.44 -5.42,-22.4 -1.93,-1.75 -3.09,-2.46 -4.99,-4.57 -5.05,0.9 -15.18,8.68 -18.74,11.11z"/>
   <path class="fil5" d="M484.68 368.11c-3.98,-1.61 -6.11,-2.9 -8.23,-6.53 -1.63,-2.77 -5.73,-4.2 -9.18,-5.82 3.21,7.79 4.58,4.36 9.1,8.56 6.34,5.88 5.36,2.05 3.48,11.74 3.69,-1.37 22.44,-14.85 26.61,-18.07 6.11,-4.72 5.31,-6.14 7.16,-7.67 -0.1,-0.11 -0.28,-0.38 -0.33,-0.29 -0.05,0.1 -0.25,-0.21 -0.32,-0.28 -1.88,-2.08 -1.91,-5.74 -2.24,-8.48l3.3 0.09c-10.21,-2.36 -6.33,0.56 -10.99,-13.37 -2.68,-8 -3.04,-12 -3,-21.09l-3.58 -1.01c0.7,2.7 1.83,5.07 2.26,8.16 0.45,3.25 0.74,6.4 1.26,9.58 1.29,7.87 2.95,9.82 0.06,17.77 -0.94,2.58 -14.1,25.47 -15.36,26.71z"/>
   <path class="fil5" d="M593.29 358.34c-1.22,1.61 0.22,4.72 -7.88,5.43 4.12,2.29 22.99,6.92 29.33,8.21 6.81,1.38 11.7,1.46 8.37,9.02 -1.66,3.76 -1.93,0.77 -2.03,5.51 11.57,6.95 8.97,-11.18 10.33,-16.45 1.14,-4.43 5.01,-11.72 7.57,-15.47 1.52,-2.24 2.55,-1.84 5.88,-2.18 -0.86,-3.25 -9.5,-8.94 -10.81,-9.27 0.14,4.03 2.37,1.31 1.15,8.18 -0.49,2.75 -1.27,5.67 -2.26,7.95 -1.19,2.75 -2.1,4.02 -3.78,6.38 -4.98,6.96 -5.11,4.23 -20.89,-1.6 -4.32,-1.59 -11.17,-3.77 -14.98,-5.71z"/>
   <path class="fil5" d="M353.25 419.8l-0.16 4.95c2.53,0.03 3.42,-0.08 5.72,0.4 6.98,1.45 4.81,-1.73 9.12,7.48 1.75,3.72 5.45,13.72 7.59,16.01 1.35,-0.77 2.17,-1.55 3.64,-2.31 1.52,-0.79 3.26,-1.22 4.37,-2.03l0.86 -17.2c-3.21,-0.5 -7.11,-1.83 -10.31,-2.77 -4.5,-1.31 -6.84,-0.51 -7.25,-5.62 -0.59,-7.38 -1.38,-8.27 -13.58,1.09z"/>
   <path class="fil5" d="M464.33 296.08l1.61 -4.23 15.98 -0.32c2.71,-3.58 -0.01,-2.99 5.31,-10.01 3.92,-5.17 3.37,-4.17 2.41,-12.22 -5.65,3.66 -5.31,9.31 -11.05,8.17 -3.06,-6.55 1.25,-11.08 -1.93,-15.07l-3.62 -0.02c-0.05,6.59 -0.14,5.1 -2.38,10.05 -4.1,9.08 1.07,3.84 -8.32,16.32 -1.73,2.29 -3.13,4.61 1.99,7.33z"/>
   <path class="fil5" d="M544.11 407.24c6.17,-3.34 7.06,-5.45 9.05,-10.05 2.24,-5.15 6.17,-8.04 7.72,-11.99 -7.28,-2.49 -14.07,-13.36 -16.99,-13.94 -0.35,9.55 -1.3,27.09 0.22,35.98z"/>
   <path class="fil5" d="M453.3 225.62c2.23,2.68 5.09,4.57 7.3,7.04 6.04,-0.71 15.79,-3.37 19.5,-3.76 2.29,-0.25 0.89,-0.48 4.2,1.15 5.2,2.56 2.77,14.09 2.11,18.79 13.69,1.26 9.03,-1.38 6.74,-7.23 -1.1,-2.82 -0.64,-6.43 -0.73,-9.47 -6.58,-5.4 -29.62,-12.47 -39.12,-6.52z"/>
   <path class="fil5" d="M130.08 375.44l2.14 -10.4c-21.51,3.12 -13.17,1.25 -30.9,-2.39 0.26,6 -1.6,4.7 1.58,8.61 2.44,3 1.72,3.8 6.65,3.88 4.95,0.08 16.36,1.02 20.53,0.3z"/>
   <path class="fil5" d="M468.01 352.76c2.1,2.16 6.13,3.22 8.5,5 3.21,2.39 1.82,4.62 7.1,6.87l1.65 -2.17c0.61,-1 1.02,-1.79 1.54,-2.72 2.22,-3.98 8.29,-13.7 9.39,-16.64 -13.42,0.37 -6.17,-0.35 -15.98,3.11 -3.84,1.36 -0.02,2.05 -5.13,3.95 -2.31,0.86 -4.82,1.88 -7.07,2.6z"/>
   <path class="fil5" d="M449.95 336.75c1.3,2.15 3.08,3.54 4.22,6.44 2.27,5.75 -0.01,2.87 5.27,5.95 3.32,1.94 3.79,2.8 8.16,1.04 2.31,-0.93 6.1,-2.03 8.04,-3.26l0.14 -7.91c-6.28,0.11 -10.49,0.85 -15.06,-2.39 -1.89,-1.34 -7.37,-7.46 -10.77,0.13z"/>
   <path class="fil5" d="M238.79 296.35c-2.82,0.61 -19.15,2.01 -21.28,3.52 7.46,2.28 22,7.19 29.51,3.64 2.51,-1.18 5.54,-2.73 6.9,-4.75 -2.44,-5.08 -10.22,-6.32 -13.73,-5.94l-1.4 3.53z"/>
   <path class="fil5" d="M359.04 444.77l6.85 -0.49c1,0.97 1.58,2.74 6.27,4.32l-8.72 -19.51 -1.52 3.43c-3.42,-1.35 -2.45,-2.71 -4.59,-5.09l-4.1 -0.05 5.81 17.39z"/>
   <path class="fil5" d="M473.98 309.86c-1.57,1.83 -2.36,6.03 -2.77,8.77 4.16,1.1 7.03,3.1 11.36,3.68 1.34,-3.87 4.34,-10.23 4.58,-14.24 -2.13,0.55 -4.2,1.16 -6.29,1.86 -5.37,1.8 -3.1,0.73 -6.88,-0.07z"/>
   <path class="fil5" d="M448.51 564.47l13.64 -9.48c3.68,-2.9 9.16,-7.56 10.92,-12.78 -1.61,-1.08 -3.51,-1.42 -5.51,-1.98 -2.52,3.67 -0.45,5.84 -9.32,12.47 -4.65,3.48 -7.65,5.22 -9.73,11.77z"/>
   <path class="fil5" d="M485.54 322.29l11.48 -0.4c-1.04,-11.7 -0.95,-7.79 -3.53,-15.97 -4.93,1.03 -3.26,2.84 -4.86,7.48 -1.02,2.95 -2.46,5.9 -3.09,8.89z"/>
   <path class="fil5" d="M376.51 451.1l2.33 9.26 7.21 -0.59c2.36,-6.14 3.94,-7.57 -0.36,-12.36 -4.76,-0.1 -6.35,2.22 -9.18,3.69z"/>
   <path class="fil5" d="M445 294.22l9.59 -2.35c-0.17,-5.48 -0.63,-4.78 -4.2,-7.5 -2.65,-2.03 -5.12,-2.94 -9.35,-3.39l3.96 13.24z"/>
   <path class="fil5" d="M460.5 286.15l1.82 -1.75c3.83,-4.64 5.3,-10.49 7.75,-17.02 -12.24,1.71 -7.98,3.24 -8.85,11.12 -0.29,2.59 -0.57,5.05 -0.72,7.65z"/>
   <path class="fil5" d="M480.29 274.9c2.46,-1.26 2.08,-2.26 4.66,-4.77 1.42,-1.4 2.89,-3.1 4.29,-5.08 -0.76,-3.59 -0.03,-3.85 -3.4,-4.35 -2.13,-0.32 -4.7,-0.73 -6.86,-0.86 0.37,1.45 2.2,5.89 2.13,6.91 -0.23,3.11 -1.73,-2.21 -0.82,8.15z"/>
   <path class="fil5" d="M414.29 361.04c1.48,1.41 0.69,2 3,2.99 1.87,0.8 4.22,0.84 6.39,0.85 1.06,-0.32 0.7,-1.27 3.8,-3.46 0.76,-0.54 1.01,-0.69 1.86,-1.31l2.19 -2.27c-7.45,-0.53 -11.76,-1.11 -17.24,3.2z"/>
   <path class="fil5" d="M378.87 422.88l8.22 2.39 1.12 -8.89c-3.07,-1.11 -2.69,-1.91 -7.32,-0.88 -2.92,0.65 -1.98,3.94 -2.02,7.38z"/>
   <path class="fil5" d="M370.04 420.49l6.22 1.7 0.18 -6.94 -7.45 -3.18c0.02,1.49 0.13,2.85 0.24,4.24 0.04,0.49 0.1,1.42 0.17,1.85 0.14,0.89 -0.04,0.01 0.18,0.95l0.46 1.38z"/>
   <path class="fil6" d="M201.45 419.73l2.74 0.32c-1.15,-2.1 -2.92,-2.94 -4,-4.35l1.26 4.03z"/>
   <path class="fil7" d="M491.9 264.33c1.41,-0.74 1.55,-0.98 2.45,-1.95l-3.1 -0.72 0.65 2.67z"/>
  </g>
 </g>
</svg>
