<?xml version="1.0" encoding="UTF-8"?>
<!DOCTYPE svg PUBLIC "-//W3C//DTD SVG 1.1//EN" "http://www.w3.org/Graphics/SVG/1.1/DTD/svg11.dtd">
<!-- Creator: CorelDRAW 2017 -->
<svg xmlns="http://www.w3.org/2000/svg" xml:space="preserve" width="7.6198mm" height="7.6198mm" version="1.1" style="shape-rendering:geometricPrecision; text-rendering:geometricPrecision; image-rendering:optimizeQuality; fill-rule:evenodd; clip-rule:evenodd"
viewBox="0 0 761.98 761.98"
 xmlns:xlink="http://www.w3.org/1999/xlink">
 <defs>
  <style type="text/css">
   <![CDATA[
    .fil1 {fill:none}
    .fil2 {fill:#FEFEFE}
    .fil0 {fill:#571D01}
   ]]>
  </style>
 </defs>
 <g id="Capa_x0020_1">
  <metadata id="CorelCorpID_0Corel-Layer"/>
  <path class="fil0" d="M48.55 719.65l664.87 0c3.43,0 6.23,-2.8 6.23,-6.23l0 -436.93c0,-128.8 -105.37,-234.17 -234.17,-234.17l-436.93 0c-3.43,0 -6.23,2.8 -6.23,6.23l0 664.87c0,3.43 2.8,6.23 6.23,6.23z"/>
  <rect class="fil1" x="-0" y="-0" width="761.99" height="761.99"/>
  <g id="_1855397082448">
   <path class="fil2" d="M358.69 301.3c3.81,-0.1 5.11,-2.42 9.1,-6.65l24.89 -21.37c2.92,-2.29 5.64,-4.51 8.36,-6.83 6.58,-5.61 7.59,-10.46 12.27,-18.15 2.8,-4.61 9.64,-1.19 12.15,-3.7 2.6,-4.66 1.17,-10.16 5.24,-15.1 6.44,-0.83 12.36,7.66 17.56,10.15 4.98,2.39 15.09,-3.65 19.84,-5.82 6.45,-2.94 12.55,-5.77 19.15,-8.57 6.38,-2.71 13.49,-6.81 20.64,-7.66 1.19,3.03 7.99,17.5 10.51,19.77 5.79,-2.26 58.93,-32.38 67.36,-36.98 7.8,-4.26 16.5,-8.31 21.02,-14.04 -0.66,-4.27 -10.09,-25.57 -16.05,-29.49 -22.39,10.48 -45.31,20.78 -68.07,31.11 -16.57,7.53 -18.39,11.65 -38.33,4.81 -6.35,-2.18 -12.85,-3.83 -19.31,-5.77 -12.36,-3.72 -8.32,-3.06 -15.97,3.83 -4.27,3.85 -7.91,7.62 -13.15,11.29 -5.36,3.77 -8.52,6.9 -12.57,12.54 -3.56,4.96 -8.27,8.7 -12.18,12.93l-6.05 6.49c-15.04,17.71 -12.66,13.62 -27.01,35.81 -3.28,5.07 -6.71,10.11 -9.97,15.13 -2.33,3.6 -9.12,12.61 -9.43,16.27z"/>
   <path class="fil2" d="M497.49 450.97c2.36,-7.1 5.64,-10.1 9.34,-25.18 2.23,-9.06 5.52,-19.31 4.19,-28.67 -16.05,-2.67 -33.17,-4 -49.21,-6.23 -3.72,-0.52 -4.78,-2.21 -6.52,-4.65 -1.98,-2.79 -6.74,-12.44 -8.86,-13.63 -2.14,-1.2 -16.82,-0.57 -20.85,-0.91 -6.89,-0.6 -13.11,-1.76 -20.42,-2.05 -7.05,-0.27 -14.4,-0.13 -21.37,-0.87 -6.96,-0.73 -12.87,-3.58 -19,-3.59 0.32,12.06 17.84,30.99 25.25,42.24 3.12,4.75 3.15,3 8.93,4.94 6.31,2.12 13.13,5.43 19.71,8.01 13.19,5.15 25.72,10.17 38.85,15.28 6.56,2.55 12.96,5.06 19.38,7.67 4.62,1.87 16.13,6.96 20.58,7.64z"/>
   <path class="fil2" d="M157.81 229.77c9.2,0.21 44.08,17.05 52.95,21.36 3.36,1.64 9.4,5.83 13.26,4.37 3.19,-1.2 2.06,-2.2 7.71,-1.77 2.85,0.22 5.23,1.01 7.1,2.31 6.34,4.4 9.54,14.36 21.85,16.03 -0.67,-5.83 -2.13,-11.07 -1.64,-17.3 0.58,-7.34 3.8,-8.5 6.72,-12.11 -2.08,-5.29 -17.56,-23.58 -21.55,-25.91 -2.92,8.96 -2.66,14 -4.15,23.72 -2.52,16.37 -13.99,8.25 -14.98,6.19 -2.8,-5.87 -0.25,-17.77 1.22,-23.99 3.01,-12.69 4.99,-12.95 3.28,-22.92 -2.82,-0.22 -11.33,3.25 -15.23,4.23 -5.6,1.41 -11.02,2.69 -16.71,3.73 -9.47,1.74 -8.45,1.56 -15.63,-2.54l-58.5 -32.61c-2.97,-1.65 -3.58,-3.7 -7,-3.34 -6.71,0.7 -14.67,15.84 -16.72,23.62 -3.63,13.74 -4.91,11.97 12.47,23.48l37.49 24.01c4.76,2.29 6.56,-4.69 8.06,-10.56z"/>
   <path class="fil2" d="M140.59 365.7c0.71,6.4 -11.3,31.79 -14.42,39.15 -2.75,6.51 -14.57,33.79 -15.72,38.19 7.41,-1.32 3.02,-6.2 12.16,-11.96 5.6,-3.53 10.35,-11.32 15.06,-16.66 1.58,-1.79 2.79,-2.32 4.33,-4.24 7.16,-8.91 15.08,-17.13 22.53,-25.73 1.97,-2.27 5.48,-6.53 9.27,-7.41 1.04,-6.91 0.54,-2.38 6.87,-10.17 2.69,-3.31 5.81,-6.1 8.4,-9.42l16.15 -18.87c6.42,-6.54 13.19,-8.9 11.05,-23.58 -1.32,-9.13 -7.56,-18.25 -13.04,-21.86 -6.31,-4.16 -23.37,-4.13 -28.79,0.59 -4.92,4.3 -22.34,50.24 -27.03,60.93 -1.47,3.37 -3.24,10.07 -6.82,11.04z"/>
   <path class="fil2" d="M616.99 420.66c-2.05,-7.21 -7.68,-13.39 -11.4,-18.56 -2.1,-2.93 -3.6,-6.8 -5.42,-9.8 -1.87,-3.1 -4.05,-6.02 -6.07,-9.11l-30.38 -46.32c-2.12,-3.43 -3.66,-6.5 -5.76,-9.45 -11.61,-16.37 -19.55,-29.8 -30.69,-45.97 -1.85,-2.68 -3.62,-7.76 -5.57,-10.18 -13.17,-1.11 -27.26,-2.34 -33.58,6.53 -5.27,7.39 -9.02,21.01 -0.35,30.08 5.81,6.09 35.24,29.98 43.44,37.17l18.54 16.48c1.01,0.98 1.5,1.81 2.48,2.78l21.92 18.38c9.35,7.78 13.52,12.36 21.2,19.11 4.05,3.56 17.96,17.48 21.64,18.86z"/>
   <path class="fil2" d="M367.61 361.19c11.96,6.59 19.24,-4.12 29.99,-12.75 4.53,-3.63 8.63,-6.46 13.85,-9.92l41.2 -31.46c6.58,-5.02 23.31,-15.83 27.46,-21.35 -1.46,-6.84 -8.31,-5.59 -10.25,-12.98 -7.14,0.28 -6.94,-2.76 -21.52,-5.35 -13.44,-2.4 -11.56,-9.1 -18.78,-8.57 -6.98,0.52 -21.57,17.34 -24.52,30.19 -4.4,19.2 -15.81,26.54 -29.77,38.34 -3.81,3.23 -2.68,5.03 -2.83,11.39 -0.23,9.47 -2.95,14.39 -4.83,22.46z"/>
   <path class="fil2" d="M162.4 670.61c10.79,-2.71 4.96,-14.77 48.05,-22.08 8.5,-39.13 12.07,-24.86 1.68,-60.96 -1.46,-5.06 -1.12,-5.72 -1.59,-11.06 -0.3,-3.39 -1.59,-7.32 -2.18,-10.92 -2.56,-15.56 -1.59,-31.73 -0.37,-47.39 0.4,-5.12 2.55,-19.15 1.9,-23.09 -1.46,-8.92 -7.81,-7.35 -3.35,-20.08 10.11,-28.82 37.09,-21.32 71.81,-54.35 6.35,-6.04 9.25,-10.79 14.17,-16.88 1.59,-1.97 1.94,-1.39 3.45,-3.16 1.76,-2.06 3.55,-5.13 5.19,-7.37 3.11,-4.27 8.11,-10.77 7.46,-18.17 -2.54,1.19 -14.37,20.79 -15.86,22.32 -1.4,1.43 -2.2,1.48 -4.37,3.53 -7.42,7.03 -34.61,26.79 -44.24,33.71 -18.59,13.38 -21.89,12.13 -39.79,18.31 -7.63,2.63 0.72,8.6 -2.57,13.94 -2.68,4.34 -13.82,11.28 -14.66,17.06 -0.46,3.21 2.38,8.63 3,12.45 1.71,10.51 -6.16,36.05 -6.07,56.23 0.16,31.83 26.53,39.9 23.72,69.41 -1.23,13 -5.48,11.86 -6.99,16.12 -3.55,9.96 -11.46,11.36 -24.07,14.89 -4.93,1.38 -0.94,0.69 -7.38,4.46 -1.88,1.1 -6.58,9.1 -6.94,13.08z"/>
   <path class="fil2" d="M220.29 314.74c-3.11,10.31 4.82,8.48 -10.98,25.29 -7.93,8.45 -10.04,4.92 -2.14,24.67 6.23,15.58 2.53,8.81 5,20.13 15.83,6.25 46.88,4.44 63,0.88 11.15,-2.47 16.58,-5.6 23.83,-11.72 -1.7,-9.12 -9.25,-14.23 -15.9,-18.7l-51.47 -35.06c-2.65,-1.82 -8.15,-6.6 -11.34,-5.49z"/>
   <path class="fil2" d="M384.81 366.32c6.88,0.29 13.98,-0.01 20.89,0.07 7.22,0.08 12.82,2 19.77,2 25.08,0 26.34,0.33 52.73,-2.22 3.46,-11.65 10.38,-29.86 16.51,-38.69 4.32,-6.23 3.21,-7.34 -7.29,-15.26 -12.44,-9.36 -6.47,-8.63 -9.18,-19.28 -2.76,1.16 -65.79,48.9 -71.67,53.27 -3.98,2.95 -7.98,6.23 -12.03,9.09 -3.7,2.61 -9.21,5.45 -9.73,11.02z"/>
   <path class="fil2" d="M287 231.61c-4.64,1.31 -9.1,5.42 -9.96,10.55 12.21,6.54 19.9,23.86 22.03,37.44 1.34,8.56 -1.98,9.26 -3.24,15.72 -3.43,-0.04 -6.58,-0.6 -9.39,0.99 0.65,3.54 10.72,13.08 13.71,15.33 21.16,15.93 23.39,12.34 36.03,-1.09 2.95,-3.14 11.32,-11.64 11.94,-17.28 -9.74,-0.11 -11.58,-2.2 -13.39,-11.03 -2.78,-13.5 0.51,-38.69 10.02,-49.19 2.37,-2.6 4,-3.44 5.46,-7 -6.42,-4.84 -17.3,-6.27 -17.8,-3.56l-1.07 1.75c-1.47,3.19 -5.44,20.73 -11.76,14.2 -3.19,-3.17 2.58,-10.61 1.68,-16.24 -4.96,-2.07 -11,-0.35 -16.34,0.67 -4.39,0.84 -3.86,-0.04 -6.08,3.19 -1.75,2.54 -2.36,2.96 -1.55,6.98 0.64,3.14 4.16,15.79 -2.49,9.18 -2.68,-2.67 -5.5,-7.43 -7.8,-10.61z"/>
   <path class="fil2" d="M297.23 315.83c0.33,2.97 0.79,-0.5 2.08,8.67 0.48,3.43 2.06,5.33 2.8,8.24 -2.83,2.87 -4.78,2.99 -8.53,5.3 -0.7,10.35 2.79,29.28 10.63,34.03 3.87,-1.06 2.23,-1.52 3.84,-2.33 6.42,-3.26 4.2,9.67 5.56,12.38 1.58,3.17 12.76,7.98 18.22,7.48 3.63,-0.33 6.3,-2.05 9.32,-3.17 5.62,-2.07 4.4,-1.92 7.88,-5.35 4.18,-4.12 1.93,-2.4 0.91,-8.27 -0.55,-3.2 0.01,-2.66 1.29,-4.71l1.41 -2.58c4.21,-6.3 7.86,5.21 13.19,-11.91 1.64,-5.26 3.76,-13.98 2.17,-19.42l-10.3 -0.63c-2.08,-12.46 3.1,-14.14 3.71,-23.34 -1.52,-1.6 -5.42,-4.47 -7.69,-5.41 -8,-3.3 -8.1,4.9 -22.1,16.41 -8.57,7.06 -13.46,10.07 -26.62,0.13 -5.4,-4.08 -4.32,-5.88 -7.77,-5.52z"/>
   <path class="fil2" d="M282.41 537.34c1.12,-1.72 3.92,-5.17 5.62,-6.9 7.53,-7.69 18.75,-9.63 29.05,-7.28 6.99,1.6 12.33,5.99 15.26,9.84 4.84,6.36 4.14,11.42 5.47,20.28 4.56,-0.6 20.24,-7.28 22.74,-9.44 1.54,-18.21 1.86,-33.65 -9.2,-43.86 -2.54,-2.34 -4.87,-3.76 -7.72,-6.16 -1.4,-1.18 -2.14,-1.96 -3.79,-2.8 -9.05,-4.61 -14.84,-7.83 -26.41,-8.37 -8.45,-0.39 -16.4,1.01 -22.79,4.7 -9.25,5.32 -7.97,5.45 -14.05,13.7 -4.28,5.81 -9.34,9.41 -5.08,19.54 2.62,6.21 6,14.34 10.9,16.75z"/>
   <path class="fil2" d="M538.12 653.91c-0.08,-2.3 -2.1,-10.09 -2.84,-12.86 -1.29,-4.86 -4.05,-7.67 -6.11,-10.27 -4.57,0.73 -4.38,2.77 -10.75,2.88 -8.54,0.15 -5.2,-1.21 -10.03,-4.05 -16.52,-9.72 -44.71,-136.17 -52.56,-153.83 -3.68,-8.28 -13.9,-3.45 -19.79,-21.77 -1.84,-5.74 -22.34,-18.3 -30.4,-25.15 -15.62,-13.29 -25.3,-28.89 -37.15,-45.48 -8.52,-11.94 -5.16,-15.02 -13.54,-14.17 -0.69,7.89 6.34,14.68 9.87,19.19 2.34,2.99 3.39,5.51 6.24,8.31 5.51,5.41 14.43,16.89 20.19,23.43 6.32,7.19 22.63,31.08 25.21,33.61 4.02,3.95 12.84,6.42 18.23,10.8 9.27,7.51 14.88,25.76 17.31,41.45 1.32,8.57 0.81,19.24 1.13,28.11 0.19,5.31 1.12,22.39 2.65,26.5 1.27,3.42 3.84,0.89 11.9,9.88 6.25,6.98 10.61,13.14 13.59,23.48 2.4,8.3 2.81,16.22 4.85,24.3 2.41,9.59 5.16,11.98 13.5,15.53 3.54,1.51 7.21,2.73 11,3.48 8.11,1.62 19.67,-2.94 21.48,7.56 1,5.81 -1,8.71 6.02,9.07z"/>
   <path class="fil2" d="M460.48 181.05c3.51,2.94 27.23,9.47 33.56,11.25 7.5,2.11 12.18,0.1 18.08,-2.97 13.84,-7.21 30.82,-14.01 45.72,-21.62 4.41,-2.26 10.68,-5.33 15.29,-7.16 5.58,-2.21 11.97,-3.94 14.59,-7.98 -1.08,-2.14 -4.34,-3.61 -6.47,-4.87 -33,-19.58 -82.35,3.33 -108.34,23.39 -3.26,2.52 -11.24,6.42 -12.43,9.96z"/>
   <path class="fil2" d="M262.14 484.96c3.67,-3.03 9.91,-15.72 27.21,-24.08 11.76,-5.68 33.02,-5.26 46.8,-3.35 19.95,2.78 37.48,14.81 46.47,30.88 6.4,11.44 3.12,15.83 5.95,20.32 5.24,-4.2 7.93,-18.72 5.81,-26.83 -3.91,-14.91 -16.85,-31.58 -28.83,-39.91 -7.38,-5.13 -13.98,-7.97 -24.97,-9.31 -33.61,-4.09 -53.98,-1.15 -73.24,25.96 -3.08,4.34 -10.85,19.63 -5.2,26.32z"/>
   <path class="fil2" d="M453.32 371.99c-1.37,5.18 3.13,11.87 5.55,13.97 3.52,3.07 10.85,2.81 16.21,3.58 11.93,1.74 23.09,3.62 35.35,4.3 5.87,0.33 11.54,1.77 17.24,2.53 6.05,0.8 12.51,0.35 18.47,1.25 3.83,0.57 14.55,3.4 17.26,0.19 3.62,-4.31 2.9,-14.73 1.48,-17.06 -1.51,-2.49 -29.72,-27.43 -31.59,-27.92 -3.76,-0.98 -10.67,3.59 -14.15,5.16 -8.47,3.85 -20.19,7.48 -29.94,9.62 -7.15,1.57 -11.09,1.09 -17.91,1.93 -2.8,0.34 -5.72,1.06 -8.4,1.53 -3.51,0.62 -6.25,0.4 -9.57,0.92z"/>
   <path class="fil2" d="M501.77 453.42c4.87,2.03 9.88,3.28 12.28,7.57 1.66,2.97 5,11.13 6.99,12.55 3.96,-2.15 4.53,-3.54 7.65,-5.92 3.86,-2.96 4.42,-1.96 7.6,-6.28 4.21,-5.73 8.08,-10.52 11.44,-17.01 5.68,-10.99 12.98,-27.7 15.05,-41.46 -8,-0.39 -14.64,-2.68 -22.63,-3.25 -8.12,-0.57 -16.32,-1.19 -24.52,-1.63 -1.03,8.01 -4.43,19.94 -6.43,28.16 -1.07,4.39 -2,9.7 -3.36,13.86 -1.49,4.55 -4.55,7.62 -4.07,13.41z"/>
   <path class="fil2" d="M289.29 619.84l2.64 -0.63 26.27 -40.58c4.5,-7.14 8.95,-14.44 12.75,-22.3 4.05,-8.36 -0.16,-18.96 -7.73,-24.77 -7.23,-5.55 -17.24,-6.86 -26.19,-2 -9.46,5.15 -13.08,9.82 -11.67,23.62 1.07,10.36 1.95,21.84 2.61,32.36 0.71,11.38 -0.13,23.25 1.32,34.3z"/>
   <path class="fil2" d="M570.47 273.03c5.54,-1.61 14.69,-6.36 20.6,-9 4.7,-2.11 5.85,-1.85 7.41,-7.13 5.78,-19.51 13.33,-42.99 7.89,-63.36 -3.45,0.73 -32.81,16.94 -34.94,18.93 -2.36,2.19 -9.06,4.32 -12.11,6.38 -5.42,3.67 -3.99,5.66 -1.85,13.03 2.17,7.49 10.67,38.46 13,41.15z"/>
   <path class="fil2" d="M517.32 476c-0.38,-3.54 -2.13,-4.48 -3.65,-7.36 -0.67,-1.28 -1.09,-2.28 -1.56,-3.73 -2,-6.27 -5.23,-5.98 -17.6,-10.78 -10.67,-4.15 -21.03,-8.35 -31.72,-12.5 -10.75,-4.18 -21.06,-8.46 -31.51,-12.72 -8.98,-3.66 -23.17,-10.01 -32.72,-11.79 1.41,2.61 9.46,10.46 11.48,11.94 6.83,4.99 25.4,15.68 27.64,19.91 3.35,6.34 3.02,11.38 9.11,15.36 2.56,1.68 5.36,2.81 7.65,4.22 4.86,2.99 4.01,4.05 5.44,6.47 4.03,6.86 31.68,8.95 39.28,7.26 6.22,-1.38 13.43,-3.92 18.16,-6.28z"/>
   <path class="fil2" d="M290.72 354.92c0.4,-2.27 -0.55,-15.06 -0.88,-18.23 -0.57,-5.59 -5.63,-7.93 -8.82,-11.11 -2.82,-2.82 -11.63,-12.81 -13.63,-16.12 -4.52,-7.5 -14.65,-24.02 -19.37,-30.2 -2.82,-3.7 -6.23,-6.97 -13.72,-6.26 -3.51,0.33 -3.65,2.05 -5.44,4.54l-8.39 11.46c-4.54,6.22 -14.87,10.18 10.39,27.36l47.37 31.89c6.28,4.37 8.08,6.86 12.49,6.67z"/>
   <path class="fil2" d="M206.81 402.95l17.74 38.28c11.28,-1.97 33.21,-22.05 42.13,-28.3 11.18,-7.83 31.92,-20.75 34.26,-36.41 -8.03,2.44 -5.19,11.84 -44.93,14.85 -4.49,0.34 -10.82,-0.2 -14.89,0.55 -5.32,0.97 -4.18,4.86 -7.94,7.22 -6.57,4.12 -18.98,-1.45 -26.37,3.81z"/>
   <path class="fil2" d="M121.25 166.91c3.06,2.31 8.14,4.77 11.61,6.85 15.6,9.35 32.1,17.92 47.85,27.42 14.88,8.97 14.53,2.71 29.21,0.4 8.58,-1.35 8.4,-0.6 14.53,-4.54 -2.18,-4.99 -13.7,-13.24 -19.29,-17.13 -3.6,-2.51 -7.18,-4.83 -11.36,-7.11 -5.05,-2.75 -8.04,-2.94 -13.69,-4.8 -11.66,-3.85 -14.43,-6.81 -28.79,-7.3 -11.18,-0.39 -24.5,-1.33 -30.07,6.21z"/>
   <path class="fil2" d="M150.39 263.85c3.44,3.02 22.77,14.53 27.84,17.97 11.94,8.12 17.83,7.93 31.1,-4.03 3.81,-3.43 11.4,-10.95 13.1,-17.83 -7.71,-2.74 -57.71,-26.51 -61.77,-27.1 -4.03,7.14 -9.83,21.2 -10.27,30.99z"/>
   <path class="fil2" d="M519.78 241.99c3.72,8.29 7.77,9.38 -7.81,19.37 -3.17,2.02 -5.57,1.86 -5.98,5.65 9.51,2.16 13.86,-3.2 19.57,4.88 3.27,4.62 6.23,10.3 9.31,15.15 3.53,5.52 4.26,3.05 14.88,-2.94 4.11,-2.33 11.57,-6.93 16.39,-8.06 -1.56,-8.48 -4.68,-18.27 -6.98,-26.68 -2.47,-9.01 -4.26,-17.54 -7.67,-25.38 -4.31,0.96 -28.84,14.89 -31.71,18.01z"/>
   <path class="fil2" d="M387.33 287.63c0.94,-5.91 3.25,-2.12 4.3,-8.3 -3.57,0.25 -4.05,1.67 -8.28,5.76 -1.46,1.41 -2.56,1.97 -4.02,3.28 -1.52,1.35 -2.18,2.28 -3.71,3.53 -3.28,2.7 -12.53,11.19 -13.89,14.92l1.68 1.93c9.98,-3.02 14.4,-18.01 23.47,-20.6 -1.49,5.45 -3.21,7.16 -7.36,9.67 -8.34,5.04 -22.41,26.89 -16.31,31.25 4.65,3.34 19.92,-14.33 22.77,-16.81l7.55 -6.34c2.79,-2.58 3.72,-4.05 4.81,-8.37 3.67,-14.6 4.86,-16.93 13.01,-28.69 5.38,-7.76 14.32,-17.77 25.01,-13.29 7.69,3.23 -6.09,4.12 18.33,8.77 5.8,1.11 10.57,4.08 15.03,7.43 1.74,1.31 2.06,0.46 3.95,1.31 1.76,0.78 3.4,4.34 7.82,6.08 2.84,-1.39 4.19,-3.82 5.29,-6.7 -3.99,-4.28 -10.8,-5.79 -17.16,-12.5l-10.67 -7.24c-6.94,-5.05 -13.45,-11.45 -19.64,-16.02 -1.9,-1.41 -6.59,-4.98 -8.79,-1.57 -4,6.21 5.19,10.18 -9.82,14.02 -8.73,2.24 -6.97,6.41 -10.7,13.06 -3.17,5.66 -18.34,23.07 -22.67,25.42z"/>
   <path class="fil2" d="M454.71 244.05c3.77,6.54 10.65,7.16 14.53,12.26 1.93,2.54 0.28,2.13 3.24,3.4 17.61,7.53 15.1,16.07 31.12,3.84 3.38,-2.58 12.43,-10.03 15.73,-11.42 0,-4.79 -10.04,-25.62 -13.2,-29.96 -5.47,-0.15 -47.23,18.71 -51.42,21.88z"/>
   <path class="fil2" d="M123.62 287.13c2.85,-4 7.51,-30.94 8.4,-38.56 0.67,-5.75 2.59,-8.34 3.06,-13.2l-27.47 -18.34c-4.18,-2.69 -6.7,-5.28 -9.75,-5.47 -1.96,4.84 0.33,15.97 1.12,21.98 0.5,3.87 0.98,7.44 1.44,11.31 0.56,4.68 1.9,6.91 2.42,10.62 1.72,12.17 4.48,29.2 20.78,31.66z"/>
   <path class="fil2" d="M161.41 311.01c0.95,-1.83 2.4,-3.79 3.42,-6.41 1.04,-2.64 1.73,-5.37 2.92,-7.66 3.33,-6.37 8.94,-6.18 11.6,-9.43 -2.04,-2.12 -19.69,-13.31 -24.58,-16.55 -2.59,-1.72 -6.7,-3.51 -8.18,-6.45 0.07,-7.33 4.72,-14.69 4.36,-16.96 -0.48,-3 -2.97,-4.05 -5.35,-5.79 -2.21,-1.61 -3.46,-3.57 -7.34,-3.62 -4.38,10.56 -6.74,32.76 -10.71,48.28 -1.45,5.65 10.69,11.24 14.86,13.53l19 11.06z"/>
   <path class="fil2" d="M171.19 401.71c-3.46,11.84 13.8,35.67 16.67,42.01 2.54,5.61 4.43,9.6 8.26,12.32 3.47,-3.55 1.02,-5.98 10.8,-7.79 7.38,-1.38 8.58,-2.84 13.74,-4.74 -1.09,-4.53 -4.9,-12.05 -6.9,-16.56 -2.55,-5.75 -4.82,-10.87 -7.29,-16.52 -3.14,-7.22 -3.9,-9.6 -12.96,-10.23 -5.15,-0.35 -18.39,-0.17 -22.32,1.51z"/>
   <path class="fil2" d="M539.9 293.66l19.3 29.85c6.81,-1.67 15.48,-17.55 20,-25.06 3.18,-5.3 15.19,-23.69 13.27,-30.88 -1.78,-0.11 -10.61,4.73 -13.05,5.95 -7.76,3.89 -36.37,17.42 -39.52,20.14z"/>
   <path class="fil2" d="M144.68 349.86c2.8,-2.39 14.07,-30.01 14.63,-35.67l-23.46 -14.92c-5.97,-3.31 -17.94,-12.32 -24.68,-13.75 4.74,18.93 22.39,49.1 33.51,64.34z"/>
   <path class="fil2" d="M210.62 294.21c17.94,-14.51 21.38,-43.7 45.86,-9.55 5.91,8.25 10.89,18.34 16.83,26.15 1.73,2.28 3.23,3.22 5,5.57 4.65,6.15 9.31,13.27 17.89,15.19 -1.62,-13.01 -11.3,-33.07 -21.16,-41.05 -5.07,-4.1 -7.68,-9.08 -14.08,-13.01 -3.84,-2.35 -7.81,-4.38 -11.13,-6.7 -2.78,-1.94 -7.11,-6.15 -9.18,-8.65 -4.4,-5.32 -3.25,-5.18 -12.89,-5.15 -1.94,0.61 -1.11,2.54 -2.55,6.28 -3.92,10.23 -18.65,18.48 -20.85,22.19 -2.29,3.85 3.49,7.67 6.26,8.73z"/>
   <path class="fil2" d="M211.86 472.5c3.28,3.36 12.11,5.95 18.12,6.47 7.42,0.64 14.79,-1.19 20.84,-3.81 8.31,-3.61 6.18,-7.65 7.93,-17.18 1.37,-7.51 4.6,-12.66 6.06,-19.5 -4.3,1.16 -10.04,5.39 -14.11,7.43 -4.92,2.45 -9.75,4.61 -14.91,6.87 -9.77,4.29 -21.75,10.38 -23.93,19.72z"/>
   <path class="fil2" d="M270.59 241.49l11.56 -10.41c4.76,-4.76 2.19,-7.18 -2.35,-13.57 -5.35,-7.54 -13.97,-19.73 -20.49,-23.81 -6.71,-4.2 -9.6,2.27 -11.43,7.58 -2.81,8.11 -3.03,10.7 1.98,16.5l20.73 23.71z"/>
   <path class="fil2" d="M483.61 365.09c11.79,-0.92 40.11,-10.37 44.58,-15.79 -1.91,-4.88 -8.79,-9.78 -13.48,-13.5 -7.71,-6.09 -11.86,-12.21 -15.47,-9.13 -4.34,3.7 -15.48,30.04 -15.63,38.42z"/>
   <path class="fil2" d="M341.22 257.32c-2.62,15.08 -6.01,17.8 0.74,32.16 10.26,0.26 9.4,-0.93 15.26,-5.48 11.57,-8.98 17.16,-31.4 8.82,-47.8 -4.15,4.46 -2.98,18.98 -14.69,22.75 -5.13,1.66 -6.38,-0.34 -10.13,-1.63z"/>
   <path class="fil2" d="M287.68 221.92c-1.9,-9.73 -17.69,-28.13 -23.72,-36.19 -5.68,-7.61 -5.58,-9.06 -11.55,-7.08 -17.23,5.73 -27.45,60.97 -23.57,66.26 1.53,2.09 5.58,0.11 6.63,-1.12 2.48,-2.89 2.66,-12.81 3.15,-17.29 0.92,-8.4 6.68,-45.34 20.59,-36.66 4.6,2.88 16.2,15.53 19.73,20.58 2.73,3.9 5.42,9.18 8.74,11.5z"/>
   <path class="fil2" d="M173.8 377.04c-1.85,4.15 -6.01,6.67 -4.55,15.84 0.44,2.76 0.71,3.74 2.42,4.97 2.44,1.29 40.7,-0.34 49.5,0.02 6,0.24 11.85,1.9 11.1,-5.49 -3.09,-1.88 -24.77,-1.2 -45.44,-9.89 -4.03,-1.69 -8.8,-4.44 -13.03,-5.45z"/>
   <path class="fil2" d="M263.94 262.36c-0.18,10.87 1.88,10.04 8.83,20.49 5,7.52 7.52,10.13 19.6,9.57 2.93,-8.99 4.74,-10.67 -0.61,-22.69 -2.52,-5.67 -5.8,-14.39 -9.96,-18.38 -1.48,2.04 -0.29,6.55 -4.65,9.8 -3.83,2.86 -8.37,1.71 -13.21,1.21z"/>
   <path class="fil2" d="M327.3 222.01c2.03,-4.97 16.31,-44.87 25.02,-42.96 4.75,1.05 17.57,35.4 19.98,41.54 3.35,8.51 3.88,12.04 9.23,12.17 3.36,-7.17 -0.15,-12.84 -3.37,-18.72 -2.92,-5.35 -5.03,-10.8 -7.95,-16.51 -4.3,-8.4 -11.69,-28.61 -19.21,-30.47 -4.39,3.32 -12.61,18.9 -15.49,24.92 -2.21,4.62 -3.71,9.98 -5.2,15.32 -1.27,4.53 -5.41,11.81 -3.01,14.71z"/>
   <path class="fil2" d="M297.31 405.2c7.02,-1.35 7.36,-3.65 21.85,-5.69 11.95,-1.68 35.63,1.01 45.8,7.3 2.92,1.8 5.69,3.64 8.49,5.38 2.9,1.78 5.59,4.03 8.79,5.26 -0.24,-3.29 -3.88,-6.73 -6.81,-9.91 -10,-10.87 -3.37,-6.59 -12.24,-13.52 -5.96,-4.64 -12.86,-5.71 -20.02,-2.91 -18.43,7.2 -18.71,1.54 -26.92,-0.93 -3.07,-0.92 -15.48,7.67 -17.34,11.35 -0.13,0.27 -0.64,1.4 -0.66,1.44 -0.55,1.24 -0.29,-0.06 -0.94,2.23z"/>
   <path class="fil2" d="M178.61 374.85c4.97,3.3 22.44,11 29.64,10.49 1.68,-7.78 -6.5,-26.12 -9.37,-32.08 -6.45,1.01 -7.81,6.24 -11.35,9.93 -2.87,2.99 -7.64,6.71 -8.92,11.66z"/>
   <path class="fil2" d="M352.3 231.18c-11.03,4.44 -14.51,27.44 -2.18,23.96 6.07,-1.72 11.72,-15 8.92,-21.25 -1.01,-2.27 -3.55,-3.99 -6.74,-2.71z"/>
   <path class="fil2" d="M273.97 259.17c1.32,-2.47 4.79,-4.62 2.68,-9.35 -3.59,-8.02 -16.37,-2.96 -13.01,5.73 1.77,4.57 5.16,3.6 10.33,3.62z"/>
  </g>
 </g>
</svg>
