<?xml version="1.0" encoding="UTF-8"?>
<!DOCTYPE svg PUBLIC "-//W3C//DTD SVG 1.1//EN" "http://www.w3.org/Graphics/SVG/1.1/DTD/svg11.dtd">
<!-- Creator: CorelDRAW 2017 -->
<svg xmlns="http://www.w3.org/2000/svg" xml:space="preserve" width="7.6198mm" height="7.6198mm" version="1.1" style="shape-rendering:geometricPrecision; text-rendering:geometricPrecision; image-rendering:optimizeQuality; fill-rule:evenodd; clip-rule:evenodd"
viewBox="0 0 761.98 761.98"
 xmlns:xlink="http://www.w3.org/1999/xlink">
 <defs>
  <style type="text/css">
   <![CDATA[
    .fil1 {fill:none}
    .fil2 {fill:#FEFEFE}
    .fil0 {fill:#73C4B8}
    .fil3 {fill:white}
   ]]>
  </style>
 </defs>
 <g id="Capa_x0020_1">
  <metadata id="CorelCorpID_0Corel-Layer"/>
  <path class="fil0" d="M48.55 719.65l664.87 0c3.43,0 6.23,-2.8 6.23,-6.23l0 -436.93c0,-128.8 -105.37,-234.17 -234.17,-234.17l-436.93 0c-3.43,0 -6.23,2.8 -6.23,6.23l0 664.87c0,3.43 2.8,6.23 6.23,6.23z"/>
  <rect class="fil1" x="-0" y="-0" width="761.99" height="761.99"/>
  <g id="_1818954776880">
   <path class="fil2" d="M548.63 616.44l12.65 0.76c-6.64,5.42 2.81,2.39 -6.79,3.7 -12.54,1.71 -5.43,-2.76 -5.86,-4.46z"/>
   <path class="fil3" d="M251.15 320.19c-2.3,5.3 -8.2,28.32 4.15,35.28 11.16,-6.14 9.21,-35.75 5.65,-41.84 -7.33,0.9 -6.43,-1.23 -9.8,6.56zm244.87 89.93c-0.56,-0.57 -1.29,-2.33 -1.54,-1.85 -0.05,0.12 -33.96,-49.81 -47.97,-36.69 -9.88,20 -1.92,60.79 -1.48,85.31l-31.19 7.85c-3.31,-27.17 -11.13,-68.86 -31.53,-79.03 -26.9,6.27 -23.79,48.25 -36.69,70.08 -52.32,-35.19 -29.97,-114.8 -14.05,-175.29l-6.73 9.02c-1.51,2.57 -3.24,6.47 -4.45,9.66 -12.44,32.73 -20.19,110.38 1.89,141.73 5.68,8.07 11.38,12.43 17.81,18.78 10.65,10.54 12.7,32.05 47.96,26.37 17.39,-2.8 14.74,-9.14 23.26,-14.36 14.5,-8.88 58.99,-9.9 60.14,-10.15 38.3,-8.18 32.46,-72.46 19.86,-107.9 -9.1,-25.57 -36.45,-81.92 -59.27,-91.88 25.1,41.08 65.09,87.84 63.98,148.35zm189.87 24.87c-8.99,12.04 -17.45,17.28 -28.8,26.59 -1.02,-2.59 -2.75,-8.08 -3.79,-10.2 -0.29,-0.59 -0.63,-1.34 -0.95,-1.92 -0.32,-0.58 -0.75,-1.31 -1.09,-1.85 -2.46,-3.89 -1.34,-2.41 -4.07,-5.02 7.96,51.62 10.72,65.59 0.5,119.05 -13,67.96 -16.43,64.89 -76.8,61.02 -4.87,-5.6 -5,-5.73 -10.26,-10.97 -6.77,-6.74 -5.21,-5.51 -9.81,-15.61 -17.52,-38.46 -15.34,-33.98 -114.89,-33.98l-6.05 -12.07c-6.38,20.87 -22.31,48.54 -31,67.44 -83.64,0.63 -55.11,-2.37 -75.97,-81.26 -13.27,4.07 8.44,-5.98 -3.43,2.15 -3.02,2.07 -2.11,1.4 -4.02,2.84l-5.55 5.09c8.34,8.53 11.33,8.27 14.89,24.46 2.75,12.5 5.63,25.34 4.46,38.55 -4.87,3.32 -4.01,2.84 -9.04,7.32 -19.9,-8.19 -28.49,-91.01 -32.18,-113.12 -6.3,-37.76 -0.78,-30.71 -22,-51.63 -9.02,-8.89 -28.96,-28.01 -32.74,-39.49 14.56,3.79 27.24,34.88 42.24,35.22 13.33,0.31 3.05,1.19 7.87,-2.68 6.17,-8.36 4.09,-25.65 1.32,-37.13 -14.46,-2.45 -5.07,8.94 -22.03,5.33 -8.62,-1.84 -15.6,-8.77 -24.7,-11.97 -9.36,6.87 -6.13,8.26 -29.16,23.34 -10.75,7.04 -23.91,14.27 -35.36,21.19 -25.32,15.31 -49.05,33.12 -75.68,8.54l19.04 8.41c-1.01,-8.53 -0.06,-8.21 -10.16,-12.2l-11.73 -2.76c-0.78,-0.15 -1.65,-0.29 -2.35,-0.42 -13.59,-2.49 -17.11,-20.19 -16.44,-22.68l52.14 -47.69c26,17.72 34.02,55.06 70.54,20.8 15.06,-14.12 14.98,-20.36 2.52,-39.13 -8.24,-12.4 -18.37,-23.23 -27.83,-30.78 10.29,-27.24 68.71,-96.05 107.67,-118.72 73.37,-42.7 140.19,6.54 190.49,56.93 30.61,30.66 42.7,50.2 89.6,79.65 30.25,18.99 40.07,27.63 60.49,52.5 23.75,28.93 8.02,24.19 22.68,24.9 11.09,0.54 33.11,6.46 41.43,11.96z"/>
   <path class="fil2" d="M121.23 369.47c0.64,-16.56 25.87,-44.1 38.05,-43.97 9.72,0.1 35.57,31.86 41.12,42.73 11.16,21.84 -20.25,44.16 -35.3,35.35 -3.57,-2.09 -17.04,-17.36 -21.14,-21.56 -15.13,-15.5 -14.34,-7.68 -22.73,-12.55z"/>
   <path class="fil2" d="M550.25 610.62c-15.61,-4.29 -17.32,-2.74 -23,-16.36 -3.31,-7.92 -7.33,-15.23 -8.66,-23.62l14.1 1.9 17.56 38.08z"/>
   <path class="fil2" d="M281.72 442.69c-12.45,-2.39 -22.37,-9.44 -22.21,-21.4l20.21 -4.34 2 25.74z"/>
   <path class="fil2" d="M254.36 422.15c-6.81,-4.75 -5.17,-3.44 -9.45,-10.53 9.42,2.42 9.73,1.09 9.45,10.53z"/>
   <path class="fil2" d="M379.48 391.71c14.39,6.34 21.36,30.58 25.37,48.42 5.49,24.47 -0.94,40.91 -25.5,41.37 -25.63,0.47 -29.89,-16.52 -23.01,-39.22 5.16,-17.07 13.02,-40.35 23.14,-50.57z"/>
   <path class="fil2" d="M452.54 454.66c-6.61,-15.62 -4.03,-58.62 -2.81,-79.5 14.16,3.96 36.31,25.3 40.47,41.57 6.69,26.17 -12.78,48.14 -37.66,37.93z"/>
  </g>
 </g>
</svg>
