<?xml version="1.0" encoding="UTF-8"?>
<!DOCTYPE svg PUBLIC "-//W3C//DTD SVG 1.1//EN" "http://www.w3.org/Graphics/SVG/1.1/DTD/svg11.dtd">
<!-- Creator: CorelDRAW 2017 -->
<svg xmlns="http://www.w3.org/2000/svg" xml:space="preserve" width="7.6198mm" height="7.6198mm" version="1.1" style="shape-rendering:geometricPrecision; text-rendering:geometricPrecision; image-rendering:optimizeQuality; fill-rule:evenodd; clip-rule:evenodd"
viewBox="0 0 761.98 761.98"
 xmlns:xlink="http://www.w3.org/1999/xlink">
 <defs>
  <style type="text/css">
   <![CDATA[
    .fil0 {fill:none}
    .fil2 {fill:#FEFEFE}
    .fil1 {fill:#ED6B9A}
   ]]>
  </style>
 </defs>
 <g id="Capa_x0020_1">
  <metadata id="CorelCorpID_0Corel-Layer"/>
  <rect class="fil0" x="-0" y="-0" width="761.99" height="761.99"/>
  <path class="fil1" d="M48.56 719.65l664.86 0c3.43,0 6.23,-2.8 6.23,-6.23l0 -436.92c0,-128.8 -105.37,-234.17 -234.17,-234.17l-436.92 0c-3.43,0 -6.23,2.8 -6.23,6.23l0 664.86c0,3.43 2.8,6.23 6.23,6.23z"/>
  <path class="fil2" d="M168.86 151.92l81.68 0 0 71.43c-30.99,7.21 -78.71,50.41 -98.97,77.98 -22.09,30.05 -45.68,81.35 -45.68,132.93l0 2.56c0.19,53.46 6.4,83.1 32.4,128.34 3.07,5.33 7.73,12.1 11.58,17.34 41.08,55.9 113.89,98.38 182.35,98.38l2.1 0c43.93,-0.08 73.36,-2.81 113.08,-22.65 41.62,-20.8 64.68,-42.14 91.24,-77.2l20.91 -35.23c20.42,-49.6 22.76,-61.56 22.83,-114.11l0 -2.54c0,-44.74 -21.86,-95.71 -46.4,-128.8 -20.3,-27.35 -67.1,-69.35 -99.95,-77l0 -71.43 79.98 0 0 -45.93 -347.15 0 0 45.93zm162.75 220.15c-35.12,6.89 -64.5,38.75 -58.67,82.36 4.76,35.41 39.48,65.36 82.77,59.27 91.39,-12.84 70.63,-160.23 -24.1,-141.63zm1.18 14.31c-84.85,23.42 -43.16,129.41 22.93,113.92 78.7,-18.45 47.75,-133.43 -22.93,-113.92zm-1.84 8.42c-63.18,17.34 -38.92,113.7 27.48,96.21 59.35,-15.61 39.34,-114.55 -27.48,-96.21zm232.56 91.79l-126.52 0.31c-39.07,77.54 -147.33,76.74 -186.18,-0.17l-126.15 -0.28c12.3,95.91 110.05,180.76 219.48,180.54 57.63,-0.12 113.91,-26 145.64,-53.13 19.36,-16.57 30.78,-29.78 45.75,-54.7 13.57,-22.58 22.35,-42.9 27.98,-72.57zm-382.6 -346.6l79.99 0.32 0.34 94.93c-36.73,11.43 -68.31,41.07 -88.06,62.17 -20.55,21.96 -43.41,61.42 -48.55,101.11l126.37 0.5c11.37,-22.08 31.59,-41.18 56.24,-50.98 31.69,-12.58 58.69,-7.92 86.59,5.92 48.13,23.89 20.96,45.32 62.61,45.02 35.06,-0.25 72.31,1.41 107.02,-0.19 -6.56,-42.35 -31.34,-82.61 -52.51,-105.82 -21.18,-23.22 -51.44,-44.82 -80.88,-56.9 -6.23,-2.55 -10.37,-2.43 -12.79,-7.62l0.03 -88.15 83.65 -0.01 -0.42 -24.95 -318.77 -0.2 -0.86 24.85z"/>
 </g>
</svg>
