<?xml version="1.0" encoding="UTF-8"?>
<!DOCTYPE svg PUBLIC "-//W3C//DTD SVG 1.1//EN" "http://www.w3.org/Graphics/SVG/1.1/DTD/svg11.dtd">
<!-- Creator: CorelDRAW 2017 -->
<svg xmlns="http://www.w3.org/2000/svg" xml:space="preserve" width="7.6198mm" height="7.6198mm" version="1.1" style="shape-rendering:geometricPrecision; text-rendering:geometricPrecision; image-rendering:optimizeQuality; fill-rule:evenodd; clip-rule:evenodd"
viewBox="0 0 761.98 761.98"
 xmlns:xlink="http://www.w3.org/1999/xlink">
 <defs>
  <style type="text/css">
   <![CDATA[
    .fil0 {fill:none}
    .fil1 {fill:#F58634}
    .fil2 {fill:#BB9E65}
    .fil3 {fill:#F8F8F8}
    .fil7 {fill:#FBFBFB}
    .fil4 {fill:#FCFCFC}
    .fil5 {fill:#FDFDFD}
    .fil6 {fill:#FEFEFE}
   ]]>
  </style>
 </defs>
 <g id="Capa_x0020_1">
  <metadata id="CorelCorpID_0Corel-Layer"/>
  <rect class="fil0" x="-0" y="-0" width="761.99" height="761.99"/>
  <g id="_2350840403120">
   <path class="fil1" d="M42.33 42.34l465.24 0c57.14,6.74 104.34,30.26 143.27,68.8l-608.51 608.51 0 -677.31z"/>
   <path class="fil2" d="M719.64 261.46l0 458.19 -677.31 0 608.51 -608.51c40.45,43.45 64.02,93.23 68.8,150.32z"/>
  </g>
  <g id="_2350840462960">
   <path class="fil3" d="M319.26 528.73c-27.35,-0.05 -52.56,-3.9 -78.56,-11.3 -8.13,-2.31 -14.89,-5.65 -22.12,-7.7 10.96,10.81 47.08,21.61 67.49,24.05 25.2,3.02 65.85,1.56 90.73,-2.18 37.52,-5.64 113.37,-26.11 130.46,-57.13 -15.38,10.06 -14.83,13.21 -38.18,22.04 -47.75,18.06 -96,32.33 -149.82,32.22z"/>
   <path class="fil3" d="M558.44 511.14l3.37 4.08c12.75,-4.2 43.37,-53.94 49.86,-74.5 6.2,-19.66 27.33,-85.88 17.73,-106.07 -0.31,0.54 -4.97,44.73 -6.9,52.81 -3.92,16.38 -9.43,31.35 -15.45,46.82 -22.18,56.92 -45.83,70.58 -48.61,76.86z"/>
   <path class="fil4" d="M194.13 242.8c13.92,46.08 -6.21,33.85 1.3,56.88 2.28,6.96 10.58,14.15 18.23,15.48 9.63,1.69 23.75,1.6 31.34,-2.69 -14.52,-0.72 -29.57,0.04 -39.08,-8.03 -10.35,-8.79 -8.6,-22.43 -1.27,-33.4 11.63,-17.42 41.48,-26.39 70.62,-21.93 -2.67,-15.78 -16.2,-27.09 -35.21,-23.28 -5.73,1.15 -43,14.45 -45.93,16.97z"/>
   <path class="fil4" d="M544.83 173.6c0.08,13.95 -2.95,19.51 7.73,25.62 5.7,-3.15 3.59,-5.27 10.1,-6.97 -0.87,17.62 -14.15,17.66 5,38.73 4.56,-2.08 0.77,-0.35 5.05,-3.38 7.33,-5.19 11.02,-5.58 21.74,-4.94 -2.97,-30.04 -18.56,-28.1 -28.24,-30.34 2.3,-6.96 8.61,-9.51 1.47,-16.98 -3.6,-3.76 -11.57,-5.45 -18.24,-6.7 0.71,-29.62 -36.91,-33.87 -19.31,-6.22 3.66,5.74 4.96,6.77 9.5,8.92 0.49,0.23 2.1,0.89 2.55,1.09l2.65 1.17z"/>
   <path class="fil5" d="M151.29 594.08c0.96,-5.19 2.45,-9.75 2.44,-17.14 -0.07,-52.05 42.04,-63.07 49.39,-69.17 -3.23,-4.12 -6.05,-7.39 -9.96,-11.65 -4.11,-4.5 -5.91,-7.78 -9.51,-12.03 -12.35,0.86 -29.25,17.86 -35.08,24.19 -39.65,42.99 -3.74,73.85 0.77,83 16.79,34.09 82.06,50.04 119.17,54.14 70.66,7.81 188.17,5.6 250.73,-31.1 36.18,-21.22 30.27,-24.34 36.9,-35.38 5.64,-9.38 11.79,-10.04 10.06,-34.14 -1.15,-16.08 -12.99,-28.31 -20.81,-36.58 -25.75,-27.23 -53.47,-9.87 -81.16,6.71 10.45,9.8 22.44,8.57 34.95,34.75 8.58,17.98 5.72,41.75 0.28,58.99 18.4,-3.57 34.65,-17.32 50.06,-21.43 -0.67,7.19 -0.69,5.5 -7.3,9.72 -10.49,6.7 -18.51,10.25 -31.05,14.44 -81.8,27.31 -193.64,34.45 -277.38,22.62 -39.26,-5.55 -55.75,-20.67 -82.5,-39.94z"/>
   <path class="fil5" d="M361.05 426.72c70.86,-9.69 90.03,-52.57 134.23,-36.18 -15.13,-18.68 -55.48,-18.87 -81.12,-13.55 -21.63,4.48 -23.9,17.01 -40.21,35.58 -3.7,4.21 -10.26,8.54 -12.9,14.15z"/>
   <path class="fil5" d="M442.86 403.04c0.41,0.3 1.1,0.07 1.37,0.69 1.63,3.75 20.41,-2.63 39.32,21.55 9.05,11.57 16.82,27.37 15.26,46.74 38.1,-24.25 18.47,-75.44 -18.44,-79.01 -15.12,-1.47 -25.61,6.47 -37.51,10.03z"/>
   <path class="fil5" d="M584.45 312.16c7.72,-0.4 7.85,-3.6 15.42,-5.09 9.26,-1.82 12.11,0.97 19.82,1.36 9.33,-17.99 -6.71,-42.77 -25.09,-40.71 -7.36,0.82 -31.58,15.81 -10.15,44.44z"/>
   <path class="fil5" d="M576.41 270.73c16.45,-10.57 7.32,-10.5 33.54,-8.59 1.1,-33.49 -35.84,-48.81 -39.76,-13.88 -1.42,12.69 1.3,15 6.22,22.47z"/>
   <path class="fil5" d="M257.2 156.45c-16.21,6.88 -17.49,40.75 8.57,42.31 7.9,0.47 8.83,-1.15 9.33,-8.3 1.37,-19.68 -9.54,-37.56 -17.9,-34.01z"/>
   <path class="fil6" d="M143.02 216.87c3.4,4.99 4.4,5.82 0,10.25 -4.22,-3.26 -6.41,-6.31 0,-10.25zm16.06 14.52c0.87,-6.8 3.36,-11.25 10.07,-10.09 -1.09,7.71 -2.85,7.62 -10.07,10.09zm8.56 -53.7c18.83,5.51 48.05,-7.81 64.19,-14.29 18.88,-7.57 32.62,-28.5 57.67,-12.26 30.43,19.72 -8.25,74.57 -42.46,47.84 -8.24,-6.43 -8.32,-19.46 -6.6,-32.51 -16.01,5.21 -68.06,34.08 -78.35,11.58l-1.57 -3.9c-0.17,-0.4 -0.47,-0.99 -0.61,-1.31 -0.15,-0.32 -0.36,-0.92 -0.64,-1.31 -6.18,8.62 -20.93,22.03 -24.88,35.43 -5.57,18.83 8.41,31.04 24.05,34.03 30.93,5.93 65.49,-27.92 98.62,-21.79 36.09,6.68 48.11,93.86 -21.75,102.44 -17.74,2.18 -30.89,1.92 -41.18,-10.45l-4.53 -4.93c5.1,22.1 38.56,28.6 62.59,19.28 13.67,-5.31 29.49,-19.15 39.36,-29.57 4.72,-4.99 4.69,-9.17 12.15,-10.33 0.1,9.48 -9.37,14.01 -12.53,22.98 9.03,17.09 37.04,29.31 63.33,29.25 21.21,-0.05 58.46,-14.98 65.3,-27.62 11.52,-21.28 -6.84,-58.65 -16.4,-72.78 -3.86,-5.71 -4.68,-7.8 -9.57,-12.28 -12.01,-10.99 -21.11,-21.86 -39.52,-31.63 0.92,6.51 3.06,12.77 0.19,18.9 -1.77,-1.7 -0.51,0.66 -2.09,-2.89 -2.23,-5.02 -2.08,-16.77 -7.03,-31.9 -24.3,-74.22 -108.04,-85.68 -163.45,-29.08 -7.39,7.55 -16.71,14.08 -14.29,29.1z"/>
   <path class="fil6" d="M250.21 427.75c17.73,0.02 21.5,11.03 72.3,5.67 15.62,-1.66 20.25,-1.79 30.26,-10.1 6.31,-5.23 16.45,-15.1 20.11,-21.86 -14.1,4.67 -19.01,8.34 -36.8,9.23 -24.21,1.21 -57.44,-7.15 -70.69,-24.26 -2.47,-3.19 -7.07,-10.21 -8.92,-14.7 -3.96,-9.6 -1.56,-12.76 -6.52,-18.11 -4.5,9.36 -34.21,31.08 -45.12,42.48 -27.97,29.25 -35.96,79.78 2.37,99.46 59.14,30.37 128.33,35.02 198.43,14.53 22,-6.43 73.73,-18.96 84.84,-32.67 11.26,-13.89 -8.11,-63.56 -45.28,-66.49 -14.31,-1.13 -33.02,9.03 -46.48,13.15 -29.93,9.14 -68.99,17.29 -101.28,17.11 -11.63,-0.06 -42.44,-1.96 -47.22,-13.44z"/>
   <path class="fil6" d="M336.04 541.31l-48.47 -1.02c-15.15,-1.04 -27.4,-8.41 -36.29,2.06 -15.29,18.01 -23.25,44.53 -9.3,71.85 7.33,14.36 11.26,16 30.24,17 36.38,1.9 105.42,0.38 138.99,-4.19 16.41,-2.24 66.73,-9.53 77.17,-16.69 12.29,-8.43 16.78,-45.3 -4.35,-70.79 -25.96,-31.32 -33.67,-17.27 -64.15,-10.03 -27.09,6.43 -54.31,11.81 -83.84,11.81z"/>
   <path class="fil6" d="M417.47 323.17c-11.9,10.9 -47.01,21.33 -69.71,20.11 -13.47,-0.72 -25.94,-3.68 -37.15,-9.05 -14.36,-6.87 -16.46,-9.79 -24.92,-21.71 -3.99,1.52 -8.69,6.53 -11.7,9.66 -5.04,5.22 -4.59,8.85 -8.73,14.78 -8.88,12.72 -11.15,14.1 -2.6,31.98 19.47,40.68 84.07,48.79 123.73,13.93 9.18,-8.07 31.24,-39.74 31.08,-59.7z"/>
   <path class="fil6" d="M516.87 475.7c5.5,5.21 12.7,7.97 18.76,13.62 4.99,4.65 12.44,12.53 18.61,15.3 26.46,-25.64 35.19,-45.45 50.2,-81.33 7.38,-17.65 31.24,-93.43 12.57,-106.83 -7.99,-5.74 -18.02,-3.21 -25.38,1.12 -20.09,11.82 -3.44,60.02 -45.44,119.66 -6.64,9.43 -26.69,30.16 -29.32,38.46z"/>
   <path class="fil6" d="M241.73 629.06c-4.99,-13 -15.45,-28.45 -13.15,-52.01 2.12,-21.73 13.54,-34.12 23.35,-43.89 -3.59,-2.27 -19.49,-7.06 -26.22,-10.6 -10.68,-5.61 -13.72,-10.7 -27.55,-4.83 -16,6.78 -30.26,22.06 -35.99,41.4 -9.31,31.39 -1.11,36.74 22.14,50.55 15.27,9.07 36.05,17.59 57.42,19.38z"/>
   <path class="fil6" d="M246.56 255.29c-17.46,3.08 -32.89,12.14 -39.54,24.93 -13,24.99 26.45,32.22 57.3,18.67 15.15,-6.65 38,-53.44 -17.76,-43.6z"/>
   <path class="fil7" d="M281.54 193.21c16.04,-5.96 19.98,-38.2 -12.63,-41.79 2.51,6.43 6.71,8.98 9.44,17.86 2.22,7.25 2.4,15.81 3.19,23.93z"/>
  </g>
 </g>
</svg>
