<?xml version="1.0" encoding="UTF-8"?>
<!DOCTYPE svg PUBLIC "-//W3C//DTD SVG 1.1//EN" "http://www.w3.org/Graphics/SVG/1.1/DTD/svg11.dtd">
<!-- Creator: CorelDRAW 2017 -->
<svg xmlns="http://www.w3.org/2000/svg" xml:space="preserve" width="7.6198mm" height="7.6198mm" version="1.1" style="shape-rendering:geometricPrecision; text-rendering:geometricPrecision; image-rendering:optimizeQuality; fill-rule:evenodd; clip-rule:evenodd"
viewBox="0 0 761.98 761.98"
 xmlns:xlink="http://www.w3.org/1999/xlink">
 <defs>
  <style type="text/css">
   <![CDATA[
    .fil0 {fill:none}
    .fil3 {fill:#FEFEFE}
    .fil1 {fill:#3E4095}
    .fil2 {fill:#108D66}
   ]]>
  </style>
 </defs>
 <g id="Capa_x0020_1">
  <metadata id="CorelCorpID_0Corel-Layer"/>
  <g id="_1344219598560">
   <rect class="fil0" x="-0" y="-0" width="761.99" height="761.99"/>
   <path class="fil1" d="M719.64 261.46l0 458.19 -677.31 0 608.51 -608.51c40.45,43.45 64.02,93.23 68.8,150.32z"/>
   <path class="fil2" d="M42.33 42.34l465.24 0c57.14,6.74 104.34,30.26 143.27,68.8l-608.51 608.51 0 -677.31z"/>
   <g>
    <path class="fil3" d="M272.3 370.07c-4.03,4.17 -2.98,12.61 -4.24,16.77 -3.25,1.55 -98.28,1.76 -108.73,0.95 -0.8,-14.33 -1.15,-29.4 -0.63,-44.07l122.7 0.52 -1.98 6.36c2.29,-1.7 4.31,-5.01 4.62,-8.01 -6.63,-0.95 -81.12,-0.36 -94.57,-0.42l-24.27 -0.02c-2.81,-0.05 -5.93,-0.4 -7.29,1.09 -2.14,3.34 -1.21,38.42 -0.59,45.05 5.13,1.89 80.11,0.78 97.39,0.84 2.51,0.01 5,0.1 7.48,0.11 4.99,0.03 4.78,0.05 7.07,-1.02l3.04 -18.15z"/>
    <path class="fil3" d="M281.36 445.24c0.74,3.74 1.39,2.77 1.91,7.12 -14.81,0.43 -118.7,1.62 -123.97,-0.89 -1.46,-3.85 -1.12,-35.11 -0.52,-41.35 6.3,-1.13 105.58,-0.59 111.05,0.64 -0.78,-3.18 -0.91,-2.25 -4.77,-2.45l-50.43 0.14c-68.82,0.01 -57.74,-6.74 -57.74,22.2 0,6.21 -1.72,17.64 0.93,22.3 1.92,2 118.24,1.56 128.7,0.92 -0.28,-3.32 -1.28,-4.88 -3.38,-7.05 -0.16,-0.17 -0.39,-0.37 -0.55,-0.53l-1.23 -1.05z"/>
    <path class="fil3" d="M470.18 585.37l-0.03 2.8c3.11,2.14 78.03,2.18 80.84,0l-0.07 -2.8c-3,-1.81 -77.97,-1.74 -80.74,0z"/>
    <path class="fil3" d="M512.62 560.86l-4.41 -0.4 -0.06 -3.06 3.82 0 0.65 3.46zm0 0c0.64,-0.51 2.52,1 0.71,-4.78l-6.44 -0.2 -0.68 5.97c5.44,0.87 5.08,1.1 6.41,-0.99z"/>
    <path class="fil3" d="M578.93 663.67l-204.7 -0.03c-2.3,-4.87 -0.92,-31.3 -0.62,-38.86 13.23,-1.59 37.24,-0.14 51.67,-0.14 18.62,0 146.86,-0.9 153.77,0.81 -1.58,-2.52 0.3,-1.16 -2.75,-2.02 -0.06,-0.01 -2.56,-0.09 -2.77,-0.1 -28.75,-0.26 -196.07,-0.92 -201.06,0.48 -0.8,6.19 -0.32,14.76 -0.32,21.21 0,3.42 0.02,6.84 0.01,10.26 -0.01,1.63 -0.17,4.14 -0.05,5.65 0.1,1.42 0.12,1.23 0.42,2.44l0.65 1.25c1.94,1.67 154.71,0.89 181.66,0.9 4.35,0 8.7,-0.01 13.05,0 9.78,0.02 9.84,1.28 11.04,-1.85z"/>
    <path class="fil3" d="M450 520.56l123.86 0.5 -0.02 82.5c-20.49,0.6 -42.18,0.02 -62.81,-0.01 -11.51,-0.02 -53.01,1.42 -61.26,-0.69l0.23 -82.3zm0 0c-2.25,1.35 -0.13,-1.38 -1.12,1.64l-0.23 8.18c0.02,3.41 0.01,6.84 0,10.25 0,7.02 -0.94,57.73 0.4,62.06 0.05,0.17 0.3,0.77 0.35,0.65 0.04,-0.13 0.23,0.41 0.38,0.6 2.4,1.04 114.43,1.56 124.22,0.53 1.89,-4.46 1.83,-80.85 -0.04,-84.78 -16.22,-1.54 -89.89,-0.23 -117.98,-0.37 -7.24,-0.03 -5.67,0.18 -5.98,1.24z"/>
    <path class="fil3" d="M606.44 344.33c1.15,-8.23 0.85,-116.46 -0.26,-118.94 -0.18,-0.41 -16.55,-19.22 -20.79,-20.71 -0.94,26.28 -0.1,54.11 -0.11,80.57 -0.01,41.44 -5.5,38.37 10.14,50.77 2.17,1.72 8.44,7.94 11.02,8.31z"/>
    <path class="fil3" d="M125.62 230.25l-0.05 110.83c5.09,-0.88 12.34,-8.99 18.21,-13.92 5.78,-4.87 3.63,-13.66 3.61,-27.93l0 -95.86c-3.11,1.03 -15.36,13.18 -19.1,16.96 -3.56,3.59 -2.68,3.91 -2.67,9.92z"/>
    <path class="fil3" d="M92.96 374.3c2.48,-0.54 10.61,-7.63 12.86,-9.41l0.23 -121.92c-3.86,1.67 -6.98,5.23 -10.2,8.31 -4.51,4.3 -3.11,7.39 -3.09,14.39 0.04,14.7 -0.73,102.19 0.2,108.63z"/>
    <path class="fil3" d="M626.42 367.61c4.16,2.9 6.65,6.46 11.87,7.8l0.01 -102.28c-0.02,-16.11 2.1,-12.19 -5.3,-20.36 -2.65,-2.92 -1.91,-3 -5.46,-4.68l-0.73 1.75c-0.06,0.26 -0.2,0.57 -0.27,0.89 -0.07,0.32 -0.13,0.56 -0.19,0.92l-0.06 11.23c-0.02,4.97 -0.03,9.93 -0.08,14.91 -0.22,21.78 -1.06,73.27 0.21,89.82z"/>
    <path class="fil3" d="M188.72 202.53l19.14 -0.02 -0.27 119.31 -18.83 0.18 -0.04 -119.47zm-1.03 119.85c4.56,1.27 16.7,1.43 20.93,-0.12l0.15 -120.35 -20.62 -0.42 -0.46 120.89z"/>
    <path class="fil3" d="M449.22 165.94c0.04,10.58 -1.05,101.88 0.84,104.72 2.6,2.82 9.14,5.39 12.96,7.6 2.49,1.43 10.49,7.26 13.01,7.47 0.68,-36.17 -0.36,-73.32 0.25,-109.56 0.15,-8.65 1.38,-7.01 -10.17,-15.63 -3.82,-2.84 -11.22,-9.36 -16.79,-9.86l-0.1 15.26z"/>
    <path class="fil3" d="M261.38 177.13l0.05 104.11c3.56,-0.27 20.08,-9.87 25.56,-12.09 0.89,-37.44 0.51,-79.76 0.27,-118.19 -4.33,0.55 -13.21,7.13 -16.59,9.5 -8.49,5.95 -9.29,3.22 -9.29,16.67z"/>
    <path class="fil3" d="M147.03 447.93l0.2 -34.06c-0.01,-8.36 -1.51,-7.67 -11.21,-15.53l-21.88 -18.19c-3.43,-3 -4.74,-5.27 -8.97,-2.2 -7.34,5.32 -12.45,9.04 -12.54,15.38 -0.14,8.78 0.2,6.74 10.67,16.31 5.06,4.62 9.96,8.87 14.7,13.21 4.14,3.8 26.16,24.24 29.03,25.08z"/>
    <path class="fil3" d="M585.39 417.6l-0.13 27.34c5.3,-1.8 38.81,-32.13 48.24,-40.03 4.85,-4.06 4.57,-3.04 4.59,-10.61 0.01,-6.45 -2.59,-6.6 -6.4,-9.75 -3.3,-2.73 -5.84,-5.49 -9.74,-7.35 -3.77,1.49 -25.51,20.77 -31.34,25.86 -6.9,6.01 -5.17,3.93 -5.22,14.54z"/>
    <path class="fil3" d="M129.72 366.34c1.35,2.74 14.69,13.68 17.27,14.39l0.31 -6 -0.07 -0.94 0 -22.76c-3.35,1.51 -15.97,12.86 -17.51,15.31z"/>
    <path class="fil3" d="M585.34 379.76c4.13,-0.84 5.72,-3.13 8.84,-5.76 2.91,-2.45 5.1,-4.13 7.19,-6.73 -1.1,-2.29 -11.86,-11.67 -15.95,-12.5l-0.08 24.99z"/>
    <path class="fil3" d="M342.8 129.59c-1.97,7.66 -1.64,111.41 -0.52,124.08 7.85,-0.07 16.53,-1.33 25.21,-1.3 7.73,0.02 18.6,1.82 24.5,1.45l0.42 -125.64c-10.3,-2.32 -40.04,-1.52 -49.61,1.41z"/>
    <path class="fil3" d="M402.25 255.12l36.6 10.22 0.18 -121.77c-4.85,-4.22 -30.11,-13.73 -36.41,-13.33l-0.37 124.88z"/>
    <path class="fil3" d="M297.56 151.03l-0.11 112.99c1.87,-0.13 33.31,-8.46 34.22,-8.9 1.1,-35.71 0.49,-86.55 0.14,-122.41 -6.07,-0.01 -22.3,6.56 -29.12,9.48 -5.45,2.33 -5.16,1.87 -5.13,8.84z"/>
    <path class="fil3" d="M157.24 208.82l-0.09 109.98c0,5.53 2.33,4.24 8.04,4.18 16.45,-0.17 12.75,7.48 12.76,-43.33 0,-24.64 0.73,-53.65 -0.1,-77.76 -22.81,-0.6 -20.57,-1.93 -20.61,6.93z"/>
    <path class="fil3" d="M525.38 323l19.48 0.1 0.32 -120.41 -20.07 -0.58c-1.08,10.79 -1.27,115.35 0.27,120.89z"/>
    <path class="fil3" d="M555.07 322.89l19.8 0.28c1.29,-7.06 1.07,-117.21 -0.16,-121.15l-19.14 -0.08 -0.5 120.95z"/>
    <polygon class="fil3" points="188.76,322 207.59,321.82 207.86,202.51 188.72,202.53 "/>
    <path class="fil3" d="M242.51 322.45l243.82 0.47c-2.53,-10.35 -38.32,-30.76 -50.2,-36.37 -58.86,-27.79 -132.47,-13.83 -182.28,24.87 -3.23,2.51 -10.04,6.92 -11.34,11.03z"/>
    <path class="fil3" d="M361.95 372.6c15.44,-4.31 28.93,6.87 31.91,18.55 4.16,16.28 -6.43,29.05 -18.82,32.34 -33.27,8.81 -47.75,-41.2 -13.09,-50.89zm-72.98 25.43c-0.02,13.8 4.49,27.31 9.98,36.84 13.41,23.27 16.59,19.38 36.33,18.67 -0.04,-0.21 -9.35,-6.72 -10.71,-7.91 -8.23,-7.2 -17.61,-23.93 -18.45,-32.95 -0.5,-5.35 1.18,-4.47 9.18,-4.46l18.52 0.13c6.82,12.92 14.34,25.16 34.61,25.17 22.73,0.02 28.6,-16.09 34.45,-25.14l28.67 0.02c1.34,9.87 -10.4,28.83 -19.11,36.44 -2.78,2.42 -9.2,6.99 -10.21,8.71 6.25,0.39 18.16,2.02 22.24,-1.36 11.95,-9.89 22.44,-33.26 23.1,-51.35 0.76,-20.41 -6.56,-44.34 -18.5,-55.98 -4.06,-3.97 -17.19,-2.08 -23.71,-1.92 1.59,5.73 7.77,4.37 17.57,19.22 2.71,4.1 11.84,21.18 8.79,26.42 -1.43,1.5 -11.88,0.97 -13.89,0.98 -4.91,0 -9.77,0.23 -14.64,-0.31 -1.9,-2.73 -2.42,-6.59 -4.78,-10.06 -1.73,-2.54 -4.87,-6.46 -7.33,-8.46 -13.19,-10.7 -32.55,-10.94 -45.38,-0.07 -9.79,8.29 -8.61,12.79 -12.85,18.69 -30.75,0.83 -31.66,3.01 -22.21,-18.19 9.12,-20.45 20.81,-24.38 22.98,-28.59 -4.51,-0.16 -20.96,-0.96 -23.94,0.56 -2.59,1.32 -9.04,11.07 -10.73,14.31 -6.73,12.84 -9.96,22.54 -9.98,40.59z"/>
    <path class="fil3" d="M467.51 388.46l107.48 0.14c0.52,-7.84 1.49,-39.83 -0.8,-44.63 -1.9,-2.08 -41.88,-1.03 -50.11,-1l-70.87 -0.06c1.5,8.99 9.41,11.47 14.3,45.55z"/>
    <path class="fil3" d="M450.35 453.88c13.73,0.07 109.61,0.88 124.51,-0.25l0.17 -44.01 -107.89 -0.59c-2.64,7.54 -3.31,15.95 -6.71,24.08 -2.06,4.92 -9.77,18.32 -10.08,20.77z"/>
    <path class="fil3" d="M272.3 370.07c1.46,-5.23 6.76,-16.37 7.12,-19.47l1.98 -6.36 -122.7 -0.52c-0.52,14.67 -0.17,29.74 0.63,44.07 10.45,0.81 105.48,0.6 108.73,-0.95 1.26,-4.16 0.21,-12.6 4.24,-16.77z"/>
    <path class="fil3" d="M281.36 445.24c-0.22,-2.22 -5.19,-11.95 -6.73,-15.84 -2.01,-5.06 -3.32,-15.36 -4.8,-18.64 -5.47,-1.23 -104.75,-1.77 -111.05,-0.64 -0.6,6.24 -0.94,37.5 0.52,41.35 5.27,2.51 109.16,1.32 123.97,0.89 -0.52,-4.35 -1.17,-3.38 -1.91,-7.12z"/>
    <path class="fil3" d="M228.38 279.65l0.13 26.08c2.96,-0.8 17.53,-13.41 22.4,-16.68l0.25 -112.24c-5.57,0.98 -14.05,10.49 -17.45,13.8 -7.43,7.2 -5.32,8.87 -5.32,26.6 0,20.81 0.05,41.63 -0.01,62.44z"/>
    <path class="fil3" d="M504.72 310.63c1,-7.24 0.76,-110.15 -0.03,-112.41 -0.45,-1.29 -14.17,-18.58 -18.39,-18.9l0 113.2c0.59,2.73 17.45,17.52 18.42,18.11z"/>
    <path class="fil3" d="M469.26 548.84c-0.77,-6.34 -1.21,-7.62 5.42,-7.56 6.56,0.06 5.94,1.34 5.31,7.5 -5.03,1.04 -5.47,0.63 -10.73,0.06zm-7.4 12.01c6.9,1.73 4.85,-0.84 6.89,-4.42 12.82,-0.39 20.62,1.86 19.75,-13.02 -0.35,-6.12 -3.65,-6.79 -10.06,-6.83 -4.85,-0.02 -11.93,-0.44 -16.43,0.62l-0.15 23.65z"/>
    <path class="fil3" d="M561.8 561.6c0.57,-5.74 -1.6,-4.8 -6.89,-4.72 -4.57,0.06 -8.62,0.26 -13.17,-0.38 -0.28,-2.52 -0.32,-5 -0.29,-7.53l0.87 -5.92c1.14,-3.29 13.72,-0.77 19.47,-2l0.23 -3.82c-4.24,-0.99 -21.88,-3.03 -26.9,3.23 -1.45,1.81 -5.86,20.63 5.69,21.58 3.79,0.31 17.72,0.33 20.99,-0.44z"/>
    <path class="fil3" d="M149.47 473.56c-0.52,5.25 -1.07,22.03 0.49,26.35 34.45,1.64 72.69,0.17 107.55,0.16 22.18,0 315.24,1.4 321.86,-0.27l-0.14 -25.52c-7.07,-1.72 -300.61,-0.72 -322.65,-0.72 -35.36,0 -71.9,-1.02 -107.11,0z"/>
    <path class="fil3" d="M578.93 663.67l0.12 -38.22c-6.91,-1.71 -135.15,-0.81 -153.77,-0.81 -14.43,0 -38.44,-1.45 -51.67,0.14 -0.3,7.56 -1.68,33.99 0.62,38.86l204.7 0.03z"/>
    <path class="fil3" d="M464.07 578.51c3.82,-1.41 75.32,-1.06 93.39,-0.33 0.4,6.46 0.72,10.51 -0.32,16.9 -4.41,1.84 -81.6,0.77 -83.39,0.77 -6.42,0 -10.36,2.03 -10.36,-3.95 0,-4.28 -0.54,-10.2 0.68,-13.39zm36.96 -29.76l18.39 0.52c2.15,1.25 1.81,-0.85 2.07,4.34 0.07,1.42 -0.12,4.04 -0.12,5.67 0.01,3.68 0.45,6.51 -0.79,9.46 -1.24,1.35 -17.12,1.1 -18.85,0.83 -2.76,-0.43 -1.42,-0.46 -2.11,-0.83 -0.3,-0.33 -3,-19 1.41,-19.99zm25.81 -4.39c0,-6.99 0.57,-6.26 4.52,-9.5 3.65,-3 3.44,-4.67 9.41,-4.95 6.43,-0.3 22.08,-0.49 28.14,0.47l-0.07 26.1c-0.03,14.39 1.65,12.61 -8.38,12.42 -14.97,-0.28 -22.29,2.19 -28.75,-3.3 -6.56,-5.56 -4.89,-5.36 -4.87,-21.24zm-71.75 -9.32c0.02,-7.84 2.59,-5.34 20.52,-5.33 15.86,0.01 20.12,2.18 19.69,19.38 -0.13,5.58 -2.88,8.17 -6.13,11.6 -3.42,3.57 -8.78,1.91 -14.49,2.68 -1.73,4.44 1.48,3.47 -2.8,5.23 -19.54,0.08 -16.76,3.78 -16.78,-14.92l-0.01 -18.64zm-5.09 -14.48l-0.23 82.3c8.25,2.11 49.75,0.67 61.26,0.69 20.63,0.03 42.32,0.61 62.81,0.01l0.02 -82.5 -123.86 -0.5z"/>
    <polygon class="fil3" points="154.3,520.41 154.61,603.18 215.26,602.77 215.28,520.2 "/>
    <path class="fil3" d="M372.75 603.93l56.49 -0.05 -0.09 -83.86c-8.49,-0.44 -50.69,-1.16 -56.57,0.42l0.17 83.49z"/>
    <path class="fil3" d="M593.97 592.03c4.29,-0.97 17.69,-13.31 22.25,-17.04 3.78,-3.09 19.85,-15.66 20.91,-17.38 2.17,-3.56 1.08,-66.57 1.03,-76.19 -5.07,1.52 -34.22,27.81 -39.97,32.66 -5.69,4.81 -4.18,5.19 -4.15,14.43l-0.07 63.52z"/>
    <path class="fil3" d="M92.63 538.77c0.01,18.55 -1.68,12.8 12,26.12 3.36,3.27 6.25,5.74 9.7,8.94 3.63,3.35 15.98,16.72 19.76,17.71 0.49,-7.57 0.85,-73.35 -0.12,-76.67 -0.62,-2.1 -37.89,-33.9 -41.24,-34.71l-0.1 58.61z"/>
    <path class="fil3" d="M145.24 624.04c-0.65,8.98 -0.09,19.31 -0.19,28.48 -0.12,11.66 4.35,12.17 15.52,12.11 10.68,-0.05 47.81,1.45 55.45,-0.51l-0.14 -39.96c-4.11,-1.05 -66.33,-1.13 -70.64,-0.12z"/>
    <path class="fil3" d="M589.31 659.11c3.73,-1.31 27.55,-24.71 32.43,-29.21 20.3,-18.71 16.72,-10.77 16.24,-45.85 -4,0.97 -44.26,34.28 -48.67,38.6l0 36.46z"/>
    <path class="fil3" d="M92.8 581.79c-0.47,9.03 -0.23,18.78 -0.23,27.88 0,6.35 0.5,5.85 4.65,9.23 3.13,2.55 4.72,4.04 7.53,6.46 4.81,4.13 27.5,24.08 30.12,24.79 2.01,-33.94 1.4,-28.39 -13,-41.92 -5.19,-4.87 -9.42,-9 -14.36,-13.6 -2.62,-2.43 -11.25,-11.84 -14.71,-12.84z"/>
    <path class="fil3" d="M589.43 494.95c4.15,-1.38 42.03,-35.26 48.73,-40.5l0.03 -26.17c-5.32,1.53 -27.8,22.46 -32.38,26.31 -18.28,15.34 -18.14,10.02 -16.38,40.36z"/>
    <path class="fil3" d="M138.86 491.87c3.15,-26.31 0.01,-24.16 -16.13,-38.29 -3.75,-3.29 -26.86,-24.93 -29.9,-25.54 -0.23,5.09 -1.21,22.51 0.69,25.92l45.34 37.91z"/>
    <path class="fil3" d="M321.45 377.89c11.89,0.31 4.2,-5.02 18.9,-16.32 6.38,-4.9 15.01,-8.53 25.27,-8.94 21.32,-0.86 35.99,10.12 43.21,25.46l6.12 0.25c-1.02,-15.09 -38.57,-47.7 -75.92,-22.75 -5.95,3.97 -15.86,13.88 -17.58,22.3z"/>
    <path class="fil3" d="M414.49 419.19c-11.22,-0.07 -3.02,3.88 -19.14,16.02 -20.08,15.12 -48.09,9.78 -62.7,-8.89 -4.49,-5.75 -1.97,-7.49 -10.92,-7.01 3.46,15.2 25.63,30.09 45.76,30.31 21.87,0.23 44.71,-15.93 47,-30.43z"/>
    <path class="fil3" d="M379.29 401.76c5.27,-15.41 -18.26,-21.8 -22.37,-6.94 -3.88,14.06 17.09,22.37 22.37,6.94z"/>
    <path class="fil3" d="M237.47 663.08c32.5,0.26 83.27,1.35 113.67,0.26 0.91,-43.83 0.52,-90.38 0.63,-134.82 0,-8.32 -0.38,-7.64 -8.47,-7.53l-99.88 -0.27c-7.82,-0.01 -6.15,2.98 -6.1,10.58 0.08,10.17 -1.1,125.63 0.15,131.78z"/>
    <path class="fil3" d="M237.47 663.08c-1.25,-6.15 -0.07,-121.61 -0.15,-131.78 -0.05,-7.6 -1.72,-10.59 6.1,-10.58l99.88 0.27c8.09,-0.11 8.47,-0.79 8.47,7.53 -0.11,44.44 0.28,90.99 -0.63,134.82 -30.4,1.09 -81.17,0 -113.67,-0.26zm114.85 -142.72c-3.82,-2.54 -82.91,-0.98 -94.81,-0.98 -4.93,0 -20.55,-1.89 -21.88,1.98l-0.2 119.94c-0.03,28.79 -5.51,23.79 23.01,23.79l71.77 0.1c29.15,0 22.96,7.67 22.96,-36.94l0.01 -72.71c0.01,-7.23 2.1,-30.79 -0.86,-35.18z"/>
    <path class="fil3" d="M154.3 520.41l60.98 -0.21 -0.02 82.57 -60.65 0.41 -0.31 -82.77zm0 0c-1.93,2.12 -0.88,38.88 -0.89,41.66 -0.05,10.27 -1.39,32.55 0.23,41.44 4.34,2.28 57.11,2.26 62.51,0.24 1.12,-6.02 1.19,-79.5 -0.02,-84.22 -5.02,-1.38 -37.87,-0.84 -47.17,-0.82 -2.82,0 -5.59,-0.02 -8.41,-0.07 -6.35,-0.1 -5.71,0.08 -6.25,1.77z"/>
   </g>
  </g>
 </g>
</svg>
