<?xml version="1.0" encoding="UTF-8"?>
<!DOCTYPE svg PUBLIC "-//W3C//DTD SVG 1.1//EN" "http://www.w3.org/Graphics/SVG/1.1/DTD/svg11.dtd">
<!-- Creator: CorelDRAW 2017 -->
<svg xmlns="http://www.w3.org/2000/svg" xml:space="preserve" width="51.08mm" height="51.11mm" version="1.1" style="shape-rendering:geometricPrecision; text-rendering:geometricPrecision; image-rendering:optimizeQuality; fill-rule:evenodd; clip-rule:evenodd"
viewBox="0 0 5108 5111"
 xmlns:xlink="http://www.w3.org/1999/xlink">
 <defs>
  <style type="text/css">
   <![CDATA[
    .fil4 {fill:#03D6E3}
    .fil8 {fill:#111E4A}
    .fil1 {fill:#14B5C7}
    .fil3 {fill:#337093}
    .fil10 {fill:#3E426E}
    .fil9 {fill:#4F1E55}
    .fil5 {fill:#8E6F90}
    .fil2 {fill:#AE97B1}
    .fil6 {fill:#B00F41}
    .fil0 {fill:#DCD2DC}
    .fil7 {fill:#FE215D}
   ]]>
  </style>
 </defs>
 <g id="Capa_x0020_1">
  <metadata id="CorelCorpID_0Corel-Layer"/>
  <g id="_2946801909328">
   <path class="fil0" d="M1960.61 2560.18c-7.83,9.44 -7.76,-6.17 -10.59,19.79 -4.72,43.47 -1.23,6.52 8.89,29.27 13.78,-38.42 18.03,-23.32 1.7,-49.06z"/>
   <path class="fil0" d="M2775.76 2135.89l-31.78 -13.98c10.14,33.71 -6.39,13.19 20.77,34.77l11.01 -20.79z"/>
   <path class="fil1" d="M1777.86 1037.69c-103.6,6.07 -48.86,-55.36 -92.92,-65.35 -14.53,23.91 5.04,10.49 -20.87,15.19 -0.08,0.02 -34.86,-2.31 -36.12,-2.31l-21.72 22.76c69.15,12.89 130.86,87.74 171.63,29.71z"/>
   <path class="fil1" d="M3066.35 1029.35l0 14.77c40.24,14.25 138.43,-9.58 169.03,-22.62l-21.7 -20 -42.62 -4.86 -5.12 -24.55c-25.74,15.65 -8.73,3.43 -25.23,24.86 -14.37,18.66 14.63,-0.2 -16.63,22.12 -18.58,13.27 -36.38,10.59 -57.73,10.28z"/>
   <path class="fil1" d="M2222.96 1724.26l17.07 156.9c20.84,-5.66 25.53,-4.59 31.84,-29.51l9.22 -42.59c-25.51,-37.77 -34.51,-45.18 -35.42,-97.62 -18,7.91 -9.01,-1.69 -22.71,12.82z"/>
   <path class="fil1" d="M1646.35 1387.03l-8.3 0.9 -37.99 -14c-18.44,11.4 7.16,4.98 -21.27,7.52 -37.21,3.32 -52.34,-14.99 -81.61,31.88 35.13,8.85 42.39,14.44 78.32,-3.07 43.68,-21.29 12.58,-13.18 70.85,-23.23z"/>
   <path class="fil1" d="M1684.68 1535.22c12,-26.84 5,-19.7 32.71,-31.57l-16.83 -28.96c-43.35,19.9 -50.28,31.94 -52.73,74.45l36.85 -13.92z"/>
   <polygon class="fil1" points="1748.05,1832.5 1717.57,1832.33 1732.94,1861.42 "/>
   <path class="fil2" d="M1892.98 2408.49l32.01 3.14c-20.09,-145.12 -1.34,-202.45 -2.99,-333.15l-7.24 12.26c-19.77,47.25 -19.84,92.15 -22.96,144.5 -3.64,60.98 4.91,111.38 1.18,173.25z"/>
   <path class="fil2" d="M3022.38 2676.11l21.98 4.09c-9.04,27.71 -26.77,13.99 -2.63,55.77l-28.25 8.94 24.25 21.03c17.74,-22.69 42.65,-116.31 7.3,-135.25l3.57 27.42c-43.62,8.68 -11.46,0.22 -26.22,18z"/>
   <path class="fil2" d="M3580.98 4886.33c31.79,-4.75 31.46,2.86 35.82,-29.57l-15.84 -11.09 -19.98 40.66z"/>
   <path class="fil3" d="M2235.47 1357.07l-5.05 -3.36 20.37 103.22 -52.71 -61.76 -1.41 35.22 -36.28 -37.51 -1.61 28.33c-34.23,7.39 -65.03,11.77 -87.87,38.84 28.42,-7.29 44.58,-25.55 78.45,-25.67 48.03,-0.16 15.94,13.97 66.07,14.8l11.67 25.76 14.15 12.18 2.9 34.35 40.52 16.3c-0.65,-86.48 -23.09,-99.32 30.47,-186.31 -14.78,-5.83 -12.19,13.04 -10.46,-20.15 -25.72,33.91 -13.35,53.98 -41.08,95.75l-28.13 -69.99z"/>
   <path class="fil3" d="M2919.44 1362.36c-46.16,62.18 -50.62,22.9 -99.2,61.34l59.04 7.55 -17.92 -16.1 186.78 -41.96 -3.3 -13 -75.92 9.22c1.81,-2.08 12.03,-4.55 13.04,-34.6 1.63,-48.77 0,-43.93 -26.31,-56.2l4.45 46.27 -14.22 38.63 -26.44 -1.15z"/>
   <path class="fil3" d="M3185.42 1576.2l-54.66 13.82c36.99,31.78 44.47,28.28 81.83,67.6l7.91 -23.32 21.64 7.15 -64.79 -35.83 106.28 -3.64 20.85 -19.45 -6.17 -18.55 -21.44 0.13c-40.39,17.06 -50.96,35.86 -91.45,12.09z"/>
   <path class="fil3" d="M1910.47 636.18c10.28,40.23 28.42,94.55 14.46,128.67l-34.15 -30.09 -11.37 0.17 61.98 70.64 17.5 -13.64 -2.19 -31.52c-31.56,-22.93 -16.87,-87.02 -3.13,-122.38 -1.04,-14.99 2.88,-11.04 -12.52,-11.04l-9.14 17.82c-2.01,-37.02 5.01,-36.91 -11.85,-63.45l-9.59 54.82z"/>
   <path class="fil3" d="M2970.74 1063l-1.2 29.78 58.52 -0.24c-28.04,-21.36 -19.15,-6.97 -51.19,-19.83 38.05,-18.24 48.6,-32.58 89.48,-28.59l0 -14.77 -8.05 -30.24c-28.84,46.78 -36.07,36.67 -87.56,63.89z"/>
   <path class="fil3" d="M3097.26 1601.16l18.39 10.71c5.47,-41.87 -0.11,-6.45 15.55,-23.41l2.13 -17.82 -47.37 -13.8c-8.49,28.05 -7.27,24.07 11.3,44.32z"/>
   <polygon class="fil3" points="2864.79,1519.75 2854.13,1497.14 2810.49,1499.22 2822.91,1520.38 "/>
   <path class="fil4" d="M2367.29 1224.77c5.21,50.39 -20.82,64.2 -60.88,88.08l-1.73 18.46c-1.73,33.19 -4.32,14.32 10.46,20.15l41.11 -20.06c41,-56.09 92.49,-74.37 165.14,-70.92 24.14,-29.24 30.99,-14.44 48.29,-52.15l-107.15 -7.99c-19.05,0.91 -28.71,9.36 -47.33,12.44 -23.8,3.93 -19.58,2.02 -47.91,11.99z"/>
   <path class="fil4" d="M1879.41 734.93l11.37 -0.17c-29.75,-92.25 -90.76,-130.6 -190.48,-122.96 29.73,64.27 107.33,108.57 179.11,123.13z"/>
   <path class="fil4" d="M2748.07 1648.16l22.44 29.23 10.22 -26.31c38.14,16.61 37.9,19.27 53.47,57.84l95.48 -7.03c-42.26,-73.75 -15.67,-46.64 -62.72,-78.41 -34.85,-23.54 -20.51,-34.38 -70.43,-27.96 -9.19,41 -16.67,28.64 -48.46,52.64z"/>
   <path class="fil4" d="M2918.92 1145.1l35.9 29.19c39.28,-9.93 -6.09,-2.98 35.87,-16.25 34.34,19.91 28.18,25.2 68.74,33.01l28.94 -67.69c-28.78,-26.61 -23.28,-10.21 -60.31,-30.82l-58.52 0.24 -50.62 52.32z"/>
   <path class="fil4" d="M1871.38 1435.18c19.24,-2.26 86.67,-24.9 93.21,-29.25 17.66,-11.76 5.46,-15.55 27.45,-30.49 28.91,-19.65 5.81,25.97 46.6,-14.56 -21.82,-31.24 -20.57,-35.2 -57.61,-46.99 -48.41,19.39 -92.87,71.82 -109.65,121.29z"/>
   <path class="fil4" d="M2327.4 947.97c50.79,-68.21 -48.54,-102.91 -104.61,-105.42 4.48,63.28 40.67,123.18 104.61,105.42z"/>
   <path class="fil4" d="M1941.05 626.99c15.4,0 11.48,-3.95 12.52,11.04 74.14,-8.19 105.3,-63.35 82.94,-134.01 -55.96,28.77 -84.46,60.66 -95.46,122.97z"/>
   <path class="fil4" d="M2281.09 1809.06l34.41 34.95 24.58 5.86 -13.88 -70.85c-11.72,-49.44 -29.67,-88.53 -80.53,-67.58 0.91,52.44 9.91,59.85 35.42,97.62z"/>
   <path class="fil4" d="M3242.14 1641.45l-21.64 -7.15 -7.91 23.32c52.93,42.06 32.79,88.8 123.97,109.7 -6.79,-56.87 -33.48,-116.89 -94.42,-125.87z"/>
   <path class="fil4" d="M3058.3 999.11l8.05 30.24c21.35,0.31 39.15,2.99 57.73,-10.28 31.26,-22.32 2.26,-3.46 16.63,-22.12 16.5,-21.43 -0.51,-9.21 25.23,-24.86 17.05,-3.92 5.02,10.08 20.99,-19.14l6.81 -27.7c-58,24.34 -120.5,19.51 -135.44,73.86z"/>
   <path class="fil4" d="M1666.42 943.62l18.52 28.72c44.06,9.99 -10.68,71.42 92.92,65.35 28.01,-12.78 -0.67,-60.65 -23.11,-74.34 -32.12,-19.59 -47.09,-12.64 -79.32,-42.63l-9.01 22.9z"/>
   <path class="fil4" d="M3276.87 1564.11l21.44 -0.13c45.83,-8.67 66.58,-46.88 74.48,-90.71 -63.79,2.27 -94.66,24.83 -95.92,90.84z"/>
   <path class="fil4" d="M1551.35 1537.25c53.65,-15.1 84.82,-62.71 104.61,-112.64 -63.16,5.73 -107.32,45.23 -104.61,112.64z"/>
   <path class="fil4" d="M1608.57 2046.03c51.4,-43 50.19,-76.42 27.11,-135.02 -40.27,30.39 -60.78,84.41 -27.11,135.02z"/>
   <path class="fil4" d="M3129.03 746.98c57.55,-22.53 73.64,-58.36 62.44,-123.79 -54.85,28.94 -69.87,56.24 -62.44,123.79z"/>
   <path class="fil4" d="M2542.81 510.31l26.73 -5.89 42.39 -68.58c-70.15,-0.81 -97.9,11.11 -113.84,74.04l44.72 0.43z"/>
   <path class="fil4" d="M1807.4 1167.98l13.5 28.22c26.66,-12.51 41.94,-27.95 58.89,-33.79 23.55,-8.1 41.25,-18.22 62.39,-31.89 -47.27,-31.51 -112.69,-9.4 -134.78,37.46z"/>
   <path class="fil4" d="M2839.64 1263.19l1.39 -30.53c-85.82,-31.81 -82.62,-20.22 -124.46,16.24 49.07,20.39 33.53,-1.84 104.93,25.96l18.14 -11.67z"/>
   <path class="fil4" d="M2387.3 570.96l23.25 8.02 -10.58 46.49 7.63 27.62 53.31 -6.9 10.31 -15.14c-11.46,-10.27 4.46,-15.09 -47.52,-10.86 1.45,-45.24 4.23,-81.93 -21.72,-119.27 -16.99,27.74 -15.19,35.84 -14.68,70.04z"/>
   <path class="fil4" d="M1800.59 811.37c-22.88,15.37 -21.72,22.3 -22.68,50.02 33.8,-9.35 34.8,-22.98 46.96,-53.4 -31.88,-34.44 -66.1,-53.53 -115.86,-57.44 19.26,37.17 52,53.39 91.58,60.82z"/>
   <path class="fil4" d="M3097.26 1601.16c-18.57,-20.25 -19.79,-16.27 -11.3,-44.32 -32.18,-7.98 -6.05,-7.18 -31.23,1.89 -11.89,47.64 0.91,100.28 41.99,120.6 8.93,-39.49 8.28,-37.05 0.54,-78.17z"/>
   <path class="fil4" d="M1910.47 636.18l9.59 -54.82c-6.68,-40.7 -25.74,-48.72 -54.47,-76.61 -8.61,62.33 2.57,89.97 44.88,131.43z"/>
   <path class="fil4" d="M1600.06 1373.93c-6.12,-56.71 -21.09,-79.12 -80.03,-80.44 8.44,47.84 29.89,72.88 80.03,80.44z"/>
   <path class="fil4" d="M1582.82 890.15c53.8,7.26 83.64,-5.19 94.62,-58.4 -49.71,-4.94 -73.74,12.04 -94.62,58.4z"/>
   <path class="fil4" d="M3283.63 1601.98c43.58,28 60.9,24.19 113.15,19.97 -8.28,-38.19 -56.61,-41.35 -92.3,-39.42l-20.85 19.45z"/>
   <path class="fil4" d="M3119.11 1742.96l37.17 -16.75c15.57,21.72 34.6,48.56 64.92,56.19 -13.17,-48.05 -25.76,-58.46 -63.96,-86.77 -18.52,14.46 -32.58,19.92 -38.13,47.33z"/>
   <path class="fil4" d="M3133.33 1570.64l-2.13 17.82 -0.44 1.56 54.66 -13.82 52.98 -39.08c-41.56,-7.97 -85.35,-3.44 -105.07,33.52z"/>
   <path class="fil4" d="M2813.43 1441.29c44.6,32.06 17.04,20.86 69.4,36.54l16.25 -25.53 -19.8 -21.05 -59.04 -7.55 -9.64 -0.09 2.83 17.68z"/>
   <path class="fil4" d="M3063.58 844.71c7.47,13.31 -16.82,24.56 39.63,17.05 16.55,-2.2 35.81,-12.3 50.46,-20.11 -64.21,-50.85 -89.94,2.94 -90.09,3.06z"/>
   <path class="fil4" d="M3122.52 1907.21c43.01,-13.77 51.32,-51.75 32.25,-87.57 -38.73,26.44 -40.22,36.31 -32.25,87.57z"/>
   <path class="fil4" d="M1678.48 1802.08l-3.18 -14.62c-37.17,-1.71 -61.92,12.95 -88.07,37.11 28.28,14.49 76.48,11.45 91.25,-22.49z"/>
   <path class="fil4" d="M2087.07 990.79l26.48 -1.12 13.36 -64.45c-25.15,8.15 -55.22,38.5 -65.47,63.33l25.63 2.24z"/>
   <path class="fil4" d="M1956.7 760.41l2.19 31.52 22.46 3.57c24.84,-7.92 16.9,-8.93 19.74,-37.58 -34.71,-6.93 -18.01,-2.44 -30.28,-20.33l-14.11 22.82z"/>
   <polygon class="fil4" points="1745.08,1420.82 1745.11,1464.38 1768.37,1454.32 1777.14,1439.92 1784.51,1386.75 "/>
   <path class="fil5" d="M2794.65 2771.02l85.46 416.59c10.13,49.14 5.24,93.64 15.87,140.55 12.04,53.17 189.3,400.89 224.66,436.26l10.79 -36.8 -20.15 8.33c-57,-125.74 -77,-115.91 -80.01,-217.06 -5.87,-197.05 25.06,-160.03 23.49,-253.25 -42.55,136.21 -30.72,135.39 -40.56,276.44 -3.13,-16.54 -66.51,-135.49 -79.91,-162.62 -40.96,-82.88 -22.77,-119.67 -41.23,-204.18 -25.57,-117.09 -73.89,-300.29 -81.18,-413.72 -21.32,3.67 -14.9,-12.54 -17.23,9.46z"/>
   <path class="fil5" d="M3467.68 5007.69l15.93 -20.19 -42.59 -1.26 28.24 -81.44c-31.07,13.09 -18.18,44.23 -60.93,78.16 -50.88,6.64 -117.83,-24.68 -109.33,-77.73 45.38,-9.5 33.31,4.77 72.08,11.18 1.35,-38.25 -35.61,-97.04 -67.47,-114.45 6.21,34.79 22.85,47.13 37.87,78.1l-54.25 13.17c-19.2,48.09 5.1,62.29 40.75,89.94 37.49,29.08 86.52,14.66 139.7,24.52z"/>
   <path class="fil5" d="M2244.15 1521.47l-2.9 -34.35 -14.15 -12.18c-17.45,-7.44 -32.2,-14.25 -50.78,-16.27 -43.2,-4.69 -27.24,-17.37 -44.2,9.68l112.03 53.12z"/>
   <path class="fil5" d="M3303.61 4801.96c-12.56,-55.73 -46.74,-42.08 -50.1,-102.23l-17.01 -0.17c9.95,36.73 39.62,87.29 67.11,102.4z"/>
   <path class="fil6" d="M1675.3 1787.46l3.18 14.62c20.4,20.92 13.16,16.2 39.09,30.25l30.48 0.17c85.31,11.59 30.07,29.24 75.03,71.68 45.11,42.58 79.01,-10.83 117.17,30.28l78.48 -5.06c0.66,-18.4 -27.98,-99.14 -6.36,-144.61 14.04,-29.53 27.48,-7.71 25.6,-56.44 -1.24,-31.98 -10.66,-53.51 -32.85,-64.42l-4.62 33.25c-60.24,12.36 -43.46,-2.37 -90.82,-14.73l-10.83 -22.88 13.84 -19.33 -26.51 -56.36c-63.51,-5.71 -63.48,4.77 -113.22,11.08 -68.25,8.65 -30.46,-11.85 -89.6,-28.23 -7.93,42 -8.74,69.32 -15.35,109.32 -10.29,62.22 2.14,52.36 7.29,111.41z"/>
   <path class="fil6" d="M2783.96 814.88c5.8,99.78 -2.56,73.13 -80.66,92.47l1.98 23.64c18.11,-10.39 18.45,-24.88 69.06,9.49 3.32,55.88 -6.3,67.87 25.74,113.95 23.95,34.44 36.25,51.83 12.03,91.79 -39.44,29.99 -51.21,12.6 -96.58,10.18 -53.03,-2.83 -44.02,10.11 -88.86,12.32 -85.6,4.22 -185.22,-150 -209.94,-200.28 -29,-58.96 32.82,-127.12 -25.33,-166.03 -14.31,104.88 -85.5,172.3 38.88,249.32 64.85,40.16 45.32,51.71 75.95,99.69 20.63,32.34 87.88,58.98 122.85,60.21 43.71,-31.11 -0.17,-31.59 48.5,-25.24 76.97,10.04 176.56,5.5 241.34,-41.29l50.62 -52.32 1.2 -29.78 4.02 -38.21c-49.28,47.7 -13.94,101.89 -113.87,108.87 -22.05,-19.68 -64.52,-95.01 -72.93,-127.33 -21.67,-83.24 16.22,-83.36 19.06,-114.6 2.68,-29.49 3.33,6.39 -11.84,-25.47 62.61,4.76 -2.8,9.85 54.22,-25.43 83.67,-51.77 228.95,-60.74 156.29,104.15 22.92,-16.23 44.5,-52.06 48.74,-82.47 8.53,-61.17 -8.33,-57.55 -42.44,-87.88 -9.09,-144.1 -20.83,-120.97 -109.84,-214.07l-44.56 -3.55c32.83,31.19 59.93,16.07 92.81,72.62 79.79,137.2 -5.8,142.19 -146.19,215.47 -23.06,-29.82 3.78,2.11 8.44,-24.98 0.9,-5.25 5.13,-5.52 6.85,-12.66l-35.54 7.42z"/>
   <path class="fil6" d="M2873.37 1852.42c-153.71,38.52 4.5,99.53 -133.28,136.56 45.44,34.84 122.86,74.52 190.44,70.54 25.8,-24.02 17.9,-24.89 33.75,-45.87 41.18,-54.53 46.29,29.17 94.34,-71.77 35.58,-74.76 43.56,5.45 39.66,-99.61 -85.06,72.86 -114.92,-93.15 -187.92,-37.31l22.99 9.05c-6.49,39.52 -15.23,44.86 -56.95,60.76l-3.03 -22.35z"/>
   <path class="fil6" d="M1941.39 805.57c-63.57,-7.69 -19.24,4.45 -62.38,26.06 -23.98,12.02 -12.71,-5.02 -42.96,15.69 -21.89,33.4 -17.79,84.16 -15.63,123.59l44.65 44.29 -6.45 -35.06c37.67,-20.59 25.09,-3.71 58.56,-31.13 30.74,-25.17 29.58,-13.48 67.11,-29.98l-0.36 -93.93 31.19 -19.16 -33.77 -10.44 -22.46 -3.57 -17.5 13.64z"/>
   <path class="fil6" d="M3301.85 1419.55c25.67,-81.09 -2.96,-103.93 -24.39,-134.21 -17.43,-24.65 -3.63,-134.2 -118.63,-166.46 16.59,40.09 2.33,47.49 22.49,91.05 14.04,30.34 25.96,49.24 43.92,75.83 43,63.67 -27.04,109.83 76.61,133.79z"/>
   <path class="fil6" d="M1638.05 1387.93l8.3 -0.9c10,35.32 -4.21,16.98 23.12,26.56 21.69,-93.9 1.47,-79.42 2.5,-158.87 0.65,-50.73 58.46,-68.1 -22.58,-123.93 -6.77,44.76 -9.55,24.43 -18.02,59.09 -10.15,41.52 -0.72,41.97 0.02,67.34 1.67,57.29 -20,59.63 6.66,130.71z"/>
   <path class="fil6" d="M2521.39 1260.48c-72.65,-3.45 -124.14,14.83 -165.14,70.92l-4.29 52.4c32.57,-36.72 60.81,-152.14 115.46,-37.56 7.44,-97.56 35.55,-54.54 111.25,-59.42 128.1,-8.26 53.78,13.16 134.27,40.84 7.35,-46.83 -45.96,-69.64 -86.75,-80.33 -39.06,19.49 -2.04,16.64 -45.43,17.77 -9.71,0.25 -44.94,-4.3 -59.37,-4.62z"/>
   <path class="fil6" d="M1958.64 1137.77c90.37,-77.21 11.28,-78.19 152.59,-23.23 -2.5,10.7 -50.95,122.28 56.92,108.31l12.53 -24.7c-52.32,12.71 -69.03,10.18 -61.7,-50.47 21.77,-20.95 25.03,-23.46 54.31,-26.15l23.19 48.17 20.2 -8.74 -28.99 -57.92c-48.15,-2.61 -61.33,16.08 -105.94,-16.03 -45.17,-32.52 -32.82,-48.26 -10.97,-87.39l-30.8 0.97c-21.17,34.73 -8.44,38.47 -39.24,69.92 -31.79,32.48 -33.81,18.64 -42.1,67.26z"/>
   <path class="fil6" d="M2285.08 1538.88c35.39,44.01 39.45,39.59 34.96,103.41 12.03,32.52 20.56,39.73 48.3,56.87 -19.46,-46.73 -38.47,-62.4 -21.31,-119.1l121.75 -44.54 10.66 38.47 23.49 -3.42 -13.86 -64.23c-27.28,-8.18 -64.87,31.43 -102.07,38.51 -56.03,10.66 -77.66,-13.07 -79.93,-65.18l-25.73 20.45 3.74 38.76z"/>
   <path class="fil6" d="M1970.81 737.59c12.27,17.89 -4.43,13.4 30.28,20.33 59.93,35.8 183.48,93.06 244.18,46.05 -144.74,4.87 -170.02,-79.34 -242.96,-95.38l-31.5 29z"/>
   <path class="fil6" d="M2793.13 1576.15l17.36 -76.93 2.94 -57.93 -2.83 -17.68c-17.55,-40.8 -11.73,-26.09 -46.71,-48.69 -43.43,-28.06 -14.38,-27.31 -50.95,-47.26 0.28,47.58 41.35,63.64 60.91,114.16 18.33,47.36 -32.39,94.88 19.28,134.33z"/>
   <path class="fil6" d="M2963.91 1637.89c58.52,-42.82 35.17,-27.11 68.41,-84.08 22.37,-38.33 39.36,-62.6 0.66,-99.61 -6.63,22 -23,38.7 -32.33,67.72 -20.4,63.51 -10.21,25.21 -43.33,70.09l6.59 45.88z"/>
   <path class="fil6" d="M2371.42 1176.27c37.24,-29.83 30.19,-48.74 19.55,-97.47 -73.25,-36.11 -14.88,-6.21 -82.76,-80.99 -32.8,-36.14 -84.93,-63.75 -120.53,-21.47 89.38,-14.24 24.76,-4.71 102.83,39.27 21.07,11.86 8.58,-2.34 26.12,22.24 55.13,77.3 53.96,26.79 54.79,138.42z"/>
   <path class="fil6" d="M2841.03 1232.66l-1.39 30.53c-5.98,36.88 -8.06,30.16 9.65,58.14 0.58,-47.78 36.86,-66.18 80.38,-77.09 -32.72,-49.81 -51.27,-68.66 -88.64,-11.58z"/>
   <path class="fil6" d="M2251.79 1327.18l54.62 -14.33c40.06,-23.88 66.09,-37.69 60.88,-88.08l4.13 -48.5c-33.13,30.63 -18.83,47.86 -44.72,83.36 -15.12,20.72 -18.36,16.11 -38.05,28.39 -30.74,19.17 -24.72,16.43 -36.86,39.16z"/>
   <path class="fil6" d="M2734.63 765.11c12.85,-24.45 11,-8.55 -0.3,-31.12 -13.13,21.06 -21.48,3.69 0.3,31.12z"/>
   <path class="fil6" d="M2782.12 785.95l30.2 2.49c-26.6,-13.46 -2.18,-12.41 -30.2,-2.49z"/>
   <path class="fil7" d="M2782.12 785.95c28.02,-9.92 3.6,-10.97 30.2,2.49l-30.2 -2.49zm-47.49 -20.84c-21.78,-27.43 -13.43,-10.06 -0.3,-31.12 11.3,22.57 13.15,6.67 0.3,31.12zm-165.09 -260.69l-26.73 5.89c-14.19,26.69 -14.8,36.15 -33.36,59.84 -37.55,47.94 -2.92,33.58 -38.23,60.9l-10.31 15.14c-21.01,94.91 -111.5,56.21 -69.51,156.22 58.15,38.91 -3.67,107.07 25.33,166.03 24.72,50.28 124.34,204.5 209.94,200.28 44.84,-2.21 35.83,-15.15 88.86,-12.32 45.37,2.42 57.14,19.81 96.58,-10.18 24.22,-39.96 11.92,-57.35 -12.03,-91.79 -32.04,-46.08 -22.42,-58.07 -25.74,-113.95 -50.61,-34.37 -50.95,-19.88 -69.06,-9.49l-1.98 -23.64c-36.82,-35.54 -68.15,-60.75 -38.19,-124.1 44.66,-29.35 102.05,-27.99 118.85,31.63l35.54 -7.42c-1.72,7.14 -5.95,7.41 -6.85,12.66 -4.66,27.09 -31.5,-4.84 -8.44,24.98 140.39,-73.28 225.98,-78.27 146.19,-215.47 -32.88,-56.55 -59.98,-41.43 -92.81,-72.62 -66.33,-18.43 -45.97,-78.13 -112.97,-83.86 -36.34,-3.11 -115.87,28.02 -175.08,31.27z"/>
   <path class="fil7" d="M2351.96 1383.8l-44.89 95.87c2.27,52.11 23.9,75.84 79.93,65.18 37.2,-7.08 74.79,-46.69 102.07,-38.51l8.38 -27.19c35.44,-2.58 53.45,4.42 74.6,-4.2 11.42,28.32 26.04,56.83 10.69,99.21 -34.8,13.44 -46.52,13.95 -79.81,-3.59l-23.49 3.42 -10.66 -38.47 -121.75 44.54c-17.16,56.7 1.85,72.37 21.31,119.1 34.24,47.19 39.84,21.14 73.12,50.75l37.36 46.98 49.5 10.48c36.42,-8.77 27.68,-16.84 43.14,4.13l12.61 -22c62.44,-6.85 65.19,10.29 107.69,-38.36 28.63,-32.77 26.9,-67.21 56.31,-102.98 31.79,-24 39.27,-11.64 48.46,-52.64l-3.4 -19.37c-51.67,-39.45 -0.95,-86.97 -19.28,-134.33 -19.56,-50.52 -60.63,-66.58 -60.91,-114.16 -80.49,-27.68 -6.17,-49.1 -134.27,-40.84 -75.7,4.88 -103.81,-38.14 -111.25,59.42 -54.65,-114.58 -82.89,0.84 -115.46,37.56z"/>
   <path class="fil7" d="M2113.55 989.67l-26.48 1.12 -16.29 8.83c-21.85,39.13 -34.2,54.87 10.97,87.39 44.61,32.11 57.79,13.42 105.94,16.03l28.99 57.92 -20.2 8.74 -15.8 28.45 -12.53 24.7c-107.87,13.97 -59.42,-97.61 -56.92,-108.31 -141.31,-54.96 -62.22,-53.98 -152.59,23.23 -5.07,52.11 8.79,48.77 1.63,96.43 -10.24,68.26 -7.04,28.78 20.76,79.69 37.04,11.79 35.79,15.75 57.61,46.99 42.08,-0.16 60.69,-2.24 98.9,-9.65 53.16,-10.3 42.01,0.37 92.88,2.48l5.05 3.36 16.32 -29.89c12.14,-22.73 6.12,-19.99 36.86,-39.16 19.69,-12.28 22.93,-7.67 38.05,-28.39 25.89,-35.5 11.59,-52.73 44.72,-83.36 -0.83,-111.63 0.34,-61.12 -54.79,-138.42 -17.54,-24.58 -5.05,-10.38 -26.12,-22.24 -78.07,-43.98 -13.45,-53.51 -102.83,-39.27l-74.13 13.33z"/>
   <path class="fil7" d="M1768.37 1454.32c-10.06,41.7 -13.07,36.31 -50.98,49.33 -27.71,11.87 -20.71,4.73 -32.71,31.57l-1.32 31.51c59.14,16.38 21.35,36.88 89.6,28.23 49.74,-6.31 49.71,-16.79 113.22,-11.08l26.51 56.36 92.43 23.69c22.19,10.91 31.61,32.44 32.85,64.42 1.88,48.73 -11.56,26.91 -25.6,56.44 -21.62,45.47 7.02,126.21 6.36,144.61 52.99,-20.11 93.31,47.44 128.22,-38.05 22.99,-56.3 24.94,-132.7 17.73,-192.2l-78.13 -177.95c-15.8,1.03 -12.33,4.08 -7.24,-11.46 -38.85,-13.13 -54.7,-34.5 -98.39,-47.79 -36.1,-10.98 -75.95,-14.47 -109.54,-26.77 -46.01,-5.53 -48.76,-9.13 -94.24,4.74l-8.77 14.4z"/>
   <path class="fil7" d="M2002.31 708.59c72.94,16.04 98.22,100.25 242.96,95.38 119.98,-24.43 93.81,-110.03 154.7,-178.5l10.58 -46.49 -23.25 -8.02 -32.23 -0.45 -19.05 -40.56c-80.05,-12.69 -146.28,10.59 -218.06,21.77 -30.87,45.84 3.86,26.04 -59.35,67.46 -16,10.48 -57.18,41.59 -72,54.06l15.7 35.35z"/>
   <path class="fil7" d="M3088.37 1123.36l-28.94 67.69c-37.29,98.46 -38.71,58.48 -14.59,169.14l3.3 13c33.06,30.61 46.14,67.32 88,88.45 37.01,18.68 115,22.6 157.55,18.6l30.42 -47.02 -22.26 -13.67c-103.65,-23.96 -33.61,-70.12 -76.61,-133.79 -17.96,-26.59 -29.88,-45.49 -43.92,-75.83 -20.16,-43.56 -5.9,-50.96 -22.49,-91.05 -25.5,-22.48 -43.05,-9.04 -70.46,4.48z"/>
   <path class="fil7" d="M2834.2 1708.92l-36.36 19.6c-27.47,47.94 -92.18,86.7 -100.93,164.56 13.18,28.24 16.79,17.32 25.48,42.14 10.02,28.59 -5.51,22.58 17.7,53.76 137.78,-37.03 -20.43,-98.04 133.28,-136.56l36.99 -47.46c73,-55.84 102.86,110.17 187.92,37.31l28.29 -35.38c-18.56,-74.05 -127.55,-108.39 -196.89,-105l-95.48 7.03z"/>
   <path class="fil7" d="M2974.76 1024.79c8.83,-51.03 24.9,-29.12 30.93,-79.81 72.66,-164.89 -72.62,-155.92 -156.29,-104.15 -57.02,35.28 8.39,30.19 -54.22,25.43 15.17,31.86 14.52,-4.02 11.84,25.47 -2.84,31.24 -40.73,31.36 -19.06,114.6 8.41,32.32 50.88,107.65 72.93,127.33 99.93,-6.98 64.59,-61.17 113.87,-108.87z"/>
   <path class="fil7" d="M1649.39 1130.79c81.04,55.83 23.23,73.2 22.58,123.93 -1.03,79.45 19.19,64.97 -2.5,158.87 16.58,42.82 46.09,26.54 75.61,7.23l39.43 -34.07c67.34,-96.6 50.84,-75.52 36.39,-190.55l-13.5 -28.22c-41,-26.38 -77.87,-60.48 -129.94,-67.16l-28.07 29.97z"/>
   <path class="fil7" d="M2899.08 1452.3l-16.25 25.53 -18.04 41.92c3.76,52 41.78,118.64 99.12,118.14l-6.59 -45.88c33.12,-44.88 22.93,-6.58 43.33,-70.09 9.33,-29.02 25.7,-45.72 32.33,-67.72l-13.4 -19.27c-41.28,-3.33 -81.68,5.36 -120.5,17.37z"/>
   <path class="fil7" d="M1865.07 1015.2c165.69,42.39 232.64,-189.91 150.05,-209.26l-31.19 19.16 0.36 93.93c-37.53,16.5 -36.37,4.81 -67.11,29.98 -33.47,27.42 -20.89,10.54 -58.56,31.13l6.45 35.06z"/>
   <path class="fil7" d="M2849.29 1321.33c30.62,38.85 32.88,22.89 70.15,41.03l26.44 1.15 14.22 -38.63 -4.45 -46.27 -25.98 -34.37c-43.52,10.91 -79.8,29.31 -80.38,77.09z"/>
   <path class="fil7" d="M3165.94 972.09l5.12 24.55 42.62 4.86c19.35,-19.65 23.38,-14.84 24.96,-42.81l-51.71 -5.74c-15.97,29.22 -3.94,15.22 -20.99,19.14z"/>
   <path class="fil7" d="M1627.95 985.22c1.26,0 36.04,2.33 36.12,2.31 25.91,-4.7 6.34,8.72 20.87,-15.19l-18.52 -28.72 -53.77 -2.38 15.3 43.98z"/>
   <path class="fil7" d="M2271.87 1851.65c1.72,32.04 4.85,30.23 33.11,39.95l10.52 -47.59 -34.41 -34.95 -9.22 42.59z"/>
   <path class="fil8" d="M3277.29 4652.73c16.02,-20.55 22.02,-32.72 50.12,-3.65 -11.35,31.97 -30.63,37.55 -50.12,3.65zm-101.41 -64.19c31.36,3.38 35.16,11.79 48.74,44.54 -45.84,-0.55 -34.08,-10.58 -48.74,-44.54zm11.69 -53.85c16.41,-31.37 34.33,-35.29 54.08,2.04 -25.08,26.84 -31.71,26.24 -54.08,-2.04zm262.24 -57.72c36.87,19.76 30.81,26.8 -0.39,44.23 -15.4,-26.05 -22.24,-15.33 0.39,-44.23zm-116.2 118.26l-43.07 -53.49c71.16,-83.41 67.37,-59.15 120.86,-161.42 61.41,61.43 -12.17,184.69 -77.79,214.91zm-255.56 -116.19l-26.06 -47.95c41.55,2.92 27.93,-4.54 52.4,31.04 15.08,21.93 23.93,25.65 27.37,50.35 -37.44,-0.75 -25.63,-10.29 -53.71,-33.44zm303.69 -125.93c17.36,33.13 13.73,22.53 -9.84,39.87 -31.9,-25.55 -20.77,-32.51 9.84,-39.87zm-310.11 15.54c17.87,-24.9 11.27,-24.5 51.93,-13.75 -1.46,42.57 -31.7,54.01 -51.93,13.75zm164.44 97.69l-61.66 -82.48c163.94,-153.88 76,-100.03 145.66,-193.39 72.78,95.3 20.4,242.73 -84,275.87zm-285.95 -181.12c37.22,1.33 63.34,39.99 67.18,72.31 -45.42,-1.31 -54.6,-39.14 -67.18,-72.31zm323.74 -91.02c19.68,30.21 19.61,19.1 -0.94,46.56 -5.74,-1.89 -20.32,4.95 -24.33,-19.26 -3.86,-23.36 12.54,-22.3 25.27,-27.3zm-312.33 10.81c40.1,-6.79 30.54,-13.82 49.07,18.88 -23.49,37.28 -48.42,21.57 -49.07,-18.88zm165.25 104.58l-60.43 -72.15c16.14,-21.34 70.04,-68.29 94.08,-97.77 29.76,-36.48 53.06,-95.14 74.85,-119.54 74.86,78.27 -14.61,250 -108.5,289.46zm28.97 -276.13c38.05,15.17 41.87,32.63 0.46,46.2 -17.28,-31.56 -18.07,-17.2 -0.46,-46.2zm-1068.74 463.77c-42.78,12.63 -138.07,-73.75 -161.85,-109.69 -80.79,-122.09 -102.81,-332.07 -21.56,-486.01 18.15,-34.37 96.31,-155.59 124.47,-171.3 63.06,42.14 129.59,217.48 384.58,336.44 147.14,68.64 380.68,97.3 409.94,138.42 53.1,74.64 18.88,39.05 93.93,86.81 -43.24,112.14 -381.32,508.77 -485.49,554.73 -81.84,-41.12 -257.29,-245.54 -301.62,-330.34 -88.43,-169.19 -85.33,-319.46 -19.39,-494.57 -57.45,70.62 -74.68,268.03 -48.61,365.37 9.13,34.13 38.16,75.2 25.6,110.14zm706.15 -1821.76c30.93,13.38 36.57,28.42 19.49,60.68 -26.28,-23.5 -22.79,-25.66 -19.49,-60.68zm-834.25 -66.23c-10.12,-22.75 -13.61,14.2 -8.89,-29.27 2.83,-25.96 2.76,-10.35 10.59,-19.79 16.33,25.74 12.08,10.64 -1.7,49.06zm-115.55 -127.11c23.79,19.42 22.37,25.61 9.16,55.82 -26.56,-16.92 -17.25,-28.49 -9.16,-55.82zm1201.67 148.56c35.35,18.94 10.44,112.56 -7.3,135.25 -19.92,48.42 -26.74,32.08 -50.1,63.62l47.7 -29.43c74.2,63.56 96.69,322.28 96.55,414.88l-0.45 512.61 -10.79 36.8c11.21,58.64 93.3,127.6 -8.97,287.35 -20.66,32.27 -54.87,79.34 -90.67,94.53l-135.8 54.73c-53.27,-28.45 -156.17,-211.46 -189.02,-271.08 -29.93,-54.33 -51.66,-103.86 -74.89,-161.16 -29.7,-73.3 -68.01,-71.1 -87.19,-148.62 -45.08,-182.19 -41.09,-155.55 -129.1,-339.93 -51.89,-108.73 -127.68,-234.46 -108.11,-357.54 25.65,-18.11 415.75,-119.61 497.76,-151.68 2.33,-22 -4.09,-5.79 17.23,-9.46l32.58 -6.21c6.03,-48.13 -3.77,-65.99 -25.54,-105.35l-48.49 -9.31c-99.05,68.31 -399.8,100.89 -512.07,163.37 -2.02,72.05 26.1,78.79 20.8,147.63 -4.43,57.59 10.43,96.37 32.34,148.65 60.83,145.11 120.43,252.38 183.54,385.14 22.49,47.31 20.66,99.97 35.73,150.68 20.51,69.02 82.16,68.35 131.22,260.55 -229.58,-53.71 -332.3,-133.9 -481.07,-294 -97.01,-104.4 -43.56,-65.93 -72.06,-192.58 -29.2,-129.8 -93.74,-261.84 -121.78,-387.1 -15.51,-69.33 -98.81,-383.8 -71.34,-425.64 58.7,16.19 76.37,300.08 131.03,354.39 -6.2,-68.74 -87.85,-233.49 -82.71,-296.52 48.2,16.95 128.05,166.26 255.52,146.13 -15.43,-34.82 -48.74,-62.78 -72.32,-125.03 -21.15,-55.84 -29.13,-99.22 -72.5,-142.45l-18.51 34.81 -10.69 -39.81 -52.84 24.88c-11.17,-58.94 0.28,-79.7 -20.91,-141.85 27.15,26.18 39.21,41.81 74.6,18.31 29.53,-19.61 17.47,9.2 56.09,-9.18 40.84,-34.99 55.36,-205.98 239.69,-314.1 104.41,-61.23 102.18,-32.08 197.11,1.7 123.08,43.82 82.75,47.63 160.4,129.89 35.79,7.04 16.25,-23.07 44.85,-1.45 107.48,81.27 38.41,70.88 33.63,152.28 -1.99,33.92 -8.44,118.32 0.84,146.76 58.01,0.1 54.31,-174.65 98.38,-209.41 59.95,-5.9 80.76,73.63 104.27,122.58 26.24,54.65 59.48,121.66 63.36,181.37zm-1005.56 -355.74c-0.74,39.88 6.24,30.32 -29.74,43.81 -13.83,-33.9 -6.15,-39.77 29.74,-43.81zm53.89 -45.53c-23.57,-29.64 5.11,-43.07 34.13,-43.46 -1.76,31.9 1.47,40.26 -34.13,43.46zm682.4 -93.53l-11.01 20.79c-27.16,-21.58 -10.63,-1.06 -20.77,-34.77l31.78 13.98zm-596.6 10.15c-0.78,-37.6 10.19,-41.2 45.35,-37.79 -5.06,37.86 -8.1,39.57 -45.35,37.79zm466.69 -77c23.94,-11.12 17.38,-11.46 41.42,10.44 -25.03,12.45 -19.46,14.31 -41.42,-10.44zm-114.42 -29.39c21.75,-17.15 15.75,-18.82 44.56,2.12 -23.35,15.39 -15.87,15.45 -44.56,-2.12zm-922.86 6.38c-33.67,-50.61 -13.16,-104.63 27.11,-135.02 23.08,58.6 24.29,92.02 -27.11,135.02zm1513.95 -138.82c-7.97,-51.26 -6.48,-61.13 32.25,-87.57 19.07,35.82 10.76,73.8 -32.25,87.57zm-495.12 -51.99c-16.59,-26.6 -22.11,-34.03 16.6,-46.16 7.24,34.72 12.32,22.68 -16.6,46.16zm491.71 -112.26c5.55,-27.41 19.61,-32.87 38.13,-47.33 38.2,28.31 50.79,38.72 63.96,86.77 -30.32,-7.63 -49.35,-34.47 -64.92,-56.19l-37.17 16.75zm179.2 -178.98l6.17 18.55c35.69,-1.93 84.02,1.23 92.3,39.42 -52.25,4.22 -69.57,8.03 -113.15,-19.97l-106.28 3.64 64.79 35.83c60.94,8.98 87.63,69 94.42,125.87 -91.18,-20.9 -71.04,-67.64 -123.97,-109.7 -37.36,-39.32 -44.84,-35.82 -81.83,-67.6l0.44 -1.56c-15.66,16.96 -10.08,-18.46 -15.55,23.41l-18.39 -10.71c7.74,41.12 8.39,38.68 -0.54,78.17 -41.08,-20.32 -53.88,-72.96 -41.99,-120.6 25.18,-9.07 -0.95,-9.87 31.23,-1.89l47.37 13.8c19.72,-36.96 63.51,-41.49 105.07,-33.52l-52.98 39.08c40.49,23.77 51.06,4.97 91.45,-12.09 1.26,-66.01 32.13,-88.57 95.92,-90.84 -7.9,43.83 -28.65,82.04 -74.48,90.71zm-1746.96 -26.73c-2.71,-67.41 41.45,-106.91 104.61,-112.64 -19.79,49.93 -50.96,97.54 -104.61,112.64zm48.71 -163.32c-50.14,-7.56 -71.59,-32.6 -80.03,-80.44 58.94,1.32 73.91,23.73 80.03,80.44zm66.36 -430.31l9.01 -22.9c32.23,29.99 47.2,23.04 79.32,42.63 22.44,13.69 51.12,61.56 23.11,74.34 -40.77,58.03 -102.48,-16.82 -171.63,-29.71l21.72 -22.76 -15.3 -43.98 53.77 2.38zm556.37 -101.07c56.07,2.51 155.4,37.21 104.61,105.42 -63.94,17.76 -100.13,-42.14 -104.61,-105.42zm-639.97 47.6c20.88,-46.36 44.91,-63.34 94.62,-58.4 -10.98,53.21 -40.82,65.66 -94.62,58.4zm1480.76 -45.44c0.15,-0.12 25.88,-53.91 90.09,-3.06 -14.65,7.81 -33.91,17.91 -50.46,20.11 -56.45,7.51 -32.16,-3.74 -39.63,-17.05zm-1262.99 -33.34c-39.58,-7.43 -72.32,-23.65 -91.58,-60.82 49.76,3.91 83.98,23 115.86,57.44 -12.16,30.42 -13.16,44.05 -46.96,53.4 0.96,-27.72 -0.2,-34.65 22.68,-50.02zm1328.44 -64.39c-7.43,-67.55 7.59,-94.85 62.44,-123.79 11.2,65.43 -4.89,101.26 -62.44,123.79zm-559.49 -242.56c59.21,-3.25 138.74,-34.38 175.08,-31.27 67,5.73 46.64,65.43 112.97,83.86l44.56 3.55c89.01,93.1 100.75,69.97 109.84,214.07 34.11,30.33 50.97,26.71 42.44,87.88 -4.24,30.41 -25.82,66.24 -48.74,82.47 -6.03,50.69 -22.1,28.78 -30.93,79.81l-4.02 38.21c51.49,-27.22 58.72,-17.11 87.56,-63.89 14.94,-54.35 77.44,-49.52 135.44,-73.86l-6.81 27.7 51.71 5.74c-1.58,27.97 -5.61,23.16 -24.96,42.81l21.7 20c-30.6,13.04 -128.79,36.87 -169.03,22.62 -40.88,-3.99 -51.43,10.35 -89.48,28.59 32.04,12.86 23.15,-1.53 51.19,19.83 37.03,20.61 31.53,4.21 60.31,30.82 27.41,-13.52 44.96,-26.96 70.46,-4.48 115,32.26 101.2,141.81 118.63,166.46 21.43,30.28 50.06,53.12 24.39,134.21l22.26 13.67 -30.42 47.02c-42.55,4 -120.54,0.08 -157.55,-18.6 -41.86,-21.13 -54.94,-57.84 -88,-88.45l-186.78 41.96 17.92 16.1 19.8 21.05c38.82,-12.01 79.22,-20.7 120.5,-17.37l13.4 19.27c38.7,37.01 21.71,61.28 -0.66,99.61 -33.24,56.97 -9.89,41.26 -68.41,84.08 -57.34,0.5 -95.36,-66.14 -99.12,-118.14l-41.88 0.63 -12.42 -21.16 -17.36 76.93 3.4 19.37c49.92,-6.42 35.58,4.42 70.43,27.96 47.05,31.77 20.46,4.66 62.72,78.41 69.34,-3.39 178.33,30.95 196.89,105l-28.29 35.38c3.9,105.06 -4.08,24.85 -39.66,99.61 -48.05,100.94 -53.16,17.24 -94.34,71.77 -15.85,20.98 -7.95,21.85 -33.75,45.87 -67.58,3.98 -145,-35.7 -190.44,-70.54 -23.21,-31.18 -7.68,-25.17 -17.7,-53.76 -8.69,-24.82 -12.3,-13.9 -25.48,-42.14 8.75,-77.86 73.46,-116.62 100.93,-164.56 -26.61,-33.3 -21.18,-15.95 -27.33,-51.13l-22.44 -29.23c-29.41,35.77 -27.68,70.21 -56.31,102.98 -42.5,48.65 -45.25,31.51 -107.69,38.36l-12.61 22 -20.66 24.44c-26.34,-13.23 -15.09,10.44 -22.48,-28.57l-49.5 -10.48 -36.51 -2.02c-15.73,-29.86 -13.81,-15.53 -0.85,-44.96 -33.28,-29.61 -38.88,-3.56 -73.12,-50.75 -27.74,-17.14 -36.27,-24.35 -48.3,-56.87 -63.29,-18.08 -162.93,-75.93 -201.33,-125.81l-32.16 4.72 78.13 177.95 58.28 25.11c13.7,-14.51 4.71,-4.91 22.71,-12.82 50.86,-20.95 68.81,18.14 80.53,67.58 47.37,19.13 93.26,40.59 141.19,58.95 48.39,18.54 108.88,29 149.77,46 51.82,100.6 22.75,66.39 103.18,150.97 24.58,25.86 89.12,108.48 95.41,139.57 -27.41,-6.4 -14.49,-14.47 -39.99,-38.62 -75.89,-133.29 -395.03,-174.45 -518.92,-104.67 -52.25,29.43 -158.41,111.27 -195.97,156.68 -53.01,64.08 -135.74,143.49 -89.06,224.04l-46.82 -0.31 -32.01 -3.14 -18.41 1.67c-14.68,-83.56 -16.16,-180.44 -4.88,-265.63 11.95,-90.29 46.52,-133.85 70.56,-210.07 -38.16,-41.11 -72.06,12.3 -117.17,-30.28 -44.96,-42.44 10.28,-60.09 -75.03,-71.68l-15.11 28.92 -15.37 -29.09c-25.93,-14.05 -18.69,-9.33 -39.09,-30.25 -14.77,33.94 -62.97,36.98 -91.25,22.49 26.15,-24.16 50.9,-38.82 88.07,-37.11 -5.15,-59.05 -17.58,-49.19 -7.29,-111.41 6.61,-40 7.42,-67.32 15.35,-109.32l1.32 -31.51 -36.85 13.92c2.45,-42.51 9.38,-54.55 52.73,-74.45l16.83 28.96c37.91,-13.02 40.92,-7.63 50.98,-49.33l-23.26 10.06 -0.03 -43.56c-29.52,19.31 -59.03,35.59 -75.61,-7.23 -27.33,-9.58 -13.12,8.76 -23.12,-26.56 -58.27,10.05 -27.17,1.94 -70.85,23.23 -35.93,17.51 -43.19,11.92 -78.32,3.07 29.27,-46.87 44.4,-28.56 81.61,-31.88 28.43,-2.54 2.83,3.88 21.27,-7.52l37.99 14c-26.66,-71.08 -4.99,-73.42 -6.66,-130.71 -0.74,-25.37 -10.17,-25.82 -0.02,-67.34 8.47,-34.66 11.25,-14.33 18.02,-59.09l28.07 -29.97c52.07,6.68 88.94,40.78 129.94,67.16 22.09,-46.86 87.51,-68.97 134.78,-37.46 -21.14,13.67 -38.84,23.79 -62.39,31.89 -16.95,5.84 -32.23,21.28 -58.89,33.79 14.45,115.03 30.95,93.95 -36.39,190.55l-7.37 53.17c45.48,-13.87 48.23,-10.27 94.24,-4.74 16.78,-49.47 61.24,-101.9 109.65,-121.29 -27.8,-50.91 -31,-11.43 -20.76,-79.69 7.16,-47.66 -6.7,-44.32 -1.63,-96.43 8.29,-48.62 10.31,-34.78 42.1,-67.26 30.8,-31.45 18.07,-35.19 39.24,-69.92l30.8 -0.97 16.29 -8.83 -25.63 -2.24c10.25,-24.83 40.32,-55.18 65.47,-63.33l-13.36 64.45 74.13 -13.33c35.6,-42.28 87.73,-14.67 120.53,21.47 67.88,74.78 9.51,44.88 82.76,80.99 10.64,48.73 17.69,67.64 -19.55,97.47l-4.13 48.5c28.33,-9.97 24.11,-8.06 47.91,-11.99 18.62,-3.08 28.28,-11.53 47.33,-12.44l107.15 7.99c-17.3,37.71 -24.15,22.91 -48.29,52.15 14.43,0.32 49.66,4.87 59.37,4.62 43.39,-1.13 6.37,1.72 45.43,-17.77 40.79,10.69 94.1,33.5 86.75,80.33 36.57,19.95 7.52,19.2 50.95,47.26 34.98,22.6 29.16,7.89 46.71,48.69l9.64 0.09c48.58,-38.44 53.04,0.84 99.2,-61.34 -37.27,-18.14 -39.53,-2.18 -70.15,-41.03 -17.71,-27.98 -15.63,-21.26 -9.65,-58.14l-18.14 11.67c-71.4,-27.8 -55.86,-5.57 -104.93,-25.96 41.84,-36.46 38.64,-48.05 124.46,-16.24 37.37,-57.08 55.92,-38.23 88.64,11.58l25.98 34.37c26.31,12.27 27.94,7.43 26.31,56.2 -1.01,30.05 -11.23,32.52 -13.04,34.6l75.92 -9.22c-24.12,-110.66 -22.7,-70.68 14.59,-169.14 -40.56,-7.81 -34.4,-13.1 -68.74,-33.01 -41.96,13.27 3.41,6.32 -35.87,16.25l-35.9 -29.19c-64.78,46.79 -164.37,51.33 -241.34,41.29 -48.67,-6.35 -4.79,-5.87 -48.5,25.24 -34.97,-1.23 -102.22,-27.87 -122.85,-60.21 -30.63,-47.98 -11.1,-59.53 -75.95,-99.69 -124.38,-77.02 -53.19,-144.44 -38.88,-249.32 -41.99,-100.01 48.5,-61.31 69.51,-156.22l-53.31 6.9 -7.63 -27.62c-60.89,68.47 -34.72,154.07 -154.7,178.5 -60.7,47.01 -184.25,-10.25 -244.18,-46.05 -2.84,28.65 5.1,29.66 -19.74,37.58l33.77 10.44c82.59,19.35 15.64,251.65 -150.05,209.26l-44.65 -44.29c-2.16,-39.43 -6.26,-90.19 15.63,-123.59 30.25,-20.71 18.98,-3.67 42.96,-15.69 43.14,-21.61 -1.19,-33.75 62.38,-26.06l-61.98 -70.64c-71.78,-14.56 -149.38,-58.86 -179.11,-123.13 99.72,-7.64 160.73,30.71 190.48,122.96l34.15 30.09c13.96,-34.12 -4.18,-88.44 -14.46,-128.67 -42.31,-41.46 -53.49,-69.1 -44.88,-131.43 28.73,27.89 47.79,35.91 54.47,76.61 16.86,26.54 9.84,26.43 11.85,63.45l9.14 -17.82c11,-62.31 39.5,-94.2 95.46,-122.97 22.36,70.66 -8.8,125.82 -82.94,134.01 -13.74,35.36 -28.43,99.45 3.13,122.38l14.11 -22.82 31.5 -29 -15.7 -35.35c14.82,-12.47 56,-43.58 72,-54.06 63.21,-41.42 28.48,-21.62 59.35,-67.46 71.78,-11.18 138.01,-34.46 218.06,-21.77l19.05 40.56 32.23 0.45c-0.51,-34.2 -2.31,-42.3 14.68,-70.04 25.95,37.34 23.17,74.03 21.72,119.27 51.98,-4.23 36.06,0.59 47.52,10.86 35.31,-27.32 0.68,-12.96 38.23,-60.9 18.56,-23.69 19.17,-33.15 33.36,-59.84l-44.72 -0.43c15.94,-62.93 43.69,-74.85 113.84,-74.04l-42.39 68.58zm508.51 3974.62c4.55,82.89 25.15,74.03 79.95,116.08 49.95,38.31 5.29,91.71 78.5,104.44l17.01 0.17c139.19,16.42 198.4,-124.92 236.57,-183.57 39.46,40.12 98,87.96 130.17,125.16 48.57,56.18 2.97,150.68 -3.45,215.44 -4.36,32.43 -4.03,24.82 -35.82,29.57 -6.29,44.46 -17.11,73.58 -62.88,83.1l24.71 -113.91c-13.66,34.79 -11.52,9.77 -21.88,62.9 -5.68,29.1 -9.97,54.29 -37.32,69.08l-15.93 20.19c6.83,37.07 4.51,63.18 26.29,93.8 20.67,15.09 1465.9,7.85 1613.82,5.66l-0.68 -5106.98 -5106.9 0.46 0.43 5107.09 2039.11 -3.57c20.17,-127.42 -29.72,-406.55 2.83,-530.36l42.45 18.99c-27.48,-20.9 -60.6,-54.54 -71,-87.14 129.91,34.22 212.88,187.5 312.44,273.87 48.82,42.35 116.08,98.76 156.51,147.35 32.26,38.76 86.55,158.14 116.07,175.88 13.55,-33.67 -101.77,-163.04 -113.49,-201.39 20.47,-40.38 205.36,-199.92 253.58,-262.14 86.17,-111.16 142.27,-182.92 214.41,-306.49 22.85,30.87 -3.93,51.93 46.68,86.49 24.68,16.85 22.07,5.62 44.88,24.36 14.95,12.28 15.31,20.69 32.94,35.47z"/>
   <path class="fil9" d="M2038.64 1360.88c-40.79,40.53 -17.69,-5.09 -46.6,14.56 -21.99,14.94 -9.79,18.73 -27.45,30.49 -6.54,4.35 -73.97,26.99 -93.21,29.25 33.59,12.3 73.44,15.79 109.54,26.77 43.69,13.29 59.54,34.66 98.39,47.79l53.85 -12.04 -1.04 -29.35c16.96,-27.05 1,-14.37 44.2,-9.68 18.58,2.02 33.33,8.83 50.78,16.27l-11.67 -25.76c-50.13,-0.83 -18.04,-14.96 -66.07,-14.8 -33.87,0.12 -50.03,18.38 -78.45,25.67 22.84,-27.07 53.64,-31.45 87.87,-38.84l1.61 -28.33 36.28 37.51 1.41 -35.22 52.71 61.76 -20.37 -103.22c-50.87,-2.11 -39.72,-12.78 -92.88,-2.48 -38.21,7.41 -56.82,9.49 -98.9,9.65z"/>
   <path class="fil9" d="M2703.3 907.35c78.1,-19.34 86.46,7.31 80.66,-92.47 -16.8,-59.62 -74.19,-60.98 -118.85,-31.63 -29.96,63.35 1.37,88.56 38.19,124.1z"/>
   <path class="fil9" d="M2489.07 1506.34l13.86 64.23c33.29,17.54 45.01,17.03 79.81,3.59 15.35,-42.38 0.73,-70.89 -10.69,-99.21 -21.15,8.62 -39.16,1.62 -74.6,4.2l-8.38 27.19z"/>
   <path class="fil9" d="M2315.14 1351.46c-53.56,86.99 -31.12,99.83 -30.47,186.31l0.41 1.11 -3.74 -38.76 25.73 -20.45 44.89 -95.87 4.29 -52.4 -41.11 20.06z"/>
   <path class="fil9" d="M2180.68 1198.15l15.8 -28.45 -23.19 -48.17c-29.28,2.69 -32.54,5.2 -54.31,26.15 -7.33,60.65 9.38,63.18 61.7,50.47z"/>
   <path class="fil9" d="M2005.12 1663.93l-92.43 -23.69 -13.84 19.33 10.83 22.88c47.36,12.36 30.58,27.09 90.82,14.73l4.62 -33.25z"/>
   <path class="fil9" d="M2251.79 1327.18l-16.32 29.89 28.13 69.99c27.73,-41.77 15.36,-61.84 41.08,-95.75l1.73 -18.46 -54.62 14.33z"/>
   <path class="fil9" d="M2810.49 1499.22l43.64 -2.08 10.66 22.61 18.04 -41.92c-52.36,-15.68 -24.8,-4.48 -69.4,-36.54l-2.94 57.93z"/>
   <path class="fil9" d="M2873.37 1852.42l3.03 22.35c41.72,-15.9 50.46,-21.24 56.95,-60.76l-22.99 -9.05 -36.99 47.46z"/>
   <path class="fil9" d="M3013.48 2744.91l28.25 -8.94c-24.14,-41.78 -6.41,-28.06 2.63,-55.77l-21.98 -4.09c-23.32,12.49 -14.34,48.19 -8.9,68.8z"/>
   <path class="fil10" d="M2770.51 1677.39c6.15,35.18 0.72,17.83 27.33,51.13l36.36 -19.6c-15.57,-38.57 -15.33,-41.23 -53.47,-57.84l-10.22 26.31z"/>
  </g>
 </g>
</svg>
