<?xml version="1.0" encoding="UTF-8"?>
<!DOCTYPE svg PUBLIC "-//W3C//DTD SVG 1.1//EN" "http://www.w3.org/Graphics/SVG/1.1/DTD/svg11.dtd">
<!-- Creator: CorelDRAW 2017 -->
<svg xmlns="http://www.w3.org/2000/svg" xml:space="preserve" width="23.18mm" height="7.58mm" version="1.1" style="shape-rendering:geometricPrecision; text-rendering:geometricPrecision; image-rendering:optimizeQuality; fill-rule:evenodd; clip-rule:evenodd"
viewBox="0 0 2318 758"
 xmlns:xlink="http://www.w3.org/1999/xlink">
 <defs>
  <style type="text/css">
   <![CDATA[
    .fil5 {fill:#F8F8F8;fill-rule:nonzero}
    .fil0 {fill:#373435;fill-rule:nonzero}
    .fil6 {fill:#F9F8F8;fill-rule:nonzero}
    .fil2 {fill:url(#id0)}
    .fil1 {fill:url(#id1)}
    .fil4 {fill:url(#id2)}
    .fil3 {fill:url(#id3)}
   ]]>
  </style>
  <linearGradient id="id0" gradientUnits="userSpaceOnUse" x1="174.26" y1="273.37" x2="502.2" y2="273.37">
   <stop offset="0" style="stop-opacity:1; stop-color:#58C2AF"/>
   <stop offset="1" style="stop-opacity:1; stop-color:#DDE89C"/>
  </linearGradient>
  <linearGradient id="id1" gradientUnits="userSpaceOnUse" x1="303.62" y1="146.22" x2="303.62" y2="659.29">
   <stop offset="0" style="stop-opacity:1; stop-color:#3781B2"/>
   <stop offset="0.458824" style="stop-opacity:1; stop-color:#61A8B8"/>
   <stop offset="1" style="stop-opacity:1; stop-color:#8CD0BF"/>
  </linearGradient>
  <linearGradient id="id2" gradientUnits="userSpaceOnUse" x1="527.58" y1="333.82" x2="527.58" y2="471.4">
   <stop offset="0" style="stop-opacity:1; stop-color:#F58B7D"/>
   <stop offset="1" style="stop-opacity:1; stop-color:#FDC87A"/>
  </linearGradient>
  <linearGradient id="id3" gradientUnits="userSpaceOnUse" x1="338.3" y1="402.85" x2="338.3" y2="661.14">
   <stop offset="0" style="stop-opacity:1; stop-color:#EC4B49"/>
   <stop offset="1" style="stop-opacity:1; stop-color:#8E55A0"/>
  </linearGradient>
 </defs>
 <g id="Capa_x0020_1">
  <metadata id="CorelCorpID_0Corel-Layer"/>
  <g id="_2946640693296">
   <path class="fil0" d="M2317.79 655.6c0,56.57 -45.86,102.45 -102.43,102.45l-2112.71 0c-56.57,0 -102.45,-45.88 -102.45,-102.45l0 -553.21c0,-56.57 45.88,-102.45 102.45,-102.45l2112.71 0c56.57,0 102.43,45.88 102.43,102.45l0 553.21z"/>
   <path class="fil1" d="M174.2 644.46l0 -0.61 -0.08 0c-0.05,-0.57 -0.08,-1.17 -0.08,-1.78l0 -239.48 0 -234.71c0,-0.56 0.02,-1.09 0.05,-1.61l0.11 0 0 -1.1c0.15,-1.24 0.42,-2.39 0.78,-3.43l0.12 0 0 -0.35c0.13,-0.35 0.28,-0.69 0.43,-1.01l0.03 0 0 -0.05c0.14,-0.3 0.29,-0.58 0.44,-0.86l0.01 0 0 -0.01c0.38,-0.66 0.81,-1.26 1.28,-1.8l0.08 0 0 -0.09c0.41,-0.47 0.86,-0.89 1.34,-1.27l0.02 0 0 -0.01c0.42,-0.34 0.86,-0.63 1.33,-0.9l0.03 0 0 -0.01c0.64,-0.37 1.32,-0.66 2.03,-0.89l0.23 0 0 -0.07 0.22 -0.07 250.35 248.24 -28.99 28.75 0 0 0 0 -53.47 53.01 0 0 0 0.01 -53.47 53.01 0 0 0 0 -116.53 115.54 -0.01 0c-3.34,-1.12 -5.64,-4.09 -6.25,-8.45z"/>
   <path class="fil2" d="M409.82 379.69l0 -0.01 -0.01 0 -53.46 -53.01 0 0 0 0 -0.45 -0.45 0 0 -0.01 0 -53.46 -53.02 0 0 0 0 -53.47 -53.01 -0.45 -0.45 0 0 -0.01 0 -53.46 -53.02 -12.47 -12.37c0.48,-0.13 0.98,-0.24 1.49,-0.32l0.1 0 0 -0.01c1.97,-0.28 4.12,-0.14 6.35,0.44l0 0.03 0.09 0c0.87,0.23 1.74,0.52 2.63,0.88l0 0.02 0.05 0c0.29,0.12 0.57,0.24 0.85,0.37l0 0.09 0.19 0c0.5,0.23 1.01,0.49 1.52,0.77l193.66 111.81 1.9 1.1 3.43 1.98 1.61 0.93 1.51 0.87 83 47.92 21.5 12.41 -69.53 68.95 -23.1 -22.9z"/>
   <path class="fil3" d="M180.54 652.94l0 -0.03 -0.08 0 9.14 -9.06 0 0 0 0 53.47 -53.01 0 0 0 -0.01 189.85 -188.24 69.53 68.95 -3.37 1.94 -87.9 50.75 -0.01 0 0 0 -13.22 7.63 -0.21 0.12 -1.67 0.97 -3.92 2.26 -1.23 0.71 -10.59 6.12 -1.65 0.95 -11.45 6.61 -0.01 0 0 0.01 -108.29 62.52 0 0 0 0 -32.17 18.58 -24.64 14.23 -7.53 4.35 0 0 0 0 -3.1 1.79 -0.04 0.02 -0.04 0 0 0.02c-0.27,0.15 -0.54,0.3 -0.81,0.43l-0.09 0 0 0.05c-0.29,0.14 -0.58,0.28 -0.87,0.41l-0.04 0 0 0.01c-0.84,0.38 -1.67,0.67 -2.48,0.89l-0.24 0 0 0.07c-0.77,0.19 -1.52,0.32 -2.25,0.39l-2 0c-0.73,-0.07 -1.43,-0.21 -2.09,-0.43z"/>
   <path class="fil4" d="M463.74 433.15l0 0 0 0 -30.82 -30.56 24.47 -24.26 0 0 0 -0.01 45.06 -44.68c0,0 91.21,53.05 101.15,58.41l0.16 0.08 0.93 0.54c0.3,0.18 0.59,0.37 0.87,0.56l0 0.05 0.07 0c0.63,0.43 1.21,0.88 1.74,1.34l0 0.02 0.02 0 0.44 0.39 0 0.06 0.06 0c0.13,0.13 0.26,0.26 0.39,0.39l0 0.06 0.06 0c0.14,0.14 0.27,0.28 0.39,0.43l0 0.03 0.03 0c0.75,0.85 1.35,1.75 1.79,2.67l0 0.05 0.02 0c0.17,0.36 0.31,0.73 0.43,1.1l0 0.25 0.07 0c0.55,1.92 0.42,3.92 -0.47,5.89l-0.05 0 0 0.13c-0.12,0.26 -0.26,0.52 -0.4,0.78l-0.06 0 0 0.1c-0.87,1.51 -2.2,3.01 -4,4.43l-0.08 0 0 0.06c-0.89,0.7 -1.9,1.38 -3.03,2.04l-7.42 4.28 -6.22 3.59 -2.36 1.36 0 0 0 0 -0.89 0.52 -58.84 33.96 -0.35 0.21 -12.73 7.35 -2.97 1.71 -3.23 1.86 -1.26 0.73 -2.39 1.38 -1.75 1.02 -0.12 0.07 -38.71 -38.39z"/>
   <path class="fil5" d="M1800.59 367.4c-15.26,0 -26.29,4.23 -33.1,12.67 -6.81,8.45 -10.31,21.89 -10.5,40.33l0 5.04c0,20.98 3.51,35.99 10.5,45.03 7,9.03 18.21,13.54 33.65,13.54 12.9,0 23.01,-5.22 30.32,-15.66 7.3,-10.44 10.96,-24.84 10.96,-43.19 0,-18.61 -3.66,-32.9 -10.96,-42.84 -7.31,-9.95 -17.61,-14.92 -30.87,-14.92zm3.27 135.55c-9.72,0 -18.6,-1.79 -26.63,-5.38 -8.03,-3.59 -14.79,-9.11 -20.24,-16.55l-1.63 0c1.09,8.72 1.63,16.99 1.63,24.79l0 61.44 -22.6 0 0 -216.33 18.39 0 3.13 20.43 1.08 0c5.83,-8.17 12.6,-14.07 20.31,-17.71 7.72,-3.63 16.58,-5.45 26.56,-5.45 19.8,0 35.08,6.77 45.84,20.31 10.76,13.53 16.15,32.51 16.15,56.94 0,24.52 -5.47,43.56 -16.41,57.15 -10.95,13.57 -26.14,20.36 -45.58,20.36z"/>
   <polygon class="fil5" points="1895.59,500.22 1918.2,500.22 1918.2,288.25 1895.59,288.25 "/>
   <path class="fil5" d="M1997.13 484.29c14.07,0 25.13,-3.86 33.17,-11.58 8.03,-7.71 12.06,-18.52 12.06,-32.43l0 -13.48 -22.62 0.95c-17.98,0.64 -30.94,3.43 -38.89,8.38 -7.95,4.95 -11.92,12.65 -11.92,23.09 0,8.17 2.47,14.4 7.42,18.66 4.95,4.28 11.87,6.41 20.78,6.41zm51.09 15.93l-4.5 -21.25 -1.1 0c-7.44,9.36 -14.87,15.7 -22.27,19 -7.4,3.33 -16.64,4.98 -27.72,4.98 -14.8,0 -26.4,-3.82 -34.8,-11.45 -8.41,-7.63 -12.61,-18.47 -12.61,-32.55 0,-30.15 24.12,-45.95 72.34,-47.41l25.35 -0.82 0 -9.26c0,-11.72 -2.53,-20.37 -7.57,-25.95 -5.04,-5.59 -13.11,-8.38 -24.18,-8.38 -12.45,0 -26.53,3.82 -42.23,11.44l-6.95 -17.3c7.36,-3.99 15.41,-7.12 24.19,-9.39 8.75,-2.27 17.54,-3.41 26.35,-3.41 17.8,0 30.99,3.95 39.58,11.85 8.58,7.9 12.87,20.57 12.87,38.01l0 101.89 -16.75 0z"/>
   <path class="fil5" d="M2078.1 350.92l24.24 0 32.69 85.15c7.18,19.43 11.63,33.46 13.36,42.09l1.09 0c1.18,-4.64 3.66,-12.56 7.42,-23.78 3.77,-11.22 16.1,-45.7 36.98,-103.46l24.26 0 -64.17 170.01c-6.35,16.8 -13.78,28.72 -22.28,35.77 -8.48,7.04 -18.91,10.55 -31.25,10.55 -6.91,0 -13.72,-0.77 -20.44,-2.31l0 -18.12c4.99,1.09 10.58,1.64 16.76,1.64 15.53,0 26.6,-8.72 33.24,-26.16l8.3 -21.25 -60.2 -150.13z"/>
   <path class="fil5" d="M1371.84 444.11c7.17,-7.19 7.79,-17.17 7.79,-22.8 0,-22.48 -13.42,-57.45 -39.33,-57.45 -8.13,0 -16.86,4.05 -21.87,10.31 -5.3,6.56 -6.87,14.98 -6.87,23.1 0,20.93 12.18,55.59 39.05,55.59 7.8,0 16.22,-3.74 21.23,-8.75zm-9.06 59.35c-2.49,-0.33 -4.06,-0.33 -7.17,-0.33 -2.81,0 -19.7,0.64 -32.8,5.02 -6.87,2.48 -26.86,9.97 -26.86,32.16 0,22.16 21.56,38.11 54.98,38.11 29.96,0 45.9,-14.39 45.9,-33.74 0,-15.96 -10.31,-24.36 -34.05,-41.22zm22.18 -138.67c7.18,5.94 22.16,18.42 22.16,42.17 0,23.09 -13.11,34.05 -26.23,44.33 -4.06,4.06 -8.74,8.45 -8.74,15.33 0,6.85 4.68,10.6 8.12,13.42l11.25 8.72c13.74,11.56 26.22,22.18 26.22,43.74 0,29.35 -28.42,59.01 -82.12,59.01 -45.29,0 -67.14,-21.54 -67.14,-44.66 0,-11.24 5.59,-27.16 24.04,-38.1 19.35,-11.87 45.6,-13.41 59.65,-14.37 -4.39,-5.62 -9.38,-11.55 -9.38,-21.22 0,-5.3 1.57,-8.43 3.13,-12.19 -3.45,0.32 -6.88,0.63 -10.01,0.63 -33.09,0 -51.83,-24.68 -51.83,-49.02 0,-14.37 6.57,-30.3 19.98,-41.85 17.81,-14.68 39.05,-17.18 55.92,-17.18l64.32 0 -19.99 11.24 -19.35 0z"/>
   <path class="fil5" d="M1227.33 473.21c7.49,-9.99 9.36,-22.45 9.36,-34.62 0,-27.44 -13.09,-79.82 -51.76,-79.82 -10.28,0 -20.57,4.06 -28.05,10.62 -12.16,10.9 -14.36,24.62 -14.36,38.04 0,30.85 15.28,81.65 53.02,81.65 12.16,0 24.63,-5.91 31.79,-15.87zm-38.97 25.24c-49.57,0 -76.07,-38.66 -76.07,-73.58 0,-40.85 33.35,-75.76 80.76,-75.76 45.82,0 74.5,35.84 74.5,73.58 0,36.78 -28.36,75.76 -79.19,75.76z"/>
   <path class="fil5" d="M1058.35 473.21c7.48,-9.99 9.35,-22.45 9.35,-34.62 0,-27.44 -13.1,-79.82 -51.77,-79.82 -10.27,0 -20.57,4.06 -28.05,10.62 -12.16,10.9 -14.34,24.62 -14.34,38.04 0,30.85 15.27,81.65 53.01,81.65 12.16,0 24.63,-5.91 31.8,-15.87zm-38.98 25.24c-49.58,0 -76.08,-38.66 -76.08,-73.58 0,-40.85 33.37,-75.76 80.76,-75.76 45.83,0 74.51,35.84 74.51,73.58 0,36.78 -28.36,75.76 -79.19,75.76z"/>
   <path class="fil5" d="M919.47 493.57l-44.83 10.34c-18.18,2.83 -34.48,5.32 -51.71,5.32 -86.53,0 -119.43,-63.64 -119.43,-113.48 0,-60.8 46.7,-117.21 126.64,-117.21 16.94,0 33.22,2.5 47.95,6.58 23.51,6.58 34.48,14.73 41.38,19.43l-26.02 24.77 -10.97 2.49 7.84 -12.54c-10.66,-10.34 -30.1,-29.45 -67.08,-29.45 -49.53,0 -86.84,37.63 -86.84,92.48 0,58.91 42.64,114.4 110.96,114.4 20.08,0 30.41,-4.07 39.82,-7.84l0 -50.46 -47.33 2.51 25.07 -13.49 66.45 0 -8.14 7.83c-2.2,1.89 -2.51,2.52 -3.14,5.01 -0.32,2.82 -0.62,11.92 -0.62,15.05l0 38.26z"/>
   <path class="fil5" d="M1484.03 484.54c-10.35,-0.94 -12.51,-2.81 -12.51,-15.05l0 -177.41c0.06,-0.68 0.11,-1.37 0.17,-2.03 1.26,-10.96 4.39,-12.84 14.12,-18.49l-44.84 0 -23.52 11.28 23.97 0 0 0.15 -0.02 -0.12 0 193.52c0,6.26 -1.24,7.21 -8.46,16.6l55.49 0 11.6 -6.87c-5.32,-0.65 -10.66,-0.95 -16,-1.58z"/>
   <path class="fil5" d="M1582.33 394.65c5.91,-2.17 9.02,-4.05 9.02,-8.4 0,-12.44 -14,-26.77 -30.82,-26.77 -12.47,0 -35.8,9.65 -35.8,43.26 0,5.3 0.62,10.9 0.95,16.52l56.65 -24.61zm29.25 92.78c-3.41,1.87 -6.83,4.06 -10.24,5.6 -10.3,4.67 -20.88,5.92 -30.23,5.92 -9.94,0 -25.52,-0.64 -41.41,-12.15 -22.08,-15.57 -31.73,-42.35 -31.73,-65.69 0,-48.24 39.22,-71.9 71.29,-71.9 11.2,0 22.73,2.8 32.08,8.73 15.54,10.25 19.59,23.63 21.76,30.79l-73.14 29.59 -23.97 1.87c7.77,39.53 34.54,62.55 64.12,62.55 15.87,0 27.4,-5.6 37.98,-10.88l-16.51 15.57z"/>
   <polygon class="fil5" points="1641.63,351.34 1641.63,371.88 1639.14,371.88 1639.14,351.34 1632.34,351.34 1632.34,349.21 1648.42,349.21 1648.42,351.34 "/>
   <polygon class="fil5" points="1669.63,371.88 1669.63,351.15 1669.52,351.15 1663.19,371.88 1661.24,371.88 1654.86,351.15 1654.78,351.15 1654.78,371.88 1652.52,371.88 1652.52,349.21 1656.4,349.21 1662.18,367.54 1662.25,367.54 1667.94,349.21 1671.88,349.21 1671.88,371.88 "/>
   <path class="fil6" d="M743.27 190c-5.55,-16.74 -8.33,-25.79 -8.33,-27.16l-0.77 0c0,1.27 -2.87,10.32 -8.62,27.16l17.72 0zm22.49 27.5l-15.58 0c0,-2.14 -1.48,-8.2 -4.43,-18.2l-22.49 0c-3.05,9.83 -4.57,15.9 -4.57,18.2l-14.65 0c0,-1.26 3.79,-11.65 11.36,-31.15 7.58,-19.5 11.37,-30.24 11.37,-32.22l18.4 0c0,1.85 3.43,12.43 10.29,31.76 6.87,19.32 10.3,29.86 10.3,31.61z"/>
   <path class="fil6" d="M828.52 217.5l-12.02 0c0,-1.33 -4.47,-8.35 -13.39,-21.07 -9.34,-13.41 -14.67,-22.57 -15.96,-27.5l-0.78 0c0.81,7.1 1.21,13.53 1.21,19.27 0,8.01 0.23,17.78 0.69,29.3l-11.98 0c0.49,-10.05 0.73,-21.1 0.73,-33.14 0,-11.85 -0.24,-21.93 -0.73,-30.23l14.46 0c0,1.72 4.01,8.59 12.02,20.59 8.53,12.75 13.43,21.4 14.7,25.94l0.73 0c-0.78,-7.23 -1.17,-13.73 -1.17,-19.47 0,-8.79 -0.23,-17.81 -0.68,-27.06l12.17 0c-0.46,8.05 -0.68,18.12 -0.68,30.23 0,12.19 0.22,23.25 0.68,33.14z"/>
   <path class="fil6" d="M885.78 185.72c0,-6.23 -1.82,-11.48 -5.45,-15.75 -3.63,-4.26 -9.18,-6.4 -16.65,-6.4 -1.39,0 -3.31,0.15 -5.74,0.44 0.32,6.49 0.49,13.27 0.49,20.35 0,7.75 0.16,15.44 0.48,23.07 2.11,0.42 4.22,0.63 6.33,0.63 6.97,0 12.15,-2.17 15.5,-6.5 3.36,-4.33 5.04,-9.61 5.04,-15.84zm13.29 -2.09c0,9.21 -2.95,17.26 -8.86,24.14 -5.91,6.88 -14.18,10.32 -24.82,10.32 -4.81,0 -11.43,-0.2 -19.86,-0.59 0.42,-9.8 0.63,-20.85 0.63,-33.14 0,-11.81 -0.21,-21.89 -0.63,-30.23l8.52 0c1.39,0 3.47,-0.05 6.23,-0.15 2.75,-0.1 4.55,-0.14 5.4,-0.14 11.71,0 20.21,2.92 25.48,8.76 5.27,5.84 7.91,12.85 7.91,21.03z"/>
   <path class="fil6" d="M945.87 172.72c0,-6.45 -4.16,-9.68 -12.46,-9.68 -3.06,0 -5.75,0.22 -8.09,0.68 0.36,5.03 0.54,11.58 0.54,19.66 1.79,0.07 3.29,0.1 4.53,0.1 10.32,0 15.48,-3.58 15.48,-10.76zm18.25 44.78l-14.41 0c-3.76,-11.49 -6.65,-18.57 -8.66,-21.27 -2.01,-2.69 -5.26,-4.04 -9.74,-4.04 -1.88,0 -3.68,0.02 -5.4,0.05 0,8.34 0.15,16.76 0.44,25.26l-13.53 0c0.42,-9.8 0.63,-20.85 0.63,-33.14 0,-11.81 -0.21,-21.89 -0.63,-30.23l8.42 0c0.97,0 3.01,-0.05 6.11,-0.15 3.1,-0.1 5.96,-0.14 8.59,-0.14 14.89,0 22.34,5.09 22.34,15.28 0,8.08 -4.26,13.71 -12.76,16.89l0 0.73c3.28,0.91 6.15,3.47 8.62,7.67 2.47,4.2 5.79,11.9 9.98,23.09z"/>
   <path class="fil6" d="M1020.46 186.06c0,-6.78 -1.74,-12.28 -5.21,-16.5 -3.47,-4.22 -7.76,-6.33 -12.85,-6.33 -4.74,0 -8.76,2.13 -12.07,6.38 -3.31,4.25 -4.97,9.62 -4.97,16.11 0,6.75 1.75,12.24 5.24,16.47 3.48,4.24 7.76,6.36 12.82,6.36 4.74,0 8.76,-2.14 12.07,-6.4 3.31,-4.27 4.97,-9.63 4.97,-16.09zm13.43 -1.41c0,9.96 -3.05,18.22 -9.15,24.77 -6.1,6.55 -13.64,9.84 -22.63,9.84 -8.57,0 -15.74,-3.01 -21.51,-9.04 -5.78,-6.01 -8.67,-13.67 -8.67,-22.95 0,-9.95 3.05,-18.22 9.15,-24.77 6.1,-6.55 13.64,-9.83 22.63,-9.83 8.57,0 15.74,3 21.52,9 5.77,6.01 8.66,13.66 8.66,22.98z"/>
   <path class="fil6" d="M1061.41 217.5l-13.77 0c0.42,-10.05 0.63,-21.1 0.63,-33.14 0,-11.85 -0.21,-21.93 -0.63,-30.23l13.77 0c-0.42,8.18 -0.63,18.25 -0.63,30.23 0,12.23 0.21,23.28 0.63,33.14z"/>
   <path class="fil6" d="M1118.68 185.72c0,-6.23 -1.82,-11.48 -5.45,-15.75 -3.64,-4.26 -9.19,-6.4 -16.65,-6.4 -1.4,0 -3.31,0.15 -5.75,0.44 0.33,6.49 0.49,13.27 0.49,20.35 0,7.75 0.16,15.44 0.49,23.07 2.1,0.42 4.22,0.63 6.33,0.63 6.97,0 12.14,-2.17 15.5,-6.5 3.36,-4.33 5.04,-9.61 5.04,-15.84zm13.28 -2.09c0,9.21 -2.95,17.26 -8.86,24.14 -5.9,6.88 -14.18,10.32 -24.82,10.32 -4.8,0 -11.42,-0.2 -19.86,-0.59 0.42,-9.8 0.64,-20.85 0.64,-33.14 0,-11.81 -0.22,-21.89 -0.64,-30.23l8.52 0c1.4,0 3.47,-0.05 6.23,-0.15 2.76,-0.1 4.56,-0.14 5.4,-0.14 11.72,0 20.21,2.92 25.49,8.76 5.27,5.84 7.9,12.85 7.9,21.03z"/>
   <path class="fil6" d="M1203.07 190c-5.55,-16.74 -8.33,-25.79 -8.33,-27.16l-0.77 0c0,1.27 -2.87,10.32 -8.62,27.16l17.72 0zm22.49 27.5l-15.57 0c0,-2.14 -1.48,-8.2 -4.44,-18.2l-22.49 0c-3.05,9.83 -4.57,15.9 -4.57,18.2l-14.65 0c0,-1.26 3.79,-11.65 11.36,-31.15 7.58,-19.5 11.37,-30.24 11.37,-32.22l18.39 0c0,1.85 3.44,12.43 10.3,31.76 6.86,19.32 10.3,29.86 10.3,31.61z"/>
   <path class="fil6" d="M1269.78 173.4c0,-6.94 -4.61,-10.41 -13.83,-10.41 -2.3,0 -4.74,0.24 -7.3,0.73 0.36,6.13 0.54,13.07 0.54,20.83 0.81,0.07 1.75,0.1 2.82,0.1 11.85,0 17.77,-3.75 17.77,-11.25zm12.55 -2.67c0,7.75 -2.87,13.48 -8.64,17.18 -5.75,3.7 -12.82,5.55 -21.19,5.55 -1.53,0 -2.61,-0.03 -3.26,-0.1 0,6.1 0.18,14.15 0.53,24.14l-13.68 0c0.42,-9.37 0.64,-20.42 0.64,-33.14 0,-11.69 -0.22,-21.76 -0.64,-30.23l8.48 0c1.19,0 3.5,-0.05 6.91,-0.15 3.4,-0.1 6.35,-0.14 8.86,-0.14 6.16,0 11.37,1.39 15.62,4.18 4.25,2.8 6.37,7.03 6.37,12.71z"/>
   <path class="fil6" d="M1328.16 173.4c0,-6.94 -4.61,-10.41 -13.83,-10.41 -2.3,0 -4.74,0.24 -7.3,0.73 0.36,6.13 0.54,13.07 0.54,20.83 0.81,0.07 1.75,0.1 2.82,0.1 11.85,0 17.77,-3.75 17.77,-11.25zm12.55 -2.67c0,7.75 -2.88,13.48 -8.63,17.18 -5.76,3.7 -12.83,5.55 -21.21,5.55 -1.52,0 -2.61,-0.03 -3.25,-0.1 0,6.1 0.17,14.15 0.53,24.14l-13.68 0c0.42,-9.37 0.64,-20.42 0.64,-33.14 0,-11.69 -0.22,-21.76 -0.64,-30.23l8.47 0c1.2,0 3.51,-0.05 6.92,-0.15 3.4,-0.1 6.35,-0.14 8.86,-0.14 6.16,0 11.37,1.39 15.62,4.18 4.25,2.8 6.37,7.03 6.37,12.71z"/>
   <path class="fil6" d="M1422.73 186.06c0,-6.78 -1.74,-12.28 -5.21,-16.5 -3.48,-4.22 -7.76,-6.33 -12.85,-6.33 -4.74,0 -8.76,2.13 -12.08,6.38 -3.3,4.25 -4.96,9.62 -4.96,16.11 0,6.75 1.74,12.24 5.24,16.47 3.49,4.24 7.76,6.36 12.82,6.36 4.74,0 8.76,-2.14 12.07,-6.4 3.31,-4.27 4.97,-9.63 4.97,-16.09zm13.43 -1.41c0,9.96 -3.05,18.22 -9.15,24.77 -6.1,6.55 -13.65,9.84 -22.63,9.84 -8.57,0 -15.75,-3.01 -21.52,-9.04 -5.77,-6.01 -8.66,-13.67 -8.66,-22.95 0,-9.95 3.05,-18.22 9.15,-24.77 6.1,-6.55 13.64,-9.83 22.63,-9.83 8.57,0 15.74,3 21.52,9 5.77,6.01 8.66,13.66 8.66,22.98z"/>
   <path class="fil6" d="M1502.14 217.5l-12.03 0c0,-1.33 -4.46,-8.35 -13.38,-21.07 -9.35,-13.41 -14.67,-22.57 -15.97,-27.5l-0.77 0c0.8,7.1 1.21,13.53 1.21,19.27 0,8.01 0.23,17.78 0.68,29.3l-11.97 0c0.48,-10.05 0.73,-21.1 0.73,-33.14 0,-11.85 -0.25,-21.93 -0.73,-30.23l14.45 0c0,1.72 4.01,8.59 12.03,20.59 8.53,12.75 13.43,21.4 14.7,25.94l0.73 0c-0.78,-7.23 -1.17,-13.73 -1.17,-19.47 0,-8.79 -0.23,-17.81 -0.68,-27.06l12.17 0c-0.46,8.05 -0.68,18.12 -0.68,30.23 0,12.19 0.22,23.25 0.68,33.14z"/>
  </g>
 </g>
</svg>
