<?xml version="1.0" encoding="UTF-8"?>
<!DOCTYPE svg PUBLIC "-//W3C//DTD SVG 1.1//EN" "http://www.w3.org/Graphics/SVG/1.1/DTD/svg11.dtd">
<!-- Creator: CorelDRAW 2017 -->
<svg xmlns="http://www.w3.org/2000/svg" xml:space="preserve" width="23.18mm" height="7.58mm" version="1.1" style="shape-rendering:geometricPrecision; text-rendering:geometricPrecision; image-rendering:optimizeQuality; fill-rule:evenodd; clip-rule:evenodd"
viewBox="0 0 2318 758"
 xmlns:xlink="http://www.w3.org/1999/xlink">
 <defs>
  <style type="text/css">
   <![CDATA[
    .fil5 {fill:#F8F8F8;fill-rule:nonzero}
    .fil0 {fill:#A9ABAE;fill-rule:nonzero}
    .fil6 {fill:#F9F8F8;fill-rule:nonzero}
    .fil1 {fill:url(#id0)}
    .fil2 {fill:url(#id1)}
    .fil3 {fill:url(#id2)}
    .fil4 {fill:url(#id3)}
   ]]>
  </style>
  <linearGradient id="id0" gradientUnits="userSpaceOnUse" x1="303.62" y1="144.26" x2="303.62" y2="657.29">
   <stop offset="0" style="stop-opacity:1; stop-color:#3781B2"/>
   <stop offset="0.458824" style="stop-opacity:1; stop-color:#61A8B8"/>
   <stop offset="1" style="stop-opacity:1; stop-color:#8CD0BF"/>
  </linearGradient>
  <linearGradient id="id1" gradientUnits="userSpaceOnUse" x1="174.27" y1="271.41" x2="502.2" y2="271.41">
   <stop offset="0" style="stop-opacity:1; stop-color:#58C2AF"/>
   <stop offset="1" style="stop-opacity:1; stop-color:#DDE89C"/>
  </linearGradient>
  <linearGradient id="id2" gradientUnits="userSpaceOnUse" x1="338.32" y1="400.89" x2="338.32" y2="658.74">
   <stop offset="0" style="stop-opacity:1; stop-color:#EC4B49"/>
   <stop offset="1" style="stop-opacity:1; stop-color:#8E55A0"/>
  </linearGradient>
  <linearGradient id="id3" gradientUnits="userSpaceOnUse" x1="527.58" y1="331.86" x2="527.58" y2="469.44">
   <stop offset="0" style="stop-opacity:1; stop-color:#F58B7D"/>
   <stop offset="1" style="stop-opacity:1; stop-color:#FDC87A"/>
  </linearGradient>
 </defs>
 <g id="Capa_x0020_1">
  <metadata id="CorelCorpID_0Corel-Layer"/>
  <g id="_2946617038256">
   <path class="fil0" d="M2317.79 655.59c0,56.58 -45.86,102.46 -102.43,102.46l-2112.71 0c-56.57,0 -102.45,-45.88 -102.45,-102.46l0 -553.2c0,-56.6 45.88,-102.45 102.45,-102.45l2112.71 0c56.57,0 102.43,45.85 102.43,102.45l0 553.2z"/>
   <path class="fil1" d="M177.37 649.09l0 -0.02 -0.03 0c-0.14,-0.14 -0.29,-0.28 -0.43,-0.43l0 -0.02 -0.02 0c-0.99,-1.08 -1.75,-2.45 -2.24,-4.07l0 -0.01 -0.01 0c-0.19,-0.66 -0.34,-1.35 -0.44,-2.08l0 -0.64 -0.08 0c-0.06,-0.56 -0.08,-1.15 -0.08,-1.76l0 -239.47 0 -234.71c0,-0.57 0.02,-1.11 0.05,-1.64l0.11 0 0 -1.05c0.15,-1.27 0.42,-2.43 0.79,-3.49l0.11 0 0 -0.3c0.14,-0.36 0.29,-0.72 0.45,-1.05l0.01 0 0 -0.02c0.48,-1.02 1.08,-1.92 1.76,-2.7l0.05 0 0 -0.05c0.12,-0.14 0.25,-0.28 0.37,-0.41l0.08 0 0 -0.08c0.49,-0.48 1.01,-0.9 1.56,-1.28l0.25 0 0 -0.16c0.81,-0.51 1.69,-0.91 2.62,-1.2l0.1 0 0 -0.03 0.22 -0.06 250.35 248.24 -33.53 33.24 -53.46 53.01 0 0 0 0.01 -53.47 53.01 0 0 0 0 -53.92 53.46 -53.47 53.02 0 0 0 0 -4.57 4.53 -0.15 0c-1.12,-0.39 -2.12,-0.99 -2.98,-1.79z"/>
   <path class="fil2" d="M414.35 382.19l0 -0.01 0 0 -0.46 -0.44 0 -0.01 0 0 -53.46 -53.01 0 0 -0.01 0 -0.45 -0.45 0 -0.01 0 0 -53.46 -53.01 0 0 -0.01 0 -53.92 -53.47 0 0 0 0 -53.92 -53.46 0 -0.01 0 0 -16.09 -15.95c1.07,-0.3 2.21,-0.46 3.41,-0.47l0 0.11 2.08 0c0.65,0.08 1.32,0.2 2,0.36l0 0.09 0.38 0c0.47,0.12 0.95,0.27 1.43,0.43l0 0.03 0.09 0c0.72,0.24 1.45,0.53 2.17,0.86l0 0.04 0.1 0c0.27,0.13 0.54,0.26 0.81,0.4l0 0.06 0.12 0c0.26,0.13 0.52,0.27 0.79,0.41l0 0.04 0.06 0 0.37 0.21 2.74 1.58 183.58 106 1.08 0.62 5.51 3.18 2.56 1.48 2.89 1.67 1.73 1 1.48 0.86 104.5 60.33 -49.13 48.72 -20.4 20.23 -18.57 -18.41z"/>
   <path class="fil3" d="M184.16 651.4l0 -0.07 -1.85 0c-0.62,-0.07 -1.21,-0.2 -1.77,-0.38l0 -0.07 -0.04 0 252.42 -250.28 69.53 68.94 -104.5 60.33 -0.21 0.12 -1.73 1 -3.57 2.06 -1.76 1.02 -9.73 5.61 -3.68 2.13 -3.7 2.14 0 0 0 0 -76.12 43.95 -0.01 0 0 0 -87.09 50.29 -8.91 5.14 -0.42 0.25 -9.43 5.44c-0.31,0.18 -0.62,0.34 -0.93,0.5l-0.15 0 0 0.08c-0.27,0.13 -0.53,0.26 -0.8,0.37l-0.11 0 0 0.05c-1.92,0.85 -3.75,1.3 -5.44,1.38z"/>
   <path class="fil4" d="M467.81 435.2l0 0 0 0 -34.89 -34.6 69.53 -68.95c0,0 91.17,53.02 101.15,58.39l1.21 0.7c0.26,0.16 0.51,0.32 0.75,0.49l0 0.02 0.03 0c0.83,0.56 1.58,1.16 2.24,1.78l0 0.03 0.02 0c0.15,0.14 0.29,0.28 0.43,0.42l0 0.03 0.03 0c0.97,1 1.72,2.06 2.24,3.16l0 0.01 0 0c0.18,0.38 0.33,0.76 0.45,1.14l0 0.22 0.07 0c0.55,1.91 0.42,3.91 -0.45,5.89l-0.07 0 0 0.17c-0.12,0.25 -0.24,0.49 -0.38,0.74l-0.08 0 0 0.13c-1.15,2 -3.08,3.95 -5.86,5.76l-0.03 0 0 0.02c-0.39,0.25 -0.79,0.5 -1.22,0.75l-8.92 5.15 -0.67 0.39 -1.84 1.06 -2.21 1.28 -3.25 1.87 -0.35 0.2 -5.21 3.01 -0.39 0.22 -5.15 2.98 -8.07 4.66 -2.14 1.23 -3.92 2.26 -2.16 1.26 -7.77 4.48 -0.54 0.31 -6.93 4 -3.35 1.94 -9.65 5.57 -3.56 2.05 -4.04 2.34 -2.19 1.26 -6.5 3.75 -2.97 1.71 -3.23 1.87 -1.26 0.73 -1.3 0.75 -2.84 1.64 -0.12 0.07 -34.64 -34.34z"/>
   <path class="fil5" d="M1800.59 365.4c-15.26,0 -26.29,4.23 -33.1,12.67 -6.81,8.45 -10.31,21.89 -10.5,40.33l0 5.04c0,20.98 3.51,35.99 10.5,45.03 7,9.03 18.21,13.55 33.65,13.55 12.9,0 23.01,-5.22 30.32,-15.66 7.3,-10.45 10.96,-24.84 10.96,-43.19 0,-18.62 -3.66,-32.9 -10.96,-42.85 -7.31,-9.94 -17.61,-14.92 -30.87,-14.92zm3.27 135.55c-9.72,0 -18.6,-1.79 -26.63,-5.38 -8.03,-3.58 -14.79,-9.1 -20.24,-16.55l-1.63 0c1.09,8.72 1.63,16.99 1.63,24.8l0 61.43 -22.6 0 0 -216.33 18.39 0 3.13 20.44 1.08 0c5.83,-8.18 12.6,-14.08 20.31,-17.71 7.72,-3.64 16.58,-5.45 26.56,-5.45 19.8,0 35.08,6.77 45.84,20.3 10.76,13.53 16.15,32.51 16.15,56.94 0,24.52 -5.47,43.57 -16.41,57.16 -10.95,13.57 -26.14,20.35 -45.58,20.35z"/>
   <polygon class="fil5" points="1895.59,498.23 1918.2,498.23 1918.2,286.26 1895.59,286.26 "/>
   <path class="fil5" d="M1997.13 482.29c14.07,0 25.13,-3.86 33.17,-11.57 8.03,-7.72 12.06,-18.53 12.06,-32.44l0 -13.48 -22.62 0.95c-17.98,0.64 -30.94,3.43 -38.89,8.39 -7.95,4.95 -11.92,12.64 -11.92,23.08 0,8.18 2.47,14.4 7.42,18.66 4.95,4.28 11.87,6.41 20.78,6.41zm51.09 15.94l-4.5 -21.25 -1.1 0c-7.44,9.36 -14.87,15.69 -22.27,19 -7.4,3.32 -16.64,4.97 -27.72,4.97 -14.8,0 -26.4,-3.82 -34.8,-11.44 -8.41,-7.63 -12.61,-18.47 -12.61,-32.56 0,-30.14 24.12,-45.95 72.34,-47.41l25.35 -0.81 0 -9.26c0,-11.72 -2.53,-20.38 -7.57,-25.95 -5.04,-5.6 -13.11,-8.39 -24.18,-8.39 -12.45,0 -26.53,3.82 -42.23,11.44l-6.95 -17.3c7.36,-3.99 15.41,-7.12 24.19,-9.39 8.75,-2.27 17.54,-3.41 26.35,-3.41 17.8,0 30.99,3.95 39.58,11.85 8.58,7.91 12.87,20.57 12.87,38.01l0 101.9 -16.75 0z"/>
   <path class="fil5" d="M2078.1 348.92l24.24 0 32.69 85.15c7.18,19.44 11.63,33.46 13.36,42.1l1.09 0c1.18,-4.65 3.66,-12.56 7.42,-23.78 3.77,-11.22 16.1,-45.71 36.98,-103.47l24.26 0 -64.17 170.01c-6.35,16.81 -13.78,28.73 -22.28,35.78 -8.48,7.03 -18.91,10.54 -31.25,10.54 -6.91,0 -13.72,-0.77 -20.44,-2.31l0 -18.12c4.99,1.1 10.58,1.64 16.76,1.64 15.53,0 26.6,-8.72 33.24,-26.16l8.3 -21.25 -60.2 -150.13z"/>
   <path class="fil5" d="M1371.84 442.12c7.17,-7.19 7.79,-17.18 7.79,-22.8 0,-22.48 -13.42,-57.46 -39.33,-57.46 -8.13,0 -16.86,4.05 -21.87,10.31 -5.3,6.56 -6.87,14.98 -6.87,23.11 0,20.92 12.18,55.58 39.05,55.58 7.8,0 16.22,-3.74 21.23,-8.74zm-9.06 59.34c-2.49,-0.32 -4.06,-0.32 -7.17,-0.32 -2.81,0 -19.7,0.62 -32.8,5.02 -6.87,2.48 -26.86,9.97 -26.86,32.15 0,22.16 21.56,38.12 54.98,38.12 29.96,0 45.9,-14.41 45.9,-33.75 0,-15.95 -10.31,-24.35 -34.05,-41.22zm22.18 -138.67c7.18,5.94 22.16,18.43 22.16,42.17 0,23.09 -13.11,34.04 -26.23,44.34 -4.06,4.05 -8.74,8.45 -8.74,15.32 0,6.85 4.68,10.61 8.12,13.42l11.25 8.72c13.74,11.56 26.22,22.19 26.22,43.75 0,29.35 -28.42,59.01 -82.12,59.01 -45.29,0 -67.14,-21.55 -67.14,-44.67 0,-11.24 5.59,-27.15 24.04,-38.1 19.35,-11.86 45.6,-13.41 59.65,-14.37 -4.39,-5.62 -9.38,-11.55 -9.38,-21.21 0,-5.3 1.57,-8.43 3.13,-12.2 -3.45,0.32 -6.88,0.63 -10.01,0.63 -33.09,0 -51.83,-24.67 -51.83,-49.02 0,-14.37 6.57,-30.3 19.98,-41.85 17.81,-14.68 39.05,-17.18 55.92,-17.18l64.32 0 -19.99 11.24 -19.35 0z"/>
   <path class="fil5" d="M1227.33 471.21c7.49,-9.99 9.36,-22.45 9.36,-34.62 0,-27.44 -13.09,-79.82 -51.76,-79.82 -10.28,0 -20.57,4.06 -28.05,10.62 -12.16,10.9 -14.36,24.63 -14.36,38.05 0,30.84 15.28,81.65 53.02,81.65 12.16,0 24.63,-5.91 31.79,-15.88zm-38.97 25.25c-49.57,0 -76.07,-38.66 -76.07,-73.59 0,-40.85 33.35,-75.75 80.76,-75.75 45.82,0 74.5,35.84 74.5,73.58 0,36.77 -28.36,75.76 -79.19,75.76z"/>
   <path class="fil5" d="M1058.34 471.21c7.49,-9.99 9.36,-22.45 9.36,-34.62 0,-27.44 -13.1,-79.82 -51.77,-79.82 -10.27,0 -20.57,4.06 -28.05,10.62 -12.16,10.9 -14.34,24.63 -14.34,38.05 0,30.84 15.27,81.65 53.01,81.65 12.16,0 24.62,-5.91 31.79,-15.88zm-38.97 25.25c-49.58,0 -76.08,-38.66 -76.08,-73.59 0,-40.85 33.37,-75.75 80.76,-75.75 45.83,0 74.51,35.84 74.51,73.58 0,36.77 -28.36,75.76 -79.19,75.76z"/>
   <path class="fil5" d="M919.47 491.57l-44.83 10.35c-18.18,2.83 -34.48,5.31 -51.71,5.31 -86.53,0 -119.43,-63.63 -119.43,-113.47 0,-60.81 46.7,-117.22 126.64,-117.22 16.94,0 33.22,2.5 47.95,6.58 23.51,6.59 34.48,14.73 41.38,19.44l-26.02 24.76 -10.97 2.5 7.84 -12.55c-10.66,-10.34 -30.1,-29.45 -67.08,-29.45 -49.53,0 -86.84,37.63 -86.84,92.48 0,58.92 42.64,114.4 110.96,114.4 20.08,0 30.41,-4.07 39.82,-7.84l0 -50.46 -47.33 2.51 25.07 -13.49 66.45 0 -8.14 7.83c-2.2,1.89 -2.51,2.52 -3.14,5.01 -0.32,2.83 -0.62,11.93 -0.62,15.05l0 38.26z"/>
   <path class="fil5" d="M1484.03 482.55c-10.35,-0.94 -12.51,-2.82 -12.51,-15.06l0 -177.41c0.06,-0.68 0.11,-1.37 0.17,-2.02 1.26,-10.97 4.39,-12.85 14.12,-18.5l-44.84 0 -23.52 11.29 23.97 0 0 0.14 -0.02 -0.11 0 193.52c0,6.25 -1.24,7.21 -8.46,16.6l55.49 0 11.6 -6.88c-5.32,-0.64 -10.66,-0.95 -16,-1.57z"/>
   <path class="fil5" d="M1582.33 392.65c5.91,-2.17 9.02,-4.04 9.02,-8.4 0,-12.44 -14,-26.77 -30.82,-26.77 -12.47,0 -35.8,9.66 -35.8,43.27 0,5.29 0.62,10.89 0.95,16.51l56.65 -24.61zm29.25 92.78c-3.41,1.87 -6.83,4.06 -10.24,5.61 -10.3,4.66 -20.88,5.91 -30.23,5.91 -9.94,0 -25.52,-0.64 -41.41,-12.14 -22.08,-15.58 -31.73,-42.35 -31.73,-65.69 0,-48.25 39.22,-71.9 71.29,-71.9 11.2,0 22.73,2.79 32.08,8.71 15.54,10.26 19.59,23.64 21.76,30.81l-73.14 29.58 -23.97 1.87c7.77,39.54 34.54,62.56 64.12,62.56 15.87,0 27.4,-5.6 37.98,-10.89l-16.51 15.57z"/>
   <polygon class="fil5" points="1641.63,349.34 1641.63,369.89 1639.14,369.89 1639.14,349.34 1632.34,349.34 1632.34,347.22 1648.42,347.22 1648.42,349.34 "/>
   <polygon class="fil5" points="1669.63,369.89 1669.63,349.15 1669.52,349.15 1663.19,369.89 1661.24,369.89 1654.86,349.15 1654.78,349.15 1654.78,369.89 1652.52,369.89 1652.52,347.22 1656.4,347.22 1662.18,365.54 1662.25,365.54 1667.94,347.22 1671.88,347.22 1671.88,369.89 "/>
   <path class="fil6" d="M743.27 188.01c-5.55,-16.75 -8.33,-25.8 -8.33,-27.16l-0.77 0c0,1.26 -2.87,10.31 -8.62,27.16l17.72 0zm22.49 27.5l-15.58 0c0,-2.14 -1.48,-8.21 -4.43,-18.21l-22.49 0c-3.05,9.84 -4.57,15.9 -4.57,18.21l-14.65 0c0,-1.27 3.79,-11.65 11.36,-31.16 7.58,-19.5 11.37,-30.24 11.37,-32.22l18.4 0c0,1.85 3.43,12.44 10.29,31.76 6.87,19.33 10.3,29.87 10.3,31.62z"/>
   <path class="fil6" d="M828.52 215.51l-12.02 0c0,-1.34 -4.47,-8.36 -13.39,-21.08 -9.34,-13.4 -14.67,-22.57 -15.96,-27.5l-0.78 0c0.81,7.11 1.21,13.53 1.21,19.27 0,8.02 0.23,17.79 0.69,29.31l-11.98 0c0.49,-10.06 0.73,-21.11 0.73,-33.15 0,-11.84 -0.24,-21.92 -0.73,-30.23l14.46 0c0,1.73 4.01,8.59 12.02,20.59 8.53,12.75 13.43,21.4 14.7,25.94l0.73 0c-0.78,-7.23 -1.17,-13.72 -1.17,-19.46 0,-8.8 -0.23,-17.82 -0.68,-27.07l12.17 0c-0.46,8.05 -0.68,18.13 -0.68,30.23 0,12.2 0.22,23.25 0.68,33.15z"/>
   <path class="fil6" d="M885.78 183.72c0,-6.23 -1.82,-11.48 -5.45,-15.75 -3.63,-4.26 -9.18,-6.39 -16.65,-6.39 -1.39,0 -3.31,0.14 -5.74,0.43 0.32,6.49 0.49,13.28 0.49,20.35 0,7.76 0.16,15.45 0.48,23.07 2.11,0.42 4.22,0.63 6.33,0.63 6.97,0 12.15,-2.16 15.5,-6.49 3.36,-4.34 5.04,-9.62 5.04,-15.85zm13.29 -2.09c0,9.22 -2.95,17.26 -8.86,24.14 -5.91,6.88 -14.18,10.32 -24.82,10.32 -4.81,0 -11.43,-0.19 -19.86,-0.58 0.42,-9.8 0.63,-20.85 0.63,-33.15 0,-11.81 -0.21,-21.88 -0.63,-30.23l8.52 0c1.39,0 3.47,-0.05 6.23,-0.15 2.75,-0.09 4.55,-0.14 5.4,-0.14 11.71,0 20.21,2.92 25.48,8.76 5.27,5.84 7.91,12.85 7.91,21.03z"/>
   <path class="fil6" d="M945.87 170.72c0,-6.45 -4.16,-9.68 -12.46,-9.68 -3.06,0 -5.75,0.23 -8.09,0.68 0.36,5.03 0.54,11.59 0.54,19.67 1.79,0.06 3.29,0.09 4.53,0.09 10.32,0 15.48,-3.58 15.48,-10.76zm18.25 44.79l-14.41 0c-3.76,-11.49 -6.65,-18.58 -8.66,-21.27 -2.01,-2.69 -5.26,-4.05 -9.74,-4.05 -1.88,0 -3.68,0.02 -5.4,0.05 0,8.35 0.15,16.76 0.44,25.27l-13.53 0c0.42,-9.8 0.63,-20.85 0.63,-33.15 0,-11.81 -0.21,-21.88 -0.63,-30.23l8.42 0c0.97,0 3.01,-0.05 6.11,-0.15 3.1,-0.09 5.96,-0.14 8.59,-0.14 14.89,0 22.34,5.1 22.34,15.28 0,8.08 -4.26,13.71 -12.76,16.89l0 0.73c3.28,0.91 6.15,3.47 8.62,7.67 2.47,4.2 5.79,11.9 9.98,23.1z"/>
   <path class="fil6" d="M1020.46 184.06c0,-6.78 -1.74,-12.28 -5.21,-16.5 -3.47,-4.21 -7.76,-6.33 -12.85,-6.33 -4.74,0 -8.76,2.13 -12.07,6.38 -3.31,4.25 -4.97,9.62 -4.97,16.11 0,6.75 1.75,12.24 5.24,16.48 3.48,4.23 7.76,6.35 12.82,6.35 4.74,0 8.76,-2.13 12.07,-6.4 3.31,-4.27 4.97,-9.63 4.97,-16.09zm13.43 -1.41c0,9.96 -3.05,18.22 -9.15,24.78 -6.1,6.55 -13.64,9.83 -22.63,9.83 -8.57,0 -15.74,-3.01 -21.51,-9.03 -5.78,-6.02 -8.67,-13.67 -8.67,-22.95 0,-9.96 3.05,-18.22 9.15,-24.77 6.1,-6.56 13.64,-9.84 22.63,-9.84 8.57,0 15.74,3 21.52,9.01 5.77,6 8.66,13.66 8.66,22.97z"/>
   <path class="fil6" d="M1061.41 215.51l-13.77 0c0.42,-10.06 0.63,-21.11 0.63,-33.15 0,-11.84 -0.21,-21.92 -0.63,-30.23l13.77 0c-0.42,8.18 -0.63,18.25 -0.63,30.23 0,12.23 0.21,23.28 0.63,33.15z"/>
   <path class="fil6" d="M1118.68 183.72c0,-6.23 -1.82,-11.48 -5.45,-15.75 -3.64,-4.26 -9.19,-6.39 -16.65,-6.39 -1.4,0 -3.31,0.14 -5.75,0.43 0.33,6.49 0.49,13.28 0.49,20.35 0,7.76 0.16,15.45 0.49,23.07 2.1,0.42 4.22,0.63 6.33,0.63 6.97,0 12.14,-2.16 15.5,-6.49 3.36,-4.34 5.04,-9.62 5.04,-15.85zm13.28 -2.09c0,9.22 -2.95,17.26 -8.86,24.14 -5.9,6.88 -14.18,10.32 -24.82,10.32 -4.8,0 -11.42,-0.19 -19.86,-0.58 0.42,-9.8 0.64,-20.85 0.64,-33.15 0,-11.81 -0.22,-21.88 -0.64,-30.23l8.52 0c1.4,0 3.47,-0.05 6.23,-0.15 2.76,-0.09 4.56,-0.14 5.4,-0.14 11.72,0 20.21,2.92 25.49,8.76 5.27,5.84 7.9,12.85 7.9,21.03z"/>
   <path class="fil6" d="M1203.07 188.01c-5.55,-16.75 -8.33,-25.8 -8.33,-27.16l-0.77 0c0,1.26 -2.87,10.31 -8.62,27.16l17.72 0zm22.49 27.5l-15.57 0c0,-2.14 -1.48,-8.21 -4.44,-18.21l-22.49 0c-3.05,9.84 -4.57,15.9 -4.57,18.21l-14.65 0c0,-1.27 3.79,-11.65 11.36,-31.16 7.58,-19.5 11.37,-30.24 11.37,-32.22l18.39 0c0,1.85 3.44,12.44 10.3,31.76 6.86,19.33 10.3,29.87 10.3,31.62z"/>
   <path class="fil6" d="M1269.78 171.41c0,-6.95 -4.61,-10.42 -13.83,-10.42 -2.3,0 -4.74,0.24 -7.3,0.73 0.36,6.13 0.54,13.08 0.54,20.84 0.81,0.06 1.75,0.09 2.82,0.09 11.85,0 17.77,-3.75 17.77,-11.24zm12.55 -2.68c0,7.76 -2.87,13.49 -8.64,17.18 -5.75,3.7 -12.82,5.55 -21.19,5.55 -1.53,0 -2.61,-0.03 -3.26,-0.1 0,6.11 0.18,14.15 0.53,24.15l-13.68 0c0.42,-9.38 0.64,-20.43 0.64,-33.15 0,-11.69 -0.22,-21.76 -0.64,-30.23l8.48 0c1.19,0 3.5,-0.05 6.91,-0.15 3.4,-0.09 6.35,-0.14 8.86,-0.14 6.16,0 11.37,1.39 15.62,4.18 4.25,2.8 6.37,7.03 6.37,12.71z"/>
   <path class="fil6" d="M1328.16 171.41c0,-6.95 -4.61,-10.42 -13.83,-10.42 -2.3,0 -4.74,0.24 -7.3,0.73 0.36,6.13 0.54,13.08 0.54,20.84 0.81,0.06 1.75,0.09 2.82,0.09 11.85,0 17.77,-3.75 17.77,-11.24zm12.55 -2.68c0,7.76 -2.88,13.49 -8.63,17.18 -5.76,3.7 -12.83,5.55 -21.21,5.55 -1.52,0 -2.61,-0.03 -3.25,-0.1 0,6.11 0.17,14.15 0.53,24.15l-13.68 0c0.42,-9.38 0.64,-20.43 0.64,-33.15 0,-11.69 -0.22,-21.76 -0.64,-30.23l8.47 0c1.2,0 3.51,-0.05 6.92,-0.15 3.4,-0.09 6.35,-0.14 8.86,-0.14 6.16,0 11.37,1.39 15.62,4.18 4.25,2.8 6.37,7.03 6.37,12.71z"/>
   <path class="fil6" d="M1422.73 184.06c0,-6.78 -1.74,-12.28 -5.21,-16.5 -3.48,-4.21 -7.76,-6.33 -12.85,-6.33 -4.74,0 -8.76,2.13 -12.08,6.38 -3.3,4.25 -4.96,9.62 -4.96,16.11 0,6.75 1.74,12.24 5.24,16.48 3.49,4.23 7.76,6.35 12.82,6.35 4.74,0 8.76,-2.13 12.07,-6.4 3.31,-4.27 4.97,-9.63 4.97,-16.09zm13.43 -1.41c0,9.96 -3.05,18.22 -9.15,24.78 -6.1,6.55 -13.65,9.83 -22.63,9.83 -8.57,0 -15.75,-3.01 -21.52,-9.03 -5.77,-6.02 -8.66,-13.67 -8.66,-22.95 0,-9.96 3.05,-18.22 9.15,-24.77 6.1,-6.56 13.64,-9.84 22.63,-9.84 8.57,0 15.74,3 21.52,9.01 5.77,6 8.66,13.66 8.66,22.97z"/>
   <path class="fil6" d="M1502.14 215.51l-12.03 0c0,-1.34 -4.46,-8.36 -13.38,-21.08 -9.35,-13.4 -14.67,-22.57 -15.97,-27.5l-0.77 0c0.8,7.11 1.21,13.53 1.21,19.27 0,8.02 0.23,17.79 0.68,29.31l-11.97 0c0.48,-10.06 0.73,-21.11 0.73,-33.15 0,-11.84 -0.25,-21.92 -0.73,-30.23l14.45 0c0,1.73 4.01,8.59 12.03,20.59 8.53,12.75 13.43,21.4 14.7,25.94l0.73 0c-0.78,-7.23 -1.17,-13.72 -1.17,-19.46 0,-8.8 -0.23,-17.82 -0.68,-27.07l12.17 0c-0.46,8.05 -0.68,18.13 -0.68,30.23 0,12.2 0.22,23.25 0.68,33.15z"/>
  </g>
 </g>
</svg>
