<?xml version="1.0" encoding="UTF-8"?>
<!DOCTYPE svg PUBLIC "-//W3C//DTD SVG 1.1//EN" "http://www.w3.org/Graphics/SVG/1.1/DTD/svg11.dtd">
<!-- Creator: CorelDRAW 2017 -->
<svg xmlns="http://www.w3.org/2000/svg" xml:space="preserve" width="26.797mm" height="16.774mm" version="1.1" style="shape-rendering:geometricPrecision; text-rendering:geometricPrecision; image-rendering:optimizeQuality; fill-rule:evenodd; clip-rule:evenodd"
viewBox="0 0 2679.7 1677.4"
 xmlns:xlink="http://www.w3.org/1999/xlink"
 enable-background="new 68.035 52.534 568 587">
 <defs>
  <style type="text/css">
   <![CDATA[
    .fil0 {fill:#1D1D1B}
   ]]>
  </style>
 </defs>
 <g id="Capa_x0020_1">
  <metadata id="CorelCorpID_0Corel-Layer"/>
  <path class="fil0" d="M2651.26 546.34c-19.38,-17.43 -41.62,-35.74 -65.75,-42.66 -57.69,-16.75 -106.9,-55.71 -168.1,-62.09 -2.43,-0.28 -4.49,-3.88 -6.82,-5.67 -29.76,-22.63 -61.6,-35.54 -100.56,-27.78 -14.84,2.92 -31.74,0.65 -46.84,-2.98 -30.65,-7.43 -44.87,-4.04 -64.59,20.12 -50.09,-8.27 -56.47,-5.99 -75.79,26.6 -27.06,-10.23 -32.74,-7.24 -48.24,25.75 -6.87,-1.75 -15.78,-7.37 -20.54,-4.94 -23.23,12.33 -42.61,-1.52 -56.6,-13.23 -27.97,-23.16 -50.72,-52.76 -77.33,-77.81 -11.73,-10.98 -10.35,-19.41 -4.08,-31.29 12.73,-24.14 25,-48.17 36.34,-72.75 6.07,-13.12 15.31,-18.8 28.72,-15.91 9.39,1.99 18.4,6.31 27.38,10.14 13.95,5.73 27.24,14.93 41.61,17.04 9.22,1.32 25.27,-5.52 28.6,-12.89 3.17,-7.15 -3.83,-22.6 -10.98,-29.12 -7.55,-6.71 -20.69,-7.85 -31.62,-9.94 -10.99,-2.13 -22.82,-1.05 -33.54,-4.14 -17.13,-4.77 -19.56,-16.38 -6.13,-27.22 9.1,-7.43 19.93,-13.11 30.87,-17.64 15.25,-6.71 31.91,-10.07 46.59,-17.33 21.33,-10.7 26.95,-26.77 17.77,-41.9 -9.35,-15.44 -25.71,-17.05 -45.37,-3.9 -7.57,5.01 -13.84,11.86 -21.21,17 -15.81,11.09 -31.37,38.08 -50.32,23.17 -17.16,-13.55 3.52,-35.4 10.59,-53.04 6.55,-16.61 14.75,-33.07 18.03,-50.35 3.07,-15.58 -1.13,-29.47 -22.83,-31 -20.55,-1.32 -29.91,8.11 -32.51,26.24 -2.77,20.17 -3.08,40.66 -6.45,60.8 -1.92,12.1 -10.59,35.58 -10.62,35.58 -4.56,10.56 -13.05,5.88 -14.02,0.49 -0.14,-0.83 -4.51,-17.58 -5.75,-25.45 -2.72,-17.68 -3.88,-35.96 -5.55,-54.03 -0.73,-7.92 -1.77,-40.08 -5.46,-49.67 -7.61,-19.74 -29.77,-29.56 -49.45,-21.97 -19.78,7.63 -29.58,29.78 -22,49.5 3.64,9.44 25.72,36.83 29.82,45.17 8.33,16.88 16.73,34.09 21.36,52.12 7.05,26.21 -5.74,37.16 -31.96,29.92 -7.27,-2.01 -50.35,-15.98 -65.08,-16.93 -12.29,-0.77 -23.23,3.67 -26.04,19.33 -2.55,15.31 3.73,24.88 16.49,27.82 16.32,3.88 33.76,3.57 50.86,5.99 13.87,1.9 27.6,4.99 45.73,8.46 -21.13,28.28 -35.7,53.24 -55.48,72.87 -32.49,32.21 -34.43,97.66 1.59,135.88 11.93,12.65 18.38,30.68 25.84,46.78 4.95,10.64 2.55,14.13 -3.11,15.55 -31.79,7.97 -63.84,14.63 -96.03,21.21 -2.54,0.49 -5.63,-1.98 -8.15,-3.4 -16.77,-9.24 -32.52,-11.81 -43.96,7.49 -17.51,-9 -33.52,-20.71 -49.1,0.2 -1.78,2.43 -9.7,0.99 -14.57,0.31 -15.21,-2.52 -31.44,-9.69 -40.27,11.47 -1.02,2.27 -7.96,2.49 -12.09,2.68 -17.09,0.58 -35.26,-1.55 -42.16,20.52 -0.64,1.91 -7.04,4.14 -9.71,3.06 -20.1,-7.46 -32.54,1.39 -39.97,18.34 -11.81,-2.83 -21.81,-5.17 -34.19,-8.28 -3.51,25.87 -19.13,24.19 -37.28,21.44 -7.11,-1.15 -15.76,4.67 -23.09,8.6 -9.08,4.87 -17.15,13.61 -26.77,16 -17.19,4.25 -36.98,2.4 -40.18,27.18 -0.36,2.48 -5.39,6.63 -8.03,6.56 -32.33,-2.01 -37.42,31.57 -58.05,45.36 -17.11,11.02 -38.88,23.14 -42.11,48.72 -0.28,2.05 -4.35,4.63 -7,4.93 -13.55,2.5 -27.1,3.79 -28.41,22.65 -0.24,2.56 -10.55,4.39 -14.59,5.95 -9.79,-43.04 -18.87,-83.51 -28.29,-123.87 -8.56,-36.97 -39.37,-57.71 -75.55,-51.27 -8.62,1.59 -17.43,2.52 -25.65,3.81 -11.68,-34.55 -23.29,-39.79 -56.54,-27.52 -17.05,6.33 -34.06,11.89 -51.14,18.1 -20.82,7.59 -37.63,8.38 -26.07,-11.34 7.65,-11.38 14.86,-22.17 22.21,-32.79 10.72,-15.59 23.1,-30.4 32.22,-46.84 6.12,-10.76 3.89,-23.08 -13.02,-30.74 -17.02,-7.66 -29.94,-3.73 -36.39,8.42 -7.02,13.36 -9.48,28.74 -16.22,42.2 -9.77,18.87 -33.01,78.98 -37.41,44.59 -3.33,-19.22 -6.45,-36.88 -9.32,-54.65 -3.76,-22.91 -5.75,-46.24 -11.26,-68.78 -3.56,-14.85 -14.24,-25.07 -32.16,-20.02 -17.94,5.11 -24.39,18.38 -20.11,34.83 4.81,18.01 14.38,34.63 19.43,52.55 7.42,27.32 14.04,54.97 17.87,82.84 0.95,6.9 -1.87,15.96 -11.47,15.06 -15.18,-1.4 -31.33,-2.75 -45.03,-8.87 -15.67,-6.9 -28.97,-18.84 -43.69,-28.2 -8.95,-5.69 -16.07,-9.8 -22.27,-12.31 -8.45,-5.91 -19.62,-7.66 -29.98,-3.67 -16.53,6.38 -24.78,24.96 -18.4,41.52 4.65,12.05 16.21,17.4 27.88,20.42 8.74,2.03 36.69,7.48 47.72,10.53 29.89,8.27 56.05,16.96 75.67,40.56 3.8,4.45 7.64,13.52 5.69,17.53 -15.85,31.35 -16.17,24.1 -32.88,55.21 -9.73,18.41 -21.88,36.38 -27.56,56.07 -2.66,8.91 0.12,23.26 13.53,31.17 11.67,6.88 27.57,2.38 33.4,-4.37 11.71,-13.32 18.36,-31.57 25.14,-48.59 8.6,-21.48 2.69,-5.52 10.58,-27.29 4.9,-13.16 9.67,-17.1 24.26,-15.12 19.85,2.38 40.59,3.63 60.31,0.97 27.25,-3.72 54,-11.57 86.67,-19.12 -5.81,20.19 -8.47,38.01 -15.91,53.47 -11.27,22.56 -1.48,51.9 -23.62,70.91 -1.74,1.45 1.97,9.76 3.66,14.61 1.86,5.55 4.23,11.02 6.18,16.05 -24.68,19.9 -25.29,22.34 -7.5,48.52 7.25,10.66 8.85,19.35 -1.06,29.9 -7.2,7.78 -8.26,19.58 -22.75,22.84 -9.62,2.24 -17.08,13.54 -26.36,21.33 -6.33,-1.07 -14.19,-2.54 -22.03,-4.09 0.62,2.68 1.2,5.39 1.72,8.1 -8.69,4.22 -17.38,8.28 -26.08,12.39 -28.81,14.29 -63.36,22.73 -84.29,44.51 -15.72,16.29 -31.56,23.99 -49.98,32.12 -6.53,2.87 -12.53,7.3 -18.77,11.22 -11.28,7.34 -22.12,15.59 -33.92,22.06 -7.12,3.97 -19.04,2.9 -22.79,8.43 -16.88,24.03 -42.56,28.21 -67.65,34.91 -3.87,1.11 -6.75,6.44 -9.64,10.14 -6.47,7.66 -11.17,18.89 -19.39,22.94 -20.8,10.3 -43.83,16.18 -64.89,26.17 -72.4,33.76 -145.75,66.03 -216.08,103.81 -85.89,46.24 -155.69,112.11 -219.57,186.58 -30.58,35.57 -43.57,74.93 -53.77,116.72 -3.42,13.61 6.92,31.14 13.07,45.92 0.69,1.85 16.16,0.43 21.42,-3.76 5.04,-3.93 6.02,-13.39 7.83,-20.68 14.4,-60.07 49.17,-106.61 96.81,-143.94 76.62,-60.24 166.84,-85.12 261.34,-99.71 68.56,-10.66 136.68,-24.05 204.48,-38.59 20.4,-4.51 36.09,-6.55 47.05,13.94 27.88,-13.03 54.23,-25.26 81.66,-38.09 2.77,3.98 6.29,8.89 9.83,13.75 22.18,-14.02 43.4,-27.58 65.65,-41.79 4.53,5.91 9.04,11.56 13.65,17.35 20.28,-15.31 40.12,-30.43 61.32,-46.41 4.06,4.27 9.91,10.35 16.3,17.05 17.63,-17.92 34.2,-34.78 51.38,-52.4 8.19,5.12 17.17,10.59 25.27,15.6 20.21,-15.25 18.06,-50.35 50.28,-57.24 1.25,-5.22 2.77,-12.32 4.6,-20.22 23.7,4.26 41.32,-1.25 48.06,-25.81 26.75,5.48 48.75,15.55 65.13,37.64 4.55,6.12 14.79,8.55 22.8,11.43 9.19,3.01 18.63,4.26 27.89,6.9 10.34,2.77 20.41,6.86 30.82,9.05 42.56,8.93 85.36,17.49 124.07,25.39 -14.51,40.35 -31.33,77.19 -40.9,115.84 -10.63,42.28 -14.37,43.76 -51.54,39.45 -11,-1.29 -33.95,-5.17 -44.98,-6.44 -18.94,-2.16 -26.13,-3.2 -44.99,-4.25 -7.16,-0.37 -16.99,5.13 -21.71,19.4 -3.54,10.81 5.1,23.67 9.41,25.23 19.67,6.93 41.46,12.39 60.51,13.93 34.24,2.79 65.95,-2.3 99.01,-1.83 20.61,0.09 33.87,7.21 39.37,26.17 4.22,14.19 9.41,29.51 7.87,43.7 -2.81,24.46 -10.04,48.65 -15.88,72.65 -2.18,8.84 -3.68,15.94 -4.3,21.97 -1.27,7.91 -2.89,15.59 0.14,23.46 6.67,17.34 26.19,26 43.56,19.32 14.61,-5.64 22.39,-18.95 21.25,-35.19 -1.81,-16.05 -5.36,-50.75 -5.68,-61.13 -0.93,-19.55 -0.82,-39.19 0.47,-58.58 0.37,-6.4 5.09,-16.06 9.91,-17.41 5.63,-1.6 15.59,2.32 19.67,7.19 13.05,15.3 24.9,31.54 35.99,48.32 12.59,18.84 21.83,40.04 36.26,57.15 5.7,6.93 21.48,13.35 36.19,4.39 12.2,-7.43 16.45,-21.57 11.3,-32.69 -3.96,-8.62 -8.31,-17.98 -14.8,-24.88 -9.33,-9.77 -21.12,-17.02 -31.23,-26.14 -8.74,-7.96 -32.14,-34.71 -36.57,-42.04 -5.92,-9.8 -6.75,-14.03 -3.64,-18.8 0.87,-1.37 5.39,-2.08 8.98,-1.84 12.31,1.63 23.04,2.79 33.55,5.02 20.54,4.15 40.76,9.87 61.26,13.41 15.44,2.81 26.18,-2.86 29.59,-20.05 3.43,-17.45 -0.34,-30.92 -18.8,-34.96 -11.33,-2.49 -23.82,-2.64 -35.4,-0.93 -27.83,4.33 -79.27,1.16 -83.61,-14.25 -1.32,-8.26 19.51,-21.4 29.57,-30.78 10.52,-9.77 22.99,-17.52 32.75,-27.91 12.46,-13.3 9.58,-26.81 -2.9,-39.79 -13.02,-13.58 -24.78,-8.36 -35.74,1.44 -7.06,6.36 -12.69,14.82 -18.62,22.56 -9.4,11.96 -18.36,24.08 -27.44,36.35 -8.01,7.85 -6.98,-6.31 -2.87,-12.73 19.02,-32.36 26.91,-57.62 34.57,-88.82 2.77,-11.4 5.97,-23.3 11.63,-33.44 26.54,-47.02 15.59,-87.34 -31.83,-114.08 -7.52,-4.23 -14.97,-8.52 -22.56,-12.75 24.33,-5.61 47.36,-5.42 70.27,-7.77 13.89,-1.43 27.21,-7.93 41.13,-10.66 22.54,-4.57 45.9,-5.52 67.61,-12.47 20.35,-6.26 38.36,-25.13 58.33,-26.43 41.66,-2.77 67.45,-37.52 105.52,-45.25 1.89,-0.19 3.37,-3.07 5.24,-4.08 24.45,-13.24 49.02,-26.5 75.18,-40.61 18.48,58.71 55.76,97.41 93.69,135.47 26.45,26.52 25.53,41.22 4.65,73.7 -11.15,17.33 -22.17,34.78 -29.95,52.16 -2.99,6.68 -1.6,24.42 11.82,31.78 13.84,7.61 27.69,-2.16 31.68,-7.93 11.87,-18.35 20.06,-39.41 27.46,-60.19 4.87,-13.84 6.99,-31.05 20.55,-35.08 10.87,-3.22 16.69,1.99 25.79,12.82 6.81,8.17 15.89,33.88 20.51,44.37 5.7,13 10.41,26.77 17.92,38.72 7.28,11.34 18.75,14.18 31.85,7.43 12.78,-6.41 21.98,-14.9 16.91,-30.11 -3.44,-10.39 -8.21,-21.17 -15.08,-29.63 -13.35,-16.28 -29.54,-30.33 -42.38,-46.97 -5.1,-6.71 -8.93,-19.96 -5.53,-26.15 3.31,-6.71 15.88,-10.75 24.77,-11.26 18.8,-1.11 37.7,0.12 56.43,1.54 6.78,0.55 13.11,0.41 18.99,-0.52 0.47,0.08 2.1,-0.23 2.61,-0.27 17.8,-1.92 29.06,-13 30.56,-28.19 1.53,-15.2 -15.3,-23.96 -26.3,-26.29 -0.14,-0.05 -0.27,0 -0.43,-0.01 -9.25,-1.96 -19.46,-1.02 -30.57,2.59 -10.82,3.38 -21.66,8.35 -32.71,9.18 -11.16,0.94 -28.11,2.46 -33.81,-4.32 -4.37,-6.53 4.05,-25.16 10.98,-34.09 9.83,-13.01 24.4,-22.26 36.66,-33.43 14.03,-13.12 17.43,-33.38 7.72,-44.34 -12.76,-14.55 -29.79,-15.62 -45.13,1.66 -10.99,12.36 -16.44,29.83 -25.02,44.43 -5.43,9.39 -12.08,18.2 -21.34,31.91 -18.62,-33.41 -49.32,-72.33 -45.01,-80.59 22.43,-33.04 42.5,-61.64 61.48,-90.99 16.75,-25.93 46.92,-44.28 68,-38.15 42.4,12.29 83.14,28.71 127.6,36.53 49.64,8.68 92.06,-3.61 133.12,-27.07 56.52,-32.51 106.98,-74.89 168.48,-99.86 40.95,-16.54 80.24,-38.61 107.47,-76.33 32.3,-44.61 32.44,-76.78 -4.69,-110.21z"/>
 </g>
</svg>
