<?xml version="1.0" encoding="UTF-8"?>
<!DOCTYPE svg PUBLIC "-//W3C//DTD SVG 1.1//EN" "http://www.w3.org/Graphics/SVG/1.1/DTD/svg11.dtd">
<!-- Creator: CorelDRAW 2017 -->
<svg xmlns="http://www.w3.org/2000/svg" xml:space="preserve" width="4.2332mm" height="0.7618mm" version="1.1" style="shape-rendering:geometricPrecision; text-rendering:geometricPrecision; image-rendering:optimizeQuality; fill-rule:evenodd; clip-rule:evenodd"
viewBox="0 0 423.32 76.18"
 xmlns:xlink="http://www.w3.org/1999/xlink">
 <defs>
  <style type="text/css">
   <![CDATA[
    .fil0 {fill:none}
    .fil1 {fill:#373435}
   ]]>
  </style>
 </defs>
 <g id="Capa_x0020_1">
  <metadata id="CorelCorpID_0Corel-Layer"/>
  <rect class="fil0" x="-0" y="-0" width="423.33" height="76.19"/>
  <g id="_1978201989968">
   <path class="fil1" d="M386.35 18.5c9.58,0 12.12,3.06 15.83,10.99 3.51,7.51 5.7,13.22 5.7,21.69 0,12.53 -29.17,7.56 -29.19,7.55 -4.69,-1.78 -12.26,-21.9 -10.71,-26.01 4.56,-1.98 19.59,2.18 23.57,4.06 -0.6,10.44 -14.32,16.18 -5.17,17.89 6.96,1.29 12.46,-15.42 12.46,-16.02l0 -3.34c0,-12.04 -40.29,-14.34 -40.71,-8.86l-0.49 2.21c-0.12,4.08 8.69,30.89 12.04,34.17 7.98,7.8 28.78,4.83 39.03,2.3 5.66,-1.4 8.2,-3.74 8.22,-10.64 0.01,-5.5 -5.74,-25.77 -7.99,-30.11 -5.13,-9.87 -11,-16.88 -23.96,-13.88 -3.78,0.88 -11.41,4.11 -11.05,8.04 0.61,6.75 9.06,-0.04 12.42,-0.04z"/>
   <path class="fil1" d="M90 20.44c9.77,0 12.36,3.43 15.5,10.21 16.46,35.54 -2.41,30.46 -21.34,30.46 -8.38,0 -12.14,-23.1 -13.17,-26.45 6,-1.67 18.87,1.44 23.96,4.09 0.47,7.55 -9.8,13.41 -7.3,16.6 3.71,4.74 14.8,-5.34 14.8,-18.37 0,-10.62 -37.23,-14.41 -40.84,-8.98 -1.7,4.88 4.67,19.97 6.36,25.15 5.96,18.4 12.23,16.36 28.71,16.36 4.33,0 18.52,-2.39 21.05,-4.81 7.06,-6.72 -3.02,-39.05 -11.94,-48.49 -7.93,-8.4 -26.32,-2.66 -28.06,2.8 -1.11,3.47 1.16,4.92 4.26,4.3 2.51,-0.51 5.69,-2.87 8.01,-2.87z"/>
   <path class="fil1" d="M260.3 24.96c-4.15,-3.86 -3.54,-11.79 -11.91,-12.27 -1.39,4.59 -2.43,3.06 1.19,7.41 8.83,10.63 1.04,11.89 -5.42,15.8 -7.81,4.72 -13.94,4.56 -6.28,20.99 5.37,11.51 9.08,12.02 17.27,1.64 7.67,-9.71 3.98,-20.71 8.27,-25.1 2.2,-2.26 6.34,-6.75 9.4,-7.8 2.58,3.11 0.95,1.66 0.45,4.96 -0.47,3.1 0.63,3.96 0.91,7.29 0.59,7.24 2.87,10.81 3.19,14.97 -2.21,1.56 -3.55,1.69 -6.38,1.81l-0.12 -13.07c-1.8,-0.91 -2.37,-1.53 -4.61,-1.79 -3.18,2.85 -1.73,1.88 -1.73,8.87 0,6.97 -6.71,10.3 -6.21,16.17 3.92,3.95 6.72,-0.51 10.91,-2.29 4.51,-1.92 11.14,-0.79 16.11,-0.79 2.18,0 2.72,-1.42 4.24,-2.77 -0.71,-4.73 -2.95,-4.65 -4.55,-7.48 -0.88,-1.56 -2.47,-7.09 -3,-9.57 -1.29,-5.97 -2.57,-15.62 -0.32,-21.96 3.73,-10.57 -3.82,-12.83 -8.42,-6.77 -2.64,3.48 -2.73,4.22 -5.72,6.83l-7.27 4.92zm62.61 0.64c-0.56,-0.58 -0.57,-0.57 -1.22,-1.54 -3.21,-4.78 -3.41,-10.33 -10.67,-10.72 -1.62,4.47 -2.17,3.21 1.34,7.43 13.17,15.81 -14.07,14.24 -15.39,23.79 -0.37,2.67 2.46,10.58 3.6,13.1 1.8,4 4.33,8.06 8.14,9.27 2.52,-1.04 7.13,-5.59 8.91,-7.7 7.75,-9.15 4.14,-20.79 8.24,-25.13 2.15,-2.28 6.49,-6.88 9.57,-7.83 2.74,3.03 0.9,1.71 0.41,5.13 -0.43,3.03 0.71,3.81 0.98,7.29 0.61,7.87 2.5,9.3 3.26,15.33l-6.35 1.52c-0.35,-9.29 1.79,-14.41 -5.13,-15.09 -3.98,4.14 0.41,7.07 -2.56,13.86 -1.71,3.92 -5.97,7.28 -4.89,11.93 5.17,2.07 6.66,-1.5 11.09,-3.17 9.08,-3.42 12.67,2.89 19.84,-3.31 -0.33,-6.46 -6.63,-4.83 -8.65,-23.88 -2.28,-21.42 8.2,-18.47 -1.92,-25.56 -6.28,2.03 -9.79,11.79 -18.6,15.28zm-18.92 20.85c1.2,4.18 1.71,8.52 5.56,10.79 5.99,-1.56 7.33,-13.14 7.19,-16.6 -3.44,-0.19 -3.36,0.96 -6.11,2.4 -2.67,1.4 -3.96,1.36 -6.64,3.41zm-62.49 -0.72c0.49,3.94 4.07,15.84 9.29,8.45 1.55,-2.2 3.54,-11.32 3.19,-14.22 -2.12,-0.1 -10.51,4.28 -12.48,5.77z"/>
   <path class="fil1" d="M141.75 17.06c-3.32,-2.17 -3.25,-5.19 -7.31,-5.67 -6.36,5.75 3.55,9.28 4.15,13.07 0.82,5.13 -15.13,19.38 -3.28,39.82 2.1,3.62 4.88,5.46 10.28,6.63 6.57,1.42 22.72,-2.96 22.72,-8.88 0,-15.86 -19.93,-36.8 -20.02,-39.24 1.04,-3.14 2.1,-4.97 5.15,-6.22 6.02,2.8 5.58,17.38 11.05,21.83 4.47,-1.61 3.82,-0.45 3.82,-9.76 0,-5.11 -10.24,-22.17 -15.7,-21.76l-3.21 0.19c-1.68,2.59 -5.07,8.56 -7.65,9.99zm18.69 41.96c-1.34,-6.82 -12.24,-24.22 -16.01,-26.81 -3.01,5.68 -7.51,16.92 -4.53,23.32 4.57,9.81 12.32,7.89 20.54,3.49z"/>
   <path class="fil1" d="M182.22 30.75c10.1,0.14 3.51,-7.18 7.83,-13.12 4.29,-5.9 16.29,1.14 19.74,3.93 5.04,4.08 10.06,7.67 10.67,14.58 -1.23,5.79 -18.41,13.95 -26.14,8.39 -3.59,-2.59 -2.35,-4.68 -4.98,-7.49 -3.36,-1.63 -14.52,2.38 -0.11,22.59 2.8,3.92 11.02,13.09 13.31,2.4 -1.53,-4.36 -6.89,-3.23 -8.39,-9.31 9.91,0.1 18.18,1.65 28.56,-9.08 2.94,-3.03 6.76,-8.88 4.44,-14.44 -0.83,-1.99 -2.9,-4.54 -4.06,-5.95 -1.86,-2.25 -2.61,-2.94 -4.85,-5.19 -2.91,-2.91 -7.03,-6.51 -11.23,-8.76 -2.87,-1.53 -12.05,-4.45 -16.04,-4.3 -5.18,0.2 -7.94,6.64 -9.34,10.93 -2.32,7.08 -3.65,8.8 0.59,14.82z"/>
   <path class="fil1" d="M40.75 67.57c9.85,-5.35 9.13,-18.29 8.55,-28.23 -9.96,-0.7 -3.14,4.48 -6.04,13.45 -3.78,-0.7 -7.68,-11.93 -17.69,-16.57 -3.32,-1.54 -5.2,-1.45 -8.28,-3.24 0.1,-5.47 4.48,-13.74 8.43,-14.99 2.27,11.55 -6.92,11.29 0.47,17.29 3.63,-0.78 4.23,-2.31 5.65,-5.49 3.66,-8.19 1.9,-18.28 -2.01,-22.02 -4.08,-3.89 -7.82,1.28 -10.27,3.85 -4.56,4.82 -11.48,14.5 -12.86,22.16 -2.31,12.9 8.71,2.52 20.4,12.66 12.58,10.92 4.95,18.11 13.65,21.13z"/>
   <path class="fil1" d="M199.13 37.86c4.8,0 4.61,-0.83 6.64,-3.39 -0.38,-2.18 -0.94,-3.83 -1.83,-5.37 -2.73,-0.32 -4.87,0.12 -6.26,2.09 -2.44,3.42 -0.02,4.57 1.45,6.67z"/>
   <path class="fil1" d="M78.7 43.28c0.53,1.47 1.07,2.87 1.81,4.02 3.25,0.63 2.26,1.22 5.64,0.02 1.85,-4.47 0.03,-7.29 -2.83,-7.52 -4.72,1.19 -2.09,1.31 -4.62,3.48z"/>
   <path class="fil1" d="M375.37 41.99c2.09,5.55 8.65,6.81 7.73,-2.6 -3.81,-2.17 -6,-2.43 -7.73,2.6z"/>
  </g>
 </g>
</svg>
