<?xml version="1.0" encoding="UTF-8"?>
<!DOCTYPE svg PUBLIC "-//W3C//DTD SVG 1.1//EN" "http://www.w3.org/Graphics/SVG/1.1/DTD/svg11.dtd">
<!-- Creator: CorelDRAW 2017 -->
<svg xmlns="http://www.w3.org/2000/svg" xml:space="preserve" width="3.6406mm" height="0.7618mm" version="1.1" style="shape-rendering:geometricPrecision; text-rendering:geometricPrecision; image-rendering:optimizeQuality; fill-rule:evenodd; clip-rule:evenodd"
viewBox="0 0 364.06 76.18"
 xmlns:xlink="http://www.w3.org/1999/xlink">
 <defs>
  <style type="text/css">
   <![CDATA[
    .fil0 {fill:none}
    .fil1 {fill:#373435}
   ]]>
  </style>
 </defs>
 <g id="Capa_x0020_1">
  <metadata id="CorelCorpID_0Corel-Layer"/>
  <rect class="fil0" y="-0" width="364.06" height="76.19"/>
  <g id="_1978055826768">
   <path class="fil1" d="M138.21 35.61c13.51,0 13.12,-3.47 9.09,8.04 -4.25,12.16 -14.19,16.38 -13.86,19.32 1.9,3.95 5.28,3.93 8.96,0.85 3.8,-3.17 4.33,-4.53 7.13,-8.7 2.78,-4.15 3.72,-4.41 5.99,-9.93 3.24,-7.82 1.08,-9.87 5.22,-10.66 2.12,3.58 -4.34,19.28 6.45,19.8 3.5,-4.97 0.3,-5.21 0.3,-12.24 0,-7.87 6.66,-9.51 6.32,-13.17 -0.66,-7.06 -8.94,-2.19 -14.42,-3.01 -5.36,-8.85 -8.55,-43.48 -22.42,-5.06 -2.4,6.63 -5.01,10.77 1.24,14.76zm218.62 19.84l0.09 -0.84c-1.66,-3.66 -4.39,-5.47 -5.83,-10.08 -2.53,-8.08 -4.43,-20.23 -1.47,-28.19 1.87,-5.02 1.99,-7.24 -3.55,-9.39 -6.72,2.46 -10.52,12.95 -18.37,15.04 -3.9,-4.51 -4.02,-11.92 -11.43,-12.21 -4.2,8.35 5.5,6.73 4.64,17.28 -4.83,5.2 -18.41,8.39 -18.93,14.25 -0.22,2.5 2.58,10.81 3.58,12.91 5.98,12.58 9.44,10.65 17.49,0.77 7.85,-9.64 3.14,-19.8 8.34,-25.05 1.73,-1.74 6.11,-6.32 9.81,-7.24 1.01,4.16 -0.63,3.23 -0.45,6.64 0.29,5.2 4.34,20.78 4.36,21.09l-6.16 1.28c-1.1,-6.34 2.01,-17.09 -5.78,-14.14 -2.89,3.54 0.49,8.15 -2.56,14.15 -0.99,1.95 -4.17,5.79 -4.46,8.09l0.38 2.67c3.98,2.93 8.29,-2.68 12.23,-3.42 12.73,-2.4 13.44,3.34 18.07,-3.61zm-214.51 -28.23c7.2,1.71 9.44,-1.57 6.78,-7.74 -1.57,-3.64 -0.15,-2.12 -3.55,-2.59 -0.81,5.11 -3,5.75 -3.23,10.33zm166.59 16c1.78,4.03 1.68,8.09 5.43,10.46 5.7,-0.83 7.35,-10.33 7.48,-16.73 -3.7,0.19 -3.73,1.25 -6.59,2.68 -3.18,1.59 -3.88,1.15 -6.32,3.59z"/>
   <g>
    <path class="fil1" d="M83.11 20.41c7.43,0.63 9.36,-6.19 20.09,-0.89 3,1.48 3.31,1.55 4.83,4.36 2.01,3.71 3.69,7.7 5.33,12.2 9.19,25.3 -5.62,22.13 -23.59,22.13 -9.62,0 -14.58,-22.81 -13.67,-26.34 0.2,-0.08 0.52,-0.35 0.62,-0.15l1.22 -0.21c6.36,-0.35 16.39,1.36 21.75,4.8 -1.28,9.61 -14.72,16.85 -4.85,17.39 4.87,0.27 11.96,-11 11.96,-18.28 0,-7.69 -10.3,-10.03 -16.49,-11.37 -5.67,-1.21 -19.62,-2.86 -24.2,1 -1.16,2.93 -0.77,3.27 0.16,6.31 2.05,6.73 6.85,25.35 11.03,29.9 7.64,8.34 24.88,5.32 35.43,3.73 15.34,-2.32 13.23,-9.25 9.4,-25.18 -2.56,-10.64 -8.18,-30.68 -22.32,-30.68 -5.75,0 -8.73,0.08 -13.8,3.3 -3.88,2.46 -5.39,3.61 -2.9,7.98z"/>
    <path class="fil1" d="M263.56 22.34c-3.75,0.73 -5.93,1.79 -8.79,-0.79 -1.65,-1.5 -4.51,-5.69 -7.62,-2.4 -4.57,3.81 3.7,9.81 6.5,11.04 7.17,3.14 10.81,0.1 17.29,1.09 4.63,7.27 4.29,14.64 -0.91,20.77 -5.79,6.82 -19.23,6.07 -20.87,4.5l-0.69 -3.31c0.01,-0.1 0.34,-2.98 0.38,-3.65 1.55,-29.79 -11.79,-19.21 -12.26,-15.84 0.5,4.84 4.41,5.07 3.69,13.38 -0.67,7.79 -4.81,6.17 -4.34,13.64 11.28,5.79 28.81,8.49 38.76,-0.73 11.83,-10.96 5.72,-23.03 4,-32.98 2.14,-2.11 2.3,-3.02 5.83,-4.16 3.52,5.43 1.71,16.26 10.62,11.73 1.9,-4.04 -0.3,-10.16 -1.76,-14.19 -0.78,-2.18 -1.94,-4.08 -2.93,-6.22 -2.01,-4.38 -1.17,-4.36 -3.83,-5.71 -7.68,-3.38 -5.73,8.4 -14.86,9.66 -2.53,-1.84 -5.79,-5.93 -8.01,-8.14 -2.7,-2.7 -4.55,-6.15 -9.52,-6.71 -2.46,1.99 -6.07,4.43 0.15,10.24 1.1,1.03 3.65,2.29 5.02,3.33 2.06,1.55 3.04,2.59 4.15,5.45z"/>
    <path class="fil1" d="M230.05 38.76l0.81 -0.84 -0.08 -0.83 0 -0.84 0.08 -0.83 0 -0.84 -0.08 -0.83 0 -0.84 0.08 -0.84c-1.26,0 -0.83,0.27 -0.83,-1.21 -1.99,-2.2 -2.98,-4.12 -5.46,-6.72 -2.18,-2.3 -4.05,-4.13 -6.23,-6.25 -5.29,-5.1 -7.89,-6.94 -16.76,-9.23 -8.89,-2.29 -11.87,-2.49 -15.63,6.02 -2.13,4.82 -6.83,20.59 2.34,18.35 5.35,-2.92 1.21,-9 5.85,-14.85 8.3,-5.35 51.39,22.34 13.73,30.05 -18.93,3.88 -8.71,-16.06 -22.94,-6.33 0.09,6.69 2.59,12.64 5.61,17.16 3.06,4.57 4.84,10.6 12.91,9.89 1.19,-1.73 2.05,-2.84 2.15,-5.93 -3.05,-2.5 -8.44,-3.13 -7.91,-8.04 10.34,0.14 11.1,1.18 20.48,-3.13 6.11,-2.82 9.2,-6.24 11.88,-13.09z"/>
    <path class="fil1" d="M40.29 30.4c0,9.39 5.71,12.31 6.73,18.69 0.85,5.32 -7.84,11.5 -10.29,14.93 -10.83,-2.3 -11.47,-15.06 -20.34,-7.12 0.97,5 15.61,14.16 19.97,16.16 7.65,-3.05 22.35,-17.82 20.47,-25.59 -0.67,-2.73 -3.06,-4.53 -4.7,-6.97 -2.04,-3.07 -2,-4.71 -2.72,-8.87 -1.7,-9.86 3.73,-13.47 3.59,-19.6 -5.11,-4.85 -7.99,-0.34 -9.57,5.54 -0.73,2.71 -3.14,9.62 -3.14,12.83z"/>
    <path class="fil1" d="M18 20.76l9.64 0c0.77,5.81 -4.16,12.08 -7.23,15.39 -2.57,2.76 -11.18,9.07 -12.41,10.95 5.85,15.96 30.35,-20.32 30.35,-33.4 0,-9.84 -5.46,-1.34 -13.67,-1.34 -9.65,0 -10.42,-8.48 -15.98,7.13 -1.09,3.06 -3.82,9.39 2.23,8.22 5.29,-1.03 2.95,-5.56 7.07,-6.95z"/>
    <path class="fil1" d="M254.78 45.75c2.18,1.6 5.2,4.32 8.61,1.33 3.56,-3.13 2,-6.41 0.11,-9.25 -5.13,-0.24 -7.74,3.28 -8.72,7.92z"/>
    <path class="fil1" d="M199.79 36.25c2.31,5.39 5.03,4.53 8.75,1.86 0.21,-4.43 -0.35,-5.52 -3.55,-7.02 -3,0.83 -4.48,2.28 -5.2,5.16z"/>
    <path class="fil1" d="M89.79 44.8c4.34,-4.77 -0.85,-10.18 -4.96,-6.82 -3.61,2.96 -0.03,8.29 4.96,6.82z"/>
   </g>
  </g>
 </g>
</svg>
