<?xml version="1.0" encoding="UTF-8"?>
<!DOCTYPE svg PUBLIC "-//W3C//DTD SVG 1.1//EN" "http://www.w3.org/Graphics/SVG/1.1/DTD/svg11.dtd">
<!-- Creator: CorelDRAW 2017 -->
<svg xmlns="http://www.w3.org/2000/svg" xml:space="preserve" width="23.18mm" height="7.58mm" version="1.1" style="shape-rendering:geometricPrecision; text-rendering:geometricPrecision; image-rendering:optimizeQuality; fill-rule:evenodd; clip-rule:evenodd"
viewBox="0 0 2318 758"
 xmlns:xlink="http://www.w3.org/1999/xlink">
 <defs>
  <style type="text/css">
   <![CDATA[
    .fil1 {fill:#FEFEFE;fill-rule:nonzero}
    .fil0 {fill:#A9ABAE;fill-rule:nonzero}
   ]]>
  </style>
 </defs>
 <g id="Capa_x0020_1">
  <metadata id="CorelCorpID_0Corel-Layer"/>
  <g id="_2946619667088">
   <path class="fil0" d="M2317.79 655.6c0,56.58 -45.86,102.45 -102.43,102.45l-2112.71 0c-56.57,0 -102.45,-45.87 -102.45,-102.45l0 -553.21c0,-56.57 45.88,-102.45 102.45,-102.45l2112.71 0c56.57,0 102.43,45.88 102.43,102.45l0 553.21z"/>
   <path class="fil1" d="M409.27 531.83l-206.38 0 0 -308.5 206.38 0 0 308.5zm-103.19 67.87c-15.07,0 -27.28,-12.22 -27.28,-27.3 0,-15.06 12.21,-27.28 27.28,-27.28 15.08,0 27.29,12.22 27.29,27.28 0,15.08 -12.21,27.3 -27.29,27.3zm94.39 -470.11l-188.79 0c-22.62,0 -40.96,18.34 -40.96,40.97l0 418.24c0,22.63 18.34,40.98 40.96,40.98l188.79 0c22.63,0 40.98,-18.35 40.98,-40.98l0 -418.24c0,-22.63 -18.35,-40.97 -40.98,-40.97z"/>
   <path class="fil1" d="M632.29 193l-10.98 -31.81c-2.3,-7.22 -3.94,-13.78 -5.58,-20.16l-0.48 0c-1.48,6.38 -3.28,13.28 -5.42,19.99l-10.81 31.98 33.27 0zm-36.23 11.14l-11.47 34.74 -14.75 0 37.53 -110.49 17.22 0 37.7 110.49 -15.25 0 -11.8 -34.74 -39.18 0z"/>
   <path class="fil1" d="M677.05 159.54l15.57 44.44c2.63,7.36 4.76,13.93 6.41,20.48l0.49 0c1.8,-6.55 4.08,-13.12 6.71,-20.48l15.41 -44.44 15.09 0 -31.16 79.34 -13.77 0 -30.15 -79.34 15.4 0z"/>
   <path class="fil1" d="M789.01 198.39c-15.74,-0.32 -33.59,2.46 -33.59,17.88 0,9.5 6.22,13.77 13.43,13.77 10.5,0 17.21,-6.57 19.52,-13.28 0.49,-1.48 0.64,-3.12 0.64,-4.6l0 -13.77zm14.11 21.49c0,6.88 0.33,13.58 1.15,19l-12.95 0 -1.32 -9.99 -0.49 0c-4.25,6.24 -12.95,11.8 -24.26,11.8 -16.07,0 -24.26,-11.3 -24.26,-22.78 0,-19.19 17.05,-29.67 47.7,-29.51l0 -1.64c0,-6.55 -1.81,-18.53 -18.02,-18.35 -7.55,0 -15.25,2.11 -20.83,5.89l-3.29 -9.69c6.57,-4.08 16.24,-6.87 26.23,-6.87 24.45,0 30.34,16.56 30.34,32.47l0 29.67z"/>
   <path class="fil1" d="M825.41 238.88l0 -79.34 14.43 0 0 79.34 -14.43 0zm6.87 -93.93c-5.4,0 -9.01,-4.25 -9.01,-9.34 0,-5.08 3.77,-9.17 9.34,-9.17 5.59,0 9.19,4.09 9.19,9.17 0,5.09 -3.6,9.34 -9.34,9.34l-0.18 0z"/>
   <polygon class="fil1" points="862.94,238.88 877.37,238.88 877.37,122.5 862.94,122.5 "/>
   <path class="fil1" d="M942.28 198.39c-15.74,-0.32 -33.61,2.46 -33.61,17.88 0,9.5 6.23,13.77 13.44,13.77 10.51,0 17.22,-6.57 19.52,-13.28 0.49,-1.48 0.65,-3.12 0.65,-4.6l0 -13.77zm14.1 21.49c0,6.88 0.33,13.58 1.15,19l-12.97 0 -1.31 -9.99 -0.48 0c-4.26,6.24 -12.95,11.8 -24.27,11.8 -16.05,0 -24.25,-11.3 -24.25,-22.78 0,-19.19 17.05,-29.67 47.71,-29.51l0 -1.64c0,-6.55 -1.81,-18.53 -18.05,-18.35 -7.53,0 -15.24,2.11 -20.8,5.89l-3.29 -9.69c6.56,-4.08 16.24,-6.87 26.23,-6.87 24.43,0 30.33,16.56 30.33,32.47l0 29.67z"/>
   <path class="fil1" d="M993.09 207.09c0,1.79 0.16,3.6 0.5,5.24 2.78,9.99 11.31,16.88 21.63,16.88 15.25,0 24.1,-12.28 24.1,-30.49 0,-16.06 -8.19,-29.66 -23.6,-29.66 -9.83,0 -19.03,6.88 -21.81,17.7 -0.49,1.81 -0.82,3.77 -0.82,6.07l0 14.26zm-14.43 -84.59l14.43 0 0 49.67 0.33 0c5.08,-8.85 14.25,-14.43 27.04,-14.43 19.68,0 33.45,16.4 33.45,40.33 0,28.52 -18.04,42.62 -35.73,42.62 -11.47,0 -20.51,-4.43 -26.56,-14.92l-0.34 0 -0.82 13.11 -12.44 0c0.49,-5.42 0.64,-13.44 0.64,-20.48l0 -95.9z"/>
   <polygon class="fil1" points="1071.11,238.88 1085.53,238.88 1085.53,122.5 1071.11,122.5 "/>
   <path class="fil1" d="M1158.97 191.35c0.16,-9.02 -3.78,-23.45 -19.85,-23.45 -14.72,0 -20.97,13.44 -22.12,23.45l41.97 0zm-42.13 10.33c0.32,19.51 12.62,27.53 27.05,27.53 10.34,0 16.72,-1.79 21.97,-3.93l2.62 10.16c-5.08,2.29 -13.94,5.09 -26.56,5.09 -24.26,0 -39.01,-16.24 -39.01,-40 0,-24.1 14.25,-42.96 37.39,-42.96 25.87,0 32.61,22.8 32.61,37.38 0,2.95 -0.17,5.25 -0.5,6.89l-55.57 -0.16z"/>
   <path class="fil1" d="M1256.66 229.88c13.77,0 24.09,-12.95 24.09,-30.99 0,-13.45 -6.71,-30.33 -23.76,-30.33 -16.9,0 -24.26,15.74 -24.26,30.82 0,17.38 9.83,30.5 23.77,30.5l0.16 0zm-0.48 10.81c-21.31,0 -38.04,-15.73 -38.04,-40.82 0,-26.56 17.55,-42.13 39.35,-42.13 22.77,0 38.18,16.56 38.18,40.65 0,29.52 -20.5,42.3 -39.34,42.3l-0.15 0z"/>
   <path class="fil1" d="M1313.06 181.03c0,-8.37 -0.18,-14.92 -0.68,-21.49l12.8 0 0.81 12.95 0.33 0c3.94,-7.36 13.12,-14.75 26.22,-14.75 10.98,0 28.06,6.57 28.06,33.78l0 47.36 -14.45 0 0 -45.74c0,-12.77 -4.74,-23.6 -18.36,-23.6 -9.35,0 -16.71,6.73 -19.34,14.76 -0.65,1.8 -0.98,4.43 -0.98,6.73l0 47.85 -14.41 0 0 -57.85z"/>
   <path class="fil1" d="M1454.51 140.54l0 19 20.64 0 0 10.98 -20.64 0 0 42.79c0,9.84 2.79,15.42 10.8,15.42 3.95,0 6.25,-0.33 8.39,-0.99l0.63 10.98c-2.77,0.98 -7.2,1.97 -12.77,1.97 -6.74,0 -12.15,-2.3 -15.59,-6.05 -3.92,-4.44 -5.57,-11.49 -5.57,-20.84l0 -43.28 -12.28 0 0 -10.98 12.28 0 0 -14.59 14.11 -4.41z"/>
   <path class="fil1" d="M1490.57 122.5l14.42 0 0 49.5 0.32 0c2.29,-4.1 5.9,-7.86 10.34,-10.16 4.26,-2.62 9.33,-4.1 14.76,-4.1 10.64,0 27.68,6.57 27.68,33.94l0 47.2 -14.41 0 0 -45.56c0,-12.95 -4.76,-23.62 -18.37,-23.62 -9.34,0 -16.55,6.57 -19.33,14.43 -0.82,1.97 -0.99,4.11 -0.99,6.9l0 47.85 -14.42 0 0 -116.38z"/>
   <path class="fil1" d="M1631.05 191.35c0.14,-9.02 -3.78,-23.45 -19.84,-23.45 -14.75,0 -21,13.44 -22.14,23.45l41.98 0zm-42.13 10.33c0.32,19.51 12.62,27.53 27.04,27.53 10.33,0 16.73,-1.79 21.98,-3.93l2.61 10.16c-5.09,2.29 -13.94,5.09 -26.56,5.09 -24.25,0 -39.02,-16.24 -39.02,-40 0,-24.1 14.27,-42.96 37.39,-42.96 25.89,0 32.63,22.8 32.63,37.38 0,2.95 -0.17,5.25 -0.5,6.89l-55.57 -0.16z"/>
   <path class="fil1" d="M1695.95 238.88l0 -79.34 14.42 0 0 79.34 -14.42 0zm6.9 -93.93c-5.43,0 -9.04,-4.25 -9.04,-9.34 0,-5.08 3.77,-9.17 9.35,-9.17 5.57,0 9.18,4.09 9.18,9.17 0,5.09 -3.61,9.34 -9.36,9.34l-0.13 0z"/>
   <path class="fil1" d="M1748.24 182.98c3.1,0.82 7.22,1.15 11.8,1.15 17.38,0 27.7,-8.51 27.7,-23.44 0,-14.75 -10.32,-21.79 -26.06,-21.79 -6.22,0 -10.97,0.64 -13.44,1.14l0 42.94zm-14.27 -53.11c6.88,-1.3 15.91,-2.3 27.38,-2.3 14.09,0 24.43,3.28 30.97,9.2 6.07,5.23 9.85,13.27 9.85,23.11 0,9.99 -2.95,17.87 -8.7,23.59 -7.53,8.05 -19.83,12.13 -33.76,12.13 -4.25,0 -8.19,-0.16 -11.47,-0.96l0 44.24 -14.27 0 0 -109.01z"/>
   <path class="fil1" d="M1819.06 122.5l14.43 0 0 49.5 0.32 0c2.3,-4.1 5.91,-7.86 10.33,-10.16 4.27,-2.62 9.36,-4.1 14.76,-4.1 10.65,0 27.7,6.57 27.7,33.94l0 47.2 -14.42 0 0 -45.56c0,-12.95 -4.76,-23.62 -18.37,-23.62 -9.33,0 -16.54,6.57 -19.34,14.43 -0.82,1.97 -0.98,4.11 -0.98,6.9l0 47.85 -14.43 0 0 -116.38z"/>
   <path class="fil1" d="M1942.01 229.88c13.75,0 24.1,-12.95 24.1,-30.99 0,-13.45 -6.72,-30.33 -23.78,-30.33 -16.88,0 -24.27,15.74 -24.27,30.82 0,17.38 9.83,30.5 23.77,30.5l0.18 0zm-0.5 10.81c-21.31,0 -38.04,-15.73 -38.04,-40.82 0,-26.56 17.56,-42.13 39.36,-42.13 22.78,0 38.18,16.56 38.18,40.65 0,29.52 -20.49,42.3 -39.33,42.3l-0.17 0z"/>
   <path class="fil1" d="M1998.39 181.03c0,-8.37 -0.17,-14.92 -0.66,-21.49l12.79 0 0.82 12.95 0.33 0c3.94,-7.36 13.12,-14.75 26.22,-14.75 10.99,0 28.02,6.57 28.02,33.78l0 47.36 -14.41 0 0 -45.74c0,-12.77 -4.75,-23.6 -18.36,-23.6 -9.34,0 -16.72,6.73 -19.33,14.76 -0.67,1.8 -1.01,4.43 -1.01,6.73l0 47.85 -14.41 0 0 -57.85z"/>
   <path class="fil1" d="M2138.88 191.35c0.15,-9.02 -3.78,-23.45 -19.85,-23.45 -14.76,0 -20.98,13.44 -22.13,23.45l41.98 0zm-42.14 10.33c0.33,19.51 12.63,27.53 27.06,27.53 10.31,0 16.71,-1.79 21.95,-3.93l2.63 10.16c-5.1,2.29 -13.94,5.09 -26.56,5.09 -24.26,0 -39.02,-16.24 -39.02,-40 0,-24.1 14.27,-42.96 37.38,-42.96 25.9,0 32.62,22.8 32.62,37.38 0,2.95 -0.15,5.25 -0.49,6.89l-55.57 -0.16z"/>
   <path class="fil1" d="M687.04 360.77c3.29,12.77 6.82,26.03 11.38,40.36l26.19 75.86 -74.55 0 25.84 -76.35c3.93,-12.38 7.66,-25.75 11.14,-39.87zm-23.06 -47.04l-97.2 286.11 44.51 0 29.03 -87.85 94.11 0 29.84 87.85 45.74 0 -97.62 -286.11 -48.41 0z"/>
   <path class="fil1" d="M925 423.73c38.59,0 55.86,35.75 55.86,71.17 0,45.7 -22.04,74.07 -57.5,74.07 -24.21,0 -45.16,-16.48 -51,-40.16 -1,-3.68 -1.54,-8.54 -1.54,-14.02l0 -34.81c0,-3.15 0.71,-6.98 1.38,-10.69 0.22,-1.17 0.44,-2.36 0.62,-3.51 6.46,-24.77 27.89,-42.05 52.18,-42.05zm10.79 -35.83c-29.49,0 -53.1,11.37 -68.82,33.01l-1.73 -28.46 -39.59 0 0.23 3.64c1.16,17.73 1.66,37.24 1.66,65.26l0 220.53 43.28 0 0 -102.92c13.43,16.08 34.88,25.43 59.18,25.43 25.3,0 48.61,-9.91 65.59,-27.88 18.96,-20.05 28.97,-48.85 28.97,-83.27 0,-30.41 -8.69,-56.71 -25.16,-76.02 -16.12,-18.91 -38.7,-29.32 -63.61,-29.32z"/>
   <path class="fil1" d="M1147.93 423.73c38.57,0 55.84,35.75 55.84,71.17 0,45.7 -22.05,74.07 -57.5,74.07 -24.21,0 -45.17,-16.48 -51,-40.16 -1,-3.68 -1.52,-8.54 -1.52,-14.02l0 -34.81c0,-3.17 0.68,-7.01 1.38,-10.72 0.21,-1.16 0.42,-2.33 0.62,-3.48 6.43,-24.77 27.87,-42.05 52.18,-42.05zm10.77 -35.83c-29.48,0 -53.1,11.37 -68.83,33.01l-1.72 -28.46 -39.59 0 0.23 3.64c1.16,17.74 1.66,37.24 1.66,65.26l0 220.53 43.3 0 0 -102.92c13.42,16.08 34.86,25.43 59.15,25.43 25.31,0 48.61,-9.91 65.62,-27.88 18.94,-20.05 28.95,-48.85 28.95,-83.27 0,-30.41 -8.7,-56.71 -25.16,-76.02 -16.12,-18.91 -38.71,-29.32 -63.61,-29.32z"/>
   <path class="fil1" d="M1437.95 434.96c-40.4,-15.64 -53.34,-27.95 -53.34,-50.68 0,-19.14 15.21,-38.45 49.2,-38.45 28.05,0 46,9.75 50.82,12.76l3.67 2.26 12.21 -36.12 -2.41 -1.42c-7.25,-4.25 -27.92,-14.14 -63.04,-14.14 -55.21,0 -93.76,32.59 -93.76,79.24 0,37.62 24.14,63.91 75.99,82.75 36.72,13.74 50.4,27.81 50.4,51.92 0,27.29 -21.09,44.23 -55.02,44.23 -22.1,0 -44.84,-6.45 -62.39,-17.69l-3.76 -2.41 -11.62 36.96 2.14 1.41c16.33,10.92 47.1,18.81 73.15,18.81 74.4,0 100.78,-45.37 100.78,-84.22 0,-40.04 -21.15,-64.75 -73.02,-85.21z"/>
   <path class="fil1" d="M1588.9 343.16l-42.46 13.33 0 35.96 -31.08 0 0 34.6 31.08 0 0 105.97c0,25.63 4.9,43.58 14.99,54.93 9.67,10.6 24.54,16.44 41.87,16.44 16.38,0 28,-3.23 33.46,-5.17l2.43 -0.85 -2.07 -34.67 -4.15 1.28c-5.47,1.68 -11.1,2.33 -20.13,2.33 -16.78,0 -23.94,-10.62 -23.94,-35.53l0 -104.73 52.21 0 0 -34.6 -52.21 0 0 -49.29z"/>
   <path class="fil1" d="M1747.14 422.07c38.95,0 56.67,37.97 56.67,73.25 0,43.4 -24.19,74.9 -57.49,74.9l-0.42 0c-32.83,0 -56.66,-30.97 -56.66,-73.65 0,-37.07 17.9,-74.5 57.9,-74.5zm1.25 -34.17c-60.57,0 -102.86,45.2 -102.86,109.9 0,62.77 40.93,106.59 99.54,106.59l0.41 0c49.55,0 102.86,-34.52 102.86,-110.31 0,-30.83 -9.53,-57.3 -27.58,-76.57 -18.16,-19.36 -43.19,-29.61 -72.37,-29.61z"/>
   <path class="fil1" d="M1980.93 389.9l-2.59 -0.65c-3.82,-0.96 -6.93,-1.35 -10.77,-1.35 -22.65,0 -42.97,13.33 -54.28,34.84l-1.28 -30.29 -38.84 0 0.25 3.64c1.15,17.14 1.64,36.37 1.64,62.34l-0.41 141.41 43.3 0 0 -110.32c0,-6.01 0.41,-11.69 1.18,-16.78 4.9,-26.51 22.77,-43.63 45.55,-43.63 4.44,0 7.92,0.36 11.62,0.73l4.63 0.48 0 -40.42z"/>
   <path class="fil1" d="M2075.37 420.42c13.18,0 23.88,4.08 31.78,12.13 12.45,12.66 14.63,31.33 14.9,40.29l-98.71 0c4,-25 19.65,-52.42 52.03,-52.42zm2.89 -32.93c-57.63,0 -97.89,46.04 -97.89,111.97 0,63.49 40.05,104.52 102.02,104.52 32.6,0 55.27,-7.15 68.55,-13.15l2.6 -1.18 -8.31 -32.25 -3.62 1.46c-11.8,4.79 -27.47,9.7 -54.25,9.7 -18.8,0 -62.16,-6.21 -64.83,-62.76l139.73 0.41 0.56 -2.76c0.89,-4.4 1.31,-10.32 1.31,-18.07 0,-45.15 -22.49,-97.89 -85.87,-97.89z"/>
  </g>
 </g>
</svg>
