<?xml version="1.0" encoding="UTF-8"?>
<!DOCTYPE svg PUBLIC "-//W3C//DTD SVG 1.1//EN" "http://www.w3.org/Graphics/SVG/1.1/DTD/svg11.dtd">
<!-- Creator: CorelDRAW 2017 -->
<svg xmlns="http://www.w3.org/2000/svg" xml:space="preserve" width="23.18mm" height="7.58mm" version="1.1" style="shape-rendering:geometricPrecision; text-rendering:geometricPrecision; image-rendering:optimizeQuality; fill-rule:evenodd; clip-rule:evenodd"
viewBox="0 0 2318 758"
 xmlns:xlink="http://www.w3.org/1999/xlink">
 <defs>
  <style type="text/css">
   <![CDATA[
    .fil1 {fill:#FEFEFE;fill-rule:nonzero}
    .fil0 {fill:#373435;fill-rule:nonzero}
   ]]>
  </style>
 </defs>
 <g id="Capa_x0020_1">
  <metadata id="CorelCorpID_0Corel-Layer"/>
  <g id="_2946645258544">
   <path class="fil0" d="M2317.79 655.59c0,56.58 -45.86,102.46 -102.43,102.46l-2112.71 0c-56.57,0 -102.45,-45.88 -102.45,-102.46l0 -553.2c0,-56.57 45.88,-102.45 102.45,-102.45l2112.71 0c56.57,0 102.43,45.88 102.43,102.45l0 553.2z"/>
   <path class="fil1" d="M409.27 531.82l-206.38 0 0 -308.5 206.38 0 0 308.5zm-103.19 67.88c-15.07,0 -27.28,-12.22 -27.28,-27.3 0,-15.07 12.21,-27.28 27.28,-27.28 15.08,0 27.29,12.21 27.29,27.28 0,15.08 -12.21,27.3 -27.29,27.3zm94.39 -470.11l-188.79 0c-22.62,0 -40.96,18.33 -40.96,40.97l0 418.23c0,22.64 18.34,40.99 40.96,40.99l188.79 0c22.63,0 40.98,-18.35 40.98,-40.99l0 -418.23c0,-22.64 -18.35,-40.97 -40.98,-40.97z"/>
   <path class="fil1" d="M632.29 192.99l-10.98 -31.8c-2.3,-7.23 -3.94,-13.77 -5.58,-20.17l-0.48 0c-1.48,6.4 -3.28,13.29 -5.42,19.99l-10.81 31.98 33.27 0zm-36.23 11.14l-11.47 34.75 -14.75 0 37.53 -110.5 17.22 0 37.7 110.5 -15.25 0 -11.8 -34.75 -39.18 0z"/>
   <path class="fil1" d="M677.05 159.54l15.57 44.43c2.63,7.37 4.76,13.94 6.41,20.48l0.49 0c1.8,-6.54 4.08,-13.11 6.71,-20.48l15.41 -44.43 15.09 0 -31.16 79.34 -13.77 0 -30.15 -79.34 15.4 0z"/>
   <path class="fil1" d="M789.01 198.39c-15.74,-0.33 -33.59,2.46 -33.59,17.88 0,9.5 6.22,13.77 13.43,13.77 10.5,0 17.21,-6.57 19.52,-13.29 0.49,-1.48 0.64,-3.11 0.64,-4.59l0 -13.77zm14.11 21.49c0,6.87 0.33,13.58 1.15,19l-12.95 0 -1.32 -9.99 -0.49 0c-4.25,6.23 -12.95,11.79 -24.26,11.79 -16.07,0 -24.26,-11.3 -24.26,-22.77 0,-19.19 17.05,-29.68 47.7,-29.52l0 -1.64c0,-6.55 -1.81,-18.53 -18.02,-18.35 -7.55,0 -15.25,2.12 -20.83,5.89l-3.29 -9.68c6.57,-4.09 16.24,-6.87 26.23,-6.87 24.45,0 30.34,16.55 30.34,32.46l0 29.68z"/>
   <path class="fil1" d="M825.41 238.88l0 -79.34 14.43 0 0 79.34 -14.43 0zm6.87 -93.93c-5.4,0 -9.01,-4.25 -9.01,-9.34 0,-5.09 3.77,-9.17 9.34,-9.17 5.59,0 9.19,4.08 9.19,9.17 0,5.09 -3.6,9.34 -9.34,9.34l-0.18 0z"/>
   <polygon class="fil1" points="862.94,238.88 877.37,238.88 877.37,122.5 862.94,122.5 "/>
   <path class="fil1" d="M942.28 198.39c-15.74,-0.33 -33.61,2.46 -33.61,17.88 0,9.5 6.23,13.77 13.44,13.77 10.51,0 17.22,-6.57 19.52,-13.29 0.49,-1.48 0.65,-3.11 0.65,-4.59l0 -13.77zm14.1 21.49c0,6.87 0.33,13.58 1.15,19l-12.97 0 -1.31 -9.99 -0.48 0c-4.26,6.23 -12.95,11.79 -24.27,11.79 -16.05,0 -24.25,-11.3 -24.25,-22.77 0,-19.19 17.05,-29.68 47.71,-29.52l0 -1.64c0,-6.55 -1.81,-18.53 -18.05,-18.35 -7.53,0 -15.24,2.12 -20.8,5.89l-3.29 -9.68c6.56,-4.09 16.24,-6.87 26.23,-6.87 24.43,0 30.33,16.55 30.33,32.46l0 29.68z"/>
   <path class="fil1" d="M993.09 207.09c0,1.79 0.16,3.59 0.5,5.24 2.78,9.99 11.31,16.88 21.63,16.88 15.25,0 24.1,-12.29 24.1,-30.49 0,-16.07 -8.19,-29.66 -23.6,-29.66 -9.83,0 -19.03,6.87 -21.81,17.69 -0.49,1.81 -0.82,3.78 -0.82,6.07l0 14.27zm-14.43 -84.59l14.43 0 0 49.66 0.33 0c5.08,-8.84 14.25,-14.42 27.04,-14.42 19.68,0 33.45,16.39 33.45,40.32 0,28.53 -18.04,42.62 -35.73,42.62 -11.47,0 -20.51,-4.42 -26.56,-14.91l-0.34 0 -0.82 13.11 -12.44 0c0.49,-5.42 0.64,-13.44 0.64,-20.48l0 -95.9z"/>
   <polygon class="fil1" points="1071.11,238.88 1085.53,238.88 1085.53,122.5 1071.11,122.5 "/>
   <path class="fil1" d="M1158.97 191.35c0.16,-9.02 -3.78,-23.46 -19.85,-23.46 -14.72,0 -20.97,13.45 -22.12,23.46l41.97 0zm-42.13 10.32c0.32,19.52 12.62,27.54 27.05,27.54 10.34,0 16.72,-1.8 21.97,-3.94l2.62 10.16c-5.08,2.3 -13.94,5.09 -26.56,5.09 -24.26,0 -39.01,-16.23 -39.01,-39.99 0,-24.1 14.25,-42.96 37.39,-42.96 25.87,0 32.61,22.8 32.61,37.37 0,2.96 -0.17,5.25 -0.5,6.89l-55.57 -0.16z"/>
   <path class="fil1" d="M1256.66 229.87c13.77,0 24.09,-12.95 24.09,-30.99 0,-13.44 -6.71,-30.33 -23.76,-30.33 -16.9,0 -24.26,15.74 -24.26,30.82 0,17.38 9.83,30.5 23.77,30.5l0.16 0zm-0.48 10.81c-21.31,0 -38.04,-15.73 -38.04,-40.81 0,-26.56 17.55,-42.13 39.35,-42.13 22.77,0 38.18,16.55 38.18,40.65 0,29.51 -20.5,42.29 -39.34,42.29l-0.15 0z"/>
   <path class="fil1" d="M1313.06 181.03c0,-8.38 -0.18,-14.92 -0.68,-21.49l12.8 0 0.81 12.95 0.33 0c3.94,-7.37 13.12,-14.75 26.22,-14.75 10.98,0 28.06,6.56 28.06,33.77l0 47.37 -14.45 0 0 -45.75c0,-12.76 -4.74,-23.59 -18.36,-23.59 -9.35,0 -16.71,6.72 -19.34,14.75 -0.65,1.81 -0.98,4.44 -0.98,6.73l0 47.86 -14.41 0 0 -57.85z"/>
   <path class="fil1" d="M1454.51 140.53l0 19.01 20.64 0 0 10.98 -20.64 0 0 42.79c0,9.83 2.79,15.41 10.8,15.41 3.95,0 6.25,-0.32 8.39,-0.99l0.63 10.99c-2.77,0.98 -7.2,1.96 -12.77,1.96 -6.74,0 -12.15,-2.29 -15.59,-6.04 -3.92,-4.44 -5.57,-11.5 -5.57,-20.84l0 -43.28 -12.28 0 0 -10.98 12.28 0 0 -14.59 14.11 -4.42z"/>
   <path class="fil1" d="M1490.57 122.5l14.42 0 0 49.5 0.32 0c2.29,-4.11 5.9,-7.86 10.34,-10.16 4.26,-2.63 9.33,-4.1 14.76,-4.1 10.64,0 27.68,6.56 27.68,33.94l0 47.2 -14.41 0 0 -45.56c0,-12.95 -4.76,-23.62 -18.37,-23.62 -9.34,0 -16.55,6.56 -19.33,14.43 -0.82,1.97 -0.99,4.1 -0.99,6.89l0 47.86 -14.42 0 0 -116.38z"/>
   <path class="fil1" d="M1631.05 191.35c0.14,-9.02 -3.78,-23.46 -19.84,-23.46 -14.75,0 -21,13.45 -22.14,23.46l41.98 0zm-42.13 10.32c0.32,19.52 12.62,27.54 27.04,27.54 10.33,0 16.73,-1.8 21.98,-3.94l2.61 10.16c-5.09,2.3 -13.94,5.09 -26.56,5.09 -24.25,0 -39.02,-16.23 -39.02,-39.99 0,-24.1 14.27,-42.96 37.39,-42.96 25.89,0 32.63,22.8 32.63,37.37 0,2.96 -0.17,5.25 -0.5,6.89l-55.57 -0.16z"/>
   <path class="fil1" d="M1695.95 238.88l0 -79.34 14.42 0 0 79.34 -14.42 0zm6.9 -93.93c-5.43,0 -9.04,-4.25 -9.04,-9.34 0,-5.09 3.77,-9.17 9.35,-9.17 5.57,0 9.18,4.08 9.18,9.17 0,5.09 -3.61,9.34 -9.36,9.34l-0.13 0z"/>
   <path class="fil1" d="M1748.24 182.98c3.1,0.82 7.22,1.15 11.8,1.15 17.38,0 27.7,-8.52 27.7,-23.44 0,-14.76 -10.32,-21.8 -26.06,-21.8 -6.22,0 -10.97,0.65 -13.44,1.15l0 42.94zm-14.27 -53.12c6.88,-1.29 15.91,-2.29 27.38,-2.29 14.09,0 24.43,3.28 30.97,9.19 6.07,5.24 9.85,13.28 9.85,23.11 0,10 -2.95,17.87 -8.7,23.6 -7.53,8.04 -19.83,12.13 -33.76,12.13 -4.25,0 -8.19,-0.17 -11.47,-0.97l0 44.25 -14.27 0 0 -109.02z"/>
   <path class="fil1" d="M1819.06 122.5l14.43 0 0 49.5 0.32 0c2.3,-4.11 5.91,-7.86 10.33,-10.16 4.27,-2.63 9.36,-4.1 14.76,-4.1 10.65,0 27.7,6.56 27.7,33.94l0 47.2 -14.42 0 0 -45.56c0,-12.95 -4.76,-23.62 -18.37,-23.62 -9.33,0 -16.54,6.56 -19.34,14.43 -0.82,1.97 -0.98,4.1 -0.98,6.89l0 47.86 -14.43 0 0 -116.38z"/>
   <path class="fil1" d="M1942.01 229.87c13.75,0 24.1,-12.95 24.1,-30.99 0,-13.44 -6.72,-30.33 -23.78,-30.33 -16.88,0 -24.27,15.74 -24.27,30.82 0,17.38 9.83,30.5 23.77,30.5l0.18 0zm-0.5 10.81c-21.31,0 -38.04,-15.73 -38.04,-40.81 0,-26.56 17.56,-42.13 39.36,-42.13 22.78,0 38.18,16.55 38.18,40.65 0,29.51 -20.49,42.29 -39.33,42.29l-0.17 0z"/>
   <path class="fil1" d="M1998.39 181.03c0,-8.38 -0.17,-14.92 -0.66,-21.49l12.79 0 0.82 12.95 0.33 0c3.94,-7.37 13.12,-14.75 26.22,-14.75 10.99,0 28.02,6.56 28.02,33.77l0 47.37 -14.41 0 0 -45.75c0,-12.76 -4.75,-23.59 -18.36,-23.59 -9.34,0 -16.72,6.72 -19.33,14.75 -0.67,1.81 -1.01,4.44 -1.01,6.73l0 47.86 -14.41 0 0 -57.85z"/>
   <path class="fil1" d="M2138.88 191.35c0.15,-9.02 -3.78,-23.46 -19.85,-23.46 -14.76,0 -20.98,13.45 -22.13,23.46l41.98 0zm-42.14 10.32c0.33,19.52 12.63,27.54 27.06,27.54 10.31,0 16.71,-1.8 21.95,-3.94l2.63 10.16c-5.1,2.3 -13.94,5.09 -26.56,5.09 -24.26,0 -39.02,-16.23 -39.02,-39.99 0,-24.1 14.27,-42.96 37.38,-42.96 25.9,0 32.62,22.8 32.62,37.37 0,2.96 -0.15,5.25 -0.49,6.89l-55.57 -0.16z"/>
   <path class="fil1" d="M687.04 360.76c3.29,12.78 6.82,26.04 11.38,40.37l26.19 75.86 -74.55 0 25.84 -76.36c3.93,-12.38 7.66,-25.75 11.14,-39.87zm-23.06 -47.03l-97.2 286.11 44.51 0 29.03 -87.85 94.11 0 29.84 87.85 45.74 0 -97.62 -286.11 -48.41 0z"/>
   <path class="fil1" d="M925 423.73c38.59,0 55.86,35.75 55.86,71.16 0,45.7 -22.04,74.08 -57.5,74.08 -24.21,0 -45.16,-16.48 -51,-40.17 -1,-3.67 -1.54,-8.53 -1.54,-14.01l0 -34.82c0,-3.14 0.71,-6.97 1.38,-10.68 0.22,-1.18 0.44,-2.37 0.62,-3.52 6.46,-24.76 27.89,-42.04 52.18,-42.04zm10.79 -35.83c-29.49,0 -53.1,11.37 -68.82,33.01l-1.73 -28.46 -39.59 0 0.23 3.63c1.16,17.73 1.66,37.25 1.66,65.27l0 220.53 43.28 0 0 -102.92c13.43,16.07 34.88,25.43 59.18,25.43 25.3,0 48.61,-9.91 65.59,-27.89 18.96,-20.04 28.97,-48.84 28.97,-83.26 0,-30.42 -8.69,-56.71 -25.16,-76.03 -16.12,-18.9 -38.7,-29.31 -63.61,-29.31z"/>
   <path class="fil1" d="M1147.93 423.73c38.57,0 55.84,35.75 55.84,71.16 0,45.7 -22.05,74.08 -57.5,74.08 -24.21,0 -45.17,-16.48 -51,-40.17 -1,-3.67 -1.52,-8.53 -1.52,-14.01l0 -34.82c0,-3.16 0.68,-7.01 1.38,-10.71 0.21,-1.17 0.42,-2.34 0.62,-3.49 6.43,-24.76 27.87,-42.04 52.18,-42.04zm10.77 -35.83c-29.48,0 -53.1,11.37 -68.83,33.01l-1.72 -28.46 -39.59 0 0.23 3.63c1.16,17.75 1.66,37.25 1.66,65.27l0 220.53 43.3 0 0 -102.92c13.42,16.07 34.86,25.43 59.15,25.43 25.31,0 48.61,-9.91 65.62,-27.89 18.94,-20.04 28.95,-48.84 28.95,-83.26 0,-30.42 -8.7,-56.71 -25.16,-76.03 -16.12,-18.9 -38.71,-29.31 -63.61,-29.31z"/>
   <path class="fil1" d="M1437.95 434.96c-40.4,-15.65 -53.34,-27.96 -53.34,-50.69 0,-19.14 15.21,-38.44 49.2,-38.44 28.05,0 46,9.75 50.82,12.75l3.67 2.27 12.21 -36.13 -2.41 -1.41c-7.25,-4.25 -27.92,-14.15 -63.04,-14.15 -55.21,0 -93.76,32.6 -93.76,79.24 0,37.63 24.14,63.92 75.99,82.76 36.72,13.74 50.4,27.8 50.4,51.92 0,27.29 -21.09,44.23 -55.02,44.23 -22.1,0 -44.84,-6.45 -62.39,-17.7l-3.76 -2.41 -11.62 36.96 2.14 1.42c16.33,10.91 47.1,18.81 73.15,18.81 74.4,0 100.78,-45.37 100.78,-84.22 0,-40.05 -21.15,-64.75 -73.02,-85.21z"/>
   <path class="fil1" d="M1588.9 343.16l-42.46 13.32 0 35.97 -31.08 0 0 34.59 31.08 0 0 105.98c0,25.62 4.9,43.58 14.99,54.92 9.67,10.6 24.54,16.45 41.87,16.45 16.38,0 28,-3.24 33.46,-5.17l2.43 -0.86 -2.07 -34.66 -4.15 1.28c-5.47,1.68 -11.1,2.33 -20.13,2.33 -16.78,0 -23.94,-10.62 -23.94,-35.54l0 -104.73 52.21 0 0 -34.59 -52.21 0 0 -49.29z"/>
   <path class="fil1" d="M1747.14 422.07c38.95,0 56.67,37.96 56.67,73.25 0,43.4 -24.19,74.89 -57.49,74.89l-0.42 0c-32.83,0 -56.66,-30.97 -56.66,-73.64 0,-37.08 17.9,-74.5 57.9,-74.5zm1.25 -34.17c-60.57,0 -102.86,45.19 -102.86,109.9 0,62.76 40.93,106.59 99.54,106.59l0.41 0c49.55,0 102.86,-34.52 102.86,-110.32 0,-30.82 -9.53,-57.29 -27.58,-76.57 -18.16,-19.36 -43.19,-29.6 -72.37,-29.6z"/>
   <path class="fil1" d="M1980.93 389.9l-2.59 -0.66c-3.82,-0.95 -6.93,-1.34 -10.77,-1.34 -22.65,0 -42.97,13.33 -54.28,34.84l-1.28 -30.29 -38.84 0 0.25 3.63c1.15,17.15 1.64,36.38 1.64,62.34l-0.41 141.42 43.3 0 0 -110.33c0,-6.01 0.41,-11.69 1.18,-16.78 4.9,-26.5 22.77,-43.62 45.55,-43.62 4.44,0 7.92,0.36 11.62,0.72l4.63 0.48 0 -40.41z"/>
   <path class="fil1" d="M2075.37 420.42c13.18,0 23.88,4.07 31.78,12.12 12.45,12.67 14.63,31.33 14.9,40.29l-98.71 0c4,-25 19.65,-52.41 52.03,-52.41zm2.89 -32.94c-57.63,0 -97.89,46.05 -97.89,111.97 0,63.49 40.05,104.52 102.02,104.52 32.6,0 55.27,-7.15 68.55,-13.14l2.6 -1.18 -8.31 -32.25 -3.62 1.45c-11.8,4.8 -27.47,9.7 -54.25,9.7 -18.8,0 -62.16,-6.2 -64.83,-62.76l139.73 0.42 0.56 -2.76c0.89,-4.4 1.31,-10.33 1.31,-18.08 0,-45.15 -22.49,-97.89 -85.87,-97.89z"/>
  </g>
 </g>
</svg>
