<?xml version="1.0" encoding="UTF-8"?>
<!DOCTYPE svg PUBLIC "-//W3C//DTD SVG 1.1//EN" "http://www.w3.org/Graphics/SVG/1.1/DTD/svg11.dtd">
<!-- Creator: CorelDRAW 2017 -->
<svg xmlns="http://www.w3.org/2000/svg" xml:space="preserve" width="23.18mm" height="7.58mm" version="1.1" style="shape-rendering:geometricPrecision; text-rendering:geometricPrecision; image-rendering:optimizeQuality; fill-rule:evenodd; clip-rule:evenodd"
viewBox="0 0 2318 758"
 xmlns:xlink="http://www.w3.org/1999/xlink">
 <defs>
  <style type="text/css">
   <![CDATA[
    .fil1 {fill:#FEFEFE;fill-rule:nonzero}
    .fil0 {fill:#373435;fill-rule:nonzero}
   ]]>
  </style>
 </defs>
 <g id="Capa_x0020_1">
  <metadata id="CorelCorpID_0Corel-Layer"/>
  <path class="fil0" d="M2317.79 655.59c0,56.58 -45.86,102.46 -102.43,102.46l-2112.71 0c-56.57,0 -102.45,-45.88 -102.45,-102.46l0 -553.2c0,-56.57 45.88,-102.45 102.45,-102.45l2112.71 0c56.57,0 102.43,45.88 102.43,102.45l0 553.2z"/>
  <path class="fil1" d="M593.5 503.49c-12.52,27.74 -18.51,40.11 -34.61,64.63 -22.49,34.23 -54.17,76.85 -93.43,77.21 -34.9,0.32 -43.85,-22.71 -91.2,-22.45 -47.35,0.26 -57.23,22.85 -92.13,22.54 -39.26,-0.37 -69.29,-38.86 -91.77,-73.08 -62.87,-95.7 -69.44,-208.02 -30.67,-267.72 27.56,-42.43 71.02,-67.28 111.89,-67.28 41.62,0 67.78,22.83 102.18,22.83 33.38,0 53.72,-22.86 101.83,-22.86 36.37,0 74.9,19.8 102.36,54.05 -89.96,49.29 -75.35,177.78 15.55,212.13z"/>
  <path class="fil1" d="M439.1 199.08c17.46,-22.43 30.75,-54.13 25.93,-86.51 -28.54,1.97 -61.95,20.13 -81.46,43.82 -17.7,21.5 -32.31,53.39 -26.62,84.38 31.17,0.97 63.42,-17.65 82.15,-41.69z"/>
  <path class="fil1" d="M806.39 346.76c3.05,11.83 6.33,24.12 10.54,37.39l24.27 70.29 -69.07 0 23.93 -70.74c3.65,-11.47 7.11,-23.87 10.33,-36.94zm-21.36 -43.59l-90.06 265.09 41.24 0 26.89 -81.4 87.19 0 27.65 81.4 42.38 0 -90.44 -265.09 -44.85 0z"/>
  <path class="fil1" d="M1026.87 405.1c35.75,0 51.75,33.12 51.75,65.93 0,42.34 -20.42,68.63 -53.28,68.63 -22.43,0 -41.84,-15.27 -47.25,-37.22 -0.93,-3.39 -1.42,-7.9 -1.42,-12.98l0 -32.25c0,-2.92 0.65,-6.47 1.27,-9.9 0.2,-1.1 0.42,-2.2 0.58,-3.26 5.98,-22.94 25.84,-38.95 48.35,-38.95zm9.99 -33.21c-27.32,0 -49.2,10.55 -63.76,30.59l-1.6 -26.37 -36.69 0 0.22 3.37c1.08,16.43 1.53,34.51 1.53,60.47l0 204.32 40.11 0 0 -95.35c12.44,14.89 32.31,23.56 54.82,23.56 23.45,0 45.04,-9.18 60.78,-25.84 17.57,-18.57 26.83,-45.26 26.83,-77.15 0,-28.17 -8.04,-52.53 -23.3,-70.43 -14.93,-17.53 -35.86,-27.17 -58.94,-27.17z"/>
  <path class="fil1" d="M1233.41 405.1c35.73,0 51.74,33.12 51.74,65.93 0,42.34 -20.43,68.63 -53.28,68.63 -22.42,0 -41.84,-15.27 -47.25,-37.22 -0.93,-3.39 -1.41,-7.9 -1.41,-12.98l0 -32.25c0,-2.94 0.64,-6.5 1.28,-9.94 0.2,-1.08 0.4,-2.16 0.58,-3.22 5.96,-22.94 25.82,-38.95 48.34,-38.95zm9.98 -33.21c-27.31,0 -49.19,10.55 -63.77,30.59l-1.6 -26.37 -36.67 0 0.21 3.37c1.08,16.45 1.54,34.51 1.54,60.47l0 204.32 40.11 0 0 -95.35c12.44,14.89 32.3,23.56 54.81,23.56 23.44,0 45.04,-9.18 60.8,-25.84 17.54,-18.57 26.82,-45.26 26.82,-77.15 0,-28.17 -8.06,-52.53 -23.32,-70.43 -14.93,-17.53 -35.85,-27.17 -58.93,-27.17z"/>
  <path class="fil1" d="M1502.13 415.49c-37.43,-14.49 -49.43,-25.89 -49.43,-46.95 0,-17.74 14.1,-35.63 45.59,-35.63 25.98,0 42.6,9.04 47.09,11.82l3.39 2.1 11.32 -33.47 -2.24 -1.31c-6.71,-3.94 -25.86,-13.1 -58.4,-13.1 -51.15,0 -86.87,30.19 -86.87,73.41 0,34.86 22.37,59.22 70.39,76.69 34.04,12.71 46.71,25.74 46.71,48.09 0,25.29 -19.55,40.98 -50.98,40.98 -20.48,0 -41.55,-5.97 -57.81,-16.39l-3.48 -2.23 -10.76 34.24 1.98 1.31c15.14,10.11 43.64,17.43 67.78,17.43 68.93,0 93.37,-42.03 93.37,-78.03 0,-37.1 -19.59,-59.99 -67.65,-78.96z"/>
  <path class="fil1" d="M1641.98 330.44l-39.34 12.35 0 33.32 -28.8 0 0 32.05 28.8 0 0 98.19c0,23.74 4.54,40.38 13.89,50.89 8.96,9.83 22.74,15.24 38.8,15.24 15.16,0 25.93,-3 31.01,-4.79l2.24 -0.79 -1.92 -32.12 -3.84 1.18c-5.08,1.56 -10.28,2.16 -18.66,2.16 -15.54,0 -22.18,-9.83 -22.18,-32.92l0 -97.04 48.38 0 0 -32.05 -48.38 0 0 -45.67z"/>
  <path class="fil1" d="M1788.59 403.56c36.09,0 52.51,35.17 52.51,67.87 0,40.2 -22.42,69.38 -53.27,69.38l-0.39 0c-30.41,0 -52.49,-28.69 -52.49,-68.23 0,-34.35 16.59,-69.02 53.64,-69.02zm1.16 -31.67c-56.11,0 -95.3,41.89 -95.3,101.83 0,58.15 37.92,98.76 92.23,98.76l0.37 0c45.92,0 95.31,-31.99 95.31,-102.22 0,-28.55 -8.83,-53.07 -25.56,-70.94 -16.82,-17.93 -40.02,-27.43 -67.05,-27.43z"/>
  <path class="fil1" d="M2005.21 373.76l-2.41 -0.62c-3.53,-0.88 -6.42,-1.25 -9.97,-1.25 -20.99,0 -39.81,12.36 -50.29,32.29l-1.18 -28.07 -35.99 0 0.23 3.37c1.07,15.88 1.52,33.71 1.52,57.76l-0.38 131.02 40.11 0 0 -102.21c0,-5.57 0.38,-10.84 1.1,-15.55 4.53,-24.55 21.1,-40.42 42.2,-40.42 4.11,0 7.34,0.33 10.76,0.67l4.3 0.44 0 -37.43z"/>
  <path class="fil1" d="M2092.71 402.03c12.21,0 22.12,3.77 29.44,11.22 11.54,11.75 13.56,29.04 13.81,37.34l-91.47 0c3.73,-23.16 18.21,-48.56 48.22,-48.56zm2.67 -30.52c-53.39,0 -90.69,42.66 -90.69,103.75 0,58.82 37.1,96.84 94.53,96.84 30.19,0 51.2,-6.63 63.5,-12.18l2.41 -1.1 -7.7 -29.88 -3.35 1.35c-10.93,4.45 -25.46,8.99 -50.25,8.99 -17.43,0 -57.61,-5.75 -60.07,-58.16l129.45 0.4 0.52 -2.57c0.82,-4.07 1.21,-9.57 1.21,-16.74 0,-41.84 -20.84,-90.7 -79.56,-90.7z"/>
  <path class="fil1" d="M713.17 233.22c4.55,0.74 11.17,0.74 18.21,0.74 38.47,0.18 59.36,-19.36 59.36,-53.24 0.2,-29.96 -18.41,-48.4 -56.47,-48.4 -9.3,0 -16.34,0.75 -21.1,1.68l0 99.22zm-18.2 -111.13c11.17,-1.49 24.21,-2.61 38.47,-2.61 25.86,0 44.27,5.22 56.47,15.46 12.62,10.23 19.86,24.93 19.86,45.23 0,20.47 -7.24,37.22 -20.06,48.77 -13.24,11.72 -34.76,18.05 -61.85,18.05 -13.03,0 -23.58,-0.37 -32.89,-1.49l0 -123.41z"/>
  <path class="fil1" d="M874.9 235.63c17.37,0 30.41,-14.7 30.41,-35.18 0,-15.26 -8.49,-34.43 -30,-34.43 -21.31,0 -30.61,17.87 -30.61,34.99 0,19.73 12.41,34.62 29.99,34.62l0.21 0zm-0.62 12.29c-26.9,0 -47.99,-17.87 -47.99,-46.34 0,-30.16 22.13,-47.85 49.64,-47.85 28.76,0 48.19,18.8 48.19,46.16 0,33.51 -25.85,48.03 -49.63,48.03l-0.21 0z"/>
  <path class="fil1" d="M952.92 155.77l13.44 45.62c2.68,10.05 5.38,19.54 7.24,28.85l0.62 0c2.27,-9.13 5.58,-18.8 8.89,-28.66l16.34 -45.81 15.32 0 15.51 45.05c3.72,10.62 6.61,20.29 8.89,29.42l0.62 0c1.65,-9.13 4.35,-18.62 7.65,-29.23l14.27 -45.24 18 0 -32.27 90.1 -16.54 0 -15.31 -42.99c-3.51,-10.24 -6.41,-19.18 -8.9,-29.79l-0.41 0c-2.48,10.8 -5.58,20.29 -9.11,29.97l-16.12 42.81 -16.55 0 -30.2 -90.1 18.62 0z"/>
  <path class="fil1" d="M1097.92 180.17c0,-9.5 -0.2,-16.94 -0.83,-24.4l16.14 0 1.03 14.72 0.42 0c4.96,-8.38 16.54,-16.76 33.09,-16.76 13.85,0 35.36,7.45 35.36,38.35l0 53.79 -18.19 0 0 -51.93c0,-14.52 -6.01,-26.8 -23.17,-26.8 -11.79,0 -21.1,7.63 -24.4,16.75 -0.83,2.04 -1.25,5.02 -1.25,7.63l0 54.35 -18.2 0 0 -65.7z"/>
  <polygon class="fil1" points="1212.72,245.87 1230.92,245.87 1230.92,113.71 1212.72,113.71 "/>
  <path class="fil1" d="M1302.48 235.63c17.38,0 30.41,-14.7 30.41,-35.18 0,-15.26 -8.48,-34.43 -29.98,-34.43 -21.32,0 -30.63,17.87 -30.63,34.99 0,19.73 12.41,34.62 30,34.62l0.2 0zm-0.61 12.29c-26.89,0 -47.98,-17.87 -47.98,-46.34 0,-30.16 22.11,-47.85 49.64,-47.85 28.74,0 48.18,18.8 48.18,46.16 0,33.51 -25.85,48.03 -49.64,48.03l-0.2 0z"/>
  <path class="fil1" d="M1427.43 199.89c-19.86,-0.37 -42.4,2.8 -42.4,20.3 0,10.79 7.85,15.63 16.96,15.63 13.23,0 21.72,-7.44 24.61,-15.08 0.63,-1.67 0.83,-3.54 0.83,-5.21l0 -15.64zm17.78 24.39c0,7.82 0.42,15.44 1.45,21.59l-16.34 0 -1.66 -11.35 -0.61 0c-5.38,7.07 -16.35,13.4 -30.61,13.4 -20.27,0 -30.61,-12.84 -30.61,-25.88 0,-21.77 21.5,-33.69 60.18,-33.5l0 -1.86c0,-7.44 -2.27,-21.03 -22.75,-20.85 -9.52,0 -19.23,2.42 -26.26,6.7l-4.15 -10.98c8.28,-4.65 20.48,-7.82 33.1,-7.82 30.82,0 38.26,18.8 38.26,36.86l0 33.69z"/>
  <path class="fil1" d="M1542.64 192.45c0,-2.23 -0.21,-4.84 -0.83,-7.07 -2.68,-10.24 -12.62,-18.8 -26.26,-18.8 -18.83,0 -30,14.89 -30,34.62 0,18.43 10.14,33.5 29.58,33.5 12.21,0 23.38,-7.44 26.68,-19.54 0.62,-2.23 0.83,-4.47 0.83,-7.07l0 -15.64zm18.2 -78.74l0 108.89c0,8.01 0.22,17.12 0.82,23.27l-16.33 0 -0.82 -15.63 -0.42 0c-5.58,10.05 -17.58,17.68 -33.92,17.68 -24.21,0 -43.03,-18.42 -43.03,-45.79 -0.21,-30.16 20.69,-48.4 44.88,-48.4 15.53,0 25.87,6.52 30.21,13.59l0.41 0 0 -53.61 18.2 0z"/>
  <path class="fil1" d="M1676.26 235.63c17.38,0 30.4,-14.7 30.4,-35.18 0,-15.26 -8.47,-34.43 -29.98,-34.43 -21.31,0 -30.61,17.87 -30.61,34.99 0,19.73 12.41,34.62 29.98,34.62l0.21 0zm-0.62 12.29c-26.89,0 -47.99,-17.87 -47.99,-46.34 0,-30.16 22.15,-47.85 49.64,-47.85 28.77,0 48.2,18.8 48.2,46.16 0,33.51 -25.86,48.03 -49.64,48.03l-0.21 0z"/>
  <path class="fil1" d="M1748.46 180.17c0,-9.5 -0.21,-16.94 -0.83,-24.4l16.13 0 1.05 14.72 0.4 0c4.97,-8.38 16.55,-16.76 33.1,-16.76 13.86,0 35.37,7.45 35.37,38.35l0 53.79 -18.21 0 0 -51.93c0,-14.52 -5.99,-26.8 -23.16,-26.8 -11.79,0 -21.11,7.63 -24.41,16.75 -0.83,2.04 -1.24,5.02 -1.24,7.63l0 54.35 -18.2 0 0 -65.7z"/>
  <path class="fil1" d="M1929.03 134.19l0 21.58 26.06 0 0 12.48 -26.06 0 0 48.59c0,11.16 3.53,17.49 13.66,17.49 4.96,0 7.86,-0.37 10.55,-1.11l0.82 12.47c-3.51,1.11 -9.1,2.23 -16.13,2.23 -8.48,0 -15.31,-2.6 -19.66,-6.88 -4.96,-5.03 -7.02,-13.04 -7.02,-23.65l0 -49.14 -15.52 0 0 -12.48 15.52 0 0 -16.56 17.78 -5.02z"/>
  <path class="fil1" d="M1975.58 113.71l18.19 0 0 56.22 0.42 0c2.89,-4.66 7.44,-8.94 13.04,-11.55 5.38,-2.97 11.77,-4.65 18.62,-4.65 13.43,0 34.94,7.45 34.94,38.54l0 53.6 -18.19 0 0 -51.74c0,-14.71 -6,-26.81 -23.17,-26.81 -11.79,0 -20.89,7.45 -24.41,16.38 -1.04,2.23 -1.25,4.65 -1.25,7.82l0 54.35 -18.19 0 0 -132.16z"/>
  <path class="fil1" d="M2153.89 191.89c0.19,-10.24 -4.77,-26.62 -25.04,-26.62 -18.62,0 -26.48,15.27 -27.92,26.62l52.96 0zm-53.18 11.73c0.43,22.15 15.94,31.27 34.14,31.27 13.02,0 21.1,-2.05 27.72,-4.47l3.31 11.54c-6.42,2.61 -17.59,5.78 -33.51,5.78 -30.62,0 -49.23,-18.44 -49.23,-45.42 0,-27.36 18,-48.77 47.15,-48.77 32.69,0 41.16,25.87 41.16,42.44 0,3.35 -0.19,5.96 -0.61,7.82l-70.13 -0.19z"/>
 </g>
</svg>
