<?xml version="1.0" encoding="UTF-8"?>
<!DOCTYPE svg PUBLIC "-//W3C//DTD SVG 1.1//EN" "http://www.w3.org/Graphics/SVG/1.1/DTD/svg11.dtd">
<!-- Creator: CorelDRAW 2017 -->
<svg xmlns="http://www.w3.org/2000/svg" xml:space="preserve" width="5.5878mm" height="5.5878mm" version="1.1" style="shape-rendering:geometricPrecision; text-rendering:geometricPrecision; image-rendering:optimizeQuality; fill-rule:evenodd; clip-rule:evenodd"
viewBox="0 0 558.78 558.78"
 xmlns:xlink="http://www.w3.org/1999/xlink">
 <defs>
  <style type="text/css">
   <![CDATA[
    .fil0 {fill:none}
    .fil1 {fill:#020202}
   ]]>
  </style>
 </defs>
 <g id="Capa_x0020_1">
  <metadata id="CorelCorpID_0Corel-Layer"/>
  <rect class="fil0" x="-0" y="-0" width="558.79" height="558.79"/>
  <path class="fil1" d="M298.6 379.96c3.8,13.92 12.94,32.84 16.54,46.56 1.98,7.53 0.87,9.8 1.88,15.83 -5.16,1.87 -71.91,1.1 -72.21,1.01 -9.06,-2.77 14.66,-56.27 16.3,-64.36 -16.32,-5.13 -31.37,-25.31 -25.51,-47.61 12.46,-47.35 78.05,-43.04 88.18,-1.08 8.48,35.1 -16.7,42.66 -25.18,49.65zm62.9 -190.41l-0.38 36.27c-40.52,-2.03 -111,-0.35 -155.47,-0.37l-6.89 -1.08c-0.36,-27.9 -3.23,-52.5 6.19,-77.41 1.15,-3.04 1.91,-4.92 3.29,-7.45 6.01,-10.96 12.19,-17.29 21.14,-24.83 3.15,-2.65 2.45,-2.4 6.08,-4.57 26.45,-15.82 57.55,-17.22 83.59,-2.94 30.95,16.98 42.45,45.8 42.45,82.38zm-218.34 35.82c-14.45,0.57 -28.85,-2.06 -39.94,5.92 -7.4,5.31 -15.65,16.3 -15.65,29.69l0 221.02c0,20.37 16.5,34.27 37.29,34.27l309.98 0c10.12,0 17.18,-2.3 23.1,-7.18 15.5,-12.77 13.1,-30.22 13.19,-86.39l0 -152.29c-0.16,-44.92 -21.35,-45.04 -54.59,-45.04 -4.66,-42.09 11.99,-88.7 -39.85,-142.11 -72.02,-74.17 -203.94,-44.55 -230.34,68.45 -5.75,24.6 0.26,50.24 -3.19,73.66z"/>
 </g>
</svg>
