<?xml version="1.0" encoding="UTF-8"?>
<!DOCTYPE svg PUBLIC "-//W3C//DTD SVG 1.1//EN" "http://www.w3.org/Graphics/SVG/1.1/DTD/svg11.dtd">
<!-- Creator: CorelDRAW 2017 -->
<svg xmlns="http://www.w3.org/2000/svg" xml:space="preserve" width="6.0958mm" height="5.2492mm" version="1.1" style="shape-rendering:geometricPrecision; text-rendering:geometricPrecision; image-rendering:optimizeQuality; fill-rule:evenodd; clip-rule:evenodd"
viewBox="0 0 609.58 524.92"
 xmlns:xlink="http://www.w3.org/1999/xlink">
 <defs>
  <style type="text/css">
   <![CDATA[
    .fil0 {fill:#ED3237}
   ]]>
  </style>
 </defs>
 <g id="Capa_x0020_1">
  <metadata id="CorelCorpID_0Corel-Layer"/>
  <g id="_2924234053360">
   <g>
    <path class="fil0" d="M201.76 404.6l-2.55 2.54 2.55 -2.54zm-203.53 -264.64l0 -11.51c5.26,-12.22 20.34,-28.39 20.35,-28.4 -1.56,-6.68 -2.31,-7.46 -5.09,-12.69 7.95,-5.31 20.57,-18.15 27.24,-26.13 10.71,-12.83 12.25,-15.32 26.19,-24.63 3.2,7.73 1.01,0.59 0,12.69 21.89,-14.63 29.52,-32.52 50.88,-32.99 -18.59,38.64 -20.4,21.72 -33.07,40.6 16.22,-4.32 24.84,-19.45 34.96,-31.11 18.87,-21.74 35.03,-14.52 30.45,1.94 -4.96,17.77 -58.12,49.49 -62.87,67.24 10.93,-5.77 65.11,-55.45 69.06,-60.54 7.15,-9.22 12.3,-17.85 27.62,-10.52 8.19,17.04 -13.96,26.82 -20.36,35.53 20.8,-4.83 17.77,-26 50.89,-10.15 -22.2,41.85 -35.67,34.48 -40.71,53.3 16.79,11.21 19.76,4.48 41.25,-22.31 14.06,-17.52 40.16,-28.49 40.16,2 -12.51,1.04 -14.77,8.77 -21.39,16.73 -7.36,8.82 -12.08,8.03 -19.31,18.8 9.96,-2.65 19.46,-14.1 28.36,-19.92 8.98,-5.88 23.35,-10.53 37.78,-10.53 -0.84,10.14 -3.83,12.22 -8.65,19.28 -4.56,6.68 -5.55,10.25 -9.21,16.19 -6.73,10.9 -18.23,17.31 -25.39,27.98 18.14,-4.22 51.72,-39.12 73.78,-50.76 -3,-12.85 -2.82,-12.8 6.92,-20.98l35.22 -28.35c23.96,-18.66 82.49,-77.62 92.7,-39.5 7.42,-4.96 13.65,-16.47 26.5,-11.3 11.69,4.7 1.07,17.02 -3.61,23.99 28.75,-2.39 23.44,-32.4 55.97,-15.23 -0.89,10.67 -2.89,8.36 -5.09,17.77l27.6 -2.46 2.93 15.15c13.39,-3.11 6.97,-3.11 20.35,0 0,22.04 -3.05,20.18 -15.62,30.09l-73.42 63.81c10.54,-0.87 8.16,-4.14 14.3,3.33 3.52,4.3 13.93,25.38 31.5,-0.79 -4.04,-17.28 -6.92,-7.86 -15.27,-20.31 14.79,-3.43 12.04,-6.74 19.95,-15.63 5.95,-6.7 14.02,-8.4 22.29,-13.29 15.61,-9.25 21.94,-20.35 39.76,-30.03l14.68 15.81 -79.5 80.58c-24.23,24.4 -61.2,47.61 -80.78,76.77 17.87,-4.76 18.94,-17.73 45.12,-23.51 29.61,-6.53 17.66,-17.01 36.22,-29.86 17.12,-11.86 21.9,-16.41 34.64,-33.97 5.74,-7.91 21.7,-33.72 23.94,-42.09 12.79,0 11.39,2.28 22.9,2.54 -0.41,18.35 -7.41,20.03 -11.19,32.32 -4.97,16.14 16.53,20.67 -6.62,26.05 0,-10.32 0.85,-8.17 -2.54,-15.23 -12,0 -11.38,0.45 -20.36,2.54 0.27,11.66 -2.46,8.15 5.16,12.62 2.59,1.52 10.45,2.5 15.2,2.61 -0.52,0.35 -1.3,0.7 -1.65,0.89l-23.79 14.33c9.59,14.29 17.19,10.74 2.61,30.51 -13.75,18.65 -58.68,61.89 -66.21,76.09 9.36,-0.78 9.39,-0.82 10.17,-10.16 7.85,0.66 7.43,1.54 12.72,7.62 -2.62,9.8 -10.43,14.25 -17.17,20.94 -19.55,19.38 -15.79,21.21 -27.57,30.87 -13.75,11.28 -10.29,15.38 -21.4,31.94 7.78,-1.81 9.77,-3.95 15.26,-7.61 1.11,13.3 3.87,7.18 10.18,10.15 -4.51,19.28 -28.28,29.33 -42.68,41.18 -15.59,12.82 -28.59,24.47 -44.29,37.03 -13.53,10.82 -5.81,14.51 -14.27,26.36l-19.08 21.58c-13.19,15.75 -27.45,31.2 -50.14,31.2 -21.05,-31.37 -15.56,-19.72 -40.7,-32.99 0.32,-14.59 9.1,-25.03 18.97,-34.37 14.24,-13.48 7.89,-6.78 34.45,-13.85 3.84,18.07 -4.6,1.01 -5.08,22.84 17.42,-1.45 23.31,-16.43 33.71,-27.28 7.82,-8.17 19.63,-23.88 24.8,-33.63 -18.23,0.4 -6.26,3.86 -20.35,7.61 2.54,-10.87 5.58,-16.71 10.07,-25.69l-10.07 2.85c7.97,-15.02 17.4,-19.43 20.35,-30.46l-69.33 65.36c-12.47,12.42 -20.65,23.08 -33.1,35.49 -15.47,15.42 -15.12,27.47 -40.04,10.82 0,-16.65 3.72,-15.33 13.35,-24.75 6.64,-6.5 10.65,-11.46 18.25,-17.32 31.27,-24.08 75.58,-79.23 92.68,-92.81 8.24,-6.55 12.22,-8.5 18.19,-17.39 -9.08,2.42 -41.28,30.59 -50.88,38.07 -16.24,12.65 -31.91,25.49 -48.37,38.04 -61.39,46.79 -35.63,59.94 -74.94,54.4 -18.94,-2.68 -11.93,4.38 -31.88,-6.15 0,-26.8 15.61,-23.42 25.44,-38.07 -10.22,2.37 -9.32,6.48 -22.21,4.67 -5.57,-0.78 -13.74,-4.7 -18.49,-7.21 7.91,-16.45 13.05,-19.66 15.26,-27.92 -22.3,5.94 -11.33,25.38 -45.79,25.38 -4.03,-7.59 -7.6,-8.96 -6.21,-16.31 2.64,-14.01 26.03,-29.91 34.19,-42.06 -9.92,2.64 -22.89,13.75 -29.04,21.79 -16.42,21.48 -23.31,5.91 -32.02,3.59 4.42,-6.58 1.93,-3.1 7.57,-7.69 25.11,-20.49 9.55,-9.08 28.05,-7.54 0.59,-26.44 26.64,-48.43 42.5,-61.66l139.23 -117.44c9.63,-7.54 20.72,-14.75 26.88,-23.93 -7.81,2.08 -87.29,64.4 -96.08,71.64 -11.92,9.83 -19.29,14.16 -30.49,25.43 -5.08,5.12 -8.73,9.17 -13.95,13.99l-43.4 40.47c-34.13,28.63 -50.03,41.4 -65.39,18.51 3.56,-4.09 7.09,-8.1 10.17,-12.69 -11.1,2.96 -8.99,9.74 -20.37,9.83 -7.12,0.06 -10.8,-4.06 -14.42,-8.11l-3.37 -4.26c5.83,-10.98 10.85,-17.5 18.43,-27.3 5.19,-6.72 3.87,-6.99 8.51,-14.35 18.44,-29.26 49.67,-41.94 54.47,-59.87 -20.86,13.94 -57.64,53.34 -74.8,64.98 -15.24,10.35 -19.66,6.75 -32.05,-1.53 1.05,-12.59 7.65,-20.89 12.72,-30.45 -12.56,2.91 -11.99,5.05 -21.23,-4.14 -22.67,-22.54 1.63,-17.49 3.42,-39.01 -22.8,-5.3 3.85,-0.72 -33.07,-25.38 1.33,-15.96 10.72,-21.99 19.76,-31.04l23.49 -27.33c-19.38,5.16 -26.24,33.19 -38.78,31.53 -2.01,-0.26 -3.46,-0.88 -4.47,-1.77zm206.07 262.1l-2.54 2.54 2.54 -2.54zm2.54 -2.54l-2.54 2.54 2.54 -2.54zm0 0c2.25,-8.38 6.87,-12.99 15.27,-15.22l-15.27 15.22zm-40.7 -35.53c2.52,-10.8 3.06,-10.68 11.79,-16.15 15.9,-9.95 7.76,-8.32 18.74,-9.23l0 27.92c-5.49,3.67 -7.49,5.81 -15.27,7.61 -3.91,-5.83 -4.86,-5.1 -5.09,-15.22 -6.2,4.14 -2.58,2.83 -10.17,5.07zm-10.18 -20.3l0 0zm223.88 -22.84c4.34,-6.47 4.36,-7.93 12.72,-10.15 -4.34,6.47 -4.36,7.92 -12.72,10.15zm15.26 -12.69l-2.54 2.54 2.54 -2.54zm2.55 -2.54l-2.55 2.54 2.55 -2.54zm2.54 -2.54l-2.54 2.54 2.54 -2.54zm0 0l0 0zm-300.2 5.08c3.16,-13.52 18.59,-26.41 29.02,-34.5 6.65,-5.15 10.92,-8.07 17.51,-12.99 6.68,-5 11.96,-11.38 19.62,-13.42 -4.67,6.95 -8.72,10.27 -15.26,15.23 -7.2,5.45 -10.56,10.11 -17.44,15.6 -11.91,9.51 -22.94,23.06 -33.45,30.08zm134.84 68.52c0,-9.85 -0.84,-6.54 5.53,-19.86 4.71,-9.85 2.97,-5.35 13.59,-9.28l57.95 -48.81c9.76,-12.63 -2.79,1.97 4.34,-13.41 30.91,-7.19 15.37,-2.34 40.3,-20.71 5.99,-4.43 13.58,-7.85 18.64,-11.86 10.61,-8.41 2.72,-9.71 17.38,-13.12 -2.64,9.88 -27.73,31.48 -36.25,39.98 -13.55,13.51 -25.26,27.43 -40.07,38.7l-40.1 36.13c-2.6,2.4 -41.31,45.99 -41.31,22.24zm-68.69 -129.43c4.34,-6.47 4.36,-7.93 12.72,-10.15 -4.34,6.47 -4.36,7.92 -12.72,10.15zm345.99 -12.69c-25.77,38.39 -46.44,43.69 -62.53,64.52 -6.59,8.53 -11.18,18.17 -23.97,19.23 15.62,-23.26 39.37,-47.96 62.19,-64.86 8.97,-6.66 13.37,-15.98 24.31,-18.89zm-330.73 0l-2.54 2.54 2.54 -2.54zm-132.29 2.54l0 0zm463.02 -2.54l0 0zm-328.18 -2.54l-2.55 2.54 2.55 -2.54zm264.58 -2.54l0 0zm-259.5 0l-5.08 2.54 5.08 -2.54zm2.55 -2.54l-2.55 2.54 2.55 -2.54zm2.54 -2.53l-2.54 2.53 2.54 -2.53zm2.55 -2.54l-2.55 2.54 2.55 -2.54zm0 0l0 0zm53.42 45.68c5,-4.33 7.32,-7.47 11.65,-13.76l71.22 -66c9.37,-7.31 20.78,-20.65 34.16,-21.76 -7.99,15.07 -9.52,11.37 -27.3,28.6 -6.27,6.08 -9.14,6.88 -15.35,12.61l-62.38 57.25c-6.27,6.38 0.02,5.85 -12,3.06zm-15.26 -114.21l0 0zm2.54 -2.53l-2.54 2.53 2.54 -2.53zm101.76 0c4.47,-6.65 1.29,-5.25 10.18,-7.62 -4.46,6.65 -1.29,5.25 -10.18,7.62zm12.73 -10.16l-2.55 2.54 2.55 -2.54zm0 0l0 0zm35.61 40.61c-0.98,-11.79 2.73,-4.44 -5.09,-10.15l-12.65 7.74c3.48,-15.31 17.94,-24.54 33.01,-28.04 -1.82,7.76 -3.96,9.75 -7.64,15.22 21.22,-4.93 16.65,-17.84 51.92,-42.11 7.5,-5.15 12.24,-8.99 19.32,-13.72 -3.5,14.98 -15.35,13.59 -37.52,36.17 -7.96,8.1 -11.65,10.85 -20.65,17.47 -8.52,6.27 -13.11,12.35 -20.7,17.42zm-300.2 -86.29l0 0zm391.79 -30.45l0 0zm2.54 -2.54l-2.54 2.54 2.54 -2.54zm2.55 -5.08l-2.55 5.08 2.55 -5.08zm-399.42 0l0 0zm401.96 -2.54l-2.54 2.54 2.54 -2.54zm2.54 -2.53l-2.54 2.53 2.54 -2.53zm0 0c2.83,-3.85 5.04,-5.13 9.25,-8.55 6.57,-5.35 2.5,-4.39 11.11,-6.68 -5.41,8.06 -9.42,12.68 -20.36,15.23zm22.9 -17.77l-2.54 2.54 2.54 -2.54zm2.55 -2.54l-2.55 2.54 2.55 -2.54zm2.54 -2.53l-2.54 2.53 2.54 -2.53zm2.54 -2.54l-2.54 2.54 2.54 -2.54zm-50.88 -2.54l0 0z"/>
    <path class="fil0" d="M359.49 391.91c-6.59,4.4 -12.93,9.02 -15.27,17.77 6.38,-1.7 4.56,0.16 9.35,-5.9 3.16,-4 4.68,-7.23 5.92,-11.87z"/>
   </g>
  </g>
 </g>
</svg>
