<?xml version="1.0" encoding="UTF-8"?>
<!DOCTYPE svg PUBLIC "-//W3C//DTD SVG 1.1//EN" "http://www.w3.org/Graphics/SVG/1.1/DTD/svg11.dtd">
<!-- Creator: CorelDRAW 2017 -->
<svg xmlns="http://www.w3.org/2000/svg" xml:space="preserve" width="5.5878mm" height="5.5878mm" version="1.1" style="shape-rendering:geometricPrecision; text-rendering:geometricPrecision; image-rendering:optimizeQuality; fill-rule:evenodd; clip-rule:evenodd"
viewBox="0 0 558.78 558.78"
 xmlns:xlink="http://www.w3.org/1999/xlink">
 <defs>
  <style type="text/css">
   <![CDATA[
    .fil0 {fill:none}
    .fil1 {fill:black}
   ]]>
  </style>
 </defs>
 <g id="Capa_x0020_1">
  <metadata id="CorelCorpID_0Corel-Layer"/>
  <rect class="fil0" x="-0" y="-0" width="558.79" height="558.79"/>
  <path class="fil1" d="M402.56 344.98c51.94,-0.09 91.53,-0.35 95.19,-0.94 13.2,-2.14 22.13,-10.4 27.19,-18.91 6.99,-11.75 5.2,-25.97 5.2,-40.73l0 -184.17c0.02,-15.32 -2.13,-27.11 -10.24,-35.68 -7.52,-7.94 -16.06,-14.19 -31.91,-14.46 -89.08,-1.51 -185.69,0 -276.19,0 -14.93,0 -81.47,-1.1 -90.83,1.06 -33.65,7.78 -33.07,35.65 -33.07,59.41l0 75.29 22.04 0c-0.31,-43.35 -0.26,-97.62 2.76,-102.98 7.65,-13.56 23.93,-10.13 41.79,-10.13l310.01 0c52.99,0 43.2,-3.64 43.2,112.05 0,15.31 0.96,93.76 -0.34,102.02l-104.8 0 0 58.17zm0 82.43l32.83 0c12.38,0.04 18.53,-5.8 15.11,-15.22 -3.23,-8.86 -13.14,-7.21 -23.58,-7.21 -7.97,0 -16.15,0.11 -24.36,0.2l0 22.23z"/>
  <path class="fil1" d="M205.03 410.06c12.3,-5.13 17.26,12.51 7.28,16.62 -11.26,4.61 -18.09,-12.11 -7.28,-16.62zm-158.02 -15.31c-1.49,-9.46 -0.28,-31.05 -0.28,-41.79 0,-20.78 -1.78,-117.87 1.93,-124.45 6.23,-11.06 19.51,-8.26 34.06,-8.26l252.72 0c43.2,0 35.22,-2.97 35.22,91.34 0,12.48 0.78,76.43 -0.28,83.16l-323.37 0zm8.39 -192.1c-27.44,6.34 -26.96,29.05 -26.96,48.43l0 150.13c0,13.8 0.64,20.91 7.74,29.71 5.22,6.47 14.44,10.89 26.63,10.92 7.67,0.02 290.62,1.03 299.74,-0.43 10.76,-1.75 18.04,-8.48 22.16,-15.42 5.7,-9.58 4.24,-21.17 4.24,-33.2l0 -150.14c0.01,-12.48 -1.73,-22.09 -8.35,-29.08 -6.13,-6.48 -13.09,-11.57 -26.01,-11.78 -72.62,-1.24 -151.37,0 -225.15,0 -12.17,0 -66.42,-0.91 -74.04,0.86zm108.55 288.34c-16.9,0.71 -35.08,0.11 -52.13,0.1 -8.48,0 -17.05,-1.13 -18.79,7.05 -1.95,9.11 5.77,11.26 13.43,11.23l205.25 0c10.09,0.03 15.11,-4.73 12.31,-12.4 -2.62,-7.22 -10.71,-5.88 -19.21,-5.88 -16.8,0 -34.7,0.6 -51.36,-0.1l-0.34 -45.09 -89.13 0.09 -0.03 45z"/>
 </g>
</svg>
