<?xml version="1.0" encoding="UTF-8"?>
<!DOCTYPE svg PUBLIC "-//W3C//DTD SVG 1.1//EN" "http://www.w3.org/Graphics/SVG/1.1/DTD/svg11.dtd">
<!-- Creator: CorelDRAW 2017 -->
<svg xmlns="http://www.w3.org/2000/svg" xml:space="preserve" width="14.8166mm" height="0.7618mm" version="1.1" style="shape-rendering:geometricPrecision; text-rendering:geometricPrecision; image-rendering:optimizeQuality; fill-rule:evenodd; clip-rule:evenodd"
viewBox="0 0 1481.66 76.18"
 xmlns:xlink="http://www.w3.org/1999/xlink">
 <defs>
  <style type="text/css">
   <![CDATA[
    .fil0 {fill:none}
    .fil1 {fill:#373435}
   ]]>
  </style>
 </defs>
 <g id="Capa_x0020_1">
  <metadata id="CorelCorpID_0Corel-Layer"/>
  <rect class="fil0" y="-0" width="1481.66" height="76.19"/>
  <g id="_1978052663216">
   <g>
    <path class="fil1" d="M1443.38 22.19c9.58,0 12.12,3.06 15.83,10.99 3.51,7.51 5.7,13.22 5.7,21.69 0,12.53 -29.17,7.56 -29.19,7.55 -4.69,-1.78 -12.26,-21.9 -10.71,-26.01 4.56,-1.98 19.59,2.18 23.57,4.06 -0.6,10.44 -14.32,16.18 -5.17,17.89 6.96,1.29 12.46,-15.42 12.46,-16.02l0 -3.34c0,-12.04 -40.29,-14.34 -40.71,-8.86l-0.49 2.21c-0.12,4.08 8.69,30.89 12.04,34.17 7.98,7.8 28.78,4.83 39.03,2.3 5.66,-1.4 8.2,-3.74 8.22,-10.64 0.01,-5.5 -5.74,-25.77 -7.99,-30.11 -5.13,-9.87 -11,-16.88 -23.96,-13.88 -3.78,0.88 -11.41,4.11 -11.05,8.04 0.61,6.75 9.06,-0.04 12.42,-0.04z"/>
    <path class="fil1" d="M1147.03 24.13c9.77,0 12.36,3.43 15.5,10.21 16.46,35.54 -2.41,30.46 -21.34,30.46 -8.38,0 -12.14,-23.1 -13.17,-26.45 6,-1.67 18.87,1.44 23.96,4.09 0.47,7.55 -9.8,13.41 -7.3,16.6 3.71,4.74 14.8,-5.34 14.8,-18.37 0,-10.62 -37.23,-14.41 -40.84,-8.98 -1.7,4.88 4.67,19.97 6.36,25.15 5.96,18.4 12.23,16.36 28.71,16.36 4.33,0 18.52,-2.39 21.05,-4.81 7.06,-6.72 -3.02,-39.05 -11.94,-48.49 -7.93,-8.4 -26.32,-2.66 -28.06,2.8 -1.11,3.47 1.16,4.92 4.26,4.3 2.51,-0.51 5.69,-2.87 8.01,-2.87z"/>
    <path class="fil1" d="M1317.33 28.65c-4.15,-3.86 -3.54,-11.79 -11.91,-12.27 -1.39,4.59 -2.43,3.06 1.19,7.41 8.83,10.63 1.04,11.89 -5.42,15.8 -7.81,4.72 -13.94,4.56 -6.28,20.99 5.37,11.51 9.08,12.02 17.27,1.64 7.67,-9.71 3.98,-20.71 8.27,-25.1 2.2,-2.26 6.34,-6.75 9.4,-7.8 2.58,3.11 0.95,1.66 0.45,4.96 -0.47,3.1 0.63,3.96 0.91,7.29 0.59,7.24 2.87,10.81 3.19,14.97 -2.21,1.56 -3.55,1.69 -6.38,1.81l-0.12 -13.07c-1.8,-0.91 -2.37,-1.53 -4.61,-1.79 -3.18,2.85 -1.73,1.88 -1.73,8.87 0,6.97 -6.71,10.3 -6.21,16.17 3.92,3.95 6.72,-0.51 10.91,-2.29 4.51,-1.92 11.14,-0.79 16.11,-0.79 2.18,0 2.72,-1.42 4.24,-2.77 -0.71,-4.73 -2.95,-4.65 -4.55,-7.48 -0.88,-1.56 -2.47,-7.09 -3,-9.57 -1.29,-5.97 -2.57,-15.62 -0.32,-21.96 3.73,-10.57 -3.82,-12.83 -8.42,-6.77 -2.64,3.48 -2.73,4.22 -5.72,6.83l-7.27 4.92zm62.61 0.64c-0.56,-0.58 -0.57,-0.57 -1.22,-1.54 -3.21,-4.78 -3.41,-10.33 -10.67,-10.72 -1.62,4.47 -2.17,3.21 1.34,7.43 13.17,15.81 -14.07,14.24 -15.39,23.79 -0.37,2.67 2.46,10.58 3.6,13.1 1.8,4 4.33,8.06 8.14,9.27 2.52,-1.04 7.13,-5.59 8.91,-7.7 7.75,-9.15 4.14,-20.79 8.24,-25.13 2.15,-2.28 6.49,-6.88 9.57,-7.83 2.74,3.03 0.9,1.71 0.41,5.13 -0.43,3.03 0.71,3.81 0.98,7.29 0.61,7.87 2.5,9.3 3.26,15.33l-6.35 1.52c-0.35,-9.29 1.79,-14.41 -5.13,-15.09 -3.98,4.14 0.41,7.07 -2.56,13.86 -1.71,3.92 -5.97,7.28 -4.89,11.93 5.17,2.07 6.66,-1.5 11.09,-3.17 9.08,-3.42 12.67,2.89 19.84,-3.31 -0.33,-6.46 -6.63,-4.83 -8.65,-23.88 -2.28,-21.42 8.2,-18.47 -1.92,-25.56 -6.28,2.03 -9.79,11.79 -18.6,15.28zm-18.92 20.85c1.2,4.18 1.71,8.52 5.56,10.79 5.99,-1.56 7.33,-13.14 7.19,-16.6 -3.44,-0.19 -3.36,0.96 -6.11,2.4 -2.67,1.4 -3.96,1.36 -6.64,3.41zm-62.49 -0.72c0.49,3.94 4.07,15.84 9.29,8.45 1.55,-2.2 3.54,-11.32 3.19,-14.22 -2.12,-0.1 -10.51,4.28 -12.48,5.77z"/>
    <path class="fil1" d="M1198.78 20.75c-3.32,-2.17 -3.25,-5.19 -7.31,-5.67 -6.36,5.75 3.55,9.28 4.15,13.07 0.82,5.13 -15.13,19.38 -3.28,39.82 2.1,3.62 4.88,5.46 10.28,6.63 6.57,1.42 22.72,-2.96 22.72,-8.88 0,-15.86 -19.93,-36.8 -20.02,-39.24 1.04,-3.14 2.1,-4.97 5.15,-6.22 6.02,2.8 5.58,17.38 11.05,21.83 4.47,-1.61 3.82,-0.45 3.82,-9.76 0,-5.11 -10.24,-22.17 -15.7,-21.76l-3.21 0.19c-1.68,2.59 -5.07,8.56 -7.65,9.99zm18.69 41.96c-1.34,-6.82 -12.24,-24.22 -16.01,-26.81 -3.01,5.68 -7.51,16.92 -4.53,23.32 4.57,9.81 12.32,7.89 20.54,3.49z"/>
    <path class="fil1" d="M1239.25 34.44c10.1,0.14 3.51,-7.18 7.83,-13.12 4.29,-5.9 16.29,1.14 19.74,3.93 5.04,4.08 10.06,7.67 10.67,14.58 -1.23,5.79 -18.41,13.95 -26.14,8.39 -3.59,-2.59 -2.35,-4.68 -4.98,-7.49 -3.36,-1.63 -14.52,2.38 -0.11,22.59 2.8,3.92 11.02,13.09 13.31,2.4 -1.53,-4.36 -6.89,-3.23 -8.39,-9.31 9.91,0.1 18.18,1.65 28.56,-9.08 2.94,-3.03 6.76,-8.88 4.44,-14.44 -0.83,-1.99 -2.9,-4.54 -4.06,-5.95 -1.86,-2.25 -2.61,-2.94 -4.85,-5.19 -2.91,-2.91 -7.03,-6.51 -11.23,-8.76 -2.87,-1.53 -12.05,-4.45 -16.04,-4.3 -5.18,0.2 -7.94,6.64 -9.34,10.93 -2.32,7.08 -3.65,8.8 0.59,14.82z"/>
    <path class="fil1" d="M1097.78 71.26c9.85,-5.35 9.13,-18.29 8.55,-28.23 -9.96,-0.7 -3.14,4.48 -6.04,13.45 -3.78,-0.7 -7.68,-11.93 -17.69,-16.57 -3.32,-1.54 -5.2,-1.45 -8.28,-3.24 0.1,-5.47 4.48,-13.74 8.43,-14.99 2.27,11.55 -6.92,11.29 0.47,17.29 3.63,-0.78 4.23,-2.31 5.65,-5.49 3.66,-8.19 1.9,-18.28 -2.01,-22.02 -4.08,-3.89 -7.82,1.28 -10.27,3.85 -4.56,4.82 -11.48,14.5 -12.86,22.16 -2.31,12.9 8.71,2.52 20.4,12.66 12.58,10.92 4.95,18.11 13.65,21.13z"/>
    <path class="fil1" d="M1256.16 41.55c4.8,0 4.61,-0.83 6.64,-3.39 -0.38,-2.18 -0.94,-3.83 -1.83,-5.37 -2.73,-0.32 -4.87,0.12 -6.26,2.09 -2.44,3.42 -0.02,4.57 1.45,6.67z"/>
    <path class="fil1" d="M1135.73 46.97c0.53,1.47 1.07,2.87 1.81,4.02 3.25,0.63 2.26,1.22 5.64,0.02 1.85,-4.47 0.03,-7.29 -2.83,-7.52 -4.72,1.19 -2.09,1.31 -4.62,3.48z"/>
    <path class="fil1" d="M1432.4 45.68c2.09,5.55 8.65,6.81 7.73,-2.6 -3.81,-2.17 -6,-2.43 -7.73,2.6z"/>
   </g>
   <polygon class="fil1" points="445.87,35.07 445.87,35.83 "/>
   <polygon class="fil1" points="445.87,41.15 445.87,41.91 "/>
   <polygon class="fil1" points="445.87,47.23 445.87,48 "/>
   <polygon class="fil1" points="445.87,53.32 445.87,54.08 "/>
   <path class="fil1" d="M117.76 33.78c-2.71,-1.4 -3.97,-3.4 -5.99,-5.35 -5.71,-5.5 -29.54,-19.38 -33.45,-8.97 -1,2.67 3.13,15.63 4.12,19.96 0.81,3.58 1.32,6.66 2.23,10.49 -5.62,-0.53 -12.87,-7.39 -13.24,3.25 3.36,3.03 9.29,3.9 13.7,7.75 1.55,1.36 4.08,5 5.59,5.57 3.71,1.4 6.49,-1.4 6.48,-4.93 -0.01,-1.15 -4.35,-13.88 -5.03,-16.87 -1.1,-4.89 -1.77,-15.22 -3.12,-18.8 6.18,-0.72 19.52,11.52 24.48,17.44 3.12,3.73 6.21,8.28 8.8,12.96 3.59,6.45 3.01,17.07 9.8,16.68 7.82,-0.46 1.1,-12.23 0.52,-13.63 -1.8,-4.32 -5.16,-20.07 -5.52,-23.74 5.14,1.45 8.22,9.29 14.02,2.67 0.95,-5.29 -4.85,-8.84 -7.61,-11.57 -1.76,-1.75 -2.8,-2.64 -4.45,-4.77 -1.89,-2.44 -2.05,-3.62 -3.85,-6.11 -2.77,-3.86 -8.38,-6.03 -9.74,0.76 -0.72,3.59 2.31,13.1 2.26,17.21z"/>
   <path class="fil1" d="M343.33 13.26c2.76,0 4.45,0.56 6.56,1.62 6.55,3.3 7.61,7.91 10.87,16.69 9.56,25.69 -6.64,22.37 -23.28,22.37 -7.63,0 -10.49,-10.39 -12.88,-17.99 -0.65,-2.05 -1.3,-7.02 -1.83,-8.36 2.89,-0.91 8.34,-0.48 12.47,0.29 24.18,4.48 2.72,11.54 4.16,20.26 8.5,5.72 14.84,-11.36 14.84,-18.36 0,-9.17 -31.04,-14.86 -41,-9.19 -0.86,6.33 8.66,33.98 11.56,36.9 7.74,7.79 29.39,5 39.47,2.37 14.67,-3.82 5.81,-24.9 1.3,-38.12 -1.99,-5.82 -8.69,-16.87 -17.23,-16.87 -6.43,0 -18.26,1.71 -19.06,7.54 -1.1,7.98 8.63,0.85 14.05,0.85z"/>
   <path class="fil1" d="M743.83 17.32c7.43,0.63 9.36,-6.19 20.09,-0.89 3,1.48 3.31,1.55 4.83,4.36 2.01,3.71 3.69,7.7 5.33,12.2 9.19,25.3 -5.62,22.13 -23.59,22.13 -9.62,0 -14.58,-22.81 -13.67,-26.34 0.2,-0.08 0.52,-0.35 0.62,-0.15l1.22 -0.21c6.36,-0.35 16.39,1.36 21.75,4.8 -1.28,9.61 -14.72,16.85 -4.85,17.39 4.87,0.27 11.96,-11 11.96,-18.28 0,-7.69 -10.3,-10.03 -16.49,-11.37 -5.67,-1.21 -19.62,-2.86 -24.2,1 -1.16,2.93 -0.77,3.27 0.16,6.31 2.05,6.73 6.85,25.35 11.03,29.9 7.64,8.34 24.88,5.32 35.43,3.73 15.34,-2.32 13.23,-9.25 9.4,-25.18 -2.56,-10.64 -8.18,-30.68 -22.32,-30.68 -5.75,0 -8.73,0.08 -13.8,3.3 -3.88,2.46 -5.39,3.61 -2.9,7.98z"/>
   <path class="fil1" d="M924.28 19.25c-3.75,0.73 -5.93,1.79 -8.79,-0.79 -1.65,-1.5 -4.51,-5.69 -7.62,-2.4 -4.57,3.81 3.7,9.81 6.5,11.04 7.17,3.14 10.81,0.1 17.29,1.09 4.63,7.27 4.29,14.64 -0.91,20.77 -5.79,6.82 -19.23,6.07 -20.87,4.5l-0.69 -3.31c0.01,-0.1 0.34,-2.98 0.38,-3.65 1.55,-29.79 -11.79,-19.21 -12.26,-15.84 0.5,4.84 4.41,5.07 3.69,13.38 -0.67,7.79 -4.81,6.17 -4.34,13.64 11.28,5.79 28.81,8.49 38.76,-0.73 11.83,-10.96 5.72,-23.03 4,-32.98 2.14,-2.11 2.3,-3.02 5.83,-4.16 3.52,5.43 1.71,16.26 10.62,11.73 1.9,-4.04 -0.3,-10.16 -1.76,-14.19 -0.78,-2.18 -1.94,-4.08 -2.93,-6.22 -2.01,-4.38 -1.17,-4.36 -3.83,-5.71 -7.68,-3.38 -5.73,8.4 -14.86,9.66 -2.53,-1.84 -5.79,-5.93 -8.01,-8.14 -2.7,-2.7 -4.55,-6.15 -9.52,-6.71 -2.46,1.99 -6.07,4.43 0.15,10.24 1.1,1.03 3.65,2.29 5.02,3.33 2.06,1.55 3.04,2.59 4.15,5.45z"/>
   <path class="fil1" d="M33.62 26.82c-0.66,-0.64 -0.56,-0.49 -1.28,-1.53 -0.36,-0.52 -0.99,-1.65 -1.28,-2.19 -2.21,-4.22 -3.27,-8.19 -9.37,-8.54 -1.57,4.56 -2.25,3.22 1.29,7.45 13.18,15.77 -13.87,14.25 -15.24,23.76 -0.43,2.99 2.32,10.53 3.47,13.1 5.59,12.48 9.43,10.75 17.16,1.54 7.63,-9.1 4.12,-20.82 8.25,-25.13 2.26,-2.36 6.2,-6.82 9.51,-7.77 2.6,3.09 0.88,1.66 0.41,5.01 -0.53,3.81 3.97,20.92 4.21,22.71l-6.4 1.55c-0.16,-8.91 1.69,-14.34 -4.93,-15.11 -4.15,3.75 0.06,6.71 -2.42,13.2 -1.03,2.7 -9.6,12.93 -2.48,13.47 0.33,0.02 2.92,-0.96 3.63,-1.34 6.24,-3.37 8.56,-4.32 17.55,-3.53 4.32,0.38 5.71,-0.33 7.17,-3.63 -1.46,-3.92 -3.27,-4.09 -4.75,-6.96 -3.23,-6.24 -5.78,-23.2 -3.14,-30.96 1.09,-3.2 2.41,-6.51 -0.48,-8.96 -4.92,-4.16 -8.89,3.73 -10,5.13 -2.29,2.86 -7.6,7.23 -10.88,8.73zm195.34 -3.87c-15.08,0 -15.35,12.92 -7.27,9.75 0.39,-0.15 8.17,-6.21 13.74,-0.43 -2.74,6.44 -15.63,11.24 -12.35,22.56 2.93,10.08 16.08,13.97 22.57,13.97 7.9,0 30.43,-6.81 13.11,-19.56 -16.87,-12.41 -23.63,-1.61 -16.4,2.24 6.08,2.15 12.38,-1.02 13.09,5.99 -1.66,6.11 -30.73,4.43 -25.15,-7.81 0.73,-1.61 12.52,-13.14 14.52,-14.44 6.28,2.39 12.41,8.27 17.31,9.34 3.57,-3.78 2.52,-3.71 1.89,-9.04 -0.53,-4.57 0.11,-6.78 -1.04,-11.36 -1.62,-6.43 -3.21,-15.31 -6.07,-18.64 -5.32,0.52 -4.41,3.28 -11.73,12.94 -7.55,9.98 -2.91,4.49 -16.22,4.49zm-214.24 24.66c4.71,22.42 13.38,4.79 12.65,-5.74 -2.37,-0.16 -10.46,4.11 -12.65,5.74zm234.67 -20.33c1.63,2.33 4.89,4.87 7.2,4.17 1.37,-2.56 0.05,-8.04 -2.59,-10.42 -2.7,1.5 -3.99,3.53 -4.61,6.25z"/>
   <path class="fil1" d="M514.58 8.07c-0.05,9.02 9.03,8.97 12.32,15.86 -9.51,6.54 -11.58,-9.37 -17.03,-2.05 -2.63,4.89 6.07,12.6 16.27,12.05l8.31 -0.89c6.36,10.91 2.92,23.21 -7.36,25.43 -18.85,4.06 -14.64,2.14 -14.64,-18.68 0,-3.43 -1.47,-6.34 -3.84,-7.6 -3.44,-1.84 -6.16,0.49 -8.42,2.19 0.17,6.1 3.86,4.96 3.86,13.76 0,7.11 -5,7.74 -4.43,14.2 3.16,3.09 11.76,5.81 17.33,5.81 7.43,0 14.94,-0.42 20.82,-5.88 12.58,-11.71 6.49,-21.93 4.38,-33.35 9.5,-9.13 6.46,2.41 9.91,6.71 2.34,2.89 7.53,3.75 7.53,-2.51 0,-5.73 -5.82,-19.89 -9.24,-22.59 -10.03,-1.54 -4.72,8.42 -15.03,9.84 -2.25,-1.38 -6.14,-6.06 -8.28,-8.19 -2.79,-2.8 -4.68,-6.51 -10.26,-6.65l-2.2 2.54z"/>
   <path class="fil1" d="M466.87 41.02l-1.4 -2.27c-1.38,-3.56 -0.05,-8.39 -0.47,-9.88 -0.89,-3.15 -7.44,-5.36 -7.44,8.43 0,5.49 3.51,9.98 3.88,15.02 -2.07,3.21 -3.47,4.39 -5.55,7.37 -1.94,2.76 -1.46,1.58 -3.48,3.3 -5.87,4.98 2.54,7.15 5.45,5.56 2.02,-1.1 1.75,-2.48 3.99,-5.39 1.58,-2.04 2.51,-3.29 5.29,-4.05 3.07,2.89 3.42,9.75 10.91,6.9 2.47,-8.98 -0.5,-8.75 5.34,-16.37 1.41,-1.84 3.53,-4.16 4.78,-6.14 2.2,-3.49 -0.31,-4.87 -3.14,-6.19 -10.15,9.71 -9.27,14.23 -13.51,15.99 -1.58,-5.12 1.65,-7.29 5.07,-18.84 2.86,-9.68 5.91,-19.15 3.91,-28.34 -9.38,-3.04 -20.87,3.45 -27.97,8.51 -14.65,10.43 -16.77,22.82 -8.33,19.31 6.22,-2.58 9.93,-11.48 22.03,-17.36 8.52,-4.15 6.56,2.06 5.47,8.88 -0.5,3.13 -0.85,5.06 -1.78,8.28 -0.33,1.14 -0.63,2.45 -1.12,3.8l-1.93 3.48z"/>
   <path class="fil1" d="M156.59 39.49l4.63 0.21c3.82,-8.14 0.63,-15.46 7.63,-15.46 4.98,0 9.54,2.3 13.47,4.67 2.87,1.73 8.72,7.06 10.07,9.05 4.41,6.46 3.27,7.68 -1.1,11.74 -4.26,3.97 -20.14,10.64 -25.26,-0.38 -1.44,-3.12 0.34,-1.31 -1.96,-3.13 -4.23,-2.28 -13.92,2.92 0.07,22.55 10.66,14.94 13.86,3.01 13.02,1.12 -3.25,-3.09 -6.32,-3.31 -8.15,-7.52 3.42,-1.79 12.35,3.47 26.62,-7.45 5,-3.83 9.15,-11.96 5.13,-18.62 -4.35,-7.25 -15.86,-17.42 -22.85,-19.69 -12.92,-4.18 -17.07,-4.77 -21.48,8.21 -2.15,6.32 -3.48,9.47 0.16,14.7z"/>
   <path class="fil1" d="M890.77 35.67l0.81 -0.84 -0.08 -0.83 0 -0.84 0.08 -0.83 0 -0.84 -0.08 -0.83 0 -0.84 0.08 -0.84c-1.26,0 -0.83,0.27 -0.83,-1.21 -1.99,-2.2 -2.98,-4.12 -5.46,-6.72 -2.18,-2.3 -4.05,-4.13 -6.23,-6.25 -5.29,-5.1 -7.89,-6.94 -16.76,-9.23 -8.89,-2.29 -11.87,-2.49 -15.63,6.02 -2.13,4.82 -6.83,20.59 2.34,18.35 5.35,-2.92 1.21,-9 5.85,-14.85 8.3,-5.35 51.39,22.34 13.73,30.05 -18.93,3.88 -8.71,-16.06 -22.94,-6.33 0.09,6.69 2.59,12.64 5.61,17.16 3.06,4.57 4.84,10.6 12.91,9.89 1.19,-1.73 2.05,-2.84 2.15,-5.93 -3.05,-2.5 -8.44,-3.13 -7.91,-8.04 10.34,0.14 11.1,1.18 20.48,-3.13 6.11,-2.82 9.2,-6.24 11.88,-13.09z"/>
   <path class="fil1" d="M401.39 64.92c4.85,1.31 3.39,0.59 7.81,-1.08 8.25,-3.1 12.35,-0.96 16.62,0.42 11.24,3.62 2.51,-27.57 -8.2,-32.88 -9.23,4.24 -2.59,6.39 2.99,15.44 5.42,8.79 2.92,6.16 -6.48,7.72 -2.55,0.43 -3.76,1.15 -6.6,1.15 -4.73,-34.15 11.37,-33.63 3.11,-43.07 -10.56,5.08 -14.01,37.2 -9.25,52.3z"/>
   <path class="fil1" d="M701.01 27.31c0,9.39 5.71,12.31 6.73,18.69 0.85,5.32 -7.84,11.5 -10.29,14.93 -10.83,-2.3 -11.47,-15.06 -20.34,-7.12 0.97,5 15.61,14.16 19.97,16.16 7.65,-3.05 22.35,-17.82 20.47,-25.59 -0.67,-2.73 -3.06,-4.53 -4.7,-6.97 -2.04,-3.07 -2,-4.71 -2.72,-8.87 -1.7,-9.86 3.73,-13.47 3.59,-19.6 -5.11,-4.85 -7.99,-0.34 -9.57,5.54 -0.73,2.71 -3.14,9.62 -3.14,12.83z"/>
   <path class="fil1" d="M678.72 17.67l9.64 0c0.77,5.81 -4.16,12.08 -7.23,15.39 -2.57,2.76 -11.18,9.07 -12.41,10.95 5.85,15.96 30.35,-20.32 30.35,-33.4 0,-9.84 -5.46,-1.34 -13.67,-1.34 -9.65,0 -10.42,-8.48 -15.98,7.13 -1.09,3.06 -3.82,9.39 2.23,8.22 5.29,-1.03 2.95,-5.56 7.07,-6.95z"/>
   <path class="fil1" d="M383.95 23.1c0,6.4 0.04,23.09 8.62,23.09 7.24,0 -4.25,-15.61 0.84,-29.51 3.68,1.59 2.35,3.64 7.8,4.19 2.67,-4.91 3.37,-5.03 -0.92,-8.81 -3.75,-3.31 -2.76,-5.08 -5.12,-9.01 -9.86,-0.41 -11.22,12.07 -11.22,20.05z"/>
   <path class="fil1" d="M112.1 49.82c0,-3.46 -2.9,-4.79 -5.85,-6.15 -5.28,1.63 -9.12,4.01 -4.54,9.01 3.91,4.27 10.39,-0.5 10.39,-2.86z"/>
   <path class="fil1" d="M518.52 47.31c2.04,1.83 1.88,2.65 5.11,3.4 6.45,-1.1 7.16,-6.99 2.51,-10.85 -4.86,0.39 -6.57,2.95 -7.62,7.45z"/>
   <path class="fil1" d="M915.5 42.66c2.18,1.6 5.2,4.32 8.61,1.33 3.56,-3.13 2,-6.41 0.11,-9.25 -5.13,-0.24 -7.74,3.28 -8.72,7.92z"/>
   <path class="fil1" d="M173.66 46.66c5.47,0.35 3.22,0.18 6.46,-1.47 0.76,-3.68 -0.01,-8.5 -5.1,-6.91 -5.87,1.85 -3.12,5.94 -1.36,8.38z"/>
   <path class="fil1" d="M860.51 33.16c2.31,5.39 5.03,4.53 8.75,1.86 0.21,-4.43 -0.35,-5.52 -3.55,-7.02 -3,0.83 -4.48,2.28 -5.2,5.16z"/>
   <path class="fil1" d="M750.51 41.71c4.34,-4.77 -0.85,-10.18 -4.96,-6.82 -3.61,2.96 -0.03,8.29 4.96,6.82z"/>
   <path class="fil1" d="M330.55 35.38c0.94,4.39 1.79,5.96 6.93,4.99 3.1,-4.61 0.25,-11.18 -6.93,-4.99z"/>
   <path class="fil1" d="M591.25 24.13c-1.71,-2.37 -2.6,-4.62 -4.3,-7.51 -1.87,-3.17 -3.08,-4.57 -7.35,-4.59 -3.12,8.35 4.83,7.05 5.03,16.92 -4.27,5.19 -18.24,8.84 -19.07,14.31 -0.73,4.85 6.57,21.86 11.51,22.31 2.69,-0.74 7.49,-5.4 9.1,-7.53 8.01,-10.58 3.9,-20.59 8.7,-25.49 2.37,-2.43 6.1,-6.89 9.78,-7.66 1.88,4.95 -1.1,2.49 -0.17,7.58 0.68,3.74 0.63,5.83 1.2,9.59 1.03,6.79 7.55,12.07 -3.43,11.78 -0.09,-4.33 0.7,-10.17 -1.17,-13.21 -1.67,-1.44 -2.74,-2.48 -4.59,-0.65 -3.56,3.52 2.96,4.64 -4.21,16.74 -0.36,0.61 -1.99,3.53 -2.12,3.87 -1.34,3.45 -1.33,2.27 0.46,4.06 3.28,2.76 6.56,-1.41 10.09,-2.86 7.24,-2.97 21.72,2.85 19.59,-5.79 -1.08,-4.41 -8.41,-3.29 -8.41,-31.23 0,-4.78 3,-8.45 2.46,-11.51 -0.73,-4.14 -5.06,-4.66 -7.92,-2.63 -4.28,3.04 -9.17,11.77 -15.18,13.5zm-18.67 20.33c0.49,2.78 0.85,4.46 1.74,6.45 0.14,0.31 1.14,2.25 1.43,2.67 3.7,5.36 6.84,-0.08 7.73,-3.91 0.93,-4.02 2.01,-6.48 1.8,-10.58 -3.62,0.26 -3.41,1.32 -6.17,2.74 -1.63,0.85 -4.78,1.81 -6.53,2.63z"/>
   <path class="fil1" d="M798.93 32.52c13.51,0 13.12,-3.47 9.09,8.04 -4.25,12.16 -14.19,16.38 -13.86,19.32 1.9,3.95 5.28,3.93 8.96,0.85 3.8,-3.17 4.33,-4.53 7.13,-8.7 2.78,-4.15 3.72,-4.41 5.99,-9.93 3.24,-7.82 1.08,-9.87 5.22,-10.66 2.12,3.58 -4.34,19.28 6.45,19.8 3.5,-4.97 0.3,-5.21 0.3,-12.24 0,-7.87 6.66,-9.51 6.32,-13.17 -0.66,-7.06 -8.94,-2.19 -14.42,-3.01 -5.36,-8.85 -8.55,-43.48 -22.42,-5.06 -2.4,6.63 -5.01,10.77 1.24,14.76zm218.62 19.84l0.09 -0.84c-1.66,-3.66 -4.39,-5.47 -5.83,-10.08 -2.53,-8.08 -4.43,-20.23 -1.47,-28.19 1.87,-5.02 1.99,-7.24 -3.55,-9.39 -6.72,2.46 -10.52,12.95 -18.37,15.04 -3.9,-4.51 -4.02,-11.92 -11.43,-12.21 -4.2,8.35 5.5,6.73 4.64,17.28 -4.83,5.2 -18.41,8.39 -18.93,14.25 -0.22,2.5 2.58,10.81 3.58,12.91 5.98,12.58 9.44,10.65 17.49,0.77 7.85,-9.64 3.14,-19.8 8.34,-25.05 1.73,-1.74 6.11,-6.32 9.81,-7.24 1.01,4.16 -0.63,3.23 -0.45,6.64 0.29,5.2 4.34,20.78 4.36,21.09l-6.16 1.28c-1.1,-6.34 2.01,-17.09 -5.78,-14.14 -2.89,3.54 0.49,8.15 -2.56,14.15 -0.99,1.95 -4.17,5.79 -4.46,8.09l0.38 2.67c3.98,2.93 8.29,-2.68 12.23,-3.42 12.73,-2.4 13.44,3.34 18.07,-3.61zm-214.51 -28.23c7.2,1.71 9.44,-1.57 6.78,-7.74 -1.57,-3.64 -0.15,-2.12 -3.55,-2.59 -0.81,5.11 -3,5.75 -3.23,10.33zm166.59 16c1.78,4.03 1.68,8.09 5.43,10.46 5.7,-0.83 7.35,-10.33 7.48,-16.73 -3.7,0.19 -3.73,1.25 -6.59,2.68 -3.18,1.59 -3.88,1.15 -6.32,3.59z"/>
  </g>
 </g>
</svg>
