<?xml version="1.0" encoding="UTF-8"?>
<!DOCTYPE svg PUBLIC "-//W3C//DTD SVG 1.1//EN" "http://www.w3.org/Graphics/SVG/1.1/DTD/svg11.dtd">
<!-- Creator: CorelDRAW 2017 -->
<svg xmlns="http://www.w3.org/2000/svg" xml:space="preserve" width="8.2972mm" height="8.2972mm" version="1.1" style="shape-rendering:geometricPrecision; text-rendering:geometricPrecision; image-rendering:optimizeQuality; fill-rule:evenodd; clip-rule:evenodd"
viewBox="0 0 829.72 829.72"
 xmlns:xlink="http://www.w3.org/1999/xlink">
 <defs>
  <style type="text/css">
   <![CDATA[
    .fil0 {fill:none}
    .fil2 {fill:#FEFEFE}
    .fil1 {fill:#373435}
    .fil3 {fill:#373435;fill-opacity:0.501961}
   ]]>
  </style>
 </defs>
 <g id="Capa_x0020_1">
  <metadata id="CorelCorpID_0Corel-Layer"/>
  <rect class="fil0" x="-0" y="-0" width="829.73" height="829.73"/>
  <path class="fil1" d="M300.21 226.43c-20.71,-24.17 -65.86,-63.36 -79.85,-86.45l151.39 -2.36 0.18 -105.41 -341.49 -0.35 1.81 341.06 108.93 -1.2 -0.57 -149.81 84.17 80.91 75.43 -76.39z"/>
  <polygon class="fil1" points="297.78,599.31 222.52,527.18 139.35,608.76 138.71,457.37 31.83,459.22 30.44,798.98 371.23,799.15 370.58,691.81 219.28,690.9 "/>
  <path class="fil2" d="M61.28 488.56l45.9 0.24 0 196.62c30.53,-15.41 84.94,-87.12 117.09,-111.53l30.33 30.83c-24.85,31.96 -94.97,86.73 -110.99,117.22l195.71 -0.1 0.15 45.54 -278.12 0.12 -0.07 -278.94z"/>
  <path class="fil1" d="M529.51 604.72c20.71,24.17 65.86,63.36 79.85,86.45l-151.39 2.36 -0.18 105.41 341.49 0.35 -1.81 -341.06 -108.93 1.2 0.57 149.81 -84.17 -80.91 -75.43 76.39z"/>
  <path class="fil2" d="M721.97 488.72l45.72 -0.17 -0.1 278.83 -278.73 0.16 0.24 -45.63 197.79 -1.74 -115.76 -117.18 33.81 -29.94c21.1,22.06 96.07,102.09 117.01,112.28l0.02 -196.61z"/>
  <path class="fil1" d="M588.19 315.65l103.68 -99.37 -0.8 154.65 107.75 0.23 -1.34 -340.74 -340.17 2.72 1.14 104.91 149.5 1.97 -57.08 56.74c-15.89,14.39 -31.49,30.25 -47.31,43.86 -29.84,-13.53 -64.89,-21.13 -103.73,-21.13 -91.91,0 -180.34,88.43 -180.34,180.34 0,130.85 84.09,200.95 174.26,210.4l42.22 0c90.17,-9.44 174.26,-79.55 174.26,-210.4 0,-30.69 -7.78,-59.25 -22.04,-84.18z"/>
  <path class="fil2" d="M488.8 60.49l278.85 0.18 -0.03 279.21 -45.65 -0.23 0 -195.96c-19.08,8.88 -64.74,61.47 -93.26,88.05 -22.27,20.75 -61.92,61.88 -87.54,81.15 22.52,27.86 36.02,63.33 36.02,101.96 0,89.67 -72.68,162.33 -162.32,162.33 -89.65,0 -162.33,-72.66 -162.33,-162.33 0,-89.66 72.68,-162.32 162.33,-162.32 34.75,0 66.96,10.92 93.36,29.52 28.88,-22.12 55.3,-56.82 82.81,-82.47 21.45,-20 84.09,-72.62 94.84,-92.98l-196.88 0.13 -0.2 -46.24z"/>
  <path class="fil2" d="M107.75 342.44l-45.72 0.16 0.1 -278.83 278.73 -0.16 -0.24 45.63 -197.79 1.74 115.76 117.18 -33.81 29.94c-21.1,-22.06 -96.07,-102.09 -117.01,-112.28l-0.02 196.62z"/>
  <path class="fil3" d="M414.86 287.86c70.15,0 127,56.86 127,127 0,70.14 -56.85,127 -127,127 -70.15,0 -127,-56.86 -127,-127 0,-70.14 56.85,-127 127,-127z"/>
  <path class="fil1" d="M281.95 404.64c0,89.02 57.21,136.71 118.55,143.14l28.73 0c61.34,-6.42 118.55,-54.12 118.55,-143.14 0,-69.32 -58.22,-122.69 -143.14,-122.69 -62.53,0 -122.69,60.16 -122.69,122.69zm14.51 1.12c0,79.29 50.96,121.77 105.61,127.5l25.58 0c54.65,-5.72 105.61,-48.21 105.61,-127.5 0,-61.76 -51.86,-109.3 -127.5,-109.3 -55.71,0 -109.3,53.59 -109.3,109.3z"/>
 </g>
</svg>
