<?xml version="1.0" encoding="UTF-8"?>
<!DOCTYPE svg PUBLIC "-//W3C//DTD SVG 1.1//EN" "http://www.w3.org/Graphics/SVG/1.1/DTD/svg11.dtd">
<!-- Creator: CorelDRAW 2017 -->
<svg xmlns="http://www.w3.org/2000/svg" xml:space="preserve" width="6.7732mm" height="6.7732mm" version="1.1" style="shape-rendering:geometricPrecision; text-rendering:geometricPrecision; image-rendering:optimizeQuality; fill-rule:evenodd; clip-rule:evenodd"
viewBox="0 0 677.32 677.32"
 xmlns:xlink="http://www.w3.org/1999/xlink">
 <defs>
  <style type="text/css">
   <![CDATA[
    .fil0 {fill:none}
    .fil1 {fill:#373435}
   ]]>
  </style>
 </defs>
 <g id="Capa_x0020_1">
  <metadata id="CorelCorpID_0Corel-Layer"/>
  <rect class="fil0" x="-0" y="-0" width="677.33" height="677.33"/>
  <path class="fil1" d="M164.85 608.27c-13.94,-6.35 -26.13,-17.13 -31.93,-31.34 -1.75,-4.28 -4.33,-7.2 -4.33,-12.15 0,-5.28 10.35,8.03 14.62,10.85 2.46,1.61 3.61,2.6 5.62,4 7.84,5.44 15.39,10.32 24.12,14.31 4.91,2.25 12.33,6.07 16.99,7.28l13.9 5.36c1.98,0.69 1.31,0.72 3.09,1.44 1.19,0.47 2.59,0.56 4.02,1.02l18.05 5.29c-2.07,1.4 -5.33,1.28 -8.75,1.57 -2.27,0.2 -6.92,1.28 -8.54,1.28 -12.26,0 -5.3,0.03 -15.02,-1.11 -14.94,-1.75 -16.8,-0.96 -31.84,-7.8zm124.84 -380.01l4.52 0c9.66,0 27.93,-10.25 5.73,-18.55 -5.01,-1.87 -11.58,-3.42 -17.62,-2.65 -2.92,0.37 -4.77,1.7 -5.29,4.1 -0.89,4.07 7.11,17.1 12.66,17.1zm-23.99 -48.72c-4.11,0.49 -5.73,0.74 -4.8,-4.2 0.41,-2.16 2.13,-4.51 3.9,-5.19 1.02,-0.4 8.2,-0.49 0.9,9.39zm-25.74 -3.61c1.43,-0.96 4.46,-8.21 6.16,-10.9 2.14,-3.38 4.85,-7.3 8.34,-9.71 6.11,-4.22 11.98,-5.29 17.58,0.33 2.6,2.61 2.59,3.46 2.97,8.34 -4.16,0.81 -2.69,-0.66 -5.81,-0.98 -2.7,-0.27 -7.46,3.18 -9.72,6.35 -0.84,1.18 -1.13,1.44 -1.71,2.28l-3.83 8.56c-1.45,4.9 -2.46,3.17 -2.42,13.74 0.01,3.8 -0.75,4.86 -1.05,7.98 2.41,0.57 3.96,0.77 6.88,1.32 2.23,0.42 10.25,4.01 13.59,0.79 3.25,-3.15 5.81,-13.84 6.6,-18.34 1.29,-7.35 2.05,-9.42 2.05,-17.19 0,-5.25 -2.81,-13.54 -5.86,-16.25 -2.34,-2.08 -4.73,-2.54 -7.77,-3.55 -2.81,-0.93 -1.66,-0.86 -4.58,-0.05 -5.58,1.54 -7.95,1.93 -13.65,8.97l-6.37 10.59c-0.84,4.13 0.28,1.17 -1.77,3.92 -1.35,1.8 -1.22,2.17 0.37,3.8zm92.01 23.2c-0.51,-7.04 5.13,-11.28 8.22,-8.81 2.79,2.23 -0.67,14.04 -8.22,8.81zm-11.55 15.16c0,8.85 4.76,7.23 8.67,9.78 1.4,0.92 0.07,0.41 1.68,1.14 1.16,0.52 1.04,0.21 2.18,0.67 1.75,0.69 1.19,1.17 3.57,2.02 1.13,0.41 3.19,0.67 4.58,1.19 2.11,0.78 6.79,3.03 7.73,-0.1 -1.96,-1.24 -3.95,-0.45 -6.43,-1.28 -0.14,-1.77 -0.04,-1.59 0.75,-2.89 2.79,-4.54 6.11,-9.06 6.99,-15.15 4.2,-29.1 -6.6,-24.17 -9.53,-27.98 0.77,-1.62 0.51,-1.14 4.5,-3.52 8.47,-5.07 17.89,2 19.76,8.34 0.54,1.81 0.22,2.84 1.88,4.4l1.01 0.77c-0.24,0.99 -0.53,13.42 1.04,14.99 1.41,-3.04 1.69,-11.47 0.09,-15.01l-0.35 -0.79c-0.34,-1.01 -1.14,-13.95 -10.67,-16.48 -1.48,-0.39 -1.42,-0.37 -2.61,-0.79 -9.08,-3.22 -18.46,5.51 -23,12.6 -0.8,1.25 -1.19,1.38 -2.01,2.51 -1.96,2.65 -9.83,22.03 -9.83,25.58zm-33.55 61.82l11.49 -1.16c2.46,-0.56 1.76,-0.9 3.91,-1.73 5.11,-1.97 8.95,-4.34 13.04,-7.29 3.23,-2.33 1.8,0.65 4.56,-4.26 -8.18,-0.35 -8.93,-2.27 -12.7,-3.18l-8.08 -3.87c-2.33,-1.61 -8.35,-3.99 -8.39,-4.01 -1.69,-1 -0.15,-0.62 -2.19,-1.76l-5.32 -2.66c-7.95,-3.65 -7.17,-3.01 -16.1,-3.01 -3.93,0 -4.85,0.83 -7.26,2.28 -2.42,1.45 -4.84,1.62 -5.97,4.26 -1.24,2.86 2.09,7.82 3.86,10.16 6.42,8.42 0.03,0.72 6.83,7.83 2.37,2.49 9.36,7.29 12.74,7.51 3.09,0.2 6.82,0.89 9.58,0.89zm0.63 269.45c0,-2.96 1.82,-6.99 2.48,-10.42 0.58,-2.97 0.9,-2.69 1.71,-5.1 0.57,-1.68 0.55,-3.22 1.02,-5.24 0.45,-1.94 1.09,-2.96 1.59,-5.07 1.71,-7.35 2.04,-5.76 3.05,-9.47l3.24 -9.76c1.44,-4.27 8.4,-18.21 10.64,-21.6l5.2 -7.21c1.38,-2.12 1.16,-2.11 2.8,-3.98 10.8,-12.36 11.12,-11.91 23.95,-20.71 3.41,-2.34 4.92,-2.67 8.58,-4.41 0.64,-0.3 1.67,-0.75 2.3,-1.09 5.82,-3.04 3.79,-1.15 6.96,-2.64 9.26,-4.36 22.83,-4.29 33.21,-4.29 10.31,0 23.44,5.56 29.22,13.94l6.12 10.22 5.86 20.69 0 15.83c0,1.32 -1.38,4.44 -1.85,6.04 -2.04,7.02 0.3,4.43 -5.05,16.99 -0.92,2.16 -1.02,3.64 -2.15,5.72 -4.48,8.3 -7.42,15.46 -13.31,24.02 -7.3,10.61 -7.29,11.22 -15.86,20.87l-2.1 1.85c-5.87,5.41 -2.62,4.27 -9.26,9.38 -1.69,1.3 -2.31,2.28 -3.8,3.57l-12.74 9.9c-2.45,1.85 -6.26,3.58 -9.13,5.53 -1.96,1.33 -3.08,1.49 -5.15,2.74l-15.78 6.34c-2.64,0.79 -2.22,1.38 -5.15,2.17l-11.5 3.24c-4.32,1.03 -3.63,2.72 -7.81,1.25 0.51,-2.12 0.17,-2.58 1.4,-4.36 2.62,-3.79 2.97,-6.74 5.31,-12.25 1.52,-3.61 0.98,-6.56 1.99,-9.84 1.68,-5.47 1.04,-3.91 0.87,-9.49 -0.12,-3.85 0.25,-8.11 -0.02,-11.9 -0.24,-3.27 -1.26,-6.85 -1.59,-9.79 -0.67,-5.91 -0.71,-4.61 -2.66,-9.31 -3.71,-8.96 -14.57,-2.17 -18.97,2.29 -5.09,5.14 -1.17,0.41 -6.88,7.25 -1.56,1.88 -0.18,1.34 -3.67,1.34 -0.56,-1.83 -0.69,-3.73 -1.59,-5.72 -1.63,-3.58 -1.48,-2.62 -1.48,-7.52zm-189.63 -98.93c0,-5.06 0.67,-12.44 1.77,-16.56 3.06,-11.46 -1.14,-10.72 8.15,-28.02 4.3,-8.01 5.15,-8.69 11.11,-16.03 5.21,-6.41 7.64,-8.31 13.5,-13.64 4.35,-3.97 10.86,-7.84 15.97,-11.16 7.87,-5.11 7.13,-3.43 12.01,-6.09 4.09,-2.24 10.3,-3.79 13.11,-4.95 4.77,-1.95 17.54,-3.59 23.51,-3.84 14.58,-0.6 33.85,0.55 47.13,6.24l9.99 3.62c5.07,1.34 4.22,1.15 9.48,4.06 1.67,0.93 3.86,1.79 5.69,2.75 8,4.17 15.58,9.21 21.64,14.55 1.29,1.13 0.63,0.76 2.5,2 4.79,3.18 15.86,16.37 19.09,21.6 8.57,13.9 5.58,8.4 12.82,23.38 0.75,1.55 0.85,1.24 1.49,3.04l5.38 17.32c-0.13,1.51 -0.82,2.34 -1.59,3.1 -1.54,1.52 -1.29,0.9 -2.76,1.8 -3.9,2.38 -5.32,5.36 -6.79,6.72 -5.76,5.34 -13.82,16.92 -17.09,23.6 -1,2.04 -2.23,3.95 -3.27,5.82l-8.28 18.87 -7.78 28.48c-0.54,2.99 -0.18,4.3 -1.23,7.07 -7.38,0 -8.53,0.06 -12.57,4.46 -2.16,2.34 -4.96,7.24 -6.15,10.25 -6.5,16.56 -5.74,24.92 -5.74,42.5 0,6.52 3.06,7.79 1.76,14.65l-2.11 0.13c-3.45,0.11 -26.88,-3.89 -30.33,-4.81 -1.91,-0.52 -2.36,-1.2 -4.98,-1.64 -9.36,-1.61 -32.88,-10.07 -40.54,-13.8 -8.16,-3.98 -9.35,-4.13 -18.07,-9.12 -3.06,-1.75 -13.05,-8.1 -16.25,-10.88l-3.68 -3.09c-1.29,-1.21 -2.22,-1.68 -3.72,-3.06 -9.2,-8.54 -15.23,-15.17 -21.85,-25.64 -3.25,-5.15 -1.47,-3.98 -1.03,-4.34 1.73,-1.03 10.22,0.27 15.22,-2.06 4.31,-2 8.38,-2.38 12.02,-4.91 3.38,-2.37 7.94,-4.06 10.56,-6.99 1.14,-1.27 1,-1.11 2.27,-2.24 0.86,-0.78 1.22,-1.08 1.91,-2.06 3.24,-4.64 3.24,-2.89 2.4,-4.89 -1.33,0.74 -0.65,0.53 -1.45,1.24l-10.93 7.81c-4.73,3.03 -13.34,7.42 -18.89,8.24 -2.89,0.42 -1.66,0.35 -3.98,1.16 -8.83,3.08 -24.84,-7.85 -15.96,-22.8 2.24,-3.78 10.46,-9.6 14.67,-10.7 3.26,-0.85 3.7,-1.62 6.2,-2.4 2.35,-0.74 4.5,-0.77 6.82,-1.56 7.25,-2.46 12.54,0.58 13.85,-3.29l-8.97 -0.64c-6.63,-0.23 -25.24,5.95 -28.42,8.6 -10.59,8.83 -5.81,9.55 -11.28,9.31 -1.38,-3.83 -3.29,-13.44 -3.75,-18.18 -0.35,-3.64 -1.75,-5.41 -2.08,-9.18 -0.85,-9.88 -0.5,-23.79 -0.5,-33.8zm318.77 111.07c-0.83,-1.87 0.08,-2.57 0.08,-2.57 0.05,-0.1 1.41,-1.86 1.49,-1.97 2.92,-3.55 5.34,-8.03 7.77,-12 0.89,-1.46 2.05,-2.28 3.86,-2.96l12.06 -7.12c3.93,-2.73 7.27,-5.42 10.72,-9.07 5.33,-5.62 9.5,-12.97 12.51,-19.76 2.28,-5.13 3.6,-13.26 4.39,-15.93 0.5,-1.69 1.11,-2.82 1.37,-4.77 0.61,-4.53 1.15,-7.09 1.99,-11.03 0.7,-3.23 0.67,-8.92 0.72,-12.6 0.11,-8.1 1.71,-15.87 1.78,-23.7 0.02,-2.57 -0.03,-10.46 1.73,-11.55 2.26,-1.41 8.99,0.98 10.19,2.1 2.45,2.44 0.83,7.61 0.8,11.14 -0.09,8.25 -1.98,26.12 -2.76,35.01l-2.87 17.06c-2.64,6.96 -1.05,5.96 -2.73,10.34 -0.51,1.32 -0.92,2.88 -1.39,4.73 -1.74,6.85 -6.73,15.85 -10.8,21.99 -3.37,5.07 -9.79,13.19 -15.24,16.98 -1.86,1.3 -2.71,1.85 -4,2.79 -1.32,0.95 -2.44,1.75 -3.78,2.45 -6.87,3.61 -21.33,11.79 -27.89,10.44zm48.65 -69.37c-2.33,11.42 -6.16,17.39 -11.76,26.11 -2.52,3.91 -11.02,10.16 -15.24,13 -2.92,1.97 -2.37,2.39 -6.81,2.39 0.4,-2.21 1.97,-5.18 2.95,-7.39l6 -24.09c1.48,-12.63 1.59,-24.17 -2.59,-35.99 -3.67,-10.38 -6.72,-12.31 -11.85,-18.67 -4.41,-5.47 -7.8,-2.62 -7.69,-12.32 0.05,-5.41 -1.39,-24.57 -0.64,-28.03 3.04,-0.82 13.48,4.67 19.54,6.58l19.16 6.73c4.88,1.49 9.55,2.14 14.24,3.32 1.7,5.55 0.04,10.97 -0.07,17.03l-2.34 35.49c-0.4,3.85 -0.78,4.99 -1.59,8.07 -0.69,2.62 -0.71,4.85 -1.31,7.77zm41.94 -144.18c-2.22,-1.6 -3.21,-2.81 -5.39,-4.61 -4.73,-3.9 -3.22,-3.58 2.51,-11.68 5.99,-8.47 8.18,-2.68 10.9,-0.02 4.56,4.45 1.98,3.45 -1.45,8.89 -3.06,4.84 -3.27,5.81 -6.57,7.42zm27.99 -58.91c0.04,-2.46 0.48,-4.32 1.98,-5.92 2.11,1.44 4.74,3.15 3.83,4.88 -1.05,2 -1.32,-0.89 -5.81,1.04zm-243.85 11.51c-3.64,-0.08 -7.17,-0.95 -11.06,-1.45 -4.61,-0.6 -14.35,-3.23 -19.05,-5.09 -5.69,-2.26 -10.71,-5.32 -15.49,-8.82 -3.45,-2.52 -12.43,-11.37 -15.45,-15.06 -3.76,-4.6 -11.71,-17.16 -14.09,-23.16 -1.35,-3.41 -4.19,-10.15 -4.59,-13.66 -1.72,-15.12 -2.15,-5.45 -0.23,-21.11 0.64,-5.13 1.02,-4.62 3.1,-8.82 2.71,-5.46 6.67,-9.78 9.65,-15.25 3.95,-7.27 8.85,-18.15 12.81,-23.9 1.21,-1.75 3.42,-4.96 5,-6.89l12.67 -11.64c1.7,-1.03 2.21,-1.73 3.98,-2.25 5.95,-1.76 8.72,-2.29 15.11,0.14 4.54,1.74 9.47,8.97 11.07,13.25 0.96,2.57 3.16,5.8 4.01,8.51l7.18 17.06c7.17,10.61 20.7,-0.89 26.07,-3.18 4.68,-1.99 11.45,-6.49 15.72,-8.57l12.39 -4c5.44,0 10.85,0.18 15.33,3.85 7.12,5.82 11.46,13.97 13.88,22.96 2.13,7.91 3.81,17.84 3.81,26.32l-1.35 21.47c-0.36,2.99 -1.38,4.85 -1.73,7.92 -0.47,4.17 -1.09,4.22 -2.09,7.51 -2.9,9.59 -4.45,17.6 -13.45,25.57l-11.55 8.22c-4.58,2.48 -11.3,3.89 -13.99,5.21 -6.14,3 -17.61,3.87 -24.17,4.66 -5.78,0.69 -5.49,1.06 -11.61,1.06l-11.88 -0.86zm213.85 124.65c-5.71,0 -10.05,-0.71 -14.83,-1.89 -2.52,-0.63 -4.78,-0.51 -7.27,-0.84 -2.7,-0.36 -2.9,-1.31 -6.01,-1.89 -10.53,-1.95 -14.06,-3.98 -18.6,-5.03l-12.35 -3.52c-2.06,-0.73 -2.37,-1.52 -5.51,-2.32 -2.31,-0.59 -3.72,-1.53 -5.75,-2.23l-8.66 -3.22c-1.6,-0.73 -0.51,-0.65 -2.65,-1.32 -3.99,-1.25 -7.71,-2.2 -11.5,-4.28 -2.51,-1.38 -3.59,-1.34 -5.81,0.33 0.36,0.56 1.9,2.54 2.75,3.27 1.2,1.04 2.34,1.33 3,2.68 0.84,1.74 0.95,18.78 1.02,21.72l0.13 10.5c-2.42,0.67 -8.27,-1.85 -11.15,-2.37 -8.89,-1.61 -15.63,-1.69 -24.18,-1.69l-16.38 3.19c-2.45,0.83 -2.23,0.85 -4.86,1.39 -2.21,0.46 -6.86,2.63 -9.32,3.69 -2.8,1.21 -6.1,3.75 -9,3.93 -3.41,-3.09 -4.39,-11.14 -6.37,-15.59 -0.8,-1.79 -1.57,-3.04 -2.44,-4.97 -5.67,-12.56 -13.54,-25.39 -23.39,-35.37 -2.55,-2.58 -4.64,-4.63 -7.34,-7.36 -1.94,-1.96 -4.18,-3.03 -6.15,-5.18 -2.64,-2.89 -6.19,-4.89 -10.32,-7.72 -15.68,-10.72 -33.54,-17.09 -52.13,-21.4 -3.91,-0.9 -8.41,-1.11 -12.69,-2 -15.03,-3.15 -32.22,0.04 -46.29,3.67 -8.88,2.29 -17.23,6.49 -25.1,11.08 -1.98,1.15 -3.86,2.65 -5.74,3.89l-10.41 7.65c-4.83,4.23 -9.22,9.07 -13.08,14.04 -1.51,1.94 -6.42,9.46 -8,10.19 -0.48,-3.62 2.29,-10.19 3.83,-13.76l14 -31.81c1.08,-2.45 2.46,-3.65 3.52,-5.51 7.58,-13.28 16.22,-24.42 26.92,-35.26 1.75,-1.77 4.26,-4.38 4.08,-7 -3.1,-2.56 -8.22,3.61 -10.3,5.84 -1.26,1.35 -1.82,2.04 -3.6,2.66 -5.09,-3.07 -8.58,-6.84 -12.24,-10.96l-8.78 -13.84c-0.93,-1.92 -3.58,-5.47 -4.44,-6.88l-6.77 -15.8c-1.14,-2.49 -2.29,-5.94 -3.18,-8.14l-5.44 -17.1c-1.41,-6.04 -2.37,-13.12 -3.93,-18.74 -1.13,-4.07 -3.68,-26.14 -3.13,-30.48 0.58,-4.53 0.14,-6.55 2.7,-8.48 4.81,1.19 9.62,0.84 14.15,0.62 2.83,-0.14 4.96,0.2 7.82,-0.34 2.27,-0.42 3.56,-1.17 5.78,-1.65 13.16,-2.83 12.82,-3.5 21.19,-9.83 2.28,-1.72 3.33,-0.77 5.11,1.03 1.6,1.62 2.33,2.53 3.85,4.05 3.55,3.55 11.09,12.01 13.95,16.6 1.88,3.02 6.34,7.05 8.68,10.53l26.64 39.48c4.04,6.52 3.56,9.57 -1.7,15.43 -7.39,8.22 -13.81,11.26 -12.54,16.35 0.94,-0.47 4.77,-1.44 5.85,-1.37 1.66,2.97 2.67,9.58 2.79,13.5 0.17,5.09 1.58,9.72 2.15,14.25 0.64,5.2 1.71,8.34 3.46,13.08 1.57,4.26 3.57,6.58 6.19,10.2 3.34,4.62 6.01,5.14 10.13,8.53 1.75,1.45 14.39,7.11 22.02,8.42 2.21,0.38 4.89,0.35 7.14,0.69 11.62,1.73 6.92,1.26 19.69,1.26 2.04,0 7.35,-1.11 10.68,-1.34 10.04,-0.71 19.63,-3.14 29.35,-5.38 2.87,-0.66 6.56,-2.05 9.08,-2.91 8.6,-2.93 16.67,-5.73 25.03,-9.41 2.8,-1.24 5.86,-2.42 8.55,-3.27 2.37,-0.74 5.57,-2.58 8.21,-3.67l34.24 -12.13c2.68,-1.24 5.19,-2.69 8.89,-2 3.29,0.61 7.13,0.35 9.96,1.28 7.19,2.35 15.7,4.39 22.7,7.29 2.02,0.84 1.11,1.07 3.54,2.07 3.08,1.26 5.02,2.14 7.78,3.56l7.55 4.28c4.91,2.06 22.93,14.96 27.61,18.75 3.18,2.58 2.48,2.49 6.34,4.99 3.69,2.38 14.49,12.98 18.31,16.74 1.3,1.28 1.49,1.9 2.6,3.04 1.11,1.14 1.76,1.58 2.94,2.75 16.49,16.32 11.84,11.86 3.45,22.21 -2.15,2.66 -5.37,7.04 -7.13,10.42 -4.78,9.23 -7.13,16.22 -8.89,26.13zm-205.74 -301.33c1.15,-1.49 5.26,-2.43 7.16,-2.43 7.19,0 3.67,0.42 7.4,1.18 1.56,0.32 2.78,0.35 4.35,0.64 5.56,1.05 12.17,4.37 15.25,5.17 2.84,0.73 11.17,4.2 11.95,7.82 1.47,6.87 -15.33,16.23 -19.97,20 -1.89,1.54 -3.8,2.6 -6.28,3.9 -7.73,4.04 -14.5,8.25 -17.14,-4.42 -0.69,-3.31 -1.63,-4.67 -2.15,-8 -0.48,-3.07 -0.61,-5.85 -1.26,-8.75 -0.55,-2.45 -1.64,-5.21 -1.64,-7.95 0,-1.97 1.21,-5.71 2.33,-7.16zm86.28 18.2c-2.15,0 -12.75,-3.48 -14.74,-4.76 -11.48,-7.38 -3.1,-13.75 -0.87,-18.53 1.1,-2.35 8.67,-11.2 11.19,-13.11 1.98,-1.49 0.57,-0.51 2.01,-2.22l4.11 0c3.24,4.27 1.73,1.83 3.22,7.42 0.57,2.12 0.98,2.39 1.24,4.37 0.71,5.62 0.49,6.84 0.49,12.4 0,7.2 0.31,14.43 -6.65,14.43zm-95.19 -33.08c0.12,-5.15 7.36,-12.19 11.31,-16.08 6.6,-6.51 9.95,-11.03 16.67,-9.43 0.94,1.69 3.62,11.5 3.62,14.2 0,12.22 -3.11,13.67 -11.57,14.74 -4.86,0.62 -6.62,0.33 -10.99,-0.38 -3.66,-0.59 -6.77,-0.12 -9.04,-3.05zm-196.97 328.5l-0.28 2.62c0.08,6.65 -0.42,43.12 0.28,44.79 1.48,1.02 0.95,0.23 1.39,2.59 0.23,1.27 0.17,1.86 0.25,3.08 0.59,8.64 1.08,6.2 2.25,11.88 0.38,1.84 0.5,3.83 0.98,5.92l5.08 16.34c3.91,9.78 7.28,14.71 11.93,23.11 1.29,2.32 1.74,2.36 2.9,4.46 4.37,7.85 2.44,-1.36 5.09,15.22 1.06,6.64 3.19,10.77 5.43,16.08 2.46,5.86 3.41,8.23 7.74,13.19 2.51,2.88 3.72,4.83 6.65,7.44 7.2,6.4 7.36,7.53 16.12,12.17 5.33,2.82 13.9,6.22 20.54,6.95 -0.01,9.22 -9.35,20.31 -5.73,30.8 8.35,1.29 15.56,-2.83 21.19,-5.84 1.23,2.78 1.83,7.37 2.6,10.29 2.63,9.91 3.16,4.52 3.45,8.93l3.51 0c0,-2.49 0.12,-0.78 4.59,-3.83 5.88,-4.02 4.43,-1.88 12.04,-7.76 4.32,-3.35 9.54,-6.85 13.54,-10.76 3.1,-3.04 6.03,-5.69 8.85,-8.66 3.29,-3.47 5.66,-5.67 8.53,-9.01 2.32,-2.7 4.34,-7.99 10.97,-4.98 1.29,0.59 5.13,7.42 7.41,10.1 8.14,9.58 23.04,7.05 30.16,-0.09 1.28,-1.28 3.01,-2.9 4.67,-4.39 2.82,-2.52 9.84,-2.87 13.97,-3.56l19.84 -6.13c2.31,-1.11 3.91,-1.5 6.23,-2.82l23.29 -11.71c10.87,-6.7 25.11,-18.31 33.51,-27.57 7.62,-8.4 5.79,-7.23 13.17,-8.88 7,-1.57 10.19,-2.32 16.79,-5.24l11.92 -5.55c2.72,-1.29 8.01,-5.11 10.51,-7.04 4.04,-3.12 11.54,-11.15 15.02,-15.51 1.04,-1.3 0.79,-1.26 1.77,-2.72 10.99,-16.39 11.6,-26.27 16.31,-44.78l2.26 -24.31c2.35,-43.18 -3.27,-32.79 17.52,-31.84 4.87,0.22 26.55,-0.71 29.53,-4.19 2.78,-3.26 -1.3,-10.08 -2.58,-12.49 6.16,-1.1 25.69,5.77 20.03,-7.56 -0.87,-2.04 -1.66,-3.79 -2.5,-5.44l-6.4 -9.92c-7.1,-9.85 -11.43,-14.32 -18.32,-22.99 -1.86,-2.34 -2.49,-1.83 -4.86,-4.72l-3.25 -3.55c-1.34,-1.32 -0.37,-0.69 -2.07,-1.89 -4.28,-3 -1.59,-1.46 -4.1,-4.36 -2.74,-3.18 -2.8,-1.44 0.96,-7.82 1.25,-2.12 6.1,-7.76 8.23,-7.86l6.23 3.04c4.13,2.37 7.29,2.21 13.09,2.75 7.2,0.68 15.75,-1.31 21.18,-4.03 9.43,-4.72 17.83,-14.56 19.04,-24.6 0.72,-5.93 0.97,-4.22 2.06,-4.65l0 -10.09c-1.82,-0.67 -0.66,1.07 -1.64,-1.79 -0.94,-2.77 0.68,-2.46 -3.67,-13.3 -2.8,-7 -8.91,-12.68 -15.39,-16.8 -5.03,-3.18 -14.54,-5.68 -20.35,-5.27 -8.54,0.6 -13.41,1.36 -20.48,5.49 -8.38,4.88 -7.93,6.69 -10.71,9.68 -1.2,1.29 -1.98,1.57 -2.92,3.32 -1.56,2.92 -2.79,5.42 -4.25,8.73 -2.52,5.74 -2.53,17.69 -0.49,23.7 1.25,3.68 4.66,8.2 1.29,11.57 -1.8,1.78 0.4,-0.55 -0.88,0.83l-3.6 4.32c-6.17,8.59 -4.56,9.03 -15.47,0.21 -4.26,-3.44 -9.11,-5.88 -13.75,-9.38 -3.66,-2.76 -13.14,-7.39 -17.61,-9.53 -1.69,-0.81 -1.3,-0.82 -2.47,-1.5 -1.74,-1.03 -3.83,-1.12 -5.89,-2.02 -3.45,-1.5 -13.61,-5.76 -16.92,-6.24l-6.41 -1.54c-2.65,-0.78 -12.86,-1.33 -13.63,-1.67 -3.83,-1.69 -4.95,-5.59 -6.62,-9.15 -6.05,-12.85 -3.74,-26.52 -1.66,-39.74 0.43,-2.76 1.22,-4.28 1.68,-6.28l3.61 -19.61c0.52,-5.19 1.2,-8.66 1.72,-13.59 0.46,-4.28 -1.02,-10.95 1.33,-13.92 3.43,1.3 7.51,6.64 10.77,8.99 1.16,0.84 1.8,1.04 3.09,1.99l14.63 9.67c1.96,0.9 4.12,2.5 6.13,3.48 10.02,4.92 37.32,15.17 46.2,9.8 3.34,-2.02 3.36,-1.8 4.33,-5.88 1.74,-7.33 -2.36,-16.33 -4.72,-22.6 -1.61,-4.25 -4.77,-9.05 -7.26,-12.56 -1.66,-2.35 -1.73,-3.53 -3.93,-5.65 -6.1,-5.89 -11.36,-13.33 -18.71,-18 -4.6,-2.91 -8.79,-5.92 -13.72,-8.32 -6.93,-3.37 -13.66,-5.51 -21.53,-7.32 -7.27,-1.67 -14.38,-5.28 -21.64,-7.16l-6.48 -2.65c-1.44,-4.25 -0.29,-16.71 -0.9,-22.63 -0.57,-5.47 -0.16,-5.54 -1.84,-10.72 -1.6,-4.95 -3.57,-11.03 -9.47,-7.29 -5.71,3.62 -17.38,16.75 -19.41,23.43 -4.57,-0.06 -2.52,-0.54 -5.49,-2.1 -10.26,-5.38 -8.56,-6.84 -23.87,-12.39 -2.99,-1.08 -8.34,-1.53 -10.38,-3.8 -1.76,-2.93 1.21,-23.02 -4.71,-26.3 -4.7,-2.6 -11.76,4.39 -14.94,7.34 -1.64,1.52 -2.53,1.74 -4.17,3.17l-10.78 11.31c-1.87,1.55 -2.75,1.82 -5.56,0.15l-4.75 -3.18c-3.2,-1.86 -5.07,-5.78 -7.33,-8.53l-18.11 -28.21c-1.57,-2.14 -1.77,-2.91 -3.02,-4.9 -4.13,-6.55 -8.75,-12.01 -13.55,-17.55 -2.9,-3.34 -4.22,-4.34 -7.73,-7.52 -5.02,-4.56 -4.29,-3.48 -8.87,-6.95 -1.35,-1.02 -2.98,-2.13 -4.91,-3.03 -2.55,-1.19 -3.65,-0.74 -4.3,-3.3l-9.66 0c-0.34,2.53 -2.73,3.86 -3.64,7.28 -2.96,11.09 -3.5,16.75 -1.98,28.74 0.35,2.74 1.36,5.43 1.89,8.84 0.52,3.3 1.65,4.87 2.26,7.85 1.44,7.18 4.6,12.07 7.64,18.35l3.67 6.45c3.17,4.9 8.61,9.16 12.84,13.17 7.38,7.01 16.02,8.71 19.74,10.74 1.92,1.04 0.92,1.42 4.21,1.74 1.52,0.15 3.45,0.1 4.61,-0.84 -2.21,-1.73 -3.6,-0.39 -9.04,-3.46l-5.46 -2.99c-5.42,-2.62 -9.56,-6.6 -14.02,-10.33 -1.44,-1.2 -0.82,-0.55 -2.05,-1.85l-7.31 -8.53c-6.85,-8.1 -10.1,-19.2 -11.83,-29.56 -0.45,-2.69 -1.32,-3.81 -1.74,-6.07l-0.88 -11.09c-0.51,-5.47 4.28,-4.07 7.7,-1.91 2.46,1.55 4.45,2.1 6.19,3.37l10.61 8.61c4.86,4.34 12.8,15.24 17.34,21.1l8.19 11.04c3.74,6.35 15.32,16.91 14.15,24.22 -0.4,2.48 -2.52,4.49 -4.01,5.76 -3,2.56 -1.9,3.4 -6.38,3.4 1.76,2.45 5.59,1.21 1.94,5.11 -1.87,2.01 -3.26,2.91 -4.81,5.38 -1.65,2.61 -2.66,3.97 -4.27,5.91 -4.02,4.86 -4.96,7.79 -7.75,12.04 -4,6.08 -6.52,13.03 -10.29,19.12l-3.53 6.63c-0.97,1.99 -2.09,4.57 -3.2,6.4 -1.04,1.73 -0.86,1.09 -1.81,3.3 -3.38,7.83 -10.17,12.78 -12.68,21.73 -0.67,2.38 -1.93,5.82 -2.22,7.89 -0.46,3.18 0.41,5.94 -0.66,9.06 -2,0.08 -4,-3.65 -5.35,-5.35 -0.84,-1.06 -1.77,-2.07 -2.48,-3.2l-32.66 -40.78c-4.58,-6.19 -22.83,-24.95 -28.22,-28.35 -4.39,-2.77 -9.92,-9.56 -14.57,-3.34 -2.16,2.9 -1.67,4.13 -2.67,7.86 -4.3,-1.37 -6.15,-6.34 -9.36,-6.88 -2.46,-0.42 -4.11,1.27 -5.28,2.61 -1.97,2.27 -1.51,2.43 -2.92,4.96 -1.42,2.56 -2.3,5.95 -2.98,8.92 -3.36,14.57 -4.64,31.67 -2.43,46.49 0.72,4.85 0.43,9.57 1.31,14.48 1.55,8.64 2.69,17.32 5.51,25.6 1.38,4.04 2.45,8.06 3.82,12.02 2.07,5.96 6.07,16.83 9.32,21.77l5.79 10.03c4.55,7.89 11.09,15.27 17.44,21.56 3.11,3.08 5.11,4.02 1.56,7.98 -0.78,0.87 -1.58,1.98 -2.2,2.87 -1.53,2.15 -2.82,3.84 -4.68,6.04 -3.1,3.69 -6.09,8.92 -8.49,13.01 -4.4,7.49 -14.18,26.93 -17.5,35.62l-10.95 37.77c-0.23,1.22 -0.31,2.88 -0.61,4.4l-2.04 13.78c-0.01,0.03 -0.45,2.18 -0.5,2.28 -0.65,1.49 0.23,0.42 -1.02,1.33z"/>
 </g>
</svg>
