<?xml version="1.0" encoding="UTF-8"?>
<!DOCTYPE svg PUBLIC "-//W3C//DTD SVG 1.1//EN" "http://www.w3.org/Graphics/SVG/1.1/DTD/svg11.dtd">
<!-- Creator: CorelDRAW 2017 -->
<svg xmlns="http://www.w3.org/2000/svg" xml:space="preserve" width="21.1666mm" height="23.6218mm" version="1.1" style="shape-rendering:geometricPrecision; text-rendering:geometricPrecision; image-rendering:optimizeQuality; fill-rule:evenodd; clip-rule:evenodd"
viewBox="0 0 2116.66 2362.18"
 xmlns:xlink="http://www.w3.org/1999/xlink">
 <defs>
  <style type="text/css">
   <![CDATA[
    .fil0 {fill:none}
    .fil8 {fill:#050102}
    .fil3 {fill:#1D2226}
    .fil6 {fill:#3E4650}
    .fil4 {fill:#52111D}
    .fil5 {fill:#985F56}
    .fil7 {fill:#BC8667}
    .fil2 {fill:#D5B389}
    .fil1 {fill:#ED744A}
    .fil9 {fill:#F0E4AC}
   ]]>
  </style>
 </defs>
 <g id="Capa_x0020_1">
  <metadata id="CorelCorpID_0Corel-Layer"/>
  <rect class="fil0" y="-0.01" width="2116.66" height="2362.19"/>
  <g id="_1978046876752">
   <g>
    <path class="fil1" d="M1170.65 1241.07c-18.17,-0.64 -35.38,-14.05 -20.47,-29.94 10.66,-11.36 30.64,-10.77 47.89,-9.63 -5,5.84 -13.7,8.05 -19.4,14.21 -5.52,5.95 -5.64,16.67 -8.02,25.36zm105.08 -77.69c5.32,-27.2 36.91,-23.28 51.59,-18.21 3.35,29.43 -30.1,17.97 -51.59,18.21zm-59.36 -28.19c12.54,29.14 -20.04,40.35 -39.36,50.88 -17.97,9.8 -45.11,20.33 -61.71,30.6 1.4,32.29 14,37.95 31.14,52.2 -2.32,33.39 10.01,30.01 36.87,38.54 17.99,5.73 40.71,20.32 56.62,7.35 0.74,-11.63 -6.17,-13.62 -9.36,-21.07 24.33,-1.97 49.62,-0.09 73.13,-2.64 25.39,-2.75 39.54,-9.6 40.67,-36.14 -0.9,-3.68 -7.7,-5.65 -13.27,-15.96l5.22 -7.14c2.41,-3 2.65,-3.57 5.62,-6.38 7.85,-7.44 16.09,-10.35 25.45,-20.38 18.73,-20.09 -9.9,-25.28 -20.13,-31.95 5.07,-8.67 15.67,-18.8 10.19,-33.9 -4.8,-13.21 -15.92,-16.28 -24.29,-23.96 12.9,-39.4 -18.63,-34.07 -49.46,-29.85 -24.62,3.37 -55.7,6.68 -62,28.51 27.66,11.07 35.42,-4.93 64.09,-2.43 -9.4,8.22 -53.27,26.55 -69.42,23.72z"/>
    <path class="fil1" d="M358.42 807.79l-10.81 12.09c3.2,2.25 1.59,-0.11 4.55,4.35l11.91 45.87c-17.4,6.48 -42.34,8.09 -28.59,54.59 5.43,18.36 5.39,18.46 4.32,38.99 -0.83,16.02 5.36,23.01 12.4,34.08 12.25,19.24 0.35,18.33 3.61,32.43 2.44,10.59 13.64,17.05 26.09,19.5 17.35,3.43 57.88,-1.23 24.89,-34.21l14.27 -5.5 -0.55 -22.38c16.92,0.66 19.4,0.72 35.45,-1.33l-3.56 -20.54c-7.31,-7.85 -21.58,-42.56 -14.9,-56.6 2.59,-5.45 16.66,-12.8 26.16,-10.54 8.31,1.98 11.23,13.52 13.35,24.72l4.96 4.06c-1.38,-15.83 4.92,-16.78 -2.85,-32.59 -3.97,-8.07 -11.46,-19.25 -12.81,-28.91l-28.69 -6.42c5.94,21.71 10.66,5.02 19.17,20.36 -3.02,4.36 -0.2,2.19 -5.49,5.26 -1,0.57 -4.83,1.81 -5.84,1.97 -13.83,2.17 -24.82,-9.23 -28.03,-24.19 -4.91,-22.8 8.72,-39.05 15.14,-54.83 -9.67,-3.33 -2.86,-2.47 -16.46,-13.86 -20.58,-17.25 -30.9,-6.89 -32.5,19.93 -2.8,-0.57 -24.39,-5.83 -25.19,-6.3z"/>
   </g>
   <g>
    <path class="fil2" d="M441.15 1286.66l18.01 -1.24c12.31,24.57 44.61,41.81 72.36,47.26 12.2,2.4 41.15,6.58 54.29,5.62 22.43,-1.64 32.88,-4.31 56.43,-0.88 37.22,5.42 67.69,8.29 102.62,17.29 14.61,3.77 86.21,23.64 99.25,15.53 -0.78,-10.69 -11.43,-3.01 -14.04,-26.78 24,0.64 44.23,6.35 65.65,9.67 48.86,7.57 158.94,16.2 206.46,16.58 24.64,0.2 48.5,-0.2 71.74,-1.34 24.35,-1.19 46.44,-5.06 67.79,-6.03 28.42,-1.29 81.69,0.48 104.63,-7.08 19.35,-6.37 1.76,-10.71 27.36,-11.15l17.54 -35.32c-22.07,5.9 -45.49,9.69 -67.56,15.62 -53.83,14.46 -153.52,31.64 -205.45,35.42 -95.87,6.97 -201.06,-10.35 -293.18,-29.53 -21.83,-4.54 -44.39,-11.31 -65.46,-16.17 -23.41,-5.4 -40.87,-15.57 -60.35,-19.46 -22.08,-4.42 -44.34,-11.02 -66.3,-15.6 -16.61,-3.46 -49.47,-9.7 -64.39,-15.19l-55.88 -25.82c-27.29,-12.59 -155.48,-74.24 -164.94,-75.59 7.26,23.26 81.62,117.35 93.42,124.19z"/>
    <path class="fil2" d="M516.36 1478.36c-8.12,2.2 -18.75,17.91 -22.38,25.94l83.75 -12.25c29.04,-1.06 59.97,1.64 87.96,5.87 25.41,3.84 52.77,9.77 75,18.9 22.94,9.42 41.58,20.35 64.05,29.7 95.84,39.86 158.99,73.92 204.2,170.88l56.92 130.56c7.91,23.74 13.43,49.37 20.37,73.45 8.09,28.06 14.69,47.23 8.84,78.6 -2.41,12.9 -5.28,25.61 -7.03,38.97l-14.22 79.33c-2.27,7.13 -4.97,10.98 -7.35,16.68 -10.77,25.77 14.9,2.08 -43.95,73.7 -11.69,14.24 -5.71,11.84 -23.45,22.46 -16.43,9.83 -9.17,11.23 -29.78,16.48 5.72,4.72 35.51,8.77 44.83,8.59 12.23,1.54 18.15,2.42 25.12,-4.88 3.76,-3.94 9.53,-11.77 13.36,-16.56 31.83,-39.77 41.84,-80.16 52.58,-130.93 10.46,-49.41 2.12,-65.73 0.54,-112.72 -1.32,-39.34 -1.46,-85.02 0.49,-124.26 -8.49,-57.09 -72.02,-175.39 -99.15,-216.25 -27.58,-11.06 -48.28,-70.66 -77.4,-91.44 -14.15,-10.11 -101.13,-40.6 -122.99,-44.46 -46.67,-8.25 -89.27,-23.42 -137.63,-30.09 -33.06,-4.55 -123.98,-17.64 -152.68,-6.27z"/>
    <path class="fil2" d="M1692.48 1193.05c8.04,-0.03 14.27,10.75 24.48,12.67 12.9,2.96 16.52,-7.33 32.76,-25.1l43.82 -47.96c8.4,-8.36 10.36,-3.77 17.85,-14.03 19.23,-26.34 10.36,-7.45 31.39,-30.55 10.35,-11.37 24.14,-18.54 32.76,-28.97 10.7,-12.93 15.71,-21.13 29.13,-32.76 13.19,-11.45 16.42,-19.59 27.46,-34.33 6.89,-9.19 23.9,-23.17 21.53,-38.22 -0.73,-4.04 -10.58,-17.4 -14.1,-19.98 -28.08,-20.54 -117.6,74.77 -137.22,93.87 -15.85,15.43 -108.79,136.93 -109.86,165.36z"/>
    <path class="fil2" d="M737.65 213.04c-12.49,9.79 -4.12,6.95 -9.84,18.86l-1.97 12.59c60.26,0.7 160.74,-20.95 218.87,-48.32 2.26,-1.06 4.12,-1.54 6.68,-3.5 9.75,-7.47 3.07,-13.78 10.83,-19.16 1.13,-7.17 -1.56,-6.37 8.37,-7.08l8.88 40.45c9.14,-5.19 18.55,-8.05 27.76,-12.96 10.55,-5.63 12.05,-10.51 23.38,-16.55 18.85,-10.04 32.89,-21.35 50.77,-29.79 0.36,-4.94 0.01,-10.99 0.8,-15.59 0.21,-1.2 1.21,-4.75 2.08,-6.08 2.57,-3.98 1.41,-2.33 4.98,-4.83l5.85 -23.26c-28.94,-3.66 -98.06,38.8 -130.18,50.54 -43.18,15.78 -26.6,0.99 -91.16,30.44 -30.07,13.71 -64.88,21.35 -87.89,31.69 -14.74,6.61 -28.22,14.29 -47.27,9.55 -1.67,-4.58 -0.81,0.24 -0.94,-7z"/>
    <path class="fil2" d="M688.46 717.21c9.7,-10.56 16.73,-28.68 2.96,-39.12 -0.29,0.39 -0.81,0.46 -0.9,1.14 -0.42,2.87 -2.6,-3.54 -2.4,16.99 0.07,7.01 -0.07,14 0.34,20.99z"/>
    <path class="fil2" d="M1138.4 887.99c11.74,-7.2 11.99,-15.05 9.97,-31.72 -13.61,7.22 -11.24,13.25 -9.97,31.72z"/>
   </g>
   <g>
    <path class="fil3" d="M1747.97 1709.65c5.36,22.16 20.77,35.35 24.67,41.68 7.29,11.83 20.92,69.84 22.76,84.88 14.81,120.77 -4.95,172.43 -80.69,256.93 -11.64,12.98 -72.53,83.58 -88.95,82.13 32.75,-0.95 116.74,-71.33 131.14,-87.68 30.4,-34.51 74.14,-83.79 97.67,-123.66 31.54,-53.45 40.28,-100.12 49.69,-171.82 5.67,-43.12 11.09,-113.63 4.64,-158.23l-8.73 -47.18c1.58,34.12 5.45,47.28 -10.06,63.51 -39.81,41.67 -48.31,77.49 -142.14,59.44z"/>
    <path class="fil3" d="M1891.43 932.48c12.73,-7.21 19.73,-39.09 59.8,-16.39 -3.74,-8.49 -130.47,-116.87 -157,-139.97 -9.52,-8.28 -19.03,-11.62 -18.92,-27.98l-21.87 19.3c-11.62,18 17.43,42.16 0.81,68.42 -6.06,9.57 -14.66,13.26 -21.98,20.01 14.65,12.86 95.14,69.1 116.2,79.3 21.81,10.58 24.92,-6.87 45.92,-11.64l-2.96 8.95z"/>
    <path class="fil3" d="M1334.18 128.79c-39.23,0.82 -72.66,-5.79 -110.3,-6.04 -29.85,-0.2 -89.63,3.02 -116.1,-1.53l-1.28 -7.21c-6.57,8.03 -8.63,18.79 -3.9,29.58 11.6,6.3 33,0.78 47.73,7.66 15.49,7.25 18.29,15.89 26.06,32 16.21,2.41 89.97,4.63 102.56,-0.29 4.65,-1.82 50.55,-44.09 55.23,-54.17z"/>
    <path class="fil3" d="M1574.24 1520c-5.88,-33.88 -16.94,-61.27 -8.02,-95.89 -26.72,2.78 -57.31,-7.93 -62.18,21.02 -1.28,7.59 3.74,64.98 12.75,68.41 6.44,-14.84 -1.42,-16.56 -4.89,-29.78 29.71,5.74 37.6,32.33 62.34,36.24z"/>
    <path class="fil3" d="M1586.71 1390.75c-0.6,-15.83 2.19,-41.06 5.59,-56.68 1.76,-8.1 4.39,-15.1 7.53,-22.3 5.19,-11.9 4.78,-11.21 17.95,-12.28 -8.31,-7.26 -35.04,-8.08 -46.92,-5.21 -14.4,9.12 -31.42,91.3 -34.6,114.37l48.21 -2.11c-3.97,-13.37 -21.73,-9.66 -30.65,-26.73 16.53,-0.18 17.82,6.53 32.89,10.94z"/>
    <path class="fil3" d="M1637.01 1268.1c-3.57,-26.8 0.7,-18.88 9.34,-37.24 2.46,-5.23 4.62,-11.05 6.48,-17.4 3.4,-11.57 1.21,-11.38 12.79,-12 -4.99,-12.29 -9.64,-14.62 -26.28,-15.87 -5.91,16.37 -53.89,61.51 -56.22,94.9l49.7 4.01c0,0 -1.62,3.37 5.95,-2.25 -5.69,-6.55 -19.93,-14.98 -22.55,-23.8l20.79 9.65z"/>
   </g>
   <g>
    <path class="fil4" d="M235.65 1921.3l4.67 2.32c8.64,4.68 6.74,5.32 12.61,9.31l-0.85 14.92 8.31 -12.93c2.41,-5.24 4.4,-10.18 6.41,-15.48 31.84,-83.94 37.37,-121.54 86.95,-214.29 28.89,-54.04 91.75,-147.65 134.79,-196.49 4.67,-5.3 0.89,-3.51 5.44,-4.36 3.63,-8.03 14.26,-23.74 22.38,-25.94 4.09,-13.52 12.8,-17.86 20.07,-27.38 19.53,-25.56 36.14,-32.38 16.19,-53.21 -18.61,-19.43 -76.1,-65.24 -92.51,-84.97 -4.95,-5.96 -14.7,-18.13 -18.96,-26.14 -11.8,-6.84 -86.16,-100.93 -93.42,-124.19 -15.88,-17.13 -28.87,-46.44 -40.84,-73.45 -12.81,-28.91 -17.13,-62.33 -16.64,-97.48 0.88,-62.31 24.93,-121.16 57.36,-171.66l10.81 -12.09c3.25,-9.67 18.33,-29.27 23.92,-35.76l27.84 -29.95c9.97,-10.76 20.67,-19.19 30.14,-29.74 13.89,-15.48 44.6,-40.92 62.21,-55.45 20.95,-17.29 84,-60.99 96.93,-77.17 -7.81,0.86 -16.03,0.42 -19.72,-5.17 -16.82,2.66 -66.39,40.08 -81.28,52.33 -4.33,3.56 -7.93,6.42 -12.17,9.78l-35.69 30.13c-8.26,8.14 -12.94,15.13 -20.88,23l-16.7 15.21c-11.93,8.31 -5.59,9.26 -26.19,29.66 -7.43,7.35 -14.28,15.51 -20.44,23.45 -6.33,8.14 -13.7,15.59 -20.24,23.64 -77.65,95.63 -113.75,213.38 -55.53,329.5 4.95,9.89 9.12,18.99 15.08,28.81 5.95,9.81 11.36,18.19 16.73,27.15 42.06,70.29 65.55,103.83 121.26,163.99l53.83 55.87c5.03,4.98 5.95,6.57 10.17,11.77 13.42,16.53 15.88,10.14 -8.55,42.76l-95.49 123.93c-4.23,6.09 -4.95,10.55 -8.69,17.24 -29.03,51.87 -39.97,62.07 -71.77,125.71 -22.92,45.85 -56.47,123.54 -72.22,173.15 -3.11,9.81 -9.35,29.45 -10.2,39.67l-5.12 0z"/>
    <path class="fil4" d="M1195.05 1037.43c6.78,-5.14 24.02,-5.03 34.69,-12.03 10.16,-6.67 13.31,-18.7 27.02,-18.98 -6.22,12.54 -9.78,19.89 -21.8,26.16 -9.15,4.76 -29.5,9.47 -39.91,4.85zm114.29 -51.86c-20.57,10.51 -16.12,-10.62 -17.47,-23.96l-67.87 -34.03c-2.32,-0.59 -22.98,-3.8 -24.1,-6.84 -0.29,-0.76 -1.01,-0.66 -1.5,-1.01 -1.53,6.37 1.62,5.69 -8.27,6.74 -2.77,0.29 -6.67,-0.89 -9.31,-1.44l-0.76 10c-20.72,0 -47.07,-3.76 -67.25,-8 -13.04,-2.74 -15.99,-6.96 -26.08,-11.82 -24.34,-11.73 -8.96,-9.54 -20.99,-16.96 6.08,36.26 16.62,65.15 34.05,91.71 49.71,75.69 147.1,119.23 193.23,44.86 9,-14.52 12.3,-30.38 16.32,-49.25z"/>
    <path class="fil4" d="M131.09 2068.93c19.96,-5.69 54.35,23.65 61.36,34.4 11.66,17.88 5.88,42.03 -7.18,51.74 -7.62,5.66 -9.94,3.98 -20.28,1.67 3.23,4.87 -5.01,3.98 5.98,3.98 -2.1,25.3 -45.86,48.6 -45.86,77.81 9.64,5.1 12.59,7.88 24.15,11.76 48.66,16.34 113.57,14.18 165.29,14.18 11.55,0 23.96,0.84 35.05,-0.84 11.72,-1.78 24.95,-2.15 34.73,0.84 -5.57,-5.49 -3.88,-2.82 -6.18,-9.98l2.4 -1.78c18.52,-11.5 45.42,-18.16 67.84,-12.45 22.52,5.74 47.03,15.42 71.9,16.79 -4.11,-10.48 -22.12,-15.77 -32.41,-22.37 -16.49,-10.6 -18.39,-11.62 -41.36,-7.67 -55,9.45 -273.05,23.66 -304.2,5.54 4.45,-12.08 25.99,-30.22 34.4,-40.13 11.11,-13.09 22.51,-26.49 33.33,-40.51 37.18,-48.2 22.58,-35.78 -29.98,-78.14l-29.16 -24.72c-3.98,-3.63 -5.93,-6.49 -9.88,-9.97 -6.71,-5.91 -12.9,-10.46 -19.26,-16.71l-36.26 -37.53c-15.68,-15.9 -42.44,-41.7 -51.89,-61.33l98.5 11.4 10.34 0.82c-4.3,-11.05 -8.69,-8.3 -10.81,-24.41 -9.25,-7.57 -105.65,-7.98 -130.17,-7.98 0,12.82 3.34,19.31 8.31,27.6 12.7,21.21 57.83,73.52 74.96,88.61l28.9 26.95c11.44,11.44 15.61,12.2 17.44,22.43z"/>
    <path class="fil4" d="M501.55 826.37c2.44,29.26 -68.53,22.59 -39.44,-6.9 12.19,4.61 6.95,6.11 13.92,12.08l25.52 -5.18zm-68.98 -18.35c-6.42,15.78 -20.05,32.03 -15.14,54.83 3.21,14.96 14.2,26.36 28.03,24.19 1.01,-0.16 4.84,-1.4 5.84,-1.97 5.29,-3.07 2.47,-0.9 5.49,-5.26 -8.51,-15.34 -13.23,1.35 -19.17,-20.36l28.69 6.42c37.74,1.47 70.43,-14.6 103.55,-23.99 27.89,-7.91 76.86,-27.84 83.51,-47.11l-7.57 -0.75c-10.49,-18.63 19.5,-13.31 23.48,-54.57 -10.64,4.69 -14.89,8.43 -20.36,16.02 -30.29,42.05 -29.01,30.85 -63.84,19.36 0.42,-0.43 1.06,-0.85 1.35,-1.2l3.89 -6.22c0.19,-1.04 0.42,-1.32 0.59,-1.99 -5.66,-1.01 -3.48,1.27 -4.16,-2.98 -13.41,2.65 -8.19,7.69 -28.86,8.06 -9.56,0.18 -21.75,1.11 -29.12,-4.32l-23.4 5.36 6.11 -12.26c-13.11,2.73 -22.28,-9.44 -25.74,-19.62 -9.32,6.21 -19.93,21.08 -27.7,32.36 -7.12,10.34 -18.18,28.37 -25.47,36z"/>
    <path class="fil4" d="M1109.94 1867.9c3.37,19.08 11.88,41.7 19.16,56.43 8.39,16.95 10.15,39.25 18.35,54.63 36.32,1.62 78.66,-5.32 114.51,-9.24 38.01,-4.15 76.2,-8.1 114.96,-7.88 -11.14,33.35 -149.69,130.19 -165.63,150.75 20.7,-0.48 18.67,-4.62 32.83,-13.37 9.47,-5.84 19.26,-11.14 29.24,-16.66 12.83,-7.1 16.26,-12.44 30.11,-11.59 13.97,0.86 32.13,1.63 45.99,1.95 -2.62,-6.24 1.24,-3.32 -9.83,-4.27l-40.02 0.29c2.42,-2.11 -1,0.52 3.28,-2.7l27.13 -22.73c21.73,-21.88 70.91,-65.89 73.28,-94.28 -9.72,-2.26 -14.11,-5.02 -25.95,-5.96 -44.84,-3.54 -30.94,0.08 -59.78,0 -41.16,-0.11 -95.35,11.95 -151.57,11.95 -4.06,-17.45 -12.65,-35.75 -18.71,-53.1l-13.87 -39.92c-0.48,-1.27 -1.69,-4.41 -2.5,-5.49 -4.82,-6.46 -0.53,-2.5 -6.78,-5.24 5.25,14.41 -0.69,18.32 -14.2,16.43z"/>
    <path class="fil4" d="M639.58 422.45c13.97,-3.01 15.17,-5.96 16.12,7.41l4.03 -4.74c13.25,-19.37 29.4,-110.6 49.71,-143.83 8.46,-13.84 3.86,-32.86 18.37,-49.39 5.72,-11.91 -2.65,-9.07 9.84,-18.86 -1.24,-16.1 18.89,-61.13 24.77,-78.23 8.41,-24.43 16.7,-56.42 32.46,-71.24 29.03,-27.3 119.39,-32.92 168.26,-38.87 -3.01,-7.6 -5.19,-8.06 -3.7,-16.78 -48.78,0 -120.16,13.07 -153.71,28.58 -34.22,15.82 -47.32,44.15 -59.25,78.38 -4.25,12.23 -7.1,22.74 -11.48,34.41 -8.06,21.5 -16.81,44.36 -24.4,67.36 -14.41,43.67 -29.91,95.63 -46.54,136.99 -5.97,14.86 -22.16,55.16 -24.48,68.81z"/>
    <path class="fil4" d="M1014.12 2256.22c-9.32,0.18 -39.11,-3.87 -44.83,-8.59 -26.71,4.43 -52.49,-4.8 -77.49,-10.13 -11.71,-2.49 -24.74,-5.39 -37.02,-6.13 -22.53,-1.36 -22.28,0.41 -28.05,18.65 35.39,-6.47 107.17,5.03 138.71,17.65 7.96,3.18 6.37,4.8 9.28,11.05 0.28,0.61 0.65,1.31 0.89,1.82 0.25,0.53 0.54,1.31 0.96,1.88 1.44,-3.45 0.83,-5.69 15.04,-3.29 25.66,4.34 94.03,7.75 122.84,10.99 39.61,4.45 110.44,-5.56 133.31,-17.67 -6.14,-26.37 -24.56,-47.45 -27.92,-61.85l13.95 0c-8.18,-6.66 -16.03,-4.56 -21.86,-3.95 -10.22,1.07 -14.96,-0.28 -24.78,-0.52 6.61,17.46 37.7,45.21 37.87,59.31 -38.9,4.18 -185.73,10.78 -210.9,-9.22z"/>
    <path class="fil4" d="M1891.43 932.48c-7.23,7.11 -21.08,16.69 -31.3,23.32l-25.08 17.25c-6.18,3.36 -5.31,4.42 -7.04,0.54 -13.09,4.36 -16.34,11.58 -24.5,21.35 -7.04,8.43 -14.3,14.65 -21.28,22.61 -0.38,0.44 -1.53,1.64 -1.91,2.08l-87.79 129.63c-5.7,9.54 -12.98,18.61 -17.49,27.83 3.66,4.17 4.77,4.06 8.21,7.06l7.79 7.61c0.36,0.34 0.93,0.9 1.44,1.29 1.07,-28.43 94.01,-149.93 109.86,-165.36 19.62,-19.1 109.14,-114.41 137.22,-93.87 3.52,2.58 13.37,15.94 14.1,19.98l10.15 4.02c2.04,-10.3 4.71,-12.23 13.14,-16.35l-25.72 -25.38c-40.07,-22.7 -47.07,9.18 -59.8,16.39z"/>
    <path class="fil4" d="M1516.16 1969.18l-0.63 -9.24 14.86 2.21c-3.44,-9.3 -7.41,-10.03 -13.42,-16.91 -4.51,-5.16 -8.42,-11.35 -12.49,-17.26 -6.73,-10.09 -27.57,-26.22 -30.67,-43.38 -3.62,-19.99 14.09,-38.22 23.05,-47.2 12.51,-12.55 23.31,-23.49 36.03,-35.84 11.83,-11.5 27.07,-32.71 36.24,-33.9 4.28,-11.77 2.72,-9.95 11.34,-16.29 6.22,-4.58 10.56,-6.68 12.56,-15.49l-24.23 4.19c-2.05,-2.51 -2.26,1.17 -2.11,-6.32 -29.24,16.05 -79.27,85.5 -94.96,112.37 -14.67,25.14 -46.72,23.69 15.9,98.53 7.53,8.99 17.43,20.2 28.53,24.53z"/>
    <path class="fil4" d="M504.42 1782.88c-10.2,5.8 -19.06,17.69 -36.02,14.66 -15.25,-2.72 -16.49,-17.6 -16.55,-34.76 -15.67,15.4 -32.12,92.86 -18.18,124.83 30.21,4.1 37.02,-14.97 46.97,-37.57 8.84,-20.09 19.44,-44.47 23.78,-67.16z"/>
    <path class="fil4" d="M784.68 1813.57l-4.17 7.63c-0.27,0.56 -3.5,6.06 -3.57,6.13 -5.43,4.46 -46.29,-1.56 -46.95,-3.06 -0.32,-0.71 -1.15,-0.43 -2.02,-0.79l2.23 -11.29c-10.03,7.59 -11.28,49.56 -11.72,65.21 -0.54,19.42 7.5,53.72 26.18,51.13 26.85,-3.72 37.66,-82.82 40.02,-114.96z"/>
    <path class="fil4" d="M570.04 2310.36c5.87,3.04 17.09,5.08 25,8.65l75.7 31.99c16.98,5.24 33.95,11.79 49.78,13.23l11.83 0c11.36,-1.18 21.91,-6.13 31.18,-17.56l7.65 -12.36c-8.39,-1.28 -5.6,-8.01 -5.7,-16.58 -19.82,11.57 -15.75,33.79 -46.73,25.21 -38.7,-10.72 -76.39,-26.47 -111.73,-43.89 -14.85,-7.33 -37.76,-21.12 -53.44,-25 7.74,14.8 19.32,14.77 16.46,36.31z"/>
    <path class="fil4" d="M1492.7 2144.76c4.82,11.1 -15.45,39.39 -21.83,47.66 -18.89,24.49 -29.58,21.41 -41.67,25.56l-5.26 2.6 15.25 0c-3.12,4.65 -7.48,9.21 -11.42,14.51 -20.19,27.17 -20.95,29.79 -18.49,59.31 8.66,0 8.51,1.37 14.26,1.72 6.77,0.41 7.43,-1.2 13.65,-1.72 1.26,-1.51 1.65,-4.92 2,-5.96l-12.3 1.85 3.05 -8.13 -4.8 -1.73c1.98,-7.22 12.28,-22.35 16.68,-29.29 7.06,-11.11 10.48,-16.9 20.18,-24.25 2.67,-13.25 39.96,-61.13 49.06,-74.07 11.85,-16.86 41.17,-54.95 48.62,-75.8 -8.13,0.02 -14.98,3.02 -15.66,-4.09 -6.57,1.37 -5.76,1.99 -9.07,6.12 -4.24,5.29 -22.04,39.64 -42.25,65.71z"/>
    <path class="fil4" d="M962.22 173.51c-2.42,37.48 -3.76,15.13 2.97,43.22 4.52,18.86 10.2,126.45 15.95,135.98 1.14,-11.54 -2.25,-21.76 -0.08,-35.12 2,-12.35 5.63,-17.37 10.44,-26.72l-12.03 -83.99 -8.88 -40.45c-9.93,0.71 -7.24,-0.09 -8.37,7.08z"/>
    <path class="fil4" d="M903.17 523.31c17.19,1.06 29.83,1.29 47.68,5.22 14.9,3.28 31.3,8.45 46.55,10.24 -5,-10.35 -5.84,-13.59 2.28,-23.46 -32.51,-0.84 -76.18,-15.53 -104.44,-0.22 1.36,1.52 1.91,1.86 3.62,3.62 0.28,0.29 0.77,0.77 1.03,1.05l2.17 2.32c0.18,-0.36 0.76,0.8 1.11,1.23z"/>
    <path class="fil4" d="M1042.11 1496.44c-4.33,-18.05 6.44,-25.11 11.9,-36.14 -22.83,2.42 -93.54,4.92 -108.7,10.7 14.82,6.6 57.79,6.22 75.29,13.09 9.76,3.83 12.78,8.37 21.51,12.35z"/>
    <path class="fil4" d="M1884.91 1218.49c9.89,-0.11 10.77,4.17 10.59,14.28 8.44,-4.17 25.37,-27.08 32.75,-37.19 9.66,-13.25 24.25,-22.92 27.35,-44.51 -16.51,-0.28 -22.8,13.05 -37.06,30.84 -5.09,6.36 -10.88,11.39 -16.14,17.74l-14.59 15.26c-2.25,2.59 -1.01,1.15 -2.9,3.58z"/>
    <path class="fil4" d="M452.4 965.73c-4.18,-22.6 3.05,-45 24.61,-42.42 -2.12,-11.2 -5.04,-22.74 -13.35,-24.72 -9.5,-2.26 -23.57,5.09 -26.16,10.54 -6.68,14.04 7.59,48.75 14.9,56.6z"/>
    <path class="fil4" d="M1156.58 2164.16c-1.62,-9.01 2.07,-16.44 3.53,-25.71 -10.82,-5.3 -15.53,-10.91 -24.17,-19.44 -11.33,-11.18 -6.34,-12.15 -25.7,-17.42 3.36,20.36 35.16,55.53 46.34,62.57z"/>
    <path class="fil4" d="M1379.37 506.7c11.44,-3.9 3.78,-0.9 6.69,-0.32 3.32,7.04 0.9,8.13 -0.9,16.7l34.4 -14.53c-4.22,-4.58 -1.87,1.78 -2.93,-7.79 -0.25,-2.26 0.22,-9.2 0.24,-12 -8.6,0.2 -30.51,6.81 -37.5,17.94z"/>
    <path class="fil4" d="M1593.03 1735.88c7.69,0.56 27.61,12.97 28.88,-2.26 0.67,-8.05 -8,-14.18 -14.28,-16.98l0.21 8.28c-9.86,4.43 -9.44,4.87 -14.81,10.96z"/>
   </g>
   <g>
    <path class="fil5" d="M1742.56 1230.21c4.53,11.15 26.84,27.47 35.05,37.26 11.31,13.51 22.01,27.82 31.65,39.81 7.42,-3.74 70.42,-79.04 75.65,-88.79 1.89,-2.43 0.65,-0.99 2.9,-3.58l14.59 -15.26c5.26,-6.35 11.05,-11.38 16.14,-17.74 14.26,-17.79 20.55,-31.12 37.06,-30.84 -3.1,21.59 -17.69,31.26 -27.35,44.51 -7.38,10.11 -24.31,33.02 -32.75,37.19 -3.35,6.69 -11.75,16.31 -16.8,22.98 -10.04,13.28 -24.48,26.42 -36.99,42.79 -6.33,8.27 -10.84,13.1 -20.36,17.46 2.18,12.19 38.39,76.97 44.57,82.41 18.55,-10.73 60.39,-65.73 75.12,-73.17 -7.64,23.49 -47.3,71.52 -65.26,87.29 2.07,28.21 26.7,70.58 33.33,100.59 11.97,-7.73 17.39,-14.78 27.67,-23.66l40.08 -35.73c5.85,-4.72 6.39,-5.26 12.54,-11.39 4.62,-4.62 8.25,-6.67 13.12,-10.9 42.47,-36.96 75.4,-70.95 63.91,-149.94 -7.91,-54.37 -19,-111.26 -32.19,-163 -9.94,-38.96 -34.64,-122.4 -58.34,-137.6l-0.37 12.95c-18.8,8.63 -20.11,15.43 -31.93,27.53 -9.11,9.33 -18.09,22.11 -26.81,31.06l-27.37 32.49c-28.93,40.3 -26.63,31.02 -55.57,62.11l-29.98 27.81c-28.89,24.54 -39.58,56.76 -61.31,55.36z"/>
    <path class="fil5" d="M1607.63 1716.64c6.28,2.8 14.95,8.93 14.28,16.98 -1.27,15.23 -21.19,2.82 -28.88,2.26 -2,8.81 -6.34,10.91 -12.56,15.49 -8.62,6.34 -7.06,4.52 -11.34,16.29 9.92,-2.88 19.21,5.47 35.46,6.35 0.77,20.37 -37.02,69.16 -44.76,78.34 -20.22,23.99 -36.06,44.75 -47.39,74.5l-7.96 1.13c4.07,5.91 7.98,12.1 12.49,17.26 6.01,6.88 9.98,7.61 13.42,16.91 14.21,4.32 33.6,31.67 44.28,43.07 10.42,11.11 33.84,27.58 35.54,49.6 -10.75,-3.63 -18.12,-11.85 -29.37,-14.33l-16.01 32.43c9.97,-2.08 18.35,-0.56 25.91,3.95 11.24,26.97 -43.13,79.53 -51.93,87.75 -7.67,7.15 -72.33,62.78 -76.81,62.27 -9.7,7.35 -13.12,13.14 -20.18,24.25 -4.4,6.94 -14.7,22.07 -16.68,29.29l4.8 1.73c43.1,-10.83 105.37,-68.95 140.34,-98 15.15,-12.58 24.84,-25.22 40.55,-39.22l36.81 -43.02c48.93,-63.92 37.63,-68.86 16.57,-106.52 -5.1,-9.12 -9.06,-17.38 -13.69,-26.16 -12.93,-24.5 -29.1,-23.48 0.6,-43.38l60.53 -47.16c32.28,-26.38 22.92,-16.84 2.74,-100.99 -2.29,-9.56 -6.06,-20.95 -7.85,-30.38 -3.22,-16.93 3.24,-17.52 8.93,-26.62 4.93,-7.89 -1.63,-15.42 -6.62,-23.32 -14.99,-23.73 -61.16,-85.97 -80.23,-99.62 -10.6,5.63 -8.24,12.48 -25.53,14.81l11.24 -30.46c-11.37,-12.44 -49.39,-55 -69.46,-60.02 -10.78,8.71 -28.5,29.26 -30.81,50.8 -6.06,56.73 84.65,107.26 93.57,143.74z"/>
   </g>
   <g>
    <path class="fil6" d="M1637.01 1268.1c10.55,6.61 20.01,13.95 31.54,20.68 10.74,6.27 25.49,11.35 27.05,23.13 -25.64,-1.67 -50.33,-14.13 -77.82,-12.42 -13.17,1.07 -12.76,0.38 -17.95,12.28 -3.14,7.2 -5.77,14.2 -7.53,22.3 -3.4,15.62 -6.19,40.85 -5.59,56.68 14.73,4.61 29.1,13.47 31.3,26.98l-51.79 6.38c-8.92,34.62 2.14,62.01 8.02,95.89 5.46,4.9 20.41,12.15 27.88,16.85 8.59,5.39 19.5,13.5 26.36,19.47 19.12,16.62 28.82,26.08 45.1,46.66l74.39 106.67c93.83,18.05 102.33,-17.77 142.14,-59.44 15.51,-16.23 11.64,-29.39 10.06,-63.51 -3.42,-59.95 -58.36,-182.36 -84.63,-225.49 -19.2,-31.52 -66.97,-97.09 -95.25,-120.16l-32.25 -25.65c-7.95,-5.95 -14.65,-8.89 -22.42,-13.94 -11.58,0.62 -9.39,0.43 -12.79,12 -1.86,6.35 -4.02,12.17 -6.48,17.4 -8.64,18.36 -12.91,10.44 -9.34,37.24z"/>
    <path class="fil6" d="M1106.5 114.01l1.28 7.21c26.47,4.55 86.25,1.33 116.1,1.53 37.64,0.25 71.07,6.86 110.3,6.04 4.32,-1.89 8.15,-8.09 11.85,-12.55 23.29,-28.03 77.37,-62.91 88.9,-104.52 -36.99,0.29 -194.83,47.63 -210.32,66.03 3.1,6.25 6.6,9.55 9.3,16.57 -41.07,-7.4 -85.46,-59.52 -122.8,-59.52 5.67,53.14 -4.84,50.86 -4.61,79.21z"/>
    <path class="fil6" d="M1775.31 748.14c-0.11,16.36 9.4,19.7 18.92,27.98 26.53,23.1 153.26,131.48 157,139.97l25.72 25.38c24.56,-3.08 94.3,-2.91 112.39,-13.77 -4.44,-5.37 -13.34,-9.17 -19.87,-12.12l-72.27 -29.48c-113.33,-43.02 -79.79,-33.98 -147.65,-119.61 -13.54,-17.09 -48.06,-64.82 -61.58,-71.8 -1.78,20.34 -1.9,39.32 -12.66,53.45z"/>
   </g>
   <g>
    <path class="fil7" d="M516.36 1478.36c28.7,-11.37 119.62,1.72 152.68,6.27 48.36,6.67 90.96,21.84 137.63,30.09 21.86,3.86 108.84,34.35 122.99,44.46 29.12,20.78 49.82,80.38 77.4,91.44 -5.7,-21.93 -14.46,-24.83 -15.28,-53.28 49.74,-11.21 51.37,-12.21 86.35,-35 -3.1,-26.19 -35.24,-53.11 -36.02,-65.9 -8.73,-3.98 -11.75,-8.52 -21.51,-12.35 -17.5,-6.87 -60.47,-6.49 -75.29,-13.09 15.16,-5.78 85.87,-8.28 108.7,-10.7 70.15,1.95 216.86,-10.02 270.52,-56.8 11.02,-9.6 43.98,-46.38 49.17,-59.39 -25.6,0.44 -8.01,4.78 -27.36,11.15 -22.94,7.56 -76.21,5.79 -104.63,7.08 -21.35,0.97 -43.44,4.84 -67.79,6.03 -23.24,1.14 -47.1,1.54 -71.74,1.34 -47.52,-0.38 -157.6,-9.01 -206.46,-16.58 -21.42,-3.32 -41.65,-9.03 -65.65,-9.67 2.61,23.77 13.26,16.09 14.04,26.78 -13.04,8.11 -84.64,-11.76 -99.25,-15.53 -34.93,-9 -65.4,-11.87 -102.62,-17.29 -23.55,-3.43 -34,-0.76 -56.43,0.88 -13.14,0.96 -42.09,-3.22 -54.29,-5.62 -27.75,-5.45 -60.05,-22.69 -72.36,-47.26l-18.01 1.24c4.26,8.01 14.01,20.18 18.96,26.14 16.41,19.73 73.9,65.54 92.51,84.97 19.95,20.83 3.34,27.65 -16.19,53.21 -7.27,9.52 -15.98,13.86 -20.07,27.38z"/>
    <path class="fil7" d="M727.81 231.9c-14.51,16.53 -9.91,35.55 -18.37,49.39 -20.31,33.23 -36.46,124.46 -49.71,143.83l-4.03 4.74c-2.58,39.35 -25.52,72.83 -28.68,115.22 17.75,-3.9 24.23,-13.51 46.88,-15.7 -2.69,19.48 -9.39,10.04 -16.8,23.29 10.96,-1.02 32.31,-10.05 57.16,-15.18 53.73,-11.1 102.66,-22.61 158.16,-19.56 12.7,0.7 19.38,4.4 30.75,5.38 -0.35,-0.43 -0.93,-1.59 -1.11,-1.23l-2.17 -2.32c-0.26,-0.28 -0.75,-0.76 -1.03,-1.05 -1.71,-1.76 -2.26,-2.1 -3.62,-3.62 28.26,-15.31 71.93,-0.62 104.44,0.22 -5.95,-20.87 -21.38,-143.29 -18.54,-162.6 -5.75,-9.53 -11.43,-117.12 -15.95,-135.98 -6.73,-28.09 -5.39,-5.74 -2.97,-43.22 -7.76,5.38 -1.08,11.69 -10.83,19.16 -2.56,1.96 -4.42,2.44 -6.68,3.5 -58.13,27.37 -158.61,49.02 -218.87,48.32l1.97 -12.59z"/>
    <path class="fil7" d="M1211.95 618.28c6.95,12.85 16.55,17.26 29,26.92 10.44,8.1 19.39,15.97 30.71,25.12 26.87,21.72 71.89,53.72 88.51,81.09 6.85,11.27 11.2,24.38 18.96,36.83 9.57,15.34 21.54,38.42 27.21,56.62 2.39,7.64 1.95,20.08 5.06,24.37l-0.78 -7.71 15.51 -3.37 13.08 37.6c9.52,-4.92 13.71,-10.72 21.93,-17.86l106.39 -93.13c7.66,-7.73 15.17,-9.91 23.05,-16.85 10.17,-8.97 13.65,-11.24 31.13,-12.74 -3.91,12.04 -8.79,8.28 -11.09,20.89 12.32,11.69 85.06,62.82 105.87,63.69 6.09,0.25 11.86,-0.81 16.37,-3.3 24.49,-13.5 10.5,-32.42 6.51,-41.44 -15.26,-34.55 13.47,-31.96 20.69,-56.85 -8.18,1.69 -6.41,-1.57 -22.01,-13.69 -41.68,-32.39 -30.02,-21.75 -84.51,-28.92 -46.29,-6.1 -110.47,-43.73 -162.08,-65.52 -9.74,-4.11 -19.08,-5.74 -27.98,-9.87 -29.49,-13.66 -104.82,-52.67 -120.65,-69.69l2.49 -7.53 -130.6 61.04c3.78,5.98 7.92,8.2 10.91,14.95l-13.68 -0.65z"/>
    <path class="fil7" d="M1014.12 2256.22c25.17,20 172,13.4 210.9,9.22 -0.17,-14.1 -31.26,-41.85 -37.87,-59.31 -6.12,-7.7 -27.09,-33.63 -30.57,-41.97 -11.18,-7.04 -42.98,-42.21 -46.34,-62.57 19.36,5.27 14.37,6.24 25.7,17.42 8.64,8.53 13.35,14.14 24.17,19.44 21.94,-1.49 31.37,-18.61 51.18,-25.86 15.94,-20.56 154.49,-117.4 165.63,-150.75 -38.76,-0.22 -76.95,3.73 -114.96,7.88 -35.85,3.92 -78.19,10.86 -114.51,9.24 -8.2,-15.38 -9.96,-37.68 -18.35,-54.63 -7.28,-14.73 -15.79,-37.35 -19.16,-56.43l-3.73 -1.03c-1.95,39.24 -1.81,84.92 -0.49,124.26 1.58,46.99 9.92,63.31 -0.54,112.72 -10.74,50.77 -20.75,91.16 -52.58,130.93 -3.83,4.79 -9.6,12.62 -13.36,16.56 -6.97,7.3 -12.89,6.42 -25.12,4.88z"/>
    <path class="fil7" d="M979.47 206.88l12.03 83.99c9.51,-1.53 100,-70.92 120.43,-85.69 19.47,-14.07 20.08,-17.6 50.18,-20.11 -4.69,-15.75 -20.38,-25.09 -41.92,-25.74 -31.9,-0.96 -31.98,-6.49 -30.95,-38.25 -3.57,2.5 -2.41,0.85 -4.98,4.83 -0.87,1.33 -1.87,4.88 -2.08,6.08 -0.79,4.6 -0.44,10.65 -0.8,15.59 -17.88,8.44 -31.92,19.75 -50.77,29.79 -11.33,6.04 -12.83,10.92 -23.38,16.55 -9.21,4.91 -18.62,7.77 -27.76,12.96z"/>
    <path class="fil7" d="M1716.96 1205.72c2.84,7.46 18.77,21.72 25.6,24.49 21.73,1.4 32.42,-30.82 61.31,-55.36l29.98 -27.81c28.94,-31.09 26.64,-21.81 55.57,-62.11l27.37 -32.49c8.72,-8.95 17.7,-21.73 26.81,-31.06 11.82,-12.1 13.13,-18.9 31.93,-27.53l0.37 -12.95 -12.09 -23.08 -10.15 -4.02c2.37,15.05 -14.64,29.03 -21.53,38.22 -11.04,14.74 -14.27,22.88 -27.46,34.33 -13.42,11.63 -18.43,19.83 -29.13,32.76 -8.62,10.43 -22.41,17.6 -32.76,28.97 -21.03,23.1 -12.16,4.21 -31.39,30.55 -7.49,10.26 -9.45,5.67 -17.85,14.03l-43.82 47.96c-16.24,17.77 -19.86,28.06 -32.76,25.1z"/>
    <path class="fil7" d="M1504.48 1927.98l7.96 -1.13c11.33,-29.75 27.17,-50.51 47.39,-74.5 7.74,-9.18 45.53,-57.97 44.76,-78.34 -16.25,-0.88 -25.54,-9.23 -35.46,-6.35 -9.17,1.19 -24.41,22.4 -36.24,33.9 -12.72,12.35 -23.52,23.29 -36.03,35.84 -8.96,8.98 -26.67,27.21 -23.05,47.2 3.1,17.16 23.94,33.29 30.67,43.38z"/>
    <path class="fil7" d="M1559.68 2077.02c-7.45,20.85 -36.77,58.94 -48.62,75.8 -9.1,12.94 -46.39,60.82 -49.06,74.07 4.48,0.51 69.14,-55.12 76.81,-62.27 8.8,-8.22 63.17,-60.78 51.93,-87.75 -7.56,-4.51 -15.94,-6.03 -25.91,-3.95 -3.6,1.18 -2.61,1.19 -5.15,4.1z"/>
    <path class="fil7" d="M227.22 1999.43c-0.75,-15.48 8.13,-51.28 5.57,-58.34l-90.33 -5.36 -10.34 -0.82c4.72,4.02 6.09,4.14 10.7,8.58 20.1,19.34 57.71,51.13 84.4,55.94z"/>
   </g>
   <g>
    <path class="fil8" d="M1678.47 2096.88l0 0zm0 0c3.75,-16.08 29.72,-52.8 23.2,-83.06 -3,-13.93 -40.39,-58.09 -37.15,-70.57 5.11,-7.64 12.7,-12.05 20.23,-17.67 14.45,-10.8 56.96,-44.23 63.03,-56.64 15.19,-31.12 -21.45,-98.21 -21.45,-131.2 19.29,10.22 35.01,66.21 40.62,85.06 23.46,78.98 3.54,184.87 -54.04,244.69 -7.67,7.96 -24.19,26.65 -34.44,29.39zm-12.85 -895.42c7.77,5.05 14.47,7.99 22.42,13.94l32.25 25.65c28.28,23.07 76.05,88.64 95.25,120.16 26.27,43.13 81.21,165.54 84.63,225.49l8.73 47.18c6.45,44.6 1.03,115.11 -4.64,158.23 -9.41,71.7 -18.15,118.37 -49.69,171.82 -23.53,39.87 -67.27,89.15 -97.67,123.66 -14.4,16.35 -98.39,86.73 -131.14,87.68 16.42,1.45 77.31,-69.15 88.95,-82.13 75.74,-84.5 95.5,-136.16 80.69,-256.93 -1.84,-15.04 -15.47,-73.05 -22.76,-84.88 -3.9,-6.33 -19.31,-19.52 -24.67,-41.68l-74.39 -106.67c-16.28,-20.58 -25.98,-30.04 -45.1,-46.66 -6.86,-5.97 -17.77,-14.08 -26.36,-19.47 -7.47,-4.7 -22.42,-11.95 -27.88,-16.85 -24.74,-3.91 -32.63,-30.5 -62.34,-36.24 3.47,13.22 11.33,14.94 4.89,29.78 -9.01,-3.43 -14.03,-60.82 -12.75,-68.41 4.87,-28.95 35.46,-18.24 62.18,-21.02l51.79 -6.38c-2.2,-13.51 -16.57,-22.37 -31.3,-26.98 -15.07,-4.41 -16.36,-11.12 -32.89,-10.94 8.92,17.07 26.68,13.36 30.65,26.73l-48.21 2.11c3.18,-23.07 20.2,-105.25 34.6,-114.37 11.88,-2.87 38.61,-2.05 46.92,5.21 27.49,-1.71 52.18,10.75 77.82,12.42 -1.56,-11.78 -16.31,-16.86 -27.05,-23.13 -11.53,-6.73 -20.99,-14.07 -31.54,-20.68l-20.79 -9.65c2.62,8.82 16.86,17.25 22.55,23.8 -7.57,5.62 -5.95,2.25 -5.95,2.25l-49.7 -4.01c2.33,-33.39 50.31,-78.53 56.22,-94.9 16.64,1.25 21.29,3.58 26.28,15.87zm-248.75 -712.7c-0.02,2.8 -0.49,9.74 -0.24,12 1.06,9.57 -1.29,3.21 2.93,7.79 36.27,-2.24 88.02,-41.75 130.77,-29.3 38.64,11.27 90.08,61.61 120.05,87.46 7.68,6.63 13.57,13.98 20.97,20.87 14.95,13.92 25.13,25.81 41.05,40.71 6.17,5.77 31.37,35.36 35.16,46.61 5.64,16.68 9.85,58.86 -7.5,63.26 -7.22,24.89 -35.95,22.3 -20.69,56.85 3.99,9.02 17.98,27.94 -6.51,41.44 -4.51,2.49 -10.28,3.55 -16.37,3.3 -20.81,-0.87 -93.55,-52 -105.87,-63.69 2.3,-12.61 7.18,-8.85 11.09,-20.89 -17.48,1.5 -20.96,3.77 -31.13,12.74 -7.88,6.94 -15.39,9.12 -23.05,16.85l-106.39 93.13c-8.22,7.14 -12.41,12.94 -21.93,17.86l-13.08 -37.6 -15.51 3.37 0.78 7.71c2.06,34.19 13.09,72.23 16.43,109.64 5.75,64.42 4.97,172.71 -9.53,235.13 -2.14,9.24 -25.51,92.59 -27.06,94.79l-17.54 35.32c-5.19,13.01 -38.15,49.79 -49.17,59.39 -53.66,46.78 -200.37,58.75 -270.52,56.8 -5.46,11.03 -16.23,18.09 -11.9,36.14 0.78,12.79 32.92,39.71 36.02,65.9 -34.98,22.79 -36.61,23.79 -86.35,35 0.82,28.45 9.58,31.35 15.28,53.28 27.13,40.86 90.66,159.16 99.15,216.25l3.73 1.03c13.51,1.89 19.45,-2.02 14.2,-16.43 4.41,-11.84 -12.31,-46.52 -17.93,-57.89 -8.65,-17.53 -17.13,-35.8 -24.83,-54.96 -3.89,-9.69 -6.01,-18.54 -10.4,-27.51l-38.58 -81.11c23.67,-35.36 95.53,-45.14 63.46,-97.41 -3.17,-5.17 -22.69,-33.14 -19.59,-36.27l135.89 -17.66c23.23,-3.82 40.41,-8.09 60.8,-14.98 49.47,-16.7 99.35,-61.33 125.73,-105.64 21.54,-36.21 29.43,-68.56 37.39,-118.22 3.57,-22.32 6.49,-45.38 8.75,-67.05 7.75,-74.17 8.74,-147.21 1.76,-222.61 -1.34,-14.56 0.35,-15.57 10.03,-24.97 6.93,-6.73 11.55,-12.47 19.34,-18.56l86.41 -87.12c11.03,-11.06 9.7,-15.64 30.36,-29.48 12.97,6.87 31.48,21.67 44.45,31.35 42.21,31.51 78.21,56.65 123.69,83.73 16.56,9.85 70.13,42.96 77.13,52.51 -2.4,8.99 -4.01,5.09 -8.34,11.52 -2.73,4.06 -1.54,0.45 -1.65,4.45 1.73,3.88 0.86,2.82 7.04,-0.54l25.08 -17.25c10.22,-6.63 24.07,-16.21 31.3,-23.32l2.96 -8.95c-21,4.77 -24.11,22.22 -45.92,11.64 -21.06,-10.2 -101.55,-66.44 -116.2,-79.3 7.32,-6.75 15.92,-10.44 21.98,-20.01 16.62,-26.26 -12.43,-50.42 -0.81,-68.42l21.87 -19.3c10.76,-14.13 10.88,-33.11 12.66,-53.45 13.52,6.98 48.04,54.71 61.58,71.8 67.86,85.63 34.32,76.59 147.65,119.61l72.27 29.48c6.53,2.95 15.43,6.75 19.87,12.12 -18.09,10.86 -87.83,10.69 -112.39,13.77 -8.43,4.12 -11.1,6.05 -13.14,16.35l12.09 23.08c23.7,15.2 48.4,98.64 58.34,137.6 13.19,51.74 24.28,108.63 32.19,163 11.49,78.99 -21.44,112.98 -63.91,149.94 -4.87,4.23 -8.5,6.28 -13.12,10.9 -6.15,6.13 -6.69,6.67 -12.54,11.39l-40.08 35.73c-10.28,8.88 -15.7,15.93 -27.67,23.66 -6.63,-30.01 -31.26,-72.38 -33.33,-100.59 17.96,-15.77 57.62,-63.8 65.26,-87.29 -14.73,7.44 -56.57,62.44 -75.12,73.17 -6.18,-5.44 -42.39,-70.22 -44.57,-82.41 9.52,-4.36 14.03,-9.19 20.36,-17.46 12.51,-16.37 26.95,-29.51 36.99,-42.79 5.05,-6.67 13.45,-16.29 16.8,-22.98 0.18,-10.11 -0.7,-14.39 -10.59,-14.28 -5.23,9.75 -68.23,85.05 -75.65,88.79 -9.64,-11.99 -20.34,-26.3 -31.65,-39.81 -8.21,-9.79 -30.52,-26.11 -35.05,-37.26 -6.83,-2.77 -22.76,-17.03 -25.6,-24.49 -10.21,-1.92 -16.44,-12.7 -24.48,-12.67 -0.51,-0.39 -1.08,-0.95 -1.44,-1.29l-7.79 -7.61c-3.44,-3 -4.55,-2.89 -8.21,-7.06 -16.06,-6.65 -23.99,-12.26 -38.14,-3.69 -6.1,3.7 -20.66,18.31 -25.64,24.23 -29.46,35.06 -37,61.21 -60.16,91.44 -10.07,13.13 -20.23,56.77 -24.59,75.15 -2.38,10.02 -7.56,32.44 -7.56,44.32 -2.95,0.68 -18.12,6.2 -20.3,7.61 -26.77,17.38 -0.78,98.78 3.24,117.21 7.85,36.08 -30.6,48.54 1.7,88.07 12.17,14.88 28.37,31.59 37.27,48.5 5.51,10.49 29.51,32.33 39.91,47.86 -5.82,3.89 -9.91,10.07 -14.08,15.96 -0.15,7.49 0.06,3.81 2.11,6.32l24.23 -4.19c5.37,-6.09 4.95,-6.53 14.81,-10.96l-0.21 -8.28c-8.92,-36.48 -99.63,-87.01 -93.57,-143.74 2.31,-21.54 20.03,-42.09 30.81,-50.8 20.07,5.02 58.09,47.58 69.46,60.02l-11.24 30.46c17.29,-2.33 14.93,-9.18 25.53,-14.81 19.07,13.65 65.24,75.89 80.23,99.62 4.99,7.9 11.55,15.43 6.62,23.32 -5.69,9.1 -12.15,9.69 -8.93,26.62 1.79,9.43 5.56,20.82 7.85,30.38 20.18,84.15 29.54,74.61 -2.74,100.99l-60.53 47.16c-29.7,19.9 -13.53,18.88 -0.6,43.38 4.63,8.78 8.59,17.04 13.69,26.16 21.06,37.66 32.36,42.6 -16.57,106.52l-36.81 43.02c-15.71,14 -25.4,26.64 -40.55,39.22 -34.97,29.05 -97.24,87.17 -140.34,98l-3.05 8.13 12.3 -1.85c20.92,1.81 35.57,-11.53 51.82,-23.99 88.13,-67.57 120.64,-42.95 188.3,-88.92l75.4 -64.22c4.72,-4.2 5.21,-5.07 10.66,-9.29l21.32 -18.57c51.64,-49.73 58.94,-69.94 92.03,-125.4 14.91,-24.98 20.96,-41.58 30.32,-69.42 18.45,-54.9 33.51,-147.68 28.56,-208.64 -3.84,-47.17 -15.84,-91.69 -19.84,-139.77 6.7,-10.02 16.62,-17.97 26.22,-25.64 5.2,-4.16 8.16,-8.41 13.36,-12.57 6.17,-4.93 8.08,-6.43 13.76,-12.17l51.76 -51.97c8.86,-7.4 17.56,-17.46 26.01,-25.84 6.73,-6.67 31.29,-36.3 32.37,-45.42 4.89,-40.91 5.85,-21.17 6.06,-73.84 0.08,-19.39 -7.05,-72.93 -9.9,-93.84 -7.18,-52.56 -21.06,-118.24 -41.93,-165.55 -10.72,-24.29 -23.65,-46.51 -35.95,-69.77 23.14,0 99.43,-15.07 115.65,-25.94 0,-20.02 -13.05,-27.52 -36.53,-39.26 -40.33,-20.16 -91.1,-39.74 -132.96,-56.51 -44.6,-17.86 -21.9,-6.24 -58.37,-55.32l-126.54 -156.71 -106.5 -102.93c-7.3,-5.91 -12.98,-10.95 -20.8,-17.1 -20.49,-16.12 -67.95,-51.19 -96.8,-54.83 -24.94,-3.14 -107.05,24.01 -119.8,33.75z"/>
    <path class="fil8" d="M452.4 965.73l3.56 20.54c11.14,20.02 18.1,43.71 28.64,64.57 19.73,39.01 28.88,37.24 51.58,28.79 34.95,-12.99 103.77,-51.28 129.46,-55.91 13.31,35.13 52.8,102.54 73.37,125.69 22.91,25.77 114.5,-22.49 151.5,-31.61 7.28,9.64 13.21,17.04 20.54,29.1 17.2,28.32 38.23,67.16 59.5,88.09 23.81,23.43 39.32,17.5 73.39,7.5 35.65,-10.46 47.3,-17.9 71.36,-25.82 16.6,-10.27 43.74,-20.8 61.71,-30.6 19.32,-10.53 51.9,-21.74 39.36,-50.88 -68.07,-23.97 -143.16,65.19 -217.87,71.2 -11.21,-11.6 -82.79,-124.43 -87.73,-126.58 -40.38,-2.04 -93.04,31.45 -135.62,36.98 -33.01,-37.2 -86.62,-128.09 -95.34,-135.62 -18.58,-16 -108.1,52.06 -155.81,67.62l-42.03 -121.42 -4.96 -4.06c-21.56,-2.58 -28.79,19.82 -24.61,42.42z"/>
    <path class="fil8" d="M1334.18 128.79c-4.68,10.08 -50.58,52.35 -55.23,54.17 -12.59,4.92 -86.35,2.7 -102.56,0.29 -7.77,-16.11 -10.57,-24.75 -26.06,-32 -14.73,-6.88 -36.13,-1.36 -47.73,-7.66 -4.73,-10.79 -2.67,-21.55 3.9,-29.58 -0.23,-28.35 10.28,-26.07 4.61,-79.21 37.34,0 81.73,52.12 122.8,59.52 -2.7,-7.02 -6.2,-10.32 -9.3,-16.57 15.49,-18.4 173.33,-65.74 210.32,-66.03 -11.53,41.61 -65.61,76.49 -88.9,104.52 -3.7,4.46 -7.53,10.66 -11.85,12.55zm70.89 -130.85l27.1 0c7.85,0.92 14.98,2.81 20.98,5.99 0,16.86 -5.49,26.95 -12.33,37.54 -22.74,35.14 -27.84,34 -44.35,55.39l-49.6 48.13c-32.57,27.23 -37.93,53.87 -85.24,60.36 -47.83,6.57 -54.84,-1.35 -93.56,-1.99 -8.15,-0.14 -19.3,-0.57 -24.32,1.76 -6.45,3.01 -0.42,-0.99 -6.35,5.62 -19.02,21.17 -35.12,35.02 -56.54,53.16 -25.86,21.89 -54.14,44.34 -82.36,63.25 1.9,3.96 6.08,32.06 7.56,38.32 3.09,13.01 6.15,23.39 9.19,36.7 2.93,12.78 5.61,26.15 7.03,38.86 9.06,81.5 -2.33,79.79 41.61,92.04 31.61,8.81 66.9,24.22 96.16,39.46 7.17,3.73 21.54,14.94 31.03,13.33 8.98,-1.52 48.29,-23.16 61.24,-28.69 6.28,-2.68 9.9,-5.05 16.04,-7.9l93.63 -40.01c7.48,-3.11 9.21,-5.6 17.38,-2.56 11.44,-3.9 3.78,-0.9 6.69,-0.32 3.32,7.04 0.9,8.13 -0.9,16.7l-39.84 19.86 -130.6 61.04c3.78,5.98 7.92,8.2 10.91,14.95l-13.68 -0.65c-25.63,-1.54 -80.28,-32.22 -105.35,-42.17 -35.8,-14.22 -74.16,-23.45 -109.2,-37.34 -5,-10.35 -5.84,-13.59 2.28,-23.46 -5.95,-20.87 -21.38,-143.29 -18.54,-162.6 1.14,-11.54 -2.25,-21.76 -0.08,-35.12 2,-12.35 5.63,-17.37 10.44,-26.72 9.51,-1.53 100,-70.92 120.43,-85.69 19.47,-14.07 20.08,-17.6 50.18,-20.11 -4.69,-15.75 -20.38,-25.09 -41.92,-25.74 -31.9,-0.96 -31.98,-6.49 -30.95,-38.25l5.85 -23.26c2.13,-14.25 5.35,-33.86 5.52,-48.07 0.25,-21.2 -8.92,-25.3 -28.95,-27.22 -35.58,-3.39 -73.18,-0.58 -108.52,2.17 -3.01,-7.6 -5.19,-8.06 -3.7,-16.78 89.33,0 129.91,-11.17 202.58,27.92 44.89,24.15 33.56,36.72 61.9,20.05 4.34,-2.55 8.13,-4.21 13.2,-6.74 10.12,-5.05 16.36,-8.03 27.45,-12.45 19.04,-7.59 37.92,-14.95 57.39,-20.38 19.79,-5.53 52.97,-15.65 83.11,-18.38z"/>
    <path class="fil8" d="M1198.28 885.55c12.88,2.21 26.69,12.28 23.46,30.21l-21.4 -18.53c-4.75,-5.34 -3.68,-1.45 -2.06,-11.68zm-59.88 2.44c-1.27,-18.47 -3.64,-24.5 9.97,-31.72 2.02,16.67 1.77,24.52 -9.97,31.72zm139.34 -44.22c8.67,5.76 23.32,26.28 29.34,40.43 9.49,22.3 9.63,35.67 4.3,59.97 -5.46,-9.7 -9.81,-37.96 -14.4,-51.68 -5.45,-16.26 -12.67,-33.84 -19.24,-48.72zm-26.9 19.35l-40.71 -64.35c10.08,4.57 21.38,16.08 28.5,24.27 10.07,11.6 14.89,17.57 12.21,40.08zm-137.06 -42.96c3.02,-25.91 21.9,-36.62 49.77,-27.79 -6.99,6.41 -18.84,4.42 -28.79,10.26 -8.8,5.18 -13.02,12.88 -20.98,17.53zm-48.04 78.09c12.03,7.42 -3.35,5.23 20.99,16.96 10.09,4.86 13.04,9.08 26.08,11.82 20.18,4.24 46.53,8 67.25,8l0.76 -10c-9.13,-3.85 -13.48,-7.45 -11.59,-20.05 17.94,0.39 19.07,6.92 29.17,14.75 0.49,0.35 1.21,0.25 1.5,1.01 1.12,3.04 21.78,6.25 24.1,6.84l67.87 34.03c1.35,13.34 -3.1,34.47 17.47,23.96 12.53,-4.32 27.12,-31.86 29.52,-52.7 13,-112.57 -168.32,-210.49 -229.03,-157.17 -32.06,28.16 -48.93,60.24 -44.09,122.55z"/>
    <path class="fil8" d="M1211.29 2112.59c-19.81,7.25 -29.24,24.37 -51.18,25.86 -1.46,9.27 -5.15,16.7 -3.53,25.71 3.48,8.34 24.45,34.27 30.57,41.97 9.82,0.24 14.56,1.59 24.78,0.52 5.83,-0.61 13.68,-2.71 21.86,3.95l67.24 8.55c6.05,0.78 15.96,0.92 23.95,1.98l76.4 1.52c11,-0.13 12.12,-2.07 22.56,-2.07l5.26 -2.6c12.09,-4.15 22.78,-1.07 41.67,-25.56 6.38,-8.27 26.65,-36.56 21.83,-47.66 -11.22,0 -37.44,7.71 -50.72,10.77 -30.82,7.11 -79.28,11.18 -112.46,11.18 -22.37,-0.01 -39.69,-2 -59.83,-2 4.85,-7.23 61.85,-41.69 84.06,-59.55 8.21,-6.61 18.55,-17.18 19.64,-30.23 -6.5,-3.12 -14.99,-5.46 -23.93,-2.01 -13.86,-0.32 -32.02,-1.09 -45.99,-1.95 -13.85,-0.85 -17.28,4.49 -30.11,11.59 -9.98,5.52 -19.77,10.82 -29.24,16.66 -14.16,8.75 -12.13,12.89 -32.83,13.37z"/>
    <path class="fil8" d="M688.46 717.21c-0.41,-6.99 -0.27,-13.98 -0.34,-20.99 -0.2,-20.53 1.98,-14.12 2.4,-16.99 0.09,-0.68 0.61,-0.75 0.9,-1.14 13.77,10.44 6.74,28.56 -2.96,39.12zm-202.72 22.45c3.46,10.18 12.63,22.35 25.74,19.62 8.66,-0.65 10.09,-4.15 17.75,-6.73l-0.46 13.63c7.37,5.43 19.56,4.5 29.12,4.32 20.67,-0.37 15.45,-5.41 28.86,-8.06 42.57,-38.15 20.76,-46.28 47.7,-52.38 -5.18,29.36 -24.73,37.1 -43.54,55.36 -0.17,0.67 -0.4,0.95 -0.59,1.99l-3.89 6.22c-0.29,0.35 -0.93,0.77 -1.35,1.2 34.83,11.49 33.55,22.69 63.84,-19.36 5.47,-7.59 9.72,-11.33 20.36,-16.02 -3.98,41.26 -33.97,35.94 -23.48,54.57l7.57 0.75c5.07,-2.76 22.41,-28.59 27.36,-35.41 8.32,-11.47 21.53,-26.75 27.66,-38.18 6.9,-12.87 10.55,-39.51 1,-50.89 -7.08,-8.43 -35.64,-14.36 -49.82,-16.24 -62.2,-8.23 -158.09,55.2 -173.83,85.61z"/>
    <path class="fil8" d="M765.48 2317.73c0.1,8.57 -2.69,15.3 5.7,16.58 5.84,-0.14 -1.79,1.92 3.41,-0.99l10.55 -10.99c19.17,1.6 101.49,26.47 147.67,29.82 4.56,0.33 9.19,-0.13 13.73,0.23 36.75,2.86 14.54,-0.12 41.99,-0.12 0,-15.44 -1.38,-60.39 -11.96,-69.84 -0.42,-0.57 -0.71,-1.35 -0.96,-1.88 -0.24,-0.51 -0.61,-1.21 -0.89,-1.82 -2.91,-6.25 -1.32,-7.87 -9.28,-11.05 -31.54,-12.62 -103.32,-24.12 -138.71,-17.65 -8.45,1.56 -11.32,8.35 -15.93,14.21 -5.63,7.14 -10.52,10.7 -16.05,17.86 -9.57,12.4 -22.2,20.06 -29.27,35.64z"/>
    <path class="fil8" d="M384.33 2264.47c-3.77,11.25 14.73,31.79 22.42,39.42 14.45,14.34 16.96,18.65 45.36,18.47 31.04,-0.2 102.28,0.43 117.93,-12 2.86,-21.54 -8.72,-21.51 -16.46,-36.31 -10.48,-10.46 -19.1,-12.38 -33.29,-17 -24.87,-1.37 -49.38,-11.05 -71.9,-16.79 -22.42,-5.71 -49.32,0.95 -67.84,12.45l-2.4 1.78c2.3,7.16 0.61,4.49 6.18,9.98z"/>
    <path class="fil8" d="M164.99 2156.74c10.34,2.31 12.66,3.99 20.28,-1.67 13.06,-9.71 18.84,-33.86 7.18,-51.74 -7.01,-10.75 -41.4,-40.09 -61.36,-34.4 -15.93,-5.34 -55.21,18.18 -69.79,27.95 8.21,12.27 32.06,28.5 45.86,35.91 11.29,6.07 45.71,28.02 57.83,23.95z"/>
    <path class="fil8" d="M451.85 1762.78c0.06,17.16 1.3,32.04 16.55,34.76 16.96,3.03 25.82,-8.86 36.02,-14.66 6.45,-14.32 11.7,-26.49 14.11,-44.54 2.4,-17.86 1.34,-40.53 -14.96,-44.38 -28.75,-6.79 -46.23,47.19 -51.72,68.82z"/>
    <path class="fil8" d="M639.58 422.45c-5.44,5.6 -34.81,101.96 -39.46,120.6 -6.82,27.28 -10.9,20.93 -18.14,27.65l-2.24 3.85c3.69,5.59 11.91,6.03 19.72,5.17 17.49,1.23 41.07,-21.17 57.64,-27.05 7.41,-13.25 14.11,-3.81 16.8,-23.29 -22.65,2.19 -29.13,11.8 -46.88,15.7 3.16,-42.39 26.1,-75.87 28.68,-115.22 -0.95,-13.37 -2.15,-10.42 -16.12,-7.41z"/>
    <path class="fil8" d="M730.2 1812.19l-2.23 11.29c0.87,0.36 1.7,0.08 2.02,0.79 0.66,1.5 41.52,7.52 46.95,3.06 0.07,-0.07 3.3,-5.57 3.57,-6.13l4.17 -7.63c5.81,-30.16 10.87,-68.47 -11.5,-84.05 -20.08,0.41 -25.37,14.12 -30.99,31.09 -5.11,15.42 -14.31,34.18 -11.99,51.58z"/>
    <path class="fil8" d="M142.46 1935.73l90.33 5.36c2.56,7.06 -6.32,42.86 -5.57,58.34 13.66,-0.37 13.56,-8.9 17.56,-20.24 4.32,-12.22 4.67,-19.84 7.3,-31.34l0.85 -14.92c-5.87,-3.99 -3.97,-4.63 -12.61,-9.31l-4.67 -2.32c-4.77,-0.14 -17.39,-1.7 -24.23,-2.56 -5.67,-0.72 -19.43,-2.11 -25.08,-2.84 -17.9,-2.3 -36.18,-4.58 -54.69,-4.58 2.12,16.11 6.51,13.36 10.81,24.41z"/>
    <path class="fil8" d="M1516.16 1969.18c0.62,3.62 -1.29,0.78 2.4,6.34 5.77,8.72 28.01,24.4 38.39,37.46 10.66,13.42 5.51,15.35 -2.02,28.12 -4.13,7.02 -12.4,22.33 -10.91,31.83 0.68,7.11 7.53,4.11 15.66,4.09 2.54,-2.91 1.55,-2.92 5.15,-4.1l16.01 -32.43c11.25,2.48 18.62,10.7 29.37,14.33 -1.7,-22.02 -25.12,-38.49 -35.54,-49.6 -10.68,-11.4 -30.07,-38.75 -44.28,-43.07l-14.86 -2.21 0.63 9.24z"/>
    <path class="fil8" d="M843.24 1915.31c10.14,7.93 22.8,-2.31 40.51,1.15 -2.34,15.56 -25.76,12.23 -33.43,22.8 20.08,13.12 52.48,-8.17 48.92,-27.75 -3.36,-18.47 -49.31,-13.99 -56,3.8z"/>
   </g>
   <g>
    <path class="fil9" d="M1309.34 985.57c-4.02,18.87 -7.32,34.73 -16.32,49.25 -46.13,74.37 -143.52,30.83 -193.23,-44.86 -17.43,-26.56 -27.97,-55.45 -34.05,-91.71 -4.84,-62.31 12.03,-94.39 44.09,-122.55 60.71,-53.32 242.03,44.6 229.03,157.17 -2.4,20.84 -16.99,48.38 -29.52,52.7zm-652.24 -432.9c-16.57,5.88 -40.15,28.28 -57.64,27.05 -12.93,16.18 -75.98,59.88 -96.93,77.17 -17.61,14.53 -48.32,39.97 -62.21,55.45 -9.47,10.55 -20.17,18.98 -30.14,29.74l-27.84 29.95c-5.59,6.49 -20.67,26.09 -23.92,35.76 0.8,0.47 22.39,5.73 25.19,6.3 1.6,-26.82 11.92,-37.18 32.5,-19.93 13.6,11.39 6.79,10.53 16.46,13.86 7.29,-7.63 18.35,-25.66 25.47,-36 7.77,-11.28 18.38,-26.15 27.7,-32.36 15.74,-30.41 111.63,-93.84 173.83,-85.61 14.18,1.88 42.74,7.81 49.82,16.24 9.55,11.38 5.9,38.02 -1,50.89 -6.13,11.43 -19.34,26.71 -27.66,38.18 -4.95,6.82 -22.29,32.65 -27.36,35.41 -6.65,19.27 -55.62,39.2 -83.51,47.11 -33.12,9.39 -65.81,25.46 -103.55,23.99 1.35,9.66 8.84,20.84 12.81,28.91 7.77,15.81 1.47,16.76 2.85,32.59l42.03 121.42c47.71,-15.56 137.23,-83.62 155.81,-67.62 8.72,7.53 62.33,98.42 95.34,135.62 42.58,-5.53 95.24,-39.02 135.62,-36.98 4.94,2.15 76.52,114.98 87.73,126.58 74.71,-6.01 149.8,-95.17 217.87,-71.2 16.15,2.83 60.02,-15.5 69.42,-23.72 -28.67,-2.5 -36.43,13.5 -64.09,2.43 6.3,-21.83 37.38,-25.14 62,-28.51 30.83,-4.22 62.36,-9.55 49.46,29.85 8.37,7.68 19.49,10.75 24.29,23.96 5.48,15.1 -5.12,25.23 -10.19,33.9 10.23,6.67 38.86,11.86 20.13,31.95 -9.36,10.03 -17.6,12.94 -25.45,20.38 -2.97,2.81 -3.21,3.38 -5.62,6.38l-5.22 7.14c5.57,10.31 12.37,12.28 13.27,15.96 -1.13,26.54 -15.28,33.39 -40.67,36.14 -23.51,2.55 -48.8,0.67 -73.13,2.64 3.19,7.45 10.1,9.44 9.36,21.07 -15.91,12.97 -38.63,-1.62 -56.62,-7.35 -26.86,-8.53 -39.19,-5.15 -36.87,-38.54 -17.14,-14.25 -29.74,-19.91 -31.14,-52.2 -24.06,7.92 -35.71,15.36 -71.36,25.82 -34.07,10 -49.58,15.93 -73.39,-7.5 -21.27,-20.93 -42.3,-59.77 -59.5,-88.09 -7.33,-12.06 -13.26,-19.46 -20.54,-29.1 -37,9.12 -128.59,57.38 -151.5,31.61 -20.57,-23.15 -60.06,-90.56 -73.37,-125.69 -25.69,4.63 -94.51,42.92 -129.46,55.91 -22.7,8.45 -31.85,10.22 -51.58,-28.79 -10.54,-20.86 -17.5,-44.55 -28.64,-64.57 -16.05,2.05 -18.53,1.99 -35.45,1.33l0.55 22.38 -14.27 5.5c32.99,32.98 -7.54,37.64 -24.89,34.21 -12.45,-2.45 -23.65,-8.91 -26.09,-19.5 -3.26,-14.1 8.64,-13.19 -3.61,-32.43 -7.04,-11.07 -13.23,-18.06 -12.4,-34.08 1.07,-20.53 1.11,-20.63 -4.32,-38.99 -13.75,-46.5 11.19,-48.11 28.59,-54.59l-11.91 -45.87c-2.96,-4.46 -1.35,-2.1 -4.55,-4.35 -32.43,50.5 -56.48,109.35 -57.36,171.66 -0.49,35.15 3.83,68.57 16.64,97.48 11.97,27.01 24.96,56.32 40.84,73.45 9.46,1.35 137.65,63 164.94,75.59l55.88 25.82c14.92,5.49 47.78,11.73 64.39,15.19 21.96,4.58 44.22,11.18 66.3,15.6 19.48,3.89 36.94,14.06 60.35,19.46 21.07,4.86 43.63,11.63 65.46,16.17 92.12,19.18 197.31,36.5 293.18,29.53 51.93,-3.78 151.62,-20.96 205.45,-35.42 22.07,-5.93 45.49,-9.72 67.56,-15.62 1.55,-2.2 24.92,-85.55 27.06,-94.79 14.5,-62.42 15.28,-170.71 9.53,-235.13 -3.34,-37.41 -14.37,-75.45 -16.43,-109.64 -3.11,-4.29 -2.67,-16.73 -5.06,-24.37 -5.67,-18.2 -17.64,-41.28 -27.21,-56.62 -7.76,-12.45 -12.11,-25.56 -18.96,-36.83 -16.62,-27.37 -61.64,-59.37 -88.51,-81.09 -11.32,-9.15 -20.27,-17.02 -30.71,-25.12 -12.45,-9.66 -22.05,-14.07 -29,-26.92 -25.63,-1.54 -80.28,-32.22 -105.35,-42.17 -35.8,-14.22 -74.16,-23.45 -109.2,-37.34 -15.25,-1.79 -31.65,-6.96 -46.55,-10.24 -17.85,-3.93 -30.49,-4.16 -47.68,-5.22 -11.37,-0.98 -18.05,-4.68 -30.75,-5.38 -55.5,-3.05 -104.43,8.46 -158.16,19.56 -24.85,5.13 -46.2,14.16 -57.16,15.18z"/>
    <path class="fil9" d="M843.24 1915.31c6.69,-17.79 52.64,-22.27 56,-3.8 3.56,19.58 -28.84,40.87 -48.92,27.75 7.67,-10.57 31.09,-7.24 33.43,-22.8 -17.71,-3.46 -30.37,6.78 -40.51,-1.15zm-58.56 -101.74c-2.36,32.14 -13.17,111.24 -40.02,114.96 -18.68,2.59 -26.72,-31.71 -26.18,-51.13 0.44,-15.65 1.69,-57.62 11.72,-65.21 -2.32,-17.4 6.88,-36.16 11.99,-51.58 5.62,-16.97 10.91,-30.68 30.99,-31.09 22.37,15.58 17.31,53.89 11.5,84.05zm-280.26 -30.69c-4.34,22.69 -14.94,47.07 -23.78,67.16 -9.95,22.6 -16.76,41.67 -46.97,37.57 -13.94,-31.97 2.51,-109.43 18.18,-124.83 5.49,-21.63 22.97,-75.61 51.72,-68.82 16.3,3.85 17.36,26.52 14.96,44.38 -2.41,18.05 -7.66,30.22 -14.11,44.54zm-10.44 -278.58c-4.55,0.85 -0.77,-0.94 -5.44,4.36 -43.04,48.84 -105.9,142.45 -134.79,196.49 -49.58,92.75 -55.11,130.35 -86.95,214.29 -2.01,5.3 -4,10.24 -6.41,15.48l-8.31 12.93c-2.63,11.5 -2.98,19.12 -7.3,31.34 -4,11.34 -3.9,19.87 -17.56,20.24 -26.69,-4.81 -64.3,-36.6 -84.4,-55.94 -4.61,-4.44 -5.98,-4.56 -10.7,-8.58l-98.5 -11.4c9.45,19.63 36.21,45.43 51.89,61.33l36.26 37.53c6.36,6.25 12.55,10.8 19.26,16.71 3.95,3.48 5.9,6.34 9.88,9.97l29.16 24.72c52.56,42.36 67.16,29.94 29.98,78.14 -10.82,14.02 -22.22,27.42 -33.33,40.51 -8.41,9.91 -29.95,28.05 -34.4,40.13 31.15,18.12 249.2,3.91 304.2,-5.54 22.97,-3.95 24.87,-2.93 41.36,7.67 10.29,6.6 28.3,11.89 32.41,22.37 14.19,4.62 22.81,6.54 33.29,17 15.68,3.88 38.59,17.67 53.44,25 35.34,17.42 73.03,33.17 111.73,43.89 30.98,8.58 26.91,-13.64 46.73,-25.21 7.07,-15.58 19.7,-23.24 29.27,-35.64 5.53,-7.16 10.42,-10.72 16.05,-17.86 4.61,-5.86 7.48,-12.65 15.93,-14.21 5.77,-18.24 5.52,-20.01 28.05,-18.65 12.28,0.74 25.31,3.64 37.02,6.13 25,5.33 50.78,14.56 77.49,10.13 20.61,-5.25 13.35,-6.65 29.78,-16.48 17.74,-10.62 11.76,-8.22 23.45,-22.46 58.85,-71.62 33.18,-47.93 43.95,-73.7 2.38,-5.7 5.08,-9.55 7.35,-16.68l14.22 -79.33c1.75,-13.36 4.62,-26.07 7.03,-38.97 5.85,-31.37 -0.75,-50.54 -8.84,-78.6 -6.94,-24.08 -12.46,-49.71 -20.37,-73.45l-56.92 -130.56c-45.21,-96.96 -108.36,-131.02 -204.2,-170.88 -22.47,-9.35 -41.11,-20.28 -64.05,-29.7 -22.23,-9.13 -49.59,-15.06 -75,-18.9 -27.99,-4.23 -58.92,-6.93 -87.96,-5.87l-83.75 12.25z"/>
    <path class="fil9" d="M1419.56 508.55l-34.4 14.53 -39.84 19.86 -2.49 7.53c15.83,17.02 91.16,56.03 120.65,69.69 8.9,4.13 18.24,5.76 27.98,9.87 51.61,21.79 115.79,59.42 162.08,65.52 54.49,7.17 42.83,-3.47 84.51,28.92 15.6,12.12 13.83,15.38 22.01,13.69 17.35,-4.4 13.14,-46.58 7.5,-63.26 -3.79,-11.25 -28.99,-40.84 -35.16,-46.61 -15.92,-14.9 -26.1,-26.79 -41.05,-40.71 -7.4,-6.89 -13.29,-14.24 -20.97,-20.87 -29.97,-25.85 -81.41,-76.19 -120.05,-87.46 -42.75,-12.45 -94.5,27.06 -130.77,29.3z"/>
    <path class="fil9" d="M963.14 24.7c-48.87,5.95 -139.23,11.57 -168.26,38.87 -15.76,14.82 -24.05,46.81 -32.46,71.24 -5.88,17.1 -26.01,62.13 -24.77,78.23 0.13,7.24 -0.73,2.42 0.94,7 19.05,4.74 32.53,-2.94 47.27,-9.55 23.01,-10.34 57.82,-17.98 87.89,-31.69 64.56,-29.45 47.98,-14.66 91.16,-30.44 32.12,-11.74 101.24,-54.2 130.18,-50.54 2.13,-14.25 5.35,-33.86 5.52,-48.07 0.25,-21.2 -8.92,-25.3 -28.95,-27.22 -35.58,-3.39 -73.18,-0.58 -108.52,2.17z"/>
    <path class="fil9" d="M1170.65 1241.07c2.38,-8.69 2.5,-19.41 8.02,-25.36 5.7,-6.16 14.4,-8.37 19.4,-14.21 -17.25,-1.14 -37.23,-1.73 -47.89,9.63 -14.91,15.89 2.3,29.3 20.47,29.94z"/>
    <path class="fil9" d="M1275.73 1163.38c21.49,-0.24 54.94,11.22 51.59,-18.21 -14.68,-5.07 -46.27,-8.99 -51.59,18.21z"/>
    <path class="fil9" d="M1277.74 843.77c6.57,14.88 13.79,32.46 19.24,48.72 4.59,13.72 8.94,41.98 14.4,51.68 5.33,-24.3 5.19,-37.67 -4.3,-59.97 -6.02,-14.15 -20.67,-34.67 -29.34,-40.43z"/>
    <path class="fil9" d="M501.55 826.37l-25.52 5.18c-6.97,-5.97 -1.73,-7.47 -13.92,-12.08 -29.09,29.49 41.88,36.16 39.44,6.9z"/>
    <path class="fil9" d="M1250.84 863.12c2.68,-22.51 -2.14,-28.48 -12.21,-40.08 -7.12,-8.19 -18.42,-19.7 -28.5,-24.27l40.71 64.35z"/>
    <path class="fil9" d="M586.75 762.44c0.68,4.25 -1.5,1.97 4.16,2.98 18.81,-18.26 38.36,-26 43.54,-55.36 -26.94,6.1 -5.13,14.23 -47.7,52.38z"/>
    <path class="fil9" d="M1195.05 1037.43c10.41,4.62 30.76,-0.09 39.91,-4.85 12.02,-6.27 15.58,-13.62 21.8,-26.16 -13.71,0.28 -16.86,12.31 -27.02,18.98 -10.67,7 -27.91,6.89 -34.69,12.03z"/>
    <path class="fil9" d="M1113.78 820.16c7.96,-4.65 12.18,-12.35 20.98,-17.53 9.95,-5.84 21.8,-3.85 28.79,-10.26 -27.87,-8.83 -46.75,1.88 -49.77,27.79z"/>
    <path class="fil9" d="M1180.82 925.03c2.64,0.55 6.54,1.73 9.31,1.44 9.89,-1.05 6.74,-0.37 8.27,-6.74 -10.1,-7.83 -11.23,-14.36 -29.17,-14.75 -1.89,12.6 2.46,16.2 11.59,20.05z"/>
    <path class="fil9" d="M1221.74 915.76c3.23,-17.93 -10.58,-28 -23.46,-30.21 -1.62,10.23 -2.69,6.34 2.06,11.68l21.4 18.53z"/>
    <path class="fil9" d="M511.48 759.28l-6.11 12.26 23.4 -5.36 0.46 -13.63c-7.66,2.58 -9.09,6.08 -17.75,6.73z"/>
   </g>
  </g>
 </g>
</svg>
