<?xml version="1.0" encoding="UTF-8"?>
<!DOCTYPE svg PUBLIC "-//W3C//DTD SVG 1.1//EN" "http://www.w3.org/Graphics/SVG/1.1/DTD/svg11.dtd">
<!-- Creator: CorelDRAW 2017 -->
<svg xmlns="http://www.w3.org/2000/svg" xml:space="preserve" width="2.7092mm" height="0.7618mm" version="1.1" style="shape-rendering:geometricPrecision; text-rendering:geometricPrecision; image-rendering:optimizeQuality; fill-rule:evenodd; clip-rule:evenodd"
viewBox="0 0 270.92 76.18"
 xmlns:xlink="http://www.w3.org/1999/xlink">
 <defs>
  <style type="text/css">
   <![CDATA[
    .fil0 {fill:none}
    .fil1 {fill:#373435}
   ]]>
  </style>
 </defs>
 <g id="Capa_x0020_1">
  <metadata id="CorelCorpID_0Corel-Layer"/>
  <rect class="fil0" x="-0" y="-0" width="270.93" height="76.19"/>
  <g id="_1978050242992">
   <path class="fil1" d="M116.79 31.03c-2.71,-1.4 -3.97,-3.4 -5.99,-5.35 -5.71,-5.5 -29.54,-19.38 -33.45,-8.97 -1,2.67 3.13,15.63 4.12,19.97 0.81,3.58 1.32,6.66 2.23,10.49 -5.62,-0.53 -12.87,-7.39 -13.24,3.25 3.36,3.03 9.29,3.9 13.7,7.75 1.55,1.36 4.08,5 5.59,5.57 3.71,1.4 6.49,-1.4 6.48,-4.93 -0.01,-1.15 -4.35,-13.88 -5.03,-16.87 -1.1,-4.89 -1.77,-15.23 -3.12,-18.81 6.18,-0.72 19.52,11.52 24.48,17.45 3.12,3.73 6.21,8.28 8.81,12.96 3.59,6.45 3.01,17.07 9.8,16.68 7.82,-0.46 1.1,-12.23 0.52,-13.63 -1.8,-4.32 -5.16,-20.07 -5.52,-23.75 5.14,1.45 8.22,9.3 14.02,2.68 0.95,-5.3 -4.85,-8.85 -7.61,-11.58 -1.76,-1.75 -2.8,-2.64 -4.45,-4.77 -1.89,-2.44 -2.05,-3.62 -3.85,-6.11 -2.77,-3.86 -8.39,-6.03 -9.75,0.76 -0.72,3.59 2.31,13.1 2.26,17.21z"/>
   <path class="fil1" d="M32.64 24.07c-0.66,-0.64 -0.56,-0.49 -1.28,-1.53 -0.36,-0.52 -0.99,-1.65 -1.28,-2.19 -2.21,-4.22 -3.27,-8.19 -9.37,-8.54 -1.57,4.56 -2.25,3.22 1.29,7.45 13.18,15.77 -13.87,14.25 -15.24,23.77 -0.43,2.99 2.32,10.53 3.47,13.1 5.59,12.48 9.43,10.75 17.16,1.54 7.63,-9.1 4.12,-20.82 8.25,-25.14 2.26,-2.36 6.2,-6.82 9.52,-7.77 2.6,3.09 0.88,1.66 0.41,5.01 -0.53,3.81 3.97,20.93 4.21,22.72l-6.41 1.55c-0.16,-8.91 1.7,-14.34 -4.93,-15.11 -4.15,3.75 0.06,6.71 -2.42,13.2 -1.03,2.7 -9.6,12.93 -2.48,13.47 0.33,0.02 2.92,-0.96 3.63,-1.34 6.24,-3.37 8.57,-4.32 17.56,-3.53 4.32,0.38 5.71,-0.33 7.17,-3.63 -1.46,-3.92 -3.27,-4.09 -4.75,-6.96 -3.23,-6.24 -5.78,-23.21 -3.14,-30.97 1.09,-3.2 2.41,-6.51 -0.48,-8.96 -4.92,-4.16 -8.9,3.73 -10.01,5.13 -2.29,2.86 -7.6,7.23 -10.88,8.73zm195.37 -3.87c-15.08,0 -15.35,12.92 -7.27,9.75 0.39,-0.15 8.17,-6.21 13.74,-0.43 -2.74,6.45 -15.63,11.25 -12.35,22.57 2.93,10.08 16.08,13.97 22.57,13.97 7.9,0 30.44,-6.81 13.11,-19.56 -16.87,-12.42 -23.63,-1.61 -16.4,2.24 6.08,2.15 12.38,-1.02 13.09,5.99 -1.66,6.11 -30.73,4.43 -25.15,-7.81 0.73,-1.61 12.52,-13.15 14.52,-14.45 6.28,2.39 12.41,8.28 17.31,9.35 3.57,-3.78 2.52,-3.71 1.89,-9.05 -0.53,-4.57 0.11,-6.78 -1.04,-11.36 -1.62,-6.43 -3.21,-15.31 -6.07,-18.64 -5.32,0.52 -4.41,3.28 -11.73,12.94 -7.55,9.98 -2.91,4.49 -16.22,4.49zm-214.27 24.67c4.71,22.42 13.38,4.79 12.65,-5.74 -2.37,-0.16 -10.46,4.11 -12.65,5.74zm234.7 -20.34c1.63,2.33 4.89,4.87 7.2,4.17 1.37,-2.56 0.05,-8.04 -2.59,-10.42 -2.7,1.5 -3.99,3.53 -4.61,6.25z"/>
   <path class="fil1" d="M155.63 36.75l4.63 0.21c3.82,-8.15 0.63,-15.47 7.63,-15.47 4.98,0 9.54,2.3 13.47,4.67 2.87,1.73 8.72,7.06 10.07,9.05 4.41,6.47 3.27,7.69 -1.1,11.75 -4.26,3.97 -20.14,10.64 -25.26,-0.38 -1.44,-3.12 0.34,-1.31 -1.96,-3.13 -4.23,-2.28 -13.92,2.92 0.07,22.55 10.66,14.94 13.86,3.01 13.02,1.12 -3.25,-3.09 -6.32,-3.31 -8.15,-7.52 3.42,-1.79 12.35,3.47 26.62,-7.45 5.01,-3.83 9.16,-11.96 5.14,-18.63 -4.36,-7.25 -15.87,-17.42 -22.86,-19.69 -12.92,-4.18 -17.07,-4.77 -21.48,8.21 -2.15,6.32 -3.48,9.47 0.16,14.71z"/>
   <path class="fil1" d="M111.13 47.08c0,-3.46 -2.9,-4.79 -5.85,-6.15 -5.28,1.63 -9.12,4.01 -4.54,9.01 3.91,4.27 10.39,-0.5 10.39,-2.86z"/>
   <path class="fil1" d="M172.7 43.92c5.47,0.35 3.22,0.18 6.46,-1.47 0.76,-3.68 -0.01,-8.51 -5.1,-6.91 -5.87,1.85 -3.12,5.94 -1.36,8.38z"/>
  </g>
 </g>
</svg>
