<?xml version="1.0" encoding="UTF-8"?>
<!DOCTYPE svg PUBLIC "-//W3C//DTD SVG 1.1//EN" "http://www.w3.org/Graphics/SVG/1.1/DTD/svg11.dtd">
<!-- Creator: CorelDRAW 2017 -->
<svg xmlns="http://www.w3.org/2000/svg" xml:space="preserve" width="3.2172mm" height="0.7618mm" version="1.1" style="shape-rendering:geometricPrecision; text-rendering:geometricPrecision; image-rendering:optimizeQuality; fill-rule:evenodd; clip-rule:evenodd"
viewBox="0 0 321.72 76.18"
 xmlns:xlink="http://www.w3.org/1999/xlink">
 <defs>
  <style type="text/css">
   <![CDATA[
    .fil0 {fill:none}
    .fil1 {fill:#373435}
   ]]>
  </style>
 </defs>
 <g id="Capa_x0020_1">
  <metadata id="CorelCorpID_0Corel-Layer"/>
  <g id="_1978052682768">
   <rect class="fil0" x="0.01" y="0" width="321.69" height="76.18"/>
   <g id="_1978041869392">
    <polygon class="fil1" points="139.86,37.1 139.86,37.86 "/>
    <polygon class="fil1" points="139.86,43.18 139.86,43.94 "/>
    <polygon class="fil1" points="139.86,49.26 139.86,50.03 "/>
    <polygon class="fil1" points="139.86,55.35 139.86,56.11 "/>
    <path class="fil1" d="M37.32 15.29c2.75,0 4.44,0.56 6.55,1.62 6.56,3.3 7.62,7.91 10.88,16.69 9.56,25.69 -6.64,22.37 -23.28,22.37 -7.63,0 -10.49,-10.39 -12.88,-17.99 -0.65,-2.05 -1.3,-7.02 -1.83,-8.36 2.89,-0.91 8.34,-0.48 12.47,0.29 24.18,4.48 2.72,11.54 4.16,20.26 8.49,5.72 14.84,-11.37 14.84,-18.36 0,-9.17 -31.04,-14.86 -41,-9.19 -0.86,6.33 8.66,33.98 11.56,36.9 7.74,7.79 29.39,5 39.47,2.37 14.67,-3.82 5.81,-24.9 1.3,-38.12 -1.99,-5.82 -8.69,-16.87 -17.24,-16.87 -6.42,0 -18.25,1.71 -19.05,7.54 -1.1,7.98 8.63,0.85 14.05,0.85z"/>
    <path class="fil1" d="M208.57 10.1c-0.05,9.02 9.03,8.97 12.32,15.86 -9.51,6.54 -11.58,-9.37 -17.03,-2.05 -2.63,4.89 6.07,12.6 16.27,12.05l8.31 -0.89c6.36,10.91 2.92,23.21 -7.36,25.43 -18.85,4.06 -14.64,2.14 -14.64,-18.68 0,-3.44 -1.47,-6.34 -3.84,-7.6 -3.44,-1.84 -6.17,0.49 -8.43,2.19 0.17,6.1 3.87,4.96 3.87,13.76 0,7.11 -5.01,7.74 -4.44,14.2 3.17,3.09 11.77,5.81 17.34,5.81 7.43,0 14.94,-0.42 20.82,-5.88 12.58,-11.71 6.49,-21.93 4.38,-33.35 9.5,-9.13 6.46,2.41 9.91,6.71 2.34,2.89 7.53,3.75 7.53,-2.51 0,-5.73 -5.82,-19.89 -9.24,-22.59 -10.03,-1.54 -4.72,8.42 -15.03,9.84 -2.25,-1.38 -6.14,-6.06 -8.28,-8.19 -2.79,-2.8 -4.68,-6.51 -10.26,-6.65l-2.2 2.54z"/>
    <path class="fil1" d="M160.86 43.05l-1.4 -2.27c-1.38,-3.56 -0.05,-8.39 -0.47,-9.88 -0.89,-3.15 -7.44,-5.36 -7.44,8.42 0,5.5 3.51,9.99 3.88,15.03 -2.07,3.21 -3.47,4.39 -5.55,7.37 -1.94,2.76 -1.46,1.58 -3.48,3.3 -5.87,4.98 2.54,7.15 5.45,5.56 2.02,-1.1 1.75,-2.48 3.99,-5.39 1.58,-2.04 2.51,-3.29 5.29,-4.05 3.07,2.89 3.42,9.75 10.91,6.9 2.47,-8.98 -0.5,-8.75 5.34,-16.37 1.41,-1.84 3.53,-4.16 4.78,-6.14 2.2,-3.49 -0.31,-4.87 -3.14,-6.2 -10.15,9.72 -9.27,14.24 -13.51,16 -1.58,-5.12 1.65,-7.29 5.07,-18.84 2.86,-9.68 5.91,-19.15 3.91,-28.34 -9.38,-3.04 -20.87,3.45 -27.97,8.51 -14.65,10.43 -16.77,22.81 -8.33,19.31 6.22,-2.58 9.93,-11.48 22.03,-17.36 8.52,-4.15 6.56,2.06 5.47,8.88 -0.5,3.13 -0.85,5.06 -1.78,8.28 -0.33,1.14 -0.63,2.44 -1.12,3.79l-1.93 3.49z"/>
    <path class="fil1" d="M95.38 66.95c4.85,1.31 3.39,0.59 7.81,-1.08 8.25,-3.1 12.34,-0.96 16.61,0.42 11.25,3.62 2.52,-27.58 -8.19,-32.88 -9.23,4.24 -2.59,6.38 2.98,15.44 5.42,8.79 2.92,6.16 -6.47,7.72 -2.55,0.43 -3.76,1.15 -6.6,1.15 -4.73,-34.15 11.37,-33.63 3.11,-43.07 -10.56,5.08 -14.01,37.2 -9.25,52.3z"/>
    <path class="fil1" d="M77.94 25.13c0,6.4 0.04,23.09 8.62,23.09 7.24,0 -4.25,-15.61 0.84,-29.51 3.68,1.59 2.35,3.64 7.8,4.19 2.67,-4.91 3.37,-5.03 -0.92,-8.81 -3.75,-3.31 -2.76,-5.08 -5.12,-9.01 -9.86,-0.41 -11.22,12.07 -11.22,20.05z"/>
    <path class="fil1" d="M212.51 49.34c2.04,1.83 1.88,2.65 5.11,3.4 6.45,-1.1 7.16,-6.99 2.51,-10.85 -4.86,0.39 -6.57,2.95 -7.62,7.45z"/>
    <path class="fil1" d="M24.54 37.41c0.94,4.39 1.79,5.96 6.93,4.99 3.1,-4.61 0.25,-11.18 -6.93,-4.99z"/>
    <path class="fil1" d="M285.24 26.16c-1.71,-2.37 -2.6,-4.62 -4.3,-7.51 -1.87,-3.17 -3.08,-4.57 -7.35,-4.59 -3.13,8.35 4.83,7.05 5.03,16.92 -4.27,5.19 -18.24,8.83 -19.07,14.31 -0.73,4.85 6.57,21.86 11.5,22.31 2.7,-0.74 7.5,-5.4 9.11,-7.53 8.01,-10.58 3.9,-20.6 8.7,-25.49 2.37,-2.43 6.1,-6.89 9.78,-7.66 1.88,4.95 -1.1,2.49 -0.17,7.58 0.68,3.73 0.63,5.83 1.2,9.59 1.03,6.79 7.55,12.07 -3.43,11.78 -0.09,-4.33 0.7,-10.17 -1.17,-13.21 -1.67,-1.44 -2.74,-2.48 -4.59,-0.65 -3.56,3.52 2.96,4.64 -4.21,16.74 -0.36,0.61 -1.99,3.53 -2.12,3.87 -1.34,3.45 -1.33,2.27 0.46,4.06 3.28,2.76 6.56,-1.41 10.09,-2.86 7.24,-2.97 21.72,2.85 19.59,-5.79 -1.08,-4.41 -8.41,-3.29 -8.41,-31.23 0,-4.78 3,-8.45 2.46,-11.51 -0.73,-4.14 -5.06,-4.66 -7.92,-2.63 -4.28,3.04 -9.17,11.77 -15.18,13.5zm-18.67 20.33c0.48,2.78 0.84,4.46 1.73,6.45 0.14,0.31 1.14,2.25 1.43,2.67 3.71,5.36 6.85,-0.08 7.74,-3.91 0.93,-4.02 2.01,-6.48 1.8,-10.58 -3.62,0.26 -3.41,1.32 -6.17,2.74 -1.64,0.85 -4.79,1.81 -6.53,2.63z"/>
   </g>
  </g>
 </g>
</svg>
