<?xml version="1.0" encoding="UTF-8"?>
<!DOCTYPE svg PUBLIC "-//W3C//DTD SVG 1.1//EN" "http://www.w3.org/Graphics/SVG/1.1/DTD/svg11.dtd">
<!-- Creator: CorelDRAW 2017 -->
<svg xmlns="http://www.w3.org/2000/svg" xml:space="preserve" width="15.7478mm" height="14.9012mm" version="1.1" style="shape-rendering:geometricPrecision; text-rendering:geometricPrecision; image-rendering:optimizeQuality; fill-rule:evenodd; clip-rule:evenodd"
viewBox="0 0 1574.78 1490.12"
 xmlns:xlink="http://www.w3.org/1999/xlink">
 <defs>
  <style type="text/css">
   <![CDATA[
    .fil9 {fill:#12240D}
    .fil2 {fill:#373728}
    .fil11 {fill:#3A8C7F}
    .fil3 {fill:#59430C}
    .fil5 {fill:#676765}
    .fil12 {fill:#689692}
    .fil0 {fill:#87552F}
    .fil1 {fill:#987866}
    .fil6 {fill:#999A94}
    .fil13 {fill:#C59545}
    .fil8 {fill:#C7CCC5}
    .fil4 {fill:#D5A972}
    .fil7 {fill:#F3C29A}
    .fil10 {fill:#F5F4F2}
   ]]>
  </style>
 </defs>
 <g id="Capa_x0020_1">
  <metadata id="CorelCorpID_0Corel-Layer"/>
  <g id="_1516019036720">
   <path class="fil0" d="M1287.92 1163.01c11.24,-3.35 15.63,-5 23.53,1.61 -8.42,8.47 -23.11,1.96 -27.59,16.88 12.64,2.31 13.95,0.08 25.87,-1.16 30.49,-0.31 43.44,-9.51 75.69,-0.22 17.56,5.06 54.14,7.8 64.88,18.87 1,16.18 -4.2,20.42 -19.77,22.13 -17.25,1.91 -26.88,-1.31 -27.49,16.95 2.25,1.74 -0.53,1.16 4.63,1.78 7.36,-1.05 4.05,-0.77 5.83,-2.6l-4.13 -2.02c5.59,-10.81 12.83,-7.92 25.27,-10.33 10.2,-1.98 19.02,-5.44 24.37,-11.09 0.55,-19.09 -4.05,-20.79 -20.45,-24.99 -13.08,-3.35 -25.43,-6.19 -38.43,-9.63 -16.3,-4.31 -22.05,-5.85 -39.88,-5.72 -12.85,0.09 -32.31,2.18 -45.84,0.44l6.33 -11.48c-4.39,-1.59 -10.93,-4.35 -15.8,-5.12 -9.57,-1.53 -12.94,-0.01 -17.02,5.7z"/>
   <path class="fil0" d="M844.31 891.67c13.43,1.73 11.63,-13.04 15.02,-25.56 2.25,-8.29 2.85,-7.99 7.12,-13.62 3.66,-4.82 4.7,-9.64 6.16,-17.22 -14.41,2.23 -15.19,13.43 -20.8,24.92 -4.05,8.31 -13.64,21.32 -7.5,31.48z"/>
   <path class="fil0" d="M1434.7 1237.67l-0.76 11.32c2.54,-1.5 4.87,-2.95 8.61,-4.39 0,16.6 -0.57,12.76 -6.01,20.09 -0.97,1.31 -2.55,4.16 -3.78,6.02 15.32,-5.75 16.64,-13.92 16.64,-34.36 6.39,-1.48 12.37,-5.6 15.39,-10.3l0.56 -5.59 -12.18 7.62c-4.59,2.76 -6.16,4.85 -8.67,10.1l-9.8 -0.51z"/>
   <path class="fil0" d="M669.89 1170.53l28.96 -5.32c2.93,3.17 4.41,4.67 7.07,7.49 3.97,4.22 3.69,4.74 8.78,7.31 -3.44,-11.38 -7.48,-14.32 -14.04,-20.44 -8.3,-0.17 -10.22,1.06 -17.59,2.53 -10.51,2.08 -11.41,-1.19 -13.18,8.43z"/>
   <path class="fil0" d="M1387.15 1248.85l-0.81 -10.51c-14.12,-1.1 -21.52,-2.53 -21.29,13.48 8.88,1.35 14.93,-1.49 22.1,-2.97z"/>
   <path class="fil0" d="M1388.02 652.3c1.97,-8.13 -0.41,-10.3 -4.29,-16.77 -4.91,-8.19 -3.88,-9.73 -15.11,-11.45 1.73,9.68 3.37,8.83 7.84,15.28 6.11,8.82 -0.1,10.52 11.56,12.94z"/>
   <path class="fil0" d="M1373.92 1271.95c-11.27,3.37 -19.6,1.09 -17.21,17.06l15.34 0.27 1.87 -17.33z"/>
   <path class="fil0" d="M1348.78 1323.31c11.49,4.36 16.34,2.64 15.68,-10.57 -11.29,-2.44 -16.57,-1.05 -15.68,10.57z"/>
   <path class="fil0" d="M1406.43 1314.61l-1.03 -4.84c-1.49,0.07 -4.23,0.26 -5.72,0.12 -2.97,-0.29 -2.97,-0.82 -4.15,-1.39l0.6 -4.73c-2.52,-3.23 -3.35,-2.29 -7.31,-1.13 -4.99,1.46 -5.19,2.46 -7.03,5.86 5.34,7.81 14.84,5.46 24.64,6.11z"/>
   <path class="fil0" d="M832.65 874.02c8.38,-4.34 10.63,-10.68 12.85,-21.7 -8.36,0.95 -8.49,0.43 -11.82,6.89 -3.16,6.14 -3.16,8.9 -1.03,14.81z"/>
   <path class="fil0" d="M877.54 882c4.04,-5.39 2.41,-17.65 1.73,-24.89 -6.96,1.71 -6.79,2.34 -7.25,11.57 -0.78,15.86 3.35,12.86 5.52,13.32z"/>
   <path class="fil0" d="M1231.02 941.56c7.05,-4.57 7.25,-16.05 -5.93,-15.87 -2.88,8.18 -6.06,16.97 5.93,15.87z"/>
   <path class="fil0" d="M1347.8 647.15c3.51,6.57 4.36,5.82 11.59,7.11l-0.87 -11.12c-7.03,-2.41 -8.12,-3.35 -10.72,4.01z"/>
   <path class="fil0" d="M1241.56 980.28l9.74 -0.1c0.51,-8.21 -1.53,-9.85 -8.53,-10.27l-1.21 10.37z"/>
   <path class="fil1" d="M1066.8 905.37c-15.55,114.43 -66.78,118.38 -27.91,140.39 61.04,34.56 94.32,28.9 160.56,38.89 33.83,5.11 81.26,19.05 113,20.12l-6.37 -5.12c-1.65,-0.76 -5.89,-1.87 -7.86,-2.42 -6.21,-1.72 -11.76,-2.85 -17.89,-4.19 -12.73,-2.8 -24.76,-4.94 -37.96,-6.94 -47.54,-7.24 -105.46,-12.01 -150.66,-24.43 -29.14,-8 -40.49,-16.29 -59.51,-29.41 1.66,-17.79 14.9,-23.8 16.28,-42.74 4.95,-11.04 4.03,-14.57 11.03,-22.95 16.94,-20.3 -5.96,-64.34 36.21,-60.94l-1.09 9.19c3.17,-1.83 3.64,-0.87 5.9,-5.4 2.73,-5.48 0.48,-4.87 -0.31,-6.11 -8.61,-4.59 -24.47,-0.93 -33.42,2.06z"/>
   <path class="fil1" d="M757.78 1226.05c2.33,11.8 6.69,19.14 11.11,28.98 15.25,-0.39 32.06,-7.32 45.73,-11.14 15.53,-4.34 32.72,-4.99 48.68,-8.03 62.73,-11.95 157.11,3.08 218.82,-7.68 19.54,-3.41 49.54,-10.85 68.5,-17.56 8.4,-2.98 14.53,-4.53 19.27,-10.34 -20.14,0.41 -63.39,24.12 -142.94,24.05 -19.94,-0.02 -34.26,1.72 -54.95,1.72 -80.92,0 -103.78,0.56 -176.9,17.16 -23.69,5.38 -8.59,6.58 -22.31,6.89 -5.86,-12.21 -4.97,-19.51 -15.01,-24.05z"/>
   <path class="fil1" d="M1152.72 475.96l-2.75 -8.03c4.05,-0.97 30.75,4.59 38.52,5.35 16.09,1.59 31.54,-0.01 47.19,-2.59 16.41,-1.72 25.02,-8.04 35.88,-15.2 23.04,-15.18 18.11,-5.8 41.67,-11.47 26.08,-6.28 58.58,-22.07 89.57,-11.87 6.41,4.34 8.94,44.93 9.55,52.25 1.67,19.85 2.69,39.81 3.18,59.69 0.66,27.08 0.94,63.82 -2.32,90.86 -1.46,12.11 -4.58,16.13 -3.95,29.7 2.2,-2.3 0.83,0.34 3.19,-4.59l4.44 -19.54c1.41,-9.34 2.45,-19.72 2.74,-29.43 0.62,-20.92 -0.9,-41.08 -1.38,-61.85 -0.84,-35.98 0.74,-88.26 -7.2,-121.4 -67.52,-10.31 -46.09,-3.6 -71.28,3.2 -25.08,6.76 -47.49,4.92 -68.9,16.9 -27.55,15.42 -17.47,20.58 -65.32,21.15 -13.41,0.15 -27.99,0.49 -40.46,-3.1 -4.74,-1.36 -13.11,-4.96 -18.51,-1.37 -1.28,0.85 -7.75,9.02 6.14,11.34z"/>
   <path class="fil1" d="M538.29 839.74c-3.61,-33.03 -10.66,-60.22 15.27,-76.92 14.97,-9.64 68.71,-16.69 81.37,-2.81 -17.24,1.46 -27.3,-3.55 -34.15,6.42 12.05,0.11 37.36,-3 46.67,4.56 8.48,6.89 3.09,7.88 2.92,8.06 -7,5.53 -29.52,-2.38 -40.63,-1.29 -13.92,1.37 -22.44,8.47 -37.06,10.24l8.05 -16.01c-8.04,1.83 -8.32,4.78 -12.14,10.03l-2.09 12.41c17.05,-1.56 26.64,-9.54 44.79,-9.87 10.17,-0.19 31.87,2.7 40.25,-1.04 7.88,-3.52 1.94,-0.89 6.23,-7.35l3.47 -6.77c6.6,-0.23 4.25,-0.22 10.04,2.59 0.05,-18.38 -71.09,-30.8 -106.7,-20.43 -17.43,5.08 -28.23,16.39 -33.59,33.34 -3,9.51 -4.2,19.93 -3.24,30.43 0.95,10.49 2.81,19.88 10.54,24.41z"/>
   <path class="fil1" d="M1427.47 437.56l1.75 -6.14 8.32 2.9c0.08,0.74 0.11,3.05 0.12,4.06 14.81,-8.33 3.74,-8.02 25.89,-17.57 5.34,-2.31 7.01,-3.41 8.74,-7.16l-20.54 4.61c-3.55,-21.92 19.32,-31.69 38.9,-34.16 26.02,-3.29 35.72,12.16 40.91,33.11 5.75,23.18 3.17,43.64 -7.94,61.96 -13.43,22.15 -33.54,29.36 -38.03,36.3 19.73,-7.79 34.45,-17.94 43.71,-37.47 25.56,-53.84 -3.78,-133.44 -71.63,-83.68 -14.51,10.64 -10.45,8.74 -12.07,29.06 -7.63,2.45 -29.97,4.84 -18.13,14.18z"/>
   <path class="fil1" d="M1287.92 1163.01c-11.22,4.71 -20.26,10.1 -30.81,14.99 -8.94,4.13 -27.3,9.55 -31.67,17.46 13.62,-1.52 35.47,-13.32 47.08,-18.83 5.43,3.53 10.1,12.3 27.89,8.58l9.32 -4.87c-11.92,1.24 -13.23,3.47 -25.87,1.16 4.48,-14.92 19.17,-8.41 27.59,-16.88 -7.9,-6.61 -12.29,-4.96 -23.53,-1.61z"/>
   <path class="fil1" d="M1407.67 1239.85c2.17,5.47 11.65,1.57 20.83,5.53 0.73,12.85 -8.52,9.26 -19.85,13.79 -4.74,1.89 -21.03,9.16 -24.41,11.59 23.74,14.92 12.05,4.18 29.93,7.65l0.22 9.14c6.32,-2.75 4.74,-3.69 4.32,-12.04 -7.56,-2.41 -11.35,-1.8 -19.89,-2.31 2.35,-18.13 29.23,-6.55 35.12,-24.21l0.76 -11.32 -21.2 -0.42c-1.78,1.83 1.53,1.55 -5.83,2.6z"/>
   <path class="fil1" d="M1189.03 888.69c1.33,-8.49 3.93,-9.17 13.04,-9.87l-2.1 8.52 -10.94 1.35zm-3.93 4.04c15.71,1.72 24.74,2.35 19.76,-16.47l-13.69 -1.04c-5.25,6.74 -6,7.47 -6.07,17.51z"/>
   <path class="fil1" d="M1053.98 542.7l9.01 -1.82c3.1,4.51 1.27,4.86 5.99,9.05l-3.69 -20.97c-8.89,-1.01 -8.33,-1.54 -15.87,1.77 0.55,7.14 2.77,5.06 4.56,11.97z"/>
   <path class="fil1" d="M1344.66 789.04l0.72 10.14 11.99 0.07c5.62,-13.55 0.4,-19.23 -12.71,-10.21z"/>
   <path class="fil1" d="M997.79 970.66c10.03,-2.24 4.53,-4.77 9.76,-11.39 6.17,-7.82 5.65,-1.42 7.36,-16.43 -9.85,5.96 -13.96,14.43 -17.12,27.82z"/>
   <path class="fil1" d="M1134.19 727.16l9.74 3.24c0.29,-11.42 0.69,-14.1 -7.07,-17.58 -4.16,4.92 -4.04,8 -2.67,14.34z"/>
   <path class="fil1" d="M981.97 985.8c8.26,-3.1 14.21,-7.28 15.43,-15.69 -11.05,5.52 -12.21,3.72 -15.43,15.69z"/>
   <path class="fil2" d="M1423.54 1082.07c1.86,10.82 2.55,10.19 9.93,15.65 4.79,3.54 7.85,7.98 4.22,15.16 -3.86,4.14 -25.95,-0.02 -36.17,-5.54 -11.04,-5.96 -24.91,-4.85 -28.01,-16.99 -11.31,-6.5 -1.29,-11.98 -18.89,-14.44 -0.62,24.29 18.49,34.36 34.44,43.21l-2.79 14.16 7.7 -1.91 6.57 -15.39c20.3,-2.67 40.81,15.7 46.41,-9.85 6.3,21.55 -23.74,20.16 -37.55,19.77l2.1 14.27c-18.19,1.12 -14.37,2.2 -10.41,15.61 3.98,13.45 -1.65,18 15.73,18.73 -2.95,-14.23 -3.73,-1.74 1.56,-13.74 -7.64,-6.29 -7.3,-1.42 -3.01,-12.29 6.23,0.63 7.1,3.09 12.41,5.86 -3.46,-10.23 -6.89,-11.77 -5.95,-24.37 16.42,-3.65 20.67,0.98 30.77,-9.89l-1.6 -34.56c16.34,-10.61 11.13,-10.03 21.48,-20.66 0.2,-0.21 0.63,-0.65 0.97,-0.95l0 -1.05c4.36,-10.36 11.82,-16.07 18.84,-22.4 5.96,-5.38 13.78,-15.88 20.65,-19.54 23.2,16.64 1.14,40.73 -5.12,58.41l8.46 -1.83c10.35,18.88 -46.5,57.07 -59.44,71.84 -6.2,7.08 -14.22,16.7 -17.21,26.89 5.3,6.87 14.49,9.98 25.23,10.12 6.33,-5.23 13,-13.49 18.78,-20.49l18.3 -21.68 -8.73 -1.67c-1.28,-12.35 48.28,-58.64 57.47,-86.67 3.57,-10.9 1.88,-19.19 -8.32,-24 -7.48,-3.53 -5.43,1.18 -8.25,-6.77 -3,-5.83 -4.96,-4.95 -0.56,-10.88 2.69,2.09 1.18,-2.31 2.89,2.25 7.6,0.06 4.3,-0.58 5.64,-1.68l-5.47 -13.5c3.37,-2.37 -0.71,-1.69 5.72,-1.48 -2.78,-10.84 -4.9,-15.02 -15.65,-18.09 -4.66,3.32 -18.33,22.64 -21.26,27.27 -4.24,6.7 -34.9,34.5 -36.87,36.98 -3.78,4.78 -5.11,11.78 -9.07,16.7 -8.75,10.87 -15.7,3.97 -13.61,36.85 -17.38,-9.91 -12.19,-13.85 -22.33,-17.42z"/>
   <path class="fil2" d="M440.88 824.77c-22.84,7.25 -43.26,14.35 -59.66,28.47 -42.03,36.19 -67.93,104.77 -55.87,162.48 2.71,12.97 8.99,25.17 7.02,39.15 7.4,6.02 7.53,29.53 8.54,39.11 4.13,2.62 3.47,2.99 7.58,5.56l-6.8 -37.6c2.08,2.17 2.47,2.85 4.19,5.13 1.08,1.44 1.28,1.71 2.33,2.9 0.27,0.31 0.61,0.69 0.88,0.99l3.01 3.01 -2.54 -15.95c-9.05,-47.86 -23.53,-63.68 -1.01,-125.77 3.77,-10.41 8.11,-13.62 12.58,-25.2 8.08,-20.94 33.22,-55.41 54.39,-57.95 10.52,-12.69 35.55,-16.52 55.03,-16.51 10.56,0 20.96,1.3 30.75,3.67 13.28,3.21 15.56,6.65 24.19,11.82 -7.07,-15.81 -6.66,-12.26 -25.06,-14.73 24.19,-11.59 16.53,-5.67 18.09,-38.46l-0.45 -15.58c-1.06,-3.79 -0.83,-2.95 -2.23,-5.03 0.2,4.5 -0.31,39.4 -2.14,44.44 -4.3,11.91 -23.72,2.87 -36.38,2.17 -14.06,-0.79 -23.38,2.14 -36.44,3.88z"/>
   <path class="fil2" d="M1068.19 648.58c-8.77,4.87 -22.66,17.22 -10.33,31.38 7.46,3.03 11.22,-0.9 19.26,-2.67 0.52,10.67 0.52,21.04 0.62,31.71 0.34,33.67 -11.85,12.56 -12.68,34.48 -1.04,27.02 10.49,17.68 6.57,38.07 -22.65,-4.53 -18.14,-34.35 -33.16,-41.49 -7.02,16.13 -0.82,29.5 9.33,36.52l-0.26 -7.27c7.47,3.42 8.88,14.23 17.99,18.05 7.78,3.26 9.33,0.1 16.59,2.25 5.97,1.76 5.68,4.19 13.37,6.45 -6.68,-20.99 -13.02,-5.81 -10.62,-42.48 0.67,-10.2 2.25,-45.02 4.84,-52.27 4.11,-11.48 6.27,-2.36 6.13,-21.47 -0.06,-9.75 -0.02,-19.5 0,-29.25 0.04,-18.98 0.06,-37.96 0.09,-56.94 17.09,-10.22 44.73,-15.69 49.36,-28.95 -9.96,-7.54 -26.84,-5.19 -39.94,-5.27 1.87,-20.25 19.23,-26.75 25.15,-43.4 -9.69,0.94 -17.27,12.67 -22.66,19.63 -7.58,9.79 -9.7,18.25 -8.72,34.01 15.29,-0.32 14.25,-6.29 33.35,-2.12l-2.31 1.91c-19.41,12.42 -39.14,2.75 -41.96,36.39 -2.23,26.62 2.4,54.44 -0.4,81.56 -3.62,-7.03 -5.44,-10.11 -8.63,-18.67 -14.85,0.37 -8.6,5.68 -18.95,3.54 -2.08,-10.73 4.65,-13.05 7.97,-23.7z"/>
   <path class="fil2" d="M1.72 817.75c27.46,0.22 149.94,-7.03 178.63,-24.62 5.2,-3.18 1.72,-0.66 4.16,-3.43 -16.06,-0.16 -24.04,9.36 -37.76,2.68 13.84,-8.22 64.21,-18.71 77.85,-23.61l55.25 -22.04c6.63,-2.53 12.92,-3.05 12.09,-11.97 -7.78,2.38 -10.67,3.39 -17.2,6.84 -27.23,14.41 -16.47,8.69 -47.83,19.15l-33.83 10.82c-23.72,6.24 -6.57,-0.66 -34.32,10.33 -19.57,7.76 -50.58,13.1 -73.38,15.93 -7.25,0.9 -14.07,1.82 -20.17,2.16 -9.15,0.5 -12.54,1.58 -20.5,1.82 -7.35,0.22 -15.07,-0.21 -22.45,-0.12 -8.6,0.1 -11.92,1.78 -20.54,1.78l0 14.28z"/>
   <path class="fil2" d="M1433.94 1248.99c-5.89,17.66 -32.77,6.08 -35.12,24.21 8.54,0.51 12.33,-0.1 19.89,2.31 0.42,8.35 2,9.29 -4.32,12.04l-1.06 5.51 -5.9 0.56c-5.04,9.15 -5.04,3.39 -11.3,10.15 17.02,1.52 22.08,-0.87 26.67,-17.03l0.51 5.05 5.49 -2.17c1.96,-4.43 0.91,-2.58 2.22,-8.04 1.19,-4.99 2.26,-5.6 1.74,-10.87 1.23,-1.86 2.81,-4.71 3.78,-6.02 5.44,-7.33 6.01,-3.49 6.01,-20.09 -3.74,1.44 -6.07,2.89 -8.61,4.39z"/>
   <path class="fil2" d="M580.73 771.99l-8.05 16.01c14.62,-1.77 23.14,-8.87 37.06,-10.24 11.11,-1.09 33.63,6.82 40.63,1.29 0.17,-0.18 5.56,-1.17 -2.92,-8.06 -9.31,-7.56 -34.62,-4.45 -46.67,-4.56 -10.52,0.88 -11.62,0.91 -20.05,5.56z"/>
   <path class="fil2" d="M1131.83 921.34c-3.81,2.13 -2.98,1.04 -5.32,5.43l-1.64 10.47c17.02,-3.22 9.96,-9.3 24.09,-16.62 7.92,-1.78 28.98,-24 26.17,-36.09l-5.97 0.06c-5.11,10.6 -7.67,14.1 -16.49,20.59 -8.03,5.92 -10.21,11.24 -20.84,16.16z"/>
   <path class="fil2" d="M1002.92 554.31c13.87,-0.86 15.05,-2.08 26.14,-6.47 9.06,-3.58 16.5,-2.05 24.92,-5.14 -1.79,-6.91 -4.01,-4.83 -4.56,-11.97 7.54,-3.31 6.98,-2.78 15.87,-1.77 -4.63,-8.74 -21.14,-4.23 -28.47,-2.15 0.37,6.09 2.23,8.51 3.94,12.12 -8.8,4.68 -29.43,7.72 -37.84,15.38z"/>
   <path class="fil3" d="M1087.44 961.21c-0.97,-6.27 -0.3,-8.32 0.16,-14.81 1.58,0.63 14,9.63 16.31,11.67 -4.08,7.25 -8.94,9.68 -12.9,17.9l-3.57 -14.76zm-20.64 -55.84c8.95,-2.99 24.81,-6.65 33.42,-2.06 0.79,1.24 3.04,0.63 0.31,6.11 -2.26,4.53 -2.73,3.57 -5.9,5.4 -2.61,10.2 -8.13,14.99 -10.93,24.59 -4.76,16.33 2.72,18.58 1.19,30 -1.25,9.34 -5.91,22.19 0.71,29.57 9.16,10.22 21.47,-3.41 25.86,12.47 9.9,14.67 19.14,7.12 33.74,10.4 7.73,1.73 4.44,5.77 13.75,8.69 6.07,1.91 12.98,1.18 19.24,-0.03 30.44,-5.87 100.87,-39.52 126.84,-55.4 25.7,-15.72 38.81,6.94 66.07,12.53l-14.62 -12.18c-7.74,-4.33 -9.87,-4.17 -16.28,-10.25 30.87,-2.7 123.21,21.87 132.76,-6.17 -21.61,8.75 -104.53,11.25 -122.46,-0.43l-19.05 -2.4c1.64,-15.58 10.35,-7.81 12.38,-24.12 -17.57,-5.28 -22.32,11.57 -31.77,20.87 -15.5,15.26 -89.09,52.87 -112.36,58.23 -3.6,1.89 -11.06,5.33 -15.33,6.5 -11.07,3.03 -17.58,0.8 -19.65,0.11l-2.8 -1.32c0.65,-9.08 1.73,-7.16 10.01,-11.33 5.21,-2.63 8.09,-4.3 14.07,-6.17 5.24,-5.15 16.27,-10.26 23.72,-14.4 7.87,-4.36 20.56,-8.34 24.53,-14.48l-3.23 -6.52c-10.98,-2.36 -24.46,10.72 -34.41,16.47l-34.91 17.36c-2.42,4.96 -2.07,4.54 -7.74,7.03 -18.88,8.28 -21.7,9.42 -30.83,1.93 -0.08,-10.49 4.67,-14.7 12.19,-18.17 5.06,-3.2 11.65,-9.4 16.66,-13.28 6.44,-5 11.68,-8.32 18.03,-12.89 12.09,-8.69 23.43,-17.17 36.6,-24.72 4.26,-9 5.46,-1.73 5.4,-13.78 -10.61,-4.55 -23.02,9.76 -28.02,14.7 -9.66,9.53 -17.95,11.05 -28.37,19.7 -8.48,7.02 -17.32,12.79 -26.65,19.74 -6.5,4.83 -21.43,19.43 -33.33,11.18 -7.96,-8.5 15.14,-31.68 21.14,-37.08 11.17,-10.08 25.65,-17.39 32.18,-31.15 -14.13,7.32 -7.07,13.4 -24.09,16.62l1.64 -10.47c-9.63,7.8 -12.27,18.67 -31.14,21.36 2.87,-24.82 20.16,-31.31 20.01,-47.61 -10.37,1.57 -37.74,-13.07 -48.58,4.85z"/>
   <path class="fil3" d="M1257.57 702.16c12.38,-23.68 -2.11,-30.69 -6.47,-45.56 -1.87,-6.37 -2.81,-11.62 -4.58,-17.82 -5.63,-19.76 -14.22,-49.78 -33.8,-50.21 -1.7,16.8 15.24,28.58 18.85,60.3 2.72,23.96 0.67,51.5 26,53.29z"/>
   <path class="fil3" d="M1001.11 902.83c-2.65,5.99 -8.44,6.69 -16.1,9.88 -24.01,10.02 -28.98,-4.57 -39.64,-0.09 -5.02,2.1 -7.52,10.31 -1.65,13.45 16.46,8.79 69.82,-15.06 81.06,-14.48 -0.03,11.77 0.29,13.86 -8.13,19.06l-0.83 11.72c7.12,-6.02 18.81,-27.19 20.2,-38.37l-9.14 -3.93c9.63,-12.3 15.6,-6.43 21.44,-27.42 -7.93,3.97 -11.66,11.96 -20.18,17.89 -6.7,4.67 -17.29,11.3 -27.03,12.29z"/>
   <path class="fil3" d="M561.14 868.69c8.12,21.19 63.2,8.75 81.13,6.69 4.87,5.05 7.36,9.27 13.32,15.69 -1.34,-9.67 -2.51,-9.17 4.9,-14.36 5.18,-3.62 8.02,-5.56 13.74,-7.42 0.76,-4.64 3.17,-10.05 4.64,-16.31 -16.72,2.13 -32.39,15.14 -52.33,20.56 -25.86,7.02 -42.18,-1.64 -65.4,-4.85z"/>
   <path class="fil3" d="M1114.67 883.07l7.36 -0.19c0.88,5.89 -3.8,9.67 -6.65,17.64 9.84,-2.72 19.04,-14.44 25.65,-22.41 3.46,-4.17 7.48,-8.77 10.9,-13.17 4.59,-5.91 7.81,-8.34 12.08,-13.34l0.89 -7.25c-12.2,-0.55 -21.98,10.51 -29.07,16.5 -5.47,4.62 -18.52,14.45 -21.16,22.22z"/>
   <path class="fil3" d="M1403.69 1060.16c4.96,2.98 5.79,5.46 8.88,10.3 3.93,6.18 3.96,8.88 10.47,11.22l-4.82 -12.42c9.27,0.1 12.56,2.67 19.21,-2.91 4.42,-3.7 7.39,-8.38 9.72,-15.69 -12.52,4.62 -6.29,12.37 -21.38,9.9 -4.59,-4.23 -7.65,-11.25 -9.39,-19.77 -3.2,-8.35 -6.39,-10.89 -16.48,-10.45l3.79 29.82z"/>
   <path class="fil3" d="M1131.83 921.34c10.63,-4.92 12.81,-10.24 20.84,-16.16 8.82,-6.49 11.38,-9.99 16.49,-20.59l5.97 -0.06 -2.65 -6.54c-7.9,0.37 -3.8,3.95 -19.22,20.88 -7.05,7.74 -17.3,12.18 -21.43,22.47z"/>
   <path class="fil3" d="M703.22 939.39c-4.86,-8.32 -13.68,-13.16 -22.91,-22.76l-9.32 -7.2c2.49,5.47 8.95,13.79 12.57,17.7 5.66,6.12 9.67,10.93 19.66,12.26z"/>
   <path class="fil3" d="M1199.97 887.34l2.1 -8.52c-9.11,0.7 -11.71,1.38 -13.04,9.87l10.94 -1.35z"/>
   <path class="fil4" d="M669.89 1170.53c-24.28,6.71 -53.86,12.86 -78.88,17.89 -30.31,6.09 -62.44,1.62 -92.63,5.13 0.11,26.24 35.05,93.73 46.37,116.27 8.45,16.82 18.21,39.93 27.58,54.89 5.24,8.36 3.49,4.62 9.8,10.81 5.56,5.46 11.77,17.33 17.75,23.47 4.63,4.76 4.96,3.82 9.27,9.66 7.56,10.25 11.55,12.21 20.29,20.89 7.36,7.31 11.64,17.68 18.62,22.67 30.35,21.7 196.52,9.7 211.83,-8.8 -86.11,12.26 -51.22,13.27 -145.14,10.42l-2.03 -16.49c16.2,-13.18 14.01,-13.52 13.53,-46.71l-12.28 -4.01 -2.75 -20.22c-12.11,-0.64 -17.4,-3.54 -27.71,-4.91 -9.91,-1.32 -20.26,-0.37 -30.26,-0.58 -3.14,-4.44 -5.7,-10.48 -7.64,-16.56 -15.76,-1.28 -34.5,-1.92 -49.12,2.48 1.06,17.87 31.32,24.67 19.64,52.37 -11.14,-2.81 -26.98,-28.3 -34.04,-37.38 -21.52,-27.68 -36.43,-59.96 -48.52,-94.05 -2.11,-5.95 -21.68,-38.46 -8.07,-55.65 6.04,2.87 3.48,1.34 6.87,6.99 0.29,-0.26 0.59,-0.74 0.76,-0.92 6.39,-6.58 6.92,-4.47 20.73,-5.15 59.6,-2.92 28.44,-23.24 110.74,-20.61 6.66,0.21 17.83,-0.94 24.13,-2.42 15.27,-3.59 -0.58,-5.89 17.08,-9.21 5.8,4.02 7.08,7.22 8.9,16.12 1.94,9.45 3.83,8.46 11.39,13.66 -1.6,-11.27 -6.65,-22.08 -11.4,-30.57 -5.09,-2.57 -4.81,-3.09 -8.78,-7.31 -2.66,-2.82 -4.14,-4.32 -7.07,-7.49l-28.96 5.32z"/>
   <path class="fil4" d="M1114.67 883.07c2.64,-7.77 15.69,-17.6 21.16,-22.22 7.09,-5.99 16.87,-17.05 29.07,-16.5l-0.89 7.25c19.88,-14.77 21.12,-3.55 63.86,-2.95 56.45,0.8 26.55,-0.79 66.82,-7.67 11.02,-1.89 19.73,-1.28 27.84,-8.1 12.13,-10.2 -1.65,-17.09 58.24,-16.12 10.86,0.18 23.92,4.92 32.58,2.75 7.78,-5.01 9.09,-15.44 -0.52,-20.63 -10,-5.4 -17.77,-0.93 -25.02,-9.28 41.58,-3.93 31.45,11.74 96.85,-23.02 3.19,-1.69 4.27,-2.04 7.44,-4.63 5.95,-4.87 1.11,-3.8 7.45,-4.83 16.42,-2.67 8.02,30.36 6.37,39.23 -2.32,12.54 -3.51,29.57 -6.85,41.23 -0.02,0.07 -1.34,3.95 -1.35,3.98 -3.11,6.67 -3.83,1.42 -5.3,13.28 -0.96,7.71 -2.15,14.42 -3.88,22.03l-20.07 78.15c-29.95,9.33 -93.49,2.34 -117.97,3.59 17.93,11.68 100.85,9.18 122.46,0.43 7.4,-28.98 54.57,-188.94 36.55,-205.76 -7.96,-4.57 -70.96,14.85 -99.63,17.18 -29.99,2.44 -41.87,-1.11 -34.1,24.55 14.17,5.7 31.54,0.2 35.94,15.33 -8.16,8.08 -28.51,2.09 -41.29,2.01 -86.85,-0.49 -7.09,21.74 -123.66,28.51 -13.29,0.77 -36.33,1.66 -48.89,-0.85 -12.13,-2.43 -10.07,0.12 -21.11,-0.96 -8.74,-0.85 -11.78,-4.73 -22.77,-3.52 -12.25,1.34 -25.78,9.56 -35.17,15.16 -11.79,7.03 -24.39,9.42 -23.73,28.37 5.63,3.25 11.6,3.06 19.57,4.01z"/>
   <path class="fil4" d="M568.59 782.02c-4.71,1.37 -6.71,15.55 -9.54,27.51 -3.77,15.89 11.49,59.23 55.99,49.14 23.98,-5.44 32.53,-10.45 42.15,-29.94 4.27,-8.67 19,-26.62 5.26,-42.19 -3.69,-4.17 0.59,1.96 -2.6,-2.56 -3.01,-4.29 -1.98,-2.76 -2.08,-7.81 -4.29,6.46 1.65,3.83 -6.23,7.35 -8.38,3.74 -30.08,0.85 -40.25,1.04 -18.15,0.33 -27.74,8.31 -44.79,9.87l2.09 -12.41z"/>
   <path class="fil4" d="M1481.98 412.14c8.12,-0.54 15.83,-1.47 21.97,1.46 1.6,21.66 -17.48,-7.71 -59.27,34.72 -21.48,21.8 -14.17,25.34 -13.93,52.88 0.1,11.68 -2,13.11 6.82,17.63l-1.88 -20.7 39.47 1.02c5.68,-6.88 1.1,-5.52 11.21,-9.23 12.85,-4.7 28.94,-34.15 29.49,-35.87 2.74,-8.55 -2.85,-27.47 -5.75,-35.99 -2.8,-8.2 -3.5,-8.34 -12.28,-10.09 -8,-1.59 -12.4,-3.21 -15.85,4.17z"/>
   <path class="fil4" d="M1348.78 1323.31c-0.89,-11.62 4.39,-13.01 15.68,-10.57 0.66,13.21 -4.19,14.93 -15.68,10.57zm-231.19 50.79l71.37 -18.56c35.24,-8.28 39.93,-9.48 78.4,-7.06 27.14,1.71 58.71,4.01 85.18,-1.29 19.28,-3.86 51.59,-16.32 53.89,-32.58 -9.8,-0.65 -19.3,1.7 -24.64,-6.11 1.84,-3.4 2.04,-4.4 7.03,-5.86 3.96,-1.16 4.79,-2.1 7.31,1.13 6.26,-6.76 6.26,-1 11.3,-10.15 -7.36,1.78 -14.3,2.42 -20.96,5.22 -7.72,3.25 -11.05,8.76 -16.28,9.66 -7.83,1.36 -16.24,-2.84 -23.09,2.56 -2.23,1.75 -3.65,4.39 -3.85,7.9 -1.02,17.5 20.81,13.5 28.12,1.22 5.53,0.37 10.07,0.12 14.49,3.78 -7.55,22.44 -89.71,22.17 -106.54,20.8 -19.68,-1.59 -39.97,-4.62 -60.09,-3.37 -17.71,1.1 -38.78,17.06 -48.44,-0.25 4.1,-6.38 17.84,-11.68 27.14,-13.01 -11.11,-4.86 -45.82,2.18 -61.01,3.01l-7.1 14.78c10.25,6.94 24.07,0.4 29.72,10.68l-5.58 2.06c-13.19,2.81 -7.67,-2.5 -28.17,7.45 -7.77,3.78 -4.53,-0.07 -8.2,7.99z"/>
   <path class="fil4" d="M1048.48 989.52l14.93 0.17 2.6 -18.72c9.04,2.62 6.13,15.05 6.21,24.78 24.44,18.6 24.63,9.72 39.24,15.7 -4.39,-15.88 -16.7,-2.25 -25.86,-12.47 -6.62,-7.38 -1.96,-20.23 -0.71,-29.57 1.53,-11.42 -5.95,-13.67 -1.19,-30 2.8,-9.6 8.32,-14.39 10.93,-24.59l1.09 -9.19c-42.17,-3.4 -19.27,40.64 -36.21,60.94 -7,8.38 -6.08,11.91 -11.03,22.95z"/>
   <path class="fil4" d="M655.59 891.07c4.62,5.52 12.84,14.69 15.4,18.36l9.32 7.2c9.23,9.6 18.05,14.44 22.91,22.76 7.3,3.77 15.79,6.83 24.76,11.97 8.05,4.6 16.32,9.99 25.41,14.11 15.31,6.93 46.01,14.16 64.31,15.95 -1.64,-3.77 1.5,-4.09 -13.02,-8.83l-50.78 -14.05 -2.88 -7.55c-0.1,-0.23 -0.28,-0.79 -0.56,-1.08 -13.24,3.04 -7.62,4.59 -27.59,-10.6l-51.25 -39.81c-9.92,-10.2 -5.72,-18.21 2.61,-30.21 -5.72,1.86 -8.56,3.8 -13.74,7.42 -7.41,5.19 -6.24,4.69 -4.9,14.36z"/>
   <path class="fil4" d="M1152.72 475.96c1.75,3.65 2.77,12.04 2.1,17.65 -1.22,10.31 -4.01,6.64 -6.62,16.41 28.25,-3.73 -3.71,-15.94 35.39,-19.01l3.84 -8.86c14.84,-0.14 40.71,-0.66 48.25,-11.46 -15.65,2.58 -31.1,4.18 -47.19,2.59 -7.77,-0.76 -34.47,-6.32 -38.52,-5.35l2.75 8.03z"/>
   <path class="fil4" d="M1016.65 930.65c8.42,-5.2 8.1,-7.29 8.13,-19.06 -11.24,-0.58 -64.6,23.27 -81.06,14.48 -5.87,-3.14 -3.37,-11.35 1.65,-13.45 10.66,-4.48 15.63,10.11 39.64,0.09 7.66,-3.19 13.45,-3.89 16.1,-9.88 -17.92,2.78 -17.86,14.72 -40.61,6.6 -16.51,-5.88 -19.94,-1.5 -29.04,16.97 43.46,11.71 44.71,2.51 56.75,-0.33 3.8,-0.9 8.06,-0.99 11.99,-1.68 10.01,-1.75 11.78,-5.26 20.59,-7.79l-4.14 14.05z"/>
   <path class="fil4" d="M1373.92 1271.95l-1.87 17.33 -15.34 -0.27c-2.39,-15.97 5.94,-13.69 17.21,-17.06zm0 0c-6.43,-5.98 -15.6,0.26 -26.52,1.45l2.87 17.06c13.04,5.34 17.06,4.05 28.32,-0.79 0.21,-10.83 1.65,-13.3 -4.67,-17.72z"/>
   <path class="fil4" d="M1387.15 1248.85c-7.17,1.48 -13.22,4.32 -22.1,2.97 -0.23,-16.01 7.17,-14.58 21.29,-13.48l-0.92 -6.11c-17.54,-0.41 -28.92,1.39 -27.05,20.24 11.07,7.65 12.76,5.13 26.89,3.77l1.89 -7.39z"/>
   <path class="fil4" d="M1206.61 937.31l7.53 -0.66 2.42 5.46c1.32,3.22 -0.57,1.3 2.73,5.59 8.26,0.53 9.32,-0.23 11.73,-6.14 -11.99,1.1 -8.81,-7.69 -5.93,-15.87l-7.52 1.79c-0.39,-0.22 -1,-0.98 -1.17,-0.65l-4.39 -3.3c0.06,12.05 -1.14,4.78 -5.4,13.78z"/>
   <path class="fil5" d="M741.88 1195.75c-2.7,-13.57 -6.87,-11.02 -6.87,-28.11 8.27,-5.54 16.26,-10.43 24.54,-16.67l48.96 -36.92c8.58,-5.68 16.56,-12.68 25.48,-17.45 17.53,-9.37 129.18,-13.51 161.62,-9.26l71.23 12.91c11.85,2.82 21.61,5.95 34.67,8.27 44.79,7.96 67.05,15.56 105.58,23.22l74.02 11.85 -3.44 11.22c45.31,-29.66 47,7.4 70.4,6.49 10.08,-0.39 22.26,-1.77 31.32,-3.72 -2.38,-14.8 -3.03,-0.82 -28.75,-23.43 -9.21,-8.09 -24.24,-11.93 -38.05,-15.26 -15.77,-3.79 -25.86,-7.41 -43.42,-8.28 -9.21,-0.46 -32.83,-7.01 -43.65,-9.23 -68.96,-14.14 -116.26,-0.94 -176.91,-34.44 -7.24,-3.99 -26.94,-17.15 -33.77,-17.29 -22.28,-0.49 -42.89,16.65 -144.08,12.17 -15.61,-0.7 -31.31,-1.65 -46.56,-3.72 -18.91,-2.57 -29.26,-12.54 -40.17,2.27 -8.42,11.42 -13.87,21.12 -23.01,30.23l-24.67 28.95c-0.94,8.28 0.47,14.46 -0.01,22.25 -0.71,11.37 -4.32,8.82 -9.43,13.83 -4.81,9.07 5.41,34.13 14.97,40.12z"/>
   <path class="fil5" d="M566.71 1391.24c6.86,19.4 35.53,44.49 52.27,57.37 23.8,18.3 8.03,31.95 68.4,39.8 1.31,0.17 2.7,0.32 4.16,0.46l53.05 0c50.56,-2.45 114.38,-9.71 144.5,-14.22 10.5,-1.57 18.2,-5.46 29.69,-6.37 70.39,-5.55 122.44,-20.61 185.45,-30.94 47.91,-7.86 35.69,-12.48 71.92,-17.39 6.7,-0.9 7.62,-3.11 13.08,-5.81l80.6 -27.59c51.85,-11.95 91.11,-10.7 136.18,-44.15 7.63,-5.67 13.51,-10.54 15.51,-20.56l7.28 -32.22 -5.49 2.17c-8.69,34.18 -7.97,38.11 -23.84,47.5 -77.06,45.6 -79,11.53 -182.25,27.21 -61.15,9.29 -62.96,15.52 -113.01,29.54 -37.54,10.51 -67.98,26.69 -104.87,36.06 -80.94,20.55 -145.92,47.35 -236.85,48.67 -23.41,0.33 -47.72,-0.45 -71.13,-1.42 -29.66,-1.23 -37.97,-0.44 -52.61,-17.92 -12.1,-14.44 -38.81,-37.97 -53.23,-53.23 -14.95,-15.81 0.04,-4.64 -18.81,-16.96z"/>
   <path class="fil5" d="M525.17 1317.09l-5.15 -8.99 -32.68 3.2 6.77 -11.25c-13.17,-12.25 -26.39,-12.32 -48.34,-9.4 0.29,0.1 5,2.17 6.81,2.9 7.99,3.24 3.41,-1.34 7.4,4.77 -12.59,3.91 -15.98,-1.71 -27.45,-3.31 -18.75,-2.62 -66.29,10.34 -83.88,15.2 -38.44,10.63 -141.35,13.47 -187.26,11.81 -33.9,-1.23 -77.33,-12.45 -110.15,-21.9 -16.66,-4.79 -33.68,-12.79 -49.52,-16.55l0 45.55c43.46,0 51.15,6.76 96.47,11.71 51.99,5.69 56.43,2.95 102.75,5.45 110.35,5.97 159.29,-6.2 263.75,-21.3 28.53,-4.13 37.48,-15.43 60.48,-7.89z"/>
   <path class="fil5" d="M415.52 849.1c31.83,-6.81 62.24,-18.39 93.07,-2.96 10.07,5.04 18.39,20.93 25.53,29.49 25.99,31.16 46.35,10 66.6,44.99 21.42,37.02 18.42,27.38 40.08,71.63l22.73 34.72c-2.28,-16.64 -19.38,-44.64 -29.38,-64.2 -9.41,-18.38 -29.75,-35.84 -34.64,-60.09 13.37,2.3 5.16,3.68 16.33,9.12l-1.48 -12.08 19.62 -2.05c5.54,9.95 21.18,27.24 29.87,35.42 9.42,8.88 25.73,25.11 36.6,30.13 -7.25,-22.04 -41.88,-33.2 -55.12,-59.76 -6.98,-14.03 -7.09,-13.96 -24.34,-9.62 -46.69,11.74 -24.76,0.36 -42.31,-2.49 -9,-1.47 -8.45,0.12 -16.66,-4.18 -13.68,-7.17 -37.9,-21.63 -36.53,-39.09 -8.63,-5.17 -10.91,-8.61 -24.19,-11.82 -9.79,-2.37 -20.19,-3.67 -30.75,-3.67 -19.48,-0.01 -44.51,3.82 -55.03,16.51z"/>
   <path class="fil5" d="M1427.78 1154.34c2.39,2.59 0.15,0.95 4.77,1.27l42.9 -39.23c5.45,-5.05 8.23,-9.61 14.3,-14.92 -10.14,-3.77 -10.1,-5.21 -12.58,-14.84 -1.82,-7.07 -3.72,-14.5 -3.72,-22.71 -0.34,0.3 -0.77,0.74 -0.97,0.95 -10.35,10.63 -5.14,10.05 -21.48,20.66l1.6 34.56c-10.1,10.87 -14.35,6.24 -30.77,9.89 -0.94,12.6 2.49,14.14 5.95,24.37z"/>
   <path class="fil5" d="M1535.28 495.99c7.14,-4.49 10.35,-11.99 12.42,-20.2 7.61,-30.13 9.2,-57.52 -1.39,-83.6 -6.13,-15.09 -2.57,-14.78 -11.51,-19.41 -38.72,-20.03 -37.96,-5.63 -81.96,-5.63l-2.44 -35.35c-2.05,-13.63 -4.96,-84.98 -22.21,-95.2 1.41,17.41 9.12,26.09 14.45,66.94l4.58 55.11c0.36,11.52 -0.23,7.62 5.62,15.01 30.23,-0.52 61.61,-26.23 88.14,20.4 10.4,18.26 9.21,28.02 6.46,50.43 -5.56,45.33 -4.79,23.01 -12.16,51.5z"/>
   <path class="fil5" d="M459.94 1259.11c48.62,-7.64 26.23,-52.1 8.65,-54.91 -13.15,-2.1 -35.33,-1.5 -49.54,-2.12 -8.13,-0.35 -15.96,-0.74 -24.03,-1.33 -4.35,-0.31 -9.08,-0.58 -13.39,-1.08l-6.91 -1.45c-0.38,-0.16 -0.86,-0.45 -1.19,-0.61 -10.81,-5.27 -24.83,-81.69 -25.04,-98.07 -4.11,-2.57 -3.45,-2.94 -7.58,-5.56 1.66,22.52 7.41,49.72 12.27,70.79 7.44,32.21 6.01,38.62 40.28,41.63 14.83,1.3 68.77,1.58 77,6 5.43,2.91 15.13,17.43 10.77,27.73 -1.71,4.06 -6.56,7.44 -11.13,9.53 -7.91,3.61 -7.41,1.13 -10.16,9.45z"/>
   <path class="fil5" d="M1536.44 1016.44l1.88 7.59 -4.21 1.04c2.82,7.95 0.77,3.24 8.25,6.77 10.2,4.81 11.89,13.1 8.32,24 -9.19,28.03 -58.75,74.32 -57.47,86.67l8.73 1.67c3.96,-18.84 69.75,-69.09 58.19,-106.17 -2.26,-7.24 -6.3,-11.89 -9.78,-17.71 -5.15,-8.61 -5.04,-11.87 -8.02,-20.52 -6.43,-0.21 -2.35,-0.89 -5.72,1.48l5.47 13.5c-1.34,1.1 1.96,1.74 -5.64,1.68z"/>
   <path class="fil5" d="M1473.45 1062.86c4.63,0.38 4.67,0.8 8.58,1.72 1.39,-5.97 2.04,-8.64 6.09,-12.81 2.61,-2.68 8.49,-7.79 11.09,-9.52 4.82,7.2 12.36,20.52 6.7,32.44 -0.92,1.94 -6.8,9.21 -8.96,11.68 -5.16,5.92 -8.22,5.4 -7.2,15.09 4.57,-3.4 6.59,-5.44 10.09,-10.46 2.52,-3.62 5.13,-8.78 7.98,-11.67 6.26,-17.68 28.32,-41.77 5.12,-58.41 -6.87,3.66 -14.69,14.16 -20.65,19.54 -7.02,6.33 -14.48,12.04 -18.84,22.4z"/>
   <path class="fil5" d="M904.58 1014.03c8.24,9.38 29.76,4.26 41.73,4.6l12.39 3c-3.34,9.15 -7.89,12.42 -17.56,15.04l-2.35 6.09c11.25,-1.13 17.11,-4.03 29.35,-3.17 12.33,0.86 20.95,3.95 26.38,-4.82l-25.76 1.13c0.79,-4.71 4.04,-17.86 6.71,-21.1 4.49,-5.45 11.08,-4.41 15.84,-12.26 -15.73,2.73 -18.93,9 -38.2,10.35 -7.72,0.54 -14.89,1.8 -22.25,2.09 -8.98,0.35 -17.28,-1.22 -26.28,-0.95z"/>
   <path class="fil5" d="M416.81 1124.7c9.47,5.08 2.82,8.15 12.52,10.25 4.65,-8.69 -5.01,-16.92 -8.85,-23.71 -4.45,-7.84 -8.21,-16.82 -11.7,-24.78l-12.64 -28.15c-3.64,-7.72 0.08,-5.2 -8.47,-6.2 -1.6,9.13 1.49,10.72 4.74,18.46 2.75,6.57 2.55,14.86 5.08,20.69 3.16,7.28 6.21,5.21 10.66,15.15 3.82,8.53 4.19,11.48 8.66,18.29z"/>
   <path class="fil5" d="M1033.78 948.62c7.95,-3.11 5.4,-4.21 9.92,-10.92 0.36,9.5 -3.13,15.08 -4.66,24.35l1.91 -1.88c9.13,-10.91 12.72,-35.14 12.05,-48.24 -10.95,1.39 -8.77,3.76 -12.55,14.99 -2.38,7.07 -5.25,14.09 -6.67,21.7z"/>
   <path class="fil5" d="M732.16 1091.45l-11.61 1.33c-0.73,-8.8 0.89,-7.77 2.63,-14.46l-15.45 -9.1c2.82,13.1 6.78,27.12 17.39,31.11l5.42 -2.4 1.62 -6.48z"/>
   <path class="fil6" d="M1.72 1208.92l0 53.57c21.61,3.41 55.29,24.84 102.52,32.81 24.19,4.09 30.79,8.38 58.91,8.53 75.76,0.39 234.41,-21.79 296.79,-44.72 2.75,-8.32 2.25,-5.84 10.16,-9.45 4.57,-2.09 9.42,-5.47 11.13,-9.53 4.36,-10.3 -5.34,-24.82 -10.77,-27.73 -8.23,-4.42 -62.17,-4.7 -77,-6 -34.27,-3.01 -32.84,-9.42 -40.28,-41.63 -4.86,-21.07 -10.61,-48.27 -12.27,-70.79 -1.01,-9.58 -1.14,-33.09 -8.54,-39.11 0.22,23.13 9.83,92.12 15.39,117.25 4.39,19.85 6.66,15.08 2.97,38.27 7.52,0.73 15.66,0.91 23.13,6.05 3.05,2.1 0.67,-0.27 3.13,2.74 -2.01,4.01 -0.73,1.88 -3.72,4.19 -1.82,1.4 -2.23,1.21 -4.32,2.46 -15.1,9.03 -1.94,4.69 -26.41,16.48 -10.57,5.09 -31.32,17.81 -44.17,9.51 0.4,-0.25 1.05,-0.98 1.26,-0.61 0.48,0.85 12.62,-6.16 13.06,-11.42 -2.29,-7.67 -5.17,-6.47 -8.18,-14.17l-46.98 -2.57c-0.74,-20.95 -1.32,-16.77 -30.84,-17.08 -16.03,-0.17 -32.06,-0.2 -48.09,0.05 -23.89,0.37 -23.08,2.39 -42.15,-6.55 -10.67,-5 -32.16,-3.62 -36.46,-2.48 -0.48,0.13 -0.89,0.29 -1.35,0.45l-6.09 2.96c-5.44,-7.4 -7.86,-7.95 -20.42,-7.46 -31.78,1.24 -1.32,7.04 -31.91,11.7 -17.81,2.72 -6.49,4.28 -38.5,4.28z"/>
   <path class="fil6" d="M615.84 911.8c3.06,7.76 10.7,17.9 17.86,20.72l0.52 -6.68c19.23,23.77 25.1,20.68 31.58,29.32 13.25,17.65 12.86,15.87 37.77,24.04 7.49,2.45 3.84,2.54 10.15,5.34 12.63,5.61 77.44,19.05 84.37,24.96 -30.15,23.44 -27.82,13.89 -44.01,26.06 -11.61,8.73 -24.88,25.66 -39.68,30.17 -6.55,-4.84 -7.58,-13.35 -15.14,-20.04l3.71 22.28 4.76 1.25 15.45 9.1c-1.74,6.69 -3.36,5.66 -2.63,14.46l11.61 -1.33c4.62,-5.51 11.97,-10.88 17.25,-17.59 5.42,-6.87 11.37,-13.73 17.44,-20.36 5.41,-5.88 11.75,-14.08 17.24,-20.6 12.55,-14.91 11.5,-16.88 21.33,-16.73 1.69,6.86 -1.17,11.42 -1.73,17.49 7.23,4.39 17.36,4.34 26.21,4.36 -4.04,-4.24 -2.85,-4.23 -16.19,-4.28 0.05,-9.35 0.45,-14.68 5.45,-21.3 26.01,0.28 65.64,8.47 92.72,10.14 11.42,0.7 21.8,-1.43 33.31,0.1l-4.05 13.99c9.67,-2.62 14.22,-5.89 17.56,-15.04l-12.39 -3c-11.97,-0.34 -33.49,4.78 -41.73,-4.6 -38.86,-2.63 -77.46,-3.43 -113.68,-13.95 -15.73,-4.56 -33.36,-10.01 -47.52,-16.04 -9.72,-4.14 -35.3,-20.25 -42.93,-20.82 -10.87,-5.02 -27.18,-21.25 -36.6,-30.13 -8.69,-8.18 -24.33,-25.47 -29.87,-35.42l-19.62 2.05 1.48 12.08z"/>
   <path class="fil6" d="M352.1 1073.97c6.95,16.1 12.31,46.47 16.55,64.7 15.5,10.97 16.22,9.08 40.07,8.95 15.61,-0.09 31.52,-0.82 47.1,-1.8 17.93,-1.13 74.67,-3.59 84.93,-13.08 -33.7,2.67 -65.56,9.42 -101.12,7.34l-7.03 -19.33c4.44,-2.99 4.23,-1.85 5.87,-8.65 -10.32,-2.77 -12.39,0.67 -17.4,-8.36 -5.04,-9.07 -2.51,-10.18 -3.06,-19.18 -2.74,4.29 -4.13,2.86 -9.23,1.9 3.49,7.96 7.25,16.94 11.7,24.78 3.84,6.79 13.5,15.02 8.85,23.71 -9.7,-2.1 -3.05,-5.17 -12.52,-10.25 2.22,6.97 5.72,11.34 2.87,18.08 -6.8,1.26 -13.43,-1.06 -18.63,-5.24 -5.76,-4.63 -7.13,-8.91 -11.22,-13.11 -8.02,8.55 -2.64,5.74 -15.35,10.74 -3.61,-19.25 -11.58,-68.41 -24.92,-77.15l2.54 15.95z"/>
   <path class="fil6" d="M1425.39 680.2c15.54,-17.28 16.35,-70.4 15.6,-91.45 -0.43,-12 -2.73,-24.95 4.56,-30.85 -4.63,-6.17 -4.68,-3.54 -4.32,-15.01l31.51 0.09c17.26,42.01 32.22,101.23 37.89,149.47l4.32 1.24c-3.62,-30.61 -20.84,-117.49 -35.05,-145.76 -11.63,-23.13 -44.35,-11.32 -44.55,-11.12 -7.66,17.16 0.11,51.78 0.02,72.61 -0.1,24.86 -7.49,46.92 -9.98,70.78z"/>
   <path class="fil6" d="M1416.38 1040.79c1.74,8.52 4.8,15.54 9.39,19.77 15.09,2.47 8.86,-5.28 21.38,-9.9 9.15,-15.48 31.91,-29.64 36.17,-45.89 -11.59,-4.51 -23.89,-3.4 -36.8,-3.49 1.04,1.04 1.72,2.24 4.19,3.54 4.78,2.5 11.23,2.31 17.1,3.55 -4.2,25.33 -23.12,33.56 -51.43,32.42z"/>
   <path class="fil6" d="M1485.23 735.67c-29.95,3.34 -58.92,15.83 -89.1,16.67 3.61,-10.03 11.38,-17.53 16.97,-28.12 5.74,-10.91 8.22,-18.43 11.13,-32.09 -10.09,7.21 -11.72,18.58 -18.64,31.42 -5.31,9.87 -16.58,22.36 -18.65,33.39 21.01,0.09 67.29,-7.48 89.04,-14.45 7.3,-2.34 6.74,-1.89 9.25,-6.82z"/>
   <path class="fil6" d="M1465.35 1220.46l-0.56 5.59c17,-4.45 3.79,-19.96 14.9,-33.27 12.2,-14.62 26.76,-26.58 35.7,-38.15 5.47,-7.09 28.84,-27.76 30.18,-43.61 -9.69,3.26 -5.93,3.33 -11.42,10.86l-55.39 64.79c-10.96,12.09 -9.96,14.35 -13.41,33.79z"/>
   <path class="fil6" d="M440.88 824.77c13.06,-1.74 22.38,-4.67 36.44,-3.88 12.66,0.7 32.08,9.74 36.38,-2.17 1.83,-5.04 2.34,-39.94 2.14,-44.44 -2.83,-9.11 -3.2,-13.07 -12.66,-15.34 7.05,14.5 6.4,12.83 4.27,29.81 -1.34,10.68 0.31,21.24 0.78,31.95 -22.63,-0.31 -42.13,-4.96 -65.28,-1.86l-2.07 5.93z"/>
   <path class="fil6" d="M1373.51 1090.35c3.1,12.14 16.97,11.03 28.01,16.99 10.22,5.52 32.31,9.68 36.17,5.54 3.63,-7.18 0.57,-11.62 -4.22,-15.16 -7.38,-5.46 -8.07,-4.83 -9.93,-15.65l-0.5 -0.39c-6.51,-2.34 -6.54,-5.04 -10.47,-11.22 -3.09,-4.84 -3.92,-7.32 -8.88,-10.3 5.36,16.59 5.93,14.92 14.25,25.61 4.95,6.36 14.27,16.9 16.15,25 -29.54,-1.77 -36.3,-12.66 -60.58,-20.42z"/>
   <path class="fil6" d="M1161.7 997.41c-13.33,2.36 -18.1,10.54 -34.47,8.01 0.18,-8.22 4.84,-10.51 8.09,-17.22 -7.52,3.47 -12.27,7.68 -12.19,18.17 9.13,7.49 11.95,6.35 30.83,-1.93 5.67,-2.49 5.32,-2.07 7.74,-7.03z"/>
   <path class="fil6" d="M291.94 735.63c11.23,-3.08 23.27,-7.06 25.84,-18.05 -5.94,1.36 -9.17,2.68 -13.87,5.1 -3.04,1.56 -3.57,2.14 -6.27,4.03 -5.25,3.66 0.87,2.21 -7.41,2.9 1.47,2.62 0.95,2.02 1.71,6.02z"/>
   <path class="fil6" d="M1427.47 437.56l-0.96 10.55c10.81,-1.01 6.79,-1.28 11.15,-9.73 -0.01,-1.01 -0.04,-3.32 -0.12,-4.06l-8.32 -2.9 -1.75 6.14z"/>
   <path class="fil6" d="M1534.11 1025.07l4.21 -1.04 -1.88 -7.59c-1.71,-4.56 -0.2,-0.16 -2.89,-2.25 -4.4,5.93 -2.44,5.05 0.56,10.88z"/>
   <path class="fil7" d="M1373.92 1271.95c6.32,4.42 4.88,6.89 4.67,17.72 -11.26,4.84 -15.28,6.13 -28.32,0.79l-2.87 -17.06c10.92,-1.19 20.09,-7.43 26.52,-1.45zm12.42 -33.61l0.81 10.51 -1.89 7.39c-14.13,1.36 -15.82,3.88 -26.89,-3.77 -1.87,-18.85 9.51,-20.65 27.05,-20.24l0.92 6.11zm-160.9 -42.88l-101.06 33.55c-74.12,20.47 -170.23,19.93 -246.9,23.12 -46.41,1.93 -100.13,20.29 -115.28,18.77l-36.1 -60.32c-7.56,-5.2 -9.45,-4.21 -11.39,-13.66 -1.82,-8.9 -3.1,-12.1 -8.9,-16.12 -17.66,3.32 -1.81,5.62 -17.08,9.21 -6.3,1.48 -17.47,2.63 -24.13,2.42 -82.3,-2.63 -51.14,17.69 -110.74,20.61 -13.81,0.68 -14.34,-1.43 -20.73,5.15 -0.17,0.18 -0.47,0.66 -0.76,0.92 -3.39,-5.65 -0.83,-4.12 -6.87,-6.99 -13.61,17.19 5.96,49.7 8.07,55.65 12.09,34.09 27,66.37 48.52,94.05 7.06,9.08 22.9,34.57 34.04,37.38 11.68,-27.7 -18.58,-34.5 -19.64,-52.37 14.62,-4.4 33.36,-3.76 49.12,-2.48 1.94,6.08 4.5,12.12 7.64,16.56 10,0.21 20.35,-0.74 30.26,0.58 10.31,1.37 15.6,4.27 27.71,4.91l2.75 20.22 12.28 4.01c0.48,33.19 2.67,33.53 -13.53,46.71l2.03 16.49c93.92,2.85 59.03,1.84 145.14,-10.42 24.16,4.99 218.61,-59.28 257.7,-69.31 3.67,-8.06 0.43,-4.21 8.2,-7.99 20.5,-9.95 14.98,-4.64 28.17,-7.45l5.58 -2.06c-5.65,-10.28 -19.47,-3.74 -29.72,-10.68l7.1 -14.78c15.19,-0.83 49.9,-7.87 61.01,-3.01 -9.3,1.33 -23.04,6.63 -27.14,13.01 9.66,17.31 30.73,1.35 48.44,0.25 20.12,-1.25 40.41,1.78 60.09,3.37 16.83,1.37 98.99,1.64 106.54,-20.8 -4.42,-3.66 -8.96,-3.41 -14.49,-3.78 -7.31,12.28 -29.14,16.28 -28.12,-1.22 0.2,-3.51 1.62,-6.15 3.85,-7.9 6.85,-5.4 15.26,-1.2 23.09,-2.56 5.23,-0.9 8.56,-6.41 16.28,-9.66 6.66,-2.8 13.6,-3.44 20.96,-5.22l5.9 -0.56 1.06 -5.51 -0.22 -9.14c-17.88,-3.47 -6.19,7.27 -29.93,-7.65 3.38,-2.43 19.67,-9.7 24.41,-11.59 11.33,-4.53 20.58,-0.94 19.85,-13.79 -9.18,-3.96 -18.66,-0.06 -20.83,-5.53 -5.16,-0.62 -2.38,-0.04 -4.63,-1.78 0.61,-18.26 10.24,-15.04 27.49,-16.95 15.57,-1.71 20.77,-5.95 19.77,-22.13 -10.74,-11.07 -47.32,-13.81 -64.88,-18.87 -32.25,-9.29 -45.2,-0.09 -75.69,0.22l-9.32 4.87c-17.79,3.72 -22.46,-5.05 -27.89,-8.58 -11.61,5.51 -33.46,17.31 -47.08,18.83z"/>
   <path class="fil7" d="M877.54 882c-2.17,-0.46 -6.3,2.54 -5.52,-13.32 0.46,-9.23 0.29,-9.86 7.25,-11.57 0.68,7.24 2.31,19.5 -1.73,24.89zm-44.89 -7.98c-2.13,-5.91 -2.13,-8.67 1.03,-14.81 3.33,-6.46 3.46,-5.94 11.82,-6.89 -2.22,11.02 -4.47,17.36 -12.85,21.7zm11.66 17.65c-6.14,-10.16 3.45,-23.17 7.5,-31.48 5.61,-11.49 6.39,-22.69 20.8,-24.92 -1.46,7.58 -2.5,12.4 -6.16,17.22 -4.27,5.63 -4.87,5.33 -7.12,13.62 -3.39,12.52 -1.59,27.29 -15.02,25.56zm182.97 -64.15c-0.59,-11.78 5.32,-21.04 10.56,-29.21l20.91 7.67c2.64,11.53 -2.71,19.71 -8.7,24.08 -8.69,6.34 -14.06,3.07 -22.77,-2.54zm-86.45 -57.37c20.87,-6.7 31.9,40.93 9.99,48.43 -5.46,1.87 -14.4,0.58 -18.32,-3.08 -3.92,-3.66 -3.4,-9.51 -4.32,-16.49 -1.8,-13.52 0.13,-24.85 12.65,-28.86zm-68.57 -41.48c2.82,-12.66 9.79,-13.29 21.24,-17.44 30.81,-11.15 59.02,-19.29 93.94,-13.74 -1.11,5.33 1.51,1.26 -3.86,5.87 -21.92,18.85 -83.48,26.02 -111.32,25.31zm181.72 -185.97c-8.42,3.09 -15.86,1.56 -24.92,5.14 -11.09,4.39 -12.27,5.61 -26.14,6.47 -12.22,2.96 -71.52,15.08 -79.82,19.9 -10.87,6.32 1.39,2.42 -15.9,4.85 -6.68,0.94 -22.62,7.92 -30.07,10.98 -32.41,13.28 -78.01,35.94 -116.13,27.73 -8.12,-1.75 -5.9,-3.85 -16.8,-2.99 3.93,22.16 6.45,23.12 -2.81,45.64 -6.54,15.87 -12.38,24.1 -20.77,35.91 -20.36,28.63 4.06,77.38 -4,97.33 -26.8,3.22 -35.46,-9.58 -45.34,-21.67 -5.79,-2.81 -3.44,-2.82 -10.04,-2.59l-3.47 6.77c0.1,5.05 -0.93,3.52 2.08,7.81 3.19,4.52 -1.09,-1.61 2.6,2.56 13.74,15.57 -0.99,33.52 -5.26,42.19 -9.62,19.49 -18.17,24.5 -42.15,29.94 -44.5,10.09 -59.76,-33.25 -55.99,-49.14 2.83,-11.96 4.83,-26.14 9.54,-27.51 3.82,-5.25 4.1,-8.2 12.14,-10.03 8.43,-4.65 9.53,-4.68 20.05,-5.56 6.85,-9.97 16.91,-4.96 34.15,-6.42 -12.66,-13.88 -66.4,-6.83 -81.37,2.81 -25.93,16.7 -18.88,43.89 -15.27,76.92 3.9,13.47 15.35,19.76 22.85,28.95 23.22,3.21 39.54,11.87 65.4,4.85 19.94,-5.42 35.61,-18.43 52.33,-20.56 -1.47,6.26 -3.88,11.67 -4.64,16.31 -8.33,12 -12.53,20.01 -2.61,30.21l51.25 39.81c19.97,15.19 14.35,13.64 27.59,10.6 0.28,0.29 0.46,0.85 0.56,1.08l2.88 7.55 50.78 14.05c14.52,4.74 11.38,5.06 13.02,8.83 47.01,15.02 118.16,24.67 164.27,4.38 3.22,-11.97 4.38,-10.17 15.43,-15.69l0.39 0.55c3.16,-13.39 7.27,-21.86 17.12,-27.82l0.91 -0.47 0.83 -11.72 4.14 -14.05c-8.81,2.53 -10.58,6.04 -20.59,7.79 -3.93,0.69 -8.19,0.78 -11.99,1.68 -12.04,2.84 -13.29,12.04 -56.75,0.33 9.1,-18.47 12.53,-22.85 29.04,-16.97 22.75,8.12 22.69,-3.82 40.61,-6.6 9.74,-0.99 20.33,-7.62 27.03,-12.29 8.52,-5.93 12.25,-13.92 20.18,-17.89 -4.28,-35.25 9.02,-32.7 20.42,-51.46 13.8,-22.71 -21.37,-27.96 -20.94,-44.61 -10.15,-7.02 -16.35,-20.39 -9.33,-36.52 15.02,7.14 10.51,36.96 33.16,41.49 3.92,-20.39 -7.61,-11.05 -6.57,-38.07 0.83,-21.92 13.02,-0.81 12.68,-34.48 -0.1,-10.67 -0.1,-21.04 -0.62,-31.71 -8.04,1.77 -11.8,5.7 -19.26,2.67 -12.33,-14.16 1.56,-26.51 10.33,-31.38 3.23,-6.41 3.78,-3.52 9.65,-8.76 1.04,-23.52 -2.09,-70.58 -8.86,-89.89 -4.72,-4.19 -2.89,-4.54 -5.99,-9.05l-9.01 1.82z"/>
   <path class="fil7" d="M1205.18 756.88c17.5,-4.12 24.05,-1.28 41.04,0.97 19.38,2.57 4,-1.65 30.18,-10.63 10.53,-3.62 23.79,-5.49 31.4,-13.25 8.74,-8.9 11.8,-14.97 23.67,-20.19 8.11,16.34 10.83,21.44 -7.54,31.19 -14.1,7.49 -23.81,7.22 -37.22,12.6 -13.43,5.38 -67.05,24.14 -79.44,16.86 -5.53,-6.51 -3.49,-9.66 -2.09,-17.55zm-70.99 -29.72c-1.37,-6.34 -1.49,-9.42 2.67,-14.34 7.76,3.48 7.36,6.16 7.07,17.58l-9.74 -3.24zm-14.51 -54.27c-12.06,-17.04 -9.92,-24.04 -3.8,-42.27l16.21 1.18c10.42,22.4 14.93,13.25 5.53,42.04l-17.94 -0.95zm228.12 -25.74c2.6,-7.36 3.69,-6.42 10.72,-4.01l0.87 11.12c-7.23,-1.29 -8.08,-0.54 -11.59,-7.11zm40.22 5.15c-11.66,-2.42 -5.45,-4.12 -11.56,-12.94 -4.47,-6.45 -6.11,-5.6 -7.84,-15.28 11.23,1.72 10.2,3.26 15.11,11.45 3.88,6.47 6.26,8.64 4.29,16.77zm-141.5 -13.52c1.77,6.2 2.71,11.45 4.58,17.82 4.36,14.87 18.85,21.88 6.47,45.56 -25.33,-1.79 -23.28,-29.33 -26,-53.29 -3.61,-31.72 -20.55,-43.5 -18.85,-60.3 19.58,0.43 28.17,30.45 33.8,50.21zm73.12 -70.72c10.65,-4.27 25.3,-0.17 29.27,9.61 10.22,25.22 -22.55,49.01 -34.77,20.98 -4.92,-11.29 -7.16,-25.51 5.5,-30.59zm-63.61 -40.08c-1.91,-13.99 6.06,-22.68 18.93,-26.18 12.27,-3.34 20.88,-8.49 32.15,-12.48 17.05,-6.04 61.9,-15.77 75.42,-1.92 -2.61,13.72 -60.16,30.34 -74.7,31.93 -11.4,1.26 -8.24,-0.99 -16.71,3.89 -9.24,5.32 -22.89,7.74 -35.09,4.76zm-20.35 -57.29c-7.54,10.8 -33.41,11.32 -48.25,11.46l-3.84 8.86c-39.1,3.07 -7.14,15.28 -35.39,19.01 -5.82,1.77 -12.33,3.96 -17.7,6.01 -5.92,16.65 -23.28,23.15 -25.15,43.4 13.1,0.08 29.98,-2.27 39.94,5.27 -4.63,13.26 -32.27,18.73 -49.36,28.95 -0.03,18.98 -0.05,37.96 -0.09,56.94 -0.02,9.75 -0.06,19.5 0,29.25 0.14,19.11 -2.02,9.99 -6.13,21.47 -2.59,7.25 -4.17,42.07 -4.84,52.27 -2.4,36.67 3.94,21.49 10.62,42.48 10.54,1.34 28.68,13.65 42.86,18.03 23.38,7.22 103.76,15.75 129.2,10.25 22.2,-4.8 25.79,6.04 53.85,-25.23l15.36 -17.24c21.71,-25.64 71.03,-75.37 72.5,-117.22 -0.63,-13.57 2.49,-17.59 3.95,-29.7 3.26,-27.04 2.98,-63.78 2.32,-90.86 -0.49,-19.88 -1.51,-39.84 -3.18,-59.69 -0.61,-7.32 -3.14,-47.91 -9.55,-52.25 -30.99,-10.2 -63.49,5.59 -89.57,11.87 -23.56,5.67 -18.63,-3.71 -41.67,11.47 -10.86,7.16 -19.47,13.48 -35.88,15.2z"/>
   <path class="fil7" d="M1242.77 969.91c7,0.42 9.04,2.06 8.53,10.27l-9.74 0.1 1.21 -10.37zm-57.67 -77.18c0.07,-10.04 0.82,-10.77 6.07,-17.51l13.69 1.04c4.98,18.82 -4.05,18.19 -19.76,16.47zm-21.09 -41.13c-4.27,5 -7.49,7.43 -12.08,13.34 -3.42,4.4 -7.44,9 -10.9,13.17 -6.61,7.97 -15.81,19.69 -25.65,22.41 0.15,16.3 -17.14,22.79 -20.01,47.61 18.87,-2.69 21.51,-13.56 31.14,-21.36 2.34,-4.39 1.51,-3.3 5.32,-5.43 4.13,-10.29 14.38,-14.73 21.43,-22.47 15.42,-16.93 11.32,-20.51 19.22,-20.88l2.65 6.54c2.81,12.09 -18.25,34.31 -26.17,36.09 -6.53,13.76 -21.01,21.07 -32.18,31.15 -6,5.4 -29.1,28.58 -21.14,37.08 11.9,8.25 26.83,-6.35 33.33,-11.18 9.33,-6.95 18.17,-12.72 26.65,-19.74 10.42,-8.65 18.71,-10.17 28.37,-19.7 5,-4.94 17.41,-19.25 28.02,-14.7l4.39 3.3c0.17,-0.33 0.78,0.43 1.17,0.65l7.52 -1.79c13.18,-0.18 12.98,11.3 5.93,15.87 -2.41,5.91 -3.47,6.67 -11.73,6.14 -3.3,-4.29 -1.41,-2.37 -2.73,-5.59l-2.42 -5.46 -7.53 0.66c-13.17,7.55 -24.51,16.03 -36.6,24.72 -6.35,4.57 -11.59,7.89 -18.03,12.89 -5.01,3.88 -11.6,10.08 -16.66,13.28 -3.25,6.71 -7.91,9 -8.09,17.22 16.37,2.53 21.14,-5.65 34.47,-8.01l34.91 -17.36c9.95,-5.75 23.43,-18.83 34.41,-16.47l3.23 6.52c-3.97,6.14 -16.66,10.12 -24.53,14.48 -7.45,4.14 -18.48,9.25 -23.72,14.4 13.47,1.5 17.4,-0.82 13.7,12.21 23.27,-5.36 96.86,-42.97 112.36,-58.23 9.45,-9.3 14.2,-26.15 31.77,-20.87 -2.03,16.31 -10.74,8.54 -12.38,24.12l19.05 2.4c24.48,-1.25 88.02,5.74 117.97,-3.59l20.07 -78.15c1.73,-7.61 2.92,-14.32 3.88,-22.03 1.47,-11.86 2.19,-6.61 5.3,-13.28 0.01,-0.03 1.33,-3.91 1.35,-3.98 3.34,-11.66 4.53,-28.69 6.85,-41.23 1.65,-8.87 10.05,-41.9 -6.37,-39.23 -6.34,1.03 -1.5,-0.04 -7.45,4.83 -3.17,2.59 -4.25,2.94 -7.44,4.63 -65.4,34.76 -55.27,19.09 -96.85,23.02 7.25,8.35 15.02,3.88 25.02,9.28 9.61,5.19 8.3,15.62 0.52,20.63 -8.66,2.17 -21.72,-2.57 -32.58,-2.75 -59.89,-0.97 -46.11,5.92 -58.24,16.12 -8.11,6.82 -16.82,6.21 -27.84,8.1 -40.27,6.88 -10.37,8.47 -66.82,7.67 -42.74,-0.6 -43.98,-11.82 -63.86,2.95z"/>
   <path class="fil7" d="M1111.46 1011.45c-14.61,-5.98 -14.8,2.9 -39.24,-15.7 -0.08,-9.73 2.83,-22.16 -6.21,-24.78l-2.6 18.72 -14.93 -0.17c-1.38,18.94 -14.62,24.95 -16.28,42.74 19.02,13.12 30.37,21.41 59.51,29.41 45.2,12.42 103.12,17.19 150.66,24.43 13.2,2 25.23,4.14 37.96,6.94 6.13,1.34 11.68,2.47 17.89,4.19 1.97,0.55 6.21,1.66 7.86,2.42l6.37 5.12c14.91,2.49 25.84,4.42 38.62,11.81 6.35,3.67 10.1,6.14 15.18,10.55 5.91,5.14 8.85,7.74 20.02,6.15l2.79 -14.16c-15.95,-8.85 -35.06,-18.92 -34.44,-43.21 17.6,2.46 7.58,7.94 18.89,14.44 24.28,7.76 31.04,18.65 60.58,20.42 -1.88,-8.1 -11.2,-18.64 -16.15,-25 -8.32,-10.69 -8.89,-9.02 -14.25,-25.61l-3.79 -29.82c10.09,-0.44 13.28,2.1 16.48,10.45 28.31,1.14 47.23,-7.09 51.43,-32.42 -5.87,-1.24 -12.32,-1.05 -17.1,-3.55 -2.47,-1.3 -3.15,-2.5 -4.19,-3.54 -14.33,0.43 -26.05,-2 -39.81,-3.86 -19.09,-2.59 -20.05,-1.42 -35.61,-9.78 -27.26,-5.59 -40.37,-28.25 -66.07,-12.53 -25.97,15.88 -96.4,49.53 -126.84,55.4 -6.26,1.21 -13.17,1.94 -19.24,0.03 -9.31,-2.92 -6.02,-6.96 -13.75,-8.69 -14.6,-3.28 -23.84,4.27 -33.74,-10.4z"/>
   <path class="fil7" d="M1472.29 413.65l9.69 -1.51c3.45,-7.38 7.85,-5.76 15.85,-4.17 8.78,1.75 9.48,1.89 12.28,10.09 2.9,8.52 8.49,27.44 5.75,35.99 -0.55,1.72 -16.64,31.17 -29.49,35.87 -10.11,3.71 -5.53,2.35 -11.21,9.23l-39.47 -1.02 1.88 20.7c15.08,4.97 34.9,1.53 48.02,-3.36 4.49,-6.94 24.6,-14.15 38.03,-36.3 11.11,-18.32 13.69,-38.78 7.94,-61.96 -5.19,-20.95 -14.89,-36.4 -40.91,-33.11 -19.58,2.47 -42.45,12.24 -38.9,34.16l20.54 -4.61z"/>
   <path class="fil8" d="M184.51 789.7c-2.44,2.77 1.04,0.25 -4.16,3.43 -28.69,17.59 -151.17,24.84 -178.63,24.62l0 391.17c32.01,0 20.69,-1.56 38.5,-4.28 30.59,-4.66 0.13,-10.46 31.91,-11.7 12.56,-0.49 14.98,0.06 20.42,7.46l6.09 -2.96c0.46,-0.16 0.87,-0.32 1.35,-0.45 4.3,-1.14 25.79,-2.52 36.46,2.48 19.07,8.94 18.26,6.92 42.15,6.55 16.03,-0.25 32.06,-0.22 48.09,-0.05 29.52,0.31 30.1,-3.87 30.84,17.08l46.98 2.57c3.01,7.7 5.89,6.5 8.18,14.17 -0.44,5.26 -12.58,12.27 -13.06,11.42 -0.21,-0.37 -0.86,0.36 -1.26,0.61 12.85,8.3 33.6,-4.42 44.17,-9.51 24.47,-11.79 11.31,-7.45 26.41,-16.48 2.09,-1.25 2.5,-1.06 4.32,-2.46 2.99,-2.31 1.71,-0.18 3.72,-4.19 -2.46,-3.01 -0.08,-0.64 -3.13,-2.74 -7.47,-5.14 -15.61,-5.32 -23.13,-6.05 3.69,-23.19 1.42,-18.42 -2.97,-38.27 -5.56,-25.13 -15.17,-94.12 -15.39,-117.25 1.97,-13.98 -4.31,-26.18 -7.02,-39.15 -12.06,-57.71 13.84,-126.29 55.87,-162.48 16.4,-14.12 36.82,-21.22 59.66,-28.47l2.07 -5.93c23.15,-3.1 42.65,1.55 65.28,1.86 -0.47,-10.71 -2.12,-21.27 -0.78,-31.95 2.13,-16.98 2.78,-15.31 -4.27,-29.81 -0.81,-4.45 -14.32,-30.71 -17.57,-37.56 -9.9,-20.9 -15.99,-17.6 -40.83,-17.37 -37.83,0.35 -43.97,-10.71 -93.44,19.75 -62.71,38.61 -51.6,22.08 -79.98,36.79 -23.82,12.35 -55.49,26.27 -86.85,29.15z"/>
   <path class="fil8" d="M415.52 849.1c-21.17,2.54 -46.31,37.01 -54.39,57.95 -4.47,11.58 -8.81,14.79 -12.58,25.2 -22.52,62.09 -8.04,77.91 1.01,125.77 13.34,8.74 21.31,57.9 24.92,77.15 12.71,-5 7.33,-2.19 15.35,-10.74 4.09,4.2 5.46,8.48 11.22,13.11 5.2,4.18 11.83,6.5 18.63,5.24 2.85,-6.74 -0.65,-11.11 -2.87,-18.08 -4.47,-6.81 -4.84,-9.76 -8.66,-18.29 -4.45,-9.94 -7.5,-7.87 -10.66,-15.15 -2.53,-5.83 -2.33,-14.12 -5.08,-20.69 -3.25,-7.74 -6.34,-9.33 -4.74,-18.46 8.55,1 4.83,-1.52 8.47,6.2l12.64 28.15c5.1,0.96 6.49,2.39 9.23,-1.9 0.55,9 -1.98,10.11 3.06,19.18 5.01,9.03 7.08,5.59 17.4,8.36 -1.64,6.8 -1.43,5.66 -5.87,8.65l7.03 19.33c35.56,2.08 67.42,-4.67 101.12,-7.34 11.37,-0.58 24.49,-4.31 36.21,-6.39 13.08,-2.32 25.61,-3.76 39.12,-5.69 23.38,-3.33 48.18,-10.89 73.89,-15.17 1.32,-16.91 -14.95,-45.36 -20.46,-62.87l-5.98 -15.65 -22.73 -34.72c-21.66,-44.25 -18.66,-34.61 -40.08,-71.63 -20.25,-34.99 -40.61,-13.83 -66.6,-44.99 -7.14,-8.56 -15.46,-24.45 -25.53,-29.49 -30.83,-15.43 -61.24,-3.85 -93.07,2.96z"/>
   <path class="fil8" d="M633.7 932.52c2.81,10.95 10.5,20.65 16.24,28.18 17.09,22.45 27.92,44.09 42.76,68.9 3.53,5.9 3.89,9.78 6.56,16.09 7.56,6.69 8.59,15.2 15.14,20.04 14.8,-4.51 28.07,-21.44 39.68,-30.17 16.19,-12.17 13.86,-2.62 44.01,-26.06 -6.93,-5.91 -71.74,-19.35 -84.37,-24.96 -6.31,-2.8 -2.66,-2.89 -10.15,-5.34 -24.91,-8.17 -24.52,-6.39 -37.77,-24.04 -6.48,-8.64 -12.35,-5.55 -31.58,-29.32l-0.52 6.68z"/>
   <path class="fil8" d="M470.62 1163.3c-2.1,2.82 0.06,1.28 -3.91,3.92 -11.91,7.92 -64.35,2.93 -78.27,3.86 1.83,13.55 8.99,10.62 21.88,10.01 29.18,-1.37 62,-7.13 90.4,-4.47 35.24,-2.64 74.23,-7.02 108.5,-12.99 13.94,-2.44 89.7,-21.25 97.82,-25.57 0.55,-7.65 -0.75,-8.91 -3.85,-14.8 -18.38,-1.82 -92.87,18.57 -114.34,23.54 -34.99,8.09 -81.04,17.63 -118.23,16.5z"/>
   <path class="fil8" d="M829.9 1038.02c17.51,0.73 33.87,3.99 51.06,4.84 16.25,0.81 41.61,0.71 57.83,-0.1l2.35 -6.09 4.05 -13.99c-11.51,-1.53 -21.89,0.6 -33.31,-0.1 -27.08,-1.67 -66.71,-9.86 -92.72,-10.14 -5,6.62 -5.4,11.95 -5.45,21.3 13.34,0.05 12.15,0.04 16.19,4.28z"/>
   <path class="fil8" d="M1033.78 948.62c-5.64,10.13 -10.74,19.46 -16.91,30.26 -6.93,12.13 -13.9,16.36 -25.56,23.66 -4.76,7.85 -11.35,6.81 -15.84,12.26 -2.67,3.24 -5.92,16.39 -6.71,21.1l25.76 -1.13c10.46,-1.69 8.38,-4.91 14.2,-14.18 4.08,-6.51 6.8,-11.05 11.06,-18.15 7.24,-12.06 14.82,-25.03 19.26,-40.39 1.53,-9.27 5.02,-14.85 4.66,-24.35 -4.52,6.71 -1.97,7.81 -9.92,10.92z"/>
   <path class="fil8" d="M1199.7 1011.19c3.7,-13.03 -0.23,-10.71 -13.7,-12.21 -5.98,1.87 -8.86,3.54 -14.07,6.17 -8.28,4.17 -9.36,2.25 -10.01,11.33l2.8 1.32c2.07,0.69 8.58,2.92 19.65,-0.11 4.27,-1.17 11.73,-4.61 15.33,-6.5z"/>
   <path class="fil9" d="M1277.67 1154.81c-5.64,0.04 -49.44,29.65 -79.01,35.15 -7.3,1.36 -23.15,7.2 -28.77,10.32 -4.74,5.81 -10.87,7.36 -19.27,10.34 -18.96,6.71 -48.96,14.15 -68.5,17.56 -61.71,10.76 -156.09,-4.27 -218.82,7.68 -15.96,3.04 -33.15,3.69 -48.68,8.03 -13.67,3.82 -30.48,10.75 -45.73,11.14 -4.42,-9.84 -8.78,-17.18 -11.11,-28.98 -0.33,-3.63 0.89,0.42 -0.78,-3.35 -2.01,-4.53 -7.34,-9.13 -13.09,-22.71l-2.03 -4.24c-9.56,-5.99 -19.78,-31.05 -14.97,-40.12 5.11,-5.01 8.72,-2.46 9.43,-13.83 0.48,-7.79 -0.93,-13.97 0.01,-22.25l24.67 -28.95c9.14,-9.11 14.59,-18.81 23.01,-30.23 10.91,-14.81 21.26,-4.84 40.17,-2.27 15.25,2.07 30.95,3.02 46.56,3.72 101.19,4.48 121.8,-12.66 144.08,-12.17 6.83,0.14 26.53,13.3 33.77,17.29 60.65,33.5 107.95,20.3 176.91,34.44 10.82,2.22 34.44,8.77 43.65,9.23 17.56,0.87 27.65,4.49 43.42,8.28 13.81,3.33 28.84,7.17 38.05,15.26 25.72,22.61 26.37,8.63 28.75,23.43 -9.06,1.95 -21.24,3.33 -31.32,3.72 -23.4,0.91 -25.09,-36.15 -70.4,-6.49zm-246.64 -1153.55l13.09 0c-0.23,10.46 -3.43,10.04 -3.43,30.92 -4.8,3.22 -5.24,2.73 -10.31,5.16 0,14.64 -0.94,13.35 -3.43,24.05 18.29,-0.41 15.77,-7.27 28.02,-11.48 10.73,-3.68 21.04,-5.03 32.23,-7.28 21.89,-4.4 35.79,-3.87 54.72,-5.38 35.24,-2.83 47.83,-0.96 81.23,13.41 19.51,8.39 24.29,6.7 29.84,9.66 9.75,5.19 13.2,8.41 25.3,12.47 28.49,9.56 22.79,7.69 37.96,22.16 7.55,7.19 18.06,10.77 33.12,25.28 15.09,14.54 11.52,2.93 22.55,16.95 16.11,20.48 17.35,18.53 31.69,47.31 9.18,18.43 25.49,38.16 24.58,52.11 1.41,17.41 9.12,26.09 14.45,66.94l4.58 55.11c0.36,11.52 -0.23,7.62 5.62,15.01 30.23,-0.52 61.61,-26.23 88.14,20.4 10.4,18.26 9.21,28.02 6.46,50.43 -5.56,45.33 -4.79,23.01 -12.16,51.5 -1.21,8.24 -11.74,16.99 -17.71,21.8 -8.66,6.99 -15.46,10.82 -25.23,15.99 0,13 4.64,17.47 8.61,27.46 3.6,9.08 5.53,18.2 8.36,27.71l11.2 42.05c6.49,31.01 6.07,11.62 9.01,27.06 0.9,4.73 0.88,10.69 1.56,15.61 1.48,10.63 2.46,21.68 3.67,30.69 1.77,13.22 2.94,19.2 0.11,31.71 -1.78,7.9 -4.52,19.35 -4.8,29.56 -0.8,29.29 -9.93,96.64 -19.06,121.78 -1.76,4.84 -3.4,7.87 -4.95,13.95 -4.67,18.29 -6.76,17.75 -13.49,38.04 -3.61,10.88 -5.89,16.31 -10.53,25.54 -3.09,6.18 -9.67,16.5 -10.3,24.05 5.45,0.46 9.96,2.41 14.14,3.04 4.9,0.74 10.06,0.4 15.05,0.4 3.68,-6.95 8.02,-11.16 11.85,-17.36 5.45,-8.81 6.8,-8.41 20.78,-8.41 11.28,21.32 18.95,17.02 22.24,31.01 3.62,15.38 15.08,28.7 17.26,47.79l0 12.78c-0.75,6.67 -2.69,14.04 -6.34,22.33 -2.95,6.71 -16.44,26.89 -21.14,30.45 -9.69,3.26 -5.93,3.33 -11.42,10.86l-55.39 64.79c-10.96,12.09 -9.96,14.35 -13.41,33.79l-12.18 7.62c-4.59,2.76 -6.16,4.85 -8.67,10.1l-9.8 -0.51 -21.2 -0.42 -4.13 -2.02c5.59,-10.81 12.83,-7.92 25.27,-10.33 10.2,-1.98 19.02,-5.44 24.37,-11.09 0.55,-19.09 -4.05,-20.79 -20.45,-24.99 -13.08,-3.35 -25.43,-6.19 -38.43,-9.63 -16.3,-4.31 -22.05,-5.85 -39.88,-5.72 -12.85,0.09 -32.31,2.18 -45.84,0.44l6.33 -11.48c-4.39,-1.59 -10.93,-4.35 -15.8,-5.12 -9.57,-1.53 -12.94,-0.01 -17.02,5.7 -11.22,4.71 -20.26,10.1 -30.81,14.99 -8.94,4.13 -27.3,9.55 -31.67,17.46l-101.06 33.55c-74.12,20.47 -170.23,19.93 -246.9,23.12 -46.41,1.93 -100.13,20.29 -115.28,18.77l-36.1 -60.32c-1.6,-11.27 -6.65,-22.08 -11.4,-30.57 -3.44,-11.38 -7.48,-14.32 -14.04,-20.44 -8.3,-0.17 -10.22,1.06 -17.59,2.53 -10.51,2.08 -11.41,-1.19 -13.18,8.43 -24.28,6.71 -53.86,12.86 -78.88,17.89 -30.31,6.09 -62.44,1.62 -92.63,5.13 0.11,26.24 35.05,93.73 46.37,116.27 8.45,16.82 18.21,39.93 27.58,54.89 5.24,8.36 3.49,4.62 9.8,10.81 5.56,5.46 11.77,17.33 17.75,23.47 4.63,4.76 4.96,3.82 9.27,9.66 7.56,10.25 11.55,12.21 20.29,20.89 7.36,7.31 11.64,17.68 18.62,22.67 30.35,21.7 196.52,9.7 211.83,-8.8 24.16,4.99 218.61,-59.28 257.7,-69.31l71.37 -18.56c35.24,-8.28 39.93,-9.48 78.4,-7.06 27.14,1.71 58.71,4.01 85.18,-1.29 19.28,-3.86 51.59,-16.32 53.89,-32.58l-1.03 -4.84c-1.49,0.07 -4.23,0.26 -5.72,0.12 -2.97,-0.29 -2.97,-0.82 -4.15,-1.39l0.6 -4.73c17.02,1.52 22.08,-0.87 26.67,-17.03l0.51 5.05c-8.69,34.18 -7.97,38.11 -23.84,47.5 -77.06,45.6 -79,11.53 -182.25,27.21 -61.15,9.29 -62.96,15.52 -113.01,29.54 -37.54,10.51 -67.98,26.69 -104.87,36.06 -80.94,20.55 -145.92,47.35 -236.85,48.67 -23.41,0.33 -47.72,-0.45 -71.13,-1.42 -29.66,-1.23 -37.97,-0.44 -52.61,-17.92 -12.1,-14.44 -38.81,-37.97 -53.23,-53.23 -14.95,-15.81 0.04,-4.64 -18.81,-16.96 -2.31,-1.58 -10.16,-13.09 -12.72,-16.76 -5.42,-7.77 -6.8,-9.33 -10,-19.2 -4.26,-13.13 -15.12,-25.05 -18.82,-38.19l-5.15 -8.99 -32.68 3.2 6.77 -11.25c-13.17,-12.25 -26.39,-12.32 -48.34,-9.4 0.29,0.1 5,2.17 6.81,2.9 7.99,3.24 3.41,-1.34 7.4,4.77 -12.59,3.91 -15.98,-1.71 -27.45,-3.31 -18.75,-2.62 -66.29,10.34 -83.88,15.2 -38.44,10.63 -141.35,13.47 -187.26,11.81 -33.9,-1.23 -77.33,-12.45 -110.15,-21.9 -16.66,-4.79 -33.68,-12.79 -49.52,-16.55l0 -21.08c21.61,3.41 55.29,24.84 102.52,32.81 24.19,4.09 30.79,8.38 58.91,8.53 75.76,0.39 234.41,-21.79 296.79,-44.72 48.62,-7.64 26.23,-52.1 8.65,-54.91 -13.15,-2.1 -35.33,-1.5 -49.54,-2.12 -8.13,-0.35 -15.96,-0.74 -24.03,-1.33 -4.35,-0.31 -9.08,-0.58 -13.39,-1.08l-6.91 -1.45c-0.38,-0.16 -0.86,-0.45 -1.19,-0.61 -10.81,-5.27 -24.83,-81.69 -25.04,-98.07l-6.8 -37.6c2.08,2.17 2.47,2.85 4.19,5.13 1.08,1.44 1.28,1.71 2.33,2.9 0.27,0.31 0.61,0.69 0.88,0.99l3.01 3.01c6.95,16.1 12.31,46.47 16.55,64.7 3,9.95 8.17,13.31 9.27,24.57 0.98,10.62 3.98,14.69 7.98,21.49 21.98,1.29 77.56,-1.7 102.94,-4.32l8.3 -1.73c2.92,-1.22 2.21,-1.01 3.58,-2.06 35.24,-2.64 74.23,-7.02 108.5,-12.99 13.94,-2.44 89.7,-21.25 97.82,-25.57 0.55,-7.65 -0.75,-8.91 -3.85,-14.8 -2.53,-8.83 -4.83,-10.15 -7.23,-21.19 -1.74,-7.97 -4.79,-14.82 -7.43,-21.91 -5.05,-13.53 -9.07,-30.23 -19.02,-37.54l-5.98 -15.65c-2.28,-16.64 -19.38,-44.64 -29.38,-64.2 -9.41,-18.38 -29.75,-35.84 -34.64,-60.09 13.37,2.3 5.16,3.68 16.33,9.12 3.06,7.76 10.7,17.9 17.86,20.72 2.81,10.95 10.5,20.65 16.24,28.18 17.09,22.45 27.92,44.09 42.76,68.9 3.53,5.9 3.89,9.78 6.56,16.09l3.71 22.28 4.76 1.25c2.82,13.1 6.78,27.12 17.39,31.11l5.42 -2.4 1.62 -6.48c4.62,-5.51 11.97,-10.88 17.25,-17.59 5.42,-6.87 11.37,-13.73 17.44,-20.36 5.41,-5.88 11.75,-14.08 17.24,-20.6 12.55,-14.91 11.5,-16.88 21.33,-16.73 1.69,6.86 -1.17,11.42 -1.73,17.49 7.23,4.39 17.36,4.34 26.21,4.36 17.51,0.73 33.87,3.99 51.06,4.84 16.25,0.81 41.61,0.71 57.83,-0.1 11.25,-1.13 17.11,-4.03 29.35,-3.17 12.33,0.86 20.95,3.95 26.38,-4.82 10.46,-1.69 8.38,-4.91 14.2,-14.18 4.08,-6.51 6.8,-11.05 11.06,-18.15 7.24,-12.06 14.82,-25.03 19.26,-40.39l1.91 -1.88c9.13,-10.91 12.72,-35.14 12.05,-48.24 -10.95,1.39 -8.77,3.76 -12.55,14.99 -2.38,7.07 -5.25,14.09 -6.67,21.7 -5.64,10.13 -10.74,19.46 -16.91,30.26 -6.93,12.13 -13.9,16.36 -25.56,23.66 -15.73,2.73 -18.93,9 -38.2,10.35 -7.72,0.54 -14.89,1.8 -22.25,2.09 -8.98,0.35 -17.28,-1.22 -26.28,-0.95 -38.86,-2.63 -77.46,-3.43 -113.68,-13.95 -15.73,-4.56 -33.36,-10.01 -47.52,-16.04 -9.72,-4.14 -35.3,-20.25 -42.93,-20.82 -7.25,-22.04 -41.88,-33.2 -55.12,-59.76 -6.98,-14.03 -7.09,-13.96 -24.34,-9.62 -46.69,11.74 -24.76,0.36 -42.31,-2.49 -9,-1.47 -8.45,0.12 -16.66,-4.18 -13.68,-7.17 -37.9,-21.63 -36.53,-39.09 -7.07,-15.81 -6.66,-12.26 -25.06,-14.73 24.19,-11.59 16.53,-5.67 18.09,-38.46l-0.45 -15.58c-1.06,-3.79 -0.83,-2.95 -2.23,-5.03 -2.83,-9.11 -3.2,-13.07 -12.66,-15.34 -0.81,-4.45 -14.32,-30.71 -17.57,-37.56 -9.9,-20.9 -15.99,-17.6 -40.83,-17.37 -37.83,0.35 -43.97,-10.71 -93.44,19.75 -62.71,38.61 -51.6,22.08 -79.98,36.79 -23.82,12.35 -55.49,26.27 -86.85,29.15 -16.06,-0.16 -24.04,9.36 -37.76,2.68 13.84,-8.22 64.21,-18.71 77.85,-23.61l55.25 -22.04c6.63,-2.53 12.92,-3.05 12.09,-11.97l0 0.87c11.23,-3.08 23.27,-7.06 25.84,-18.05 10.53,-16.44 65.45,-35.08 85.88,-39.41 17.31,-3.67 44.8,3.72 42.8,-18.66 -0.8,-8.94 -5.19,-15.72 -7.29,-23.92 -2.11,-8.28 0,-19.65 -2.34,-28.58 -8.14,-31.03 1.57,-84.85 5.47,-113.51 2.69,-19.81 2.95,-9.55 8.64,-22.27 3.83,-8.55 5.21,-13.29 8.58,-22.35l24.76 -37.06c-6.78,-9.27 -1.72,4.66 -12.9,-18.02 -3.39,-6.88 -8.12,-14.08 -10.86,-20.06 -6.16,-13.47 -3.72,-37.66 -3.72,-56.4 2.06,-2.81 2.21,-2.24 3.42,-3.46 0.99,-1.01 1.55,-1.66 2.54,-2.61 3.73,-3.6 0.25,-2.69 6.07,-4.24 0.16,7.47 1.32,6.07 1.72,13.73 0.89,16.81 -2.42,67.71 24.04,73.88 1.55,-6.68 7.32,-13.76 10.83,-20.08 15.81,-28.44 18.09,-25.21 40.14,-52.61 34.28,-42.6 110.82,-82.17 163.67,-81.93 14.41,0.06 15.18,-1.69 26.74,-4.17 20.04,-4.31 75.2,3.26 81.07,2.19 9.47,-1.74 9.23,-6.16 12.21,-15.39 11.88,-36.71 22.18,-41.45 42.42,-67.51 7.05,-9.09 14.09,-13.77 20.59,-22.35 10.4,-13.72 13.5,-7.14 24.76,-19.89l24.39 -18.55c6.25,-4.09 54.69,-23.81 61.5,-24.37 0,-22.15 -0.28,-33.07 6.8,-48.17 3.11,-6.64 8.32,-8.83 13.34,-14.14 4.04,-4.29 5.56,-5.88 7.98,-6.41zm38.85 886.38c-5.86,-3.92 -5.03,-4.15 -6.87,-12.02 12.7,-3.39 18.68,-39.69 18.82,-51.6 0.14,-11.26 2.66,-10.72 6.94,-17.11 7.63,2.04 12.86,8.31 18.93,11.99 11.21,6.8 11.88,0.59 18.85,13.77 -6.92,4.64 -9.24,5.98 -18.5,8.98 -27.44,8.91 -24.83,36.22 -38.17,45.99zm274.78 -98.6c13.11,-9.02 18.33,-3.34 12.71,10.21l-11.99 -0.07 -0.72 -10.14zm128.3 170c-9.55,28.04 -101.89,3.47 -132.76,6.17 6.41,6.08 8.54,5.92 16.28,10.25l14.62 12.18c15.56,8.36 16.52,7.19 35.61,9.78 13.76,1.86 25.48,4.29 39.81,3.86 12.91,0.09 25.21,-1.02 36.8,3.49 -4.26,16.25 -27.02,30.41 -36.17,45.89 -2.33,7.31 -5.3,11.99 -9.72,15.69 -6.65,5.58 -9.94,3.01 -19.21,2.91l4.82 12.42 0.5 0.39c10.14,3.57 4.95,7.51 22.33,17.42 -2.09,-32.88 4.86,-25.98 13.61,-36.85 3.96,-4.92 5.29,-11.92 9.07,-16.7 1.97,-2.48 32.63,-30.28 36.87,-36.98 2.93,-4.63 16.6,-23.95 21.26,-27.27 10.75,3.07 12.87,7.25 15.65,18.09 2.98,8.65 2.87,11.91 8.02,20.52 3.48,5.82 7.52,10.47 9.78,17.71 11.56,37.08 -54.23,87.33 -58.19,106.17l-18.3 21.68c-5.78,7 -12.45,15.26 -18.78,20.49 -10.74,-0.14 -19.93,-3.25 -25.23,-10.12 2.99,-10.19 11.01,-19.81 17.21,-26.89 12.94,-14.77 69.79,-52.96 59.44,-71.84l-8.46 1.83c-2.85,2.89 -5.46,8.05 -7.98,11.67 -3.5,5.02 -5.52,7.06 -10.09,10.46 -6.07,5.31 -8.85,9.87 -14.3,14.92l-42.9 39.23c-4.62,-0.32 -2.38,1.32 -4.77,-1.27 -5.31,-2.77 -6.18,-5.23 -12.41,-5.86 -4.29,10.87 -4.63,6 3.01,12.29 -5.29,12 -4.51,-0.49 -1.56,13.74 -17.38,-0.73 -11.75,-5.28 -15.73,-18.73 -3.96,-13.41 -7.78,-14.49 10.41,-15.61l-2.1 -14.27c13.81,0.39 43.85,1.78 37.55,-19.77 -5.6,25.55 -26.11,7.18 -46.41,9.85l-6.57 15.39 -7.7 1.91c-11.17,1.59 -14.11,-1.01 -20.02,-6.15 -5.08,-4.41 -8.83,-6.88 -15.18,-10.55 -12.78,-7.39 -23.71,-9.32 -38.62,-11.81 -31.74,-1.07 -79.17,-15.01 -113,-20.12 -66.24,-9.99 -99.52,-4.33 -160.56,-38.89 -38.87,-22.01 12.36,-25.96 27.91,-140.39 10.84,-17.92 38.21,-3.28 48.58,-4.85 2.85,-7.97 7.53,-11.75 6.65,-17.64l-7.36 0.19c-7.97,-0.95 -13.94,-0.76 -19.57,-4.01 -0.66,-18.95 11.94,-21.34 23.73,-28.37 9.39,-5.6 22.92,-13.82 35.17,-15.16 10.99,-1.21 14.03,2.67 22.77,3.52 11.04,1.08 8.98,-1.47 21.11,0.96 12.56,2.51 35.6,1.62 48.89,0.85 116.57,-6.77 36.81,-29 123.66,-28.51 12.78,0.08 33.13,6.07 41.29,-2.01 -4.4,-15.13 -21.77,-9.63 -35.94,-15.33 -7.77,-25.66 4.11,-22.11 34.1,-24.55 28.67,-2.33 91.67,-21.75 99.63,-17.18 18.02,16.82 -29.15,176.78 -36.55,205.76zm41.99 -265.35c0.28,12.18 2.69,25.51 -1.23,36.79l-28.49 5.19c-2.51,4.93 -1.95,4.48 -9.25,6.82 -21.75,6.97 -68.03,14.54 -89.04,14.45 2.07,-11.03 13.34,-23.52 18.65,-33.39 6.92,-12.84 8.55,-24.21 18.64,-31.42l1.16 -11.93c2.49,-23.86 9.88,-45.92 9.98,-70.78 0.09,-20.83 -7.68,-55.45 -0.02,-72.61 0.2,-0.2 32.92,-12.01 44.55,11.12 14.21,28.27 31.43,115.15 35.05,145.76zm-105.69 -29.04c-1.47,41.85 -50.79,91.58 -72.5,117.22l-15.36 17.24c-28.06,31.27 -31.65,20.43 -53.85,25.23 -25.44,5.5 -105.82,-3.03 -129.2,-10.25 -14.18,-4.38 -32.32,-16.69 -42.86,-18.03 -7.69,-2.26 -7.4,-4.69 -13.37,-6.45 -7.26,-2.15 -8.81,1.01 -16.59,-2.25 -9.11,-3.82 -10.52,-14.63 -17.99,-18.05l0.26 7.27c-0.43,16.65 34.74,21.9 20.94,44.61 -11.4,18.76 -24.7,16.21 -20.42,51.46 -5.84,20.99 -11.81,15.12 -21.44,27.42l9.14 3.93c-1.39,11.18 -13.08,32.35 -20.2,38.37l-0.91 0.47c-1.71,15.01 -1.19,8.61 -7.36,16.43 -5.23,6.62 0.27,9.15 -9.76,11.39l-0.39 -0.55c-1.22,8.41 -7.17,12.59 -15.43,15.69 -46.11,20.29 -117.26,10.64 -164.27,-4.38 -18.3,-1.79 -49,-9.02 -64.31,-15.95 -9.09,-4.12 -17.36,-9.51 -25.41,-14.11 -8.97,-5.14 -17.46,-8.2 -24.76,-11.97 -9.99,-1.33 -14,-6.14 -19.66,-12.26 -3.62,-3.91 -10.08,-12.23 -12.57,-17.7 -2.56,-3.67 -10.78,-12.84 -15.4,-18.36 -5.96,-6.42 -8.45,-10.64 -13.32,-15.69 -17.93,2.06 -73.01,14.5 -81.13,-6.69 -7.5,-9.19 -18.95,-15.48 -22.85,-28.95 -7.73,-4.53 -9.59,-13.92 -10.54,-24.41 -0.96,-10.5 0.24,-20.92 3.24,-30.43 5.36,-16.95 16.16,-28.26 33.59,-33.34 35.61,-10.37 106.75,2.05 106.7,20.43 9.88,12.09 18.54,24.89 45.34,21.67 8.06,-19.95 -16.36,-68.7 4,-97.33 8.39,-11.81 14.23,-20.04 20.77,-35.91 9.26,-22.52 6.74,-23.48 2.81,-45.64 10.9,-0.86 8.68,1.24 16.8,2.99 38.12,8.21 83.72,-14.45 116.13,-27.73 7.45,-3.06 23.39,-10.04 30.07,-10.98 17.29,-2.43 5.03,1.47 15.9,-4.85 8.3,-4.82 67.6,-16.94 79.82,-19.9 8.41,-7.66 29.04,-10.7 37.84,-15.38 -1.71,-3.61 -3.57,-6.03 -3.94,-12.12 7.33,-2.08 23.84,-6.59 28.47,2.15l3.69 20.97c6.77,19.31 9.9,66.37 8.86,89.89 -5.87,5.24 -6.42,2.35 -9.65,8.76 -3.32,10.65 -10.05,12.97 -7.97,23.7 10.35,2.14 4.1,-3.17 18.95,-3.54 3.19,8.56 5.01,11.64 8.63,18.67 2.8,-27.12 -1.83,-54.94 0.4,-81.56 2.82,-33.64 22.55,-23.97 41.96,-36.39l2.31 -1.91c-19.1,-4.17 -18.06,1.8 -33.35,2.12 -0.98,-15.76 1.14,-24.22 8.72,-34.01 5.39,-6.96 12.97,-18.69 22.66,-19.63 5.37,-2.05 11.88,-4.24 17.7,-6.01 2.61,-9.77 5.4,-6.1 6.62,-16.41 0.67,-5.61 -0.35,-14 -2.1,-17.65 -13.89,-2.32 -7.42,-10.49 -6.14,-11.34 5.4,-3.59 13.77,0.01 18.51,1.37 12.47,3.59 27.05,3.25 40.46,3.1 47.85,-0.57 37.77,-5.73 65.32,-21.15 21.41,-11.98 43.82,-10.14 68.9,-16.9 25.19,-6.8 3.76,-13.51 71.28,-3.2 7.94,33.14 6.36,85.42 7.2,121.4 0.48,20.77 2,40.93 1.38,61.85 -0.29,9.71 -1.33,20.09 -2.74,29.43l-4.44 19.54c-2.36,4.93 -0.99,2.29 -3.19,4.59zm63.03 -251c-1.73,3.75 -3.4,4.85 -8.74,7.16 -22.15,9.55 -11.08,9.24 -25.89,17.57 -4.36,8.45 -0.34,8.72 -11.15,9.73l0.96 -10.55c-11.84,-9.34 10.5,-11.73 18.13,-14.18 1.62,-20.32 -2.44,-18.42 12.07,-29.06 67.85,-49.76 97.19,29.84 71.63,83.68 -9.26,19.53 -23.98,29.68 -43.71,37.47 -13.12,4.89 -32.94,8.33 -48.02,3.36 -8.82,-4.52 -6.72,-5.95 -6.82,-17.63 -0.24,-27.54 -7.55,-31.08 13.93,-52.88 41.79,-42.43 60.87,-13.06 59.27,-34.72 -6.14,-2.93 -13.85,-2 -21.97,-1.46l-9.69 1.51zm-445.34 -352.26l0 0z"/>
   <path class="fil9" d="M1256.03 527.98c12.2,2.98 25.85,0.56 35.09,-4.76 8.47,-4.88 5.31,-2.63 16.71,-3.89 14.54,-1.59 72.09,-18.21 74.7,-31.93 -13.52,-13.85 -58.37,-4.12 -75.42,1.92 -11.27,3.99 -19.88,9.14 -32.15,12.48 -12.87,3.5 -20.84,12.19 -18.93,26.18z"/>
   <path class="fil9" d="M1205.18 756.88c-1.4,7.89 -3.44,11.04 2.09,17.55 12.39,7.28 66.01,-11.48 79.44,-16.86 13.41,-5.38 23.12,-5.11 37.22,-12.6 18.37,-9.75 15.65,-14.85 7.54,-31.19 -11.87,5.22 -14.93,11.29 -23.67,20.19 -7.61,7.76 -20.87,9.63 -31.4,13.25 -26.18,8.98 -10.8,13.2 -30.18,10.63 -16.99,-2.25 -23.54,-5.09 -41.04,-0.97z"/>
   <path class="fil9" d="M872.26 728.67c27.84,0.71 89.4,-6.46 111.32,-25.31 5.37,-4.61 2.75,-0.54 3.86,-5.87 -34.92,-5.55 -63.13,2.59 -93.94,13.74 -11.45,4.15 -18.42,4.78 -21.24,17.44z"/>
   <path class="fil9" d="M1319.64 568.06c-12.66,5.08 -10.42,19.3 -5.5,30.59 12.22,28.03 44.99,4.24 34.77,-20.98 -3.97,-9.78 -18.62,-13.88 -29.27,-9.61z"/>
   <path class="fil9" d="M940.83 770.15c-12.52,4.01 -14.45,15.34 -12.65,28.86 0.92,6.98 0.4,12.83 4.32,16.49 3.92,3.66 12.86,4.95 18.32,3.08 21.91,-7.5 10.88,-55.13 -9.99,-48.43z"/>
   <path class="fil9" d="M1119.68 672.89l17.94 0.95c9.4,-28.79 4.89,-19.64 -5.53,-42.04l-16.21 -1.18c-6.12,18.23 -8.26,25.23 3.8,42.27z"/>
   <path class="fil9" d="M1091.01 975.97c3.96,-8.22 8.82,-10.65 12.9,-17.9 -2.31,-2.04 -14.73,-11.04 -16.31,-11.67 -0.46,6.49 -1.13,8.54 -0.16,14.81l3.57 14.76z"/>
   <path class="fil10" d="M1425.39 680.2l-1.16 11.93c-2.91,13.66 -5.39,21.18 -11.13,32.09 -5.59,10.59 -13.36,18.09 -16.97,28.12 30.18,-0.84 59.15,-13.33 89.1,-16.67l28.49 -5.19c3.92,-11.28 1.51,-24.61 1.23,-36.79l-4.32 -1.24c-5.67,-48.24 -20.63,-107.46 -37.89,-149.47l-31.51 -0.09c-0.36,11.47 -0.31,8.84 4.32,15.01 -7.29,5.9 -4.99,18.85 -4.56,30.85 0.75,21.05 -0.06,74.17 -15.6,91.45z"/>
   <path class="fil11" d="M540.75 1132.74c-10.26,9.49 -67,11.95 -84.93,13.08 -15.58,0.98 -31.49,1.71 -47.1,1.8 -23.85,0.13 -24.57,2.02 -40.07,-8.95 3,9.95 8.17,13.31 9.27,24.57l92.7 0.06c37.19,1.13 83.24,-8.41 118.23,-16.5 21.47,-4.97 95.96,-25.36 114.34,-23.54 -2.53,-8.83 -4.83,-10.15 -7.23,-21.19 -1.74,-7.97 -4.79,-14.82 -7.43,-21.91 -5.05,-13.53 -9.07,-30.23 -19.02,-37.54 5.51,17.51 21.78,45.96 20.46,62.87 -25.71,4.28 -50.51,11.84 -73.89,15.17 -13.51,1.93 -26.04,3.37 -39.12,5.69 -11.72,2.08 -24.84,5.81 -36.21,6.39z"/>
   <path class="fil12" d="M500.72 1176.62c-28.4,-2.66 -61.22,3.1 -90.4,4.47 -12.89,0.61 -20.05,3.54 -21.88,-10.01 13.92,-0.93 66.36,4.06 78.27,-3.86 3.97,-2.64 1.81,-1.1 3.91,-3.92l-92.7 -0.06c0.98,10.62 3.98,14.69 7.98,21.49 21.98,1.29 77.56,-1.7 102.94,-4.32l8.3 -1.73c2.92,-1.22 2.21,-1.01 3.58,-2.06z"/>
   <path class="fil13" d="M1027.28 827.52c8.71,5.61 14.08,8.88 22.77,2.54 5.99,-4.37 11.34,-12.55 8.7,-24.08l-20.91 -7.67c-5.24,8.17 -11.15,17.43 -10.56,29.21z"/>
  </g>
 </g>
</svg>
