<?xml version="1.0" encoding="UTF-8"?>
<!DOCTYPE svg PUBLIC "-//W3C//DTD SVG 1.1//EN" "http://www.w3.org/Graphics/SVG/1.1/DTD/svg11.dtd">
<!-- Creator: CorelDRAW 2017 -->
<svg xmlns="http://www.w3.org/2000/svg" xml:space="preserve" width="5.5878mm" height="5.5878mm" version="1.1" style="shape-rendering:geometricPrecision; text-rendering:geometricPrecision; image-rendering:optimizeQuality; fill-rule:evenodd; clip-rule:evenodd"
viewBox="0 0 558.78 558.78"
 xmlns:xlink="http://www.w3.org/1999/xlink">
 <defs>
  <style type="text/css">
   <![CDATA[
    .fil0 {fill:none}
    .fil1 {fill:black}
   ]]>
  </style>
 </defs>
 <g id="Capa_x0020_1">
  <metadata id="CorelCorpID_0Corel-Layer"/>
  <rect class="fil0" x="-0" y="-0" width="558.79" height="558.79"/>
  <path class="fil1" d="M274.27 354.27c16.82,-7 23.6,17.13 9.94,22.74 -15.4,6.31 -24.74,-16.55 -9.94,-22.74zm-216.16 -20.93c-2.04,-12.94 -0.38,-42.47 -0.38,-57.17 0,-28.42 -2.45,-161.23 2.63,-170.24 8.52,-15.12 26.68,-11.29 46.59,-11.29l345.7 0c59.09,0 48.17,-4.07 48.17,124.95 0,17.06 1.07,104.54 -0.38,113.75l-442.33 0zm11.47 -262.78c-37.53,8.67 -36.88,39.75 -36.88,66.25l0 205.37c0,18.87 0.88,28.59 10.59,40.63 7.15,8.85 19.75,14.91 36.42,14.95 10.5,0.03 397.55,1.4 410.02,-0.6 14.72,-2.39 24.68,-11.59 30.32,-21.09 7.79,-13.1 5.8,-28.96 5.8,-45.41l0 -205.37c0.01,-17.08 -2.38,-30.23 -11.43,-39.79 -8.38,-8.86 -17.9,-15.82 -35.58,-16.12 -99.33,-1.69 -207.06,0 -307.98,0 -16.64,0 -90.85,-1.23 -101.28,1.18zm148.48 394.43c-23.12,0.96 -47.98,0.14 -71.3,0.13 -11.6,0 -23.32,-1.54 -25.71,9.64 -2.66,12.47 7.9,15.41 18.37,15.37l280.77 0c13.8,0.04 20.67,-6.47 16.84,-16.97 -3.59,-9.88 -14.65,-8.04 -26.29,-8.04 -22.97,0 -47.46,0.82 -70.25,-0.13l-0.46 -61.69 -121.92 0.13 -0.05 61.56z"/>
 </g>
</svg>
