<?xml version="1.0" encoding="UTF-8"?>
<!DOCTYPE svg PUBLIC "-//W3C//DTD SVG 1.1//EN" "http://www.w3.org/Graphics/SVG/1.1/DTD/svg11.dtd">
<!-- Creator: CorelDRAW 2017 -->
<svg xmlns="http://www.w3.org/2000/svg" xml:space="preserve" width="5.5878mm" height="5.5878mm" version="1.1" style="shape-rendering:geometricPrecision; text-rendering:geometricPrecision; image-rendering:optimizeQuality; fill-rule:evenodd; clip-rule:evenodd"
viewBox="0 0 558.78 558.78"
 xmlns:xlink="http://www.w3.org/1999/xlink">
 <defs>
  <style type="text/css">
   <![CDATA[
    .fil0 {fill:none}
    .fil1 {fill:#010101}
   ]]>
  </style>
 </defs>
 <g id="Capa_x0020_1">
  <metadata id="CorelCorpID_0Corel-Layer"/>
  <rect class="fil0" x="-0" y="-0" width="558.79" height="558.79"/>
  <path class="fil1" d="M47.96 343.21c41.26,145.8 211.73,216.16 345.59,135.56 38.57,-23.22 81.8,-68.46 98.08,-119.88 0.63,-2.63 0.18,-2.55 1.27,-5.35 2.47,-6.31 1.88,-3.71 3.14,-5.45 -1.68,-39 -31.22,-36.42 -41.87,-29.65 -20.19,12.84 -24.51,91 -115.72,126.16 -97.72,37.67 -183.64,-13.22 -220.14,-76.42 -73.48,-127.23 29.59,-277.26 167.77,-266.53 44.86,3.48 91.27,26.97 111.02,50.93 -9.62,18.4 -65.51,47.46 -19.07,56.64l101.46 20.84c14.4,2.96 27.41,8.92 38.55,2.03 2.89,-9.55 -25.07,-150.32 -31.52,-154.31 -15.83,-9.81 -32.75,26.72 -49.8,35.1 -33.66,-27.66 -53.41,-45.09 -101.57,-58.56 -45.97,-12.86 -97.7,-10.03 -140.43,4.65 -117.44,40.36 -179.34,169.21 -146.76,284.24z"/>
 </g>
</svg>
