<?xml version="1.0" encoding="UTF-8"?>
<!DOCTYPE svg PUBLIC "-//W3C//DTD SVG 1.1//EN" "http://www.w3.org/Graphics/SVG/1.1/DTD/svg11.dtd">
<!-- Creator: CorelDRAW 2017 -->
<svg xmlns="http://www.w3.org/2000/svg" xml:space="preserve" width="46.5666mm" height="30.7338mm" version="1.1" style="shape-rendering:geometricPrecision; text-rendering:geometricPrecision; image-rendering:optimizeQuality; fill-rule:evenodd; clip-rule:evenodd"
viewBox="0 0 4656.66 3073.38"
 xmlns:xlink="http://www.w3.org/1999/xlink">
 <defs>
  <style type="text/css">
   <![CDATA[
    .fil0 {fill:none}
    .fil1 {fill:#883636}
   ]]>
  </style>
 </defs>
 <g id="Capa_x0020_1">
  <metadata id="CorelCorpID_0Corel-Layer"/>
  <rect class="fil0" y="-0" width="4656.66" height="3073.39"/>
  <path class="fil1" d="M3120.76 2510.19c49.98,-10.78 136.84,-112.72 179.37,-182.15 65.46,-106.85 59.13,-187.5 43.23,-332.55 383.28,185.09 0.07,497.41 -222.6,514.7zm-1746.36 -122.27c-71.57,-71.51 -230.01,-172.46 -87.16,-331.98 59.63,-66.5 217.1,-148.94 339.79,-168.69 -186.96,129.09 -235.27,206.4 -252.63,500.67zm-406.27 -75.27c134.41,369.74 1020.34,496.05 1540.54,468.41 493.01,-26.19 1531.29,-302.59 1110.88,-772.42 -75.94,-84.89 -194.09,-148.65 -322.01,-205.05 -184.88,-81.45 -202.89,-101.89 -349.84,-15.22 -234.86,138.49 -525.28,155.39 -768.4,14.93 -163.23,-94.24 -116.62,-170.68 -368.6,-127.84 -294.11,50.04 -984.88,245.75 -842.57,637.19zm2159.91 -807.73c17.27,151.27 23.75,63.79 339.1,191.11 377.91,152.51 778.99,486.46 347.13,866.69 -725.7,638.95 -2964.7,450.01 -3151.46,-238.5 -171,-630.59 1105.67,-720.01 1203.3,-850.34 -66.21,-87.11 -98.69,-59.76 -226.07,-32.77 -412.6,87.36 -1212.49,342.45 -1098.93,880.88 183.11,868.55 2719.49,1019.77 3423.03,266.02 592.29,-634.65 -609.93,-1171.36 -836.1,-1083.09zm-1139.35 -434.65c-86.34,820.57 926.28,956.92 1128.73,237.66 123.27,-437.98 210.08,-1307.38 568.38,-1138.23 74.17,35.05 91.23,81.11 111.86,165.94 40.56,166.4 -53.01,129.05 139.47,156.48 188.82,-405.93 -415.08,-701.36 -665.79,-304.38 -140.51,222.55 -188.93,840.59 -330.31,1112.06l-952.34 -229.53z"/>
 </g>
</svg>
