<?xml version="1.0" encoding="UTF-8"?>
<!DOCTYPE svg PUBLIC "-//W3C//DTD SVG 1.1//EN" "http://www.w3.org/Graphics/SVG/1.1/DTD/svg11.dtd">
<!-- Creator: CorelDRAW 2017 -->
<svg xmlns="http://www.w3.org/2000/svg" xml:space="preserve" width="33.8666mm" height="25.3998mm" version="1.1" style="shape-rendering:geometricPrecision; text-rendering:geometricPrecision; image-rendering:optimizeQuality; fill-rule:evenodd; clip-rule:evenodd"
viewBox="0 0 3386.66 2539.98"
 xmlns:xlink="http://www.w3.org/1999/xlink">
 <defs>
  <style type="text/css">
   <![CDATA[
    .fil13 {fill:#019145}
    .fil5 {fill:#2E5729}
    .fil14 {fill:#488D9B}
    .fil0 {fill:#488D9B}
    .fil11 {fill:#6D5845}
    .fil9 {fill:#994514}
    .fil3 {fill:#BB3135}
    .fil6 {fill:#C2770A}
    .fil12 {fill:#D4AA7A}
    .fil7 {fill:#E88E07}
    .fil1 {fill:#EBC3AC}
    .fil4 {fill:#EBC3AC}
    .fil2 {fill:#F9F9CD}
    .fil10 {fill:#FAB617}
    .fil8 {fill:#FAD64C}
   ]]>
  </style>
 </defs>
 <g id="Capa_x0020_1">
  <metadata id="CorelCorpID_0Corel-Layer"/>
  <g id="_2924042185328">
   <rect class="fil0" x="-0" y="-0.01" width="1693.33" height="2540"/>
   <rect class="fil1" x="1693.33" y="1268.54" width="1693.34" height="1271.45"/>
   <rect class="fil2" x="1693.33" y="-0.01" width="1693.34" height="1268.55"/>
   <rect class="fil3" x="1693.33" y="1269.99" width="1693.34" height="1270"/>
   <rect class="fil4" x="0" y="1268.54" width="1693.8" height="1271.45"/>
   <g>
    <rect class="fil5" x="1810.62" y="837.51" width="104.78" height="202.57"/>
    <path class="fil6" d="M1086.41 530.86c-10.89,-41.71 -4,-30.39 12.74,-60.63l-50.7 0.47c-22.85,33.58 -5.73,42.21 19.2,64.6l18.76 -4.44z"/>
    <path class="fil6" d="M1164.99 833.28l-23.96 -18.21 -2.56 -54.73 -10.37 -12.37 11.08 27.11c-51.96,32.8 -46.79,56.04 25.81,58.2z"/>
    <path class="fil6" d="M1660.69 547.38l-0.4 -26.16 15.22 -19.1 -34.89 0.23c-21.13,29.16 -3.58,36.89 20.07,45.03z"/>
    <path class="fil6" d="M1347.28 170.33l-7.97 -30.32c-19.59,6.67 -20.61,0.13 -19.34,25l27.31 5.32z"/>
    <path class="fil7" d="M802.43 355.53l5.51 28.44c21.78,54.93 93.76,64.15 94.78,10.12 1.09,-57.85 -58.19,-59.26 -100.29,-38.56z"/>
    <path class="fil7" d="M652.11 507.19l212.37 48.95 -24.11 -8 16.38 -13.19c1.61,-1.42 3.46,-2.47 4.96,-3.98 8.61,-8.62 4.04,2.76 10.66,-13.58 18.95,-46.82 -50.65,-74.07 -77.04,-51.47 -24.01,34.52 6.79,46.9 23.42,79.82l-166.64 -38.55z"/>
    <path class="fil7" d="M702.87 291.18c1.93,-25.07 5.61,-42.25 -21.72,-56.73 -20.76,-11.01 -51.55,-11.51 -59.07,12.6 -12.19,39.05 40.13,61.68 80.79,44.13z"/>
    <path class="fil7" d="M988.59 359.41c18.13,-56.19 -46.58,-79.66 -70.1,-55.13 -25.3,26.37 13.04,80.83 70.1,55.13z"/>
    <path class="fil7" d="M909.86 830.75l1.28 4.06c27.59,16.91 40.18,23.24 71.45,4.46 14.75,-57.93 -66.17,-70.76 -72.73,-8.52z"/>
    <path class="fil7" d="M826.82 202.91c19.49,-27.21 16.95,-29.37 -4.41,-55.06 -30.43,-5.73 -20.11,-9.16 -48.52,3.36 -7.34,38.76 16.84,52.07 52.93,51.7z"/>
    <path class="fil7" d="M1448.26 960.25c-44.66,18.69 -8.91,63.46 35.9,43.69 33.69,-14.86 11.59,-63.56 -35.9,-43.69z"/>
    <path class="fil7" d="M988.14 932.43c17.18,-17.01 25.41,-14.6 22.53,-39.7 -27.95,-26.35 -71.88,-26.11 -66,24.24l43.47 15.46z"/>
    <path class="fil7" d="M638.89 435.4c12.16,-40.88 -15.53,-54.19 -53.48,-45.63 -15.37,43.63 19.75,62.5 53.48,45.63z"/>
    <path class="fil7" d="M1531.18 468.61c17.47,-38.59 -9.42,-56.08 -49.36,-49.35 -14.07,40.85 13.92,66.34 49.36,49.35z"/>
    <path class="fil7" d="M956.86 761.44c27.49,17.09 35.15,19.51 63.74,2.15l3.45 -27.01c-35.79,-19.98 -64.29,-19.31 -67.19,24.86z"/>
    <path class="fil7" d="M749.34 804.86c-9.27,45.01 23.36,48.91 56.77,29.4l2.06 -28.72c-25.54,-14.72 -33.82,-15.12 -58.83,-0.68z"/>
    <path class="fil7" d="M1466.49 547.38l12.91 3.65c27.98,-4.54 19.56,0.98 40.56,-15.22 -5.22,-38.75 -18.51,-42.74 -56.39,-37.83l2.92 49.4z"/>
    <path class="fil7" d="M1596.03 428.39c9.13,-37.2 -9.81,-45.71 -47.17,-39.08 -8.57,40.92 11.02,52.59 47.17,39.08z"/>
    <path class="fil7" d="M1401.18 382.47c6.15,-40.67 -13.48,-44.73 -49.69,-40.5 -3.5,39.65 10.21,51.46 49.69,40.5z"/>
    <path class="fil7" d="M1322.02 924.44c-33.77,-23.6 -63.71,-1.98 -54.05,17.63 9.71,19.71 56.43,31.88 54.05,-17.63z"/>
    <path class="fil7" d="M954.84 458.12c-12.14,22.18 19.68,42.83 50.1,32.85 6.82,-48.39 -39.12,-52.89 -50.1,-32.85z"/>
    <path class="fil7" d="M884.18 211.4c-22.6,21.14 23.12,54.21 43.11,33.94 19.7,-19.99 -19.23,-56.28 -43.11,-33.94z"/>
    <path class="fil7" d="M807.51 692.03l1.19 27.56c30.32,10.52 19.63,10.82 47.56,-0.02l4.12 -28.21c-19.18,-6.08 -38.02,-10.29 -52.87,0.67z"/>
    <path class="fil7" d="M1582.57 103.91l-1.01 -9.51c7.71,-14.62 13.55,-21.88 12.19,-39.77 -30.29,-9.12 -42.98,-8.08 -46.17,25.29l34.99 23.99z"/>
    <path class="fil7" d="M779.95 944.73c21.61,16.79 24.74,16.01 46.81,0.65 0.13,-15.31 5.89,-25.81 -20.63,-28.2 -27.08,-2.45 -27.14,9.61 -26.18,27.55z"/>
    <path class="fil7" d="M1234.64 172.81c-3.76,-32.2 -14.42,-31.99 -43.94,-21.19 -2.71,33.57 15.94,43.91 43.94,21.19z"/>
    <path class="fil7" d="M1372.46 702.24l-1.34 30.19 38.19 1.43 6.81 -25.94c-20.69,-16.16 -19.63,-11.62 -43.66,-5.68z"/>
    <path class="fil7" d="M1495.3 319.6c-1.86,-32.36 -8.47,-40.3 -42.65,-33.69 -4.67,37.11 10.43,36.66 42.65,33.69z"/>
    <path class="fil7" d="M1480.92 717.42l-1.01 -0.72c23.31,19.21 17.41,20.64 49.08,9.56 -1.39,-32.05 -7.84,-33.02 -38.19,-28.24l-9.88 19.4z"/>
    <path class="fil7" d="M590.76 696.59l34.37 -3.03c2.85,-52.55 -62.87,-49.18 -34.37,3.03z"/>
    <path class="fil7" d="M1366.17 939.39c23.11,13.35 13.71,12.17 40.74,2.21 7.55,-39.93 -43.46,-42.84 -40.74,-2.21z"/>
    <path class="fil7" d="M1389.38 94.06c31.08,9.95 46.96,4.35 42.62,-29.09 -26.74,-7.91 -36.89,4.05 -42.62,29.09z"/>
    <path class="fil7" d="M1207.35 232.32c27.31,5.89 19.53,8.95 40.72,-1.8 10.96,-31.53 -33.22,-50.69 -40.72,1.8z"/>
    <path class="fil7" d="M1503.63 774.46c18.74,15.62 21.82,12.96 43.24,1.61 -6.73,-41.42 -41.6,-36.09 -43.24,-1.61z"/>
    <path class="fil7" d="M1361.63 478.79c0.7,-30.45 -11.06,-32.19 -38.08,-31.02 -4.32,33.01 4.1,42.2 38.08,31.02z"/>
    <path class="fil7" d="M465.57 677.89c6.89,10.75 2.54,14.66 20.51,15.5 31.32,1.47 22.02,-11.79 24.48,-15.58 -4.27,-6.49 1.94,-18.26 -24.57,-15.97 -15.04,1.3 -14.73,4.51 -20.42,16.05z"/>
    <path class="fil7" d="M601.21 724.68c0.53,34.88 40.66,42.39 40.08,-2.03 -19.04,-9.58 -23.65,-12.05 -40.08,2.03z"/>
    <path class="fil7" d="M1042.31 833.56c22.38,19.74 21.79,15.09 43.79,3.95 -10.91,-45.29 -40.74,-28.49 -43.79,-3.95z"/>
    <path class="fil7" d="M896.63 699.88c13.38,26.23 29.73,26.81 43.89,0.31 -21.25,-36.32 -30.6,-11.58 -43.89,-0.31z"/>
    <path class="fil7" d="M1219.86 123.94c22.32,14.46 16.96,10.65 42.01,2.49 -7.62,-37.86 -36.27,-41.45 -42.01,-2.49z"/>
    <path class="fil7" d="M1075.83 169.61c29.25,20.68 27.89,15.12 42.44,-7.48 -20.41,-23.93 -41.22,-23.83 -42.44,7.48z"/>
    <path class="fil7" d="M608.87 632.28c15.33,20.27 15.36,17.72 40.6,7.24 -1.07,-40.11 -32.92,-29.54 -40.6,-7.24z"/>
    <path class="fil7" d="M1512.4 669.56c18.85,20.23 23.04,19.47 42.2,1.22 -13.02,-30.33 -34.86,-25.4 -42.2,-1.22z"/>
    <path class="fil7" d="M1607.6 517.02c2.94,-31.02 -7.25,-26.53 -33.47,-28.29 2.96,26.96 -0.69,35.34 33.47,28.29z"/>
    <path class="fil7" d="M1556.32 351.7c2.33,-25.94 -3.28,-28.58 -29.04,-27.78 -7.25,28.44 -0.02,32.55 29.04,27.78z"/>
    <path class="fil7" d="M1021.36 550c-2.52,-26.79 -3.39,-28.27 -32.17,-26.28 -2.53,31.43 4.74,28.92 32.17,26.28z"/>
    <path class="fil7" d="M508.06 597.23c9.79,29.27 26.26,23.96 35.13,-0.73 -23.18,-15.69 -14.73,-13.59 -35.13,0.73z"/>
    <path class="fil7" d="M1116.54 81.49c7.35,25.98 26.02,29.88 34.34,-1.03 -18.94,-9.92 -16.29,-13.87 -34.34,1.03z"/>
    <path class="fil7" d="M1413.96 634.7c9.83,26.42 24.21,22.38 34.16,-0.88 -22.39,-14.01 -16.13,-13.15 -34.16,0.88z"/>
    <path class="fil7" d="M782.68 421.68c-2.18,-24.54 -0.11,-23.48 -26.3,-24.18 -0.86,28.4 -2.15,23.97 26.3,24.18z"/>
    <path class="fil7" d="M685.48 483.16c-3.46,-23.38 -12.08,-37.42 -29.93,-14.32 8.71,7.59 -11.88,14.33 29.93,14.32z"/>
    <path class="fil7" d="M1426.99 790.01c-13.08,-20.15 -17.31,-19.76 -30.4,0.15 4.63,2.57 8.45,28.88 30.4,-0.15z"/>
    <path class="fil8" d="M512.81 314.79c61.76,-8.34 209.05,69.42 295.13,69.18l-5.51 -28.44 -264.43 -59.83 15.95 -27.98c-27.79,13.08 -33.15,18.54 -41.14,47.07z"/>
    <path class="fil8" d="M1099.15 470.23c21.46,-32.84 9.35,-51.55 -14.76,-77.26l1.71 24.64c-30.13,-3.75 -61.02,-10.31 -91.42,-16.8 -67.65,-14.44 -72.82,-26.99 -87.29,0.48 28.36,30.06 144.48,29.02 188.33,33.09l3.43 35.85z"/>
    <path class="fil8" d="M715.77 847.78c-12.43,19.21 -30.26,59.27 -6.13,76.88 0.49,-31.49 4.59,-24.84 35.83,-31.28l146.93 -39.61c27.69,-12.58 12.45,4.07 18.74,-18.96l-1.28 -4.06c-45.63,-7.86 -141.98,44.78 -197.07,52.57l2.98 -35.54z"/>
    <path class="fil8" d="M1275.23 389.4l3.31 37.38 13.59 -27.79c29.43,6.3 58.73,17.88 88.49,26.48 39.68,11.46 70.19,25.97 88.85,13.18 -7.7,-22.3 6.02,-10.87 -78.57,-31.85 -31.43,-7.79 -62.48,-14.97 -94.18,-18.61 13.72,-26.94 24.05,-26.42 40.69,-48.32l-62.18 49.53z"/>
    <path class="fil8" d="M1407.12 830c-29.47,-0.93 -49.84,-34.24 -54.16,-62.98 24.45,-4.78 41.28,-9.59 64.59,-16.86 31.3,-9.76 52.48,-6.01 62.36,-33.46l1.01 0.72 -71.61 16.44 -38.19 -1.43 1.34 -30.19 0.4 -18.87c-43.19,63.04 -31.33,98.13 9.22,153.3 32.78,1.54 15.8,2.79 25.04,-6.67z"/>
    <path class="fil8" d="M1389.38 94.06l-8.7 0.49c3.07,36.73 3.27,52.73 16.81,80.17l9.23 0.93 -3.73 -20.99c24.01,-24.39 101.85,-77.77 101.21,-105.64 -38.47,-3.84 -77.47,79.86 -113.84,96.11l-0.98 -51.07z"/>
    <path class="fil5" d="M2532.69 617.72c46.77,17.62 22.73,20.41 28.1,36.89l3.88 7.69c4.02,7.43 13.18,2.86 11.15,47.41l31.03 -27.49c18.34,12.48 5.3,0.92 23.32,31.86 27.77,-43.34 10.42,-13.5 32.42,-34.95 22.76,-22.19 6.14,-25.6 -2.56,-46.06l40.7 -29.44c-28.29,-17.11 -26.41,-18.2 -60.61,-16.91 -0.17,-7.43 0.87,-13.25 -1.42,-20.63 -4.38,-14.09 -2.69,-8.06 -8.54,-15.97 -20.28,23.31 -11.08,-2.4 -38.1,44.76 -26.96,-15.61 -29.91,-29.73 -32.42,-59.3 -15.7,-11.02 5.35,-12.77 -24.2,-5.78 -12.91,40.83 -2.76,21.54 -0.5,54.05 3.5,50.19 -21.04,-8.1 -2.25,33.87z"/>
    <path class="fil5" d="M1914.57 109.08c11.24,25.86 6.54,15.14 0.79,32.76l-12.44 35.28 26.61 28.19c0,0.01 11.83,34.24 42.28,20.46 23,-10.4 4.62,4.69 16.33,-25.02l44.08 3.48c-8.25,-40.71 -8.12,-22.33 -20.61,-48.08l15.14 -11.4 14.39 -18.36c-12.5,-1.2 -34.92,-3.84 -40.82,-3.65 -22.72,0.74 -5.55,4.39 -31.73,7.34l4.85 -39.72c15.47,-32.21 11.3,-3.72 18.99,-46.22 -39.19,6.87 -40.46,10.09 -53.58,48.39l-23.45 -8.51 -0.83 25.06z"/>
    <path class="fil5" d="M2037.52 676.46l23.8 3.26c5.78,39.64 -1.65,13.75 13.88,29.37l27.73 25.24c17.86,-50.04 17.82,10.41 64.63,-50.23 -16.89,-37.16 -8.42,3.09 -20.11,-27.98l25.09 -29.96c-42.94,-27.19 -25.76,5.87 -54.75,-11.58 -58.65,-35.3 32.05,2.22 -17.61,-11.85l-18.69 27.88c-0.58,1.05 -2.11,6.11 -2.51,5.01 -0.41,-1.1 -1.49,3.42 -3.76,6.66l-22.56 -22.63c-24.89,-19.68 6.55,-7.88 -27.85,-26.92 -19.79,37.33 -1.52,24.33 8.84,63.33 0.24,0.93 0.45,3.15 0.65,4.06l3.22 16.34z"/>
    <path class="fil5" d="M2800.29 71.4c-16.53,34.86 4.46,12.13 -42.54,32.06l-37.4 14.57 25.13 19.91 -20.27 24.4c43.75,14.49 2.72,25.68 51.16,27.5l48.04 4.26 16.2 -31.47c9.39,-17.66 -1.19,13.17 8.79,-17.36 -17.11,-19.95 -18.89,-13.29 -28.47,-23.05l25.11 -21.7c26.12,-13.48 14.32,4.02 30.62,-20.6 -32.22,-26.14 -41.49,3.25 -76.37,-8.52z"/>
    <path class="fil5" d="M2326.52 909.53c2.87,4.67 14.14,7.13 2.93,38.38 14.04,10.65 24.49,9.54 22.44,68.76l70.11 6.1c-2.4,-56.06 -9.79,-28.78 13.82,-68.44l-20.83 -17.44c-0.12,-0.1 -15.62,-15.93 -16.5,-16.87l-22.46 8.45c-16.83,24.96 -25.35,-33.73 -27.19,-47.75 -23.22,-10.31 -25.26,4.66 -22.32,28.81z"/>
    <path class="fil5" d="M1851.06 763.35c-24.52,31.28 1.16,24.67 1.32,24.84l26.68 -27.62 28.84 -71.33c-49.85,-13.4 -5.16,-25.88 -45.79,-23.93 -17.43,0.84 -46.06,29.92 -48.32,25.46 -0.71,-1.41 -3.26,1.37 -4.74,2.32 8.31,27.73 12.62,13.47 5.72,46.05l37.76 -1.66 -1.47 25.87z"/>
    <path class="fil5" d="M2375.54 80.06l-8.22 44.84c35.72,29.51 20.34,-7.07 44.18,28.42l9.11 6.8 8.27 -9.42c4.15,-24.37 1.55,-17.47 16.4,-33.41l-18.55 -26.88 19.14 -11.84c31.84,-16.2 10.77,3.38 19.29,-20.46 -25.38,-3.9 -13.02,-0.62 -33.34,-0.38 -23.71,0.28 -3.12,-6.24 -19.36,-0.08 -18.38,21.49 -7.7,16.33 -36.92,22.41z"/>
    <path class="fil5" d="M2491.98 527.76c2.89,9.29 -14.97,10.09 9.15,6.42l-0.72 -26.57c-14.64,-35.77 -0.11,-33.89 -34.89,-39.91 -5.49,7.13 -4.22,3.09 -9.69,14.15 -5.7,11.53 -3.03,7.69 -7.43,18.79 19.53,8.96 17.4,8.01 42.72,8.06l0.86 19.06z"/>
    <path class="fil5" d="M1818.33 84.25l-37.59 -4.76c3.11,49.11 -9.24,32.52 41.61,45.24l-4.02 -40.48z"/>
    <path class="fil9" d="M2711.25 1019.02c65.59,5.78 109.7,0.57 148.79,-28.7 -66.45,0.92 -91.34,-17.24 -148.79,28.7z"/>
    <path class="fil9" d="M2428.88 150.7l18.22 -17.87c1.35,-1.01 3.33,-2.09 4.72,-3.04 16.19,-11.15 10.91,-9.18 27,-14.7l-32.95 -36.52 -19.14 11.84 18.55 26.88c-14.85,15.94 -12.25,9.04 -16.4,33.41z"/>
    <path class="fil10" d="M989.19 523.72c28.78,-1.99 29.65,-0.51 32.17,26.28 -27.43,2.64 -34.7,5.15 -32.17,-26.28zm-333.64 -54.88c17.85,-23.1 26.47,-9.06 29.93,14.32 -41.81,0.01 -21.22,-6.73 -29.93,-14.32zm349.39 22.13c-30.42,9.98 -62.24,-10.67 -50.1,-32.85 10.98,-20.04 56.92,-15.54 50.1,32.85zm-248.56 -93.47c26.19,0.7 24.12,-0.36 26.3,24.18 -28.45,-0.21 -27.16,4.22 -26.3,-24.18zm-170.97 -7.73c37.95,-8.56 65.64,4.75 53.48,45.63 -33.73,16.87 -68.85,-2 -53.48,-45.63zm403.18 -30.36c-57.06,25.7 -95.4,-28.76 -70.1,-55.13 23.52,-24.53 88.23,-1.06 70.1,55.13zm-366.51 -112.36c7.52,-24.11 38.31,-23.61 59.07,-12.6 27.33,14.48 23.65,31.66 21.72,56.73 -40.66,17.55 -92.98,-5.08 -80.79,-44.13zm262.1 -35.65c23.88,-22.34 62.81,13.95 43.11,33.94 -19.99,20.27 -65.71,-12.8 -43.11,-33.94zm-61.77 -63.55c21.36,25.69 23.9,27.85 4.41,55.06 -36.09,0.37 -60.27,-12.94 -52.93,-51.7 28.41,-12.52 18.09,-9.09 48.52,-3.36zm-268.46 119.87l-15.95 27.98 264.43 59.83c42.1,-20.7 101.38,-19.29 100.29,38.56 -1.02,54.03 -73,44.81 -94.78,-10.12 -86.08,0.24 -233.37,-77.52 -295.13,-69.18l4.23 157.5 135.07 34.9 166.64 38.55c-16.63,-32.92 -47.43,-45.3 -23.42,-79.82 26.39,-22.6 95.99,4.65 77.04,51.47 -6.62,16.34 -2.05,4.96 -10.66,13.58 -1.5,1.51 -3.35,2.56 -4.96,3.98l-16.38 13.19 24.11 8 221.93 -25.28 -18.76 4.44c-24.93,-22.39 -42.05,-31.02 -19.2,-64.6l50.7 -0.47 -3.43 -35.85c-43.85,-4.07 -159.97,-3.03 -188.33,-33.09 14.47,-27.47 19.64,-14.92 87.29,-0.48 30.4,6.49 61.29,13.05 91.42,16.8l-1.71 -24.64c-14.58,-29.01 -201.09,-297.47 -217,-308.23 -70.17,-47.44 -265.96,125.46 -313.44,182.98z"/>
    <path class="fil10" d="M806.13 917.18c26.52,2.39 20.76,12.89 20.63,28.2 -22.07,15.36 -25.2,16.14 -46.81,-0.65 -0.96,-17.94 -0.9,-30 26.18,-27.55zm182.01 15.25l-43.47 -15.46c-5.88,-50.35 38.05,-50.59 66,-24.24 2.88,25.1 -5.35,22.69 -22.53,39.7zm54.17 -98.87c3.05,-24.54 32.88,-41.34 43.79,3.95 -22,11.14 -21.41,15.79 -43.79,-3.95zm-236.2 0.7c-33.41,19.51 -66.04,15.61 -56.77,-29.4 25.01,-14.44 33.29,-14.04 58.83,0.68l-2.06 28.72zm150.75 -72.82c2.9,-44.17 31.4,-44.84 67.19,-24.86l-3.45 27.01c-28.59,17.36 -36.25,14.94 -63.74,-2.15zm-16.34 -61.25c-14.16,26.5 -30.51,25.92 -43.89,-0.31 13.29,-11.27 22.64,-36.01 43.89,0.31zm-133.01 -8.16c14.85,-10.96 33.69,-6.75 52.87,-0.67l-4.12 28.21c-27.93,10.84 -17.24,10.54 -47.56,0.02l-1.19 -27.56zm-91.74 155.75l-2.98 35.54c55.09,-7.79 151.44,-60.43 197.07,-52.57 6.56,-62.24 87.48,-49.41 72.73,8.52 -31.27,18.78 -43.86,12.45 -71.45,-4.46 -6.29,23.03 8.95,6.38 -18.74,18.96l-146.93 39.61c-31.24,6.44 -35.34,-0.21 -35.83,31.28l48.07 78.04c36.23,10.66 206.56,-43.58 230.43,-70.27 32.73,1.35 145.84,-40.27 178.11,-58.93l-1.26 -40.22c-72.6,-2.16 -77.77,-25.4 -25.81,-58.2l-11.08 -27.11c-56.39,-26.79 -269.93,-133.95 -317.93,-119.55 -29.38,20.47 -84.15,179.31 -94.4,219.36z"/>
    <path class="fil10" d="M1574.13 488.73c26.22,1.76 36.41,-2.73 33.47,28.29 -34.16,7.05 -30.51,-1.33 -33.47,-28.29zm-250.58 -40.96c27.02,-1.17 38.78,0.57 38.08,31.02 -33.98,11.18 -42.4,1.99 -38.08,-31.02zm207.63 20.84c-35.44,16.99 -63.43,-8.5 -49.36,-49.35 39.94,-6.73 66.83,10.76 49.36,49.35zm17.68 -79.3c37.36,-6.63 56.3,1.88 47.17,39.08 -36.15,13.51 -55.74,1.84 -47.17,-39.08zm-197.37 -47.34c36.21,-4.23 55.84,-0.17 49.69,40.5 -39.48,10.96 -53.19,-0.85 -49.69,-40.5zm175.79 -18.05c25.76,-0.8 31.37,1.84 29.04,27.78 -29.06,4.77 -36.29,0.66 -29.04,-27.78zm-74.63 -38.01c34.18,-6.61 40.79,1.33 42.65,33.69 -32.22,2.97 -47.32,3.42 -42.65,-33.69zm-115.24 53.96c-16.64,21.9 -26.97,21.38 -40.69,48.32 31.7,3.64 62.75,10.82 94.18,18.61 84.59,20.98 70.87,9.55 78.57,31.85 -18.66,12.79 -49.17,-1.72 -88.85,-13.18 -29.76,-8.6 -59.06,-20.18 -88.49,-26.48l-13.59 27.79 -3.31 -37.38 -1.15 116.33 192.41 41.65 -2.92 -49.4c37.88,-4.91 51.17,-0.92 56.39,37.83 -21,16.2 -12.58,10.68 -40.56,15.22l181.29 -3.65c-23.65,-8.14 -41.2,-15.87 -20.07,-45.03l34.89 -0.23 -165.79 -272.83 -16.36 -6.35 -155.95 116.93z"/>
    <path class="fil10" d="M641.29 722.65c0.58,44.42 -39.55,36.91 -40.08,2.03 16.43,-14.08 21.04,-11.61 40.08,-2.03zm-50.53 -26.06c-28.5,-52.21 37.22,-55.58 34.37,-3.03l-34.37 3.03zm-104.68 -3.2c-17.97,-0.84 -13.62,-4.75 -20.51,-15.5 5.69,-11.54 5.38,-14.75 20.42,-16.05 26.51,-2.29 20.3,9.48 24.57,15.97 -2.46,3.79 6.84,17.05 -24.48,15.58zm122.79 -61.11c7.68,-22.3 39.53,-32.87 40.6,7.24 -25.24,10.48 -25.27,13.03 -40.6,-7.24zm-100.81 -35.05c20.4,-14.32 11.95,-16.42 35.13,-0.73 -8.87,24.69 -25.34,30 -35.13,0.73zm-38.53 28.3c-14.09,62.78 -61.16,192.55 54.86,168.73 47.71,-18 196.6,-55.89 224.22,-86.01 -0.19,-1.65 -21.9,-72.24 -23.46,-76.04 -39.19,-23.49 -181.66,-96.59 -222.84,-82.92l-32.78 76.24z"/>
    <path class="fil10" d="M1248.07 230.52c-21.19,10.75 -13.41,7.69 -40.72,1.8 7.5,-52.49 51.68,-33.33 40.72,-1.8zm-57.37 -78.9c29.52,-10.8 40.18,-11.01 43.94,21.19 -28,22.72 -46.65,12.38 -43.94,-21.19zm-72.43 10.51c-14.55,22.6 -13.19,28.16 -42.44,7.48 1.22,-31.31 22.03,-31.41 42.44,-7.48zm101.59 -38.19c5.74,-38.96 34.39,-35.37 42.01,2.49 -25.05,8.16 -19.69,11.97 -42.01,-2.49zm-68.98 -43.48c-8.32,30.91 -26.99,27.01 -34.34,1.03 18.05,-14.9 15.4,-10.95 34.34,-1.03zm-51.47 -26.72c-13.37,94.15 -98.5,140.47 -15.41,233.45 37.39,2.41 122.9,-31.08 162.17,-45.1 21.44,-7.65 158.75,-42.07 101.11,-71.76l-27.31 -5.32c-1.27,-24.87 -0.25,-18.33 19.34,-25l-6.76 -25.08 -153.91 -67.36c-47.4,-16.52 -39.72,-25.21 -79.23,6.17z"/>
    <path class="fil10" d="M1448.26 960.25c47.49,-19.87 69.59,28.83 35.9,43.69 -44.81,19.77 -80.56,-25 -35.9,-43.69zm-41.35 -18.65c-27.03,9.96 -17.63,11.14 -40.74,-2.21 -2.72,-40.63 48.29,-37.72 40.74,2.21zm-138.94 0.47c-9.66,-19.61 20.28,-41.23 54.05,-17.63 2.38,49.51 -44.34,37.34 -54.05,17.63zm-69.72 76.59l421.62 1.11c4.24,-47.38 -25.01,-47.24 -66.55,-64.93 -67.87,-28.91 -246.86,-122.91 -286.33,-100.84 -22.57,19.13 -67.84,133.97 -68.74,164.66z"/>
    <path class="fil10" d="M1396.59 790.16c13.09,-19.91 17.32,-20.3 30.4,-0.15 -21.95,29.03 -25.77,2.72 -30.4,0.15zm150.28 -14.09c-21.42,11.35 -24.5,14.01 -43.24,-1.61 1.64,-34.48 36.51,-39.81 43.24,1.61zm7.73 -105.29c-19.16,18.25 -23.35,19.01 -42.2,-1.22 7.34,-24.18 29.18,-29.11 42.2,1.22zm-106.48 -36.96c-9.95,23.26 -24.33,27.3 -34.16,0.88 18.03,-14.03 11.77,-14.89 34.16,-0.88zm-75.26 49.55l-0.4 18.87c24.03,-5.94 22.97,-10.48 43.66,5.68l-6.81 25.94 71.61 -16.44 9.88 -19.4c30.35,-4.78 36.8,-3.81 38.19,28.24 -31.67,11.08 -25.77,9.65 -49.08,-9.56 -9.88,27.45 -31.06,23.7 -62.36,33.46 -23.31,7.27 -40.14,12.08 -64.59,16.86 4.32,28.74 24.69,62.05 54.16,62.98l236.18 -76.47c10.46,-23.84 -2.19,-53.99 -14.65,-76.9 -10.73,-19.74 -172.88,-95.76 -219.67,-88.85l-36.12 95.59z"/>
    <path class="fil10" d="M1150.79 522.58c-25.2,36.56 -80.17,156.64 -18.64,180.77 24.64,9.66 169.6,-47.06 192.43,-63.38 -12.21,-56.95 -13.03,-60.41 -68.12,-82.76 -34.46,-13.99 -68.36,-36.31 -105.67,-34.63z"/>
    <path class="fil10" d="M1389.38 94.06c5.73,-25.04 15.88,-37 42.62,-29.09 4.34,33.44 -11.54,39.04 -42.62,29.09zm-8.7 0.49l8.7 -0.49 0.98 51.07c36.37,-16.25 75.37,-99.95 113.84,-96.11 0.64,27.87 -77.2,81.25 -101.21,105.64l3.73 20.99c35.91,15.23 24.73,24.21 65.72,27.76l110.13 -99.5 -34.99 -23.99c3.19,-33.37 15.88,-34.41 46.17,-25.29 1.36,17.89 -4.48,25.15 -12.19,39.77l70.13 -73.57 -246.51 -0.55 -26.36 -1.37 1.86 75.64z"/>
    <path class="fil10" d="M492.24 50.19c-5.57,45.9 -1.1,194.44 74.44,142.5 8.7,-5.99 43.52,-45.68 55.86,-57.66 21.61,-21 43.01,-33.36 46.57,-62.58 -43.5,-39.29 -92.07,-31.62 -176.87,-22.26z"/>
    <path class="fil10" d="M540.61 1019.12l121.66 0.13c-4.5,-32.41 -31.54,-68.92 -64.94,-72.46 -9.31,2.66 -11.41,18.06 -25.72,27.1 -26.86,16.96 27.31,-14.91 -10.72,4.48 -24.82,12.65 -23.69,7.57 -20.28,40.75z"/>
    <path class="fil11" d="M2376.03 928.47l22.46 -8.45c0.88,0.94 16.38,16.77 16.5,16.87l20.83 17.44c-23.61,39.66 -16.22,12.38 -13.82,68.44l226.49 -2.18 -10.5 -32.36 -4.74 22.14 -186.9 -0.14c-3.22,-59.57 -0.35,-22.02 11.28,-62.49 -56,-33.5 -22.9,-8.63 -45.24,-49.58 -30.13,13.17 -29.48,14.59 -36.36,30.31z"/>
    <path class="fil11" d="M1778.68 937c11.11,2.91 16.32,-19.03 21.75,17.93 3.3,22.44 -7.53,8.5 -16.45,36.83 -0.41,1.33 -1.48,8.87 -1.49,8.93l-47.63 10.67 4.54 -24.02 -12.12 28.59 -0.95 8.47c33.48,0.09 78.75,6.82 103.19,-11.95 7.75,-30.31 12.65,-36.46 -16.37,-31.84 3.82,-9.74 11.47,-29.06 14.34,-37.15 6.14,-17.31 4.99,-26.02 12.41,-46.36l-20.62 -5.77c-9.34,31.44 -13.86,21.75 -40.6,45.67z"/>
    <path class="fil11" d="M1902.92 177.12l-39 32.74 49.18 -1.66c3.99,8.07 3.19,-3 3.79,14.72 0.04,1.32 -1.35,22.8 -1.45,24.72 37.59,-9.84 33.74,-4.54 73.2,-5.93 14.22,-21.82 6.67,-19.38 7.34,-31.95l51.3 6.59c-1.4,-12.6 -4.24,-28.33 -8.1,-38.54l-12.43 -33.06 -15.14 11.4c12.49,25.75 12.36,7.37 20.61,48.08l-44.08 -3.48c-11.71,29.71 6.67,14.62 -16.33,25.02 -30.45,13.78 -42.28,-20.45 -42.28,-20.46l-26.61 -28.19z"/>
    <path class="fil11" d="M2299.1 1017.27c21.22,10.74 33.34,9 52.79,-0.6 2.05,-59.22 -8.4,-58.11 -22.44,-68.76 11.21,-31.25 -0.06,-33.71 -2.93,-38.38l2.18 22.72c-32.53,7.39 -6.34,-8.85 -14.43,33.65 -1.87,9.83 -11.96,38.99 -15.17,51.37z"/>
    <path class="fil11" d="M2403.65 536.47c19.64,16.04 65.06,-4.5 88.33,-8.71l-0.86 -19.06c-25.32,-0.05 -23.19,0.9 -42.72,-8.06 4.4,-11.1 1.73,-7.26 7.43,-18.79 5.47,-11.06 4.2,-7.02 9.69,-14.15 34.78,6.02 20.25,4.14 34.89,39.91 19.62,-25.98 23.4,-47.33 14.17,-83.94l2.55 29.01 -53.2 -1.33 -25.26 37.54 23.51 49.89 -58.53 -2.31z"/>
    <path class="fil11" d="M1818.33 84.25l4.02 40.48c-50.85,-12.72 -38.5,3.87 -41.61,-45.24l37.59 4.76zm-17.74 54.39l21.36 9.23 10.35 -47.22c-5.44,-20.24 7.16,-6.79 -13.97,-16.4 -0.35,-28.68 1.95,-5.33 -9.86,-16.63 -56.7,2.45 -47.02,41.02 -42.44,48.99 19.53,18.26 -3.8,9.49 34.94,15.59l-0.38 6.44z"/>
    <path class="fil11" d="M1895.31 1017.17l-4.78 -17.59c24.96,0.38 23.25,1.36 37.02,-8.58l-21.38 -50.19 -15.34 9.65 13.61 31.04c-47.99,-0.93 -29.77,-4.18 -37.08,18 17.59,30.78 2.92,10.09 27.95,17.67z"/>
    <path class="fil11" d="M2411.5 153.32c-23.84,-35.49 -8.46,1.09 -44.18,-28.42l8.22 -44.84 -27.14 4.36c6.55,20.75 6.62,44.37 14.07,54.23 15.19,20.13 23.25,11.93 49.03,14.67z"/>
    <path class="fil2" d="M2052.66 619.65c7.81,-76.41 135.71,-130.19 217.98,-105.93 93.74,27.63 147.14,117.29 129.15,216.05 -36.14,198.43 -364.75,198.13 -362.27,-53.31l-3.22 -16.34c-0.2,-0.91 -0.41,-3.13 -0.65,-4.06 -10.36,-39 -28.63,-26 -8.84,-63.33 34.4,19.04 2.96,7.24 27.85,26.92zm461.92 -195.98c9.23,36.61 5.45,57.96 -14.17,83.94l0.72 26.57c-24.12,3.67 -6.26,2.87 -9.15,-6.42 -23.27,4.21 -68.69,24.75 -88.33,8.71 -169.07,-63.2 37.54,-279.33 110.93,-112.8zm331.46 -323.15c171.89,106.99 20.36,401.85 -182.25,297.14 -82.37,-42.57 -116.44,-143.31 -78.94,-228.1 45.29,-102.39 123.31,-99.22 215.44,-98.16 34.88,11.77 44.15,-17.62 76.37,8.52 -16.3,24.62 -4.5,7.12 -30.62,20.6zm-367.22 14.57c81.84,138.73 -86.1,264.33 -197.09,171.29 -48.15,-40.37 -57.82,-114.16 -25.87,-169.42 34.91,-60.37 88.43,-63.69 156.6,-59.31 16.24,-6.16 -4.35,0.36 19.36,0.08 20.32,-0.24 7.96,-3.52 33.34,0.38 -8.52,23.84 12.55,4.26 -19.29,20.46l32.95 36.52zm-505.38 -24.73c250.5,-47.44 338,333.66 93.28,405.98 -263.25,77.8 -370.98,-302.28 -152.15,-387.26l0.83 -25.06 23.45 8.51c13.12,-38.3 14.39,-41.52 53.58,-48.39 -7.69,42.5 -3.52,14.01 -18.99,46.22zm-141.14 10.29l-10.35 47.22 -21.36 -9.23c-36.35,19.83 -59.86,17.24 -99.2,-1.09l2.43 459.01c82.65,-231.14 412.03,7.21 175.24,164.01l-26.68 27.62c-0.16,-0.17 -25.84,6.44 -1.32,-24.84 -80.68,-2.76 -128.67,-22.7 -148.72,-105.04l24.94 357.62 12.12 -28.59 39.28 -50.34c26.74,-23.92 31.26,-14.23 40.6,-45.67l20.62 5.77c4.81,-29.19 7.96,-36.28 39.34,-37.27l-12.05 27.1c26.18,15.2 75.29,9.28 112.13,30.67 37.34,21.68 55.07,44.08 71.52,84.8l1.94 13.88 246.32 0.99c3.21,-12.38 13.3,-41.54 15.17,-51.37 8.09,-42.5 -18.1,-26.26 14.43,-33.65l-2.18 -22.72c-2.94,-24.15 -0.9,-39.12 22.32,-28.81 8.88,33.09 2.1,9.63 12.62,22.01 80.53,-90.59 244.47,-36.76 276.53,85.5l10.5 32.36 62.76 -1.57c57.45,-45.94 82.34,-27.78 148.79,-28.7l37.07 0.41c-14.32,28.46 15.01,-19.48 -8.88,13.43 -9.44,13 -6.1,1.66 -5.6,11.62l58.56 7.44 -0.13 -299.14c-54.93,264.77 -472.34,233.7 -408.37,-106.36 -18.79,-41.97 5.75,16.32 2.25,-33.87 -2.26,-32.51 -12.41,-13.22 0.5,-54.05 29.55,-6.99 8.5,-5.24 24.2,5.78 3.19,45.24 -3.49,6.68 10.72,23.4 112.21,-139.48 298.75,-84.42 363.76,76.29l7.75 -614.12 -353.21 -0.44 -33.26 -0.25 -560.45 -0.39 -23.83 0.59 -135.28 -3.15c3.62,33.23 11.86,52.39 -3.54,83.14z"/>
    <path class="fil3" d="M2559.64 535.58c2.51,29.57 5.46,43.69 32.42,59.3 27.02,-47.16 17.82,-21.45 38.1,-44.76 5.85,7.91 4.16,1.88 8.54,15.97 2.29,7.38 1.25,13.2 1.42,20.63 34.2,-1.29 32.32,-0.2 60.61,16.91l-40.7 29.44c8.7,20.46 25.32,23.87 2.56,46.06 -22,21.45 -4.65,-8.39 -32.42,34.95 -18.02,-30.94 -4.98,-19.38 -23.32,-31.86l-31.03 27.49c2.03,-44.55 -7.13,-39.98 -11.15,-47.41l-3.88 -7.69c-5.37,-16.48 18.67,-19.27 -28.1,-36.89 -63.97,340.06 353.44,371.13 408.37,106.36 -3.21,-23.8 -1.81,-32.31 -2.75,-54.09 -0.97,-22.75 -2.64,-13.18 -4.19,-34.72 -65.01,-160.71 -251.55,-215.77 -363.76,-76.29 -14.21,-16.72 -7.53,21.84 -10.72,-23.4z"/>
    <path class="fil3" d="M2026.75 144.75l12.43 33.06c3.86,10.21 6.7,25.94 8.1,38.54l-51.3 -6.59c-0.67,12.57 6.88,10.13 -7.34,31.95 -39.46,1.39 -35.61,-3.91 -73.2,5.93 0.1,-1.92 1.49,-23.4 1.45,-24.72 -0.6,-17.72 0.2,-6.65 -3.79,-14.72l-49.18 1.66 39 -32.74 12.44 -35.28c5.75,-17.62 10.45,-6.9 -0.79,-32.76 -218.83,84.98 -111.1,465.06 152.15,387.26 244.72,-72.32 157.22,-453.42 -93.28,-405.98l-4.85 39.72c26.18,-2.95 9.01,-6.6 31.73,-7.34 5.9,-0.19 28.32,2.45 40.82,3.65l-14.39 18.36z"/>
    <path class="fil3" d="M2052.66 619.65l22.56 22.63c2.27,-3.24 3.35,-7.76 3.76,-6.66 0.4,1.1 1.93,-3.96 2.51,-5.01l18.69 -27.88c49.66,14.07 -41.04,-23.45 17.61,11.85 28.99,17.45 11.81,-15.61 54.75,11.58l-25.09 29.96c11.69,31.07 3.22,-9.18 20.11,27.98 -46.81,60.64 -46.77,0.19 -64.63,50.23l-27.73 -25.24c-15.53,-15.62 -8.1,10.27 -13.88,-29.37l-23.8 -3.26c-2.48,251.44 326.13,251.74 362.27,53.31 17.99,-98.76 -35.41,-188.42 -129.15,-216.05 -82.27,-24.26 -210.17,29.52 -217.98,105.93z"/>
    <path class="fil3" d="M2846.04 100.52l-25.11 21.7c9.58,9.76 11.36,3.1 28.47,23.05 -9.98,30.53 0.6,-0.3 -8.79,17.36l-16.2 31.47 -48.04 -4.26c-48.44,-1.82 -7.41,-13.01 -51.16,-27.5l20.27 -24.4 -25.13 -19.91 37.4 -14.57c47,-19.93 26.01,2.8 42.54,-32.06 -92.13,-1.06 -170.15,-4.23 -215.44,98.16 -37.5,84.79 -3.43,185.53 78.94,228.1 202.61,104.71 354.14,-190.15 182.25,-297.14z"/>
    <path class="fil3" d="M1703.82 596.56l-1.48 61.75c20.05,82.34 68.04,102.28 148.72,105.04l1.47 -25.87 -37.76 1.66c6.9,-32.58 2.59,-18.32 -5.72,-46.05 1.48,-0.95 4.03,-3.73 4.74,-2.32 2.26,4.46 30.89,-24.62 48.32,-25.46 40.63,-1.95 -4.06,10.53 45.79,23.93l-28.84 71.33c236.79,-156.8 -92.59,-395.15 -175.24,-164.01z"/>
    <path class="fil3" d="M2478.82 115.09c-16.09,5.52 -10.81,3.55 -27,14.7 -1.39,0.95 -3.37,2.03 -4.72,3.04l-18.22 17.87 -8.27 9.42 -9.11 -6.8c-25.78,-2.74 -33.84,5.46 -49.03,-14.67 -7.45,-9.86 -7.52,-33.48 -14.07,-54.23l27.14 -4.36c29.22,-6.08 18.54,-0.92 36.92,-22.41 -68.17,-4.38 -121.69,-1.06 -156.6,59.31 -31.95,55.26 -22.28,129.05 25.87,169.42 110.99,93.04 278.93,-32.56 197.09,-171.29z"/>
    <path class="fil3" d="M2348.84 880.72c1.84,14.02 10.36,72.71 27.19,47.75 6.88,-15.72 6.23,-17.14 36.36,-30.31 22.34,40.95 -10.76,16.08 45.24,49.58 -11.63,40.47 -14.5,2.92 -11.28,62.49l186.9 0.14 4.74 -22.14c-32.06,-122.26 -196,-176.09 -276.53,-85.5 -10.52,-12.38 -3.74,11.08 -12.62,-22.01z"/>
    <path class="fil3" d="M2403.65 536.47l58.53 2.31 -23.51 -49.89 25.26 -37.54 53.2 1.33 -2.55 -29.01c-73.39,-166.53 -280,49.6 -110.93,112.8z"/>
    <path class="fil3" d="M1906.17 940.81l21.38 50.19c-13.77,9.94 -12.06,8.96 -37.02,8.58l4.78 17.59 145.11 0.33c13.63,-10.76 4.31,1.53 10.42,-15.1 -16.45,-40.72 -34.18,-63.12 -71.52,-84.8 -36.84,-21.39 -85.95,-15.47 -112.13,-30.67l-9.27 44.95c45.53,-2.49 41.94,2.33 48.25,8.93z"/>
    <path class="fil3" d="M1701.39 137.55c39.34,18.33 62.85,20.92 99.2,1.09l0.38 -6.44c-38.74,-6.1 -15.41,2.67 -34.94,-15.59 -4.58,-7.97 -14.26,-46.54 42.44,-48.99 11.81,11.3 9.51,-12.05 9.86,16.63 21.13,9.61 8.53,-3.84 13.97,16.4 15.4,-30.75 7.16,-49.91 3.54,-83.14l-142.26 6.86c0.36,35.54 -6.91,88.86 7.81,113.18z"/>
    <path class="fil3" d="M1739.4 987.34l-4.54 24.02 47.63 -10.67c0.01,-0.06 1.08,-7.6 1.49,-8.93 8.92,-28.33 19.75,-14.39 16.45,-36.83 -5.43,-36.96 -10.64,-15.02 -21.75,-17.93l-39.28 50.34z"/>
   </g>
   <g>
    <path class="fil12" d="M2153.68 1801.1c7.07,38.8 -21.34,39.17 -87.82,98.96 -11.09,-23.73 -14.46,-13.67 -29.69,-30.8l-16.2 -23.27 79.78 -90.04c19.41,17.88 16.89,24.77 43.23,33.47 -42.35,-94.98 -79.42,-15.89 -108.67,11.33 -12.93,12.03 -19.55,13.57 -30.02,31.09 -11.49,19.22 -1.62,18.5 -21.59,35.95 -37.48,6.93 -46.91,-11.26 -46.56,-46.32 26.24,-2.7 32.57,3.56 56.43,10.54 -12.76,-41.13 -68.11,-63.69 -109.76,-60.17 -45.39,15.57 -125.64,142.77 62.57,293.95 41.08,33 145.13,36.97 187.09,4.8 50.22,-38.5 10.93,-133.17 -41.17,-145.15l21.45 60.07c-40.86,0.63 -71.19,-16.78 -60.5,-54.87 19.76,-17.23 22.49,-7.79 39.89,-19.68 12.92,-8.81 18.11,-24.89 29.93,-37.25 21.3,-22.26 75.12,-42.05 31.61,-72.61z"/>
    <path class="fil12" d="M2503.82 2278.46c-32.23,21.52 -54.89,-9.41 -49.21,-43.05l33.37 4.39 21.92 7.94c-6.46,-42.66 -73.23,-64.93 -111.61,-60.1l-43.14 46.6c-39.61,172.13 158.21,337.17 293.39,250.38 54.51,-43.56 3.72,-137.27 -38.31,-144.93 -3.85,44.01 25.95,26.13 12.26,57.63 -34.16,15.34 -55.9,-17.28 -56.7,-51.02 47.46,-33.68 -4.86,26.88 75.29,-58.29 21.82,-23.18 69.81,-47.16 31.19,-72.03 -0.7,41.08 -56.98,71.98 -86.94,95.93l-48.07 -53.4 78.39 -85.28c26.29,1.31 -15.29,10.2 28.86,11.93 -8.84,-16.66 -2.56,-11.17 -21.42,-28.1 -40.4,5.62 -37.88,25.45 -67.03,53.5 -66.19,63.7 -23.2,32.3 -52.24,67.9z"/>
    <path class="fil12" d="M2504.97 2057.75c-44.13,5.12 -62.93,-45.69 -103.88,-74.01l46.38 -50.49 92.59 67.34 -12.07 28.95c15.87,-8.73 10.41,-1.77 26.31,-21.26 -4.87,-37.98 -28.21,-39.96 -57.39,-61.36 -11.66,-8.55 -21.89,-22.1 -31.01,-27.36 -11.88,-6.85 -28.86,-9.35 -43.34,-15.68 -4.12,-39.31 1.59,-52.77 42.62,-51.5l-7.19 52.88c45.2,-10.51 52.89,-92.09 49.08,-103.82 -33.76,-57.93 -106.37,-58.64 -162.35,-34.25 -70.36,30.65 -194.25,192.08 -99,296.79 39.76,43.7 126.11,-8.22 134.67,-50.53 -32.84,-6.39 -14.44,10.77 -57.94,19.05 -2.85,-40.34 3.95,-58.35 46.14,-61.92 15.44,16.69 12.34,23.78 23.66,36.6 7.81,8.86 29.09,18.49 39.79,27.25 24.15,19.78 47.49,63.06 72.93,23.32z"/>
    <path class="fil12" d="M2628.65 1849.21c-8.46,-39.06 25.57,-84.75 41.86,-121.19 13.72,15.8 43.55,14.51 60.91,28.83l-32.45 108.4 -23.54 0.9c53.39,71.79 74.63,-130.61 84.71,-145.87 34.37,-12.48 53.87,-7.26 54.2,31.68l-33.65 4.28c-1.84,0.38 -4.15,0.98 -5.76,1.38l-10.05 3.86c11.1,20.05 0.9,15.24 44.16,17.47 166.75,8.61 74.79,-166.55 26.04,-194.08l-278.67 -0.06c-41.1,73.63 9.81,132.69 81.08,132.66 -14.89,-42.93 -33.83,-6.98 -34.54,-50.85l51.14 -4.89 19.76 31.36c-18.71,35.47 -22.43,12.37 -37.74,66.63 -8.42,29.84 -21.73,45.65 -26.21,76.6l18.75 12.89z"/>
    <path class="fil12" d="M2696.8 2135.12c22.51,-17.84 17.23,-17.13 29.24,-45.57l52.23 16.42 -25.64 89.17 -30.74 -4.84c16.3,20.64 12.52,15.48 35.33,16.81 30.05,-30.72 32.79,-88.32 40.95,-128.12 28.69,-8.7 35.41,-10.4 46.83,17.95 -24.06,18.91 -17.36,3.7 -42.03,15.8 21.84,19.41 56.66,15.9 85.39,10.33 73.94,-56.21 -4.86,-152.05 -78.28,-176 -49.91,-16.29 -61.11,-31.15 -115.74,-8.65 -119.32,49.13 -73.37,126.53 7.03,140.01 -17.14,-36.64 -15.31,-7.99 -26.4,-39.95 24.13,-13.81 28.79,-9.68 53.25,4.89 -4.97,59.72 -16.26,-6.05 -31.42,91.75z"/>
    <path class="fil12" d="M2099.58 2167.18l56.16 65.78c-6.99,19.59 -19.43,27.07 -33.77,41.96 -36.38,-20.27 -74.13,-42.69 -69.9,-71.27 -18.08,11.69 -9.34,-8.67 -14.71,21.43 23.32,37.45 83.52,59.7 105.43,81.97 -3.77,30.78 -5.79,31.56 -36.26,35.81l-2.75 -44.12c-24.26,22.91 -36.28,54.63 -30.29,87.65 105.11,133.29 331.57,-116.37 196.93,-225.83 -44.49,-2.97 -74.6,12.65 -92.29,53.89l43.67 -17.5c5.51,33.6 -3.14,43.95 -32.84,50.54 -13.59,-10.84 -45.01,-61.99 -89.38,-80.31z"/>
    <path class="fil12" d="M1887.99 2272.61c0.81,-17.78 -3.89,-38.93 23.62,-37.13 5.38,0.35 15.56,5.09 18.56,9.59 17.91,26.82 0.45,19.44 0.24,20.16l-42.42 7.38zm-100.6 26.93c29.64,-20.89 16.94,-25.25 36.63,-48.87l48.19 17.64 -7.63 48.34c17.37,-17.19 12.83,-11.65 21.53,-36.83 178.74,40.52 117.89,-92.27 86.4,-130.24 -52.04,-62.75 -196.42,-83.25 -247.97,-7.99 -34.53,50.41 25.39,94 69.74,98.84 -15.92,-36.94 -25.2,-8.29 -27.3,-41.89 29.22,-8.83 33.51,-8.85 53.16,13.64 -2.05,31.22 -4.18,11.96 -18.54,36.35 -8.62,14.64 -10.83,34.57 -14.21,51.01z"/>
    <path class="fil12" d="M2182.04 1709.13c20.55,-14.64 23.21,-25.92 35.88,-52.54 34.37,5.12 54.3,2.74 44.4,42.87 -5.95,24.14 -10.03,58.26 -33.64,65.12 8.04,8.96 -11.69,8.5 19.48,8.5 29.8,-35.76 33.1,-89.71 39.69,-129.44 30.17,-6.03 27.68,-11.7 45.48,12.17 -12.7,24.89 -20.44,12.16 -39.89,25.5 42.18,27.78 145.61,22.2 98.63,-96.59l-279.58 -1.07c11.54,35.55 41.45,54.8 79.52,60.63 -17.46,-36.87 -13.77,-4.88 -27.36,-39.65 24.79,-13.77 30.58,-13.12 51.9,9.4 7.8,20.1 -14.22,8.67 -34.51,95.1z"/>
    <path class="fil12" d="M1716.92 1765.17c4.93,41.77 -2.42,31.12 -28.3,48.87 2.15,112.56 -4.02,234.82 -3.19,351.02 0.73,103.37 8.35,253.51 -2.35,351.96l11.12 -0.7 -0.65 -632.88c171.58,35.86 136.67,-227.17 51.63,-141.04 0.69,22.44 -1.78,1.01 4.78,11.29 33.89,53.03 -4.72,-32.97 10.4,14.77l-12.2 13.28c-21.75,-9.87 -3.86,-5.04 -31.24,-16.57z"/>
    <path class="fil12" d="M2823.7 2336.99c22.37,36.57 23.57,10.93 36.21,37.33 -9.15,25.74 -4.08,18.54 -27.74,24.16 -10.21,-22.52 -0.41,3.66 -3.51,-20.59l-0.93 -9.49c-0.12,-0.79 -1.22,-2.19 -1.32,-4.21 -0.1,-2.03 -0.94,-2.83 -1.72,-4.09 -63.35,67.7 -20.73,135.45 93.31,100.67 37.06,-29.39 21.57,-101.31 20.02,-146.81 -18.17,-8.19 3.69,-0.7 -39.15,3.63l-6.32 -19.85c-22.85,-19.67 -18.27,-17.86 -42.97,-28.1l23.89 37.41c-21.47,23.31 -17.05,35.46 -49.77,29.94z"/>
    <path class="fil12" d="M1943.59 2384.05c8.01,21.66 9.09,8.76 2.94,39.72l-24.27 -1.99c25.83,34.49 15.39,-0.51 34.17,27.57l-3.73 9.76c-23.86,3.52 -10.33,2 -22.48,-17.01 -36.55,143.33 178.69,23.74 87.08,-89.83 -33.76,-3.41 -37.4,-0.24 -52.57,29.11l23.89 1.57 -10.3 18.41c-25.03,-7.67 -2.74,-5.42 -34.73,-17.31z"/>
    <path class="fil12" d="M1876.09 1583.32l-135.08 1.16c34.09,68.19 102.86,48.53 135.08,-1.16z"/>
    <path class="fil12" d="M2039.38 1584.07l-89.79 -0.51c16.72,22.8 24.53,32.08 52.93,36.62l36.86 -36.11z"/>
    <path class="fil12" d="M2893.5 2290.81l40.01 -17.82c1.13,-0.73 3.38,-2.18 5.06,-3.28l-1.59 -20.67c-23.12,10.33 -37.31,18.77 -43.48,41.77z"/>
    <path class="fil11" d="M2503.82 2278.46c-32.4,-14.8 -30.09,7.88 -39.7,-31.75 11.12,-8.51 -6.77,-7.4 23.86,-6.91l-33.37 -4.39c-5.68,33.64 16.98,64.57 49.21,43.05z"/>
    <path class="fil3" d="M1922.26 2421.78l-32.71 -8.8 13.49 -41.26 40.55 12.33c31.99,11.89 9.7,9.64 34.73,17.31l10.3 -18.41 -23.89 -1.57c15.17,-29.35 18.81,-32.52 52.57,-29.11 91.61,113.57 -123.63,233.16 -87.08,89.83 12.15,19.01 -1.38,20.53 22.48,17.01l3.73 -9.76c-18.78,-28.08 -8.34,6.92 -34.17,-27.57zm129.81 -218.13c10.63,-18.81 24.44,-39.69 47.51,-36.47 44.37,18.32 75.79,69.47 89.38,80.31 29.7,-6.59 38.35,-16.94 32.84,-50.54l-43.67 17.5c17.69,-41.24 47.8,-56.86 92.29,-53.89 134.64,109.46 -91.82,359.12 -196.93,225.83 -5.99,-33.02 6.03,-64.74 30.29,-87.65l2.75 44.12c30.47,-4.25 32.49,-5.03 36.26,-35.81 -21.91,-22.27 -82.11,-44.52 -105.43,-81.97 5.37,-30.1 -3.37,-9.74 14.71,-21.43zm-187.49 113c2.22,23.82 0.7,27.78 -11.66,48.73 -31.09,1.43 -43.8,-8.94 -72.37,-20.96 -3.97,-22.46 -9.22,-23.52 6.84,-44.88 3.38,-16.44 5.59,-36.37 14.21,-51.01 14.36,-24.39 16.49,-5.13 18.54,-36.35 -19.65,-22.49 -23.94,-22.47 -53.16,-13.64 2.1,33.6 11.38,4.95 27.3,41.89 -44.35,-4.84 -104.27,-48.43 -69.74,-98.84 51.55,-75.26 195.93,-54.76 247.97,7.99 31.49,37.97 92.34,170.76 -86.4,130.24 -8.7,25.18 -4.16,19.64 -21.53,36.83zm857.31 -126.35l-40.87 -12.58 15.78 -42.6c15.16,-97.8 26.45,-32.03 31.42,-91.75 -24.46,-14.57 -29.12,-18.7 -53.25,-4.89 11.09,31.96 9.26,3.31 26.4,39.95 -80.4,-13.48 -126.35,-90.88 -7.03,-140.01 54.63,-22.5 65.83,-7.64 115.74,8.65 73.42,23.95 152.22,119.79 78.28,176 -28.73,5.57 -63.55,9.08 -85.39,-10.33 24.67,-12.1 17.97,3.11 42.03,-15.8 -11.42,-28.35 -18.14,-26.65 -46.83,-17.95 -8.16,39.8 -10.9,97.4 -40.95,128.12 -22.81,-1.33 -19.03,3.83 -35.33,-16.81zm-193.9 -160.76l-23.02 28.21c-25.44,39.74 -48.78,-3.54 -72.93,-23.32 -10.7,-8.76 -31.98,-18.39 -39.79,-27.25 -11.32,-12.82 -8.22,-19.91 -23.66,-36.6 -42.19,3.57 -48.99,21.58 -46.14,61.92 43.5,-8.28 25.1,-25.44 57.94,-19.05 -8.56,42.31 -94.91,94.23 -134.67,50.53 -95.25,-104.71 28.64,-266.14 99,-296.79 55.98,-24.39 128.59,-23.68 162.35,34.25 3.81,11.73 -3.88,93.31 -49.08,103.82l7.19 -52.88c-41.03,-1.27 -46.74,12.19 -42.62,51.5 14.48,6.33 31.46,8.83 43.34,15.68 9.12,5.26 19.35,18.81 31.01,27.36 29.18,21.4 52.52,23.38 57.39,61.36 -15.9,19.49 -10.44,12.53 -26.31,21.26zm-385.01 -240.12l10.7 11.68c43.51,30.56 -10.31,50.35 -31.61,72.61 -11.82,12.36 -17.01,28.44 -29.93,37.25 -17.4,11.89 -20.13,2.45 -39.89,19.68 -10.69,38.09 19.64,55.5 60.5,54.87l-21.45 -60.07c52.1,11.98 91.39,106.65 41.17,145.15 -41.96,32.17 -146.01,28.2 -187.09,-4.8 -188.21,-151.18 -107.96,-278.38 -62.57,-293.95 41.65,-3.52 97,19.04 109.76,60.17 -23.86,-6.98 -30.19,-13.24 -56.43,-10.54 -0.35,35.06 9.08,53.25 46.56,46.32 19.97,-17.45 10.1,-16.73 21.59,-35.95 10.47,-17.52 17.09,-19.06 30.02,-31.09 29.25,-27.22 66.32,-106.31 108.67,-11.33zm-426.06 -24.25c27.38,11.53 9.49,6.7 31.24,16.57l12.2 -13.28c-15.12,-47.74 23.49,38.26 -10.4,-14.77 -6.56,-10.28 -4.09,11.15 -4.78,-11.29 85.04,-86.13 119.95,176.9 -51.63,141.04l0.65 632.88 810.58 1.43c-77.11,-62.3 -16.94,3.25 -124.86,-109.77 -39.03,-40.88 -57.92,-121.12 -24.77,-173.74l43.14 -46.6c38.38,-4.83 105.15,17.44 111.61,60.1l-21.92 -7.94c-30.63,-0.49 -12.74,-1.6 -23.86,6.91 9.61,39.63 7.3,16.95 39.7,31.75 29.04,-35.6 -13.95,-4.2 52.24,-67.9 29.15,-28.05 26.63,-47.88 67.03,-53.5 18.86,16.93 12.58,11.44 21.42,28.1l27.76 30.82c38.62,24.87 -9.37,48.85 -31.19,72.03 -80.15,85.17 -27.83,24.61 -75.29,58.29 0.8,33.74 22.54,66.36 56.7,51.02 13.69,-31.5 -16.11,-13.62 -12.26,-57.63 42.03,7.66 92.82,101.37 38.31,144.93 -19.63,17.61 -20.43,7.16 -36.31,32.91 32.91,1.37 294.85,11.87 328.71,-8.42l1.42 -38.17c-12.39,-11 -4.04,-5.38 -24.36,-10.17 -114.04,34.78 -156.66,-32.97 -93.31,-100.67 0.78,1.26 1.62,2.06 1.72,4.09 0.1,2.02 1.2,3.42 1.32,4.21l0.93 9.49c3.1,24.25 -6.7,-1.93 3.51,20.59 23.66,-5.62 18.59,1.58 27.74,-24.16 -12.64,-26.4 -13.84,-0.76 -36.21,-37.33 -17,-6.01 -42.03,-28.27 -51.74,-44.94 7.46,-21.2 25.7,-36.34 44.93,-49.98 19.23,6.64 23.13,9.85 32.69,27.57 24.7,10.24 20.12,8.43 42.97,28.1l0.95 -6.93c6.17,-23 20.36,-31.44 43.48,-41.77l4.26 -0.5 -1.61 -666.09 -104.55 2.42c48.75,27.53 140.71,202.69 -26.04,194.08 -43.26,-2.23 -33.06,2.58 -44.16,-17.47l10.05 -3.86c1.61,-0.4 3.92,-1 5.76,-1.38l33.65 -4.28c-0.33,-38.94 -19.83,-44.16 -54.2,-31.68 -10.08,15.26 -31.32,217.66 -84.71,145.87l-46.78 -16.94 -18.75 -12.89c4.48,-30.95 17.79,-46.76 26.21,-76.6 15.31,-54.26 19.03,-31.16 37.74,-66.63l-19.76 -31.36 -51.14 4.89c0.71,43.87 19.65,7.92 34.54,50.85 -71.27,0.03 -122.18,-59.03 -81.08,-132.66l-164.34 -0.09c46.98,118.79 -56.45,124.37 -98.63,96.59 19.45,-13.34 27.19,-0.61 39.89,-25.5 -17.8,-23.87 -15.31,-18.2 -45.48,-12.17 -6.59,39.73 -9.89,93.68 -39.69,129.44 -31.17,0 -11.44,0.46 -19.48,-8.5l-55.31 -18.59 8.67 -36.86c20.29,-86.43 42.31,-75 34.51,-95.1 -21.32,-22.52 -27.11,-23.17 -51.9,-9.4 13.59,34.77 9.9,2.78 27.36,39.65 -38.07,-5.83 -67.98,-25.08 -79.52,-60.63l-73.11 0.42 -36.86 36.11c-28.4,-4.54 -36.21,-13.82 -52.93,-36.62l-73.5 -0.24c-32.22,49.69 -100.99,69.35 -135.08,1.16l-48.55 -0.33 -0.34 164.71 24.8 16.31z"/>
    <path class="fil3" d="M1350.73 2511.35c41.23,16.01 237.1,13.59 273.97,-3.84 21.72,-183.97 -73.55,-170.69 -142.81,-204.25 94.76,-60.83 160.23,-118.92 136.58,-247.84 -16.51,-90 -132.86,-169.99 -224.78,-154.11 -133.58,23.08 -246.76,196.74 -108.02,352.83 45.32,50.99 86.47,50.48 153.13,52.25 -30.89,43.3 -116.41,51.43 -88.07,204.96z"/>
    <path class="fil3" d="M799.4 2080.7c25.26,201.93 319.72,171.84 298.95,-41.55 -18.71,-192.35 -324.82,-165.13 -298.95,41.55z"/>
    <path class="fil3" d="M463.74 2342.57c20.91,200.72 316.86,180.02 298.72,-34.6 -16.46,-194.86 -319.77,-167.58 -298.72,34.6z"/>
    <path class="fil3" d="M1011.7 2514.51l21.95 6.43 68.45 1.54 11.75 -7.92c49.6,-41.36 80.41,-61.42 69.37,-140.14 -15.41,-109.92 -195.68,-147.48 -232.03,-4.82 -19.21,75.4 17.88,101.72 60.51,144.91z"/>
    <path class="fil3" d="M1104.21 1637.61c-145.51,27.3 -121.09,255.34 38.56,231.1 144.71,-21.97 106.92,-258.4 -38.56,-231.1z"/>
    <path class="fil3" d="M932.49 1583.82l-346.72 0.84c16.45,98.71 73.1,156.42 176.14,158.07 105.81,1.7 146.25,-68.66 170.58,-158.91z"/>
    <path class="fil3" d="M1471.32 1684.94c-104.28,54.71 -25.93,207.43 73.41,157.2 98.7,-49.9 26.83,-209.8 -73.41,-157.2z"/>
    <path class="fil3" d="M523.39 1893.74c-109.28,40.78 -49.92,207.69 61.55,161.84 96.38,-39.65 40.35,-199.85 -61.55,-161.84z"/>
    <path class="fil3" d="M1553.67 1584.13l-272.02 0.78c59.35,82.41 207.29,61.34 272.02,-0.78z"/>
    <path class="fil3" d="M452.85 1671.26c42.34,-11.49 62.71,-44.27 69.72,-87.39l-72.89 -4.67c-3.68,29.3 -8.74,66.9 3.17,92.06z"/>
    <path class="fil3" d="M1930.41 2265.23c0.21,-0.72 17.67,6.66 -0.24,-20.16 -3,-4.5 -13.18,-9.24 -18.56,-9.59 -27.51,-1.8 -22.81,19.35 -23.62,37.13l42.42 -7.38z"/>
    <path class="fil1" d="M463.74 2342.57c-21.05,-202.18 282.26,-229.46 298.72,-34.6 18.14,214.62 -277.81,235.32 -298.72,34.6zm335.66 -261.87c-25.87,-206.68 280.24,-233.9 298.95,-41.55 20.77,213.39 -273.69,243.48 -298.95,41.55zm-276.01 -186.96c101.9,-38.01 157.93,122.19 61.55,161.84 -111.47,45.85 -170.83,-121.06 -61.55,-161.84zm947.93 -208.8c100.24,-52.6 172.11,107.3 73.41,157.2 -99.34,50.23 -177.69,-102.49 -73.41,-157.2zm-367.11 -47.33c145.48,-27.3 183.27,209.13 38.56,231.1 -159.65,24.24 -184.07,-203.8 -38.56,-231.1zm-651.36 33.65l-7.91 842.9 566.76 0.35c-42.63,-43.19 -79.72,-69.51 -60.51,-144.91 36.35,-142.66 216.62,-105.1 232.03,4.82 11.04,78.72 -19.77,98.78 -69.37,140.14l236.88 -3.21c-28.34,-153.53 57.18,-161.66 88.07,-204.96 -66.66,-1.77 -107.81,-1.26 -153.13,-52.25 -138.74,-156.09 -25.56,-329.75 108.02,-352.83 91.92,-15.88 208.27,64.11 224.78,154.11 23.65,128.92 -41.82,187.01 -136.58,247.84 69.26,33.56 164.53,20.28 142.81,204.25l58.38 9.51c10.7,-98.45 3.08,-248.59 2.35,-351.96 -0.83,-116.2 5.34,-238.46 3.19,-351.02 25.88,-17.75 33.23,-7.1 28.3,-48.87l-24.8 -16.31 0.34 -164.71 -138.79 -0.02c-64.73,62.12 -212.67,83.19 -272.02,0.78l-349.16 -1.09c-24.33,90.25 -64.77,160.61 -170.58,158.91 -103.04,-1.65 -159.69,-59.36 -176.14,-158.07l-63.2 -0.79c-7.01,43.12 -27.38,75.9 -69.72,87.39z"/>
    <path class="fil1" d="M2672.27 2215.98l-27.76 -30.82c-44.15,-1.73 -2.57,-10.62 -28.86,-11.93l-78.39 85.28 48.07 53.4c29.96,-23.95 86.24,-54.85 86.94,-95.93z"/>
    <path class="fil1" d="M2153.68 1801.1l-10.7 -11.68c-26.34,-8.7 -23.82,-15.59 -43.23,-33.47l-79.78 90.04 16.2 23.27c15.23,17.13 18.6,7.07 29.69,30.8 66.48,-59.79 94.89,-60.16 87.82,-98.96z"/>
    <path class="fil1" d="M2628.65 1849.21l46.78 16.94 23.54 -0.9 32.45 -108.4c-17.36,-14.32 -47.19,-13.03 -60.91,-28.83 -16.29,36.44 -50.32,82.13 -41.86,121.19z"/>
    <path class="fil1" d="M2504.97 2057.75l23.02 -28.21 12.07 -28.95 -92.59 -67.34 -46.38 50.49c40.95,28.32 59.75,79.13 103.88,74.01z"/>
    <path class="fil1" d="M1787.39 2299.54c-16.06,21.36 -10.81,22.42 -6.84,44.88 28.57,12.02 41.28,22.39 72.37,20.96 12.36,-20.95 13.88,-24.91 11.66,-48.73l7.63 -48.34 -48.19 -17.64c-19.69,23.62 -6.99,27.98 -36.63,48.87z"/>
    <path class="fil1" d="M2052.07 2203.65c-4.23,28.58 33.52,51 69.9,71.27 14.34,-14.89 26.78,-22.37 33.77,-41.96l-56.16 -65.78c-23.07,-3.22 -36.88,17.66 -47.51,36.47z"/>
    <path class="fil1" d="M2182.04 1709.13l-8.67 36.86 55.31 18.59c23.61,-6.86 27.69,-40.98 33.64,-65.12 9.9,-40.13 -10.03,-37.75 -44.4,-42.87 -12.67,26.62 -15.33,37.9 -35.88,52.54z"/>
    <path class="fil1" d="M2696.8 2135.12l-15.78 42.6 40.87 12.58 30.74 4.84 25.64 -89.17 -52.23 -16.42c-12.01,28.44 -6.73,27.73 -29.24,45.57z"/>
    <path class="fil1" d="M2823.7 2336.99c32.72,5.52 28.3,-6.63 49.77,-29.94l-23.89 -37.41c-9.56,-17.72 -13.46,-20.93 -32.69,-27.57 -19.23,13.64 -37.47,28.78 -44.93,49.98 9.71,16.67 34.74,38.93 51.74,44.94z"/>
    <path class="fil1" d="M1922.26 2421.78l24.27 1.99c6.15,-30.96 5.07,-18.06 -2.94,-39.72l-40.55 -12.33 -13.49 41.26 32.71 8.8z"/>
   </g>
   <path class="fil13" d="M1594.22 1019.77l-571.96 -1.11 -727.1 0.59 -165.04 -0.13 -127.88 3.32 4.53 556.76 98.89 4.67 85.72 0.79 470.35 -0.84 473.67 1.09 369 -0.78 188.28 0.02 65.86 0.33 183.24 -1.16 99.72 0.24 121.81 0.51 99.18 -0.42 379.26 1.07 222.94 0.09 378.03 0.06 141.84 -2.42 2.11 -559.23 -79.44 -7.44c-0.68,-9.96 -5.21,1.38 7.6,-11.62 32.4,-32.91 -7.39,15.03 12.05,-13.43l-50.3 -0.41c-53.02,29.27 -112.86,34.48 -201.84,28.7l-85.13 1.57 -307.26 2.18 -95.1 -6.1c-26.38,9.6 -42.83,11.34 -71.62,0.6l-334.15 -0.99 -2.63 -13.88c-8.29,16.63 4.36,4.34 -14.13,15.1l-570.5 2.27z"/>
   <path class="fil14" d="M988.14 932.43c-23.87,26.69 -194.2,80.93 -230.43,70.27l-48.07 -78.04c-24.13,-17.61 -6.3,-57.67 6.13,-76.88 10.25,-40.05 65.02,-198.89 94.4,-219.36 48,-14.4 261.54,92.76 317.93,119.55l10.37 12.37 2.56 54.73 23.96 18.21 1.26 40.22c-32.27,18.66 -145.38,60.28 -178.11,58.93zm418.98 -102.43c-9.24,9.46 7.74,8.21 -25.04,6.67 -40.55,-55.17 -52.41,-90.26 -9.22,-153.3l36.12 -95.59c46.79,-6.91 208.94,69.11 219.67,88.85 12.46,22.91 25.11,53.06 14.65,76.9l-236.18 76.47zm-256.33 -307.42c37.31,-1.68 71.21,20.64 105.67,34.63 55.09,22.35 55.91,25.81 68.12,82.76 -22.83,16.32 -167.79,73.04 -192.43,63.38 -61.53,-24.13 -6.56,-144.21 18.64,-180.77zm124.44 -133.18l62.18 -49.53 155.95 -116.93 16.36 6.35 165.79 272.83 -15.22 19.1 0.4 26.16 -181.29 3.65 -12.91 -3.65 -192.41 -41.65 1.15 -116.33zm-762.42 -74.61c7.99,-28.53 13.35,-33.99 41.14,-47.07 47.48,-57.52 243.27,-230.42 313.44,-182.98 15.91,10.76 202.42,279.22 217,308.23 24.11,25.71 36.22,44.42 14.76,77.26 -16.74,30.24 -23.63,18.92 -12.74,60.63l-221.93 25.28 -212.37 -48.95 -135.07 -34.9 -4.23 -157.5zm-20.57 -264.6c84.8,-9.36 133.37,-17.03 176.87,22.26 -3.56,29.22 -24.96,41.58 -46.57,62.58 -12.34,11.98 -47.16,51.67 -55.86,57.66 -75.54,51.94 -80.01,-96.6 -74.44,-142.5zm1089.32 44.21l1.01 9.51 -110.13 99.5c-40.99,-3.55 -29.81,-12.53 -65.72,-27.76l-9.23 -0.93 -35.24 -148.48 -183.61 21.33 153.91 67.36 6.76 25.08 7.97 30.32c57.64,29.69 -79.67,64.11 -101.11,71.76 -39.27,14.02 -124.78,47.51 -162.17,45.1 -83.09,-92.98 2.04,-139.3 15.41,-233.45l-648.23 -29.84 -7.06 10.3 25.41 591.33 32.78 -76.24c41.18,-13.67 183.65,59.43 222.84,82.92 1.56,3.8 23.27,74.39 23.46,76.04 -27.62,30.12 -176.51,68.01 -224.22,86.01l-78.62 0.43 3.91 784.51 -3.34 -556.76 94.27 -3.32c-3.41,-33.18 -4.54,-28.1 20.28,-40.75 38.03,-19.39 -16.14,12.48 10.72,-4.48 14.31,-9.04 16.41,-24.44 25.72,-27.1 33.4,3.54 60.44,40.05 64.94,72.46l535.98 -0.59c0.9,-30.69 46.17,-145.53 68.74,-164.66 39.47,-22.07 218.46,71.93 286.33,100.84 41.54,17.69 70.79,17.55 66.55,64.93l106.46 4.63 0.95 -8.47 -24.94 -357.62 1.48 -61.75 -2.43 -459.01c-14.72,-24.32 -7.45,-77.64 -7.81,-113.18l-41.89 -3.54 -70.13 73.57z"/>
  </g>
 </g>
</svg>
