<?xml version="1.0" encoding="UTF-8"?>
<!DOCTYPE svg PUBLIC "-//W3C//DTD SVG 1.1//EN" "http://www.w3.org/Graphics/SVG/1.1/DTD/svg11.dtd">
<!-- Creator: CorelDRAW 2017 -->
<svg xmlns="http://www.w3.org/2000/svg" xml:space="preserve" width="33.8666mm" height="25.3998mm" version="1.1" style="shape-rendering:geometricPrecision; text-rendering:geometricPrecision; image-rendering:optimizeQuality; fill-rule:evenodd; clip-rule:evenodd"
viewBox="0 0 3386.66 2539.98"
 xmlns:xlink="http://www.w3.org/1999/xlink">
 <defs>
  <style type="text/css">
   <![CDATA[
    .fil0 {fill:#FEFEFE}
    .fil1 {fill:#E6E7E8}
   ]]>
  </style>
 </defs>
 <g id="Capa_x0020_1">
  <metadata id="CorelCorpID_0Corel-Layer"/>
  <g id="_2924232607792">
   <rect class="fil0" x="0" y="-0.01" width="3386.67" height="2540"/>
   <path class="fil1" d="M2513.76 1100.65c0.45,5.59 14.37,12.24 9.47,0.22 -1.67,-4.09 -11.02,-19.71 -9.47,-0.22z"/>
   <path class="fil1" d="M2190.4 1703.58c-11.42,18.25 -3.3,15.62 -2.52,45.45 0.4,15.03 -2.16,32.33 -7.53,45.81 -7.6,19.04 -30.51,42.56 -47.12,53.53 -99.71,65.86 -228.15,-59.58 -161.06,-161.18 52,-78.76 112.19,-39.24 136.2,-57.02 -14.18,-23.91 -66.53,-12.14 -89.3,-2.66 -84.73,35.29 -110.72,146.21 -37.97,217.96 62.93,62.07 179.58,44.82 215.54,-52.32 5.72,-15.47 8.25,-32.39 7.58,-50.64 -1.41,-38.33 -10.92,-36.04 -13.82,-38.93z"/>
   <path class="fil1" d="M2365.36 1629.68c1.39,-1.23 3.42,-5.03 4.23,-3.66l17.96 -9.56c7.2,-2.53 15.87,-4.86 26.16,-5.44 9.16,-0.53 19.91,0.45 28.05,2.7 17.45,4.82 19.83,10.43 25.12,15.96 -7.08,17.24 -11.54,23.77 -47.09,26.38 -40.93,2.99 -41.16,1.63 -54.43,-26.38zm-8.94 6.26c31.56,60.94 109.38,16.64 115.63,14.8 18.66,-5.5 51.03,2.44 71.62,4.9 56.76,6.76 57.45,16 73.98,-0.9l-135.54 -20.13c-16.17,-20.33 -24.82,-30.66 -62.44,-31.34 -33.74,-0.62 -53.16,8.97 -63.25,32.67z"/>
   <path class="fil1" d="M2333.07 2193.83c55.51,-38.02 65.97,-18.3 95.12,-5.28 0.14,0.07 58.47,13.1 17.35,54.89 -20,20.33 -14.88,-2 -22.92,33.29 27.57,-15.37 50.53,-37.02 46.15,-80.85 -25.48,-19.67 -90.42,-51.88 -125.35,-23.62 -20.26,16.4 -7.39,-1.54 -10.35,21.57z"/>
   <path class="fil1" d="M2571.34 1498.81c13.88,14.27 14.51,14.22 34.57,6.61l-15.81 -28.29c-17.01,11.16 -11.96,0.49 -18.76,21.68z"/>
   <path class="fil1" d="M2347.38 1581.95c44.48,0.73 13.63,0.85 25.25,-8.55 -9.37,-19.66 13.96,-10.9 -22.78,-11.76l-2.47 20.31z"/>
   <path class="fil1" d="M2349.42 1612.51c13.31,-5.32 4.95,5.14 20.82,-16.21 -23.59,1.29 -7.84,0.75 -20.82,16.21z"/>
   <path class="fil1" d="M1576.26 1671.08c-13.46,-26.29 -2.65,-46.78 30.05,-30.28 13.77,27.18 -2.91,36.39 -30.05,30.28zm115.45 -83.05c-14.03,14.76 12.36,21.54 -15.89,10.52 -8.85,-12.95 -20.26,-23.69 -16.91,-48.64l-13.33 -6.67c-8.44,12.66 -1.75,7.63 -6.18,23.03 -12.95,44.96 -71.26,23.01 -92.87,84.21 -23.21,65.75 35.6,116.13 97.3,104.45 66.34,-29.44 17.89,-149.1 17.39,-151.13 52.52,48.84 37.12,86.84 15.94,141.58 62.24,-28.19 57.21,-85.27 20.85,-136.97 31.07,15.82 43.5,34.89 41.51,70.64 -0.83,14.82 -4.45,27.18 -11.65,39.59l-20.53 27.08c-0.63,-1.13 -2.38,3.03 -3.5,4.6 45.14,-9.62 75.93,-36.53 66.88,-90.2 -8.33,-49.38 -55.87,-59.13 -79.01,-72.09z"/>
   <path class="fil1" d="M2283.5 2187.95c16.72,0.93 145.46,115.2 151.18,139.21 -30.11,3.76 -75.54,-62.57 -119.21,-100.87 -20.9,-18.34 -21.73,-13.21 -31.97,-38.34zm-48.11 -6.92c10.66,66.03 -16.89,35.11 82.69,124.01l50.44 50.06c39.16,41.72 68.87,9.34 72.51,25.85 0.49,2.23 2.81,2.6 3.47,3.45l15.79 22.91c10.79,9.81 20.61,6.04 32.07,2.04 5.67,-35.1 -16.26,-36.73 -39.69,-45.11 1.94,-49.27 5.34,-48.96 -24.16,-75.61 -16.46,-14.87 -33.43,-30.01 -53.03,-47.19 -101.26,-88.74 -42.37,-71.13 -124.58,-74.94 -13.86,-22.13 -10.62,-44.36 -48.82,-34.74 -13.18,38.3 12.18,37.04 33.31,49.27z"/>
   <path class="fil1" d="M2352.82 1011.56c-3.83,-26.6 6.19,-41.55 30.35,-30.62 21.19,35.07 -6.47,43.63 -30.35,30.62zm163.6 22.47c5.96,-38.91 -7.47,-73.28 -41.19,-81.8 -10.3,-2.6 -111.35,-1.7 -120.87,1.31 -39.88,12.65 -75.65,107.35 16.31,154.71l12.38 -28.99 133.37 -45.23z"/>
   <path class="fil1" d="M2037.24 1821.3l-32.55 -1.9c-9.84,-47.89 37.92,-45.04 32.55,1.9zm52.06 -48.07c54.33,0.9 56.93,53.17 7.47,55.45 12.85,-29.77 1.36,11.37 10.46,-15.8 -40.03,0.95 -25.09,1.85 -35.34,-7.62 7.42,-19.48 -1.59,-13.59 30.94,-14.01 -7.51,-21.49 -6.04,15.53 -13.53,-18.02zm-39.95 3.53l-3.48 -25.53c24.06,-0.87 10.97,-6.3 23.84,10.64 -7.77,17.77 -3.79,16.9 -20.36,14.89zm81.65 -5.68c-18.49,-26.61 4.47,-46.18 23.94,-35.81 22.82,12.15 10.74,45.57 -23.94,35.81zm-135.33 -10.08c-7.48,10.17 5.73,3.48 -10.5,4.7 -11.66,-23.07 -5.48,-28.36 11.38,-40.28l16.22 13.96c10.37,12.3 17.02,11.8 10.02,21.71 -11.49,16.26 -6.1,10.65 -26.24,-4.64l-0.88 4.55zm75.32 -62.04c2.55,58.14 -64.88,29.54 -29.69,-9.81 19.73,-0.87 17.53,0.12 29.69,9.81zm-78.01 14.58c1.53,-1.38 3.98,-2.87 4.83,-3.86 15.37,-17.93 0.44,-11.79 -1.01,-19.12 -0.5,-2.51 -3.23,-2.12 -4.7,-3.36 21.1,4.86 15.09,-0.9 24.83,18.01 -9.83,6.4 1.99,6.59 -23.95,8.33zm148.23 4.15c-12.52,12.74 -46.88,23.46 -66.36,29.31l16.33 -98.55 -21.31 -0.56c6.9,8.55 9.97,7.1 4.9,24.04 -2.41,1.57 7.05,8.32 -14.49,5.33 -12.64,-1.75 -9.66,-8.39 -10.44,-9.57 8.64,-20 -0.79,-3.05 12.24,-8.97 0,-12.73 2.97,-8.81 -10.49,-10.32 -95.34,19.2 -112.07,146.23 -36.26,188.19 93.83,51.95 178.28,-24.71 153.64,-122.86l-27.76 3.96z"/>
   <path class="fil1" d="M1222.29 1739.48c-67.28,23.15 -117.6,-116.99 -30.98,-181.82 96.48,-72.21 230.38,79.58 110.69,63.48 13.15,-20.02 29.61,-16.93 31.27,-21.51 0.73,-2 3.21,-0.96 4.45,-2.03 -21.86,-12.36 -38.98,-9.36 -56.66,-1.12 -7.61,54.26 80.42,69.76 77.87,105.62 -6.62,15.22 -35.67,44.19 -52.78,53.02 -48.07,-15.57 -54.73,-81.42 -100.06,-84.99 -20.36,18.52 -23.46,37.81 -6.25,58.46 8.48,-23.75 -4.19,-21.65 19.09,-34.93 12.5,20.6 12.54,19.85 3.36,45.82zm111.28 -94.44c18.91,-17.51 38.17,-14.99 31.46,-50.96 -10.23,-54.78 -114.05,-100.2 -187,-49.57 -37.19,25.81 -57.78,79.81 -48.06,130.36 9.45,49.21 37.75,92.12 97.15,84.92l20.03 -25.89c0.35,-1.76 1.76,-2.03 2.72,-2.96 59.7,68.05 68.75,39.52 99.33,9.9 50.45,-48.87 29.54,-51.12 -15.63,-95.8z"/>
   <path class="fil1" d="M2384.04 1594.9l40 -6.17 29.02 -49.54c7.01,31.87 -2.21,18.41 16.83,28.95 -4.56,-23.48 -13.15,-26.75 -13.69,-51.02l27.43 -22.04c-3.01,32.3 -1.33,40.02 10.28,58.86 27.83,-10.79 -6.51,15.18 14.99,-11.55l5.8 -9.76c8.31,46.38 35.48,35.84 6.73,88.57l58.67 0.42c35.81,-160.18 -113.72,-185 -173.8,-124.2 -23.22,23.51 -24.71,55.61 -22.26,97.48z"/>
   <path class="fil1" d="M2459.55 1105.58c32.39,20.74 30.82,7.59 38.83,3.48 19.48,-42.1 -23.75,-16.67 4.12,-39.44 10.09,-8.24 72.92,-0.8 5.74,67.89 -1.25,-0.91 -3.02,-2.21 -3.7,-2.81 -0.66,-0.58 -2.79,-2.08 -3.54,-2.77l-10.12 -12.01c0.98,15.24 0.85,13.83 8.02,23.14 -40.79,2.14 -85.19,-9.22 -81.88,-46.49 27.27,-8.43 24.33,-2.65 42.53,9.01zm98.63 -55.35c-6.48,-8.39 -12.06,9.86 -3.94,-9.87l8.09 -7.31c-19.13,-0.52 -148,43.86 -176.78,57.83 16.06,76.4 99.52,91.59 140.11,65.43 34.26,-22.07 46.34,-52.27 22.79,-88.56 17.18,-5.26 14.45,1.9 29.42,-10.16l-19.69 -7.36z"/>
   <path class="fil1" d="M2144.07 1701.43c-1.12,0.31 -8.3,2.71 -22.39,-3.08l6.19 -36.1c26.71,6.26 31.95,17.83 16.2,39.18zm-2.86 16.26c12.06,-13.16 17.39,-12.78 40.56,-17.33 -10.18,-33.93 -34.74,-57.1 -66.69,-64.42l-28.8 95.51 54.93 -13.76z"/>
   <path class="fil1" d="M2201.71 1690.25c20.51,-31.65 -50.73,-76.79 -79.7,-80.46 5.98,25.12 -8.44,6.17 16.93,22.13 61.09,38.41 32.58,47.4 62.77,58.33z"/>
   <path class="fil1" d="M2476.25 1585.91l-21.2 3.75c12.23,17.5 29.76,34.86 51.62,28.26 2.17,-4.54 15.09,4.98 -0.76,-24.59l-15.6 9.34c-0.48,-30.66 18.17,-20.9 -2.53,-46.4 -11.03,15.2 -2.03,12.91 -11.53,29.64z"/>
   <path class="fil1" d="M2465.71 1458.45l31.65 -1.18c0.04,-0.28 2.27,-21.82 2.24,-22.5 -1.08,-25.64 -0.86,-11.29 -4.95,-20.42l-33.53 -0.58 4.59 44.68z"/>
   <g>
    <path class="fil1" d="M1957.48 1272.37c7.58,22.86 10.43,14.58 -5.89,32.27 -26.2,0.5 -29.98,-6.11 -19.06,-31.95 5.56,-2.27 1.17,-2.61 14.34,-3.4 12.1,-0.72 2.82,0.36 10.61,3.08zm-4.48 -40.41l-1.85 10.97 48.15 7.85c-38.68,10.31 -19.56,2.19 -57.86,-0.94 -68.7,41.62 -19.53,98.18 -12.44,151.27l16.81 26.29 78.08 -1.42c50.5,-162.37 -14.29,-166.35 -15.77,-176.69l-2.53 -13.81c-18.47,-55.01 -7.44,-22.67 16.91,-60.4 -15.66,-14.28 -8.7,-12.6 -35.49,-9.71 -12.63,26.02 -6.41,60.26 -34.01,66.59z"/>
    <path class="fil1" d="M2085.55 1350.7c7.21,-33.84 34.91,-143.95 -56.93,-109.46 2.76,5.13 -6.64,1.21 5.43,15.79 33.21,40.11 13.77,113.79 2.57,160.19 41.65,-7.54 39.11,-20.4 48.93,-66.52z"/>
    <path class="fil1" d="M1929 1401.11c-25.82,-29.25 -49,-100.88 -18.76,-138.57 6.13,-7.64 56.37,-42.26 -21.85,-32.31 -24.48,47.18 -24.02,49.78 -14.19,106.41 6.74,38.83 11.83,68.71 50.76,76.2l4.04 -11.73z"/>
    <path class="fil1" d="M2032.18 1209.18c-24.35,-4.51 -20.51,6.25 -23.48,15.93 18.31,10.58 25.13,7.29 49.67,9.19 -5.4,-11.04 -6.18,-21.41 -26.19,-25.12z"/>
    <path class="fil1" d="M1953 1231.96l7.28 -24.75c-25.7,-5.53 -19.85,-7.09 -40.44,2.77 -0.56,9.08 -4.96,8.41 7.21,16.15 11.28,7.16 10.09,4.74 25.95,5.83z"/>
   </g>
   <path class="fil1" d="M2419.05 1441.67l8.45 25.23c18.42,-2.63 16.03,0.36 26.62,-12.31l-3.26 -20.85 -31.81 7.93z"/>
   <polygon class="fil1" points="2506.79,1459.59 2534.41,1466.39 2543.3,1442.8 2515.33,1432.26 "/>
   <path class="fil1" d="M2547.49 1477.04c18.66,12.61 6.97,8.7 31.57,-0.47 -8.37,-23.44 -1.51,-16.08 -26.48,-27.59l-5.09 28.06z"/>
   <path class="fil1" d="M2385.41 1466.22c10.76,17.59 7.08,13.64 25.03,22.25 10.7,-23.82 13.22,-16.21 -3.33,-36.72l-21.7 14.47z"/>
   <path class="fil1" d="M2616.91 1548.92l-3.6 -31.28c-40.79,5.52 -35.41,27.47 3.6,31.28z"/>
   <path class="fil1" d="M2360.98 1507.21c18.17,6.23 22.93,12.86 29.89,-4.53 4.5,-11.29 -10.22,-18.31 -15.03,-22.05 -12.32,11.67 -12.67,12.16 -14.86,26.58z"/>
   <path class="fil1" d="M2349.08 1550.56l26.14 -6.39c2.16,-31.42 13.73,-18.18 -18.14,-25.22l-8 31.61z"/>
   <path class="fil1" d="M2591.71 1610.92c6.78,10.59 -13.57,13.83 24.16,8.81 0.68,-13.07 5.4,-16.71 -5.51,-21.77 -30.28,-14.04 -15.84,9.52 -18.65,12.96z"/>
   <path class="fil1" d="M1644.86 1530.98l28.18 11.34 2.16 -32.21c-32.51,11.42 1.9,9.46 -29.14,7.81l-1.2 13.06z"/>
   <path class="fil1" d="M2591.71 1573.4c10.01,17 -13.34,9.65 21.76,10.88 1.17,-3.2 8.27,-11.87 0.46,-20.3 -20.79,-22.45 -21.59,8.7 -22.22,9.42z"/>
   <path class="fil1" d="M3237.35 2364.3c6.78,3.7 6.08,2.91 13.28,-0.32l3.58 11.16 10.15 -3.23c-1.74,-8.53 -3.92,-11.25 -2.84,-20.11 -10.02,8.73 -7.74,11.35 -24.17,12.5z"/>
   <path class="fil1" d="M3247.49 2353.89c7.79,-6.25 10.79,-18.01 1.17,-23.44 -0.14,5.28 1.64,-0.05 -2.9,5.12 -2.94,3.35 -0.65,7.02 1.73,18.32z"/>
   <path class="fil1" d="M3272.33 2369.72c5.15,-5.28 7.89,-10.61 8.52,-17.69 -3.06,4.33 -2.55,-3.08 -2.75,4.5l-7.41 -1.52 -4.04 8.09c5.61,5.05 2.57,-0.13 5.68,6.62z"/>
   <path class="fil1" d="M2973.63 1330.4c17.22,-8.85 25.69,15.52 13.03,22.43 -16.61,9.08 -28.5,-14.49 -13.03,-22.43zm-122.91 15.04c3.2,2.9 5.47,2.28 11.25,3.64 2.76,-7.11 8.17,-12.43 16.33,-15.9 -5.85,-5.23 -3.25,-0.2 -9.76,-5.23 -5.44,-4.2 -1.44,-4.73 -8.04,-4.39 -4.25,3.32 -9.62,16.52 -9.78,21.88zm188.17 -59.68c31.98,-10.35 46.04,40.09 14.21,49.22 -31.84,9.13 -49,-37.95 -14.21,-49.22zm-171.81 26.59c3.9,3.23 8.25,7.6 12.54,11.86 9.65,9.59 7.72,1.02 17.39,6.7l31.9 30.87 233.05 33.73 -3.25 28.55c-11.45,2.69 -139.19,-14 -161.31,-16.44 -33.36,-3.67 -130.4,-0.74 -137.91,-39.47 -3.65,-4.54 -2.19,-6.11 -13.16,-7.79l2.52 14.51c5.05,43.31 111.81,41.48 146.4,45.3 44.3,4.9 143.37,19.8 178.76,16.78l-6.59 -77.37c-27.64,2.35 -38.4,21.26 -52.02,-0.23 -14.99,-23.63 11.89,-30.53 15.41,-39.37 -1.64,-8.92 -20.02,-26.2 -27.1,-33.17 -23.99,-23.63 -11.45,-12.44 -9.64,-42.61 3.03,-50.87 -44.83,-42.34 -77.44,-33.69 -53.24,14.13 -122.59,51.85 -149.55,101.84zm-6.58 11.21c6.6,-0.34 2.6,0.19 8.04,4.39 6.51,5.03 3.91,0 9.76,5.23l18.71 -2.27c-9.67,-5.68 -7.74,2.89 -17.39,-6.7 -4.29,-4.26 -8.64,-8.63 -12.54,-11.86l-6.58 11.21zm-11.65 51.31l-2.52 -14.51c10.97,1.68 9.51,3.25 13.16,7.79l2.48 -19.07c-5.78,-1.36 -8.05,-0.74 -11.25,-3.64 -5.66,5.37 -9,23.57 -1.87,29.43z"/>
   <path class="fil1" d="M2848.06 1883.7c92.8,30.12 91.26,108.15 -4.75,76.44 -92.3,-30.48 -93.19,-108.23 4.75,-76.44zm145.82 123.25c-5.09,-16.29 -92.03,-154.6 -100.64,-157.01 -15.92,-4.46 -190.73,-14.45 -193.35,-11.16 -2.38,3 87.01,153.13 99.46,156.01 10.3,2.38 190.65,13.23 194.53,12.16z"/>
   <path class="fil1" d="M3134.95 2228.9c33.26,46.36 96.72,96.94 -8.71,123.39l-19.92 -68.62 -3.69 1.11c-41.1,-14.93 -150.32,51.47 -113.67,108.65l83.84 -20.86 12.85 11.14c32.92,-8.35 82.17,-16.37 102.78,-43.04 30.92,-39.99 32.48,-39.39 84.08,-52.07 -12.56,-35.8 -45.35,-24.55 -73.14,-16.35 -8.41,-13.52 -37.82,-48.67 -49.44,-61.35 -12.03,-13.12 -81.01,22.97 -14.98,18z"/>
   <path class="fil1" d="M2866.04 2237.81c-25.88,18.74 -4.47,85.89 11.28,97.59 17.75,13.19 93.19,-6.75 111.89,-18.53 28.18,-17.76 5.41,-86.87 -9.76,-98.35 -17.3,-13.09 -96.19,6.83 -113.41,19.29z"/>
   <g>
    <path class="fil1" d="M3089.73 1715.46c-55.57,10.19 -75.35,78.19 -33.53,115.84 41.8,37.62 108.6,9.98 111.78,-45.17 0.95,-16.36 -9.71,-71.1 -30.82,-35.83 -15.32,25.61 -7.64,57.24 -37.54,55.81 -28.35,-1.35 -33.16,-31.17 -1.89,-50.38 10.59,-6.51 46.64,-50.29 -8,-40.27z"/>
    <path class="fil1" d="M3089.39 1690.68l49.67 12.85c-2.13,10.42 -21.62,39.03 -28.91,50.36 -5.91,9.18 -47.86,25.13 -18.72,42.52 29.55,17.63 23.61,-23.98 30.06,-34.56 6.57,-10.77 23.34,-42.96 31.94,-47.53l33 39.91c20.09,-15.67 -16.73,-34.35 -14.86,-47.55 0.51,-3.66 22.89,-38.04 26.69,-44.21 10.96,-17.8 61.6,-76.81 38.55,-94.49 -30.23,-23.2 -67.6,75.03 -95.49,113.17 -11.18,15.3 -49.14,-13.1 -51.93,9.53z"/>
   </g>
   <path class="fil1" d="M2777.38 2031.19l196.08 13.14c27.8,-36.25 12.19,-31.16 -18.92,-32.74 -20.66,-1.05 -41.49,-2.39 -62.15,-3.62 -20.25,-1.21 -40.51,-2.43 -60.75,-3.56 -41.93,-2.34 -34.11,-11.31 -54.26,26.78z"/>
   <path class="fil1" d="M2678.11 1874.16l91.34 154.33c23.43,-29.88 17.12,-30.61 0.9,-56.54l-59.85 -95.89c-15.83,-25.67 -16.89,-40.54 -32.39,-1.9z"/>
   <path class="fil1" d="M3272.33 2369.72c-3.11,-6.75 -0.07,-1.57 -5.68,-6.62l4.04 -8.09 7.41 1.52c0.2,-7.58 -0.31,-0.17 2.75,-4.5l0.66 -7.87c2.7,-5.28 0.95,-8.07 -0.43,-15.16l-9.17 -0.06 -0.68 -7.85 4.78 -2.1c-3.56,-5.89 -3.62,-7.17 -9.34,-9.63 -11.47,-22.07 -72.48,18.43 -69.51,40.59 4.58,34.11 49.81,46.62 75.17,19.77zm-9.85 -29.36l-0.96 11.43c-1.08,8.87 1.1,11.59 2.84,20.12l-10.15 3.23 -3.58 -11.16c-7.2,3.23 -6.5,4.02 -13.28,0.32 -42.27,-2.68 -11.51,-71.5 19.53,-38.14l5.6 14.2z"/>
   <path class="fil1" d="M3066.34 2383.61c-6.16,5.53 -0.1,8.32 -4,18.59 -2.24,5.9 -7.31,10.99 -13.67,13.18 -21.37,7.35 -24.23,-8.59 -32.67,-18.01l-17.38 4.11c8.13,44.55 67.07,46.73 82.62,7.4 5.49,-13.89 -3.34,-26.77 -14.9,-25.27z"/>
   <path class="fil1" d="M3100.11 2268.46c8.56,-24.7 -20.49,-14.79 -31.81,-11.79 -9.45,2.51 -44.6,9.18 -48.68,16.29 -3.33,5.82 -0.36,14.86 6.53,16.53 5.21,1.26 67.45,-13.16 73.96,-21.03z"/>
   <g>
    <path class="fil1" d="M1104.11 2136.6l10.11 0.2 -0.22 36.1 -9.87 -0.38 -0.02 -35.92zm2.25 -16.28c7.41,-3.8 12.15,6.05 6.91,10.07 -7.47,5.72 -15.49,-5.68 -6.91,-10.07zm-129.05 52.89c-29.36,1.37 -53.41,-22.53 -30.66,-51.55 6.95,-8.86 18.34,-15.97 27.03,-24.02 16.42,-15.24 8.73,-24.79 14.71,-35.14 91.25,51.26 37.51,132.25 8.48,108.97l6.34 2.06 15.77 -48.39c-9.46,0.45 -20.56,11.7 -28.36,17.32l-7.45 -6.18 15.31 -34.71c-11.93,5.06 -22.63,18.54 -28.5,30.6 -14.71,30.2 2.64,28.64 7.33,41.04zm-13.83 -148.87c-69.52,7.54 -106.34,34.03 -105.86,105.81 0.42,61.41 -10.19,56.11 51.25,56.25 35.63,0.09 71.26,0.01 106.89,0.01 15.39,0 94.48,3.32 101.72,-3.99 7.75,-7.82 4.43,-86.43 -0.61,-99.1 -21.11,-53.09 -104.31,-64.31 -153.39,-58.98z"/>
    <path class="fil1" d="M830.02 2217.24l319.06 -0.03c21.98,-32.98 -47.19,-22.75 -64.73,-22.75l-188.24 0c-15.87,0 -88.51,-9.5 -66.09,22.78z"/>
    <path class="fil1" d="M1064.29 2260.37l70.29 1.36c4.18,-7.3 4.43,-28.97 0.01,-33.57 -5.46,-5.68 -25.42,-2.54 -34.28,-2.54 -8.03,0 -29.72,-2.17 -35.04,1.77 -5.48,4.06 -5.45,26.71 -0.98,32.98z"/>
    <path class="fil1" d="M844.33 2260.06l70.27 1.71c4.46,-6.95 4.37,-29.28 0.01,-33.68 -5.5,-5.55 -25.48,-2.47 -34.45,-2.47 -9.25,0 -28.56,-3 -34.95,1.89 -5.31,4.07 -5.2,26.86 -0.88,32.55z"/>
    <path class="fil1" d="M981.79 2259.79l70.2 2.03c4.45,-6.79 4.49,-29.15 -0.15,-33.72 -5.71,-5.63 -25.51,-2.48 -34.49,-2.48 -9.23,0 -28.56,-2.97 -34.8,1.99 -5.14,4.09 -4.98,26.71 -0.76,32.18z"/>
    <path class="fil1" d="M944.15 2303.86c5.57,3.73 59.05,3.68 65.17,0.1 3.07,-5.11 4.29,-25.87 -0.19,-29.9 -2.69,-2.43 -60.25,-2.49 -63.61,-0.25 -4.58,3.06 -3.29,25.16 -1.37,30.05z"/>
    <path class="fil1" d="M1020.17 2304.55c6.93,2.49 57.94,2.71 64.39,-0.34 3.1,-5.49 4.24,-26.32 -0.28,-30.23 -2.14,-1.85 -60.57,-3.37 -64.45,0.64 -3.67,3.82 -2.48,25.42 0.34,29.93z"/>
    <path class="fil1" d="M926.47 2260.83c5.42,2.05 38.78,2.16 44.04,-0.29 2.82,-6.61 2.64,-27.29 -0.09,-34.04 -4.89,-1.09 -36.29,-1.86 -40.81,-0.75 -9.94,2.45 -4.19,33.41 -3.14,35.08z"/>
    <path class="fil1" d="M843.29 2304.05c6.05,3.31 34.32,2.97 40.65,0.54 2.41,-5.11 2.73,-19.9 1.56,-26.24 -1.65,-9.03 -12.05,-5.79 -21.29,-5.79 -6.51,0.01 -19.95,-3.07 -21.88,4.65 -1.25,5.02 -0.69,22.19 0.96,26.84z"/>
    <path class="fil1" d="M1095.08 2304.4c6.07,2.74 35.24,2.69 40.5,-0.32 1.96,-5.05 2.14,-19.87 1.28,-25.61 -1.37,-9.08 -11.78,-5.93 -20.59,-5.91 -6.86,0.02 -20.25,-2.96 -22.49,4.47 -1.72,5.68 -1,22.82 1.3,27.37z"/>
    <path class="fil1" d="M894.12 2304.38c6.1,2.81 35.06,2.67 40.58,-0.17 1.67,-4.88 1.99,-20.32 1.19,-25.75 -1.35,-9.1 -11.79,-5.91 -20.63,-5.89 -6.86,0.02 -20.24,-2.99 -22.42,4.46 -1.67,5.69 -1.01,22.82 1.28,27.35z"/>
   </g>
   <path class="fil1" d="M3160.74 2193.19c-14.13,8.45 -5.83,30.81 17.29,21.48 14.51,-5.85 5.74,-35.23 -17.29,-21.48z"/>
   <path class="fil1" d="M3247.49 2353.89c-2.38,-11.3 -4.67,-14.97 -1.73,-18.32 4.54,-5.17 2.76,0.16 2.9,-5.12 -10.16,-7.68 -24.41,-1.88 -24.03,10.89 0.38,12.66 12.89,19.07 22.86,12.55z"/>
   <path class="fil1" d="M3054.09 2387.54l-28.11 6.57c5.06,24.45 35.12,15.51 28.11,-6.57z"/>
   <polygon class="fil1" points="3281.08,2329 3276,2318.99 3271.23,2321.09 3271.91,2328.94 "/>
   <path class="fil1" d="M2362.52 2360.65c-5.03,-2.81 1.38,-4.15 -10.84,-3.75 -3.13,0.1 -15.68,3.49 -20.35,4.16 -21.35,3.07 -26.17,2.08 -47.04,-3.65 -67.05,-18.41 -59.21,-33.56 -60.42,-61.85 17.99,-12.47 24.76,-17.78 26.08,-29.49 3.25,-28.89 -3.91,-14.86 -6.22,-18.3 -16.18,40.14 -57.81,69.25 -9.23,103.09 32.53,22.66 93.29,32.19 128.02,9.79z"/>
   <path class="fil1" d="M2434.46 1107.29c-12.8,11.81 -4.87,11.46 2.07,3.45 9.43,-10.85 4.88,-9.87 -2.07,-3.45z"/>
   <path class="fil1" d="M2474.24 1128.19c9.45,-4.56 -6.45,-14.38 -6.8,-0.65l6.8 0.65z"/>
   <g>
    <path class="fil1" d="M1868.33 2256.04c-0.41,3.25 -16.49,10.37 -2.02,24.69 14.2,14.07 21.73,-0.65 22.38,-0.97l4.62 -19.78 -24.98 -3.94z"/>
    <path class="fil1" d="M1954.09 2322.47l0.06 57.35 -136.1 2.22c-67.73,0.14 -8.25,-9.05 -52.23,-22.33 -27.61,-8.34 -32.39,14.76 -47.82,22.31l-3.93 -137.96c45.48,1.23 22.39,5.36 45.9,19.21 35.43,20.88 31.06,-5.43 50.64,-15.44 17.36,-8.89 114.63,-4.3 141.52,-2.6 -7.76,22.18 -19.5,-2.92 -24.29,33.74 -4.07,31.24 11.44,28.87 26.25,43.5zm-164.78 -88.43l1.14 13.95c-7.77,3.27 8.37,11.56 -16.13,4.98 -19.18,-5.15 -11.03,-21.07 -4.95,-23.92 24.22,-11.36 19.67,4.83 19.94,4.99zm148.42 50.91c20.73,-49.65 78.46,-13.04 -51.78,-99.17 -27.32,-18.07 -58.02,-41.15 -86.66,-53 -117.67,52.96 -98.16,139.25 -97.25,255.78 51.85,14.53 26.77,-3.15 53.48,-19.21 32.62,10.64 6.24,13.56 37.52,23.36 40.92,-0.06 138.59,7.02 171.6,-4.88 0.26,-123.05 1.74,-48.26 -26.91,-102.88z"/>
    <path class="fil1" d="M1931.02 2367.33c4.27,-15.38 7.15,-15.42 -0.16,-32.35 -27.6,-16.73 -44.15,-0.87 -34.29,27.94 17.68,12.35 13.41,8.18 34.45,4.41z"/>
    <path class="fil1" d="M1848.88 2339.3c0.29,-4.15 21.32,-18.92 3.58,-38.54 -14.48,-16.01 -29.13,-7.36 -41.44,2.95 -5.04,31.35 6.97,41.35 37.86,35.59z"/>
    <path class="fil1" d="M1741.1 2305.83c-36.15,44.28 47.42,55.72 20.87,0.72l-20.87 -0.72z"/>
   </g>
   <path class="fil1" d="M2452.47 1128.84c17.55,-22.89 0.05,-12.43 -2.48,-15.3 -5.17,20.78 -5.1,6.12 2.48,15.3z"/>
   <path class="fil1" d="M983.01 1123.78l-0.06 57.35 136.1 2.22c67.73,0.14 8.25,-9.05 52.23,-22.33 27.61,-8.34 32.39,14.76 47.82,22.31l3.93 -137.96c-45.48,1.23 -22.39,5.36 -45.9,19.21 -35.43,20.88 -31.06,-5.43 -50.64,-15.44 -17.36,-8.89 -114.63,-4.3 -141.52,-2.6 7.76,22.18 19.5,-2.92 24.29,33.74 4.07,31.24 -11.44,28.87 -26.25,43.5zm164.78 -88.43l-1.14 13.95c7.77,3.27 -8.37,11.56 16.13,4.98 19.18,-5.15 11.03,-21.07 4.95,-23.92 -24.22,-11.36 -19.67,4.83 -19.94,4.99zm-148.42 50.91c-20.73,-49.65 -78.46,-13.04 51.78,-99.17 27.32,-18.07 58.02,-41.15 86.66,-53 117.67,52.96 98.16,139.25 97.25,255.78 -51.85,14.53 -26.77,-3.15 -53.48,-19.21 -32.62,10.64 -6.24,13.56 -37.52,23.36 -40.92,-0.06 -138.59,7.02 -171.6,-4.88 -0.26,-123.05 -1.74,-48.26 26.91,-102.88z"/>
   <path class="fil1" d="M279.95 1747.13c-4.17,-11.4 0.6,-14.7 -14.67,-16.83 -20.45,-2.86 -16.78,9.82 -19.91,19.17 20.54,5.53 14.09,9.23 34.58,-2.34zm17.04 -22.83c0.09,-0.1 13.91,-0.6 14.69,-39.68 0.39,-19.76 -5.05,-32.9 -10.48,-44.62 -12.8,12.93 -6.68,-6.67 -9.21,13.48 -2.72,21.62 13.18,6.99 5,70.82zm62.19 -168.58c-32.83,-4.16 -56.85,-2.89 -87.1,-13.73 -16.43,-5.89 -59,-26.39 -34.71,-43.44 31.82,-22.34 117.25,36.26 135.8,50.25l51.17 -3.68c-18.37,15.49 -9.74,6.77 -40.2,13.83 -53.69,12.43 -68.02,44.68 -86.88,63.12 10.14,20.12 31.53,28.25 20.86,82.81 -20.74,106.05 -131.88,53.49 -75.85,-51.27 18.88,-35.29 25.38,-17.21 46.1,-34.12 14.49,-11.83 7.27,-22.03 32.21,-38.95 -59.57,8.23 -93.56,42.25 -168.23,35.41l21.36 -18.36c89.13,-64.34 138.23,-13.81 185.47,-41.87z"/>
   <path class="fil1" d="M797.37 1923.77l-22.66 -14.78c-36.71,-22.51 -32.25,-44.83 -38.93,-84.5l139.22 -2.82 14.01 42.03c1.14,-1.57 1.74,-3.92 2.3,-5.36 0.54,-1.44 1.54,-3.6 2.19,-5.38 0.66,-1.77 1.3,-3.49 1.98,-5.45l5.11 -16.51c0.45,-1.39 1.48,-2.45 1.81,-5.32 0.32,-2.87 0.81,-3.74 1.83,-5.31 16.39,25.03 8.35,59.09 -20.72,82.37 -26.97,21.59 -48.57,19.43 -86.14,21.03z"/>
   <path class="fil1" d="M735.78 1824.49c-7.86,4.34 -4.72,-1.72 -8.7,11.75 -2.82,9.57 -2.92,14.84 -1.75,24.68 3.75,31.68 33.78,60.93 72.04,62.85 1.43,0.81 -3.82,2.07 13.85,5.34 77.31,14.28 149.75,-61.38 99.45,-118.61 -16.01,-18.21 -31.88,-25.82 -58.7,-33.19l-3.57 -11.23c-0.35,-1.42 -1.02,-3.85 -1.42,-5.57l-5.29 -24.03 -31.26 -0.74c-6.84,15.05 -1.18,5.41 -4.59,19.16l-2.64 10.71c-0.46,1.67 -1.3,3.98 -1.7,5.34 -5.61,19.13 -42.36,1.51 -65.72,53.54zm47.77 -57.49c-39.4,-36.45 -68.11,-10.55 -59.92,44.11 11.28,-9.03 13.74,-14.7 26.04,-23.77 15.54,-11.45 19.48,-7.68 33.88,-20.34zm26.69 -41.31c55.05,10.05 47.89,-11.07 50.2,-17.68 -1.38,-0.56 -54.67,-15.46 -69.01,8.96 9.96,7.79 -10.86,3.31 18.81,8.72zm-13.84 26.16c-9.52,-32.58 -11.04,-10.45 -15.58,-41.13 12.9,-19.43 8.64,-5.4 16.68,-20.47 6.63,-12.41 -0.59,-5.73 6.67,-20.23l43.78 -0.4c12.52,17.29 -0.2,5.02 10.31,24.16 32.08,58.43 -0.93,7.17 -1.53,71.3 162.78,75.35 52.11,192.75 -56.12,173.47 -68.3,-12.16 -78.69,-41.96 -86.93,-106.35 -10.66,-83.33 -0.36,-113.65 82.72,-80.35z"/>
   <path class="fil1" d="M413.63 1697.11c-17.35,-18.52 -30.02,-9.88 -33.43,11.22 36.51,4.28 16.98,-1.22 33.43,-11.22zm3.77 -35.62c-4.28,-39.63 -16.62,-64.83 -55.31,-63.13l55.31 63.13zm-83.24 -8.16c-22.94,-88.24 70.43,-96.7 93.27,-4.36 23.44,94.81 -70.32,92.63 -93.27,4.36z"/>
   <path class="fil1" d="M1006.08 1168.64c-4.27,-15.38 -7.15,-15.42 0.16,-32.35 27.6,-16.73 44.15,-0.87 34.29,27.94 -17.68,12.35 -13.41,8.18 -34.45,4.41z"/>
   <path class="fil1" d="M648.27 1679.57l-23.66 -1.45c-1.3,4.09 -0.07,-0.25 -0.29,3.47l-0.35 3.96c-9.18,-1.62 -0.39,1.64 -5.27,-7.1 -7.07,-0.75 -10.47,-1.13 -14.32,1.12 -8.26,4.84 1.54,-1.87 -10,-0.27l-6.03 -0.11c-19.65,1.77 -15.3,-0.01 -19.52,0.28 -0.28,0.02 -5.63,1.2 -6.38,1.33 3.8,-6.56 2.28,-5.74 18.34,-5.6 18.52,0.16 59.42,-3.32 67.48,4.37z"/>
   <path class="fil1" d="M524.88 1409.03c-6.78,3.7 -6.08,2.91 -13.28,-0.32l-3.58 11.16 -10.15 -3.23c1.74,-8.53 3.92,-11.25 2.84,-20.11 10.02,8.73 7.74,11.35 24.17,12.5z"/>
   <path class="fil1" d="M514.74 1398.62c-7.79,-6.25 -10.79,-18.01 -1.17,-23.44 0.14,5.28 -1.64,-0.05 2.9,5.12 2.94,3.35 0.65,7.02 -1.73,18.32z"/>
   <path class="fil1" d="M489.9 1414.45c-5.15,-5.28 -7.89,-10.61 -8.52,-17.69 3.06,4.33 2.55,-3.08 2.75,4.5l7.41 -1.52 4.04 8.09c-5.61,5.05 -2.57,-0.13 -5.68,6.62z"/>
   <path class="fil1" d="M589.22 2217.19c-17.22,-8.85 -25.69,15.52 -13.03,22.43 16.61,9.08 28.5,-14.49 13.03,-22.43zm122.91 15.04c-3.2,2.9 -5.47,2.28 -11.25,3.64 -2.76,-7.11 -8.17,-12.43 -16.33,-15.9 5.85,-5.23 3.25,-0.2 9.76,-5.23 5.44,-4.2 1.44,-4.73 8.04,-4.39 4.25,3.32 9.62,16.52 9.78,21.88zm-188.17 -59.68c-31.98,-10.35 -46.04,40.09 -14.21,49.22 31.84,9.13 49,-37.95 14.21,-49.22zm171.81 26.59c-3.9,3.23 -8.25,7.6 -12.54,11.86 -9.65,9.59 -7.72,1.02 -17.39,6.7l-31.9 30.87 -233.05 33.73 3.25 28.55c11.45,2.69 139.19,-14 161.31,-16.44 33.36,-3.67 130.4,-0.74 137.91,-39.47 3.65,-4.54 2.19,-6.11 13.16,-7.79l-2.52 14.51c-5.05,43.31 -111.81,41.48 -146.4,45.3 -44.3,4.9 -143.37,19.8 -178.76,16.78l6.59 -77.37c27.64,2.35 38.4,21.26 52.02,-0.23 14.99,-23.63 -11.89,-30.53 -15.41,-39.37 1.64,-8.92 20.02,-26.2 27.1,-33.17 23.99,-23.63 11.45,-12.44 9.64,-42.61 -3.03,-50.87 44.83,-42.34 77.44,-33.69 53.24,14.13 122.59,51.85 149.55,101.84zm6.58 11.21c-6.6,-0.34 -2.6,0.19 -8.04,4.39 -6.51,5.03 -3.91,0 -9.76,5.23l-18.71 -2.27c9.67,-5.68 7.74,2.89 17.39,-6.7 4.29,-4.26 8.64,-8.63 12.54,-11.86l6.58 11.21zm11.65 51.31l2.52 -14.51c-10.97,1.68 -9.51,3.25 -13.16,7.79l-2.48 -19.07c5.78,-1.36 8.05,-0.74 11.25,-3.64 5.66,5.37 9,23.57 1.87,29.43z"/>
   <path class="fil1" d="M1430.44 2114.43c-15.79,-9.62 -28.97,13.91 -14.11,23.6 14.78,9.65 32.54,-12.38 14.11,-23.6zm-43.76 -45.87c-26.66,-13.67 -44.23,27.13 -18.16,38.39 25.08,10.84 43.25,-25.54 18.16,-38.39zm116.62 -7.25c-27.95,-11.67 -41.17,29.71 -17.01,39.07 27.43,10.64 42.84,-28.28 17.01,-39.07zm-67.36 -2.79c-16.84,-7.42 -26.35,18.82 -10.51,25.63 16.13,6.92 30.95,-16.62 10.51,-25.63zm52.56 -63.21c-17.7,-9.22 -28.15,17.17 -13.03,24.55 17.05,8.31 30.38,-15.51 13.03,-24.55zm-134.92 2.73l-1.93 23.75 4.43 4.55 24.43 -10.43 45.03 29.69 -4.66 -43.05c4.92,-7.83 27.53,-16.14 12.27,-35.54 -2.34,-2.98 -39.99,-20.81 -9.33,-25.17 25.81,-3.67 61.38,11.74 80.4,29.26 44.59,41.06 48.01,111.19 6.22,155.56 -41.77,44.36 -108.48,46.84 -154.2,6.79 -45.88,-40.2 -44.07,-163.77 -2.66,-135.41z"/>
   <path class="fil1" d="M627.28 1273.63c-33.26,46.36 -96.72,96.94 8.71,123.39l19.92 -68.62 3.69 1.11c41.1,-14.93 150.32,51.47 113.67,108.65l-83.84 -20.86 -12.85 11.14c-32.92,-8.35 -82.17,-16.37 -102.78,-43.04 -30.92,-39.99 -32.48,-39.39 -84.08,-52.07 12.56,-35.8 45.35,-24.55 73.14,-16.35 8.41,-13.52 37.82,-48.67 49.44,-61.35 12.03,-13.12 81.01,22.97 14.98,18z"/>
   <path class="fil1" d="M1473.71 2191.98c-12.14,0.77 0.27,0.07 -7.23,-2.07 -4.42,-1.27 -4.82,-0.65 -9.03,0.21l-0.81 7.65c-135.92,15.1 -215.48,-108.58 -149.3,-229.19l15.79 9.02c-18.85,61.84 -44.83,101.87 12.99,163.41 41.99,44.68 112.16,52.96 163.64,19.83 108.04,-69.51 68.4,-239.34 -89.53,-237.26l-2.36 -17.71c198.16,-32.23 219.97,264.31 65.84,286.11zm0 0c-3.62,3.85 -10.64,4.03 -17.07,5.79l0.81 -7.65c4.21,-0.86 4.61,-1.48 9.03,-0.21 7.5,2.14 -4.91,2.84 7.23,2.07z"/>
   <path class="fil1" d="M628.4 1775.41c-1.18,-2.13 -30.92,-1.98 -35.39,-1.84 -15.65,0.51 -11.83,2.48 -15.33,19.7 -5.52,27.25 -13.51,29.77 -13.23,60.72 0.24,26.01 -10.17,122.24 16.03,131.44 71.09,24.96 64.98,-32.05 64.98,-79.33 0,-33.83 -0.58,-100.78 -17.06,-130.69zm-5.07 -45.94l-36.63 0.83 -1.91 29.83 40.93 -0.2 -2.39 -30.46zm-35.53 -15.53c6.6,3.11 27.86,3.15 34.51,0.01l-0.2 -4.91c-6.65,-3.26 -27.09,-3.12 -34.27,-0.26l-0.04 5.16zm60.47 -34.37l-9.19 27.28c1.62,66.63 23.07,105.47 23.07,166.94 -0.01,63.45 20.97,130.43 -58.01,130.44 -77.06,0 -56.34,-76.21 -56.34,-132.23 -0.01,-62.07 23.21,-99.63 22.98,-166.97l-8.33 -24.23c0.75,-0.13 6.1,-1.31 6.38,-1.33 4.22,-0.29 -0.13,1.49 19.52,-0.28l6.03 0.11c11.54,-1.6 1.74,5.11 10,0.27 3.85,-2.25 7.25,-1.87 14.32,-1.12 4.88,8.74 -3.91,5.48 5.27,7.1l0.35 -3.96c0.22,-3.72 -1.01,0.62 0.29,-3.47l23.66 1.45z"/>
   <path class="fil1" d="M221.13 2188.34c55.57,10.19 75.35,78.19 33.53,115.84 -41.8,37.62 -108.6,9.98 -111.78,-45.17 -0.95,-16.36 9.71,-71.1 30.82,-35.83 15.32,25.61 7.64,57.24 37.54,55.81 28.35,-1.35 33.16,-31.17 1.89,-50.38 -10.59,-6.51 -46.64,-50.29 8,-40.27z"/>
   <path class="fil1" d="M221.47 2163.56l-49.67 12.85c2.13,10.42 21.62,39.03 28.91,50.36 5.91,9.18 47.86,25.13 18.72,42.52 -29.55,17.63 -23.61,-23.98 -30.06,-34.56 -6.57,-10.77 -23.34,-42.96 -31.94,-47.53l-33 39.91c-20.09,-15.67 16.73,-34.35 14.86,-47.55 -0.51,-3.66 -22.89,-38.04 -26.69,-44.21 -10.96,-17.8 -61.6,-76.81 -38.55,-94.49 30.23,-23.2 67.6,75.03 95.49,113.17 11.18,15.3 49.14,-13.1 51.93,9.53z"/>
   <path class="fil1" d="M630.33 1962.79l-49.78 1.03c-11.33,-11.9 -6.28,-48.04 -6.33,-64.91 -0.09,-31.64 -7.17,-43.47 28.05,-43.47 37.28,-0.01 33.29,3.74 33.05,39.88 -0.12,17.25 4.02,54.05 -4.99,67.47z"/>
   <path class="fil1" d="M1408.04 1975.71l3.74 53.34 -59.61 -50.45 4.12 -4.86c-6.78,-3.84 -50.56,5.51 -26.57,-20.32 16.71,-18 61.03,-45.9 69.97,-33.25 9.57,13.56 -7.43,8.62 -16.6,18.16 -27.27,28.41 24.57,37.1 24.95,37.38z"/>
   <path class="fil1" d="M489.9 1414.45c3.11,-6.75 0.07,-1.57 5.68,-6.62l-4.04 -8.09 -7.41 1.52c-0.2,-7.58 0.31,-0.17 -2.75,-4.5l-0.66 -7.87c-2.7,-5.28 -0.95,-8.07 0.43,-15.16l9.17 -0.06 0.68 -7.85 -4.78 -2.1c3.56,-5.89 3.62,-7.17 9.34,-9.63 11.47,-22.07 72.48,18.43 69.51,40.59 -4.58,34.11 -49.81,46.62 -75.17,19.77zm9.85 -29.36l0.96 11.43c1.08,8.87 -1.1,11.59 -2.84,20.12l10.15 3.23 3.58 -11.16c7.2,3.23 6.5,4.02 13.28,0.32 42.27,-2.68 11.51,-71.5 -19.53,-38.14l-5.6 14.2z"/>
   <path class="fil1" d="M1397.31 1896.48c-45.28,8.16 -64.83,23.11 -92.08,56.99l-15.55 -9.3c18.72,-31.65 68.86,-66 105.42,-65.15l2.21 17.46z"/>
   <path class="fil1" d="M695.89 1428.34c6.16,5.53 0.1,8.32 4,18.59 2.24,5.9 7.31,10.99 13.67,13.18 21.37,7.35 24.23,-8.59 32.67,-18.01l17.38 4.11c-8.13,44.55 -67.07,46.73 -82.62,7.4 -5.49,-13.89 3.34,-26.77 14.9,-25.27z"/>
   <path class="fil1" d="M662.12 1313.19c-8.56,-24.7 20.49,-14.79 31.81,-11.79 9.45,2.51 44.6,9.18 48.68,16.29 3.33,5.82 0.36,14.86 -6.53,16.53 -5.21,1.26 -67.45,-13.16 -73.96,-21.03z"/>
   <g>
    <path class="fil1" d="M1565.23 967.17l-10.11 0.2 0.22 36.1 9.87 -0.38 0.02 -35.92zm-2.25 -16.28c-7.41,-3.8 -12.15,6.05 -6.91,10.07 7.47,5.72 15.49,-5.68 6.91,-10.07zm129.05 52.89c29.36,1.37 53.41,-22.53 30.66,-51.55 -6.95,-8.86 -18.34,-15.97 -27.03,-24.02 -16.42,-15.24 -8.73,-24.79 -14.71,-35.14 -91.25,51.26 -37.51,132.25 -8.48,108.97l-6.34 2.06 -15.77 -48.39c9.46,0.45 20.56,11.7 28.36,17.32l7.45 -6.18 -15.31 -34.71c11.93,5.06 22.63,18.54 28.5,30.6 14.71,30.2 -2.64,28.64 -7.33,41.04zm13.83 -148.87c69.52,7.54 106.34,34.03 105.86,105.81 -0.42,61.41 10.19,56.11 -51.25,56.25 -35.63,0.09 -71.26,0.01 -106.89,0.01 -15.39,0 -94.48,3.32 -101.72,-3.99 -7.75,-7.82 -4.43,-86.43 0.61,-99.1 21.11,-53.09 104.31,-64.31 153.39,-58.98z"/>
    <path class="fil1" d="M1839.32 1047.81l-319.06 -0.03c-21.98,-32.98 47.19,-22.75 64.73,-22.75l188.24 0c15.87,0 88.51,-9.5 66.09,22.78z"/>
    <path class="fil1" d="M1605.05 1090.94l-70.29 1.36c-4.18,-7.3 -4.43,-28.97 -0.01,-33.57 5.46,-5.68 25.42,-2.54 34.28,-2.54 8.03,0 29.72,-2.17 35.04,1.77 5.48,4.06 5.45,26.71 0.98,32.98z"/>
    <path class="fil1" d="M1825.01 1090.63l-70.27 1.71c-4.46,-6.95 -4.37,-29.28 -0.01,-33.68 5.5,-5.55 25.48,-2.47 34.45,-2.47 9.25,0 28.56,-3 34.95,1.89 5.31,4.07 5.2,26.86 0.88,32.55z"/>
    <path class="fil1" d="M1687.55 1090.36l-70.2 2.03c-4.45,-6.79 -4.49,-29.15 0.15,-33.72 5.71,-5.63 25.51,-2.48 34.49,-2.48 9.23,0 28.56,-2.97 34.8,1.99 5.14,4.09 4.98,26.71 0.76,32.18z"/>
    <path class="fil1" d="M1725.19 1134.43c-5.57,3.73 -59.05,3.68 -65.17,0.1 -3.07,-5.11 -4.29,-25.87 0.19,-29.9 2.69,-2.43 60.25,-2.49 63.61,-0.25 4.58,3.06 3.29,25.16 1.37,30.05z"/>
    <path class="fil1" d="M1649.17 1135.12c-6.93,2.49 -57.94,2.71 -64.39,-0.34 -3.1,-5.49 -4.24,-26.32 0.28,-30.23 2.14,-1.85 60.57,-3.37 64.45,0.64 3.67,3.82 2.48,25.42 -0.34,29.93z"/>
    <path class="fil1" d="M1742.87 1091.4c-5.42,2.05 -38.78,2.16 -44.04,-0.29 -2.82,-6.61 -2.64,-27.29 0.09,-34.04 4.89,-1.09 36.29,-1.86 40.81,-0.75 9.94,2.45 4.19,33.41 3.14,35.08z"/>
    <path class="fil1" d="M1826.05 1134.62c-6.05,3.31 -34.32,2.97 -40.65,0.54 -2.41,-5.11 -2.73,-19.9 -1.56,-26.24 1.65,-9.03 12.05,-5.79 21.29,-5.79 6.51,0.01 19.95,-3.07 21.88,4.65 1.25,5.02 0.69,22.19 -0.96,26.84z"/>
    <path class="fil1" d="M1574.26 1134.97c-6.07,2.74 -35.24,2.69 -40.5,-0.32 -1.96,-5.05 -2.14,-19.87 -1.28,-25.61 1.37,-9.08 11.78,-5.93 20.59,-5.91 6.86,0.02 20.25,-2.96 22.49,4.47 1.72,5.68 1,22.82 -1.3,27.37z"/>
    <path class="fil1" d="M1775.22 1134.95c-6.1,2.81 -35.06,2.67 -40.58,-0.17 -1.67,-4.88 -1.99,-20.32 -1.19,-25.75 1.35,-9.1 11.79,-5.91 20.63,-5.89 6.86,0.02 20.24,-2.99 22.42,4.46 1.67,5.69 1.01,22.82 -1.28,27.35z"/>
   </g>
   <path class="fil1" d="M601.49 1237.92c14.13,8.45 5.83,30.81 -17.29,21.48 -14.51,-5.85 -5.74,-35.23 17.29,-21.48z"/>
   <path class="fil1" d="M514.74 1398.62c2.38,-11.3 4.67,-14.97 1.73,-18.32 -4.54,-5.17 -2.76,0.16 -2.9,-5.12 10.16,-7.68 24.41,-1.88 24.03,10.89 -0.38,12.66 -12.89,19.07 -22.86,12.55z"/>
   <path class="fil1" d="M708.14 1432.27l28.11 6.57c-5.06,24.45 -35.12,15.51 -28.11,-6.57z"/>
   <polygon class="fil1" points="481.15,1373.73 486.23,1363.72 491,1365.82 490.32,1373.67 "/>
   <g>
    <path class="fil1" d="M336.27 1024.4c-55.51,-38.02 -65.97,-18.3 -95.12,-5.28 -0.14,0.07 -58.47,13.1 -17.35,54.89 20,20.33 14.88,-2 22.92,33.29 -27.57,-15.37 -50.53,-37.02 -46.15,-80.85 25.48,-19.67 90.42,-51.88 125.35,-23.62 20.26,16.4 7.39,-1.54 10.35,21.57z"/>
    <path class="fil1" d="M385.84 1018.52c-16.72,0.93 -145.46,115.2 -151.18,139.21 30.11,3.76 75.54,-62.57 119.21,-100.87 20.9,-18.34 21.73,-13.21 31.97,-38.34zm48.11 -6.92c-10.66,66.03 16.89,35.11 -82.69,124.01l-50.44 50.06c-39.16,41.72 -68.87,9.34 -72.51,25.85 -0.49,2.23 -2.81,2.6 -3.47,3.45l-15.79 22.91c-10.79,9.81 -20.61,6.04 -32.07,2.04 -5.67,-35.1 16.26,-36.73 39.69,-45.11 -1.94,-49.27 -5.34,-48.96 24.16,-75.61 16.46,-14.87 33.43,-30.01 53.03,-47.19 101.26,-88.74 42.37,-71.13 124.58,-74.94 13.86,-22.13 10.62,-44.36 48.82,-34.74 13.18,38.3 -12.18,37.04 -33.31,49.27z"/>
    <path class="fil1" d="M306.82 1191.22c5.03,-2.81 -1.38,-4.15 10.84,-3.75 3.13,0.1 15.68,3.49 20.35,4.16 21.35,3.07 26.17,2.08 47.04,-3.65 67.05,-18.41 59.21,-33.56 60.42,-61.85 -17.99,-12.47 -24.76,-17.78 -26.08,-29.49 -3.25,-28.89 3.91,-14.86 6.22,-18.3 16.18,40.14 57.81,69.25 9.23,103.09 -32.53,22.66 -93.29,32.19 -128.02,9.79z"/>
   </g>
   <path class="fil1" d="M1088.22 1140.61c-0.29,-4.15 -21.32,-18.92 -3.58,-38.54 14.48,-16.01 29.13,-7.36 41.44,2.95 5.04,31.35 -6.97,41.35 -37.86,35.59z"/>
   <path class="fil1" d="M1196 1107.14c36.15,44.28 -47.42,55.72 -20.87,0.72l20.87 -0.72z"/>
   <g>
    <path class="fil1" d="M2511.7 1081.89c-2.1,13.22 16.11,-3.48 5.33,-2.19 -13.55,1.62 -4.13,-5.32 -5.33,2.19z"/>
    <path class="fil1" d="M2093.41 766.49c8.62,12.91 7.48,-17.55 7.36,25.22l7.6 -5.26c-6.31,23.69 4.37,3.39 -4.65,17.07l-29.33 -0.23c4.2,-22.5 5.18,-15.41 19.02,-36.8zm-59.1 -13.3c51.1,-2.16 12.48,-1.97 27.81,9.87 -3.63,4.91 0.25,11.86 -24.99,13.19 -6.97,-13.83 -4.83,-8.16 -2.82,-23.06zm71.13 -34.4l-2.74 33.86c-20.42,6.45 -18.1,6.48 -39.32,-2.48l-2.66 -30.83c12.7,-7.03 14.03,-12.6 33.07,-6.08l11.65 5.53zm-71.13 34.4c-17.24,-0.04 -30.25,-3.12 -29.87,-21.12 0.66,-30.62 -0.44,-3.7 6.57,-15.28l34.15 6.66c-2.67,16.76 -5.54,9.93 -17.46,20.85 6.86,5.32 11.97,-3.44 6.61,8.89zm71.13 -34.4c4.02,-24.82 -4.3,-8.62 12.99,-21.82 30.11,23.2 9.95,23.97 9.65,25.87 -2.75,-0.04 -15.38,-1.93 -22.64,-4.05zm-109.48 -15.91c2.29,10.99 -8.42,20.76 -13.5,23.15 -12.01,5.64 -18.73,-2.61 -24.9,-6.52 -1.01,-40.73 33.51,-40.08 38.4,-16.63zm64.46 4.87c-23.79,-6.61 -26.35,2.4 -10.78,-26.81 18.02,10.31 16.11,1.57 10.78,26.81zm-49.25 -30.5c9.47,-17.76 -10.97,-2.05 15.91,-18.03 8.49,-5.05 14.74,-5.45 22.44,-7.69 -0.66,32.65 -8.96,31.25 -38.35,25.72zm97.69 -28.7l7 -2.35c10.75,27.89 5.13,29.86 -16.19,40.92 -0.96,-1.13 -2.01,-2.94 -2.54,-3.64l-24.12 -26.72c18.61,-13.39 13.37,-1.35 35.85,-8.21zm-196.92 53.64c37.2,50.25 -3.56,40.21 18.89,87.74 12.01,-6.6 9.18,5.39 16.15,-36.02 -1.1,24.55 3.81,16.69 8.86,23.31l21.68 -16.92c-3.1,38.32 -30.07,100.36 18.18,93.34 6.18,-11.59 7.07,-7.13 5.43,-33.92 -1.03,-16.75 -2.89,-20.08 -2.11,-38.85 45.62,-8.9 60.74,34.16 106.9,45.37 58.35,-88.94 29.51,-137.6 14.59,-223.24 -33.52,8.19 -157.55,77.53 -208.57,99.19z"/>
    <path class="fil1" d="M2322.35 399.58c4.17,-11.4 -0.6,-14.7 14.67,-16.83 20.45,-2.86 16.78,9.82 19.91,19.17 -20.54,5.53 -14.09,9.23 -34.58,-2.34zm-17.04 -22.83c-0.09,-0.1 -13.91,-0.6 -14.69,-39.68 -0.39,-19.76 5.05,-32.9 10.48,-44.62 12.8,12.93 6.68,-6.67 9.21,13.48 2.72,21.62 -13.18,6.99 -5,70.82zm-62.19 -168.58c32.83,-4.16 56.85,-2.89 87.1,-13.73 16.43,-5.89 59,-26.39 34.71,-43.44 -31.82,-22.34 -117.25,36.26 -135.8,50.25l-51.17 -3.68c18.37,15.49 9.74,6.77 40.2,13.83 53.69,12.43 68.02,44.68 86.88,63.12 -10.14,20.12 -31.53,28.25 -20.86,82.81 20.74,106.05 131.88,53.49 75.85,-51.27 -18.88,-35.29 -25.38,-17.21 -46.1,-34.12 -14.49,-11.83 -7.27,-22.03 -32.21,-38.95 59.57,8.23 93.56,42.25 168.23,35.41l-21.36 -18.36c-89.13,-64.34 -138.23,-13.81 -185.47,-41.87z"/>
    <path class="fil1" d="M1696.59 362.05l22.66 -14.78c36.71,-22.51 32.25,-44.83 38.93,-84.5l-139.22 -2.82 -14.01 42.03c-1.14,-1.57 -1.74,-3.92 -2.3,-5.36 -0.54,-1.44 -1.54,-3.6 -2.19,-5.38 -0.66,-1.77 -1.3,-3.49 -1.98,-5.45l-5.11 -16.51c-0.45,-1.39 -1.48,-2.45 -1.81,-5.32 -0.32,-2.87 -0.81,-3.74 -1.83,-5.31 -16.39,25.03 -8.35,59.09 20.72,82.37 26.97,21.59 48.57,19.43 86.14,21.03z"/>
    <path class="fil1" d="M1758.18 262.77c7.86,4.34 4.72,-1.72 8.7,11.75 2.82,9.57 2.92,14.84 1.75,24.68 -3.75,31.68 -33.78,60.93 -72.04,62.85 -1.43,0.81 3.82,2.07 -13.85,5.34 -77.31,14.28 -149.75,-61.38 -99.45,-118.61 16.01,-18.21 31.88,-25.82 58.7,-33.19l3.57 -11.23c0.35,-1.42 1.02,-3.85 1.42,-5.57l5.29 -24.03 31.26 -0.74c6.84,15.05 1.18,5.41 4.59,19.16l2.64 10.71c0.46,1.67 1.3,3.98 1.7,5.34 5.61,19.13 42.36,1.51 65.72,53.54zm-47.77 -57.49c39.4,-36.45 68.11,-10.55 59.92,44.11 -11.28,-9.03 -13.74,-14.7 -26.04,-23.77 -15.54,-11.45 -19.48,-7.68 -33.88,-20.34zm-26.69 -41.31c-55.05,10.05 -47.89,-11.07 -50.2,-17.68 1.38,-0.56 54.67,-15.46 69.01,8.96 -9.96,7.79 10.86,3.31 -18.81,8.72zm13.84 26.16c9.52,-32.58 11.04,-10.45 15.58,-41.13 -12.9,-19.43 -8.64,-5.4 -16.68,-20.47 -6.63,-12.41 0.59,-5.73 -6.67,-20.23l-43.78 -0.4c-12.52,17.29 0.2,5.02 -10.31,24.16 -32.08,58.43 0.93,7.17 1.53,71.3 -162.78,75.35 -52.11,192.75 56.12,173.47 68.3,-12.16 78.69,-41.96 86.93,-106.35 10.66,-83.33 0.36,-113.65 -82.72,-80.35z"/>
    <path class="fil1" d="M2149.7 847.53c51.78,-63.99 52.33,-188.65 11.97,-262.01l-28.19 11.61c28.72,120.6 38.25,114.37 -11.55,234.72l27.77 15.68z"/>
    <path class="fil1" d="M2188.67 349.56c17.35,-18.52 30.02,-9.88 33.43,11.22 -36.51,4.28 -16.98,-1.22 -33.43,-11.22zm-3.77 -35.62c4.28,-39.63 16.62,-64.83 55.31,-63.13l-55.31 63.13zm83.24 -8.16c22.94,-88.24 -70.43,-96.7 -93.27,-4.36 -23.44,94.81 70.32,92.63 93.27,4.36z"/>
    <path class="fil1" d="M3066.7 1053.04l-21.06 1.52c3.89,-12.07 15.85,-12.09 21.06,-1.52zm-75.09 -9.13c7.13,5.74 16.36,6.5 25.93,8.21l-0.13 -6.3 13.75 -0.61 2.24 -9.46 11.47 1.02c-6.97,8.73 -7.77,5.41 -11.71,18.36 12.48,0.69 39.51,4.05 48.45,-2.7 -4.7,-2.2 -9.53,-11.15 -14.08,-15.56 8.81,-0.2 5.12,0.5 10.77,-3.46 -29.72,2.12 -42.61,2.06 -71.77,-4.8l-0.26 6.85 -11.24 0.66c-1.74,9.52 0.71,3.54 -3.42,7.79zm90 8.52c7.21,0.25 15.5,-1.42 22.53,-3.89 3.2,-1.12 5.92,-2.47 9.09,-3.77 5.73,-2.35 5.83,-1.56 9.44,-5.38 -21.97,-3.08 -27.47,-12.05 -41.06,13.04zm104.83 -288.4c1.36,2.88 2.8,7.42 6.51,9.51 2.97,1.68 0.67,2 5.22,0.98 4.75,-1.07 4.17,-2.76 5.37,-4.45 -5.34,2.07 -1.19,0.79 -2.93,-0.65 -0.06,-6.28 -1.6,-12.13 2.04,-15.7 -2.71,-5.69 -8.51,-11.15 -14.17,-14.61l0.85 24.89c-2.23,1.82 0.82,1.08 -2.89,0.03zm-231.65 259.13c2.08,3.04 0.12,0.91 2.7,3.28 1.01,0.93 1.94,1.6 3.1,2.39 2.84,1.95 5.9,3.55 8.78,4.99 -0.85,-10.84 9.14,-7.63 17.21,-3.96l4.22 -2.99c3.59,-1.91 -2.27,-0.69 4.43,-1.52 -3.96,-4.53 -15.5,-9.44 -21.03,-11.44 1.41,4.4 1.01,1.39 -3.31,3.26 -1.04,0.46 -3.29,0.83 -5.56,1.87 -7.86,3.61 -3.18,4.91 -10.54,4.12zm173.32 14.13c5.98,-2.02 11.04,-3.98 14.11,-8.78l-2.62 -0.7 -0.61 -10.3 -10.55 -0.32 -0.33 20.1zm-181.17 -125.1l-14.71 1.35 0.06 -17.15 15.47 0.73c-5.86,-3.72 -9.4,-2.62 -17.27,-2.09l0.49 19.65c4.96,0.3 13.44,1.89 15.96,-2.49zm131.74 -109.87l-7.2 50.97 6.06 5.3 63.56 -54.59 -4.32 -5.03c7.48,-4.7 59.18,7.28 25.96,-26.01 -18.12,-18.15 -71.39,-51.05 -76.51,-31.54 -3.53,13.48 10.9,6.68 20.92,18.96 26.31,32.22 -23.3,38.86 -28.47,41.94zm-45.39 93.15l-40.96 52.9 4.26 6.29 125.2 -1.03 0.15 -10.18 -41.34 -2.35 40.44 -52.81 -5.24 -6.19 -54.14 1.35 -0.4 9.14 35.15 3.82c-4.67,8.75 -21.04,25 -28.6,34.9 -12.89,16.86 -26.17,11.5 -50.53,10.34 5.68,-10.86 47.36,-46.7 33.98,-56.97 -13.71,-10.54 -105.43,6.16 -17.97,10.79zm115.64 29.34c0.72,-7.41 4.24,-16.92 9.16,-21.45l6.29 21.75 -15.45 -0.3zm39.01 29.46c6.42,-9.86 -8.07,-35.6 -12.48,-46.75 -24.3,-61.51 -34.6,-3.98 -46.8,25.29 -10.96,26.29 4.42,34.91 14.54,5.29l26.53 0.32c5.97,8.4 4.46,21.21 18.21,15.85zm-241 -42.08c-2.52,4.38 -11,2.79 -15.96,2.49l-0.49 -19.65c7.87,-0.53 11.41,-1.63 17.27,2.09 8.48,1.08 8.22,13.77 -0.82,15.07zm-30.35 -28.06c-0.45,1.25 -11.82,86.21 10.79,70.3 5.94,-4.18 3.47,-19.6 4.07,-26.7 19.58,-1.32 45.39,-1.35 38.17,-29.91 -4.82,-19.08 -38.81,-18.9 -53.03,-13.69zm269.85 -120.1c3.71,1.05 0.66,1.79 2.89,-0.03l-0.85 -24.89c-9.85,-17.72 -50.6,-36.82 -72.68,-43 -11.2,-3.13 -24.56,-9.39 -24.98,6.95 -0.32,12.73 13.03,10.38 25.2,14.3 46.47,14.99 59.56,39.78 70.42,46.67zm-207.89 118.98c-8.89,6.09 -4.53,30.13 -4.53,40.77 0,6.68 -3.54,41.4 12.72,30.65 6.6,-4.36 3.78,-33.17 3.78,-41.42 0,-7.63 3.43,-40.53 -11.97,-30zm-9.18 150.81l22.24 10.09c4.13,-4.25 1.68,1.73 3.42,-7.79l11.24 -0.66 0.26 -6.85 -11.3 -3.26c-6.7,0.83 -0.84,-0.39 -4.43,1.52l-4.22 2.99c-8.07,-3.67 -18.06,-6.88 -17.21,3.96zm48.17 18.3l15.62 3.01c3.94,-12.95 4.74,-9.63 11.71,-18.36l-11.47 -1.02 -2.24 9.46 -13.75 0.61 0.13 6.3zm49.16 0.92c-5.21,-10.57 -17.17,-10.55 -21.06,1.52l21.06 -1.52zm136.84 -282.97c2.94,-0.89 0.88,0.99 5.23,-2.87 0.82,-7.41 -1.01,-7.79 -6.12,-13.48 -3.64,3.57 -2.1,9.42 -2.04,15.7 1.74,1.44 -2.41,2.72 2.93,0.65zm-131.28 210.54c-5.09,11.75 -21.69,11.53 -26.34,0.09l26.34 -0.09zm156.73 -13.7c-92.53,2.68 -205.28,0.29 -301.48,0.29 -60.52,-0.01 -51.21,11.42 -51.25,-48.8 -0.04,-60.53 -10.56,-48.55 51.25,-48.53 33.51,0.01 67.02,0.01 100.53,0.01 66.47,0 134.6,-1.46 201.2,0.24l-0.25 96.79zm-356.81 18.21l-37.18 0.15c1.86,-13.55 15.38,-40.7 14.65,-50.34 -0.76,-10.12 -12.52,-33.98 -15.09,-46.98l28.19 0.06c0.93,17.35 0.26,36.2 0.26,53.72 0,22.02 -5.13,29.38 9.17,43.39zm362.01 -0.22c12.24,-11.6 8.43,-11.74 8.43,-44.96 0,-16.66 -0.86,-35.68 0.38,-52.1l27.41 0.24c-1.99,12.35 -15.12,39.21 -15.19,48.28 -0.06,9.2 13.14,36.24 15.18,48.85l-36.21 -0.31zm-246.98 -161.88c20.7,-9.51 31.68,24.06 11.46,30.28 -19.93,6.13 -32.21,-20.75 -11.46,-30.28zm-32.42 200.14c7.36,0.79 2.68,-0.51 10.54,-4.12 2.27,-1.04 4.52,-1.41 5.56,-1.87 4.32,-1.87 4.72,1.14 3.31,-3.26l-34.88 -33.26c52.86,-0.4 54.25,32.32 113.87,32.04 57.58,-0.28 59.66,-31.72 112.36,-32.13l3.88 6.7 -91.13 46.15c-5.65,3.96 -1.96,3.26 -10.77,3.46 4.55,4.41 9.38,13.36 14.08,15.56 13.59,-25.09 19.09,-16.12 41.06,-13.04l5.44 -2.1 0.33 -20.1 10.55 0.32 0.61 10.3 2.62 0.7 45.18 -40.68 7.93 11.69 83.27 -2.9 -0.02 -120.26 -36.56 -1.98 -2.96 -17.11 -21.93 -1.41 -14.82 -41.8 -12.06 -2.44c0.96,-7.9 1.92,-6.71 -0.31,-15.62l-14.16 7.58 21.7 51.33c-4.59,2.94 -18.94,1.45 -24.98,1.48l-17.79 -37.82 -13.97 7.59 1.95 26.55c-6.41,2.8 -69.39,2.96 -81.45,3.29 -4.28,-12.82 6.58,-15.76 -3.05,-26.88 -6.54,-7.56 -12.73,-6.21 -13.95,-20.54 -2.78,-32.82 31.4,-17.1 25.56,-41.71 -18.34,-13.2 -72.16,7.87 -90.16,20.56 -37.99,26.79 -31.1,46.72 -48.55,68.58l-21.85 0.31c7.45,-54.62 62,-104.23 120.15,-113.59 11.39,-1.84 31.45,-0.03 38.29,-1.53 12.54,-2.76 14.1,-18.06 -1.67,-20.25 -39,-5.41 -88.89,12.72 -119.27,37.16 -47.99,38.6 -36.76,58.32 -59.52,96.88l-19.14 1.92 -4.75 17.69 -43.74 0.65c-5.1,13.77 15.53,46.05 15.66,61.13 0.12,13.77 -22.24,50.41 -14.81,60.33l98.72 -0.97 35.63 27.42z"/>
    <path class="fil1" d="M3094.76 93.73l23.66 -1.45c1.3,4.09 0.07,-0.25 0.29,3.47l0.35 3.96c9.18,-1.62 0.39,1.64 5.27,-7.1 7.07,-0.75 10.47,-1.13 14.32,1.12 8.26,4.84 -1.54,-1.87 10,-0.27l6.03 -0.11c19.65,1.77 15.3,-0.01 19.52,0.28 0.28,0.02 5.63,1.2 6.38,1.33 -3.8,-6.56 -2.28,-5.74 -18.34,-5.6 -18.52,0.16 -59.42,-3.32 -67.48,4.37z"/>
    <path class="fil1" d="M2716.33 539.23c15.79,-9.62 28.97,13.91 14.11,23.6 -14.78,9.65 -32.54,-12.38 -14.11,-23.6zm43.76 -45.87c26.66,-13.67 44.23,27.13 18.16,38.39 -25.08,10.84 -43.25,-25.54 -18.16,-38.39zm-116.62 -7.25c27.95,-11.67 41.17,29.71 17.01,39.07 -27.43,10.64 -42.84,-28.28 -17.01,-39.07zm67.36 -2.79c16.84,-7.42 26.35,18.82 10.51,25.63 -16.13,6.92 -30.95,-16.62 -10.51,-25.63zm-52.56 -63.21c17.7,-9.22 28.15,17.17 13.03,24.55 -17.05,8.31 -30.38,-15.51 -13.03,-24.55zm134.92 2.73l1.93 23.75 -4.43 4.55 -24.43 -10.43 -45.03 29.69 4.66 -43.05c-4.92,-7.83 -27.53,-16.14 -12.27,-35.54 2.34,-2.98 39.99,-20.81 9.33,-25.17 -25.81,-3.67 -61.38,11.74 -80.4,29.26 -44.59,41.06 -48.01,111.19 -6.22,155.56 41.77,44.36 108.48,46.84 154.2,6.79 45.88,-40.2 44.07,-163.77 2.66,-135.41z"/>
    <path class="fil1" d="M2673.06 616.78c12.14,0.77 -0.27,0.07 7.23,-2.07 4.42,-1.27 4.82,-0.65 9.03,0.21l0.81 7.65c135.92,15.1 215.48,-108.58 149.3,-229.19l-15.79 9.02c18.85,61.84 44.83,101.87 -12.99,163.41 -41.99,44.68 -112.16,52.96 -163.64,19.83 -108.04,-69.51 -68.4,-239.34 89.53,-237.26l2.36 -17.71c-198.16,-32.23 -219.97,264.31 -65.84,286.11zm0 0c3.62,3.85 10.64,4.03 17.07,5.79l-0.81 -7.65c-4.21,-0.86 -4.61,-1.48 -9.03,-0.21 -7.5,2.14 4.91,2.84 -7.23,2.07z"/>
    <path class="fil1" d="M3114.63 189.57c1.18,-2.13 30.92,-1.98 35.39,-1.84 15.65,0.51 11.83,2.48 15.33,19.7 5.52,27.25 13.51,29.77 13.23,60.72 -0.24,26.01 10.17,122.24 -16.03,131.44 -71.09,24.96 -64.98,-32.05 -64.98,-79.33 0,-33.83 0.58,-100.78 17.06,-130.69zm5.07 -45.94l36.63 0.83 1.91 29.83 -40.93 -0.2 2.39 -30.46zm35.53 -15.53c-6.6,3.11 -27.86,3.15 -34.51,0.01l0.2 -4.91c6.65,-3.26 27.09,-3.12 34.27,-0.26l0.04 5.16zm-60.47 -34.37l9.19 27.28c-1.62,66.63 -23.07,105.47 -23.07,166.94 0.01,63.45 -20.97,130.43 58.01,130.44 77.06,0 56.34,-76.21 56.34,-132.23 0.01,-62.07 -23.21,-99.63 -22.98,-166.97l8.33 -24.23c-0.75,-0.13 -6.1,-1.31 -6.38,-1.33 -4.22,-0.29 0.13,1.49 -19.52,-0.28l-6.03 0.11c-11.54,-1.6 -1.74,5.11 -10,0.27 -3.85,-2.25 -7.25,-1.87 -14.32,-1.12 -4.88,8.74 3.91,5.48 -5.27,7.1l-0.35 -3.96c-0.22,-3.72 1.01,0.62 -0.29,-3.47l-23.66 1.45z"/>
    <path class="fil1" d="M3112.7 376.95l49.78 1.03c11.33,-11.9 6.28,-48.04 6.33,-64.91 0.09,-31.64 7.17,-43.47 -28.05,-43.47 -37.28,-0.01 -33.29,3.74 -33.05,39.88 0.12,17.25 -4.02,54.05 4.99,67.47z"/>
    <path class="fil1" d="M2738.73 400.51l-3.74 53.34 59.61 -50.45 -4.12 -4.86c6.78,-3.84 50.56,5.51 26.57,-20.32 -16.71,-18 -61.03,-45.9 -69.97,-33.25 -9.57,13.56 7.43,8.62 16.6,18.16 27.27,28.41 -24.57,37.1 -24.95,37.38z"/>
    <path class="fil1" d="M2749.46 321.28c45.28,8.16 64.83,23.11 92.08,56.99l15.55 -9.3c-18.72,-31.65 -68.86,-66 -105.42,-65.15l-2.21 17.46z"/>
    <path class="fil1" d="M2401.93 909.09c-19.51,1.34 -0.11,-1.26 -3.14,6.91l-1.95 6.23c-0.12,-0.86 -0.63,2.36 -1.16,3.46 -38.31,-17.74 -32.44,-1.04 -52.64,2.27 101.14,11.81 52.98,36.88 117.52,-6.25 2.95,-1.97 7.4,-0.06 9.41,-5.83 0.89,-2.56 3.43,-2.05 5.07,-3.17 -46.54,-2.97 -32.5,15.66 -53.41,-5l-3.2 21.08 -16.5 -19.7z"/>
    <path class="fil1" d="M578.15 763.18c11.42,18.25 3.3,15.62 2.52,45.45 -0.4,15.03 2.16,32.33 7.53,45.81 7.6,19.04 30.51,42.56 47.12,53.53 99.71,65.86 228.15,-59.58 161.06,-161.18 -52,-78.76 -112.19,-39.24 -136.2,-57.02 14.18,-23.91 66.53,-12.14 89.3,-2.66 84.73,35.29 110.72,146.21 37.97,217.96 -62.93,62.07 -179.58,44.82 -215.54,-52.32 -5.72,-15.47 -8.25,-32.39 -7.58,-50.64 1.41,-38.33 10.92,-36.04 13.82,-38.93z"/>
    <path class="fil1" d="M1068.77 1057.35c0.41,3.25 16.49,10.37 2.02,24.69 -14.2,14.07 -21.73,-0.65 -22.38,-0.97l-4.62 -19.78 24.98 -3.94z"/>
    <path class="fil1" d="M1142.73 697.07c13.46,-26.29 2.65,-46.78 -30.05,-30.28 -13.77,27.18 2.91,36.39 30.05,30.28zm-115.45 -83.05c14.03,14.76 -12.36,21.54 15.89,10.52 8.85,-12.95 20.26,-23.69 16.91,-48.64l13.33 -6.67c8.44,12.66 1.75,7.63 6.18,23.03 12.95,44.96 71.26,23.01 92.87,84.21 23.21,65.75 -35.6,116.13 -97.3,104.45 -66.34,-29.44 -17.89,-149.1 -17.39,-151.13 -52.52,48.84 -37.12,86.84 -15.94,141.58 -62.24,-28.19 -57.21,-85.27 -20.85,-136.97 -31.07,15.82 -43.5,34.89 -41.51,70.64 0.83,14.82 4.45,27.18 11.65,39.59l20.53 27.08c0.63,-1.13 2.38,3.03 3.5,4.6 -45.14,-9.62 -75.93,-36.53 -66.88,-90.2 8.33,-49.38 55.87,-59.13 79.01,-72.09z"/>
    <path class="fil1" d="M731.31 880.9l32.55 -1.9c9.84,-47.89 -37.92,-45.04 -32.55,1.9zm-52.06 -48.07c-54.33,0.9 -56.93,53.17 -7.47,55.45 -12.85,-29.77 -1.36,11.37 -10.46,-15.8 40.03,0.95 25.09,1.85 35.34,-7.62 -7.42,-19.48 1.59,-13.59 -30.94,-14.01 7.51,-21.49 6.04,15.53 13.53,-18.02zm39.95 3.53l3.48 -25.53c-24.06,-0.87 -10.97,-6.3 -23.84,10.64 7.77,17.77 3.79,16.9 20.36,14.89zm-81.65 -5.68c18.49,-26.61 -4.47,-46.18 -23.94,-35.81 -22.82,12.15 -10.74,45.57 23.94,35.81zm135.33 -10.08c7.48,10.17 -5.73,3.48 10.5,4.7 11.66,-23.07 5.48,-28.36 -11.38,-40.28l-16.22 13.96c-10.37,12.3 -17.02,11.8 -10.02,21.71 11.49,16.26 6.1,10.65 26.24,-4.64l0.88 4.55zm-75.32 -62.04c-2.55,58.14 64.88,29.54 29.69,-9.81 -19.73,-0.87 -17.53,0.12 -29.69,9.81zm78.01 14.58c-1.53,-1.38 -3.98,-2.87 -4.83,-3.86 -15.37,-17.93 -0.44,-11.79 1.01,-19.12 0.5,-2.51 3.23,-2.12 4.7,-3.36 -21.1,4.86 -15.09,-0.9 -24.83,18.01 9.83,6.4 -1.99,6.59 23.95,8.33zm-148.23 4.15c12.52,12.74 46.88,23.46 66.36,29.31l-16.33 -98.55 21.31 -0.56c-6.9,8.55 -9.97,7.1 -4.9,24.04 2.41,1.57 -7.05,8.32 14.49,5.33 12.64,-1.75 9.66,-8.39 10.44,-9.57 -8.64,-20 0.79,-3.05 -12.24,-8.97 0,-12.73 -2.97,-8.81 10.49,-10.32 95.34,19.2 112.07,146.23 36.26,188.19 -93.83,51.95 -178.28,-24.71 -153.64,-122.86l27.76 3.96z"/>
    <path class="fil1" d="M1472.97 682.16c67.28,23.15 117.6,-116.99 30.98,-181.82 -96.48,-72.21 -230.38,79.58 -110.69,63.48 -13.15,-20.02 -29.61,-16.93 -31.27,-21.51 -0.73,-2 -3.21,-0.96 -4.45,-2.03 21.86,-12.36 38.98,-9.36 56.66,-1.12 7.61,54.26 -80.42,69.76 -77.87,105.62 6.62,15.22 35.67,44.19 52.78,53.02 48.07,-15.57 54.73,-81.42 100.06,-84.99 20.36,18.52 23.46,37.81 6.25,58.46 -8.48,-23.75 4.19,-21.65 -19.09,-34.93 -12.5,20.6 -12.54,19.85 -3.36,45.82zm-111.28 -94.44c-18.91,-17.51 -38.17,-14.99 -31.46,-50.96 10.23,-54.78 114.05,-100.2 187,-49.57 37.19,25.81 57.78,79.81 48.06,130.36 -9.45,49.21 -37.75,92.12 -97.15,84.92l-20.03 -25.89c-0.35,-1.76 -1.76,-2.03 -2.72,-2.96 -59.7,68.05 -68.75,39.52 -99.33,9.9 -50.45,-48.87 -29.54,-51.12 15.63,-95.8z"/>
    <g>
     <path class="fil1" d="M1165.17 231.8c-8.62,12.91 -7.48,-17.55 -7.36,25.22l-7.6 -5.26c6.31,23.69 -4.37,3.39 4.65,17.07l29.33 -0.23c-4.2,-22.5 -5.18,-15.41 -19.02,-36.8zm59.1 -13.3c-51.1,-2.16 -12.48,-1.97 -27.81,9.87 3.63,4.91 -0.25,11.86 24.99,13.19 6.97,-13.83 4.83,-8.16 2.82,-23.06zm-71.13 -34.4l2.74 33.86c20.42,6.45 18.1,6.48 39.32,-2.48l2.66 -30.83c-12.7,-7.03 -14.03,-12.6 -33.07,-6.08l-11.65 5.53zm71.13 34.4c17.24,-0.04 30.25,-3.12 29.87,-21.12 -0.66,-30.62 0.44,-3.7 -6.57,-15.28l-34.15 6.66c2.67,16.76 5.54,9.93 17.46,20.85 -6.86,5.32 -11.97,-3.44 -6.61,8.89zm-71.13 -34.4c-4.02,-24.82 4.3,-8.62 -12.99,-21.82 -30.11,23.2 -9.95,23.97 -9.65,25.87 2.75,-0.04 15.38,-1.93 22.64,-4.05zm109.48 -15.91c-2.29,10.99 8.42,20.76 13.5,23.15 12.01,5.64 18.73,-2.61 24.9,-6.52 1.01,-40.73 -33.51,-40.08 -38.4,-16.63zm-64.46 4.87c23.79,-6.61 26.35,2.4 10.78,-26.81 -18.02,10.31 -16.11,1.57 -10.78,26.81zm49.25 -30.5c-9.47,-17.76 10.97,-2.05 -15.91,-18.03 -8.49,-5.05 -14.74,-5.45 -22.44,-7.69 0.66,32.65 8.96,31.25 38.35,25.72zm-97.69 -28.7l-7 -2.35c-10.75,27.89 -5.13,29.86 16.19,40.92 0.96,-1.13 2.01,-2.94 2.54,-3.64l24.12 -26.72c-18.61,-13.39 -13.37,-1.35 -35.85,-8.21zm196.92 53.64c-37.2,50.25 3.56,40.21 -18.89,87.74 -12.01,-6.6 -9.18,5.39 -16.15,-36.02 1.1,24.55 -3.81,16.69 -8.86,23.31l-21.68 -16.92c3.1,38.32 30.07,100.36 -18.18,93.34 -6.18,-11.59 -7.07,-7.13 -5.43,-33.92 1.03,-16.75 2.89,-20.08 2.11,-38.85 -45.62,-8.9 -60.74,34.16 -106.9,45.37 -58.35,-88.94 -29.51,-137.6 -14.59,-223.24 33.52,8.19 157.55,77.53 208.57,99.19z"/>
     <path class="fil1" d="M1108.88 312.84c-51.78,-63.99 -52.33,-188.65 -11.97,-262.01l28.19 11.61c-28.72,120.6 -38.25,114.37 11.55,234.72l-27.77 15.68z"/>
    </g>
    <path class="fil1" d="M624.48 761.03c1.12,0.31 8.3,2.71 22.39,-3.08l-6.19 -36.1c-26.71,6.26 -31.95,17.83 -16.2,39.18zm2.86 16.26c-12.06,-13.16 -17.39,-12.78 -40.56,-17.33 10.18,-33.93 34.74,-57.1 66.69,-64.42l28.8 95.51 -54.93 -13.76z"/>
    <path class="fil1" d="M566.84 749.85c-20.51,-31.65 50.73,-76.79 79.7,-80.46 -5.98,25.12 8.44,6.17 -16.93,22.13 -61.09,38.41 -32.58,47.4 -62.77,58.33z"/>
    <g>
     <path class="fil1" d="M740.28 234.94c-7.58,22.86 -10.43,14.58 5.89,32.27 26.2,0.5 29.98,-6.11 19.06,-31.95 -5.56,-2.27 -1.17,-2.61 -14.34,-3.4 -12.1,-0.72 -2.82,0.36 -10.61,3.08zm4.48 -40.41l1.85 10.97 -48.15 7.85c38.68,10.31 19.56,2.19 57.86,-0.94 68.7,41.62 19.53,98.18 12.44,151.27l-16.81 26.29 -78.08 -1.42c-50.5,-162.37 14.29,-166.35 15.77,-176.69l2.53 -13.81c18.47,-55.01 7.44,-22.67 -16.91,-60.4 15.66,-14.28 8.7,-12.6 35.49,-9.71 12.63,26.02 6.41,60.26 34.01,66.59z"/>
     <path class="fil1" d="M612.21 313.27c-7.21,-33.84 -34.91,-143.95 56.93,-109.46 -2.76,5.13 6.64,1.21 -5.43,15.79 -33.21,40.11 -13.77,113.79 -2.57,160.19 -41.65,-7.54 -39.11,-20.4 -48.93,-66.52z"/>
     <path class="fil1" d="M768.76 363.68c25.82,-29.25 49,-100.88 18.76,-138.57 -6.13,-7.64 -56.37,-42.26 21.85,-32.31 24.48,47.18 24.02,49.78 14.19,106.41 -6.74,38.83 -11.83,68.71 -50.76,76.2l-4.04 -11.73z"/>
     <path class="fil1" d="M665.58 171.75c24.35,-4.51 20.51,6.25 23.48,15.93 -18.31,10.58 -25.13,7.29 -49.67,9.19 5.4,-11.04 6.18,-21.41 26.19,-25.12z"/>
     <path class="fil1" d="M744.76 194.53l-7.28 -24.75c25.7,-5.53 19.85,-7.09 40.44,2.77 0.56,9.08 4.96,8.41 -7.21,16.15 -11.28,7.16 -10.09,4.74 -25.95,5.83z"/>
    </g>
    <path class="fil1" d="M1074.13 556.97l-28.18 11.34 -2.16 -32.21c32.51,11.42 -1.9,9.46 29.14,7.81l1.2 13.06z"/>
    <g>
     <path class="fil1" d="M378.72 632.9c-1.39,-1.23 -3.42,-5.03 -4.23,-3.66l-17.96 -9.56c-7.2,-2.53 -15.87,-4.86 -26.16,-5.44 -9.16,-0.53 -19.91,0.45 -28.05,2.7 -17.45,4.82 -19.83,10.43 -25.12,15.96 7.08,17.24 11.54,23.77 47.09,26.38 40.93,2.99 41.16,1.63 54.43,-26.38zm8.94 6.26c-31.56,60.94 -109.38,16.64 -115.63,14.8 -18.66,-5.5 -51.03,2.44 -71.62,4.9 -56.76,6.76 -57.45,16 -73.98,-0.9l135.54 -20.13c16.17,-20.33 24.82,-30.66 62.44,-31.34 33.74,-0.62 53.16,8.97 63.25,32.67z"/>
     <path class="fil1" d="M172.74 502.03c-13.88,14.27 -14.51,14.22 -34.57,6.61l15.81 -28.29c17.01,11.16 11.96,0.49 18.76,21.68z"/>
     <path class="fil1" d="M396.7 585.17c-44.48,0.73 -13.63,0.85 -25.25,-8.55 9.37,-19.66 -13.96,-10.9 22.78,-11.76l2.47 20.31z"/>
     <path class="fil1" d="M394.66 615.73c-13.31,-5.32 -4.95,5.14 -20.82,-16.21 23.59,1.29 7.84,0.75 20.82,16.21z"/>
     <path class="fil1" d="M360.04 598.12l-40 -6.17 -29.02 -49.54c-7.01,31.87 2.21,18.41 -16.83,28.95 4.56,-23.48 13.15,-26.75 13.69,-51.02l-27.43 -22.04c3.01,32.3 1.33,40.02 -10.28,58.86 -27.83,-10.79 6.51,15.18 -14.99,-11.55l-5.8 -9.76c-8.31,46.38 -35.48,35.84 -6.73,88.57l-58.67 0.42c-35.81,-160.18 113.72,-185 173.8,-124.2 23.22,23.51 24.71,55.61 22.26,97.48z"/>
     <path class="fil1" d="M267.83 589.13l21.2 3.75c-12.23,17.5 -29.76,34.86 -51.62,28.26 -2.17,-4.54 -15.09,4.98 0.76,-24.59l15.6 9.34c0.48,-30.66 -18.17,-20.9 2.53,-46.4 11.03,15.2 2.03,12.91 11.53,29.64z"/>
     <path class="fil1" d="M278.37 461.67l-31.65 -1.18c-0.04,-0.28 -2.27,-21.82 -2.24,-22.5 1.08,-25.64 0.86,-11.29 4.95,-20.42l33.53 -0.58 -4.59 44.68z"/>
     <path class="fil1" d="M325.03 444.89l-8.45 25.23c-18.42,-2.63 -16.03,0.36 -26.62,-12.31l3.26 -20.85 31.81 7.93z"/>
     <polygon class="fil1" points="237.29,462.81 209.67,469.61 200.78,446.02 228.75,435.48 "/>
     <path class="fil1" d="M196.59 480.26c-18.66,12.61 -6.97,8.7 -31.57,-0.47 8.37,-23.44 1.51,-16.08 26.48,-27.59l5.09 28.06z"/>
     <path class="fil1" d="M358.67 469.44c-10.76,17.59 -7.08,13.64 -25.03,22.25 -10.7,-23.82 -13.22,-16.21 3.33,-36.72l21.7 14.47z"/>
     <path class="fil1" d="M127.17 552.14l3.6 -31.28c40.79,5.52 35.41,27.47 -3.6,31.28z"/>
     <path class="fil1" d="M383.1 510.43c-18.17,6.23 -22.93,12.86 -29.89,-4.53 -4.5,-11.29 10.22,-18.31 15.03,-22.05 12.32,11.67 12.67,12.16 14.86,26.58z"/>
     <path class="fil1" d="M395 553.78l-26.14 -6.39c-2.16,-31.42 -13.73,-18.18 18.14,-25.22l8 31.61z"/>
     <path class="fil1" d="M152.37 614.14c-6.78,10.59 13.57,13.83 -24.16,8.81 -0.68,-13.07 -5.4,-16.71 5.51,-21.77 30.28,-14.04 15.84,9.52 18.65,12.96z"/>
     <path class="fil1" d="M152.37 576.62c-10.01,17 13.34,9.65 -21.76,10.88 -1.17,-3.2 -8.27,-11.87 -0.46,-20.3 20.79,-22.45 21.59,8.7 22.22,9.42z"/>
    </g>
    <g>
     <path class="fil1" d="M106.41 265.23c-0.45,5.59 -14.37,12.24 -9.47,0.22 1.67,-4.09 11.02,-19.71 9.47,-0.22z"/>
     <path class="fil1" d="M108.47 246.47c2.1,13.22 -16.11,-3.48 -5.33,-2.19 13.55,1.62 4.13,-5.32 5.33,2.19z"/>
     <path class="fil1" d="M267.35 176.14c3.83,-26.6 -6.19,-41.55 -30.35,-30.62 -21.19,35.07 6.47,43.63 30.35,30.62zm-163.6 22.47c-5.96,-38.91 7.47,-73.28 41.19,-81.8 10.3,-2.6 111.35,-1.7 120.87,1.31 39.88,12.65 75.65,107.35 -16.31,154.71l-12.38 -28.99 -133.37 -45.23z"/>
     <path class="fil1" d="M160.62 270.16c-32.39,20.74 -30.82,7.59 -38.83,3.48 -19.48,-42.1 23.75,-16.67 -4.12,-39.44 -10.09,-8.24 -72.92,-0.8 -5.74,67.89 1.25,-0.91 3.02,-2.21 3.7,-2.81 0.66,-0.58 2.79,-2.08 3.54,-2.77l10.12 -12.01c-0.98,15.24 -0.85,13.83 -8.02,23.14 40.79,2.14 85.19,-9.22 81.88,-46.49 -27.27,-8.43 -24.33,-2.65 -42.53,9.01zm-98.63 -55.35c6.48,-8.39 12.06,9.86 3.94,-9.87l-8.09 -7.31c19.13,-0.52 148,43.86 176.78,57.83 -16.06,76.4 -99.52,91.59 -140.11,65.43 -34.26,-22.07 -46.34,-52.27 -22.79,-88.56 -17.18,-5.26 -14.45,1.9 -29.42,-10.16l19.69 -7.36z"/>
     <path class="fil1" d="M185.71 271.87c12.8,11.81 4.87,11.46 -2.07,3.45 -9.43,-10.85 -4.88,-9.87 2.07,-3.45z"/>
     <path class="fil1" d="M145.93 292.77c-9.45,-4.56 6.45,-14.38 6.8,-0.65l-6.8 0.65z"/>
     <path class="fil1" d="M218.24 73.67c19.51,1.34 0.11,-1.26 3.14,6.91l1.95 6.23c0.12,-0.86 0.63,2.36 1.16,3.46 38.31,-17.74 32.44,-1.04 52.64,2.27 -101.14,11.81 -52.98,36.88 -117.52,-6.25 -2.95,-1.97 -7.4,-0.06 -9.41,-5.83 -0.89,-2.56 -3.43,-2.05 -5.07,-3.17 46.54,-2.97 32.5,15.66 53.41,-5l3.2 21.08 16.5 -19.7z"/>
     <path class="fil1" d="M167.7 293.42c-17.55,-22.89 -0.05,-12.43 2.48,-15.3 5.17,20.78 5.1,6.12 -2.48,15.3z"/>
    </g>
   </g>
  </g>
 </g>
</svg>
