<?xml version="1.0" encoding="UTF-8"?>
<!DOCTYPE svg PUBLIC "-//W3C//DTD SVG 1.1//EN" "http://www.w3.org/Graphics/SVG/1.1/DTD/svg11.dtd">
<!-- Creator: CorelDRAW 2017 -->
<svg xmlns="http://www.w3.org/2000/svg" xml:space="preserve" width="215.9mm" height="279.4mm" version="1.1" style="shape-rendering:geometricPrecision; text-rendering:geometricPrecision; image-rendering:optimizeQuality; fill-rule:evenodd; clip-rule:evenodd"
viewBox="0 0 21590 27940"
 xmlns:xlink="http://www.w3.org/1999/xlink">
 <defs>
  <style type="text/css">
   <![CDATA[
    .fil0 {fill:#FEFEFE}
    .fil1 {fill:#E6E7E8}
   ]]>
  </style>
 </defs>
 <g id="Capa_x0020_1">
  <metadata id="CorelCorpID_0Corel-Layer"/>
  <g id="_2923972026672">
   <rect class="fil0" x="-67.86" y="14017.65" width="10816.65" height="11156.81"/>
   <path class="fil1" d="M7852.46 17597.06c1.41,17.56 45.09,38.43 29.7,0.69 -5.22,-12.82 -34.57,-61.84 -29.7,-0.69z"/>
   <path class="fil1" d="M6837.85 19488.93c-35.85,57.25 -10.36,48.99 -7.91,142.6 1.24,47.16 -6.79,101.44 -23.65,143.74 -23.82,59.76 -95.71,133.56 -147.83,167.98 -312.88,206.63 -715.88,-186.96 -505.39,-505.76 163.17,-247.11 352.02,-123.11 427.37,-178.91 -44.49,-75.04 -208.76,-38.09 -280.2,-8.34 -265.87,110.73 -347.41,458.76 -119.15,683.89 197.48,194.77 563.5,140.64 676.32,-164.17 17.96,-48.52 25.89,-101.61 23.78,-158.87 -4.43,-120.28 -34.26,-113.11 -43.34,-122.16z"/>
   <path class="fil1" d="M7386.8 19257.06c4.38,-3.89 10.74,-15.81 13.28,-11.49l56.36 -30.02c22.6,-7.93 49.81,-15.23 82.08,-17.07 28.76,-1.65 62.47,1.44 88.01,8.48 54.77,15.12 62.22,32.72 78.82,50.1 -22.19,54.08 -36.19,74.58 -147.73,82.74 -128.43,9.4 -129.18,5.13 -170.82,-82.74zm-28.03 19.62c99.03,191.21 343.21,52.23 362.82,46.45 58.55,-17.25 160.13,7.66 224.71,15.36 178.13,21.22 180.28,50.23 232.15,-2.81l-425.29 -63.18c-50.75,-63.79 -77.88,-96.18 -195.94,-98.33 -105.87,-1.93 -166.81,28.14 -198.45,102.51z"/>
   <path class="fil1" d="M7285.49 21027.22c174.19,-119.31 207,-57.42 298.49,-16.56 0.42,0.19 183.45,41.1 54.42,172.22 -62.76,63.78 -46.67,-6.27 -71.92,104.46 86.5,-48.25 158.55,-116.18 144.81,-253.7 -79.96,-61.71 -283.71,-162.8 -393.31,-74.11 -63.59,51.45 -23.19,-4.83 -32.49,67.69z"/>
   <path class="fil1" d="M8033.15 18846.39c43.55,44.78 45.51,44.62 108.45,20.74l-49.6 -88.75c-53.36,35.01 -37.52,1.54 -58.85,68.01z"/>
   <path class="fil1" d="M7330.4 19107.27c139.56,2.29 42.78,2.67 79.24,-26.81 -29.41,-61.71 43.78,-34.21 -71.5,-36.9l-7.74 63.71z"/>
   <path class="fil1" d="M7336.8 19203.17c41.77,-16.71 15.55,16.14 65.33,-50.86 -74.03,4.05 -24.6,2.35 -65.33,50.86z"/>
   <path class="fil1" d="M4910.8 19386.94c-42.23,-82.48 -8.3,-146.79 94.3,-95.02 43.22,85.29 -9.14,114.21 -94.3,95.02zm362.25 -260.59c-44,46.32 38.8,67.58 -49.85,33.01 -27.77,-40.62 -63.58,-74.32 -53.05,-152.61l-41.83 -20.93c-26.49,39.7 -5.48,23.93 -19.4,72.26 -40.61,141.06 -223.59,72.2 -291.39,264.22 -72.84,206.32 111.7,364.39 305.3,327.75 208.16,-92.39 56.12,-467.84 54.55,-474.21 164.8,153.25 116.49,272.47 50.03,444.23 195.29,-88.45 179.52,-267.53 65.43,-429.76 97.49,49.64 136.49,109.47 130.24,221.65 -2.59,46.48 -13.97,85.26 -36.56,124.22l-64.43 84.98c-1.95,-3.56 -7.44,9.51 -10.97,14.41 141.64,-30.16 238.27,-114.6 209.86,-283.01 -26.12,-154.96 -175.32,-185.55 -247.93,-226.21z"/>
   <path class="fil1" d="M7129.97 21008.77c52.44,2.9 456.41,361.47 474.35,436.79 -94.48,11.8 -237.03,-196.3 -374.05,-316.51 -65.58,-57.53 -68.19,-41.43 -100.3,-120.28zm-150.97 -21.73c33.45,207.19 -52.99,110.19 259.46,389.11l158.27 157.08c122.88,130.92 216.09,29.3 227.53,81.12 1.54,7 8.82,8.17 10.87,10.83l49.57 71.87c33.84,30.78 64.67,18.97 100.6,6.4 17.8,-110.13 -51,-115.23 -124.51,-141.52 6.07,-154.6 16.73,-153.65 -75.82,-237.26 -51.65,-46.66 -104.89,-94.15 -166.4,-148.06 -317.74,-278.45 -132.93,-223.18 -390.91,-235.15 -43.47,-69.43 -33.32,-139.19 -153.16,-109.01 -41.37,120.17 38.2,116.22 104.5,154.59z"/>
   <path class="fil1" d="M7347.47 17317.54c-12.03,-83.48 19.43,-130.4 95.24,-96.09 66.47,110.04 -20.31,136.91 -95.24,96.09zm513.33 70.5c18.71,-122.1 -23.43,-229.93 -129.23,-256.66 -32.32,-8.17 -349.41,-5.37 -379.28,4.11 -125.11,39.68 -237.36,336.82 51.18,485.41l38.84 -90.95 418.49 -141.91z"/>
   <path class="fil1" d="M6357.27 19858.31l-102.15 -5.97c-30.87,-150.25 119,-141.34 102.15,5.97zm163.34 -150.83c170.47,2.81 178.62,166.84 23.44,173.97 40.32,-93.41 4.27,35.67 32.82,-49.57 -125.6,2.99 -78.73,5.82 -110.88,-23.9 23.26,-61.15 -4.99,-42.65 97.07,-43.96 -23.56,-67.45 -18.96,48.72 -42.45,-56.54zm-125.37 11.07l-10.89 -80.1c75.48,-2.73 34.42,-19.77 74.79,33.36 -24.39,55.77 -11.89,53.04 -63.9,46.74zm256.21 -17.82c-58,-83.5 14.02,-144.93 75.11,-112.38 71.62,38.13 33.7,142.98 -75.11,112.38zm-424.63 -31.64c-23.48,31.92 17.98,10.94 -32.95,14.74 -36.58,-72.39 -17.19,-88.99 35.71,-126.37l50.89 43.8c32.55,38.6 53.4,37.03 31.44,68.12 -36.04,51.01 -19.14,33.42 -82.33,-14.56l-2.76 14.27zm236.33 -194.67c8.02,182.43 -203.56,92.69 -93.15,-30.79 61.92,-2.71 55,0.41 93.15,30.79zm-244.76 45.75c4.79,-4.34 12.48,-9.01 15.14,-12.12 48.24,-56.26 1.39,-36.99 -3.17,-59.99 -1.57,-7.86 -10.13,-6.63 -14.73,-10.53 66.19,15.24 47.32,-2.82 77.9,56.51 -30.84,20.09 6.24,20.67 -75.14,26.13zm465.1 13.04c-39.28,39.96 -147.1,73.59 -208.24,91.96l51.26 -309.22 -66.87 -1.75c21.64,26.81 31.29,22.25 15.38,75.4 -7.57,4.94 22.11,26.12 -45.47,16.75 -39.67,-5.49 -30.31,-26.33 -32.77,-30.04 27.11,-62.77 -2.46,-9.58 38.41,-28.15 0,-39.94 9.32,-27.64 -32.9,-32.38 -299.18,60.25 -351.65,458.84 -113.8,590.5 294.43,162.99 559.42,-77.52 482.1,-385.51l-87.1 12.44z"/>
   <path class="fil1" d="M3800.14 19601.57c-211.1,72.64 -369.01,-367.1 -97.21,-570.52 302.74,-226.56 722.88,249.7 347.32,199.2 41.26,-62.83 92.9,-53.12 98.12,-67.49 2.28,-6.29 10.08,-3.03 13.94,-6.37 -68.57,-38.78 -122.3,-29.37 -177.76,-3.52 -23.9,170.26 252.34,218.89 244.32,331.42 -20.75,47.74 -111.91,138.65 -165.61,166.34 -150.83,-48.83 -171.72,-255.46 -313.95,-266.68 -63.88,58.11 -73.6,118.65 -19.62,183.46 26.62,-74.54 -13.14,-67.93 59.9,-109.6 39.23,64.61 39.33,62.28 10.55,143.76zm349.17 -296.34c59.34,-54.94 119.77,-47.03 98.7,-159.89 -32.08,-171.88 -357.85,-314.39 -586.75,-155.53 -116.7,80.99 -181.31,250.4 -150.82,409.03 29.67,154.4 118.47,289.05 304.86,266.45l62.82 -81.24c1.11,-5.52 5.54,-6.35 8.54,-9.29 187.34,213.53 215.74,124.01 311.68,31.08 158.3,-153.33 92.68,-160.4 -49.03,-300.61z"/>
   <path class="fil1" d="M7445.42 19147.91l125.54 -19.36 91.03 -155.44c22,99.98 -6.93,57.78 52.81,90.82 -14.31,-73.66 -41.24,-83.91 -42.95,-160.06l86.07 -69.18c-9.44,101.37 -4.16,125.59 32.27,184.69 87.3,-33.83 -20.43,47.64 47.03,-36.24l18.19 -30.62c26.08,145.54 111.33,112.47 21.1,277.91l184.11 1.34c112.37,-502.62 -356.83,-580.51 -545.33,-389.71 -72.88,73.76 -77.53,174.47 -69.87,305.85z"/>
   <path class="fil1" d="M7682.36 17612.53c101.62,65.09 96.72,23.84 121.84,10.92 61.11,-132.08 -74.53,-52.29 12.94,-123.76 31.65,-25.85 228.8,-2.5 18,213.04 -3.93,-2.85 -9.47,-6.93 -11.61,-8.81 -2.07,-1.82 -8.77,-6.53 -11.1,-8.71l-31.77 -37.68c3.08,47.83 2.68,43.42 25.18,72.6 -128,6.71 -267.33,-28.91 -256.93,-145.85 85.57,-26.46 76.35,-8.33 133.45,28.25zm309.48 -173.65c-20.34,-26.34 -37.82,30.94 -12.37,-30.98l25.39 -22.96c-60.02,-1.61 -464.39,137.64 -554.69,181.48 50.4,239.73 312.27,287.37 439.63,205.3 107.49,-69.26 145.39,-164 71.52,-277.87 53.91,-16.51 45.33,5.94 92.29,-31.9l-61.77 -23.07z"/>
   <path class="fil1" d="M6692.46 19482.19c-3.5,0.96 -26.03,8.48 -70.27,-9.68l19.44 -113.28c83.81,19.65 100.26,55.95 50.83,122.96zm-8.97 51.02c37.83,-41.3 54.56,-40.11 127.27,-54.4 -31.95,-106.46 -109.01,-179.16 -209.25,-202.13l-90.38 299.7 172.36 -43.17z"/>
   <path class="fil1" d="M6873.32 19447.11c64.37,-99.33 -159.16,-240.97 -250.07,-252.49 18.75,78.84 -26.5,19.37 53.11,69.44 191.69,120.54 102.24,148.73 196.96,183.05z"/>
   <path class="fil1" d="M7734.76 19119.7l-66.52 11.77c38.37,54.9 93.4,109.4 161.98,88.66 6.8,-14.24 47.35,15.62 -2.37,-77.15l-48.96 29.3c-1.52,-96.2 57.02,-65.58 -7.95,-145.57 -34.6,47.68 -6.37,40.5 -36.18,92.99z"/>
   <path class="fil1" d="M7701.69 18719.76l99.32 -3.71c0.12,-0.88 7.1,-68.46 7.01,-70.58 -3.38,-80.47 -2.69,-35.45 -15.51,-64.07l-105.21 -1.83 14.39 140.19z"/>
   <path class="fil1" d="M6106.98 18135.89c23.79,71.74 32.72,45.73 -18.48,101.25 -82.2,1.56 -94.06,-19.18 -59.8,-100.24 17.45,-7.12 3.68,-8.21 45,-10.67 37.97,-2.27 8.85,1.12 33.28,9.66zm-14.04 -126.8l-5.82 34.41 151.1 24.65c-121.37,32.36 -61.39,6.85 -181.55,-2.97 -215.58,130.61 -61.3,308.08 -39.06,474.68l52.77 82.46 245 -4.43c158.45,-509.5 -44.86,-521.97 -49.51,-554.42l-7.94 -43.35c-57.95,-172.59 -23.33,-71.12 53.08,-189.5 -49.13,-44.81 -27.3,-39.53 -111.35,-30.49 -39.64,81.66 -20.12,189.09 -106.72,208.96z"/>
   <path class="fil1" d="M6508.84 18381.67c22.61,-106.18 109.53,-451.67 -178.63,-343.46 8.66,16.09 -20.84,3.8 17.03,49.53 104.22,125.85 43.21,357.06 8.06,502.66 130.71,-23.67 122.71,-64.02 153.54,-208.73z"/>
   <path class="fil1" d="M6017.61 18539.86c-80.99,-91.79 -153.73,-316.55 -58.85,-434.83 19.22,-23.96 176.87,-132.58 -68.56,-101.36 -76.81,148.05 -75.38,156.18 -44.53,333.89 21.14,121.83 37.11,215.6 159.28,239.09l12.66 -36.79z"/>
   <path class="fil1" d="M6341.38 17937.61c-76.4,-14.14 -64.37,19.62 -73.67,49.98 57.44,33.2 78.85,22.9 155.86,28.85 -16.96,-34.66 -19.41,-67.2 -82.19,-78.83z"/>
   <path class="fil1" d="M6092.94 18009.09l22.84 -77.66c-80.64,-17.35 -62.3,-22.26 -126.9,8.71 -1.76,28.49 -15.58,26.37 22.64,50.65 35.36,22.47 31.64,14.87 81.42,18.3z"/>
   <path class="fil1" d="M7555.27 18667.1l26.53 79.19c57.81,-8.28 50.31,1.12 83.53,-38.64l-10.24 -65.43 -99.82 24.88z"/>
   <polygon class="fil1" points="7830.6,18723.34 7917.27,18744.69 7945.16,18670.65 7857.39,18637.58 "/>
   <path class="fil1" d="M7958.29 18778.11c58.57,39.54 21.89,27.29 99.06,-1.49 -26.24,-73.54 -4.72,-50.46 -83.09,-86.58l-15.97 88.07z"/>
   <path class="fil1" d="M7449.72 18744.14c33.78,55.2 22.21,42.8 78.54,69.8 33.6,-74.72 41.5,-50.85 -10.45,-115.21l-68.09 45.41z"/>
   <path class="fil1" d="M8176.13 19003.63l-11.31 -98.14c-127.99,17.31 -111.09,86.19 11.31,98.14z"/>
   <path class="fil1" d="M7373.06 18872.76c57.02,19.56 71.98,40.36 93.79,-14.21 14.15,-35.42 -32.06,-57.46 -47.15,-69.21 -38.65,36.65 -39.74,38.18 -46.64,83.42z"/>
   <path class="fil1" d="M7335.72 19008.77l82.05 -20.04c6.76,-98.58 43.08,-57.05 -56.94,-79.12l-25.11 99.16z"/>
   <path class="fil1" d="M8097.07 19198.19c21.26,33.23 -42.61,43.37 75.8,27.65 2.12,-41.02 16.95,-52.45 -17.31,-68.33 -94.99,-44.04 -49.68,29.87 -58.49,40.68z"/>
   <path class="fil1" d="M5126.06 18947.34l88.43 35.58 6.76 -101.06c-101.99,35.83 5.98,29.67 -91.41,24.51l-3.78 40.97z"/>
   <path class="fil1" d="M8097.07 19080.46c31.38,53.32 -41.88,30.27 68.25,34.14 3.67,-10.05 25.96,-37.26 1.45,-63.72 -65.23,-70.44 -67.74,27.3 -69.7,29.58z"/>
   <path class="fil1" d="M10122.91 21562.1c21.28,11.61 19.08,9.14 41.68,-1.01l11.23 35.03 31.85 -10.13c-5.47,-26.76 -12.31,-35.3 -8.92,-63.12 -31.43,27.4 -24.28,35.64 -75.84,39.23z"/>
   <path class="fil1" d="M10154.75 21529.43c24.41,-19.59 33.85,-56.5 3.67,-73.54 -0.44,16.56 5.14,-0.16 -9.1,16.07 -9.22,10.51 -2.06,22.03 5.43,57.47z"/>
   <path class="fil1" d="M10232.67 21579.1c16.18,-16.56 24.78,-33.29 26.75,-55.49 -9.62,13.59 -8.01,-9.67 -8.64,14.12l-23.26 -4.78 -12.68 25.38c17.62,15.85 8.07,-0.38 17.83,20.77z"/>
   <path class="fil1" d="M9295.41 18317.96c54.06,-27.77 80.63,48.7 40.9,70.4 -52.12,28.47 -89.43,-45.47 -40.9,-70.4zm-385.65 47.2c10.05,9.09 17.18,7.17 35.31,11.44 8.67,-22.33 25.63,-39.03 51.23,-49.9 -18.34,-16.43 -10.19,-0.63 -30.63,-16.41 -17.07,-13.18 -4.5,-14.86 -25.23,-13.8 -13.33,10.45 -30.18,51.87 -30.68,68.67zm590.45 -187.25c100.34,-32.5 144.46,125.78 44.59,154.43 -99.93,28.66 -153.76,-119.07 -44.59,-154.43zm-539.11 83.42c12.22,10.15 25.9,23.86 39.34,37.21 30.28,30.09 24.22,3.21 54.56,21.04l100.11 96.86 731.24 105.84 -10.18 89.57c-35.93,8.45 -436.76,-43.93 -506.17,-51.57 -104.65,-11.52 -409.15,-2.33 -432.71,-123.85 -11.45,-14.25 -6.89,-19.17 -41.29,-24.46l7.9 45.54c15.86,135.91 350.82,130.15 459.38,142.15 138.98,15.36 449.85,62.1 560.9,52.65l-20.68 -242.78c-86.73,7.39 -120.51,66.71 -163.24,-0.71 -47.02,-74.17 37.32,-95.79 48.37,-123.53 -5.15,-28.02 -62.83,-82.21 -85.04,-104.09 -75.27,-74.16 -35.92,-39.05 -30.26,-133.71 9.53,-159.63 -140.66,-132.83 -242.97,-105.69 -167.05,44.32 -384.67,162.67 -469.26,319.53zm-20.66 35.16c20.73,-1.06 8.16,0.62 25.23,13.8 20.44,15.78 12.29,-0.02 30.63,16.41l58.7 -7.12c-30.34,-17.83 -24.28,9.05 -54.56,-21.04 -13.44,-13.35 -27.12,-27.06 -39.34,-37.21l-20.66 35.16zm-36.54 161.02l-7.9 -45.54c34.4,5.29 29.84,10.21 41.29,24.46l7.78 -59.83c-18.13,-4.27 -25.26,-2.35 -35.31,-11.44 -17.76,16.86 -28.22,73.96 -5.86,92.35z"/>
   <path class="fil1" d="M8901.41 20054.09c291.2,94.51 286.37,339.36 -14.9,239.87 -289.6,-95.64 -292.4,-339.6 14.9,-239.87zm457.55 386.73c-15.95,-51.1 -288.76,-485.08 -315.79,-492.66 -49.93,-13.99 -598.44,-45.34 -606.66,-35.02 -7.49,9.41 272.99,480.51 312.06,489.52 32.34,7.47 598.21,41.51 610.39,38.16z"/>
   <path class="fil1" d="M9801.61 21137.25c104.35,145.48 303.49,304.18 -27.32,387.16l-62.5 -215.31 -11.6 3.5c-128.95,-46.86 -471.66,161.49 -356.67,340.92l263.06 -65.47 40.35 34.96c103.28,-26.19 257.81,-51.37 322.5,-135.05 97,-125.46 101.9,-123.6 263.81,-163.39 -39.42,-112.31 -142.3,-77.03 -229.5,-51.29 -26.39,-42.42 -118.65,-152.72 -155.12,-192.51 -37.75,-41.16 -254.19,72.08 -47.01,56.48z"/>
   <path class="fil1" d="M8957.84 21165.21c-81.21,58.79 -14.02,269.49 35.37,306.2 55.7,41.41 292.42,-21.18 351.09,-58.14 88.45,-55.72 16.98,-272.58 -30.61,-308.59 -54.28,-41.07 -301.81,21.42 -355.85,60.53z"/>
   <path class="fil1" d="M9659.73 19526.2c-174.38,31.97 -236.46,245.35 -105.22,363.48 131.15,118.06 340.75,31.3 350.76,-141.72 2.96,-51.34 -30.48,-223.12 -96.72,-112.44 -48.08,80.34 -23.97,179.6 -117.81,175.12 -88.95,-4.24 -104.03,-97.8 -5.9,-158.1 33.2,-20.4 146.33,-157.77 -25.11,-126.34z"/>
   <path class="fil1" d="M9658.66 19448.43l155.83 40.34c-6.67,32.69 -67.82,122.47 -90.69,158 -18.54,28.83 -150.17,78.86 -58.74,133.43 92.72,55.33 74.07,-75.24 94.32,-108.42 20.62,-33.8 73.23,-134.83 100.2,-149.16l103.55 125.22c63.05,-49.16 -52.47,-107.78 -46.62,-149.19 1.62,-11.48 71.83,-119.37 83.75,-138.72 34.41,-55.86 193.29,-241.01 120.96,-296.5 -94.86,-72.79 -212.12,235.45 -299.63,355.13 -35.09,47.99 -154.2,-41.14 -162.93,29.87z"/>
   <path class="fil1" d="M8679.63 20516.87l615.27 41.25c87.22,-113.75 38.23,-97.79 -59.38,-102.74 -64.81,-3.29 -130.18,-7.48 -194.99,-11.35 -63.55,-3.8 -127.12,-7.64 -190.63,-11.18 -131.56,-7.33 -107.03,-35.47 -170.27,84.02z"/>
   <path class="fil1" d="M8368.16 20024.16l286.6 484.25c73.51,-93.76 53.71,-96.05 2.83,-177.41l-187.8 -300.86c-49.68,-80.56 -52.99,-127.21 -101.63,-5.98z"/>
   <path class="fil1" d="M10232.67 21579.11c-9.75,-21.16 -0.21,-4.94 -17.83,-20.78l12.68 -25.38 23.26 4.78c0.63,-23.79 -0.98,-0.52 8.64,-14.12l2.05 -24.69c8.47,-16.58 3,-25.34 -1.33,-47.56l-28.77 -0.21 -2.15 -24.61 14.99 -6.62c-11.17,-18.47 -11.34,-22.48 -29.28,-30.21 -36,-69.24 -227.45,57.85 -218.11,127.37 14.37,107.03 156.28,146.27 235.85,62.03zm-30.89 -92.11l-3.03 35.87c-3.39,27.82 3.45,36.36 8.92,63.12l-31.85 10.13 -11.23 -35.03c-22.6,10.15 -20.4,12.62 -41.68,1.01 -132.63,-8.4 -36.12,-224.35 61.3,-119.68l17.57 44.58z"/>
   <path class="fil1" d="M9586.32 21622.69c-19.31,17.37 -0.31,26.11 -12.55,58.35 -7.02,18.49 -22.91,34.46 -42.89,41.33 -67.06,23.09 -76.01,-26.95 -102.5,-56.48l-54.55 12.88c25.52,139.77 210.47,146.62 259.25,23.2 17.22,-43.55 -10.49,-83.99 -46.76,-79.28z"/>
   <path class="fil1" d="M9692.28 21261.38c26.88,-77.51 -64.28,-46.4 -99.81,-36.99 -29.65,7.86 -139.94,28.8 -152.73,51.13 -10.45,18.23 -1.12,46.6 20.49,51.85 16.34,3.96 211.64,-41.3 232.05,-65.99z"/>
   <path class="fil1" d="M3429.31 20847.65l31.72 0.63 -0.69 113.27 -30.96 -1.2 -0.07 -112.7zm7.06 -51.11c23.25,-11.9 38.12,19 21.68,31.61 -23.43,17.96 -48.6,-17.81 -21.68,-31.61zm-404.93 165.96c-92.11,4.3 -167.58,-70.68 -96.2,-161.73 21.81,-27.82 57.55,-50.12 84.8,-75.39 51.54,-47.8 27.41,-77.77 46.18,-110.25 286.3,160.84 117.68,414.98 26.59,341.92l19.89 6.48 49.49 -151.85c-29.67,1.41 -64.52,36.72 -88.98,54.36l-23.39 -19.42 48.05 -108.9c-37.45,15.87 -71.01,58.16 -89.44,96.01 -46.15,94.78 8.29,89.86 23.01,128.77zm-43.4 -467.12c-218.14,23.67 -333.67,106.79 -332.15,332.03 1.31,192.68 -31.98,176.04 160.82,176.5 111.78,0.26 223.59,0 335.38,0 48.29,0 296.47,10.43 319.17,-12.49 24.31,-24.54 13.9,-271.21 -1.91,-310.98 -66.25,-166.56 -327.31,-201.76 -481.31,-185.06z"/>
   <path class="fil1" d="M2569.28 21100.66l1001.13 -0.09c68.96,-103.47 -148.07,-71.38 -203.09,-71.37l-590.65 0c-49.82,0 -277.75,-29.8 -207.39,71.46z"/>
   <path class="fil1" d="M3304.36 21236l220.57 4.26c13.09,-22.89 13.9,-90.9 0.02,-105.33 -17.13,-17.82 -79.77,-7.98 -107.57,-7.97 -25.18,0.01 -93.24,-6.82 -109.95,5.57 -17.17,12.73 -17.08,83.8 -3.07,103.47z"/>
   <path class="fil1" d="M2614.2 21235.03l220.48 5.36c14,-21.81 13.72,-91.88 0.02,-105.69 -17.25,-17.4 -79.93,-7.75 -108.08,-7.74 -29.05,0.01 -89.64,-9.41 -109.69,5.94 -16.66,12.76 -16.3,84.29 -2.73,102.13z"/>
   <path class="fil1" d="M3045.51 21234.19l220.27 6.37c13.94,-21.32 14.08,-91.47 -0.47,-105.8 -17.92,-17.67 -80.04,-7.81 -108.21,-7.8 -28.98,0.01 -89.64,-9.31 -109.22,6.26 -16.13,12.83 -15.61,83.8 -2.37,100.97z"/>
   <path class="fil1" d="M2927.39 21372.47c17.49,11.7 185.29,11.55 204.48,0.3 9.66,-16.02 13.46,-81.18 -0.57,-93.83 -8.44,-7.61 -189.07,-7.81 -199.61,-0.77 -14.38,9.61 -10.31,78.94 -4.3,94.3z"/>
   <path class="fil1" d="M3165.93 21374.63c21.75,7.8 181.81,8.51 202.02,-1.09 9.76,-17.22 13.31,-82.58 -0.87,-94.85 -6.69,-5.78 -190.05,-10.57 -202.2,2.04 -11.54,11.97 -7.8,79.75 1.05,93.9z"/>
   <path class="fil1" d="M2871.93 21237.43c17.01,6.44 121.66,6.79 138.19,-0.91 8.82,-20.72 8.27,-85.63 -0.28,-106.81 -15.35,-3.4 -113.89,-5.82 -128.08,-2.33 -31.16,7.66 -13.14,104.82 -9.83,110.05z"/>
   <path class="fil1" d="M2610.93 21373.07c18.96,10.37 107.66,9.29 127.55,1.7 7.55,-16.05 8.56,-62.45 4.9,-82.34 -5.21,-28.34 -37.82,-18.19 -66.81,-18.17 -20.43,0.02 -62.61,-9.65 -68.66,14.58 -3.93,15.76 -2.17,69.63 3.02,84.23z"/>
   <path class="fil1" d="M3400.98 21374.16c19.04,8.6 110.56,8.45 127.09,-1.02 6.13,-15.84 6.71,-62.34 4,-80.35 -4.29,-28.5 -36.96,-18.59 -64.61,-18.53 -21.51,0.04 -63.53,-9.29 -70.58,14.02 -5.38,17.83 -3.13,71.61 4.1,85.88z"/>
   <path class="fil1" d="M2770.42 21374.08c19.13,8.82 110.01,8.4 127.31,-0.53 5.24,-15.29 6.26,-63.76 3.74,-80.79 -4.22,-28.54 -36.98,-18.54 -64.72,-18.47 -21.53,0.04 -63.53,-9.39 -70.36,13.98 -5.23,17.86 -3.17,71.61 4.03,85.81z"/>
   <path class="fil1" d="M9882.54 21025.21c-44.36,26.5 -18.3,96.67 54.25,67.4 45.54,-18.37 18.01,-110.55 -54.25,-67.4z"/>
   <path class="fil1" d="M10154.75 21529.43c-7.49,-35.44 -14.65,-46.96 -5.43,-57.47 14.24,-16.23 8.66,0.49 9.1,-16.07 -31.91,-24.09 -76.59,-5.9 -75.41,34.18 1.18,39.72 40.44,59.82 71.74,39.36z"/>
   <path class="fil1" d="M9547.9 21635.03l-88.21 20.61c15.88,76.73 110.19,48.68 88.21,-20.61z"/>
   <polygon class="fil1" points="10260.14,21451.36 10244.21,21419.93 10229.22,21426.54 10231.37,21451.15 "/>
   <path class="fil1" d="M7377.9 21550.67c-15.78,-8.82 4.33,-13.05 -33.99,-11.78 -9.83,0.33 -49.21,10.93 -63.86,13.04 -67,9.63 -82.11,6.54 -147.61,-11.44 -210.38,-57.77 -185.77,-105.3 -189.57,-194.08 56.43,-39.11 77.67,-55.78 81.81,-92.52 10.22,-90.65 -12.27,-46.63 -19.52,-57.42 -50.76,125.95 -181.38,217.28 -28.95,323.47 102.08,71.11 292.73,101 401.69,30.73z"/>
   <path class="fil1" d="M7603.63 17617.9c-40.15,37.08 -15.29,35.95 6.52,10.84 29.58,-34.06 15.29,-30.98 -6.52,-10.84z"/>
   <path class="fil1" d="M7728.47 17683.5c29.65,-14.31 -20.24,-45.15 -21.34,-2.04l21.34 2.04z"/>
   <path class="fil1" d="M5827.26 21222.41c-1.28,10.21 -51.76,32.54 -6.36,77.49 44.58,44.13 68.2,-2.07 70.25,-3.07l14.49 -62.05 -78.38 -12.37z"/>
   <path class="fil1" d="M6096.35 21430.85l0.18 179.96 -427.04 6.96c-212.53,0.44 -25.89,-28.39 -163.9,-70.07 -86.62,-26.17 -101.62,46.32 -150.05,70.02l-12.31 -432.89c142.71,3.87 70.24,16.8 144.03,60.27 111.15,65.5 97.43,-17.03 158.87,-48.46 54.47,-27.87 359.69,-13.47 444.08,-8.13 -24.36,69.58 -61.21,-9.16 -76.21,105.86 -12.79,98.01 35.88,90.58 82.35,136.48zm-517.03 -277.46l3.56 43.78c-24.38,10.25 26.27,36.26 -50.6,15.62 -60.2,-16.16 -34.61,-66.11 -15.54,-75.06 76.01,-35.66 61.72,15.14 62.58,15.66zm465.69 159.73c65.07,-155.78 246.2,-40.9 -162.46,-311.16 -85.72,-56.69 -182.07,-129.13 -271.93,-166.3 -369.22,166.18 -308,436.92 -305.13,802.58 162.67,45.58 83.98,-9.9 167.78,-60.28 102.37,33.38 19.58,42.54 117.73,73.28 128.43,-0.17 434.89,22.03 538.46,-15.3 0.8,-386.11 5.45,-151.42 -84.45,-322.82z"/>
   <path class="fil1" d="M6023.96 21571.63c13.4,-48.27 22.44,-48.4 -0.49,-101.53 -86.6,-52.49 -138.55,-2.73 -107.6,87.68 55.46,38.74 42.08,25.66 108.09,13.85z"/>
   <path class="fil1" d="M5766.22 21483.65c0.93,-13.02 66.89,-59.35 11.23,-120.91 -45.44,-50.25 -91.41,-23.1 -130.03,9.25 -15.81,98.38 21.87,129.73 118.8,111.66z"/>
   <path class="fil1" d="M5428.02 21378.65c-113.41,138.92 148.81,174.83 65.5,2.24l-65.5 -2.24z"/>
   <path class="fil1" d="M7660.16 17685.54c55.05,-71.84 0.15,-39.01 -7.81,-48.02 -16.19,65.19 -15.98,19.2 7.81,48.02z"/>
   <path class="fil1" d="M3049.33 17669.64l-0.18 179.96 427.04 6.97c212.53,0.44 25.89,-28.4 163.9,-70.08 86.62,-26.16 101.62,46.32 150.05,70.02l12.31 -432.89c-142.71,3.87 -70.24,16.8 -144.03,60.27 -111.15,65.5 -97.43,-17.03 -158.87,-48.46 -54.47,-27.87 -359.69,-13.46 -444.08,-8.13 24.36,69.58 61.21,-9.16 76.21,105.86 12.79,98.01 -35.88,90.58 -82.35,136.48zm517.03 -277.45l-3.56 43.77c24.37,10.25 -26.27,36.26 50.59,15.62 60.21,-16.16 34.62,-66.11 15.54,-75.06 -76,-35.66 -61.71,15.14 -62.57,15.67zm-465.69 159.72c-65.07,-155.78 -246.21,-40.9 162.46,-311.16 85.72,-56.69 182.07,-129.13 271.93,-166.3 369.22,166.18 308,436.93 305.13,802.58 -162.67,45.58 -83.98,-9.9 -167.78,-60.28 -102.37,33.38 -19.58,42.54 -117.73,73.28 -128.43,-0.16 -434.89,22.03 -538.46,-15.3 -0.8,-386.1 -5.45,-151.41 84.45,-322.82z"/>
   <path class="fil1" d="M843.29 19625.58c-13.09,-35.77 1.89,-46.14 -46.04,-52.83 -64.15,-8.95 -52.65,30.82 -62.46,60.16 64.46,17.37 44.22,28.97 108.5,-7.33zm53.47 -71.64c0.27,-0.31 43.63,-1.87 46.08,-124.52 1.24,-62 -15.85,-103.23 -32.86,-140 -40.18,40.56 -20.96,-20.92 -28.92,42.31 -8.53,67.82 41.35,21.91 15.7,222.21zm195.13 -528.96c-103.02,-13.06 -178.38,-9.07 -273.29,-43.08 -51.56,-18.47 -185.12,-82.82 -108.91,-136.32 99.84,-70.1 367.91,113.8 426.11,157.69l160.56 -11.54c-57.63,48.59 -30.56,21.24 -126.16,43.38 -168.44,39.01 -213.41,140.18 -272.58,198.04 31.8,63.15 98.93,88.67 65.45,259.84 -65.09,332.77 -413.82,167.85 -238,-160.86 59.22,-110.73 79.61,-53.99 144.66,-107.07 45.46,-37.1 22.81,-69.13 101.06,-122.22 -186.93,25.85 -293.58,132.59 -527.88,111.13l67.03 -57.61c279.67,-201.91 433.73,-43.34 581.95,-131.38z"/>
   <path class="fil1" d="M2466.82 20179.84l-71.07 -46.4c-115.19,-70.62 -101.21,-140.67 -122.16,-265.12l436.81 -8.87 43.97 131.9c3.58,-4.95 5.48,-12.3 7.22,-16.83 1.71,-4.51 4.85,-11.28 6.89,-16.87 2.04,-5.57 4.06,-10.96 6.2,-17.1l16.03 -51.8c1.41,-4.38 4.65,-7.69 5.67,-16.71 1.01,-9.01 2.56,-11.72 5.75,-16.65 51.44,78.52 26.22,185.39 -65.02,258.43 -84.62,67.76 -152.4,60.98 -270.29,66.02z"/>
   <path class="fil1" d="M2273.59 19868.32c-24.67,13.6 -14.83,-5.4 -27.31,36.87 -8.86,30.02 -9.16,46.56 -5.5,77.44 11.78,99.39 106,191.18 226.04,197.21 4.5,2.54 -11.98,6.49 43.48,16.74 242.56,44.82 469.87,-192.58 312.03,-372.15 -50.23,-57.15 -100.01,-81.02 -184.18,-104.15l-11.19 -35.24c-1.11,-4.48 -3.19,-12.08 -4.47,-17.47l-16.58 -75.4 -98.1 -2.34c-21.46,47.23 -3.69,16.98 -14.41,60.11l-8.26 33.61c-1.46,5.24 -4.1,12.49 -5.36,16.77 -17.6,60.03 -132.91,4.72 -206.19,168zm149.89 -180.4c-123.62,-114.37 -213.73,-33.11 -188.01,138.4 35.38,-28.32 43.11,-46.11 81.7,-74.56 48.74,-35.94 61.13,-24.11 106.31,-63.84zm83.73 -129.61c172.75,31.53 150.27,-34.75 157.52,-55.48 -4.33,-1.78 -171.52,-48.52 -216.54,28.11 31.26,24.44 -34.05,10.38 59.02,27.37zm-43.41 82.08c-29.89,-102.24 -34.66,-32.79 -48.89,-129.07 40.46,-60.96 27.1,-16.95 52.34,-64.22 20.8,-38.94 -1.87,-17.98 20.93,-63.47l137.35 -1.26c39.29,54.23 -0.6,15.73 32.37,75.8 100.67,183.34 -2.92,22.5 -4.8,223.74 510.74,236.43 163.52,604.78 -176.09,544.3 -214.33,-38.18 -246.92,-131.66 -272.77,-333.71 -33.45,-261.46 -1.14,-356.61 259.56,-252.11z"/>
   <path class="fil1" d="M1262.74 19468.61c-54.43,-58.1 -94.19,-31 -104.88,35.22 114.56,13.44 53.26,-3.85 104.88,-35.22zm11.82 -111.76c-13.4,-124.33 -52.13,-203.4 -173.54,-198.07l173.54 198.07zm-261.17 -25.59c-71.98,-276.88 220.99,-303.44 292.64,-13.69 73.57,297.48 -220.64,290.65 -292.64,13.69z"/>
   <path class="fil1" d="M3121.72 17810.42c-13.4,-48.26 -22.44,-48.4 0.49,-101.53 86.6,-52.48 138.55,-2.73 107.6,87.69 -55.46,38.73 -42.08,25.65 -108.09,13.84z"/>
   <path class="fil1" d="M1998.99 19413.59l-74.23 -4.55c-4.07,12.83 -0.24,-0.8 -0.91,10.89l-1.12 12.43c-28.78,-5.08 -1.2,5.15 -16.52,-22.28 -22.2,-2.35 -32.84,-3.56 -44.94,3.52 -25.9,15.16 4.83,-5.87 -31.38,-0.86l-18.91 -0.35c-61.66,5.56 -48.01,-0.02 -61.25,0.87 -0.88,0.06 -17.68,3.78 -20.03,4.19 11.94,-20.6 7.16,-18.03 57.56,-17.59 58.12,0.51 186.45,-10.4 211.73,13.73z"/>
   <path class="fil1" d="M1611.84 18564.69c-21.28,11.6 -19.09,9.14 -41.69,-1.01l-11.23 35.03 -31.85 -10.13c5.48,-26.76 12.31,-35.3 8.92,-63.12 31.43,27.4 24.28,35.64 75.85,39.23z"/>
   <path class="fil1" d="M1579.99 18532.02c-24.41,-19.59 -33.85,-56.51 -3.66,-73.54 0.43,16.56 -5.15,-0.16 9.09,16.07 9.23,10.51 2.06,22.03 -5.43,57.47z"/>
   <path class="fil1" d="M1502.08 18581.69c-16.19,-16.56 -24.78,-33.29 -26.75,-55.5 9.61,13.6 8,-9.66 8.64,14.13l23.25 -4.78 12.68 25.38c-17.62,15.84 -8.07,-0.39 -17.82,20.77z"/>
   <path class="fil1" d="M1813.72 21100.5c-54.05,-27.77 -80.62,48.7 -40.89,70.4 52.11,28.47 89.42,-45.48 40.89,-70.4zm385.65 47.2c-10.04,9.09 -17.17,7.17 -35.31,11.44 -8.66,-22.34 -25.62,-39.03 -51.23,-49.9 18.34,-16.43 10.19,-0.63 30.63,-16.41 17.07,-13.18 4.5,-14.86 25.24,-13.8 13.33,10.44 30.18,51.87 30.67,68.67zm-590.44 -187.25c-100.35,-32.5 -144.47,125.78 -44.59,154.43 99.92,28.66 153.76,-119.07 44.59,-154.43zm539.1 83.42c-12.22,10.14 -25.89,23.86 -39.34,37.21 -30.27,30.09 -24.21,3.21 -54.56,21.04l-100.1 96.85 -731.25 105.85 10.19 89.57c35.92,8.45 436.76,-43.94 506.17,-51.57 104.65,-11.52 409.15,-2.33 432.7,-123.86 11.45,-14.24 6.9,-19.16 41.3,-24.45l-7.91 45.54c-15.85,135.91 -350.81,130.15 -459.37,142.15 -138.98,15.36 -449.86,62.1 -560.91,52.64l20.68 -242.77c86.73,7.39 120.51,66.71 163.25,-0.71 47.02,-74.17 -37.32,-95.8 -48.38,-123.53 5.15,-28.02 62.84,-82.21 85.05,-104.09 75.27,-74.16 35.92,-39.05 30.26,-133.71 -9.53,-159.63 140.66,-132.83 242.96,-105.69 167.06,44.32 384.67,162.67 469.26,319.53zm20.67 35.16c-20.74,-1.06 -8.17,0.62 -25.24,13.8 -20.44,15.78 -12.29,-0.02 -30.63,16.41l-58.7 -7.12c30.35,-17.83 24.29,9.05 54.56,-21.04 13.45,-13.35 27.12,-27.07 39.34,-37.21l20.67 35.16zm36.53 161.02l7.91 -45.54c-34.4,5.29 -29.85,10.21 -41.3,24.45l-7.78 -59.82c18.14,-4.27 25.27,-2.35 35.31,-11.44 17.77,16.86 28.23,73.96 5.86,92.35z"/>
   <path class="fil1" d="M4453.27 20778.06c-49.54,-30.17 -90.9,43.67 -44.29,74.08 46.4,30.27 102.12,-38.86 44.29,-74.08zm-137.31 -143.93c-83.67,-42.86 -138.78,85.15 -57,120.49 78.71,34.01 135.72,-80.17 57,-120.49zm365.92 -22.73c-87.69,-36.62 -129.18,93.21 -53.37,122.6 86.05,33.36 134.43,-88.76 53.37,-122.6zm-211.36 -8.75c-52.85,-23.3 -82.69,59.03 -32.97,80.4 50.59,21.73 97.1,-52.14 32.97,-80.4zm164.91 -198.34c-55.52,-28.94 -88.33,53.88 -40.88,77.02 53.49,26.09 95.32,-48.65 40.88,-77.02zm-423.35 8.55l-6.04 74.52 13.89 14.28 76.65 -32.72 141.32 93.17 -14.65 -135.08c15.46,-24.57 86.39,-50.64 38.52,-111.54 -7.34,-9.33 -125.49,-65.28 -29.28,-78.97 80.98,-11.52 192.58,36.84 252.28,91.81 139.91,128.86 150.62,348.88 19.52,488.11 -131.08,139.2 -340.39,146.98 -483.84,21.31 -143.98,-126.13 -138.28,-513.87 -8.37,-424.89z"/>
   <path class="fil1" d="M1933.14 18139.84c-104.36,145.47 -303.5,304.18 27.31,387.15l62.5 -215.3 11.6 3.5c128.95,-46.87 471.67,161.49 356.68,340.92l-263.07 -65.47 -40.35 34.95c-103.27,-26.18 -257.81,-51.36 -322.5,-135.05 -96.99,-125.46 -101.9,-123.59 -263.8,-163.38 39.42,-112.31 142.3,-77.03 229.49,-51.29 26.4,-42.42 118.66,-152.72 155.13,-192.51 37.74,-41.17 254.19,72.08 47.01,56.48z"/>
   <path class="fil1" d="M4589.04 21021.4c-38.1,2.44 0.83,0.24 -22.68,-6.49 -13.87,-3.97 -15.13,-2.03 -28.35,0.66l-2.54 24.02c-426.49,47.36 -676.14,-340.72 -468.46,-719.15l49.53 28.3c-59.13,194.04 -140.66,319.64 40.77,512.73 131.75,140.21 351.92,166.19 513.47,62.23 338.99,-218.12 214.6,-750.99 -280.93,-744.48l-7.41 -55.55c621.79,-101.15 690.22,829.34 206.6,897.73zm0 0c-11.36,12.1 -33.38,12.66 -53.57,18.19l2.54 -24.02c13.22,-2.69 14.48,-4.63 28.35,-0.66 23.51,6.73 -15.42,8.93 22.68,6.49z"/>
   <path class="fil1" d="M1936.64 19714.31c-3.68,-6.68 -97.02,-6.23 -111.02,-5.77 -49.12,1.6 -37.15,7.77 -48.11,61.82 -17.33,85.48 -42.41,93.4 -41.52,190.5 0.75,81.62 -31.9,383.58 50.31,412.44 223.03,78.32 203.88,-100.56 203.88,-248.91 0,-106.16 -1.82,-316.22 -53.54,-410.08zm-15.89 -144.16l-114.94 2.61 -6 93.61 128.42 -0.63 -7.48 -95.59zm-111.51 -48.71c20.73,9.74 87.44,9.88 108.29,0.02l-0.63 -15.4c-20.87,-10.25 -84.98,-9.81 -107.52,-0.83l-0.14 16.21zm189.75 -107.85l-28.83 85.6c5.08,209.07 72.38,330.93 72.37,523.82 -0.01,199.07 65.8,409.26 -182,409.27 -241.8,0.01 -176.78,-239.11 -176.79,-414.9 -0.02,-194.76 72.84,-312.62 72.1,-523.92l-26.14 -76.01c2.35,-0.41 19.15,-4.13 20.03,-4.19 13.24,-0.89 -0.41,4.69 61.25,-0.87l18.91 0.35c36.21,-5.01 5.48,16.02 31.38,0.86 12.1,-7.08 22.74,-5.87 44.94,-3.52 15.32,27.43 -12.26,17.2 16.52,22.28l1.12 -12.43c0.67,-11.69 -3.16,1.94 0.91,-10.89l74.23 4.55z"/>
   <path class="fil1" d="M658.72 21009.99c174.38,31.97 236.46,245.35 105.22,363.47 -131.15,118.06 -340.75,31.31 -350.76,-141.72 -2.96,-51.33 30.48,-223.12 96.72,-112.43 48.08,80.34 23.97,179.6 117.81,175.12 88.95,-4.25 104.03,-97.8 5.9,-158.1 -33.2,-20.4 -146.33,-157.78 25.11,-126.34z"/>
   <path class="fil1" d="M659.79 20932.22l-155.83 40.33c6.67,32.69 67.82,122.48 90.69,158.01 18.54,28.83 150.17,78.85 58.74,133.42 -92.72,55.34 -74.07,-75.24 -94.32,-108.42 -20.62,-33.79 -73.23,-134.82 -100.2,-149.16l-103.55 125.23c-63.05,-49.16 52.47,-107.78 46.62,-149.2 -1.62,-11.47 -71.83,-119.37 -83.75,-138.72 -34.41,-55.86 -193.29,-241 -120.96,-296.49 94.86,-72.79 212.12,235.45 299.63,355.12 35.09,47.99 154.2,-41.13 162.93,29.88z"/>
   <path class="fil1" d="M1942.7 20302.27l-156.2 3.23c-35.54,-37.36 -19.71,-150.76 -19.86,-203.69 -0.29,-99.26 -22.5,-136.39 88.01,-136.4 116.97,0 104.47,11.76 103.7,125.15 -0.37,54.13 12.62,169.59 -15.65,211.71z"/>
   <path class="fil1" d="M4382.98 20342.8l11.74 167.37 -187.05 -158.29 12.92 -15.26c-21.28,-12.03 -158.63,17.3 -83.37,-63.75 52.44,-56.49 191.49,-144.03 219.55,-104.32 30.04,42.53 -23.32,27.03 -52.07,56.97 -85.58,89.14 77.08,116.41 78.28,117.28z"/>
   <path class="fil1" d="M1502.08 18581.7c9.75,-21.16 0.2,-4.94 17.82,-20.78l-12.68 -25.38 -23.25 4.77c-0.64,-23.79 0.97,-0.52 -8.64,-14.12l-2.06 -24.68c-8.47,-16.58 -2.99,-25.34 1.34,-47.57l28.77 -0.2 2.14 -24.62 -14.99 -6.61c11.17,-18.48 11.34,-22.48 29.29,-30.21 35.99,-69.24 227.44,57.85 218.1,127.37 -14.37,107.02 -156.27,146.27 -235.84,62.03zm30.89 -92.11l3.02 35.86c3.39,27.82 -3.44,36.37 -8.92,63.13l31.85 10.13 11.23 -35.03c22.6,10.15 20.4,12.61 41.68,1.01 132.63,-8.4 36.12,-224.36 -61.3,-119.68l-17.56 44.58z"/>
   <path class="fil1" d="M4349.31 20094.19c-142.07,25.61 -203.44,72.54 -288.94,178.84l-48.78 -29.19c58.73,-99.32 216.07,-207.09 330.79,-204.44l6.93 54.79z"/>
   <path class="fil1" d="M2148.42 18625.27c19.31,17.38 0.31,26.12 12.56,58.35 7.02,18.5 22.91,34.47 42.89,41.34 67.05,23.08 76,-26.95 102.5,-56.48l54.54 12.88c-25.52,139.77 -210.46,146.62 -259.25,23.2 -17.21,-43.56 10.5,-83.99 46.76,-79.29z"/>
   <path class="fil1" d="M2042.46 18263.97c-26.87,-77.51 64.29,-46.4 99.82,-36.99 29.64,7.86 139.93,28.8 152.72,51.12 10.45,18.24 1.13,46.6 -20.48,51.85 -16.34,3.97 -211.64,-41.29 -232.06,-65.98z"/>
   <path class="fil1" d="M4876.2 17178.26l-31.72 0.62 0.69 113.27 30.96 -1.19 0.07 -112.7zm-7.06 -51.11c-23.24,-11.9 -38.12,18.99 -21.68,31.6 23.43,17.96 48.6,-17.81 21.68,-31.6zm404.93 165.95c92.11,4.3 167.58,-70.68 96.2,-161.72 -21.81,-27.82 -57.55,-50.12 -84.8,-75.4 -51.54,-47.8 -27.41,-77.77 -46.18,-110.25 -286.3,160.85 -117.68,414.98 -26.59,341.92l-19.89 6.48 -49.49 -151.85c29.67,1.41 64.52,36.72 88.98,54.36l23.39 -19.42 -48.05 -108.89c37.45,15.87 71.01,58.16 89.44,96 46.15,94.78 -8.29,89.87 -23.01,128.77zm43.4 -467.11c218.14,23.66 333.67,106.79 332.15,332.03 -1.31,192.68 31.98,176.04 -160.82,176.49 -111.78,0.26 -223.59,0.01 -335.38,0.01 -48.29,0 -296.47,10.42 -319.17,-12.49 -24.31,-24.55 -13.9,-271.21 1.92,-310.98 66.24,-166.57 327.3,-201.77 481.3,-185.06z"/>
   <path class="fil1" d="M5736.23 17431.27l-1001.13 -0.09c-68.96,-103.47 148.07,-71.38 203.09,-71.37l590.65 -0.01c49.82,0 277.75,-29.8 207.39,71.47z"/>
   <path class="fil1" d="M5001.15 17566.6l-220.57 4.26c-13.09,-22.89 -13.89,-90.9 -0.02,-105.32 17.13,-17.82 79.77,-7.99 107.57,-7.97 25.18,0.01 93.25,-6.83 109.95,5.56 17.17,12.73 17.09,83.81 3.07,103.47z"/>
   <path class="fil1" d="M5691.32 17565.64l-220.49 5.35c-13.99,-21.8 -13.72,-91.88 -0.02,-105.69 17.25,-17.39 79.93,-7.74 108.08,-7.73 29.05,0.01 89.64,-9.41 109.69,5.94 16.66,12.75 16.31,84.28 2.74,102.13z"/>
   <path class="fil1" d="M5260 17564.79l-220.26 6.37c-13.95,-21.31 -14.09,-91.46 0.46,-105.8 17.92,-17.66 80.05,-7.8 108.22,-7.79 28.97,0 89.63,-9.31 109.21,6.25 16.13,12.83 15.61,83.8 2.37,100.97z"/>
   <path class="fil1" d="M5378.12 17703.08c-17.49,11.69 -185.29,11.54 -204.48,0.3 -9.66,-16.03 -13.46,-81.19 0.57,-93.83 8.44,-7.62 189.07,-7.82 199.61,-0.78 14.38,9.61 10.31,78.94 4.3,94.31z"/>
   <path class="fil1" d="M5139.58 17705.23c-21.75,7.8 -181.81,8.52 -202.02,-1.08 -9.76,-17.23 -13.31,-82.59 0.87,-94.86 6.69,-5.78 190.05,-10.57 202.2,2.04 11.54,11.98 7.8,79.75 -1.05,93.9z"/>
   <path class="fil1" d="M5433.58 17568.03c-17.01,6.44 -121.66,6.79 -138.19,-0.9 -8.82,-20.72 -8.27,-85.63 0.28,-106.81 15.35,-3.41 113.89,-5.82 128.08,-2.33 31.17,7.66 13.14,104.81 9.83,110.04z"/>
   <path class="fil1" d="M5694.58 17703.67c-18.96,10.37 -107.66,9.3 -127.55,1.7 -7.55,-16.04 -8.56,-62.45 -4.9,-82.34 5.21,-28.33 37.82,-18.19 66.82,-18.17 20.42,0.02 62.6,-9.65 68.65,14.59 3.93,15.75 2.17,69.62 -3.02,84.22z"/>
   <path class="fil1" d="M4904.53 17704.77c-19.04,8.6 -110.56,8.44 -127.09,-1.02 -6.13,-15.84 -6.71,-62.35 -4,-80.36 4.29,-28.5 36.96,-18.59 64.61,-18.53 21.52,0.05 63.53,-9.29 70.58,14.03 5.38,17.82 3.13,71.6 -4.1,85.88z"/>
   <path class="fil1" d="M5535.09 17704.68c-19.13,8.83 -110.01,8.41 -127.31,-0.52 -5.24,-15.3 -6.26,-63.77 -3.74,-80.79 4.22,-28.54 36.98,-18.54 64.72,-18.48 21.54,0.05 63.53,-9.39 70.36,13.99 5.23,17.85 3.17,71.61 -4.03,85.8z"/>
   <path class="fil1" d="M1852.2 18027.8c44.36,26.49 18.31,96.66 -54.25,67.4 -45.54,-18.37 -18.01,-110.55 54.25,-67.4z"/>
   <path class="fil1" d="M1579.99 18532.02c7.49,-35.44 14.66,-46.96 5.43,-57.47 -14.24,-16.23 -8.66,0.49 -9.09,-16.07 31.9,-24.1 76.59,-5.9 75.4,34.18 -1.18,39.72 -40.44,59.81 -71.74,39.36z"/>
   <path class="fil1" d="M2186.85 18637.62l88.2 20.61c-15.88,76.72 -110.19,48.68 -88.2,-20.61z"/>
   <polygon class="fil1" points="1474.61,18453.94 1490.53,18422.51 1505.53,18429.13 1503.37,18453.74 "/>
   <path class="fil1" d="M3704.2 22847.04c35.85,57.25 10.35,48.99 7.91,142.6 -1.24,47.16 6.79,101.44 23.65,143.74 23.82,59.76 95.71,133.57 147.83,167.98 312.88,206.63 715.88,-186.96 505.38,-505.75 -163.16,-247.12 -352.02,-123.12 -427.36,-178.92 44.49,-75.04 208.75,-38.09 280.19,-8.34 265.88,110.73 347.42,458.76 119.16,683.89 -197.48,194.77 -563.5,140.64 -676.32,-164.17 -17.96,-48.52 -25.89,-101.61 -23.79,-158.87 4.44,-120.28 34.27,-113.11 43.35,-122.16z"/>
   <path class="fil1" d="M3155.24 22615.17c-4.37,-3.89 -10.73,-15.8 -13.27,-11.49l-56.36 -30.02c-22.61,-7.93 -49.82,-15.22 -82.08,-17.07 -28.76,-1.65 -62.47,1.44 -88.02,8.49 -54.76,15.11 -62.21,32.71 -78.82,50.09 22.2,54.08 36.2,74.58 147.74,82.74 128.43,9.4 129.18,5.13 170.81,-82.74zm28.04 19.62c-99.03,191.21 -343.21,52.23 -362.83,46.45 -58.54,-17.25 -160.12,7.66 -224.7,15.36 -178.13,21.23 -180.28,50.23 -232.15,-2.81l425.28 -63.18c50.76,-63.79 77.89,-96.18 195.95,-98.33 105.87,-1.93 166.8,28.15 198.45,102.51z"/>
   <path class="fil1" d="M3256.56 24385.33c-174.19,-119.31 -207,-57.42 -298.49,-16.56 -0.42,0.19 -183.46,41.1 -54.42,172.22 62.76,63.78 46.67,-6.27 71.92,104.47 -86.51,-48.25 -158.55,-116.19 -144.81,-253.71 79.96,-61.71 283.71,-162.8 393.31,-74.1 63.59,51.44 23.19,-4.84 32.49,67.68z"/>
   <path class="fil1" d="M2508.9 22204.5c-43.55,44.78 -45.51,44.62 -108.45,20.75l49.59 -88.76c53.37,35.01 37.53,1.54 58.86,68.01z"/>
   <path class="fil1" d="M3211.65 22465.38c-139.56,2.29 -42.78,2.67 -79.24,-26.81 29.41,-61.71 -43.78,-34.21 71.5,-36.9l7.74 63.71z"/>
   <path class="fil1" d="M3205.25 22561.28c-41.77,-16.71 -15.55,16.14 -65.33,-50.86 74.03,4.05 24.6,2.36 65.33,50.86z"/>
   <path class="fil1" d="M5631.25 22745.05c42.23,-82.48 8.3,-146.79 -94.3,-95.01 -43.22,85.28 9.14,114.2 94.3,95.01zm-362.25 -260.59c44,46.33 -38.8,67.58 49.85,33.01 27.76,-40.61 63.58,-74.31 53.05,-152.61l41.83 -20.93c26.49,39.71 5.48,23.93 19.4,72.26 40.61,141.07 223.58,72.2 291.39,264.23 72.84,206.31 -111.7,364.38 -305.3,327.75 -208.16,-92.4 -56.12,-467.85 -54.55,-474.22 -164.8,153.25 -116.49,272.47 -50.03,444.24 -195.3,-88.46 -179.52,-267.54 -65.43,-429.77 -97.5,49.64 -136.5,109.48 -130.24,221.66 2.59,46.47 13.97,85.26 36.55,124.21l64.44 84.98c1.95,-3.56 7.44,9.51 10.97,14.41 -141.64,-30.16 -238.27,-114.6 -209.86,-283.01 26.12,-154.96 175.31,-185.55 247.93,-226.21z"/>
   <path class="fil1" d="M3412.07 24366.89c-52.43,2.89 -456.41,361.46 -474.34,436.78 94.47,11.8 237.03,-196.3 374.05,-316.51 65.58,-57.53 68.19,-41.43 100.29,-120.27zm150.98 -21.73c-33.45,207.18 52.98,110.18 -259.46,389.1l-158.28 157.08c-122.87,130.92 -216.08,29.3 -227.52,81.12 -1.54,7 -8.82,8.18 -10.88,10.83l-49.56 71.87c-33.84,30.78 -64.67,18.97 -100.61,6.4 -17.79,-110.13 51.01,-115.23 124.52,-141.52 -6.07,-154.59 -16.74,-153.65 75.82,-237.26 51.65,-46.66 104.89,-94.15 166.4,-148.06 317.73,-278.45 132.93,-223.18 390.91,-235.15 43.47,-69.43 33.32,-139.19 153.16,-109.01 41.37,120.17 -38.2,116.22 -104.5,154.6z"/>
   <path class="fil1" d="M4184.78 23216.42l102.15 -5.97c30.87,-150.25 -119,-141.34 -102.15,5.97zm-163.34 -150.83c-170.48,2.81 -178.62,166.84 -23.44,173.97 -40.32,-93.41 -4.28,35.67 -32.82,-49.57 125.6,2.99 78.73,5.82 110.88,-23.9 -23.26,-61.15 4.99,-42.65 -97.07,-43.96 23.56,-67.44 18.96,48.72 42.45,-56.54zm125.36 11.07l10.9 -80.1c-75.48,-2.73 -34.42,-19.77 -74.79,33.36 24.39,55.77 11.89,53.04 63.89,46.74zm-256.21 -17.81c58.01,-83.51 -14.01,-144.93 -75.11,-112.39 -71.61,38.13 -33.7,142.98 75.11,112.39zm424.64 -31.65c23.48,31.92 -17.98,10.94 32.95,14.74 36.58,-72.39 17.18,-88.99 -35.71,-126.37l-50.89 43.8c-32.55,38.61 -53.4,37.03 -31.44,68.12 36.04,51.01 19.13,33.43 82.33,-14.56l2.76 14.27zm-236.33 -194.67c-8.02,182.43 203.56,92.69 93.14,-30.78 -61.91,-2.72 -54.99,0.4 -93.14,30.78zm244.76 45.76c-4.79,-4.35 -12.48,-9.01 -15.15,-12.12 -48.23,-56.26 -1.38,-37 3.18,-60 1.56,-7.86 10.12,-6.63 14.73,-10.53 -66.2,15.25 -47.32,-2.81 -77.9,56.51 30.84,20.1 -6.24,20.67 75.14,26.14zm-465.1 13.03c39.28,39.97 147.1,73.59 208.23,91.96l-51.25 -309.22 66.87 -1.75c-21.64,26.81 -31.3,22.26 -15.38,75.4 7.57,4.94 -22.11,26.12 45.47,16.75 39.67,-5.49 30.31,-26.33 32.77,-30.04 -27.11,-62.76 2.46,-9.57 -38.41,-28.15 0,-39.94 -9.32,-27.64 32.9,-32.38 299.17,60.25 351.65,458.84 113.8,590.5 -294.44,162.99 -559.42,-77.52 -482.11,-385.51l87.11 12.44z"/>
   <path class="fil1" d="M6741.9 22959.69c211.11,72.63 369.02,-367.11 97.22,-570.52 -302.74,-226.57 -722.88,249.69 -347.32,199.19 -41.26,-62.82 -92.9,-53.11 -98.12,-67.49 -2.28,-6.29 -10.08,-3.03 -13.94,-6.37 68.56,-38.78 122.3,-29.37 177.75,-3.51 23.91,170.25 -252.34,218.88 -244.31,331.41 20.75,47.74 111.91,138.66 165.61,166.34 150.83,-48.83 171.72,-255.46 313.94,-266.67 63.89,58.1 73.61,118.65 19.63,183.45 -26.62,-74.54 13.14,-67.93 -59.91,-109.6 -39.22,64.61 -39.32,62.28 -10.55,143.77zm-349.17 -296.35c-59.33,-54.94 -119.76,-47.03 -98.69,-159.89 32.08,-171.88 357.85,-314.39 586.75,-155.53 116.7,80.99 181.3,250.4 150.82,409.04 -29.68,154.39 -118.47,289.04 -304.86,266.44l-62.83 -81.24c-1.1,-5.52 -5.53,-6.35 -8.53,-9.29 -187.35,213.53 -215.74,124.01 -311.68,31.08 -158.31,-153.33 -92.69,-160.4 49.02,-300.61z"/>
   <path class="fil1" d="M3096.63 22506.02l-125.54 -19.36 -91.03 -155.43c-22,99.97 6.93,57.77 -52.82,90.81 14.32,-73.66 41.25,-83.91 42.96,-160.06l-86.07 -69.18c9.44,101.37 4.16,125.59 -32.27,184.69 -87.3,-33.83 20.43,47.65 -47.03,-36.24l-18.19 -30.62c-26.08,145.54 -111.33,112.48 -21.11,277.91l-184.1 1.34c-112.38,-502.62 356.83,-580.51 545.33,-389.71 72.88,73.76 77.53,174.47 69.87,305.85z"/>
   <path class="fil1" d="M3849.59 22840.3c3.5,0.97 26.03,8.48 70.27,-9.68l-19.44 -113.28c-83.81,19.65 -100.26,55.95 -50.83,122.96zm8.97 51.02c-37.83,-41.3 -54.56,-40.11 -127.27,-54.4 31.94,-106.46 109.01,-179.16 209.25,-202.12l90.38 299.7 -172.36 -43.18z"/>
   <path class="fil1" d="M3668.73 22805.22c-64.38,-99.32 159.16,-240.97 250.06,-252.49 -18.74,78.85 26.51,19.37 -53.1,69.44 -191.69,120.55 -102.24,148.73 -196.96,183.05z"/>
   <path class="fil1" d="M2807.29 22477.81l66.52 11.77c-38.37,54.91 -93.4,109.4 -161.98,88.66 -6.81,-14.24 -47.35,15.63 2.37,-77.15l48.95 29.3c1.53,-96.2 -57.01,-65.58 7.96,-145.57 34.6,47.69 6.37,40.5 36.18,92.99z"/>
   <path class="fil1" d="M2840.35 22077.87l-99.31 -3.71c-0.12,-0.88 -7.1,-68.46 -7.01,-70.58 3.38,-80.46 2.69,-35.44 15.51,-64.07l105.21 -1.83 -14.4 140.19z"/>
   <path class="fil1" d="M4033.21 21739.78c-22.62,-106.17 -109.53,-451.67 178.63,-343.46 -8.67,16.09 20.84,3.8 -17.03,49.53 -104.22,125.86 -43.21,357.06 -8.06,502.66 -130.71,-23.66 -122.72,-64.02 -153.54,-208.73z"/>
   <path class="fil1" d="M4524.44 21897.97c80.99,-91.79 153.73,-316.55 58.85,-434.82 -19.22,-23.97 -176.87,-132.59 68.56,-101.37 76.81,148.05 75.37,156.19 44.53,333.89 -21.14,121.83 -37.11,215.6 -159.28,239.09l-12.66 -36.79z"/>
   <path class="fil1" d="M4200.67 21295.72c76.4,-14.14 64.37,19.62 73.67,49.98 -57.44,33.2 -78.85,22.9 -155.86,28.85 16.95,-34.66 19.41,-67.2 82.19,-78.83z"/>
   <path class="fil1" d="M4449.11 21367.2l-22.84 -77.66c80.64,-17.34 62.3,-22.26 126.9,8.71 1.76,28.49 15.57,26.37 -22.64,50.65 -35.37,22.47 -31.64,14.87 -81.42,18.3z"/>
   <path class="fil1" d="M2986.78 22025.21l-26.54 79.19c-57.8,-8.28 -50.3,1.12 -83.52,-38.64l10.24 -65.43 99.82 24.88z"/>
   <polygon class="fil1" points="2711.45,22081.46 2624.78,22102.8 2596.89,22028.76 2684.66,21995.69 "/>
   <path class="fil1" d="M2583.76 22136.22c-58.57,39.55 -21.89,27.29 -99.06,-1.48 26.24,-73.55 4.72,-50.47 83.09,-86.59l15.97 88.07z"/>
   <path class="fil1" d="M3092.33 22102.25c-33.78,55.2 -22.21,42.8 -78.54,69.81 -33.6,-74.72 -41.5,-50.86 10.45,-115.22l68.09 45.41z"/>
   <path class="fil1" d="M2365.92 22361.74l11.31 -98.14c127.98,17.31 111.09,86.19 -11.31,98.14z"/>
   <path class="fil1" d="M3168.99 22230.87c-57.02,19.56 -71.98,40.36 -93.79,-14.21 -14.15,-35.42 32.06,-57.46 47.15,-69.2 38.65,36.64 39.74,38.17 46.64,83.41z"/>
   <path class="fil1" d="M3206.33 22366.88l-82.05 -20.04c-6.76,-98.58 -43.08,-57.05 56.93,-79.12l25.12 99.16z"/>
   <path class="fil1" d="M2444.98 22556.3c-21.26,33.23 42.61,43.37 -75.8,27.65 -2.12,-41.02 -16.95,-52.45 17.31,-68.33 94.98,-44.04 49.68,29.87 58.49,40.68z"/>
   <path class="fil1" d="M5415.99 22305.45l-88.44 35.58 -6.75 -101.06c101.99,35.83 -5.98,29.67 91.41,24.51l3.78 40.97z"/>
   <path class="fil1" d="M2444.98 22438.57c-31.38,53.33 41.87,30.27 -68.26,34.14 -3.66,-10.05 -25.95,-37.26 -1.45,-63.72 65.23,-70.43 67.74,27.3 69.71,29.58z"/>
   <path class="fil1" d="M419.14 24920.21c-21.28,11.61 -19.08,9.14 -41.68,-1l-11.23 35.02 -31.85 -10.13c5.47,-26.76 12.3,-35.3 8.91,-63.12 31.43,27.4 24.28,35.64 75.85,39.23z"/>
   <path class="fil1" d="M387.3 24887.54c-24.42,-19.59 -33.86,-56.5 -3.67,-73.54 0.44,16.56 -5.14,-0.16 9.1,16.07 9.22,10.51 2.06,22.04 -5.43,57.47z"/>
   <path class="fil1" d="M309.38 24937.22c-16.18,-16.56 -24.78,-33.29 -26.75,-55.5 9.62,13.6 8.01,-9.67 8.64,14.12l23.26 -4.78 12.68 25.38c-17.62,15.85 -8.08,-0.38 -17.83,20.78z"/>
   <path class="fil1" d="M1640.64 23412.2c-291.21,94.52 -286.37,339.37 14.9,239.87 289.6,-95.63 292.4,-339.6 -14.9,-239.87zm-457.55 386.73c15.95,-51.1 288.76,-485.08 315.79,-492.66 49.93,-13.99 598.44,-45.34 606.66,-35.02 7.49,9.41 -272.99,480.51 -312.06,489.53 -32.34,7.46 -598.21,41.5 -610.39,38.15z"/>
   <path class="fil1" d="M740.44 24495.37c-104.36,145.47 -303.49,304.17 27.32,387.15l62.5 -215.31 11.6 3.5c128.95,-46.86 471.66,161.49 356.67,340.92l-263.07 -65.46 -40.34 34.95c-103.28,-26.19 -257.81,-51.36 -322.5,-135.05 -97,-125.46 -101.9,-123.6 -263.81,-163.39 39.42,-112.31 142.3,-77.02 229.5,-51.29 26.39,-42.42 118.65,-152.72 155.12,-192.51 37.74,-41.16 254.19,72.09 47.01,56.49z"/>
   <path class="fil1" d="M1584.21 24523.33c81.21,58.78 14.02,269.48 -35.38,306.2 -55.69,41.4 -292.41,-21.19 -351.08,-58.15 -88.45,-55.72 -16.98,-272.58 30.61,-308.58 54.28,-41.08 301.81,21.42 355.85,60.53z"/>
   <path class="fil1" d="M1862.42 23874.98l-615.27 41.25c-87.22,-113.75 -38.23,-97.79 59.38,-102.73 64.8,-3.29 130.18,-7.49 194.99,-11.36 63.55,-3.8 127.12,-7.64 190.63,-11.18 131.56,-7.33 107.03,-35.47 170.27,84.02z"/>
   <path class="fil1" d="M2173.88 23382.28l-286.59 484.25c-73.51,-93.76 -53.71,-96.06 -2.83,-177.42l187.79 -300.86c49.69,-80.56 53,-127.21 101.63,-5.97z"/>
   <path class="fil1" d="M309.38 24937.22c9.75,-21.16 0.21,-4.93 17.83,-20.78l-12.68 -25.37 -23.26 4.77c-0.63,-23.79 0.98,-0.52 -8.64,-14.12l-2.05 -24.69c-8.47,-16.57 -3,-25.34 1.33,-47.56l28.77 -0.21 2.15 -24.61 -14.99 -6.62c11.17,-18.47 11.34,-22.48 29.28,-30.21 36,-69.24 227.44,57.85 218.11,127.37 -14.37,107.03 -156.28,146.27 -235.85,62.03zm30.89 -92.1l3.03 35.86c3.38,27.82 -3.45,36.36 -8.92,63.12l31.85 10.13 11.23 -35.03c22.6,10.16 20.4,12.62 41.68,1.01 132.63,-8.4 36.12,-224.35 -61.3,-119.67l-17.57 44.58z"/>
   <path class="fil1" d="M955.72 24980.8c19.32,17.37 0.32,26.11 12.56,58.35 7.02,18.49 22.91,34.46 42.89,41.34 67.06,23.08 76.01,-26.96 102.5,-56.49l54.54 12.88c-25.51,139.78 -210.46,146.62 -259.24,23.21 -17.22,-43.56 10.49,-83.99 46.75,-79.29z"/>
   <path class="fil1" d="M849.77 24619.49c-26.88,-77.5 64.28,-46.4 99.81,-36.99 29.64,7.86 139.94,28.8 152.73,51.13 10.45,18.23 1.12,46.6 -20.49,51.85 -16.34,3.97 -211.64,-41.29 -232.05,-65.99z"/>
   <path class="fil1" d="M7112.74 24205.76l-31.72 0.63 0.69 113.27 30.95 -1.2 0.08 -112.7zm-7.07 -51.1c-23.24,-11.91 -38.11,18.99 -21.67,31.6 23.43,17.96 48.6,-17.81 21.67,-31.6zm404.94 165.95c92.11,4.3 167.58,-70.68 96.2,-161.72 -21.81,-27.83 -57.55,-50.12 -84.8,-75.4 -51.55,-47.8 -27.42,-77.77 -46.18,-110.25 -286.3,160.84 -117.68,414.98 -26.59,341.92l-19.9 6.48 -49.48 -151.85c29.67,1.41 64.51,36.72 88.98,54.36l23.39 -19.42 -48.06 -108.9c37.46,15.87 71.02,58.16 89.45,96.01 46.15,94.78 -8.29,89.86 -23.01,128.77zm43.39 -467.12c218.15,23.67 333.68,106.8 332.15,332.03 -1.3,192.68 31.99,176.04 -160.81,176.5 -111.78,0.26 -223.59,0.01 -335.38,0.01 -48.3,0 -296.47,10.42 -319.17,-12.49 -24.32,-24.55 -13.9,-271.22 1.91,-310.98 66.25,-166.57 327.3,-201.77 481.3,-185.07z"/>
   <path class="fil1" d="M7972.77 24458.77l-1001.13 -0.09c-68.96,-103.47 148.07,-71.38 203.08,-71.37l590.66 0c49.81,0 277.75,-29.8 207.39,71.46z"/>
   <path class="fil1" d="M7237.69 24594.11l-220.58 4.26c-13.08,-22.89 -13.89,-90.9 -0.01,-105.32 17.13,-17.83 79.76,-7.99 107.57,-7.98 25.18,0.01 93.24,-6.82 109.95,5.57 17.17,12.73 17.08,83.8 3.07,103.47z"/>
   <path class="fil1" d="M7927.85 24593.15l-220.48 5.35c-14,-21.81 -13.72,-91.88 -0.02,-105.69 17.25,-17.4 79.93,-7.75 108.08,-7.74 29.05,0.01 89.64,-9.4 109.69,5.95 16.66,12.75 16.3,84.28 2.73,102.13z"/>
   <path class="fil1" d="M7496.54 24592.3l-220.27 6.37c-13.95,-21.31 -14.08,-91.47 0.47,-105.8 17.92,-17.67 80.04,-7.81 108.21,-7.8 28.98,0.01 89.63,-9.3 109.21,6.26 16.14,12.83 15.62,83.8 2.38,100.97z"/>
   <path class="fil1" d="M7614.66 24730.58c-17.49,11.7 -185.3,11.55 -204.48,0.3 -9.66,-16.02 -13.47,-81.18 0.57,-93.83 8.44,-7.61 189.07,-7.81 199.6,-0.77 14.39,9.61 10.32,78.94 4.31,94.3z"/>
   <path class="fil1" d="M7376.12 24732.74c-21.75,7.8 -181.82,8.51 -202.03,-1.09 -9.75,-17.22 -13.3,-82.58 0.88,-94.85 6.69,-5.78 190.05,-10.57 202.2,2.04 11.54,11.97 7.8,79.75 -1.05,93.9z"/>
   <path class="fil1" d="M7670.12 24595.54c-17.01,6.44 -121.66,6.79 -138.19,-0.9 -8.82,-20.73 -8.27,-85.64 0.28,-106.82 15.34,-3.4 113.89,-5.82 128.08,-2.33 31.16,7.67 13.14,104.82 9.83,110.05z"/>
   <path class="fil1" d="M7931.12 24731.18c-18.96,10.37 -107.67,9.3 -127.55,1.7 -7.55,-16.04 -8.56,-62.45 -4.9,-82.34 5.2,-28.34 37.82,-18.19 66.81,-18.17 20.43,0.02 62.61,-9.65 68.66,14.59 3.93,15.75 2.17,69.62 -3.02,84.22z"/>
   <path class="fil1" d="M7141.07 24732.27c-19.04,8.61 -110.56,8.45 -127.09,-1.01 -6.13,-15.85 -6.71,-62.35 -4,-80.36 4.29,-28.5 36.96,-18.59 64.61,-18.53 21.51,0.04 63.53,-9.29 70.57,14.03 5.39,17.82 3.14,71.6 -4.09,85.87z"/>
   <path class="fil1" d="M7771.63 24732.19c-19.14,8.83 -110.02,8.41 -127.31,-0.52 -5.24,-15.3 -6.26,-63.77 -3.74,-80.79 4.22,-28.55 36.98,-18.54 64.72,-18.48 21.53,0.05 63.52,-9.39 70.36,13.98 5.23,17.86 3.17,71.62 -4.03,85.81z"/>
   <path class="fil1" d="M659.51 24383.33c44.36,26.49 18.3,96.66 -54.26,67.39 -45.53,-18.36 -18,-110.55 54.26,-67.39z"/>
   <path class="fil1" d="M387.3 24887.54c7.49,-35.43 14.65,-46.96 5.43,-57.47 -14.24,-16.23 -8.66,0.49 -9.1,-16.07 31.9,-24.09 76.59,-5.9 75.4,34.18 -1.17,39.72 -40.43,59.82 -71.73,39.36z"/>
   <path class="fil1" d="M994.15 24993.14l88.2 20.62c-15.87,76.72 -110.18,48.67 -88.2,-20.62z"/>
   <polygon class="fil1" points="281.91,24809.47 297.84,24778.04 312.83,24784.65 310.68,24809.26 "/>
   <path class="fil1" d="M3164.15 24908.78c15.78,-8.82 -4.34,-13.05 33.99,-11.77 9.83,0.32 49.21,10.92 63.85,13.03 67.01,9.63 82.12,6.54 147.62,-11.44 210.38,-57.77 185.77,-105.29 189.57,-194.08 -56.43,-39.11 -77.67,-55.78 -81.81,-92.51 -10.22,-90.66 12.27,-46.64 19.52,-57.43 50.76,125.96 181.38,217.28 28.95,323.47 -102.08,71.11 -292.73,101.01 -401.69,30.73z"/>
   <path class="fil1" d="M4714.79 24580.53c1.28,10.2 51.76,32.53 6.35,77.48 -44.58,44.13 -68.19,-2.06 -70.25,-3.07l-14.48 -62.05 78.38 -12.36z"/>
   <path class="fil1" d="M4445.69 24788.96l-0.17 179.96 427.04 6.97c212.53,0.44 25.89,-28.4 163.9,-70.08 86.62,-26.16 101.62,46.32 150.05,70.02l12.31 -432.89c-142.71,3.87 -70.25,16.8 -144.03,60.27 -111.15,65.5 -97.43,-17.03 -158.87,-48.46 -54.48,-27.87 -359.69,-13.46 -444.09,-8.13 24.37,69.58 61.21,-9.16 76.22,105.86 12.79,98.01 -35.88,90.58 -82.36,136.48zm517.04 -277.45l-3.56 43.77c24.37,10.25 -26.27,36.26 50.59,15.62 60.21,-16.16 34.62,-66.11 15.54,-75.06 -76,-35.66 -61.71,15.14 -62.57,15.67zm-465.69 159.72c-65.07,-155.78 -246.21,-40.9 162.46,-311.16 85.72,-56.69 182.07,-129.13 271.93,-166.3 369.22,166.18 308,436.92 305.13,802.58 -162.67,45.58 -83.98,-9.9 -167.78,-60.28 -102.37,33.38 -19.58,42.54 -117.74,73.28 -128.42,-0.16 -434.88,22.03 -538.45,-15.3 -0.8,-386.1 -5.45,-151.41 84.45,-322.82z"/>
   <path class="fil1" d="M4518.09 24929.74c-13.4,-48.26 -22.44,-48.4 0.49,-101.53 86.6,-52.48 138.55,-2.73 107.6,87.68 -55.46,38.74 -42.09,25.66 -108.09,13.85z"/>
   <path class="fil1" d="M4775.82 24841.76c-0.92,-13.02 -66.89,-59.35 -11.23,-120.91 45.45,-50.25 91.42,-23.1 130.03,9.25 15.82,98.38 -21.87,129.73 -118.8,111.66z"/>
   <path class="fil1" d="M5114.02 24736.76c113.41,138.93 -148.8,174.83 -65.49,2.24l65.49 -2.24z"/>
   <path class="fil1" d="M9698.75 22983.69c13.1,-35.77 -1.88,-46.14 46.05,-52.83 64.14,-8.94 52.65,30.82 62.46,60.16 -64.46,17.37 -44.22,28.97 -108.51,-7.33zm-53.46 -71.64c-0.27,-0.31 -43.63,-1.87 -46.08,-124.52 -1.24,-62 15.85,-103.23 32.86,-140 40.18,40.56 20.96,-20.91 28.92,42.31 8.53,67.82 -41.36,21.91 -15.7,222.21zm-195.13 -528.96c103.02,-13.06 178.38,-9.06 273.29,-43.08 51.55,-18.47 185.11,-82.82 108.91,-136.32 -99.84,-70.1 -367.91,113.8 -426.11,157.69l-160.56 -11.54c57.63,48.59 30.55,21.24 126.15,43.38 168.45,39.01 213.41,140.18 272.59,198.04 -31.8,63.15 -98.93,88.67 -65.45,259.84 65.09,332.78 413.82,167.85 238,-160.86 -59.22,-110.73 -79.61,-53.99 -144.66,-107.07 -45.46,-37.1 -22.81,-69.13 -101.07,-122.21 186.93,25.84 293.59,132.58 527.89,111.12l-67.04 -57.61c-279.66,-201.9 -433.72,-43.34 -581.94,-131.38z"/>
   <path class="fil1" d="M8075.22 23537.95l71.08 -46.4c115.19,-70.62 101.21,-140.67 122.15,-265.12l-436.81 -8.87 -43.96 131.9c-3.59,-4.94 -5.48,-12.3 -7.22,-16.83 -1.72,-4.51 -4.85,-11.28 -6.89,-16.86 -2.05,-5.58 -4.06,-10.97 -6.21,-17.11l-16.03 -51.8c-1.4,-4.37 -4.65,-7.68 -5.66,-16.71 -1.01,-9.01 -2.56,-11.71 -5.75,-16.65 -51.44,78.53 -26.22,185.39 65.02,258.44 84.62,67.75 152.4,60.97 270.28,66.01z"/>
   <path class="fil1" d="M8268.45 23226.43c24.68,13.6 14.84,-5.4 27.31,36.87 8.86,30.02 9.17,46.56 5.51,77.44 -11.78,99.39 -106.01,191.18 -226.05,197.21 -4.49,2.54 11.99,6.49 -43.48,16.74 -242.55,44.82 -469.86,-192.58 -312.02,-372.15 50.22,-57.15 100.01,-81.02 184.18,-104.15l11.19 -35.24c1.1,-4.47 3.19,-12.08 4.47,-17.47l16.58 -75.4 98.1 -2.34c21.45,47.23 3.68,16.98 14.41,60.12l8.26 33.6c1.45,5.24 4.1,12.49 5.35,16.77 17.61,60.03 132.91,4.72 206.19,168zm-149.88 -180.4c123.62,-114.37 213.73,-33.11 188.01,138.4 -35.38,-28.32 -43.11,-46.11 -81.7,-74.56 -48.74,-35.94 -61.13,-24.11 -106.31,-63.84zm-83.73 -129.61c-172.75,31.53 -150.27,-34.74 -157.53,-55.48 4.34,-1.77 171.53,-48.52 216.55,28.12 -31.26,24.43 34.05,10.38 -59.02,27.36zm43.4 82.09c29.89,-102.25 34.67,-32.8 48.9,-129.08 -40.46,-60.96 -27.1,-16.95 -52.35,-64.22 -20.79,-38.94 1.87,-17.98 -20.92,-63.46l-137.35 -1.27c-39.29,54.23 0.6,15.73 -32.38,75.8 -100.66,183.34 2.93,22.5 4.81,223.74 -510.75,236.43 -163.52,604.78 176.08,544.3 214.34,-38.17 246.92,-131.66 272.78,-333.71 33.45,-261.45 1.14,-356.6 -259.57,-252.1z"/>
   <path class="fil1" d="M9279.31 22826.72c54.42,-58.1 94.19,-31 104.88,35.22 -114.56,13.44 -53.26,-3.84 -104.88,-35.22zm-11.83 -111.76c13.41,-124.33 52.14,-203.4 173.55,-198.07l-173.55 198.07zm261.17 -25.59c71.98,-276.88 -220.98,-303.44 -292.64,-13.69 -73.56,297.48 220.64,290.65 292.64,13.69z"/>
   <path class="fil1" d="M8543.06 22771.7l74.23 -4.55c4.07,12.84 0.24,-0.8 0.91,10.89l1.12 12.43c28.78,-5.08 1.2,5.15 16.51,-22.28 22.21,-2.35 32.85,-3.56 44.95,3.52 25.9,15.16 -4.83,-5.87 31.38,-0.85l18.91 -0.36c61.66,5.56 48.01,-0.02 61.25,0.88 0.88,0.06 17.68,3.77 20.03,4.18 -11.94,-20.6 -7.17,-18.02 -57.57,-17.59 -58.11,0.51 -186.45,-10.4 -211.72,13.73z"/>
   <path class="fil1" d="M8728.32 24458.61c54.06,-27.77 80.63,48.7 40.9,70.4 -52.11,28.47 -89.43,-45.47 -40.9,-70.4zm-385.64 47.2c10.04,9.09 17.17,7.17 35.3,11.44 8.67,-22.33 25.63,-39.03 51.24,-49.9 -18.35,-16.43 -10.2,-0.63 -30.63,-16.41 -17.07,-13.18 -4.51,-14.86 -25.24,-13.79 -13.33,10.44 -30.18,51.86 -30.67,68.66zm590.44 -187.25c100.35,-32.5 144.46,125.78 44.59,154.43 -99.92,28.66 -153.76,-119.07 -44.59,-154.43zm-539.1 83.42c12.21,10.15 25.89,23.86 39.34,37.21 30.27,30.09 24.21,3.21 54.55,21.04l100.11 96.86 731.25 105.84 -10.19 89.57c-35.93,8.45 -436.76,-43.93 -506.17,-51.57 -104.65,-11.52 -409.15,-2.33 -432.71,-123.85 -11.44,-14.25 -6.89,-19.17 -41.29,-24.46l7.91 45.54c15.85,135.91 350.81,130.15 459.37,142.15 138.98,15.36 449.85,62.11 560.91,52.65l-20.69 -242.78c-86.72,7.39 -120.51,66.71 -163.24,-0.71 -47.02,-74.17 37.32,-95.79 48.38,-123.53 -5.16,-28.02 -62.84,-82.21 -85.05,-104.09 -75.27,-74.16 -35.92,-39.05 -30.26,-133.71 9.53,-159.63 -140.66,-132.83 -242.97,-105.69 -167.05,44.32 -384.66,162.67 -469.25,319.53zm-20.67 35.17c20.73,-1.07 8.17,0.61 25.24,13.79 20.43,15.78 12.28,-0.02 30.63,16.41l58.69 -7.12c-30.34,-17.83 -24.28,9.05 -54.55,-21.04 -13.45,-13.35 -27.13,-27.06 -39.34,-37.21l-20.67 35.17zm-36.53 161.01l-7.91 -45.54c34.4,5.29 29.85,10.21 41.29,24.46l7.78 -59.83c-18.13,-4.27 -25.26,-2.35 -35.3,-11.44 -17.77,16.86 -28.23,73.96 -5.86,92.35z"/>
   <path class="fil1" d="M6088.78 24136.18c49.54,-30.18 90.9,43.66 44.29,74.07 -46.4,30.27 -102.12,-38.86 -44.29,-74.07zm137.3 -143.94c83.68,-42.86 138.79,85.15 57.01,120.49 -78.71,34.01 -135.72,-80.17 -57.01,-120.49zm-365.91 -22.73c87.69,-36.62 129.18,93.21 53.37,122.6 -86.05,33.36 -134.43,-88.75 -53.37,-122.6zm211.36 -8.75c52.85,-23.3 82.69,59.04 32.96,80.4 -50.58,21.73 -97.09,-52.14 -32.96,-80.4zm-164.91 -198.34c55.52,-28.93 88.33,53.88 40.88,77.02 -53.5,26.09 -95.32,-48.65 -40.88,-77.02zm423.34 8.55l6.05 74.52 -13.89 14.28 -76.66 -32.71 -141.31 93.16 14.65 -135.08c-15.46,-24.57 -86.39,-50.64 -38.52,-111.54 7.34,-9.33 125.48,-65.28 29.28,-78.97 -80.98,-11.52 -192.59,36.84 -252.28,91.82 -139.91,128.85 -150.63,348.88 -19.52,488.1 131.08,139.2 340.39,146.98 483.84,21.31 143.98,-126.13 138.28,-513.87 8.36,-424.89z"/>
   <path class="fil1" d="M5953.01 24379.51c38.1,2.44 -0.83,0.24 22.68,-6.49 13.87,-3.97 15.13,-2.03 28.34,0.66l2.54 24.02c426.5,47.36 676.15,-340.72 468.47,-719.15l-49.53 28.3c59.13,194.05 140.66,319.64 -40.77,512.73 -131.75,140.21 -351.92,166.19 -513.47,62.24 -338.99,-218.13 -214.61,-750.99 280.92,-744.49l7.41 -55.55c-621.79,-101.15 -690.22,829.34 -206.59,897.73zm0 0c11.36,12.1 33.38,12.66 53.56,18.19l-2.54 -24.02c-13.21,-2.69 -14.47,-4.63 -28.34,-0.66 -23.51,6.73 15.42,8.93 -22.68,6.49z"/>
   <path class="fil1" d="M8605.41 23072.42c3.68,-6.67 97.02,-6.22 111.02,-5.77 49.12,1.6 37.15,7.77 48.11,61.82 17.33,85.49 42.41,93.4 41.52,190.5 -0.75,81.62 31.9,383.58 -50.31,412.44 -223.04,78.33 -203.88,-100.55 -203.88,-248.91 0,-106.16 1.81,-316.22 53.54,-410.08zm15.89 -144.15l114.94 2.6 6 93.61 -128.42 -0.62 7.48 -95.59zm111.51 -48.71c-20.74,9.73 -87.44,9.87 -108.3,0.01l0.64 -15.4c20.86,-10.25 84.98,-9.8 107.52,-0.83l0.14 16.22zm-189.75 -107.86l28.82 85.6c-5.07,209.07 -72.37,330.93 -72.36,523.82 0.01,199.07 -65.8,409.26 182,409.27 241.8,0.01 176.77,-239.1 176.79,-414.9 0.02,-194.76 -72.84,-312.62 -72.1,-523.92l26.14 -76.01c-2.35,-0.41 -19.15,-4.12 -20.03,-4.18 -13.24,-0.9 0.41,4.68 -61.25,-0.88l-18.91 0.36c-36.21,-5.02 -5.48,16.01 -31.38,0.85 -12.1,-7.08 -22.74,-5.87 -44.95,-3.52 -15.31,27.43 12.27,17.2 -16.51,22.28l-1.12 -12.43c-0.67,-11.69 3.16,1.95 -0.91,-10.89l-74.23 4.55z"/>
   <path class="fil1" d="M9883.33 24368.1c-174.38,31.97 -236.46,245.35 -105.22,363.47 131.15,118.06 340.75,31.31 350.75,-141.72 2.97,-51.33 -30.47,-223.12 -96.71,-112.43 -48.08,80.34 -23.97,179.6 -117.81,175.12 -88.95,-4.24 -104.03,-97.8 -5.91,-158.1 33.21,-20.4 146.34,-157.77 -25.1,-126.34z"/>
   <path class="fil1" d="M9882.26 24290.33l155.83 40.34c-6.67,32.69 -67.82,122.47 -90.69,158 -18.55,28.83 -150.17,78.86 -58.75,133.42 92.72,55.34 74.08,-75.24 94.32,-108.42 20.62,-33.79 73.24,-134.82 100.21,-149.16l103.55 125.23c63.04,-49.16 -52.47,-107.78 -46.62,-149.2 1.61,-11.47 71.83,-119.36 83.75,-138.71 34.41,-55.87 193.29,-241.01 120.96,-296.5 -94.86,-72.79 -212.12,235.45 -299.63,355.13 -35.09,47.99 -154.2,-41.14 -162.93,29.87z"/>
   <path class="fil1" d="M8599.35 23660.38l156.2 3.23c35.54,-37.36 19.71,-150.75 19.86,-203.69 0.29,-99.25 22.5,-136.38 -88.01,-136.4 -116.98,0 -104.47,11.77 -103.7,125.15 0.36,54.13 -12.62,169.6 15.65,211.71z"/>
   <path class="fil1" d="M6159.07 23700.91l-11.74 167.38 187.05 -158.3 -12.92 -15.26c21.28,-12.03 158.63,17.3 83.37,-63.75 -52.45,-56.49 -191.5,-144.03 -219.55,-104.32 -30.05,42.53 23.32,27.03 52.07,56.97 85.58,89.14 -77.08,116.42 -78.28,117.28z"/>
   <path class="fil1" d="M6192.74 23452.3c142.07,25.61 203.44,72.54 288.93,178.85l48.79 -29.2c-58.74,-99.32 -216.07,-207.09 -330.79,-204.44l-6.93 54.79z"/>
   <path class="fil1" d="M8689.85 21385.91c-44.36,26.5 -18.31,96.67 54.25,67.4 45.53,-18.37 18.01,-110.55 -54.25,-67.4z"/>
   <path class="fil1" d="M1020.02 17357.82c-174.19,-119.3 -206.99,-57.42 -298.48,-16.56 -0.43,0.19 -183.46,41.1 -54.43,172.22 62.76,63.78 46.67,-6.27 71.92,104.47 -86.5,-48.25 -158.55,-116.19 -144.81,-253.71 79.96,-61.7 283.72,-162.79 393.32,-74.1 63.58,51.45 23.18,-4.84 32.48,67.68z"/>
   <path class="fil1" d="M1175.54 17339.38c-52.44,2.89 -456.41,361.46 -474.34,436.78 94.47,11.8 237.02,-196.3 374.04,-316.51 65.58,-57.53 68.19,-41.43 100.3,-120.27zm150.97 -21.73c-33.45,207.18 52.99,110.18 -259.45,389.1l-158.28 157.08c-122.88,130.92 -216.09,29.31 -227.53,81.12 -1.54,7 -8.82,8.18 -10.87,10.84l-49.57 71.86c-33.84,30.78 -64.67,18.98 -100.6,6.41 -17.8,-110.14 51.01,-115.23 124.51,-141.53 -6.06,-154.59 -16.73,-153.65 75.82,-237.26 51.65,-46.66 104.89,-94.14 166.41,-148.06 317.73,-278.44 132.92,-223.18 390.9,-235.15 43.47,-69.43 33.32,-139.19 153.16,-109.01 41.37,120.17 -38.2,116.22 -104.5,154.6z"/>
   <path class="fil1" d="M927.62 17881.27c15.77,-8.82 -4.34,-13.05 33.98,-11.77 9.83,0.32 49.21,10.93 63.86,13.03 67,9.63 82.12,6.55 147.61,-11.44 210.38,-57.76 185.78,-105.29 189.57,-194.08 -56.43,-39.11 -77.67,-55.78 -81.81,-92.51 -10.21,-90.66 12.27,-46.63 19.52,-57.42 50.76,125.95 181.38,217.28 28.95,323.46 -102.07,71.11 -292.73,101.01 -401.68,30.73z"/>
   <path class="fil1" d="M3379.45 17722.44c-0.92,-13.02 -66.88,-59.35 -11.23,-120.91 45.45,-50.25 91.42,-23.1 130.03,9.25 15.82,98.38 -21.87,129.74 -118.8,111.66z"/>
   <path class="fil1" d="M3717.65 17617.44c113.41,138.93 -148.8,174.84 -65.49,2.25l65.49 -2.25z"/>
   <path class="fil1" d="M7846 17538.2c-6.6,41.49 50.55,-10.93 16.72,-6.87 -42.51,5.09 -12.97,-16.68 -16.72,6.87z"/>
   <path class="fil1" d="M6533.52 16548.56c27.02,40.5 23.45,-55.06 23.06,79.13l23.85 -16.51c-19.79,74.35 13.73,10.65 -14.59,53.56l-92.01 -0.71c13.16,-70.6 16.25,-48.34 59.69,-115.47zm-185.46 -41.72c160.33,-6.79 39.18,-6.19 87.25,30.96 -11.38,15.4 0.79,37.2 -78.39,41.39 -21.87,-43.39 -15.16,-25.62 -8.86,-72.35zm223.2 -107.96l-8.59 106.24c-64.09,20.24 -56.82,20.33 -123.41,-7.78l-8.32 -96.73c39.84,-22.07 44,-39.53 103.74,-19.07l36.58 17.34zm-223.2 107.96c-54.11,-0.15 -94.93,-9.8 -93.72,-66.29 2.06,-96.08 -1.39,-11.62 20.61,-47.95l107.14 20.91c-8.36,52.58 -17.36,31.17 -54.76,65.43 21.51,16.67 37.56,-10.82 20.73,27.9zm223.2 -107.96c12.6,-77.88 -13.51,-27.04 40.74,-68.48 94.5,72.82 31.22,75.22 30.28,81.18 -8.63,-0.11 -48.26,-6.06 -71.02,-12.7zm-343.53 -49.92c7.19,34.48 -26.41,65.15 -42.37,72.65 -37.67,17.69 -58.76,-8.19 -78.12,-20.47 -3.18,-127.8 105.16,-125.76 120.49,-52.18zm202.27 15.27c-74.65,-20.73 -82.7,7.55 -33.84,-84.12 56.55,32.34 50.55,4.93 33.84,84.12zm-154.54 -95.7c29.71,-55.72 -34.43,-6.43 49.91,-56.56 26.64,-15.83 46.26,-17.11 70.43,-24.14 -2.08,102.47 -28.14,98.05 -120.34,80.7zm306.54 -90.04l21.96 -7.37c33.71,87.51 16.09,93.68 -50.82,128.38 -3.01,-3.53 -6.31,-9.2 -7.96,-11.4l-75.69 -83.87c58.4,-41.98 41.96,-4.23 112.51,-25.74zm-617.91 168.31c116.72,157.66 -11.18,126.18 59.26,275.3 37.7,-20.7 28.83,16.92 50.69,-113.03 -3.45,77.05 11.96,52.38 27.8,73.15l68.04 -53.08c-9.73,120.23 -94.37,314.91 57.02,292.88 19.39,-36.39 22.21,-22.38 17.05,-106.43 -3.23,-52.57 -9.07,-63.01 -6.61,-121.91 143.14,-27.94 190.58,107.18 335.42,142.36 183.09,-279.08 92.58,-431.77 45.79,-700.47 -105.18,25.68 -494.38,243.27 -654.46,311.23z"/>
   <path class="fil1" d="M7251.86 15397.29c13.09,-35.78 -1.88,-46.15 46.05,-52.83 64.14,-8.95 52.65,30.81 62.46,60.16 -64.46,17.36 -44.22,28.96 -108.51,-7.33zm-53.47 -71.64c-0.26,-0.32 -43.63,-1.88 -46.07,-124.53 -1.24,-62 15.84,-103.23 32.86,-140 40.18,40.57 20.96,-20.91 28.91,42.32 8.54,67.81 -41.35,21.91 -15.7,222.21zm-195.12 -528.97c103.02,-13.05 178.38,-9.06 273.29,-43.07 51.55,-18.48 185.11,-82.83 108.91,-136.33 -99.84,-70.1 -367.92,113.8 -426.11,157.69l-160.57 -11.54c57.64,48.6 30.56,21.24 126.16,43.38 168.45,39.02 213.41,140.18 272.59,198.05 -31.81,63.15 -98.94,88.66 -65.45,259.83 65.09,332.78 413.82,167.85 238,-160.86 -59.23,-110.73 -79.62,-53.98 -144.66,-107.07 -45.46,-37.1 -22.81,-69.13 -101.07,-122.21 186.93,25.84 293.58,132.59 527.89,111.12l-67.04 -57.61c-279.66,-201.9 -433.73,-43.33 -581.94,-131.38z"/>
   <path class="fil1" d="M5288.38 15279.53l71.08 -46.4c115.19,-70.62 101.21,-140.67 122.16,-265.12l-436.81 -8.87 -43.97 131.9c-3.58,-4.95 -5.48,-12.3 -7.22,-16.83 -1.71,-4.51 -4.85,-11.28 -6.89,-16.87 -2.04,-5.57 -4.06,-10.96 -6.2,-17.1l-16.03 -51.8c-1.41,-4.38 -4.65,-7.69 -5.67,-16.71 -1.01,-9.01 -2.56,-11.72 -5.75,-16.65 -51.44,78.52 -26.22,185.39 65.02,258.43 84.62,67.76 152.4,60.98 270.28,66.02z"/>
   <path class="fil1" d="M5481.62 14968.01c24.67,13.6 14.83,-5.4 27.31,36.87 8.86,30.01 9.16,46.56 5.5,77.44 -11.78,99.39 -106,191.18 -226.05,197.21 -4.49,2.54 11.99,6.49 -43.47,16.74 -242.56,44.82 -469.87,-192.58 -312.03,-372.15 50.23,-57.15 100.01,-81.02 184.18,-104.15l11.19 -35.24c1.11,-4.48 3.19,-12.08 4.47,-17.48l16.58 -75.39 98.1 -2.34c21.46,47.23 3.69,16.98 14.41,60.11l8.26 33.61c1.46,5.24 4.1,12.49 5.36,16.77 17.6,60.03 132.91,4.72 206.19,168zm-149.89 -180.4c123.62,-114.37 213.73,-33.11 188.01,138.4 -35.38,-28.32 -43.11,-46.11 -81.7,-74.56 -48.74,-35.94 -61.13,-24.11 -106.31,-63.84zm-83.73 -129.61c-172.75,31.53 -150.27,-34.75 -157.52,-55.48 4.33,-1.78 171.52,-48.52 216.54,28.11 -31.26,24.44 34.05,10.38 -59.02,27.37zm43.41 82.08c29.89,-102.24 34.66,-32.79 48.89,-129.07 -40.46,-60.96 -27.1,-16.95 -52.34,-64.22 -20.8,-38.94 1.87,-17.98 -20.93,-63.47l-137.35 -1.26c-39.29,54.23 0.6,15.73 -32.37,75.8 -100.67,183.34 2.92,22.5 4.8,223.74 -510.74,236.43 -163.52,604.78 176.09,544.3 214.33,-38.18 246.92,-131.66 272.77,-333.71 33.45,-261.46 1.14,-356.61 -259.56,-252.11z"/>
   <path class="fil1" d="M6710.11 16802.84c162.49,-200.78 164.21,-591.95 37.56,-822.11l-88.43 36.42c90.12,378.41 120,358.86 -36.26,736.49l87.13 49.2z"/>
   <path class="fil1" d="M6832.42 15240.31c54.42,-58.1 94.19,-31 104.88,35.22 -114.56,13.45 -53.26,-3.84 -104.88,-35.22zm-11.83 -111.75c13.41,-124.34 52.14,-203.41 173.55,-198.07l-173.55 198.07zm261.17 -25.59c71.98,-276.89 -220.98,-303.45 -292.64,-13.69 -73.56,297.47 220.64,290.64 292.64,13.69z"/>
   <path class="fil1" d="M9587.47 17447.67l-66.1 4.77c12.2,-37.86 49.74,-37.92 66.1,-4.77zm-235.64 -28.64c22.4,18.03 51.35,20.39 81.38,25.77l-0.42 -19.79 43.15 -1.91 7.04 -29.68 35.98 3.2c-21.87,27.4 -24.38,16.99 -36.73,57.63 39.13,2.17 123.95,12.69 152,-8.47 -14.75,-6.91 -29.88,-34.98 -44.16,-48.84 27.62,-0.63 16.07,1.56 33.77,-10.85 -93.24,6.64 -133.69,6.46 -225.19,-15.07l-0.81 21.49 -35.26 2.09c-5.46,29.86 2.22,11.09 -10.75,24.43zm282.4 26.75c22.65,0.78 48.64,-4.46 70.7,-12.21 10.03,-3.53 18.57,-7.76 28.53,-11.84 17.97,-7.36 18.28,-4.9 29.62,-16.87 -68.93,-9.67 -86.2,-37.83 -128.85,40.92zm328.93 -904.95c4.28,9.05 8.78,23.29 20.44,29.85 9.32,5.27 2.12,6.28 16.39,3.06 14.9,-3.35 13.07,-8.66 16.86,-13.95 -16.78,6.5 -3.76,2.47 -9.21,-2.06 -0.19,-19.68 -5.03,-38.04 6.41,-49.23 -8.52,-17.87 -26.71,-35 -44.48,-45.87l2.68 78.11c-7.01,5.72 2.58,3.38 -9.09,0.09zm-726.85 813.09c6.53,9.55 0.39,2.86 8.47,10.3 3.18,2.93 6.08,5.01 9.73,7.51 8.92,6.11 18.51,11.11 27.56,15.63 -2.68,-34 28.66,-23.92 54,-12.41l13.24 -9.37c11.25,-6.02 -7.14,-2.19 13.88,-4.79 -12.41,-14.19 -48.62,-29.6 -65.98,-35.9 4.44,13.8 3.16,4.37 -10.37,10.25 -3.26,1.42 -10.33,2.59 -17.45,5.86 -24.66,11.32 -9.98,15.39 -33.08,12.92zm543.85 44.35c18.75,-6.35 34.64,-12.51 44.26,-27.56l-8.23 -2.2 -1.91 -32.31 -33.11 -1.01 -1.01 63.08zm-568.48 -392.54l-46.16 4.23 0.18 -53.8 48.55 2.27c-18.39,-11.67 -29.49,-8.22 -54.18,-6.55l1.53 61.65c15.57,0.96 42.18,5.95 50.08,-7.8zm413.38 -344.75l-22.6 159.94 19.02 16.63 199.43 -171.3 -13.56 -15.78c23.46,-14.74 185.7,22.83 81.45,-81.61 -56.86,-56.96 -224.01,-160.19 -240.05,-98.96 -11.07,42.27 34.2,20.94 65.64,59.47 82.56,101.12 -73.13,121.94 -89.33,131.61zm-142.45 292.3l-128.51 165.97 13.36 19.74 392.85 -3.23 0.49 -31.94 -129.72 -7.38 126.88 -165.72 -16.44 -19.42 -169.87 4.25 -1.27 28.69 110.29 11.96c-14.65,27.48 -66,78.45 -89.74,109.51 -40.44,52.9 -82.12,36.08 -158.54,32.45 17.84,-34.07 148.6,-146.51 106.63,-178.76 -43.03,-33.06 -330.82,19.32 -56.41,33.88zm362.87 92.05c2.26,-23.27 13.3,-53.09 28.74,-67.3l19.72 68.24 -48.46 -0.94zm122.41 92.44c20.12,-30.95 -25.35,-111.71 -39.17,-146.71 -76.23,-192.99 -108.55,-12.48 -146.85,79.38 -34.4,82.48 13.88,109.53 45.64,16.58l83.25 1c18.7,26.37 13.96,66.57 57.13,49.75zm-756.21 -132.04c-7.9,13.75 -34.51,8.76 -50.08,7.8l-1.53 -61.65c24.69,-1.67 35.79,-5.12 54.18,6.55 26.6,3.4 25.81,43.21 -2.57,47.3zm-95.23 -88.06c-1.42,3.95 -37.07,270.51 33.85,220.6 18.65,-13.12 10.9,-61.5 12.76,-83.78 61.46,-4.15 142.43,-4.25 119.79,-93.85 -15.14,-59.88 -121.79,-59.32 -166.4,-42.97zm846.71 -376.84c11.67,3.29 2.08,5.63 9.09,-0.09l-2.68 -78.11c-30.91,-55.58 -158.75,-115.53 -228.05,-134.92 -35.14,-9.83 -77.05,-29.44 -78.36,21.82 -1.03,39.95 40.88,32.55 79.05,44.87 145.81,47.04 186.9,124.83 220.95,146.43zm-652.28 373.35c-27.9,19.09 -14.22,94.52 -14.22,127.92 -0.01,20.96 -11.11,129.89 39.9,96.18 20.73,-13.7 11.85,-104.09 11.87,-129.98 0.01,-23.95 10.75,-127.18 -37.55,-94.12zm-28.81 473.18l69.76 31.67c12.97,-13.34 5.29,5.43 10.75,-24.43l35.26 -2.09 0.81 -21.49 -35.46 -10.23c-21.02,2.6 -2.63,-1.23 -13.88,4.79l-13.24 9.37c-25.34,-11.51 -56.68,-21.59 -54,12.41zm151.14 57.44l49.02 9.45c12.35,-40.64 14.86,-30.23 36.73,-57.63l-35.98 -3.2 -7.04 29.68 -43.15 1.91 0.42 19.79zm154.26 2.87c-16.36,-33.15 -53.9,-33.09 -66.1,4.77l66.1 -4.77zm429.38 -887.88c9.21,-2.79 2.74,3.12 16.4,-9.01 2.57,-23.24 -3.16,-24.44 -19.2,-42.28 -11.44,11.19 -6.6,29.55 -6.41,49.23 5.45,4.53 -7.57,8.56 9.21,2.06zm-411.94 660.61c-15.97,36.88 -68.05,36.2 -82.64,0.28l82.64 -0.28zm491.76 -42.99c-290.31,8.42 -644.12,0.94 -945.97,0.92 -189.9,-0.02 -160.68,35.82 -160.81,-153.13 -0.13,-189.92 -33.13,-152.34 160.81,-152.26 105.15,0.04 210.31,0.03 315.46,0.03 208.55,0 422.33,-4.6 631.32,0.76l-0.81 303.68zm-1119.57 57.14l-116.65 0.47c5.82,-42.51 48.25,-127.68 45.96,-157.95 -2.4,-31.74 -39.3,-106.61 -47.34,-147.41l88.43 0.19c2.92,54.43 0.83,113.6 0.83,168.57 0,69.08 -16.08,92.18 28.77,136.13zm1135.89 -0.68c38.42,-36.41 26.45,-36.84 26.45,-141.08 0,-52.25 -2.68,-111.94 1.19,-163.48l86.04 0.75c-6.25,38.77 -47.47,123.05 -47.67,151.51 -0.21,28.87 41.23,113.72 47.64,153.28l-113.65 -0.98zm-774.95 -507.94c64.96,-29.83 99.39,75.5 35.96,95.02 -62.53,19.24 -101.09,-65.1 -35.96,-95.02zm-101.73 627.99c23.1,2.47 8.42,-1.6 33.08,-12.92 7.12,-3.27 14.19,-4.44 17.45,-5.86 13.53,-5.88 14.81,3.55 10.37,-10.25l-109.46 -104.34c165.88,-1.27 170.26,101.4 357.31,100.51 180.68,-0.86 187.22,-99.53 352.55,-100.79l12.2 21.01 -285.97 144.81c-17.7,12.41 -6.15,10.22 -33.77,10.85 14.28,13.86 29.41,41.93 44.16,48.84 42.65,-78.75 59.92,-50.59 128.85,-40.92l17.08 -6.59 1.01 -63.08 33.11 1.01 1.91 32.31 8.23 2.2 141.77 -127.65 24.87 36.69 261.3 -9.1 -0.06 -377.34 -114.73 -6.23 -9.28 -53.69 -68.82 -4.4 -46.51 -131.16 -37.82 -7.67c3,-24.79 6.03,-21.05 -1,-49.02l-44.42 23.8 68.1 161.05c-14.4,9.22 -59.44,4.57 -78.39,4.64l-55.83 -118.65 -43.83 23.81 6.12 83.31c-20.11,8.79 -217.73,9.29 -255.57,10.3 -13.42,-40.2 20.64,-49.43 -9.58,-84.33 -20.52,-23.71 -39.93,-19.49 -43.75,-64.45 -8.74,-102.99 98.52,-53.66 80.18,-130.86 -57.54,-41.43 -226.41,24.68 -282.89,64.51 -119.19,84.04 -97.59,146.6 -152.34,215.16l-68.57 1c23.39,-171.39 194.55,-327.06 377,-356.43 35.77,-5.77 98.71,-0.1 120.17,-4.81 39.34,-8.64 44.23,-56.66 -5.24,-63.52 -122.37,-16.97 -278.91,39.9 -374.24,116.58 -150.58,121.13 -115.34,183.01 -186.77,304.01l-60.06 6 -14.9 55.51 -137.23 2.03c-16.02,43.24 48.73,144.52 49.13,191.83 0.36,43.21 -69.78,158.17 -46.49,189.31l309.78 -3.06 111.79 86.04z"/>
   <path class="fil1" d="M1063.77 23021.54l-66.1 4.77c12.2,-37.86 49.74,-37.93 66.1,-4.77zm-235.64 -28.64c22.4,18.03 51.35,20.38 81.38,25.77l-0.42 -19.79 43.15 -1.91 7.04 -29.68 35.98 3.2c-21.87,27.4 -24.38,16.99 -36.73,57.63 39.14,2.17 123.95,12.69 152,-8.47 -14.74,-6.91 -29.87,-34.99 -44.16,-48.84 27.62,-0.63 16.07,1.56 33.77,-10.86 -93.24,6.64 -133.69,6.46 -225.19,-15.07l-0.81 21.5 -35.26 2.09c-5.46,29.86 2.22,11.09 -10.75,24.43zm282.4 26.75c22.65,0.78 48.64,-4.46 70.7,-12.21 10.03,-3.54 18.57,-7.77 28.53,-11.84 17.97,-7.37 18.29,-4.91 29.62,-16.87 -68.93,-9.67 -86.2,-37.83 -128.85,40.92zm328.94 -904.95c4.27,9.05 8.78,23.29 20.43,29.85 9.32,5.27 2.12,6.28 16.39,3.06 14.9,-3.36 13.07,-8.66 16.86,-13.95 -16.78,6.5 -3.75,2.47 -9.21,-2.06 -0.19,-19.69 -5.03,-38.04 6.41,-49.23 -8.52,-17.88 -26.71,-35 -44.48,-45.87l2.69 78.11c-7.02,5.72 2.57,3.38 -9.09,0.09zm-726.86 813.08c6.53,9.56 0.39,2.87 8.47,10.31 3.18,2.93 6.08,5.01 9.73,7.5 8.92,6.12 18.51,11.12 27.56,15.64 -2.68,-34 28.66,-23.92 54,-12.41l13.24 -9.37c11.25,-6.02 -7.13,-2.19 13.89,-4.79 -12.41,-14.2 -48.63,-29.6 -65.99,-35.91 4.45,13.81 3.16,4.38 -10.37,10.26 -3.26,1.42 -10.33,2.58 -17.45,5.86 -24.66,11.31 -9.98,15.39 -33.08,12.91zm543.85 44.36c18.75,-6.36 34.64,-12.51 44.26,-27.57l-8.23 -2.19 -1.91 -32.31 -33.11 -1.02 -1.01 63.09zm-568.48 -392.54l-46.16 4.23 0.18 -53.81 48.55 2.28c-18.39,-11.67 -29.49,-8.23 -54.18,-6.55l1.53 61.64c15.57,0.97 42.18,5.96 50.08,-7.79zm413.38 -344.76l-22.59 159.95 19.01 16.63 199.43 -171.3 -13.56 -15.78c23.46,-14.74 185.7,22.83 81.45,-81.61 -56.86,-56.96 -224.01,-160.2 -240.05,-98.96 -11.07,42.27 34.2,20.94 65.65,59.47 82.55,101.12 -73.14,121.94 -89.34,131.6zm-142.44 292.31l-128.52 165.96 13.36 19.75 392.85 -3.23 0.49 -31.94 -129.72 -7.38 126.88 -165.72 -16.44 -19.42 -169.87 4.25 -1.27 28.68 110.29 11.97c-14.65,27.48 -66,78.45 -89.74,109.51 -40.44,52.9 -82.11,36.08 -158.54,32.45 17.84,-34.07 148.61,-146.51 106.63,-178.76 -43.03,-33.06 -330.82,19.32 -56.4,33.88zm362.87 92.04c2.26,-23.26 13.3,-53.08 28.73,-67.29l19.72 68.24 -48.45 -0.95zm122.4 92.45c20.13,-30.95 -25.34,-111.71 -39.17,-146.71 -76.23,-192.99 -108.55,-12.48 -146.85,79.37 -34.4,82.49 13.89,109.54 45.64,16.59l83.25 0.99c18.7,26.38 13.96,66.58 57.13,49.76zm-756.21 -132.04c-7.9,13.75 -34.51,8.76 -50.08,7.79l-1.53 -61.64c24.69,-1.68 35.79,-5.12 54.18,6.55 26.6,3.4 25.81,43.21 -2.57,47.3zm-95.23 -88.06c-1.42,3.94 -37.07,270.51 33.85,220.59 18.65,-13.11 10.9,-61.49 12.76,-83.77 61.46,-4.15 142.43,-4.25 119.79,-93.85 -15.14,-59.88 -121.79,-59.32 -166.4,-42.97zm846.72 -376.84c11.66,3.29 2.07,5.63 9.09,-0.09l-2.69 -78.11c-30.91,-55.58 -158.75,-115.53 -228.05,-134.92 -35.14,-9.83 -77.05,-29.44 -78.36,21.81 -1.03,39.95 40.88,32.56 79.05,44.88 145.81,47.04 186.9,124.83 220.96,146.43zm-652.29 373.35c-27.9,19.09 -14.22,94.52 -14.22,127.91 -0.01,20.97 -11.1,129.9 39.9,96.19 20.73,-13.7 11.86,-104.09 11.87,-129.98 0.01,-23.95 10.75,-127.19 -37.55,-94.12zm-28.81 473.18l69.76 31.67c12.97,-13.34 5.29,5.43 10.75,-24.43l35.26 -2.09 0.81 -21.5 -35.45 -10.22c-21.02,2.6 -2.64,-1.23 -13.89,4.79l-13.24 9.37c-25.34,-11.51 -56.68,-21.59 -54,12.41zm151.14 57.44l49.02 9.45c12.35,-40.64 14.86,-30.23 36.73,-57.63l-35.98 -3.2 -7.04 29.68 -43.15 1.91 0.42 19.79zm154.26 2.87c-16.36,-33.16 -53.9,-33.09 -66.1,4.77l66.1 -4.77zm429.38 -887.88c9.21,-2.79 2.74,3.12 16.4,-9.01 2.58,-23.24 -3.16,-24.44 -19.2,-42.28 -11.44,11.19 -6.6,29.54 -6.41,49.23 5.46,4.53 -7.57,8.56 9.21,2.06zm-411.94 660.61c-15.97,36.88 -68.05,36.2 -82.64,0.28l82.64 -0.28zm491.76 -42.99c-290.31,8.41 -644.12,0.94 -945.97,0.91 -189.89,-0.01 -160.68,35.83 -160.81,-153.12 -0.13,-189.92 -33.13,-152.34 160.81,-152.26 105.15,0.04 210.31,0.02 315.46,0.02 208.55,0.01 422.34,-4.59 631.33,0.77l-0.82 303.68zm-1119.57 57.14l-116.65 0.47c5.82,-42.51 48.25,-127.68 45.97,-157.96 -2.4,-31.74 -39.31,-106.6 -47.35,-147.4l88.43 0.18c2.93,54.44 0.83,113.61 0.83,168.58 0,69.08 -16.08,92.17 28.77,136.13zm1135.89 -0.68c38.42,-36.41 26.45,-36.84 26.45,-141.08 0,-52.25 -2.68,-111.94 1.2,-163.48l86.03 0.75c-6.25,38.77 -47.47,123.04 -47.67,151.51 -0.21,28.86 41.23,113.72 47.64,153.28l-113.65 -0.98zm-774.95 -507.94c64.97,-29.84 99.4,75.5 35.96,95.02 -62.53,19.24 -101.08,-65.1 -35.96,-95.02zm-101.73 627.98c23.1,2.48 8.42,-1.6 33.08,-12.91 7.12,-3.28 14.19,-4.44 17.45,-5.86 13.53,-5.88 14.82,3.55 10.37,-10.26l-109.45 -104.33c165.87,-1.27 170.25,101.4 357.3,100.51 180.68,-0.86 187.22,-99.53 352.55,-100.79l12.2 21.01 -285.97 144.81c-17.7,12.41 -6.15,10.22 -33.77,10.85 14.29,13.85 29.42,41.93 44.16,48.84 42.65,-78.75 59.92,-50.59 128.85,-40.92l17.08 -6.59 1.01 -63.09 33.11 1.02 1.91 32.31 8.23 2.19 141.78 -127.64 24.86 36.69 261.3 -9.1 -0.06 -377.35 -114.73 -6.22 -9.28 -53.69 -68.82 -4.4 -46.51 -131.16 -37.81 -7.67c3,-24.79 6.02,-21.05 -1,-49.03l-44.43 23.81 68.1 161.04c-14.4,9.23 -59.44,4.58 -78.39,4.65l-55.83 -118.65 -43.82 23.81 6.11 83.3c-20.11,8.8 -217.73,9.29 -255.56,10.31 -13.43,-40.2 20.63,-49.43 -9.58,-84.33 -20.53,-23.71 -39.94,-19.49 -43.76,-64.45 -8.74,-102.99 98.52,-53.66 80.19,-130.86 -57.55,-41.43 -226.42,24.68 -282.9,64.51 -119.19,84.04 -97.58,146.6 -152.34,215.16l-68.57 1c23.39,-171.39 194.55,-327.06 377,-356.43 35.77,-5.77 98.71,-0.11 120.17,-4.81 39.34,-8.64 44.23,-56.66 -5.24,-63.52 -122.37,-16.97 -278.91,39.9 -374.24,116.58 -150.58,121.13 -115.34,183.01 -186.77,304.01l-60.06 6 -14.9 55.51 -137.23 2.03c-16.02,43.24 48.73,144.52 49.13,191.83 0.36,43.21 -69.78,158.17 -46.49,189.31l309.79 -3.06 111.78 86.03z"/>
   <path class="fil1" d="M9675.51 14437.6l74.23 -4.55c4.07,12.83 0.24,-0.8 0.91,10.89l1.12 12.43c28.78,-5.09 1.2,5.14 16.51,-22.28 22.21,-2.36 32.85,-3.56 44.95,3.52 25.9,15.16 -4.83,-5.87 31.38,-0.86l18.91 -0.35c61.66,5.56 48.01,-0.03 61.25,0.87 0.88,0.06 17.68,3.77 20.03,4.19 -11.94,-20.6 -7.17,-18.03 -57.57,-17.59 -58.11,0.51 -186.45,-10.41 -211.72,13.73z"/>
   <path class="fil1" d="M8488.07 15835.46c49.54,-30.18 90.9,43.67 44.29,74.07 -46.4,30.27 -102.12,-38.85 -44.29,-74.07zm137.3 -143.94c83.68,-42.86 138.79,85.15 57.01,120.49 -78.71,34.01 -135.72,-80.17 -57.01,-120.49zm-365.91 -22.73c87.69,-36.62 129.18,93.21 53.37,122.6 -86.05,33.36 -134.43,-88.75 -53.37,-122.6zm211.36 -8.75c52.85,-23.3 82.69,59.04 32.96,80.4 -50.58,21.73 -97.09,-52.13 -32.96,-80.4zm-164.91 -198.34c55.52,-28.93 88.33,53.88 40.88,77.03 -53.5,26.08 -95.32,-48.66 -40.88,-77.03zm423.35 8.55l6.04 74.52 -13.89 14.28 -76.66 -32.71 -141.31 93.16 14.65 -135.08c-15.46,-24.57 -86.39,-50.64 -38.52,-111.54 7.34,-9.33 125.49,-65.28 29.28,-78.97 -80.98,-11.52 -192.58,36.84 -252.28,91.82 -139.91,128.85 -150.62,348.88 -19.52,488.1 131.08,139.2 340.39,146.99 483.84,21.32 143.98,-126.14 138.28,-513.88 8.37,-424.9z"/>
   <path class="fil1" d="M8352.3 16078.79c38.1,2.44 -0.83,0.24 22.68,-6.49 13.87,-3.96 15.13,-2.03 28.35,0.67l2.53 24.01c426.5,47.36 676.15,-340.72 468.47,-719.15l-49.53 28.3c59.13,194.05 140.66,319.64 -40.77,512.73 -131.75,140.21 -351.92,166.19 -513.47,62.24 -338.99,-218.12 -214.61,-750.99 280.92,-744.49l7.42 -55.55c-621.8,-101.15 -690.22,829.34 -206.6,897.73zm0 0c11.36,12.1 33.38,12.66 53.56,18.19l-2.53 -24.01c-13.22,-2.7 -14.48,-4.63 -28.35,-0.67 -23.51,6.73 15.42,8.93 -22.68,6.49z"/>
   <path class="fil1" d="M9737.86 14738.32c3.68,-6.68 97.02,-6.23 111.02,-5.78 49.12,1.61 37.15,7.78 48.11,61.83 17.33,85.48 42.41,93.4 41.52,190.5 -0.75,81.62 31.9,383.57 -50.31,412.44 -223.04,78.32 -203.88,-100.56 -203.88,-248.91 0,-106.17 1.81,-316.22 53.54,-410.08zm15.89 -144.16l114.94 2.61 6 93.6 -128.42 -0.62 7.48 -95.59zm111.51 -48.71c-20.74,9.74 -87.44,9.87 -108.3,0.02l0.64 -15.41c20.86,-10.24 84.97,-9.8 107.52,-0.82l0.14 16.21zm-189.75 -107.85l28.82 85.6c-5.08,209.06 -72.38,330.92 -72.36,523.82 0.01,199.07 -65.8,409.26 182,409.27 241.8,0.01 176.77,-239.11 176.79,-414.91 0.02,-194.76 -72.84,-312.61 -72.1,-523.91l26.14 -76.01c-2.35,-0.42 -19.15,-4.13 -20.03,-4.19 -13.24,-0.9 0.41,4.69 -61.25,-0.87l-18.91 0.35c-36.21,-5.01 -5.48,16.02 -31.38,0.86 -12.1,-7.08 -22.74,-5.88 -44.95,-3.52 -15.31,27.42 12.27,17.19 -16.51,22.28l-1.12 -12.43c-0.67,-11.69 3.16,1.94 -0.91,-10.89l-74.23 4.55z"/>
   <path class="fil1" d="M9731.8 15326.28l156.2 3.23c35.54,-37.36 19.71,-150.76 19.86,-203.69 0.29,-99.26 22.5,-136.39 -88.01,-136.4 -116.98,-0.01 -104.47,11.76 -103.7,125.14 0.36,54.13 -12.62,169.6 15.65,211.72z"/>
   <path class="fil1" d="M8558.36 15400.2l-11.74 167.37 187.05 -158.3 -12.92 -15.26c21.28,-12.03 158.63,17.3 83.37,-63.75 -52.44,-56.49 -191.49,-144.03 -219.55,-104.32 -30.04,42.53 23.32,27.03 52.07,56.98 85.58,89.13 -77.08,116.41 -78.28,117.28z"/>
   <path class="fil1" d="M8592.03 15151.58c142.07,25.61 203.44,72.54 288.94,178.85l48.78 -29.2c-58.73,-99.32 -216.07,-207.09 -330.79,-204.44l-6.93 54.79z"/>
   <path class="fil1" d="M7501.58 16995.98c-61.22,4.21 -0.36,-3.92 -9.85,21.71l-6.14 19.54c-0.37,-2.71 -1.98,7.41 -3.64,10.85 -120.2,-55.64 -101.77,-3.26 -165.18,7.12 317.37,37.06 166.25,115.73 368.77,-19.6 9.24,-6.17 23.22,-0.19 29.52,-18.31 2.78,-8.01 10.75,-6.41 15.92,-9.93 -146.03,-9.33 -101.99,49.15 -167.59,-15.67l-10.06 66.12 -51.75 -61.83z"/>
   <path class="fil1" d="M1778.96 16538.18c35.85,57.24 10.36,48.99 7.91,142.59 -1.24,47.16 6.79,101.44 23.65,143.74 23.82,59.77 95.71,133.57 147.83,167.99 312.88,206.63 715.88,-186.97 505.39,-505.76 -163.17,-247.12 -352.03,-123.12 -427.37,-178.91 44.49,-75.04 208.76,-38.09 280.19,-8.35 265.88,110.73 347.42,458.77 119.16,683.9 -197.48,194.77 -563.5,140.64 -676.32,-164.17 -17.96,-48.53 -25.89,-101.62 -23.79,-158.88 4.44,-120.28 34.27,-113.11 43.35,-122.15z"/>
   <path class="fil1" d="M3318.42 17461.21c1.28,10.2 51.76,32.53 6.35,77.48 -44.58,44.14 -68.19,-2.06 -70.24,-3.07l-14.49 -62.05 78.38 -12.36z"/>
   <path class="fil1" d="M3550.5 16330.73c42.23,-82.49 8.3,-146.79 -94.29,-95.02 -43.23,85.29 9.13,114.21 94.29,95.02zm-362.25 -260.6c44.01,46.33 -38.8,67.59 49.85,33.01 27.77,-40.61 63.58,-74.31 53.05,-152.6l41.83 -20.93c26.49,39.7 5.48,23.93 19.4,72.25 40.61,141.07 223.59,72.21 291.39,264.23 72.85,206.31 -111.7,364.39 -305.3,327.75 -208.16,-92.39 -56.12,-467.84 -54.55,-474.22 -164.8,153.26 -116.49,272.48 -50.03,444.24 -195.29,-88.46 -179.51,-267.53 -65.43,-429.76 -97.49,49.64 -136.49,109.47 -130.24,221.65 2.59,46.48 13.97,85.26 36.56,124.21l64.43 84.98c1.95,-3.56 7.45,9.52 10.97,14.42 -141.64,-30.17 -238.26,-114.61 -209.86,-283.02 26.13,-154.95 175.32,-185.55 247.93,-226.21z"/>
   <path class="fil1" d="M2259.54 16907.56l102.15 -5.97c30.87,-150.26 -119,-141.34 -102.15,5.97zm-163.34 -150.83c-170.48,2.81 -178.62,166.83 -23.44,173.96 -40.32,-93.4 -4.27,35.68 -32.82,-49.56 125.6,2.99 78.73,5.82 110.88,-23.9 -23.26,-61.15 4.99,-42.66 -97.07,-43.96 23.56,-67.45 18.96,48.71 42.45,-56.54zm125.36 11.07l10.9 -80.1c-75.48,-2.73 -34.42,-19.78 -74.79,33.36 24.39,55.77 11.89,53.03 63.89,46.74zm-256.21 -17.82c58.01,-83.51 -14.01,-144.93 -75.11,-112.39 -71.61,38.14 -33.7,142.99 75.11,112.39zm424.64 -31.64c23.48,31.92 -17.98,10.93 32.95,14.74 36.58,-72.39 17.18,-88.99 -35.71,-126.38l-50.89 43.8c-32.55,38.61 -53.4,37.04 -31.44,68.12 36.04,51.01 19.13,33.43 82.33,-14.55l2.76 14.27zm-236.33 -194.68c-8.02,182.44 203.56,92.69 93.14,-30.78 -61.91,-2.71 -54.99,0.4 -93.14,30.78zm244.76 45.76c-4.79,-4.34 -12.48,-9.01 -15.14,-12.12 -48.24,-56.26 -1.39,-36.99 3.17,-60 1.56,-7.85 10.12,-6.63 14.73,-10.53 -66.19,15.25 -47.32,-2.81 -77.9,56.51 30.84,20.1 -6.24,20.68 75.14,26.14zm-465.1 13.04c39.28,39.96 147.1,73.58 208.23,91.95l-51.25 -309.22 66.87 -1.75c-21.64,26.82 -31.3,22.26 -15.38,75.41 7.57,4.93 -22.11,26.11 45.47,16.75 39.67,-5.5 30.31,-26.34 32.77,-30.05 -27.11,-62.76 2.46,-9.57 -38.41,-28.15 0,-39.94 -9.32,-27.63 32.9,-32.37 299.17,60.24 351.65,458.84 113.8,590.5 -294.44,162.99 -559.42,-77.53 -482.1,-385.51l87.1 12.44z"/>
   <path class="fil1" d="M4586.7 16283.95c211.1,72.64 369.01,-367.1 97.21,-570.52 -302.74,-226.56 -722.88,249.7 -347.32,199.2 -41.26,-62.83 -92.9,-53.12 -98.12,-67.49 -2.28,-6.3 -10.07,-3.03 -13.94,-6.37 68.57,-38.78 122.3,-29.37 177.76,-3.52 23.9,170.26 -252.34,218.88 -244.32,331.42 20.75,47.74 111.91,138.65 165.61,166.34 150.83,-48.83 171.72,-255.46 313.95,-266.68 63.88,58.11 73.61,118.65 19.62,183.46 -26.62,-74.54 13.14,-67.93 -59.9,-109.6 -39.23,64.61 -39.33,62.28 -10.55,143.76zm-349.17 -296.34c-59.34,-54.94 -119.76,-47.04 -98.7,-159.89 32.08,-171.88 357.86,-314.39 586.76,-155.53 116.69,80.99 181.3,250.4 150.81,409.03 -29.67,154.4 -118.47,289.05 -304.86,266.45l-62.82 -81.24c-1.11,-5.53 -5.54,-6.35 -8.54,-9.29 -187.34,213.53 -215.74,124.01 -311.68,31.08 -158.3,-153.34 -92.68,-160.4 49.03,-300.61z"/>
   <path class="fil1" d="M3620.89 14870.83c-27.03,40.5 -23.46,-55.06 -23.07,79.13l-23.85 -16.51c19.8,74.35 -13.72,10.65 14.59,53.56l92.02 -0.71c-13.16,-70.6 -16.25,-48.35 -59.69,-115.47zm185.46 -41.72c-160.33,-6.8 -39.18,-6.19 -87.25,30.96 11.38,15.4 -0.79,37.2 78.38,41.39 21.88,-43.39 15.17,-25.62 8.87,-72.35zm-223.2 -107.96l8.59 106.24c64.09,20.24 56.82,20.33 123.4,-7.78l8.33 -96.73c-39.84,-22.07 -44,-39.53 -103.74,-19.08l-36.58 17.35zm223.2 107.96c54.1,-0.15 94.93,-9.8 93.72,-66.29 -2.06,-96.08 1.39,-11.62 -20.61,-47.95l-107.14 20.91c8.36,52.58 17.36,31.16 54.76,65.43 -21.51,16.67 -37.57,-10.82 -20.73,27.9zm-223.2 -107.96c-12.6,-77.88 13.51,-27.05 -40.75,-68.48 -94.49,72.82 -31.21,75.22 -30.27,81.18 8.63,-0.11 48.26,-6.06 71.02,-12.7zm343.52 -49.92c-7.18,34.48 26.42,65.15 42.38,72.65 37.67,17.69 58.76,-8.19 78.12,-20.48 3.18,-127.79 -105.16,-125.75 -120.5,-52.17zm-202.26 15.27c74.65,-20.73 82.7,7.55 33.83,-84.12 -56.54,32.34 -50.54,4.93 -33.83,84.12zm154.54 -95.7c-29.72,-55.73 34.43,-6.43 -49.92,-56.57 -26.63,-15.83 -46.25,-17.11 -70.42,-24.13 2.08,102.47 28.13,98.05 120.34,80.7zm-306.54 -90.04l-21.96 -7.37c-33.71,87.51 -16.09,93.68 50.82,128.37 3.01,-3.52 6.3,-9.2 7.96,-11.39l75.69 -83.87c-58.41,-41.99 -41.96,-4.23 -112.51,-25.74zm617.91 168.31c-116.72,157.66 11.18,126.18 -59.26,275.3 -37.7,-20.7 -28.83,16.92 -50.7,-113.03 3.46,77.05 -11.95,52.37 -27.79,73.15l-68.04 -53.08c9.72,120.23 94.37,314.91 -57.02,292.87 -19.39,-36.38 -22.21,-22.37 -17.05,-106.42 3.23,-52.57 9.07,-63.01 6.61,-121.91 -143.14,-27.94 -190.58,107.18 -335.42,142.36 -183.1,-279.08 -92.58,-431.77 -45.79,-700.48 105.18,25.68 494.37,243.28 654.46,311.24z"/>
   <path class="fil1" d="M3444.29 15125.11c-162.48,-200.78 -164.2,-591.96 -37.56,-822.11l88.44 36.42c-90.12,378.41 -120.01,358.86 36.25,736.49l-87.13 49.2z"/>
   <path class="fil1" d="M1924.35 16531.43c3.5,0.97 26.03,8.49 70.27,-9.68l-19.44 -113.27c-83.81,19.65 -100.26,55.95 -50.83,122.95zm8.97 51.03c-37.83,-41.31 -54.56,-40.12 -127.27,-54.4 31.94,-106.46 109.01,-179.16 209.25,-202.13l90.38 299.7 -172.36 -43.17z"/>
   <path class="fil1" d="M1743.49 16496.36c-64.38,-99.33 159.16,-240.98 250.06,-252.49 -18.74,78.84 26.51,19.37 -53.1,69.43 -191.69,120.55 -102.24,148.73 -196.96,183.06z"/>
   <path class="fil1" d="M2287.7 14880.68c-23.78,71.73 -32.72,45.73 18.48,101.25 82.2,1.56 94.07,-19.18 59.81,-100.24 -17.45,-7.12 -3.68,-8.21 -45,-10.68 -37.97,-2.26 -8.85,1.13 -33.29,9.67zm14.05 -126.8l5.82 34.4 -151.11 24.66c121.37,32.36 61.4,6.85 181.56,-2.97 215.58,130.61 61.29,308.08 39.06,474.68l-52.78 82.46 -244.99 -4.43c-158.46,-509.5 44.86,-521.97 49.5,-554.42l7.95 -43.35c57.95,-172.59 23.32,-71.12 -53.09,-189.5 49.14,-44.81 27.31,-39.53 111.36,-30.49 39.64,81.66 20.12,189.08 106.72,208.96z"/>
   <path class="fil1" d="M1885.85 15126.46c-22.62,-106.18 -109.53,-451.67 178.63,-343.46 -8.67,16.09 20.84,3.8 -17.03,49.53 -104.22,125.85 -43.21,357.06 -8.06,502.65 -130.72,-23.66 -122.72,-64.02 -153.54,-208.72z"/>
   <path class="fil1" d="M2377.08 15284.65c80.98,-91.79 153.73,-316.55 58.85,-434.83 -19.22,-23.96 -176.87,-132.58 68.56,-101.37 76.81,148.06 75.37,156.19 44.53,333.9 -21.15,121.83 -37.11,215.6 -159.29,239.08l-12.65 -36.78z"/>
   <path class="fil1" d="M2053.3 14682.4c76.4,-14.14 64.38,19.62 73.68,49.98 -57.45,33.19 -78.85,22.89 -155.86,28.85 16.95,-34.66 19.41,-67.2 82.18,-78.83z"/>
   <path class="fil1" d="M2301.75 14753.88l-22.84 -77.66c80.63,-17.35 62.3,-22.26 126.89,8.71 1.77,28.48 15.58,26.36 -22.63,50.65 -35.37,22.47 -31.65,14.87 -81.42,18.3z"/>
   <path class="fil1" d="M3335.24 15891.12l-88.43 35.59 -6.76 -101.06c102,35.82 -5.98,29.67 91.42,24.5l3.77 40.97z"/>
   <path class="fil1" d="M1153.22 16129.4c-4.37,-3.89 -10.73,-15.81 -13.27,-11.5l-56.36 -30.01c-22.61,-7.93 -49.82,-15.23 -82.08,-17.07 -28.76,-1.65 -62.47,1.44 -88.02,8.48 -54.77,15.12 -62.21,32.72 -78.82,50.1 22.2,54.08 36.2,74.58 147.74,82.74 128.43,9.4 129.18,5.12 170.81,-82.74zm28.04 19.62c-99.03,191.21 -343.21,52.23 -362.83,46.45 -58.54,-17.25 -160.12,7.66 -224.7,15.36 -178.13,21.22 -180.28,50.22 -232.15,-2.81l425.28 -63.18c50.76,-63.79 77.89,-96.18 195.95,-98.34 105.87,-1.93 166.8,28.15 198.45,102.52z"/>
   <path class="fil1" d="M506.88 15718.73c-43.55,44.78 -45.51,44.62 -108.45,20.74l49.59 -88.76c53.37,35.02 37.52,1.55 58.86,68.02z"/>
   <path class="fil1" d="M1209.63 15979.61c-139.56,2.29 -42.78,2.67 -79.24,-26.81 29.41,-61.71 -43.78,-34.21 71.5,-36.9l7.74 63.71z"/>
   <path class="fil1" d="M1203.23 16075.5c-41.77,-16.7 -15.55,16.15 -65.33,-50.85 74.03,4.05 24.6,2.35 65.33,50.85z"/>
   <path class="fil1" d="M1094.61 16020.25l-125.54 -19.37 -91.03 -155.43c-22,99.98 6.93,57.78 -52.82,90.82 14.32,-73.66 41.25,-83.91 42.95,-160.06l-86.06 -69.19c9.44,101.38 4.16,125.6 -32.27,184.7 -87.31,-33.84 20.43,47.64 -47.03,-36.24l-18.19 -30.62c-26.08,145.54 -111.33,112.47 -21.11,277.9l-184.1 1.34c-112.38,-502.61 356.83,-580.5 545.33,-389.71 72.88,73.77 77.53,174.47 69.87,305.86z"/>
   <path class="fil1" d="M805.27 15992.04l66.52 11.77c-38.37,54.9 -93.4,109.39 -161.98,88.66 -6.81,-14.25 -47.35,15.62 2.37,-77.15l48.95 29.3c1.53,-96.2 -57.01,-65.58 7.96,-145.57 34.6,47.68 6.37,40.5 36.18,92.99z"/>
   <path class="fil1" d="M838.33 15592.1l-99.31 -3.71c-0.12,-0.88 -7.1,-68.46 -7.02,-70.58 3.39,-80.47 2.7,-35.45 15.52,-64.07l105.21 -1.84 -14.4 140.2z"/>
   <path class="fil1" d="M984.76 15539.43l-26.54 79.2c-57.8,-8.28 -50.3,1.11 -83.52,-38.64l10.24 -65.43 99.82 24.87z"/>
   <polygon class="fil1" points="709.43,15595.68 622.75,15617.03 594.87,15542.99 682.64,15509.92 "/>
   <path class="fil1" d="M581.73 15650.45c-58.56,39.54 -21.88,27.28 -99.05,-1.49 26.24,-73.54 4.72,-50.46 83.09,-86.58l15.96 88.07z"/>
   <path class="fil1" d="M1090.31 15616.47c-33.78,55.21 -22.21,42.8 -78.54,69.81 -33.6,-74.72 -41.5,-50.86 10.45,-115.21l68.09 45.4z"/>
   <path class="fil1" d="M363.9 15875.97l11.31 -98.15c127.98,17.32 111.09,86.2 -11.31,98.15z"/>
   <path class="fil1" d="M1166.97 15745.1c-57.02,19.56 -71.98,40.35 -93.79,-14.21 -14.15,-35.42 32.06,-57.46 47.15,-69.21 38.64,36.65 39.74,38.18 46.64,83.42z"/>
   <path class="fil1" d="M1204.31 15881.11l-82.05 -20.04c-6.76,-98.58 -43.08,-57.05 56.93,-79.12l25.12 99.16z"/>
   <path class="fil1" d="M442.96 16070.53c-21.26,33.22 42.61,43.37 -75.8,27.65 -2.12,-41.02 -16.95,-52.45 17.31,-68.33 94.98,-44.04 49.68,29.86 58.49,40.68z"/>
   <path class="fil1" d="M442.96 15952.8c-31.38,53.32 41.87,30.27 -68.26,34.14 -3.66,-10.06 -25.95,-37.27 -1.45,-63.72 65.23,-70.44 67.74,27.29 69.71,29.58z"/>
   <path class="fil1" d="M298.76 14975.71c-1.4,17.56 -45.08,38.42 -29.7,0.69 5.23,-12.82 34.58,-61.84 29.7,-0.69z"/>
   <path class="fil1" d="M305.23 14916.84c6.6,41.5 -50.56,-10.92 -16.72,-6.87 42.5,5.09 12.97,-16.67 16.72,6.87z"/>
   <path class="fil1" d="M803.75 14696.19c12.03,-83.48 -19.43,-130.4 -95.24,-96.09 -66.46,110.04 20.32,136.91 95.24,96.09zm-513.32 70.5c-18.71,-122.1 23.43,-229.93 129.22,-256.67 32.33,-8.17 349.41,-5.36 379.29,4.11 125.1,39.69 237.36,336.83 -51.18,485.42l-38.85 -90.95 -418.48 -141.91z"/>
   <path class="fil1" d="M468.87 14991.18c-101.63,65.09 -96.73,23.84 -121.84,10.92 -61.11,-132.08 74.53,-52.3 -12.94,-123.76 -31.65,-25.85 -228.81,-2.5 -18.01,213.03 3.94,-2.84 9.48,-6.92 11.62,-8.8 2.07,-1.82 8.76,-6.54 11.1,-8.71l31.76 -37.68c-3.08,47.83 -2.68,43.41 -25.17,72.6 127.99,6.71 267.32,-28.91 256.93,-145.85 -85.57,-26.46 -76.35,-8.33 -133.45,28.25zm-309.49 -173.65c20.34,-26.34 37.83,30.93 12.38,-30.98l-25.39 -22.96c60.01,-1.61 464.39,137.64 554.69,181.48 -50.4,239.73 -312.27,287.37 -439.63,205.3 -107.49,-69.26 -145.4,-164.01 -71.52,-277.87 -53.91,-16.51 -45.33,5.94 -92.29,-31.9l61.76 -23.07z"/>
   <path class="fil1" d="M547.59 14996.55c40.16,37.07 15.29,35.95 -6.51,10.84 -29.58,-34.06 -15.3,-30.98 6.51,-10.84z"/>
   <path class="fil1" d="M422.76 15062.15c-29.65,-14.31 20.23,-45.15 21.34,-2.04l-21.34 2.04z"/>
   <path class="fil1" d="M649.65 14374.63c61.22,4.21 0.36,-3.92 9.85,21.71l6.14 19.54c0.36,-2.71 1.98,7.41 3.63,10.85 120.21,-55.65 101.78,-3.26 165.19,7.12 -317.37,37.06 -166.25,115.73 -368.77,-19.6 -9.24,-6.17 -23.22,-0.19 -29.52,-18.31 -2.78,-8.01 -10.75,-6.41 -15.93,-9.93 146.04,-9.33 102,49.14 167.6,-15.68l10.06 66.13 51.75 -61.83z"/>
   <path class="fil1" d="M491.07 15064.19c-55.06,-71.84 -0.15,-39.01 7.8,-48.02 16.2,65.19 15.98,19.2 -7.8,48.02z"/>
  </g>
 </g>
</svg>
