<?xml version="1.0" encoding="UTF-8"?>
<!DOCTYPE svg PUBLIC "-//W3C//DTD SVG 1.1//EN" "http://www.w3.org/Graphics/SVG/1.1/DTD/svg11.dtd">
<!-- Creator: CorelDRAW 2017 -->
<svg xmlns="http://www.w3.org/2000/svg" xml:space="preserve" width="64.4312mm" height="49.1912mm" version="1.1" style="shape-rendering:geometricPrecision; text-rendering:geometricPrecision; image-rendering:optimizeQuality; fill-rule:evenodd; clip-rule:evenodd"
viewBox="0 0 6443.12 4919.12"
 xmlns:xlink="http://www.w3.org/1999/xlink">
 <defs>
  <style type="text/css">
   <![CDATA[
    .str0 {stroke:#373435;stroke-width:20;stroke-miterlimit:22.9256}
    .str2 {stroke:#201E1E;stroke-width:156.5;stroke-linecap:round;stroke-linejoin:round;stroke-miterlimit:22.9256}
    .str1 {stroke:#FEFEFE;stroke-width:195.63;stroke-linecap:round;stroke-linejoin:round;stroke-miterlimit:22.9256}
    .fil5 {fill:none;fill-rule:nonzero}
    .fil1 {fill:#FEFEFE}
    .fil0 {fill:#E6E7E8}
    .fil2 {fill:#201E1E}
    .fil3 {fill:#201E1E}
    .fil4 {fill:#FEFEFE;fill-rule:nonzero}
   ]]>
  </style>
 </defs>
 <g id="Capa_x0020_1">
  <metadata id="CorelCorpID_0Corel-Layer"/>
  <g id="_2924047729600">
   <path class="fil0" d="M3306.85 1371.68c1006.48,0 1822.38,791.26 1822.38,1767.32 0,976.06 -815.9,1767.32 -1822.38,1767.32 -1006.48,0 -1822.39,-791.26 -1822.39,-1767.32 0,-976.06 815.91,-1767.32 1822.39,-1767.32z"/>
   <polygon class="fil1 str0" points="3370.06,542.83 3460.82,265.17 3008.45,291.83 1824.3,820.49 985.76,1436.06 487.02,2091.7 196.89,2947.06 427.17,3197.52 3998.75,4117.7 "/>
   <path class="fil2" d="M3560.43 3642.37c20.22,-18.39 52.5,-70.25 67.91,-78.74 43.57,-23.98 77.55,2.92 83.35,43.54 16.68,116.81 -90.64,221.94 -233.22,175.75l-46.04 -27.26c-68.04,-65.91 -91.59,-186.28 26.95,-207.67 51.23,38.11 10.46,76.41 101.05,94.38z"/>
   <path class="fil2" d="M3091.2 2830.99c-114.68,-21.37 -87.11,13.72 -99.23,23.9 15.57,106.77 191.82,97.27 134.77,-12.24 -6.34,-2.62 -2.69,-5.53 -35.54,-11.66zm-120.94 122.39c-9.21,-63.9 3.43,-124.52 19.06,-181.81 25.52,53.75 -14.85,17.73 49.96,28.14 17.67,2.84 39.77,0.74 61.01,2.5 148.46,12.24 114.09,151.11 31.91,164.35 -37.57,6.05 -53.05,-7.95 -83.27,-14.21l-78.67 1.03z"/>
   <path class="fil2" d="M3560.43 3642.37c-90.59,-17.97 -49.82,-56.27 -101.05,-94.38 -118.54,21.39 -94.99,141.76 -26.95,207.67l46.04 27.26c142.58,46.19 249.9,-58.94 233.22,-175.75 -5.8,-40.62 -39.78,-67.52 -83.35,-43.54 -15.41,8.49 -47.69,60.35 -67.91,78.74zm-738.05 -655.48c-358.56,39.09 -379.2,572.72 10.06,630.02 63.97,9.42 215.91,-3.07 253.55,-41.71 39.86,-40.92 -40.19,-154.59 -62.59,-198.7 -62.17,-122.49 -147.54,-263.45 -201.02,-389.61zm-638.25 -46.5c-34.91,-21.86 -51.83,-12.2 -55.88,-11.6l-13.16 2.8c-67.51,5.81 -34.56,-12.81 -108.62,17.53 37.24,66.4 77.87,57.11 130.34,58.95 -48.83,57.85 2.47,63.54 63.57,54.16 67.61,-10.39 102.72,-23.34 166.17,-2.53 -13.74,11.6 -4.77,7.02 -27.32,16.78 -102.32,44.24 -228.85,3.03 -282.83,2.93 -26.72,52.54 -39.88,15.36 -78.86,74.44 62.91,24.53 10.3,26.62 71.28,15.66 43.76,-7.86 25.38,-15.33 79.33,-15.02 -108.92,54.69 -114.04,1.51 -170.18,29.43 -36,17.24 -8.18,6.37 -19.71,24.03 -43.31,66.38 -23.49,11.39 -45.42,77.57 14.38,15.16 3.38,7.27 30.28,14.57 13.33,32.57 38.74,1.74 68.69,-10.51 -31.05,19.84 -23.86,7.73 -31.9,48.5 40.9,2.07 30.67,12.91 73.04,-29.35l-5.47 58.9c78.76,-14.76 54.45,-28.61 94.16,-29.58 6.23,-0.17 8.55,28.92 58.16,-38.66l10.32 -13.78c-0.84,44.97 12.68,11.23 -11.88,36.82 20.19,17.23 -9.5,2.45 23.95,14.65 2.49,0.9 17.42,2.89 21.41,3.84 -79.72,33.76 -63.64,48.16 -70.54,129.3l36.12 -10.44c46.67,-12.55 40.46,-6.74 56.9,-46.27 9.87,36.3 -5.44,24.91 27.54,28.16 27.88,-58.88 33.57,-107.77 53.45,-151.24 8.23,22.85 2.71,-2.72 -7.3,39.86 -23.67,100.69 54.05,160.11 59.42,7.61 67.58,128.02 19.75,-120.68 26.47,-159.27 22.31,-128.26 106.23,-87.58 178.87,-139.18 -30.84,-19.68 -73.2,17.37 -125.63,21.33 -71.39,5.39 -69.38,-30.63 -107.13,-64.64l-3.43 -55.01c-32.63,-19.4 -19.14,-36.53 -62.45,-34.95 -53.55,1.96 -8.78,-15.92 -81.85,-19.44 -1.56,2.86 -3.66,4.28 -4.18,8.86l-15.73 44.79zm-237.91 -317.95c30.28,48.61 17.88,49.06 69.78,88.65 81.34,62.08 25.47,44 146.6,73.53 88.49,21.57 74.8,25 175.6,13.2 10.6,-54.05 -3.23,-255.8 -28.9,-293.81 9.96,-118.4 -23.14,-242.43 -30.1,-362.38 -167.24,-2.83 -277.73,43.24 -340.54,139.91 -54.35,83.64 -76.12,290.06 7.56,340.9zm950.38 -112.04c68.27,-65.84 244.71,-71.7 153.65,-219.15 -91.94,-148.87 -140.02,-1.53 -243.34,43.83 -223.56,-221.43 -432.22,-76.5 -344.75,212.56l77.79 157.92c122.88,171.76 478.95,144.51 356.65,-195.16zm315.19 -355.06c-108.11,151.28 141.54,257.24 255.79,118.04 92.91,-113.22 -42.53,-319.44 -98.28,-211.02 -15.71,30.53 -6.36,34.98 -11.45,65.15 -18.33,108.6 -68.27,36.77 -146.06,27.83zm-1661.92 181.58c421.34,141.61 358.98,-261.21 243.58,-437.19 -148.21,-226.03 -511.47,-262.24 -461.97,123.76l10.51 -16.15c72.49,-117.56 140.64,-56.41 169.72,8.74l-45.88 30.08 -31.74 -65.5c-83.26,-0.89 -104.81,45.88 -69.68,108.08 -56.09,30.97 -180.8,89.53 -189.03,153.97 -10.7,83.85 71.03,173.02 160.25,160.31 65.52,-55.81 33.77,-83.86 144.34,-133.16l59.69 47.56c66.52,-18.49 90.53,-36.36 54.64,-94.99 -65.2,-106.46 8.62,45.88 -22.24,-32.3 27.52,-11.35 29.85,-14.93 57.95,-25.95 16.17,48.16 42.88,127.07 -21.72,156.38 -19.61,8.9 -14.82,4.44 -29.19,8.52 -3.94,1.13 -17.59,8.75 -19.6,5.19 -1.64,-2.89 -6.62,1.22 -9.63,2.65zm1412.66 -241.77c233.6,56.37 452.4,-111.43 489.01,-304.85 47.93,-253.23 -158.03,-391.54 -395.34,-396.56 -24.31,122.29 -120.02,617.95 -93.67,701.41zm-469.99 -982.56c-291.71,-30.16 -474.29,166.23 -526.76,407.49 -47.67,219.16 147.44,491.81 392.75,527.71 210.15,30.77 533.21,-64.71 541.26,-398.46 7.58,-314.34 -111.63,-506.18 -407.25,-536.74zm738.12 -278.47c-2.4,-55.4 -20.91,-71.48 -49.06,-91.77 -35.03,59.26 -47.18,74.47 -9.08,131.69 -20.13,10.67 12.06,8.26 -17.11,-5.34 -0.28,-0.14 -1.44,-6.54 -28.37,-15.18 7.91,72.94 48.34,193.11 71.13,291.26 -117.11,-59.69 -61.32,-210.28 -88.03,-315.51 -32.85,6.73 -13.27,-32.4 -27.15,29.49 -7.42,-63.31 -7.02,-67.39 -56.22,-96.16 -18.78,103.31 -2.95,58.42 14.41,147.07 -44.45,-46.05 -21.16,-112.1 -62.8,-156.66 -43.42,20.94 -21.97,2.5 -16.93,52.62 -22.89,-51.83 -13.62,-47.08 -68.41,-49.84 -32.13,39.01 -11.85,38.48 -10.75,73.44 0.04,1.32 -0.07,4.85 -0.11,6.13 -1.23,35.14 -18.35,43.82 40.53,63.59l-38.25 33.36c57.22,96.87 32.78,32.78 33.19,75.89 125.13,78.93 24.51,-40.61 241.73,157.06 -113.01,7.55 -138.38,-128.81 -198.87,-101.13l-5.96 42.16c-55.88,-29.3 -70.52,-54.86 -135.18,-23.09 44.23,106.4 83.22,13.06 67.25,91.32 101.8,12.69 36.79,5.84 55.51,40.87 12.74,23.86 23.74,33.46 59.76,17.48 25.22,28.96 2.59,-4.71 14.18,34.94 69.67,-7.26 109.67,-75.48 170.01,-68.7 61.24,6.88 82.19,84.07 131.33,101.73 -16.67,-62.2 -93.44,-62.34 -85.04,-168.28 5.41,-68.04 72.36,-130.77 100.34,-160.09 2.47,-70.77 -4.56,-3.05 -7.94,-39.96 -6.52,-71.39 24.09,-77.71 -63.68,-51.58l-2.95 -78.35c-25.82,14.11 -13.55,-4.3 -27.48,31.54zm-157.04 1793.74c-62.29,41.24 -63.14,64.22 -84.3,143.71 -15.63,57.29 -28.27,117.91 -19.06,181.81l7.67 49.1c19.11,163.45 153.82,342.03 262.91,403.26 136.47,76.59 338.27,69.32 492.05,4.08 52.28,-22.17 25.35,-27.89 42.15,-8.37 35.73,50.49 84.16,486.13 100.25,584.68 -76.4,-2.82 -947.71,-241.25 -1105.63,-281.21 -162.23,-41.05 -1036.47,-250.69 -1111.07,-296.36 63.89,-93 157.04,-192.55 165.71,-355.73 3.94,-74.39 -14.4,-153.84 -45.2,-216.28 -16.16,-32.74 -81.43,-129.95 -108.16,-144.67l-21.24 -25.95c-187.45,-255.88 -1007.72,-221.94 -892.61,514.26l-202.45 -50.2c35.54,-243 19.51,-341.9 151.71,-517.85 46.71,-62.17 106.53,-109.49 161.94,-170.03 46.06,-50.33 108.53,-97.68 148.8,-183.11 118.65,-251.71 -55.77,-381.1 403.51,-594.97 84.28,-39.24 154.69,-60.7 220.78,-109.92 148.06,-110.29 146.22,-268.76 258.55,-405.82 120.1,-146.56 307.13,-96.95 519.88,-144.64 228.65,-51.25 272.94,-146.21 393.15,-271.16 152.86,-158.86 322.44,-25.27 535.31,-51.86 28.38,47.84 246.49,1524.92 279.95,1728.95 -133.3,-30.01 -232.02,-41.19 -352.6,15.94 -74.59,35.34 -188.46,141.98 -202,202.34z"/>
   <path class="fil2" d="M14.02 2943.95l0 -134.24c72.55,-126.07 22.18,-134.11 156.19,-229.81 82.35,-58.81 171.77,-81.36 171.68,-216.58 -0.2,-281.63 -61.8,-416.65 222.88,-545.19 100.63,-45.44 158.26,-85.7 210.65,-170.26 66.86,-107.93 44.05,-192.78 91.36,-302.43 32.88,-76.18 116.7,-163.9 192.63,-188.4 135.54,-43.74 198.2,0.94 298.39,-95.72 144.68,-139.59 99.58,-346.05 322.4,-440.78 234.65,-99.76 431.08,8.77 575.55,-198.75 352.77,-506.71 556.87,-54.13 807.94,-250.94 145.3,-113.91 74.25,-67.48 233.14,-158.05l97.28 0c77.67,58.06 172.14,95.5 187.23,295.39 11.42,151.3 -47.59,277.76 -159.26,320.39 -41.55,-104.79 -31.2,-227.98 -131.17,-263.05 -98.97,-34.71 -207.08,79.62 -257.2,120.18 -194.24,157.17 -374.29,-136.16 -621.85,104.35 -59.48,57.78 -95.96,170.78 -184.39,209.1 -99.7,43.2 -238.18,29.91 -345.81,61.55 -279.14,82.07 -186.76,298.75 -367.57,430.36 -153.95,112.07 -346.99,-56.65 -427.15,361.84 -56.58,295.41 -322.79,227.99 -395.56,403.08 -49.47,119.02 -25.68,213.15 -26.84,343.78 -1.82,202.55 -265.97,100.46 -303.85,493.29 -13.15,136.42 29.39,228.95 136.24,264.21 -38.23,42.01 -94.18,48.81 -150.95,46.97 -245.4,-7.98 -291.05,-186.39 -331.96,-260.29z"/>
   <path class="fil2" d="M3751.73 2627.34c-5.76,45.21 0.69,69.87 13.72,104.46l38.73 196.98c3.5,30.77 0.04,71.28 16.9,82.43 -8.82,155.94 190.37,979.21 177.68,1106.49 -257.94,-57.57 -538.83,-139.59 -796.16,-205.88l-1602.12 -415.77c-269.01,-68.23 -542.48,-151.99 -783.84,-211.24l3106.29 741.95c-52.81,-482.5 -479.77,-2902.58 -482.3,-3130.5l311.1 1731.08z"/>
   <path class="fil2" d="M3022.04 1962.54c51.06,-20.63 55.62,-1.22 115.87,-8.51 -37.96,-62.2 -52.58,6.42 -65.34,-88.6 50.78,9.28 84.17,33.31 123.56,5.19 -47.16,-40.95 -59.49,-3.84 -82.24,-61.52 29.97,-11.81 81.12,14.53 128.42,15.29 -21.67,-74.39 -44.58,-27.52 -78.75,-76.8 35.33,-10.42 65.45,-11.28 92.16,-28.88 -61.54,-38.86 -70.76,19.05 -123.6,-20.34 44.87,-34.92 79.01,18.74 121.98,-49.21 -46.69,-23.35 -15.08,-6.91 -60.55,-5.03 -64.52,2.67 -31.92,13.14 -61.67,-13.24 106.93,-20.02 88.81,-36.26 99.68,-58.92l-128.29 7.33c31.86,-177.59 267.87,3.97 223.08,221.49 -15.21,73.86 -54.03,155.87 -101.86,191.97 -55.12,41.62 -200.48,59.01 -202.45,-30.22z"/>
   <path class="fil2" d="M2217.47 2576.75c15.29,12.66 34.78,4.45 -5.87,49.62 -45.04,50.07 -9,-11.83 -40.49,37.89l99.16 -6.77c13.9,78.49 -87.3,77.93 -133.29,56.16 -39.48,-18.69 -77.54,-71.01 -110.74,-101.58 -0.02,-101.98 -66.42,-180.68 18.13,-285.59 15.35,-19.04 61.59,-73.2 92.19,-81.51 49.46,-13.43 85.52,17.44 85.21,61.7l-116.27 -9.28c16.97,45.46 5.54,22.23 35.13,41.28 8.33,5.36 15.49,6.94 24.21,13.5 23.92,18.01 11.1,2.82 29.54,30.51 -52.7,-10.19 -78.63,-35.57 -113.54,-7.62 33.47,43.29 29.13,16.11 83.49,35.88l24.61 13.33c-48.96,18.89 -71.58,-16.33 -108.04,12.31l85.27 30.52c-36.41,20.12 -64.5,16.03 -79.58,55.6 56.24,34.14 67.31,-19.67 116.41,0 -28.57,64.34 -44.51,6.25 -70.5,61.52 32.5,10.54 57.6,-0.7 84.97,-7.47z"/>
   <path class="fil2" d="M2819.94 3137.88c-29.24,78.48 -59.86,-16.79 -103.06,67.93l103.1 13.02c-18.15,39.35 -62.1,-4.89 -105.71,42.08 51.45,41.4 81.04,-6.89 120.08,12.31 -36.95,31.46 -45.12,17.18 -96.43,36.91 14.69,37.98 38.95,11.19 90.34,12.78 -33.73,52.45 -51.21,15.22 -55.33,83.37 71.46,-5.98 58.8,-40.8 117.62,-45.62 -16.3,51.82 -35.81,41.45 -62.2,86.26 70.22,-8.87 55.96,-29.49 113.36,-41.68 -2.37,53.94 -8.55,44.99 -23.65,66.61 -17.83,25.52 2.9,-11.96 -18.27,23.36 60.31,-10.02 57.09,-30.28 115.44,-24.57 -2.32,118.83 -206.49,139.8 -313.6,-43.03 -101.47,-173.26 20.83,-406.64 118.31,-289.73z"/>
   <path class="fil2" d="M1335.99 3174.79c-2.85,36.85 -54.07,82.51 -92.48,82.58 -42.61,0.08 -74.8,-40.26 -76.64,-82.9 -5.46,-125.79 177.13,-103.8 169.12,0.32z"/>
   <path class="fil2" d="M3372.87 3150.2c145.73,8.21 139.61,143.82 43.18,165.15 -89.78,19.87 -157.44,-98.43 -43.18,-165.15z"/>
   <path class="fil2" d="M1076.06 2834.16c-4.42,72.62 2.47,101.84 -77.76,140.1 -53.98,-15.28 -92.43,-40.09 -83.58,-104.57 8.96,-65.33 54.69,-68.42 124.04,-70.76 17.08,25.91 13.85,20.18 37.3,35.23z"/>
   <path class="fil2" d="M3554.62 2977.87l7.38 -96.9c23.9,-33.27 33.81,-33.96 87.36,-40.04 58.52,69.03 65.13,26.78 62.12,145.33 -75.18,23.03 -82.88,48.49 -156.86,-8.39z"/>
   <path class="fil2" d="M3408.01 2874.36c13,67.18 1.13,63.78 -9.95,121.78 -68.09,7.1 -79.38,11.16 -136.79,-18.47 -5.49,-28.93 -36.97,-124.55 63.54,-132.56 28.98,-2.31 43.08,9.77 69.01,22.63l14.19 6.62z"/>
   <path class="fil2" d="M1397.46 2867.26l-6.55 42.96c-33.34,21.16 -65.62,104.61 -134.36,30.4 -11.22,-12.12 -20.97,-27.75 -22.9,-49.54 -4.43,-50.03 26.2,-68.88 59.93,-92.29 80.84,11.31 66.62,20.31 103.88,68.47z"/>
   <path class="fil2" d="M1681.96 3137.88c-47.46,162.67 -221.75,89.77 -134.98,-63.64 80.87,-16.49 103.5,-7.91 134.98,63.64z"/>
   <path class="fil2" d="M3557.36 2673.86c-70.14,-9.33 -98.4,-44.16 -95.82,-116.01l45.37 -46.43c127.87,1.31 159.76,97.01 50.45,162.44z"/>
   <path class="fil2" d="M2549.67 1613.54c80.37,168.17 -142.75,196.9 -119.84,26.63 38.38,-34.95 51.49,-45.64 119.84,-26.63z"/>
   <path class="fil2" d="M2094.57 1612.16c99.16,-62.9 155.13,-22.17 123.86,101.77 -60.11,25.18 -73.57,20.23 -126.81,-14l2.95 -87.77z"/>
   <path class="fil2" d="M1567.72 2795.46l79.08 -0.21c7.25,24.69 18.16,28.3 34.47,59.64 8.98,83.26 -141.29,136.7 -142.32,11.8 -0.38,-46.02 16.56,-40.85 28.77,-71.23z"/>
   <path class="fil2" d="M2748.88 1504.3c-92.17,22.72 -129.63,-1.13 -114.67,-105.48 91.71,-73.9 164.68,-5.68 114.67,105.48z"/>
   <path class="fil2" d="M3338.57 2657.11c-36.38,39.16 -32.4,53.16 -109.23,50.1 -2.48,-2.26 -6.71,-8.4 -7.83,-6.32 -1.39,2.56 -9.67,-8.41 -14.07,-14.17 -17.36,-22.68 1.47,10.62 -16.6,-27.49 -7.44,-65.89 22.81,-97.65 85.91,-95.94 6.42,6 23.49,21.05 32.52,33.24 21.88,29.54 17.98,24.05 29.3,60.58z"/>
   <path class="fil2" d="M2804.34 1745.77c-6.62,99.55 -47.38,109.46 -127.38,82.65 -40.16,-121.16 49.96,-179.29 127.38,-82.65z"/>
   <path class="fil2" d="M2289.16 1427.7c71.73,-77.96 157.34,-30.52 131.06,56.03 -22.01,72.48 -145.66,66.45 -131.06,-56.03z"/>
   <path class="fil2" d="M2570.96 1314.58c-92.76,27.78 -116.69,-25.47 -98.33,-99.47 90.01,-41.14 148.1,-3.48 98.33,99.47z"/>
   <path class="fil2" d="M3650.35 3303.49c-9.34,-51.46 -5.81,-68.57 17.97,-105.05l64.43 2.5c31.77,14.64 76.65,160.22 -82.4,102.55z"/>
   <path class="fil2" d="M1232 2724.37l-73.69 -4.69c-10.53,-59.58 -49.53,-97.91 49.15,-125.03 14.67,8.66 18.12,6.16 36.3,27.42 38.95,45.57 6.35,50.4 -11.76,102.3z"/>
   <path class="fil2" d="M3114.38 3017.93l39.06 -1.49c34.24,15.75 38.64,19.6 55.26,59.92 -37.13,93.07 -127.26,83.94 -128.25,-25.95l33.93 -32.48z"/>
   <path class="fil2" d="M972.2 3148.82c14.59,103.01 -61.47,99.23 -115.69,58.73 -13.41,-105.37 62.52,-106.94 115.69,-58.73z"/>
   <path class="fil2" d="M2485.99 1969.05c-42.36,-59.45 54.49,-121.25 89,-63.49 38.25,64.03 -45.64,124.32 -89,63.49z"/>
   <path class="fil2" d="M2187.71 1435.28c-85.05,29.67 -99.6,-20.36 -85.85,-86.32 63.61,-24.98 129.87,-3.57 85.85,86.32z"/>
   <path class="fil2" d="M2190.12 3285.61c12.49,-50.47 41.79,-82.73 71.76,-114.64 32.5,-34.61 62.53,-51.34 125.93,-62.06 -24.52,37.76 11.52,1.85 -29.94,35.53 -9.75,7.92 -17.23,7.96 -31.05,18.18 -48.9,36.14 -46.45,98.39 -136.7,122.99z"/>
   <path class="fil2" d="M2243.22 1870.62c26.85,-26.86 43.99,-39.98 92.01,-20.1 31.17,91.4 -12.22,110.14 -85.4,83.3l-6.61 -63.2z"/>
   <path class="fil2" d="M2866.1 2630.84c-63.34,4.51 -77.36,-20.85 -109.24,-55.58l35.66 -39.21c48.69,48.33 10.7,98.21 111.33,32.67 -12.73,48.58 -6.57,35.97 -37.75,62.12z"/>
   <path class="fil2" d="M2737.39 2277.62c-8.66,9.77 -8.21,8.77 -20.33,20.14 -65.37,61.38 -25.74,56.2 3.65,99.07l-61.74 19.11c-13.96,-90.36 -19.6,-134.05 78.42,-138.32z"/>
   <path class="fil3" d="M5402.33 3094.6c-977.93,196.66 -2009.78,343.89 -3001.06,512.61 -121.2,20.69 -321.48,40.97 -404.88,90.35l201.4 -0.32 -341.44 113.74 341.4 5.92c-63,-0.63 -288.65,84.29 -331.65,121.48l281.36 -7.54c-105.49,78.91 -159.06,36.63 -264.06,121.16l304.44 -6.67c-31.85,9.77 -93.86,37.56 -140.32,52.3l-113.36 35.89c-5.85,2.52 -12.25,5.45 -17.76,8.09 -31.15,14.95 -33.02,17.25 -50.09,29.74l323.04 -6.54 -335.34 114 299.62 2.94 -310.59 117.47 299.61 -1.91c-27.46,19.72 2.33,5.97 -50.92,31.16 -31.65,14.96 -40.25,16.47 -74,27.15 -25.8,8.17 -57.41,15.68 -75.25,23.67 -72.09,32.27 -36.5,15.63 -69.41,42.4l324.53 -7.72 -339.34 113.51 284.31 3.5c-59.89,54.77 -102.2,43.86 -178.54,85 455.26,-19.88 4098.07,-671.18 4392.18,-741.55l-273.16 -4.83c95.39,-36.66 257.13,-73.16 330.55,-124.22l-323.9 5.63 331.69 -107.27 -279.63 -8.44c34.76,-29.13 -8.83,-3.17 49.57,-32.82 27.82,-14.12 43.6,-18.64 74.29,-28.65 26.34,-8.59 48.39,-12.69 75.76,-23.61l-261.69 -28.7 344.57 -115.85 -341.93 -4.38 346.78 -108.99c-57.87,-25.76 -205.4,-7.65 -294.86,-5.65 26.62,-22.22 0.97,-8.36 47.91,-31.03 112.88,-54.52 123.69,-19.29 219.12,-89.55l-323.82 5.35 340.96 -114.73 -327.13 -3.77 322.54 -113 -286.01 -2.98 100.97 -51.6c40.6,-15.24 66.91,-21.76 100.86,-36.43l-927.32 145.69z"/>
   <path class="fil4" d="M2646.18 4387.1l-104.43 -609.05c-0.35,-2.02 0.27,-4.06 2.02,-5.96 1.61,-1.89 4.57,-3.35 8.82,-4.73 4.1,-1.34 7.77,-2.45 10.99,-3.32 3.06,-0.85 7.53,-1.93 13.43,-3.11 6.05,-1.2 9.94,-1.87 12.13,-2.24l370.85 -63.59c30.41,-5.21 60.07,-5.33 88.83,-0.46 28.78,5.01 55.16,14.77 79.34,29.4 24.01,14.65 44.75,35.49 61.86,62.24 17.13,26.91 28.79,58.46 34.99,94.62 4.6,26.82 5.68,51.82 3.26,75.18 -2.43,23.2 -7.43,43.64 -14.9,60.96 -7.58,17.52 -17.65,33.68 -30.16,48.67 -12.68,15.01 -26.06,27.73 -40.03,37.99 -14.12,10.29 -30.02,19.59 -47.66,28.07 -17.64,8.48 -34.12,15.32 -49.43,20.51 -15.19,5.02 -31.39,9.71 -48.64,13.96l-87.61 15.02c5.73,48.44 13.87,102.41 24.08,161.96l8.8 51.28c0.96,11.23 -3.41,17.6 -12.76,19.2l-259.4 44.48c-11.56,-19.68 -19.62,-43.34 -24.38,-71.08zm202.62 -364.34l18.11 17.59c12.46,-2.14 24.31,-5.13 35.37,-8.96 11.08,-3.66 21.75,-8.86 31.88,-15.25 10.14,-6.39 18.63,-13.94 25.36,-22.48 6.71,-8.53 11.56,-18.67 14.46,-30.72 2.94,-11.9 3.26,-24.96 0.88,-38.83 -1.84,-10.75 -5.03,-19.99 -9.27,-27.93 -4.38,-7.76 -8.99,-14.03 -14.11,-18.6 -4.96,-4.61 -11.38,-8.33 -19.24,-11.15 -7.84,-2.67 -15.05,-4.48 -21.63,-5.44 -6.58,-0.96 -14.78,-0.99 -24.47,-0.46 -9.85,0.57 -17.76,1.28 -24.17,2.22 -6.27,0.91 -14.22,2.28 -23.88,3.93 -9.62,6.63 -6,58.64 10.71,156.08zm487.26 291.46l-102.86 -599.85c-0.08,-2.39 2.04,-5 6.22,-7.8 4.16,-2.81 6.73,-4.69 7.51,-5.79l245.67 -42.12 101.92 594.4c-0.46,6.66 -1.14,11.11 -2.15,13.69 -1,2.57 -3,4.04 -6.11,4.58l-250.2 42.89zm307.08 -73.35l-4.84 -28.21c-0.43,-2.5 -1.02,-6.89 -1.81,-13.33 -0.78,-6.45 -1.48,-11.46 -2.12,-15.21l-4.06 -23.69c-6.79,-39.6 -8.87,-61.06 -6.29,-64.71 33.13,-54.79 82.37,-141.06 147.47,-258.29l31.08 -51.87c-8.38,0.8 -30.53,4.44 -66.81,10.98 -36.11,6.51 -59.16,10.62 -68.82,12.28l-11.84 2.03c-3.43,0.59 -8.39,1.6 -15.05,3.06 -6.65,1.46 -11.61,2.47 -15.04,3.06l-29.15 5c-7.97,-2.49 -12.59,-6.99 -13.74,-13.7l-27.15 -158.37 506.16 -86.79c5.45,-0.94 9.04,-1.55 10.94,-1.72 1.9,-0.16 4.08,0.43 6.87,1.72 2.78,1.28 4.65,3.69 5.88,7.17 1.27,3.64 2.46,8.73 3.61,15.43 0.62,3.59 1.08,8.15 1.34,13.41 0.26,5.25 0.5,8.57 0.69,9.67l2.84 5.28c1.92,11.23 3.79,22.14 5.45,32.77 1.69,10.78 2.91,19.73 3.85,27.1 0.94,7.38 1.73,13.83 2.35,19.33 0.66,5.68 1.22,9.91 1.57,12.89 0.38,3.16 0.51,4.9 0.57,5.2 -1.24,6.8 -1.88,10.59 -1.72,11.53l1.26 7.33c-18.01,29.72 -44.31,71.95 -78.56,126.76 -34.4,54.84 -58.31,93.28 -71.7,115.32l-15.72 29.01 -17.92 27.46 228.37 -39.15c9.83,-1.69 16.74,9.64 20.94,34.12l20.42 119.09c1.58,9.2 0.63,15.78 -2.69,19.88 -3.49,3.97 -9.74,6.81 -18.79,8.36l-510.68 87.56c-2.03,-1.58 -5.24,-4.4 -9.63,-8.45 -4.24,-4.1 -6.85,-7.18 -7.53,-9.31zm567.27 -97.26l-4.84 -28.22c-0.43,-2.49 -1.02,-6.89 -1.81,-13.32 -0.78,-6.46 -1.48,-11.47 -2.12,-15.22l-4.06 -23.69c-6.79,-39.59 -8.87,-61.06 -6.29,-64.71 33.13,-54.78 82.37,-141.06 147.48,-258.28l31.07 -51.87c-8.38,0.8 -30.53,4.43 -66.81,10.98 -36.11,6.5 -59.15,10.62 -68.81,12.27l-11.85 2.03c-3.43,0.59 -8.39,1.6 -15.05,3.06 -6.65,1.47 -11.61,2.48 -15.04,3.07l-29.14 4.99c-7.98,-2.48 -12.6,-6.99 -13.75,-13.69l-27.15 -158.38 506.16 -86.79c5.45,-0.93 9.04,-1.55 10.94,-1.71 1.9,-0.16 4.08,0.43 6.87,1.71 2.78,1.28 4.65,3.69 5.88,7.17 1.27,3.64 2.46,8.73 3.61,15.43 0.62,3.59 1.08,8.16 1.34,13.41 0.26,5.25 0.51,8.58 0.69,9.67l2.84 5.29c1.92,11.23 3.79,22.14 5.45,32.77 1.69,10.78 2.91,19.72 3.85,27.1 0.94,7.38 1.73,13.83 2.35,19.33 0.66,5.67 1.22,9.91 1.57,12.89 0.38,3.15 0.52,4.89 0.57,5.2 -1.24,6.8 -1.88,10.59 -1.72,11.52l1.26 7.34c-18.01,29.72 -44.31,71.94 -78.56,126.76 -34.4,54.84 -58.31,93.27 -71.69,115.31l-15.73 29.02 -17.91 27.46 228.36 -39.16c9.83,-1.68 16.74,9.64 20.94,34.12l20.42 119.1c1.58,9.19 0.63,15.78 -2.69,19.88 -3.49,3.96 -9.74,6.8 -18.79,8.35l-510.67 87.56c-2.04,-1.57 -5.25,-4.39 -9.64,-8.45 -4.23,-4.09 -6.85,-7.17 -7.53,-9.3zm802.84 -215.17c-0.82,7.36 -1.42,16.93 -1.35,28.64 -0.07,11.73 -0.39,21.09 -0.98,27.93 -0.45,6.81 -2.07,14.15 -4.9,22.02 -2.66,7.83 -7.84,14.18 -15.22,18.81 -7.55,4.67 -17.7,8.17 -30.48,10.36l-197.36 33.84 -2.64 -15.42c7.9,-51.27 18.69,-129.67 32.37,-235.19 13.68,-105.53 24.69,-185.41 32.84,-239.92l0.16 0.94c5.39,-31.25 12.57,-80.15 21.86,-146.72 0.2,-0.69 0.53,-1.55 1.01,-2.58 2.02,-5.01 3.92,-8.86 6,-11.79l246.93 -40.41c41.93,-7.19 65.78,-7.59 71.24,-0.98l2.03 11.85c1.1,2.69 5.74,9.12 13.74,19.3 44.99,85.52 77.95,147.59 98.71,186.39l0.94 5.46c2.74,8.51 7.13,18.19 13.27,28.69 6.31,10.64 13.36,21.79 21.66,33.68 8.14,11.92 14.09,21.33 17.68,28.25l29.52 62.67c16.82,33.54 40.5,78.1 71.37,133.63l-0.16 -0.94 1.58 9.2c1.66,4.04 4.98,9.41 9.83,16.13 4.84,6.71 8.06,11.45 9.53,14.4 1.44,8.42 0.69,14.33 -2.5,17.28 -3,3.09 -9.65,5.51 -19.62,7.22l-211.85 36.33c-5.41,0.28 -8.76,0.37 -10.37,0.33 -1.61,-0.04 -4.07,-0.27 -7.34,-0.67 -3.43,-0.38 -5.83,-1.25 -7.47,-2.4 -1.67,-1.33 -2.8,-3.22 -3.51,-5.5l-29.38 -66.53c-2.24,-5.56 -3.9,-8.65 -5.27,-9.21 -1.39,-0.57 -5.02,-0.27 -11.1,0.77l-140.77 24.14zm-5.92 -166.52l0.32 1.88 -0.32 -1.88zm91.03 -71.76c-3.19,-8.28 -8.18,-21.55 -15.03,-39.96 -6.69,-18.42 -12.98,-34.51 -18.84,-48.11 -5.68,-13.47 -11.7,-26.08 -17.67,-37.57l-3.77 -21.98c-3.59,-5.97 -8.58,-9.76 -15.14,-11.53l0.16 0.94c-7.05,2.81 -10.89,24.49 -11.47,65.04l3.74 21.82c-0.25,2.28 -1.15,4.53 -3.01,6.77 -1.89,2.09 -2.8,3.36 -2.75,3.68 -2.35,46.14 -4.44,83.56 -6.16,111.94 0.54,3.12 0.67,8.55 0.42,16.46 -0.09,7.88 -0.12,12.38 0.09,13.62l113.17 -19.41c-1.36,-7.94 -6.47,-21.83 -15.45,-41.47l-1.74 -10.13c-0.47,-0.89 -1.7,-2.44 -3.4,-4.88 -1.83,-2.25 -2.94,-3.99 -3.15,-5.23zm676.34 -239.85c-8.11,1.39 -15.02,1.29 -20.73,-0.14 -5.57,-1.61 -10.13,-3.88 -13.88,-7.08 -3.59,-3.08 -7.66,-6.24 -12.16,-9.15 -4.39,-3.1 -10.97,-5.03 -19.51,-6.13 -8.66,-0.92 -19.32,-0.37 -32.11,1.82 -4.05,0.69 -8.82,1.83 -14.31,3.57 -5.47,1.74 -11.36,4.84 -17.32,9.39 -6.14,4.42 -8.82,9.38 -7.94,14.52 0.99,5.77 4.63,10.12 10.96,13.36 6.31,3.1 13.2,4.96 20.65,5.29 7.46,0.49 15.91,1.13 25.33,1.75 9.28,0.83 16.02,1.75 19.93,3.01l69.99 4.85c20.73,2.06 39.49,4.78 56.46,8.29 16.79,3.38 35.04,8.75 54.61,16.15 19.72,7.38 36.52,16.53 50.56,27.28 14.04,10.75 26.78,25.1 37.88,43.09 11.24,17.8 18.93,38.31 22.91,61.54 4.78,27.9 5.33,53.49 1.76,76.73l-0.16 -0.94c-3.05,20.58 -8.97,39.4 -18.01,56.84 -8.92,17.26 -20.44,32.39 -34.42,45.38 -14.17,12.86 -28.6,24.16 -43.66,33.64 -14.88,9.62 -32.65,18.28 -53.13,26.13 -20.35,7.66 -38.84,14.03 -55.04,18.74 -16.18,4.85 -35.05,9.86 -56.45,15.14 -96.7,11.6 -163.55,7.33 -200.54,-12.8l-0.93 -5.46c-31.31,-15.97 -55.6,-35.08 -73.03,-57.12 -17.44,-22.2 -29.94,-48.3 -37.67,-78.43 -1.26,-7.32 1.56,-11.5 8.26,-12.65 1.71,-0.29 4.55,-0.62 8.18,-0.92 3.8,-0.33 6.48,-0.63 8.35,-0.95l46.61 -7.99c4.1,-1.34 10.13,-2.7 18.07,-4.06l11.85 -2.03c2.5,-0.43 4.58,-0.46 6.56,-0.16 17.51,-3.65 47.69,-9.15 90.25,-16.44l21.04 -3.61c6.08,-1.04 11.09,0.03 15.13,3.03 3.91,3.17 7.34,7.24 10.27,12.2 2.97,5.1 6.05,10.03 9.64,15.02 3.56,4.85 8.86,8.6 16.2,11.19 7.32,2.43 16.52,2.78 27.43,0.91 12.01,-2.05 22.08,-6.99 30.67,-14.88 8.44,-7.87 11.72,-17.74 9.69,-29.59 -0.94,-5.46 -4.31,-10.16 -10.46,-14.25 -5.98,-3.95 -14.52,-6.98 -25.51,-9.27 -10.95,-2.13 -20.84,-3.65 -29.21,-4.78 -8.54,-1.1 -19.93,-2.03 -34.24,-3.11 -14.28,-0.93 -23.41,-1.77 -27.68,-2.31l-27.27 4.67c-69.41,-8 -121.21,-24.63 -155.5,-49.56 -34.28,-24.94 -55.3,-60.48 -63.19,-106.47 -5.21,-30.4 -4.11,-58.67 3.09,-84.94 7.19,-26.42 18.91,-48.82 34.95,-67.61 16.06,-18.64 35.79,-35.51 59.26,-50.27 23.61,-14.81 48.06,-26.7 73.47,-35.71 25.44,-8.86 52.03,-15.66 80.09,-20.47 49.58,-8.5 97.13,-8.15 142.39,1.25 45.39,9.23 81.22,25.39 107.74,48.13 9.32,6.59 17.42,15.47 24.34,26.8 6.92,11.32 11.71,20.62 14.33,27.38 2.63,6.94 6.4,18.65 11.46,35.11l-9.64 20.42 -77.64 13.31c-8.58,1.47 -22.81,3.6 -42.72,6.38 -19.9,2.76 -35.23,5.07 -46.3,6.97z"/>
   <g>
    <path class="fil5 str1" d="M3948.96 3079.91c-6.36,7.46 -15.06,13.98 -26.09,19.58 -11.04,5.6 -24.22,9.65 -39.54,12.16 -20.45,3.35 -37.75,3.56 -51.94,0.63 -14.18,-2.92 -24.28,-10.3 -30.3,-22.14 -24.08,-47.36 -43.77,-85.68 -59.06,-114.94 -15.28,-29.28 -27.68,-55.1 -37.16,-77.45l-4.27 0.7c3.79,33.78 7.51,64.52 11.17,92.19 3.65,27.68 7.49,54.6 11.48,80.77 3.99,26.17 7.75,52.66 11.27,79.48 3.52,26.82 7.08,56.56 10.68,89.21 -6.92,4.04 -16.18,8.04 -27.77,11.97 -11.6,3.95 -23.37,6.89 -35.29,8.84 -24.99,4.1 -45.08,3.31 -60.29,-2.36 -15.21,-5.67 -24.54,-19 -27.98,-40.01l-46.45 -438.41c3.33,-8.13 11.97,-17.71 25.9,-28.74 13.94,-11.02 34.81,-18.81 62.63,-23.37 30.1,-4.93 54.43,-4.11 73,2.47 18.57,6.58 33.54,19.72 44.94,39.43 7.34,12.79 15.43,27.5 24.28,44.12 8.84,16.62 17.78,33.82 26.81,51.58 9.03,17.76 17.9,35.4 26.6,52.92 8.7,17.53 16.53,33.3 23.49,47.32l4.26 -0.7c5.81,-49.92 11.88,-98.29 18.21,-145.1 6.33,-46.8 12.7,-86.18 19.12,-118.13 7.79,-5.94 18.08,-11.56 30.91,-16.87 12.83,-5.31 27.49,-9.31 43.95,-12 27.82,-4.56 51.21,-4.17 70.15,1.18 18.96,5.35 31.11,15.46 36.46,30.33 4.14,10.97 9.4,28.05 15.82,51.18 6.41,23.15 13.46,49.25 21.14,78.32 7.67,29.06 15.62,59.82 23.86,92.28 8.23,32.47 16.11,63.68 23.65,93.64 7.53,29.96 14.21,57.43 20.05,82.42 5.85,24.99 10.17,44.25 12.96,57.79 -8.72,7.25 -18.12,13.02 -28.2,17.29 -10.09,4.28 -23.36,7.76 -39.84,10.46 -21.57,3.53 -40.34,2.82 -56.31,-2.14 -15.97,-4.96 -26.3,-18.14 -30.97,-39.53 -13.54,-61.33 -24.79,-116.62 -33.73,-165.89 -8.94,-49.25 -17.01,-90.49 -24.2,-123.71l-4.26 0.7c-2.04,23.07 -5.73,52.24 -11.03,87.51 -5.3,35.26 -11.33,80.27 -18.11,135.02zm722.75 -200.6c5.77,35.2 5.51,67.46 -0.77,96.77 -6.27,29.3 -17.67,54.93 -34.19,76.87 -16.52,21.95 -37.62,39.99 -63.29,54.1 -25.67,14.12 -55.26,23.92 -88.76,29.41 -33.51,5.48 -64.72,5.35 -93.64,-0.41 -28.93,-5.75 -54.75,-16.54 -77.46,-32.35 -22.7,-15.82 -41.68,-36.46 -56.93,-61.95 -15.25,-25.49 -25.67,-55.27 -31.25,-89.33 -5.49,-33.5 -5.07,-64.77 1.26,-93.78 6.32,-29.02 17.71,-54.65 34.19,-76.88 16.47,-22.23 37.5,-40.69 63.09,-55.37 25.57,-14.68 55.11,-24.77 88.61,-30.26 33.51,-5.48 64.74,-5.21 93.72,0.83 28.97,6.04 54.81,16.97 77.52,32.78 22.7,15.81 41.68,36.46 56.93,61.95 15.25,25.49 25.58,54.69 30.97,87.62zm-298.1 48.83c5.68,34.64 16.7,60.09 33.06,76.36 16.37,16.26 36.48,22.44 60.32,18.54 23.85,-3.91 40.62,-16.27 50.33,-37.11 9.72,-20.82 11.78,-48.28 6.2,-82.34 -5.58,-34.07 -16.42,-59.26 -32.5,-75.57 -16.08,-16.32 -36.04,-22.52 -59.89,-18.62 -23.85,3.91 -40.79,16.16 -50.83,36.75 -10.04,20.6 -12.27,47.93 -6.69,81.99zm531.24 -312.64c23.28,-3.82 46.66,-4.29 70.16,-1.44 23.5,2.86 44.55,9.46 63.16,19.83 15.17,-14.15 32.8,-26.65 52.88,-37.52 20.08,-10.87 45.18,-18.77 75.27,-23.7 21.57,-3.54 43.19,-4.17 64.85,-1.88 21.65,2.28 41.57,8.2 59.74,17.76 18.19,9.55 33.75,23.62 46.71,42.2 12.95,18.57 21.8,42.34 26.54,71.3l43.95 268.28c-5.4,2.63 -14.06,5.8 -25.99,9.51 -11.93,3.7 -24.42,6.61 -37.48,8.75 -12.5,2.05 -23.85,3.04 -34.06,2.97 -10.22,-0.08 -19.15,-2.12 -26.8,-6.11 -7.65,-4 -14.04,-10.09 -19.17,-18.29 -5.13,-8.19 -8.86,-19.38 -11.19,-33.59l-33.34 -203.55c-2.79,-17.04 -9.64,-28.59 -20.55,-34.68 -10.91,-6.08 -24.6,-7.77 -41.06,-5.08 -7.95,1.31 -16.17,4.55 -24.65,9.73 -8.47,5.17 -14.67,10.12 -18.55,14.84 0.94,2.18 1.57,4.26 1.89,6.25 0.33,1.99 0.63,3.84 0.91,5.53l46.45 283.62c-5.95,2.72 -14.9,5.94 -26.83,9.65 -11.93,3.69 -24.14,6.57 -36.64,8.61 -12.48,2.05 -23.84,3.04 -34.06,2.97 -10.21,-0.08 -19.14,-2.12 -26.8,-6.11 -7.64,-4 -14.03,-10.09 -19.17,-18.29 -5.13,-8.19 -8.86,-19.39 -11.18,-33.59l-33.34 -203.55c-2.79,-17.04 -10.07,-28.52 -21.83,-34.47 -11.76,-5.95 -25.02,-7.71 -39.78,-5.29 -10.23,1.68 -18.77,4.68 -25.64,9.02 -6.87,4.32 -12.63,8.33 -17.28,12.01l48.97 298.94c-5.4,2.63 -14.06,5.8 -25.98,9.51 -11.93,3.69 -24.43,6.61 -37.49,8.75 -12.49,2.05 -23.85,3.04 -34.06,2.97 -10.22,-0.08 -19.14,-2.12 -26.8,-6.11 -7.65,-4 -14.04,-10.09 -19.17,-18.29 -5.13,-8.19 -8.86,-19.39 -11.19,-33.59l-42.13 -257.21c-2.51,-15.32 -1.24,-28.07 3.79,-38.22 5.05,-10.15 12.59,-20.13 22.65,-29.95 17.07,-16.79 39.25,-31.79 66.53,-45.01 27.27,-13.21 56.53,-22.37 87.76,-27.48zm608.3 -18.31c-5.69,4.42 -12.89,8.52 -21.6,12.28 -8.71,3.76 -18.74,6.57 -30.1,8.43 -15.34,2.51 -28.93,1.38 -40.78,-3.38 -11.86,-4.76 -19.52,-14.15 -22.98,-28.15l-37.71 -160.86c6.92,-7.55 16.23,-14.76 27.94,-21.63 11.69,-6.87 25.21,-11.57 40.53,-14.08 21.59,-3.54 39.18,-2.04 52.78,4.48 13.6,6.51 21.98,19.42 25.14,38.73 1.31,7.95 2.51,18.82 3.6,32.64 1.09,13.81 1.91,28.55 2.44,44.21 0.51,15.65 0.88,31.19 1.07,46.61 0.19,15.42 0.08,28.99 -0.33,40.72zm473.61 152.42c7.07,43.16 -3.57,79.59 -31.94,109.3 -28.36,29.72 -74.06,49.74 -137.09,60.06 -23.84,3.91 -46.26,5.84 -67.27,5.77 -20.99,-0.05 -39.31,-2.44 -54.95,-7.17 -15.65,-4.72 -28.46,-11.81 -38.47,-21.25 -10,-9.44 -16.21,-21.54 -18.63,-36.31 -2.23,-13.61 -1.27,-25.59 2.87,-35.88 4.14,-10.3 9.68,-19.22 16.6,-26.77 17.96,6.38 38.16,11.38 60.62,14.99 22.45,3.62 47.6,3.14 75.42,-1.42 17.6,-2.88 30.66,-7.65 39.19,-14.28 8.54,-6.65 12.1,-14.23 10.71,-22.75 -1.31,-7.95 -5.73,-13.63 -13.29,-17.06 -7.56,-3.43 -19.51,-5.26 -35.88,-5.49l-26.39 -0.93c-50.98,-1.56 -90.23,-10.72 -117.76,-27.5 -27.52,-16.77 -44.45,-44.46 -50.77,-83.07 -3.44,-21.01 -2.02,-40.78 4.28,-59.3 6.3,-18.52 16.74,-34.8 31.35,-48.86 14.6,-14.06 32.9,-26.08 54.87,-36.09 21.97,-10.02 46.87,-17.31 74.69,-21.87 21.01,-3.44 40.99,-5.1 59.96,-5 18.96,0.1 35.76,2.15 50.42,6.17 14.65,4.01 26.76,10.34 36.34,18.97 9.57,8.64 15.48,19.76 17.71,33.39 2.14,13.06 1.57,24.67 -1.72,34.82 -3.29,10.17 -8.12,18.98 -14.48,26.43 -5.01,-2.1 -12.31,-3.96 -21.9,-5.59 -9.6,-1.64 -20.01,-2.85 -31.21,-3.64 -11.2,-0.78 -22.49,-1.12 -33.84,-1.02 -11.35,0.12 -21.57,0.91 -30.65,2.4 -18.74,3.07 -32.86,7.57 -42.39,13.51 -9.53,5.93 -13.54,13.43 -12.05,22.52 1.03,6.25 4.69,10.89 11.03,13.93 6.33,3.05 17.72,4.97 34.17,5.78l27.39 1.63c56.55,3.57 98.11,14.4 124.69,32.49 26.57,18.09 42.7,44.45 48.37,79.09z"/>
    <path id="1" class="fil4" d="M3948.96 3079.91c-6.36,7.46 -15.06,13.98 -26.09,19.58 -11.04,5.6 -24.22,9.65 -39.54,12.16 -20.45,3.35 -37.75,3.56 -51.94,0.63 -14.18,-2.92 -24.28,-10.3 -30.3,-22.14 -24.08,-47.36 -43.77,-85.68 -59.06,-114.94 -15.28,-29.28 -27.68,-55.1 -37.16,-77.45l-4.27 0.7c3.79,33.78 7.51,64.52 11.17,92.19 3.65,27.68 7.49,54.6 11.48,80.77 3.99,26.17 7.75,52.66 11.27,79.48 3.52,26.82 7.08,56.56 10.68,89.21 -6.92,4.04 -16.18,8.04 -27.77,11.97 -11.6,3.95 -23.37,6.89 -35.29,8.84 -24.99,4.1 -45.08,3.31 -60.29,-2.36 -15.21,-5.67 -24.54,-19 -27.98,-40.01l-46.45 -438.41c3.33,-8.13 11.97,-17.71 25.9,-28.74 13.94,-11.02 34.81,-18.81 62.63,-23.37 30.1,-4.93 54.43,-4.11 73,2.47 18.57,6.58 33.54,19.72 44.94,39.43 7.34,12.79 15.43,27.5 24.28,44.12 8.84,16.62 17.78,33.82 26.81,51.58 9.03,17.76 17.9,35.4 26.6,52.92 8.7,17.53 16.53,33.3 23.49,47.32l4.26 -0.7c5.81,-49.92 11.88,-98.29 18.21,-145.1 6.33,-46.8 12.7,-86.18 19.12,-118.13 7.79,-5.94 18.08,-11.56 30.91,-16.87 12.83,-5.31 27.49,-9.31 43.95,-12 27.82,-4.56 51.21,-4.17 70.15,1.18 18.96,5.35 31.11,15.46 36.46,30.33 4.14,10.97 9.4,28.05 15.82,51.18 6.41,23.15 13.46,49.25 21.14,78.32 7.67,29.06 15.62,59.82 23.86,92.28 8.23,32.47 16.11,63.68 23.65,93.64 7.53,29.96 14.21,57.43 20.05,82.42 5.85,24.99 10.17,44.25 12.96,57.79 -8.72,7.25 -18.12,13.02 -28.2,17.29 -10.09,4.28 -23.36,7.76 -39.84,10.46 -21.57,3.53 -40.34,2.82 -56.31,-2.14 -15.97,-4.96 -26.3,-18.14 -30.97,-39.53 -13.54,-61.33 -24.79,-116.62 -33.73,-165.89 -8.94,-49.25 -17.01,-90.49 -24.2,-123.71l-4.26 0.7c-2.04,23.07 -5.73,52.24 -11.03,87.51 -5.3,35.26 -11.33,80.27 -18.11,135.02zm722.75 -200.6c5.77,35.2 5.51,67.46 -0.77,96.77 -6.27,29.3 -17.67,54.93 -34.19,76.87 -16.52,21.95 -37.62,39.99 -63.29,54.1 -25.67,14.12 -55.26,23.92 -88.76,29.41 -33.51,5.48 -64.72,5.35 -93.64,-0.41 -28.93,-5.75 -54.75,-16.54 -77.46,-32.35 -22.7,-15.82 -41.68,-36.46 -56.93,-61.95 -15.25,-25.49 -25.67,-55.27 -31.25,-89.33 -5.49,-33.5 -5.07,-64.77 1.26,-93.78 6.32,-29.02 17.71,-54.65 34.19,-76.88 16.47,-22.23 37.5,-40.69 63.09,-55.37 25.57,-14.68 55.11,-24.77 88.61,-30.26 33.51,-5.48 64.74,-5.21 93.72,0.83 28.97,6.04 54.81,16.97 77.52,32.78 22.7,15.81 41.68,36.46 56.93,61.95 15.25,25.49 25.58,54.69 30.97,87.62zm-298.1 48.83c5.68,34.64 16.7,60.09 33.06,76.36 16.37,16.26 36.48,22.44 60.32,18.54 23.85,-3.91 40.62,-16.27 50.33,-37.11 9.72,-20.82 11.78,-48.28 6.2,-82.34 -5.58,-34.07 -16.42,-59.26 -32.5,-75.57 -16.08,-16.32 -36.04,-22.52 -59.89,-18.62 -23.85,3.91 -40.79,16.16 -50.83,36.75 -10.04,20.6 -12.27,47.93 -6.69,81.99zm531.24 -312.64c23.28,-3.82 46.66,-4.29 70.16,-1.44 23.5,2.86 44.55,9.46 63.16,19.83 15.17,-14.15 32.8,-26.65 52.88,-37.52 20.08,-10.87 45.18,-18.77 75.27,-23.7 21.57,-3.54 43.19,-4.17 64.85,-1.88 21.65,2.28 41.57,8.2 59.74,17.76 18.19,9.55 33.75,23.62 46.71,42.2 12.95,18.57 21.8,42.34 26.54,71.3l43.95 268.28c-5.4,2.63 -14.06,5.8 -25.99,9.51 -11.93,3.7 -24.42,6.61 -37.48,8.75 -12.5,2.05 -23.85,3.04 -34.06,2.97 -10.22,-0.08 -19.15,-2.12 -26.8,-6.11 -7.65,-4 -14.04,-10.09 -19.17,-18.29 -5.13,-8.19 -8.86,-19.38 -11.19,-33.59l-33.34 -203.55c-2.79,-17.04 -9.64,-28.59 -20.55,-34.68 -10.91,-6.08 -24.6,-7.77 -41.06,-5.08 -7.95,1.31 -16.17,4.55 -24.65,9.73 -8.47,5.17 -14.67,10.12 -18.55,14.84 0.94,2.18 1.57,4.26 1.89,6.25 0.33,1.99 0.63,3.84 0.91,5.53l46.45 283.62c-5.95,2.72 -14.9,5.94 -26.83,9.65 -11.93,3.69 -24.14,6.57 -36.64,8.61 -12.48,2.05 -23.84,3.04 -34.06,2.97 -10.21,-0.08 -19.14,-2.12 -26.8,-6.11 -7.64,-4 -14.03,-10.09 -19.17,-18.29 -5.13,-8.19 -8.86,-19.39 -11.18,-33.59l-33.34 -203.55c-2.79,-17.04 -10.07,-28.52 -21.83,-34.47 -11.76,-5.95 -25.02,-7.71 -39.78,-5.29 -10.23,1.68 -18.77,4.68 -25.64,9.02 -6.87,4.32 -12.63,8.33 -17.28,12.01l48.97 298.94c-5.4,2.63 -14.06,5.8 -25.98,9.51 -11.93,3.69 -24.43,6.61 -37.49,8.75 -12.49,2.05 -23.85,3.04 -34.06,2.97 -10.22,-0.08 -19.14,-2.12 -26.8,-6.11 -7.65,-4 -14.04,-10.09 -19.17,-18.29 -5.13,-8.19 -8.86,-19.39 -11.19,-33.59l-42.13 -257.21c-2.51,-15.32 -1.24,-28.07 3.79,-38.22 5.05,-10.15 12.59,-20.13 22.65,-29.95 17.07,-16.79 39.25,-31.79 66.53,-45.01 27.27,-13.21 56.53,-22.37 87.76,-27.48zm608.3 -18.31c-5.69,4.42 -12.89,8.52 -21.6,12.28 -8.71,3.76 -18.74,6.57 -30.1,8.43 -15.34,2.51 -28.93,1.38 -40.78,-3.38 -11.86,-4.76 -19.52,-14.15 -22.98,-28.15l-37.71 -160.86c6.92,-7.55 16.23,-14.76 27.94,-21.63 11.69,-6.87 25.21,-11.57 40.53,-14.08 21.59,-3.54 39.18,-2.04 52.78,4.48 13.6,6.51 21.98,19.42 25.14,38.73 1.31,7.95 2.51,18.82 3.6,32.64 1.09,13.81 1.91,28.55 2.44,44.21 0.51,15.65 0.88,31.19 1.07,46.61 0.19,15.42 0.08,28.99 -0.33,40.72zm473.61 152.42c7.07,43.16 -3.57,79.59 -31.94,109.3 -28.36,29.72 -74.06,49.74 -137.09,60.06 -23.84,3.91 -46.26,5.84 -67.27,5.77 -20.99,-0.05 -39.31,-2.44 -54.95,-7.17 -15.65,-4.72 -28.46,-11.81 -38.47,-21.25 -10,-9.44 -16.21,-21.54 -18.63,-36.31 -2.23,-13.61 -1.27,-25.59 2.87,-35.88 4.14,-10.3 9.68,-19.22 16.6,-26.77 17.96,6.38 38.16,11.38 60.62,14.99 22.45,3.62 47.6,3.14 75.42,-1.42 17.6,-2.88 30.66,-7.65 39.19,-14.28 8.54,-6.65 12.1,-14.23 10.71,-22.75 -1.31,-7.95 -5.73,-13.63 -13.29,-17.06 -7.56,-3.43 -19.51,-5.26 -35.88,-5.49l-26.39 -0.93c-50.98,-1.56 -90.23,-10.72 -117.76,-27.5 -27.52,-16.77 -44.45,-44.46 -50.77,-83.07 -3.44,-21.01 -2.02,-40.78 4.28,-59.3 6.3,-18.52 16.74,-34.8 31.35,-48.86 14.6,-14.06 32.9,-26.08 54.87,-36.09 21.97,-10.02 46.87,-17.31 74.69,-21.87 21.01,-3.44 40.99,-5.1 59.96,-5 18.96,0.1 35.76,2.15 50.42,6.17 14.65,4.01 26.76,10.34 36.34,18.97 9.57,8.64 15.48,19.76 17.71,33.39 2.14,13.06 1.57,24.67 -1.72,34.82 -3.29,10.17 -8.12,18.98 -14.48,26.43 -5.01,-2.1 -12.31,-3.96 -21.9,-5.59 -9.6,-1.64 -20.01,-2.85 -31.21,-3.64 -11.2,-0.78 -22.49,-1.12 -33.84,-1.02 -11.35,0.12 -21.57,0.91 -30.65,2.4 -18.74,3.07 -32.86,7.57 -42.39,13.51 -9.53,5.93 -13.54,13.43 -12.05,22.52 1.03,6.25 4.69,10.89 11.03,13.93 6.33,3.05 17.72,4.97 34.17,5.78l27.39 1.63c56.55,3.57 98.11,14.4 124.69,32.49 26.57,18.09 42.7,44.45 48.37,79.09z"/>
   </g>
   <g>
    <path class="fil5 str2" d="M3940.76 3073.58c-6.01,7.05 -14.24,13.22 -24.67,18.5 -10.43,5.3 -22.89,9.13 -37.38,11.51 -19.33,3.16 -35.7,3.36 -49.1,0.59 -13.4,-2.76 -22.96,-9.74 -28.64,-20.93 -22.77,-44.77 -41.38,-81 -55.83,-108.67 -14.45,-27.67 -26.17,-52.07 -35.15,-73.2l-4.02 0.66c3.58,31.94 7.1,60.98 10.55,87.15 3.47,26.16 7.08,51.61 10.86,76.35 3.78,24.73 7.32,49.78 10.66,75.14 3.32,25.36 6.69,53.47 10.09,84.33 -6.54,3.83 -15.29,7.6 -26.25,11.32 -10.97,3.74 -22.09,6.52 -33.36,8.37 -23.62,3.87 -42.62,3.12 -57,-2.25 -14.38,-5.36 -23.19,-17.97 -26.45,-37.82l-43.91 -414.45c3.15,-7.68 11.32,-16.73 24.48,-27.16 13.18,-10.43 32.92,-17.79 59.22,-22.1 28.44,-4.66 51.45,-3.88 68.99,2.34 17.56,6.22 31.73,18.64 42.49,37.27 6.94,12.09 14.59,25.99 22.95,41.71 8.36,15.71 16.81,31.97 25.36,48.76 8.53,16.79 16.91,33.47 25.14,50.03 8.22,16.57 15.62,31.47 22.21,44.73l4.03 -0.66c5.49,-47.2 11.22,-92.92 17.21,-137.16 5.98,-44.25 12.01,-81.48 18.08,-111.69 7.34,-5.61 17.08,-10.92 29.22,-15.94 12.13,-5.02 25.98,-8.8 41.54,-11.35 26.3,-4.31 48.41,-3.94 66.33,1.12 17.91,5.06 29.39,14.61 34.45,28.67 3.91,10.38 8.9,26.51 14.96,48.39 6.06,21.88 12.72,46.55 19.98,74.03 7.26,27.47 14.78,56.56 22.56,87.24 7.78,30.7 15.23,60.2 22.35,88.52 7.12,28.32 13.44,54.29 18.96,77.92 5.53,23.62 9.61,41.83 12.26,54.63 -8.25,6.85 -17.13,12.31 -26.68,16.36 -9.53,4.03 -22.08,7.33 -37.64,9.88 -20.4,3.34 -38.14,2.66 -53.24,-2.03 -15.11,-4.69 -24.86,-17.15 -29.28,-37.37 -12.8,-57.98 -23.43,-110.25 -31.89,-156.82 -8.44,-46.56 -16.08,-85.55 -22.87,-116.96l-4.03 0.66c-1.94,21.82 -5.41,49.4 -10.42,82.74 -5.01,33.33 -10.72,75.89 -17.12,127.64zm710.57 -194.11c5.45,33.28 5.21,63.77 -0.72,91.48 -5.94,27.7 -16.72,51.92 -32.33,72.67 -15.62,20.75 -35.56,37.79 -59.83,51.13 -24.27,13.35 -52.24,22.61 -83.91,27.8 -31.67,5.19 -61.17,5.07 -88.52,-0.37 -27.35,-5.44 -51.75,-15.64 -73.22,-30.59 -21.46,-14.95 -39.4,-34.47 -53.82,-58.56 -14.42,-24.1 -24.27,-52.24 -29.55,-84.46 -5.18,-31.66 -4.78,-61.22 1.19,-88.64 5.98,-27.44 16.76,-51.67 32.33,-72.68 15.57,-21.02 35.45,-38.46 59.63,-52.35 24.18,-13.88 52.11,-23.41 83.78,-28.6 31.67,-5.19 61.2,-4.93 88.59,0.78 27.39,5.72 51.81,16.04 73.28,30.99 21.46,14.95 39.4,34.46 53.83,58.56 14.41,24.1 24.17,51.71 29.27,82.84zm-281.8 46.16c5.36,32.74 15.78,56.8 31.26,72.18 15.47,15.37 34.47,21.22 57.02,17.53 22.54,-3.7 38.4,-15.38 47.58,-35.08 9.17,-19.69 11.13,-45.64 5.85,-77.85 -5.28,-32.2 -15.52,-56.01 -30.72,-71.43 -15.21,-15.42 -34.08,-21.29 -56.62,-17.6 -22.54,3.69 -38.56,15.28 -48.05,34.74 -9.49,19.46 -11.6,45.31 -6.32,77.51zm529.53 -300.04c22.01,-3.6 44.13,-4.05 66.33,-1.36 22.22,2.71 42.12,8.95 59.71,18.75 14.34,-13.38 31.01,-25.2 49.99,-35.47 18.99,-10.29 42.71,-17.75 71.16,-22.41 20.39,-3.34 40.82,-3.93 61.3,-1.77 20.47,2.16 39.3,7.75 56.48,16.79 17.19,9.03 31.9,22.33 44.15,39.89 12.25,17.56 20.62,40.03 25.1,67.41l41.54 253.61c-5.1,2.5 -13.29,5.49 -24.57,8.99 -11.27,3.5 -23.09,6.26 -35.43,8.29 -11.81,1.93 -22.54,2.86 -32.2,2.79 -9.66,-0.07 -18.1,-2 -25.33,-5.77 -7.24,-3.78 -13.28,-9.54 -18.13,-17.29 -4.85,-7.75 -8.38,-18.33 -10.58,-31.75l-31.52 -192.43c-2.63,-16.1 -9.11,-27.03 -19.42,-32.79 -10.31,-5.75 -23.25,-7.35 -38.82,-4.79 -7.51,1.23 -15.28,4.29 -23.29,9.18 -8.02,4.9 -13.86,9.58 -17.54,14.04 0.88,2.06 1.48,4.03 1.79,5.91 0.3,1.88 0.59,3.62 0.85,5.23l43.92 268.11c-5.64,2.58 -14.1,5.62 -25.37,9.12 -11.28,3.5 -22.82,6.22 -34.63,8.15 -11.81,1.94 -22.54,2.86 -32.2,2.8 -9.66,-0.07 -18.1,-2.01 -25.33,-5.78 -7.24,-3.78 -13.28,-9.53 -18.13,-17.28 -4.85,-7.75 -8.38,-18.33 -10.58,-31.75l-31.52 -192.44c-2.64,-16.09 -9.51,-26.95 -20.63,-32.58 -11.11,-5.62 -23.65,-7.28 -37.61,-5 -9.66,1.59 -17.74,4.43 -24.23,8.52 -6.5,4.1 -11.94,7.88 -16.33,11.35l46.29 282.61c-5.1,2.49 -13.29,5.49 -24.57,8.99 -11.27,3.49 -23.08,6.26 -35.43,8.28 -11.81,1.94 -22.54,2.86 -32.2,2.79 -9.66,-0.07 -18.1,-2 -25.34,-5.77 -7.22,-3.78 -13.27,-9.54 -18.12,-17.28 -4.85,-7.75 -8.37,-18.33 -10.57,-31.75l-39.83 -243.16c-2.37,-14.49 -1.18,-26.54 3.59,-36.14 4.76,-9.59 11.9,-19.03 21.4,-28.3 16.14,-15.88 37.1,-30.05 62.89,-42.55 25.79,-12.49 53.45,-21.15 82.96,-25.99zm602.4 -21.78c-5.38,4.18 -12.18,8.06 -20.42,11.6 -8.23,3.56 -17.73,6.22 -28.45,7.98 -14.5,2.37 -27.35,1.31 -38.56,-3.2 -11.21,-4.5 -18.45,-13.38 -21.73,-26.61l-35.65 -152.08c6.55,-7.13 15.35,-13.94 26.41,-20.45 11.06,-6.49 23.84,-10.92 38.34,-13.3 20.39,-3.34 37.02,-1.93 49.88,4.24 12.85,6.16 20.78,18.36 23.77,36.61 1.23,7.51 2.37,17.8 3.4,30.86 1.04,13.05 1.81,26.98 2.3,41.79 0.5,14.79 0.83,29.48 1.01,44.06 0.19,14.58 0.09,27.41 -0.3,38.5zm475.06 139.61c6.68,40.8 -3.38,75.24 -30.19,103.33 -26.83,28.1 -70.02,47.02 -129.6,56.78 -22.54,3.69 -43.75,5.51 -63.6,5.45 -19.85,-0.05 -37.16,-2.31 -51.95,-6.78 -14.78,-4.47 -26.9,-11.16 -36.36,-20.09 -9.45,-8.92 -15.32,-20.36 -17.61,-34.31 -2.11,-12.89 -1.21,-24.2 2.71,-33.94 3.92,-9.73 9.15,-18.16 15.7,-25.3 16.98,6.04 36.07,10.76 57.3,14.18 21.22,3.41 44.99,2.96 71.29,-1.34 16.64,-2.73 29,-7.24 37.06,-13.51 8.07,-6.29 11.44,-13.46 10.12,-21.51 -1.23,-7.51 -5.42,-12.88 -12.56,-16.12 -7.15,-3.25 -18.45,-4.98 -33.92,-5.2l-24.95 -0.88c-48.2,-1.47 -85.29,-10.13 -111.32,-25.98 -26.03,-15.87 -42.03,-42.04 -48.01,-78.54 -3.25,-19.86 -1.89,-38.55 4.06,-56.06 5.94,-17.5 15.83,-32.9 29.63,-46.19 13.81,-13.28 31.1,-24.66 51.88,-34.12 20.76,-9.47 44.29,-16.36 70.6,-20.67 19.86,-3.25 38.75,-4.82 56.68,-4.73 17.93,0.09 33.82,2.04 47.67,5.83 13.85,3.8 25.3,9.78 34.35,17.93 9.05,8.17 14.64,18.69 16.75,31.57 2.02,12.35 1.48,23.33 -1.63,32.93 -3.12,9.6 -7.68,17.92 -13.69,24.98 -4.74,-1.98 -11.63,-3.75 -20.71,-5.29 -9.07,-1.55 -18.91,-2.69 -29.5,-3.44 -10.6,-0.75 -21.26,-1.07 -31.98,-0.96 -10.74,0.1 -20.39,0.86 -28.99,2.26 -17.7,2.9 -31.06,7.16 -40.07,12.77 -9,5.61 -12.79,12.7 -11.39,21.3 0.97,5.9 4.44,10.29 10.43,13.17 5.98,2.88 16.75,4.7 32.31,5.46l25.88 1.54c53.47,3.37 92.76,13.61 117.88,30.71 25.13,17.11 40.37,42.03 45.73,74.77z"/>
    <path id="1" class="fil4" d="M3940.76 3073.58c-6.01,7.05 -14.24,13.22 -24.67,18.5 -10.43,5.3 -22.89,9.13 -37.38,11.51 -19.33,3.16 -35.7,3.36 -49.1,0.59 -13.4,-2.76 -22.96,-9.74 -28.64,-20.93 -22.77,-44.77 -41.38,-81 -55.83,-108.67 -14.45,-27.67 -26.17,-52.07 -35.15,-73.2l-4.02 0.66c3.58,31.94 7.1,60.98 10.55,87.15 3.47,26.16 7.08,51.61 10.86,76.35 3.78,24.73 7.32,49.78 10.66,75.14 3.32,25.36 6.69,53.47 10.09,84.33 -6.54,3.83 -15.29,7.6 -26.25,11.32 -10.97,3.74 -22.09,6.52 -33.36,8.37 -23.62,3.87 -42.62,3.12 -57,-2.25 -14.38,-5.36 -23.19,-17.97 -26.45,-37.82l-43.91 -414.45c3.15,-7.68 11.32,-16.73 24.48,-27.16 13.18,-10.43 32.92,-17.79 59.22,-22.1 28.44,-4.66 51.45,-3.88 68.99,2.34 17.56,6.22 31.73,18.64 42.49,37.27 6.94,12.09 14.59,25.99 22.95,41.71 8.36,15.71 16.81,31.97 25.36,48.76 8.53,16.79 16.91,33.47 25.14,50.03 8.22,16.57 15.62,31.47 22.21,44.73l4.03 -0.66c5.49,-47.2 11.22,-92.92 17.21,-137.16 5.98,-44.25 12.01,-81.48 18.08,-111.69 7.34,-5.61 17.08,-10.92 29.22,-15.94 12.13,-5.02 25.98,-8.8 41.54,-11.35 26.3,-4.31 48.41,-3.94 66.33,1.12 17.91,5.06 29.39,14.61 34.45,28.67 3.91,10.38 8.9,26.51 14.96,48.39 6.06,21.88 12.72,46.55 19.98,74.03 7.26,27.47 14.78,56.56 22.56,87.24 7.78,30.7 15.23,60.2 22.35,88.52 7.12,28.32 13.44,54.29 18.96,77.92 5.53,23.62 9.61,41.83 12.26,54.63 -8.25,6.85 -17.13,12.31 -26.68,16.36 -9.53,4.03 -22.08,7.33 -37.64,9.88 -20.4,3.34 -38.14,2.66 -53.24,-2.03 -15.11,-4.69 -24.86,-17.15 -29.28,-37.37 -12.8,-57.98 -23.43,-110.25 -31.89,-156.82 -8.44,-46.56 -16.08,-85.55 -22.87,-116.96l-4.03 0.66c-1.94,21.82 -5.41,49.4 -10.42,82.74 -5.01,33.33 -10.72,75.89 -17.12,127.64zm710.57 -194.11c5.45,33.28 5.21,63.77 -0.72,91.48 -5.94,27.7 -16.72,51.92 -32.33,72.67 -15.62,20.75 -35.56,37.79 -59.83,51.13 -24.27,13.35 -52.24,22.61 -83.91,27.8 -31.67,5.19 -61.17,5.07 -88.52,-0.37 -27.35,-5.44 -51.75,-15.64 -73.22,-30.59 -21.46,-14.95 -39.4,-34.47 -53.82,-58.56 -14.42,-24.1 -24.27,-52.24 -29.55,-84.46 -5.18,-31.66 -4.78,-61.22 1.19,-88.64 5.98,-27.44 16.76,-51.67 32.33,-72.68 15.57,-21.02 35.45,-38.46 59.63,-52.35 24.18,-13.88 52.11,-23.41 83.78,-28.6 31.67,-5.19 61.2,-4.93 88.59,0.78 27.39,5.72 51.81,16.04 73.28,30.99 21.46,14.95 39.4,34.46 53.83,58.56 14.41,24.1 24.17,51.71 29.27,82.84zm-281.8 46.16c5.36,32.74 15.78,56.8 31.26,72.18 15.47,15.37 34.47,21.22 57.02,17.53 22.54,-3.7 38.4,-15.38 47.58,-35.08 9.17,-19.69 11.13,-45.64 5.85,-77.85 -5.28,-32.2 -15.52,-56.01 -30.72,-71.43 -15.21,-15.42 -34.08,-21.29 -56.62,-17.6 -22.54,3.69 -38.56,15.28 -48.05,34.74 -9.49,19.46 -11.6,45.31 -6.32,77.51zm529.53 -300.04c22.01,-3.6 44.13,-4.05 66.33,-1.36 22.22,2.71 42.12,8.95 59.71,18.75 14.34,-13.38 31.01,-25.2 49.99,-35.47 18.99,-10.29 42.71,-17.75 71.16,-22.41 20.39,-3.34 40.82,-3.93 61.3,-1.77 20.47,2.16 39.3,7.75 56.48,16.79 17.19,9.03 31.9,22.33 44.15,39.89 12.25,17.56 20.62,40.03 25.1,67.41l41.54 253.61c-5.1,2.5 -13.29,5.49 -24.57,8.99 -11.27,3.5 -23.09,6.26 -35.43,8.29 -11.81,1.93 -22.54,2.86 -32.2,2.79 -9.66,-0.07 -18.1,-2 -25.33,-5.77 -7.24,-3.78 -13.28,-9.54 -18.13,-17.29 -4.85,-7.75 -8.38,-18.33 -10.58,-31.75l-31.52 -192.43c-2.63,-16.1 -9.11,-27.03 -19.42,-32.79 -10.31,-5.75 -23.25,-7.35 -38.82,-4.79 -7.51,1.23 -15.28,4.29 -23.29,9.18 -8.02,4.9 -13.86,9.58 -17.54,14.04 0.88,2.06 1.48,4.03 1.79,5.91 0.3,1.88 0.59,3.62 0.85,5.23l43.92 268.11c-5.64,2.58 -14.1,5.62 -25.37,9.12 -11.28,3.5 -22.82,6.22 -34.63,8.15 -11.81,1.94 -22.54,2.86 -32.2,2.8 -9.66,-0.07 -18.1,-2.01 -25.33,-5.78 -7.24,-3.78 -13.28,-9.53 -18.13,-17.28 -4.85,-7.75 -8.38,-18.33 -10.58,-31.75l-31.52 -192.44c-2.64,-16.09 -9.51,-26.95 -20.63,-32.58 -11.11,-5.62 -23.65,-7.28 -37.61,-5 -9.66,1.59 -17.74,4.43 -24.23,8.52 -6.5,4.1 -11.94,7.88 -16.33,11.35l46.29 282.61c-5.1,2.49 -13.29,5.49 -24.57,8.99 -11.27,3.49 -23.08,6.26 -35.43,8.28 -11.81,1.94 -22.54,2.86 -32.2,2.79 -9.66,-0.07 -18.1,-2 -25.34,-5.77 -7.22,-3.78 -13.27,-9.54 -18.12,-17.28 -4.85,-7.75 -8.37,-18.33 -10.57,-31.75l-39.83 -243.16c-2.37,-14.49 -1.18,-26.54 3.59,-36.14 4.76,-9.59 11.9,-19.03 21.4,-28.3 16.14,-15.88 37.1,-30.05 62.89,-42.55 25.79,-12.49 53.45,-21.15 82.96,-25.99zm602.4 -21.78c-5.38,4.18 -12.18,8.06 -20.42,11.6 -8.23,3.56 -17.73,6.22 -28.45,7.98 -14.5,2.37 -27.35,1.31 -38.56,-3.2 -11.21,-4.5 -18.45,-13.38 -21.73,-26.61l-35.65 -152.08c6.55,-7.13 15.35,-13.94 26.41,-20.45 11.06,-6.49 23.84,-10.92 38.34,-13.3 20.39,-3.34 37.02,-1.93 49.88,4.24 12.85,6.16 20.78,18.36 23.77,36.61 1.23,7.51 2.37,17.8 3.4,30.86 1.04,13.05 1.81,26.98 2.3,41.79 0.5,14.79 0.83,29.48 1.01,44.06 0.19,14.58 0.09,27.41 -0.3,38.5zm475.06 139.61c6.68,40.8 -3.38,75.24 -30.19,103.33 -26.83,28.1 -70.02,47.02 -129.6,56.78 -22.54,3.69 -43.75,5.51 -63.6,5.45 -19.85,-0.05 -37.16,-2.31 -51.95,-6.78 -14.78,-4.47 -26.9,-11.16 -36.36,-20.09 -9.45,-8.92 -15.32,-20.36 -17.61,-34.31 -2.11,-12.89 -1.21,-24.2 2.71,-33.94 3.92,-9.73 9.15,-18.16 15.7,-25.3 16.98,6.04 36.07,10.76 57.3,14.18 21.22,3.41 44.99,2.96 71.29,-1.34 16.64,-2.73 29,-7.24 37.06,-13.51 8.07,-6.29 11.44,-13.46 10.12,-21.51 -1.23,-7.51 -5.42,-12.88 -12.56,-16.12 -7.15,-3.25 -18.45,-4.98 -33.92,-5.2l-24.95 -0.88c-48.2,-1.47 -85.29,-10.13 -111.32,-25.98 -26.03,-15.87 -42.03,-42.04 -48.01,-78.54 -3.25,-19.86 -1.89,-38.55 4.06,-56.06 5.94,-17.5 15.83,-32.9 29.63,-46.19 13.81,-13.28 31.1,-24.66 51.88,-34.12 20.76,-9.47 44.29,-16.36 70.6,-20.67 19.86,-3.25 38.75,-4.82 56.68,-4.73 17.93,0.09 33.82,2.04 47.67,5.83 13.85,3.8 25.3,9.78 34.35,17.93 9.05,8.17 14.64,18.69 16.75,31.57 2.02,12.35 1.48,23.33 -1.63,32.93 -3.12,9.6 -7.68,17.92 -13.69,24.98 -4.74,-1.98 -11.63,-3.75 -20.71,-5.29 -9.07,-1.55 -18.91,-2.69 -29.5,-3.44 -10.6,-0.75 -21.26,-1.07 -31.98,-0.96 -10.74,0.1 -20.39,0.86 -28.99,2.26 -17.7,2.9 -31.06,7.16 -40.07,12.77 -9,5.61 -12.79,12.7 -11.39,21.3 0.97,5.9 4.44,10.29 10.43,13.17 5.98,2.88 16.75,4.7 32.31,5.46l25.88 1.54c53.47,3.37 92.76,13.61 117.88,30.71 25.13,17.11 40.37,42.03 45.73,74.77z"/>
   </g>
  </g>
 </g>
</svg>
