<?xml version="1.0" encoding="UTF-8"?>
<!DOCTYPE svg PUBLIC "-//W3C//DTD SVG 1.1//EN" "http://www.w3.org/Graphics/SVG/1.1/DTD/svg11.dtd">
<!-- Creator: CorelDRAW 2017 -->
<svg xmlns="http://www.w3.org/2000/svg" xml:space="preserve" width="41.6558mm" height="31.7498mm" version="1.1" style="shape-rendering:geometricPrecision; text-rendering:geometricPrecision; image-rendering:optimizeQuality; fill-rule:evenodd; clip-rule:evenodd"
viewBox="0 0 4165.58 3174.98"
 xmlns:xlink="http://www.w3.org/1999/xlink">
 <defs>
  <style type="text/css">
   <![CDATA[
    .str0 {stroke:#373435;stroke-width:20;stroke-miterlimit:22.9256}
    .str1 {stroke:#FEFEFE;stroke-width:126.95;stroke-linecap:round;stroke-linejoin:round;stroke-miterlimit:22.9256}
    .str2 {stroke:#201E1E;stroke-width:101.55;stroke-linecap:round;stroke-linejoin:round;stroke-miterlimit:22.9256}
    .fil5 {fill:none;fill-rule:nonzero}
    .fil1 {fill:#FEFEFE}
    .fil2 {fill:#257C35}
    .fil3 {fill:#B44846}
    .fil0 {fill:#F5E5A9}
    .fil4 {fill:#FEFEFE;fill-rule:nonzero}
   ]]>
  </style>
 </defs>
 <g id="Capa_x0020_1">
  <metadata id="CorelCorpID_0Corel-Layer"/>
  <g id="_2923975133392">
   <path class="fil0" d="M2138.13 881.53c653.14,0 1182.62,513.48 1182.62,1146.89 0,633.4 -529.48,1146.88 -1182.62,1146.88 -653.15,0 -1182.62,-513.48 -1182.62,-1146.88 0,-633.41 529.47,-1146.89 1182.62,-1146.89z"/>
   <polygon class="fil1 str0" points="2179.15,343.65 2238.05,163.46 1944.48,180.76 1176.04,523.84 631.87,923.31 308.22,1348.78 119.95,1903.86 269.39,2066.39 2587.13,2663.53 "/>
   <g>
    <path class="fil2" d="M2302.69 2355.07c13.12,-11.93 34.07,-45.59 44.07,-51.1 28.27,-15.56 50.32,1.9 54.09,28.26 10.82,75.8 -58.82,144.03 -151.35,114.05l-29.88 -17.69c-44.15,-42.77 -59.43,-120.88 17.49,-134.77 33.25,24.73 6.79,49.59 65.58,61.25z"/>
    <path class="fil2" d="M1998.18 1828.53c-74.42,-13.86 -56.52,8.91 -64.39,15.52 10.11,69.28 124.48,63.11 87.46,-7.95 -4.12,-1.7 -1.75,-3.59 -23.07,-7.57zm-78.48 79.43c-5.98,-41.47 2.23,-80.81 12.37,-117.99 16.56,34.89 -9.64,11.51 32.42,18.26 11.47,1.85 25.81,0.49 39.59,1.63 96.34,7.94 74.04,98.06 20.71,106.65 -24.38,3.93 -34.43,-5.16 -54.03,-9.22l-51.06 0.67z"/>
    <path class="fil2" d="M2302.69 2355.07c-58.79,-11.66 -32.33,-36.52 -65.58,-61.25 -76.92,13.89 -61.64,92 -17.49,134.77l29.88 17.69c92.53,29.98 162.17,-38.25 151.35,-114.05 -3.77,-26.36 -25.82,-43.82 -54.09,-28.26 -10,5.51 -30.95,39.17 -44.07,51.1zm-478.95 -425.37c-232.69,25.37 -246.08,371.67 6.52,408.85 41.52,6.11 140.12,-1.99 164.54,-27.07 25.87,-26.55 -26.08,-100.31 -40.61,-128.94 -40.35,-79.49 -95.75,-170.97 -130.45,-252.84zm-414.19 -30.17c-22.66,-14.19 -33.63,-7.92 -36.26,-7.53l-8.54 1.82c-43.81,3.77 -22.43,-8.31 -70.49,11.37 24.17,43.09 50.53,37.07 84.58,38.26 -31.69,37.54 1.61,41.23 41.25,35.14 43.88,-6.74 66.67,-15.14 107.84,-1.63 -8.92,7.52 -3.1,4.55 -17.73,10.88 -66.4,28.71 -148.51,1.97 -183.54,1.9 -17.34,34.1 -25.88,9.97 -51.18,48.31 40.83,15.92 6.69,17.28 46.26,10.17 28.4,-5.11 16.47,-9.95 51.48,-9.75 -70.68,35.49 -74,0.98 -110.43,19.1 -23.37,11.19 -5.32,4.13 -12.8,15.59 -28.1,43.08 -15.24,7.39 -29.47,50.34 9.33,9.83 2.19,4.72 19.65,9.45 8.65,21.14 25.14,1.13 44.57,-6.82 -20.15,12.88 -15.48,5.02 -20.7,31.47 26.55,1.35 19.9,8.39 47.4,-19.04l-3.55 38.22c51.12,-9.57 35.34,-18.57 61.11,-19.2 4.04,-0.1 5.54,18.77 37.74,-25.08l6.7 -8.94c-0.55,29.18 8.23,7.28 -7.71,23.89 13.1,11.18 -6.17,1.59 15.54,9.5 1.61,0.59 11.31,1.88 13.89,2.5 -51.73,21.91 -41.3,31.25 -45.77,83.91l23.44 -6.78c30.28,-8.14 26.25,-4.37 36.92,-30.02 6.41,23.55 -3.53,16.16 17.87,18.27 18.09,-38.21 21.79,-69.94 34.69,-98.15 5.34,14.83 1.76,-1.76 -4.74,25.87 -15.36,65.34 35.08,103.9 38.56,4.94 43.86,83.08 12.82,-78.31 17.18,-103.36 14.48,-83.23 68.94,-56.83 116.08,-90.32 -20.02,-12.77 -47.51,11.27 -81.53,13.84 -46.33,3.5 -45.03,-19.87 -69.52,-41.94l-2.23 -35.7c-21.17,-12.59 -12.42,-23.71 -40.53,-22.68 -34.75,1.27 -5.69,-10.34 -53.11,-12.62 -1.01,1.86 -2.38,2.78 -2.71,5.75l-10.21 29.07zm-154.39 -206.33c19.65,31.54 11.6,31.83 45.28,57.53 52.79,40.28 16.53,28.55 95.13,47.71 57.43,14 48.55,16.23 113.96,8.57 6.88,-35.08 -2.1,-166 -18.75,-190.67 6.46,-76.83 -15.02,-157.32 -19.53,-235.16 -108.54,-1.84 -180.24,28.06 -221,90.79 -35.27,54.28 -49.39,188.24 4.91,221.23zm616.74 -72.71c44.31,-42.73 158.8,-46.53 99.71,-142.22 -59.66,-96.61 -90.86,-0.99 -157.91,28.44 -145.08,-143.69 -280.49,-49.64 -223.73,137.95l50.48 102.47c79.75,111.47 310.81,93.79 231.45,-126.64zm204.54 -230.41c-70.16,98.17 91.85,166.93 165.99,76.6 60.3,-73.47 -27.6,-207.3 -63.78,-136.94 -10.19,19.81 -4.12,22.7 -7.43,42.28 -11.89,70.47 -44.3,23.86 -94.78,18.06zm-1078.49 117.83c273.43,91.9 232.96,-169.51 158.07,-283.71 -96.18,-146.68 -331.91,-170.18 -299.79,80.31l6.82 -10.48c47.04,-76.28 91.26,-36.6 110.14,5.67l-29.77 19.53 -20.6 -42.51c-54.04,-0.58 -68.02,29.77 -45.22,70.14 -36.4,20.09 -117.33,58.1 -122.67,99.91 -6.95,54.42 46.09,112.29 103.99,104.03 42.52,-36.21 21.92,-54.41 93.67,-86.41l38.73 30.87c43.17,-12 58.76,-23.6 35.46,-61.65 -42.31,-69.08 5.6,29.77 -14.43,-20.96 17.86,-7.36 19.37,-9.68 37.61,-16.84 10.49,31.25 27.83,82.47 -14.1,101.48 -12.72,5.78 -9.62,2.89 -18.94,5.54 -2.56,0.73 -11.42,5.67 -12.72,3.36 -1.07,-1.88 -4.3,0.8 -6.25,1.72zm916.74 -156.89c151.59,36.58 293.58,-72.32 317.34,-197.83 31.1,-164.34 -102.55,-254.09 -256.56,-257.35 -15.77,79.36 -77.89,401.02 -60.78,455.18zm-305 -637.63c-189.3,-19.57 -307.79,107.88 -341.84,264.44 -30.93,142.22 95.68,319.15 254.88,342.45 136.37,19.97 346.02,-41.99 351.24,-258.57 4.92,-203.99 -72.44,-328.49 -264.28,-348.32zm479 -180.71c-1.56,-35.95 -13.58,-46.38 -31.84,-59.55 -22.73,38.45 -30.62,48.33 -5.89,85.46 -13.07,6.92 7.82,5.36 -11.1,-3.47 -0.19,-0.09 -0.94,-4.24 -18.42,-9.85 5.13,47.33 31.37,125.32 46.16,189.01 -75.99,-38.73 -39.79,-136.46 -57.12,-204.74 -21.32,4.36 -8.62,-21.03 -17.62,19.13 -4.82,-41.08 -4.56,-43.73 -36.49,-62.4 -12.18,67.04 -1.91,37.91 9.35,95.44 -28.84,-29.88 -13.72,-72.75 -40.75,-101.66 -28.18,13.58 -14.25,1.62 -10.99,34.14 -14.85,-33.63 -8.84,-30.55 -44.39,-32.34 -20.85,25.31 -7.69,24.97 -6.97,47.66 0.02,0.85 -0.05,3.15 -0.08,3.98 -0.8,22.8 -11.91,28.43 26.3,41.27l-24.82 21.64c37.14,62.86 21.28,21.27 21.54,49.25 81.2,51.22 15.91,-26.35 156.87,101.92 -73.34,4.9 -89.8,-83.59 -129.05,-65.63l-3.87 27.36c-36.26,-19.01 -45.77,-35.6 -87.73,-14.98 28.7,69.05 54.01,8.48 43.64,59.26 66.07,8.24 23.88,3.79 36.02,26.52 8.27,15.48 15.41,21.72 38.79,11.35 16.37,18.79 1.68,-3.06 9.2,22.67 45.21,-4.71 71.17,-48.98 110.33,-44.58 39.74,4.47 53.33,54.56 85.22,66.01 -10.82,-40.36 -60.64,-40.45 -55.18,-109.2 3.5,-44.15 46.95,-84.86 65.11,-103.89 1.6,-45.92 -2.96,-1.98 -5.15,-25.93 -4.23,-46.32 15.63,-50.43 -41.33,-33.47l-1.91 -50.85c-16.76,9.16 -8.79,-2.78 -17.83,20.47zm-101.91 1164.03c-40.43,26.77 -40.98,41.68 -54.71,93.26 -10.14,37.18 -18.35,76.52 -12.37,117.99l4.98 31.86c12.4,106.07 99.82,221.96 170.61,261.69 88.56,49.71 219.52,44.98 319.32,2.65 33.92,-14.39 16.44,-18.1 27.34,-5.43 23.19,32.76 54.62,315.47 65.06,379.42 -49.57,-1.83 -615,-156.55 -717.49,-182.49 -105.27,-26.63 -672.61,-162.68 -721.02,-192.32 41.47,-60.35 101.91,-124.95 107.54,-230.85 2.56,-48.27 -9.35,-99.83 -29.33,-140.35 -10.49,-21.25 -52.84,-84.33 -70.19,-93.88l-13.79 -16.84c-121.64,-166.05 -653.95,-144.03 -579.25,333.72l-131.37 -32.57c23.06,-157.69 12.66,-221.88 98.45,-336.05 30.31,-40.35 69.12,-71.06 105.09,-110.35 29.89,-32.66 70.43,-63.39 96.56,-118.83 76.99,-163.34 -36.19,-247.3 261.85,-386.09 54.7,-25.47 100.39,-39.4 143.28,-71.34 96.08,-71.57 94.88,-174.41 167.78,-263.35 77.94,-95.11 199.31,-62.91 337.37,-93.86 148.38,-33.26 177.13,-94.89 255.13,-175.97 99.2,-103.09 209.25,-16.4 347.39,-33.66 18.41,31.05 159.96,989.59 181.67,1121.99 -86.51,-19.47 -150.57,-26.73 -228.82,10.35 -48.4,22.93 -122.3,92.13 -131.08,131.3z"/>
    <path class="fil2" d="M1.28 1901.84l0 -87.11c47.07,-81.82 14.39,-87.03 101.35,-149.14 53.44,-38.16 111.47,-52.8 111.41,-140.55 -0.12,-182.76 -40.1,-270.38 144.64,-353.79 65.3,-29.49 102.7,-55.62 136.7,-110.49 43.39,-70.05 28.58,-125.11 59.29,-196.26 21.33,-49.44 75.73,-106.36 125,-122.26 87.96,-28.39 128.62,0.61 193.64,-62.12 93.89,-90.58 64.62,-224.57 209.22,-286.04 152.27,-64.74 279.74,5.69 373.5,-128.98 228.93,-328.82 361.37,-35.13 524.3,-162.84 94.3,-73.92 48.19,-43.79 151.3,-102.57l63.13 0c50.4,37.68 111.71,61.98 121.5,191.69 7.41,98.19 -30.89,180.26 -103.35,207.92 -26.97,-68.01 -20.25,-147.95 -85.12,-170.71 -64.23,-22.52 -134.39,51.67 -166.91,77.99 -126.05,102 -242.89,-88.35 -403.55,67.72 -38.59,37.49 -62.27,110.83 -119.66,135.69 -64.69,28.04 -154.56,19.41 -224.41,39.95 -181.14,53.26 -121.19,193.87 -238.53,279.28 -99.9,72.72 -225.17,-36.77 -277.19,234.81 -36.72,191.7 -209.47,147.95 -256.7,261.58 -32.1,77.23 -16.66,138.31 -17.42,223.09 -1.17,131.44 -172.6,65.19 -197.18,320.11 -8.53,88.53 19.08,148.58 88.41,171.46 -24.8,27.27 -61.11,31.67 -97.95,30.48 -159.26,-5.17 -188.88,-120.96 -215.42,-168.91z"/>
    <path class="fil2" d="M2426.83 1696.37c-3.73,29.35 0.45,45.35 8.91,67.8l25.13 127.82c2.27,19.97 0.02,46.26 10.96,53.5 -5.72,101.19 123.54,635.44 115.31,718.04 -167.39,-37.36 -349.67,-90.58 -516.66,-133.6l-1039.69 -269.81c-174.57,-44.28 -352.04,-98.63 -508.66,-137.08l2015.8 481.48c-34.27,-313.12 -311.34,-1883.6 -312.98,-2031.51l201.88 1123.36z"/>
    <path class="fil2" d="M1953.3 1264.96c33.14,-13.39 36.1,-0.79 75.2,-5.52 -24.64,-40.36 -34.12,4.17 -42.4,-57.5 32.95,6.02 54.62,21.62 80.18,3.37 -30.6,-26.57 -38.61,-2.49 -53.37,-39.92 19.45,-7.67 52.64,9.43 83.34,9.92 -14.07,-48.28 -28.93,-17.86 -51.11,-49.84 22.93,-6.76 42.48,-7.32 59.81,-18.74 -39.94,-25.22 -45.92,12.36 -80.21,-13.2 29.12,-22.66 51.27,12.16 79.16,-31.93 -30.3,-15.16 -9.79,-4.49 -39.29,-3.27 -41.87,1.73 -20.72,8.53 -40.03,-8.59 69.4,-12.99 57.64,-23.53 64.69,-38.23l-83.25 4.75c20.67,-115.25 173.83,2.58 144.77,143.73 -9.87,47.94 -35.07,101.16 -66.1,124.58 -35.78,27.01 -130.11,38.29 -131.39,-19.61z"/>
    <path class="fil2" d="M1431.19 1663.54c9.92,8.22 22.56,2.9 -3.81,32.21 -29.23,32.49 -5.85,-7.68 -26.28,24.59l64.35 -4.4c9.02,50.94 -56.66,50.58 -86.5,36.45 -25.62,-12.13 -50.32,-46.08 -71.86,-65.92 -0.02,-66.18 -43.11,-117.25 11.77,-185.34 9.95,-12.35 39.96,-47.5 59.82,-52.89 32.1,-8.71 55.49,11.32 55.3,40.04l-75.46 -6.02c11.02,29.5 3.6,14.42 22.8,26.79 5.4,3.47 10.05,4.5 15.71,8.76 15.53,11.69 7.2,1.83 19.17,19.8 -34.2,-6.61 -51.02,-23.09 -73.68,-4.95 21.72,28.09 18.9,10.46 54.18,23.28l15.97 8.66c-31.77,12.25 -46.45,-10.6 -70.11,7.98l55.33 19.81c-23.63,13.06 -41.85,10.4 -51.64,36.08 36.5,22.16 43.68,-12.76 75.55,0 -18.54,41.76 -28.89,4.06 -45.75,39.93 21.09,6.83 37.37,-0.46 55.14,-4.86z"/>
    <path class="fil2" d="M1822.15 2027.69c-18.97,50.93 -38.84,-10.9 -66.88,44.08l66.91 8.45c-11.78,25.53 -40.3,-3.17 -68.6,27.31 33.39,26.86 52.59,-4.47 77.92,7.98 -23.97,20.42 -29.27,11.16 -62.58,23.96 9.54,24.64 25.28,7.26 58.63,8.29 -21.89,34.04 -33.23,9.88 -35.91,54.11 46.38,-3.89 38.16,-26.49 76.34,-29.61 -10.58,33.63 -23.25,26.89 -40.37,55.98 45.57,-5.76 36.32,-19.14 73.56,-27.05 -1.53,35 -5.54,29.2 -15.34,43.23 -11.58,16.56 1.88,-7.77 -11.86,15.15 39.14,-6.5 37.05,-19.65 74.91,-15.94 -1.5,77.12 -134,90.72 -203.5,-27.93 -65.85,-112.43 13.52,-263.88 76.77,-188.01z"/>
    <path class="fil2" d="M859.16 2051.64c-1.85,23.91 -35.09,53.55 -60.02,53.59 -27.65,0.05 -48.54,-26.13 -49.74,-53.8 -3.54,-81.63 114.96,-67.36 109.76,0.21z"/>
    <path class="fil2" d="M2180.97 2035.68c94.57,5.33 90.6,93.33 28.03,107.18 -58.27,12.89 -102.18,-63.88 -28.03,-107.18z"/>
    <path class="fil2" d="M690.48 1830.59c-2.87,47.12 1.6,66.09 -50.47,90.92 -35.03,-9.92 -59.98,-26.02 -54.24,-67.86 5.82,-42.4 35.5,-44.4 80.5,-45.92 11.08,16.81 8.99,13.09 24.21,22.86z"/>
    <path class="fil2" d="M2298.92 1923.85l4.79 -62.88c15.51,-21.59 21.94,-22.04 56.69,-25.99 37.97,44.8 42.27,17.38 40.31,94.31 -48.79,14.95 -53.78,31.47 -101.79,-5.44z"/>
    <path class="fil2" d="M2203.78 1856.68c8.43,43.59 0.73,41.39 -6.46,79.03 -44.19,4.61 -51.51,7.24 -88.77,-11.99 -3.56,-18.77 -23.99,-80.82 41.23,-86.02 18.81,-1.5 27.96,6.34 44.79,14.68l9.21 4.3z"/>
    <path class="fil2" d="M899.05 1852.07l-4.26 27.88c-21.63,13.73 -42.58,67.88 -87.19,19.73 -7.28,-7.87 -13.61,-18.01 -14.86,-32.15 -2.87,-32.47 17,-44.7 38.9,-59.89 52.45,7.34 43.23,13.18 67.41,44.43z"/>
    <path class="fil2" d="M1083.67 2027.69c-30.8,105.56 -143.9,58.25 -87.6,-41.3 52.49,-10.7 67.17,-5.14 87.6,41.3z"/>
    <path class="fil2" d="M2300.7 1726.57c-45.52,-6.06 -63.86,-28.66 -62.18,-75.29l29.44 -30.13c82.97,0.85 103.67,62.95 32.74,105.42z"/>
    <path class="fil2" d="M1646.76 1038.48c52.16,109.13 -92.63,127.77 -77.77,17.28 24.91,-22.68 33.42,-29.62 77.77,-17.28z"/>
    <path class="fil2" d="M1351.43 1037.58c64.35,-40.81 100.67,-14.39 80.38,66.05 -39.01,16.33 -47.75,13.13 -82.29,-9.09l1.91 -56.96z"/>
    <path class="fil2" d="M1009.53 1805.48l51.32 -0.14c4.71,16.02 11.79,18.36 22.37,38.71 5.83,54.03 -91.69,88.7 -92.36,7.65 -0.24,-29.86 10.75,-26.51 18.67,-46.22z"/>
    <path class="fil2" d="M1776.04 967.59c-59.82,14.74 -84.12,-0.73 -74.42,-68.45 59.52,-47.96 106.87,-3.69 74.42,68.45z"/>
    <path class="fil2" d="M2158.71 1715.7c-23.6,25.41 -21.02,34.49 -70.88,32.51 -1.61,-1.47 -4.35,-5.45 -5.08,-4.1 -0.9,1.66 -6.28,-5.46 -9.13,-9.2 -11.27,-14.72 0.95,6.89 -10.77,-17.84 -4.83,-42.76 14.8,-63.36 55.74,-62.26 4.17,3.89 15.25,13.66 21.11,21.57 14.2,19.18 11.67,15.61 19.01,39.32z"/>
    <path class="fil2" d="M1812.03 1124.29c-4.29,64.6 -30.75,71.03 -82.67,53.63 -26.05,-78.62 32.43,-116.35 82.67,-53.63z"/>
    <path class="fil2" d="M1477.71 917.88c46.54,-50.59 102.1,-19.8 85.05,36.36 -14.29,47.04 -94.53,43.12 -85.05,-36.36z"/>
    <path class="fil2" d="M1660.58 844.48c-60.2,18.02 -75.73,-16.53 -63.81,-64.56 58.41,-26.7 96.11,-2.26 63.81,64.56z"/>
    <path class="fil2" d="M2361.04 2135.16c-6.06,-33.39 -3.77,-44.5 11.66,-68.17l41.81 1.62c20.62,9.5 49.75,103.98 -53.47,66.55z"/>
    <path class="fil2" d="M791.67 1759.34l-47.82 -3.04c-6.83,-38.66 -32.14,-63.54 31.9,-81.14 9.52,5.62 11.76,4 23.55,17.8 25.28,29.57 4.13,32.7 -7.63,66.38z"/>
    <path class="fil2" d="M2013.23 1949.85l25.34 -0.97c22.23,10.22 25.08,12.72 35.87,38.89 -24.1,60.39 -82.59,54.47 -83.23,-16.85l22.02 -21.07z"/>
    <path class="fil2" d="M623.07 2034.78c9.47,66.86 -39.89,64.4 -75.07,38.12 -8.7,-68.38 40.57,-69.4 75.07,-38.12z"/>
    <path class="fil2" d="M1605.44 1269.18c-27.49,-38.57 35.36,-78.68 57.75,-41.19 24.83,41.55 -29.61,80.67 -57.75,41.19z"/>
    <path class="fil2" d="M1411.87 922.8c-55.19,19.25 -64.63,-13.22 -55.71,-56.02 41.28,-16.21 84.28,-2.32 55.71,56.02z"/>
    <path class="fil2" d="M1413.44 2123.56c8.1,-32.76 27.12,-53.69 46.56,-74.4 21.1,-22.46 40.58,-33.32 81.72,-40.27 -15.9,24.5 7.48,1.2 -19.42,23.05 -6.33,5.15 -11.19,5.17 -20.15,11.8 -31.74,23.46 -30.14,63.86 -88.71,79.82z"/>
    <path class="fil2" d="M1447.9 1205.31c17.42,-17.43 28.54,-25.94 59.7,-13.04 20.23,59.31 -7.93,71.47 -55.41,54.06l-4.29 -41.02z"/>
    <path class="fil2" d="M1852.11 1698.65c-41.11,2.93 -50.2,-13.54 -70.89,-36.07l23.14 -25.44c31.6,31.36 6.94,63.72 72.24,21.2 -8.26,31.52 -4.26,23.34 -24.49,40.31z"/>
    <path class="fil2" d="M1768.58 1469.43c-5.62,6.34 -5.33,5.69 -13.19,13.07 -42.42,39.83 -16.71,36.47 2.37,64.29l-40.06 12.4c-9.07,-58.64 -12.73,-86.99 50.88,-89.76z"/>
   </g>
   <path class="fil3" d="M3497.97 1999.6c-634.61,127.62 -1304.23,223.17 -1947.51,332.66 -78.65,13.42 -208.62,26.58 -262.74,58.63l130.69 -0.21 -221.57 73.81 221.55 3.84c-40.89,-0.41 -187.32,54.7 -215.22,78.83l182.59 -4.89c-68.47,51.21 -103.23,23.77 -171.37,78.63l197.57 -4.33c-20.67,6.34 -60.91,24.38 -91.06,33.94l-73.56 23.29c-3.8,1.63 -7.96,3.54 -11.53,5.25 -20.22,9.7 -21.43,11.19 -32.51,19.3l209.63 -4.24 -217.61 73.98 194.44 1.9 -201.56 76.23 194.43 -1.24c-17.82,12.8 1.51,3.88 -33.05,20.23 -20.53,9.71 -26.11,10.68 -48.01,17.62 -16.75,5.29 -37.26,10.17 -48.84,15.35 -46.78,20.94 -23.68,10.14 -45.04,27.52l210.6 -5.01 -220.21 73.66 184.5 2.27c-38.87,35.55 -66.32,28.46 -115.87,55.16 295.44,-12.9 2659.42,-435.55 2850.28,-481.22l-177.27 -3.13c61.91,-23.79 166.87,-47.48 214.51,-80.62l-210.19 3.66 215.25 -69.62 -181.47 -5.47c22.56,-18.9 -5.73,-2.06 32.17,-21.3 18.05,-9.16 28.29,-12.1 48.21,-18.59 17.09,-5.58 31.4,-8.23 49.16,-15.32l-169.82 -18.63 223.61 -75.18 -221.9 -2.84 225.05 -70.73c-37.56,-16.72 -133.3,-4.96 -191.35,-3.67 17.27,-14.42 0.62,-5.42 31.09,-20.13 73.25,-35.38 80.27,-12.52 142.19,-58.11l-210.14 3.46 221.26 -74.45 -212.28 -2.44 209.31 -73.33 -185.61 -1.94 65.53 -33.48c26.34,-9.89 43.42,-14.13 65.45,-23.64l-601.78 94.54z"/>
   <path class="fil4" d="M1709.39 2838.36l-67.77 -395.24c-0.22,-1.31 0.18,-2.62 1.32,-3.86 1.04,-1.23 2.96,-2.18 5.72,-3.07 2.66,-0.87 5.04,-1.59 7.13,-2.16 1.99,-0.55 4.89,-1.26 8.71,-2.01 3.93,-0.78 6.46,-1.21 7.88,-1.46l240.66 -41.26c19.72,-3.38 38.97,-3.46 57.64,-0.3 18.67,3.25 35.8,9.58 51.48,19.08 15.58,9.5 29.05,23.03 40.14,40.39 11.12,17.46 18.69,37.92 22.72,61.4 2.98,17.4 3.68,33.62 2.11,48.79 -1.57,15.06 -4.82,28.32 -9.66,39.56 -4.93,11.36 -11.46,21.85 -19.59,31.58 -8.22,9.74 -16.9,18 -25.96,24.65 -9.17,6.68 -19.49,12.71 -30.93,18.21 -11.45,5.51 -22.15,9.95 -32.08,13.32 -9.86,3.25 -20.38,6.3 -31.57,9.05l-56.85 9.75c3.72,31.44 9.01,66.46 15.63,105.1l5.71 33.28c0.62,7.29 -2.21,11.42 -8.29,12.46l-168.33 28.87c-7.5,-12.78 -12.74,-28.13 -15.82,-46.13zm131.49 -236.44l11.75 11.42c8.09,-1.39 15.77,-3.33 22.95,-5.81 7.2,-2.38 14.12,-5.75 20.69,-9.9 6.59,-4.15 12.1,-9.05 16.45,-14.59 4.37,-5.54 7.51,-12.11 9.4,-19.93 1.9,-7.73 2.12,-16.19 0.57,-25.2 -1.2,-6.98 -3.27,-12.98 -6.02,-18.13 -2.84,-5.03 -5.83,-9.1 -9.15,-12.07 -3.22,-2.99 -7.39,-5.4 -12.49,-7.24 -5.09,-1.72 -9.76,-2.9 -14.04,-3.52 -4.27,-0.62 -9.59,-0.64 -15.88,-0.3 -6.39,0.37 -11.51,0.83 -15.68,1.45 -4.07,0.58 -9.23,1.47 -15.5,2.54 -6.24,4.3 -3.89,38.06 6.95,101.28zm316.2 189.15l-66.74 -389.27c-0.06,-1.55 1.31,-3.24 4.02,-5.06 2.71,-1.82 4.37,-3.05 4.88,-3.75l159.43 -27.34 66.14 385.72c-0.3,4.33 -0.74,7.21 -1.4,8.89 -0.65,1.67 -1.94,2.62 -3.96,2.97l-162.37 27.84zm199.28 -47.6l-3.14 -18.32c-0.28,-1.61 -0.67,-4.46 -1.17,-8.64 -0.52,-4.19 -0.96,-7.44 -1.38,-9.87l-2.64 -15.38c-4.4,-25.69 -5.75,-39.62 -4.07,-41.99 21.49,-35.56 53.45,-91.54 95.7,-167.62l20.15 -33.65c-5.43,0.52 -19.81,2.87 -43.35,7.12 -23.43,4.22 -38.38,6.9 -44.65,7.97l-7.69 1.32c-2.23,0.38 -5.44,1.04 -9.77,1.99 -4.31,0.94 -7.52,1.6 -9.75,1.98l-18.93 3.24c-5.16,-1.61 -8.16,-4.53 -8.9,-8.88l-17.63 -102.78 328.47 -56.32c3.54,-0.61 5.86,-1.01 7.09,-1.11 1.23,-0.1 2.66,0.27 4.47,1.11 1.8,0.83 3.01,2.39 3.82,4.66 0.82,2.35 1.59,5.66 2.33,10.01 0.4,2.32 0.71,5.29 0.88,8.7 0.16,3.41 0.32,5.57 0.44,6.27l1.84 3.44c1.25,7.28 2.46,14.36 3.54,21.26 1.1,6.99 1.88,12.79 2.5,17.59 0.61,4.78 1.12,8.97 1.52,12.54 0.43,3.68 0.79,6.43 1.02,8.37 0.25,2.04 0.34,3.17 0.38,3.37 -0.81,4.4 -1.23,6.87 -1.12,7.48l0.81 4.75c-11.68,19.29 -28.75,46.69 -50.97,82.27 -22.33,35.58 -37.84,60.52 -46.53,74.83l-10.21 18.82 -11.62 17.82 148.19 -25.41c6.38,-1.09 10.87,6.27 13.59,22.15l13.25 77.29c1.03,5.96 0.41,10.24 -1.74,12.9 -2.27,2.57 -6.33,4.41 -12.19,5.42l-331.41 56.82c-1.32,-1.02 -3.4,-2.86 -6.24,-5.49 -2.75,-2.66 -4.44,-4.65 -4.89,-6.03zm368.11 -63.12l-3.14 -18.31c-0.27,-1.62 -0.66,-4.47 -1.16,-8.65 -0.52,-4.18 -0.96,-7.44 -1.38,-9.87l-2.64 -15.38c-4.4,-25.69 -5.76,-39.62 -4.07,-41.99 21.49,-35.55 53.45,-91.54 95.7,-167.61l20.15 -33.65c-5.43,0.51 -19.81,2.86 -43.35,7.11 -23.43,4.22 -38.39,6.9 -44.65,7.97l-7.69 1.32c-2.23,0.39 -5.45,1.04 -9.77,1.99 -4.31,0.94 -7.53,1.6 -9.75,1.98l-18.93 3.24c-5.16,-1.61 -8.16,-4.53 -8.91,-8.88l-17.62 -102.78 328.47 -56.32c3.54,-0.6 5.86,-1 7.09,-1.11 1.23,-0.1 2.66,0.27 4.46,1.11 1.81,0.84 3.02,2.39 3.83,4.66 0.82,2.36 1.59,5.66 2.33,10.01 0.4,2.33 0.71,5.3 0.87,8.7 0.17,3.41 0.33,5.57 0.45,6.27l1.84 3.44c1.25,7.28 2.46,14.36 3.54,21.26 1.1,6.99 1.88,12.79 2.5,17.59 0.61,4.78 1.12,8.97 1.52,12.54 0.43,3.68 0.79,6.43 1.02,8.37 0.25,2.04 0.34,3.17 0.38,3.38 -0.81,4.39 -1.23,6.86 -1.13,7.47l0.82 4.75c-11.68,19.29 -28.75,46.69 -50.97,82.27 -22.33,35.59 -37.84,60.52 -46.54,74.83l-10.2 18.83 -11.63 17.82 148.2 -25.41c6.38,-1.1 10.87,6.26 13.59,22.14l13.25 77.29c1.02,5.96 0.41,10.24 -1.74,12.9 -2.27,2.57 -6.33,4.41 -12.19,5.42l-331.41 56.82c-1.32,-1.02 -3.4,-2.85 -6.25,-5.49 -2.74,-2.65 -4.43,-4.65 -4.89,-6.03zm520.99 -139.62c-0.53,4.76 -0.92,10.98 -0.87,18.57 -0.05,7.61 -0.26,13.69 -0.64,18.13 -0.28,4.42 -1.34,9.19 -3.18,14.29 -1.72,5.09 -5.08,9.2 -9.88,12.21 -4.89,3.03 -11.47,5.3 -19.77,6.73l-128.07 21.96 -1.72 -10.02c5.13,-33.26 12.12,-84.14 21.01,-152.62 8.87,-68.48 16.02,-120.31 21.3,-155.69l0.11 0.61c3.5,-20.29 8.16,-52.01 14.18,-95.22 0.14,-0.44 0.36,-0.99 0.66,-1.67 1.32,-3.25 2.55,-5.75 3.89,-7.65l160.24 -26.22c27.22,-4.67 42.69,-4.92 46.23,-0.64l1.32 7.69c0.73,1.75 3.72,5.92 8.93,12.53 29.18,55.49 50.57,95.77 64.05,120.95l0.6 3.54c1.78,5.53 4.64,11.81 8.62,18.62 4.09,6.9 8.67,14.13 14.05,21.85 5.28,7.74 9.14,13.85 11.48,18.35l19.15 40.66c10.92,21.76 26.3,50.68 46.32,86.71l-0.1 -0.61 1.02 5.98c1.07,2.62 3.23,6.1 6.37,10.46 3.14,4.35 5.23,7.43 6.19,9.35 0.94,5.46 0.45,9.3 -1.62,11.21 -1.95,2 -6.25,3.57 -12.73,4.68l-137.48 23.58c-3.51,0.18 -5.68,0.24 -6.73,0.22 -1.04,-0.04 -2.63,-0.18 -4.76,-0.43 -2.23,-0.25 -3.79,-0.82 -4.85,-1.57 -1.09,-0.86 -1.82,-2.08 -2.28,-3.56l-19.06 -43.18c-1.45,-3.61 -2.53,-5.61 -3.42,-5.98 -0.9,-0.37 -3.26,-0.16 -7.21,0.51l-91.35 15.67zm-3.84 -108.07l0.21 1.21 -0.21 -1.21zm59.07 -46.57c-2.06,-5.37 -5.31,-13.99 -9.75,-25.93 -4.34,-11.95 -8.42,-22.4 -12.23,-31.22 -3.68,-8.74 -7.58,-16.92 -11.47,-24.38l-2.44 -14.26c-2.33,-3.88 -5.56,-6.35 -9.83,-7.48l0.11 0.6c-4.58,1.83 -7.06,15.89 -7.45,42.21l2.43 14.16c-0.16,1.49 -0.74,2.94 -1.95,4.39 -1.22,1.36 -1.81,2.19 -1.78,2.39 -1.53,29.95 -2.88,54.22 -4,72.65 0.35,2.02 0.44,5.54 0.27,10.68 -0.06,5.11 -0.07,8.02 0.07,8.83l73.43 -12.59c-0.88,-5.15 -4.2,-14.17 -10.03,-26.91l-1.13 -6.59c-0.3,-0.56 -1.1,-1.57 -2.2,-3.15 -1.19,-1.47 -1.91,-2.59 -2.05,-3.4zm438.9 -155.65c-5.25,0.9 -9.75,0.84 -13.45,-0.09 -3.6,-1.05 -6.57,-2.52 -9.01,-4.59 -2.32,-2 -4.96,-4.05 -7.89,-5.95 -2.84,-2 -7.12,-3.25 -12.65,-3.96 -5.62,-0.6 -12.54,-0.25 -20.83,1.17 -2.63,0.45 -5.74,1.19 -9.29,2.33 -3.56,1.12 -7.38,3.13 -11.25,6.08 -3.98,2.88 -5.72,6.09 -5.15,9.43 0.64,3.74 3,6.57 7.11,8.67 4.09,2.01 8.57,3.22 13.39,3.43 4.85,0.31 10.33,0.73 16.45,1.14 6.03,0.53 10.39,1.14 12.93,1.95l45.42 3.15c13.46,1.33 25.64,3.1 36.65,5.37 10.88,2.19 22.73,5.68 35.43,10.49 12.79,4.78 23.7,10.71 32.81,17.7 9.11,6.98 17.37,16.28 24.58,27.96 7.3,11.56 12.28,24.87 14.86,39.94 3.11,18.1 3.46,34.71 1.15,49.79l-0.1 -0.61c-1.98,13.35 -5.82,25.57 -11.69,36.88 -5.79,11.2 -13.27,21.03 -22.34,29.45 -9.19,8.34 -18.56,15.68 -28.33,21.83 -9.66,6.25 -21.19,11.86 -34.48,16.95 -13.21,4.98 -25.2,9.11 -35.72,12.17 -10.49,3.15 -22.74,6.4 -36.63,9.83 -62.75,7.52 -106.14,4.75 -130.14,-8.31l-0.6 -3.54c-20.32,-10.36 -36.08,-22.77 -47.39,-37.07 -11.32,-14.41 -19.43,-31.34 -24.44,-50.89 -0.82,-4.76 1,-7.47 5.36,-8.22 1.11,-0.19 2.94,-0.39 5.3,-0.59 2.47,-0.21 4.2,-0.41 5.42,-0.62l30.24 -5.18c2.66,-0.88 6.58,-1.76 11.74,-2.64l7.68 -1.32c1.62,-0.28 2.98,-0.3 4.26,-0.1 11.36,-2.37 30.95,-5.94 58.57,-10.67l13.65 -2.34c3.95,-0.68 7.2,0.02 9.81,1.96 2.55,2.06 4.78,4.71 6.68,7.92 1.91,3.31 3.92,6.51 6.25,9.75 2.31,3.15 5.75,5.58 10.51,7.26 4.75,1.58 10.72,1.81 17.81,0.59 7.78,-1.33 14.32,-4.53 19.89,-9.66 5.48,-5.1 7.62,-11.51 6.3,-19.2 -0.61,-3.54 -2.81,-6.59 -6.8,-9.24 -3.87,-2.57 -9.41,-4.53 -16.55,-6.01 -7.1,-1.39 -13.52,-2.37 -18.95,-3.1 -5.55,-0.73 -12.94,-1.33 -22.23,-2.03 -9.26,-0.6 -15.19,-1.15 -17.96,-1.5l-17.7 3.03c-45.04,-5.18 -78.65,-15.98 -100.9,-32.16 -22.25,-16.18 -35.89,-39.25 -41,-69.09 -3.38,-19.73 -2.67,-38.07 2,-55.12 4.66,-17.15 12.28,-31.68 22.67,-43.88 10.43,-12.09 23.23,-23.04 38.46,-32.63 15.33,-9.6 31.18,-17.32 47.68,-23.17 16.51,-5.74 33.77,-10.16 51.97,-13.28 32.18,-5.52 63.04,-5.29 92.41,0.82 29.46,5.98 52.7,16.47 69.92,31.23 6.04,4.27 11.29,10.03 15.79,17.39 4.49,7.35 7.6,13.38 9.29,17.77 1.71,4.5 4.16,12.09 7.45,22.78l-6.26 13.26 -50.39 8.64c-5.56,0.95 -14.8,2.32 -27.72,4.12 -12.91,1.8 -22.86,3.3 -30.05,4.53z"/>
   <g>
    <path class="fil5 str1" d="M2554.82 1990.07c-4.12,4.84 -9.77,9.08 -16.93,12.7 -7.16,3.64 -15.71,6.26 -25.67,7.89 -13.26,2.18 -24.5,2.32 -33.69,0.42 -9.2,-1.9 -15.76,-6.69 -19.67,-14.37 -15.63,-30.74 -28.4,-55.6 -38.32,-74.6 -9.92,-19 -17.96,-35.75 -24.13,-50.24l-2.76 0.45c2.45,21.91 4.87,41.86 7.24,59.82 2.38,17.96 4.87,35.43 7.45,52.41 2.6,16.98 5.03,34.17 7.32,51.58 2.28,17.41 4.59,36.71 6.93,57.89 -4.49,2.63 -10.5,5.22 -18.02,7.78 -7.53,2.56 -15.16,4.46 -22.9,5.73 -16.21,2.66 -29.25,2.15 -39.13,-1.53 -9.86,-3.69 -15.92,-12.34 -18.16,-25.97l-30.14 -284.5c2.16,-5.28 7.77,-11.5 16.81,-18.65 9.05,-7.16 22.6,-12.21 40.65,-15.17 19.53,-3.2 35.32,-2.67 47.37,1.6 12.05,4.28 21.76,12.8 29.16,25.6 4.76,8.29 10.02,17.84 15.76,28.63 5.74,10.79 11.53,21.94 17.39,33.46 5.87,11.54 11.62,22.98 17.26,34.35 5.66,11.37 10.74,21.6 15.25,30.7l2.76 -0.45c3.78,-32.4 7.72,-63.79 11.82,-94.16 4.11,-30.37 8.24,-55.93 12.42,-76.66 5.04,-3.85 11.73,-7.5 20.05,-10.95 8.33,-3.44 17.84,-6.04 28.53,-7.79 18.04,-2.96 33.23,-2.7 45.52,0.77 12.29,3.48 20.19,10.04 23.65,19.69 2.69,7.11 6.1,18.2 10.27,33.21 4.16,15.03 8.74,31.96 13.71,50.82 4.98,18.86 10.15,38.82 15.49,59.89 5.34,21.07 10.45,41.32 15.34,60.77 4.89,19.43 9.23,37.27 13.02,53.49 3.79,16.21 6.6,28.71 8.42,37.49 -5.66,4.71 -11.77,8.45 -18.32,11.23 -6.53,2.77 -15.15,5.03 -25.84,6.78 -14,2.3 -26.19,1.83 -36.54,-1.39 -10.37,-3.21 -17.07,-11.77 -20.1,-25.65 -8.79,-39.8 -16.09,-75.68 -21.9,-107.65 -5.8,-31.97 -11.03,-58.72 -15.7,-80.28l-2.76 0.45c-1.33,14.97 -3.71,33.9 -7.16,56.79 -3.43,22.88 -7.35,52.09 -11.75,87.62zm469.02 -130.17c3.74,22.84 3.58,43.77 -0.5,62.79 -4.07,19.01 -11.47,35.65 -22.18,49.89 -10.72,14.24 -24.41,25.94 -41.08,35.1 -16.66,9.16 -35.85,15.52 -57.59,19.08 -21.74,3.56 -42,3.48 -60.77,-0.26 -18.78,-3.73 -35.53,-10.74 -50.26,-20.99 -14.74,-10.26 -27.05,-23.67 -36.95,-40.21 -9.9,-16.53 -16.66,-35.86 -20.28,-57.96 -3.56,-21.74 -3.29,-42.03 0.81,-60.86 4.11,-18.83 11.5,-35.47 22.2,-49.9 10.69,-14.41 24.33,-26.4 40.93,-35.93 16.6,-9.52 35.77,-16.07 57.51,-19.63 21.74,-3.56 42.01,-3.39 60.81,0.54 18.81,3.92 35.58,11.01 50.31,21.26 14.73,10.27 27.05,23.67 36.94,40.21 9.91,16.54 16.6,35.49 20.1,56.87zm-193.44 31.69c3.68,22.47 10.83,38.99 21.45,49.54 10.63,10.56 23.67,14.56 39.15,12.03 15.47,-2.53 26.36,-10.56 32.66,-24.08 6.29,-13.51 7.63,-31.32 4.01,-53.43 -3.62,-22.11 -10.65,-38.46 -21.08,-49.04 -10.44,-10.59 -23.39,-14.62 -38.87,-12.08 -15.47,2.53 -26.47,10.49 -32.99,23.85 -6.5,13.35 -7.96,31.09 -4.33,53.21zm344.74 -202.9c15.11,-2.47 30.28,-2.78 45.53,-0.93 15.25,1.85 28.92,6.15 40.99,12.86 9.85,-9.17 21.28,-17.3 34.32,-24.35 13.03,-7.04 29.31,-12.17 48.84,-15.37 14,-2.3 28.03,-2.7 42.08,-1.22 14.05,1.48 26.97,5.32 38.77,11.52 11.81,6.21 21.91,15.33 30.32,27.39 8.4,12.05 14.15,27.48 17.22,46.27l28.52 174.1c-3.51,1.71 -9.13,3.76 -16.86,6.16 -7.75,2.41 -15.86,4.3 -24.33,5.69 -8.11,1.33 -15.48,1.97 -22.11,1.92 -6.62,-0.05 -12.42,-1.37 -17.38,-3.96 -4.97,-2.59 -9.12,-6.54 -12.45,-11.87 -3.33,-5.32 -5.75,-12.58 -7.25,-21.79l-21.64 -132.1c-1.81,-11.05 -6.26,-18.55 -13.33,-22.5 -7.09,-3.95 -15.97,-5.05 -26.66,-3.3 -5.15,0.85 -10.48,2.95 -15.99,6.31 -5.5,3.37 -9.51,6.58 -12.04,9.64 0.61,1.41 1.02,2.76 1.23,4.05 0.21,1.29 0.41,2.49 0.59,3.59l30.15 184.05c-3.88,1.77 -9.68,3.85 -17.42,6.26 -7.74,2.4 -15.67,4.27 -23.77,5.59 -8.11,1.33 -15.47,1.97 -22.11,1.92 -6.62,-0.05 -12.42,-1.37 -17.39,-3.96 -4.96,-2.59 -9.11,-6.54 -12.44,-11.86 -3.33,-5.32 -5.75,-12.59 -7.26,-21.8l-21.64 -132.1c-1.81,-11.05 -6.52,-18.51 -14.16,-22.36 -7.63,-3.86 -16.24,-5 -25.81,-3.43 -6.63,1.08 -12.18,3.02 -16.65,5.84 -4.45,2.81 -8.19,5.41 -11.2,7.8l31.77 193.99c-3.5,1.71 -9.12,3.77 -16.86,6.17 -7.74,2.4 -15.84,4.3 -24.32,5.69 -8.11,1.32 -15.48,1.96 -22.1,1.91 -6.64,-0.04 -12.43,-1.37 -17.4,-3.96 -4.97,-2.59 -9.11,-6.54 -12.44,-11.86 -3.33,-5.32 -5.75,-12.59 -7.26,-21.79l-27.34 -166.92c-1.63,-9.95 -0.81,-18.22 2.46,-24.81 3.28,-6.59 8.17,-13.07 14.7,-19.44 11.08,-10.89 25.47,-20.62 43.17,-29.2 17.71,-8.57 36.68,-14.52 56.95,-17.84zm394.76 -11.88c-3.7,2.88 -8.37,5.53 -14.02,7.97 -5.66,2.44 -12.17,4.27 -19.53,5.47 -9.95,1.63 -18.78,0.9 -26.48,-2.19 -7.69,-3.09 -12.66,-9.18 -14.91,-18.28l-24.47 -104.38c4.49,-4.9 10.54,-9.58 18.13,-14.04 7.6,-4.46 16.37,-7.5 26.32,-9.13 13.99,-2.29 25.41,-1.33 34.24,2.9 8.83,4.23 14.26,12.61 16.31,25.13 0.85,5.16 1.63,12.23 2.34,21.19 0.71,8.97 1.24,18.53 1.58,28.69 0.33,10.16 0.57,20.24 0.7,30.24 0.13,10.01 0.05,18.82 -0.21,26.43zm307.34 98.91c4.58,28.01 -2.33,51.65 -20.74,70.94 -18.41,19.28 -48.06,32.27 -88.96,38.97 -15.47,2.54 -30.02,3.78 -43.65,3.75 -13.62,-0.04 -25.51,-1.59 -35.66,-4.66 -10.16,-3.07 -18.47,-7.67 -24.97,-13.79 -6.48,-6.13 -10.52,-13.98 -12.09,-23.56 -1.44,-8.84 -0.82,-16.61 1.86,-23.29 2.7,-6.68 6.29,-12.47 10.78,-17.37 11.65,4.14 24.77,7.39 39.34,9.73 14.57,2.35 30.88,2.03 48.93,-0.92 11.43,-1.87 19.91,-4.97 25.45,-9.28 5.53,-4.31 7.85,-9.23 6.94,-14.75 -0.84,-5.17 -3.71,-8.85 -8.62,-11.08 -4.9,-2.22 -12.67,-3.4 -23.29,-3.56l-17.12 -0.6c-33.08,-1.01 -58.56,-6.96 -76.42,-17.84 -17.86,-10.89 -28.85,-28.86 -32.95,-53.91 -2.23,-13.64 -1.3,-26.46 2.78,-38.48 4.09,-12.03 10.87,-22.59 20.35,-31.71 9.47,-9.13 21.34,-16.93 35.6,-23.43 14.26,-6.5 30.41,-11.22 48.47,-14.18 13.63,-2.23 26.61,-3.31 38.91,-3.25 12.3,0.06 23.21,1.39 32.72,4 9.5,2.61 17.37,6.71 23.59,12.31 6.21,5.61 10.04,12.83 11.49,21.68 1.39,8.46 1.01,16 -1.12,22.6 -2.14,6.59 -5.27,12.3 -9.4,17.14 -3.24,-1.36 -7.98,-2.57 -14.22,-3.63 -6.22,-1.06 -12.96,-1.85 -20.24,-2.36 -7.27,-0.51 -14.59,-0.73 -21.96,-0.66 -7.36,0.08 -14,0.59 -19.89,1.56 -12.16,1.99 -21.33,4.91 -27.51,8.76 -6.18,3.85 -8.79,8.73 -7.82,14.62 0.66,4.05 3.05,7.07 7.15,9.04 4.11,1.97 11.5,3.22 22.19,3.74l17.76 1.07c36.7,2.31 63.67,9.34 80.93,21.08 17.24,11.74 27.71,28.85 31.39,51.32z"/>
    <path id="1" class="fil4" d="M2554.82 1990.07c-4.12,4.84 -9.77,9.08 -16.93,12.7 -7.16,3.64 -15.71,6.26 -25.67,7.89 -13.26,2.18 -24.5,2.32 -33.69,0.42 -9.2,-1.9 -15.76,-6.69 -19.67,-14.37 -15.63,-30.74 -28.4,-55.6 -38.32,-74.6 -9.92,-19 -17.96,-35.75 -24.13,-50.24l-2.76 0.45c2.45,21.91 4.87,41.86 7.24,59.82 2.38,17.96 4.87,35.43 7.45,52.41 2.6,16.98 5.03,34.17 7.32,51.58 2.28,17.41 4.59,36.71 6.93,57.89 -4.49,2.63 -10.5,5.22 -18.02,7.78 -7.53,2.56 -15.16,4.46 -22.9,5.73 -16.21,2.66 -29.25,2.15 -39.13,-1.53 -9.86,-3.69 -15.92,-12.34 -18.16,-25.97l-30.14 -284.5c2.16,-5.28 7.77,-11.5 16.81,-18.65 9.05,-7.16 22.6,-12.21 40.65,-15.17 19.53,-3.2 35.32,-2.67 47.37,1.6 12.05,4.28 21.76,12.8 29.16,25.6 4.76,8.29 10.02,17.84 15.76,28.63 5.74,10.79 11.53,21.94 17.39,33.46 5.87,11.54 11.62,22.98 17.26,34.35 5.66,11.37 10.74,21.6 15.25,30.7l2.76 -0.45c3.78,-32.4 7.72,-63.79 11.82,-94.16 4.11,-30.37 8.24,-55.93 12.42,-76.66 5.04,-3.85 11.73,-7.5 20.05,-10.95 8.33,-3.44 17.84,-6.04 28.53,-7.79 18.04,-2.96 33.23,-2.7 45.52,0.77 12.29,3.48 20.19,10.04 23.65,19.69 2.69,7.11 6.1,18.2 10.27,33.21 4.16,15.03 8.74,31.96 13.71,50.82 4.98,18.86 10.15,38.82 15.49,59.89 5.34,21.07 10.45,41.32 15.34,60.77 4.89,19.43 9.23,37.27 13.02,53.49 3.79,16.21 6.6,28.71 8.42,37.49 -5.66,4.71 -11.77,8.45 -18.32,11.23 -6.53,2.77 -15.15,5.03 -25.84,6.78 -14,2.3 -26.19,1.83 -36.54,-1.39 -10.37,-3.21 -17.07,-11.77 -20.1,-25.65 -8.79,-39.8 -16.09,-75.68 -21.9,-107.65 -5.8,-31.97 -11.03,-58.72 -15.7,-80.28l-2.76 0.45c-1.33,14.97 -3.71,33.9 -7.16,56.79 -3.43,22.88 -7.35,52.09 -11.75,87.62zm469.02 -130.17c3.74,22.84 3.58,43.77 -0.5,62.79 -4.07,19.01 -11.47,35.65 -22.18,49.89 -10.72,14.24 -24.41,25.94 -41.08,35.1 -16.66,9.16 -35.85,15.52 -57.59,19.08 -21.74,3.56 -42,3.48 -60.77,-0.26 -18.78,-3.73 -35.53,-10.74 -50.26,-20.99 -14.74,-10.26 -27.05,-23.67 -36.95,-40.21 -9.9,-16.53 -16.66,-35.86 -20.28,-57.96 -3.56,-21.74 -3.29,-42.03 0.81,-60.86 4.11,-18.83 11.5,-35.47 22.2,-49.9 10.69,-14.41 24.33,-26.4 40.93,-35.93 16.6,-9.52 35.77,-16.07 57.51,-19.63 21.74,-3.56 42.01,-3.39 60.81,0.54 18.81,3.92 35.58,11.01 50.31,21.26 14.73,10.27 27.05,23.67 36.94,40.21 9.91,16.54 16.6,35.49 20.1,56.87zm-193.44 31.69c3.68,22.47 10.83,38.99 21.45,49.54 10.63,10.56 23.67,14.56 39.15,12.03 15.47,-2.53 26.36,-10.56 32.66,-24.08 6.29,-13.51 7.63,-31.32 4.01,-53.43 -3.62,-22.11 -10.65,-38.46 -21.08,-49.04 -10.44,-10.59 -23.39,-14.62 -38.87,-12.08 -15.47,2.53 -26.47,10.49 -32.99,23.85 -6.5,13.35 -7.96,31.09 -4.33,53.21zm344.74 -202.9c15.11,-2.47 30.28,-2.78 45.53,-0.93 15.25,1.85 28.92,6.15 40.99,12.86 9.85,-9.17 21.28,-17.3 34.32,-24.35 13.03,-7.04 29.31,-12.17 48.84,-15.37 14,-2.3 28.03,-2.7 42.08,-1.22 14.05,1.48 26.97,5.32 38.77,11.52 11.81,6.21 21.91,15.33 30.32,27.39 8.4,12.05 14.15,27.48 17.22,46.27l28.52 174.1c-3.51,1.71 -9.13,3.76 -16.86,6.16 -7.75,2.41 -15.86,4.3 -24.33,5.69 -8.11,1.33 -15.48,1.97 -22.11,1.92 -6.62,-0.05 -12.42,-1.37 -17.38,-3.96 -4.97,-2.59 -9.12,-6.54 -12.45,-11.87 -3.33,-5.32 -5.75,-12.58 -7.25,-21.79l-21.64 -132.1c-1.81,-11.05 -6.26,-18.55 -13.33,-22.5 -7.09,-3.95 -15.97,-5.05 -26.66,-3.3 -5.15,0.85 -10.48,2.95 -15.99,6.31 -5.5,3.37 -9.51,6.58 -12.04,9.64 0.61,1.41 1.02,2.76 1.23,4.05 0.21,1.29 0.41,2.49 0.59,3.59l30.15 184.05c-3.88,1.77 -9.68,3.85 -17.42,6.26 -7.74,2.4 -15.67,4.27 -23.77,5.59 -8.11,1.33 -15.47,1.97 -22.11,1.92 -6.62,-0.05 -12.42,-1.37 -17.39,-3.96 -4.96,-2.59 -9.11,-6.54 -12.44,-11.86 -3.33,-5.32 -5.75,-12.59 -7.26,-21.8l-21.64 -132.1c-1.81,-11.05 -6.52,-18.51 -14.16,-22.36 -7.63,-3.86 -16.24,-5 -25.81,-3.43 -6.63,1.08 -12.18,3.02 -16.65,5.84 -4.45,2.81 -8.19,5.41 -11.2,7.8l31.77 193.99c-3.5,1.71 -9.12,3.77 -16.86,6.17 -7.74,2.4 -15.84,4.3 -24.32,5.69 -8.11,1.32 -15.48,1.96 -22.1,1.91 -6.64,-0.04 -12.43,-1.37 -17.4,-3.96 -4.97,-2.59 -9.11,-6.54 -12.44,-11.86 -3.33,-5.32 -5.75,-12.59 -7.26,-21.79l-27.34 -166.92c-1.63,-9.95 -0.81,-18.22 2.46,-24.81 3.28,-6.59 8.17,-13.07 14.7,-19.44 11.08,-10.89 25.47,-20.62 43.17,-29.2 17.71,-8.57 36.68,-14.52 56.95,-17.84zm394.76 -11.88c-3.7,2.88 -8.37,5.53 -14.02,7.97 -5.66,2.44 -12.17,4.27 -19.53,5.47 -9.95,1.63 -18.78,0.9 -26.48,-2.19 -7.69,-3.09 -12.66,-9.18 -14.91,-18.28l-24.47 -104.38c4.49,-4.9 10.54,-9.58 18.13,-14.04 7.6,-4.46 16.37,-7.5 26.32,-9.13 13.99,-2.29 25.41,-1.33 34.24,2.9 8.83,4.23 14.26,12.61 16.31,25.13 0.85,5.16 1.63,12.23 2.34,21.19 0.71,8.97 1.24,18.53 1.58,28.69 0.33,10.16 0.57,20.24 0.7,30.24 0.13,10.01 0.05,18.82 -0.21,26.43zm307.34 98.91c4.58,28.01 -2.33,51.65 -20.74,70.94 -18.41,19.28 -48.06,32.27 -88.96,38.97 -15.47,2.54 -30.02,3.78 -43.65,3.75 -13.62,-0.04 -25.51,-1.59 -35.66,-4.66 -10.16,-3.07 -18.47,-7.67 -24.97,-13.79 -6.48,-6.13 -10.52,-13.98 -12.09,-23.56 -1.44,-8.84 -0.82,-16.61 1.86,-23.29 2.7,-6.68 6.29,-12.47 10.78,-17.37 11.65,4.14 24.77,7.39 39.34,9.73 14.57,2.35 30.88,2.03 48.93,-0.92 11.43,-1.87 19.91,-4.97 25.45,-9.28 5.53,-4.31 7.85,-9.23 6.94,-14.75 -0.84,-5.17 -3.71,-8.85 -8.62,-11.08 -4.9,-2.22 -12.67,-3.4 -23.29,-3.56l-17.12 -0.6c-33.08,-1.01 -58.56,-6.96 -76.42,-17.84 -17.86,-10.89 -28.85,-28.86 -32.95,-53.91 -2.23,-13.64 -1.3,-26.46 2.78,-38.48 4.09,-12.03 10.87,-22.59 20.35,-31.71 9.47,-9.13 21.34,-16.93 35.6,-23.43 14.26,-6.5 30.41,-11.22 48.47,-14.18 13.63,-2.23 26.61,-3.31 38.91,-3.25 12.3,0.06 23.21,1.39 32.72,4 9.5,2.61 17.37,6.71 23.59,12.31 6.21,5.61 10.04,12.83 11.49,21.68 1.39,8.46 1.01,16 -1.12,22.6 -2.14,6.59 -5.27,12.3 -9.4,17.14 -3.24,-1.36 -7.98,-2.57 -14.22,-3.63 -6.22,-1.06 -12.96,-1.85 -20.24,-2.36 -7.27,-0.51 -14.59,-0.73 -21.96,-0.66 -7.36,0.08 -14,0.59 -19.89,1.56 -12.16,1.99 -21.33,4.91 -27.51,8.76 -6.18,3.85 -8.79,8.73 -7.82,14.62 0.66,4.05 3.05,7.07 7.15,9.04 4.11,1.97 11.5,3.22 22.19,3.74l17.76 1.07c36.7,2.31 63.67,9.34 80.93,21.08 17.24,11.74 27.71,28.85 31.39,51.32z"/>
   </g>
   <g>
    <path class="fil5 str2" d="M2549.49 1985.96c-3.89,4.57 -9.23,8.57 -16,12.01 -6.77,3.43 -14.85,5.92 -24.26,7.46 -12.54,2.06 -23.16,2.19 -31.86,0.39 -8.7,-1.79 -14.89,-6.32 -18.59,-13.59 -14.78,-29.05 -26.85,-52.56 -36.23,-70.52 -9.38,-17.95 -16.98,-33.79 -22.8,-47.5l-2.62 0.43c2.33,20.73 4.61,39.58 6.86,56.56 2.24,16.98 4.59,33.49 7.04,49.54 2.45,16.06 4.75,32.31 6.91,48.77 2.16,16.45 4.35,34.69 6.55,54.72 -4.24,2.49 -9.92,4.94 -17.03,7.35 -7.12,2.42 -14.34,4.23 -21.65,5.43 -15.33,2.51 -27.66,2.02 -36.99,-1.46 -9.33,-3.48 -15.05,-11.66 -17.17,-24.55l-28.49 -268.95c2.04,-4.99 7.35,-10.86 15.89,-17.62 8.55,-6.77 21.36,-11.55 38.42,-14.34 18.47,-3.03 33.39,-2.52 44.79,1.51 11.39,4.04 20.57,12.1 27.56,24.19 4.51,7.85 9.47,16.86 14.9,27.07 5.42,10.2 10.91,20.74 16.45,31.64 5.53,10.9 10.98,21.72 16.31,32.47 5.34,10.75 10.15,20.43 14.41,29.02l2.62 -0.43c3.57,-30.63 7.29,-60.29 11.17,-89.01 3.88,-28.71 7.79,-52.87 11.74,-72.47 4.76,-3.64 11.09,-7.09 18.95,-10.35 7.88,-3.25 16.86,-5.71 26.97,-7.36 17.06,-2.8 31.41,-2.56 43.03,0.72 11.64,3.28 19.08,9.48 22.36,18.6 2.54,6.74 5.78,17.21 9.71,31.42 3.93,14.19 8.26,30.21 12.96,48.03 4.72,17.82 9.59,36.7 14.65,56.62 5.04,19.92 9.88,39.06 14.5,57.44 4.63,18.38 8.72,35.23 12.31,50.57 3.59,15.33 6.23,27.14 7.95,35.45 -5.35,4.45 -11.12,7.98 -17.31,10.6 -6.19,2.63 -14.33,4.77 -24.43,6.43 -13.23,2.17 -24.76,1.72 -34.55,-1.33 -9.8,-3.04 -16.13,-11.12 -19,-24.24 -8.3,-37.63 -15.2,-71.55 -20.69,-101.77 -5.49,-30.22 -10.43,-55.52 -14.84,-75.89l-2.62 0.42c-1.26,14.15 -3.52,32.05 -6.76,53.69 -3.26,21.63 -6.96,49.25 -11.12,82.83zm461.11 -125.97c3.54,21.61 3.39,41.39 -0.46,59.37 -3.85,17.98 -10.84,33.7 -20.98,47.16 -10.13,13.47 -23.08,24.52 -38.82,33.18 -15.75,8.66 -33.91,14.68 -54.45,18.04 -20.56,3.37 -39.71,3.28 -57.45,-0.24 -17.74,-3.53 -33.58,-10.15 -47.51,-19.85 -13.93,-9.7 -25.57,-22.37 -34.94,-38.01 -9.35,-15.63 -15.74,-33.9 -19.17,-54.8 -3.36,-20.55 -3.1,-39.73 0.77,-57.53 3.89,-17.8 10.88,-33.52 20.99,-47.16 10.11,-13.64 23,-24.96 38.69,-33.97 15.69,-9.01 33.81,-15.19 54.37,-18.56 20.55,-3.36 39.71,-3.2 57.49,0.51 17.77,3.7 33.62,10.41 47.55,20.1 13.93,9.71 25.58,22.37 34.94,38.01 9.35,15.63 15.68,33.55 18.98,53.75zm-182.86 29.96c3.48,21.24 10.24,36.87 20.28,46.85 10.04,9.97 22.37,13.76 37.01,11.36 14.62,-2.39 24.92,-9.98 30.87,-22.76 5.95,-12.78 7.22,-29.61 3.8,-50.51 -3.43,-20.9 -10.07,-36.36 -19.94,-46.36 -9.87,-10.01 -22.11,-13.82 -36.74,-11.42 -14.63,2.39 -25.03,9.91 -31.18,22.54 -6.15,12.63 -7.52,29.41 -4.1,50.3zm343.63 -194.7c14.28,-2.34 28.63,-2.63 43.04,-0.89 14.42,1.75 27.34,5.81 38.75,12.17 9.31,-8.68 20.12,-16.35 32.44,-23.02 12.33,-6.67 27.72,-11.51 46.17,-14.53 13.24,-2.17 26.51,-2.56 39.79,-1.16 13.28,1.4 25.5,5.03 36.65,10.9 11.16,5.86 20.71,14.49 28.65,25.89 7.95,11.39 13.38,25.97 16.29,43.73l26.96 164.59c-3.32,1.61 -8.63,3.56 -15.94,5.83 -7.32,2.27 -14.99,4.07 -22.99,5.38 -7.67,1.25 -14.64,1.86 -20.91,1.81 -6.27,-0.05 -11.74,-1.3 -16.44,-3.75 -4.69,-2.45 -8.61,-6.19 -11.76,-11.22 -3.15,-5.03 -5.43,-11.9 -6.86,-20.6l-20.45 -124.88c-1.71,-10.45 -5.91,-17.53 -12.61,-21.27 -6.69,-3.74 -15.09,-4.77 -25.19,-3.12 -4.88,0.8 -9.91,2.79 -15.12,5.96 -5.2,3.19 -9,6.22 -11.38,9.11 0.57,1.34 0.96,2.62 1.16,3.84 0.2,1.22 0.39,2.35 0.56,3.39l28.5 173.99c-3.66,1.68 -9.15,3.65 -16.47,5.92 -7.32,2.28 -14.8,4.04 -22.47,5.3 -7.66,1.25 -14.62,1.85 -20.89,1.81 -6.27,-0.05 -11.75,-1.3 -16.45,-3.76 -4.69,-2.44 -8.61,-6.18 -11.76,-11.21 -3.15,-5.03 -5.44,-11.9 -6.87,-20.6l-20.45 -124.88c-1.71,-10.45 -6.17,-17.49 -13.38,-21.14 -7.22,-3.65 -15.35,-4.73 -24.41,-3.25 -6.27,1.03 -11.52,2.87 -15.72,5.52 -4.22,2.67 -7.76,5.12 -10.6,7.37l30.04 183.4c-3.31,1.62 -8.63,3.56 -15.95,5.83 -7.32,2.28 -14.98,4.07 -22.99,5.38 -7.67,1.26 -14.63,1.86 -20.89,1.81 -6.27,-0.04 -11.76,-1.29 -16.45,-3.75 -4.69,-2.44 -8.61,-6.19 -11.76,-11.21 -3.15,-5.03 -5.44,-11.9 -6.86,-20.61l-25.85 -157.78c-1.54,-9.41 -0.76,-17.23 2.33,-23.46 3.09,-6.23 7.72,-12.35 13.89,-18.37 10.47,-10.3 24.08,-19.5 40.82,-27.61 16.73,-8.11 34.67,-13.72 53.83,-16.86zm390.91 -14.15c-3.49,2.72 -7.9,5.24 -13.25,7.55 -5.35,2.3 -11.5,4.03 -18.47,5.17 -9.4,1.54 -17.75,0.85 -25.01,-2.08 -7.28,-2.92 -11.97,-8.67 -14.1,-17.27l-23.14 -98.68c4.25,-4.63 9.96,-9.06 17.14,-13.28 7.18,-4.21 15.47,-7.09 24.87,-8.63 13.24,-2.17 24.03,-1.25 32.37,2.75 8.35,4 13.49,11.92 15.43,23.76 0.8,4.88 1.54,11.56 2.21,20.03 0.67,8.47 1.17,17.51 1.49,27.11 0.32,9.61 0.55,19.14 0.66,28.59 0.12,9.47 0.05,17.8 -0.2,24.98zm308.28 90.61c4.34,26.48 -2.19,48.83 -19.6,67.05 -17.4,18.23 -45.43,30.52 -84.09,36.85 -14.63,2.4 -28.39,3.58 -41.28,3.54 -12.87,-0.03 -24.12,-1.5 -33.71,-4.4 -9.59,-2.9 -17.46,-7.24 -23.6,-13.04 -6.12,-5.78 -9.94,-13.21 -11.42,-22.26 -1.37,-8.36 -0.79,-15.7 1.76,-22.03 2.54,-6.31 5.94,-11.78 10.19,-16.42 11,3.92 23.4,6.99 37.18,9.2 13.77,2.22 29.2,1.93 46.26,-0.87 10.81,-1.77 18.82,-4.69 24.05,-8.76 5.24,-4.08 7.42,-8.74 6.57,-13.96 -0.8,-4.87 -3.52,-8.36 -8.16,-10.46 -4.63,-2.1 -11.97,-3.23 -22,-3.37l-16.2 -0.57c-31.27,-0.96 -55.35,-6.58 -72.24,-16.87 -16.88,-10.29 -27.26,-27.28 -31.14,-50.96 -2.11,-12.89 -1.24,-25.02 2.62,-36.37 3.87,-11.37 10.27,-21.37 19.23,-29.99 8.96,-8.62 20.19,-16 33.66,-22.14 13.49,-6.14 28.75,-10.61 45.83,-13.4 12.89,-2.11 25.14,-3.14 36.77,-3.08 11.65,0.06 21.96,1.32 30.94,3.78 8.99,2.47 16.42,6.35 22.3,11.64 5.87,5.3 9.49,12.12 10.86,20.49 1.31,8.01 0.96,15.13 -1.06,21.36 -2.02,6.23 -4.98,11.64 -8.88,16.21 -3.07,-1.29 -7.55,-2.43 -13.44,-3.43 -5.89,-1 -12.27,-1.75 -19.14,-2.23 -6.88,-0.48 -13.79,-0.69 -20.76,-0.63 -6.96,0.08 -13.23,0.57 -18.8,1.48 -11.5,1.88 -20.17,4.64 -26.01,8.28 -5.84,3.64 -8.3,8.25 -7.39,13.82 0.63,3.83 2.88,6.68 6.76,8.55 3.88,1.87 10.88,3.04 20.97,3.54l16.79 1.01c34.7,2.18 60.2,8.82 76.5,19.92 16.31,11.1 26.2,27.28 29.68,48.52z"/>
    <path id="1" class="fil4" d="M2549.49 1985.96c-3.89,4.57 -9.23,8.57 -16,12.01 -6.77,3.43 -14.85,5.92 -24.26,7.46 -12.54,2.06 -23.16,2.19 -31.86,0.39 -8.7,-1.79 -14.89,-6.32 -18.59,-13.59 -14.78,-29.05 -26.85,-52.56 -36.23,-70.52 -9.38,-17.95 -16.98,-33.79 -22.8,-47.5l-2.62 0.43c2.33,20.73 4.61,39.58 6.86,56.56 2.24,16.98 4.59,33.49 7.04,49.54 2.45,16.06 4.75,32.31 6.91,48.77 2.16,16.45 4.35,34.69 6.55,54.72 -4.24,2.49 -9.92,4.94 -17.03,7.35 -7.12,2.42 -14.34,4.23 -21.65,5.43 -15.33,2.51 -27.66,2.02 -36.99,-1.46 -9.33,-3.48 -15.05,-11.66 -17.17,-24.55l-28.49 -268.95c2.04,-4.99 7.35,-10.86 15.89,-17.62 8.55,-6.77 21.36,-11.55 38.42,-14.34 18.47,-3.03 33.39,-2.52 44.79,1.51 11.39,4.04 20.57,12.1 27.56,24.19 4.51,7.85 9.47,16.86 14.9,27.07 5.42,10.2 10.91,20.74 16.45,31.64 5.53,10.9 10.98,21.72 16.31,32.47 5.34,10.75 10.15,20.43 14.41,29.02l2.62 -0.43c3.57,-30.63 7.29,-60.29 11.17,-89.01 3.88,-28.71 7.79,-52.87 11.74,-72.47 4.76,-3.64 11.09,-7.09 18.95,-10.35 7.88,-3.25 16.86,-5.71 26.97,-7.36 17.06,-2.8 31.41,-2.56 43.03,0.72 11.64,3.28 19.08,9.48 22.36,18.6 2.54,6.74 5.78,17.21 9.71,31.42 3.93,14.19 8.26,30.21 12.96,48.03 4.72,17.82 9.59,36.7 14.65,56.62 5.04,19.92 9.88,39.06 14.5,57.44 4.63,18.38 8.72,35.23 12.31,50.57 3.59,15.33 6.23,27.14 7.95,35.45 -5.35,4.45 -11.12,7.98 -17.31,10.6 -6.19,2.63 -14.33,4.77 -24.43,6.43 -13.23,2.17 -24.76,1.72 -34.55,-1.33 -9.8,-3.04 -16.13,-11.12 -19,-24.24 -8.3,-37.63 -15.2,-71.55 -20.69,-101.77 -5.49,-30.22 -10.43,-55.52 -14.84,-75.89l-2.62 0.42c-1.26,14.15 -3.52,32.05 -6.76,53.69 -3.26,21.63 -6.96,49.25 -11.12,82.83zm461.11 -125.97c3.54,21.61 3.39,41.39 -0.46,59.37 -3.85,17.98 -10.84,33.7 -20.98,47.16 -10.13,13.47 -23.08,24.52 -38.82,33.18 -15.75,8.66 -33.91,14.68 -54.45,18.04 -20.56,3.37 -39.71,3.28 -57.45,-0.24 -17.74,-3.53 -33.58,-10.15 -47.51,-19.85 -13.93,-9.7 -25.57,-22.37 -34.94,-38.01 -9.35,-15.63 -15.74,-33.9 -19.17,-54.8 -3.36,-20.55 -3.1,-39.73 0.77,-57.53 3.89,-17.8 10.88,-33.52 20.99,-47.16 10.11,-13.64 23,-24.96 38.69,-33.97 15.69,-9.01 33.81,-15.19 54.37,-18.56 20.55,-3.36 39.71,-3.2 57.49,0.51 17.77,3.7 33.62,10.41 47.55,20.1 13.93,9.71 25.58,22.37 34.94,38.01 9.35,15.63 15.68,33.55 18.98,53.75zm-182.86 29.96c3.48,21.24 10.24,36.87 20.28,46.85 10.04,9.97 22.37,13.76 37.01,11.36 14.62,-2.39 24.92,-9.98 30.87,-22.76 5.95,-12.78 7.22,-29.61 3.8,-50.51 -3.43,-20.9 -10.07,-36.36 -19.94,-46.36 -9.87,-10.01 -22.11,-13.82 -36.74,-11.42 -14.63,2.39 -25.03,9.91 -31.18,22.54 -6.15,12.63 -7.52,29.41 -4.1,50.3zm343.63 -194.7c14.28,-2.34 28.63,-2.63 43.04,-0.89 14.42,1.75 27.34,5.81 38.75,12.17 9.31,-8.68 20.12,-16.35 32.44,-23.02 12.33,-6.67 27.72,-11.51 46.17,-14.53 13.24,-2.17 26.51,-2.56 39.79,-1.16 13.28,1.4 25.5,5.03 36.65,10.9 11.16,5.86 20.71,14.49 28.65,25.89 7.95,11.39 13.38,25.97 16.29,43.73l26.96 164.59c-3.32,1.61 -8.63,3.56 -15.94,5.83 -7.32,2.27 -14.99,4.07 -22.99,5.38 -7.67,1.25 -14.64,1.86 -20.91,1.81 -6.27,-0.05 -11.74,-1.3 -16.44,-3.75 -4.69,-2.45 -8.61,-6.19 -11.76,-11.22 -3.15,-5.03 -5.43,-11.9 -6.86,-20.6l-20.45 -124.88c-1.71,-10.45 -5.91,-17.53 -12.61,-21.27 -6.69,-3.74 -15.09,-4.77 -25.19,-3.12 -4.88,0.8 -9.91,2.79 -15.12,5.96 -5.2,3.19 -9,6.22 -11.38,9.11 0.57,1.34 0.96,2.62 1.16,3.84 0.2,1.22 0.39,2.35 0.56,3.39l28.5 173.99c-3.66,1.68 -9.15,3.65 -16.47,5.92 -7.32,2.28 -14.8,4.04 -22.47,5.3 -7.66,1.25 -14.62,1.85 -20.89,1.81 -6.27,-0.05 -11.75,-1.3 -16.45,-3.76 -4.69,-2.44 -8.61,-6.18 -11.76,-11.21 -3.15,-5.03 -5.44,-11.9 -6.87,-20.6l-20.45 -124.88c-1.71,-10.45 -6.17,-17.49 -13.38,-21.14 -7.22,-3.65 -15.35,-4.73 -24.41,-3.25 -6.27,1.03 -11.52,2.87 -15.72,5.52 -4.22,2.67 -7.76,5.12 -10.6,7.37l30.04 183.4c-3.31,1.62 -8.63,3.56 -15.95,5.83 -7.32,2.28 -14.98,4.07 -22.99,5.38 -7.67,1.26 -14.63,1.86 -20.89,1.81 -6.27,-0.04 -11.76,-1.29 -16.45,-3.75 -4.69,-2.44 -8.61,-6.19 -11.76,-11.21 -3.15,-5.03 -5.44,-11.9 -6.86,-20.61l-25.85 -157.78c-1.54,-9.41 -0.76,-17.23 2.33,-23.46 3.09,-6.23 7.72,-12.35 13.89,-18.37 10.47,-10.3 24.08,-19.5 40.82,-27.61 16.73,-8.11 34.67,-13.72 53.83,-16.86zm390.91 -14.15c-3.49,2.72 -7.9,5.24 -13.25,7.55 -5.35,2.3 -11.5,4.03 -18.47,5.17 -9.4,1.54 -17.75,0.85 -25.01,-2.08 -7.28,-2.92 -11.97,-8.67 -14.1,-17.27l-23.14 -98.68c4.25,-4.63 9.96,-9.06 17.14,-13.28 7.18,-4.21 15.47,-7.09 24.87,-8.63 13.24,-2.17 24.03,-1.25 32.37,2.75 8.35,4 13.49,11.92 15.43,23.76 0.8,4.88 1.54,11.56 2.21,20.03 0.67,8.47 1.17,17.51 1.49,27.11 0.32,9.61 0.55,19.14 0.66,28.59 0.12,9.47 0.05,17.8 -0.2,24.98zm308.28 90.61c4.34,26.48 -2.19,48.83 -19.6,67.05 -17.4,18.23 -45.43,30.52 -84.09,36.85 -14.63,2.4 -28.39,3.58 -41.28,3.54 -12.87,-0.03 -24.12,-1.5 -33.71,-4.4 -9.59,-2.9 -17.46,-7.24 -23.6,-13.04 -6.12,-5.78 -9.94,-13.21 -11.42,-22.26 -1.37,-8.36 -0.79,-15.7 1.76,-22.03 2.54,-6.31 5.94,-11.78 10.19,-16.42 11,3.92 23.4,6.99 37.18,9.2 13.77,2.22 29.2,1.93 46.26,-0.87 10.81,-1.77 18.82,-4.69 24.05,-8.76 5.24,-4.08 7.42,-8.74 6.57,-13.96 -0.8,-4.87 -3.52,-8.36 -8.16,-10.46 -4.63,-2.1 -11.97,-3.23 -22,-3.37l-16.2 -0.57c-31.27,-0.96 -55.35,-6.58 -72.24,-16.87 -16.88,-10.29 -27.26,-27.28 -31.14,-50.96 -2.11,-12.89 -1.24,-25.02 2.62,-36.37 3.87,-11.37 10.27,-21.37 19.23,-29.99 8.96,-8.62 20.19,-16 33.66,-22.14 13.49,-6.14 28.75,-10.61 45.83,-13.4 12.89,-2.11 25.14,-3.14 36.77,-3.08 11.65,0.06 21.96,1.32 30.94,3.78 8.99,2.47 16.42,6.35 22.3,11.64 5.87,5.3 9.49,12.12 10.86,20.49 1.31,8.01 0.96,15.13 -1.06,21.36 -2.02,6.23 -4.98,11.64 -8.88,16.21 -3.07,-1.29 -7.55,-2.43 -13.44,-3.43 -5.89,-1 -12.27,-1.75 -19.14,-2.23 -6.88,-0.48 -13.79,-0.69 -20.76,-0.63 -6.96,0.08 -13.23,0.57 -18.8,1.48 -11.5,1.88 -20.17,4.64 -26.01,8.28 -5.84,3.64 -8.3,8.25 -7.39,13.82 0.63,3.83 2.88,6.68 6.76,8.55 3.88,1.87 10.88,3.04 20.97,3.54l16.79 1.01c34.7,2.18 60.2,8.82 76.5,19.92 16.31,11.1 26.2,27.28 29.68,48.52z"/>
   </g>
  </g>
 </g>
</svg>
