<?xml version="1.0" encoding="UTF-8"?>
<!DOCTYPE svg PUBLIC "-//W3C//DTD SVG 1.1//EN" "http://www.w3.org/Graphics/SVG/1.1/DTD/svg11.dtd">
<!-- Creator: CorelDRAW 2017 -->
<svg xmlns="http://www.w3.org/2000/svg" xml:space="preserve" width="7.1966mm" height="7.1966mm" version="1.1" style="shape-rendering:geometricPrecision; text-rendering:geometricPrecision; image-rendering:optimizeQuality; fill-rule:evenodd; clip-rule:evenodd"
viewBox="0 0 719.66 719.66"
 xmlns:xlink="http://www.w3.org/1999/xlink">
 <defs>
  <style type="text/css">
   <![CDATA[
    .fil1 {fill:#23B373}
    .fil0 {fill:#257C35}
   ]]>
  </style>
 </defs>
 <g id="Capa_x0020_1">
  <metadata id="CorelCorpID_0Corel-Layer"/>
  <g id="_2923976569728">
   <path class="fil0" d="M72.58 365.25c0,-53.29 4.13,-97.54 28.55,-143.4 35.83,-67.27 76.36,-106.72 145.92,-140.13 68.93,-33.11 166.57,-34.33 235.46,-1.21 46.1,22.16 65.51,35.28 103.12,74.32l43.75 64.87c40.01,89.43 43.58,181.3 -4.64,270.19l-53.61 71.3c-33.53,33.62 -89.64,64.82 -135.25,74.79 -78.67,17.19 -144.83,7.68 -214.8,-30.01 -5.07,-2.72 -8.86,-6.13 -13.33,-8.46 -5.22,-2.73 -8.68,-0.84 -15.4,1.39 -5.16,1.71 -10.57,3.72 -16.32,5.47 -5.82,1.76 -10.56,3.5 -16.3,5.43 -10.67,3.57 -22.61,6.92 -33.05,10.41 -10.21,3.4 -25.55,6.95 -34.18,11.09 0.63,-7.6 5.35,-18.76 7.93,-26.47 3.31,-9.91 5.74,-17.23 9.05,-27.14 24.17,-72.43 21.81,-42.21 -1.9,-86.34 -19.36,-36.05 -35,-83 -35,-126.1zm270.05 -365.58l42.31 0c24.41,1.43 49.24,5.31 74.44,11.64 45.22,11.36 76.45,29.62 112.35,54.24 30.91,21.19 61.71,54.6 83.55,84.83l27.33 46.89c34.46,72.27 45.9,164.42 23.7,242.01l-10.46 32.98c-11.23,31.38 -26.5,57.9 -45.52,84.83 -20.86,29.54 -36.95,43.95 -62.82,65.72 -72.87,61.32 -179.32,91.08 -276.92,74.7 -18.14,-3.05 -30.63,-6.56 -46.8,-11.15 -38.41,-10.91 -42.23,-17.37 -62.93,-25.94 -7.19,-2.97 -14.48,0.93 -21.66,3.22 -20.32,6.48 -156.71,51.56 -177.26,56.34 0.78,-9.36 40.57,-122.54 46.86,-141.4 2.57,-7.69 4.8,-16.03 7.48,-23.29 12.6,-34.12 7.5,-18.87 -10.85,-59.75 -27.21,-60.64 -30.81,-98.08 -30.81,-164.67 0,-31.1 14.5,-90.69 27.75,-118.87 2.49,-5.29 4.35,-8.62 6.39,-13.52 17.92,-43.2 64.82,-98.42 101.94,-126.18 59.42,-44.43 123.83,-68.53 191.93,-72.63z"/>
   <path class="fil1" d="M193.93 267.52c0,50.14 32.89,97.02 63.81,131.7 20.03,22.46 38.27,42.95 63.73,61.19 39.33,28.17 96.03,55.06 147.75,55.06 19.16,0 39.66,-11.38 50.76,-19.86 16.19,-12.39 20.4,-22.86 24.37,-48.13 3.42,-21.75 -3.19,-20.04 -33.47,-35.17 -60.35,-30.15 -54.02,-27.4 -74.51,-0.26 -15.33,20.3 -17.43,35.43 -67.14,4.25l-34.52 -25.22c-11.37,-10.97 -50.23,-52.26 -50.23,-69.26 0,-8.85 28.98,-27.5 28.98,-43.44 0,-5.74 -6.82,-19.01 -8.8,-23.78l-19.85 -48.93c-7.17,-18.12 -15.45,-15.97 -31.12,-15.97 -22.76,0 -32.76,12.41 -42.72,26.09 -8.58,11.79 -17.04,32.23 -17.04,51.73z"/>
  </g>
 </g>
</svg>
