<?xml version="1.0" encoding="UTF-8"?>
<!DOCTYPE svg PUBLIC "-//W3C//DTD SVG 1.1//EN" "http://www.w3.org/Graphics/SVG/1.1/DTD/svg11.dtd">
<!-- Creator: CorelDRAW 2017 -->
<svg xmlns="http://www.w3.org/2000/svg" xml:space="preserve" width="46.5666mm" height="30.7338mm" version="1.1" style="shape-rendering:geometricPrecision; text-rendering:geometricPrecision; image-rendering:optimizeQuality; fill-rule:evenodd; clip-rule:evenodd"
viewBox="0 0 4656.66 3073.38"
 xmlns:xlink="http://www.w3.org/1999/xlink">
 <defs>
  <style type="text/css">
   <![CDATA[
    .fil0 {fill:none}
    .fil1 {fill:#883636}
   ]]>
  </style>
 </defs>
 <g id="Capa_x0020_1">
  <metadata id="CorelCorpID_0Corel-Layer"/>
  <rect class="fil0" y="-0" width="4656.66" height="3073.39"/>
  <path class="fil1" d="M-10316.69 9352.42c49.97,-10.79 136.83,-112.71 179.36,-182.15 65.45,-106.85 59.14,-187.49 43.23,-332.56 383.28,185.1 0.07,497.41 -222.59,514.71zm-1746.37 -122.27c-71.57,-71.51 -230.01,-172.46 -87.15,-331.97 59.62,-66.52 217.09,-148.95 339.77,-168.7 -186.94,129.09 -235.26,206.4 -252.62,500.67zm-406.27 -75.27c134.41,369.74 1020.34,496.05 1540.55,468.42 493,-26.2 1531.27,-302.59 1110.85,-772.44 -75.91,-84.88 -194.06,-148.66 -321.99,-205.04 -184.87,-81.46 -202.88,-101.89 -349.85,-15.22 -234.84,138.48 -525.26,155.39 -768.39,14.93 -163.24,-94.25 -116.63,-170.68 -368.61,-127.84 -294.11,50.04 -984.87,245.76 -842.56,637.19z"/>
  <path class="fil1" d="M1000.37 2868.59c-39.33,-158.81 44.63,-187.87 131.58,-271.86 152.01,-146.74 575.42,-599.33 682.15,-664.72l120.72 126.2c-53.5,97.79 -521.04,535.8 -661.16,680.22 -84.58,87.15 -114.69,171.29 -273.29,130.16zm1068.82 -1849.31c76.25,-118.21 729.06,-774.3 839.94,-825.52 112.4,43.88 726.06,657.86 760.63,766.14l-823.82 842.78 -535.68 -194.18 -338.27 317.5c-32.5,-124.31 104.56,-191.83 284.95,-374.94l-187.75 -531.78zm-131.34 -29.71c35.99,197.1 167.45,363.03 176.68,573.47 -86.41,57.9 -95.26,88.75 -168.91,157.05 -243.02,225.23 121.62,-224.33 -555.57,451.47 -274.1,273.54 -693.57,574.21 -442.13,779.29 218.38,178.12 504.48,-224.33 781.02,-499.53 63,-62.7 307.11,-289.57 338.33,-341.09 60.1,-99.15 -77.86,-68.64 277.8,-365.26l531.72 189.3c232.72,-208.46 456.95,-454.26 683.85,-679.49 367.18,-364.48 270.84,-342.23 -181.07,-794.88 -445.71,-446.52 -416.16,-500.24 -749.33,-164.85 -236.89,238.5 -461.37,455.16 -692.39,694.52z"/>
  <path class="fil1" d="M-10309.41 8347.14c17.27,151.28 23.74,63.8 339.1,191.12 377.9,152.51 778.98,486.46 347.13,866.69 -725.71,638.94 -2964.72,450.02 -3151.46,-238.5 -171.01,-630.59 1105.67,-720.01 1203.29,-850.34 -66.2,-87.12 -98.69,-59.75 -226.07,-32.77 -412.61,87.35 -1212.48,342.46 -1098.93,880.87 183.11,868.57 2719.5,1019.79 3423.02,266.03 592.31,-634.66 -609.92,-1171.35 -836.08,-1083.1z"/>
  <path class="fil1" d="M-11448.77 7912.5c-86.34,820.57 926.29,956.92 1128.74,237.66 123.27,-437.97 210.06,-1307.38 568.37,-1138.22 74.16,35.04 91.23,81.1 111.86,165.92 40.55,166.4 -53.02,129.06 139.46,156.49 188.82,-405.94 -415.07,-701.35 -665.79,-304.37 -140.49,222.53 -188.91,840.58 -330.31,1112.05l-952.33 -229.53z"/>
 </g>
</svg>
