<?xml version="1.0" encoding="UTF-8"?>
<!DOCTYPE svg PUBLIC "-//W3C//DTD SVG 1.1//EN" "http://www.w3.org/Graphics/SVG/1.1/DTD/svg11.dtd">
<!-- Creator: CorelDRAW 2017 -->
<svg xmlns="http://www.w3.org/2000/svg" xml:space="preserve" width="46.5666mm" height="30.7338mm" version="1.1" style="shape-rendering:geometricPrecision; text-rendering:geometricPrecision; image-rendering:optimizeQuality; fill-rule:evenodd; clip-rule:evenodd"
viewBox="0 0 4656.66 3073.38"
 xmlns:xlink="http://www.w3.org/1999/xlink">
 <defs>
  <style type="text/css">
   <![CDATA[
    .fil0 {fill:none}
    .fil1 {fill:#883636}
   ]]>
  </style>
 </defs>
 <g id="Capa_x0020_1">
  <metadata id="CorelCorpID_0Corel-Layer"/>
  <rect class="fil0" y="-0" width="4656.66" height="3073.39"/>
  <path class="fil1" d="M-13902.73 4060.05c-192.48,-565.39 839.52,-728.88 874.72,-186.88 36.31,558.88 -715.02,656.04 -874.72,186.88zm-2464.42 -278.7c68.56,73.85 8,-36.92 34.52,68.15 6.54,25.94 6.54,52.6 10.56,82.49 55.93,414.95 571.93,369.64 622.75,27.72 2.72,-18.43 6.47,-81.94 6.83,-83.69 19.79,-94.21 -12.86,-37.5 39.96,-94.67 365.27,75.6 -261.78,974.22 -714.82,402.74 -41.84,-52.76 -212.56,-362.61 0.2,-402.74zm123.91 185.49c-37.18,-207.28 51.92,-188.72 216.87,-189.89 174.11,-1.26 288.99,-30.67 250.03,182.47 -47.64,260.69 -424.15,245.85 -466.9,7.42zm2486.09 -938.78c397.27,-42.21 694.55,157.53 782.48,457.92 -197.5,-12.76 -427.9,-68.21 -625.62,-44.24 -210.36,25.52 -224.48,178.91 -450.94,171.82l294.08 -585.5zm-2796.94 -1043.27l595.99 -0.1 10.43 234.65 161.71 1.26 12.53 -235.81 630.2 -0.03 1.45 592.01 -1421.06 0 8.75 -591.98zm2411.95 223.9c-57.74,-161.03 -52.92,-228.95 102.28,-284.69 46.9,85.99 64.45,180.66 57.91,316.65l-160.19 -31.96zm-334.75 -269.66c112.9,86.93 441.47,723.6 507.09,842.65 137.16,248.87 90.03,196.63 -31.39,444.13 -65.06,132.73 -118.6,365.72 -253.14,437.46l-2466.3 0c10.95,-293.33 175.83,-760.55 348.39,-848.81 122.72,-62.67 988.63,-26.17 1193.09,-22.57 -83.3,131.07 -369.18,464.08 -115.43,692.76 124.53,112.26 702.23,59.53 915.98,58.53 113.65,-62.67 159.38,-240.74 215.12,-355.26 111.8,-229.63 139.91,-183.18 27.04,-426.64 -114.19,-246.27 -255.27,-562.44 -340.45,-822.25zm-1766.19 -32.07c-351.4,2.69 -266.45,23.81 -319.18,-52.63 47.03,-45.44 -80.61,-59.36 160.68,-65.87 227.52,-6.16 1179.55,-24.49 1260.42,34.81l-2.46 62.16c-86.05,45.34 -886.28,19.91 -1099.46,21.53zm-437.71 630.81c-80.94,175.51 -111.09,-87.9 -111.38,241.16l248.38 14.22c-129.94,280.18 -317.98,478.72 -304.8,988.2l273.96 0.07c-17.13,942.64 1143.28,945.36 1130.03,-0.07l1066.72 1.07c208.51,1.14 195.65,-25.61 350.59,-48.51 -142.05,1208.63 1498.53,760.42 1059.23,-77.73 10.07,-14.35 317.69,-167.51 -98.2,-535.56 -178.23,-157.76 -390.2,-208.58 -690.89,-224.96l-296.6 -511.63c92.21,-51.56 150.21,-15.64 186.58,-141.34 9.07,-31.25 54.93,-721.91 -418.22,-286.76 -47.96,-54.31 -60.04,-97.16 -124.27,-155.23 -216.02,28.44 -392.08,59.63 -433.28,189.31l245.57 -6.38c259.13,769.81 614.29,875.62 177.87,1439.97 -142.02,5.48 -283.23,2.76 -425.31,6.87 -161.91,4.66 -285.5,44.56 -370.29,-61.8 -213.24,-276.91 186.16,-493.09 268.75,-613.41 -0.97,-255.38 -19.66,-75.05 -63.9,-202.65 -34.65,-99.92 3.3,-643.18 -21.18,-878.54l-1641.59 0.45 -7.77 863.25z"/>
  <path class="fil1" d="M-10316.69 9352.42c49.97,-10.79 136.83,-112.71 179.36,-182.15 65.45,-106.85 59.14,-187.49 43.23,-332.56 383.28,185.1 0.07,497.41 -222.59,514.71zm-1746.37 -122.27c-71.57,-71.51 -230.01,-172.46 -87.15,-331.97 59.62,-66.52 217.09,-148.95 339.77,-168.7 -186.94,129.09 -235.26,206.4 -252.62,500.67zm-406.27 -75.27c134.41,369.74 1020.34,496.05 1540.55,468.42 493,-26.2 1531.27,-302.59 1110.85,-772.44 -75.91,-84.88 -194.06,-148.66 -321.99,-205.04 -184.87,-81.46 -202.88,-101.89 -349.85,-15.22 -234.84,138.48 -525.26,155.39 -768.39,14.93 -163.24,-94.25 -116.63,-170.68 -368.61,-127.84 -294.11,50.04 -984.87,245.76 -842.56,637.19z"/>
  <path class="fil1" d="M-22539.97 3835.51l7.48 212.39c-129.75,75.21 -1458.99,35.95 -1602.63,35.95 -297.8,0 -1407.82,43.34 -1609.2,-28.59l-0.94 -233.81c178.84,-52.92 2301.39,-20.37 2821.95,-22.51 326.76,-1.33 238.89,-15.16 358.95,25.46 6.38,2.14 16.87,6.28 24.39,11.11zm-1374.07 -143.51l-395.55 4.73 -26.82 -204.98 259.52 148.85c72.07,-78.9 85.54,-151.25 185.97,-191.35l-23.12 242.75zm735.45 -443.45l341.53 -165.86c76.53,240.97 136.06,317.95 152.9,619.35l-363.49 -1.39c-35.62,-65.88 -14.44,-20.02 -36.72,-100.92 -9.85,-35.76 -16.07,-82.56 -27.05,-126.25 -20.47,-81.45 -51.46,-137.26 -67.17,-224.93zm-2075.13 453.49l-342.27 -1.01c13.61,-240.8 61.7,-418.38 151.64,-598.35l338.64 172.23c-55.35,196.33 -80.28,375.57 -148.01,427.13zm1149.66 -303.73c-196.69,-30.25 -137.13,-117.24 -217.51,-241.16 -229.21,192.19 -249.68,251.75 -126.12,536.99l-636.15 8.93c93.08,-1188.45 1784.09,-1204.13 1888.05,-1.03l-551.81 -0.36c60.3,-184.02 103.67,-258.19 9.36,-441.63 -69.64,-135.42 -162.13,-243.65 -291.52,-284.01 45.08,180.08 56.93,315.2 -74.3,422.27zm554.34 -549.88c53.15,-115.49 139.43,-218.16 222.44,-288.99 189.86,91.59 319.63,220.95 411.74,425.99l-318.5 165.15c-100.36,-77.93 -208.12,-203.14 -315.68,-302.15zm-1819.75 147.63c61.08,-145.84 256.77,-357.53 395.39,-427.52 92.3,74.17 156.23,164.3 229.36,279.89l-296.89 318.18 -327.86 -170.55zm1289.05 -693.19c272.28,8.29 436.52,82.1 638.13,162.39 -67.17,134.37 -148.78,209.51 -221.72,313.38l-414.69 -116.56 -1.72 -359.21zm-772.83 172.75c204.92,-73.23 378.06,-170.65 652.64,-171.65l-9.91 366.14 -432.3 119.61c-68.15,-126.9 -145.85,-167.41 -210.43,-314.1zm-860.66 1180.56c-64.09,53.27 -66.65,32.29 -137.26,62.12l-1.49 441.21 3413.44 14.28 12.57 -455.43c-298.13,-105.58 -31.87,-3.37 -242.84,-533.13 -605.09,-1519.42 -2886.98,-1269.39 -3044.42,470.95z"/>
  <path class="fil1" d="M-21285.61 4286.86c-41.16,-166.21 46.71,-196.63 137.71,-284.53 159.09,-153.58 602.22,-627.24 713.92,-695.68l126.34 132.08c-55.99,102.34 -545.3,560.75 -691.95,711.91 -88.52,91.2 -120.03,179.26 -286.02,136.22zm1118.6 -1935.44c79.8,-123.72 763.02,-810.37 879.06,-863.97 117.63,45.93 759.87,688.49 796.05,801.82l-862.19 882.03 -560.62 -203.23 -354.03 332.3c-34.01,-130.1 109.44,-200.77 298.22,-392.41l-196.49 -556.54zm-137.45 -31.1c37.66,206.28 175.25,379.94 184.9,600.18 -90.43,60.59 -99.69,92.88 -176.77,164.36 -254.34,235.72 127.28,-234.77 -581.45,472.5 -286.86,286.28 -725.87,600.95 -462.72,815.58 228.55,186.43 527.98,-234.77 817.39,-522.79 65.94,-65.62 321.41,-303.05 354.09,-356.98 62.9,-103.77 -81.48,-71.83 290.74,-382.27l556.48 198.12c243.56,-218.17 478.24,-475.42 715.7,-711.13 384.28,-381.46 283.46,-358.18 -189.5,-831.91 -466.47,-467.32 -435.54,-523.54 -784.23,-172.53 -247.92,249.61 -482.86,476.36 -724.63,726.87z"/>
  <path class="fil1" d="M-10309.41 8347.14c17.27,151.28 23.74,63.8 339.1,191.12 377.9,152.51 778.98,486.46 347.13,866.69 -725.71,638.94 -2964.72,450.02 -3151.46,-238.5 -171.01,-630.59 1105.67,-720.01 1203.29,-850.34 -66.2,-87.12 -98.69,-59.75 -226.07,-32.77 -412.61,87.35 -1212.48,342.46 -1098.93,880.87 183.11,868.57 2719.5,1019.79 3423.02,266.03 592.31,-634.66 -609.92,-1171.35 -836.08,-1083.1z"/>
  <path class="fil1" d="M-11448.77 7912.5c-86.34,820.57 926.29,956.92 1128.74,237.66 123.27,-437.97 210.06,-1307.38 568.37,-1138.22 74.16,35.04 91.23,81.1 111.86,165.92 40.55,166.4 -53.02,129.06 139.46,156.49 188.82,-405.94 -415.07,-701.35 -665.79,-304.37 -140.49,222.53 -188.91,840.58 -330.31,1112.05l-952.33 -229.53z"/>
  <g id="_3084383329040">
   <path class="fil1" d="M1966.15 748.07c608.95,-171.65 1212.62,97.13 1427.67,478.04 324.98,575.63 -266.61,1015.71 -713.17,1120.12 -1382.84,323.46 -2186.8,-1183.08 -714.5,-1598.16zm1616.39 928.71c120.1,-612.12 -517.64,-1029.53 -1073.93,-1088.8 -656.49,-69.95 -1320.37,270.02 -1428.71,782.94 -272.44,1290.18 2254.46,1570.76 2502.64,305.86z"/>
   <path class="fil1" d="M1451.74 1874.64c-182.4,-123.01 -211.07,-604.77 31.06,-695.65 115.27,57.49 152.55,169.81 153.1,342.53 0.61,175.8 -29.38,316.68 -184.16,353.12zm-209.74 -228.91c73.33,530.92 557.13,348.71 462.98,-248.97 -77.11,-489.5 -546.21,-353.73 -462.98,248.97z"/>
  </g>
  <path class="fil1" d="M-13709.6 3966.84c-61.44,-351.37 437.13,-397.95 470.36,-85.47 31.97,301.39 -421.94,362.38 -470.36,85.47zm133.6 -354.97c-375.25,131.46 -227.17,740.96 214.89,598.62 363.51,-117.02 194.71,-742.13 -214.89,-598.62z"/>
  <path class="fil1" d="M-17977.52 3500.85c117.73,73.68 849.03,30.57 1051.68,30.57 -20.34,-133.18 -55.02,-79.87 -497.76,-79.87l-468.1 -2.2c-166.21,19.73 -24.67,13.38 -85.82,51.5z"/>
  <path class="fil1" d="M-17780.06 2982.87c160.22,0 320.48,0 480.7,0 83.14,0 166.02,0 249.12,0.78 20.5,0.2 111.12,2.11 125.12,-0.16 113.45,-18.43 53.11,-11.53 90.65,-41.84 -34.85,-24.94 57.74,-39.74 -215.77,-37.44l-497.89 0.03c-372.49,-7.35 -182.63,28.18 -231.93,78.63z"/>
  <path class="fil1" d="M-17544.47 3221.25c52.4,50.2 -115.95,47.83 276.14,44.53 116.75,-0.97 233.93,-0.1 350.72,-0.1l-6.61 -78.02 -470.46 -2.07c-145.09,2.78 -109.92,7.38 -149.79,35.66z"/>
 </g>
</svg>
