<?xml version="1.0" encoding="UTF-8"?>
<!DOCTYPE svg PUBLIC "-//W3C//DTD SVG 1.1//EN" "http://www.w3.org/Graphics/SVG/1.1/DTD/svg11.dtd">
<!-- Creator: CorelDRAW 2017 -->
<svg xmlns="http://www.w3.org/2000/svg" xml:space="preserve" width="46.5666mm" height="30.7338mm" version="1.1" style="shape-rendering:geometricPrecision; text-rendering:geometricPrecision; image-rendering:optimizeQuality; fill-rule:evenodd; clip-rule:evenodd"
viewBox="0 0 4656.66 3073.38"
 xmlns:xlink="http://www.w3.org/1999/xlink">
 <defs>
  <style type="text/css">
   <![CDATA[
    .fil0 {fill:none}
    .fil2 {fill:#883636}
    .fil3 {fill:#A26256}
    .fil1 {fill:#A86D5F}
    .fil4 {fill:#FEFECD}
   ]]>
  </style>
 </defs>
 <g id="Capa_x0020_1">
  <metadata id="CorelCorpID_0Corel-Layer"/>
  <rect class="fil0" y="-0" width="4656.66" height="3073.39"/>
  <path class="fil1" d="M-11059.63 3594.32c114.55,-42.82 1402.21,-1345.09 1424.24,-1418.8 -164.69,53.31 -911.9,857.2 -1088.97,1033.48 -104.57,104.16 -292.36,246.21 -335.27,385.32z"/>
  <path class="fil2" d="M-13902.73 4060.05c-192.48,-565.39 839.52,-728.88 874.72,-186.88 36.31,558.88 -715.02,656.04 -874.72,186.88zm-2464.42 -278.7c68.56,73.85 8,-36.92 34.52,68.15 6.54,25.94 6.54,52.6 10.56,82.49 55.93,414.95 571.93,369.64 622.75,27.72 2.72,-18.43 6.47,-81.94 6.83,-83.69 19.79,-94.21 -12.86,-37.5 39.96,-94.67 365.27,75.6 -261.78,974.22 -714.82,402.74 -41.84,-52.76 -212.56,-362.61 0.2,-402.74zm123.91 185.49c-37.18,-207.28 51.92,-188.72 216.87,-189.89 174.11,-1.26 288.99,-30.67 250.03,182.47 -47.64,260.69 -424.15,245.85 -466.9,7.42zm2486.09 -938.78c397.27,-42.21 694.55,157.53 782.48,457.92 -197.5,-12.76 -427.9,-68.21 -625.62,-44.24 -210.36,25.52 -224.48,178.91 -450.94,171.82l294.08 -585.5zm-2796.94 -1043.27l595.99 -0.1 10.43 234.65 161.71 1.26 12.53 -235.81 630.2 -0.03 1.45 592.01 -1421.06 0 8.75 -591.98zm2411.95 223.9c-57.74,-161.03 -52.92,-228.95 102.28,-284.69 46.9,85.99 64.45,180.66 57.91,316.65l-160.19 -31.96zm-334.75 -269.66c112.9,86.93 441.47,723.6 507.09,842.65 137.16,248.87 90.03,196.63 -31.39,444.13 -65.06,132.73 -118.6,365.72 -253.14,437.46l-2466.3 0c10.95,-293.33 175.83,-760.55 348.39,-848.81 122.72,-62.67 988.63,-26.17 1193.09,-22.57 -83.3,131.07 -369.18,464.08 -115.43,692.76 124.53,112.26 702.23,59.53 915.98,58.53 113.65,-62.67 159.38,-240.74 215.12,-355.26 111.8,-229.63 139.91,-183.18 27.04,-426.64 -114.19,-246.27 -255.27,-562.44 -340.45,-822.25zm-1766.19 -32.07c-351.4,2.69 -266.45,23.81 -319.18,-52.63 47.03,-45.44 -80.61,-59.36 160.68,-65.87 227.52,-6.16 1179.55,-24.49 1260.42,34.81l-2.46 62.16c-86.05,45.34 -886.28,19.91 -1099.46,21.53zm-437.71 630.81c-80.94,175.51 -111.09,-87.9 -111.38,241.16l248.38 14.22c-129.94,280.18 -317.98,478.72 -304.8,988.2l273.96 0.07c-17.13,942.64 1143.28,945.36 1130.03,-0.07l1066.72 1.07c208.51,1.14 195.65,-25.61 350.59,-48.51 -142.05,1208.63 1498.53,760.42 1059.23,-77.73 10.07,-14.35 317.69,-167.51 -98.2,-535.56 -178.23,-157.76 -390.2,-208.58 -690.89,-224.96l-296.6 -511.63c92.21,-51.56 150.21,-15.64 186.58,-141.34 9.07,-31.25 54.93,-721.91 -418.22,-286.76 -47.96,-54.31 -60.04,-97.16 -124.27,-155.23 -216.02,28.44 -392.08,59.63 -433.28,189.31l245.57 -6.38c259.13,769.81 614.29,875.62 177.87,1439.97 -142.02,5.48 -283.23,2.76 -425.31,6.87 -161.91,4.66 -285.5,44.56 -370.29,-61.8 -213.24,-276.91 186.16,-493.09 268.75,-613.41 -0.97,-255.38 -19.66,-75.05 -63.9,-202.65 -34.65,-99.92 3.3,-643.18 -21.18,-878.54l-1641.59 0.45 -7.77 863.25z"/>
  <path class="fil2" d="M-29414.37 9491.84c-103.64,-31.12 -85.21,-28.4 -89.94,-146.84l10.95 -743.13 2662.7 462.14 -8.71 827.56 -2575 -399.73zm2049.96 -782.12c-140.75,-2.27 -98.94,-26.07 -126.18,-82.95 21.83,-106.03 191.96,-84.07 267.56,0 -27.57,49.72 -34.3,84.67 -141.38,82.95zm-686.06 -437.26c116.53,4.92 127.02,32.8 168.9,105.77 -82.94,155.17 -274.22,151.09 -360.02,0 39.97,-89.48 79.74,-110.47 191.12,-105.77zm-746.4 -17.46c123.75,5.86 130.59,34.14 155.36,123.23 -87.09,127.9 -259.52,136 -344.7,0 22.22,-94.76 56.29,-129.55 189.34,-123.23zm809.07 -416.7c127.77,4.67 143.15,33.69 177.84,105 -68.5,156.79 -316.62,152.48 -385.64,0 27.66,-78.76 86.67,-109.37 207.8,-105zm125.31 -297.86c-452.03,75.33 -1727.39,828.82 -1761.04,1118.69 -18.1,156.17 -10.26,750.97 6.87,917.24l2908.04 456.57c0,-223.28 28.14,-752.04 -3.21,-940.05 -31.29,-187.62 -1008.87,-1292.87 -1150.66,-1552.45z"/>
  <path class="fil2" d="M-10316.69 9352.42c49.97,-10.79 136.83,-112.71 179.36,-182.15 65.45,-106.85 59.14,-187.49 43.23,-332.56 383.28,185.1 0.07,497.41 -222.59,514.71zm-1746.37 -122.27c-71.57,-71.51 -230.01,-172.46 -87.15,-331.97 59.62,-66.52 217.09,-148.95 339.77,-168.7 -186.94,129.09 -235.26,206.4 -252.62,500.67zm-406.27 -75.27c134.41,369.74 1020.34,496.05 1540.55,468.42 493,-26.2 1531.27,-302.59 1110.85,-772.44 -75.91,-84.88 -194.06,-148.66 -321.99,-205.04 -184.87,-81.46 -202.88,-101.89 -349.85,-15.22 -234.84,138.48 -525.26,155.39 -768.39,14.93 -163.24,-94.25 -116.63,-170.68 -368.61,-127.84 -294.11,50.04 -984.87,245.76 -842.56,637.19z"/>
  <path class="fil2" d="M-9675.81 -2050.72c167.6,-95.05 230.47,65.98 169.09,167.64 -58.33,96.68 -241.22,57.23 -169.09,-167.64zm-1390.95 132.5c-257.48,77.7 -257.48,-239.8 14.94,-160.12l-14.94 160.12zm1606.84 80.71l-13.31 -249.54c125.21,0 264.64,-16.88 270.73,121.55 6.31,143.28 -136.71,130.55 -257.42,127.99zm29.15 -614.65c137.19,0 361.48,-42.3 336.8,139.82 -19.11,140.98 -205.05,107.14 -323.13,106.36l-13.67 -246.18zm-199.44 234.75c-81.78,-137.91 -24,-285.24 164.75,-204.24l-5.47 209.42 -159.28 -5.18zm74.85 -594.51c188.78,-83.04 250.22,176.45 113.13,230.11 -181.02,70.9 -305.38,-145.54 -113.13,-230.11zm200.05 237.37c60.34,-312.25 -59.98,-273.38 338.97,-217.45 130.07,264.54 -140.82,218.39 -338.97,217.45zm-246.21 -407.01c-33.52,-157.31 -22.76,-282.42 184.29,-214.54 67.11,111.22 52.6,132.05 10.01,253.73l-194.3 -39.19zm287.64 40.29l-56.55 -287.18c182.66,-1.78 239.7,-18.95 370.09,44.01 60.6,261.24 -65.52,243.17 -313.54,243.17zm-820.34 -1076.43c151.6,102.54 226.97,360.99 238.01,621.29 21.41,505.82 -230.92,480.76 -118.47,639.52 91.91,-21.54 126.63,-108.69 165.01,-211.52 110.48,-296.03 11.4,-199.32 129.75,-248.9 -35.18,190.11 31.25,254.79 14.83,335.63 -18.17,89.23 -47.32,24.55 -53.86,169.74 -5.73,127.84 31.61,98.14 25.88,182.73 -6.29,92.44 -35.89,39.45 -51.79,161.52 -16,122.75 19.66,119.6 21.18,188.91 2.66,124.08 -79.83,81.98 -42.3,340.85 -364.06,9.29 -811.08,55.45 -1071.47,-159.93l-1.23 -1025.19c44.86,-161.06 604.67,-69.47 632.98,-607.1 4.44,-164.69 -78.57,-373.33 37.92,-408.02l73.56 20.47zm-1341.78 755.01l-3.08 1531.83c131.95,14.41 513.08,46.83 599.23,-33.36l43.47 -61.99c353.34,156.37 678.93,108.63 1087.5,108.73 373.85,0.1 633.31,59.46 657.53,-219.46 42.17,-485.88 119.64,-19.69 107.79,-454.2 -4.93,-182.5 6.05,-38.44 86.28,-186.84 65,-120.26 35.69,-130.95 0.74,-239.51 -56.48,-175.38 -13.76,-3.98 24.07,-207.76 85.63,-461.4 -594.15,-299.81 -895.87,-322.26 -58.07,-408.79 -109.73,-874.98 -593.28,-811.37 -63.22,364.72 180.3,764.8 -379.12,925.31 -261.76,75.11 -29.09,-125.24 -735.26,-29.12z"/>
  <path class="fil2" d="M-22539.97 3835.51l7.48 212.39c-129.75,75.21 -1458.99,35.95 -1602.63,35.95 -297.8,0 -1407.82,43.34 -1609.2,-28.59l-0.94 -233.81c178.84,-52.92 2301.39,-20.37 2821.95,-22.51 326.76,-1.33 238.89,-15.16 358.95,25.46 6.38,2.14 16.87,6.28 24.39,11.11zm-1374.07 -143.51l-395.55 4.73 -26.82 -204.98 259.52 148.85c72.07,-78.9 85.54,-151.25 185.97,-191.35l-23.12 242.75zm735.45 -443.45l341.53 -165.86c76.53,240.97 136.06,317.95 152.9,619.35l-363.49 -1.39c-35.62,-65.88 -14.44,-20.02 -36.72,-100.92 -9.85,-35.76 -16.07,-82.56 -27.05,-126.25 -20.47,-81.45 -51.46,-137.26 -67.17,-224.93zm-2075.13 453.49l-342.27 -1.01c13.61,-240.8 61.7,-418.38 151.64,-598.35l338.64 172.23c-55.35,196.33 -80.28,375.57 -148.01,427.13zm1149.66 -303.73c-196.69,-30.25 -137.13,-117.24 -217.51,-241.16 -229.21,192.19 -249.68,251.75 -126.12,536.99l-636.15 8.93c93.08,-1188.45 1784.09,-1204.13 1888.05,-1.03l-551.81 -0.36c60.3,-184.02 103.67,-258.19 9.36,-441.63 -69.64,-135.42 -162.13,-243.65 -291.52,-284.01 45.08,180.08 56.93,315.2 -74.3,422.27zm554.34 -549.88c53.15,-115.49 139.43,-218.16 222.44,-288.99 189.86,91.59 319.63,220.95 411.74,425.99l-318.5 165.15c-100.36,-77.93 -208.12,-203.14 -315.68,-302.15zm-1819.75 147.63c61.08,-145.84 256.77,-357.53 395.39,-427.52 92.3,74.17 156.23,164.3 229.36,279.89l-296.89 318.18 -327.86 -170.55zm1289.05 -693.19c272.28,8.29 436.52,82.1 638.13,162.39 -67.17,134.37 -148.78,209.51 -221.72,313.38l-414.69 -116.56 -1.72 -359.21zm-772.83 172.75c204.92,-73.23 378.06,-170.65 652.64,-171.65l-9.91 366.14 -432.3 119.61c-68.15,-126.9 -145.85,-167.41 -210.43,-314.1zm-860.66 1180.56c-64.09,53.27 -66.65,32.29 -137.26,62.12l-1.49 441.21 3413.44 14.28 12.57 -455.43c-298.13,-105.58 -31.87,-3.37 -242.84,-533.13 -605.09,-1519.42 -2886.98,-1269.39 -3044.42,470.95z"/>
  <path class="fil2" d="M-21285.61 4286.86c-41.16,-166.21 46.71,-196.63 137.71,-284.53 159.09,-153.58 602.22,-627.24 713.92,-695.68l126.34 132.08c-55.99,102.34 -545.3,560.75 -691.95,711.91 -88.52,91.2 -120.03,179.26 -286.02,136.22zm1118.6 -1935.44c79.8,-123.72 763.02,-810.37 879.06,-863.97 117.63,45.93 759.87,688.49 796.05,801.82l-862.19 882.03 -560.62 -203.23 -354.03 332.3c-34.01,-130.1 109.44,-200.77 298.22,-392.41l-196.49 -556.54zm-137.45 -31.1c37.66,206.28 175.25,379.94 184.9,600.18 -90.43,60.59 -99.69,92.88 -176.77,164.36 -254.34,235.72 127.28,-234.77 -581.45,472.5 -286.86,286.28 -725.87,600.95 -462.72,815.58 228.55,186.43 527.98,-234.77 817.39,-522.79 65.94,-65.62 321.41,-303.05 354.09,-356.98 62.9,-103.77 -81.48,-71.83 290.74,-382.27l556.48 198.12c243.56,-218.17 478.24,-475.42 715.7,-711.13 384.28,-381.46 283.46,-358.18 -189.5,-831.91 -466.47,-467.32 -435.54,-523.54 -784.23,-172.53 -247.92,249.61 -482.86,476.36 -724.63,726.87z"/>
  <path class="fil2" d="M-11159.61 3625.12c41.49,-118.93 1552.75,-1612.44 1628.21,-1643.21 91.3,41.52 390.4,340.33 435.16,431.63 -46.73,102.6 -1471.68,1535.74 -1615.91,1628.66 -124.07,-36.76 -376.4,-307.35 -447.46,-417.08zm1876.82 -1633.2c-314.16,-146.36 -193.45,-263.83 -627.83,166.89l-1320.08 1322.09c-137.84,200.09 39.77,254.21 87.54,402.18 -59.14,43.47 -579.73,461.49 -363.64,563.8 199.08,17.04 399.5,-315.68 546.11,-414.17 305.29,219.82 305.94,150.22 632.89,-178.78l1056.47 -1056.02c58.33,-57.71 227.49,-212.62 260.21,-270.14 97.06,-170.69 -51.34,-270.63 -105.88,-357.17 159.02,-155.3 487.01,-417.15 405.46,-544.37 -115.98,-180.82 -461.26,289.71 -571.25,365.69z"/>
  <path class="fil2" d="M-24135.28 8594.55c898.82,-199.96 858.01,601.79 529.53,934.05 -312.83,316.46 -893.47,435.61 -1406.29,222.63 -718.39,-298.38 -601.79,-989.27 -319.5,-1170.28 273.41,-175.35 451.77,58.26 794.14,49.42 231.86,-5.96 120.19,92.6 349.42,109.27 256.09,18.69 128.16,-58.75 52.7,-145.09zm279.66 -437.91c-86.57,54.12 -282.12,318.59 -389.94,208.93 -125.4,-127.48 66.26,-399.3 106.88,-489.54 -267.17,90.07 -307.26,316.98 -436.75,552.02 -240.6,15.7 -418.31,-112.65 -521.47,-222.12l50.43 189.7c-708.57,39.61 -684.64,720.88 -543.49,1002.55 165.46,330.25 606,575.3 1113.02,577.08 1361.12,4.73 1602.34,-1554.73 554.48,-1539.7 31.35,-87.09 64.38,-167.44 66.84,-278.92z"/>
  <path class="fil2" d="M-10309.41 8347.14c17.27,151.28 23.74,63.8 339.1,191.12 377.9,152.51 778.98,486.46 347.13,866.69 -725.71,638.94 -2964.72,450.02 -3151.46,-238.5 -171.01,-630.59 1105.67,-720.01 1203.29,-850.34 -66.2,-87.12 -98.69,-59.75 -226.07,-32.77 -412.61,87.35 -1212.48,342.46 -1098.93,880.87 183.11,868.57 2719.5,1019.79 3423.02,266.03 592.31,-634.66 -609.92,-1171.35 -836.08,-1083.1z"/>
  <path class="fil2" d="M-11448.77 7912.5c-86.34,820.57 926.29,956.92 1128.74,237.66 123.27,-437.97 210.06,-1307.38 568.37,-1138.22 74.16,35.04 91.23,81.1 111.86,165.92 40.55,166.4 -53.02,129.06 139.46,156.49 188.82,-405.94 -415.07,-701.35 -665.79,-304.37 -140.49,222.53 -188.91,840.58 -330.31,1112.05l-952.33 -229.53z"/>
  <path class="fil2" d="M-15945.99 8195.11c608.95,-171.65 1212.62,97.13 1427.67,478.04 324.98,575.63 -266.61,1015.71 -713.17,1120.12 -1382.84,323.46 -2186.8,-1183.08 -714.5,-1598.16zm1616.39 928.71c120.1,-612.12 -517.64,-1029.53 -1073.93,-1088.8 -656.49,-69.95 -1320.37,270.02 -1428.71,782.94 -272.44,1290.18 2254.46,1570.76 2502.64,305.86z"/>
  <path class="fil2" d="M-22239.74 8313.52c-82.52,54.87 -249.9,219.69 -300.69,58.5 -36.63,-116.34 104.65,-259.3 145.65,-326.28 -283.16,89.88 -236.27,211.43 -404.29,366.27 -172.21,-17.42 -306.48,-130.65 -364.46,-232.64l42.01 198.86c-128.13,82.27 -120.06,-48.22 -167.19,96.97 65.46,78.61 100.28,44.86 235.07,61.6 623.43,77.38 324.78,183.35 653.26,168.42l-78.54 -124.95c276.85,-39.97 488.69,-50.63 553.53,195.36 65,246.56 -57.52,414.2 -172.46,521.53 -129.2,120.68 -327.57,191.38 -545.18,202.13 -511.92,25.33 -476.1,-234.03 -563.06,8.52 395.03,180.53 895.55,127.28 1192.32,-127.15 314.25,-269.43 353.5,-888.16 -194.91,-952.06l-31.06 -115.08z"/>
  <path class="fil2" d="M-27519.99 9149.54c-371.42,215.67 -47.61,688.65 283.77,509.94 297.68,-160.51 73.88,-717.64 -283.77,-509.94z"/>
  <path class="fil2" d="M-16460.4 9321.68c-182.4,-123.01 -211.07,-604.77 31.06,-695.65 115.27,57.49 152.55,169.81 153.1,342.53 0.61,175.8 -29.38,316.68 -184.16,353.12zm-209.74 -228.91c73.33,530.92 557.13,348.71 462.98,-248.97 -77.11,-489.5 -546.21,-353.73 -462.98,248.97z"/>
  <path class="fil2" d="M-13709.6 3966.84c-61.44,-351.37 437.13,-397.95 470.36,-85.47 31.97,301.39 -421.94,362.38 -470.36,85.47zm133.6 -354.97c-375.25,131.46 -227.17,740.96 214.89,598.62 363.51,-117.02 194.71,-742.13 -214.89,-598.62z"/>
  <path class="fil2" d="M-28404.75 8949.32c-239.25,77.54 -156.21,451.45 119.38,373.23 233.48,-66.26 142.24,-458.02 -119.38,-373.23z"/>
  <path class="fil2" d="M-29216.55 9480.12c341.08,107.04 377.74,-207.77 233.36,-295.02 -180.89,-109.4 -330.39,64.81 -233.36,295.02z"/>
  <path class="fil2" d="M-17977.52 3500.85c117.73,73.68 849.03,30.57 1051.68,30.57 -20.34,-133.18 -55.02,-79.87 -497.76,-79.87l-468.1 -2.2c-166.21,19.73 -24.67,13.38 -85.82,51.5z"/>
  <path class="fil2" d="M-17780.06 2982.87c160.22,0 320.48,0 480.7,0 83.14,0 166.02,0 249.12,0.78 20.5,0.2 111.12,2.11 125.12,-0.16 113.45,-18.43 53.11,-11.53 90.65,-41.84 -34.85,-24.94 57.74,-39.74 -215.77,-37.44l-497.89 0.03c-372.49,-7.35 -182.63,28.18 -231.93,78.63z"/>
  <g id="_3084279593488">
   <path class="fil1" d="M944.77 1550.19c80.06,-80.45 42.78,-45.47 68.24,-201.36 55.32,-338.96 296.83,-623.87 595.6,-767.03 156.44,-74.91 302.6,-68.2 448.02,-122.03 -64.06,-37.15 -90.78,-42.43 -232.32,-10.88 -511.56,114.1 -897.61,555.93 -879.54,1101.3z"/>
   <path class="fil2" d="M3275.14 1495.1c-18.07,1354.08 -1656.58,1700.6 -2277.16,665.33 -334.3,-557.71 -130.88,-1168.99 221.92,-1502.29 165.95,-156.75 399.14,-296.9 703.36,-327.02 393.21,-38.96 531.83,70.41 808.52,188.34 -32.2,126.28 -277.37,401.73 -372.78,531.93 -107.79,147.07 -247.86,347.48 -354.64,487.98l1270.78 -44.27zm138.85 -9.36l22.31 43.98c1.62,5.99 6.71,16.68 8.29,24.35 84.4,404.46 -318.17,1110.21 -937.19,1324.16 -745.21,257.61 -1402.8,-168.67 -1654.22,-603.67 -536.63,-928.38 81.35,-2009.7 1051.03,-2110.94 279.38,-29.15 813.28,47.44 924.96,265.06 -99.95,52.01 -146.56,-43.73 -358.34,-115.27 -1151.73,-388.94 -2155.64,882.01 -1529.85,1904.38 660.54,1079.12 2284.58,668.09 2402.08,-524 14.35,-145.58 -24.62,-160.99 70.93,-208.05zm143.54 -115.98l-1293.52 41.65c71.44,-175.25 243.29,-359.99 367.82,-522.44 107.27,-139.92 309.75,-376.61 373.1,-521.28 -310.37,-174.31 -486.16,-341.04 -989.53,-328.86 -1158.01,27.98 -1853.57,1305.44 -1270.98,2282.66 297.06,498.22 986.84,947.73 1811.07,667.32 563.12,-191.58 1105.29,-815.07 1002.04,-1619.05z"/>
   <path class="fil2" d="M2715.52 1159.4c39.93,-98.52 580.25,-807.52 636.32,-852.76 175.02,93.11 461.39,499.48 466.41,829.18l-652.87 19.01 -32.35 -73.61c-34.89,-67.76 -23,-109.54 -123.11,-102.57 -146.23,10.1 -86.51,99.13 -124.2,186.06l-170.2 -5.31zm739.4 -869.31c-101.76,-127.32 -15.41,-94.09 -2.62,-111.32 120.03,-22.54 471.85,493.3 519.56,784.33 23.06,140.56 -12.5,142.44 -29.7,168.87 -107.49,-152.97 -61.44,-409.54 -389.2,-749.25 -26.1,-27.01 -84.17,-75.24 -98.04,-92.63zm-975.47 1002.2l1642.85 -47.68c-38.8,-565.39 -334.89,-1081.16 -707.28,-1246.49 -107.39,187.46 -333.75,451.35 -473.53,641.82 -107.04,145.94 -414.37,524.93 -462.04,652.35z"/>
   <path class="fil2" d="M3248.62 600.72c-214.44,96.06 -104.1,439.82 153.58,348.65 225.8,-79.93 96.45,-460.65 -153.58,-348.65z"/>
   <path class="fil2" d="M1874.48 683.5c236.17,-153.97 392.28,214.08 185.97,321.93 -119.61,62.54 -231.73,6.58 -269.46,-73.07 -90.49,-191.05 76.46,-244.29 83.49,-248.86zm27.11 -103.9c-392.37,116.47 -189.98,625.82 159.99,516.35 312.83,-97.9 168.03,-613.71 -159.99,-516.35z"/>
   <path class="fil2" d="M2622.02 1808.41c211.55,17.52 297.99,136.87 143.54,326.95l-85.18 -134.83c-37.57,-92.2 -31.64,-102.5 -58.36,-192.12zm-78.06 -45.34c-36.72,59.82 102.15,386.61 155.33,465.73 400.28,-56.39 230.28,-642.53 -155.33,-465.73z"/>
   <path class="fil2" d="M1433.66 2062.91c95.6,-24.09 157.98,-19.4 229.53,22.19l20.11 179.33c-118.47,60.95 -149.7,56.42 -250.81,-6.12l1.17 -195.4zm215.92 318.31c171.56,-176.26 155.37,-424.41 -99.81,-421.01 -240.74,3.24 -275.36,241.22 -95.45,424.6l195.26 -3.59z"/>
   <path class="fil2" d="M1311.49 1183.66c151.57,-148.47 287.38,78.67 183.7,184.57 -107.88,110.28 -342.46,-29.11 -183.7,-184.57zm297.16 156.24c3.46,-407.11 -383.6,-323.65 -424.38,-126.44 -52.56,254.17 223.12,398.46 424.38,126.44z"/>
   <path class="fil2" d="M2369.69 2209.27c-378.55,104.58 -291.78,-390.72 24.84,-192.8l-24.84 192.8zm-209.19 -317.75c-489.67,547.38 690.92,523.64 202.58,-3.53l-202.58 3.53z"/>
   <path class="fil2" d="M1391.97 1677.7c-288.05,-89.36 -186.55,-36.54 -229.14,-12.31 -40.45,136.09 -28.5,104.9 123.92,148.43 89.48,25.59 146.58,49.94 254.01,46.54l25.33 -95.8c-54.19,-74.72 -73.62,-55.71 -174.12,-86.86z"/>
   <path class="fil2" d="M1891.13 1702.41c-87.8,63.12 -25.52,58.1 -139.78,12.18l10.16 -72.75c3.76,-2.72 -26.97,-76.5 89.88,-30.08 66.23,26.33 31.51,33.87 39.74,90.65zm-145.81 111.09c312.09,49.19 317.07,-309.11 19.89,-289.03l-86.12 84.73c-14.22,117.5 14.51,147.91 66.23,204.3z"/>
  </g>
  <path class="fil2" d="M-17544.47 3221.25c52.4,50.2 -115.95,47.83 276.14,44.53 116.75,-0.97 233.93,-0.1 350.72,-0.1l-6.61 -78.02 -470.46 -2.07c-145.09,2.78 -109.92,7.38 -149.79,35.66z"/>
  <path class="fil2" d="M-27965.78 9473.19c-111.51,-48.36 -251.78,-3.08 -167.08,133.56 49.36,79.58 216.86,81.52 167.08,-133.56z"/>
  <path class="fil2" d="M-29137.36 8993.43c219.81,1.3 178.62,-170.52 82.85,-196.27 -134.99,-36.3 -155.3,97.94 -82.85,196.27z"/>
  <path class="fil3" d="M-19897.81 7821.46l-66.1 -10.17c-278.04,24.26 -311.82,-114.94 -118.12,-223.7 47.48,-26.65 31.84,-16.1 62.29,-47.54 -435.32,57.68 -138.59,465.21 121.93,281.41z"/>
  <path class="fil4" d="M-19180.59 8593.35c-0.81,-127.18 -21.7,-158.02 -95.09,-225.64 -58.39,-53.8 -117.01,-122.62 -188.1,-164.37 43.3,94.51 212.75,329.12 283.19,390.01z"/>
  <path class="fil4" d="M-19497.27 8447.8c52.69,69.93 187.36,278.53 266.71,329.74 31.87,-65.91 -46.93,-152.51 -90.26,-205.18 -57.62,-70.02 -92.92,-83.17 -176.45,-124.56z"/>
  <path class="fil2" d="M-19497.27 8447.8c83.53,41.39 118.83,54.54 176.45,124.56 43.33,52.67 122.13,139.27 90.26,205.18 -79.35,-51.21 -214.02,-259.81 -266.71,-329.74zm316.68 145.55c-70.44,-60.89 -239.89,-295.5 -283.19,-390.01 71.09,41.75 129.71,110.57 188.1,164.37 73.39,67.62 94.28,98.46 95.09,225.64zm-134.89 -585.21c102.8,33.3 466.38,550.78 483.71,706.27 12.05,108.28 -73.65,365.17 -111.87,464.7 -74.07,192.74 -56.81,344.47 -53.89,562.12l-365.24 0.09c-7.48,-92.01 -17.71,-289.8 -36.5,-365.55 -18.49,-74.43 -104.15,-131.79 -154.13,-229.73 -51.2,-100.33 -117.05,-298.09 -186.55,-381.94 -58.65,-70.77 -64.94,-26.2 -82.94,-121.91 227,-33.42 302.88,329.71 523.96,380.68 103.48,-75.69 253.59,-317.94 220.36,-511.04 -32.51,-189.01 -252.59,-305.61 -236.91,-503.69zm-91.59 99.11c-181.66,2.46 -179.78,97.29 -95.22,215.41l-107.62 70.8c1.87,205.14 321.8,342.72 305.18,516.93 -129.22,-22.8 -444.77,-586.28 -597.58,-299.06 -44.4,141.27 67.11,152.99 128.74,254.24 47.87,78.63 85.15,207.11 131.66,300.84 187.55,377.84 117.95,-60.72 199.05,646.42 114.81,44.93 399.4,20.31 536.56,16.55 0.91,-214.63 -25.71,-426.05 44.12,-615.45 184.41,-500.29 160.73,-553.89 -136.49,-986.65 -86.83,-126.45 -194.06,-332.17 -371.35,-314.49 -24.71,58.4 -38.38,110.35 -37.05,194.46z"/>
  <path class="fil2" d="M-19247.79 7546.82c95.87,102.79 205.43,-110.48 543.82,-127.64 230.86,-11.73 446.07,113.68 414.43,355.93 -74.23,568.7 -996.43,-370.73 -1603.83,-378.83 -753.85,-10.04 -609.82,987.56 398.66,388.55 81.55,-48.45 84.79,-38.48 74.85,-117.92 -130.23,-16.49 -236.46,163.85 -525.36,214.08 -323.71,56.26 -444.45,-181.24 -233.71,-324.43 344.64,-234.12 873.68,117.64 1115,257.71 135.51,78.61 340.46,211.26 520.53,225.68 236.08,18.91 402.03,-168.29 330.16,-415.66 -52.37,-180.24 -232.47,-298.55 -470.65,-293.76 -157.47,3.14 -512.08,97.68 -563.9,216.29z"/>
 </g>
</svg>
