<?xml version="1.0" encoding="UTF-8"?>
<!DOCTYPE svg PUBLIC "-//W3C//DTD SVG 1.1//EN" "http://www.w3.org/Graphics/SVG/1.1/DTD/svg11.dtd">
<!-- Creator: CorelDRAW 2017 -->
<svg xmlns="http://www.w3.org/2000/svg" xml:space="preserve" width="46.5666mm" height="30.7338mm" version="1.1" style="shape-rendering:geometricPrecision; text-rendering:geometricPrecision; image-rendering:optimizeQuality; fill-rule:evenodd; clip-rule:evenodd"
viewBox="0 0 4656.66 3073.38"
 xmlns:xlink="http://www.w3.org/1999/xlink">
 <defs>
  <style type="text/css">
   <![CDATA[
    .fil0 {fill:none}
    .fil1 {fill:#883636}
   ]]>
  </style>
 </defs>
 <g id="Capa_x0020_1">
  <metadata id="CorelCorpID_0Corel-Layer"/>
  <rect class="fil0" y="-0" width="4656.66" height="3073.39"/>
  <path class="fil1" d="M-10316.69 9352.42c49.97,-10.79 136.83,-112.71 179.36,-182.15 65.45,-106.85 59.14,-187.49 43.23,-332.56 383.28,185.1 0.07,497.41 -222.59,514.71zm-1746.37 -122.27c-71.57,-71.51 -230.01,-172.46 -87.15,-331.97 59.62,-66.52 217.09,-148.95 339.77,-168.7 -186.94,129.09 -235.26,206.4 -252.62,500.67zm-406.27 -75.27c134.41,369.74 1020.34,496.05 1540.55,468.42 493,-26.2 1531.27,-302.59 1110.85,-772.44 -75.91,-84.88 -194.06,-148.66 -321.99,-205.04 -184.87,-81.46 -202.88,-101.89 -349.85,-15.22 -234.84,138.48 -525.26,155.39 -768.39,14.93 -163.24,-94.25 -116.63,-170.68 -368.61,-127.84 -294.11,50.04 -984.87,245.76 -842.56,637.19z"/>
  <path class="fil1" d="M-21285.61 4286.86c-41.16,-166.21 46.71,-196.63 137.71,-284.53 159.09,-153.58 602.22,-627.24 713.92,-695.68l126.34 132.08c-55.99,102.34 -545.3,560.75 -691.95,711.91 -88.52,91.2 -120.03,179.26 -286.02,136.22zm1118.6 -1935.44c79.8,-123.72 763.02,-810.37 879.06,-863.97 117.63,45.93 759.87,688.49 796.05,801.82l-862.19 882.03 -560.62 -203.23 -354.03 332.3c-34.01,-130.1 109.44,-200.77 298.22,-392.41l-196.49 -556.54zm-137.45 -31.1c37.66,206.28 175.25,379.94 184.9,600.18 -90.43,60.59 -99.69,92.88 -176.77,164.36 -254.34,235.72 127.28,-234.77 -581.45,472.5 -286.86,286.28 -725.87,600.95 -462.72,815.58 228.55,186.43 527.98,-234.77 817.39,-522.79 65.94,-65.62 321.41,-303.05 354.09,-356.98 62.9,-103.77 -81.48,-71.83 290.74,-382.27l556.48 198.12c243.56,-218.17 478.24,-475.42 715.7,-711.13 384.28,-381.46 283.46,-358.18 -189.5,-831.91 -466.47,-467.32 -435.54,-523.54 -784.23,-172.53 -247.92,249.61 -482.86,476.36 -724.63,726.87z"/>
  <path class="fil1" d="M-10309.41 8347.14c17.27,151.28 23.74,63.8 339.1,191.12 377.9,152.51 778.98,486.46 347.13,866.69 -725.71,638.94 -2964.72,450.02 -3151.46,-238.5 -171.01,-630.59 1105.67,-720.01 1203.29,-850.34 -66.2,-87.12 -98.69,-59.75 -226.07,-32.77 -412.61,87.35 -1212.48,342.46 -1098.93,880.87 183.11,868.57 2719.5,1019.79 3423.02,266.03 592.31,-634.66 -609.92,-1171.35 -836.08,-1083.1z"/>
  <path class="fil1" d="M-11448.77 7912.5c-86.34,820.57 926.29,956.92 1128.74,237.66 123.27,-437.97 210.06,-1307.38 568.37,-1138.22 74.16,35.04 91.23,81.1 111.86,165.92 40.55,166.4 -53.02,129.06 139.46,156.49 188.82,-405.94 -415.07,-701.35 -665.79,-304.37 -140.49,222.53 -188.91,840.58 -330.31,1112.05l-952.33 -229.53z"/>
  <g id="_3084278123904">
   <path class="fil1" d="M3655.98 2396.51c-169.17,-496.92 737.86,-640.61 768.8,-164.24 31.91,491.2 -628.43,576.6 -768.8,164.24zm-2166 -244.94c60.26,64.9 7.03,-32.45 30.35,59.89 5.75,22.8 5.75,46.23 9.28,72.5 49.16,364.7 502.67,324.88 547.33,24.37 2.39,-16.2 5.7,-72.02 6.01,-73.56 17.39,-82.8 -11.3,-32.96 35.13,-83.2 321.03,66.44 -230.09,856.24 -628.27,353.97 -36.78,-46.37 -186.82,-318.7 0.17,-353.97zm108.91 163.02c-32.68,-182.18 45.63,-165.87 190.61,-166.89 153.03,-1.11 254,-26.96 219.75,160.37 -41.87,229.12 -372.78,216.08 -410.36,6.52zm2185.05 -825.1c349.15,-37.09 610.44,138.45 687.72,402.47 -173.58,-11.21 -376.08,-59.95 -549.87,-38.88 -184.88,22.43 -197.29,157.24 -396.32,151.01l258.47 -514.6zm-2458.26 -916.93l523.82 -0.09 9.17 206.23 142.13 1.11 11.01 -207.25 553.89 -0.03 1.28 520.32 -1248.99 0 7.69 -520.29zm2119.89 196.78c-50.76,-141.53 -46.52,-201.22 89.89,-250.21 41.22,75.57 56.65,158.78 50.9,278.3l-140.79 -28.09zm-294.22 -237.01c99.23,76.41 388.01,635.98 445.68,740.62 120.55,218.73 79.14,172.82 -27.58,390.35 -57.19,116.65 -104.24,321.43 -222.49,384.48l-2167.65 0c9.62,-257.81 154.54,-668.45 306.2,-746.02 107.86,-55.08 868.91,-23 1048.62,-19.84 -73.22,115.2 -324.48,407.88 -101.45,608.88 109.45,98.66 617.19,52.32 805.06,51.43 99.88,-55.08 140.08,-211.58 189.07,-312.24 98.26,-201.82 122.97,-161 23.77,-374.97 -100.37,-216.45 -224.37,-494.34 -299.23,-722.69zm-1552.32 -28.18c-308.85,2.37 -234.18,20.93 -280.52,-46.25 41.33,-39.94 -70.85,-52.18 141.21,-57.9 199.97,-5.41 1036.72,-21.52 1107.8,30.6l-2.17 54.62c-75.63,39.86 -778.96,17.51 -966.32,18.93zm-384.71 554.43c-71.13,154.25 -97.63,-77.26 -97.89,211.95l218.3 12.5c-114.2,246.25 -279.47,420.75 -267.89,868.54l240.79 0.06c-15.06,828.49 1004.84,830.88 993.19,-0.06l937.55 0.94c183.26,0.99 171.96,-22.52 308.14,-42.64 -124.85,1062.27 1317.07,668.34 930.96,-68.32 8.85,-12.61 279.22,-147.22 -86.31,-470.71 -156.64,-138.65 -342.95,-183.32 -607.22,-197.72l-260.69 -449.67c81.04,-45.32 132.02,-13.75 163.99,-124.22 7.97,-27.47 48.28,-634.5 -367.58,-252.04 -42.15,-47.73 -52.77,-85.39 -109.22,-136.43 -189.86,24.99 -344.6,52.4 -380.81,166.38l215.82 -5.61c227.76,676.6 539.91,769.6 156.34,1265.61 -124.82,4.81 -248.93,2.42 -373.81,6.03 -142.3,4.1 -250.93,39.17 -325.45,-54.31 -187.42,-243.38 163.62,-433.39 236.21,-539.14 -0.86,-224.45 -17.28,-65.95 -56.16,-178.11 -30.46,-87.81 2.9,-565.29 -18.62,-772.15l-1442.81 0.4 -6.83 758.72z"/>
   <path class="fil1" d="M3825.72 2314.59c-54,-308.82 384.2,-349.76 413.41,-75.12 28.09,264.9 -370.85,318.5 -413.41,75.12zm117.42 -311.98c-329.8,115.54 -199.65,651.23 188.87,526.13 319.5,-102.85 171.14,-652.26 -188.87,-526.13z"/>
   <path class="fil1" d="M74.62 1905.03c103.47,64.76 746.22,26.87 924.33,26.87 -17.87,-117.05 -48.36,-70.2 -437.48,-70.2l-411.42 -1.93c-146.08,17.33 -21.69,11.75 -75.43,45.26z"/>
   <path class="fil1" d="M248.17 1449.78c140.82,0 281.67,0 422.49,0 73.07,0 145.91,0 218.96,0.68 18.01,0.17 97.66,1.85 109.96,-0.14 99.71,-16.2 46.68,-10.13 79.67,-36.78 -30.63,-21.92 50.76,-34.92 -189.63,-32.9l-437.6 0.02c-327.39,-6.46 -160.52,24.77 -203.85,69.12z"/>
   <path class="fil1" d="M455.23 1659.29c46.06,44.12 -101.91,42.04 242.7,39.14 102.62,-0.86 205.61,-0.09 308.25,-0.09l-5.8 -68.57 -413.5 -1.83c-127.52,2.45 -96.61,6.5 -131.65,31.35z"/>
  </g>
 </g>
</svg>
