<?xml version="1.0" encoding="UTF-8"?>
<!DOCTYPE svg PUBLIC "-//W3C//DTD SVG 1.1//EN" "http://www.w3.org/Graphics/SVG/1.1/DTD/svg11.dtd">
<!-- Creator: CorelDRAW 2017 -->
<svg xmlns="http://www.w3.org/2000/svg" xml:space="preserve" width="4.8258mm" height="11.5992mm" version="1.1" style="shape-rendering:geometricPrecision; text-rendering:geometricPrecision; image-rendering:optimizeQuality; fill-rule:evenodd; clip-rule:evenodd"
viewBox="0 0 482.58 1159.92"
 xmlns:xlink="http://www.w3.org/1999/xlink">
 <defs>
  <style type="text/css">
   <![CDATA[
    .fil0 {fill:#070300}
   ]]>
  </style>
 </defs>
 <g id="Capa_x0020_1">
  <metadata id="CorelCorpID_0Corel-Layer"/>
  <path class="fil0" d="M98.76 786.49c1.11,8.87 -5.84,35.36 -13.72,42.25 -2.79,-29.21 -3.55,-78.83 1.8,-107.13l10.99 0.8 27.13 9.4c-2.84,8.16 -8.82,16.95 -13.25,25.91l-11.99 27.33c-0.15,-0.33 -0.61,0.98 -0.96,1.44zm74.07 -245.38c9.99,2.24 5.8,7.24 23.79,5.94l14.34 -2.72c-1.93,14.8 -5.23,17.65 -19.6,20.77l-19.05 16.14c-10.38,21.26 -32.97,43.62 -39.41,72.42 -11.68,-1.84 -22.45,-4.12 -27.17,-12.7 -6.99,-0.79 -14.29,-5.19 -19.7,-9.56 -2.74,-36.87 -1.07,-79.77 -0.16,-117.05 0.46,-18.86 0.36,-40.03 -0.78,-58.77 -1.79,-29.18 -5.17,-43.17 12.23,-44.8 1.23,8.66 0.16,21.22 2.57,28.3 2.54,7.44 8.17,9.19 13.61,13.49 15.41,5.87 23.89,5.89 26.56,23.27 -7.9,6.75 -11.01,4.48 -7.86,19.83 1.91,9.29 4.85,13.51 9.93,18.4l23.45 19.07c4.64,3.78 3.83,2.77 7.25,7.97zm-118.53 -522.33c4.85,14.33 0.1,78.52 0.98,100.24 0.07,18.14 2.06,35.74 1.27,54.57 -0.43,10.32 -0.62,16.82 -7.31,21.17 -5.25,3.42 -14.96,6.83 -20.3,6.85l-7.96 5.57c-8.19,4.2 -15.28,6.41 -22.93,13.61l5.78 9.73c4.09,2.14 8.82,5.01 12.91,7.63 2.6,1.66 3.62,2.15 5.88,4.31 4.26,4.07 1.89,1.75 4.11,5 6.7,2.37 17.03,13.77 20.16,22.51 7.03,6.36 10.57,20.14 9.02,32.97 -1.8,15 -1.61,23.91 -2.44,39.56l-10.11 3.37c-0.39,0.39 -0.93,0.88 -1.22,1.12l-17.45 12.83c-1.75,4.48 -4.15,8.77 -5.56,14.96 -4.28,16.72 -8.2,48.7 -6.37,65.67l3.6 13.55 8.6 -1.4 8.23 -6.99c0.85,-1.11 0.39,-2.19 4.05,-5.41 2.87,-2.53 2.79,-0.72 5.45,-2l6.63 -5.52 3.81 2.62 0.45 26.81c-0.7,22.82 1.67,177.02 -2.82,183.85 -12.35,1.66 -12.69,1.1 -21.47,7.04 -0.72,10.51 4.07,40.83 8.27,49.94 6.2,5.71 18.39,35.41 14.04,53.54 -4.31,17.98 -1.8,45.33 -0.56,65.95l-1.4 74.3c-2.17,49.73 -2.17,105.54 -0.44,155.33 -0.17,30.06 -3.74,79.77 1.47,107.16 14.55,4.81 21.74,2.48 30.88,-4.84l0.22 -113.17c0.01,-2.14 -0.1,-6.24 0.07,-8.16 0.21,-2.44 0,-1.41 0.45,-3.53 0.99,-4.73 -0.12,-1.46 1.62,-4.09 -3.5,-16.95 -0.6,-69.14 -0.19,-89.55 0.5,-24.83 -3.7,-70.25 -1.03,-90.95 5.34,1.96 8.61,4.29 13.66,7.81 14.77,1.53 16.45,-15.44 18.16,7.98 0.94,12.92 -1.62,25.87 -1.69,38.68 13.5,10.72 23.2,13.92 42.92,16.03 1.85,31.96 5.22,8.46 21.72,47.73 10.05,23.92 -0.68,35.71 -0.66,60.05 4.21,3.56 -0.22,0.02 4.45,3.12l24.54 16.04c5.57,2.55 6.14,1.56 10.83,5.66l10.07 -0.24c2.57,12.35 -0.71,28.15 -7.06,35.31 -6.65,13.32 -15.35,17.36 -27.49,24.75l-11.03 5.69c-2.39,4.59 -0.43,1.07 -2.86,4.37 -0.01,0.02 -2.69,3.26 -2.93,3.56 -2.5,3.15 -2.55,2.51 -4.39,6.69 -2.65,10.68 -2.03,12.12 0.11,22.78l21.56 -0.65c26.54,0.69 73.67,-10.86 98.14,-18.97 37.56,-12.45 17.17,-62.94 18.61,-95.4 7.41,-5.62 26.82,-21.51 26.6,-35.08 -0.15,-9.29 -6.28,-13.83 -8.99,-21.3 -4.34,-11.99 2.22,-17.36 -3.04,-29 -2.41,-5.33 -22.41,-35.23 -22.41,-40.86 0,-10.45 8.29,-16.3 0.13,-28.19 -7.17,-10.45 -9.73,-8.61 -7.57,-24.48 7.09,7.8 11.43,24.34 42.65,29.76l2.95 0.46c22.64,2.51 36.72,-1.74 53.5,-7.59 3.55,-3.22 11.93,-6.23 18.66,-8.34 9.48,-2.97 13.99,-5.02 20.45,-9.74 9.88,-7.21 19.26,-23.66 20.83,-39.59 3.37,-23.64 0.25,-43.65 -8.27,-65.22 -12.32,-31.18 -33.16,-32.06 -41.59,-37.69 -15.34,-1.64 -19.72,-0.57 -34.39,3.17 -17.92,2.27 -8.44,9.14 -12.28,24.92 4.22,2.41 4.23,4.17 10.17,6.15 4.8,1.61 9.65,1.67 14.39,1.76 18.58,1.48 26.86,8.7 33.26,20.02 3.26,5.77 5.38,11.24 6.83,19.72l-0.94 23.17 -4.19 8.12c-4.24,8.97 -12.92,17.51 -24.93,20.35 -5.19,4.74 -21.58,10.09 -30.91,11.06 -3.68,0.25 -8.11,0.91 -11.71,0.43 -4.33,-0.57 -2.53,-0.5 -5.51,-1.47l-3.28 -1.69c-7.85,-1.71 -12.97,-8.52 -15.53,-16.63l11.58 -5.78c3.44,-5.15 5.55,-8.54 5.12,-18.06 -6.45,-13.96 -14.47,-26.82 -20.23,-41.11 -3.09,-7.67 -4.31,-15.66 -7.07,-23.23 -3.35,-9.2 -7.94,-10.04 -13.12,-17.33 -13.68,-19.27 -1.27,-27 2.37,-47.12 4.06,-22.45 0.97,-14.8 8.21,-22.29 11.69,-12.11 4.5,-10.88 4.61,-17.29 3.77,-11.86 22.06,-2.26 7.49,-47.31 -6.32,-19.57 0.81,-36.76 -0.07,-58.34l-13.01 0.3 -15.1 0.54c-5.78,-5.59 -4.49,-24.04 -4.84,-32.84l0.51 -8 72.54 0.28 4.2 0.37c13.66,0.26 24.03,2.93 32.14,-4.82 -4.18,-10.86 -9.93,-7.54 -14.24,-15.78l8.87 0.66c4.44,-3.59 69.38,-10.49 79.49,-10.84l2.51 -2.93c0.18,-0.9 0.72,-1.19 1.25,-1.61l-3.92 -0.69c-21.54,-13.61 -20.85,-8.33 -36.43,-14.94 -6.48,-2.75 -2.35,-0.9 -4.88,-2.61l-30.98 -8.01c5.2,-6.39 5.21,-4.05 14.61,-5.83 5.8,-1.1 9.09,-2.16 15.06,-2.95l2.89 -1.41c0.43,-0.17 1.01,-0.44 1.5,-0.61l26.65 -4.45c2.94,-2.64 -2.33,-0.5 5.91,-3.45 6.66,-2.38 6.61,0.93 16.67,-5.35l-0.41 -8.37c-9.94,-7.65 -30.2,-4.65 -40.06,-14.65 -9.95,-0.66 -20.11,-4.94 -30.38,-7.43 -16.02,-3.87 -24.66,-0.72 -32.61,-7.97 15.33,0.21 31.54,2.46 38.51,-6.43 -2.04,-3.15 6,-2.73 -6.11,-2.4l-10.71 0.54 -16.88 0.9c-5.45,0.03 -9.43,0.64 -15.05,0.97 -13.03,0.78 -12.91,0.1 -14.68,-5.9l-1.28 -10.43c-2.15,-26.37 -6.31,-24.79 -12.05,-42.34l-14.93 -17.85c-21.94,-29.03 -35.07,-20.09 -58.43,-30.9 -4.5,-19.87 9.14,-25.86 3.33,-68.93l-5.2 -23.66c-2.98,-8.35 -4.57,-13.17 -10.17,-18.03 -2.59,22.71 6.32,34.94 7.57,56.9 0.95,13.17 3.85,29.34 -7.55,35.69l-11.57 -49.92c-9.14,-12.1 2.45,-19.01 -27.1,-43.26 -17.43,-14.3 -34.83,-15.43 -54.41,-15.84l0.15 10.95 11.1 27.75c4.92,5.33 7.13,15.66 8.61,23.49 3.66,10.75 6.3,31.52 5.88,44.17l-24.56 -18.06c-0.09,-0.49 -0.42,-0.64 -0.56,-1 -5.4,-2.53 -2.42,-0.45 -7.14,-4.62 -1.26,-1.11 -3.39,-3.68 -4.84,-5.24 -3.75,-4.03 -6.68,-6.57 -8.77,-10.28 -3.53,-2.15 -1.44,-0.71 -4.24,-2.83l-4.44 -3.9c-0.21,-0.19 -0.83,-0.41 -0.97,-1.02 -0.15,-0.61 -0.65,-0.68 -0.97,-1.02 -19.07,-6.11 -21.55,-8 -45.67,-7.45l-0.3 -75.9c-0.11,-16.68 -1.49,-70.16 2.15,-82.44 -3.46,-5.8 -2.54,-13.13 -4.46,-19.17 -1.72,-5.39 -5.37,-9.43 -9.25,-10.58 -6.31,-1.86 -13.39,0.45 -16.16,3.68 -2.91,3.38 -2.96,7.7 -4.34,12.8l-1.27 3.45z"/>
 </g>
</svg>
