<?xml version="1.0" encoding="UTF-8"?>
<!DOCTYPE svg PUBLIC "-//W3C//DTD SVG 1.1//EN" "http://www.w3.org/Graphics/SVG/1.1/DTD/svg11.dtd">
<!-- Creator: CorelDRAW 2017 -->
<svg xmlns="http://www.w3.org/2000/svg" xml:space="preserve" width="12.3612mm" height="21.9286mm" version="1.1" style="shape-rendering:geometricPrecision; text-rendering:geometricPrecision; image-rendering:optimizeQuality; fill-rule:evenodd; clip-rule:evenodd"
viewBox="0 0 1236.12 2192.86"
 xmlns:xlink="http://www.w3.org/1999/xlink">
 <defs>
  <style type="text/css">
   <![CDATA[
    .fil0 {fill:#912235;fill-rule:nonzero}
   ]]>
  </style>
   <clipPath id="id0">
    <rect x="1.24" y="-0.13" width="1233.63" height="2193.12"/>
   </clipPath>
   <clipPath id="id1">
    <path d="M27.15 369.45l323.29 0 12.02 16 19.61 4.9 0 50.58 -354.92 0 0 -71.48z"/>
   </clipPath>
   <clipPath id="id2">
    <rect x="27.15" y="418.29" width="1013.35" height="1022.06"/>
   </clipPath>
   <clipPath id="id3">
    <rect x="543.44" y="118.49" width="436.91" height="1315.87"/>
   </clipPath>
   <clipPath id="id4">
    <rect x="425.47" y="852.23" width="247.66" height="592.23"/>
   </clipPath>
   <clipPath id="id5">
    <rect x="66.16" y="1114.16" width="238.53" height="317.28"/>
   </clipPath>
   <clipPath id="id6">
    <rect x="172" y="1119.4" width="400.39" height="322.85"/>
   </clipPath>
   <clipPath id="id7">
    <rect x="781.46" y="202.13" width="396.58" height="1220.5"/>
   </clipPath>
   <clipPath id="id8">
    <rect x="711.64" y="679.63" width="500.73" height="735.63"/>
   </clipPath>
 </defs>
 <g id="Capa_x0020_1">
  <metadata id="CorelCorpID_0Corel-Layer"/>
  <g style="clip-path:url(#id0)">
   <image x="1.24" y="-0.13" width="1233.63" height="2193.12" xlink:href="perfil-nivel-captura-de-pantalla-pokemon-go_Images\perfil-nivel-captura-de-pantalla-pokemon-go_ImgID1.png"/>
  </g>
  <g style="clip-path:url(#id1)">
   <image x="-119.98" y="-0.13" width="7006.13" height="2193.12" xlink:href="perfil-nivel-captura-de-pantalla-pokemon-go_Images\perfil-nivel-captura-de-pantalla-pokemon-go_ImgID2.png"/>
  </g>
  <path class="fil0" d="M102.42 407.27l3.92 -1.34c0.5,1.74 1.3,3.07 2.41,3.98 1.11,0.91 2.47,1.37 4.09,1.37 1.58,0 2.83,-0.48 3.77,-1.42 0.94,-0.94 1.41,-2.21 1.41,-3.81 0,-1.28 -0.39,-2.33 -1.15,-3.15 -0.76,-0.81 -2.45,-1.76 -5.07,-2.85 -3.04,-1.24 -5.18,-2.57 -6.42,-3.99 -1.25,-1.42 -1.87,-3.19 -1.87,-5.3 0,-2.49 0.82,-4.53 2.48,-6.14 1.65,-1.61 3.78,-2.41 6.4,-2.41 1.76,0 3.37,0.41 4.83,1.21 1.45,0.8 2.77,2.01 3.96,3.64l-3.04 3c-0.92,-1.27 -1.86,-2.22 -2.81,-2.84 -0.95,-0.62 -1.93,-0.94 -2.95,-0.94 -1.3,0 -2.34,0.37 -3.15,1.12 -0.8,0.74 -1.2,1.7 -1.2,2.9 0,0.95 0.26,1.77 0.78,2.47 0.52,0.69 1.36,1.33 2.51,1.9 1.03,0.52 2.24,1.06 3.65,1.64 1.4,0.58 2.26,0.97 2.55,1.16 1.9,1.23 3.21,2.47 3.94,3.72 0.72,1.25 1.08,2.84 1.08,4.78 0,2.79 -0.89,5.06 -2.67,6.82 -1.78,1.76 -4.08,2.64 -6.91,2.64 -2.73,0 -5.02,-0.72 -6.89,-2.17 -1.87,-1.44 -3.09,-3.44 -3.65,-5.99zm26.48 7.5l0 -24.17 4.06 0c-0.03,1.08 -0.08,2.15 -0.17,3.2 -0.08,1.05 -0.19,2.08 -0.31,3.09 0.67,-2.15 1.63,-3.8 2.88,-4.93 1.25,-1.13 2.73,-1.69 4.44,-1.69 1.5,0 2.78,0.42 3.83,1.26 1.05,0.84 1.81,2.05 2.26,3.63 0.94,-1.68 1.95,-2.92 3.05,-3.71 1.1,-0.78 2.35,-1.18 3.77,-1.18 2.04,0 3.62,0.74 4.75,2.22 1.13,1.47 1.7,3.54 1.7,6.21l0 16.07 -4.48 0 0 -15.05c0,-1.87 -0.28,-3.24 -0.84,-4.1 -0.55,-0.86 -1.44,-1.28 -2.66,-1.28 -1.46,0 -2.65,0.78 -3.56,2.35 -0.92,1.56 -1.37,3.66 -1.37,6.28l0 11.8 -4.44 0 0 -15.05c0,-1.86 -0.28,-3.22 -0.84,-4.09 -0.56,-0.86 -1.46,-1.29 -2.69,-1.29 -1.47,0 -2.66,0.78 -3.55,2.33 -0.9,1.57 -1.35,3.66 -1.35,6.3l0 11.8 -4.48 0zm45.04 -3.33c1.65,0 2.95,-0.79 3.93,-2.37 0.98,-1.58 1.46,-3.72 1.46,-6.43 0,-2.68 -0.48,-4.81 -1.46,-6.4 -0.98,-1.6 -2.27,-2.39 -3.89,-2.39 -1.63,0 -2.93,0.78 -3.89,2.35 -0.96,1.58 -1.44,3.72 -1.44,6.44 0,2.7 0.48,4.83 1.44,6.42 0.96,1.59 2.25,2.38 3.85,2.38zm0 3.99c-3.05,0 -5.48,-1.15 -7.28,-3.44 -1.8,-2.3 -2.7,-5.4 -2.7,-9.31 0,-3.9 0.9,-7.01 2.7,-9.3 1.8,-2.3 4.23,-3.44 7.28,-3.44 3.06,0 5.5,1.15 7.32,3.45 1.82,2.3 2.72,5.4 2.72,9.29 0,3.9 -0.9,6.99 -2.72,9.29 -1.82,2.31 -4.26,3.46 -7.32,3.46zm22.91 -3.99c1.65,0 2.95,-0.79 3.93,-2.37 0.98,-1.58 1.46,-3.72 1.46,-6.43 0,-2.68 -0.48,-4.81 -1.46,-6.4 -0.98,-1.6 -2.27,-2.39 -3.89,-2.39 -1.63,0 -2.93,0.78 -3.89,2.35 -0.96,1.58 -1.44,3.72 -1.44,6.44 0,2.7 0.48,4.83 1.44,6.42 0.96,1.59 2.25,2.38 3.85,2.38zm0 3.99c-3.05,0 -5.48,-1.15 -7.28,-3.44 -1.8,-2.3 -2.7,-5.4 -2.7,-9.31 0,-3.9 0.9,-7.01 2.7,-9.3 1.8,-2.3 4.23,-3.44 7.28,-3.44 3.06,0 5.5,1.15 7.32,3.45 1.82,2.3 2.72,5.4 2.72,9.29 0,3.9 -0.9,6.99 -2.72,9.29 -1.82,2.31 -4.26,3.46 -7.32,3.46zm31.51 -1.61c-0.73,0.54 -1.66,0.95 -2.79,1.23 -1.13,0.28 -2.37,0.42 -3.74,0.42 -3.72,0 -6.66,-1.15 -8.82,-3.43 -2.16,-2.29 -3.23,-5.41 -3.23,-9.36 0,-3.89 1.06,-6.99 3.19,-9.31 2.13,-2.31 4.97,-3.47 8.52,-3.47 1.31,0 2.55,0.15 3.73,0.46 1.17,0.31 2.22,0.75 3.14,1.34l0 4.73c-0.88,-0.85 -1.88,-1.5 -2.97,-1.93 -1.1,-0.44 -2.27,-0.65 -3.52,-0.65 -2.31,0 -4.13,0.78 -5.46,2.34 -1.32,1.55 -1.99,3.71 -1.99,6.45 0,2.79 0.7,4.97 2.08,6.55 1.39,1.59 3.29,2.37 5.69,2.37 1.16,0 2.23,-0.22 3.22,-0.65 0.99,-0.44 1.97,-1.12 2.95,-2.06l0 4.97zm18.46 0.95l0 -15.05c0,-1.86 -0.29,-3.23 -0.87,-4.11 -0.58,-0.87 -1.49,-1.31 -2.74,-1.31 -1.65,0 -2.97,0.78 -3.97,2.35 -1.01,1.56 -1.51,3.67 -1.51,6.32l0 11.8 -4.48 0 0 -32.35 4.48 0 0 8.15c0,0.65 -0.04,1.47 -0.12,2.43 -0.07,0.96 -0.2,2.06 -0.36,3.3 0.67,-1.95 1.63,-3.44 2.87,-4.48 1.25,-1.03 2.73,-1.55 4.44,-1.55 2.16,0 3.83,0.72 4.99,2.18 1.17,1.46 1.75,3.54 1.75,6.25l0 16.07 -4.48 0zm29.27 -9.46c0,3.2 -0.8,5.68 -2.38,7.46 -1.59,1.77 -3.81,2.66 -6.67,2.66 -2.86,0 -5.07,-0.89 -6.66,-2.66 -1.58,-1.78 -2.38,-4.26 -2.38,-7.46l0 -14.71 4.48 0 0 14.52c0,2.11 0.39,3.7 1.15,4.74 0.76,1.05 1.89,1.58 3.41,1.58 1.52,0 2.66,-0.53 3.42,-1.58 0.76,-1.04 1.15,-2.63 1.15,-4.74l0 -14.52 4.48 0 0 14.71zm6.82 9.46l0 -24.17 4.06 0c-0.03,1.08 -0.08,2.15 -0.17,3.2 -0.08,1.05 -0.19,2.08 -0.31,3.09 0.67,-2.15 1.63,-3.8 2.88,-4.93 1.25,-1.13 2.73,-1.69 4.44,-1.69 1.5,0 2.78,0.42 3.83,1.26 1.05,0.84 1.81,2.05 2.26,3.63 0.94,-1.68 1.95,-2.92 3.05,-3.71 1.1,-0.78 2.35,-1.18 3.77,-1.18 2.04,0 3.62,0.74 4.75,2.22 1.13,1.47 1.7,3.54 1.7,6.21l0 16.07 -4.48 0 0 -15.05c0,-1.87 -0.28,-3.24 -0.84,-4.1 -0.55,-0.86 -1.44,-1.28 -2.66,-1.28 -1.46,0 -2.65,0.78 -3.56,2.35 -0.92,1.56 -1.37,3.66 -1.37,6.28l0 11.8 -4.44 0 0 -15.05c0,-1.86 -0.28,-3.22 -0.84,-4.09 -0.56,-0.86 -1.46,-1.29 -2.69,-1.29 -1.47,0 -2.66,0.78 -3.55,2.33 -0.9,1.57 -1.35,3.66 -1.35,6.3l0 11.8 -4.48 0zm33.17 3.04l4.49 -12.95 5.21 0 -5.88 12.95 -3.82 0zm40 -3.04l-4.32 0 -11.92 -31.86 4.73 0 9.42 26.18 9.49 -26.18 4.56 0 -11.96 31.86zm22.69 -3.25c1.59,0 2.87,-0.75 3.83,-2.27 0.95,-1.51 1.43,-3.55 1.43,-6.12 0,-2.55 -0.47,-4.57 -1.41,-6.08 -0.95,-1.51 -2.2,-2.26 -3.77,-2.26 -1.59,0 -2.87,0.75 -3.83,2.25 -0.95,1.5 -1.43,3.53 -1.43,6.09 0,2.57 0.47,4.61 1.43,6.12 0.95,1.52 2.2,2.27 3.75,2.27zm5.52 3.25c0.05,-0.92 0.11,-1.82 0.2,-2.71 0.08,-0.88 0.19,-1.76 0.33,-2.63 -0.72,1.94 -1.67,3.43 -2.88,4.46 -1.2,1.02 -2.59,1.54 -4.15,1.54 -2.64,0 -4.76,-1.14 -6.36,-3.41 -1.6,-2.28 -2.4,-5.31 -2.4,-9.1 0,-3.77 0.81,-6.81 2.42,-9.1 1.61,-2.28 3.72,-3.43 6.34,-3.43 1.48,0 2.8,0.41 3.95,1.24 1.15,0.82 2.07,2.01 2.75,3.56 -0.17,-0.75 -0.31,-1.5 -0.4,-2.26 -0.09,-0.77 -0.15,-1.54 -0.18,-2.33l4.48 0 0 24.17 -4.1 0zm20.5 -3.91c1.61,0 2.89,-0.75 3.84,-2.26 0.95,-1.52 1.42,-3.55 1.42,-6.12 0,-2.54 -0.47,-4.57 -1.42,-6.08 -0.95,-1.51 -2.22,-2.27 -3.8,-2.27 -1.59,0 -2.86,0.75 -3.82,2.25 -0.96,1.5 -1.44,3.54 -1.44,6.1 0,2.55 0.48,4.58 1.44,6.1 0.96,1.52 2.22,2.28 3.78,2.28zm-6 -14.68c0.71,-1.92 1.67,-3.4 2.89,-4.44 1.21,-1.03 2.6,-1.55 4.17,-1.55 2.63,0 4.75,1.13 6.36,3.41 1.6,2.27 2.41,5.3 2.41,9.08 0,3.78 -0.81,6.81 -2.43,9.12 -1.62,2.31 -3.73,3.46 -6.34,3.46 -1.47,0 -2.79,-0.41 -3.94,-1.24 -1.15,-0.84 -2.07,-2.04 -2.74,-3.6 0.17,0.67 0.3,1.42 0.39,2.27 0.09,0.85 0.13,1.84 0.13,2.98l0 6.62 -4.44 0 0 -31.69 4.12 0c-0.04,0.91 -0.11,1.83 -0.2,2.76 -0.09,0.93 -0.22,1.87 -0.38,2.82zm29.58 15.26c1.65,0 2.95,-0.79 3.93,-2.37 0.98,-1.58 1.46,-3.72 1.46,-6.43 0,-2.68 -0.48,-4.81 -1.46,-6.4 -0.98,-1.6 -2.27,-2.39 -3.89,-2.39 -1.63,0 -2.93,0.78 -3.89,2.35 -0.96,1.58 -1.44,3.72 -1.44,6.44 0,2.7 0.48,4.83 1.44,6.42 0.96,1.59 2.25,2.38 3.85,2.38zm0 3.99c-3.05,0 -5.48,-1.15 -7.28,-3.44 -1.8,-2.3 -2.7,-5.4 -2.7,-9.31 0,-3.9 0.9,-7.01 2.7,-9.3 1.8,-2.3 4.23,-3.44 7.28,-3.44 3.06,0 5.5,1.15 7.32,3.45 1.82,2.3 2.72,5.4 2.72,9.29 0,3.9 -0.9,6.99 -2.72,9.29 -1.82,2.31 -4.26,3.46 -7.32,3.46zm14.9 -0.66l0 -24.17 4.33 0c-0.02,0.91 -0.06,1.87 -0.13,2.89 -0.07,1.02 -0.16,2.15 -0.28,3.4 0.8,-2.26 1.73,-3.93 2.77,-5 1.04,-1.08 2.25,-1.62 3.63,-1.62 0.34,0 0.69,0.04 1.07,0.13 0.38,0.08 0.84,0.22 1.36,0.4l-1.02 5.03c-0.41,-0.2 -0.77,-0.35 -1.11,-0.45 -0.33,-0.09 -0.67,-0.14 -1,-0.14 -1.57,0 -2.81,0.78 -3.75,2.33 -0.92,1.55 -1.39,3.65 -1.39,6.31l0 10.89 -4.48 0zm17.56 -14.35l11.31 0c-0.2,-2.2 -0.79,-3.9 -1.76,-5.09 -0.97,-1.18 -2.26,-1.77 -3.87,-1.77 -1.62,0 -2.92,0.59 -3.91,1.79 -0.98,1.19 -1.57,2.88 -1.77,5.07zm14.48 9.96c-1.1,1.72 -2.36,2.99 -3.77,3.81 -1.41,0.83 -3.05,1.24 -4.91,1.24 -3.2,0 -5.71,-1.13 -7.54,-3.39 -1.83,-2.26 -2.74,-5.38 -2.74,-9.36 0,-3.92 0.9,-7.02 2.71,-9.31 1.8,-2.29 4.24,-3.43 7.31,-3.43 3.12,0 5.57,1.15 7.34,3.46 1.78,2.31 2.66,5.51 2.66,9.61l0 0.41 -15.5 0 0 0.52c0,2.27 0.55,4.12 1.65,5.55 1.09,1.44 2.48,2.16 4.15,2.16 1.11,0 2.11,-0.29 2.98,-0.85 0.87,-0.56 1.7,-1.46 2.49,-2.69l3.17 2.27zm13.88 1.06c1.65,0 2.95,-0.79 3.93,-2.37 0.98,-1.58 1.46,-3.72 1.46,-6.43 0,-2.68 -0.48,-4.81 -1.46,-6.4 -0.98,-1.6 -2.27,-2.39 -3.89,-2.39 -1.63,0 -2.93,0.78 -3.89,2.35 -0.96,1.58 -1.44,3.72 -1.44,6.44 0,2.7 0.48,4.83 1.44,6.42 0.96,1.59 2.25,2.38 3.85,2.38zm0 3.99c-3.05,0 -5.48,-1.15 -7.28,-3.44 -1.8,-2.3 -2.7,-5.4 -2.7,-9.31 0,-3.9 0.9,-7.01 2.7,-9.3 1.8,-2.3 4.23,-3.44 7.28,-3.44 3.06,0 5.5,1.15 7.32,3.45 1.82,2.3 2.72,5.4 2.72,9.29 0,3.9 -0.9,6.99 -2.72,9.29 -1.82,2.31 -4.26,3.46 -7.32,3.46zm28.51 -0.66l0 -15.05c0,-1.86 -0.29,-3.23 -0.87,-4.11 -0.58,-0.87 -1.49,-1.31 -2.74,-1.31 -1.65,0 -2.97,0.78 -3.97,2.35 -1.01,1.56 -1.51,3.67 -1.51,6.32l0 11.8 -4.48 0 0 -24.17 4.06 0c-0.03,1.08 -0.08,2.15 -0.17,3.2 -0.08,1.05 -0.19,2.08 -0.31,3.09 0.73,-2.17 1.76,-3.81 3.07,-4.94 1.31,-1.12 2.86,-1.68 4.66,-1.68 2.16,0 3.83,0.72 4.99,2.18 1.17,1.46 1.75,3.54 1.75,6.25l0 16.07 -4.48 0zm7.36 3.04l4.49 -12.95 5.21 0 -5.88 12.95 -3.82 0zm-419.79 37.24l0 -31.86 22.28 0 0 4.15 -17.71 0 0 9.46 16.56 0 0 4.19 -16.56 0 0 14.06 -4.57 0zm27.51 0l0 -32.35 4.48 0 0 32.35 -4.48 0zm18.99 -3.25c1.59,0 2.87,-0.75 3.83,-2.27 0.95,-1.51 1.43,-3.55 1.43,-6.12 0,-2.55 -0.47,-4.57 -1.41,-6.08 -0.95,-1.51 -2.2,-2.26 -3.77,-2.26 -1.59,0 -2.87,0.75 -3.83,2.25 -0.95,1.5 -1.43,3.53 -1.43,6.09 0,2.57 0.47,4.61 1.43,6.12 0.95,1.52 2.2,2.27 3.75,2.27zm5.52 3.25c0.05,-0.92 0.11,-1.82 0.2,-2.71 0.08,-0.88 0.19,-1.76 0.33,-2.63 -0.72,1.94 -1.67,3.43 -2.88,4.46 -1.2,1.02 -2.59,1.54 -4.15,1.54 -2.64,0 -4.76,-1.14 -6.36,-3.41 -1.6,-2.28 -2.4,-5.31 -2.4,-9.1 0,-3.77 0.81,-6.81 2.42,-9.1 1.61,-2.28 3.72,-3.43 6.34,-3.43 1.48,0 2.8,0.41 3.95,1.24 1.15,0.82 2.07,2.01 2.75,3.56 -0.17,-0.75 -0.31,-1.5 -0.4,-2.26 -0.09,-0.77 -0.15,-1.54 -0.18,-2.33l4.48 0 0 24.17 -4.1 0zm10.92 0l0 -24.17 4.33 0c-0.02,0.91 -0.06,1.87 -0.13,2.89 -0.07,1.02 -0.16,2.15 -0.28,3.4 0.8,-2.26 1.73,-3.93 2.77,-5 1.04,-1.08 2.25,-1.62 3.63,-1.62 0.34,0 0.69,0.04 1.07,0.13 0.38,0.08 0.84,0.22 1.36,0.4l-1.02 5.03c-0.41,-0.2 -0.77,-0.35 -1.11,-0.45 -0.33,-0.09 -0.67,-0.14 -1,-0.14 -1.57,0 -2.81,0.78 -3.75,2.33 -0.92,1.55 -1.39,3.65 -1.39,6.31l0 10.89 -4.48 0zm17.56 -14.35l11.31 0c-0.2,-2.2 -0.79,-3.9 -1.76,-5.09 -0.97,-1.18 -2.26,-1.77 -3.87,-1.77 -1.62,0 -2.92,0.59 -3.91,1.79 -0.98,1.19 -1.57,2.88 -1.77,5.07zm14.48 9.96c-1.1,1.72 -2.36,2.99 -3.77,3.81 -1.41,0.83 -3.05,1.24 -4.91,1.24 -3.2,0 -5.71,-1.13 -7.54,-3.39 -1.83,-2.26 -2.74,-5.38 -2.74,-9.36 0,-3.92 0.9,-7.02 2.71,-9.31 1.8,-2.29 4.24,-3.43 7.31,-3.43 3.12,0 5.57,1.15 7.34,3.46 1.78,2.31 2.66,5.51 2.66,9.61l0 0.41 -15.5 0 0 0.52c0,2.27 0.55,4.12 1.65,5.55 1.09,1.44 2.48,2.16 4.15,2.16 1.11,0 2.11,-0.29 2.98,-0.85 0.87,-0.56 1.7,-1.46 2.49,-2.69l3.17 2.27zm13.88 1.06c1.65,0 2.95,-0.79 3.93,-2.37 0.98,-1.58 1.46,-3.72 1.46,-6.43 0,-2.68 -0.48,-4.81 -1.46,-6.4 -0.98,-1.6 -2.27,-2.39 -3.89,-2.39 -1.63,0 -2.93,0.78 -3.89,2.35 -0.96,1.58 -1.44,3.72 -1.44,6.44 0,2.7 0.48,4.83 1.44,6.42 0.96,1.59 2.25,2.38 3.85,2.38zm0 3.99c-3.05,0 -5.48,-1.15 -7.28,-3.44 -1.8,-2.3 -2.7,-5.4 -2.7,-9.31 0,-3.9 0.9,-7.01 2.7,-9.3 1.8,-2.3 4.23,-3.44 7.28,-3.44 3.06,0 5.5,1.15 7.32,3.45 1.82,2.3 2.72,5.4 2.72,9.29 0,3.9 -0.9,6.99 -2.72,9.29 -1.82,2.31 -4.26,3.46 -7.32,3.46zm28.51 -0.66l0 -15.05c0,-1.86 -0.29,-3.23 -0.87,-4.11 -0.58,-0.87 -1.49,-1.31 -2.74,-1.31 -1.65,0 -2.97,0.78 -3.97,2.35 -1.01,1.56 -1.51,3.67 -1.51,6.32l0 11.8 -4.48 0 0 -24.17 4.06 0c-0.03,1.08 -0.08,2.15 -0.17,3.2 -0.08,1.05 -0.19,2.08 -0.31,3.09 0.73,-2.17 1.76,-3.81 3.07,-4.94 1.31,-1.12 2.86,-1.68 4.66,-1.68 2.16,0 3.83,0.72 4.99,2.18 1.17,1.46 1.75,3.54 1.75,6.25l0 16.07 -4.48 0zm7.36 3.04l4.49 -12.95 5.21 0 -5.88 12.95 -3.82 0zm27.58 -34.9l4.56 0 0 17.81c0,3.5 0.58,6.13 1.72,7.88 1.15,1.76 2.86,2.63 5.15,2.63 2.3,0 4.02,-0.87 5.16,-2.61 1.14,-1.74 1.7,-4.37 1.7,-7.9l0 -17.81 4.57 0 0 17.85c0,4.79 -0.97,8.43 -2.91,10.93 -1.94,2.49 -4.79,3.74 -8.52,3.74 -3.75,0 -6.59,-1.25 -8.52,-3.74 -1.94,-2.48 -2.91,-6.13 -2.91,-10.93l0 -17.85zm31.16 31.86l0 -24.17 4.06 0c-0.03,1.08 -0.08,2.15 -0.17,3.2 -0.08,1.05 -0.19,2.08 -0.31,3.09 0.67,-2.15 1.63,-3.8 2.88,-4.93 1.25,-1.13 2.73,-1.69 4.44,-1.69 1.5,0 2.78,0.42 3.83,1.26 1.05,0.84 1.81,2.05 2.26,3.63 0.94,-1.68 1.95,-2.92 3.05,-3.71 1.1,-0.78 2.35,-1.18 3.77,-1.18 2.04,0 3.62,0.74 4.75,2.22 1.13,1.47 1.7,3.54 1.7,6.21l0 16.07 -4.48 0 0 -15.05c0,-1.87 -0.28,-3.24 -0.84,-4.1 -0.55,-0.86 -1.44,-1.28 -2.66,-1.28 -1.46,0 -2.65,0.78 -3.56,2.35 -0.92,1.56 -1.37,3.66 -1.37,6.28l0 11.8 -4.44 0 0 -15.05c0,-1.86 -0.28,-3.22 -0.84,-4.09 -0.56,-0.86 -1.46,-1.29 -2.69,-1.29 -1.47,0 -2.66,0.78 -3.55,2.33 -0.9,1.57 -1.35,3.66 -1.35,6.3l0 11.8 -4.48 0zm37.07 0l0 -32.35 4.44 0 0 7.51c0,1.14 -0.04,2.13 -0.13,2.98 -0.09,0.85 -0.22,1.61 -0.39,2.28 0.67,-1.55 1.58,-2.74 2.73,-3.56 1.15,-0.83 2.47,-1.24 3.95,-1.24 2.61,0 4.72,1.15 6.34,3.43 1.62,2.29 2.43,5.33 2.43,9.1 0,3.79 -0.81,6.82 -2.41,9.1 -1.61,2.27 -3.73,3.41 -6.36,3.41 -1.57,0 -2.96,-0.52 -4.17,-1.56 -1.22,-1.03 -2.18,-2.51 -2.89,-4.44 0.16,1 0.29,1.95 0.38,2.82 0.09,0.88 0.15,1.72 0.18,2.52l-4.1 0zm9.58 -3.25c1.57,0 2.83,-0.76 3.78,-2.28 0.96,-1.52 1.44,-3.56 1.44,-6.11 0,-2.56 -0.47,-4.59 -1.42,-6.09 -0.95,-1.5 -2.23,-2.25 -3.84,-2.25 -1.56,0 -2.82,0.75 -3.78,2.27 -0.96,1.51 -1.44,3.53 -1.44,6.07 0,2.57 0.48,4.61 1.44,6.12 0.96,1.52 2.23,2.27 3.82,2.27zm15.53 3.25l0 -24.17 4.33 0c-0.02,0.91 -0.06,1.87 -0.13,2.89 -0.07,1.02 -0.16,2.15 -0.28,3.4 0.8,-2.26 1.73,-3.93 2.77,-5 1.04,-1.08 2.25,-1.62 3.63,-1.62 0.34,0 0.69,0.04 1.07,0.13 0.38,0.08 0.84,0.22 1.36,0.4l-1.02 5.03c-0.41,-0.2 -0.77,-0.35 -1.11,-0.45 -0.33,-0.09 -0.67,-0.14 -1,-0.14 -1.57,0 -2.81,0.78 -3.75,2.33 -0.92,1.55 -1.39,3.65 -1.39,6.31l0 10.89 -4.48 0zm17.56 -14.35l11.31 0c-0.2,-2.2 -0.79,-3.9 -1.76,-5.09 -0.97,-1.18 -2.26,-1.77 -3.87,-1.77 -1.62,0 -2.92,0.59 -3.91,1.79 -0.98,1.19 -1.57,2.88 -1.77,5.07zm14.48 9.96c-1.1,1.72 -2.36,2.99 -3.77,3.81 -1.41,0.83 -3.05,1.24 -4.91,1.24 -3.2,0 -5.71,-1.13 -7.54,-3.39 -1.83,-2.26 -2.74,-5.38 -2.74,-9.36 0,-3.92 0.9,-7.02 2.71,-9.31 1.8,-2.29 4.24,-3.43 7.31,-3.43 3.12,0 5.57,1.15 7.34,3.46 1.78,2.31 2.66,5.51 2.66,9.61l0 0.41 -15.5 0 0 0.52c0,2.27 0.55,4.12 1.65,5.55 1.09,1.44 2.48,2.16 4.15,2.16 1.11,0 2.11,-0.29 2.98,-0.85 0.87,-0.56 1.7,-1.46 2.49,-2.69l3.17 2.27zm13.88 1.06c1.65,0 2.95,-0.79 3.93,-2.37 0.98,-1.58 1.46,-3.72 1.46,-6.43 0,-2.68 -0.48,-4.81 -1.46,-6.4 -0.98,-1.6 -2.27,-2.39 -3.89,-2.39 -1.63,0 -2.93,0.78 -3.89,2.35 -0.96,1.58 -1.44,3.72 -1.44,6.44 0,2.7 0.48,4.83 1.44,6.42 0.96,1.59 2.25,2.38 3.85,2.38zm0 3.99c-3.05,0 -5.48,-1.15 -7.28,-3.44 -1.8,-2.3 -2.7,-5.4 -2.7,-9.31 0,-3.9 0.9,-7.01 2.7,-9.3 1.8,-2.3 4.23,-3.44 7.28,-3.44 3.06,0 5.5,1.15 7.32,3.45 1.82,2.3 2.72,5.4 2.72,9.29 0,3.9 -0.9,6.99 -2.72,9.29 -1.82,2.31 -4.26,3.46 -7.32,3.46zm28.51 -0.66l0 -15.05c0,-1.86 -0.29,-3.23 -0.87,-4.11 -0.58,-0.87 -1.49,-1.31 -2.74,-1.31 -1.65,0 -2.97,0.78 -3.97,2.35 -1.01,1.56 -1.51,3.67 -1.51,6.32l0 11.8 -4.48 0 0 -24.17 4.06 0c-0.03,1.08 -0.08,2.15 -0.17,3.2 -0.08,1.05 -0.19,2.08 -0.31,3.09 0.73,-2.17 1.76,-3.81 3.07,-4.94 1.31,-1.12 2.86,-1.68 4.66,-1.68 2.16,0 3.83,0.72 4.99,2.18 1.17,1.46 1.75,3.54 1.75,6.25l0 16.07 -4.48 0zm7.36 3.04l4.49 -12.95 5.21 0 -5.88 12.95 -3.82 0zm32.23 -20.39l3.69 0c3.61,0 6.1,-0.4 7.48,-1.19 1.38,-0.8 2.06,-2.15 2.06,-4.06 0,-1.98 -0.63,-3.35 -1.89,-4.12 -1.26,-0.77 -3.81,-1.15 -7.65,-1.15l-3.69 0 0 10.52zm6.27 -14.51c3.87,0 6.79,0.78 8.75,2.35 1.96,1.57 2.94,3.9 2.94,6.99 0,2.72 -0.76,4.84 -2.29,6.36 -1.52,1.52 -3.82,2.44 -6.89,2.76l12.22 13.4 -5.92 0 -12.03 -13.4 -3.05 0 0 13.4 -4.57 0 0 -31.86 10.84 0zm32.28 31.86l0 -15.05c0,-1.86 -0.29,-3.23 -0.87,-4.11 -0.58,-0.87 -1.49,-1.31 -2.74,-1.31 -1.65,0 -2.97,0.78 -3.97,2.35 -1.01,1.56 -1.51,3.67 -1.51,6.32l0 11.8 -4.48 0 0 -32.35 4.48 0 0 8.15c0,0.65 -0.04,1.47 -0.12,2.43 -0.07,0.96 -0.2,2.06 -0.36,3.3 0.67,-1.95 1.63,-3.44 2.87,-4.48 1.25,-1.03 2.73,-1.55 4.44,-1.55 2.16,0 3.83,0.72 4.99,2.18 1.17,1.46 1.75,3.54 1.75,6.25l0 16.07 -4.48 0zm28.73 -24.17l-11.96 31.69 -4.89 0 4.01 -10.12 -7.59 -21.57 5.05 0 5.1 16.08 5.56 -16.08 4.72 0zm12.39 20.92c1.6,0 2.88,-0.75 3.84,-2.27 0.94,-1.51 1.42,-3.55 1.42,-6.12 0,-2.54 -0.48,-4.56 -1.42,-6.07 -0.96,-1.52 -2.22,-2.27 -3.8,-2.27 -1.6,0 -2.87,0.75 -3.82,2.25 -0.96,1.5 -1.44,3.53 -1.44,6.09 0,2.55 0.48,4.59 1.44,6.11 0.95,1.52 2.21,2.28 3.78,2.28zm5.48 3.25c0.03,-0.79 0.09,-1.62 0.19,-2.51 0.1,-0.88 0.22,-1.83 0.37,-2.83 -0.7,1.93 -1.65,3.41 -2.87,4.44 -1.22,1.04 -2.62,1.56 -4.2,1.56 -2.64,0 -4.75,-1.14 -6.36,-3.41 -1.59,-2.28 -2.4,-5.31 -2.4,-9.1 0,-3.77 0.81,-6.81 2.42,-9.1 1.62,-2.28 3.73,-3.43 6.34,-3.43 1.49,0 2.8,0.41 3.96,1.24 1.15,0.82 2.06,2.01 2.75,3.56 -0.19,-0.67 -0.32,-1.43 -0.41,-2.28 -0.09,-0.85 -0.13,-1.84 -0.13,-2.98l0 -7.51 4.44 0 0 32.35 -4.1 0zm18.92 -3.33c1.65,0 2.95,-0.79 3.93,-2.37 0.98,-1.58 1.46,-3.72 1.46,-6.43 0,-2.68 -0.48,-4.81 -1.46,-6.4 -0.98,-1.6 -2.27,-2.39 -3.89,-2.39 -1.63,0 -2.93,0.78 -3.89,2.35 -0.96,1.58 -1.44,3.72 -1.44,6.44 0,2.7 0.48,4.83 1.44,6.42 0.96,1.59 2.25,2.38 3.85,2.38zm0 3.99c-3.05,0 -5.48,-1.15 -7.28,-3.44 -1.8,-2.3 -2.7,-5.4 -2.7,-9.31 0,-3.9 0.9,-7.01 2.7,-9.3 1.8,-2.3 4.23,-3.44 7.28,-3.44 3.06,0 5.5,1.15 7.32,3.45 1.82,2.3 2.72,5.4 2.72,9.29 0,3.9 -0.9,6.99 -2.72,9.29 -1.82,2.31 -4.26,3.46 -7.32,3.46zm28.51 -0.66l0 -15.05c0,-1.86 -0.29,-3.23 -0.87,-4.11 -0.58,-0.87 -1.49,-1.31 -2.74,-1.31 -1.65,0 -2.97,0.78 -3.97,2.35 -1.01,1.56 -1.51,3.67 -1.51,6.32l0 11.8 -4.48 0 0 -24.17 4.06 0c-0.03,1.08 -0.08,2.15 -0.17,3.2 -0.08,1.05 -0.19,2.08 -0.31,3.09 0.73,-2.17 1.76,-3.81 3.07,-4.94 1.31,-1.12 2.86,-1.68 4.66,-1.68 2.16,0 3.83,0.72 4.99,2.18 1.17,1.46 1.75,3.54 1.75,6.25l0 16.07 -4.48 0zm-496.26 16.11l-11.96 31.69 -4.89 0 4.01 -10.12 -7.59 -21.57 5.05 0 5.1 16.08 5.56 -16.08 4.72 0zm21.02 12.41l10.9 0 -5.46 -15.74 -5.44 15.74zm14.94 11.76l-2.85 -8.22 -13.27 0 -2.71 8.22 -4.7 0 11.68 -31.86 4.9 0 11.7 31.86 -4.75 0zm9.28 0l0 -24.17 4.33 0c-0.02,0.91 -0.06,1.87 -0.13,2.89 -0.07,1.02 -0.16,2.15 -0.28,3.4 0.8,-2.26 1.73,-3.93 2.77,-5 1.04,-1.08 2.25,-1.62 3.63,-1.62 0.34,0 0.69,0.04 1.07,0.13 0.38,0.08 0.84,0.22 1.36,0.4l-1.02 5.03c-0.41,-0.2 -0.77,-0.35 -1.11,-0.45 -0.33,-0.09 -0.67,-0.14 -1,-0.14 -1.57,0 -2.81,0.78 -3.75,2.33 -0.92,1.55 -1.39,3.65 -1.39,6.31l0 10.89 -4.48 0z"/>
  <path class="fil0" d="M198.16 494.38c-0.73,0.54 -1.66,0.95 -2.79,1.23 -1.13,0.28 -2.37,0.42 -3.74,0.42 -3.72,0 -6.66,-1.15 -8.82,-3.43 -2.16,-2.29 -3.23,-5.41 -3.23,-9.36 0,-3.89 1.06,-6.99 3.19,-9.31 2.13,-2.31 4.97,-3.47 8.52,-3.47 1.31,0 2.55,0.15 3.73,0.46 1.17,0.31 2.22,0.75 3.14,1.34l0 4.73c-0.88,-0.85 -1.88,-1.5 -2.97,-1.93 -1.1,-0.44 -2.27,-0.65 -3.52,-0.65 -2.31,0 -4.13,0.78 -5.46,2.34 -1.32,1.55 -1.99,3.71 -1.99,6.45 0,2.79 0.7,4.97 2.08,6.55 1.39,1.59 3.29,2.37 5.69,2.37 1.16,0 2.23,-0.22 3.22,-0.65 0.99,-0.44 1.97,-1.12 2.95,-2.06l0 4.97zm12.62 -2.3c1.59,0 2.87,-0.75 3.83,-2.27 0.95,-1.51 1.43,-3.55 1.43,-6.12 0,-2.55 -0.47,-4.57 -1.41,-6.08 -0.95,-1.51 -2.2,-2.26 -3.77,-2.26 -1.59,0 -2.87,0.75 -3.83,2.25 -0.95,1.5 -1.43,3.53 -1.43,6.09 0,2.57 0.47,4.61 1.43,6.12 0.95,1.52 2.2,2.27 3.75,2.27zm5.52 3.25c0.05,-0.92 0.11,-1.82 0.2,-2.71 0.08,-0.88 0.19,-1.76 0.33,-2.63 -0.72,1.94 -1.67,3.43 -2.88,4.46 -1.2,1.02 -2.59,1.54 -4.15,1.54 -2.64,0 -4.76,-1.14 -6.36,-3.41 -1.6,-2.28 -2.4,-5.31 -2.4,-9.1 0,-3.77 0.81,-6.81 2.42,-9.1 1.61,-2.28 3.72,-3.43 6.34,-3.43 1.48,0 2.8,0.41 3.95,1.24 1.15,0.82 2.07,2.01 2.75,3.56 -0.17,-0.75 -0.31,-1.5 -0.4,-2.26 -0.09,-0.77 -0.15,-1.54 -0.18,-2.33l4.48 0 0 24.17 -4.1 0zm24.53 0l0 -15.05c0,-1.86 -0.29,-3.23 -0.87,-4.11 -0.58,-0.87 -1.49,-1.31 -2.74,-1.31 -1.65,0 -2.97,0.78 -3.97,2.35 -1.01,1.56 -1.51,3.67 -1.51,6.32l0 11.8 -4.48 0 0 -24.17 4.06 0c-0.03,1.08 -0.08,2.15 -0.17,3.2 -0.08,1.05 -0.19,2.08 -0.31,3.09 0.73,-2.17 1.76,-3.81 3.07,-4.94 1.31,-1.12 2.86,-1.68 4.66,-1.68 2.16,0 3.83,0.72 4.99,2.18 1.17,1.46 1.75,3.54 1.75,6.25l0 16.07 -4.48 0zm16.81 -29.43c0,0.87 -0.32,1.58 -0.96,2.13 -0.64,0.55 -1.47,0.83 -2.5,0.83 -1.01,0 -1.83,-0.28 -2.46,-0.82 -0.63,-0.54 -0.94,-1.25 -0.94,-2.14 0,-0.87 0.31,-1.59 0.93,-2.12 0.62,-0.54 1.45,-0.8 2.47,-0.8 1.04,0 1.88,0.26 2.51,0.8 0.64,0.53 0.95,1.25 0.95,2.12zm-5.67 29.43l0 -23.39 4.48 0 0 23.39 -4.48 0zm24.83 0l0 -15.05c0,-1.86 -0.29,-3.23 -0.87,-4.11 -0.58,-0.87 -1.49,-1.31 -2.74,-1.31 -1.65,0 -2.97,0.78 -3.97,2.35 -1.01,1.56 -1.51,3.67 -1.51,6.32l0 11.8 -4.48 0 0 -24.17 4.06 0c-0.03,1.08 -0.08,2.15 -0.17,3.2 -0.08,1.05 -0.19,2.08 -0.31,3.09 0.73,-2.17 1.76,-3.81 3.07,-4.94 1.31,-1.12 2.86,-1.68 4.66,-1.68 2.16,0 3.83,0.72 4.99,2.18 1.17,1.46 1.75,3.54 1.75,6.25l0 16.07 -4.48 0zm13.73 -14.35l11.31 0c-0.2,-2.2 -0.79,-3.9 -1.76,-5.09 -0.97,-1.18 -2.26,-1.77 -3.87,-1.77 -1.62,0 -2.92,0.59 -3.91,1.79 -0.98,1.19 -1.57,2.88 -1.77,5.07zm14.48 9.96c-1.1,1.72 -2.36,2.99 -3.77,3.81 -1.41,0.83 -3.05,1.24 -4.91,1.24 -3.2,0 -5.71,-1.13 -7.54,-3.39 -1.83,-2.26 -2.74,-5.38 -2.74,-9.36 0,-3.92 0.9,-7.02 2.71,-9.31 1.8,-2.29 4.24,-3.43 7.31,-3.43 3.12,0 5.57,1.15 7.34,3.46 1.78,2.31 2.66,5.51 2.66,9.61l0 0.41 -15.5 0 0 0.52c0,2.27 0.55,4.12 1.65,5.55 1.09,1.44 2.48,2.16 4.15,2.16 1.11,0 2.11,-0.29 2.98,-0.85 0.87,-0.56 1.7,-1.46 2.49,-2.69l3.17 2.27z"/>
  <g style="clip-path:url(#id2)">
   <image x="27.15" y="418.3" width="1013.34" height="1022.05" xlink:href="perfil-nivel-captura-de-pantalla-pokemon-go_Images\perfil-nivel-captura-de-pantalla-pokemon-go_ImgID3.png"/>
  </g>
  <g style="clip-path:url(#id3)">
   <image id="Capa_x0020_0" x="543.44" y="118.5" width="436.9" height="1315.86" xlink:href="perfil-nivel-captura-de-pantalla-pokemon-go_Images\perfil-nivel-captura-de-pantalla-pokemon-go_ImgID4.png"/>
  </g>
  <g style="clip-path:url(#id4)">
   <image x="425.47" y="852.24" width="247.65" height="592.22" xlink:href="perfil-nivel-captura-de-pantalla-pokemon-go_Images\perfil-nivel-captura-de-pantalla-pokemon-go_ImgID5.png"/>
  </g>
  <g style="clip-path:url(#id5)">
   <image id="Capa_x0020_0_0" x="66.16" y="1114.17" width="238.52" height="317.27" xlink:href="perfil-nivel-captura-de-pantalla-pokemon-go_Images\perfil-nivel-captura-de-pantalla-pokemon-go_ImgID6.png"/>
  </g>
  <g style="clip-path:url(#id6)">
   <image id="Capa_x0020_0_1" x="172" y="1119.4" width="400.38" height="322.85" xlink:href="perfil-nivel-captura-de-pantalla-pokemon-go_Images\perfil-nivel-captura-de-pantalla-pokemon-go_ImgID7.png"/>
  </g>
  <g style="clip-path:url(#id7)">
   <image x="781.46" y="202.14" width="396.57" height="1220.49" xlink:href="perfil-nivel-captura-de-pantalla-pokemon-go_Images\perfil-nivel-captura-de-pantalla-pokemon-go_ImgID8.png"/>
  </g>
  <g style="clip-path:url(#id8)">
   <image x="711.64" y="679.64" width="500.72" height="735.62" xlink:href="perfil-nivel-captura-de-pantalla-pokemon-go_Images\perfil-nivel-captura-de-pantalla-pokemon-go_ImgID9.png"/>
  </g>
 </g>
</svg>
