<svg xmlns="http://www.w3.org/2000/svg" viewBox="0 0 200 200">
  <title>siemens</title>
  <rect width="200" height="200" style="fill: none"/>
  <g>
    <path d="M192.2,82.6V88a22.3,22.3,0,0,0-7.6-1.6,6.2,6.2,0,0,0-3.2.7,2,2,0,0,0-1.2,1.8c0,0.9.9,1.7,2.7,2.5l5.2,2.5c4.2,2,6.2,4.6,6.2,7.9a7.7,7.7,0,0,1-3.3,6.6c-2.2,1.7-5.2,2.5-8.8,2.5l-4.6-.2a32.7,32.7,0,0,1-4.7-.9V104a27.5,27.5,0,0,0,8.7,1.6c3.1,0,4.7-.9,4.7-2.7s-0.6-1.6-1.9-2.2l-5.8-2.5a11.9,11.9,0,0,1-4.7-3.5,8.1,8.1,0,0,1-1.5-4.8,7.3,7.3,0,0,1,3.2-6.1,14.2,14.2,0,0,1,8.5-2.3l3.9,0.3,4.3,0.7h0Z" transform="translate(-0.3 -0.5)" style="fill: #91959e"/>
    <path d="M29.8,82.6V88a22.3,22.3,0,0,0-7.6-1.6,6.2,6.2,0,0,0-3.2.7,2,2,0,0,0-1.2,1.8c0,0.9.9,1.7,2.7,2.5l5.2,2.5c4.2,2,6.2,4.6,6.2,7.9a7.8,7.8,0,0,1-3.3,6.6c-2.2,1.7-5.2,2.5-8.9,2.5l-4.6-.2a33.6,33.6,0,0,1-4.7-.9V104a27.8,27.8,0,0,0,8.7,1.6c3.1,0,4.7-.9,4.7-2.7s-0.6-1.6-1.9-2.2l-5.8-2.5a11.9,11.9,0,0,1-4.7-3.5A7.8,7.8,0,0,1,10,90a7.3,7.3,0,0,1,3.2-6.1,14.2,14.2,0,0,1,8.5-2.3l3.9,0.3Z" transform="translate(-0.3 -0.5)" style="fill: #91959e"/>
    <polygon points="35.5 81.6 43.9 81.6 43.9 109.9 35.5 109.9 35.5 81.6" style="fill: #91959e"/>
    <polygon points="71 81.6 71 86.8 58.5 86.8 58.5 93.1 69.3 93.1 69.3 97.8 58.5 97.8 58.5 104.4 71.2 104.4 71.2 109.9 50.4 109.9 50.4 81.6 71 81.6" style="fill: #91959e"/>
    <polygon points="110.2 81.6 110.2 109.9 102.4 109.9 102.4 91.2 94.2 110.1 89.4 110.1 81.5 91.2 81.5 109.9 75.9 109.9 75.9 81.6 86.1 81.6 93.1 98.9 100.5 81.6 110.2 81.6" style="fill: #91959e"/>
    <polygon points="137.3 81.6 137.3 86.8 124.9 86.8 124.9 93.1 135.7 93.1 135.7 97.8 124.9 97.8 124.9 104.4 137.6 104.4 137.6 109.9 116.7 109.9 116.7 81.6 137.3 81.6" style="fill: #91959e"/>
    <polygon points="166.8 81.6 166.8 109.9 157.9 109.9 147.9 91.7 147.9 109.9 142.2 109.9 142.2 81.6 151.4 81.6 161.1 99.4 161.1 81.6 166.8 81.6" style="fill: #91959e"/>
  </g>
</svg>
