<?xml version="1.0" encoding="UTF-8"?>
<!DOCTYPE svg PUBLIC "-//W3C//DTD SVG 1.1//EN" "http://www.w3.org/Graphics/SVG/1.1/DTD/svg11.dtd">
<!-- Creator: CorelDRAW 2017 -->
<svg xmlns="http://www.w3.org/2000/svg" xml:space="preserve" width="20.5738mm" height="8.6358mm" version="1.1" style="shape-rendering:geometricPrecision; text-rendering:geometricPrecision; image-rendering:optimizeQuality; fill-rule:evenodd; clip-rule:evenodd"
viewBox="0 0 2057.38 863.58"
 xmlns:xlink="http://www.w3.org/1999/xlink">
 <defs>
  <style type="text/css">
   <![CDATA[
    .fil1 {fill:#8D0F1B}
    .fil2 {fill:#FEFEFE;fill-rule:nonzero}
    .fil39 {fill:#FFF212;fill-rule:nonzero}
    .fil0 {fill:#FFF212;fill-rule:nonzero}
    .fil30 {fill:url(#id0)}
    .fil15 {fill:url(#id1)}
    .fil35 {fill:url(#id2)}
    .fil37 {fill:url(#id3)}
    .fil22 {fill:url(#id4)}
    .fil7 {fill:url(#id5)}
    .fil34 {fill:url(#id6)}
    .fil41 {fill:url(#id7)}
    .fil32 {fill:url(#id8)}
    .fil17 {fill:url(#id9)}
    .fil23 {fill:url(#id10)}
    .fil8 {fill:url(#id11)}
    .fil31 {fill:url(#id12)}
    .fil16 {fill:url(#id13)}
    .fil36 {fill:url(#id14)}
    .fil28 {fill:url(#id15)}
    .fil13 {fill:url(#id16)}
    .fil24 {fill:url(#id17)}
    .fil9 {fill:url(#id18)}
    .fil21 {fill:url(#id19)}
    .fil6 {fill:url(#id20)}
    .fil40 {fill:url(#id21)}
    .fil33 {fill:url(#id22)}
    .fil38 {fill:url(#id23)}
    .fil27 {fill:url(#id24)}
    .fil12 {fill:url(#id25)}
    .fil25 {fill:url(#id26)}
    .fil10 {fill:url(#id27)}
    .fil19 {fill:url(#id28)}
    .fil4 {fill:url(#id29)}
    .fil20 {fill:url(#id30)}
    .fil5 {fill:url(#id31)}
    .fil18 {fill:url(#id32)}
    .fil3 {fill:url(#id33)}
    .fil29 {fill:url(#id34)}
    .fil14 {fill:url(#id35)}
    .fil26 {fill:url(#id36)}
    .fil11 {fill:url(#id37)}
   ]]>
  </style>
  <radialGradient id="id0" gradientUnits="userSpaceOnUse" gradientTransform="matrix(0.974297 -0 -0 1.00008 44 0)" cx="1705.43" cy="761.55" r="325.36" fx="1705.43" fy="761.55">
   <stop offset="0" style="stop-opacity:1; stop-color:#FEFEFE"/>
   <stop offset="1" style="stop-opacity:1; stop-color:#FFF212"/>
  </radialGradient>
  <radialGradient id="id1" gradientUnits="userSpaceOnUse" gradientTransform="matrix(0.974297 -0 -0 0.999991 44 0)" xlink:href="#id0" cx="1705.43" cy="92.44" r="325.36" fx="1705.43" fy="92.44">
  </radialGradient>
  <radialGradient id="id2" gradientUnits="userSpaceOnUse" gradientTransform="matrix(2.49415E-14 -0.974416 1.00008 2.64868E-14 -281 449)" xlink:href="#id0" cx="85.16" cy="366.5" r="54.81" fx="85.16" fy="366.5">
  </radialGradient>
  <radialGradient id="id3" gradientUnits="userSpaceOnUse" gradientTransform="matrix(2.84033E-14 -0.974416 0.999991 2.62623E-14 -149 317)" xlink:href="#id0" cx="85.16" cy="233.85" r="54.81" fx="85.16" fy="233.85">
  </radialGradient>
  <radialGradient id="id4" gradientUnits="userSpaceOnUse" gradientTransform="matrix(0.974389 -0 -0 1.00008 16 0)" xlink:href="#id0" cx="622.88" cy="761.55" r="325.36" fx="622.88" fy="761.55">
  </radialGradient>
  <radialGradient id="id5" gradientUnits="userSpaceOnUse" gradientTransform="matrix(0.974389 -0 -0 0.999991 16 0)" xlink:href="#id0" cx="622.88" cy="92.44" r="325.36" fx="622.88" fy="92.44">
  </radialGradient>
  <radialGradient id="id6" gradientUnits="userSpaceOnUse" gradientTransform="matrix(2.49415E-14 -0.974416 1.00008 2.64868E-14 1489 2431)" xlink:href="#id0" cx="1985.38" cy="496.16" r="54.81" fx="1985.38" fy="496.16">
  </radialGradient>
  <radialGradient id="id7" gradientUnits="userSpaceOnUse" gradientTransform="matrix(2.49415E-14 -0.974416 1.00008 2.64868E-14 1364 2556)" xlink:href="#id0" cx="1985.38" cy="621.13" r="54.81" fx="1985.38" fy="621.13">
  </radialGradient>
  <radialGradient id="id8" gradientUnits="userSpaceOnUse" gradientTransform="matrix(0.974297 -0 -0 1.00008 51 0)" xlink:href="#id0" cx="1979.27" cy="761.55" r="325.36" fx="1979.27" fy="761.55">
  </radialGradient>
  <radialGradient id="id9" gradientUnits="userSpaceOnUse" gradientTransform="matrix(0.974297 -0 -0 0.999991 51 0)" xlink:href="#id0" cx="1979.27" cy="92.44" r="325.36" fx="1979.27" fy="92.44">
  </radialGradient>
  <radialGradient id="id10" gradientUnits="userSpaceOnUse" gradientTransform="matrix(0.974389 -0 -0 1.00008 19 0)" xlink:href="#id0" cx="755.52" cy="761.55" r="325.36" fx="755.52" fy="761.55">
  </radialGradient>
  <radialGradient id="id11" gradientUnits="userSpaceOnUse" gradientTransform="matrix(0.974389 -0 -0 0.999991 19 0)" xlink:href="#id0" cx="755.52" cy="92.44" r="325.36" fx="755.52" fy="92.44">
  </radialGradient>
  <radialGradient id="id12" gradientUnits="userSpaceOnUse" gradientTransform="matrix(0.974297 -0 -0 1.00008 47 0)" xlink:href="#id0" cx="1838.07" cy="761.55" r="325.36" fx="1838.07" fy="761.55">
  </radialGradient>
  <radialGradient id="id13" gradientUnits="userSpaceOnUse" gradientTransform="matrix(0.974297 -0 -0 0.999991 47 0)" xlink:href="#id0" cx="1838.07" cy="92.44" r="325.36" fx="1838.07" fy="92.44">
  </radialGradient>
  <radialGradient id="id14" gradientUnits="userSpaceOnUse" gradientTransform="matrix(2.49415E-14 -0.974416 1.00008 2.64868E-14 1622 2298)" xlink:href="#id0" cx="1985.38" cy="363.52" r="54.81" fx="1985.38" fy="363.52">
  </radialGradient>
  <radialGradient id="id15" gradientUnits="userSpaceOnUse" gradientTransform="matrix(0.974389 -0 -0 1.00008 37 0)" xlink:href="#id0" cx="1440.14" cy="761.55" r="325.36" fx="1440.14" fy="761.55">
  </radialGradient>
  <radialGradient id="id16" gradientUnits="userSpaceOnUse" gradientTransform="matrix(0.974389 -0 -0 0.999991 37 0)" xlink:href="#id0" cx="1440.14" cy="92.44" r="325.36" fx="1440.14" fy="92.44">
  </radialGradient>
  <radialGradient id="id17" gradientUnits="userSpaceOnUse" gradientTransform="matrix(0.974297 -0 -0 1.00008 23 0)" xlink:href="#id0" cx="896.73" cy="761.55" r="325.36" fx="896.73" fy="761.55">
  </radialGradient>
  <radialGradient id="id18" gradientUnits="userSpaceOnUse" gradientTransform="matrix(0.974297 -0 -0 0.999991 23 0)" xlink:href="#id0" cx="896.73" cy="92.44" r="325.36" fx="896.73" fy="92.44">
  </radialGradient>
  <radialGradient id="id19" gradientUnits="userSpaceOnUse" gradientTransform="matrix(0.974297 -0 -0 1.00008 13 0)" xlink:href="#id0" cx="490.24" cy="761.55" r="325.36" fx="490.24" fy="761.55">
  </radialGradient>
  <radialGradient id="id20" gradientUnits="userSpaceOnUse" gradientTransform="matrix(0.974297 -0 -0 0.999991 13 0)" xlink:href="#id0" cx="490.24" cy="92.44" r="325.36" fx="490.24" fy="92.44">
  </radialGradient>
  <radialGradient id="id21" gradientUnits="userSpaceOnUse" gradientTransform="matrix(2.49415E-14 -0.974416 0.999991 2.69284E-14 -539 707)" xlink:href="#id0" cx="85.16" cy="624.11" r="54.81" fx="85.16" fy="624.11">
  </radialGradient>
  <radialGradient id="id22" gradientUnits="userSpaceOnUse" gradientTransform="matrix(2.49415E-14 -0.974416 0.999991 2.64843E-14 -414 582)" xlink:href="#id0" cx="85.16" cy="499.14" r="54.81" fx="85.16" fy="499.14">
  </radialGradient>
  <radialGradient id="id23" gradientUnits="userSpaceOnUse" gradientTransform="matrix(2.49415E-14 -0.974416 1.00008 2.64868E-14 1754 2165)" xlink:href="#id0" cx="1985.38" cy="230.88" r="54.81" fx="1985.38" fy="230.88">
  </radialGradient>
  <radialGradient id="id24" gradientUnits="userSpaceOnUse" gradientTransform="matrix(0.974297 -0 -0 1.00008 33 0)" xlink:href="#id0" cx="1298.94" cy="761.55" r="325.36" fx="1298.94" fy="761.55">
  </radialGradient>
  <radialGradient id="id25" gradientUnits="userSpaceOnUse" gradientTransform="matrix(0.974297 -0 -0 0.999991 33 0)" xlink:href="#id0" cx="1298.94" cy="92.44" r="325.36" fx="1298.94" fy="92.44">
  </radialGradient>
  <radialGradient id="id26" gradientUnits="userSpaceOnUse" gradientTransform="matrix(0.974389 -0 -0 1.00008 26 0)" xlink:href="#id0" cx="1029.37" cy="761.55" r="325.36" fx="1029.37" fy="761.55">
  </radialGradient>
  <radialGradient id="id27" gradientUnits="userSpaceOnUse" gradientTransform="matrix(0.974389 -0 -0 0.999991 26 0)" xlink:href="#id0" cx="1029.37" cy="92.44" r="325.36" fx="1029.37" fy="92.44">
  </radialGradient>
  <radialGradient id="id28" gradientUnits="userSpaceOnUse" gradientTransform="matrix(0.974389 -0 -0 1.00008 6 0)" xlink:href="#id0" cx="216.39" cy="761.55" r="325.36" fx="216.39" fy="761.55">
  </radialGradient>
  <radialGradient id="id29" gradientUnits="userSpaceOnUse" gradientTransform="matrix(0.974389 -0 -0 0.999991 6 0)" xlink:href="#id0" cx="216.39" cy="92.44" r="325.36" fx="216.39" fy="92.44">
  </radialGradient>
  <radialGradient id="id30" gradientUnits="userSpaceOnUse" gradientTransform="matrix(0.974389 -0 -0 1.00008 9 0)" xlink:href="#id0" cx="357.59" cy="761.55" r="325.36" fx="357.59" fy="761.55">
  </radialGradient>
  <radialGradient id="id31" gradientUnits="userSpaceOnUse" gradientTransform="matrix(0.974389 -0 -0 0.999991 9 0)" xlink:href="#id0" cx="357.59" cy="92.44" r="325.36" fx="357.59" fy="92.44">
  </radialGradient>
  <radialGradient id="id32" gradientUnits="userSpaceOnUse" gradientTransform="matrix(0.974297 -0 -0 1.00008 2 0)" xlink:href="#id0" cx="83.75" cy="761.55" r="325.36" fx="83.75" fy="761.55">
  </radialGradient>
  <radialGradient id="id33" gradientUnits="userSpaceOnUse" gradientTransform="matrix(0.974297 -0 -0 0.999991 2 0)" xlink:href="#id0" cx="83.75" cy="92.44" r="325.36" fx="83.75" fy="92.44">
  </radialGradient>
  <radialGradient id="id34" gradientUnits="userSpaceOnUse" gradientTransform="matrix(0.974389 -0 -0 1.00008 40 0)" xlink:href="#id0" cx="1572.78" cy="761.55" r="325.36" fx="1572.78" fy="761.55">
  </radialGradient>
  <radialGradient id="id35" gradientUnits="userSpaceOnUse" gradientTransform="matrix(0.974389 -0 -0 0.999991 40 0)" xlink:href="#id0" cx="1572.78" cy="92.44" r="325.36" fx="1572.78" fy="92.44">
  </radialGradient>
  <radialGradient id="id36" gradientUnits="userSpaceOnUse" gradientTransform="matrix(0.974297 -0 -0 1.00008 30 0)" xlink:href="#id0" cx="1166.29" cy="761.55" r="325.36" fx="1166.29" fy="761.55">
  </radialGradient>
  <radialGradient id="id37" gradientUnits="userSpaceOnUse" gradientTransform="matrix(0.974297 -0 -0 0.999991 30 0)" xlink:href="#id0" cx="1166.29" cy="92.44" r="325.36" fx="1166.29" fy="92.44">
  </radialGradient>
 </defs>
 <g id="Capa_x0020_1">
  <metadata id="CorelCorpID_0Corel-Layer"/>
  <g>
   <path class="fil0" d="M1994.63 50.02l-1931.88 0 0 -98.2 1931.88 0 0 0 0 98.2zm113.4 15.1l-98.4 0 0 0 -0.02 -0.82 -0.06 -0.73 -0.09 -0.73 -0.13 -0.73 -0.17 -0.71 -0.2 -0.71 -0.22 -0.65 -0.26 -0.64 -0.33 -0.73 -0.32 -0.63 -0.38 -0.65 -0.4 -0.63 -0.42 -0.58 -0.48 -0.62 -0.47 -0.54 -0.54 -0.56 -0.55 -0.53 -0.54 -0.47 -0.62 -0.48 -0.58 -0.42 -0.62 -0.39 -0.64 -0.38 -0.63 -0.32 -0.72 -0.33 -0.63 -0.25 -0.63 -0.21 -0.71 -0.21 -0.69 -0.16 -0.72 -0.13 -0.71 -0.09 -0.71 -0.05 -0.81 -0.02 0 -98.2 5.77 0.14 5.79 0.45 5.69 0.73 5.6 1.01 5.51 1.28 5.37 1.53 5.33 1.81 5.19 2.07 4.96 2.25 4.91 2.52 4.72 2.72 4.6 2.95 4.46 3.18 4.24 3.34 4.12 3.57 3.91 3.73 3.72 3.9 3.57 4.12 3.34 4.24 3.18 4.46 2.94 4.59 2.72 4.71 2.52 4.91 2.25 4.95 2.06 5.18 1.8 5.31 1.54 5.37 1.27 5.49 1.01 5.59 0.73 5.67 0.44 5.77 0.14 5.76 0 0zm-98.4 733.33l0 -733.33 98.4 0 0 733.33 0 0 -98.4 0zm-15 113.3l0 -98.2 0 0 0.81 -0.02 0.71 -0.05 0.71 -0.09 0.72 -0.13 0.69 -0.16 0.71 -0.21 0.63 -0.21 0.63 -0.25 0.72 -0.33 0.63 -0.32 0.64 -0.38 0.62 -0.39 0.58 -0.42 0.62 -0.48 0.54 -0.47 0.55 -0.53 0.54 -0.56 0.47 -0.54 0.48 -0.62 0.42 -0.58 0.4 -0.63 0.38 -0.65 0.32 -0.63 0.33 -0.73 0.26 -0.64 0.22 -0.65 0.2 -0.71 0.17 -0.71 0.13 -0.73 0.09 -0.73 0.06 -0.73 0.02 -0.82 98.4 0 -0.14 5.76 -0.44 5.77 -0.73 5.67 -1.01 5.59 -1.27 5.49 -1.54 5.37 -1.8 5.31 -2.06 5.18 -2.25 4.95 -2.52 4.91 -2.72 4.71 -2.94 4.59 -3.18 4.46 -3.34 4.24 -3.57 4.12 -3.72 3.9 -3.91 3.73 -4.12 3.57 -4.24 3.34 -4.46 3.18 -4.6 2.95 -4.72 2.72 -4.91 2.52 -4.96 2.25 -5.19 2.07 -5.33 1.81 -5.37 1.53 -5.51 1.28 -5.6 1.01 -5.69 0.73 -5.79 0.45 -5.77 0.14 0 0zm-1931.88 -98.2l1931.88 0 0 98.2 -1931.88 0 0 0 0 -98.2zm-113.4 -15.1l98.4 0 0 0 0.02 0.82 0.06 0.73 0.09 0.73 0.13 0.73 0.17 0.71 0.2 0.71 0.22 0.65 0.26 0.64 0.33 0.73 0.32 0.63 0.38 0.65 0.4 0.63 0.42 0.58 0.48 0.62 0.47 0.54 0.54 0.56 0.55 0.53 0.54 0.47 0.62 0.48 0.58 0.42 0.62 0.39 0.64 0.38 0.63 0.32 0.72 0.33 0.63 0.25 0.63 0.21 0.71 0.21 0.69 0.16 0.72 0.13 0.71 0.09 0.71 0.05 0.81 0.02 0 98.2 -5.77 -0.14 -5.79 -0.45 -5.69 -0.73 -5.6 -1.01 -5.51 -1.28 -5.37 -1.53 -5.33 -1.81 -5.19 -2.07 -4.96 -2.25 -4.91 -2.52 -4.72 -2.72 -4.6 -2.95 -4.46 -3.18 -4.24 -3.34 -4.12 -3.57 -3.91 -3.73 -3.72 -3.9 -3.57 -4.12 -3.34 -4.24 -3.18 -4.46 -2.94 -4.59 -2.72 -4.71 -2.52 -4.91 -2.25 -4.95 -2.06 -5.18 -1.8 -5.31 -1.54 -5.37 -1.27 -5.49 -1.01 -5.59 -0.73 -5.67 -0.44 -5.77 -0.14 -5.76 0 0zm98.4 -733.33l0 733.33 -98.4 0 0 -733.33 0 0 98.4 0zm15 -113.3l0 98.2 0 0 -0.81 0.02 -0.71 0.05 -0.71 0.09 -0.72 0.13 -0.69 0.16 -0.71 0.21 -0.63 0.21 -0.63 0.25 -0.72 0.33 -0.63 0.32 -0.64 0.38 -0.62 0.39 -0.58 0.42 -0.62 0.48 -0.54 0.47 -0.55 0.53 -0.54 0.56 -0.47 0.54 -0.48 0.62 -0.42 0.58 -0.4 0.63 -0.38 0.65 -0.32 0.63 -0.33 0.73 -0.26 0.64 -0.22 0.65 -0.2 0.71 -0.17 0.71 -0.13 0.73 -0.09 0.73 -0.06 0.73 -0.02 0.82 -98.4 0 0.14 -5.76 0.44 -5.77 0.73 -5.67 1.01 -5.59 1.27 -5.49 1.54 -5.37 1.8 -5.31 2.06 -5.18 2.25 -4.95 2.52 -4.91 2.72 -4.71 2.94 -4.59 3.18 -4.46 3.34 -4.24 3.57 -4.12 3.72 -3.9 3.91 -3.73 4.12 -3.57 4.24 -3.34 4.46 -3.18 4.6 -2.95 4.72 -2.72 4.91 -2.52 4.96 -2.25 5.19 -2.07 5.33 -1.81 5.37 -1.53 5.51 -1.28 5.6 -1.01 5.69 -0.73 5.79 -0.45 5.77 -0.14 0 0z"/>
   <path id="1" class="fil1" d="M62.75 0.92l1931.88 0c35.31,0 64.2,28.89 64.2,64.2l0 733.33c0,35.31 -28.89,64.2 -64.2,64.2l-1931.88 0c-35.31,0 -64.2,-28.89 -64.2,-64.2l0 -733.33c0,-35.31 28.89,-64.2 64.2,-64.2z"/>
  </g>
  <path class="fil2" d="M182.44 216.31l42.21 0c11.41,0 20.17,1.3 26.31,3.93 6.12,2.63 10.73,6.41 13.83,11.33 3.09,4.97 5.16,10.98 6.28,17.99 1.08,7.05 1.62,17.94 1.62,32.69l0 20.53c0,15 -1.05,25.99 -3.19,32.84 -2.1,6.91 -6.01,12.23 -11.64,15.9 -5.67,3.68 -13.08,5.52 -22.21,5.52l-11.24 0 0 95.11 -41.97 0 0 -235.84zm41.97 40.25l0 60.08c1.19,0.1 2.2,0.15 3.06,0.15 3.83,0 6.48,-1.39 7.97,-4.17 1.47,-2.74 2.21,-8.5 2.21,-17.25l0 -19.43c0,-8.05 -0.85,-13.31 -2.58,-15.75 -1.7,-2.43 -5.26,-3.63 -10.66,-3.63zm127.51 -40.25l23.97 235.84 -42.82 0 -2.27 -42.34 -15.11 0 -2.28 42.34 -43.36 0 21.26 -235.84 60.61 0zm-22.24 151.76c-2,-26.73 -4.11,-59.83 -6.35,-99.33 -4.15,45.32 -6.76,78.41 -7.88,99.33l14.23 0zm95.38 -151.76l0 188.73 25.26 0 0 47.11 -67.23 0 0 -235.84 41.97 0zm127.99 138.25c0,23.7 -0.38,40.44 -1.16,50.28 -0.75,9.89 -3.12,18.89 -7.13,27.04 -4.01,8.15 -9.44,14.41 -16.27,18.78 -6.82,4.37 -14.77,6.56 -23.83,6.56 -8.63,0 -16.34,-2.09 -23.2,-6.21 -6.86,-4.13 -12.39,-10.29 -16.53,-18.54 -4.19,-8.25 -6.66,-17.24 -7.48,-26.93 -0.78,-9.74 -1.18,-26.73 -1.18,-50.98l0 -40.35c0,-23.71 0.37,-40.45 1.15,-50.29 0.75,-9.89 3.13,-18.88 7.13,-27.03 4.01,-8.15 9.44,-14.41 16.27,-18.79 6.82,-4.37 14.77,-6.56 23.84,-6.56 8.62,0 16.33,2.09 23.19,6.21 6.85,4.13 12.39,10.29 16.54,18.54 4.17,8.25 6.65,17.24 7.47,26.93 0.78,9.74 1.19,26.74 1.19,50.99l0 40.35zm-41.98 -77.47c0,-10.94 -0.41,-17.94 -1.22,-21.02 -0.81,-3.03 -2.48,-4.57 -4.99,-4.57 -2.14,0 -3.77,1.24 -4.92,3.72 -1.13,2.44 -1.71,9.74 -1.71,21.87l0 110.06c0,13.67 0.38,22.12 1.12,25.3 0.76,3.23 2.49,4.82 5.2,4.82 2.79,0 4.59,-1.84 5.37,-5.52 0.78,-3.68 1.15,-12.47 1.15,-26.34l0 -108.32zm186.9 -60.78l0 235.84 -36.67 0 -0.1 -159.21 -14.57 159.21 -25.67 0 -15.38 -155.63 -0.11 155.63 -36.67 0 0 -235.84 54.16 0c1.53,14.26 3.19,31.06 4.99,50.24l5.94 59.88 9.55 -110.12 54.53 0zm58.85 0l0 235.84 -41.98 0 0 -235.84 41.98 0zm101.09 0l0 47.11 -24.65 0 0 188.73 -41.98 0 0 -188.73 -24.85 0 0 -47.11 91.48 0zm73.69 0l23.97 235.84 -42.82 0 -2.28 -42.34 -15.1 0 -2.28 42.34 -43.37 0 21.26 -235.84 60.62 0zm-22.25 151.76c-2,-26.73 -4.1,-59.83 -6.34,-99.33 -4.15,45.32 -6.76,78.41 -7.88,99.33l14.22 0zm142.05 -80.2l-38.92 0 0 -17.44c0,-8.15 -0.51,-13.37 -1.49,-15.61 -0.99,-2.23 -2.62,-3.32 -4.93,-3.32 -2.51,0 -4.41,1.49 -5.7,4.52 -1.3,2.98 -1.94,7.5 -1.94,13.61 0,7.85 0.75,13.77 2.21,17.74 1.43,3.93 5.36,8.75 11.85,14.41 18.57,16.25 30.29,29.62 35.11,40 4.86,10.39 7.27,27.14 7.27,50.19 0,16.8 -1.36,29.17 -4.05,37.17 -2.67,7.95 -7.83,14.61 -15.54,19.98 -7.68,5.42 -16.61,8.1 -26.83,8.1 -11.21,0 -20.75,-3.13 -28.69,-9.34 -7.92,-6.21 -13.08,-14.12 -15.56,-23.71 -2.44,-9.64 -3.67,-23.3 -3.67,-40.94l0 -15.46 38.92 0 0 28.68c0,8.84 0.55,14.51 1.63,17.04 1.09,2.53 3.02,3.78 5.8,3.78 2.79,0 4.86,-1.59 6.22,-4.82 1.36,-3.18 2.04,-7.95 2.04,-14.22 0,-13.86 -1.29,-22.95 -3.87,-27.18 -2.68,-4.27 -9.2,-11.43 -19.6,-21.46 -10.38,-10.09 -17.24,-17.45 -20.64,-22.02 -3.36,-4.57 -6.18,-10.88 -8.39,-18.93 -2.2,-8.05 -3.32,-18.34 -3.32,-30.86 0,-18.04 1.55,-31.25 4.71,-39.6 3.16,-8.35 8.22,-14.86 15.25,-19.58 7.03,-4.72 15.48,-7.06 25.43,-7.06 10.87,0 20.11,2.59 27.78,7.71 7.64,5.16 12.7,11.62 15.18,19.47 2.48,7.81 3.74,21.07 3.74,39.81l0 9.34zm52.65 -71.56l42.22 0c11.41,0 20.17,1.3 26.31,3.93 6.12,2.63 10.73,6.41 13.83,11.33 3.08,4.97 5.16,10.98 6.28,17.99 1.08,7.05 1.62,17.94 1.62,32.69l0 20.53c0,15 -1.05,25.99 -3.19,32.84 -2.1,6.91 -6.01,12.23 -11.64,15.9 -5.68,3.68 -13.08,5.52 -22.21,5.52l-11.24 0 0 95.11 -41.98 0 0 -235.84zm41.98 40.25l0 60.08c1.19,0.1 2.2,0.15 3.06,0.15 3.83,0 6.48,-1.39 7.97,-4.17 1.46,-2.74 2.21,-8.5 2.21,-17.25l0 -19.43c0,-8.05 -0.85,-13.31 -2.58,-15.75 -1.7,-2.43 -5.27,-3.63 -10.66,-3.63zm155.86 98c0,23.7 -0.37,40.44 -1.15,50.28 -0.75,9.89 -3.13,18.89 -7.14,27.04 -4,8.15 -9.43,14.41 -16.26,18.78 -6.83,4.37 -14.77,6.56 -23.84,6.56 -8.63,0 -16.33,-2.09 -23.19,-6.21 -6.86,-4.13 -12.39,-10.29 -16.54,-18.54 -4.18,-8.25 -6.65,-17.24 -7.47,-26.93 -0.78,-9.74 -1.18,-26.73 -1.18,-50.98l0 -40.35c0,-23.71 0.36,-40.45 1.14,-50.29 0.76,-9.89 3.13,-18.88 7.14,-27.03 4,-8.15 9.44,-14.41 16.26,-18.79 6.83,-4.37 14.78,-6.56 23.84,-6.56 8.63,0 16.34,2.09 23.2,6.21 6.85,4.13 12.39,10.29 16.53,18.54 4.18,8.25 6.65,17.24 7.47,26.93 0.78,9.74 1.19,26.74 1.19,50.99l0 40.35zm-41.97 -77.47c0,-10.94 -0.41,-17.94 -1.22,-21.02 -0.82,-3.03 -2.48,-4.57 -5,-4.57 -2.14,0 -3.76,1.24 -4.92,3.72 -1.12,2.44 -1.7,9.74 -1.7,21.87l0 110.06c0,13.67 0.38,22.12 1.12,25.3 0.75,3.23 2.48,4.82 5.2,4.82 2.78,0 4.59,-1.84 5.37,-5.52 0.78,-3.68 1.15,-12.47 1.15,-26.34l0 -108.32zm57.72 -60.78l42.21 0c11.42,0 20.18,1.3 26.32,3.93 6.12,2.63 10.73,6.41 13.82,11.33 3.09,4.97 5.16,10.98 6.28,17.99 1.09,7.05 1.63,17.94 1.63,32.69l0 20.53c0,15 -1.05,25.99 -3.19,32.84 -2.1,6.91 -6.01,12.23 -11.64,15.9 -5.68,3.68 -13.08,5.52 -22.21,5.52l-11.24 0 0 95.11 -41.98 0 0 -235.84zm41.98 40.25l0 60.08c1.18,0.1 2.2,0.15 3.06,0.15 3.83,0 6.48,-1.39 7.97,-4.17 1.46,-2.74 2.21,-8.5 2.21,-17.25l0 -19.43c0,-8.05 -0.85,-13.31 -2.58,-15.75 -1.7,-2.43 -5.27,-3.63 -10.66,-3.63zm158.1 62.62l-41.97 0 0 -40.95c0,-11.93 -0.44,-19.33 -1.32,-22.31 -0.89,-2.93 -2.85,-4.42 -5.88,-4.42 -3.4,0 -5.57,1.78 -6.49,5.36 -0.91,3.63 -1.39,11.38 -1.39,23.31l0 109.42c0,11.48 0.48,18.93 1.39,22.46 0.92,3.48 2.99,5.22 6.19,5.22 3.09,0 5.12,-1.74 6.07,-5.27 0.95,-3.48 1.43,-11.73 1.43,-24.7l0 -29.66 41.97 0 0 9.19c0,24.45 -1.19,41.79 -3.53,51.98 -2.34,10.23 -7.57,19.18 -15.62,26.88 -8.09,7.7 -18,11.53 -29.82,11.53 -12.26,0 -22.38,-3.23 -30.35,-9.74 -7.95,-6.51 -13.24,-15.5 -15.83,-27.03 -2.58,-11.53 -3.86,-28.82 -3.86,-51.93l0 -68.87c0,-17 0.4,-29.72 1.18,-38.22 0.82,-8.49 3.16,-16.69 7.13,-24.54 3.94,-7.86 9.4,-14.07 16.4,-18.59 7,-4.52 15.04,-6.76 24.14,-6.76 12.33,0 22.52,3.48 30.56,10.49 8.02,6.95 13.28,15.65 15.83,26.09 2.52,10.43 3.77,26.63 3.77,48.64l0 22.42zm110.57 35.38c0,23.7 -0.38,40.44 -1.15,50.28 -0.76,9.89 -3.13,18.89 -7.14,27.04 -4,8.15 -9.44,14.41 -16.26,18.78 -6.83,4.37 -14.78,6.56 -23.84,6.56 -8.63,0 -16.34,-2.09 -23.19,-6.21 -6.86,-4.13 -12.4,-10.29 -16.54,-18.54 -4.18,-8.25 -6.65,-17.24 -7.47,-26.93 -0.78,-9.74 -1.19,-26.73 -1.19,-50.98l0 -40.35c0,-23.71 0.37,-40.45 1.15,-50.29 0.75,-9.89 3.13,-18.88 7.14,-27.03 4,-8.15 9.43,-14.41 16.26,-18.79 6.83,-4.37 14.77,-6.56 23.84,-6.56 8.63,0 16.33,2.09 23.19,6.21 6.86,4.13 12.39,10.29 16.54,18.54 4.18,8.25 6.65,17.24 7.47,26.93 0.78,9.74 1.19,26.74 1.19,50.99l0 40.35zm-41.97 -77.47c0,-10.94 -0.41,-17.94 -1.22,-21.02 -0.82,-3.03 -2.49,-4.57 -5,-4.57 -2.14,0 -3.77,1.24 -4.92,3.72 -1.12,2.44 -1.7,9.74 -1.7,21.87l0 110.06c0,13.67 0.37,22.12 1.12,25.3 0.75,3.23 2.48,4.82 5.2,4.82 2.78,0 4.58,-1.84 5.36,-5.52 0.78,-3.68 1.16,-12.47 1.16,-26.34l0 -108.32zm57.72 -60.78l29.65 0c19.76,0 33.14,1.1 40.14,3.33 6.99,2.24 12.7,7.95 17.11,17.15 4.42,9.14 6.62,23.8 6.62,43.87 0,18.34 -1.56,30.66 -4.68,36.97 -3.09,6.32 -9.24,10.09 -18.41,11.33 8.29,3.04 13.89,7.06 16.74,12.13 2.86,5.02 4.62,9.69 5.3,13.91 0.71,4.23 1.05,15.85 1.05,34.89l0 62.26 -38.91 0 0 -78.46c0,-12.62 -0.69,-20.43 -2.04,-23.46 -1.32,-3.03 -4.86,-4.52 -10.6,-4.52l0 106.44 -41.97 0 0 -235.84zm41.97 40.25l0 52.48c4.69,0 7.95,-0.95 9.82,-2.83 1.87,-1.89 2.82,-8.05 2.82,-18.44l0 -12.97c0,-7.5 -0.92,-12.42 -2.72,-14.76 -1.8,-2.33 -5.13,-3.48 -9.92,-3.48zm161.26 -40.25l0 235.84 -36.67 0 -21.8 -107.23 0 107.23 -35.05 0 0 -235.84 35.05 0 23.43 106.19 0 -106.19 35.04 0z"/>
  <ellipse class="fil3" cx="83.75" cy="92.44" rx="53.4" ry="54.81"/>
  <ellipse class="fil4" cx="216.39" cy="92.44" rx="53.4" ry="54.81"/>
  <ellipse class="fil5" cx="357.59" cy="92.44" rx="53.4" ry="54.81"/>
  <ellipse class="fil6" cx="490.24" cy="92.44" rx="53.4" ry="54.81"/>
  <ellipse class="fil7" cx="622.88" cy="92.44" rx="53.4" ry="54.81"/>
  <ellipse class="fil8" cx="755.52" cy="92.44" rx="53.4" ry="54.81"/>
  <ellipse class="fil9" cx="896.73" cy="92.44" rx="53.4" ry="54.81"/>
  <ellipse class="fil10" cx="1029.37" cy="92.44" rx="53.4" ry="54.81"/>
  <ellipse class="fil11" cx="1166.29" cy="92.44" rx="53.4" ry="54.81"/>
  <ellipse class="fil12" cx="1298.94" cy="92.44" rx="53.4" ry="54.81"/>
  <ellipse class="fil13" cx="1440.14" cy="92.44" rx="53.4" ry="54.81"/>
  <ellipse class="fil14" cx="1572.78" cy="92.44" rx="53.4" ry="54.81"/>
  <ellipse class="fil15" cx="1705.43" cy="92.44" rx="53.4" ry="54.81"/>
  <ellipse class="fil16" cx="1838.07" cy="92.44" rx="53.4" ry="54.81"/>
  <ellipse class="fil17" cx="1979.27" cy="92.44" rx="53.4" ry="54.81"/>
  <ellipse class="fil18" cx="83.75" cy="761.55" rx="53.4" ry="54.81"/>
  <ellipse class="fil19" cx="216.39" cy="761.55" rx="53.4" ry="54.81"/>
  <ellipse class="fil20" cx="357.59" cy="761.55" rx="53.4" ry="54.81"/>
  <ellipse class="fil21" cx="490.24" cy="761.55" rx="53.4" ry="54.81"/>
  <ellipse class="fil22" cx="622.88" cy="761.55" rx="53.4" ry="54.81"/>
  <ellipse class="fil23" cx="755.52" cy="761.55" rx="53.4" ry="54.81"/>
  <ellipse class="fil24" cx="896.73" cy="761.55" rx="53.4" ry="54.81"/>
  <ellipse class="fil25" cx="1029.37" cy="761.55" rx="53.4" ry="54.81"/>
  <ellipse class="fil26" cx="1166.29" cy="761.55" rx="53.4" ry="54.81"/>
  <ellipse class="fil27" cx="1298.94" cy="761.55" rx="53.4" ry="54.81"/>
  <ellipse class="fil28" cx="1440.14" cy="761.55" rx="53.4" ry="54.81"/>
  <ellipse class="fil29" cx="1572.78" cy="761.55" rx="53.4" ry="54.81"/>
  <ellipse class="fil30" cx="1705.43" cy="761.55" rx="53.4" ry="54.81"/>
  <ellipse class="fil31" cx="1838.07" cy="761.55" rx="53.4" ry="54.81"/>
  <ellipse class="fil32" cx="1979.27" cy="761.55" rx="53.4" ry="54.81"/>
  <path class="fil33" d="M30.35 499.14c0,-29.5 24.53,-53.4 54.8,-53.4 30.27,0 54.81,23.9 54.81,53.4 0,29.49 -24.54,53.4 -54.81,53.4 -30.27,0 -54.8,-23.91 -54.8,-53.4z"/>
  <path class="fil34" d="M1930.58 496.16c0,-29.49 24.53,-53.4 54.8,-53.4 30.28,0 54.81,23.91 54.81,53.4 0,29.5 -24.53,53.41 -54.81,53.41 -30.27,0 -54.8,-23.91 -54.8,-53.41z"/>
  <path class="fil35" d="M30.35 366.49c0,-29.49 24.53,-53.4 54.8,-53.4 30.27,0 54.81,23.91 54.81,53.4 0,29.5 -24.54,53.41 -54.81,53.41 -30.27,0 -54.8,-23.91 -54.8,-53.41z"/>
  <path class="fil36" d="M1930.58 363.52c0,-29.49 24.53,-53.41 54.8,-53.41 30.28,0 54.81,23.92 54.81,53.41 0,29.5 -24.53,53.4 -54.81,53.4 -30.27,0 -54.8,-23.9 -54.8,-53.4z"/>
  <path class="fil37" d="M30.35 233.85c0,-29.49 24.53,-53.4 54.8,-53.4 30.27,0 54.81,23.91 54.81,53.4 0,29.5 -24.54,53.4 -54.81,53.4 -30.27,0 -54.8,-23.9 -54.8,-53.4z"/>
  <path class="fil38" d="M1930.58 230.88c0,-29.5 24.53,-53.41 54.8,-53.41 30.28,0 54.81,23.91 54.81,53.41 0,29.49 -24.53,53.4 -54.81,53.4 -30.27,0 -54.8,-23.91 -54.8,-53.4z"/>
  <g>
   <path class="fil39" d="M644.78 579.77c1.07,0 1.92,0.5 2.54,1.49 0.62,0.99 0.93,2.36 0.93,4.09 0,3.31 -0.79,5.87 -2.36,7.69 -3.55,4.38 -7.37,7.97 -11.47,10.78 -4.09,2.81 -8.74,4.22 -13.94,4.22 -4.38,0 -7.94,-1.57 -10.67,-4.71 -4.71,3.06 -9.63,4.63 -14.75,4.71 -1.07,15.95 -3.51,29.28 -7.31,39.98 -3.81,10.71 -9.39,16.06 -16.74,16.06 -4.47,0 -7.77,-1.61 -9.92,-4.84 -2.15,-3.22 -3.22,-7.68 -3.22,-13.39 0,-8.1 1.86,-17.54 5.58,-28.33 3.71,-10.78 9.46,-22.66 17.23,-35.64 0,-12.07 -0.08,-20.46 -0.25,-25.17 -0.08,-2.39 0.87,-4.3 2.85,-5.7 1.99,-1.41 4.47,-2.11 7.44,-2.11 1.74,0 3,0.35 3.78,1.06 0.79,0.7 1.22,2.08 1.3,4.15 0,2.06 0.05,3.59 0.13,4.59 2.64,-3.31 5.25,-5.69 7.81,-7.13 2.56,-1.45 5.29,-2.17 8.18,-2.17 4.63,0 8.41,1.86 11.35,5.58 2.93,3.72 4.4,8.59 4.4,14.63 0,4.38 -0.71,8.63 -2.11,12.77 -1.41,4.13 -3.35,7.89 -5.83,11.28 1.74,0.49 3.18,0.74 4.34,0.74 2.73,0 5.33,-0.99 7.81,-2.97 2.48,-1.99 5.66,-5.29 9.55,-9.92 0.99,-1.16 2.11,-1.74 3.35,-1.74zm-49.1 16.37c2.98,-0.66 5.72,-2.3 8.24,-4.9 2.53,-2.6 4.53,-5.83 6.02,-9.67 1.49,-3.84 2.23,-7.87 2.23,-12.09 0,-2.48 -0.5,-4.36 -1.49,-5.64 -0.99,-1.28 -2.31,-1.92 -3.97,-1.92 -2.97,0 -6.57,3.14 -10.78,9.42 -0.08,3.64 -0.13,8.97 -0.13,16 0,3.8 -0.04,6.73 -0.12,8.8zm-23.68 55.79c2.23,0 4.09,-4.86 5.58,-14.57 1.49,-9.71 2.44,-21.8 2.85,-36.26 -3.55,8.26 -6.36,16.16 -8.43,23.68 -2.07,7.52 -3.1,13.84 -3.1,18.97 0,2.64 0.31,4.67 0.93,6.07 0.62,1.41 1.34,2.11 2.17,2.11zm81.45 -43.89c-5.12,0 -9.22,-1.86 -12.27,-5.58 -3.06,-3.72 -4.59,-8.6 -4.59,-14.63 0,-6.61 1.53,-12.87 4.59,-18.78 3.05,-5.91 7.13,-10.66 12.21,-14.26 5.08,-3.59 10.47,-5.39 16.18,-5.39 1.82,0 3.04,0.35 3.66,1.05 0.62,0.7 1.13,1.96 1.55,3.78 1.73,-0.33 3.55,-0.49 5.45,-0.49 4.05,0 6.08,1.44 6.08,4.34 0,1.73 -0.62,5.86 -1.86,12.39 -1.91,9.51 -2.86,16.12 -2.86,19.84 0,1.24 0.31,2.23 0.93,2.98 0.62,0.74 1.43,1.11 2.42,1.11 1.57,0 3.47,-1.01 5.7,-3.04 2.24,-2.02 5.25,-5.31 9.06,-9.85 0.99,-1.16 2.1,-1.74 3.34,-1.74 1.08,0 1.92,0.5 2.54,1.49 0.62,0.99 0.93,2.36 0.93,4.09 0,3.31 -0.78,5.87 -2.35,7.69 -3.39,4.21 -6.99,7.77 -10.79,10.66 -3.8,2.89 -7.48,4.34 -11.03,4.34 -2.73,0 -5.23,-0.93 -7.5,-2.79 -2.28,-1.86 -3.99,-4.4 -5.15,-7.62 -4.3,6.94 -9.71,10.41 -16.24,10.41zm4.46 -12.52c1.82,0 3.56,-1.08 5.21,-3.23 1.65,-2.14 2.85,-5 3.6,-8.55l4.58 -22.81c-3.47,0.08 -6.67,1.38 -9.6,3.9 -2.94,2.52 -5.27,5.85 -7.01,9.98 -1.74,4.14 -2.6,8.52 -2.6,13.15 0,2.56 0.51,4.46 1.55,5.7 1.03,1.24 2.46,1.86 4.27,1.86zm85.55 -15.75c1.07,0 1.92,0.5 2.54,1.49 0.62,0.99 0.93,2.36 0.93,4.09 0,3.31 -0.78,5.87 -2.35,7.69 -3.56,4.38 -7.42,7.97 -11.6,10.78 -4.17,2.81 -8.9,4.22 -14.19,4.22 -7.28,0 -12.67,-3.31 -16.18,-9.92 -3.51,-6.61 -5.27,-15.17 -5.27,-25.66 0,-10.09 1.3,-21.57 3.9,-34.47 2.61,-12.89 6.45,-23.97 11.53,-33.23 5.09,-9.25 11.14,-13.88 18.17,-13.88 3.96,0 7.09,1.84 9.36,5.52 2.27,3.67 3.41,8.94 3.41,15.8 0,9.84 -2.73,21.25 -8.19,34.22 -5.45,12.98 -12.85,25.83 -22.19,38.56 0.58,3.39 1.53,5.81 2.85,7.25 1.33,1.45 3.06,2.17 5.21,2.17 3.39,0 6.37,-0.97 8.93,-2.91 2.56,-1.94 5.82,-5.27 9.79,-9.98 0.99,-1.16 2.11,-1.74 3.35,-1.74zm-15.25 -76.62c-1.9,0 -4.05,3.43 -6.45,10.29 -2.39,6.86 -4.5,15.38 -6.32,25.54 -1.82,10.17 -2.81,19.92 -2.98,29.26 5.87,-9.67 10.54,-19.36 14.01,-29.07 3.48,-9.71 5.21,-18.58 5.21,-26.59 0,-6.29 -1.16,-9.43 -3.47,-9.43zm71.91 66.21c1.08,0 1.9,0.54 2.48,1.61 0.58,1.07 0.87,2.44 0.87,4.09 0,3.97 -1.2,6.32 -3.6,7.07 -4.96,1.73 -10.41,2.73 -16.36,2.97 -1.57,6.95 -4.67,12.5 -9.3,16.68 -4.63,4.17 -9.88,6.26 -15.75,6.26 -4.96,0 -9.19,-1.2 -12.7,-3.6 -3.52,-2.39 -6.18,-5.57 -8,-9.54 -1.82,-3.97 -2.73,-8.27 -2.73,-12.9 0,-6.28 1.2,-11.88 3.6,-16.8 2.39,-4.91 5.7,-8.76 9.92,-11.53 4.21,-2.76 8.88,-4.15 14,-4.15 6.29,0 11.35,2.17 15.19,6.51 3.85,4.34 6.1,9.69 6.76,16.06 3.88,-0.25 8.51,-1.08 13.89,-2.48 0.66,-0.17 1.23,-0.25 1.73,-0.25zm-40.66 25.54c2.64,0 4.93,-1.08 6.88,-3.23 1.94,-2.14 3.24,-5.24 3.9,-9.29 -2.56,-1.74 -4.52,-4.01 -5.89,-6.82 -1.36,-2.81 -2.04,-5.79 -2.04,-8.93 0,-1.32 0.12,-2.64 0.37,-3.97l-0.62 0c-3.31,0 -6.06,1.59 -8.25,4.78 -2.19,3.18 -3.28,7.66 -3.28,13.45 0,4.54 0.89,8.02 2.66,10.41 1.78,2.4 3.87,3.6 6.27,3.6zm42.14 13.14c-3.14,0 -5.35,-1.65 -6.63,-4.96 -1.28,-3.31 -1.92,-8.6 -1.92,-15.87 0,-10.74 1.53,-20.95 4.59,-30.62 0.74,-2.4 1.96,-4.16 3.65,-5.27 1.7,-1.12 4.07,-1.67 7.13,-1.67 1.66,0 2.81,0.2 3.47,0.62 0.67,0.41 1,1.19 1,2.35 0,1.32 -0.62,4.3 -1.86,8.93 -0.83,3.3 -1.49,6.18 -1.99,8.61 -0.49,2.44 -0.91,5.48 -1.24,9.12 2.23,-6.45 4.9,-11.91 8,-16.37 3.1,-4.46 6.28,-7.79 9.55,-9.98 3.26,-2.19 6.34,-3.28 9.23,-3.28 2.9,0 4.94,0.66 6.14,1.98 1.2,1.32 1.8,3.35 1.8,6.07 0,2.65 -0.79,7.44 -2.36,14.39 -0.66,2.97 -1.11,5.2 -1.36,6.69 4.13,-10.17 8.72,-17.56 13.76,-22.19 5.04,-4.63 9.75,-6.94 14.13,-6.94 5.38,0 8.06,2.68 8.06,8.05 0,3.23 -0.91,9.05 -2.73,17.49 -1.57,7.19 -2.35,11.94 -2.35,14.25 0,3.31 1.2,4.96 3.59,4.96 1.66,0 3.62,-1.01 5.89,-3.04 2.28,-2.02 5.31,-5.31 9.12,-9.85 0.99,-1.16 2.1,-1.74 3.34,-1.74 1.08,0 1.92,0.5 2.54,1.49 0.62,0.99 0.93,2.36 0.93,4.09 0,3.31 -0.78,5.87 -2.35,7.69 -3.56,4.38 -7.38,7.97 -11.47,10.78 -4.09,2.81 -8.74,4.22 -13.95,4.22 -4.21,0 -7.39,-1.22 -9.54,-3.66 -2.15,-2.44 -3.23,-5.97 -3.23,-10.6 0,-2.31 0.58,-6.44 1.74,-12.4 1.07,-5.2 1.61,-8.8 1.61,-10.78 0,-1.32 -0.45,-1.99 -1.36,-1.99 -1.08,0 -2.61,1.39 -4.59,4.16 -1.98,2.77 -3.97,6.42 -5.95,10.97 -1.99,4.55 -3.6,9.34 -4.84,14.38 -0.91,3.97 -1.96,6.61 -3.16,7.94 -1.2,1.32 -3.12,1.98 -5.76,1.98 -2.73,0 -4.78,-1.3 -6.14,-3.91 -1.36,-2.6 -2.05,-5.76 -2.05,-9.48 0,-3.14 0.42,-7.69 1.24,-13.64 0.67,-5.29 1,-8.76 1,-10.41 0,-1.32 -0.46,-1.99 -1.37,-1.99 -1.24,0 -2.81,1.49 -4.71,4.47 -1.9,2.97 -3.74,6.78 -5.52,11.4 -1.77,4.63 -3.2,9.18 -4.27,13.64 -0.91,3.89 -1.97,6.51 -3.17,7.87 -1.19,1.37 -3.07,2.05 -5.64,2.05zm99.68 -66.58c-3.47,0 -6.07,-0.8 -7.81,-2.41 -1.73,-1.62 -2.6,-3.87 -2.6,-6.76 0,-2.89 1.13,-5.31 3.41,-7.25 2.27,-1.95 5.1,-2.92 8.49,-2.92 3.06,0 5.54,0.75 7.44,2.23 1.9,1.49 2.85,3.6 2.85,6.33 0,3.3 -1.07,5.93 -3.22,7.87 -2.15,1.94 -5,2.91 -8.56,2.91zm-0.99 66.58c-5.37,0 -9.28,-1.9 -11.72,-5.7 -2.43,-3.81 -3.65,-8.85 -3.65,-15.13 0,-3.72 0.47,-8.49 1.42,-14.32 0.95,-5.83 2.17,-11.26 3.66,-16.3 0.74,-2.65 1.74,-4.47 2.98,-5.46 1.24,-0.99 3.22,-1.48 5.95,-1.48 4.21,0 6.32,1.4 6.32,4.21 0,2.07 -0.79,6.86 -2.36,14.38 -1.98,9.09 -2.97,15.25 -2.97,18.48 0,2.47 0.33,4.38 0.99,5.7 0.66,1.32 1.78,1.98 3.35,1.98 1.49,0 3.35,-1.03 5.58,-3.1 2.23,-2.06 5.2,-5.33 8.92,-9.79 1,-1.16 2.11,-1.74 3.35,-1.74 1.08,0 1.92,0.5 2.54,1.49 0.62,0.99 0.93,2.36 0.93,4.09 0,3.31 -0.78,5.87 -2.35,7.69 -8.19,10 -15.83,15 -22.94,15zm70.55 -28.27c1.07,0 1.92,0.5 2.54,1.49 0.62,0.99 0.93,2.36 0.93,4.09 0,3.31 -0.79,5.87 -2.36,7.69 -3.55,4.38 -7.44,7.97 -11.65,10.78 -4.22,2.81 -9.05,4.22 -14.51,4.22 -16.86,0 -25.29,-11.86 -25.29,-35.58 0,-3.64 0.12,-7.32 0.37,-11.04l-4.83 0c-2.48,0 -4.16,-0.45 -5.02,-1.36 -0.87,-0.91 -1.31,-2.36 -1.31,-4.34 0,-4.63 1.86,-6.94 5.58,-6.94l7.07 0c1.41,-9.09 3.55,-17.4 6.45,-24.92 2.89,-7.52 6.38,-13.52 10.47,-17.98 4.09,-4.46 8.5,-6.69 13.21,-6.69 3.47,0 6.2,1.52 8.18,4.58 1.98,3.06 2.98,6.9 2.98,11.53 0,12.81 -5.38,23.97 -16.12,33.48l13.88 0c1.33,0 2.28,0.29 2.86,0.87 0.57,0.57 0.86,1.65 0.86,3.22 0,5.7 -4.67,8.55 -14.01,8.55l-15.12 0c-0.17,4.14 -0.25,7.36 -0.25,9.67 0,8.6 1.01,14.63 3.04,18.1 2.02,3.48 5.23,5.21 9.61,5.21 3.55,0 6.69,-1.07 9.42,-3.22 2.73,-2.15 5.95,-5.37 9.67,-9.67 0.99,-1.16 2.11,-1.74 3.35,-1.74zm-21.7 -68.68c-1.24,0 -2.62,1.55 -4.15,4.65 -1.53,3.1 -2.98,7.39 -4.34,12.89 -1.37,5.5 -2.5,11.59 -3.41,18.29 4.87,-4.22 8.53,-8.95 10.97,-14.2 2.44,-5.25 3.66,-10.02 3.66,-14.32 0,-4.87 -0.91,-7.31 -2.73,-7.31zm30.37 96.95c-5.12,0 -9.22,-1.86 -12.27,-5.58 -3.06,-3.72 -4.59,-8.6 -4.59,-14.63 0,-6.61 1.53,-12.87 4.59,-18.78 3.05,-5.91 7.13,-10.66 12.21,-14.26 5.08,-3.59 10.47,-5.39 16.18,-5.39 1.82,0 3.04,0.35 3.66,1.05 0.62,0.7 1.13,1.96 1.55,3.78 1.73,-0.33 3.55,-0.49 5.45,-0.49 4.05,0 6.08,1.44 6.08,4.34 0,1.73 -0.62,5.86 -1.86,12.39 -1.91,9.51 -2.86,16.12 -2.86,19.84 0,1.24 0.31,2.23 0.93,2.98 0.62,0.74 1.43,1.11 2.42,1.11 1.57,0 3.47,-1.01 5.7,-3.04 2.24,-2.02 5.25,-5.31 9.06,-9.85 0.99,-1.16 2.1,-1.74 3.34,-1.74 1.08,0 1.92,0.5 2.54,1.49 0.62,0.99 0.93,2.36 0.93,4.09 0,3.31 -0.78,5.87 -2.35,7.69 -3.39,4.21 -6.99,7.77 -10.79,10.66 -3.8,2.89 -7.48,4.34 -11.03,4.34 -2.73,0 -5.23,-0.93 -7.5,-2.79 -2.28,-1.86 -3.99,-4.4 -5.15,-7.62 -4.3,6.94 -9.71,10.41 -16.24,10.41zm4.46 -12.52c1.82,0 3.56,-1.08 5.21,-3.23 1.65,-2.14 2.85,-5 3.6,-8.55l4.58 -22.81c-3.47,0.08 -6.67,1.38 -9.6,3.9 -2.94,2.52 -5.27,5.85 -7.01,9.98 -1.74,4.14 -2.6,8.52 -2.6,13.15 0,2.56 0.51,4.46 1.55,5.7 1.03,1.24 2.46,1.86 4.27,1.86zm61.62 15.25c-4.3,0 -7.58,-0.99 -9.86,-2.98 -2.27,-1.98 -3.4,-4.21 -3.4,-6.69 0,-2.15 0.78,-4.01 2.35,-5.58 1.57,-1.57 3.89,-2.36 6.94,-2.36 1.08,0 2.34,0.11 3.79,0.31 1.44,0.21 2.54,0.35 3.28,0.44 -0.08,-2.15 -0.56,-4.18 -1.42,-6.08 -0.87,-1.9 -1.97,-3.74 -3.29,-5.52 -1.32,-1.77 -2.56,-3.32 -3.72,-4.65 -2.56,4.88 -5.1,8.93 -7.62,12.15 -2.53,3.23 -5.27,6.29 -8.25,9.18 -1.49,1.49 -3.06,2.23 -4.71,2.23 -1.32,0 -2.4,-0.47 -3.22,-1.42 -0.83,-0.96 -1.24,-2.13 -1.24,-3.54 0,-1.65 0.57,-3.18 1.73,-4.59l1.61 -1.98c4.55,-5.62 7.98,-10.25 10.29,-13.88 1.41,-2.4 3.06,-5.6 4.96,-9.61 1.9,-4.01 3.76,-8.17 5.58,-12.46 1.57,-3.64 4.84,-5.46 9.8,-5.46 2.31,0 3.92,0.21 4.83,0.62 0.91,0.41 1.37,1.08 1.37,1.99 0,0.49 -0.17,1.28 -0.5,2.35 -0.33,1.08 -0.79,2.15 -1.36,3.22 -1.49,2.98 -2.24,5.5 -2.24,7.57 0,1.24 0.44,2.6 1.31,4.09 0.86,1.49 2.21,3.35 4.03,5.58 2.64,3.47 4.64,6.42 6.01,8.86 1.36,2.44 2.04,5.11 2.04,8 0,0.83 -0.08,1.98 -0.24,3.47 4.05,-1.57 8.8,-5.74 14.25,-12.52 1,-1.16 2.11,-1.74 3.35,-1.74 1.08,0 1.92,0.5 2.54,1.49 0.62,0.99 0.93,2.36 0.93,4.09 0,3.14 -0.78,5.7 -2.35,7.69 -4.14,5.12 -8.08,8.61 -11.84,10.47 -3.76,1.86 -8.41,2.88 -13.95,3.04 -3.31,2.81 -7.23,4.22 -11.78,4.22zm126.21 -30.75c1.07,0 1.92,0.52 2.54,1.55 0.62,1.03 0.93,2.34 0.93,3.91 0,1.9 -0.29,3.38 -0.87,4.46 -0.58,1.07 -1.49,2.02 -2.73,2.85 -7.1,4.79 -12.31,8.35 -15.62,10.66l-7.93 5.33c-3.14,17.11 -7.25,30.56 -12.34,40.36 -5.08,9.79 -11.55,14.69 -19.4,14.69 -4.22,0 -7.65,-1.3 -10.29,-3.9 -2.65,-2.61 -3.97,-6.02 -3.97,-10.23 0,-5.87 2.32,-12.17 6.94,-18.91 4.63,-6.74 13.31,-15.02 26.04,-24.86l0.74 -4.83c-1.4,2.23 -3.24,3.94 -5.51,5.14 -2.28,1.2 -4.53,1.8 -6.76,1.8 -5.12,0 -9.22,-1.86 -12.27,-5.58 -3.06,-3.72 -4.59,-8.6 -4.59,-14.63 0,-6.61 1.53,-12.87 4.59,-18.78 3.05,-5.91 7.13,-10.66 12.21,-14.26 5.08,-3.59 10.47,-5.39 16.18,-5.39 1.82,0 3.04,0.35 3.66,1.05 0.62,0.7 1.13,1.96 1.55,3.78 1.57,-0.33 3.38,-0.49 5.45,-0.49 2.07,0 3.53,0.31 4.4,0.93 0.87,0.62 1.3,1.84 1.3,3.65 0,1 -0.04,1.78 -0.12,2.36 -0.33,2.56 -1.36,9.05 -3.1,19.46 -0.33,1.99 -0.68,4.16 -1.05,6.51 -0.38,2.36 -0.77,4.86 -1.18,7.5 6.36,-4.96 12.48,-9.34 18.35,-13.14 1.07,-0.66 2.02,-0.99 2.85,-0.99zm-43.77 15.5c1.9,0 3.72,-1.16 5.46,-3.47 1.73,-2.32 2.97,-5.62 3.72,-9.92l3.97 -21.2c-3.39,0.08 -6.53,1.38 -9.43,3.9 -2.89,2.52 -5.2,5.85 -6.94,9.98 -1.74,4.14 -2.6,8.52 -2.6,13.15 0,2.56 0.51,4.46 1.55,5.7 1.03,1.24 2.46,1.86 4.27,1.86zm-10.29 56.28c2.07,0 4.4,-2.47 7.01,-7.43 2.6,-4.96 5.1,-12.86 7.5,-23.68 -6.37,5.45 -10.95,10.37 -13.76,14.75 -2.81,4.38 -4.22,8.22 -4.22,11.53 0,1.4 0.27,2.56 0.81,3.47 0.54,0.91 1.42,1.36 2.66,1.36zm113.2 -82.44c1.08,0 1.9,0.54 2.48,1.61 0.58,1.07 0.87,2.44 0.87,4.09 0,3.97 -1.2,6.32 -3.6,7.07 -4.96,1.73 -10.41,2.73 -16.36,2.97 -1.57,6.95 -4.67,12.5 -9.3,16.68 -4.63,4.17 -9.88,6.26 -15.75,6.26 -4.96,0 -9.19,-1.2 -12.7,-3.6 -3.52,-2.39 -6.18,-5.57 -8,-9.54 -1.82,-3.97 -2.73,-8.27 -2.73,-12.9 0,-6.28 1.2,-11.88 3.6,-16.8 2.39,-4.91 5.7,-8.76 9.92,-11.53 4.21,-2.76 8.88,-4.15 14,-4.15 6.29,0 11.35,2.17 15.19,6.51 3.85,4.34 6.1,9.69 6.76,16.06 3.88,-0.25 8.51,-1.08 13.89,-2.48 0.66,-0.17 1.23,-0.25 1.73,-0.25zm-40.66 25.54c2.64,0 4.93,-1.08 6.88,-3.23 1.94,-2.14 3.24,-5.24 3.9,-9.29 -2.56,-1.74 -4.52,-4.01 -5.89,-6.82 -1.36,-2.81 -2.04,-5.79 -2.04,-8.93 0,-1.32 0.12,-2.64 0.37,-3.97l-0.62 0c-3.31,0 -6.06,1.59 -8.25,4.78 -2.19,3.18 -3.28,7.66 -3.28,13.45 0,4.54 0.89,8.02 2.66,10.41 1.78,2.4 3.87,3.6 6.27,3.6zm45.99 13.14c-3.72,0 -6.76,-1.72 -9.12,-5.15 -2.35,-3.43 -3.53,-7.7 -3.53,-12.83 0,-6.2 0.41,-11.88 1.24,-17.04 0.83,-5.17 2.19,-10.65 4.09,-16.43 0.83,-2.48 1.99,-4.26 3.47,-5.33 1.49,-1.08 3.85,-1.61 7.07,-1.61 1.82,0 3.08,0.28 3.78,0.86 0.7,0.58 1.06,1.45 1.06,2.61 0,0.66 -0.46,2.89 -1.37,6.69 -0.82,3.06 -1.49,5.83 -1.98,8.31 -1.65,8.68 -2.48,14.46 -2.48,17.36 0,1.73 0.21,2.95 0.62,3.65 0.41,0.71 1.07,1.06 1.98,1.06 1.24,0 2.79,-1.24 4.65,-3.72 1.86,-2.48 3.84,-6.24 5.95,-11.28 2.11,-5.05 4.16,-11.25 6.14,-18.6 0.66,-2.48 1.67,-4.26 3.04,-5.33 1.36,-1.08 3.41,-1.61 6.13,-1.61 1.91,0 3.23,0.22 3.97,0.68 0.75,0.45 1.12,1.3 1.12,2.54 0,2.07 -1.04,7.73 -3.1,16.98 -2.32,10.58 -3.47,17.11 -3.47,19.59 0,1.57 0.33,2.79 0.99,3.66 0.66,0.87 1.53,1.3 2.6,1.3 1.65,0 3.62,-1.01 5.89,-3.04 2.27,-2.02 5.31,-5.31 9.11,-9.85 1,-1.16 2.11,-1.74 3.35,-1.74 1.08,0 1.92,0.5 2.54,1.49 0.62,0.99 0.93,2.36 0.93,4.09 0,3.31 -0.78,5.87 -2.35,7.69 -3.56,4.38 -7.38,7.97 -11.47,10.78 -4.09,2.81 -8.74,4.22 -13.95,4.22 -3.97,0 -6.88,-1.53 -8.74,-4.59 -1.86,-3.06 -2.79,-7.35 -2.79,-12.89 -1.4,5.62 -3.51,9.94 -6.32,12.95 -2.81,3.02 -5.83,4.53 -9.05,4.53zm53.43 0c-3.14,0 -5.35,-1.65 -6.63,-4.96 -1.28,-3.31 -1.92,-8.6 -1.92,-15.87 0,-10.74 1.53,-20.95 4.59,-30.62 0.74,-2.4 1.96,-4.16 3.65,-5.27 1.7,-1.12 4.07,-1.67 7.13,-1.67 1.66,0 2.81,0.2 3.47,0.62 0.67,0.41 1,1.19 1,2.35 0,1.32 -0.62,4.3 -1.86,8.93 -0.83,3.3 -1.49,6.2 -1.99,8.68 -0.49,2.48 -0.91,5.53 -1.24,9.17 2.73,-7.11 5.79,-12.89 9.18,-17.36 3.39,-4.46 6.71,-7.64 9.98,-9.54 3.26,-1.9 6.26,-2.85 8.99,-2.85 5.37,0 8.05,2.68 8.05,8.05 0,1.08 -0.37,3.68 -1.11,7.81 -0.66,3.31 -0.99,5.38 -0.99,6.2 0,2.9 1.03,4.34 3.1,4.34 2.31,0 5.29,-1.82 8.92,-5.45 1.08,-1.08 2.19,-1.61 3.35,-1.61 1.08,0 1.92,0.47 2.54,1.42 0.62,0.95 0.93,2.21 0.93,3.78 0,3.06 -0.82,5.46 -2.48,7.19 -2.31,2.4 -5.02,4.45 -8.12,6.14 -3.1,1.7 -6.38,2.54 -9.85,2.54 -4.39,0 -7.71,-1.11 -9.99,-3.34 -2.27,-2.24 -3.4,-5.25 -3.4,-9.06 0,-1.23 0.12,-2.47 0.37,-3.71 0.16,-1.66 0.25,-2.77 0.25,-3.35 0,-1.32 -0.46,-1.99 -1.37,-1.99 -1.24,0 -2.87,1.39 -4.9,4.16 -2.02,2.77 -4.02,6.42 -6.01,10.97 -1.98,4.55 -3.59,9.34 -4.83,14.38 -0.91,3.89 -1.97,6.51 -3.17,7.87 -1.19,1.37 -3.07,2.05 -5.64,2.05zm56.41 0c-3.14,0 -5.35,-1.65 -6.63,-4.96 -1.28,-3.31 -1.92,-8.6 -1.92,-15.87 0,-10.74 1.53,-20.95 4.59,-30.62 0.74,-2.4 1.96,-4.16 3.65,-5.27 1.7,-1.12 4.07,-1.67 7.13,-1.67 1.66,0 2.81,0.2 3.47,0.62 0.67,0.41 1,1.19 1,2.35 0,1.32 -0.62,4.3 -1.86,8.93 -0.83,3.3 -1.49,6.18 -1.99,8.61 -0.49,2.44 -0.91,5.48 -1.24,9.12 2.23,-6.45 4.9,-11.91 8,-16.37 3.1,-4.46 6.28,-7.79 9.55,-9.98 3.26,-2.19 6.34,-3.28 9.23,-3.28 2.9,0 4.94,0.66 6.14,1.98 1.2,1.32 1.8,3.35 1.8,6.07 0,2.65 -0.79,7.44 -2.36,14.39 -0.66,2.97 -1.11,5.2 -1.36,6.69 4.13,-10.17 8.72,-17.56 13.76,-22.19 5.04,-4.63 9.75,-6.94 14.13,-6.94 5.38,0 8.06,2.68 8.06,8.05 0,3.23 -0.91,9.05 -2.73,17.49 -1.57,7.19 -2.35,11.94 -2.35,14.25 0,3.31 1.2,4.96 3.59,4.96 1.66,0 3.62,-1.01 5.89,-3.04 2.28,-2.02 5.31,-5.31 9.12,-9.85 0.99,-1.16 2.1,-1.74 3.34,-1.74 1.08,0 1.92,0.5 2.54,1.49 0.62,0.99 0.93,2.36 0.93,4.09 0,3.31 -0.78,5.87 -2.35,7.69 -3.56,4.38 -7.38,7.97 -11.47,10.78 -4.09,2.81 -8.74,4.22 -13.95,4.22 -4.21,0 -7.39,-1.22 -9.54,-3.66 -2.15,-2.44 -3.23,-5.97 -3.23,-10.6 0,-2.31 0.58,-6.44 1.74,-12.4 1.07,-5.2 1.61,-8.8 1.61,-10.78 0,-1.32 -0.45,-1.99 -1.36,-1.99 -1.08,0 -2.61,1.39 -4.59,4.16 -1.98,2.77 -3.97,6.42 -5.95,10.97 -1.99,4.55 -3.6,9.34 -4.84,14.38 -0.91,3.97 -1.96,6.61 -3.16,7.94 -1.2,1.32 -3.12,1.98 -5.76,1.98 -2.73,0 -4.78,-1.3 -6.14,-3.91 -1.36,-2.6 -2.05,-5.76 -2.05,-9.48 0,-3.14 0.42,-7.69 1.24,-13.64 0.67,-5.29 1,-8.76 1,-10.41 0,-1.32 -0.46,-1.99 -1.37,-1.99 -1.24,0 -2.81,1.49 -4.71,4.47 -1.9,2.97 -3.74,6.78 -5.52,11.4 -1.77,4.63 -3.2,9.18 -4.27,13.64 -0.91,3.89 -1.97,6.51 -3.17,7.87 -1.19,1.37 -3.07,2.05 -5.64,2.05z"/>
   <path class="fil39" d="M1484.85 579.77c1.07,0 1.92,0.5 2.54,1.49 0.62,0.99 0.93,2.36 0.93,4.09 0,3.31 -0.79,5.87 -2.36,7.69 -3.06,3.72 -7.37,7.15 -12.95,10.29 -5.58,3.14 -11.55,4.71 -17.92,4.71 -8.68,0 -15.41,-2.36 -20.21,-7.07 -4.79,-4.71 -7.19,-11.16 -7.19,-19.34 0,-5.7 1.2,-11.01 3.6,-15.93 2.39,-4.92 5.72,-8.82 9.98,-11.72 4.25,-2.89 9.07,-4.33 14.44,-4.33 4.79,0 8.64,1.42 11.53,4.27 2.89,2.85 4.34,6.72 4.34,11.59 0,5.71 -2.05,10.61 -6.14,14.7 -4.09,4.09 -11.01,7.33 -20.76,9.73 2.06,3.8 5.99,5.7 11.77,5.7 3.72,0 7.96,-1.3 12.71,-3.9 4.76,-2.61 8.87,-6.02 12.34,-10.23 0.99,-1.16 2.11,-1.74 3.35,-1.74zm-31.25 -17.97c-3.06,0 -5.64,1.77 -7.75,5.33 -2.1,3.55 -3.16,7.85 -3.16,12.89l0 0.25c4.88,-1.16 8.72,-2.89 11.53,-5.21 2.81,-2.31 4.22,-5 4.22,-8.06 0,-1.57 -0.44,-2.83 -1.3,-3.78 -0.87,-0.95 -2.05,-1.42 -3.54,-1.42zm79.97 17.97c1.07,0 1.92,0.5 2.54,1.49 0.62,0.99 0.93,2.36 0.93,4.09 0,3.31 -0.79,5.87 -2.36,7.69 -3.55,4.38 -7.44,7.97 -11.65,10.78 -4.22,2.81 -9.05,4.22 -14.51,4.22 -16.86,0 -25.29,-11.86 -25.29,-35.58 0,-3.64 0.12,-7.32 0.37,-11.04l-4.83 0c-2.48,0 -4.16,-0.45 -5.02,-1.36 -0.87,-0.91 -1.31,-2.36 -1.31,-4.34 0,-4.63 1.86,-6.94 5.58,-6.94l7.07 0c1.41,-9.09 3.55,-17.4 6.45,-24.92 2.89,-7.52 6.38,-13.52 10.47,-17.98 4.09,-4.46 8.5,-6.69 13.21,-6.69 3.47,0 6.2,1.52 8.18,4.58 1.98,3.06 2.98,6.9 2.98,11.53 0,12.81 -5.38,23.97 -16.12,33.48l13.88 0c1.33,0 2.28,0.29 2.86,0.87 0.57,0.57 0.86,1.65 0.86,3.22 0,5.7 -4.67,8.55 -14.01,8.55l-15.12 0c-0.17,4.14 -0.25,7.36 -0.25,9.67 0,8.6 1.01,14.63 3.04,18.1 2.02,3.48 5.23,5.21 9.61,5.21 3.55,0 6.69,-1.07 9.42,-3.22 2.73,-2.15 5.95,-5.37 9.67,-9.67 0.99,-1.16 2.11,-1.74 3.35,-1.74zm-21.7 -68.68c-1.24,0 -2.62,1.55 -4.15,4.65 -1.53,3.1 -2.98,7.39 -4.34,12.89 -1.37,5.5 -2.5,11.59 -3.41,18.29 4.87,-4.22 8.53,-8.95 10.97,-14.2 2.44,-5.25 3.66,-10.02 3.66,-14.32 0,-4.87 -0.91,-7.31 -2.73,-7.31z"/>
  </g>
  <path class="fil40" d="M30.35 624.11c0,-29.49 24.53,-53.4 54.8,-53.4 30.27,0 54.81,23.91 54.81,53.4 0,29.5 -24.54,53.4 -54.81,53.4 -30.27,0 -54.8,-23.9 -54.8,-53.4z"/>
  <path class="fil41" d="M1930.58 621.14c0,-29.49 24.53,-53.41 54.8,-53.41 30.28,0 54.81,23.92 54.81,53.41 0,29.49 -24.53,53.4 -54.81,53.4 -30.27,0 -54.8,-23.91 -54.8,-53.4z"/>
 </g>
</svg>
