<?xml version="1.0" encoding="UTF-8"?>
<!DOCTYPE svg PUBLIC "-//W3C//DTD SVG 1.1//EN" "http://www.w3.org/Graphics/SVG/1.1/DTD/svg11.dtd">
<!-- Creator: CorelDRAW 2017 -->
<svg xmlns="http://www.w3.org/2000/svg" xml:space="preserve" width="65.6166mm" height="45.1272mm" version="1.1" style="shape-rendering:geometricPrecision; text-rendering:geometricPrecision; image-rendering:optimizeQuality; fill-rule:evenodd; clip-rule:evenodd"
viewBox="0 0 6561.66 4512.72"
 xmlns:xlink="http://www.w3.org/1999/xlink">
 <defs>
  <style type="text/css">
   <![CDATA[
    .fil3 {fill:#883636}
    .fil4 {fill:#A26256}
    .fil0 {fill:#A86D5F}
    .fil1 {fill:#C19780}
    .fil2 {fill:#FEFECD}
   ]]>
  </style>
 </defs>
 <g id="Capa_x0020_1">
  <metadata id="CorelCorpID_0Corel-Layer"/>
  <g id="_2924094544944">
   <path class="fil0" d="M5833.58 2523.09c35.37,-13.22 432.95,-415.31 439.75,-438.07 -50.85,16.46 -281.56,264.67 -336.23,319.1 -32.29,32.16 -90.27,76.02 -103.52,118.97z"/>
   <path class="fil0" d="M4305.45 480.86c24.72,-24.84 13.21,-14.04 21.07,-62.17 17.08,-104.66 91.65,-192.63 183.9,-236.83 48.3,-23.13 93.43,-21.06 138.33,-37.68 -19.78,-11.47 -28.03,-13.1 -71.73,-3.36 -157.95,35.23 -277.15,171.65 -271.57,340.04z"/>
   <path class="fil1" d="M3509.71 594.9c9.25,9.14 -12.74,17.14 61.37,17 28.77,-0.06 38.74,-0.46 69.27,-6.99l-7.09 -91.13 -99.59 -1.5c-24.35,6.32 -6.95,-9.51 -19.59,13.73l115.52 -3.62 1.25 78.21 -121.14 -5.7z"/>
   <path class="fil1" d="M3512.41 705.72c15.69,15.91 -13.45,7.11 29.59,14.84l96.66 -4.17 -3.05 -89.83c-30.37,-5.19 -104.47,-16.89 -123.98,10.07l119.06 -4.43 0.17 78.44 -118.45 -4.92z"/>
   <path class="fil1" d="M3486.62 708.82l-117.1 0.33 0.39 -76.8 117.57 0.94c-13.12,-8.17 16.28,-5.04 -30.82,-11.24l-96.04 5.43 3.93 88.18c28.22,5.63 101.8,16.91 122.07,-6.84z"/>
   <path class="fil2" d="M1754.89 722.98c23.25,6.09 39.05,4.96 59.17,-4.34 9.71,-51.2 -1.48,-65.4 -53.37,-53.56 -9.77,19.42 -11.28,34.28 -5.8,57.9z"/>
   <path class="fil3" d="M4955.74 2666.89c-59.43,-174.57 259.21,-225.05 270.08,-57.7 11.21,172.56 -220.77,202.56 -270.08,57.7zm-760.92 -86.05c21.17,22.8 2.47,-11.4 10.66,21.04 2.02,8.01 2.02,16.24 3.26,25.47 17.27,128.12 176.59,114.13 192.28,8.56 0.84,-5.69 2,-25.3 2.11,-25.84 6.11,-29.09 -3.97,-11.58 12.34,-29.23 112.78,23.34 -80.83,300.8 -220.71,124.35 -12.92,-16.29 -65.63,-111.96 0.06,-124.35zm38.26 57.27c-11.48,-64 16.03,-58.27 66.96,-58.63 53.76,-0.39 89.23,-9.47 77.2,56.34 -14.71,80.49 -130.96,75.91 -144.16,2.29zm767.61 -289.86c122.66,-13.03 214.45,48.64 241.6,141.39 -60.98,-3.94 -132.12,-21.06 -193.17,-13.66 -64.95,7.88 -69.31,55.24 -139.23,53.05l90.8 -180.78zm-863.59 -322.12l184.02 -0.03 3.22 72.45 49.93 0.39 3.87 -72.81 194.58 -0.01 0.45 182.79 -438.77 0 2.7 -182.78zm744.72 69.13c-17.83,-49.72 -16.34,-70.69 31.58,-87.9 14.48,26.55 19.9,55.78 17.88,97.77l-49.46 -9.87zm-103.36 -83.26c34.86,26.84 136.31,223.42 156.57,260.18 42.35,76.84 27.8,60.71 -9.69,137.13 -20.09,40.98 -36.62,112.92 -78.16,135.07l-761.5 0c3.38,-90.57 54.29,-234.83 107.57,-262.08 37.89,-19.35 305.25,-8.08 368.38,-6.97 -25.72,40.47 -113.99,143.29 -35.64,213.9 38.45,34.66 216.82,18.38 282.82,18.07 35.09,-19.35 49.21,-74.33 66.42,-109.69 34.52,-70.9 43.2,-56.56 8.35,-131.73 -35.26,-76.04 -78.82,-173.66 -105.12,-253.88zm-545.33 -9.9c-108.5,0.83 -82.27,7.35 -98.55,-16.25 14.52,-14.03 -24.89,-18.33 49.61,-20.34 70.25,-1.9 364.2,-7.56 389.17,10.75l-0.76 19.19c-26.57,14 -273.65,6.15 -339.47,6.65zm-135.15 194.77c-24.99,54.19 -34.3,-27.14 -34.39,74.46l76.69 4.39c-40.12,86.51 -98.18,147.81 -94.11,305.12l84.59 0.02c-5.29,291.05 353,291.89 348.91,-0.02l329.36 0.33c64.38,0.35 60.41,-7.91 108.25,-14.98 -43.86,373.18 462.69,234.79 327.05,-24 3.11,-4.43 98.09,-51.72 -30.32,-165.36 -55.03,-48.71 -120.48,-64.4 -213.32,-69.46l-91.58 -157.97c28.47,-15.92 46.38,-4.83 57.61,-43.64 2.8,-9.65 16.96,-222.9 -129.13,-88.54 -14.81,-16.77 -18.54,-30 -38.37,-47.93 -66.7,8.78 -121.06,18.41 -133.78,58.45l75.82 -1.97c80.01,237.69 189.67,270.36 54.92,444.61 -43.85,1.69 -87.45,0.85 -131.32,2.12 -49.99,1.44 -88.15,13.76 -114.33,-19.08 -65.84,-85.5 57.48,-152.25 82.98,-189.4 -0.3,-78.85 -6.07,-23.17 -19.73,-62.57 -10.7,-30.85 1.02,-198.59 -6.54,-271.26l-506.86 0.14 -2.4 266.54z"/>
   <path class="fil3" d="M166.34 4344.02c-32,-9.61 -26.31,-8.77 -27.77,-45.34l3.38 -229.45 822.14 142.69 -2.69 255.52 -795.06 -123.42zm632.95 -241.49c-43.46,-0.7 -30.55,-8.05 -38.96,-25.61 6.74,-32.74 59.27,-25.96 82.61,0 -8.51,15.35 -10.59,26.14 -43.65,25.61zm-211.83 -135.01c35.98,1.52 39.22,10.13 52.15,32.66 -25.61,47.91 -84.67,46.65 -111.16,0 12.34,-27.63 24.62,-34.11 59.01,-32.66zm-230.46 -5.39c38.21,1.81 40.32,10.54 47.97,38.05 -26.89,39.49 -80.13,41.99 -106.43,0 6.86,-29.26 17.38,-40 58.46,-38.05zm249.81 -128.66c39.45,1.44 44.2,10.4 54.91,32.42 -21.15,48.41 -97.76,47.08 -119.07,0 8.54,-24.32 26.76,-33.77 64.16,-32.42zm38.69 -91.97c-139.57,23.26 -533.35,255.91 -543.74,345.41 -5.59,48.22 -3.17,231.87 2.12,283.21l897.89 140.97c0,-68.94 8.69,-232.2 -0.99,-290.25 -9.66,-57.93 -311.5,-399.19 -355.28,-479.34z"/>
   <path class="fil3" d="M6062.97 4300.97c15.43,-3.33 42.25,-34.8 55.38,-56.24 20.21,-32.99 18.26,-57.89 13.35,-102.68 118.34,57.15 0.02,153.58 -68.73,158.92zm-539.21 -37.75c-22.1,-22.08 -71.02,-53.25 -26.91,-102.5 18.41,-20.54 67.03,-45.99 104.91,-52.09 -57.72,39.86 -72.64,63.73 -78,154.59zm-125.44 -23.24c41.5,114.16 315.04,153.16 475.66,144.63 152.22,-8.09 472.8,-93.43 342.99,-238.5 -23.44,-26.21 -59.92,-45.9 -99.42,-63.31 -57.08,-25.15 -62.64,-31.46 -108.02,-4.7 -72.51,42.76 -162.18,47.98 -237.25,4.61 -50.4,-29.1 -36.01,-52.7 -113.81,-39.47 -90.81,15.45 -304.09,75.88 -260.15,196.74z"/>
   <path class="fil3" d="M6260.85 780.12c51.75,-29.35 71.16,20.37 52.21,51.76 -18.01,29.85 -74.48,17.67 -52.21,-51.76zm-429.47 40.91c-79.5,23.99 -79.5,-74.04 4.61,-49.44l-4.61 49.44zm496.13 24.92l-4.11 -77.05c38.66,0 81.71,-5.21 83.59,37.53 1.95,44.24 -42.21,40.31 -79.48,39.52zm9 -189.78c42.36,0 111.61,-13.06 103.99,43.17 -5.9,43.53 -63.31,33.08 -99.77,32.84l-4.22 -76.01zm-61.58 72.48c-25.25,-42.58 -7.41,-88.07 50.87,-63.06l-1.69 64.66 -49.18 -1.6zm23.11 -183.56c58.29,-25.64 77.26,54.48 34.93,71.05 -55.89,21.89 -94.29,-44.94 -34.93,-71.05zm61.77 73.29c18.63,-96.41 -18.52,-84.41 104.66,-67.14 40.16,81.68 -43.48,67.43 -104.66,67.14zm-76.02 -125.67c-10.35,-48.57 -7.03,-87.2 56.9,-66.24 20.72,34.34 16.24,40.77 3.09,78.34l-59.99 -12.1zm88.81 12.44l-17.46 -88.67c56.4,-0.55 74.01,-5.85 114.27,13.59 18.71,80.66 -20.23,75.08 -96.81,75.08zm-253.29 -332.36c46.81,31.66 70.08,111.46 73.49,191.83 6.61,156.18 -71.3,148.44 -36.58,197.46 28.38,-6.65 39.1,-33.56 50.95,-65.31 34.11,-91.4 3.52,-61.54 40.06,-76.85 -10.86,58.7 9.65,78.67 4.58,103.63 -5.61,27.55 -14.61,7.58 -16.63,52.41 -1.77,39.47 9.76,30.3 7.99,56.42 -1.94,28.54 -11.08,12.18 -15.99,49.87 -4.94,37.9 6.07,36.93 6.54,58.33 0.82,38.31 -24.65,25.31 -13.06,105.24 -112.41,2.87 -250.43,17.12 -330.83,-49.38l-0.38 -316.54c13.85,-49.73 186.7,-21.45 195.44,-187.45 1.37,-50.85 -24.26,-115.27 11.71,-125.98l22.71 6.32zm-414.29 233.12l-0.95 472.97c40.74,4.45 158.42,14.46 185.02,-10.3l13.42 -19.14c109.1,48.28 209.63,33.54 335.78,33.57 115.43,0.03 195.54,18.36 203.02,-67.76 13.02,-150.02 36.94,-6.08 33.28,-140.24 -1.52,-56.35 1.87,-11.87 26.64,-57.69 20.07,-37.13 11.02,-40.43 0.23,-73.95 -17.44,-54.15 -4.25,-1.23 7.43,-64.15 26.44,-142.46 -183.45,-92.57 -276.61,-99.5 -17.93,-126.22 -33.88,-270.16 -183.18,-250.52 -19.52,112.61 55.67,236.14 -117.06,285.7 -80.82,23.19 -8.98,-38.67 -227.02,-8.99z"/>
   <path class="fil3" d="M2288.89 2597.56l2.31 65.58c-40.06,23.22 -450.48,11.1 -494.83,11.1 -91.95,0 -434.68,13.38 -496.86,-8.83l-0.29 -72.19c55.22,-16.34 710.58,-6.29 871.31,-6.95 100.89,-0.41 73.76,-4.68 110.83,7.86 1.97,0.66 5.21,1.94 7.53,3.43zm-424.26 -44.31l-122.13 1.46 -8.28 -63.29 80.13 45.96c22.25,-24.36 26.41,-46.7 57.42,-59.08l-7.14 74.95zm227.08 -136.92l105.45 -51.21c23.63,74.4 42.01,98.17 47.21,191.23l-112.23 -0.43c-11,-20.34 -4.46,-6.18 -11.34,-31.16 -3.04,-11.04 -4.96,-25.49 -8.35,-38.98 -6.32,-25.15 -15.89,-42.38 -20.74,-69.45zm-640.72 140.02l-105.68 -0.31c4.2,-74.35 19.05,-129.18 46.82,-184.75l104.56 53.18c-17.09,60.62 -24.79,115.96 -45.7,131.88zm354.97 -93.78c-60.73,-9.34 -42.34,-36.2 -67.16,-74.46 -70.77,59.34 -77.09,77.73 -38.94,165.8l-196.42 2.76c28.74,-366.95 550.86,-371.79 582.96,-0.32l-170.38 -0.11c18.62,-56.82 32.01,-79.72 2.89,-136.36 -21.5,-41.81 -50.06,-75.23 -90.01,-87.69 13.92,55.6 17.58,97.32 -22.94,130.38zm171.16 -169.78c16.41,-35.66 43.05,-67.36 68.68,-89.23 58.62,28.28 98.69,68.22 127.13,131.53l-98.34 50.99c-30.99,-24.06 -64.26,-62.72 -97.47,-93.29zm-561.87 45.58c18.86,-45.03 79.28,-110.39 122.08,-132 28.5,22.9 48.24,50.73 70.82,86.42l-91.67 98.24 -101.23 -52.66zm398.01 -214.03c84.07,2.56 134.78,25.35 197.03,50.14 -20.74,41.49 -45.94,64.69 -68.46,96.76l-128.04 -35.99 -0.53 -110.91zm-238.62 53.34c63.27,-22.61 116.73,-52.69 201.51,-53l-3.06 113.05 -133.48 36.93c-21.04,-39.18 -45.03,-51.69 -64.97,-96.98zm-265.74 364.51c-19.79,16.45 -20.58,9.97 -42.38,19.18l-0.46 136.23 1053.94 4.41 3.88 -140.62c-92.05,-32.6 -9.84,-1.04 -74.98,-164.61 -186.83,-469.14 -891.39,-391.94 -940,145.41z"/>
   <path class="fil3" d="M5024.98 463.85c-5.58,418.09 -511.49,525.08 -703.1,205.43 -103.22,-172.2 -40.41,-360.94 68.52,-463.85 51.24,-48.4 123.24,-91.67 217.17,-100.97 121.41,-12.03 164.21,21.74 249.64,58.15 -9.94,38.99 -85.64,124.04 -115.1,164.24 -33.28,45.41 -76.53,107.29 -109.5,150.67l392.37 -13.67zm42.87 -2.89l6.89 13.58c0.5,1.85 2.07,5.15 2.56,7.52 26.06,124.88 -98.24,342.79 -289.37,408.85 -230.09,79.54 -433.13,-52.08 -510.76,-186.39 -165.69,-286.65 25.12,-620.52 324.52,-651.78 86.26,-9 251.11,14.65 285.59,81.84 -30.86,16.06 -45.25,-13.5 -110.64,-35.59 -355.61,-120.09 -665.58,272.33 -472.36,588 203.95,333.19 705.39,206.28 741.67,-161.79 4.43,-44.95 -7.6,-49.71 21.9,-64.24zm44.32 -35.81l-399.39 12.86c22.06,-54.11 75.12,-111.15 113.57,-161.31 33.12,-43.2 95.64,-116.28 115.2,-160.95 -95.83,-53.82 -150.11,-105.3 -305.53,-101.54 -357.55,8.64 -572.31,403.07 -392.43,704.8 91.72,153.83 304.7,292.62 559.19,206.04 173.87,-59.15 341.27,-251.66 309.39,-499.9z"/>
   <path class="fil3" d="M261.55 2660.1c6.89,-68.79 46.76,-77.55 93.44,-41.09 -19.09,19.71 -56.95,32.54 -93.44,41.09zm-101.47 112.29c5.25,-47.07 21.24,-39.24 65.29,-55.65l242.16 -92.81c92.97,-35.8 238.81,-101.06 329.09,-119.8 1.27,53.23 -1.23,43.49 -51.44,61.47 -74,26.48 -532.63,209.76 -563.64,210.88 -19.2,0.7 -10.41,0.82 -21.46,-4.09zm374.22 -223.78c-12.8,-86.52 64.39,-99.42 95.76,-35.2l-44.5 27.45c-29.08,10.75 -21.74,11.63 -51.26,7.75zm-245.84 -63.37c-41.23,-75.34 21.99,-114.7 64.01,-82.21 41.8,32.31 24.37,106.56 -64.01,82.21zm87.81 -346.73c160.33,9.23 331.84,194.49 356.09,347.13l-58.47 19.13c-28.09,-29.87 -49.08,-90.24 -125.98,-60.5 -51.75,20 -58.33,70.94 -45.66,127.24l-106.58 37.76c-37.24,-36.03 -82.05,-75.24 -140.31,-25.01 -69.42,59.84 24.03,93.39 -88.52,110.44l75.79 -201.25c0,0.01 119.93,89.56 159.67,-12.92 40.28,-103.88 -43.58,-108.02 -102.37,-130.83l76.34 -211.19zm249.34 106.68c-168.13,-165.4 -236.99,-85.13 -227.5,-163.41 63.91,-44.63 239.09,92.02 264.5,116.86 23.61,23.05 164.34,199.65 123.12,262.55 -35.28,53.83 -36.4,-94.27 -160.12,-216zm-501.63 591.73l710.58 -271.65c16.26,-369.27 -310.36,-555.82 -455.17,-527.84l-214.78 561.66c-42.27,109.72 -42.12,105.22 -40.63,237.83z"/>
   <path class="fil3" d="M1760.69 665.08c51.89,-11.84 63.08,2.36 53.37,53.56 -20.12,9.3 -35.92,10.43 -59.17,4.34 -5.48,-23.62 -3.97,-38.48 5.8,-57.9zm-26.12 -181.45c-275.71,66.53 -182.86,480.11 95.87,422.51 104.72,-21.63 194.1,-130.31 165.51,-260.91 -22.38,-102.22 -134.55,-192.2 -261.38,-161.6z"/>
   <path class="fil3" d="M40.02 720.3l413.21 -1.79c60.74,91.76 131.04,92.1 191.88,2.06l412.35 -2.03 0.38 103.96 -1014.65 0.46 -3.17 -102.66zm8.22 -26.71c7.33,-27.97 102.91,-264.51 136.36,-278.47l729.14 0c34.62,14.31 129.23,249.94 136.45,279.26l-1001.95 -0.79zm-40.9 165.17l1083.99 0.67c23.43,-124.53 -2.92,-180.32 -44.92,-272.42 -16.84,-36.93 -80.15,-208.51 -113.49,-208.51l-783.51 0.46c-31.02,48.73 -73.44,153.87 -100.48,214.75 -39.53,89.02 -63.27,141.69 -41.59,265.05z"/>
   <path class="fil3" d="M3187.94 57.85c40.62,-14.11 265.21,-6.06 325.71,-6.08 193.23,-0.04 157.83,-29.05 157.8,169.14 -0.02,154.58 19.09,531.54 -5.03,660.38 -14.85,2.4 -461.63,18.46 -481.43,-8.17 -14.46,-45.22 -12.45,-781.65 2.95,-815.27zm-278.7 201.43c50.13,-21.33 167.46,-9.89 233.92,-7.71l-3.85 562.81 -182.91 1.78c-39.37,-2.82 -23.52,5.42 -43.96,-13.97 -22.17,-27.36 -23.4,-492.89 -3.2,-542.91zm234.16 -153.47l0 119.83c-206.69,-0.07 -265.73,-25.72 -265.73,72.01l0 470.02c0,98.08 53.83,71.4 252.23,72.04l11.41 22.89c11.25,26.68 6.27,59.51 84.53,59.51 132.66,0 339.4,8.65 462.92,-8.17 11.33,-21.77 19.28,-42.55 19.28,-79.14l0 -728.99c0,-61.69 -14.23,-90.44 -79.26,-90.44l-402.94 0c-70.37,0 -82.44,23.93 -82.44,90.44z"/>
   <path class="fil3" d="M2676.19 2736.92c-12.71,-51.32 14.42,-60.71 42.52,-87.85 49.12,-47.42 185.94,-193.67 220.43,-214.8l39.01 40.78c-17.29,31.6 -168.37,173.14 -213.65,219.81 -27.33,28.16 -37.06,55.35 -88.31,42.06zm345.38 -597.59c24.64,-38.2 235.59,-250.21 271.42,-266.76 36.32,14.18 234.62,212.58 245.79,247.57l-266.21 272.34 -173.1 -62.75 -109.31 102.6c-10.5,-40.17 33.79,-61.99 92.08,-121.16l-60.67 -171.84zm-42.44 -9.6c11.63,63.69 54.11,117.31 57.09,185.31 -27.92,18.71 -30.78,28.68 -54.58,50.75 -78.53,72.78 39.3,-72.49 -179.53,145.89 -88.57,88.39 -224.12,185.55 -142.87,251.82 70.57,57.56 163.02,-72.49 252.38,-161.42 20.36,-20.26 99.24,-93.57 109.33,-110.22 19.42,-32.04 -25.16,-22.18 89.77,-118.03l171.82 61.17c75.2,-67.36 147.66,-146.79 220.98,-219.57 118.65,-117.78 87.52,-110.59 -58.51,-256.86 -144.03,-144.29 -134.48,-161.65 -242.14,-53.27 -76.55,77.07 -149.09,147.08 -223.74,224.43z"/>
   <path class="fil3" d="M5802.71 2532.6c12.81,-36.72 479.43,-497.86 502.73,-507.36 28.19,12.82 120.54,105.08 134.36,133.27 -14.43,31.68 -454.4,474.18 -498.93,502.87 -38.31,-11.35 -116.22,-94.9 -138.16,-128.78zm579.49 -504.27c-97,-45.19 -59.73,-81.46 -193.85,51.53l-407.59 408.21c-42.56,61.78 12.28,78.49 27.03,124.18 -18.26,13.42 -179,142.49 -112.28,174.08 61.47,5.26 123.35,-97.47 168.62,-127.88 94.26,67.87 94.46,46.38 195.41,-55.2l326.2 -326.06c18.01,-17.82 70.24,-65.65 80.34,-83.41 29.97,-52.7 -15.85,-83.56 -32.69,-110.28 49.1,-47.95 150.37,-128.8 125.19,-168.08 -35.81,-55.83 -142.42,89.45 -176.38,112.91z"/>
   <path class="fil3" d="M1796.32 4066.97c277.52,-61.74 264.92,185.81 163.5,288.4 -96.59,97.71 -275.87,134.5 -434.21,68.74 -221.81,-92.13 -185.81,-305.45 -98.65,-361.34 84.42,-54.14 139.49,17.99 245.2,15.26 71.59,-1.84 37.11,28.59 107.89,33.74 79.07,5.77 39.57,-18.14 16.27,-44.8zm86.35 -135.21c-26.73,16.71 -87.11,98.37 -120.4,64.51 -38.72,-39.36 20.46,-123.29 33,-151.15 -82.49,27.81 -94.87,97.87 -134.85,170.44 -74.29,4.85 -129.16,-34.78 -161.01,-68.58l15.57 58.57c-218.78,12.23 -211.39,222.58 -167.81,309.55 51.09,101.97 187.11,177.63 343.66,178.18 420.26,1.46 494.74,-480.04 171.2,-475.4 9.68,-26.89 19.88,-51.7 20.64,-86.12z"/>
   <path class="fil3" d="M6065.22 3990.58c5.33,46.71 7.33,19.7 104.7,59.01 116.68,47.09 240.52,150.2 107.18,267.6 -224.07,197.28 -915.39,138.95 -973.05,-73.64 -52.8,-194.7 341.39,-222.31 371.53,-262.55 -20.44,-26.9 -30.47,-18.45 -69.8,-10.12 -127.4,26.97 -374.37,105.74 -339.31,271.98 56.54,268.18 839.68,314.87 1056.9,82.14 182.88,-195.96 -188.32,-361.67 -258.15,-334.42z"/>
   <path class="fil3" d="M5713.43 3856.38c-26.66,253.36 286,295.46 348.51,73.38 38.06,-135.23 64.86,-403.67 175.49,-351.44 22.9,10.82 28.17,25.04 34.54,51.23 12.52,51.38 -16.37,39.85 43.06,48.32 58.3,-125.34 -128.16,-216.55 -205.57,-93.98 -43.38,68.71 -58.33,259.54 -101.99,343.36l-294.04 -70.87z"/>
   <path class="fil3" d="M4324.86 3943.64c188.02,-53 374.41,29.99 440.81,147.6 100.34,177.73 -82.32,313.61 -220.2,345.85 -426.97,99.87 -675.2,-365.29 -220.61,-493.45zm499.08 286.75c37.08,-189 -159.83,-317.88 -331.59,-336.18 -202.7,-21.6 -407.68,83.37 -441.13,241.74 -84.12,398.36 696.09,484.99 772.72,94.44z"/>
   <path class="fil3" d="M3241.39 240.1l2.01 115.07c80.84,-0.04 300.12,10.35 356.5,-9.98 15.99,-40.71 10.35,-125.53 9.83,-173.74l-298.74 -2.26c-59.1,0 -69.6,10.82 -69.6,70.91z"/>
   <path class="fil3" d="M2266.01 124.5c18.63,-18.82 75.87,-72.89 116.37,-18.98 45.18,60.15 -55.38,128.82 -131.63,205.18 -36.09,36.16 -139.31,150.55 -177.71,168.97 -23.67,-31.38 -57.62,-49.78 -74.26,-88.01l267.23 -267.16zm-316.22 269.07c14.92,29.82 23.13,21.8 36.19,56.33l-20.06 16.57c-31,-6.14 -57.98,-30.12 -95.17,-42.16 -65.75,-21.29 -99.02,-26.79 -111.9,7.63 21.2,36.05 176.35,-7.6 250.65,160.84 22.8,51.67 5.38,89.81 45.9,101.09 17.83,-27.46 7.84,-62.65 -3.96,-95.22 -13.04,-35.94 -28.58,-54.36 -40.58,-80.38l24.06 -25.58 47.66 38.5 310.82 -308.18c104.6,-109.59 -32.85,-238.12 -131.78,-141.41 -37.27,36.44 -67.94,68.61 -105.25,105.92 -70.93,70.94 -134.65,135.74 -206.58,206.05z"/>
   <path class="fil3" d="M4852.19 360.2c12.33,-30.42 179.16,-249.33 196.47,-263.3 54.04,28.75 142.46,154.22 144.01,256.02l-201.58 5.87 -9.99 -22.73c-10.77,-20.92 -7.1,-33.82 -38.01,-31.67 -45.15,3.12 -26.71,30.61 -38.35,57.45l-52.55 -1.64zm228.3 -268.41c-31.42,-39.31 -4.76,-29.05 -0.81,-34.37 37.06,-6.96 145.69,152.31 160.42,242.17 7.12,43.4 -3.86,43.98 -9.17,52.14 -33.19,-47.23 -18.97,-126.45 -120.17,-231.34 -8.06,-8.34 -25.99,-23.23 -30.27,-28.6zm-301.19 309.44l507.25 -14.72c-11.98,-174.57 -103.4,-333.82 -218.38,-384.87 -33.16,57.88 -103.05,139.36 -146.21,198.17 -33.05,45.06 -127.94,162.08 -142.66,201.42z"/>
   <path class="fil3" d="M2381.59 3980.2c-25.48,16.94 -77.16,67.83 -92.84,18.06 -11.31,-35.92 32.31,-80.06 44.97,-100.74 -87.43,27.75 -72.95,65.28 -124.83,113.09 -53.17,-5.38 -94.63,-40.34 -112.53,-71.83l12.97 61.4c-39.56,25.4 -37.07,-14.89 -51.62,29.94 20.21,24.27 30.96,13.85 72.58,19.02 192.49,23.89 100.28,56.61 201.7,52l-24.25 -38.58c85.48,-12.34 150.89,-15.63 170.91,60.32 20.07,76.13 -17.76,127.89 -53.25,161.03 -39.89,37.26 -101.14,59.09 -168.33,62.41 -158.06,7.82 -147,-72.26 -173.85,2.63 121.97,55.74 276.51,39.3 368.14,-39.26 97.03,-83.19 109.15,-274.23 -60.18,-293.96l-9.59 -35.53z"/>
   <path class="fil3" d="M751.25 4238.33c-114.68,66.59 -14.7,212.63 87.62,157.45 91.91,-49.56 22.81,-221.58 -87.62,-157.45z"/>
   <path class="fil3" d="M4166.03 4291.48c-56.32,-37.98 -65.17,-186.73 9.59,-214.79 35.59,17.75 47.1,52.43 47.27,105.76 0.19,54.28 -9.07,97.78 -56.86,109.03zm-64.76 -70.68c22.64,163.93 172.02,107.67 142.95,-76.87 -23.81,-151.14 -168.65,-109.22 -142.95,76.87z"/>
   <path class="fil3" d="M5015.37 2638.11c-18.97,-108.49 134.97,-122.87 145.23,-26.39 9.87,93.06 -130.28,111.89 -145.23,26.39zm41.25 -109.6c-115.86,40.59 -70.14,228.78 66.35,184.83 112.24,-36.13 60.12,-229.14 -66.35,-184.83z"/>
   <path class="fil3" d="M478.07 4176.51c-73.87,23.94 -48.23,139.39 36.86,115.24 72.09,-20.46 43.92,-141.42 -36.86,-115.24z"/>
   <path class="fil3" d="M5016.79 187.7c-66.21,29.66 -32.14,135.8 47.42,107.65 69.72,-24.68 29.78,-142.23 -47.42,-107.65z"/>
   <path class="fil3" d="M4592.51 213.26c72.92,-47.54 121.12,66.1 57.42,99.4 -36.93,19.31 -71.55,2.03 -83.2,-22.56 -27.94,-58.99 23.61,-75.43 25.78,-76.84zm8.37 -32.08c-121.15,35.96 -58.66,193.23 49.4,159.43 96.59,-30.23 51.88,-189.49 -49.4,-159.43z"/>
   <path class="fil3" d="M526.58 2388.72c-17.98,-56.81 -13.24,9.07 -30.59,-35.78l78.42 -14.14c-3.2,-68.82 -28.19,-6.65 -87.24,-21.93 15.66,-40.05 17,14.56 20.31,-40.45 -126.25,-55.65 -63.54,210.88 19.1,112.3z"/>
   <path class="fil3" d="M3245 123.63c72.45,0 317.52,16.21 363.77,-8.23 -8.67,-17.17 22.58,-17.78 -75.77,-16.62l-260.38 -0.92c-44.29,5.37 -23.14,-7.65 -27.62,25.77z"/>
   <path class="fil3" d="M227.42 4340.4c105.31,33.05 116.63,-64.15 72.05,-91.09 -55.85,-33.78 -102.01,20.01 -72.05,91.09z"/>
   <path class="fil3" d="M4823.32 560.59c65.32,5.41 92.01,42.26 44.32,100.95l-26.3 -41.63c-11.6,-28.47 -9.77,-31.65 -18.02,-59.32zm-24.1 -14c-11.34,18.47 31.54,119.37 47.96,143.8 123.59,-17.41 71.1,-198.39 -47.96,-143.8z"/>
   <path class="fil3" d="M3697.6 2494.23c36.35,22.75 262.15,9.44 324.72,9.44 -6.28,-41.12 -16.99,-24.66 -153.69,-24.66l-144.53 -0.68c-51.32,6.09 -7.62,4.13 -26.5,15.9z"/>
   <path class="fil3" d="M4456.4 639.17c29.52,-7.44 48.78,-5.99 70.87,6.85l6.21 55.37c-36.58,18.82 -46.22,17.42 -77.44,-1.89l0.36 -60.33zm66.67 98.28c52.97,-54.42 47.97,-131.04 -30.82,-129.99 -74.33,1 -85.02,74.48 -29.47,131.1l60.29 -1.11z"/>
   <path class="fil3" d="M4418.68 367.69c46.8,-45.84 88.73,24.29 56.72,56.99 -33.31,34.05 -105.74,-8.99 -56.72,-56.99zm91.75 48.24c1.07,-125.7 -118.44,-99.93 -131.03,-39.04 -16.23,78.48 68.89,123.03 131.03,39.04z"/>
   <path class="fil3" d="M4745.41 684.36c-116.88,32.29 -90.09,-120.64 7.67,-59.53l-7.67 59.53zm-64.59 -98.11c-151.19,169.01 213.33,161.68 62.55,-1.09l-62.55 1.09z"/>
   <path class="fil3" d="M3388.88 566.23c5.67,-32.23 -10.45,-23.98 28.71,-27.67 18.45,-1.73 31.42,1.99 44.15,8.49l1.06 26.61c-78.74,16.22 -68.26,-2.95 -73.92,-7.43zm-20.55 37l117.26 -0.23 0.21 -87.5 -121.13 0.19 3.66 87.54z"/>
   <path class="fil3" d="M3389.16 777.25c15.11,-12.92 -23.73,-13.17 71.75,-13.17 -4.13,43.54 20.42,36.48 -33.06,41.51 -56.47,5.31 -34.63,-21.14 -38.69,-28.34zm-24.87 46.47l43.79 3.55 38.42 0.08 40.59 -0.5 -2.11 -86.69 -38.48 -0.26 -38.45 -0.8 -43.22 4.64 -0.54 79.98z"/>
   <path class="fil3" d="M3315.07 566.23c-26.61,18.57 -16.81,12.34 -73.68,12.34 1.64,-39.86 -8.18,-38.27 32.3,-40.9 47.61,-3.1 35.84,3.32 41.38,28.56zm-96.1 36.63l119.44 -1.1 0.15 -85.94 -121.86 2.17 2.27 84.87z"/>
   <path class="fil3" d="M3241.39 786.84c11.67,-26.1 -23.03,-20.21 32.27,-25.14 54.98,-4.9 35.25,10.87 41.41,25.14 -11.38,16.74 13.58,15.09 -31.78,18.19 -54.27,3.72 -34.89,-13.58 -41.9,-18.19zm-24.66 39.86l122.69 -1.6 -1.41 -84.02 -35.42 -1.18 -47.98 -0.37 -37.21 2.17 -0.67 85z"/>
   <path class="fil3" d="M3570.88 805.25c-61.63,-5.27 -21.76,1.22 -33.89,-28 5.97,-3.97 -5.55,-17.6 43.68,-14.4 48.65,3.16 17.95,5.33 29.2,14.4 -4.53,13.79 11.9,32.34 -38.99,28zm-58.58 22.08l122.61 -4.48 -1 -80.59 -33.91 -2.36 -47.98 -0.25 -38.93 1.46 -0.79 86.22z"/>
   <path class="fil3" d="M3273.91 467.77c-61.66,-3.88 -11.11,0.92 -32.52,-16.65 7.01,-9.28 -17.78,-31.82 42.15,-26.02 54.4,5.26 20.7,-0.29 31.53,26.02 -5.42,4.57 13.72,20.1 -41.16,16.65zm-57.37 21.09l122.4 1.96 -0.43 -85.71 -120.01 -1.27 -1.96 85.02z"/>
   <path class="fil3" d="M3581.35 467.94c-51.61,5.93 -43.43,-15.8 -44.81,-16.82 12.81,-15.1 -30.38,-19.98 34.04,-25.64 41.56,-3.65 36.16,13.25 39.43,16.05 -7.75,22.29 20.24,20.78 -28.66,26.41zm-68.72 23.35l122.23 -4.37 -1.23 -82.49 -120.4 0.21 -0.6 86.65z"/>
   <path class="fil3" d="M3417.21 468.14c-48.39,-4.34 -20.38,-2.72 -28.18,-26.61 3.53,-3.2 -7.84,-19.67 38.89,-16.16 59.69,4.49 21.5,-0.41 33.89,25.75 -2.71,2.03 8.23,21.76 -44.6,17.02zm-52.77 19.67l122.03 3.02 -1.96 -87.18 -119.59 3.95 -0.48 80.21z"/>
   <path class="fil3" d="M3292.09 691.21c-66.7,12.34 -46.18,-10.81 -50.7,-19.46 6.67,-6.48 -16.38,-26.57 42.29,-21.99 45.98,3.59 25.78,-2.41 30.91,31.58 -7.87,4.45 -5.66,6.76 -22.5,9.87zm-70.85 23.83l116.82 -0.7 -2.14 -86.38 -118.24 0.96 3.56 86.12z"/>
   <path class="fil3" d="M3758.57 2334.3c49.47,0 98.95,0 148.42,0 25.67,0 51.26,0 76.92,0.24 6.33,0.06 34.31,0.65 38.63,-0.05 35.03,-5.69 16.4,-3.56 27.99,-12.92 -10.76,-7.7 17.83,-12.27 -66.62,-11.56l-153.73 0.01c-115.01,-2.27 -56.39,8.7 -71.61,24.28z"/>
   <path class="fil3" d="M3417.61 691.65c-47.51,-3.85 -13.72,-0.94 -28.56,-10.32l0.54 -19.18c11.46,-7.66 -0.56,-5.45 19.64,-9.5l52.72 3.4 0.19 31.21c-15.44,2.6 -27.87,5.75 -44.53,4.39zm69.01 17.17l0.86 -75.53 -117.57 -0.94 -0.39 76.8 117.1 -0.33z"/>
   <path class="fil3" d="M4443.53 520.23c-88.94,-27.59 -57.6,-11.28 -70.75,-3.8 -12.49,42.02 -8.8,32.39 38.26,45.83 27.63,7.9 45.26,15.42 78.43,14.37l7.82 -29.58c-16.73,-23.07 -22.73,-17.2 -53.76,-26.82z"/>
   <path class="fil3" d="M3571.77 579.34c-16.91,0.54 -21.06,-2.56 -35.71,-5.52l1.97 -31.15c48.02,-6.07 64.7,-16.44 72.13,23.56 -7.87,5.87 -5.34,12.04 -38.39,13.11zm-62.06 15.56l121.14 5.7 -1.25 -78.21 -115.52 3.62 -4.37 68.89z"/>
   <path class="fil3" d="M3609.76 681.34c-23.72,14.33 -23.91,14.22 -73.18,6.05l0.67 -31.53c12.42,-2.16 41.05,-7.48 53.16,-4.05 31.32,8.87 14.38,-8.74 19.35,29.53zm-97.35 24.38l118.45 4.92 -0.17 -78.44 -119.06 4.43 0.78 69.09z"/>
   <path class="fil3" d="M4597.65 527.86c-27.11,19.49 -7.88,17.94 -43.16,3.76l3.14 -22.46c1.16,-0.84 -8.33,-23.62 27.75,-9.29 20.45,8.13 9.73,10.46 12.27,27.99zm-45.02 34.3c96.36,15.19 97.9,-95.44 6.14,-89.24l-26.59 26.16c-4.39,36.28 4.48,45.67 20.45,63.08z"/>
   <path class="fil3" d="M3831.31 2407.9c16.18,15.5 -35.8,14.77 85.26,13.75 36.05,-0.3 72.23,-0.03 108.29,-0.03l-2.04 -24.09 -145.26 -0.64c-44.8,0.86 -33.94,2.28 -46.25,11.01z"/>
   <path class="fil3" d="M613.61 4338.26c-34.43,-14.93 -77.74,-0.95 -51.59,41.24 15.24,24.57 66.96,25.17 51.59,-41.24z"/>
   <path class="fil3" d="M251.87 4190.13c67.87,0.4 55.15,-52.65 25.58,-60.6 -41.68,-11.21 -47.95,30.24 -25.58,60.6z"/>
   <path class="fil3" d="M2974.64 633.34c0,-32.84 5.06,-69.76 -7.83,-93.66 -22.96,11.77 -16.08,2.39 -16.55,45.64 -0.54,48.97 -7.08,43.69 24.38,48.02z"/>
   <path class="fil3" d="M2966.81 525.55c13.4,-24.84 11.04,-71.19 0,-95.18 -22.54,14.95 -16.75,5.82 -16.54,49.69 0.21,43 -6.12,33.93 16.54,45.49z"/>
   <path class="fil3" d="M2966.81 411.66c12.64,-24.98 11.79,-70.56 0,-95.13 -22.52,13.91 -16.61,5.02 -16.54,48.32 0.08,42.96 -6.03,34.14 16.54,46.81z"/>
   <path class="fil4" d="M3104.69 3828.27l-20.41 -3.14c-85.85,7.49 -96.28,-35.49 -36.47,-69.07 14.66,-8.23 9.83,-4.97 19.23,-14.68 -134.41,17.81 -42.79,143.64 37.65,86.89z"/>
   <path class="fil2" d="M3326.14 4066.6c-0.25,-39.27 -6.7,-48.79 -29.36,-69.67 -18.03,-16.61 -36.13,-37.86 -58.08,-50.75 13.37,29.18 65.69,101.62 87.44,120.42z"/>
   <path class="fil2" d="M3228.36 4021.66c16.27,21.59 57.85,86 82.35,101.81 9.84,-20.35 -14.49,-47.09 -27.87,-63.35 -17.79,-21.62 -28.69,-25.68 -54.48,-38.46z"/>
   <path class="fil3" d="M3228.36 4021.66c25.79,12.78 36.69,16.84 54.48,38.46 13.38,16.26 37.71,43 27.87,63.35 -24.5,-15.81 -66.08,-80.22 -82.35,-101.81zm97.78 44.94c-21.75,-18.8 -74.07,-91.24 -87.44,-120.42 21.95,12.89 40.05,34.14 58.08,50.75 22.66,20.88 29.11,30.4 29.36,69.67zm-41.65 -180.69c31.74,10.28 144,170.06 149.35,218.07 3.72,33.43 -22.74,112.75 -34.54,143.48 -22.87,59.51 -17.54,106.36 -16.64,173.56l-112.77 0.03c-2.31,-28.41 -5.47,-89.48 -11.27,-112.87 -5.71,-22.98 -32.16,-40.69 -47.59,-70.93 -15.81,-30.98 -36.14,-92.04 -57.6,-117.93 -18.11,-21.85 -20.05,-8.09 -25.61,-37.64 70.09,-10.32 93.52,101.8 161.78,117.54 31.95,-23.37 78.3,-98.17 68.04,-157.79 -10.04,-58.36 -77.99,-94.36 -73.15,-155.52zm-28.28 30.6c-56.09,0.76 -55.51,30.04 -29.4,66.51l-33.23 21.86c0.58,63.34 99.36,105.82 94.23,159.61 -39.9,-7.04 -137.33,-181.02 -184.51,-92.34 -13.71,43.62 20.72,47.24 39.75,78.5 14.78,24.28 26.29,63.95 40.65,92.89 57.91,116.66 36.42,-18.75 61.46,199.59 35.45,13.87 123.32,6.27 165.67,5.11 0.28,-66.27 -7.94,-131.55 13.62,-190.03 56.94,-154.47 49.63,-171.02 -42.14,-304.64 -26.81,-39.04 -59.92,-102.56 -114.66,-97.1 -7.63,18.03 -11.85,34.07 -11.44,60.04z"/>
   <path class="fil3" d="M3305.39 3743.47c29.6,31.74 63.43,-34.11 167.91,-39.41 71.28,-3.62 137.73,35.1 127.96,109.9 -22.92,175.59 -307.66,-114.47 -495.2,-116.97 -232.76,-3.1 -188.29,304.92 123.09,119.97 25.18,-14.96 26.18,-11.88 23.11,-36.41 -40.21,-5.09 -73.01,50.59 -162.21,66.1 -99.95,17.37 -137.23,-55.96 -72.16,-100.17 106.41,-72.29 269.76,36.32 344.27,79.57 41.84,24.27 105.12,65.23 160.72,69.68 72.89,5.84 124.13,-51.96 101.94,-128.34 -16.17,-55.65 -71.78,-92.18 -145.32,-90.7 -48.62,0.97 -158.11,30.16 -174.11,66.78z"/>
  </g>
 </g>
</svg>
