<?xml version="1.0" encoding="UTF-8"?>
<!DOCTYPE svg PUBLIC "-//W3C//DTD SVG 1.1//EN" "http://www.w3.org/Graphics/SVG/1.1/DTD/svg11.dtd">
<!-- Creator: CorelDRAW 2017 -->
<svg xmlns="http://www.w3.org/2000/svg" xml:space="preserve" width="46.5666mm" height="30.7338mm" version="1.1" style="shape-rendering:geometricPrecision; text-rendering:geometricPrecision; image-rendering:optimizeQuality; fill-rule:evenodd; clip-rule:evenodd"
viewBox="0 0 4656.66 3073.38"
 xmlns:xlink="http://www.w3.org/1999/xlink">
 <defs>
  <style type="text/css">
   <![CDATA[
    .fil0 {fill:none}
    .fil9 {fill:#017DBB}
    .fil1 {fill:#128D8F}
    .fil5 {fill:#2A3637}
    .fil6 {fill:#53352D}
    .fil2 {fill:#945345}
    .fil7 {fill:#A67B54}
    .fil3 {fill:#E77364}
    .fil4 {fill:#EC6F35}
    .fil8 {fill:#F1AC62}
   ]]>
  </style>
 </defs>
 <g id="Capa_x0020_1">
  <metadata id="CorelCorpID_0Corel-Layer"/>
  <rect class="fil0" y="-0" width="4656.66" height="3073.39"/>
  <rect class="fil0" y="-0" width="4656.66" height="3073.39"/>
  <g id="_2924047721920">
   <path class="fil1" d="M1728.47 2038.01c-16.97,-25.77 -46.47,-35.21 -78.11,-52 -47.42,-25.17 -157.13,-91.89 -192.95,-127.53 -44.74,-44.49 -152.02,-153.46 9.22,-157.43 93.25,-2.29 148.22,1.28 143.99,-106.28 -153.25,-31.62 -127.45,-53.67 -214.49,-72.24 16.73,20.19 18.38,15.74 45.6,25.59l157.8 68.02c-42.26,115.41 -110.89,60.16 -170.6,73.38 -143.4,31.77 4.4,168.93 52.74,208.98 43.41,35.94 182.47,123.28 246.8,139.51z"/>
   <path class="fil1" d="M2330.14 963.35c-32.3,13.14 -59.84,58.9 -116.06,27.99 -35.39,-19.45 -42.93,-70.83 -27.45,-110.43 17.63,7.57 12.22,-5.7 18.53,25.8 2.02,10.11 1.08,72.07 56.79,60.02 43.51,-9.42 41.45,-56.51 70.09,-81.45 15.74,23.4 3.36,51.18 -2.07,78.57 25.61,-29.25 49.01,-67.86 4.9,-95.39 -35.18,8.46 -26.63,23.74 -40.35,55.09 -12.9,29.48 -64.82,51.61 -74.01,-8.18 -2.61,-17.03 -1.55,-30.39 -5.7,-45.84 -64.88,-24.81 -64.11,76.51 -22.8,120.59 38.27,40.83 121.87,30.71 138.13,-26.77z"/>
   <path class="fil1" d="M1496.1 2224.87c-19,8.56 -11.36,-0.45 -20.26,23.94l-28.5 81.91c-27.2,93.01 -14.35,101.4 25.83,100.47 21.85,-57.11 75.31,-251.51 104.28,-286.58 31,0.08 153.13,14.18 171.89,10.16 -24.34,-18.39 -138.66,-26.07 -180.61,-26.78 -15.65,45.61 -37.65,98.45 -55.43,152.25l-39.87 117.32c-9.03,23.68 -2.99,18.08 -25.62,23.32 1.37,-83.22 40.05,-124.82 48.29,-196.01z"/>
   <path class="fil1" d="M2997.65 987.35c42.24,-18.63 3.29,-45.78 42.22,-52.66 47.82,85.08 -117.31,180.23 -169.92,64.83 -15.26,-33.47 -15.83,-67.78 12.61,-80.66 14.13,19.21 13.16,63.97 26.32,82.8 20.11,28.79 62.06,28.22 77.98,-2.8 -27.79,11.19 -45.88,7.32 -70.34,0.58 -11.39,-31.22 -5.16,-60.42 -24.99,-90.99l-28.33 0.65c-42.05,79.07 20.84,166.07 99.1,157.29 65.58,-7.36 160,-137.78 57.72,-144.51l-22.37 65.47z"/>
   <path class="fil1" d="M1786.68 2124.68c1.03,0.28 12.83,2.32 14.66,2.52 30.33,3.39 62.27,0.19 83.14,-21.61 -10.54,-24.49 -58.45,-35.23 -85.64,-39.51 -14.73,11.74 -25.8,28.99 -30.57,51.16l18.41 7.44z"/>
   <path class="fil2" d="M2452.22 1468.12c-21.12,-4.53 -10.18,-3.31 -24.12,-26.01 -24.83,-0.02 -47.95,4.58 -73.16,7.45 -50.88,5.77 -32.06,-0.31 -49.41,31.38l-25.64 -14.89 8.31 -33.24 -16.18 13.38c10.39,58.99 82.85,70.95 136.76,52.09 9.2,-3.22 16.18,-5.68 24.12,-10.87l19.32 -19.29z"/>
   <path class="fil2" d="M1794.63 1561.94c28.66,32.08 125.77,26.49 154.1,-4.66l-22.18 2.78c3.87,-6.93 6.29,-10.84 7.5,-16.19 2.41,-10.57 1.26,-4.42 -1.2,-10.42l-53.82 0.85 -72.81 -0.2c-23.87,1.96 -10.87,-0.24 -18.54,6.46 5.92,17.46 0.77,11.9 18.28,20.14l-11.33 1.24z"/>
   <path class="fil2" d="M2449.25 1400.74c1.21,0.98 3.1,0.88 3.66,2.92 0.56,1.98 2.79,2.26 3.54,2.9 22.71,19.44 18.27,13.69 17.38,43.67 1.51,-0.92 3.67,-4.25 4.54,-2.75l23.21 -3.75 1.24 29.21c10.97,-6.29 14.99,0.37 11.23,-23.22 -0.68,-4.31 -9.66,-20.93 -13.03,-28.76 -10.6,-24.6 -7.27,-34.4 -31.65,-43.04l-7.39 0.02 15.3 25.1 -28.03 -2.3z"/>
   <path class="fil2" d="M2370.41 1615.58c29.59,-1.33 29.81,0.45 32.62,-28.86l-29.81 4.12 -2.81 24.74z"/>
   <path class="fil2" d="M2122 1532.09c27.18,0.87 25.2,-0.83 28.65,-27.55l-26.83 2.64 -1.82 24.91z"/>
   <path class="fil3" d="M2089.03 1657.57c-11.26,21.74 -14.68,24.11 -14.72,50.92 25.31,-11.19 12.52,-14.63 50.6,-15.6 27.07,-0.68 36.91,-2.11 61.37,-9.58 83.19,-25.37 21.93,28.24 102.1,-2.81 11.03,-24.11 10.18,-16.77 -26.84,-46.8 -0.97,-0.79 -2.73,-2.11 -3.95,-3.32 -30.45,-0.04 -59.14,-12.64 -97.15,-6.95 -19.41,2.92 -61.78,21.68 -71.41,34.14z"/>
   <path class="fil3" d="M2288.2 1432.81l-8.31 33.24 25.64 14.89c17.35,-31.69 -1.47,-25.61 49.41,-31.38 25.21,-2.87 48.33,-7.47 73.16,-7.45 13.94,22.7 3,21.48 24.12,26.01l21.61 -17.89c0.89,-29.98 5.33,-24.23 -17.38,-43.67 -0.75,-0.64 -2.98,-0.92 -3.54,-2.9 -0.56,-2.04 -2.45,-1.94 -3.66,-2.92 -39.66,-6.93 -52.25,-9.13 -91.24,-2.01 -40.42,7.37 -52.01,10.43 -69.81,34.08z"/>
   <path class="fil3" d="M1806.22 1534.1l72.81 0.2 61.28 -12.21c7.93,16.36 5.21,16.34 22.93,23.05 21.62,-13.25 21.26,-8.6 24.31,-39.53 -24.54,-21.09 -67.77,-28.78 -106.92,-23.68 -17.9,2.33 -35.46,7.77 -52.32,12.11 -53.69,13.85 -38.91,13.47 -44.1,23.22 13.25,17.62 0.65,5.57 22.01,16.84z"/>
   <path class="fil4" d="M2096.42 1842.14c27.2,1.05 34.17,-2.9 38.3,-26.92 -29.75,-1.56 -34.72,-1.78 -38.3,26.92z"/>
   <path class="fil4" d="M2093.91 1420.31c26.8,0.21 27.92,0.01 27.13,-27.12 -24.3,-2.86 -30.51,2.56 -27.13,27.12z"/>
   <path class="fil5" d="M1768.27 2117.24c4.77,-22.17 15.84,-39.42 30.57,-51.16 27.19,4.28 75.1,15.02 85.64,39.51 -20.87,21.8 -52.81,25 -83.14,21.61 -1.83,-0.2 -13.63,-2.24 -14.66,-2.52l-18.41 -7.44zm-613.72 -384.45l1.82 17.87c55.67,-20.69 49.97,-114.71 78.48,-168 22.16,-41.41 93.39,-89.14 161.28,-60.13 87.04,18.57 61.24,40.62 214.49,72.24 4.23,107.56 -50.74,103.99 -143.99,106.28 -161.24,3.97 -53.96,112.94 -9.22,157.43 35.82,35.64 145.53,102.36 192.95,127.53 31.64,16.79 61.14,26.23 78.11,52l37.41 12.98c-36.8,105.71 -196.76,37.03 -265.07,3.24 -42.15,-20.84 -78.65,-40.12 -117.98,-62.86 -33.17,-19.16 -86.02,-53.99 -125.61,-61.23 16.05,49.73 73.48,79.53 122.68,105.09 48.27,25.08 110.18,60.06 152.09,79.89l-35.89 109.75c-8.24,71.19 -46.92,112.79 -48.29,196.01 22.63,-5.24 16.59,0.36 25.62,-23.32l39.87 -117.32c17.78,-53.8 39.78,-106.64 55.43,-152.25 41.95,0.71 156.27,8.39 180.61,26.78 77.09,-8.81 264.24,42.91 277.22,-48.37 -32.5,-25.93 -135.38,-47.02 -181.76,-64.14 -55.86,-20.62 -118.46,-50.2 -166.03,-78.69 -45.74,-27.38 -266.59,-152.53 -263.38,-218.38 44.83,-22.46 120.83,1.92 168.9,-23.2 75.94,-39.7 67.76,-32.95 120.86,22.83 39.44,41.44 53.62,51.62 128.08,64.24 68.58,11.63 83.95,21.38 133.74,49.05 53.37,23.02 51.26,64.84 136.86,69.1 -11.18,-24.49 -14.58,-15.72 -26.3,-33.13 -34.88,-13.8 -47.96,-24.31 -71.18,-48.33 -99.47,-102.88 -194.48,-40.42 -262.67,-104.39 -25.89,-24.29 -28.88,-41.74 -62.58,-59.75 -56.66,-30.26 -24.89,-29.39 -42.89,-79.62 -18.4,-51.38 -120.48,-52.38 -152.21,-89.88 70.02,-45.39 499.58,-144.02 628.44,-174.26 92.44,-21.69 116.96,-55.23 216.53,-21.14 224.8,76.55 272.68,10.27 392.87,38.13 133.08,30.84 88,220.2 -28.48,245.22 17.99,-56.44 76.41,-66.19 80.53,-127.48 -29.63,12.77 -136.7,122.86 -170.77,157.49 -27.74,28.19 -49.19,58.85 -77.2,86.11 -104.43,101.63 -322.92,348.76 -438.17,379.44l-40.37 14.32c36.6,94.18 268.53,-142.84 312.31,-181.36 85.72,-75.44 114.05,-114.37 185.57,-181.45 18.58,-17.44 74.99,-72.94 95.91,-84.72 45.72,-25.74 168.67,-39.63 191.47,-175.23 22.49,-133.76 -72.1,-167.99 -190.81,-167.52 -161.26,0.63 -182.06,13.36 -324.87,-42.99 -120.21,-47.42 -458.08,117.25 -596.73,113.96 -98,-429.92 130.95,-857.54 361.18,-1027.65 307.65,-227.33 716.94,-291.73 1125.58,-121.55 301.09,125.4 564.82,420.89 585.56,844.7 18.41,376.02 -180.99,611.26 -428.38,827.26 -32.09,28.02 -79.58,41.7 -84.99,90.75l38.36 -11.15c37.24,-3.89 182.33,-147.42 199.66,-165.43 16.77,-17.42 22.37,-28.65 40.71,-46.68 94.17,-92.62 210.57,-279.16 243.29,-403.35 80.18,-304.42 11.11,-634.5 -178.85,-869.85 -107.55,-133.23 -259.21,-239.99 -431.32,-308.57 -377.49,-150.4 -889.74,-118.87 -1191.74,186.6l-89.3 97.12c-137.07,174.34 -219.3,355.22 -248.24,584.81 -23.15,183.72 22.72,263.43 24.39,338.94 -73.93,17.22 -191.47,74.81 -244.43,76 -36.24,0.82 -75.26,-2.11 -111.15,-0.44 -144.64,6.74 -180.09,228.12 -178.01,250.65z"/>
   <path class="fil5" d="M1782.12 2944.4c8.09,-107.84 49.7,-382.1 22.9,-471.11 -33.78,19.8 -24.71,92.2 -25.58,139.36 -1.28,69.09 -7.44,74.33 -64.53,96.4 -79.16,30.6 -166.49,53.76 -251.86,74.63 -182.62,44.65 -407.67,80.8 -529.87,-45.68 -115.77,-119.8 -70.27,-370.07 -17,-524.62 78.79,-228.65 200.34,-347.71 229.66,-422.17l-28.68 -5.76c-21.27,30.91 -40.46,57.61 -63.25,87.98 -148.57,197.98 -299.97,560.62 -202.41,806.5 104.33,262.97 460.71,181.4 674.76,125.93 83.59,-21.67 153.79,-51.63 237.63,-71.16 0,41.71 -6.1,60.49 -5.87,104.81 0.2,38.84 0.04,77.71 0.04,116.54 15.91,-3.7 12.92,-2.79 24.06,-11.65z"/>
   <path class="fil5" d="M3691.41 2950.23c38.32,-0.8 31.37,-13.45 35.23,-53.18 3.36,-34.5 -1.42,-56.62 -4.23,-81.65 -2.84,-25.22 -0.82,-60.41 -0.72,-86.66 0.41,-100.23 -24.73,-282.52 -69.98,-372.73 -128.89,-256.91 -350.47,-261.65 -390.44,-313.28 -9.66,-8.11 -11.21,-11.76 -29.32,-15.84 -5.38,59 22.83,62.72 87.71,90.22 443.04,187.88 325.76,486.51 371.75,833.12z"/>
   <path class="fil5" d="M3165.3 2950.23c5.98,6.79 10.34,10.38 14.09,11.65l6.34 0c4.47,-1.55 8.92,-6.14 15.69,-11.65 11.12,-88.22 28.36,-297.01 21.09,-390.63l-13.67 -46.25c-38.23,26.19 -22.56,159.83 -27.57,215.53 -6.15,68.35 -23.85,155.45 -15.97,221.35z"/>
   <path class="fil5" d="M2997.65 987.35c-7.89,15.74 -0.45,7.48 -10.79,11.51 -15.92,31.02 -57.87,31.59 -77.98,2.8 -13.16,-18.83 -12.19,-63.59 -26.32,-82.8 -28.44,12.88 -27.87,47.19 -12.61,80.66 52.61,115.4 217.74,20.25 169.92,-64.83 -38.93,6.88 0.02,34.03 -42.22,52.66z"/>
   <path class="fil5" d="M2330.14 963.35l-0.17 0.5c5.43,-27.39 17.81,-55.17 2.07,-78.57 -28.64,24.94 -26.58,72.03 -70.09,81.45 -55.71,12.05 -54.77,-49.91 -56.79,-60.02 -6.31,-31.5 -0.9,-18.23 -18.53,-25.8 -15.48,39.6 -7.94,90.98 27.45,110.43 56.22,30.91 83.76,-14.85 116.06,-27.99z"/>
   <path class="fil6" d="M2380.57 1674.8c-17.55,30.5 -49.12,53.7 -74.81,75.65 -29.62,25.3 -47.86,44.86 -81.26,67.45 -17.73,9.25 -24.14,17.55 -34.35,30.36 -8.71,17.65 -9.25,20.35 -29.55,24.77l-11.45 24.71c49.92,-14.4 128.83,-88.21 164.53,-116.33l294.97 -252.46c31.36,-28.64 130.85,-102.58 132.07,-137.82l-23.54 0.07c-8.48,6.16 -12.11,6.44 -21.1,15.02l-61.69 55.12c-74.01,63.41 -90.6,73.1 -168.17,146.3 -11.07,10.45 -70.61,63.98 -85.65,67.16z"/>
   <path class="fil6" d="M2025.35 1546.01l-3.34 -34.39c-38.52,5.08 -19.98,38.82 -73.28,45.66 -28.33,31.15 -125.44,36.74 -154.1,4.66 -18.85,-3.83 -15.13,-6.12 -31.77,-13.57 1.14,-73.47 110.21,-82.67 165.37,-72.58 31.29,5.73 46.27,17.74 61.47,-6.89 -66.19,-53.19 -310.88,-18.91 -256.06,95.12 36.83,76.63 259.77,60.02 291.71,-18.01z"/>
   <path class="fil6" d="M2211.1 1767.65c46.59,-27.82 106.44,-21.42 111.62,-97.41l-34.34 10.26c-11.62,36.34 -98.79,63.34 -139.95,63.25 -68.49,-0.15 -131.98,-51.29 -59.4,-86.18 9.63,-12.46 52,-31.22 71.41,-34.14 38.01,-5.69 66.7,6.91 97.15,6.95l30.59 3.12 1.72 -15.71c-69.68,-51.72 -209.04,-11.87 -247.73,37.97 -33.91,43.69 -10.21,84.22 28.08,102.74 51.95,25.12 85.7,16.23 140.85,9.15z"/>
   <path class="fil6" d="M2300.78 1376.46c-27.03,17.09 -58.79,35.62 -60.42,76.76 -1.49,37.89 30.82,65.31 59.17,75.85 73.33,27.26 181.6,-2.84 203.29,-56.13l-1.24 -29.21 -23.21 3.75c-0.87,-1.5 -3.03,1.83 -4.54,2.75l-21.61 17.89 -19.32 19.29c-7.94,5.19 -14.92,7.65 -24.12,10.87 -53.91,18.86 -126.37,6.9 -136.76,-52.09l16.18 -13.38c17.8,-23.65 29.39,-26.71 69.81,-34.08 38.99,-7.12 51.58,-4.92 91.24,2.01l28.03 2.3 -15.3 -25.1c-48.65,-19.9 -110.14,-11.29 -161.2,-1.48z"/>
   <path class="fil6" d="M2077.15 1956.43c-8.39,10.32 -6.53,9.5 -9.06,25.56 -0.47,79.6 -1.14,78.61 27.9,78.31 8.32,-10.73 3.14,2.48 6.09,-13.81 1.72,-9.51 0.57,-6.26 -0.24,-15.37 -5.65,-64.04 -2.37,-21.61 5.75,-84.69l-30.44 10z"/>
   <path class="fil7" d="M2300.78 1376.46c51.06,-9.81 112.55,-18.42 161.2,1.48l7.39 -0.02c21.13,-13.26 223.88,-18.55 261.1,-14.12 -5.22,14.33 -2.64,6.65 -5.96,13.36 -5.46,11.05 0.89,-2.97 -7.33,14.04l23.54 -0.07c-1.22,35.24 -100.71,109.18 -132.07,137.82l-294.97 252.46c-35.7,28.12 -114.61,101.93 -164.53,116.33l11.45 -24.71c-53.89,22.73 -20.88,41.62 -83.07,21.05 11.72,17.41 15.12,8.64 26.3,33.13 -85.6,-4.26 -83.49,-46.08 -136.86,-69.1 6.47,16.15 0.75,5.08 10.02,16.85l36.28 33.75c20.17,14.59 37.29,27.83 68.42,30.61l-4.54 17.11 30.44 -10c-8.12,63.08 -11.4,20.65 -5.75,84.69 0.81,9.11 1.96,5.86 0.24,15.37 -2.95,16.29 2.23,3.08 -6.09,13.81 -29.04,0.3 -28.37,1.29 -27.9,-78.31 -9.71,6.27 -9.2,5.1 -18.15,13.02 -0.77,21.22 1.7,42.9 10.51,58.78 17.88,32.21 24.14,7.01 29.3,41.83 115.25,-30.68 333.74,-277.81 438.17,-379.44 28.01,-27.26 49.46,-57.92 77.2,-86.11 34.07,-34.63 141.14,-144.72 170.77,-157.49 -4.12,61.29 -62.54,71.04 -80.53,127.48 116.48,-25.02 161.56,-214.38 28.48,-245.22 -120.19,-27.86 -168.07,38.42 -392.87,-38.13l16.31 32.94 -46.5 26.81z"/>
   <path class="fil7" d="M2288.38 1680.5c-80.17,31.05 -18.91,-22.56 -102.1,2.81 -24.46,7.47 -34.3,8.9 -61.37,9.58 -38.08,0.97 -25.29,4.41 -50.6,15.6 0.04,-26.81 3.46,-29.18 14.72,-50.92 -72.58,34.89 -9.09,86.03 59.4,86.18 41.16,0.09 128.33,-26.91 139.95,-63.25z"/>
   <path class="fil7" d="M1794.63 1561.94l11.33 -1.24c-17.51,-8.24 -12.36,-2.68 -18.28,-20.14 7.67,-6.7 -5.33,-4.5 18.54,-6.46 -21.36,-11.27 -8.76,0.78 -22.01,-16.84 5.19,-9.75 -9.59,-9.37 44.1,-23.22 16.86,-4.34 34.42,-9.78 52.32,-12.11 39.15,-5.1 82.38,2.59 106.92,23.68 -3.05,30.93 -2.69,26.28 -24.31,39.53 -17.72,-6.71 -15,-6.69 -22.93,-23.05l-61.28 12.21 53.82 -0.85c2.46,6 3.61,-0.15 1.2,10.42 -1.21,5.35 -3.63,9.26 -7.5,16.19l22.18 -2.78c53.3,-6.84 34.76,-40.58 73.28,-45.66l3.34 34.39c27.04,-11.71 7.95,-31.97 -1.6,-43.63 -4.87,-5.93 -11.21,-13.62 -16.33,-18.84 -11.19,-11.41 -4.35,-6.26 -17.72,-14.64 -15.2,24.63 -30.18,12.62 -61.47,6.89 -55.16,-10.09 -164.23,-0.89 -165.37,72.58 16.64,7.45 12.92,9.74 31.77,13.57z"/>
   <path class="fil7" d="M2257.59 1630.38c1.22,1.21 2.98,2.53 3.95,3.32 37.02,30.03 37.87,22.69 26.84,46.8l34.34 -10.26c-5.18,75.99 -65.03,69.59 -111.62,97.41l46.63 1.1c-12.66,32.85 -20.64,29.5 -33.23,49.15 33.4,-22.59 51.64,-42.15 81.26,-67.45 25.69,-21.95 57.26,-45.15 74.81,-75.65 -18.72,13.73 -14.34,16.25 -34.04,22.97l-28.36 -41.33c-17.61,-22.85 -6.03,-25.91 -28.27,-38.65l-1.72 15.71 -30.59 -3.12z"/>
   <path class="fil7" d="M2160.6 1873.03c20.3,-4.42 20.84,-7.12 29.55,-24.77 -11.17,5.48 -5.2,-0.54 -19.3,11.91 -18.55,16.36 -1.92,0.03 -10.25,12.86z"/>
   <path class="fil8" d="M2096.42 1842.14c3.58,-28.7 8.55,-28.48 38.3,-26.92 -4.13,24.02 -11.1,27.97 -38.3,26.92zm273.99 -226.56l2.81 -24.74 29.81 -4.12c-2.81,29.31 -3.03,27.53 -32.62,28.86zm-380.71 -146.68c13.37,8.38 6.53,3.23 17.72,14.64 5.12,5.22 11.46,12.91 16.33,18.84 9.55,11.66 28.64,31.92 1.6,43.63 -31.94,78.03 -254.88,94.64 -291.71,18.01 -54.82,-114.03 189.87,-148.31 256.06,-95.12zm-387.67 62.49c4.01,-23.17 8.42,-23.86 31.11,-22.99l-1.29 27.88 -29.82 -4.89zm519.97 0.7l1.82 -24.91 26.83 -2.64c-3.45,26.72 -1.47,28.42 -28.65,27.55zm-28.09 -111.78c-3.38,-24.56 2.83,-29.98 27.13,-27.12 0.79,27.13 -0.33,27.33 -27.13,27.12zm-16.38 473.77c62.19,20.57 29.18,1.68 83.07,-21.05 8.33,-12.83 -8.3,3.5 10.25,-12.86 14.1,-12.45 8.13,-6.43 19.3,-11.91 10.21,-12.81 16.62,-21.11 34.35,-30.36 12.59,-19.65 20.57,-16.3 33.23,-49.15l-46.63 -1.1c-55.15,7.08 -88.9,15.97 -140.85,-9.15 -38.29,-18.52 -61.99,-59.05 -28.08,-102.74 38.69,-49.84 178.05,-89.69 247.73,-37.97 22.24,12.74 10.66,15.8 28.27,38.65l28.36 41.33c19.7,-6.72 15.32,-9.24 34.04,-22.97 15.04,-3.18 74.58,-56.71 85.65,-67.16 77.57,-73.2 94.16,-82.89 168.17,-146.3l61.69 -55.12c8.99,-8.58 12.62,-8.86 21.1,-15.02 8.22,-17.01 1.87,-2.99 7.33,-14.04 3.32,-6.71 0.74,0.97 5.96,-13.36 -37.22,-4.43 -239.97,0.86 -261.1,14.12 24.38,8.64 21.05,18.44 31.65,43.04 3.37,7.83 12.35,24.45 13.03,28.76 3.76,23.59 -0.26,16.93 -11.23,23.22 -21.69,53.29 -129.96,83.39 -203.29,56.13 -28.35,-10.54 -60.66,-37.96 -59.17,-75.85 1.63,-41.14 33.39,-59.67 60.42,-76.76l46.5 -26.81 -16.31 -32.94c-99.57,-34.09 -124.09,-0.55 -216.53,21.14 -128.86,30.24 -558.42,128.87 -628.44,174.26 31.73,37.5 133.81,38.5 152.21,89.88 18,50.23 -13.77,49.36 42.89,79.62 33.7,18.01 36.69,35.46 62.58,59.75 68.19,63.97 163.2,1.51 262.67,104.39 23.22,24.02 36.3,34.53 71.18,48.33z"/>
   <path class="fil8" d="M2026.56 2106.4l22.82 3.54 40.37 -14.32c-5.16,-34.82 -11.42,-9.62 -29.3,-41.83 -8.81,-15.88 -11.28,-37.56 -10.51,-58.78 8.95,-7.92 8.44,-6.75 18.15,-13.02 2.53,-16.06 0.67,-15.24 9.06,-25.56l4.54 -17.11c-31.13,-2.78 -48.25,-16.02 -68.42,-30.61l-36.28 -33.75c-9.27,-11.77 -3.55,-0.7 -10.02,-16.85 -49.79,-27.67 -65.16,-37.42 -133.74,-49.05 -74.46,-12.62 -88.64,-22.8 -128.08,-64.24 -53.1,-55.78 -44.92,-62.53 -120.86,-22.83 -48.07,25.12 -124.07,0.74 -168.9,23.2 -3.21,65.85 217.64,191 263.38,218.38 47.57,28.49 110.17,58.07 166.03,78.69 46.38,17.12 149.26,38.21 181.76,64.14z"/>
   <path class="fil9" d="M2986.86 998.86c10.34,-4.03 2.9,4.23 10.79,-11.51l22.37 -65.47c102.28,6.73 7.86,137.15 -57.72,144.51 -78.26,8.78 -141.15,-78.22 -99.1,-157.29l28.33 -0.65c19.83,30.57 13.6,59.77 24.99,90.99 24.46,6.74 42.55,10.61 70.34,-0.58zm-656.89 -35.01l0.17 -0.5c-16.26,57.48 -99.86,67.6 -138.13,26.77 -41.31,-44.08 -42.08,-145.4 22.8,-120.59 4.15,15.45 3.09,28.81 5.7,45.84 9.19,59.79 61.11,37.66 74.01,8.18 13.72,-31.35 5.17,-46.63 40.35,-55.09 44.11,27.53 20.71,66.14 -4.9,95.39zm-280.59 1146.09l-22.82 -3.54c-12.98,91.28 -200.13,39.56 -277.22,48.37 -18.76,4.02 -140.89,-10.08 -171.89,-10.16 -28.97,35.07 -82.43,229.47 -104.28,286.58 -40.18,0.93 -53.03,-7.46 -25.83,-100.47l28.5 -81.91c8.9,-24.39 1.26,-15.38 20.26,-23.94l35.89 -109.75c-41.91,-19.83 -103.82,-54.81 -152.09,-79.89 -49.2,-25.56 -106.63,-55.36 -122.68,-105.09 39.59,7.24 92.44,42.07 125.61,61.23 39.33,22.74 75.83,42.02 117.98,62.86 68.31,33.79 228.27,102.47 265.07,-3.24l-37.41 -12.98c-64.33,-16.23 -203.39,-103.57 -246.8,-139.51 -48.34,-40.05 -196.14,-177.21 -52.74,-208.98 59.71,-13.22 128.34,42.03 170.6,-73.38l-157.8 -68.02c-27.22,-9.85 -28.87,-5.4 -45.6,-25.59 -67.89,-29.01 -139.12,18.72 -161.28,60.13 -28.51,53.29 -22.81,147.31 -78.48,168l-1.82 -17.87c-7.81,6.65 -3.11,1.5 -9.95,9.48 -6.34,7.39 -5.89,7.35 -9.96,13.99 -6.49,10.58 -10.61,18.66 -17.48,29.19l28.68 5.76c-29.32,74.46 -150.87,193.52 -229.66,422.17 -53.27,154.55 -98.77,404.82 17,524.62 122.2,126.48 347.25,90.33 529.87,45.68 85.37,-20.87 172.7,-44.03 251.86,-74.63 57.09,-22.07 63.25,-27.31 64.53,-96.4 0.87,-47.16 -8.2,-119.56 25.58,-139.36 26.8,89.01 -14.81,363.27 -22.9,471.11 235.72,0 452.39,5.83 686.76,5.83 232.14,0 464.28,0 696.42,0 -7.88,-65.9 9.82,-153 15.97,-221.35 5.01,-55.7 -10.66,-189.34 27.57,-215.53l13.67 46.25c7.27,93.62 -9.97,302.41 -21.09,390.63l489.99 0c-45.99,-346.61 71.29,-645.24 -371.75,-833.12 -64.88,-27.5 -93.09,-31.22 -87.71,-90.22 18.11,4.08 19.66,7.73 29.32,15.84 3.63,-47.38 34.41,-9.97 58.27,-49.74l-38.36 11.15c5.41,-49.05 52.9,-62.73 84.99,-90.75 247.39,-216 446.79,-451.24 428.38,-827.26 -20.74,-423.81 -284.47,-719.3 -585.56,-844.7 -408.64,-170.18 -817.93,-105.78 -1125.58,121.55 -230.23,170.11 -459.18,597.73 -361.18,1027.65 138.65,3.29 476.52,-161.38 596.73,-113.96 142.81,56.35 163.61,43.62 324.87,42.99 118.71,-0.47 213.3,33.76 190.81,167.52 -22.8,135.6 -145.75,149.49 -191.47,175.23 -20.92,11.78 -77.33,67.28 -95.91,84.72 -71.52,67.08 -99.85,106.01 -185.57,181.45 -43.78,38.52 -275.71,275.54 -312.31,181.36z"/>
  </g>
 </g>
</svg>
