<?xml version="1.0" encoding="UTF-8"?>
<!DOCTYPE svg PUBLIC "-//W3C//DTD SVG 1.1//EN" "http://www.w3.org/Graphics/SVG/1.1/DTD/svg11.dtd">
<!-- Creator: CorelDRAW 2017 -->
<svg xmlns="http://www.w3.org/2000/svg" xml:space="preserve" width="46.5666mm" height="30.7338mm" version="1.1" style="shape-rendering:geometricPrecision; text-rendering:geometricPrecision; image-rendering:optimizeQuality; fill-rule:evenodd; clip-rule:evenodd"
viewBox="0 0 4656.66 3073.38"
 xmlns:xlink="http://www.w3.org/1999/xlink">
 <defs>
  <style type="text/css">
   <![CDATA[
    .fil0 {fill:none}
    .fil4 {fill:#2A3637}
    .fil5 {fill:#53352D}
    .fil1 {fill:#945345}
    .fil6 {fill:#A67B54}
    .fil2 {fill:#E77364}
    .fil3 {fill:#EC6F35}
    .fil7 {fill:#F1AC62}
   ]]>
  </style>
 </defs>
 <g id="Capa_x0020_1">
  <metadata id="CorelCorpID_0Corel-Layer"/>
  <rect class="fil0" y="-0" width="4656.66" height="3073.39"/>
  <rect class="fil0" y="-0" width="4656.66" height="3073.39"/>
  <g id="_2923923484896">
   <path class="fil1" d="M2494.8 1227.89c-173.52,104.24 84.01,246.19 261.47,118.4 82.35,-59.31 38.18,-85.66 70.6,-126.56 24.73,17.71 23.45,32.41 14.73,68.83 7.01,-7.07 3.37,3.7 10.33,-15.57 2.66,-7.36 3.18,-16.31 2.52,-24.21 -1.59,-18.58 -6.42,-25.32 -16.02,-36.02 -65.49,-0.73 6.74,78.55 -81.48,118.07 -15.2,-10.39 0.94,0.36 -9.55,-9.47 -9.16,-8.6 1.09,-2.13 -9.2,-8.3 -27.82,-16.67 -79.34,32.68 -179.56,30.76 -46.43,-0.89 -130.86,-27.87 -94.95,-79.77 12.74,-18.41 19.4,-15.31 31.11,-36.16z"/>
   <path class="fil1" d="M2036.32 1633.28c0.01,0.26 -13.38,26.27 38.95,27.33 18.41,0.37 43.41,-9.14 60.84,-14.12 52.46,-14.97 71.46,-11.26 86.67,-61.07 -47.9,1.18 -46.43,19.5 -87.57,31.4 -31.23,9.03 -73.82,3.88 -98.89,16.46z"/>
   <path class="fil1" d="M3083.61 1199.08l-18.78 2.51c-2.73,-8.73 -0.66,-6.55 -6.12,-16.9 -0.62,-1.18 -1.52,-2.76 -2.2,-3.91l-8.24 -11.04c-65.14,5.01 -92.14,17.14 -93.77,-22.06 -73.28,60.27 63.64,80.96 106.48,66.99 20.04,-6.53 13.06,-3.56 22.63,-15.59z"/>
   <path class="fil1" d="M2074.7 1890.32c23.7,-2.3 27.05,1.73 34.4,-19.09 -13.59,-14.19 -10.21,-10.92 -32.57,-10.94l-1.83 30.03z"/>
   <path class="fil1" d="M1983.64 1765.49c26.35,2.57 34.78,1.3 30.49,-26.94l-31.54 4.2 1.05 22.74z"/>
   <path class="fil1" d="M1685.16 1198.61l-3.4 28.15c27.67,2.91 31.83,-1.58 31.38,-25.41l-27.98 -2.74z"/>
   <path class="fil2" d="M2036.32 1633.28c25.07,-12.58 67.66,-7.43 98.89,-16.46 41.14,-11.9 39.67,-30.22 87.57,-31.4 -15.21,49.81 -34.21,46.1 -86.67,61.07 -17.43,4.98 -42.43,14.49 -60.84,14.12 -52.33,-1.06 -38.94,-27.07 -38.95,-27.33zm310.7 -131.02c-10.13,-9.57 -15.6,-12.78 -23.31,-19.06 -7.12,-5.82 -4.77,-4.19 -12.36,-10.81l-14.58 -12.25c5.3,36.6 -16.44,6.61 -116.66,6.41 -121.52,-0.24 -265.33,99.18 -198,171.51 44.02,47.3 146.44,36.49 212.25,14.46 74.43,-24.92 113.96,-61.45 128.63,-145.25l24.03 -5.01z"/>
   <path class="fil2" d="M2494.8 1227.89c-11.71,20.85 -18.37,17.75 -31.11,36.16 -35.91,51.9 48.52,78.88 94.95,79.77 100.22,1.92 151.74,-47.43 179.56,-30.76 10.29,6.17 0.04,-0.3 9.2,8.3 10.49,9.83 -5.65,-0.92 9.55,9.47 88.22,-39.52 15.99,-118.8 81.48,-118.07 -24.6,-21.1 -33.37,-46.27 -56.59,-55.07l13.87 23.99c-43.86,8.52 -112.18,-9.27 -170.88,-1.67 -46.67,6.05 -102.87,29.48 -130.03,47.88z"/>
   <path class="fil2" d="M2165.15 1220.18c-7.43,-13.2 -0.25,-6.43 -14.86,-18.04 -7.93,-6.29 -11.89,-7.06 -20.12,-10.9l6.12 18.86c-68.63,-2.03 -89.97,-30.45 -179.01,-17.86 -60.02,8.48 -119.69,19.48 -137.04,67.36 33.46,63.41 136.68,43.35 199.3,31.72 55.19,-10.26 28.94,5.72 55.73,20.82 18.36,-11.26 43.31,-26.29 52.99,-40.17 19.62,-28.12 2.91,-48.08 36.89,-51.79z"/>
   <path class="fil2" d="M2954.5 1147.68c1.63,39.2 28.63,27.07 93.77,22.06l8.24 11.04c0.68,1.15 1.58,2.73 2.2,3.91 5.46,10.35 3.39,8.17 6.12,16.9l18.78 -2.51c28.24,-9.06 19.26,-16.7 56.89,-16.57l-4.7 29.76c13.14,-16.91 10.47,-28.23 9.71,-51.79 -0.14,-4.56 -1.32,-21.78 -2.76,-25.35 -10.43,-25.86 3.21,-10.01 -16.24,-17.53l-0.39 19.41c-32.76,1.3 -58.99,-4.76 -89.56,-4.83 -35.69,-0.09 -51,9.37 -82.06,15.5z"/>
   <path class="fil3" d="M2921.78 1400.51c-17.85,28.28 6.11,18.19 -23.46,47.96l18.28 0.7 6.83 31.24c50.26,-17.39 260.39,-142.72 276.92,-169.69l-1.15 -6.31 -36.85 -14.28c-24.03,5.52 -87.9,50.11 -112.02,64.99 -30.92,19.07 -83.46,55.6 -126.88,56.88l-1.67 -11.49z"/>
   <path class="fil4" d="M1996.16 2016.86c-5.08,-23.52 -6.88,-18.6 -36.88,-19.67 -57.38,-2.07 -77.49,-1.67 -138.82,-11.78 -315.12,-51.93 -436.32,-291.7 -413.93,-603.46 4.08,-56.67 22.29,-113.03 46.51,-156.07 30.14,-53.57 47.01,-80.42 123.81,-83.36l-8.98 -28.55c-139.77,0 -176.19,122.12 -194.39,247.86 -20.26,139.96 -0.16,278.79 47.21,377.45 27.95,58.21 47.95,87.7 90.87,130.5 22.29,22.22 32.47,32.98 58.38,52.3 18.49,13.78 48.38,33.06 68.34,42.37 59.41,27.73 277.33,105.94 357.88,52.41z"/>
   <path class="fil5" d="M1666.27 1113.97c-28.93,19.8 -38.29,3.47 -44.5,27.29 162.74,-0.14 654.99,-32.86 829.95,-48.29 77.26,-6.82 753.64,-70.62 784.96,52.24 29.59,14.04 30.84,62.4 23.09,98.97 -8.53,40.26 -25.6,56.29 -59.42,66.54 -16.53,26.97 -226.66,152.3 -276.92,169.69l-6.83 -31.24 -18.28 -0.7c-36.2,36.65 -1.77,101.49 -65.62,110.78 -11.46,-1.86 -75.19,-119.45 -99.14,-31.7 1.25,0.93 3.2,1.64 4.23,2.02l41.57 9.96c5.86,58.42 -12.27,30.46 -52.96,34.25 -12.3,68.65 4.98,103.02 -29.51,161.39 -38.82,-6.42 -38.51,-30.7 -70.81,-18.29 -60.99,50.93 54.36,239.5 -61.4,278.67 -72.54,-37.04 -35.26,-153.73 -28.83,-234.77 3.77,-47.56 1.01,-91.92 -20.97,-125.19 -24.95,-37.76 -49.35,-24.34 -94.43,-7.59 -79.09,29.37 -340.88,157.44 -362.16,206.09 126.67,-18.74 331.17,-183.99 427.65,-186.01l17.79 77.52c-21.68,26.99 -296.83,178.68 -359.44,208.78 -75.66,36.38 -106.1,36.91 -114.51,70.83 140.4,0 368.1,-207.68 459.16,-209.71 0,48.89 -13.58,59.3 3.1,154.19 22.63,128.69 143.12,106.18 158.68,-15.74 8.11,-63.52 1.36,-97.61 1.36,-161.74 102.06,0 104.87,-40.31 104.87,-139.8 105.12,-70.38 77.38,-11.36 126.15,-48.64 22.37,-17.09 24.79,-29.15 41.4,-45.99 48.39,-49.02 317.97,-165.24 360.37,-262.99 21.67,-49.95 14.86,-100.23 -7.16,-145.55 -66.03,-135.88 -521.32,-90.96 -614.16,-91.17 -70.09,-0.17 -391.65,29.98 -495.05,35.14 -144.74,7.22 -408.28,40.76 -502.23,40.76z"/>
   <path class="fil5" d="M2165.15 1220.18c-33.98,3.71 -17.27,23.67 -36.89,51.79 -9.68,13.88 -34.63,28.91 -52.99,40.17 -26.79,-15.1 -0.54,-31.08 -55.73,-20.82 -62.62,11.63 -165.84,31.69 -199.3,-31.72 17.35,-47.88 77.02,-58.88 137.04,-67.36 89.04,-12.59 110.38,15.83 179.01,17.86l-6.12 -18.86c-36.71,-43.39 -174.2,-60.19 -260.29,-14.48 -23.9,12.68 -43.4,9.84 -71.87,44.54 -82.42,100.5 58.62,190.15 240.33,141.08 57.01,-15.39 180.27,-80.49 126.81,-142.2z"/>
   <path class="fil5" d="M2841.6 1288.56c8.72,-36.42 10,-51.12 -14.73,-68.83 -32.42,40.9 11.75,67.25 -70.6,126.56 -177.46,127.79 -434.99,-14.16 -261.47,-118.4 27.16,-18.4 83.36,-41.83 130.03,-47.88 58.7,-7.6 127.02,10.19 170.88,1.67l-13.87 -23.99c-99.95,-13.94 -172.85,-24.8 -268.74,21.16 -52.25,25.04 -145.32,103.78 -88.87,186.16 55.88,81.52 273.82,81.43 348.66,9.38 23.09,-22.23 63.9,-49.22 68.71,-85.83z"/>
   <path class="fil5" d="M2347.02 1502.26l-24.03 5.01c-14.67,83.8 -54.2,120.33 -128.63,145.25 -65.81,22.03 -168.23,32.84 -212.25,-14.46 -67.33,-72.33 76.48,-171.75 198,-171.51 100.22,0.2 121.96,30.19 116.66,-6.41 -51.46,-18.78 -61.35,-30.53 -128.4,-25.92 -124.37,8.55 -299.44,116.61 -217.35,223.31 68.53,89.08 307.46,32.37 360.78,-33.23 31.91,-39.25 41.89,-62.58 35.22,-122.04z"/>
   <path class="fil5" d="M1647.87 1624.53c-1.31,-45.09 -28.39,-73.24 -29.48,-120.16 -1.11,-47.66 24.28,-81.33 28.63,-124.18 5.35,-52.7 -26.99,-71.11 -29.21,-115.61 -2.27,-45.77 26.09,-104.72 -33.94,-113.77 3.49,42.4 -2.64,116.2 4.49,147.33 14.11,61.67 38.95,33.2 10.24,119.82 -12.78,38.6 -27.67,78.68 -15.62,124.32 10.64,40.33 30.4,71.18 64.89,82.25z"/>
   <path class="fil5" d="M1891.22 1819.83l93.15 21.68c-6.04,53.06 -25.95,102.83 27.32,121.36 2.3,-32.34 -10.04,-43.42 -9.58,-68.37 0.54,-29.67 13.77,-22.47 9.61,-67.07 -27.46,-35.91 -52.88,-22.05 -100.61,-36.9 -82.13,-25.56 -52.6,-109.72 -133.29,-134.7 -32.04,-9.92 -80.69,-26.22 -106.34,-5.95 21.28,43.31 97.14,12.81 130.64,69.34 27.09,45.71 34.79,91.25 89.1,100.61z"/>
   <path class="fil5" d="M3135.8 1212.27l4.7 -29.76c-37.63,-0.13 -28.65,7.51 -56.89,16.57 -9.57,12.03 -2.59,9.06 -22.63,15.59 -42.84,13.97 -179.76,-6.72 -106.48,-66.99 31.06,-6.13 46.37,-15.59 82.06,-15.5 30.57,0.07 56.8,6.13 89.56,4.83l0.39 -19.41c-72.24,-36.23 -233.26,-25.43 -230.49,66.22 2.15,71.34 125.65,73.39 185.46,56.68 31.03,-8.66 36.41,-19.4 54.32,-28.23z"/>
   <path class="fil5" d="M3202.91 1208.05c-40.51,31.1 -86.67,60.89 -139.88,94.92 -24.92,15.94 -46.33,28.76 -70.52,46.02 -27.17,19.38 -56.21,26.29 -70.73,51.52l1.67 11.49c43.42,-1.28 95.96,-37.81 126.88,-56.88 24.12,-14.88 87.99,-59.47 112.02,-64.99 28.32,-43.1 71.04,-35.44 81.08,-93.08l-40.52 11z"/>
   <path class="fil5" d="M2212.53 1346.97c7.8,17.27 -9.51,6.6 11.2,14.28 15.61,5.78 14.69,-2.62 14.7,-2.62 -1.94,-7.91 6.76,-9.14 -8.08,-14.78 -21.82,-8.27 -17.06,2.83 -17.82,3.12z"/>
   <path class="fil6" d="M3202.91 1208.05l40.52 -11c-10.04,57.64 -52.76,49.98 -81.08,93.08l36.85 14.28 1.15 6.31c33.82,-10.25 50.89,-26.28 59.42,-66.54 7.75,-36.57 6.5,-84.93 -23.09,-98.97l13.15 26.97c-15.59,19.5 -16.3,7.25 -43.53,32.37 -0.82,0.76 -2.32,2.28 -3.39,3.5z"/>
   <path class="fil6" d="M2011.72 1827.43c4.16,44.6 -9.07,37.4 -9.61,67.07 -0.46,24.95 11.88,36.03 9.58,68.37 -53.27,-18.53 -33.36,-68.3 -27.32,-121.36l-93.15 -21.68c17.22,26.56 32.01,15.14 78.48,29.17 0.17,4.73 -21.23,119.92 36.57,126.08 43,4.58 13.13,-49.25 10.61,-69.63 -3.68,-29.88 9.21,-38.48 11.53,-69.04l-16.69 -8.98z"/>
   <polygon class="fil6" points="2407.74,1718.26 2438.43,1718.43 2441.65,1686.8 2403.73,1687.09 "/>
   <path class="fil6" d="M1956.61 1442.31c28.17,2.34 30.9,3.75 34.61,-22.96 -24.8,-14.98 -35.56,-4.22 -34.61,22.96z"/>
   <path class="fil6" d="M1740.83 1489.11c31.23,0.9 29.41,-0.05 30.48,-30.71 -26.5,0.38 -35.85,2.94 -30.48,30.71z"/>
   <path class="fil6" d="M2813.83 1134.83c21.84,-7.07 28.34,-7.62 28.42,-30.56l-26.95 -2.42 -1.47 32.98z"/>
   <path class="fil6" d="M2896.59 1312.3c18.23,5.39 18.85,9.76 32.24,-6.1 -7.88,-23.86 0.33,-9.44 -14.56,-19.29 -17.35,10.45 -13.73,5.44 -17.68,25.39z"/>
   <path class="fil6" d="M2623 1579.98c5.52,27.29 18.38,22.16 29.02,5.82 -10.16,-13.59 -13.38,-10.84 -29.02,-5.82z"/>
   <path class="fil7" d="M2074.7 1890.32l1.83 -30.03c22.36,0.02 18.98,-3.25 32.57,10.94 -7.35,20.82 -10.7,16.79 -34.4,19.09zm-91.06 -124.83l-1.05 -22.74 31.54 -4.2c4.29,28.24 -4.14,29.51 -30.49,26.94zm458.01 -78.69l-3.22 31.63 -30.69 -0.17 -4.01 -31.17 37.92 -0.29zm-429.93 140.63l16.69 8.98c-2.32,30.56 -15.21,39.16 -11.53,69.04 2.52,20.38 32.39,74.21 -10.61,69.63 -57.8,-6.16 -36.4,-121.35 -36.57,-126.08 -46.47,-14.03 -61.26,-2.61 -78.48,-29.17 -54.31,-9.36 -62.01,-54.9 -89.1,-100.61 -33.5,-56.53 -109.36,-26.03 -130.64,-69.34 25.65,-20.27 74.3,-3.97 106.34,5.95 80.69,24.98 51.16,109.14 133.29,134.7 47.73,14.85 73.15,0.99 100.61,36.9zm611.28 -247.45c15.64,-5.02 18.86,-7.77 29.02,5.82 -10.64,16.34 -23.5,21.47 -29.02,-5.82zm-326.23 -119.84l14.58 12.25c7.59,6.62 5.24,4.99 12.36,10.81 7.71,6.28 13.18,9.49 23.31,19.06 6.67,59.46 -3.31,82.79 -35.22,122.04 -53.32,65.6 -292.25,122.31 -360.78,33.23 -82.09,-106.7 92.98,-214.76 217.35,-223.31 67.05,-4.61 76.94,7.14 128.4,25.92zm-555.94 28.97c-5.37,-27.77 3.98,-30.33 30.48,-30.71 -1.07,30.66 0.75,31.61 -30.48,30.71zm215.78 -46.8c-0.95,-27.18 9.81,-37.94 34.61,-22.96 -3.71,26.71 -6.44,25.3 -34.61,22.96zm267.12 -81.06c-20.71,-7.68 -3.4,2.99 -11.2,-14.28 0.76,-0.29 -4,-11.39 17.82,-3.12 14.84,5.64 6.14,6.87 8.08,14.78 -0.01,0 0.91,8.4 -14.7,2.62zm705.1 -55.05c-13.39,15.86 -14.01,11.49 -32.24,6.1 3.95,-19.95 0.33,-14.94 17.68,-25.39 14.89,9.85 6.68,-4.57 14.56,19.29zm-87.23 -17.64c-4.81,36.61 -45.62,63.6 -68.71,85.83 -74.84,72.05 -292.78,72.14 -348.66,-9.38 -56.45,-82.38 36.62,-161.12 88.87,-186.16 95.89,-45.96 168.79,-35.1 268.74,-21.16 23.22,8.8 31.99,33.97 56.59,55.07 9.6,10.7 14.43,17.44 16.02,36.02 0.66,7.9 0.14,16.85 -2.52,24.21 -6.96,19.27 -3.32,8.5 -10.33,15.57zm-711.43 -97.32c8.23,3.84 12.19,4.61 20.12,10.9 14.61,11.61 7.43,4.84 14.86,18.04 53.46,61.71 -69.8,126.81 -126.81,142.2 -181.71,49.07 -322.75,-40.58 -240.33,-141.08 28.47,-34.7 47.97,-31.86 71.87,-44.54 86.09,-45.71 223.58,-28.91 260.29,14.48zm-482.3 433.29c-34.49,-11.07 -54.25,-41.92 -64.89,-82.25 -12.05,-45.64 2.84,-85.72 15.62,-124.32 28.71,-86.62 3.87,-58.15 -10.24,-119.82 -7.13,-31.13 -1,-104.93 -4.49,-147.33 60.03,9.05 31.67,68 33.94,113.77 2.22,44.5 34.56,62.91 29.21,115.61 -4.35,42.85 -29.74,76.52 -28.63,124.18 1.09,46.92 28.17,75.07 29.48,120.16zm65.27 -423.18c0.45,23.83 -3.71,28.32 -31.38,25.41l3.4 -28.15 27.98 2.74zm1413.37 -83.75c19.45,7.52 5.81,-8.33 16.24,17.53 1.44,3.57 2.62,20.79 2.76,25.35 0.76,23.56 3.43,34.88 -9.71,51.79 -17.91,8.83 -23.29,19.57 -54.32,28.23 -59.81,16.71 -183.31,14.66 -185.46,-56.68 -2.77,-91.65 158.25,-102.45 230.49,-66.22zm-311.21 -15.75l26.95 2.42c-0.08,22.94 -6.58,23.49 -28.42,30.56l1.47 -32.98zm-1149.03 12.12c-0.87,-0.59 -2.58,-2.04 -2.96,-1.03l-6.5 -1.2c-21.84,0.33 -45.06,15.04 -65.14,19.71 -5.86,-16.21 -0.09,-12.18 -23.8,-17.48l8.98 28.55c-76.8,2.94 -93.67,29.79 -123.81,83.36 -24.22,43.04 -42.43,99.4 -46.51,156.07 -22.39,311.76 98.81,551.53 413.93,603.46 61.33,10.11 81.44,9.71 138.82,11.78 30,1.07 31.8,-3.85 36.88,19.67 16.07,-1.63 22.23,-4.62 33.62,-11.65 8.41,-33.92 38.85,-34.45 114.51,-70.83 62.61,-30.1 337.76,-181.79 359.44,-208.78l-17.79 -77.52c-96.48,2.02 -300.98,167.27 -427.65,186.01 21.28,-48.65 283.07,-176.72 362.16,-206.09 45.08,-16.75 69.48,-30.17 94.43,7.59 21.98,33.27 24.74,77.63 20.97,125.19 -6.43,81.04 -43.71,197.73 28.83,234.77 115.76,-39.17 0.41,-227.74 61.4,-278.67 32.3,-12.41 31.99,11.87 70.81,18.29 34.49,-58.37 17.21,-92.74 29.51,-161.39 40.69,-3.79 58.82,24.17 52.96,-34.25l-41.57 -9.96c-1.03,-0.38 -2.98,-1.09 -4.23,-2.02 23.95,-87.75 87.68,29.84 99.14,31.7 63.85,-9.29 29.42,-74.13 65.62,-110.78 29.57,-29.77 5.61,-19.68 23.46,-47.96 14.52,-25.23 43.56,-32.14 70.73,-51.52 24.19,-17.26 45.6,-30.08 70.52,-46.02 53.21,-34.03 99.37,-63.82 139.88,-94.92 1.07,-1.22 2.57,-2.74 3.39,-3.5 27.23,-25.12 27.94,-12.87 43.53,-32.37l-13.15 -26.97c-31.32,-122.86 -707.7,-59.06 -784.96,-52.24 -174.96,15.43 -667.21,48.15 -829.95,48.29 6.21,-23.82 15.57,-7.49 44.5,-27.29z"/>
  </g>
 </g>
</svg>
