<?xml version="1.0" encoding="UTF-8"?>
<!DOCTYPE svg PUBLIC "-//W3C//DTD SVG 1.1//EN" "http://www.w3.org/Graphics/SVG/1.1/DTD/svg11.dtd">
<!-- Creator: CorelDRAW 2017 -->
<svg xmlns="http://www.w3.org/2000/svg" xml:space="preserve" width="46.5666mm" height="30.7338mm" version="1.1" style="shape-rendering:geometricPrecision; text-rendering:geometricPrecision; image-rendering:optimizeQuality; fill-rule:evenodd; clip-rule:evenodd"
viewBox="0 0 4656.66 3073.38"
 xmlns:xlink="http://www.w3.org/1999/xlink">
 <defs>
  <style type="text/css">
   <![CDATA[
    .fil0 {fill:none}
    .fil4 {fill:#2A3637}
    .fil5 {fill:#53352D}
    .fil1 {fill:#945345}
    .fil8 {fill:#A49883}
    .fil6 {fill:#A67B54}
    .fil2 {fill:#E77364}
    .fil3 {fill:#EC6F35}
    .fil7 {fill:#F1AC62}
   ]]>
  </style>
 </defs>
 <g id="Capa_x0020_1">
  <metadata id="CorelCorpID_0Corel-Layer"/>
  <rect class="fil0" y="-0" width="4656.66" height="3073.39"/>
  <rect class="fil0" y="-0" width="4656.66" height="3073.39"/>
  <g id="_2888817387776">
   <path class="fil1" d="M1959.54 1788.09c-43.88,5.43 -101.53,34.8 -142.05,54.74l-40.43 22.38c82.68,-7.06 17.14,-2.78 78,0.95 53.95,3.29 216.88,36.3 266.95,13.79 -34.17,-1.21 -156.83,-8.15 -177.78,-21.4 31.09,-17.66 97.61,-37.16 135.2,-50.97 37.02,-13.59 114.14,-32.24 133.82,-59.49l-24.05 0.96c53.53,-30.39 69.95,-34.28 134.12,-58.38 251.52,-94.49 459.11,-174.52 720.29,-258.52l252.72 -90.98c22.33,-8.58 19.45,-3.04 26.49,-21.36 -29.8,-17.5 -138.76,33.07 -175.53,46.74 -270.66,100.68 -597.29,207.33 -855.59,309.57 -63.16,24.99 -283.37,112.89 -334.35,126.46l2.19 -14.49z"/>
   <path class="fil1" d="M1563.75 1114.93c-64.14,15.08 -111.1,51.07 -175.1,60.26 -8.6,-8.06 -9.05,14.13 -6.84,-20.36 -23.15,15.81 -17.77,10.39 -31.66,33.47 10.09,17.6 8.19,6.14 22.26,20.27 -26.89,6.35 -64.17,17.76 -74.37,38.14l2.65 16.01c56.1,1.36 229.97,-83.93 295.22,-112.83 24.77,-10.97 78.53,-22.18 93.44,-44.37 -9.29,-15.72 -1.38,-17.18 -32.72,-7.06 -29.32,9.47 -97.15,53.94 -92.88,16.47z"/>
   <path class="fil1" d="M1397.69 1458.09c37.79,-20.21 52.1,-12.02 70.72,14.4 -4.81,31.53 -24.97,49.9 -62.28,44.98 -17.13,-18.06 -22.95,-29.89 -8.44,-59.38zm0 0l-19.36 1.36c-6.14,38.36 -3.87,46.29 16.15,66.97 113.17,6.38 114.43,-105.22 8.58,-85.62 -7.65,8.47 -3.21,2.72 -5.37,17.29z"/>
   <path class="fil1" d="M3094.15 923.09c45.15,-11.7 63.06,0.72 72.5,42.62 -12.21,19.92 -22.23,40.09 -59.3,30.65 -32.67,-8.33 -15.53,-45.47 -13.2,-73.27zm0 0c-26.59,22.8 -18.51,39.93 -10.91,72.89 44.55,17.49 58.45,8.45 93.85,-16.92 6.24,-52.48 -25.89,-71.82 -77.08,-70.92l-5.86 14.95z"/>
   <path class="fil2" d="M2635.13 1059.16l18.16 -2.76c7.86,3.53 2.09,-2.63 10.61,5.71 10.05,-21.18 1.46,-12.85 18.21,-21.54 33.73,47.01 -90,133.76 -117.4,157.21 -99.01,84.71 -69.34,51.36 -34.4,188.43 91.52,-7.83 297.91,-119.9 365.73,-109.89l2.55 21.9c26.35,-23.72 46.99,-60.19 24.24,-93.65l0.9 34.92c-0.11,0.04 -16.33,25.16 -35.46,-13.75 -5.18,-10.55 -11.21,-32.62 -14.63,-44.19 -64.98,-3.98 -198.55,77.39 -183.05,2.94 6.63,-31.82 120.39,-125.69 143.34,-135.95 -6.37,-56.47 -35.42,-132.41 -70.25,-158.17l-350.43 103.39c-4.9,52.76 10.38,74.13 22.59,114.22 39.64,-0.55 73.17,-18.74 105.3,-32.71 15.08,-6.57 28.74,-12.23 46.01,-18.38 24.49,-8.74 35.5,-13.74 47.98,2.27z"/>
   <path class="fil2" d="M1936.91 1170.46c3.03,167.64 73.29,47.29 208.81,53.41 13.65,98.53 -205.32,204.18 -129.77,335.08 53.01,-5.65 305.11,-94.49 336.48,-121.41 2.78,-39.81 -6.98,-79 -20.92,-109.12 -47.93,4.75 -66.57,38.92 -120.5,34.49 3.38,-73.01 48.66,-102.82 75.32,-146.38 25.28,-41.28 -1.77,-137.88 -25.44,-173.13l-323.98 127.06z"/>
   <path class="fil2" d="M1397.69 1458.09c2.16,-14.57 -2.28,-8.82 5.37,-17.29 105.85,-19.6 104.59,92 -8.58,85.62 -20.02,-20.68 -22.29,-28.61 -16.15,-66.97l19.36 -1.36zm-161.59 -23.42c-4.94,35.92 42.08,293.27 59.26,322.35l8.05 3.07c1.91,0.34 31.64,-0.12 64.55,-11.16 23.97,-8.05 48.81,-19.32 63.79,-30.26 9.35,-39.43 -19.24,-79.25 -2.38,-106.31 9.59,-15.4 59.06,-40.52 80,-54.06 38.8,-25.07 117.47,-82.5 104.04,-153.05 -13.57,-71.31 -120.52,-72.98 -192.81,-52.22 -45.05,12.94 -154.36,62.41 -184.5,81.64z"/>
   <path class="fil2" d="M3094.15 923.09l5.86 -14.95c51.19,-0.9 83.32,18.44 77.08,70.92 -35.4,25.37 -49.3,34.41 -93.85,16.92 -7.6,-32.96 -15.68,-50.09 10.91,-72.89zm-96.14 -85.79l15.36 365.86c47.18,3.47 91.49,-13.24 120.76,-35.93 0.09,-39.08 -16.11,-80.15 29.06,-93.66 43,-12.85 58.17,30.61 78.25,49.57 41.76,2.44 68.61,-6.27 97.63,-24.94 0,-58.02 -189.98,-276.43 -207.22,-285.15 -38.33,-19.38 -107.74,9.24 -133.84,24.25z"/>
   <path class="fil2" d="M1690.07 1268.08c3.71,61.78 25.36,115.63 32.97,178.15 7.34,60.25 12.87,131.64 27.9,188.16 45.65,-2.1 71.93,-19.2 107.81,-35.58 4.38,-56.38 -29.42,-333.06 -50.6,-372.16l-118.08 41.43z"/>
   <path class="fil3" d="M2213.25 1748.09c-19.68,27.25 -96.8,45.9 -133.82,59.49 -37.59,13.81 -104.11,33.31 -135.2,50.97 20.95,13.25 143.61,20.19 177.78,21.4l536.76 29.18c31.25,1.64 62.18,2.81 93.48,3.11 31.84,0.31 65.16,-4.49 69.22,18.88l64.3 -25.19c23.19,-98.72 354.85,-441.61 380.79,-529.73l-789.78 281.27c-50.33,17.79 -226.04,88.24 -263.53,90.62z"/>
   <path class="fil3" d="M1381.81 1154.83c-2.21,34.49 -1.76,12.3 6.84,20.36 64,-9.19 110.96,-45.18 175.1,-60.26 73.68,-32.84 647.29,-237.01 762.69,-277.59l223.19 -80.11c27.4,-10.83 21.48,-2.32 17.83,-22.5 -114.02,9.06 -276.84,-1.89 -398.07,-2.29 -70.06,-0.23 -358.94,7.26 -395.53,-10.81l-342.24 380.32c-14.46,17.39 -35.04,36.93 -49.81,52.88z"/>
   <path class="fil3" d="M3820.23 2376.93l1.28 -27.89c-22.68,-0.86 -27.1,-0.18 -31.11,23l29.83 4.89z"/>
   <path class="fil4" d="M2914.88 2282.18c-15.76,-39.55 -84.75,-23.67 -133.03,-29.52 -49.33,-5.96 -101.8,-7.62 -151.96,-10.25 -101.68,-5.33 -201.77,-12.34 -303.29,-19.2 -357.92,-24.18 -992.68,-66.73 -1331.88,-118.69 -133.73,-20.49 -104.51,-3.4 -123.59,-196.85 -5.22,-52.98 -22.32,-100.72 22.05,-126.16 2.37,-15.84 29.4,-44.4 40.45,-59.15l217.58 -289.13c17.76,-23.74 27.08,-36.26 44.9,-59.98l41.08 -51.95c10.31,-20.02 46.37,-66.61 60.85,-74.59 10.2,-20.38 47.48,-31.79 74.37,-38.14 -14.07,-14.13 -12.17,-2.67 -22.26,-20.27 13.89,-23.08 8.51,-17.66 31.66,-33.47 14.77,-15.95 35.35,-35.49 49.81,-52.88l342.24 -380.32c36.59,18.07 325.47,10.58 395.53,10.81 121.23,0.4 284.05,11.35 398.07,2.29 118.6,7.26 237.23,-4.21 357.66,5.33 87.09,6.91 38.74,12.85 129.88,7.52 22.43,-1.3 24.76,2.17 46.61,2.54 51.91,0.88 129.83,-11.68 167.4,18.34l313.99 14.28c48.96,1.04 105.48,12.11 149.21,-1.57 -33.91,-32.08 -190.42,-22.43 -208.3,-30.99 -120.58,0 -254.25,-22.91 -369.83,-29.15 -64.46,-3.48 -132.78,7.09 -195.67,-2.43l-387 -15.01c-69.09,0.08 -124.37,-5.83 -198.1,-5.83 -69.15,0 -551.72,-4.82 -596.16,3.95 -68.14,13.47 -158.79,136.72 -212.17,189.82l-97.22 106.67c-67.47,86.82 -192.98,220.78 -274.67,325.38 -16.55,21.2 -28.35,33.69 -44.13,54.91 -15.39,20.68 -30.44,39.13 -45.74,59.12l-175.72 226.25c-63.35,77.95 -87.16,121.07 -92.36,174.61l0 55.3c2.81,40.42 10.31,90.5 17.39,161.33 8.24,82.44 46.82,86.16 209.8,93.14 92.1,3.95 251.51,31.38 361.12,40.9 88.37,7.67 540.89,53.47 646.89,52.26 42.48,-0.48 58.17,6.29 98.99,5.88 91.37,-0.88 414.35,39.06 553.54,46.58 59.67,3.22 151.18,8.47 192.01,-11.68z"/>
   <path class="fil4" d="M2985.08 2258.17c26,-5.38 45.29,-34.1 60.85,-54.96 80.82,-108.45 233.8,-363.11 326.03,-501.2l276.21 -428.69c16.21,-25.26 83.33,-129.56 89.01,-150.33 16.07,-57.09 31.87,-90.11 31.78,-157.1 -0.06,-43.23 12,-148.67 -14.99,-173.46 -31.16,42.03 -4.5,196.7 -22.45,261.49 -14.4,51.94 -75.47,136.19 -105.2,179.98 -75.83,111.73 -145.25,229.02 -220.87,344.27 -75.63,115.26 -148.73,229.24 -224.15,346.69l-166.19 259.15c-19.88,28.61 -49.9,44.59 -61.07,80.42l31.04 -6.26z"/>
   <path class="fil5" d="M2998.01 837.3c26.1,-15.01 95.51,-43.63 133.84,-24.25 17.24,8.72 207.22,227.13 207.22,285.15 -29.02,18.67 -55.87,27.38 -97.63,24.94 -20.08,-18.96 -35.25,-62.42 -78.25,-49.57 -45.17,13.51 -28.97,54.58 -29.06,93.66 -29.27,22.69 -73.58,39.4 -120.76,35.93l-15.36 -365.86zm-430.55 -102.57c3.65,20.18 9.57,11.67 -17.83,22.5l-223.19 80.11c-115.4,40.58 -689.01,244.75 -762.69,277.59 -4.27,37.47 63.56,-7 92.88,-16.47 31.34,-10.12 23.43,-8.66 32.72,7.06 -14.91,22.19 -68.67,33.4 -93.44,44.37 -65.25,28.9 -239.12,114.19 -295.22,112.83l-2.65 -16.01c-14.48,7.98 -50.54,54.57 -60.85,74.59 36.46,-12.37 24.82,-22.94 105.09,-52.49l320.22 -128.32c237.81,-99.69 632.99,-242.47 881.21,-318.98 34.32,-10.58 83.38,-25.2 107.8,-43.62 25.62,-19.31 14.03,-24.44 53.48,-25.47 24.02,-0.62 51.55,1.07 76.17,1.15 100.05,0.35 198.8,1.55 298.9,0.42 -7.92,26.96 -28.26,28.18 -53.79,37.31 -10.3,3.69 -50.12,17.95 -55.39,27.94 -6.47,12.28 -1.59,381 22.24,406.62 41.98,44.49 148.92,-18.59 171.09,-38.82l-0.74 -77.14c64.47,10.83 30.33,91.38 159.02,35.91 81.4,-35.08 62.74,-70.57 19,-134.47 -32.7,-47.79 -60.98,-83.15 -96.86,-124.4 -26.34,-30.27 -84.18,-83.87 -101.09,-120.25l125.47 1.77c-37.57,-30.02 -115.49,-17.46 -167.4,-18.34 -21.85,-0.37 -24.18,-3.84 -46.61,-2.54 -91.14,5.33 -42.79,-0.61 -129.88,-7.52 -120.43,-9.54 -239.06,1.93 -357.66,-5.33z"/>
   <path class="fil5" d="M1959.54 1788.09l-2.19 14.49c50.98,-13.57 271.19,-101.47 334.35,-126.46 258.3,-102.24 584.93,-208.89 855.59,-309.57 36.77,-13.67 145.73,-64.24 175.53,-46.74 -7.04,18.32 -4.16,12.78 -26.49,21.36l-252.72 90.98c-261.18,84 -468.77,164.03 -720.29,258.52 -64.17,24.1 -80.59,27.99 -134.12,58.38l24.05 -0.96c37.49,-2.38 213.2,-72.83 263.53,-90.62l789.78 -281.27c-25.94,88.12 -357.6,431.01 -380.79,529.73 88.95,-64.51 551.39,-682.41 621.63,-779.22 40.42,-55.7 170.34,-222.72 188.76,-285.97l-18.99 -2.76c-42.26,22.92 -233.95,315.23 -284.05,384.2 -55.81,76.83 -114.85,77.59 -223.78,114.17 -345.73,116.08 -642.26,231.8 -977.47,356.67l-232.33 95.07z"/>
   <path class="fil5" d="M2260.89 1043.4c23.67,35.25 50.72,131.85 25.44,173.13 -26.66,43.56 -71.94,73.37 -75.32,146.38 53.93,4.43 72.57,-29.74 120.5,-34.49 13.94,30.12 23.7,69.31 20.92,109.12 -31.37,26.92 -283.47,115.76 -336.48,121.41 -75.55,-130.9 143.42,-236.55 129.77,-335.08 -135.52,-6.12 -205.78,114.23 -208.81,-53.41l323.98 -127.06zm48.28 247.82c-14.49,15.77 -18.38,20.96 -45.82,26.86 3.08,-20.04 9.3,-32.05 15.57,-44.44l16.33 -5.17c13.3,-55.92 49.98,-45.09 32.8,-129.16 -9.66,-47.24 -26.48,-96.59 -53.78,-121.96 -59.37,-1.27 -192.29,59.91 -245.11,82.01 -115.63,48.39 -145.53,51.86 -99.26,193.16 65.05,7.4 104.02,-22.17 163.73,-28.25 -8,41.03 -78.2,109.16 -100.68,142.42 -33.53,49.62 -40.97,138.85 1.65,181.21 39.53,20.27 379,-100.83 394.65,-138.71 3.61,-47.15 -13.67,-121.68 -33.44,-159.59l-46.64 1.62z"/>
   <path class="fil5" d="M2821.47 1931.12c-4.06,-23.37 -37.38,-18.57 -69.22,-18.88 -31.3,-0.3 -62.23,-1.47 -93.48,-3.11l-536.76 -29.18c-50.07,22.51 -213,-10.5 -266.95,-13.79 -60.86,-3.73 4.68,-8.01 -78,-0.95 -131.09,-16.98 -266.2,-12.17 -405.9,-21.38 -130.75,-8.63 -264.33,-15.86 -394.46,-26.11l-53.45 3.2c46.85,37.31 1823.16,142.48 1898.22,110.2z"/>
   <path class="fil5" d="M1236.1 1434.67c30.14,-19.23 139.45,-68.7 184.5,-81.64 72.29,-20.76 179.24,-19.09 192.81,52.22 13.43,70.55 -65.24,127.98 -104.04,153.05 -20.94,13.54 -70.41,38.66 -80,54.06 -16.86,27.06 11.73,66.88 2.38,106.31 -14.98,10.94 -39.82,22.21 -63.79,30.26 -32.91,11.04 -62.64,11.5 -64.55,11.16l-8.05 -3.07c-17.18,-29.08 -64.2,-286.43 -59.26,-322.35zm220.51 186.39c84.53,-29 230.09,-117.19 187.01,-240.28 -42.58,-121.64 -224.35,-65.65 -318.81,-24.59 -168.7,73.32 -115.25,100.48 -86.52,295.55 9.73,66.09 6.53,142.41 74.96,145.5 64.53,2.92 112.82,-43.55 154.65,-60.16l-11.29 -116.02z"/>
   <path class="fil5" d="M2416.87 964.79l-9.71 10.81c-37.25,42.26 -20.21,161.65 46.56,157.38 59.12,-3.78 150.92,-45.81 181.41,-73.82 -12.48,-16.01 -23.49,-11.01 -47.98,-2.27 -17.27,6.15 -30.93,11.81 -46.01,18.38 -32.13,13.97 -65.66,32.16 -105.3,32.71 -12.21,-40.09 -27.49,-61.46 -22.59,-114.22l350.43 -103.39c34.83,25.76 63.88,101.7 70.25,158.17 -22.95,10.26 -136.71,104.13 -143.34,135.95 -15.5,74.45 118.07,-6.92 183.05,-2.94 3.42,11.57 9.45,33.64 14.63,44.19 19.13,38.91 35.35,13.79 35.46,13.75l-0.9 -34.92 -29.41 -64.7c-67.87,-9.02 -92.81,30.01 -149.06,34.67 17.42,-32.53 111.22,-90.02 121.81,-124 14.71,-47.15 -50.09,-154.04 -72.32,-173.35 -44.45,-38.6 -143.89,17.09 -187.64,28.7 -62.51,16.6 -126.43,34.79 -189.34,58.9z"/>
   <path class="fil5" d="M1808.15 1226.65c21.18,39.1 54.98,315.78 50.6,372.16 -35.88,16.38 -62.16,33.48 -107.81,35.58 -15.03,-56.52 -20.56,-127.91 -27.9,-188.16 -7.61,-62.52 -29.26,-116.37 -32.97,-178.15l118.08 -41.43zm-140.38 18.32c0.67,99.92 18.08,225.14 34.39,321.65 16.73,98.95 15.63,111.72 76.5,104.08 44.09,-5.53 92.33,-34.65 120.25,-54.79 3.44,-108.88 -31.96,-317.66 -62.02,-416.76 -81.12,-11.15 -107.11,27.95 -169.12,45.82z"/>
   <path class="fil5" d="M2663.9 1062.11c-4.8,28.81 -2.45,16.76 -26.66,33.51 -8.43,5.82 -10.15,8.23 -16.3,12.96 -14.47,11.12 1.04,2.02 -16.05,10.69 -11.36,15.62 -99.02,85.53 -124.81,116.34 -26.26,31.36 -9.8,59.34 0.39,94.67 9.42,32.7 10.13,66.07 29.29,87.1 74.75,16.7 312.92,-96.84 388.83,-119.16l-2.55 -21.9c-67.82,-10.01 -274.21,102.06 -365.73,109.89 -34.94,-137.07 -64.61,-103.72 34.4,-188.43 27.4,-23.45 151.13,-110.2 117.4,-157.21 -16.75,8.69 -8.16,0.36 -18.21,21.54z"/>
   <path class="fil5" d="M2909.34 2226.12c23.34,-33.72 3.11,-85.82 -2.93,-126.03 -6.01,-40 5.93,-110.22 -20.37,-138.53 -17.13,19.82 -1.02,206.58 6.04,238.67 5.09,23.06 -0.1,16.31 17.26,25.89z"/>
   <path class="fil5" d="M3132.31 946.43c-1.23,24.05 3.74,26.51 -20.28,20.78 -7.87,-25.09 -5.28,-20.27 20.28,-20.78zm-38.16 -23.34c-2.33,27.8 -19.47,64.94 13.2,73.27 37.07,9.44 47.09,-10.73 59.3,-30.65 -9.44,-41.9 -27.35,-54.32 -72.5,-42.62z"/>
   <path class="fil5" d="M1438.22 1481.69c-12.49,17.16 -2.66,15.03 -21.92,10.48 -5.18,-9.45 -6.89,-9.42 3.31,-23.35l18.61 12.87zm-40.53 -23.6c-14.51,29.49 -8.69,41.32 8.44,59.38 37.31,4.92 57.47,-13.45 62.28,-44.98 -18.62,-26.42 -32.93,-34.61 -70.72,-14.4z"/>
   <path class="fil6" d="M2604.89 1119.27c17.09,-8.67 1.58,0.43 16.05,-10.69 6.15,-4.73 7.87,-7.14 16.3,-12.96 24.21,-16.75 21.86,-4.7 26.66,-33.51 -8.52,-8.34 -2.75,-2.18 -10.61,-5.71l-18.16 2.76c-30.49,28.01 -122.29,70.04 -181.41,73.82 -66.77,4.27 -83.81,-115.12 -46.56,-157.38l9.71 -10.81c-87.46,16.19 -16.8,157.7 -3.22,170.35 31.33,29.21 144.59,-27.88 194.5,-36.48l-3.26 20.61z"/>
   <path class="fil6" d="M2309.17 1291.22l-24.99 6.15 11.07 -28.9 -16.33 5.17c-6.27,12.39 -12.49,24.4 -15.57,44.44 27.44,-5.9 31.33,-11.09 45.82,-26.86z"/>
   <path class="fil6" d="M3112.03 967.21c24.02,5.73 19.05,3.27 20.28,-20.78 -25.56,0.51 -28.15,-4.31 -20.28,20.78z"/>
   <path class="fil6" d="M1419.61 1468.82c-10.2,13.93 -8.49,13.9 -3.31,23.35 19.26,4.55 9.43,6.68 21.92,-10.48l-18.61 -12.87z"/>
   <path class="fil7" d="M1456.61 1621.06l11.29 116.02c-41.83,16.61 -90.12,63.08 -154.65,60.16 -68.43,-3.09 -65.23,-79.41 -74.96,-145.5 -28.73,-195.07 -82.18,-222.23 86.52,-295.55 94.46,-41.06 276.23,-97.05 318.81,24.59 43.08,123.09 -102.48,211.28 -187.01,240.28zm211.16 -376.09c62.01,-17.87 88,-56.97 169.12,-45.82 30.06,99.1 65.46,307.88 62.02,416.76 -27.92,20.14 -76.16,49.26 -120.25,54.79 -60.87,7.64 -59.77,-5.13 -76.5,-104.08 -16.31,-96.51 -33.72,-221.73 -34.39,-321.65zm627.48 23.5l-11.07 28.9 24.99 -6.15 46.64 -1.62c19.77,37.91 37.05,112.44 33.44,159.59 -15.65,37.88 -355.12,158.98 -394.65,138.71 -42.62,-42.36 -35.18,-131.59 -1.65,-181.21 22.48,-33.26 92.68,-101.39 100.68,-142.42 -59.71,6.08 -98.68,35.65 -163.73,28.25 -46.27,-141.3 -16.37,-144.77 99.26,-193.16 52.82,-22.1 185.74,-83.28 245.11,-82.01 27.3,25.37 44.12,74.72 53.78,121.96 17.18,84.07 -19.5,73.24 -32.8,129.16zm121.62 -303.68c62.91,-24.11 126.83,-42.3 189.34,-58.9 43.75,-11.61 143.19,-67.3 187.64,-28.7 22.23,19.31 87.03,126.2 72.32,173.35 -10.59,33.98 -104.39,91.47 -121.81,124 56.25,-4.66 81.19,-43.69 149.06,-34.67l29.41 64.7c22.75,33.46 2.11,69.93 -24.24,93.65 -75.91,22.32 -314.08,135.86 -388.83,119.16 -19.16,-21.03 -19.87,-54.4 -29.29,-87.1 -10.19,-35.33 -26.65,-63.31 -0.39,-94.67 25.79,-30.81 113.45,-100.72 124.81,-116.34l3.26 -20.61c-49.91,8.6 -163.17,65.69 -194.5,36.48 -13.58,-12.65 -84.24,-154.16 3.22,-170.35zm-1179.68 356.51l-41.08 51.95c-17.82,23.72 -27.14,36.24 -44.9,59.98l-217.58 289.13c-11.05,14.75 -38.08,43.31 -40.45,59.15l-15.42 37.76c17.74,-3.66 26.84,-12.44 45.3,-15.26 22.12,-3.37 37.63,-0.35 53.64,13.71 130.13,10.25 263.71,17.48 394.46,26.11 139.7,9.21 274.81,4.4 405.9,21.38l40.43 -22.38c40.52,-19.94 98.17,-49.31 142.05,-54.74l232.33 -95.07c335.21,-124.87 631.74,-240.59 977.47,-356.67 108.93,-36.58 167.97,-37.34 223.78,-114.17 50.1,-68.97 241.79,-361.28 284.05,-384.2 9.02,-10.99 7.42,-6.92 15.49,-15.41 14.6,-15.34 8.17,-4.83 13.85,-19.98 -27.7,-6.96 -103.15,-4.78 -123.51,-19.85l-313.99 -14.28 -125.47 -1.77c16.91,36.38 74.75,89.98 101.09,120.25 35.88,41.25 64.16,76.61 96.86,124.4 43.74,63.9 62.4,99.39 -19,134.47 -128.69,55.47 -94.55,-25.08 -159.02,-35.91l0.74 77.14c-22.17,20.23 -129.11,83.31 -171.09,38.82 -23.83,-25.62 -28.71,-394.34 -22.24,-406.62 5.27,-9.99 45.09,-24.25 55.39,-27.94 25.53,-9.13 45.87,-10.35 53.79,-37.31 -100.1,1.13 -198.85,-0.07 -298.9,-0.42 -24.62,-0.08 -52.15,-1.77 -76.17,-1.15 -39.45,1.03 -27.86,6.16 -53.48,25.47 -24.42,18.42 -73.48,33.04 -107.8,43.62 -248.22,76.51 -643.4,219.29 -881.21,318.98l-320.22 128.32c-80.27,29.55 -68.63,40.12 -105.09,52.49z"/>
   <path class="fil8" d="M2909.34 2226.12c-17.36,-9.58 -12.17,-2.83 -17.26,-25.89 -7.06,-32.09 -23.17,-218.85 -6.04,-238.67 26.3,28.31 14.36,98.53 20.37,138.53 6.04,40.21 26.27,92.31 2.93,126.03zm673.66 -1443.38c20.36,15.07 95.81,12.89 123.51,19.85 -5.68,15.15 0.75,4.64 -13.85,19.98 -8.07,8.49 -6.47,4.42 -15.49,15.41l18.99 2.76c-18.42,63.25 -148.34,230.27 -188.76,285.97 -70.24,96.81 -532.68,714.71 -621.63,779.22l-64.3 25.19c-75.06,32.28 -1851.37,-72.89 -1898.22,-110.2l53.45 -3.2c-16.01,-14.06 -31.52,-17.08 -53.64,-13.71 -18.46,2.82 -27.56,11.6 -45.3,15.26l15.42 -37.76c-44.37,25.44 -27.27,73.18 -22.05,126.16 19.08,193.45 -10.14,176.36 123.59,196.85 339.2,51.96 973.96,94.51 1331.88,118.69 101.52,6.86 201.61,13.87 303.29,19.2 50.16,2.63 102.63,4.29 151.96,10.25 48.28,5.85 117.27,-10.03 133.03,29.52 41.76,0 61.63,10 70.2,-24.01l-31.04 6.26c11.17,-35.83 41.19,-51.81 61.07,-80.42l166.19 -259.15c75.42,-117.45 148.52,-231.43 224.15,-346.69 75.62,-115.25 145.04,-232.54 220.87,-344.27 29.73,-43.79 90.8,-128.04 105.2,-179.98 17.95,-64.79 -8.71,-219.46 22.45,-261.49 26.99,24.79 14.93,130.23 14.99,173.46 0.09,66.99 -15.71,100.01 -31.78,157.1 51.58,-36.56 51.9,-226.08 45.43,-290.56 -6.31,-62.9 -25.09,-69.92 -88.89,-80.06 -43.54,-6.92 -122.03,-2.19 -169.81,-2.19 17.88,8.56 174.39,-1.09 208.3,30.99 -43.73,13.68 -100.25,2.61 -149.21,1.57z"/>
  </g>
 </g>
</svg>
