<?xml version="1.0" encoding="UTF-8"?>
<!DOCTYPE svg PUBLIC "-//W3C//DTD SVG 1.1//EN" "http://www.w3.org/Graphics/SVG/1.1/DTD/svg11.dtd">
<!-- Creator: CorelDRAW 2017 -->
<svg xmlns="http://www.w3.org/2000/svg" xml:space="preserve" width="46.5666mm" height="30.7338mm" version="1.1" style="shape-rendering:geometricPrecision; text-rendering:geometricPrecision; image-rendering:optimizeQuality; fill-rule:evenodd; clip-rule:evenodd"
viewBox="0 0 4656.66 3073.38"
 xmlns:xlink="http://www.w3.org/1999/xlink">
 <defs>
  <style type="text/css">
   <![CDATA[
    .fil0 {fill:none}
    .fil4 {fill:#2D2C29}
    .fil3 {fill:#636360}
    .fil2 {fill:#92928E}
    .fil1 {fill:#BFBEBE}
   ]]>
  </style>
 </defs>
 <g id="Capa_x0020_1">
  <metadata id="CorelCorpID_0Corel-Layer"/>
  <rect class="fil0" y="-0" width="4656.66" height="3073.39"/>
  <g id="_2924233325520">
   <path class="fil1" d="M2124.99 2262.03l46.21 0 0 -36.96c-36.39,0.82 -46.21,-0.72 -46.21,36.96z"/>
   <path class="fil1" d="M1080.55 1005.39l-10.37 -36.6c-21.37,1.51 -39.93,-0.58 -34.33,25.73 5.05,23.75 24.83,15.08 44.7,10.87z"/>
   <path class="fil2" d="M2531.67 1236.39l0 18.48c112.01,26.09 623.94,9.24 748.67,9.24l868.83 36.96c-4.2,-50.37 -10.83,-35.46 -63.94,-37.73 -156.44,-6.66 -316.26,-36.3 -499.87,-36.19 -202.44,0.12 -903.71,-25.69 -1053.69,9.24z"/>
   <path class="fil2" d="M1163.74 2058.75c63.88,0 89.67,7.97 101.67,-36.96l-73.94 -9.24c-17.98,26.84 -18.71,12.4 -27.73,46.2z"/>
   <path class="fil2" d="M2873.65 1365.75c51.39,0 71.54,-5.76 92.43,-36.96 -23.3,-15.6 -27.14,-23.18 -57.16,-11.88 -29,10.9 -28.52,19.89 -35.27,48.84z"/>
   <path class="fil2" d="M2485.46 1005.39l36.97 0c26.1,0 35.66,-21.21 46.21,-36.96 -20.72,-4.83 -21.25,-9.24 -46.21,-9.24l-36.97 0 0 46.2z"/>
   <path class="fil2" d="M2614.86 1910.91c54.74,0 62.58,5.58 73.94,-36.96 -25.73,-6.15 -68.19,-32.16 -73.94,36.96z"/>
   <path class="fil2" d="M2845.93 1162.47c10.84,2.87 25.19,9.24 27.72,9.24 32.48,0 39.87,-18.96 46.22,-46.2 -50.55,0 -63.44,-6.91 -73.94,36.96z"/>
   <path class="fil2" d="M2448.49 765.15c27.19,6.33 28.21,9.24 64.7,9.24 -2.3,-27.56 -6.65,-46.2 -36.97,-46.2 -26.31,0 -27.73,10.7 -27.73,36.96z"/>
   <path class="fil2" d="M3908.85 1088.55c9.69,41.57 6.22,36.96 55.46,36.96l0 -46.2c-24.68,0.55 -36.96,2.06 -55.46,9.24z"/>
   <path class="fil2" d="M3668.54 1633.71c10.83,15.57 1.33,18.48 27.73,18.48l36.97 0 0 -36.96 -36.97 0c-16.71,0 -25.36,4.63 -27.73,18.48z"/>
   <path class="fil2" d="M1653.6 1402.71c20.26,4.29 27.49,10.95 42.51,-4.01 15.07,-15.01 16.9,-42.19 -5.53,-42.19 -30.33,0 -34.68,18.64 -36.98,46.2z"/>
   <path class="fil2" d="M3335.8 783.63c25.84,21.58 51.11,0.05 64.7,-18.48 -28.46,-29.99 -53.81,-26.99 -64.7,18.48z"/>
   <path class="fil2" d="M1773.76 912.99l10.38 36.6c36.55,-2.77 36.48,-4.39 45.08,-36.6 -25.07,-11.59 -21.72,-3.53 -55.46,0z"/>
   <path class="fil2" d="M2143.48 765.15c7.77,10.61 13.18,21.48 30.8,24.77 38.59,7.21 32.59,-21.17 33.9,-24.77 -25.63,-14.39 -56.13,-10.45 -64.7,0z"/>
   <path class="fil2" d="M1311.62 1033.11c14.56,27.52 -0.64,26.56 28.13,28.16 27.51,1.54 25.31,-13.21 27.33,-37.4 -13.87,0 -46.48,-1.71 -55.46,9.24z"/>
   <path class="fil2" d="M3418.98 986.91c33.64,0 33.22,-17.36 36.97,-27.72 -22.57,-12.68 -17.09,-9.24 -55.45,-9.24 1.49,17.92 -0.44,36.96 18.48,36.96z"/>
   <path class="fil2" d="M1145.25 1476.63c38.35,-8.93 42.82,-5.46 46.22,-46.2 -44.66,0.99 -46.22,0.57 -46.22,46.2z"/>
   <path class="fil2" d="M3400.5 1495.11c11.27,6.33 9.88,9.24 27.73,9.24l36.97 0 0 -27.72 -36.97 0c-16.71,0 -25.37,4.63 -27.73,18.48z"/>
   <path class="fil2" d="M1117.52 1670.67c42.86,20.55 45.53,14.87 55.46,-27.72 -71.45,0 -29.92,-6.59 -55.46,27.72z"/>
   <path class="fil2" d="M2198.93 1393.47c19.67,26.84 -1.29,17.42 46.21,18.48l0 -36.96c-24.63,0.55 -42.54,-2.98 -46.21,18.48z"/>
   <path class="fil2" d="M2966.08 1615.23l46.22 0 0 -36.96c-44.83,1 -36.71,0.03 -46.22,36.96z"/>
   <path class="fil2" d="M2485.46 1448.91l55.46 0c-18.91,-35.72 -2.04,-27.72 -55.46,-27.72l0 27.72z"/>
   <polygon class="fil2" points="3511.41,1855.47 3539.14,1855.47 3539.14,1827.75 3511.41,1827.75 "/>
   <path class="fil3" d="M3650.05 765.19c-0.15,-16.19 2.74,-2.34 -18.48,-7.78 0,36.06 20.25,18.02 -68.61,40.87 -171.86,44.18 -664.44,237.88 -838.51,307.43 -102.71,41.03 -201.88,82.49 -303.59,121.66 -93.73,36.1 -167.31,-21.28 -316.3,-62.96l-329.64 -95.5c-102.07,-32.63 -219.96,-62.92 -326.53,-89.37 -61.06,-15.16 -105.54,-28.74 -168.2,-44.37l-171.91 -40.66c2.18,19.88 -12.01,25.66 46.92,45.5 26.92,9.06 50.52,13.59 80.61,21.05l911.15 253.37c52.17,17.38 103.16,37.93 153.64,49.68 -20.26,27.64 -49.16,32.82 -83.16,46.22l-683.74 286.68c-127.61,55.94 -248.06,109.75 -373.05,172.22l-324.34 156.24c-41.02,21.03 -28.91,3.1 -33.04,40.88l529.88 -246.44c31.18,-14.47 63.3,-27.43 90.71,-38.67 37.46,-15.35 56.84,-25.79 96.38,-42.25 248.17,-103.38 482.09,-217.15 735.22,-309.13 165.18,-60.02 162.31,-37.86 395.2,46.3l584.54 201.04c65.5,21.88 132.34,42.22 194.2,64.57l396.27 130.54c-9.03,-33.8 -27.03,-32.7 -61.48,-49.42 -94.14,-45.71 -166.44,-65.01 -263.2,-97.24 -59.74,-19.91 -113.51,-37.89 -173.26,-57.8 -151.21,-50.36 -824.09,-294.5 -897.73,-294.5 44,-60.03 938.37,-368.93 1074.86,-422.35 28.51,-11.15 54.5,-20.51 80.68,-30.19 3.87,-1.43 37.39,-12.96 40.11,-14.71 31.15,-20.05 17.53,-2.58 24.4,-40.91z"/>
   <path class="fil3" d="M525.98 1448.91c244.97,0 459.62,-43.42 698.34,-78.03 37.73,-5.47 66.93,-2.48 104.41,-6.51l602.17 -63.29c60.41,-6.68 139.78,-26.52 194.09,-27.73l0 -18.48c-395.7,0 -1075.01,108.47 -1508.25,164.65 -41.08,5.33 -59.44,2.17 -90.76,29.39z"/>
   <path class="fil3" d="M1256.17 1504.35c0,123.76 283.66,70.68 305.01,-9.24 -86.6,0 -79.51,36.96 -212.59,36.96 -31.86,0 -35.79,-6.83 -64.7,-9.24 58.64,-87.54 153.41,-55.44 268.04,-55.44 -29.98,-56.66 -51.96,-46.2 -120.15,-46.2 -56.08,0 -175.61,39.11 -175.61,83.16z"/>
   <path class="fil3" d="M2393.03 1134.75c0,-39.05 6.99,-41.27 7.79,-65.52l-17.38 -202.09c-2.78,-110.4 20.96,-220.52 -36.62,-259.07 0,83.9 -8.69,204.45 3.84,282.6 7.77,48.47 1.89,84.37 5.7,132.89 9.49,120.82 5.08,102.76 36.67,111.19z"/>
   <path class="fil3" d="M581.44 1328.79c42.9,-0.96 61.79,-15.16 101.67,-18.48l0 -27.72 -55.46 0c-40.18,0 -45.31,5.92 -46.21,46.2z"/>
   <path class="fil3" d="M2124.99 1772.31c9.46,35.41 14.99,27.54 55.45,36.96 14.73,-21.98 11.19,-9.62 18.49,-36.96 -23.38,-13.13 -42.68,-12.13 -73.94,0z"/>
   <path class="fil3" d="M821.75 1809.27c44.79,3.73 15.52,8.46 55.46,0 -4.21,-15.76 -10.74,-36.96 -27.73,-36.96 -26.31,0 -27.73,10.71 -27.73,36.96z"/>
   <path class="fil4" d="M165.51 1670.67c0,209.87 158.56,362.84 282.47,456.83 91.84,69.66 239.14,156.06 345.91,208.59 383.53,188.71 915.02,323.27 1358.83,323.27 398.14,0 595.08,-0.91 979.84,-101.54 94.69,-24.77 520.33,-196.8 606.89,-243.38 92.65,-49.87 295.42,-182.12 374.98,-253.45 125.75,-112.73 208.16,-185.93 298.91,-338.74 62.45,-105.14 77.81,-185.26 77.81,-347.26 -36.76,9.82 -29.21,25.25 -34.61,67.04 -25.98,201.24 -116.7,359.25 -263.35,494.41l-238.09 196.27 -268.49 165.88c-87.58,50.8 -192,93.2 -293.96,131.16 -108.59,40.43 -211.51,69.39 -334.13,100.25 -681.77,171.59 -1441.54,92.84 -2054.68,-145.09 -164.47,-63.81 -366.22,-165.67 -495.11,-262.71 -365.3,-275.07 -403.56,-538.36 -105.82,-907.2 44.31,-54.9 57.71,-66.07 111.1,-110.7l111.5 -101.05c122.91,-100.98 275.77,-176.19 418.07,-247.34 772.18,-386.1 1861.47,-413.15 2669.95,-81.94 257,105.28 584.84,285.1 713.09,543.77 50.18,101.22 5.97,89.31 64.53,120.29 0,-113.13 -16.43,-150.91 -92.32,-249.59 -162.22,-210.93 -381.93,-314.24 -610.14,-424.93 -307.82,-149.3 -770.85,-249.48 -1127.62,-249.48l-424.23 0c-236.88,4.95 -446.69,28.29 -739.27,121.21 -149.52,47.48 -299.55,102.36 -441.71,168.26 -366.14,169.74 -890.35,515.3 -890.35,967.17z"/>
   <path class="fil4" d="M3631.57 757.41c21.22,5.44 18.33,-8.41 18.48,7.78 25.64,26.94 -1.1,6.83 33.42,22.34 12.01,5.4 21.71,6.83 34.93,11.12 32.03,10.38 44.53,16.7 68.82,32.66 44.12,28.97 64.51,64.47 110.33,92.98 42.62,26.53 87.37,43.14 132.9,61.19 120.22,47.64 66.85,49.87 118.72,84.59 46.2,-96.27 -119.88,-121.71 -182.01,-150.69 -87.29,-40.71 -121.94,-104.25 -212.05,-148.37 -80.47,-39.4 -186.68,-50.09 -272.61,-78.6 -91.7,-30.42 -159.74,-87.71 -254.92,-105.51 -94.48,-17.67 -219.7,-13.98 -325.47,-25.76 -326.57,-36.38 -119.99,-53.17 -480.71,-16.68 -50.72,5.13 -91.86,3.41 -157.22,-1.62 -250.16,-19.26 -238.9,25.51 -462.1,56.58 -158.54,22.07 -220.49,-17.54 -427.54,108.5 -190.23,115.8 -196.35,49.73 -475.13,236.5 -43.7,29.27 -62,41.58 -113.33,62.27 -58.87,23.72 -113.1,56.35 -159.75,99.02 -52.54,48.05 -59.51,94.1 -171.75,188.67 -36.82,31.01 -101.74,116.54 -82.23,187.51 7.36,26.77 22.08,37.09 31.2,52.45 34.79,58.52 -10.84,131.09 64.48,212.75 106.33,115.29 71.35,163.16 140.55,210.61 72.37,49.61 189.71,45.2 275.05,85.39 85.88,40.42 120.02,98.74 221.06,130.13 97.14,30.18 201.99,31.52 303.24,57.21 96.09,24.38 165.39,67.04 255.87,95.33 93.96,29.38 208.65,29.25 331.85,28.61 131.11,-0.67 199.89,28.47 333.27,9.9 110.67,-15.41 185.2,-45.72 303.56,-56.9 89.14,-8.42 260.8,-0.03 336.3,-14.92 133.39,-26.31 532.63,-150.9 645.59,-241.65 34.77,-27.95 67.25,-59.52 100.19,-84.64 34.36,-26.19 64.7,-45.55 105.73,-69.86 180.96,-107.25 140.46,-36.43 275.06,-260.94 94.26,-157.22 174.54,-148.21 141.03,-384.51 -9.33,-65.78 6.31,-119.87 -59.49,-125.34 2.05,91.77 24.8,143.08 18.93,268.39 -3.88,82.54 -87.37,126.6 -160.64,264.46 -103.13,194.05 -160.12,122.09 -397.13,323.71 -49.67,42.26 -112.09,89.25 -174.02,112.47l-428.06 144.96c-174.82,43.95 -278.69,0.53 -523.56,49.48 -80.27,16.05 -157.85,36.86 -240.83,45.68 -79.04,8.41 -194.7,-8.33 -265.09,-18.84 -233.18,-34.79 -144.39,52.42 -487.48,-85.56 -74.74,-30.05 -136.83,-50.05 -226.6,-59.89 -336.4,-36.88 -254.02,-110.9 -413.77,-168.49 -66.68,-24.03 -162.45,-29.04 -226.25,-60.26 -71.04,-34.75 -73.33,-109.03 -116.9,-169.58 -63.53,-88.3 -57.02,-12.18 -85.71,-200.75 -16.98,-111.64 -127.96,-93.04 50.62,-268.07 15.88,-15.56 24.68,-20.32 39.76,-34.18 55.81,-51.28 78.98,-129.51 176.8,-183.61 79.45,-43.94 70.98,-20.35 187.98,-98.52 57.88,-38.66 109.01,-81.06 175.71,-110.78 66.91,-29.83 136.07,-50.38 205.95,-80.56 138.44,-59.77 224.39,-152.8 422.4,-150.6 109.65,1.21 159.97,-18.03 247.68,-38.84 155.49,-36.89 657.4,-35.02 833.79,-35.02l0 9.24c-111.85,0 -151.16,-10.35 -221.83,36.96 0,79.89 15.73,99.57 171.28,124.45 42.68,6.82 96.62,8.27 142.88,4.81 56.67,-4.23 88.7,-18.57 92.53,-64.58 -76.27,17.76 -101.7,31.07 -203.65,28.04 -31.21,-0.92 -66.79,-6.42 -97.62,-13.3 -40.21,-8.98 -58.99,-16.29 -68.44,-51.7 67.73,-92.42 290.58,6.5 341.98,18.48 -4.85,-20.8 -4.34,-23.9 -17.5,-37.95l-37.96 -26.73c58.09,0 355.43,28.88 405.69,47.19 31.47,11.48 42.52,22.31 71.91,39 47.49,26.95 215.42,86.77 261.83,72.39z"/>
   <path class="fil4" d="M1903.16 2169.63c82.76,0 265.07,-9.56 286.53,-101.64 -143.69,33.47 -72.31,64.68 -314.26,64.68 -168.14,0 -114.91,-129.36 64.7,-129.36 223.42,0 108.56,4.12 249.56,36.96 -8,-34.3 -20.05,-42.31 -47.33,-54.32 -109.96,-48.39 -336.7,-0.47 -390.1,51.58 -67.32,65.59 22.14,132.1 150.9,132.1z"/>
   <path class="fil4" d="M2892.14 1809.27c101.28,23.59 11.34,36.96 221.83,36.96 77.29,0 202.5,-18.7 221.83,-101.64 -64.31,34.02 -335.8,133.55 -406.68,27.72 25.83,-96.74 291.76,-97.5 354.01,-67.47l61.91 30.51c-32.25,-138.38 -357.73,-84.88 -433.05,-7.88 -28.16,28.79 -19.85,30.39 -19.85,81.8z"/>
   <path class="fil4" d="M2531.67 2067.99c0,46.55 126.98,55.44 175.62,55.44 60.49,0 100.74,-13.29 146.88,-28.72 47.59,-15.92 88.24,-19.86 93.43,-82.16 -109.12,25.42 -44.19,73.92 -323.5,73.92 -28.2,0 -37.3,-8.87 -55.46,-18.48 8.15,-97.86 207.27,-110.88 286.53,-110.88 52.98,0 66.1,14.76 110.91,18.48 -45.86,-86.65 -143.66,-66.19 -238.14,-44.03 -66.8,15.67 -196.27,54.78 -196.27,136.43z"/>
   <path class="fil4" d="M3557.63 1411.95l0 27.72c0,68.46 206.89,97.09 338.1,70.04 53.61,-11.05 65.84,-20.7 87.06,-60.8 -69.73,0 -64.97,27.72 -129.4,27.72 -116.03,0 -214.41,20.06 -258.8,-46.2 20.83,-77.97 152.21,-64.68 231.08,-64.68 62.67,0 99.34,34.9 147.88,46.2 -33.26,-142.73 -415.92,-77.49 -415.92,0z"/>
   <path class="fil4" d="M1431.78 1763.07c0,101.21 255.94,78.68 329.12,61.07 42.73,-10.28 57.96,-10.99 59.08,-61.07 -100.05,23.31 -243.55,66.21 -351.23,9.24 72.59,-108.37 315.56,-30.69 351.23,-27.72 -7.55,-32.38 -11.73,-37.33 -42.87,-49.55 -90.15,-35.4 -345.33,-8.52 -345.33,68.03z"/>
   <path class="fil4" d="M1644.36 774.39c0,130.18 251.69,76.58 317.14,49.08 63.45,-26.65 89.55,-38.16 89.55,-123 -63.46,33.56 -27.41,58.44 -95.94,88.88 -137.19,60.94 -155.88,40.22 -273.78,12.76 8.34,-100.18 141.79,-127.08 212.74,-126.94 29.65,0.06 63.24,15.2 101.52,16.06 -6.55,-28.1 -2.48,-27.36 -24.73,-39.96 -62.73,-35.5 -166.37,3.85 -219.73,26.57 -33.25,14.16 -106.77,60.06 -106.77,96.55z"/>
   <path class="fil4" d="M2698.04 866.79c0,106.04 343.26,140.88 406.69,46.2 -41.8,0.93 -36.74,9.24 -83.19,9.24 -69.16,0 -286.52,18.7 -286.52,-55.44 0,-72.85 214.23,-54.93 275.65,-35.34 31.78,10.14 49,27 84.81,35.34 -2.24,-26.92 7.38,-34.78 -74.89,-63.73 -66.93,-23.55 -322.55,-49.64 -322.55,63.73z"/>
   <path class="fil4" d="M1884.68 1596.75c106.78,56.48 363.2,79.52 388.19,-27.72 -152.92,35.62 -199.28,53.87 -351.22,18.48 20.5,-76.76 197.18,-73.92 268.04,-73.92 37,0 45.93,19.04 83.18,27.72 -8.89,-106.84 -247.19,-61 -305.15,-37.1 -53.69,22.15 -68.91,31.9 -83.04,92.54z"/>
   <path class="fil4" d="M794.03 1171.71c93.89,49.67 84.55,36.96 212.58,36.96 51.21,0 159.83,-30.53 184.86,-64.68 -52.45,-25.15 -127.3,36.96 -268.05,36.96 -39.75,0 -50.1,-10.77 -83.18,-18.48 3.25,-39.12 16.2,-43.63 45.72,-55.93 75.38,-31.4 233.86,-28.17 305.51,9.73 -9.13,-109.7 -256.84,-66.19 -329.25,-33.47 -45.07,20.37 -56.8,40 -68.19,88.91z"/>
   <path class="fil4" d="M3049.27 1125.51c0,77.03 333.3,101.71 360.47,0 -104.96,8.73 -195.65,61.32 -323.5,0 23.9,-45.15 48.12,-64.68 138.64,-64.68 171.43,0 88.04,16.56 175.62,36.96 -3,-36.04 -13.98,-45.53 -44.55,-57.1 -81.48,-30.83 -306.68,-18.46 -306.68,84.82z"/>
   <path class="fil4" d="M1977.1 1023.87c0,106.29 291.55,118.66 323.5,-18.48 -105.65,24.61 23.5,55.44 -249.55,55.44 -64.76,0 -12.05,-110.88 73.94,-110.88 174.46,0 112.04,17.06 175.61,18.48 -23.94,-89.64 -200.07,-57.15 -253.72,-22.64 -18.93,12.17 -69.78,57.75 -69.78,78.08z"/>
   <path class="fil4" d="M2494.7 1569.03c0,106.05 197.29,73.49 261.18,57.83 40.81,-10.01 61.47,-20.04 71.56,-57.83 -57.31,4.77 -246.69,76.21 -295.77,9.24 70.99,-96.86 258.8,-39.27 286.53,-36.96 -5.58,-67.06 -60.54,-55.44 -129.4,-55.44 -55.31,0 -194.1,40.03 -194.1,83.16z"/>
   <path class="fil4" d="M1404.05 1180.95l0 55.44c98.53,22.95 -23.91,27.72 221.83,27.72 32.05,0 53.38,-8.14 74.47,-17.94 34.1,-15.85 29.1,-15.4 45.68,-46.74 -73.26,0 -136.52,36.96 -212.58,36.96 -30.73,0 -57.46,-15.57 -92.43,-18.48 10.06,-120.9 287.22,-55.44 295.77,-55.44 -64.83,-96.79 -259.96,-58.23 -332.74,18.48z"/>
   <path class="fil4" d="M3086.24 1374.99c0,82.22 358.13,105.8 343.31,-23.21 -5.52,-48.05 -8.09,60.17 -186.18,60.17 -60.69,0 -84.21,-12.89 -120.16,-36.96 50.56,-75.48 178.91,-55.44 277.29,-55.44 -6.55,-24.53 0.66,-18.59 -24.19,-31.27 -3.82,-1.95 -42.37,-11.69 -44.16,-11.99 -29.33,-4.89 -73.19,3.26 -103.39,10.17 -43.16,9.87 -142.52,46.15 -142.52,88.53z"/>
   <path class="fil4" d="M2356.06 2178.87c30.18,-22.1 11.98,3.31 21.44,-43.24 13.03,-64.16 9.07,-740.08 2.53,-756.88 -12.7,-32.59 -5.2,-11.27 -14.73,-22.24l-9.16 628.4c0.34,62 -22.82,146.59 -0.08,193.96z"/>
   <path class="fil4" d="M3502.17 959.19c0,101.2 175.77,83.16 268.04,83.16 28.91,0 26.19,-16.58 36.97,-36.96 -134.42,10.14 -163.06,27.81 -268.04,-27.72 68.19,-101.79 258.45,-10.81 277.28,-9.24 -15.31,-28.93 -15.97,-37.29 -48.67,-52.99 -107.7,-51.73 -265.58,11.84 -265.58,43.75z"/>
   <path class="fil4" d="M720.08 1578.27l0 18.48c74.23,39.27 256.52,26.2 305.01,-46.2 -125.07,0 -133.35,59.09 -268.04,27.72 50.93,-76.03 181.97,-62.83 258.57,-53.74l0.23 -20.18c-50.22,-13.41 -45.07,-40.4 -168.57,-11.45 -46.34,10.86 -127.2,35.24 -127.2,85.37z"/>
  </g>
 </g>
</svg>
