<?xml version="1.0" encoding="UTF-8"?>
<!DOCTYPE svg PUBLIC "-//W3C//DTD SVG 1.1//EN" "http://www.w3.org/Graphics/SVG/1.1/DTD/svg11.dtd">
<!-- Creator: CorelDRAW 2017 -->
<svg xmlns="http://www.w3.org/2000/svg" xml:space="preserve" width="46.5666mm" height="30.7338mm" version="1.1" style="shape-rendering:geometricPrecision; text-rendering:geometricPrecision; image-rendering:optimizeQuality; fill-rule:evenodd; clip-rule:evenodd"
viewBox="0 0 4656.66 3073.38"
 xmlns:xlink="http://www.w3.org/1999/xlink">
 <defs>
  <style type="text/css">
   <![CDATA[
    .fil0 {fill:none}
    .fil2 {fill:#2D2C29}
    .fil1 {fill:#636360}
   ]]>
  </style>
 </defs>
 <g id="Capa_x0020_1">
  <metadata id="CorelCorpID_0Corel-Layer"/>
  <rect class="fil0" y="-0" width="4656.66" height="3073.39"/>
  <g id="_2923923064768">
   <path class="fil1" d="M2533.54 1410.62l-7.31 39.81c-59.61,0 -66.71,-17.33 -100.48,0 -26.11,10.54 -12.6,-19.81 -26.95,32.78 -5.7,20.88 -2.92,44.87 -2.92,66.77 39.31,0 40.4,3.13 69.7,9.95l0 26.31 -41.96 -21.38c-3.44,39.73 -3.97,44.85 12.09,69.76 0,6.4 1.46,42.79 1.1,45.03 -9.27,57.01 9.44,19.4 -20.97,39.54l11.25 -64.59c-6.95,32.67 -9.17,10.49 -21.26,24.73 0,-75.54 12.81,-77.5 -49.78,-119.4l11.96 -139.16c24.43,-12.88 8.65,-9.28 47.78,-10.15 0,-188.89 -39.21,-72.46 -59.74,-149.32 142,-33.07 75.91,47.76 99.57,149.32 53.42,4.44 20.72,9.55 77.92,0z"/>
   <path class="fil1" d="M2973.39 1540.02c28.69,-2.39 76.97,-20.45 50.69,19.7 -6.2,9.46 -20.64,19.12 -31.02,17.94 -20.49,-2.33 -17.6,-12.84 -19.67,-37.64z"/>
   <path class="fil2" d="M2435.71 1634.62c-16.06,-24.91 -15.53,-30.03 -12.09,-69.76l41.96 21.38c48.78,-41.42 244.79,-11.05 307.15,-4.88 36.77,3.63 105.42,13.05 146.33,22.93 70.94,17.15 68.05,23.09 143.95,5.41 40.26,-172.77 -83.78,-118.8 -209.1,-118.77l-327.68 -40.5 7.31 -39.81c-17.39,-56.95 37.49,-129.31 63.24,-167.46 29.91,-44.31 72.27,-95.87 137.64,-101.31 -28.35,106.15 -159.31,106.97 -159.31,278.72 40.35,0 56.68,6 96.52,13 26.81,4.71 71.17,6.91 112.58,6.91 47.79,-90.3 24.68,-54.66 109.52,-99.54 -6.82,81.98 -33.49,29.64 -49.78,99.54 60.53,0 150.41,-13.96 202.67,6.43 109.3,42.64 92.44,227.94 -42.46,221.56 -33.94,-1.61 -79.18,-36.84 -170.17,-38.86 22.28,83.41 93.45,111.07 179.33,110.33 177.1,-1.52 247.61,-175.93 129.75,-329.74 -68.4,-89.27 -122.98,-69.26 -219.46,-69.26l0 -29.86c76.24,-17.76 123.06,-55.26 251.72,76.83 234.93,241.17 -191.23,628.22 -401.08,231.74l-209.1 -9.95c0,127.93 61.87,185.71 126.91,251.39 249.99,252.46 605.99,188.59 732.46,-108.98 81.13,-190.88 45.03,-450.09 -100.85,-572.21 -115.99,-97.1 -279.84,-142.93 -440.25,-98.13 -53.75,15.01 -87.08,47.98 -139.04,60.08 14.15,-170.05 619.73,-225.4 755.01,260.54 58.99,211.89 -35.18,479.7 -221.27,591.58 -79.01,47.52 -225.03,76.87 -359.01,48.25 -170.6,-36.44 -274.38,-137.22 -353.58,-273.63 -66.33,-114.24 -28.55,-76.1 -50.16,-168.85 -49.69,-11.57 -66.66,-25.85 -79.66,34.88z"/>
   <path class="fil2" d="M2405.83 1679.33c12.09,-14.24 14.31,7.94 21.26,-24.73l-11.25 64.59c28.5,73.77 -40.18,160.97 -109.57,29.87l-348.52 -19.9c-57.31,-6.38 -108.8,-19.62 -168.86,-20.32l-521.21 -36.38c-153.05,-29.62 -125.54,-85.03 -126.65,-252.13 -1.69,-256.8 198.84,-195.43 340.27,-180.41l347.78 20.63c63.49,4.95 112.42,5.44 176.95,12.23l254.7 24.19c36.25,3.51 43.35,-5.8 85.36,-5.8 -5.28,22.69 -7.71,22.89 -9.96,49.77l-177.64 -21.5c-66.67,-6.96 -314.89,-30.55 -365.8,-24.07 -65.03,8.28 -106.56,-12.58 -173.14,-14.49 -49.71,-1.42 -375.29,-9.02 -385.09,-6.08 -79.6,23.88 -62.92,251.09 -43.39,334.9 171.93,40.05 370.6,40.06 544.86,62.51l570.34 46.98c6.82,-29.28 9.95,-30.38 9.95,-69.67 47.7,34.94 0.23,75.86 59.75,119.45 29.9,-28.37 29.86,-46.97 29.86,-89.64z"/>
  </g>
 </g>
</svg>
