<?xml version="1.0" encoding="UTF-8"?>
<!DOCTYPE svg PUBLIC "-//W3C//DTD SVG 1.1//EN" "http://www.w3.org/Graphics/SVG/1.1/DTD/svg11.dtd">
<!-- Creator: CorelDRAW 2017 -->
<svg xmlns="http://www.w3.org/2000/svg" xml:space="preserve" width="46.5666mm" height="30.7338mm" version="1.1" style="shape-rendering:geometricPrecision; text-rendering:geometricPrecision; image-rendering:optimizeQuality; fill-rule:evenodd; clip-rule:evenodd"
viewBox="0 0 4656.66 3073.38"
 xmlns:xlink="http://www.w3.org/1999/xlink">
 <defs>
  <style type="text/css">
   <![CDATA[
    .fil0 {fill:none}
    .fil4 {fill:#53352D}
    .fil1 {fill:#945345}
    .fil5 {fill:#A67B54}
    .fil2 {fill:#E77364}
    .fil3 {fill:#EC6F35}
    .fil6 {fill:#F1AC62}
   ]]>
  </style>
 </defs>
 <g id="Capa_x0020_1">
  <metadata id="CorelCorpID_0Corel-Layer"/>
  <rect class="fil0" y="-0" width="4656.66" height="3073.39"/>
  <rect class="fil0" y="-0" width="4656.66" height="3073.39"/>
  <g id="_2924235654160">
   <path class="fil1" d="M3140.22 1675.01c41.06,59.84 152.42,26.4 217.41,17.18l-2.31 26.24 13.83 -7.85c-4.43,-42.69 -19.14,-24.01 -60.6,-17.95l-10.79 -25.28c-75.49,-11.43 -101.08,6.95 -157.54,7.66z"/>
   <path class="fil1" d="M1104.3 1747.31c5.95,6.95 1.1,3.47 9.87,9.66 45.3,31.96 141.37,-18.9 199.66,-29.33l-6.31 25.32 9.15 -5.58 1.23 -23.54c-1.4,-0.82 -3.54,-1.05 -4.66,-1.36 -51.59,-14.05 -30.01,-19.47 -43.07,-22.86 -28.77,2.99 -47.07,12.48 -72.71,21.64 -65.8,23.49 -41.89,29.82 -43.93,35.41l-49.23 -9.36z"/>
   <path class="fil1" d="M1475.18 1539.12c-5.19,-74.34 16.67,-88.05 69.83,-117.08 41.45,-22.63 119.43,-33.37 155.95,-1.11 -5.32,5.64 0.34,2.44 -12.84,4.61 8.75,14.08 -6.12,2.71 13.33,12.69 7.73,3.97 12.16,2.96 22.56,5.03l-18.79 48.77c1.34,-0.89 3.19,-4.05 3.79,-2.96 0.84,1.55 12.75,-14.96 29.92,-23.05 6.44,35.73 -13.7,48.04 -30.8,71.57 26.41,-11.41 49.54,-33.54 46.85,-75.88 -26.72,-20.84 -14.97,2.7 -34.5,-30.91 -66.68,-114.73 -332.44,31.19 -245.3,108.32z"/>
   <path class="fil1" d="M1532.43 1534.31c32.4,43.26 146.79,3.42 169.93,-40.34 -16.79,-1.05 -6.05,-1.17 -14.85,-7.44 -12.61,-8.98 9.97,-13.97 -16.97,-8.62 -15.93,3.17 -11.38,13.19 -39.94,18.2 -43.7,7.66 -55.52,1.6 -66.86,44.93l-31.31 -6.73z"/>
   <path class="fil1" d="M1829.1 965.83c45.8,54.21 110.19,3.3 174.19,0.04l-4.79 22.01 11.8 -7.62c-5.65,-32.45 -7.52,-17.51 -37.54,-28.04 -23.1,-8.11 -12.16,-13.49 -49.94,-10.62 -71.44,5.43 -66.96,16.38 -93.72,24.23z"/>
   <path class="fil1" d="M2790.49 1914.35c8.62,11.23 14.36,18.34 38.2,22.29 60.39,10.02 91.21,-24.1 130.94,-8.86l-11.43 22.07c23.46,-6.51 30.66,-11.68 19.24,-37.92 -54.95,0.9 -44.15,-11.52 -83.19,-14.96 -44.45,-3.92 -48.97,4.3 -70.47,26.38l-23.29 -9z"/>
   <path class="fil1" d="M1916.54 1381.82c-12.92,12.28 -3.74,-15.51 -11.14,16.98 -3.85,16.87 5.45,23.8 21.38,30.13 67.8,26.98 117.62,-26.13 159.39,-38.99l-1.43 27.27c7.96,-7.85 2.32,3.07 8.51,-11.05 4.24,-9.66 2.93,-8.4 4.23,-18.79 -33.17,-6.39 -48.28,-7 -81.57,-1.51 -47.6,7.84 -28,5.55 -52.55,37.34l-49.81 -5.59 2.99 -35.79z"/>
   <path class="fil1" d="M1896.74 1846.21l15.6 10.53c17.32,8.07 49.31,9.79 68.6,7.64 35.69,-3.97 52.17,-10.25 66.38,-31.24l-25.54 8.41 -11.92 -29.11c-70.27,3.21 -59.98,3.71 -75.96,29.03l-37.16 4.74z"/>
   <path class="fil1" d="M2958.3 998.59c5.72,7.01 6.29,13.24 31.15,20.38 41.57,11.94 90.06,0.77 114.92,-29.84 -26.33,-1.72 -10.6,1.28 -28.02,-21.6 -68.62,7.54 -64.96,17.9 -73.27,44.3l-44.78 -13.24z"/>
   <path class="fil1" d="M2529.19 2107.56c26.34,2.23 48.91,-0.78 74.06,-6.72 28.96,-6.82 34.54,-11.15 41.33,-39.74 -104.5,11.19 -117.47,9.49 -115.39,46.46z"/>
   <path class="fil1" d="M1628.33 2111.51c42.38,10.69 100.47,-2.16 116.98,-29.67 -27.41,-13.45 -40.91,-4.54 -73.19,-3.78 -41.7,0.97 -43.63,-7.35 -43.79,33.45z"/>
   <path class="fil1" d="M2462.06 849.83l18.52 13.52c11.48,9.59 8.41,4.22 13,20.02 -28.88,-4.46 -42.57,-7.94 -63.58,8.29 42.95,0.67 36.84,-14.82 63.17,16.6 19.19,-14.87 9.92,-17.43 34.33,-23.87 0.78,24.98 -5.55,32.35 -11.84,48.3 23.31,-12.87 32.86,-23.69 17.18,-51.73 -7.82,-13.98 -6.52,-7.25 -14.81,-26.01 -9.69,-21.95 -0.74,-16.01 -23.68,-25.43l2.06 18.33 -34.35 1.98z"/>
   <path class="fil1" d="M1084.86 1465.49c21.77,30.01 83,16.6 105.75,-3.91l-6.32 -12.36c-0.56,-1.16 -1.33,-3.02 -1.84,-4.1l-5.5 -11.56c-58.05,8.77 -43.36,-1.98 -75.81,34.54l-16.28 -2.61z"/>
   <path class="fil1" d="M3089.74 1281.54l85.67 23.04c16.11,-0.49 29.15,-2.55 44.27,-7.89 8.69,-3.07 13.45,-5.34 20.2,-9.07l16.49 -10.65 -28.53 4.11 0 -17.31c-45.21,5.85 -92.4,19.79 -138.1,17.77z"/>
   <path class="fil1" d="M2320.56 909.57c25.88,17 32.69,18.67 61.57,15.82l-21.77 -19.23 69.64 -14.5c-15.64,-1.24 -35.67,-1.01 -53.22,-0.52 -25.21,0.69 -21.59,1.23 -34.56,18.9l-21.66 -0.47z"/>
   <path class="fil1" d="M986.68 1634.45l33.08 1.95 9.46 -30.1c-29.21,-4.18 -40.07,3.57 -42.54,28.15z"/>
   <path class="fil1" d="M1983.61 1095.28l-1.03 25.91c28.83,4.11 39.13,-2.1 36.77,-29.87l-35.74 3.96z"/>
   <polygon class="fil1" points="3180.6,1485.21 3216.46,1485.85 3214.48,1456.08 3182.91,1457.76 "/>
   <path class="fil1" d="M3317.24 1123.22c13.68,9.44 13.27,8.46 35.43,3.11l0.24 -16.67c-24.6,-8.99 -34.77,-12.47 -35.67,13.56z"/>
   <path class="fil1" d="M2965.38 1519.51l33.47 -1.56c-2.53,-22.58 -3.31,-25.27 -24.07,-31.8l-9.4 33.36z"/>
   <path class="fil1" d="M3247.74 935.12l3.35 -21.06 -32.06 -4.68c-3.77,25.84 4.14,31.59 28.71,25.74z"/>
   <path class="fil1" d="M2131.85 850.07l2.81 -19.76 -34.31 -2.18c0.2,24.56 9.65,30.17 31.5,21.94z"/>
   <path class="fil1" d="M3172.57 1964.73l-32.25 -5.08c3.02,15.5 3.77,23.43 19.47,24.39 15.09,0.91 12.26,-4.01 12.78,-19.31z"/>
   <path class="fil1" d="M1830.77 1537.44c4.02,21.91 -2.9,19.1 25.67,20.87 6.18,-25.28 -5.23,-30.37 -25.67,-20.87z"/>
   <path class="fil1" d="M1116.21 1863.64c5.73,21.67 7.6,29.07 28.65,11.65 -2.74,-10.06 5.68,-6.59 -7.47,-13.54 -19.16,-10.13 -20.18,1.45 -21.18,1.89z"/>
   <path class="fil1" d="M3550.95 1733.13c-12.87,-6.47 -18.69,6.41 -20.49,8.18 11.48,12.5 -2.47,16.08 25.72,13.72 2.93,-12.4 8.87,-14.83 -5.23,-21.9z"/>
   <path class="fil1" d="M3104.37 989.13l20.46 -2.81 -8.11 34.13c20.58,-10.3 24.99,-20.81 13.38,-41.15l-25.73 9.83z"/>
   <path class="fil2" d="M1628.33 2111.51c0.16,-40.8 2.09,-32.48 43.79,-33.45 32.28,-0.76 45.78,-9.67 73.19,3.78 -16.51,27.51 -74.6,40.36 -116.98,29.67zm178.02 0.81c5.52,-7.66 0.93,4.45 7.74,-12.8 3,-7.57 4.38,-12.18 4.95,-20.57 1.41,-20.52 -0.12,-26.1 -11.25,-40.53 -6.82,29.88 13.09,16.43 -17.65,17.82 -19.46,0.88 -10.82,-38.12 -123.72,-40.86 -60.4,-1.46 -125.45,14.77 -116.48,76.85 73.96,66.48 171.07,10.91 250.43,-3.41 5.98,7.92 8.52,-12.87 5.98,23.5z"/>
   <path class="fil2" d="M2343.94 1659.76c19.61,-17.74 60.98,-25.61 93.58,-25.29 -6.5,23.31 -11.83,29.99 -39.18,34.5 -20.94,3.45 -39.16,1.78 -54.4,-9.21zm154.45 24.47c30.01,-15.06 15.27,-29.07 -2.7,-43 25.25,-26.77 21.1,-37.72 -5.05,-61.09l7.03 36.62c-55.01,-8.6 -51.53,-40.13 -136.22,-24.74 -150.07,27.27 -124.34,125.06 17.64,98.79 20.57,-3.8 40.08,-9.69 59.72,-16.07l44.13 -13.01c1.37,-0.04 3.27,0.23 4.5,0.28 1.26,0.05 3.51,0.62 4.53,0.72 1.03,0.09 3.1,0.42 4.56,0.94l1.86 20.56z"/>
   <path class="fil2" d="M1532.43 1534.31l31.31 6.73c11.34,-43.33 23.16,-37.27 66.86,-44.93 28.56,-5.01 24.01,-15.03 39.94,-18.2 26.94,-5.35 4.36,-0.36 16.97,8.62 8.8,6.27 -1.94,6.39 14.85,7.44l2.86 -1.94 18.79 -48.77c-10.4,-2.07 -14.83,-1.06 -22.56,-5.03 -19.45,-9.98 -4.58,1.39 -13.33,-12.69 -30.77,-6.4 -90.36,0.38 -121.01,12.64 -36.13,14.44 -70.48,34.68 -63.77,82.93l29.09 13.2z"/>
   <path class="fil2" d="M1084.86 1465.49l16.28 2.61c32.45,-36.52 17.76,-25.77 75.81,-34.54l5.5 11.56c0.51,1.08 1.28,2.94 1.84,4.1l6.32 12.36c35.32,-7.63 48.63,-33.48 90.98,-42.72 -1.49,24.28 -9.05,36.78 -15.31,52.9 46.24,-22.62 25.06,-68.66 1,-101.66l-1.03 21.28c-63.16,-5.74 -76.46,-28.95 -144.54,-2.48 -32.81,12.76 -115.05,62.53 -36.85,76.59z"/>
   <path class="fil2" d="M2529.19 2107.56c-2.08,-36.97 10.89,-35.27 115.39,-46.46 -6.79,28.59 -12.37,32.92 -41.33,39.74 -25.15,5.94 -47.72,8.95 -74.06,6.72zm155.45 14.44l6.62 -7.16c11.93,-20.65 -0.88,13.75 6.33,-13.12 8.62,-32.02 -0.97,-65.83 -22.97,-86.6l14.3 48.37c-32.92,-11.21 -20.88,-22 -54.7,-31.48 -36.62,-10.26 -155.71,-10.7 -157.32,66.63 79.13,64.59 161.11,3.72 212.42,-2.7l-4.68 26.06z"/>
   <path class="fil2" d="M3140.22 1675.01c56.46,-0.71 82.05,-19.09 157.54,-7.66l10.79 25.28c41.46,-6.06 56.17,-24.74 60.6,17.95l16.83 -45.23c2.95,-24.45 3.3,-28.53 -11.22,-46.34l5.21 34.99c-28.01,-0.51 -30.32,-16.09 -53.02,-29.26 -38.33,-22.23 -94.23,-21.18 -136.58,-8.29 -31.44,9.56 -28.9,16.36 -51.98,29.21l1.83 29.35z"/>
   <path class="fil2" d="M3089.74 1281.54c45.7,2.02 92.89,-11.92 138.1,-17.77l0 17.31 28.53 -4.11 32.69 -3.96 -7.95 35.01c16.3,-9.77 12.15,-2.67 15.5,-26.82 0.71,-5.08 2.03,-29.64 2.13,-35.41 0.51,-29.32 -5.7,-36.12 -26.16,-46.57 7.05,12.14 11.95,21.51 13.79,41.09 -50.15,-17.13 -137.14,-58.54 -196.84,-10.06 -25.42,20.65 -22.43,28.15 0.21,51.29z"/>
   <path class="fil2" d="M1500.43 1198.38l20.08 -3.26c4.97,-23.21 34.22,-73.68 5.69,-88.39l-1.79 21.69c-31.91,-1.19 -50.46,-34.94 -107.65,-31.29 -148.43,9.46 -105.72,99.47 -31.08,79.35 28.48,-7.67 30.91,-24.69 76.76,-31.76l5.82 20.13 50.63 -5.69c-4.41,25.65 -2.92,21.95 -18.46,39.22z"/>
   <path class="fil2" d="M1104.3 1747.31l49.23 9.36c2.04,-5.59 -21.87,-11.92 43.93,-35.41 25.64,-9.16 43.94,-18.65 72.71,-21.64 13.06,3.39 -8.52,8.81 43.07,22.86 1.12,0.31 3.26,0.54 4.66,1.36l-1.23 23.54c15.37,-14.39 9.96,-15.98 19.52,-39.32 8.28,-20.23 17.42,-31.26 -3.2,-44.97l0.18 30.53c-32.61,-4.67 -26.79,-17.14 -59.93,-24.74 -57.57,-13.2 -165.38,-3.65 -186.94,62.2l18 16.23z"/>
   <path class="fil2" d="M1896.74 1846.21l37.16 -4.74c15.98,-25.32 5.69,-25.82 75.96,-29.03l11.92 29.11 25.54 -8.41 27.81 -13.21 14.07 16.27c22,-12.96 6.32,30.73 7.05,-18.33 0.07,-4.65 -4.1,-18.3 -5.29,-22.81 -36.65,1.48 -51.12,-32.9 -121.01,-25.96 -42.82,4.25 -84.98,17.77 -97.84,54.18l24.63 22.93z"/>
   <path class="fil2" d="M2342.6 1183.51c9.3,-14.64 9.16,-20.44 9.1,-42.36 -0.02,-4.4 -0.93,-19.3 -2.19,-23.09 -9.78,-29.24 0.51,-12.76 -15.78,-18.18l6.93 33.42c-49.35,-12.22 -52.5,-31.1 -118.32,-18.8 -43.57,8.14 -81.7,22.72 -77.74,66.58 43.5,7.12 6.75,-6.12 55.5,-18.88 22.57,-5.91 42.38,-8.6 61.65,2.43 -5.45,7.25 -0.84,2.25 -9.56,9.02l-20.29 12.35c64.36,11.67 52.67,-22.36 106.4,-22.72l4.3 20.23z"/>
   <path class="fil2" d="M3659.29 1263.08c11.61,-13.26 16.05,-25.99 15.52,-45.72 -0.55,-20.61 -5.96,-28.9 -15.59,-38.87 -0.94,22.04 1.4,0.72 -0.93,13.81l-5.13 7.61c-24.25,-15.73 -49.28,-35.27 -87.44,-36.36 -36.27,-1.04 -69.58,13.66 -80.29,41.85 13.15,66.59 81.32,16.35 115.29,6.38 10.13,7.31 -0.28,-4.61 11.03,11.79 5.08,7.37 4.44,8.74 7.5,15.24l39.13 -5.86 0.91 30.13z"/>
   <path class="fil2" d="M2654.36 1397.56l-10.04 29.23c42.07,7.44 70.87,-15.53 120.47,-9.01 25.22,3.32 37.23,14.27 54.99,13.35 20.32,-1.06 30.28,-14.44 52.21,-2.74 2.02,-33.41 5.4,-40 -17.6,-57.93l4.36 28.7c-43.31,-10.5 -36.48,-31.51 -108.57,-30.73 -34.69,0.38 -82.35,5.88 -95.82,29.13z"/>
   <path class="fil2" d="M2790.49 1914.35l23.29 9c21.5,-22.08 26.02,-30.3 70.47,-26.38 39.04,3.44 28.24,15.86 83.19,14.96 7.63,-31.51 14.15,-49.29 -11.63,-69.96l10.92 39.07c-49.17,-16.48 -36.54,-41.13 -117.28,-33.87 -40.34,3.64 -102.51,27.4 -58.96,67.18z"/>
   <path class="fil2" d="M2958.3 998.59l44.78 13.24c8.31,-26.4 4.65,-36.76 73.27,-44.3 17.42,22.88 1.69,19.88 28.02,21.6l25.73 -9.83c-1.87,-8.33 -3.24,-17.65 -5.19,-25.25l-9.48 -23.14c-0.67,-1.23 -1.81,-3.17 -2.97,-4.58 3.84,35.5 3.83,11.03 -6.98,19.71 -40.81,-12.62 -44.88,-26.03 -101.42,-17.33 -42.19,6.49 -67.09,17.54 -62.33,62.86l16.57 7.02z"/>
   <path class="fil2" d="M3589.66 1575.79l43.07 0.34c-14.81,-6.48 -10.1,-2.92 -9.77,-26.23 66.16,-6.57 57.24,30.21 100.83,-0.82l-8.23 -24.3c-23.61,-21.2 -48.33,-25.24 -91.77,-22.78 -41.93,2.36 -70.41,8.35 -79.73,41.26 8.61,23.67 18.07,29.92 45.6,32.53z"/>
   <path class="fil2" d="M2747.84 1171.4c13.39,-9.69 4.81,3.02 8.75,-18.94 1.27,-7.07 0.04,-20.01 -1.46,-27.14 -4.38,-20.82 -8.1,-25.29 -21.42,-34.46l7.43 35.72c-47.68,-4.66 -73.16,-36.63 -133.44,-27.99 -51.09,7.32 -114.46,61.36 -32.42,74.15l11.65 -29c27.88,-2.2 67.8,-4.67 94.21,3.36 64.14,19.48 29.53,-8.46 66.17,5.36l0.53 18.94z"/>
   <path class="fil2" d="M1916.54 1381.82l-2.99 35.79 49.81 5.59c24.55,-31.79 4.95,-29.5 52.55,-37.34 33.29,-5.49 48.4,-4.88 81.57,1.51 -1.48,-31.43 -2.29,-31.27 -22.17,-53.78l3.86 23.39c-36.15,-6.95 -43.77,-27.29 -95.28,-14.07 -25.05,6.43 -50.93,25.57 -67.35,38.91z"/>
   <path class="fil2" d="M2488.32 1910.21l6.92 -17.2c0.46,-2.16 0.88,-3.54 1.23,-5.95 3.74,-25.8 -5.87,-43.57 -18.92,-59.51l2.03 33.48c-43.67,-13.86 -49.63,-33.89 -113.69,-25.94 -37.53,4.66 -69.32,18.32 -75.82,52.23 32.99,-1.76 55.28,-16.12 99.27,-13.21 50.47,3.33 13.07,8.89 41.75,18.77 16.54,5.69 33.12,-0.33 50.97,-2.42 8.36,8.47 7.38,-14.96 6.26,19.75z"/>
   <path class="fil2" d="M2320.56 909.57l21.66 0.47c12.97,-17.67 9.35,-18.21 34.56,-18.9 17.55,-0.49 37.58,-0.72 53.22,0.52 21.01,-16.23 34.7,-12.75 63.58,-8.29 -4.59,-15.8 -1.52,-10.43 -13,-20.02l-18.52 -13.52c-68.73,-4.66 -123.74,-4 -158.51,40.8 8.2,13.1 5.13,10.11 17.01,18.94z"/>
   <path class="fil2" d="M1829.1 965.83c26.76,-7.85 22.28,-18.8 93.72,-24.23 37.78,-2.87 26.84,2.51 49.94,10.62 30.02,10.53 31.89,-4.41 37.54,28.04 1.09,-1.06 2.54,-4.4 2.97,-3.45l10.31 -14.55c14.53,-25.47 13.11,-42.6 -11.57,-57.56 4.85,11.81 7.5,21.42 8.71,39.92 -45.75,-9.26 -42.1,-31.63 -103.67,-32.61 -34.61,-0.54 -127.15,15.57 -87.95,53.82z"/>
   <path class="fil3" d="M2870.41 2051.76l-28.76 -6.96c-3.88,19.71 -7.83,29.39 8.48,33.13 20.1,4.63 20.7,-10.58 20.28,-26.17z"/>
   <polygon class="fil3" points="1626.73,1914.28 1656.9,1912.08 1658.46,1883.51 1629.3,1884.48 "/>
   <polygon class="fil3" points="2628.28,1890.92 2654.84,1891.46 2657.26,1865.29 2629.96,1864.21 "/>
   <path class="fil3" d="M1103.15 1252c20.26,12.42 29.57,8.97 29.6,-14.62 -18.15,-3.23 -28.65,-3.7 -29.6,14.62z"/>
   <path class="fil3" d="M1656.36 1274.94c3.98,21.08 2.12,21.03 21.66,21.91l4.38 -23.27 -26.04 1.36z"/>
   <path class="fil3" d="M1421.84 1741.31l17.19 6.39 2.58 -26.23c-22.01,7.19 -15.84,-1.03 -19.77,19.84z"/>
   <path class="fil4" d="M769.1 2061.72l22.57 9.82c5.5,-6.83 13.19,10.63 -1.18,-18.64 -16.92,-34.46 -43.93,-62.52 -80.25,-147.93 -88.11,-207.18 -29.64,-445.06 88.32,-617.64 66.09,-96.7 164.08,-192.64 262.46,-261.9 37.87,-26.66 314.19,-224.3 348.97,-117.11 -11.76,12.83 -17.44,13.94 -36.8,21.45 -15.71,6.09 -26.38,10 -42.13,16.17 -142.49,55.75 -106.7,69.71 -199.04,133.03 -117.2,80.36 -149.84,87.73 -207.14,241.35 -42.81,114.78 -140.04,180.47 -107.65,326.22 11.14,50.09 19.55,151.67 38.32,188.75 15.77,31.16 78.11,99.33 110.91,110 -6.58,-51.84 -25.25,-46.14 -40.62,-78.27 -60.23,-51.87 -48.18,-85.54 -64.25,-182.39 -18.48,-111.42 -36.67,-108.2 18.37,-205.34 33.3,-58.74 56.57,-93.23 84.32,-166.13 52.96,-139.1 118.44,-147.81 250.73,-256.09 48.47,-39.66 89.77,-66.56 166.51,-89.82 146.03,-44.27 213.66,-115 377.26,-136.23 89.76,-11.66 122.43,-19.09 197.81,-52.01 185.55,-81.03 221.36,-6.13 449.43,-51.47 183.51,-36.47 198.34,31.81 442.91,40.06 101.93,3.45 131.29,8.41 221.51,35.97 152.19,46.52 284.16,26.15 371.09,140.7 -11.56,10.26 -449.31,183.39 -503.12,204.81 -170.81,68.01 -332.15,140.85 -496.63,214.02 -125.85,55.99 -79.39,37.17 -246.15,-40.25 -126.2,-58.6 -338.92,-172.84 -470.38,-240.57 -74.06,-38.17 -167.42,-94.61 -240.66,-122.09 23.41,52.12 134.26,90.23 193.93,122.44l526.63 271.41c35.89,18.46 71.42,42.16 102.7,59.27 -8.74,14.13 -9.12,13.55 -30.86,24.17 -11.72,5.72 -22.93,11.4 -34.71,17.56 -54.14,28.25 -160.92,69.5 -220.06,94.5 -170.89,72.27 -394.21,192.78 -575.39,275.23 -94.02,42.79 -214.67,80.61 -298.87,125.83 61.14,30.96 507.82,-202.67 584.08,-236.78l570.1 -263.19c75.61,-33.48 231.99,82.5 287.02,113.72l798.89 458.99c-69.74,17.15 -199.56,56.06 -267.97,82.1 -264.95,100.86 -277.86,131.09 -573.71,119.83 -117.29,-4.46 -222.38,20.28 -338.15,16.88 -97.29,-2.86 -258.72,12.45 -344.69,-4.75 -48.12,-9.63 -87.58,-31.72 -138.86,-35.99 -57.63,-4.79 -117.75,6.97 -173.24,-7.19 -47.17,-12.05 -79.3,-30.85 -133.95,-41.02 -264.99,-49.28 -195.53,-76.62 -351.15,-176.27 -29.45,-10.23 -38.55,-21.32 -69.83,-8.42l117.84 85.88c109.39,86.3 127.71,102.84 280.77,127.72 57.48,9.34 101.58,37.07 156.02,46.27 65.04,10.99 129.66,-6.76 195.39,8.92 57.67,13.76 100.87,37.47 164.33,39.91 64.76,2.5 125.79,-12.73 192.17,-9.86 63.87,2.75 120.51,14.99 186.97,10.19 65.26,-4.71 116.69,-19.95 186.24,-19.71 260.23,0.91 244.38,36.17 528.46,-69.71 172.21,-64.18 224.38,-76.94 387.31,-125.54 27.29,-8.14 47.38,-26.42 69.85,-30.17 74.47,-12.44 68.87,67.15 117.63,81.09 -2.91,-88.62 -51.12,-71.73 -76.88,-110.95 86.29,-75.36 179.91,-99.25 234.98,-211.72 55.06,-112.44 186.48,-239.38 119.51,-293.83 -6.36,5.58 -3.37,0.06 -10.01,12.91 -7.6,14.69 -4.41,23.54 -14.29,38.36 -5.09,55.46 -88.75,146.57 -114.52,199.98 -47.52,98.46 -68.89,101.47 -149.81,158.83 -110.9,78.63 -124.89,120.45 -192.45,76.32 -157.13,-102.64 -416.25,-234.56 -590.51,-335.72l-391.05 -224.81c20.29,-31.57 171.04,-88.29 202.81,-102.27 69.37,-30.52 141.21,-60.56 213.41,-89.58 143.81,-57.8 286.76,-117.44 430.04,-175.9 36.24,-14.78 71.01,-28.87 107.62,-43.8 151.48,-61.79 94.5,-77.31 208.45,-29.92 114.99,47.81 92.8,80.01 140.19,162.85 21.37,37.37 44.92,54.69 70.86,80.5 74.5,74.1 25.64,163.59 58.27,240.01l27.04 7.25c2.46,-35.28 -8.37,-185.35 -19.84,-213.72 -18.08,-44.73 -74.35,-83.32 -102.75,-124.53 -37.05,-53.78 -36.99,-95.92 -85.85,-141.23 -46.68,-43.28 -111.35,-43.12 -153.75,-73.36l65.46 -71.39c-49.64,-2.59 -58.43,28.07 -83.87,55.11 -62.29,-1.39 -51.46,-65.68 -233.71,-93.14 -90.19,-13.59 -168.92,-50.2 -255.31,-64.95 -98.99,-16.9 -190.89,-3.62 -291.9,-28.84 -107.57,-26.85 -157.6,-42.97 -276.01,-25.34 -217.88,32.42 -187.96,3.1 -306.68,12.5 -99.82,7.91 -162.28,50.58 -247.91,73.42 -90.5,24.15 -179.72,22.44 -260.73,59.92 -119.91,55.47 -127.65,87.81 -195.9,30.95l-17.6 -17.34c41.12,-40 298.29,-117.43 375.44,-137.47 407.51,-105.92 988.14,-129.38 1387.32,-35.17 274.57,64.81 341.08,102.99 528.4,241.05l131.59 124.74c39.57,45.75 73.04,85.77 107.23,148.99 105.64,195.37 84.66,426.84 -17.54,608.63 -225.6,401.28 -782.34,601.44 -1399.6,647.36 -318.88,23.71 -645.22,4.51 -951.29,-52.32 -593.06,-110.13 -644.78,-281.62 -718.8,-296.5l9.45 32.21c2.11,85.24 357.97,213.3 414.42,232.29 138.2,46.48 396.22,98.54 547.46,110.9 668.45,54.6 1633.77,-2.95 2050.39,-535.42 99.62,-127.31 165.19,-268.71 174.79,-417.63l0 -75.69c-5.15,-79.4 -26.74,-160.58 -67.97,-242.58 -54.74,-108.91 -140.42,-223.18 -235.82,-300.15 -9.06,-7.31 -12.61,-11.75 -21.66,-19.11 -226.86,-184.77 -481.61,-237.14 -784.77,-281.4 -91.42,-13.35 -206.32,-20.7 -305.59,-20.68l-280.68 0c-14.29,1.04 -28.13,2.42 -41.36,4.23 -50.72,6.94 -101.33,3.36 -152.48,10.66 -343.61,49.06 -692.2,149.78 -985.51,325.36l-145.57 99.12c-166.06,124.38 -330.79,327.34 -365.53,537.43 -15.79,95.49 -8.29,207.56 12.23,294.3 10.72,45.29 23.71,84.6 42.34,120.78 9.72,18.88 49.41,87.07 75.42,87.72z"/>
   <path class="fil4" d="M2747.84 1171.4l-0.53 -18.94c-36.64,-13.82 -2.03,14.12 -66.17,-5.36 -26.41,-8.03 -66.33,-5.56 -94.21,-3.36l-11.65 29c-82.04,-12.79 -18.67,-66.83 32.42,-74.15 60.28,-8.64 85.76,23.33 133.44,27.99l-7.43 -35.72c-19.22,-4.35 -69.16,-40.31 -140.28,-24.54 -143.9,31.93 -116.77,157.39 22.73,154.28 47.4,-1.05 107.93,-17.3 131.68,-49.2z"/>
   <path class="fil4" d="M1806.35 2112.32c2.54,-36.37 0,-15.58 -5.98,-23.5 -79.36,14.32 -176.47,69.89 -250.43,3.41 -8.97,-62.08 56.08,-78.31 116.48,-76.85 112.9,2.74 104.26,41.74 123.72,40.86 30.74,-1.39 10.83,12.06 17.65,-17.82 -48.73,-88.17 -288,-66.86 -300.2,29.56 -14.3,113.05 243.93,109.92 298.76,44.34z"/>
   <path class="fil4" d="M2515.66 932.69c6.29,-15.95 12.62,-23.32 11.84,-48.3 -24.41,6.44 -15.14,9 -34.33,23.87 -26.33,-31.42 -20.22,-15.93 -63.17,-16.6l-69.64 14.5 21.77 19.23c-28.88,2.85 -35.69,1.18 -61.57,-15.82 -11.88,-8.83 -8.81,-5.84 -17.01,-18.94 34.77,-44.8 89.78,-45.46 158.51,-40.8l34.35 -1.98 -2.06 -18.33c-49.78,-14.68 -93.26,-24.32 -146.87,-8.91 -38.57,11.08 -92.35,35.96 -79.36,85.53 17.63,67.26 190.5,74.51 247.54,26.55z"/>
   <path class="fil4" d="M2342.6 1183.51l-4.3 -20.23c-53.73,0.36 -42.04,34.39 -106.4,22.72l20.29 -12.35c8.72,-6.77 4.11,-1.77 9.56,-9.02 -19.27,-11.03 -39.08,-8.34 -61.65,-2.43 -48.75,12.76 -12,26 -55.5,18.88 -3.96,-43.86 34.17,-58.44 77.74,-66.58 65.82,-12.3 68.97,6.58 118.32,18.8l-6.93 -33.42c-38.66,-22.24 -81.24,-28.39 -138.33,-11.87 -36.03,10.42 -95.74,41.6 -95.48,82.49 0.55,85.36 200.67,73.45 242.68,13.01z"/>
   <path class="fil4" d="M1307.52 1752.96l6.31 -25.32c-58.29,10.43 -154.36,61.29 -199.66,29.33 -8.77,-6.19 -3.92,-2.71 -9.87,-9.66l-18 -16.23c21.56,-65.85 129.37,-75.4 186.94,-62.2 33.14,7.6 27.32,20.07 59.93,24.74l-0.18 -30.53c-84.1,-58.89 -250.7,-35.05 -275.85,46.22 -38.63,124.83 205.05,96.09 250.38,43.65z"/>
   <path class="fil4" d="M2498.39 1684.23l-1.86 -20.56c-1.46,-0.52 -3.53,-0.85 -4.56,-0.94 -1.02,-0.1 -3.27,-0.67 -4.53,-0.72 -1.23,-0.05 -3.13,-0.32 -4.5,-0.28l-44.13 13.01c-19.64,6.38 -39.15,12.27 -59.72,16.07 -141.98,26.27 -167.71,-71.52 -17.64,-98.79 84.69,-15.39 81.21,16.14 136.22,24.74l-7.03 -36.62c-31.86,-1.32 -11.68,-5.17 -33.76,-11.67 -65.35,-19.23 -251.86,4.85 -236.79,96.04 12.95,78.34 211.45,86.33 278.3,19.72z"/>
   <path class="fil4" d="M2488.32 1910.21c1.12,-34.71 2.1,-11.28 -6.26,-19.75 -17.85,2.09 -34.43,8.11 -50.97,2.42 -28.68,-9.88 8.72,-15.44 -41.75,-18.77 -43.99,-2.91 -66.28,11.45 -99.27,13.21 6.5,-33.91 38.29,-47.57 75.82,-52.23 64.06,-7.95 70.02,12.08 113.69,25.94l-2.03 -33.48c-216.03,-80.32 -320.1,104.68 -117.36,116.1 49.52,2.8 99.39,-10.63 128.13,-33.44z"/>
   <path class="fil4" d="M3281.11 1308.02l7.95 -35.01 -32.69 3.96 -16.49 10.65c-6.75,3.73 -11.51,6 -20.2,9.07 -15.12,5.34 -28.16,7.4 -44.27,7.89l-85.67 -23.04c-22.64,-23.14 -25.63,-30.64 -0.21,-51.29 59.7,-48.48 146.69,-7.07 196.84,10.06 -1.84,-19.58 -6.74,-28.95 -13.79,-41.09 -60.14,-21.91 -80.24,-37.55 -154.74,-16.82 -88.84,24.72 -82.7,55.86 -82.53,106.33 43.59,22.62 42.62,43.24 117.92,48.36 48.1,3.28 97.81,-12.32 127.88,-29.07z"/>
   <path class="fil4" d="M2684.64 2122l4.68 -26.06c-51.31,6.42 -133.29,67.29 -212.42,2.7 1.61,-77.33 120.7,-76.89 157.32,-66.63 33.82,9.48 21.78,20.27 54.7,31.48l-14.3 -48.37c-17.44,-2.8 -33.24,-15.54 -64.3,-18.37 -64.76,-5.9 -172.84,23.24 -170.42,94.05 3.18,92.97 200.35,89.71 244.74,31.2z"/>
   <path class="fil4" d="M3355.32 1718.43l2.31 -26.24c-64.99,9.22 -176.35,42.66 -217.41,-17.18l-1.83 -29.35c23.08,-12.85 20.54,-19.65 51.98,-29.21 42.35,-12.89 98.25,-13.94 136.58,8.29 22.7,13.17 25.01,28.75 53.02,29.26l-5.21 -34.99c-31.5,-16.61 -23.06,-22.96 -73.5,-31.92 -31.16,-5.54 -63.05,-8.61 -94.94,-5.96 -70.71,5.89 -105.77,34.33 -104.9,107.98 24.55,25.17 61.93,46.76 114.84,50.77 42.39,3.22 108.71,-0.23 139.06,-21.45z"/>
   <path class="fil4" d="M2852.93 1468.4l6.59 -32.49c-45.67,4.34 -67.1,26.07 -126.87,28.08 -49.74,1.68 -91.85,-8.44 -99.07,-54.95l20.78 -11.48c13.47,-23.25 61.13,-28.75 95.82,-29.13 72.09,-0.78 65.26,20.23 108.57,30.73l-4.36 -28.7c-108.67,-68.74 -245.4,-23.25 -250.38,45.1 -3.63,49.76 49.44,78.45 99.13,83.07 60.66,5.63 104.27,-10.36 149.79,-30.23z"/>
   <path class="fil4" d="M1500.43 1198.38c15.54,-17.27 14.05,-13.57 18.46,-39.22l-50.63 5.69 -5.82 -20.13c-45.85,7.07 -48.28,24.09 -76.76,31.76 -74.64,20.12 -117.35,-69.89 31.08,-79.35 57.19,-3.65 75.74,30.1 107.65,31.29l1.79 -21.69c-52.96,-25.83 -45.5,-39.72 -127.82,-34.36 -143.83,9.36 -161.22,115.77 -51.45,137.74 41.85,8.38 120.13,1.32 153.5,-11.73z"/>
   <path class="fil4" d="M3736.33 1589.72l3 -28.96c-34.95,4.35 -75.42,30.74 -115.36,29.82 -34.89,-0.79 -34.3,-14.77 -34.31,-14.79 -27.53,-2.61 -36.99,-8.86 -45.6,-32.53 9.32,-32.91 37.8,-38.9 79.73,-41.26 43.44,-2.46 68.16,1.58 91.77,22.78l26.17 7.91 -2.98 -24.14c-48.95,-58.65 -225.74,-59.48 -232.29,29.09 -8.16,110.46 210.22,92.58 229.87,52.08z"/>
   <path class="fil4" d="M1266.28 1471.76c6.26,-16.12 13.82,-28.62 15.31,-52.9 -42.35,9.24 -55.66,35.09 -90.98,42.72 -22.75,20.51 -83.98,33.92 -105.75,3.91 -78.2,-14.06 4.04,-63.83 36.85,-76.59 68.08,-26.47 81.38,-3.26 144.54,2.48l1.03 -21.28c-48.8,-2.9 -71.57,-33.73 -147.51,-11.93 -42.68,12.24 -92.98,32.16 -94.66,80.3 -2.27,64.52 49.35,73.62 105.41,71.74 73.75,-2.47 88.74,-20.98 135.76,-38.45z"/>
   <path class="fil4" d="M2089.2 1836.2l-14.07 -16.27 -27.81 13.21c-14.21,20.99 -30.69,27.27 -66.38,31.24 -19.29,2.15 -51.28,0.43 -68.6,-7.64l-15.6 -10.53 -24.63 -22.93c12.86,-36.41 55.02,-49.93 97.84,-54.18 69.89,-6.94 84.36,27.44 121.01,25.96 -12.38,-54.34 -61.25,-59.45 -133.24,-53.16 -47.24,4.14 -117.21,34.72 -120.06,75.91 -5.69,82.2 204.21,114.08 251.54,18.39z"/>
   <path class="fil4" d="M1475.18 1539.12c10.6,27.64 71.29,46.41 115.46,46.33 44.65,-0.08 103.48,-22.63 117.49,-47.86 17.1,-23.53 37.24,-35.84 30.8,-71.57 -17.17,8.09 -29.08,24.6 -29.92,23.05 -0.6,-1.09 -2.45,2.07 -3.79,2.96l-2.86 1.94c-23.14,43.76 -137.53,83.6 -169.93,40.34l-29.09 -13.2c-6.71,-48.25 27.64,-68.49 63.77,-82.93 30.65,-12.26 90.24,-19.04 121.01,-12.64 13.18,-2.17 7.52,1.03 12.84,-4.61 -36.52,-32.26 -114.5,-21.52 -155.95,1.11 -53.16,29.03 -75.02,42.74 -69.83,117.08z"/>
   <path class="fil4" d="M3659.29 1263.08l-0.91 -30.13 -39.13 5.86c-3.06,-6.5 -2.42,-7.87 -7.5,-15.24 -11.31,-16.4 -0.9,-4.48 -11.03,-11.79 -33.97,9.97 -102.14,60.21 -115.29,-6.38 10.71,-28.19 44.02,-42.89 80.29,-41.85 38.16,1.09 63.19,20.63 87.44,36.36l5.13 -7.61c2.33,-13.09 -0.01,8.23 0.93,-13.81 -24.22,-28.64 -61.79,-42.41 -116.88,-37.58 -120.64,10.58 -122.52,117.33 -10.87,140.11 26.59,5.42 48.93,2.57 75.51,-0.06 43.48,-4.31 25.37,-3.35 52.31,-17.88z"/>
   <path class="fil4" d="M1998.5 987.88l4.79 -22.01c-64,3.26 -128.39,54.17 -174.19,-0.04 -39.2,-38.25 53.34,-54.36 87.95,-53.82 61.57,0.98 57.92,23.35 103.67,32.61 -1.21,-18.5 -3.86,-28.11 -8.71,-39.92 -28.32,-8.03 -80.66,-33.51 -129.47,-25.18 -40.66,6.95 -93.12,29.94 -97.22,65.32 -11.48,99.01 172.45,83.68 213.18,43.04z"/>
   <path class="fil4" d="M2948.2 1949.85l11.43 -22.07c-39.73,-15.24 -70.55,18.88 -130.94,8.86 -23.84,-3.95 -29.58,-11.06 -38.2,-22.29 -43.55,-39.78 18.62,-63.54 58.96,-67.18 80.74,-7.26 68.11,17.39 117.28,33.87l-10.92 -39.07c-33.1,-15 -84.42,-33.16 -128.18,-23.18 -38.45,8.76 -85.33,32.3 -90.3,68.63 -12.68,92.5 163.37,98.32 210.87,62.43z"/>
   <path class="fil4" d="M3116.72 1020.45l8.11 -34.13 -20.46 2.81c-24.86,30.61 -73.35,41.78 -114.92,29.84 -24.86,-7.14 -25.43,-13.37 -31.15,-20.38l-16.57 -7.02c-4.76,-45.32 20.14,-56.37 62.33,-62.86 56.54,-8.7 60.61,4.71 101.42,17.33 10.81,-8.68 10.82,15.79 6.98,-19.71 -39.64,-8.72 -50.3,-42.65 -123.51,-24.06 -37.67,9.57 -90.07,33.67 -89.18,75.74 1.34,64.04 143.53,110.11 216.95,42.44z"/>
   <path class="fil4" d="M2084.74 1417.21l1.43 -27.27c-41.77,12.86 -91.59,65.97 -159.39,38.99 -15.93,-6.33 -25.23,-13.26 -21.38,-30.13 7.4,-32.49 -1.78,-4.7 11.14,-16.98 16.42,-13.34 42.3,-32.48 67.35,-38.91 51.51,-13.22 59.13,7.12 95.28,14.07l-3.86 -23.39c-47.45,-9.3 -49.74,-30.54 -120.81,-9.19 -38.66,11.62 -80.06,34.86 -78.32,78.73 3.72,93.09 186.83,64.14 208.56,14.08z"/>
   <path class="fil4" d="M852.73 2065.88c41.74,-8.77 12.82,-28.38 69.51,-37.33 50.26,-7.93 63.15,2.27 78.14,-25.11 -22.19,-21.65 -135.81,-16.43 -147.65,62.44z"/>
   <path class="fil4" d="M2343.94 1659.76c15.24,10.99 33.46,12.66 54.4,9.21 27.35,-4.51 32.68,-11.19 39.18,-34.5 -32.6,-0.32 -73.97,7.55 -93.58,25.29z"/>
   <path class="fil5" d="M852.73 2065.88c11.84,-78.87 125.46,-84.09 147.65,-62.44 -14.99,27.38 -27.88,17.18 -78.14,25.11 -56.69,8.95 -27.77,28.56 -69.51,37.33zm2973.37 -601.12l6.69 83.51c9.88,-14.82 6.69,-23.67 14.29,-38.36 6.64,-12.85 3.65,-7.33 10.01,-12.91 66.97,54.45 -64.45,181.39 -119.51,293.83 -55.07,112.47 -148.69,136.36 -234.98,211.72 25.76,39.22 73.97,22.33 76.88,110.95 -48.76,-13.94 -43.16,-93.53 -117.63,-81.09 -22.47,3.75 -42.56,22.03 -69.85,30.17 -162.93,48.6 -215.1,61.36 -387.31,125.54 -284.08,105.88 -268.23,70.62 -528.46,69.71 -69.55,-0.24 -120.98,15 -186.24,19.71 -66.46,4.8 -123.1,-7.44 -186.97,-10.19 -66.38,-2.87 -127.41,12.36 -192.17,9.86 -63.46,-2.44 -106.66,-26.15 -164.33,-39.91 -65.73,-15.68 -130.35,2.07 -195.39,-8.92 -54.44,-9.2 -98.54,-36.93 -156.02,-46.27 -153.06,-24.88 -171.38,-41.42 -280.77,-127.72l-117.84 -85.88c31.28,-12.9 40.38,-1.81 69.83,8.42 -8.16,-13.38 -9.03,-18 -31.58,-23.55 -16.95,-4.16 -36.14,-4.03 -53.86,-4.54 -16.98,-46.53 -22.04,-55.73 -55.05,-81.82 15.37,32.13 34.04,26.43 40.62,78.27 -32.8,-10.67 -95.14,-78.84 -110.91,-110 -18.77,-37.08 -27.18,-138.66 -38.32,-188.75 -32.39,-145.75 64.84,-211.44 107.65,-326.22 57.3,-153.62 89.94,-160.99 207.14,-241.35 92.34,-63.32 56.55,-77.28 199.04,-133.03 15.75,-6.17 26.42,-10.08 42.13,-16.17 19.36,-7.51 25.04,-8.62 36.8,-21.45 -34.78,-107.19 -311.1,90.45 -348.97,117.11 -98.38,69.26 -196.37,165.2 -262.46,261.9 -117.96,172.58 -176.43,410.46 -88.32,617.64 36.32,85.41 63.33,113.47 80.25,147.93 14.37,29.27 6.68,11.81 1.18,18.64l-22.57 -9.82c10.15,24.93 45,59.74 69.89,69.87l-9.45 -32.21c74.02,14.88 125.74,186.37 718.8,296.5 306.07,56.83 632.41,76.03 951.29,52.32 617.26,-45.92 1174,-246.08 1399.6,-647.36 102.2,-181.79 123.18,-413.26 17.54,-608.63 -34.19,-63.22 -67.66,-103.24 -107.23,-148.99l-131.59 -124.74c-187.32,-138.06 -253.83,-176.24 -528.4,-241.05 -399.18,-94.21 -979.81,-70.75 -1387.32,35.17 -77.15,20.04 -334.32,97.47 -375.44,137.47l17.6 17.34c68.25,56.86 75.99,24.52 195.9,-30.95 81.01,-37.48 170.23,-35.77 260.73,-59.92 85.63,-22.84 148.09,-65.51 247.91,-73.42 118.72,-9.4 88.8,19.92 306.68,-12.5 118.41,-17.63 168.44,-1.51 276.01,25.34 101.01,25.22 192.91,11.94 291.9,28.84 86.39,14.75 165.12,51.36 255.31,64.95 182.25,27.46 171.42,91.75 233.71,93.14 25.44,-27.04 34.23,-57.7 83.87,-55.11l-65.46 71.39c42.4,30.24 107.07,30.08 153.75,73.36 48.86,45.31 48.8,87.45 85.85,141.23 28.4,41.21 84.67,79.8 102.75,124.53 11.47,28.37 22.3,178.44 19.84,213.72l-27.04 -7.25z"/>
   <path class="fil5" d="M2852.93 1468.4c20.26,-9.51 16.9,-13.29 19.06,-40.01 -21.93,-11.7 -31.89,1.68 -52.21,2.74 -17.76,0.92 -29.77,-10.03 -54.99,-13.35 -49.6,-6.52 -78.4,16.45 -120.47,9.01l10.04 -29.23 -20.78 11.48c7.22,46.51 49.33,56.63 99.07,54.95 59.77,-2.01 81.2,-23.74 126.87,-28.08l-6.59 32.49z"/>
   <path class="fil5" d="M3715.56 1524.78l8.23 24.3c-43.59,31.03 -34.67,-5.75 -100.83,0.82 -0.33,23.31 -5.04,19.75 9.77,26.23l-43.07 -0.34c0.01,0.02 -0.58,14 34.31,14.79 39.94,0.92 80.41,-25.47 115.36,-29.82l-3 28.96c18.64,-10.7 18.73,-9 19.52,-40.64 0.72,-29.3 -0.14,-29.68 -17.1,-40.53l2.98 24.14 -26.17 -7.91z"/>
   <path class="fil5" d="M3401 1434.21c11.74,1.47 22.84,4.92 30.44,-2.46 11.49,-11.15 0.47,-23.7 0.37,-23.95 -27.03,-7.3 -33.46,-1.84 -30.81,26.41z"/>
   <path class="fil5" d="M2346.23 1281.13c7.42,16.61 -9.24,5.28 11.55,13.82 23.56,9.67 24.44,-6.93 22.58,-23.34 -16.08,-4.7 -30.02,-7.85 -34.13,9.52z"/>
   <path class="fil5" d="M2577.69 1732.83c3.46,-0.12 10.47,0.42 13.45,-0.49 17.9,-5.48 14.63,-8.16 16.84,-28.98 -27.28,-3.78 -34.03,2.62 -30.29,29.47z"/>
   <path class="fil5" d="M1344.38 1603.14l35.87 0.62 -4.55 -26.03c-22.03,1.41 -28.96,3.02 -31.32,25.41z"/>
   <path class="fil6" d="M2674.62 2015.12c22,20.77 31.59,54.58 22.97,86.6 -7.21,26.87 5.6,-7.53 -6.33,13.12l-6.62 7.16c-44.39,58.51 -241.56,61.77 -244.74,-31.2 -2.42,-70.81 105.66,-99.95 170.42,-94.05 31.06,2.83 46.86,15.57 64.3,18.37zm-866.83 23.3c11.13,14.43 12.66,20.01 11.25,40.53 -0.57,8.39 -1.95,13 -4.95,20.57 -6.81,17.25 -2.22,5.14 -7.74,12.8 -54.83,65.58 -313.06,68.71 -298.76,-44.34 12.2,-96.42 251.47,-117.73 300.2,-29.56zm1042.34 39.51c-16.31,-3.74 -12.36,-13.42 -8.48,-33.13l28.76 6.96c0.42,15.59 -0.18,30.8 -20.28,26.17zm322.44 -113.2c-0.52,15.3 2.31,20.22 -12.78,19.31 -15.7,-0.96 -16.45,-8.89 -19.47,-24.39l32.25 5.08zm-1543.27 -80.25l29.16 -0.97 -1.56 28.57 -30.17 2.2 2.57 -29.8zm1318.9 65.37c-47.5,35.89 -223.55,30.07 -210.87,-62.43 4.97,-36.33 51.85,-59.87 90.3,-68.63 43.76,-9.98 95.08,8.18 128.18,23.18 25.78,20.67 19.26,38.45 11.63,69.96 11.42,26.24 4.22,31.41 -19.24,37.92zm-318.24 -85.64l27.3 1.08 -2.42 26.17 -26.56 -0.54 1.68 -26.71zm-152.41 -36.66c13.05,15.94 22.66,33.71 18.92,59.51 -0.35,2.41 -0.77,3.79 -1.23,5.95l-6.92 17.2c-28.74,22.81 -78.61,36.24 -128.13,33.44 -202.74,-11.42 -98.67,-196.42 117.36,-116.1zm-1332.69 47.74c-21.05,17.42 -22.92,10.02 -28.65,-11.65 1,-0.44 2.02,-12.02 21.18,-1.89 13.15,6.95 4.73,3.48 7.47,13.54zm946.1 -80.23c1.19,4.51 5.36,18.16 5.29,22.81 -0.73,49.06 14.95,5.37 -7.05,18.33 -47.33,95.69 -257.23,63.81 -251.54,-18.39 2.85,-41.19 72.82,-71.77 120.06,-75.91 71.99,-6.29 120.86,-1.18 133.24,53.16zm-669.12 -53.75c3.93,-20.87 -2.24,-12.65 19.77,-19.84l-2.58 26.23 -17.19 -6.39zm1155.85 -8.48c-3.74,-26.85 3.01,-33.25 30.29,-29.47 -2.21,20.82 1.06,23.5 -16.84,28.98 -2.98,0.91 -9.99,0.37 -13.45,0.49zm-1261.02 14.55l-9.15 5.58c-45.33,52.44 -289.01,81.18 -250.38,-43.65 25.15,-81.27 191.75,-105.11 275.85,-46.22 20.62,13.71 11.48,24.74 3.2,44.97 -9.56,23.34 -4.15,24.93 -19.52,39.32zm1181.72 -63.15c-66.85,66.61 -265.35,58.62 -278.3,-19.72 -15.07,-91.19 171.44,-115.27 236.79,-96.04 22.08,6.5 1.9,10.35 33.76,11.67 26.15,23.37 30.3,34.32 5.05,61.09 17.97,13.93 32.71,27.94 2.7,43zm-1511.71 -49.78c2.47,-24.58 13.33,-32.33 42.54,-28.15l-9.46 30.1 -33.08 -1.95zm357.7 -31.31c2.36,-22.39 9.29,-24 31.32,-25.41l4.55 26.03 -35.87 -0.62zm486.39 -65.7c20.44,-9.5 31.85,-4.41 25.67,20.87 -28.57,-1.77 -21.65,1.04 -25.67,-20.87zm-122.64 0.15c-14.01,25.23 -72.84,47.78 -117.49,47.86 -44.17,0.08 -104.86,-18.69 -115.46,-46.33 -87.14,-77.13 178.62,-223.05 245.3,-108.32 19.53,33.61 7.78,10.07 34.5,30.91 2.69,42.34 -20.44,64.47 -46.85,75.88zm-441.85 -65.83c-47.02,17.47 -62.01,35.98 -135.76,38.45 -56.06,1.88 -107.68,-7.22 -105.41,-71.74 1.68,-48.14 51.98,-68.06 94.66,-80.3 75.94,-21.8 98.71,9.03 147.51,11.93 24.06,33 45.24,79.04 -1,101.66zm818.46 -54.55c-21.73,50.06 -204.84,79.01 -208.56,-14.08 -1.74,-43.87 39.66,-67.11 78.32,-78.73 71.07,-21.35 73.36,-0.11 120.81,9.19 19.88,22.51 20.69,22.35 22.17,53.78 -1.3,10.39 0.01,9.13 -4.23,18.79 -6.19,14.12 -0.55,3.2 -8.51,11.05zm273.04 -122.26c-20.79,-8.54 -4.13,2.79 -11.55,-13.82 4.11,-17.37 18.05,-14.22 34.13,-9.52 1.86,16.41 0.98,33.01 -22.58,23.34zm-679.76 1.9c-19.54,-0.88 -17.68,-0.83 -21.66,-21.91l26.04 -1.36 -4.38 23.27zm-574.87 -44.85c0.95,-18.32 11.45,-17.85 29.6,-14.62 -0.03,23.59 -9.34,27.04 -29.6,14.62zm1230.58 -152.12c16.29,5.42 6,-11.06 15.78,18.18 1.26,3.79 2.17,18.69 2.19,23.09 0.06,21.92 0.2,27.72 -9.1,42.36 -42.01,60.44 -242.13,72.35 -242.68,-13.01 -0.26,-40.89 59.45,-72.07 95.48,-82.49 57.09,-16.52 99.67,-10.37 138.33,11.87zm399.98 -9.02c13.32,9.17 17.04,13.64 21.42,34.46 1.5,7.13 2.73,20.07 1.46,27.14 -3.94,21.96 4.64,9.25 -8.75,18.94 -23.75,31.9 -84.28,48.15 -131.68,49.2 -139.5,3.11 -166.63,-122.35 -22.73,-154.28 71.12,-15.77 121.06,20.19 140.28,24.54zm-1233.28 107.52c-33.37,13.05 -111.65,20.11 -153.5,11.73 -109.77,-21.97 -92.38,-128.38 51.45,-137.74 82.32,-5.36 74.86,8.53 127.82,34.36 28.53,14.71 -0.72,65.18 -5.69,88.39l-20.08 3.26zm518.92 -107.06c2.36,27.77 -7.94,33.98 -36.77,29.87l1.03 -25.91 35.74 -3.96zm1093.11 -164.99c1.16,1.41 2.3,3.35 2.97,4.58l9.48 23.14c1.95,7.6 3.32,16.92 5.19,25.25 11.61,20.34 7.2,30.85 -13.38,41.15 -73.42,67.67 -215.61,21.6 -216.95,-42.44 -0.89,-42.07 51.51,-66.17 89.18,-75.74 73.21,-18.59 83.87,15.34 123.51,24.06zm-1102.16 53.93l-11.8 7.62c-40.73,40.64 -224.66,55.97 -213.18,-43.04 4.1,-35.38 56.56,-58.37 97.22,-65.32 48.81,-8.33 101.15,17.15 129.47,25.18 24.68,14.96 26.1,32.09 11.57,57.56l-10.31 14.55c-0.43,-0.95 -1.88,2.39 -2.97,3.45zm1240.79 -66.2l-3.35 21.06c-24.57,5.85 -32.48,0.1 -28.71,-25.74l32.06 4.68zm-756.74 -84.54c22.94,9.42 13.99,3.48 23.68,25.43 8.29,18.76 6.99,12.03 14.81,26.01 15.68,28.04 6.13,38.86 -17.18,51.73 -57.04,47.96 -229.91,40.71 -247.54,-26.55 -12.99,-49.57 40.79,-74.45 79.36,-85.53 53.61,-15.41 97.09,-5.77 146.87,8.91zm-394 -1.39l34.31 2.18 -2.81 19.76c-21.85,8.23 -31.3,2.62 -31.5,-21.94zm-1174.51 1038.89c33.01,26.09 38.07,35.29 55.05,81.82 17.72,0.51 36.91,0.38 53.86,4.54 22.55,5.55 23.42,10.17 31.58,23.55 155.62,99.65 86.16,126.99 351.15,176.27 54.65,10.17 86.78,28.97 133.95,41.02 55.49,14.16 115.61,2.4 173.24,7.19 51.28,4.27 90.74,26.36 138.86,35.99 85.97,17.2 247.4,1.89 344.69,4.75 115.77,3.4 220.86,-21.34 338.15,-16.88 295.85,11.26 308.76,-18.97 573.71,-119.83 68.41,-26.04 198.23,-64.95 267.97,-82.1l-798.89 -458.99c-55.03,-31.22 -211.41,-147.2 -287.02,-113.72l-570.1 263.19c-76.26,34.11 -522.94,267.74 -584.08,236.78 84.2,-45.22 204.85,-83.04 298.87,-125.83 181.18,-82.45 404.5,-202.96 575.39,-275.23 59.14,-25 165.92,-66.25 220.06,-94.5 11.78,-6.16 22.99,-11.84 34.71,-17.56 21.74,-10.62 22.12,-10.04 30.86,-24.17 -31.28,-17.11 -66.81,-40.81 -102.7,-59.27l-526.63 -271.41c-59.67,-32.21 -170.52,-70.32 -193.93,-122.44 73.24,27.48 166.6,83.92 240.66,122.09 131.46,67.73 344.18,181.97 470.38,240.57 166.76,77.42 120.3,96.24 246.15,40.25 164.48,-73.17 325.82,-146.01 496.63,-214.02 53.81,-21.42 491.56,-194.55 503.12,-204.81 -86.93,-114.55 -218.9,-94.18 -371.09,-140.7 -90.22,-27.56 -119.58,-32.52 -221.51,-35.97 -244.57,-8.25 -259.4,-76.53 -442.91,-40.06 -228.07,45.34 -263.88,-29.56 -449.43,51.47 -75.38,32.92 -108.05,40.35 -197.81,52.01 -163.6,21.23 -231.23,91.96 -377.26,136.23 -76.74,23.26 -118.04,50.16 -166.51,89.82 -132.29,108.28 -197.77,116.99 -250.73,256.09 -27.75,72.9 -51.02,107.39 -84.32,166.13 -55.04,97.14 -36.85,93.92 -18.37,205.34 16.07,96.85 4.02,130.52 64.25,182.39z"/>
   <path class="fil6" d="M3530.46 1741.31c1.8,-1.77 7.62,-14.65 20.49,-8.18 14.1,7.07 8.16,9.5 5.23,21.9 -28.19,2.36 -14.24,-1.22 -25.72,-13.72zm-155.7 -122.3c14.52,17.81 14.17,21.89 11.22,46.34l-16.83 45.23 -13.83 7.85c-30.35,21.22 -96.67,24.67 -139.06,21.45 -52.91,-4.01 -90.29,-25.6 -114.84,-50.77 -0.87,-73.65 34.19,-102.09 104.9,-107.98 31.89,-2.65 63.78,0.42 94.94,5.96 50.44,8.96 42,15.31 73.5,31.92zm363.99 -110.46c16.96,10.85 17.82,11.23 17.1,40.53 -0.79,31.64 -0.88,29.94 -19.52,40.64 -19.65,40.5 -238.03,58.38 -229.87,-52.08 6.55,-88.57 183.34,-87.74 232.29,-29.09zm-763.97 -22.4c20.76,6.53 21.54,9.22 24.07,31.8l-33.47 1.56 9.4 -33.36zm208.13 -28.39l31.57 -1.68 1.98 29.77 -35.86 -0.64 2.31 -27.45zm-328.52 -87.3c23,17.93 19.62,24.52 17.6,57.93 -2.16,26.72 1.2,30.5 -19.06,40.01 -45.52,19.87 -89.13,35.86 -149.79,30.23 -49.69,-4.62 -102.76,-33.31 -99.13,-83.07 4.98,-68.35 141.71,-113.84 250.38,-45.1zm546.61 63.75c-2.65,-28.25 3.78,-33.71 30.81,-26.41 0.1,0.25 11.12,12.8 -0.37,23.95 -7.6,7.38 -18.7,3.93 -30.44,2.46zm-128.42 -234.99c20.46,10.45 26.67,17.25 26.16,46.57 -0.1,5.77 -1.42,30.33 -2.13,35.41 -3.35,24.15 0.8,17.05 -15.5,26.82 -30.07,16.75 -79.78,32.35 -127.88,29.07 -75.3,-5.12 -74.33,-25.74 -117.92,-48.36 -0.17,-50.47 -6.31,-81.61 82.53,-106.33 74.5,-20.73 94.6,-5.09 154.74,16.82zm386.64 -20.73c9.63,9.97 15.04,18.26 15.59,38.87 0.53,19.73 -3.91,32.46 -15.52,45.72 -26.94,14.53 -8.83,13.57 -52.31,17.88 -26.58,2.63 -48.92,5.48 -75.51,0.06 -111.65,-22.78 -109.77,-129.53 10.87,-140.11 55.09,-4.83 92.66,8.94 116.88,37.58zm-306.55 -52.16c-22.16,5.35 -21.75,6.33 -35.43,-3.11 0.9,-26.03 11.07,-22.55 35.67,-13.56l-0.24 16.67zm480.12 421.94l-6.69 -83.51c-32.63,-76.42 16.23,-165.91 -58.27,-240.01 -25.94,-25.81 -49.49,-43.13 -70.86,-80.5 -47.39,-82.84 -25.2,-115.04 -140.19,-162.85 -113.95,-47.39 -56.97,-31.87 -208.45,29.92 -36.61,14.93 -71.38,29.02 -107.62,43.8 -143.28,58.46 -286.23,118.1 -430.04,175.9 -72.2,29.02 -144.04,59.06 -213.41,89.58 -31.77,13.98 -182.52,70.7 -202.81,102.27l391.05 224.81c174.26,101.16 433.38,233.08 590.51,335.72 67.56,44.13 81.55,2.31 192.45,-76.32 80.92,-57.36 102.29,-60.37 149.81,-158.83 25.77,-53.41 109.43,-144.52 114.52,-199.98z"/>
  </g>
 </g>
</svg>
