<?xml version="1.0" encoding="UTF-8"?>
<!DOCTYPE svg PUBLIC "-//W3C//DTD SVG 1.1//EN" "http://www.w3.org/Graphics/SVG/1.1/DTD/svg11.dtd">
<!-- Creator: CorelDRAW 2017 -->
<svg xmlns="http://www.w3.org/2000/svg" xml:space="preserve" width="46.5666mm" height="30.7338mm" version="1.1" style="shape-rendering:geometricPrecision; text-rendering:geometricPrecision; image-rendering:optimizeQuality; fill-rule:evenodd; clip-rule:evenodd"
viewBox="0 0 4656.66 3073.38"
 xmlns:xlink="http://www.w3.org/1999/xlink">
 <defs>
  <style type="text/css">
   <![CDATA[
    .fil0 {fill:none}
    .fil4 {fill:#262425}
    .fil1 {fill:#595958}
    .fil6 {fill:#89CEFC}
    .fil8 {fill:#A4976B}
    .fil3 {fill:#CAFC4C}
    .fil7 {fill:#F7C76D}
    .fil2 {fill:#FCB232}
    .fil5 {fill:#FCD8C6}
   ]]>
  </style>
 </defs>
 <g id="Capa_x0020_1">
  <metadata id="CorelCorpID_0Corel-Layer"/>
  <rect class="fil0" y="-0" width="4656.66" height="3073.39"/>
  <rect class="fil0" y="-0" width="4656.66" height="3073.39"/>
  <g id="_2924043004624">
   <path class="fil1" d="M2843.18 2008.81c-14.86,16.75 -53.45,21.56 -76.3,26.92 -12.15,2.84 -30.29,4.25 -39.77,8.41 -15.4,6.75 -13.27,13.49 -33.86,21.72 -0.18,-15.64 -4.93,-18.94 -21.89,-17.56 10.66,-17.35 18.51,-25.57 35.39,-39.4 8.99,17.38 20.72,25.74 43.58,23.95 -2.9,-11.22 -6.2,-20.49 -4.86,-33.1 2.88,-27.07 17.93,-27.73 18.54,-28.09l-9.27 32.19c31.3,-5.03 45.9,-20.95 75.72,-29.42l12.72 34.38z"/>
   <path class="fil1" d="M1839.03 1940.45c-6.37,14.37 -3.85,9.14 -11.2,14.23 -14.12,-4.13 -19.66,31.4 -53.94,38.51 7.78,-21.28 9.16,-22.96 19.06,-40.71 17.43,-31.27 0.9,-13.59 32.57,-30.62 2.17,10.68 0.96,17.44 13.51,18.59z"/>
   <path class="fil1" d="M1941.64 2882.92l-90.45 8.3c-14.24,-3.82 -8.82,-4.28 -12.71,-7.2l71.88 -2.58c-5.17,-17.72 -9.06,-16.44 -27,-17.75 -20.75,-1.51 -17.67,2.92 -36.19,-8.49l93.75 -0.58c-9.95,8.13 -1.47,0.85 -12.31,6.92 -16.31,9.14 -4.33,0.44 -12.86,9.49 10.2,7.1 9.2,8.65 25.89,11.89z"/>
   <path class="fil1" d="M2771.46 1928.33c3.9,-24.12 0.96,-4.91 -4.15,-13.54l-28.05 -5.24c-0.37,3.28 -1.43,15.8 -1.84,17.29l-7.47 14.99 -0.45 -64.39c20.57,16.71 6.6,20.94 44.05,22.98l-2 -27.76c7.94,8.09 2.59,-10.99 6.89,14.08 0.41,2.38 0.25,12.11 0.17,14.86 -0.37,11.58 1.14,22.85 -7.15,26.73z"/>
   <path class="fil1" d="M2709.58 1021.08l-2.38 -35.19 27.39 -15.45c0,21.9 2.6,30.24 -4.86,45.78 -9.81,4.86 -5.56,3.72 -20.15,4.86z"/>
   <path class="fil1" d="M1740.19 1076.18c-7.87,11.98 -4.05,8.69 -21.83,14.96 -3.34,-14.01 -10.21,-26.36 -14.46,-35.46 9.85,-10.41 4.97,-8.04 22.75,-12.09 -4.73,16.13 -11.97,33.21 13.54,32.59z"/>
   <path class="fil1" d="M2707.2 985.89c-12.57,-13.81 -10.89,-34.45 -13.21,-55.79l24 23.32 -10.79 32.47z"/>
   <path class="fil1" d="M1932.54 1017.4l-17.51 4.46c4.76,-19.21 -13.62,-26.31 -35.02,-26.53 14.11,-8.99 15.39,-7.25 35.31,-10.89l2.15 17.41c13.53,8.82 6.64,1.94 15.07,15.55z"/>
   <path class="fil1" d="M2900.85 1969.78l-20.4 20.05c0.92,-22.08 -6.84,-29.68 -28.03,-28.77l23.24 -21.55 0.69 20.69c8.85,6.61 8.95,7.84 24.5,9.58z"/>
   <path class="fil1" d="M1917.38 1207.8c-19.72,-2.7 -8.09,-3.22 -26.32,3.86l-1.62 -22.25c26.25,2.4 16.9,-3.48 27.94,18.39z"/>
   <path class="fil2" d="M2432.18 2217c0.36,17.39 -19.6,51.35 -26.46,78.68l-23.29 4.7c-34.19,111.19 48.81,238.35 99.18,282.04 139.35,120.85 270.43,102.18 277.88,70.82 11.33,12.97 14.49,10.07 31.72,16.27l-0.94 41.08c32.85,1.82 16.15,-10.77 37.86,-31.1 30.55,-5.04 60.31,-0.66 86.2,10.09 82.11,31.84 275.19,4.67 356.87,-23.01 85.85,-29.08 212.48,-107.65 231.27,-171.71l-20.05 -1.71c17.84,-12.8 5.63,-2.85 10.59,-13.63l59.12 11.58c-12.32,121.26 -207.15,208.78 -316.71,237.17 -156.85,40.63 -340.3,45.76 -500.95,9.76 -180.14,-40.38 -469.49,-156.06 -479.18,-359.7 -4.74,-99.5 41.2,-149.82 106.72,-180.84 28.35,-2.9 51.57,6.73 70.17,19.51z"/>
   <path class="fil2" d="M2622.22 1909.74l0.64 44.52c-49.99,-1.82 -109.24,22.86 -155.54,34.98 -52.33,13.71 -106.9,25.01 -161.56,33.25 -57.73,8.71 -117.07,13.45 -175.87,18.08l-135.11 11.9c-25.46,2.48 -26.18,-0.19 -30.97,19.29l-18.93 -6.31 -8.98 0.3c8.81,-20.62 14.43,-14.69 -8.89,-22.63l22.36 -90.84 54.4 1.98c-9.51,10.32 -6.83,2.96 -8.79,20.53 88.27,26.42 330.56,-21.86 431.76,-50.35 41.42,-11.66 87.72,-32.32 125.2,-41.39l-5.27 -18.7c3.5,-0.22 13.5,-0.7 17.23,-1.29 12.45,-1.97 9.3,-2.94 11.22,-3.87 17.32,24.1 18.59,46.91 47.1,50.55z"/>
   <path class="fil2" d="M3041.27 2185.77l-128.88 -7.5 2.91 -46.48 5.52 -0.58c74.06,28.94 536.2,20.24 629.15,219.95 18.63,40.06 48.19,133.35 -36.12,101.1 18.47,-56.99 -22.02,-103.42 -49.48,-132.39 -31.04,-32.74 -72,-53.25 -120.37,-74.24 -47.42,-20.58 -88.46,-35.63 -139.9,-49.65 -26.67,-7.26 -52.17,-12.6 -79.9,-17.05 -42.54,-6.84 -73.23,-16.99 -82.93,6.84z"/>
   <path class="fil3" d="M1825.52 1921.86c-31.67,17.03 -15.14,-0.65 -32.57,30.62 -9.9,17.75 -11.28,19.43 -19.06,40.71 -18.14,60.42 -4.15,92.75 14.49,144.63 -31.95,9.13 -114.14,10.09 -148.66,6.73 -46.53,-4.52 -81.91,-20.27 -113.1,-42.27 -50.85,-35.86 -98.1,-107.7 -113.77,-192.28 -17.68,-95.41 7.88,-180.74 42.22,-256.39 16.45,-36.22 37.37,-69.16 56.57,-99.13 37.33,-58.23 53.57,-60.86 41.87,-90.75 0.6,-14.76 -6.09,-6.44 8.5,-10.56 14.78,8.69 25.26,20.33 41.09,32.66 65.77,51.24 153.51,101.97 234.91,130 28.93,9.96 96.6,19.85 113.95,27.88 1.45,37.8 -11.13,95.51 -18.05,133.69 -19.11,105.35 -12.08,93 -50.78,99.04 -60.05,-45.61 -46.43,-150.21 -66.46,-172.12 -65.81,45.17 35.85,183.05 37.26,187.47 -14.78,12.34 -24.2,12.81 -28.41,30.07z"/>
   <path class="fil3" d="M2875.66 1939.51l-23.24 21.55 -21.96 13.37c-29.82,8.47 -44.42,24.39 -75.72,29.42l9.27 -32.19c6.8,-12.66 8.08,-26.67 7.45,-43.33 8.29,-3.88 6.78,-15.15 7.15,-26.73 0.08,-2.75 0.24,-12.48 -0.17,-14.86 -4.3,-25.07 1.05,-5.99 -6.89,-14.08 -0.15,-81.6 -65.6,-120.73 -152.41,-118.39 -2.59,-51.6 1.19,-149.42 -54.1,-149.41 -0.02,60.31 44.11,99.9 19.45,165.3 -12.04,-10.98 -108.78,-194.6 -116.34,-218.26 20.77,-15.27 43.08,-22.71 67.93,-38.54 98.2,-62.6 87.7,-95.36 144.99,-161.99 4.69,3.19 -1.4,10.21 12,0.48 4.04,30.37 10.3,14.67 80.94,43.35 184.34,74.83 274.18,302.56 161.54,478.65 -21.42,33.47 -36.04,42 -59.89,65.66z"/>
   <path class="fil3" d="M1487.31 2439.8l23.32 64.54c-44.82,60.09 169.72,247.48 452.7,187.37 52.6,-11.17 125.93,-43.69 134.31,-86.44l19.04 4.71c18.43,21.37 32.15,23.96 40.57,52.36 -85.25,7.83 -57.78,32.01 -98.96,71.52 -35.43,-1.46 -52.42,-21.04 -82.31,-19.38 -32.92,1.83 -45.1,35.44 -74.35,24.75 -10.83,-3.96 -17.45,-13.37 -34.52,-19.39 -46.86,-16.52 -104.53,5.33 -143.13,-7.31 -26.34,-8.62 -42.78,-26.95 -74.98,-32.02 -37.51,-5.9 -60.87,4.72 -94.77,-12.27 -41.96,-21.04 -101,-30.89 -79.55,-70.61 9.54,-17.65 17.5,-5.66 20.42,-34.58 -28.58,-16.82 -117.02,-20.85 -109.32,-87.45 2.95,-25.5 17.82,-22.51 38.87,-29.62l39 -9.99c8.62,8.58 4.52,12.42 23.66,3.81z"/>
   <path class="fil4" d="M1965.27 306.13c-3.55,-28.5 -7.44,-32.82 -36.87,-36.65 9.22,18.54 19.27,31.22 36.87,36.65zm136.35 -262.76l-38.59 0c-34.57,7.89 -67.18,34.75 -115.86,54.29 -33.69,13.52 -80.38,22.45 -122.55,28.4 -1.08,1.27 -2.59,1.7 -2.96,4.05l-5.27 10.54c9.94,11.66 18.71,14.42 18.83,34.61 -29.66,-2.75 -23.67,-15.35 -39.67,-33.84l-24.33 4.07c-22.43,-7.51 -36.19,9.05 -49.95,23.05 -54.04,54.98 -62.84,74.81 -149.52,74.27 -60.02,-0.37 -91.95,-1.99 -111.21,39.62 -16.72,36.13 -20.17,79.12 -43.51,107.29 -33.83,40.84 -119.04,30.63 -158.73,142.89 -15.77,44.59 -8.74,91.8 10.77,124.6 25.41,42.71 25.34,63.69 25.34,125.5 -31.04,-11.98 -25.47,-2.51 -43.79,9.75 0,42.74 20.77,61.89 38.22,88.25 25.44,38.45 1.98,65.14 -2.43,103.38 -3.94,34.11 19.34,68.95 32.13,90.7 36.65,62.34 17.68,86.02 57.38,127.47 22.06,23.05 37.36,76.77 90.95,98.79 28.54,11.72 22.7,1.38 29.29,33.94 12.9,63.82 37.96,81.17 65.85,118.18 14.78,8.69 25.26,20.33 41.09,32.66 65.77,51.24 153.51,101.97 234.91,130 28.93,9.96 96.6,19.85 113.95,27.88 1.45,37.8 -11.13,95.51 -18.05,133.69 -19.11,105.35 -12.08,93 -50.78,99.04 -60.05,-45.61 -46.43,-150.21 -66.46,-172.12 -65.81,45.17 35.85,183.05 37.26,187.47 -14.78,12.34 -24.2,12.81 -28.41,30.07 2.17,10.68 0.96,17.44 13.51,18.59 13.12,-2.58 26.96,-27.16 68.77,-37.76 0.18,50.75 -27.56,118.12 -7.01,163.84l20.45 -3.99 5.77 -19.42 22.36 -90.84c32.61,-193.97 59.86,-384.85 90.23,-580.8l248.78 -28.78c23.78,44.67 50.99,83.15 76.48,125.82 24.85,41.6 47.85,84.85 72.55,126.99 24.36,41.58 47.66,84.42 70.96,128.33 20.49,38.62 51.58,92.96 66.75,135.35 17.32,24.1 18.59,46.91 47.1,50.55 7.13,-46.38 -21.71,-75.12 -30,-114.86 81.68,-4.67 124.97,6.21 137.28,82.56 20.57,16.71 6.6,20.94 44.05,22.98l-2 -27.76c-0.15,-81.6 -65.6,-120.73 -152.41,-118.39 -2.59,-51.6 1.19,-149.42 -54.1,-149.41 -0.02,60.31 44.11,99.9 19.45,165.3 -12.04,-10.98 -108.78,-194.6 -116.34,-218.26 20.77,-15.27 43.08,-22.71 67.93,-38.54 98.2,-62.6 87.7,-95.36 144.99,-161.99 6,-24.52 16.34,-42.11 25.8,-66.15 8.48,-21.54 16.17,-46.43 20.83,-71.59 8.9,-48.11 18.42,-123.21 -2.84,-159.99l-25.23 -0.19c-13.97,127.17 -9.25,183.35 -70.76,285.08 -34.6,57.24 -120.7,163.37 -171.61,187.74 -32.19,-22.85 -63.72,-111.3 -91.01,-151.59 -15.31,-22.59 -25.16,-24.68 -41.06,-42.29 25.04,-47.1 60.16,-38.3 90.48,7.53 19.95,30.14 43.05,59.75 91.5,64.77 -2.57,-32.86 -53.68,-68.17 -71.62,-113.75 -23.58,-59.92 -11.22,-103.31 -21.31,-162.73 -48.83,10.85 -35.92,80.59 -34.77,127.28 -27.28,16.78 -39.04,31.2 -80.17,45.49 -63.96,22.24 -275.93,38.99 -343.19,42.97l-3.28 -7.95c-0.3,-1.03 -1.01,-2.79 -1.34,-4.07l-10.43 -62.15c-5.57,-22.31 -12.52,-44.95 -23.68,-61.98 -19.72,-2.7 -8.09,-3.22 -26.32,3.86 14.45,74.17 54.42,173.05 -17.13,238.08 -9.13,8.29 -16.74,13.61 -28.9,19.77 -22.44,11.39 -23.17,5.66 -27.07,29.77 86.37,16.34 124.63,-53.66 133.16,-128.89l53.19 1.49 -43.13 230c-93.56,2.78 -196.85,-63.12 -259.43,-102.79 -77.21,-48.97 -135.11,-98.43 -177.23,-181.29 24.64,-26.67 54.2,-14.27 56.02,-68.18 -42.03,-4.21 -50.64,31.64 -94.56,8.09 -27.79,-14.89 -43.22,-35.73 -60.78,-60.97 -59.83,-85.96 -32.75,-152.41 33.59,-130.52l-16.38 22.71c14.84,25.32 32.19,27.99 47.29,53.04 13.67,22.67 12.33,56 41.59,57.69 15.05,-27.79 9.65,-45.16 -5.58,-69.32 -6.13,-9.72 -10.57,-16.88 -19.55,-24.29 -14.43,-11.92 -19.74,-5.57 -20.21,-25.09 13.86,-11.22 14.11,-4.79 37.04,-8.31 22.15,-35.02 -1.02,-201.29 2.95,-212.09 13.1,-14.63 19.68,-5.95 28.58,-27.07 5.48,-13 4.81,-28.02 8.23,-44.66 4.15,-20.13 25.72,-58.7 35.77,-71.82 23.14,-30.2 57.08,-40.36 80.86,-79.69 36.94,-61.06 -13.15,-23.25 64.35,-57.46 23.8,-10.5 18.88,-17.72 46.72,-20.08 42.42,-3.59 80.18,-1.84 122.39,-9.7 92.82,-17.28 92.53,-78.25 193.83,-72.08 40.02,2.44 83.75,13.07 121.04,-2.63 33.78,-14.23 52.31,-34.76 85.41,-50.88 57.65,-28.08 76.63,0.59 111.16,-9.76 41.84,-12.55 66.09,-4.44 117.17,4.61 30.51,52.77 76.16,174.65 96.13,236.64 27.58,85.64 39.96,183.09 56.41,274.12l24 23.32 -10.79 32.47 27.39 -15.45c0,-62.76 -0.32,-107.45 -8.98,-159.27 -35.26,-211.24 -119.46,-314.61 -132.12,-368.93 28.39,-15.02 62.32,-35.73 63.25,-77.83 -13.59,-3.63 -16.04,-7.89 -30.43,-13.35 -25.56,-9.68 -43.83,-29.96 -61.15,-55.61 -12.44,-18.42 -17.79,-28.14 -28.32,-49.51 -36.98,-75.1 -73.93,-19.96 -96.88,-58.8 -15.1,-25.55 -12.52,-91.28 -157.15,-74.96 -65.4,7.38 -75.6,3.11 -116,-31.38 -25.24,-21.56 -46.24,-32.97 -65.19,-37.43zm-118.73 231.24c1.34,-3.22 2.39,2.39 3.36,-12.44 1.07,-16.48 1.43,0.78 -2.74,-12.53 -35.17,-19.62 -44.03,42.58 -0.62,24.97zm-76.99 -77.25c-13.38,13.12 -20.05,15.67 -23.48,36.58 28.06,-1.72 59.5,-26.06 61,-61.67 -22.51,5.57 -22.19,10.06 -37.52,25.09zm14.38 -29.2c4.82,-20 -5.87,-21.41 -10.97,-24.03 -57.39,-29.42 -38.17,45.74 -38.22,46.94 -8.37,-15.03 -15.92,-14.58 -33.21,-17.05 0,29.31 13.03,38.2 35.52,45.52 32.06,-17.37 23.93,-21.27 16.34,-63.49 14.91,11.67 8.36,16.98 30.54,12.11zm63.23 81.48c4.17,13.31 3.81,-3.95 2.74,12.53 -0.97,14.83 -2.02,9.22 -3.36,12.44 -43.41,17.61 -34.55,-44.59 0.62,-24.97zm-212.29 -104.15l6.43 -6.74c19.83,-13.9 26.57,-12.69 46.97,-12.69 -1.08,1.27 -2.59,1.7 -2.96,4.05l-5.27 10.54c9.94,11.66 18.71,14.42 18.83,34.61 -29.66,-2.75 -23.67,-15.35 -39.67,-33.84l-24.33 4.07zm111.2 88.45c3.43,-20.91 10.1,-23.46 23.48,-36.58 15.33,-15.03 15.01,-19.52 37.52,-25.09 -1.5,35.61 -32.94,59.95 -61,61.67zm37.86 -65.78c-22.18,4.87 -15.63,-0.44 -30.54,-12.11 7.59,42.22 15.72,46.12 -16.34,63.49 -22.49,-7.32 -35.52,-16.21 -35.52,-45.52 17.29,2.47 24.84,2.02 33.21,17.05 0.05,-1.2 -19.17,-76.36 38.22,-46.94 5.1,2.62 15.79,4.03 10.97,24.03zm44.99 137.97c-17.6,-5.43 -27.65,-18.11 -36.87,-36.65 29.43,3.83 33.32,8.15 36.87,36.65z"/>
   <path class="fil4" d="M2915.3 2131.79l-2.91 46.48 -8.56 131.84c19.83,9.49 571.93,135.05 592.48,134.75 -19.63,-69.32 -13.3,-75.46 -60,-116.44 -30.61,-26.85 -72.25,-46.33 -116.89,-63.08 -45.87,-17.21 -88.05,-31.72 -136.57,-43.25 -46.18,-10.97 -107.52,-13.4 -141.58,-36.32 9.7,-23.83 40.39,-13.68 82.93,-6.84 27.73,4.45 53.23,9.79 79.9,17.05 51.44,14.02 92.48,29.07 139.9,49.65 48.37,20.99 89.33,41.5 120.37,74.24 27.46,28.97 67.95,75.4 49.48,132.39 84.31,32.25 54.75,-61.04 36.12,-101.1 -92.95,-199.71 -555.09,-191.01 -629.15,-219.95 9,-23.34 46.99,-20.96 86.24,-21.33 35.73,-0.33 72.25,2.33 107,6.16 63.15,6.95 128.56,18.9 187.5,35.89 184.7,53.22 359.85,146.77 295.03,348.52 -21.33,66.37 -47.72,99.25 -86.26,137.73 -65.53,65.43 -189.49,117.43 -304.54,142.74 -251.22,55.24 -551.14,13.29 -749.62,-95.31 -387.44,-212.01 -232.84,-494.41 -101.09,-503.66l6.93 15.54c-65.52,31.02 -111.46,81.34 -106.72,180.84 9.69,203.64 299.04,319.32 479.18,359.7 160.65,36 344.1,30.87 500.95,-9.76 109.56,-28.39 304.39,-115.91 316.71,-237.17l-59.12 -11.58 -598.51 -123.42c-10.58,137.47 -63.51,294.44 -66.37,323.39 -21.71,20.33 -5.01,32.92 -37.86,31.1l0.94 -41.08c15.15,-44.68 72.14,-275.29 67.87,-323.34 -109.48,-28.46 -218.14,-55.47 -324.56,-89 -24.98,-7.87 -84.41,-13.5 -94.31,-38.3 19.35,-14.13 77.77,5.97 105.53,12.37 81.45,18.81 261.68,64.96 325.2,69.38 3.55,-35.22 8.57,-69.2 12.03,-105.05 1.8,-18.72 1.46,-37.24 3.09,-55.8 2.3,-26.29 3.2,-31.5 25.73,-34.69l3.51 26.71z"/>
   <path class="fil4" d="M1773.89 1993.19c34.28,-7.11 39.82,-42.64 53.94,-38.51 -10.99,40.04 -29.05,50.24 -19.41,108.99 14.15,86.21 91.88,139.87 148.92,111.88 38.56,-18.92 27.22,-58.47 82.26,-60.28 -13.45,70.52 -71.94,135.43 -158.35,99.39 -39.62,-16.52 -47.12,-46.86 -91.91,-37.72 -42.54,8.67 -80.58,12.69 -125.26,10.24 -87.48,-4.79 -145.69,-32.62 -195.95,-75.04 -70.66,-59.62 -78.39,-131.86 -98.72,-170.05 -0.42,-0.79 -1.27,-2.3 -2.02,-3.38 -140.76,1.88 -273.87,34.62 -418.44,31.57l-10.08 -15.07c74.07,-17.5 106.45,-33.4 199.92,-34.16l223.73 -9.81c0,-172.77 13.82,-228.99 107.02,-369.7 9.64,-14.54 20.86,-31.34 32.89,-44.95 14.26,-16.15 24.06,-30.83 51.08,-32.86 11.7,29.89 -4.54,32.52 -41.87,90.75 -19.2,29.97 -40.12,62.91 -56.57,99.13 -34.34,75.65 -59.9,160.98 -42.22,256.39 15.67,84.58 62.92,156.42 113.77,192.28 31.19,22 66.57,37.75 113.1,42.27 34.52,3.36 116.71,2.4 148.66,-6.73 -18.64,-51.88 -32.63,-84.21 -14.49,-144.63z"/>
   <path class="fil4" d="M1424.65 2445.98c-21.05,7.11 -35.92,4.12 -38.87,29.62 -7.7,66.6 80.74,70.63 109.32,87.45 -2.92,28.92 -10.88,16.93 -20.42,34.58 -21.45,39.72 37.59,49.57 79.55,70.61 33.9,16.99 57.26,6.37 94.77,12.27 32.2,5.07 48.64,23.4 74.98,32.02 38.6,12.64 96.27,-9.21 143.13,7.31 17.07,6.02 23.69,15.43 34.52,19.39 29.25,10.69 41.43,-22.92 74.35,-24.75 29.89,-1.66 46.88,17.92 82.31,19.38 41.18,-39.51 13.71,-63.69 98.96,-71.52 -8.42,-28.4 -22.14,-30.99 -40.57,-52.36l-3.11 -4.64c26.23,-9.27 45.46,-4.54 62.23,15.28 11.72,13.83 27.95,40.32 20.73,65.15 -17.15,30.88 -94.74,-36 -108.69,110.74 -6.37,66.97 -106.68,90.23 -146.2,86.41 -16.69,-3.24 -15.69,-4.79 -25.89,-11.89 8.53,-9.05 -3.45,-0.35 12.86,-9.49 10.84,-6.07 2.36,1.21 12.31,-6.92 61.99,-2.54 114.6,-21.84 123.31,-77.54 -16.06,-12.86 -49.23,-22.61 -74.24,-22.77 -50.45,-0.31 -49.71,57.76 -130,2.19 -23.09,-15.99 -54.17,-10.02 -83.91,-8.3 -86.76,5 -88.48,-29.54 -152.68,-35.97 -27.93,-2.79 -58.21,-2 -82.79,-10.93 -31.13,-11.31 -20.4,-20.38 -66.17,-24.93 -5.6,115.79 246.05,174.18 372.73,178.83 18.52,11.41 15.44,6.98 36.19,8.49 17.94,1.31 21.83,0.03 27,17.75l-71.88 2.58c-115.47,10.11 -375.49,-82.88 -396.64,-152.4 -11.44,-37.59 11.26,-48.42 -2.8,-79.48 -17.72,-39.15 -4.18,-35.31 3.73,-69.63 -40.38,-23.9 -77.67,-15.9 -96.04,-66.88 -20.3,-56.3 19.14,-93.66 72.22,-86.5l5.7 16.85z"/>
   <path class="fil4" d="M3683.37 1868.12c-135.99,20.58 -554.23,20.72 -710.58,20.48 -21.52,23.78 -30.98,59.82 -71.94,81.18 -15.55,-1.74 -15.65,-2.97 -24.5,-9.58l-0.69 -20.69c23.85,-23.66 38.47,-32.19 59.89,-65.66 112.64,-176.09 22.8,-403.82 -161.54,-478.65 -70.64,-28.68 -76.9,-12.98 -80.94,-43.35 72.66,-45.48 226.07,73.56 277.11,148.75 31.59,46.54 49.02,96.54 59.32,164.45 14.29,94.16 -29.39,154.38 -32.17,187.82 29.23,0 58.46,-0.01 87.69,0.11 34.56,0.14 50.39,-5.2 87.44,-5.01 50.06,0.26 137.64,4.83 182.87,-2.02 55.08,-8.33 119.46,-2.88 177.21,-2.81 92.16,0.12 149.71,-27.99 150.83,24.98z"/>
   <path class="fil4" d="M2122.65 2579.27c-41.51,-149.25 -97.32,-263.42 -259.63,-317.2 -85.37,-28.28 -171.18,-17.58 -237.76,23.69 -42.18,26.15 -118.38,99.27 -137.95,154.04 -19.14,8.61 -15.04,4.77 -23.66,-3.81 16.25,-176.01 336.29,-369.96 589.99,-87.2 34.91,38.92 105.11,152.47 92.33,233.16l-23.32 -2.68z"/>
   <path class="fil4" d="M2671.36 2048.3c16.96,-1.38 21.71,1.92 21.89,17.56 -35.98,61.4 -244.27,63.55 -283.68,-27.65 -165.52,19.76 -149.87,41.81 -372.97,43.59 -31.67,-1.18 -46.22,1.95 -72.79,-10.04 4.79,-19.48 5.51,-16.81 30.97,-19.29l135.11 -11.9c58.8,-4.63 118.14,-9.37 175.87,-18.08 54.66,-8.24 109.23,-19.54 161.56,-33.25 46.3,-12.12 105.55,-36.8 155.54,-34.98l-0.94 20.44 -182.39 58.15c23.32,22.09 75.31,28.54 111.06,33.1 77.03,9.82 71.86,-12.57 120.77,-17.65z"/>
   <path class="fil4" d="M2097.64 2605.27c-8.38,42.75 -81.71,75.27 -134.31,86.44 -282.98,60.11 -497.52,-127.28 -452.7,-187.37 18.66,2.41 18.25,9.68 28.07,23.63 101.7,144.48 351.91,174.26 492.36,105.12 19.96,-9.82 44.37,-30.36 66.58,-27.82z"/>
   <path class="fil4" d="M2759.49 2653.24c-7.45,31.36 -138.53,50.03 -277.88,-70.82 -50.37,-43.69 -133.37,-170.85 -99.18,-282.04l23.29 -4.7c21.95,134.08 18.62,175.11 96.41,256.57 123.39,129.22 198.39,85.24 237.5,91.17 24.08,3.66 9.45,-4.03 19.86,9.82z"/>
   <path class="fil4" d="M2914.33 2689.58l5.19 -14.15c119.07,-9.21 225.93,-3.28 337.39,-37.72 139.52,-43.12 141.44,-75.75 225.51,-144.56l20.05 1.71c-18.79,64.06 -145.42,142.63 -231.27,171.71 -81.68,27.68 -274.76,54.85 -356.87,23.01z"/>
   <path class="fil4" d="M2003.77 1954.26c90.95,-1.8 200.51,-16.72 287.91,-33.77 75.17,-14.67 181.22,-54.88 254.99,-56.14l5.27 18.7c-37.48,9.07 -83.78,29.73 -125.2,41.39 -101.2,28.49 -343.49,76.77 -431.76,50.35 1.96,-17.57 -0.72,-10.21 8.79,-20.53z"/>
   <path class="fil4" d="M2569.64 974.22c-37.79,19.21 -103.21,6.96 -151.29,4.11 -35.18,-2.09 -129.24,1.62 -115.11,-48 38.46,-21.25 92.31,1.24 134.39,4.32 31.6,2.31 108.88,-2.62 133.83,18.38l-1.82 21.19z"/>
   <path class="fil4" d="M2216.24 712.38c-1.72,-103.14 270.86,-132.13 316.47,-67.46 27.73,39.32 -53.58,9.4 -65.31,5.78 -121.21,-37.44 -207.56,62.83 -251.16,61.68z"/>
   <path class="fil4" d="M1981.04 715.32c-56.73,19.07 -121.45,-57.93 -250.9,31.22 -15.56,10.71 -16.25,10.83 -28.87,24.65 -11.2,12.27 -14.17,17.53 -36.96,16.15 0.89,-48.73 76.51,-97.44 127.38,-110.63 36.12,-9.37 178.7,-19.19 189.35,38.61z"/>
   <path class="fil4" d="M1915.03 1021.86c-8.37,3.98 -170.73,54.1 -174.84,54.32 -25.51,0.62 -18.27,-16.46 -13.54,-32.59 41.53,-18.22 100.53,-42.74 153.36,-48.26 21.4,0.22 39.78,7.32 35.02,26.53z"/>
   <path class="fil4" d="M2436.95 1779.91c8.62,5.73 7,6.83 18.18,0 -2.44,-18.35 -14.32,-4.46 -18.18,0zm44.17 29.18c-46.55,18.45 -102.59,-8.86 -69.26,-50.1 24.83,-30.73 83.43,-13.64 69.26,50.1z"/>
   <path class="fil4" d="M2771.46 1928.33c0.63,16.66 -0.65,30.67 -7.45,43.33 -0.61,0.36 -15.66,1.02 -18.54,28.09 -1.34,12.61 1.96,21.88 4.86,33.1 -22.86,1.79 -34.59,-6.57 -43.58,-23.95 4.03,-19.93 18.96,-41.65 23.2,-67.07l7.47 -14.99c0.41,-1.49 1.47,-14.01 1.84,-17.29l28.05 5.24c5.11,8.63 8.05,-10.58 4.15,13.54z"/>
   <path class="fil4" d="M2585.43 2452.12c-107.65,29.54 -142.84,-78.47 -41.62,-43.75 22.36,7.67 38.27,17.38 41.62,43.75z"/>
   <path class="fil4" d="M2082.35 1784.77c22.24,-18.49 17.16,-20.08 54.09,-14.75 6.37,17.7 22.56,61.9 -10.64,66.69 -33.93,4.89 -46.41,-19.85 -43.45,-51.94z"/>
   <path class="fil4" d="M2235.19 1430.16c-36.84,-4.16 -2.75,-14.87 -36.06,-25.2 -2.03,7.04 -1.42,9.96 -2.63,15.88l-6.84 19.84c-44.17,-0.88 -24.93,-54.85 -2.12,-61.89 36.95,-11.41 58.99,21.24 47.65,51.37z"/>
   <path class="fil4" d="M1718.36 1091.14c-24.36,13.09 -49.92,21.73 -81.93,20.38 -1.15,-33.63 32.42,-50.39 67.47,-55.84 4.25,9.1 11.12,21.45 14.46,35.46z"/>
   <path class="fil4" d="M2751.25 2365.68c21.09,-3.19 28.78,7.63 39.87,19.27 9.38,9.82 29.73,31.69 8.1,43.03 -24.36,12.77 -63.66,-21.86 -47.97,-62.3z"/>
   <path class="fil4" d="M3223.02 2563.05c-16.03,10.46 -27.74,12 -50.53,10.59 -12.99,-14.82 -20.4,-21.12 -19.02,-49.13 20.62,-2.47 65.57,5.45 69.55,38.54z"/>
   <path class="fil4" d="M2288.56 1654.34l3.13 23.3c-21.43,14.86 -42.95,9.67 -66.19,3.18l0.67 -24.87 62.39 -1.61z"/>
   <path class="fil4" d="M2880.45 1989.83c-13.03,11.81 -18.35,14.46 -37.27,18.98l-12.72 -34.38 21.96 -13.37c21.19,-0.91 28.95,6.69 28.03,28.77z"/>
   <path class="fil4" d="M2983.86 2298.68c-1.86,-19.85 0.7,-19.54 8.26,-31.76 63.38,-11.05 61.42,37.41 -8.26,31.76z"/>
   <path class="fil4" d="M3275.77 2300.38c-13,10.15 -28.43,16.8 -47.38,12.21l-3.84 -28.91c23.78,-7.81 43.68,-13.44 51.22,16.7z"/>
   <path class="fil4" d="M1983.24 2535.93l0.14 -41.9c24.71,-0.54 36.67,-0.71 35.01,25.28 -1.48,23.27 -16.93,19.81 -35.15,16.62z"/>
   <path class="fil4" d="M2995.98 2503.27c-28.35,3.95 -44.1,-18.26 -30.38,-44.88 24.84,0.07 39.41,21.81 30.38,44.88z"/>
   <path class="fil4" d="M2719.35 2585.78c-14.73,-2.62 -35.75,-5.34 -46.41,-13 6.13,-11.13 6.55,-15.82 26.7,-13.73 20.42,2.12 20.95,6.89 19.71,26.73z"/>
   <path class="fil4" d="M1655.53 2491.49c-18.26,5.54 -32.04,-0.38 -29.29,-24.07l26.79 -1.74c9.22,28.47 7.88,-1.52 5.64,18.77l-3.14 7.04z"/>
   <path class="fil4" d="M1900.68 2409.55l-2.4 -28.77 26.3 -0.8c4.32,27.46 -0.18,33.16 -23.9,29.57z"/>
   <path class="fil4" d="M1932.54 1017.4c-8.43,-13.61 -1.54,-6.73 -15.07,-15.55l-2.15 -17.41 26.54 2.49c2.86,21.97 6.96,20.89 -9.32,30.47z"/>
   <path class="fil4" d="M1805.03 2592.24l-0.47 -23.16 20.79 -2.19c6.75,19.98 3.25,33.35 -20.32,25.35z"/>
   <path class="fil5" d="M1915.32 984.44c-19.92,3.64 -21.2,1.9 -35.31,10.89 -52.83,5.52 -111.83,30.04 -153.36,48.26 -17.78,4.05 -12.9,1.68 -22.75,12.09 -35.05,5.45 -68.62,22.21 -67.47,55.84 32.01,1.35 57.57,-7.29 81.93,-20.38 17.78,-6.27 13.96,-2.98 21.83,-14.96 4.11,-0.22 166.47,-50.34 174.84,-54.32l17.51 -4.46c16.28,-9.58 12.18,-8.5 9.32,-30.47l-26.54 -2.49zm654.32 -10.22l1.82 -21.19c-24.95,-21 -102.23,-16.07 -133.83,-18.38 -42.08,-3.08 -95.93,-25.57 -134.39,-4.32 -14.13,49.62 79.93,45.91 115.11,48 48.08,2.85 113.5,15.1 151.29,-4.11zm-588.6 -258.9c-10.65,-57.8 -153.23,-47.98 -189.35,-38.61 -50.87,13.19 -126.49,61.9 -127.38,110.63 22.79,1.38 25.76,-3.88 36.96,-16.15 12.62,-13.82 13.31,-13.94 28.87,-24.65 129.45,-89.15 194.17,-12.15 250.9,-31.22zm235.2 -2.94c43.6,1.15 129.95,-99.12 251.16,-61.68 11.73,3.62 93.04,33.54 65.31,-5.78 -45.61,-64.67 -318.19,-35.68 -316.47,67.46zm477.75 217.72c2.32,21.34 0.64,41.98 13.21,55.79l2.38 35.19c-0.34,13.99 0.52,9.98 -4.18,19.46 18.39,1.53 13.89,-4.61 19.46,13.1l-25.23 -0.19c-13.97,127.17 -9.25,183.35 -70.76,285.08 -34.6,57.24 -120.7,163.37 -171.61,187.74 -32.19,-22.85 -63.72,-111.3 -91.01,-151.59 -15.31,-22.59 -25.16,-24.68 -41.06,-42.29 25.04,-47.1 60.16,-38.3 90.48,7.53 19.95,30.14 43.05,59.75 91.5,64.77 -2.57,-32.86 -53.68,-68.17 -71.62,-113.75 -23.58,-59.92 -11.22,-103.31 -21.31,-162.73 -48.83,10.85 -35.92,80.59 -34.77,127.28 -27.28,16.78 -39.04,31.2 -80.17,45.49 -63.96,22.24 -275.93,38.99 -343.19,42.97l-3.28 -7.95c-0.3,-1.03 -1.01,-2.79 -1.34,-4.07l-10.43 -62.15c-5.57,-22.31 -12.52,-44.95 -23.68,-61.98 -11.04,-21.87 -1.69,-15.99 -27.94,-18.39l1.62 22.25c14.45,74.17 54.42,173.05 -17.13,238.08 -9.13,8.29 -16.74,13.61 -28.9,19.77 -22.44,11.39 -23.17,5.66 -27.07,29.77 86.37,16.34 124.63,-53.66 133.16,-128.89l53.19 1.49 -43.13 230c-93.56,2.78 -196.85,-63.12 -259.43,-102.79 -77.21,-48.97 -135.11,-98.43 -177.23,-181.29 24.64,-26.67 54.2,-14.27 56.02,-68.18 -42.03,-4.21 -50.64,31.64 -94.56,8.09 -27.79,-14.89 -43.22,-35.73 -60.78,-60.97 -59.83,-85.96 -32.75,-152.41 33.59,-130.52l-16.38 22.71c14.84,25.32 32.19,27.99 47.29,53.04 13.67,22.67 12.33,56 41.59,57.69 15.05,-27.79 9.65,-45.16 -5.58,-69.32 -6.13,-9.72 -10.57,-16.88 -19.55,-24.29 -14.43,-11.92 -19.74,-5.57 -20.21,-25.09 13.86,-11.22 14.11,-4.79 37.04,-8.31 22.15,-35.02 -1.02,-201.29 2.95,-212.09 13.1,-14.63 19.68,-5.95 28.58,-27.07 5.48,-13 4.81,-28.02 8.23,-44.66 4.15,-20.13 25.72,-58.7 35.77,-71.82 23.14,-30.2 57.08,-40.36 80.86,-79.69 36.94,-61.06 -13.15,-23.25 64.35,-57.46 23.8,-10.5 18.88,-17.72 46.72,-20.08 42.42,-3.59 80.18,-1.84 122.39,-9.7 92.82,-17.28 92.53,-78.25 193.83,-72.08 40.02,2.44 83.75,13.07 121.04,-2.63 33.78,-14.23 52.31,-34.76 85.41,-50.88 57.65,-28.08 76.63,0.59 111.16,-9.76 41.84,-12.55 66.09,-4.44 117.17,4.61 30.51,52.77 76.16,174.65 96.13,236.64 27.58,85.64 39.96,183.09 56.41,274.12z"/>
   <path class="fil5" d="M2082.35 1784.77c-2.96,32.09 9.52,56.83 43.45,51.94 33.2,-4.79 17.01,-48.99 10.64,-66.69 -36.93,-5.33 -31.85,-3.74 -54.09,14.75zm398.77 24.32c14.17,-63.74 -44.43,-80.83 -69.26,-50.1 -33.33,41.24 22.71,68.55 69.26,50.1zm-254.95 -153.14l-0.67 24.87c23.24,6.49 44.76,11.68 66.19,-3.18l-3.13 -23.3 -62.39 1.61zm9.02 -225.79c11.34,-30.13 -10.7,-62.78 -47.65,-51.37 -22.81,7.04 -42.05,61.01 2.12,61.89l6.84 -19.84c1.21,-5.92 0.6,-8.84 2.63,-15.88 33.31,10.33 -0.78,21.04 36.06,25.2zm339.93 429.03c-1.92,0.93 1.23,1.9 -11.22,3.87 -3.73,0.59 -13.73,1.07 -17.23,1.29 -73.77,1.26 -179.82,41.47 -254.99,56.14 -87.4,17.05 -196.96,31.97 -287.91,33.77l-54.4 -1.98c32.61,-193.97 59.86,-384.85 90.23,-580.8l248.78 -28.78c23.78,44.67 50.99,83.15 76.48,125.82 24.85,41.6 47.85,84.85 72.55,126.99 24.36,41.58 47.66,84.42 70.96,128.33 20.49,38.62 51.58,92.96 66.75,135.35z"/>
   <path class="fil5" d="M1805.03 2592.24c23.57,8 27.07,-5.37 20.32,-25.35l-20.79 2.19 0.47 23.16zm178.21 -56.31c18.22,3.19 33.67,6.65 35.15,-16.62 1.66,-25.99 -10.3,-25.82 -35.01,-25.28l-0.14 41.9zm-324.57 -51.48c2.24,-20.29 3.58,9.7 -5.64,-18.77l-26.79 1.74c-2.75,23.69 11.03,29.61 29.29,24.07l3.14 -7.04zm242.01 -74.9c23.72,3.59 28.22,-2.11 23.9,-29.57l-26.3 0.8 2.4 28.77zm221.97 169.72l-9.08 26.07 3.11 4.64 -19.04 -4.71c-22.21,-2.54 -46.62,18 -66.58,27.82 -140.45,69.14 -390.66,39.36 -492.36,-105.12 -9.82,-13.95 -9.41,-21.22 -28.07,-23.63l-23.32 -64.54c19.57,-54.77 95.77,-127.89 137.95,-154.04 66.58,-41.27 152.39,-51.97 237.76,-23.69 162.31,53.78 218.12,167.95 259.63,317.2z"/>
   <path class="fil5" d="M3223.02 2563.05c-3.98,-33.09 -48.93,-41.01 -69.55,-38.54 -1.38,28.01 6.03,34.31 19.02,49.13 22.79,1.41 34.5,-0.13 50.53,-10.59zm-227.04 -59.78c9.03,-23.07 -5.54,-44.81 -30.38,-44.88 -13.72,26.62 2.03,48.83 30.38,44.88zm497.03 -23.75c-4.96,10.78 7.25,0.83 -10.59,13.63 -84.07,68.81 -85.99,101.44 -225.51,144.56 -111.46,34.44 -218.32,28.51 -337.39,37.72l-5.19 14.15c-25.89,-10.75 -55.65,-15.13 -86.2,-10.09 2.86,-28.95 55.79,-185.92 66.37,-323.39l598.51 123.42z"/>
   <path class="fil5" d="M2719.35 2585.78c1.24,-19.84 0.71,-24.61 -19.71,-26.73 -20.15,-2.09 -20.57,2.6 -26.7,13.73 10.66,7.66 31.68,10.38 46.41,13zm-133.92 -133.66c-3.35,-26.37 -19.26,-36.08 -41.62,-43.75 -101.22,-34.72 -66.03,73.29 41.62,43.75zm165.82 -86.44c-15.69,40.44 23.61,75.07 47.97,62.3 21.63,-11.34 1.28,-33.21 -8.1,-43.03 -11.09,-11.64 -18.78,-22.46 -39.87,-19.27zm39.96 303.83c-17.23,-6.2 -20.39,-3.3 -31.72,-16.27 -10.41,-13.85 4.22,-6.16 -19.86,-9.82 -39.11,-5.93 -114.11,38.05 -237.5,-91.17 -77.79,-81.46 -74.46,-122.49 -96.41,-256.57 6.86,-27.33 26.82,-61.29 26.46,-78.68l8.03 1.87c9.9,24.8 69.33,30.43 94.31,38.3 106.42,33.53 215.08,60.54 324.56,89 4.27,48.05 -52.72,278.66 -67.87,323.34z"/>
   <path class="fil5" d="M3275.77 2300.38c-7.54,-30.14 -27.44,-24.51 -51.22,-16.7l3.84 28.91c18.95,4.59 34.38,-2.06 47.38,-12.21zm-291.91 -1.7c69.68,5.65 71.64,-42.81 8.26,-31.76 -7.56,12.22 -10.12,11.91 -8.26,31.76zm57.41 -112.91c34.06,22.92 95.4,25.35 141.58,36.32 48.52,11.53 90.7,26.04 136.57,43.25 44.64,16.75 86.28,36.23 116.89,63.08 46.7,40.98 40.37,47.12 60,116.44 -20.55,0.3 -572.65,-125.26 -592.48,-134.75l8.56 -131.84 128.88 7.5z"/>
   <path class="fil5" d="M1940.92 2854.62l-93.75 0.58c-126.68,-4.65 -378.33,-63.04 -372.73,-178.83 45.77,4.55 35.04,13.62 66.17,24.93 24.58,8.93 54.86,8.14 82.79,10.93 64.2,6.43 65.92,40.97 152.68,35.97 29.74,-1.72 60.82,-7.69 83.91,8.3 80.29,55.57 79.55,-2.5 130,-2.19 25.01,0.16 58.18,9.91 74.24,22.77 -8.71,55.7 -61.32,75 -123.31,77.54z"/>
   <path class="fil5" d="M2729.5 1877.44l0.45 64.39c-4.24,25.42 -19.17,47.14 -23.2,67.07 -16.88,13.83 -24.73,22.05 -35.39,39.4 -48.91,5.08 -43.74,27.47 -120.77,17.65 -35.75,-4.56 -87.74,-11.01 -111.06,-33.1l182.39 -58.15 0.94 -20.44 -0.64 -44.52c7.13,-46.38 -21.71,-75.12 -30,-114.86 81.68,-4.67 124.97,6.21 137.28,82.56z"/>
   <path class="fil5" d="M1921.24 2062.54c5.92,10.45 11.81,18.44 23.64,2.91l18.93 6.31c26.57,11.99 41.12,8.86 72.79,10.04 5.52,10.92 6.19,17.47 3,33.47 -55.04,1.81 -43.7,41.36 -82.26,60.28 -57.04,27.99 -134.77,-25.67 -148.92,-111.88 -9.64,-58.75 8.42,-68.95 19.41,-108.99 7.35,-5.09 4.83,0.14 11.2,-14.23 13.12,-2.58 26.96,-27.16 68.77,-37.76 0.18,50.75 -27.56,118.12 -7.01,163.84l20.45 -3.99z"/>
   <path class="fil6" d="M1838.48 2884.02c3.89,2.92 -1.53,3.38 12.71,7.2l90.45 -8.3c39.52,3.82 139.83,-19.44 146.2,-86.41 13.95,-146.74 91.54,-79.86 108.69,-110.74 7.22,-24.83 -9.01,-51.32 -20.73,-65.15 -16.77,-19.82 -36,-24.55 -62.23,-15.28l9.08 -26.07 23.32 2.68c12.78,-80.69 -57.42,-194.24 -92.33,-233.16 -253.7,-282.76 -573.74,-88.81 -589.99,87.2l-39 9.99 -5.7 -16.85c-53.08,-7.16 -92.52,30.2 -72.22,86.5 18.37,50.98 55.66,42.98 96.04,66.88 -7.91,34.32 -21.45,30.48 -3.73,69.63 14.06,31.06 -8.64,41.89 2.8,79.48 21.15,69.52 281.17,162.51 396.64,152.4zm-918.72 -845.39l0 40.73c6.26,45.5 30.07,93.95 45.39,127 60.42,130.38 168.95,274.03 262.23,379.92 57.04,64.75 85.83,161.26 219.93,261.69 32.42,24.27 60.65,43.37 98.46,62.09 135.23,66.94 175.65,71.64 317.33,86.48 26,2.73 69.74,18.14 136.67,23.89 40.11,3.44 90.16,7.09 142.39,9.59l209.68 0c11.97,-0.94 23.29,-2.1 33.77,-3.53 25.01,-3.42 56.56,-2.06 77.88,-4.84 82.55,-10.76 111.87,-5.61 212.36,-26.04 21.67,-4.4 47.28,-8.63 68.57,-14.14 20.9,-5.41 37.26,-11.54 61.18,-16.66 46.81,-10.03 90.54,-14.15 137.01,-23.55 258.61,-52.27 605.31,-152.45 710.94,-412.88 15.31,-37.75 31.19,-78.88 43.85,-116.69 29.38,-87.73 39.49,-165.04 39.49,-281.56l0 -45.04c-0.65,-74.61 -6.82,-187 -53.52,-216.97 -135.99,20.58 -554.23,20.72 -710.58,20.48 -21.52,23.78 -30.98,59.82 -71.94,81.18l-20.4 20.05c-13.03,11.81 -18.35,14.46 -37.27,18.98 -14.86,16.75 -53.45,21.56 -76.3,26.92 -12.15,2.84 -30.29,4.25 -39.77,8.41 -15.4,6.75 -13.27,13.49 -33.86,21.72 -35.98,61.4 -244.27,63.55 -283.68,-27.65 -165.52,19.76 -149.87,41.81 -372.97,43.59 5.52,10.92 6.19,17.47 3,33.47 -13.45,70.52 -71.94,135.43 -158.35,99.39 -39.62,-16.52 -47.12,-46.86 -91.91,-37.72 -42.54,8.67 -80.58,12.69 -125.26,10.24 -87.48,-4.79 -145.69,-32.62 -195.95,-75.04 -70.66,-59.62 -78.39,-131.86 -98.72,-170.05 -0.42,-0.79 -1.27,-2.3 -2.02,-3.38 -140.76,1.88 -273.87,34.62 -418.44,31.57 4.37,19.22 6.89,8.86 -8.14,24.8 -11.82,12.53 -18.33,27.4 -21.05,43.55zm2001.06 92.58l-5.52 0.58 -3.51 -26.71c-22.53,3.19 -23.43,8.4 -25.73,34.69 -1.63,18.56 -1.29,37.08 -3.09,55.8 -3.46,35.85 -8.48,69.83 -12.03,105.05 -63.52,-4.42 -243.75,-50.57 -325.2,-69.38 -27.76,-6.4 -86.18,-26.5 -105.53,-12.37l-8.03 -1.87c-18.6,-12.78 -41.82,-22.41 -70.17,-19.51l-6.93 -15.54c-131.75,9.25 -286.35,291.65 101.09,503.66 198.48,108.6 498.4,150.55 749.62,95.31 115.05,-25.31 239.01,-77.31 304.54,-142.74 38.54,-38.48 64.93,-71.36 86.26,-137.73 64.82,-201.75 -110.33,-295.3 -295.03,-348.52 -58.94,-16.99 -124.35,-28.94 -187.5,-35.89 -34.75,-3.83 -71.27,-6.49 -107,-6.16 -39.25,0.37 -77.24,-2.01 -86.24,21.33z"/>
   <path class="fil7" d="M1944.88 2065.45c-11.83,15.53 -17.72,7.54 -23.64,-2.91l5.77 -19.42c23.32,7.94 17.7,2.01 8.89,22.63l8.98 -0.3z"/>
   <path class="fil8" d="M2455.13 1779.91c-11.18,6.83 -9.56,5.73 -18.18,0 3.86,-4.46 15.74,-18.35 18.18,0z"/>
  </g>
 </g>
</svg>
