<?xml version="1.0" encoding="UTF-8"?>
<!DOCTYPE svg PUBLIC "-//W3C//DTD SVG 1.1//EN" "http://www.w3.org/Graphics/SVG/1.1/DTD/svg11.dtd">
<!-- Creator: CorelDRAW 2017 -->
<svg xmlns="http://www.w3.org/2000/svg" xml:space="preserve" width="42.8412mm" height="4.2332mm" version="1.1" style="shape-rendering:geometricPrecision; text-rendering:geometricPrecision; image-rendering:optimizeQuality; fill-rule:evenodd; clip-rule:evenodd"
viewBox="0 0 4284.12 423.32"
 xmlns:xlink="http://www.w3.org/1999/xlink">
 <defs>
  <style type="text/css">
   <![CDATA[
    .fil0 {fill:#FEFEFE}
    .fil1 {fill:#B44846}
   ]]>
  </style>
 </defs>
 <g id="Capa_x0020_1">
  <metadata id="CorelCorpID_0Corel-Layer"/>
  <g id="_2924236181872">
   <rect class="fil0" x="4.75" y="4.41" width="4278.77" height="414.67"/>
   <rect class="fil1" x="2072.73" y="142.55" width="138.14" height="138.14"/>
   <rect class="fil1" x="1934.67" y="4.41" width="138.14" height="138.14"/>
   <rect class="fil1" x="1935.1" y="280.86" width="138.14" height="138.14"/>
   <rect class="fil1" x="2210.9" y="4.08" width="138.14" height="138.14"/>
   <rect class="fil1" x="3315.88" y="7.1" width="138.14" height="138.14"/>
   <rect class="fil1" x="1105.59" y="2.81" width="138.14" height="138.14"/>
   <rect class="fil1" x="2763.29" y="5.51" width="138.14" height="138.14"/>
   <rect class="fil1" x="552.99" y="1.22" width="138.14" height="138.14"/>
   <rect class="fil1" x="1657.98" y="4.24" width="138.14" height="138.14"/>
   <rect class="fil1" x="2349.46" y="142.38" width="138.14" height="138.14"/>
   <rect class="fil1" x="3454.44" y="145.4" width="138.14" height="138.14"/>
   <rect class="fil1" x="1244.15" y="141.12" width="138.14" height="138.14"/>
   <rect class="fil1" x="2901.84" y="143.81" width="138.14" height="138.14"/>
   <rect class="fil1" x="691.55" y="139.53" width="138.14" height="138.14"/>
   <rect class="fil1" x="1796.54" y="142.55" width="138.14" height="138.14"/>
   <rect class="fil1" x="2625.65" y="142.38" width="138.14" height="138.14"/>
   <rect class="fil1" x="3730.63" y="145.4" width="138.14" height="138.14"/>
   <rect class="fil1" x="1520.34" y="141.12" width="138.14" height="138.14"/>
   <rect class="fil1" x="3178.04" y="143.81" width="138.14" height="138.14"/>
   <rect class="fil1" x="967.75" y="139.53" width="138.14" height="138.14"/>
   <rect class="fil1" x="2210.9" y="280.94" width="138.14" height="138.14"/>
   <rect class="fil1" x="3315.88" y="283.96" width="138.14" height="138.14"/>
   <rect class="fil1" x="1105.59" y="279.68" width="138.14" height="138.14"/>
   <rect class="fil1" x="2763.28" y="282.37" width="138.14" height="138.14"/>
   <rect class="fil1" x="552.99" y="278.09" width="138.14" height="138.14"/>
   <rect class="fil1" x="1657.98" y="281.11" width="138.14" height="138.14"/>
   <rect class="fil1" x="2487.59" y="4.25" width="138.14" height="138.14"/>
   <rect class="fil1" x="3592.58" y="7.27" width="138.14" height="138.14"/>
   <rect class="fil1" x="1382.29" y="2.98" width="138.14" height="138.14"/>
   <rect class="fil1" x="3039.98" y="5.68" width="138.14" height="138.14"/>
   <rect class="fil1" x="829.69" y="1.39" width="138.14" height="138.14"/>
   <rect class="fil1" x="2488.02" y="280.69" width="138.14" height="138.14"/>
   <rect class="fil1" x="3593" y="283.71" width="138.14" height="138.14"/>
   <rect class="fil1" x="1382.71" y="279.43" width="138.14" height="138.14"/>
   <rect class="fil1" x="3040.4" y="282.12" width="138.14" height="138.14"/>
   <rect class="fil1" x="830.11" y="277.84" width="138.14" height="138.14"/>
   <rect class="fil1" x="415.36" y="138.1" width="138.14" height="138.14"/>
   <rect class="fil1" x="0.61" y="-0.21" width="138.14" height="138.14"/>
   <rect class="fil1" x="139.17" y="138.1" width="138.14" height="138.14"/>
   <rect class="fil1" x="4006.83" y="146.83" width="138.14" height="138.14"/>
   <rect class="fil1" x="0.61" y="276.66" width="138.14" height="138.14"/>
   <rect class="fil1" x="277.3" y="-0.04" width="138.14" height="138.14"/>
   <rect class="fil1" x="277.73" y="276.41" width="138.14" height="138.14"/>
   <rect class="fil1" x="4144.96" y="8.7" width="138.14" height="138.14"/>
   <rect class="fil1" x="4145.39" y="285.14" width="138.14" height="138.14"/>
   <rect class="fil1" x="3868.27" y="8.53" width="138.14" height="138.14"/>
   <rect class="fil1" x="3868.27" y="285.39" width="138.14" height="138.14"/>
  </g>
 </g>
</svg>
