<?xml version="1.0" encoding="UTF-8"?>
<!DOCTYPE svg PUBLIC "-//W3C//DTD SVG 1.1//EN" "http://www.w3.org/Graphics/SVG/1.1/DTD/svg11.dtd">
<!-- Creator: CorelDRAW 2017 -->
<svg xmlns="http://www.w3.org/2000/svg" xml:space="preserve" width="46.5666mm" height="30.7338mm" version="1.1" style="shape-rendering:geometricPrecision; text-rendering:geometricPrecision; image-rendering:optimizeQuality; fill-rule:evenodd; clip-rule:evenodd"
viewBox="0 0 4656.66 3073.38"
 xmlns:xlink="http://www.w3.org/1999/xlink">
 <defs>
  <style type="text/css">
   <![CDATA[
    .fil0 {fill:none}
    .fil4 {fill:#2D2C29}
    .fil3 {fill:#636360}
    .fil2 {fill:#92928E}
    .fil1 {fill:#E4E4DB}
   ]]>
  </style>
 </defs>
 <g id="Capa_x0020_1">
  <metadata id="CorelCorpID_0Corel-Layer"/>
  <rect class="fil0" y="-0" width="4656.66" height="3073.39"/>
  <g id="_2924241760736">
   <path class="fil1" d="M2079.45 1741.06c0,15.21 3.11,9.96 -14.79,9.96l-2.2 19.91c26.56,15.33 26.92,9.95 66.77,9.95 -2.23,-26.88 -4.66,-27.08 -9.96,-49.77 -30.82,2.63 -18.81,-0.12 -39.82,9.95z"/>
   <path class="fil2" d="M2268.63 1193.59c9.51,14.2 14.43,33.16 34.78,24 28.4,-12.78 12.98,-27.39 5.05,-43.91 -20.69,5.52 -27.33,7.69 -39.83,19.91z"/>
   <polygon class="fil2" points="2099.36,1492.21 2139.19,1492.21 2139.19,1452.39 2099.36,1452.39 "/>
   <path class="fil2" d="M1392.41 1422.53c101.99,-8.48 8.49,-102.08 0,0z"/>
   <path class="fil2" d="M1890.26 1273.22l39.83 0 0 -39.82c-34.37,2.86 -39.83,3.04 -39.83,39.82z"/>
   <path class="fil3" d="M1930.09 1551.94c0.19,0.16 18.58,9.95 19.92,9.95 30.1,0 27.53,-11.72 29.86,-39.82 -35.97,3 -35.94,4.3 -49.78,29.87z"/>
   <path class="fil4" d="M2059.53 1691.29l0 -29.86 -229.01 0c-6.3,-75.66 -30.43,-100.7 -103.76,-115.26 -56.9,-11.3 -37.33,-3.96 -79.74,-29.78l-75.39 -34.14c100.12,0 229.02,-32.26 229.02,-149.31 -23.3,-12.32 -25.92,-17.09 -59.74,-19.9 8.59,36.88 16.42,27.83 19.91,69.68 -194.96,130.51 -312.94,26.71 -166.47,-37.02 39.89,-17.35 83.34,-22.58 126.64,-32.66l0 -19.91c-72.57,0 -102.58,5.15 -149.93,29.29 -46.5,23.69 -128.81,81.06 -66.16,136.96 41.26,36.81 18.69,-12.18 36.86,32.83 -75.12,0 -101.76,-25.33 -213.38,-55.44 -46.42,-12.52 -31.01,-15.01 -65.42,-24.19l541.89 -194.89c151.7,-43.01 157.7,-69.45 278.33,-47.88 113.12,20.22 232.9,-60.93 294.98,23.78 58.98,15.74 45.85,76.05 29.02,128.4l-184.94 442.37c-102.11,202.6 -119.12,186.06 -431.93,166.21 -78.07,-4.95 -113.16,-24.78 -178.85,-30.24 0,-118.44 160.93,-211.15 308.47,-198.24 123.82,10.85 59.75,-9.02 139.6,-10.8zm328.59 -557.43c59.62,-1.32 180.87,-39.82 288.75,-39.82 163.83,0 389.95,103.17 372.84,263.98 -26.93,253.1 -476.12,271.62 -681.5,223.78 0,-102.72 49.83,-143.7 69.7,-228.95 71.66,1.6 84.01,8.25 69.7,69.68 49.68,-4.13 61.06,-35.53 102.56,-56.74 30.53,-15.6 92.82,-34.81 126.95,-42.3 181.53,-39.86 153.1,-0.5 288.25,-0.5 -39.94,-149.56 -440.63,19.91 -477.94,19.91 -28.59,0 -26.89,-19.91 -89.61,-19.91 0,-84.27 35.79,-96.5 -38.13,-151.01 -36.51,-26.92 -21.55,-19.05 -31.57,-38.12zm-527.73 -59.72c15.03,64.49 20.95,30.33 49.78,69.68 -80.67,1.79 -458.43,141.13 -538.95,167.95 -93.09,31.01 -174.35,57.83 -275.51,82.91 -84.22,20.89 -212.88,38.85 -221.08,137.35 220.18,-116.47 194.15,-104.91 378.38,-89.59l-101 58.31c-40.52,13.96 -67.4,20.61 -78.24,61.14 88.4,-1.97 144.73,-69.68 328.59,-69.68 -25.35,34.59 -157.85,77.03 -189.19,79.63l0 19.91c124.7,33.06 75.25,-59.72 378.38,-59.72l0 19.91c-63.48,5.28 -131.08,37.47 -159.32,79.63 117.03,-2.61 314.62,-125.47 348.5,19.91 -78.02,116.48 -179.23,23.62 -228.68,298.95 -7.46,41.51 -13.56,44.16 -26.9,82.6 -30.85,88.84 -23.22,290.14 -23.22,394.87 0,56.1 5.48,86.5 39.83,109.5 32.64,-68.01 -22.97,-347.03 14.5,-483.22 14.81,-53.83 35.29,-38.46 35.29,-114.03 148.54,34.6 440.52,79.36 567.59,0.03 56.63,-35.35 76.18,-100.7 96.22,-142.71l73.01 -175.86c47.84,0 80.77,12.57 121.04,18.36 199.79,28.77 476.43,-6.55 587.72,-145.97 163.1,-204.34 -41.59,-439.77 -380.17,-439.77 -237.81,0 -297.9,89.48 -607.07,69.43 -37.37,-2.43 -72.81,-9.75 -101.34,-18.21 -34.21,-10.14 -56.72,-23.99 -88.16,-31.31z"/>
   <path class="fil4" d="M1651.29 944.73c0,132.07 -8.12,108.65 19.92,228.95l29.86 0c0,-179.07 -13.44,-335.02 33.37,-474.31 80.38,-239.18 254.82,-434.86 484.29,-541.13l183.27 -75.59c199.79,-57.32 478.38,-51.94 681.26,-2.06 1103.78,271.38 741.14,1652.2 21.77,1819.74l0 29.86c109.49,0 134.68,20.54 251.82,66.79 362.43,143.12 300.47,543.5 295.88,878.91 -1.19,87.12 -19.4,86.21 -10.01,199.03 71.2,-5.92 44.81,-67.57 50.34,-138.8 25.26,-325.6 50.97,-793.94 -255.82,-949.82 -38.67,-19.65 -55.44,-25.19 -99.53,-39.87 -35.77,-11.9 -74.59,-20.61 -93.28,-46.1 145.12,-38.74 338.49,-243.57 411.39,-375.11 243.41,-439.2 270.75,-961.26 -151.12,-1298.56 -41.75,-33.37 -102.88,-76.31 -151.88,-97.02 -58.06,-24.54 -121.72,-50.31 -179.21,-69.7 -176.35,-59.51 -495.4,-87.52 -694.84,-29.95 -62.91,18.15 -126.31,34.07 -193.97,54.93 -318.46,98.18 -633.51,454.07 -633.51,859.81z"/>
   <path class="fil4" d="M824.85 1611.66c0,115.95 -3.83,172.15 33.49,285.05 30.04,90.88 56.33,176.95 56.02,282.45l28.17 320.21c44.66,315.68 199.21,582.9 553.43,489.95 45.63,-11.97 60.89,-33.4 105.55,-43.8l0 129.4c64.68,-17.27 44.87,-70.07 55.57,-143.53 14.94,-102.65 -6.75,-281.29 10.05,-388.37 9.52,-60.6 -5.88,-113.28 -5.88,-184.8l-19.92 0c0,187.95 -39.82,346.37 -39.82,537.53 -162.34,108.67 -444.8,83.79 -540.78,-146.23 -55.71,-133.5 -72.83,-245.09 -93.79,-403.94 -10.04,-76.09 -6.59,-157.97 -14.17,-234.69 -19.4,-196.26 -79.31,-266.06 -78.2,-419.54 0.16,-21.81 2.79,-103.25 -2.32,-118.59 -13.42,-40.24 -47.4,-1.47 -47.4,38.9z"/>
   <path class="fil4" d="M1959.96 1342.9c0,142.04 308.67,50.48 308.67,-69.68 0,-38.06 3.06,-3.62 -9.96,-29.86 -60.24,40.33 -21.11,44.36 -63.67,85.65 -29.04,28.18 -79.33,48.7 -117.72,51.6 -35.9,2.71 -55.79,-13.23 -77.49,-27.76 0,-107.8 132.42,-119.45 219.06,-119.45 -31.3,-117.17 -258.89,20.41 -258.89,109.5z"/>
   <path class="fil4" d="M3075.16 3074.92c60.87,-16.25 32.87,-63.8 41.08,-138.11l29.38 -419.32c-0.7,-45.73 -7.63,-42.56 -10.71,-79.63l-29.88 0c-1,44.95 -10.25,44.4 -9.97,149.29 0.14,51.55 3.72,119.2 -0.31,168.91l-19.59 318.86z"/>
   <path class="fil4" d="M2378.16 1193.59c-51.96,12.1 -34.14,13.05 -76.37,102.82 -48.85,103.84 -47.68,123.12 -122.85,235.54 -23.11,34.55 -55.36,77.82 -59.67,129.48 61.17,-32.35 111.58,-144.43 149.88,-208.52 30.34,-50.77 107.39,-186.43 109.01,-259.32z"/>
   <path class="fil4" d="M2935.76 666.02c53.44,-1.19 98.06,-28.22 141.21,-12.43 66.57,24.37 26.76,66.25 97.76,72.15 -38.38,-164.72 -218.22,-137.42 -238.97,-59.72z"/>
   <path class="fil4" d="M2099.36 656.06c81.94,-21.87 -5.35,-39.82 149.36,-39.82 31.31,0 21.49,25.03 79.65,29.87 -8.02,-16.72 -13.47,-79.64 -109.52,-79.64 -69.08,0 -106.45,33.65 -119.49,89.59z"/>
   <path class="fil4" d="M2059.53 1691.29c-25.5,38.08 -47.29,46.16 -34.89,113.84 10.65,58.15 21.48,72.85 74.72,85.25 -4.36,-52.35 -39.56,-53.59 -36.9,-119.45l2.2 -19.91 14.79 -9.96c7.2,-30.89 12.71,-28.83 19.91,-59.72l-39.83 9.95z"/>
  </g>
 </g>
</svg>
