<?xml version="1.0" encoding="UTF-8"?>
<!DOCTYPE svg PUBLIC "-//W3C//DTD SVG 1.1//EN" "http://www.w3.org/Graphics/SVG/1.1/DTD/svg11.dtd">
<!-- Creator: CorelDRAW 2017 -->
<svg xmlns="http://www.w3.org/2000/svg" xml:space="preserve" width="46.5666mm" height="30.7338mm" version="1.1" style="shape-rendering:geometricPrecision; text-rendering:geometricPrecision; image-rendering:optimizeQuality; fill-rule:evenodd; clip-rule:evenodd"
viewBox="0 0 4656.66 3073.38"
 xmlns:xlink="http://www.w3.org/1999/xlink">
 <defs>
  <style type="text/css">
   <![CDATA[
    .fil0 {fill:none}
    .fil4 {fill:#2D2C29}
    .fil3 {fill:#636360}
    .fil2 {fill:#92928E}
    .fil1 {fill:#BFBEBE}
   ]]>
  </style>
 </defs>
 <g id="Capa_x0020_1">
  <metadata id="CorelCorpID_0Corel-Layer"/>
  <rect class="fil0" y="-0" width="4656.66" height="3073.39"/>
  <g id="_2923975143920">
   <polygon class="fil1" points="2066.21,2022.95 2036.33,2022.95 2036.33,1983.13 2066.21,1983.13 "/>
   <path class="fil1" d="M2245.43 1943.31c-40.85,-10.9 -35,-7.21 -19.91,-39.81 25.47,18.66 19.91,-3.45 19.91,39.81z"/>
   <path class="fil2" d="M1588.26 1624.78l-59.74 0 0 -39.82c54.29,0 48.23,-4.91 59.74,39.82z"/>
   <path class="fil2" d="M2245.43 1774.09c-39.83,-9.27 -38.78,-2.6 -39.82,-49.77l49.78 0c-0.78,34.69 1.53,26.61 -9.96,49.77z"/>
   <path class="fil2" d="M2006.46 1296.29c-44.16,-0.98 -46.21,3.17 -49.79,-39.81 39.2,0.87 49.79,-0.78 49.79,39.81z"/>
   <polygon class="fil2" points="2404.75,1933.36 2364.92,1933.36 2364.92,1893.54 2404.75,1893.54 "/>
   <path class="fil2" d="M1359.25 1833.82l0 29.86 -39.44 11.17c0.48,-40.33 -3.12,-24.57 9.56,-50.99 17.23,9.67 19.64,5.8 29.88,9.96z"/>
   <polygon class="fil2" points="2265.35,1555.1 2225.91,1543.93 2225.52,1515.29 2265.35,1515.29 "/>
   <path class="fil2" d="M3111.7 2052.81l0 19.9c-26.35,6.99 -8.19,-0.79 -29.87,9.96l0 -39.82c17.22,9.68 19.64,5.8 29.87,9.96z"/>
   <path class="fil2" d="M1807.32 1913.45l-29.87 0 0 -29.86c40.36,21.35 21.31,-3.39 29.87,29.86z"/>
   <path class="fil3" d="M3430.33 1943.31c-21.75,31.3 -17.19,19.91 -139.4,19.91 -163.84,0 -337.83,-18.73 -480.86,-36.89 -84.23,-10.7 -149.72,-15.33 -231.64,-27.24 -345.09,-50.2 -659.67,-87.23 -993.63,-181.27 -56.5,-15.91 -69.32,-3.28 -96.11,-43.27 141.88,0 328.93,61.43 455.93,91.68 71.07,16.93 154.43,28.21 236.81,41.99 203.79,34.05 802.06,116.23 989.78,115.42 95.27,-0.42 182.38,1.8 259.12,19.67z"/>
   <path class="fil3" d="M1428.95 1664.6c-31.56,26.35 -67.08,-9.96 -119.49,-9.96 -46.14,0 -29.95,18.58 -89.61,19.91 22.71,-85.05 167.82,-71.57 209.1,-9.95z"/>
   <path class="fil3" d="M3330.76 1863.68c-26.43,-12.68 -10.65,-9.08 -49.79,-9.95l0 -39.82c43.64,3.63 48.74,2.86 49.79,49.77z"/>
   <path class="fil3" d="M2613.85 1674.55l0 29.86 -29.88 0c-38.06,0 -3.62,3.06 -29.86,-9.95 17.69,-26.42 24.45,-33.6 59.74,-19.91z"/>
   <path class="fil3" d="M3071.87 1843.77c-34.42,-9.19 -30.63,-5.4 -39.82,-39.82l39.82 0 0 39.82z"/>
   <path class="fil3" d="M2265.35 1156.93c-48.21,-1.07 -32.61,2.59 -49.79,-29.86 58.32,1.3 25.96,-2.15 49.79,29.86z"/>
   <path class="fil4" d="M3071.87 1604.87l0 0zm-1941.64 -44.77l0 105.27c6.35,68.2 25.52,131.99 59.38,178.77 108.01,149.26 388.7,185.95 613.78,242.46 205.4,51.56 389.09,61.49 608.27,98.66 124.24,21.06 199.76,10.49 270.66,18.08 42.05,4.51 68.27,17.27 120.7,18.7 88.13,2.42 167.54,9.94 268.85,9.94 174.35,0 424.58,35.65 446.07,-121.46 22.17,-162.08 2.62,-211.51 -78.92,-275.43l-113.87 -95.21c-345.76,-268.72 -511.52,-411.46 -890.53,-662.58 -23.56,-15.61 -60.27,-41.94 -89.61,-49.77 15.15,65.03 74.49,88.79 140.9,137.85l476.44 349.91c-77.36,-18.02 -93.56,-61.42 -229.02,-29.87l0 19.91c114.04,0 315.29,39.19 318.63,189.13 -43.74,10.19 -64.83,27.77 -125.46,16.41 -239.04,-44.78 -217.13,-162.53 -233,-195.58 -130.72,34.89 74.01,225.51 239.5,239.11 84.69,6.97 89.72,-25.16 148.83,-30.08 0,-57.83 0.74,-73.55 -9.96,-119.45 34.73,9.27 181.82,137.69 214.76,163.57 39.1,30.72 67,52.78 106.74,82.41 24.47,18.25 84.37,58.55 93.04,86.23 5.08,16.17 12.45,193.3 -42.52,228.82 -13.12,8.47 -49.84,15.46 -70.32,19.29 -82.15,15.38 -257.18,6.62 -361.47,7.01l-683.33 -53.49c-76.9,-12.06 -14.57,-11.48 -160.2,-28.97 -171.52,-20.61 -289.53,-49.14 -456.9,-90.72 -191.68,-47.62 -427.19,-82.98 -498.76,-238 -120.11,-260.19 60.05,-514.52 252.78,-676.94 320.61,-270.19 824.67,-284.52 829.53,-66.6 -30.23,2.52 -60.08,15.36 -80.53,16.14 -108.39,4.13 -58.05,-45.22 -212.16,49.62 -112.15,69.02 -116.3,-11.28 -247.25,121.12 -85.91,86.86 -170.75,38.33 -210.7,157.66 -53.71,160.4 -145.51,94.57 -145.51,222.85 47.79,-12.75 13.04,-5.07 43.6,-36.05 11.89,-12.06 24.52,-20.39 38.88,-30.81 165.74,-120.19 18.62,-158.09 200.21,-217.93 105.68,-34.82 96.08,-85.47 168.18,-120.54 33.07,-16.08 75.45,-20.4 108.2,-31.18 42.94,-14.15 54.55,-28.06 91.29,-48.1 123.74,-67.52 183.67,-7.18 242.71,-46.03 22.17,-14.59 44.57,-62.62 40.79,-94.55 -10.8,-91.1 -204.78,-140.97 -286.21,-141.71 -385.41,-3.48 -720.97,236.4 -870.19,544.42 -24.68,50.92 -40.58,113.48 -46.3,177.71z"/>
   <path class="fil4" d="M2106.03 1565.05c0,131.47 -277,127.53 -381.56,23.1 -28.2,-28.16 -26.87,-30.96 -36.64,-72.86 97.79,26.1 63.19,109.49 268.84,109.49 54.99,0 66.6,-19.87 109.54,-29.86 -2.34,-104.94 -128.03,-149.32 -219.06,-149.32 -63.63,0 -75.78,19.91 -139.4,19.91 74.17,-140.13 398.28,-10.33 398.28,99.54z"/>
   <path class="fil4" d="M2583.97 1375.93c0,224.7 -559.32,17.72 -358.45,-129.41 0,80.77 0.24,111.77 56.11,142.99 153.15,85.61 196.19,31.73 262.52,16.28 0,-139.99 -145.39,-159.27 -288.76,-159.27 11.76,-44.05 19.7,-39.81 69.7,-39.81 102.69,0 258.88,72.18 258.88,169.22z"/>
  </g>
 </g>
</svg>
