<?xml version="1.0" encoding="UTF-8"?>
<!DOCTYPE svg PUBLIC "-//W3C//DTD SVG 1.1//EN" "http://www.w3.org/Graphics/SVG/1.1/DTD/svg11.dtd">
<!-- Creator: CorelDRAW 2017 -->
<svg xmlns="http://www.w3.org/2000/svg" xml:space="preserve" width="46.5666mm" height="30.7338mm" version="1.1" style="shape-rendering:geometricPrecision; text-rendering:geometricPrecision; image-rendering:optimizeQuality; fill-rule:evenodd; clip-rule:evenodd"
viewBox="0 0 4656.66 3073.38"
 xmlns:xlink="http://www.w3.org/1999/xlink">
 <defs>
  <style type="text/css">
   <![CDATA[
    .fil0 {fill:none}
    .fil5 {fill:#2D2C29}
    .fil4 {fill:#636360}
    .fil3 {fill:#92928E}
    .fil1 {fill:#BFBEBE}
    .fil2 {fill:#E4E4DB}
   ]]>
  </style>
 </defs>
 <g id="Capa_x0020_1">
  <metadata id="CorelCorpID_0Corel-Layer"/>
  <rect class="fil0" y="-0" width="4656.66" height="3073.39"/>
  <g id="_2924239430064">
   <path class="fil1" d="M1040.12 2364.01l82.99 9.57c19.71,-36.4 31.64,-48.02 -29.88,-49.39 2.63,30.82 -0.12,18.82 9.96,39.82l-63.07 0z"/>
   <path class="fil1" d="M1790.23 2334.14l0 -39.81 -39.82 0c3.04,36.63 3.19,36.77 39.82,39.81z"/>
   <polygon class="fil1" points="2487.23,2065.38 2527.06,2065.38 2527.06,2035.52 2487.23,2035.52 "/>
   <path class="fil1" d="M1511.43 1637.36c38.93,-3.24 30.25,6.02 39.83,-29.87l-39.83 0 0 29.87z"/>
   <path class="fil2" d="M1491.52 2204.74l0 19.91c26.43,12.68 10.66,9.08 49.79,9.96l0 -49.78c-21.95,0.49 -49.79,-3.04 -49.79,19.91z"/>
   <path class="fil3" d="M3064.75 1189.42l0 39.82c43.08,-3.59 49.78,-12.93 49.78,-49.78 0,-38.05 3.06,-3.62 -9.96,-29.86 -22.55,6.02 -39.82,9.57 -39.82,39.82z"/>
   <path class="fil3" d="M2108.86 1756.81c44.13,-10.28 58.29,-7.03 69.7,-49.78 -45.41,-9.61 -68.31,-12.64 -69.7,49.78z"/>
   <path class="fil3" d="M1043.45 2085.29c40.6,-3.38 40.51,-5.12 49.78,-39.82 -39.2,0.88 -49.78,-0.77 -49.78,39.82z"/>
   <path class="fil3" d="M1800.19 2025.57c36.64,-3.05 36.78,-3.2 39.83,-39.82 -32.82,8.76 -31.64,5.62 -39.83,39.82z"/>
   <path class="fil4" d="M1152.97 2145.02l-150.14 -11.4c-60.15,4.45 -28.17,-5.58 -39.04,21.35 -0.07,0.21 -51.7,5.18 75.25,24.92l609.02 -27.7c309.75,-39.48 583.03,-28.73 871.91,-153.62 101.13,-43.73 64.44,-40.84 206.24,-52.64 -29.34,-109.82 -275.64,49.55 -380.14,77.88 -104.96,28.46 -454.47,76.14 -575.82,81.32 -136.1,5.81 -286.26,29.59 -408.18,29.93 -70.92,0.2 -125.97,9.96 -209.1,9.96z"/>
   <path class="fil4" d="M3124.49 1119.74c83.5,-6.95 393.14,-222.22 489.88,-286.69 61.9,-41.25 102.35,-55.18 137.42,-121.43 -53.65,12.49 -249.34,151.16 -320.57,197.13 -54.9,35.43 -104.53,64.19 -159.32,99.55 -28.06,18.1 -51.54,31.95 -79.69,49.73 -37.19,23.5 -56.24,18.73 -67.72,61.71z"/>
   <path class="fil4" d="M2785.95 1547.77c-11.42,-42.77 -73.13,-87.4 -109.92,-109.11l-288.37 -159.65c-49.69,-24.84 -97.67,-59.73 -169.27,-59.73 7.66,28.68 0.48,15.6 21.01,28.77l116.59 52.67c87.85,53.6 180.14,94.51 284.7,163.31 42.9,28.22 95.46,72.14 145.26,83.74z"/>
   <path class="fil4" d="M3084.66 1129.7c-13.6,-58.37 -54.34,-70.36 -106.41,-92.71 -52.68,-22.62 -89.34,-36.7 -162.43,-36.7 32.4,28.16 92.26,49.47 132.55,66.57 46.53,19.75 89.03,51.83 136.29,62.84z"/>
   <path class="fil4" d="M1650.83 1517.91c51.11,-4.25 65.34,-7.22 69.7,-59.73 -38.31,18.38 -56.57,10.6 -69.7,59.73z"/>
   <path class="fil5" d="M874.17 2413.78c0,-150.27 18.24,9.95 308.68,9.95l-278.8 19.91c-22.95,0 -29.88,-6.93 -29.88,-29.86zm248.94 -40.2l-82.99 -9.57c-83.5,-14.75 -126.8,-24.55 -142.71,-113.3 -13.97,-77.88 27.5,-148.23 60.34,-191.37l118.1 -130.78c29.04,-28.61 34.83,-38.99 60.15,-69.28 93.34,-111.63 507.65,-459.04 614.41,-530.5 25.12,107.81 121.65,32.05 226.1,122.35 47.27,40.87 41.52,40.31 102.29,66.97 83.74,36.73 105.46,99.74 207.84,140.62 133.74,53.4 137.43,214.13 280.25,247.4 -7.88,-94.69 -88.91,-73.17 -149.35,-189.13 -51.2,-98.24 -120.84,-79.97 -196.68,-151.78 -30.9,-29.25 -55.83,-51.64 -97.03,-72.22 -93.5,-46.71 -191.84,-121.55 -219.83,-128.64 -31.56,-7.99 -48.96,-2.73 -79.93,-9.68 -44.34,-9.94 -26.42,-15.94 -63.71,-25.89 4.33,-194.09 352.36,-51.7 454.76,3.26 55.64,29.87 88.77,55.89 138.67,90.32 174.36,120.32 373.93,282.57 392.33,503.66 59.04,-13.75 84.29,-61.67 100.1,-118.92 14.89,-53.92 12.54,-139.64 30.18,-188.82 30.01,-83.68 126.41,-210.8 128.61,-309.41 111.03,-2.48 298.94,-135.7 402.21,-205.11 101.14,-67.97 161.57,-100.93 262.19,-185.82 26.4,-22.28 53.91,-60.14 62.46,-96.83 -137.29,72.63 -81.24,55.9 -165.13,113.64 -60.86,41.89 -110.46,76.67 -171.42,117.29 -99.33,66.2 -274.74,205.15 -360.45,207.06l0 -69.68c-50.77,4.22 -42.38,23.93 -79.64,149.32 -70.75,238.02 -102.71,125.64 -140.52,436.86 -5.28,43.5 -8.79,60.15 -48.68,70.79 0,-146.49 -173.43,-293.12 -261.97,-365.21 -69.44,-56.53 -200.56,-135.72 -284.04,-183.89 -45.79,-26.42 -59.83,-28.66 -61.37,-97.92 136.51,-11.35 548.39,-149.49 681.3,-113.71 74.13,19.95 107.71,73.9 194.92,73.9 -9.09,-34.07 -16.75,-37.39 -48.06,-51.49 -25.53,-11.5 -46.35,-19.36 -74.45,-35.07 -61.35,-34.3 -74.43,-42.85 -166.24,-42.85 13.15,-56.43 51.69,-58.87 99.4,-79.8l643.11 -302.73c107.71,-45.12 133.6,-54.88 283.08,24.18 0,30.9 1.13,46.72 -4.39,76.4 -0.62,3.32 -5.3,17.69 -6.87,30.85 -12.42,104.2 146.12,-85.65 -1.36,-164.31 -77.13,-41.14 -189.14,-45.69 -276.34,-12.81 -93.61,35.3 -716.98,308.96 -772.31,392.55 -42.11,63.61 -12.49,47.63 -101.55,67.7l-410.89 86.94c-73.9,18 -61.43,22.38 -89.14,80.12 -98.24,-8.18 -130.2,-68.03 -258.45,-39.52 -128.6,28.59 -90.68,86.31 -179.48,149.19 -32.42,22.96 -59.37,39.07 -94.07,65.22 -118.91,89.6 -329.64,278.79 -436.53,389.8 -400.96,416.45 -243.8,386.14 -278.73,517.22 -14.57,54.7 -27.25,-10.64 -27.25,142.44 89.84,60.15 115.56,35.37 229.09,29.95 202.01,-9.63 342.32,-57.54 498.51,-69.04 88.2,-6.49 185.62,-13.67 268.7,-20.04 246.07,-18.87 839.95,-47.23 929.59,-345.51 11.27,-37.49 18.65,-61.56 0.21,-69.56 -38.4,-16.67 -18.58,25.05 -65.7,104.31 -91.55,153.96 -299.03,193.28 -491.99,224.87 -332.71,54.47 -691.07,70.8 -1079.65,65.01z"/>
   <path class="fil5" d="M1192.81 1955.89c0,177.14 358.45,77.92 358.45,-129.41l-19.91 0c-46.19,172.94 -298.72,235.97 -298.72,129.41 0,-55.25 72.56,-109.89 109.8,-129.14 62.96,-32.52 114.21,-30.13 208.83,-30.13 -76.56,-144.65 -358.45,54.29 -358.45,159.27z"/>
   <path class="fil5" d="M1710.57 1716.99c0,151.39 313.4,123.69 358.46,-69.68 -54.38,4.52 -34.36,33.77 -97.7,81.49 -89.82,67.66 -220.92,50.42 -220.92,8.1 0,-105.9 107.14,-153.81 203.86,-152.98 56.55,0.5 14.06,21.99 84.89,23.57 -37.2,-159.62 -328.59,-16.96 -328.59,109.5z"/>
   <path class="fil5" d="M1949.55 1935.98c0,128.86 314.6,148.37 358.46,-39.82 -64.96,17.34 -81.13,99.55 -209.1,99.55 -54.99,0 -66.6,-19.87 -109.54,-29.87 0,-99.33 40.69,-109.01 117.92,-130.98 156.95,-44.65 123.29,15.87 190.76,21.49 -43.46,-162.72 -348.5,-43.73 -348.5,79.63z"/>
  </g>
 </g>
</svg>
