<?xml version="1.0" encoding="UTF-8"?>
<!DOCTYPE svg PUBLIC "-//W3C//DTD SVG 1.1//EN" "http://www.w3.org/Graphics/SVG/1.1/DTD/svg11.dtd">
<!-- Creator: CorelDRAW 2017 -->
<svg xmlns="http://www.w3.org/2000/svg" xml:space="preserve" width="215.9mm" height="279.4mm" version="1.1" style="shape-rendering:geometricPrecision; text-rendering:geometricPrecision; image-rendering:optimizeQuality; fill-rule:evenodd; clip-rule:evenodd"
viewBox="0 0 21590 27940"
 xmlns:xlink="http://www.w3.org/1999/xlink">
 <defs>
  <style type="text/css">
   <![CDATA[
    .str1 {stroke:#201E1E;stroke-width:98.15;stroke-linecap:round;stroke-linejoin:round;stroke-miterlimit:22.9256}
    .str0 {stroke:#D03438;stroke-width:196.3;stroke-linecap:round;stroke-linejoin:round;stroke-miterlimit:22.9256}
    .fil0 {fill:none;fill-rule:nonzero}
    .fil2 {fill:#201E1E}
    .fil3 {fill:#FDF5F9;fill-rule:nonzero}
    .fil1 {fill:#D03438;fill-rule:nonzero}
   ]]>
  </style>
    <clipPath id="id0">
     <path d="M10177.46 14174.4l4943.44 0 0 3167.91 -4943.44 0 0 -3167.91z"/>
    </clipPath>
   <clipPath id="id1">
    <rect x="10441.45" y="14438.39" width="4415.46" height="2639.93"/>
   </clipPath>
   <clipPath id="id2">
    <rect x="6676.92" y="14697.22" width="5230.24" height="3900.88"/>
   </clipPath>
   <clipPath id="id3">
    <path d="M6676.92 18598.1l5230.23 0 0 -3900.88 -5230.23 0 0 3900.88z"/>
   </clipPath>
   <clipPath id="id4">
    <rect x="6676.92" y="14697.22" width="5230.24" height="3900.88"/>
   </clipPath>
 </defs>
 <g id="Capa_x0020_1">
  <metadata id="CorelCorpID_0Corel-Layer"/>
  <g>
   <path class="fil0 str0" d="M6212.56 15317.82l188.58 13.71 21.44 -351.19 238.16 362.72 151.82 -25.24 -22.31 -652.5 -154.59 7.73 -17.94 284.83 -210.16 -300 -164.95 7.44 -30.05 652.5zm862.08 -334.12l-31.5 -333.98 -159.7 17.64c5.69,68.26 9.19,149.93 10.65,245.02 1.46,94.94 13.85,179.82 37.33,254.64 23.48,74.82 64.61,127.76 123.39,158.83 58.77,31.06 148.46,17.06 269.08,-42.15l12.25 66.65 128.78 -36.61 -48.71 -659.65 -129.22 26.69 -2.77 373.8 -1.17 24.35 -1.02 8.75 -1.02 5.4 -1.75 8.17 -2.19 7.44 -2.33 5.97 -3.36 7.01 -4.95 7.87 -4.96 5.83 -3.21 3.21 -9.63 7.3 -3.21 1.75 -5.54 2.77 -12.4 4.23 -8.02 1.89 -14.58 1.75 -13.27 0.44 -10.36 0 -8.89 -0.29 -12.4 -1.46 -4.23 -0.88 -4.96 -1.02 -4.37 -1.16 -3.5 -1.02 -7.44 -2.78 -5.4 -2.47 -8.75 -5.25 -10.65 -8.9 -4.52 -4.96 -6.85 -9.33 -9.19 -17.8 -4.67 -14.14 -5.25 -24.65 -3.93 -35.59 -1.03 -20.42 -0.58 -22.89zm465.24 351.63l426.3 -28.15 -17.21 -135.64 -225.03 22.61 -16.63 -124.11 180.99 -20.28 0.15 -91.73 -200.97 -13.71 2.48 -119.3 207.97 -34.27 6.56 -135.35 -363 48.28 -1.61 631.65zm444.24 -662.72l215.85 629.61 197.77 31.79 189.3 -675.69 -159.11 -7 -120.91 387.21 -173.7 -394.06 -149.2 28.14zm919.11 -11.23c-84.44,0 -156.49,32.82 -216.14,98.74 -59.51,65.92 -89.4,145.26 -89.4,238.16 0,93.05 29.89,172.53 89.4,238.31 59.65,65.63 131.7,98.59 216.14,98.59 84.15,0 156.05,-32.96 215.7,-98.59 59.8,-65.78 89.55,-145.26 89.55,-238.31 0,-92.9 -29.75,-172.24 -89.55,-238.16 -59.65,-65.92 -131.55,-98.74 -215.7,-98.74zm5.54 201.85c35.73,0 66.21,13.86 91.59,41.71 25.23,27.86 37.92,61.4 37.92,100.78 0,39.23 -12.69,72.92 -37.92,100.78 -25.38,27.71 -55.86,41.71 -91.59,41.71 -35.88,0 -66.5,-14 -91.74,-41.71 -25.23,-27.86 -37.91,-61.55 -37.91,-100.78 0,-39.38 12.68,-72.92 37.91,-100.78 25.24,-27.85 55.86,-41.71 91.74,-41.71zm722.07 273.46c5.39,-34.71 -1.61,-71.17 -20.86,-109.82 0.15,0.43 -19.25,-29.46 -57.9,-89.55 -21.14,-31.5 -30.04,-57.03 -26.98,-76.86 3.5,-21.58 17.94,-36.9 43.03,-46.23 14.29,-5.54 31.94,-8.46 53.08,-8.61 21,-0.14 39.67,-1.31 56.3,-3.5l-64.17 -148.47c-73.22,0 -136.8,12.69 -191.06,38.21 -66.65,31.07 -104.57,75.7 -113.76,133.89 -6.7,40.25 -0.43,78.46 18.82,114.78 2.92,5.98 21.87,33.1 56.59,81.23 19.98,28.88 28.29,53.67 24.93,74.24 -2.33,14.87 -13.56,27.27 -33.25,37.19 -19.83,9.91 -40.98,18.08 -63.59,24.5 -22.6,6.56 -42.87,11.52 -60.96,15.17 -18.08,3.64 -26.54,6.56 -25.52,8.6l79.34 162.47c69.86,-17.65 138.55,-36.9 205.64,-57.46 67.23,-20.71 107.34,-70.59 120.32,-149.78z"/>
   <path id="1" class="fil1" d="M6212.56 15317.82l188.58 13.71 21.44 -351.19 238.16 362.72 151.82 -25.24 -22.31 -652.5 -154.59 7.73 -17.94 284.83 -210.16 -300 -164.95 7.44 -30.05 652.5zm862.08 -334.12l-31.5 -333.98 -159.7 17.64c5.69,68.26 9.19,149.93 10.65,245.02 1.46,94.94 13.85,179.82 37.33,254.64 23.48,74.82 64.61,127.76 123.39,158.83 58.77,31.06 148.46,17.06 269.08,-42.15l12.25 66.65 128.78 -36.61 -48.71 -659.65 -129.22 26.69 -2.77 373.8 -1.17 24.35 -1.02 8.75 -1.02 5.4 -1.75 8.17 -2.19 7.44 -2.33 5.97 -3.36 7.01 -4.95 7.87 -4.96 5.83 -3.21 3.21 -9.63 7.3 -3.21 1.75 -5.54 2.77 -12.4 4.23 -8.02 1.89 -14.58 1.75 -13.27 0.44 -10.36 0 -8.89 -0.29 -12.4 -1.46 -4.23 -0.88 -4.96 -1.02 -4.37 -1.16 -3.5 -1.02 -7.44 -2.78 -5.4 -2.47 -8.75 -5.25 -10.65 -8.9 -4.52 -4.96 -6.85 -9.33 -9.19 -17.8 -4.67 -14.14 -5.25 -24.65 -3.93 -35.59 -1.03 -20.42 -0.58 -22.89zm465.24 351.63l426.3 -28.15 -17.21 -135.64 -225.03 22.61 -16.63 -124.11 180.99 -20.28 0.15 -91.73 -200.97 -13.71 2.48 -119.3 207.97 -34.27 6.56 -135.35 -363 48.28 -1.61 631.65zm444.24 -662.72l215.85 629.61 197.77 31.79 189.3 -675.69 -159.11 -7 -120.91 387.21 -173.7 -394.06 -149.2 28.14zm919.11 -11.23c-84.44,0 -156.49,32.82 -216.14,98.74 -59.51,65.92 -89.4,145.26 -89.4,238.16 0,93.05 29.89,172.53 89.4,238.31 59.65,65.63 131.7,98.59 216.14,98.59 84.15,0 156.05,-32.96 215.7,-98.59 59.8,-65.78 89.55,-145.26 89.55,-238.31 0,-92.9 -29.75,-172.24 -89.55,-238.16 -59.65,-65.92 -131.55,-98.74 -215.7,-98.74zm5.54 201.85c35.73,0 66.21,13.86 91.59,41.71 25.23,27.86 37.92,61.4 37.92,100.78 0,39.23 -12.69,72.92 -37.92,100.78 -25.38,27.71 -55.86,41.71 -91.59,41.71 -35.88,0 -66.5,-14 -91.74,-41.71 -25.23,-27.86 -37.91,-61.55 -37.91,-100.78 0,-39.38 12.68,-72.92 37.91,-100.78 25.24,-27.85 55.86,-41.71 91.74,-41.71zm722.07 273.46c5.39,-34.71 -1.61,-71.17 -20.86,-109.82 0.15,0.43 -19.25,-29.46 -57.9,-89.55 -21.14,-31.5 -30.04,-57.03 -26.98,-76.86 3.5,-21.58 17.94,-36.9 43.03,-46.23 14.29,-5.54 31.94,-8.46 53.08,-8.61 21,-0.14 39.67,-1.31 56.3,-3.5l-64.17 -148.47c-73.22,0 -136.8,12.69 -191.06,38.21 -66.65,31.07 -104.57,75.7 -113.76,133.89 -6.7,40.25 -0.43,78.46 18.82,114.78 2.92,5.98 21.87,33.1 56.59,81.23 19.98,28.88 28.29,53.67 24.93,74.24 -2.33,14.87 -13.56,27.27 -33.25,37.19 -19.83,9.91 -40.98,18.08 -63.59,24.5 -22.6,6.56 -42.87,11.52 -60.96,15.17 -18.08,3.64 -26.54,6.56 -25.52,8.6l79.34 162.47c69.86,-17.65 138.55,-36.9 205.64,-57.46 67.23,-20.71 107.34,-70.59 120.32,-149.78z"/>
  </g>
  <g>
   <g style="clip-path:url(#id0)">
    <image x="10177.46" y="14174.4" width="4943.44" height="3167.91" xlink:href="tamales-bubulubu-pruebalos_Images\tamales-bubulubu-pruebalos_ImgID1.png"/>
   </g>
  </g>
  <g style="clip-path:url(#id1)">
   <image x="10441.45" y="14438.4" width="4415.45" height="2639.92" xlink:href="tamales-bubulubu-pruebalos_Images\tamales-bubulubu-pruebalos_ImgID2.png"/>
  </g>
  <g>
   <path class="fil0 str0" d="M6437.84 14241.28l20.7 366.5 116.95 -9.53 -23.47 -117.77c17.93,-8.23 38.14,-17.85 60.56,-28.77 22.41,-10.84 41.89,-23.88 58.43,-39.04 16.54,-15.07 27.55,-32.68 33.09,-52.64 5.46,-20.05 0.32,-43.36 -15.57,-69.93 -14.75,-22.98 -32.11,-39.04 -51.99,-48.08 -19.81,-9.13 -40.83,-14.18 -63.08,-15.24 -22.17,-1.06 -44.91,0.32 -68.22,4.32 -23.31,3.91 -45.72,7.33 -67.4,10.18zm116.79 137.49l-9.29 -80.19c20.21,-3.83 36.51,-2.86 49.06,2.85 12.47,5.7 19.81,13.37 21.84,22.98 2.12,9.62 -1.63,19.64 -11.24,30.16 -9.62,10.51 -26.41,18.58 -50.37,24.2zm198.29 221.11l131.78 1.71 -11 -109.37 101.3 116.05 92.34 -47.02 -134.31 -125.84 10.27 -5.78c21.51,-11.98 37.41,-27.71 47.76,-47.27 10.35,-19.48 15.15,-39.2 14.5,-59.25 -0.73,-20.05 -7.01,-38.47 -18.82,-55.42 -11.82,-16.95 -29.18,-28.93 -52,-35.86 -29.83,-8.96 -59.66,-10.76 -89.4,-5.22 -29.67,5.46 -59.42,8.48 -89.16,9.05l-3.26 364.22zm94.7 -223.47l-1.39 -78c28.45,-0.49 48.33,2.37 59.74,8.64 11.41,6.28 16.14,13.78 14.35,22.5 -1.88,8.72 -9.3,17.52 -22.34,26.48 -13.04,8.97 -29.82,15.73 -50.36,20.38zm347.99 34.15l-17.6 -186.64 -89.24 9.87c3.18,38.14 5.13,83.78 5.95,136.91 0.81,53.06 7.74,100.49 20.86,142.3 13.12,41.81 36.1,71.39 68.95,88.75 32.84,17.36 82.96,9.54 150.36,-23.55l6.85 37.24 71.96 -20.45 -27.22 -368.62 -72.21 14.91 -1.55 208.88 -0.65 13.61 -0.57 4.89 -0.57 3.02 -0.98 4.56 -1.22 4.16 -1.3 3.34 -1.88 3.91 -2.77 4.4 -2.77 3.26 -1.79 1.8 -5.38 4.07 -1.79 0.98 -3.1 1.55 -6.93 2.36 -4.48 1.06 -8.15 0.98 -7.42 0.24 -5.78 0 -4.97 -0.16 -6.93 -0.81 -2.37 -0.49 -2.77 -0.57 -2.44 -0.66 -1.96 -0.57 -4.15 -1.54 -3.02 -1.39 -4.89 -2.93 -5.95 -4.98 -2.52 -2.77 -3.84 -5.21 -5.13 -9.95 -2.61 -7.9 -2.93 -13.77 -2.2 -19.89 -0.57 -11.41 -0.33 -12.79zm259.98 196.49l238.22 -15.73 -9.61 -75.79 -125.75 12.63 -9.3 -69.36 101.14 -11.33 0.09 -51.26 -112.31 -7.66 1.39 -66.66 116.21 -19.16 3.67 -75.63 -202.85 26.98 -0.9 352.97zm288.19 -4.08l125.91 3.34 11.82 -0.81 9.78 -0.82 15.89 -2.6 5.95 -1.39 16.14 -4.73 7.49 -2.85 8.64 -3.83 5.95 -3.1 4.32 -2.52 6.03 -3.91 6.85 -4.89 4.64 -3.83 4.16 -3.83 4.4 -4.41 3.75 -4.31 2.93 -3.59 5.79 -8.15 5.95 -10.68 5.38 -13.04 2.61 -9.29c5.7,-29.01 1.38,-51.26 -12.96,-66.74 -14.43,-15.57 -31.38,-30.73 -50.94,-45.64 22.9,-20.38 33.74,-48.9 32.6,-85.58 -1.22,-36.67 -17.03,-61.94 -47.51,-75.79l0 0 -0.08 -0.16 -0.17 0 0 -0.08 -0.08 0 0 0 -0.08 -0.17 0 0 -0.16 0 -0.08 0 -0.17 0 0 -0.08 -0.08 0 -0.16 0 0 -0.16 -0.08 0 0 0 -0.17 0 0 -0.08 -0.08 0 -0.16 0 -0.08 -0.17 0 0 -0.17 0 0 0 -0.08 -0.08 0 0 -0.16 0 -0.08 -0.08 0 0 -0.08 0 -0.17 0 0 -0.16 -0.08 0 0 0 -0.16 -0.08 -0.08 0 0 0 -0.16 -0.17 -0.09 0 0 0 -0.16 0 -0.08 0 0 -0.08 -0.16 0 0 0 -0.09 -0.16 0 0 -0.16 0 -0.08 0 -0.08 -0.08 0 0 -0.16 0 0 -0.17 -0.09 0 0 0 -0.16 0 -0.08 -0.08 0 0 -0.16 0 -0.08 -0.16 0 0 -0.17 0 -0.08 -0.08 0 0 -0.16 0 0 0 -0.08 -0.17 -0.17 0 0 0 -0.08 -0.08 -0.16 0 0 0 -0.08 0 0 0 -0.08 -0.16 0 0 -0.17 -0.08 -0.08 0 -0.16 0 0 0 -0.08 0 0 -0.08 -0.17 0 0 0 -0.08 -0.17 -0.16 0 0 0 -0.08 0 -0.17 -0.08 -0.08 0 0 0 -0.16 -0.16 0 0 -0.08 0 0 -0.08 -0.16 0 -0.09 0 0 0 -0.08 -0.16 -0.16 0 0 0 -0.08 -0.09 0 0 -0.16 0 -0.09 0 0 -0.16 -0.16 0 -0.08 0 0 -0.08 -0.16 0 -0.09 0 0 0 -0.16 0 0 -0.16 -0.08 0 0 0 -0.16 -0.09 -0.08 0 -0.09 0 0 0 -0.16 -0.16 0 0 -0.08 0 0 -0.08 -0.16 0 -0.08 0 -6.61 -2.36 -18.25 -4.08 -16.38 -0.41 -12.15 0.74 -139.44 29.66 16.63 343.76zm92.82 -156.64l38.06 -1.63c18.5,-0.81 29.5,2.86 33.01,10.84 3.5,8.07 2.36,17.2 -3.34,27.39 -5.63,10.26 -14.43,19.88 -26.41,29.01 -11.9,9.05 -24.04,14.1 -36.43,15.24l-4.89 -80.85zm-11.9 -68.05c-0.49,-12.06 -0.97,-24.12 -1.38,-36.26 -0.49,-12.07 -0.9,-24.21 -1.39,-36.43 35.21,-5.46 53.55,2.52 55.18,24.12 1.55,21.51 -15.89,37.73 -52.41,48.57zm205.63 211.82l88.59 18.17 29.74 -91.6 75.8 3.83 16.62 87.77 102.2 -11.33 -111.73 -349.46 -64.3 -19.07 -136.92 361.69zm141.4 -142.06l24.37 -80.92 19.64 82.72 -44.01 -1.8zm421.51 -205.13l-23.15 364.95 244.74 0 8.48 -101.3 -122.33 0 -21.27 -277.5 -86.47 13.85zm431.94 -12.47c-47.19,0 -87.45,18.34 -120.78,55.18 -33.25,36.84 -49.96,81.17 -49.96,133.09 0,51.99 16.71,96.41 49.96,133.16 33.33,36.68 73.59,55.1 120.78,55.1 47.02,0 87.2,-18.42 120.53,-55.1 33.42,-36.75 50.04,-81.17 50.04,-133.16 0,-51.92 -16.62,-96.25 -50.04,-133.09 -33.33,-36.84 -73.51,-55.18 -120.53,-55.18zm3.1 112.8c19.96,0 37,7.74 51.18,23.31 14.1,15.56 21.19,34.31 21.19,56.31 0,21.92 -7.09,40.75 -21.19,56.32 -14.18,15.48 -31.22,23.31 -51.18,23.31 -20.05,0 -37.17,-7.83 -51.27,-23.31 -14.1,-15.57 -21.19,-34.4 -21.19,-56.32 0,-22 7.09,-40.75 21.19,-56.31 14.1,-15.57 31.22,-23.31 51.27,-23.31zm403.49 152.81c3.01,-19.4 -0.9,-39.77 -11.66,-61.37 0.09,0.24 -10.75,-16.46 -32.35,-50.04 -11.82,-17.6 -16.79,-31.87 -15.08,-42.95 1.96,-12.06 10.03,-20.62 24.04,-25.84 7.99,-3.09 17.85,-4.72 29.67,-4.8 11.74,-0.09 22.17,-0.74 31.46,-1.96l-35.86 -82.97c-40.91,0 -76.45,7.1 -106.76,21.36 -37.25,17.36 -58.44,42.3 -63.57,74.81 -3.75,22.5 -0.25,43.85 10.51,64.14 1.63,3.34 12.23,18.5 31.62,45.4 11.17,16.13 15.81,29.99 13.94,41.48 -1.31,8.31 -7.58,15.24 -18.58,20.78 -11.09,5.54 -22.9,10.11 -35.54,13.69 -12.63,3.67 -23.96,6.44 -34.06,8.48 -10.11,2.04 -14.84,3.67 -14.27,4.81l44.34 90.79c39.04,-9.86 77.42,-20.62 114.91,-32.11 37.57,-11.58 59.99,-39.45 67.24,-83.7z"/>
   <path id="1" class="fil1" d="M6437.84 14241.28l20.7 366.5 116.95 -9.53 -23.47 -117.77c17.93,-8.23 38.14,-17.85 60.56,-28.77 22.41,-10.84 41.89,-23.88 58.43,-39.04 16.54,-15.07 27.55,-32.68 33.09,-52.64 5.46,-20.05 0.32,-43.36 -15.57,-69.93 -14.75,-22.98 -32.11,-39.04 -51.99,-48.08 -19.81,-9.13 -40.83,-14.18 -63.08,-15.24 -22.17,-1.06 -44.91,0.32 -68.22,4.32 -23.31,3.91 -45.72,7.33 -67.4,10.18zm116.79 137.49l-9.29 -80.19c20.21,-3.83 36.51,-2.86 49.06,2.85 12.47,5.7 19.81,13.37 21.84,22.98 2.12,9.62 -1.63,19.64 -11.24,30.16 -9.62,10.51 -26.41,18.58 -50.37,24.2zm198.29 221.11l131.78 1.71 -11 -109.37 101.3 116.05 92.34 -47.02 -134.31 -125.84 10.27 -5.78c21.51,-11.98 37.41,-27.71 47.76,-47.27 10.35,-19.48 15.15,-39.2 14.5,-59.25 -0.73,-20.05 -7.01,-38.47 -18.82,-55.42 -11.82,-16.95 -29.18,-28.93 -52,-35.86 -29.83,-8.96 -59.66,-10.76 -89.4,-5.22 -29.67,5.46 -59.42,8.48 -89.16,9.05l-3.26 364.22zm94.7 -223.47l-1.39 -78c28.45,-0.49 48.33,2.37 59.74,8.64 11.41,6.28 16.14,13.78 14.35,22.5 -1.88,8.72 -9.3,17.52 -22.34,26.48 -13.04,8.97 -29.82,15.73 -50.36,20.38zm347.99 34.15l-17.6 -186.64 -89.24 9.87c3.18,38.14 5.13,83.78 5.95,136.91 0.81,53.06 7.74,100.49 20.86,142.3 13.12,41.81 36.1,71.39 68.95,88.75 32.84,17.36 82.96,9.54 150.36,-23.55l6.85 37.24 71.96 -20.45 -27.22 -368.62 -72.21 14.91 -1.55 208.88 -0.65 13.61 -0.57 4.89 -0.57 3.02 -0.98 4.56 -1.22 4.16 -1.3 3.34 -1.88 3.91 -2.77 4.4 -2.77 3.26 -1.79 1.8 -5.38 4.07 -1.79 0.98 -3.1 1.55 -6.93 2.36 -4.48 1.06 -8.15 0.98 -7.42 0.24 -5.78 0 -4.97 -0.16 -6.93 -0.81 -2.37 -0.49 -2.77 -0.57 -2.44 -0.66 -1.96 -0.57 -4.15 -1.54 -3.02 -1.39 -4.89 -2.93 -5.95 -4.98 -2.52 -2.77 -3.84 -5.21 -5.13 -9.95 -2.61 -7.9 -2.93 -13.77 -2.2 -19.89 -0.57 -11.41 -0.33 -12.79zm259.98 196.49l238.22 -15.73 -9.61 -75.79 -125.75 12.63 -9.3 -69.36 101.14 -11.33 0.09 -51.26 -112.31 -7.66 1.39 -66.66 116.21 -19.16 3.67 -75.63 -202.85 26.98 -0.9 352.97zm288.19 -4.08l125.91 3.34 11.82 -0.81 9.78 -0.82 15.89 -2.6 5.95 -1.39 16.14 -4.73 7.49 -2.85 8.64 -3.83 5.95 -3.1 4.32 -2.52 6.03 -3.91 6.85 -4.89 4.64 -3.83 4.16 -3.83 4.4 -4.41 3.75 -4.31 2.93 -3.59 5.79 -8.15 5.95 -10.68 5.38 -13.04 2.61 -9.29c5.7,-29.01 1.38,-51.26 -12.96,-66.74 -14.43,-15.57 -31.38,-30.73 -50.94,-45.64 22.9,-20.38 33.74,-48.9 32.6,-85.58 -1.22,-36.67 -17.03,-61.94 -47.51,-75.79l0 0 -0.08 -0.16 -0.17 0 0 -0.08 -0.08 0 0 0 -0.08 -0.17 0 0 -0.16 0 -0.08 0 -0.17 0 0 -0.08 -0.08 0 -0.16 0 0 -0.16 -0.08 0 0 0 -0.17 0 0 -0.08 -0.08 0 -0.16 0 -0.08 -0.17 0 0 -0.17 0 0 0 -0.08 -0.08 0 0 -0.16 0 -0.08 -0.08 0 0 -0.08 0 -0.17 0 0 -0.16 -0.08 0 0 0 -0.16 -0.08 -0.08 0 0 0 -0.16 -0.17 -0.09 0 0 0 -0.16 0 -0.08 0 0 -0.08 -0.16 0 0 0 -0.09 -0.16 0 0 -0.16 0 -0.08 0 -0.08 -0.08 0 0 -0.16 0 0 -0.17 -0.09 0 0 0 -0.16 0 -0.08 -0.08 0 0 -0.16 0 -0.08 -0.16 0 0 -0.17 0 -0.08 -0.08 0 0 -0.16 0 0 0 -0.08 -0.17 -0.17 0 0 0 -0.08 -0.08 -0.16 0 0 0 -0.08 0 0 0 -0.08 -0.16 0 0 -0.17 -0.08 -0.08 0 -0.16 0 0 0 -0.08 0 0 -0.08 -0.17 0 0 0 -0.08 -0.17 -0.16 0 0 0 -0.08 0 -0.17 -0.08 -0.08 0 0 0 -0.16 -0.16 0 0 -0.08 0 0 -0.08 -0.16 0 -0.09 0 0 0 -0.08 -0.16 -0.16 0 0 0 -0.08 -0.09 0 0 -0.16 0 -0.09 0 0 -0.16 -0.16 0 -0.08 0 0 -0.08 -0.16 0 -0.09 0 0 0 -0.16 0 0 -0.16 -0.08 0 0 0 -0.16 -0.09 -0.08 0 -0.09 0 0 0 -0.16 -0.16 0 0 -0.08 0 0 -0.08 -0.16 0 -0.08 0 -6.61 -2.36 -18.25 -4.08 -16.38 -0.41 -12.15 0.74 -139.44 29.66 16.63 343.76zm92.82 -156.64l38.06 -1.63c18.5,-0.81 29.5,2.86 33.01,10.84 3.5,8.07 2.36,17.2 -3.34,27.39 -5.63,10.26 -14.43,19.88 -26.41,29.01 -11.9,9.05 -24.04,14.1 -36.43,15.24l-4.89 -80.85zm-11.9 -68.05c-0.49,-12.06 -0.97,-24.12 -1.38,-36.26 -0.49,-12.07 -0.9,-24.21 -1.39,-36.43 35.21,-5.46 53.55,2.52 55.18,24.12 1.55,21.51 -15.89,37.73 -52.41,48.57zm205.63 211.82l88.59 18.17 29.74 -91.6 75.8 3.83 16.62 87.77 102.2 -11.33 -111.73 -349.46 -64.3 -19.07 -136.92 361.69zm141.4 -142.06l24.37 -80.92 19.64 82.72 -44.01 -1.8zm421.51 -205.13l-23.15 364.95 244.74 0 8.48 -101.3 -122.33 0 -21.27 -277.5 -86.47 13.85zm431.94 -12.47c-47.19,0 -87.45,18.34 -120.78,55.18 -33.25,36.84 -49.96,81.17 -49.96,133.09 0,51.99 16.71,96.41 49.96,133.16 33.33,36.68 73.59,55.1 120.78,55.1 47.02,0 87.2,-18.42 120.53,-55.1 33.42,-36.75 50.04,-81.17 50.04,-133.16 0,-51.92 -16.62,-96.25 -50.04,-133.09 -33.33,-36.84 -73.51,-55.18 -120.53,-55.18zm3.1 112.8c19.96,0 37,7.74 51.18,23.31 14.1,15.56 21.19,34.31 21.19,56.31 0,21.92 -7.09,40.75 -21.19,56.32 -14.18,15.48 -31.22,23.31 -51.18,23.31 -20.05,0 -37.17,-7.83 -51.27,-23.31 -14.1,-15.57 -21.19,-34.4 -21.19,-56.32 0,-22 7.09,-40.75 21.19,-56.31 14.1,-15.57 31.22,-23.31 51.27,-23.31zm403.49 152.81c3.01,-19.4 -0.9,-39.77 -11.66,-61.37 0.09,0.24 -10.75,-16.46 -32.35,-50.04 -11.82,-17.6 -16.79,-31.87 -15.08,-42.95 1.96,-12.06 10.03,-20.62 24.04,-25.84 7.99,-3.09 17.85,-4.72 29.67,-4.8 11.74,-0.09 22.17,-0.74 31.46,-1.96l-35.86 -82.97c-40.91,0 -76.45,7.1 -106.76,21.36 -37.25,17.36 -58.44,42.3 -63.57,74.81 -3.75,22.5 -0.25,43.85 10.51,64.14 1.63,3.34 12.23,18.5 31.62,45.4 11.17,16.13 15.81,29.99 13.94,41.48 -1.31,8.31 -7.58,15.24 -18.58,20.78 -11.09,5.54 -22.9,10.11 -35.54,13.69 -12.63,3.67 -23.96,6.44 -34.06,8.48 -10.11,2.04 -14.84,3.67 -14.27,4.81l44.34 90.79c39.04,-9.86 77.42,-20.62 114.91,-32.11 37.57,-11.58 59.99,-39.45 67.24,-83.7z"/>
  </g>
  <g style="clip-path:url(#id2)">
  </g>
  <g style="clip-path:url(#id3)">
   <image x="6676.92" y="14697.22" width="5230.23" height="3900.88" xlink:href="tamales-bubulubu-pruebalos_Images\tamales-bubulubu-pruebalos_ImgID3.png"/>
  </g>
  <g style="clip-path:url(#id4)">
  </g>
  <path class="fil2" d="M10873.13 14296.26c19.65,116.15 122.83,271.64 166.5,584.16 44.11,2.12 63.92,10.56 98.14,-19.95 24.58,-128.1 -131.91,-388.71 -130.14,-514.25 133.28,-126.63 165.14,420.26 225.01,465.13 39.58,12.59 58.62,2.6 87.48,-25.53 -9.74,-133.92 -145.11,-362.85 -133.31,-509.13 131.81,-77.85 173.76,390.39 216.62,487.23l7.96 13.16c0.12,-1.25 2.71,4.27 4.42,6.12 42.8,2.35 57.4,-12.21 89.56,-33.75 -8.36,-57.36 -44.52,-155.26 -61.6,-218.87 -42.77,-159.34 -107.04,-546.14 -314.96,-285.87 -57.85,-21.1 -92.19,-38.08 -146.68,30.22 -12.8,-7.96 -18.74,-15.88 -30.59,-25.17 -46.04,8.23 -54.8,16.47 -78.41,46.5z"/>
  <path class="fil2" d="M10784.36 14654.16c21.35,22.61 47.49,104.44 62.26,143.68 21.8,57.91 9.74,43.89 7.42,52.65 -63.31,35.31 -82.1,-5.51 -103.2,-65.77 -20.77,-59.32 -28.3,-112.26 33.52,-130.56zm102.23 268.73c18.07,9.62 32.17,26.93 65.36,12.41 36.15,-15.82 24.78,-26.75 12.49,-62.84 -54.32,-159.48 -180.21,-685.82 -362.74,-484.26 -20.77,22.94 -89.08,76.44 -40.78,106.57 46.7,29.11 53.68,-39.76 117.08,-52.19 32.17,27.63 63.44,70.08 78.41,127.99 -57.16,39.12 -89.2,32.39 -105.66,94.72 -22.43,84.97 73.41,437.28 235.84,257.6z"/>
  <path class="fil2" d="M11722.8 14618.54c-77.63,24.64 -84.28,-15.36 -96.91,-90.89 -10,-59.88 -6.27,-104.16 61.77,-115.04 13.49,60.07 46.37,151.36 35.14,205.93zm44.63 -274.4c-12.63,-58.94 -30.2,-140.05 -57.77,-191.41 -88.42,-164.69 -236.1,31.65 -236.62,41.54 -1.68,32.2 29.47,43.99 62.31,28.35 34.44,-16.39 84.02,-109.83 134.52,107.13 -132.94,33.32 -151.79,89.69 -128.46,225.49 23.65,137.74 58.17,222.7 198.73,143.94l10.91 8.11c49.29,30.51 -29.79,-10.9 11.41,7 29.2,12.69 39.99,4.53 69.25,-8.9l-64.28 -361.25z"/>
  <path class="fil2" d="M10451.17 14284.56c9.6,-80.92 -27.54,-65.36 -90.28,-49.37 -61.71,15.73 -241.77,61.17 -202.62,146.91 21.5,47.07 62.52,2.19 114.26,-12.75l296.77 698.04c38.33,-2.53 61.58,-16.52 86.6,-29.42 -42.86,-146.24 -280.01,-615.79 -291.65,-712.84l86.92 -40.57z"/>
  <path class="fil2" d="M12151.62 14238.78c-6,-61.07 -10.05,-115.61 37.89,-131.58 35.69,23.46 41.24,64.28 34.02,116.01l-71.91 15.57zm144.92 42.97c42.34,-313.33 -212.97,-401.27 -240.62,-22.27 -36.3,497.47 307.17,461.44 274.95,308.56 -74.64,4.16 -126.09,7.61 -152.12,-61.67 -21.96,-58.44 -28.95,-145.8 -25.33,-205.02l143.12 -19.6z"/>
  <path class="fil2" d="M12020.27 14667.73c-16.49,-111.5 -95.24,-813.4 -110.74,-846.5 -44.45,-2.81 -53.19,-1.92 -93.35,18.02l109.28 840.59c40.6,8.69 56.93,2.38 94.81,-12.11z"/>
  <path class="fil2" d="M12490.26 13955.42c-55.33,17.85 -98.03,84.74 -111.81,127.25 -23.45,72.39 -0.59,134.8 27.3,208.43 24.6,64.95 61.68,141.17 50.75,213.42 -4.92,32.45 -16.13,52.86 -31.13,75.93 -88.84,136.63 219.61,117.63 100.86,-230.72 -55.05,-161.48 -96.81,-189.19 -33.57,-282.42 23.87,-35.18 35.49,-41.23 44.2,-68.97 -16.27,-29.37 -22.84,-30.63 -46.6,-42.92z"/>
  <g>
   <path class="fil0 str1" d="M6212.56 15317.82l188.58 13.71 21.44 -351.19 238.16 362.72 151.82 -25.24 -22.31 -652.5 -154.59 7.73 -17.94 284.83 -210.16 -300 -164.95 7.44 -30.05 652.5zm862.08 -334.12l-31.5 -333.98 -159.7 17.64c5.69,68.26 9.19,149.93 10.65,245.02 1.46,94.94 13.85,179.82 37.33,254.64 23.48,74.82 64.61,127.76 123.39,158.83 58.77,31.06 148.46,17.06 269.08,-42.15l12.25 66.65 128.78 -36.61 -48.71 -659.65 -129.22 26.69 -2.77 373.8 -1.17 24.35 -1.02 8.75 -1.02 5.4 -1.75 8.17 -2.19 7.44 -2.33 5.97 -3.36 7.01 -4.95 7.87 -4.96 5.83 -3.21 3.21 -9.63 7.3 -3.21 1.75 -5.54 2.77 -12.4 4.23 -8.02 1.89 -14.58 1.75 -13.27 0.44 -10.36 0 -8.89 -0.29 -12.4 -1.46 -4.23 -0.88 -4.96 -1.02 -4.37 -1.16 -3.5 -1.02 -7.44 -2.78 -5.4 -2.47 -8.75 -5.25 -10.65 -8.9 -4.52 -4.96 -6.85 -9.33 -9.19 -17.8 -4.67 -14.14 -5.25 -24.65 -3.93 -35.59 -1.03 -20.42 -0.58 -22.89zm465.24 351.63l426.3 -28.15 -17.21 -135.64 -225.03 22.61 -16.63 -124.11 180.99 -20.28 0.15 -91.73 -200.97 -13.71 2.48 -119.3 207.97 -34.27 6.56 -135.35 -363 48.28 -1.61 631.65zm444.24 -662.72l215.85 629.61 197.77 31.79 189.3 -675.69 -159.11 -7 -120.91 387.21 -173.7 -394.06 -149.2 28.14zm919.11 -11.23c-84.44,0 -156.49,32.82 -216.14,98.74 -59.51,65.92 -89.4,145.26 -89.4,238.16 0,93.05 29.89,172.53 89.4,238.31 59.65,65.63 131.7,98.59 216.14,98.59 84.15,0 156.05,-32.96 215.7,-98.59 59.8,-65.78 89.55,-145.26 89.55,-238.31 0,-92.9 -29.75,-172.24 -89.55,-238.16 -59.65,-65.92 -131.55,-98.74 -215.7,-98.74zm5.54 201.85c35.73,0 66.21,13.86 91.59,41.71 25.23,27.86 37.92,61.4 37.92,100.78 0,39.23 -12.69,72.92 -37.92,100.78 -25.38,27.71 -55.86,41.71 -91.59,41.71 -35.88,0 -66.5,-14 -91.74,-41.71 -25.23,-27.86 -37.91,-61.55 -37.91,-100.78 0,-39.38 12.68,-72.92 37.91,-100.78 25.24,-27.85 55.86,-41.71 91.74,-41.71zm722.07 273.46c5.39,-34.71 -1.61,-71.17 -20.86,-109.82 0.15,0.43 -19.25,-29.46 -57.9,-89.55 -21.14,-31.5 -30.04,-57.03 -26.98,-76.86 3.5,-21.58 17.94,-36.9 43.03,-46.23 14.29,-5.54 31.94,-8.46 53.08,-8.61 21,-0.14 39.67,-1.31 56.3,-3.5l-64.17 -148.47c-73.22,0 -136.8,12.69 -191.06,38.21 -66.65,31.07 -104.57,75.7 -113.76,133.89 -6.7,40.25 -0.43,78.46 18.82,114.78 2.92,5.98 21.87,33.1 56.59,81.23 19.98,28.88 28.29,53.67 24.93,74.24 -2.33,14.87 -13.56,27.27 -33.25,37.19 -19.83,9.91 -40.98,18.08 -63.59,24.5 -22.6,6.56 -42.87,11.52 -60.96,15.17 -18.08,3.64 -26.54,6.56 -25.52,8.6l79.34 162.47c69.86,-17.65 138.55,-36.9 205.64,-57.46 67.23,-20.71 107.34,-70.59 120.32,-149.78z"/>
   <path id="1" class="fil3" d="M6212.56 15317.82l188.58 13.71 21.44 -351.19 238.16 362.72 151.82 -25.24 -22.31 -652.5 -154.59 7.73 -17.94 284.83 -210.16 -300 -164.95 7.44 -30.05 652.5zm862.08 -334.12l-31.5 -333.98 -159.7 17.64c5.69,68.26 9.19,149.93 10.65,245.02 1.46,94.94 13.85,179.82 37.33,254.64 23.48,74.82 64.61,127.76 123.39,158.83 58.77,31.06 148.46,17.06 269.08,-42.15l12.25 66.65 128.78 -36.61 -48.71 -659.65 -129.22 26.69 -2.77 373.8 -1.17 24.35 -1.02 8.75 -1.02 5.4 -1.75 8.17 -2.19 7.44 -2.33 5.97 -3.36 7.01 -4.95 7.87 -4.96 5.83 -3.21 3.21 -9.63 7.3 -3.21 1.75 -5.54 2.77 -12.4 4.23 -8.02 1.89 -14.58 1.75 -13.27 0.44 -10.36 0 -8.89 -0.29 -12.4 -1.46 -4.23 -0.88 -4.96 -1.02 -4.37 -1.16 -3.5 -1.02 -7.44 -2.78 -5.4 -2.47 -8.75 -5.25 -10.65 -8.9 -4.52 -4.96 -6.85 -9.33 -9.19 -17.8 -4.67 -14.14 -5.25 -24.65 -3.93 -35.59 -1.03 -20.42 -0.58 -22.89zm465.24 351.63l426.3 -28.15 -17.21 -135.64 -225.03 22.61 -16.63 -124.11 180.99 -20.28 0.15 -91.73 -200.97 -13.71 2.48 -119.3 207.97 -34.27 6.56 -135.35 -363 48.28 -1.61 631.65zm444.24 -662.72l215.85 629.61 197.77 31.79 189.3 -675.69 -159.11 -7 -120.91 387.21 -173.7 -394.06 -149.2 28.14zm919.11 -11.23c-84.44,0 -156.49,32.82 -216.14,98.74 -59.51,65.92 -89.4,145.26 -89.4,238.16 0,93.05 29.89,172.53 89.4,238.31 59.65,65.63 131.7,98.59 216.14,98.59 84.15,0 156.05,-32.96 215.7,-98.59 59.8,-65.78 89.55,-145.26 89.55,-238.31 0,-92.9 -29.75,-172.24 -89.55,-238.16 -59.65,-65.92 -131.55,-98.74 -215.7,-98.74zm5.54 201.85c35.73,0 66.21,13.86 91.59,41.71 25.23,27.86 37.92,61.4 37.92,100.78 0,39.23 -12.69,72.92 -37.92,100.78 -25.38,27.71 -55.86,41.71 -91.59,41.71 -35.88,0 -66.5,-14 -91.74,-41.71 -25.23,-27.86 -37.91,-61.55 -37.91,-100.78 0,-39.38 12.68,-72.92 37.91,-100.78 25.24,-27.85 55.86,-41.71 91.74,-41.71zm722.07 273.46c5.39,-34.71 -1.61,-71.17 -20.86,-109.82 0.15,0.43 -19.25,-29.46 -57.9,-89.55 -21.14,-31.5 -30.04,-57.03 -26.98,-76.86 3.5,-21.58 17.94,-36.9 43.03,-46.23 14.29,-5.54 31.94,-8.46 53.08,-8.61 21,-0.14 39.67,-1.31 56.3,-3.5l-64.17 -148.47c-73.22,0 -136.8,12.69 -191.06,38.21 -66.65,31.07 -104.57,75.7 -113.76,133.89 -6.7,40.25 -0.43,78.46 18.82,114.78 2.92,5.98 21.87,33.1 56.59,81.23 19.98,28.88 28.29,53.67 24.93,74.24 -2.33,14.87 -13.56,27.27 -33.25,37.19 -19.83,9.91 -40.98,18.08 -63.59,24.5 -22.6,6.56 -42.87,11.52 -60.96,15.17 -18.08,3.64 -26.54,6.56 -25.52,8.6l79.34 162.47c69.86,-17.65 138.55,-36.9 205.64,-57.46 67.23,-20.71 107.34,-70.59 120.32,-149.78z"/>
  </g>
  <path class="fil3" d="M6437.84 14241.28l20.7 366.5 116.95 -9.53 -23.47 -117.77c17.93,-8.23 38.14,-17.85 60.56,-28.77 22.41,-10.84 41.89,-23.88 58.43,-39.04 16.54,-15.07 27.55,-32.68 33.09,-52.64 5.46,-20.05 0.32,-43.36 -15.57,-69.93 -14.75,-22.98 -32.11,-39.04 -51.99,-48.08 -19.81,-9.13 -40.83,-14.18 -63.08,-15.24 -22.17,-1.06 -44.91,0.32 -68.22,4.32 -23.31,3.91 -45.72,7.33 -67.4,10.18zm116.79 137.49l-9.29 -80.19c20.21,-3.83 36.51,-2.86 49.06,2.85 12.47,5.7 19.81,13.37 21.84,22.98 2.12,9.62 -1.63,19.64 -11.24,30.16 -9.62,10.51 -26.41,18.58 -50.37,24.2zm198.29 221.11l131.78 1.71 -11 -109.37 101.3 116.05 92.34 -47.02 -134.31 -125.84 10.27 -5.78c21.51,-11.98 37.41,-27.71 47.76,-47.27 10.35,-19.48 15.15,-39.2 14.5,-59.25 -0.73,-20.05 -7.01,-38.47 -18.82,-55.42 -11.82,-16.95 -29.18,-28.93 -52,-35.86 -29.83,-8.96 -59.66,-10.76 -89.4,-5.22 -29.67,5.46 -59.42,8.48 -89.16,9.05l-3.26 364.22zm94.7 -223.47l-1.39 -78c28.45,-0.49 48.33,2.37 59.74,8.64 11.41,6.28 16.14,13.78 14.35,22.5 -1.88,8.72 -9.3,17.52 -22.34,26.48 -13.04,8.97 -29.82,15.73 -50.36,20.38zm347.99 34.15l-17.6 -186.64 -89.24 9.87c3.18,38.14 5.13,83.78 5.95,136.91 0.81,53.06 7.74,100.49 20.86,142.3 13.12,41.81 36.1,71.39 68.95,88.75 32.84,17.36 82.96,9.54 150.36,-23.55l6.85 37.24 71.96 -20.45 -27.22 -368.62 -72.21 14.91 -1.55 208.88 -0.65 13.61 -0.57 4.89 -0.57 3.02 -0.98 4.56 -1.22 4.16 -1.3 3.34 -1.88 3.91 -2.77 4.4 -2.77 3.26 -1.79 1.8 -5.38 4.07 -1.79 0.98 -3.1 1.55 -6.93 2.36 -4.48 1.06 -8.15 0.98 -7.42 0.24 -5.78 0 -4.97 -0.16 -6.93 -0.81 -2.37 -0.49 -2.77 -0.57 -2.44 -0.66 -1.96 -0.57 -4.15 -1.54 -3.02 -1.39 -4.89 -2.93 -5.95 -4.98 -2.52 -2.77 -3.84 -5.21 -5.13 -9.95 -2.61 -7.9 -2.93 -13.77 -2.2 -19.89 -0.57 -11.41 -0.33 -12.79zm259.98 196.49l238.22 -15.73 -9.61 -75.79 -125.75 12.63 -9.3 -69.36 101.14 -11.33 0.09 -51.26 -112.31 -7.66 1.39 -66.66 116.21 -19.16 3.67 -75.63 -202.85 26.98 -0.9 352.97zm288.19 -4.08l125.91 3.34 11.82 -0.81 9.78 -0.82 15.89 -2.6 5.95 -1.39 16.14 -4.73 7.49 -2.85 8.64 -3.83 5.95 -3.1 4.32 -2.52 6.03 -3.91 6.85 -4.89 4.64 -3.83 4.16 -3.83 4.4 -4.41 3.75 -4.31 2.93 -3.59 5.79 -8.15 5.95 -10.68 5.38 -13.04 2.61 -9.29c5.7,-29.01 1.38,-51.26 -12.96,-66.74 -14.43,-15.57 -31.38,-30.73 -50.94,-45.64 22.9,-20.38 33.74,-48.9 32.6,-85.58 -1.22,-36.67 -17.03,-61.94 -47.51,-75.79l0 0 -0.08 -0.16 -0.17 0 0 -0.08 -0.08 0 0 0 -0.08 -0.17 0 0 -0.16 0 -0.08 0 -0.17 0 0 -0.08 -0.08 0 -0.16 0 0 -0.16 -0.08 0 0 0 -0.17 0 0 -0.08 -0.08 0 -0.16 0 -0.08 -0.17 0 0 -0.17 0 0 0 -0.08 -0.08 0 0 -0.16 0 -0.08 -0.08 0 0 -0.08 0 -0.17 0 0 -0.16 -0.08 0 0 0 -0.16 -0.08 -0.08 0 0 0 -0.16 -0.17 -0.09 0 0 0 -0.16 0 -0.08 0 0 -0.08 -0.16 0 0 0 -0.09 -0.16 0 0 -0.16 0 -0.08 0 -0.08 -0.08 0 0 -0.16 0 0 -0.17 -0.09 0 0 0 -0.16 0 -0.08 -0.08 0 0 -0.16 0 -0.08 -0.16 0 0 -0.17 0 -0.08 -0.08 0 0 -0.16 0 0 0 -0.08 -0.17 -0.17 0 0 0 -0.08 -0.08 -0.16 0 0 0 -0.08 0 0 0 -0.08 -0.16 0 0 -0.17 -0.08 -0.08 0 -0.16 0 0 0 -0.08 0 0 -0.08 -0.17 0 0 0 -0.08 -0.17 -0.16 0 0 0 -0.08 0 -0.17 -0.08 -0.08 0 0 0 -0.16 -0.16 0 0 -0.08 0 0 -0.08 -0.16 0 -0.09 0 0 0 -0.08 -0.16 -0.16 0 0 0 -0.08 -0.09 0 0 -0.16 0 -0.09 0 0 -0.16 -0.16 0 -0.08 0 0 -0.08 -0.16 0 -0.09 0 0 0 -0.16 0 0 -0.16 -0.08 0 0 0 -0.16 -0.09 -0.08 0 -0.09 0 0 0 -0.16 -0.16 0 0 -0.08 0 0 -0.08 -0.16 0 -0.08 0 -6.61 -2.36 -18.25 -4.08 -16.38 -0.41 -12.15 0.74 -139.44 29.66 16.63 343.76zm92.82 -156.64l38.06 -1.63c18.5,-0.81 29.5,2.86 33.01,10.84 3.5,8.07 2.36,17.2 -3.34,27.39 -5.63,10.26 -14.43,19.88 -26.41,29.01 -11.9,9.05 -24.04,14.1 -36.43,15.24l-4.89 -80.85zm-11.9 -68.05c-0.49,-12.06 -0.97,-24.12 -1.38,-36.26 -0.49,-12.07 -0.9,-24.21 -1.39,-36.43 35.21,-5.46 53.55,2.52 55.18,24.12 1.55,21.51 -15.89,37.73 -52.41,48.57zm205.63 211.82l88.59 18.17 29.74 -91.6 75.8 3.83 16.62 87.77 102.2 -11.33 -111.73 -349.46 -64.3 -19.07 -136.92 361.69zm141.4 -142.06l24.37 -80.92 19.64 82.72 -44.01 -1.8zm421.51 -205.13l-23.15 364.95 244.74 0 8.48 -101.3 -122.33 0 -21.27 -277.5 -86.47 13.85zm431.94 -12.47c-47.19,0 -87.45,18.34 -120.78,55.18 -33.25,36.84 -49.96,81.17 -49.96,133.09 0,51.99 16.71,96.41 49.96,133.16 33.33,36.68 73.59,55.1 120.78,55.1 47.02,0 87.2,-18.42 120.53,-55.1 33.42,-36.75 50.04,-81.17 50.04,-133.16 0,-51.92 -16.62,-96.25 -50.04,-133.09 -33.33,-36.84 -73.51,-55.18 -120.53,-55.18zm3.1 112.8c19.96,0 37,7.74 51.18,23.31 14.1,15.56 21.19,34.31 21.19,56.31 0,21.92 -7.09,40.75 -21.19,56.32 -14.18,15.48 -31.22,23.31 -51.18,23.31 -20.05,0 -37.17,-7.83 -51.27,-23.31 -14.1,-15.57 -21.19,-34.4 -21.19,-56.32 0,-22 7.09,-40.75 21.19,-56.31 14.1,-15.57 31.22,-23.31 51.27,-23.31zm403.49 152.81c3.01,-19.4 -0.9,-39.77 -11.66,-61.37 0.09,0.24 -10.75,-16.46 -32.35,-50.04 -11.82,-17.6 -16.79,-31.87 -15.08,-42.95 1.96,-12.06 10.03,-20.62 24.04,-25.84 7.99,-3.09 17.85,-4.72 29.67,-4.8 11.74,-0.09 22.17,-0.74 31.46,-1.96l-35.86 -82.97c-40.91,0 -76.45,7.1 -106.76,21.36 -37.25,17.36 -58.44,42.3 -63.57,74.81 -3.75,22.5 -0.25,43.85 10.51,64.14 1.63,3.34 12.23,18.5 31.62,45.4 11.17,16.13 15.81,29.99 13.94,41.48 -1.31,8.31 -7.58,15.24 -18.58,20.78 -11.09,5.54 -22.9,10.11 -35.54,13.69 -12.63,3.67 -23.96,6.44 -34.06,8.48 -10.11,2.04 -14.84,3.67 -14.27,4.81l44.34 90.79c39.04,-9.86 77.42,-20.62 114.91,-32.11 37.57,-11.58 59.99,-39.45 67.24,-83.7z"/>
 </g>
</svg>
