<svg xmlns="http://www.w3.org/2000/svg" viewBox="0 0 200 200">
  <title>volkswagen</title>
  <rect width="200" height="200" style="fill: none"/>
  <path d="M100,33.3a67.1,67.1,0,1,0,67.1,67.1A67.2,67.2,0,0,0,100,33.3Zm-0.5,9.3A57.8,57.8,0,0,1,116.4,45l-8.5,18.8L99.4,82.3,91.1,63.7,82.5,45.3A58.6,58.6,0,0,1,99.4,42.6Zm29.2,7.6A57.2,57.2,0,0,1,146.3,66c-8.6,20.4-17.9,42.2-26.6,62.7l-11.5-26.3h-18L78.6,128.2c-9-20.3-17.8-40.5-25.7-61.3A58.5,58.5,0,0,1,69.8,51.1L90.1,97.6h18.2C115.1,81.9,121.9,65.9,128.7,50.3Zm26,31.5A62.1,62.1,0,0,1,157.6,97a56.6,56.6,0,0,1-.8,13.7,58,58,0,0,1-10.5,24.1,56.4,56.4,0,0,1-3.7,4.5,59.3,59.3,0,0,1-19.5,14c2.4-4.3,4.7-8.7,6.7-13.1,2.8-6.2,5.6-12.3,8.3-18.6l2-4.4c2.4-5.3,4.6-10.7,6.8-16S152.5,87.7,154.7,81.8ZM44.8,83.2c2.1,5.9,4.3,11.9,6.6,17.6s4.5,10.7,6.8,15.9c5.5,12.1,11.2,24.1,17.3,36.1A58,58,0,0,1,44.8,83.2Zm54.4,35.1,17.4,37.5a49.2,49.2,0,0,1-14.4,2.3H99.8a54.2,54.2,0,0,1-17.5-2.7Z" transform="translate(0 -0.5)" style="fill: #91959e;stroke: #91959e;stroke-miterlimit: 18.200000762939453;stroke-width: 0.5529999732971191px"/>
</svg>
