<?xml version="1.0" encoding="UTF-8"?>
<!DOCTYPE svg PUBLIC "-//W3C//DTD SVG 1.1//EN" "http://www.w3.org/Graphics/SVG/1.1/DTD/svg11.dtd">
<!-- Creator: CorelDRAW 2017 -->
<svg xmlns="http://www.w3.org/2000/svg" xml:space="preserve" width="6.3498mm" height="6.3498mm" version="1.1" style="shape-rendering:geometricPrecision; text-rendering:geometricPrecision; image-rendering:optimizeQuality; fill-rule:evenodd; clip-rule:evenodd"
viewBox="0 0 634.98 634.98"
 xmlns:xlink="http://www.w3.org/1999/xlink">
 <defs>
  <style type="text/css">
   <![CDATA[
    .fil0 {fill:none}
    .fil1 {fill:#282829;fill-rule:nonzero}
    .fil2 {fill:#5AFFA4;fill-rule:nonzero;fill-opacity:0.870588}
    .fil4 {fill:url(#id0);fill-rule:nonzero}
    .fil6 {fill:url(#id1);fill-rule:nonzero}
    .fil5 {fill:url(#id2);fill-rule:nonzero}
    .fil3 {fill:url(#id3);fill-rule:nonzero}
   ]]>
  </style>
  <linearGradient id="id0" gradientUnits="userSpaceOnUse" x1="288.12" y1="45.89" x2="57.71" y2="567.66">
   <stop offset="0" style="stop-opacity:1; stop-color:#693698"/>
   <stop offset="0.478431" style="stop-opacity:1; stop-color:#330F54"/>
   <stop offset="1" style="stop-opacity:1; stop-color:#59228D"/>
  </linearGradient>
  <linearGradient id="id1" gradientUnits="userSpaceOnUse" xlink:href="#id0" x1="193.41" y1="60.13" x2="473.9" y2="553.42">
  </linearGradient>
  <linearGradient id="id2" gradientUnits="userSpaceOnUse" xlink:href="#id0" x1="193.41" y1="60.13" x2="473.9" y2="553.42">
  </linearGradient>
  <linearGradient id="id3" gradientUnits="userSpaceOnUse" xlink:href="#id0" x1="218.45" y1="45.89" x2="448.86" y2="567.66">
  </linearGradient>
 </defs>
 <g id="Capa_x0020_1">
  <metadata id="CorelCorpID_0Corel-Layer"/>
  <rect class="fil0" x="-0" y="-0" width="634.99" height="634.99"/>
  <g id="_2673933175392">
   <g>
    <path class="fil1" d="M571.81 362.55l-91.54 -66.61 0 -125.95c0,-49.08 -15.87,-73.5 -47.61,-73.5 -15.08,0 -27.38,7.32 -36.9,22.06 -9.52,14.74 -14.28,33.09 -14.28,55.03l0 0 -91.74 0 0 -5.62c0,-47.61 -40.96,-36.75 -46.82,-71.47l-10.61 -62.81c-3.74,-22.14 35.9,-16.99 56.23,-16.99 42.06,0 70.82,20.93 86.29,62.92 22.72,-41.99 55.94,-62.92 99.98,-62.92 64.67,0 97,45.24 97,135.85l0 210.01z"/>
    <path class="fil1" d="M95.12 362.55l91.55 -66.61 0 -125.95c0,-49.08 15.86,-73.5 47.6,-73.5 15.08,0 27.38,7.32 36.9,22.06 9.52,14.74 14.29,33.09 14.29,55.03l0 0 91.74 0 0 -5.62c0,-47.61 40.96,-36.75 46.82,-71.47l10.61 -62.81c3.73,-22.14 -35.91,-16.99 -56.24,-16.99 -42.06,0 -70.81,20.93 -86.29,62.92 -22.71,-41.99 -55.94,-62.92 -99.98,-62.92 -64.66,0 -97,45.24 -97,135.85l0 210.01z"/>
    <polygon class="fil1" points="334.52,240.78 157.31,369.78 334.52,492.45 334.52,621.91 69,437.1 69,302.46 334.52,112.36 "/>
    <polygon class="fil1" points="334.1,244.49 508.4,371.38 334.1,492.04 334.1,619.38 595.27,437.6 595.27,305.16 334.1,118.17 "/>
   </g>
   <path class="fil2" d="M616.45 17.67l-2.85 174.54 -20.19 0 -2.66 -174.54 25.7 0zm-12.54 246.1c-4.59,0 -8.51,-1.86 -11.73,-5.44 -3.26,-3.65 -4.89,-8.04 -4.89,-13.25 0,-5.15 1.63,-9.6 4.89,-13.31 3.22,-3.64 7.14,-5.49 11.73,-5.49 4.43,0 8.36,1.85 11.63,5.49 3.31,3.71 4.94,8.16 4.94,13.31 0,5.21 -1.63,9.6 -4.94,13.25 -3.27,3.58 -7.2,5.44 -11.63,5.44z"/>
   <path class="fil2" d="M18.65 268.14l2.97 -180.9 20.93 0 2.74 180.9 -26.64 0zm13 -255.07c4.76,0 8.83,1.92 12.16,5.64 3.38,3.78 5.07,8.33 5.07,13.73 0,5.34 -1.69,9.95 -5.07,13.79 -3.33,3.78 -7.4,5.7 -12.16,5.7 -4.59,0 -8.66,-1.92 -12.04,-5.7 -3.43,-3.84 -5.12,-8.45 -5.12,-13.79 0,-5.4 1.69,-9.95 5.12,-13.73 3.38,-3.72 7.45,-5.64 12.04,-5.64z"/>
   <g>
    <path class="fil3" d="M560.1 359.71l-91.55 -66.61 0 -125.95c0,-49.08 -15.86,-73.5 -47.6,-73.5 -15.08,0 -27.38,7.32 -36.9,22.06 -9.52,14.74 -14.29,33.09 -14.29,55.03l0 0 -91.74 0 0 -5.62c0,-47.61 -40.96,-36.75 -46.82,-71.47l-10.61 -62.81c-3.73,-22.14 35.91,-16.99 56.24,-16.99 42.06,0 70.81,20.93 86.29,62.92 22.71,-41.99 55.94,-62.92 99.98,-62.92 64.66,0 97,45.24 97,135.85l0 210.01z"/>
    <path class="fil4" d="M83.41 359.71l91.54 -66.61 0 -125.95c0,-49.08 15.87,-73.5 47.61,-73.5 15.08,0 27.38,7.32 36.9,22.06 9.52,14.74 14.28,33.09 14.28,55.03l0 0 91.74 0 0 -5.62c0,-47.61 40.96,-36.75 46.82,-71.47l10.61 -62.81c3.74,-22.14 -35.9,-16.99 -56.24,-16.99 -42.05,0 -70.81,20.93 -86.29,62.92 -22.71,-41.99 -55.93,-62.92 -99.97,-62.92 -64.67,0 -97,45.24 -97,135.85l0 210.01z"/>
    <polygon class="fil5" points="322.8,237.94 145.6,366.94 322.8,489.61 322.8,619.07 57.28,434.26 57.28,299.62 322.8,109.52 "/>
    <polygon class="fil6" points="322.38,241.65 496.69,368.54 322.38,489.2 322.38,616.54 583.56,434.76 583.56,302.32 322.38,115.33 "/>
   </g>
  </g>
 </g>
</svg>
