<?xml version="1.0" encoding="UTF-8"?>
<!DOCTYPE svg PUBLIC "-//W3C//DTD SVG 1.1//EN" "http://www.w3.org/Graphics/SVG/1.1/DTD/svg11.dtd">
<!-- Creator: CorelDRAW 2017 -->
<svg xmlns="http://www.w3.org/2000/svg" xml:space="preserve" width="14.9858mm" height="14.9858mm" version="1.1" style="shape-rendering:geometricPrecision; text-rendering:geometricPrecision; image-rendering:optimizeQuality; fill-rule:evenodd; clip-rule:evenodd"
viewBox="0 0 1498.58 1498.58"
 xmlns:xlink="http://www.w3.org/1999/xlink">
 <defs>
  <style type="text/css">
   <![CDATA[
    .fil0 {fill:#382954}
    .fil2 {fill:#E6E7E8;fill-rule:nonzero}
    .fil1 {fill:#5AFFA4;fill-rule:nonzero}
   ]]>
  </style>
 </defs>
 <g id="Capa_x0020_1">
  <metadata id="CorelCorpID_0Corel-Layer"/>
  <rect class="fil0" x="-1.37" y="-1.37" width="1501.31" height="1501.32"/>
  <path class="fil1" d="M806.36 478.71l-221.73 81.24 221.73 80.57 0 83.24 -316.96 -120.53 0 -86.56 316.96 -120.52 0 82.56zm14.09 443.48c27.97,-49.27 48.5,-99.33 61.59,-150.16 13.1,-50.82 19.65,-104.65 19.65,-161.47 0,-56.82 -6.55,-110.65 -19.65,-161.48 -13.09,-50.83 -33.62,-100.88 -61.59,-150.15l99.21 0c27.08,39.51 47.84,86.01 62.26,139.5 14.43,53.49 21.65,110.87 21.65,172.13 0,61.26 -7.11,118.41 -21.31,171.46 -14.21,53.05 -35.07,99.77 -62.6,140.17l-99.21 0z"/>
  <path class="fil2" d="M482.25 1176.31l-12.14 0 0 -43.63c0,-15.77 -5.85,-23.64 -17.59,-23.64 -5.9,0 -10.9,2.27 -14.93,6.84 -4.04,4.56 -6.06,10.42 -6.06,17.56l0 42.87 -12.14 0 0 -112.06 12.14 0 0 48.93 0.3 0c5.81,-9.57 14.08,-14.34 24.83,-14.34 17.06,0 25.59,10.27 25.59,30.81l0 46.66zm21.73 -94.93c-2.14,0 -4.01,-0.73 -5.53,-2.22 -1.53,-1.46 -2.29,-3.33 -2.29,-5.6 0,-2.27 0.76,-4.16 2.29,-5.65 1.52,-1.52 3.39,-2.27 5.53,-2.27 2.22,0 4.11,0.75 5.68,2.27 1.54,1.49 2.32,3.38 2.32,5.65 0,2.17 -0.78,4.01 -2.32,5.53 -1.57,1.54 -3.46,2.29 -5.68,2.29zm5.93 94.93l-12.14 0 0 -75.7 12.14 0 0 75.7zm87.46 0l-23.29 0 0 -43.02c0,-11.11 -4.03,-16.63 -12.13,-16.63 -4.14,0 -7.5,1.54 -10.05,4.64 -2.57,3.11 -3.86,7.07 -3.86,11.84l0 43.17 -23.34 0 0 -112.06 23.34 0 0 47.59 0.3 0c5.73,-8.71 13.48,-13.07 23.3,-13.07 17.15,0 25.73,10.34 25.73,31.03l0 46.51zm79.11 -31.19l-49.38 0c0.79,10.98 7.72,16.48 20.77,16.48 8.33,0 15.64,-1.97 21.95,-5.91l0 16.86c-6.99,3.73 -16.07,5.6 -27.27,5.6 -12.22,0 -21.7,-3.38 -28.47,-10.17 -6.73,-6.76 -10.12,-16.22 -10.12,-28.33 0,-12.57 3.64,-22.54 10.96,-29.88 7.29,-7.34 16.25,-11 26.89,-11 11.03,0 19.59,3.28 25.62,9.81 6.03,6.56 9.05,15.47 9.05,26.7l0 9.84zm-21.65 -14.36c0,-10.82 -4.39,-16.25 -13.17,-16.25 -3.73,0 -6.99,1.54 -9.71,4.65 -2.75,3.1 -4.39,6.99 -5,11.6l27.88 0zm51.54 45.55l-23.34 0 0 -112.06 23.34 0 0 112.06zm35.66 0l-23.34 0 0 -112.06 23.34 0 0 112.06zm48.38 1.84c-12.62,0 -22.53,-3.53 -29.75,-10.6 -7.22,-7.06 -10.83,-16.68 -10.83,-28.79 0,-12.51 3.74,-22.33 11.23,-29.39 7.5,-7.07 17.64,-10.6 30.38,-10.6 12.57,0 22.44,3.53 29.58,10.6 7.14,7.06 10.72,16.42 10.72,28.06 0,12.56 -3.68,22.5 -11.05,29.8 -7.37,7.29 -17.46,10.92 -30.28,10.92zm0.61 -61.49c-5.53,0 -9.82,1.89 -12.87,5.68 -3.06,3.81 -4.6,9.18 -4.6,16.12 0,14.53 5.88,21.8 17.62,21.8 11.17,0 16.78,-7.47 16.78,-22.38 0,-14.16 -5.66,-21.22 -16.93,-21.22z"/>
  <path class="fil1" d="M826.65 1186.19c-1.15,0 -2.15,-0.4 -2.95,-1.22 -0.82,-0.8 -1.22,-1.8 -1.22,-2.95 0,-1.18 0.4,-2.19 1.19,-2.99 0.8,-0.82 1.8,-1.22 2.98,-1.22 0.58,0 1.12,0.1 1.63,0.33 0.5,0.22 0.95,0.5 1.32,0.86 0.38,0.37 0.68,0.8 0.92,1.32 0.22,0.54 0.34,1.1 0.34,1.7 0,0.57 -0.12,1.12 -0.34,1.63 -0.24,0.51 -0.54,0.95 -0.92,1.32 -0.37,0.37 -0.82,0.67 -1.32,0.89 -0.51,0.23 -1.05,0.33 -1.63,0.33zm69.82 -0.89l0 -26.25c0,-2.66 -0.21,-4.92 -0.61,-6.78 -0.4,-1.84 -1.04,-3.34 -1.89,-4.5 -0.86,-1.16 -1.95,-2.01 -3.25,-2.53 -1.33,-0.52 -2.9,-0.78 -4.73,-0.78 -1.62,0 -3.15,0.38 -4.61,1.15 -1.44,0.78 -2.7,1.83 -3.8,3.19 -1.09,1.35 -1.93,2.94 -2.56,4.77 -0.62,1.82 -0.94,3.8 -0.94,5.93l0 25.8 -5.61 0 0 -26.81c0,-9.35 -3.57,-14.03 -10.72,-14.03 -1.65,0 -3.18,0.37 -4.59,1.11 -1.43,0.74 -2.66,1.77 -3.72,3.11 -1.05,1.33 -1.87,2.94 -2.47,4.83 -0.59,1.87 -0.89,3.94 -0.89,6.2l0 25.59 -5.62 0 0 -44.59 5.62 0 0 7.22 0.18 0c3.14,-5.53 7.7,-8.29 13.7,-8.29 1.56,0 3.05,0.24 4.45,0.71 1.38,0.49 2.63,1.16 3.73,2.01 1.11,0.86 2.05,1.89 2.85,3.08 0.81,1.2 1.4,2.51 1.82,3.94 1.56,-3.19 3.59,-5.59 6.11,-7.26 2.51,-1.65 5.35,-2.48 8.5,-2.48 9.78,0 14.67,6.03 14.67,18.12l0 27.54 -5.62 0zm34 1.07c-3.3,0 -6.27,-0.55 -8.89,-1.65 -2.63,-1.11 -4.87,-2.68 -6.73,-4.7 -1.86,-2.02 -3.27,-4.43 -4.25,-7.25 -1,-2.82 -1.49,-5.95 -1.49,-9.38 0,-3.71 0.52,-7.04 1.56,-9.97 1.06,-2.94 2.55,-5.43 4.46,-7.48 1.93,-2.05 4.27,-3.61 6.99,-4.68 2.73,-1.09 5.78,-1.62 9.14,-1.62 3.22,0 6.12,0.53 8.69,1.59 2.59,1.06 4.78,2.6 6.57,4.59 1.8,2.01 3.18,4.46 4.14,7.33 0.96,2.88 1.44,6.15 1.44,9.81 0,3.49 -0.51,6.66 -1.5,9.53 -1,2.87 -2.43,5.32 -4.28,7.38 -1.86,2.07 -4.12,3.66 -6.8,4.81 -2.66,1.13 -5.67,1.69 -9.05,1.69zm0.45 -41.91c-2.45,0 -4.65,0.41 -6.63,1.26 -1.98,0.85 -3.67,2.06 -5.08,3.69 -1.42,1.6 -2.5,3.58 -3.26,5.93 -0.76,2.33 -1.13,4.99 -1.13,7.95 0,2.79 0.37,5.3 1.13,7.53 0.76,2.25 1.83,4.16 3.21,5.77 1.38,1.59 3.06,2.82 5.04,3.67 1.98,0.86 4.18,1.29 6.63,1.29 2.5,0 4.71,-0.41 6.63,-1.24 1.91,-0.82 3.53,-2.03 4.87,-3.62 1.34,-1.59 2.35,-3.52 3.03,-5.82 0.69,-2.29 1.03,-4.91 1.03,-7.85 0,-6 -1.34,-10.61 -4.01,-13.79 -2.68,-3.18 -6.5,-4.77 -11.46,-4.77zm59.41 40.84l0 -25.71c0,-10.1 -3.64,-15.13 -10.94,-15.13 -1.93,0 -3.73,0.38 -5.38,1.15 -1.65,0.78 -3.08,1.83 -4.28,3.2 -1.19,1.37 -2.14,2.99 -2.81,4.86 -0.69,1.87 -1.03,3.91 -1.03,6.08l0 25.55 -5.62 0 0 -44.59 5.62 0 0 7.73 0.18 0c3.3,-5.87 8.28,-8.8 14.91,-8.8 4.87,0 8.59,1.58 11.15,4.74 2.54,3.17 3.82,7.75 3.82,13.73l0 27.19 -5.62 0zm13.36 -8.01c0.84,0.67 1.75,1.26 2.73,1.78 0.98,0.52 2.01,0.97 3.05,1.35 1.04,0.38 2.08,0.66 3.15,0.85 1.05,0.2 2.05,0.28 3.02,0.28 6.6,0 9.9,-2.48 9.9,-7.43 0,-1.13 -0.24,-2.11 -0.7,-2.94 -0.46,-0.83 -1.13,-1.59 -1.99,-2.27 -0.88,-0.69 -1.92,-1.31 -3.14,-1.89 -1.22,-0.58 -2.6,-1.19 -4.13,-1.83 -2.07,-0.85 -3.84,-1.71 -5.32,-2.57 -1.48,-0.88 -2.69,-1.83 -3.66,-2.86 -0.95,-1.04 -1.66,-2.17 -2.13,-3.4 -0.46,-1.23 -0.69,-2.64 -0.69,-4.21 0,-1.97 0.43,-3.74 1.27,-5.27 0.87,-1.55 2.01,-2.86 3.45,-3.93 1.46,-1.07 3.12,-1.9 5.01,-2.46 1.9,-0.57 3.9,-0.85 5.98,-0.85 3.85,0 7.19,0.73 10.06,2.17l0 5.87c-3.33,-2.15 -6.93,-3.22 -10.78,-3.22 -1.38,0 -2.64,0.17 -3.79,0.52 -1.14,0.35 -2.12,0.84 -2.94,1.48 -0.8,0.64 -1.44,1.41 -1.89,2.31 -0.44,0.89 -0.67,1.87 -0.67,2.94 0,1.11 0.18,2.08 0.52,2.9 0.36,0.83 0.9,1.59 1.64,2.26 0.74,0.65 1.69,1.29 2.87,1.91 1.17,0.61 2.6,1.27 4.29,1.97 2.14,0.86 4,1.72 5.56,2.58 1.58,0.86 2.87,1.79 3.88,2.8 1.01,0.99 1.77,2.11 2.26,3.36 0.49,1.23 0.74,2.66 0.74,4.28 0,2 -0.41,3.8 -1.23,5.36 -0.83,1.58 -1.98,2.9 -3.43,3.97 -1.46,1.07 -3.18,1.89 -5.15,2.44 -1.96,0.55 -4.1,0.83 -6.42,0.83 -4.49,0 -8.26,-0.95 -11.32,-2.84l0 -6.24zm54.65 7.46c-1.92,0.97 -4,1.44 -6.26,1.44 -7.18,0 -10.78,-4.15 -10.78,-12.44l0 -28.14 -7.84 0 0 -4.9 7.84 0 0 -11.19 5.62 -1.83 0 13.02 11.42 0 0 4.9 -11.42 0 0 27.25c0,3.02 0.49,5.19 1.47,6.52 0.99,1.33 2.64,2 4.98,2 1.73,0 3.38,-0.52 4.97,-1.56l0 4.93zm7.98 -20.76c0.03,2.73 0.39,5.18 1.08,7.37 0.7,2.17 1.7,4.03 3.01,5.53 1.31,1.51 2.9,2.67 4.77,3.46 1.87,0.8 3.98,1.2 6.33,1.2 5.02,0 9.77,-1.75 14.24,-5.27l0 5.51c-4.27,3.05 -9.44,4.58 -15.5,4.58 -2.99,0 -5.71,-0.52 -8.15,-1.58 -2.44,-1.04 -4.5,-2.55 -6.23,-4.54 -1.71,-2 -3.03,-4.45 -3.95,-7.35 -0.94,-2.91 -1.4,-6.22 -1.4,-9.94 0,-3.34 0.51,-6.44 1.52,-9.29 1.02,-2.84 2.42,-5.31 4.22,-7.39 1.81,-2.08 3.94,-3.7 6.41,-4.87 2.46,-1.18 5.15,-1.77 8.08,-1.77 2.89,0 5.41,0.51 7.63,1.5 2.2,1.01 4.05,2.44 5.54,4.3 1.5,1.85 2.63,4.11 3.42,6.79 0.79,2.67 1.17,5.66 1.17,8.96l0 2.8 -32.19 0zm26.49 -4.91c-0.09,-4.64 -1.19,-8.23 -3.32,-10.79 -2.12,-2.56 -5.08,-3.83 -8.86,-3.83 -1.88,0 -3.64,0.32 -5.26,0.99 -1.6,0.67 -3.03,1.64 -4.25,2.9 -1.22,1.26 -2.23,2.81 -3.03,4.62 -0.8,1.82 -1.35,3.85 -1.68,6.11l26.4 0zm35.68 -12.65c-1.31,-0.96 -2.99,-1.44 -5.05,-1.44 -1.47,0 -2.78,0.28 -3.91,0.85 -1.15,0.56 -2.13,1.32 -2.99,2.29 -0.86,0.95 -1.58,2.06 -2.17,3.33 -0.61,1.26 -1.08,2.57 -1.44,3.93 -0.37,1.37 -0.63,2.75 -0.79,4.14 -0.16,1.39 -0.24,2.72 -0.24,3.97l0 21.8 -5.53 0 0 -44.59 5.53 0 0 9.56 0.18 0c0.52,-1.62 1.18,-3.09 1.98,-4.37 0.8,-1.3 1.72,-2.4 2.76,-3.27 1.04,-0.89 2.19,-1.56 3.42,-2.02 1.23,-0.46 2.53,-0.7 3.9,-0.7 0.9,0 1.7,0.06 2.42,0.18 0.7,0.1 1.35,0.28 1.93,0.52l0 5.82z"/>
 </g>
</svg>
