<?xml version="1.0" encoding="UTF-8"?>
<!DOCTYPE svg PUBLIC "-//W3C//DTD SVG 1.1//EN" "http://www.w3.org/Graphics/SVG/1.1/DTD/svg11.dtd">
<!-- Creator: CorelDRAW 2017 -->
<svg xmlns="http://www.w3.org/2000/svg" xml:space="preserve" width="5.5878mm" height="5.5878mm" version="1.1" style="shape-rendering:geometricPrecision; text-rendering:geometricPrecision; image-rendering:optimizeQuality; fill-rule:evenodd; clip-rule:evenodd"
viewBox="0 0 558.78 558.78"
 xmlns:xlink="http://www.w3.org/1999/xlink">
 <defs>
  <style type="text/css">
   <![CDATA[
    .fil0 {fill:none}
    .fil1 {fill:#E1E1E1}
   ]]>
  </style>
 </defs>
 <g id="Capa_x0020_1">
  <metadata id="CorelCorpID_0Corel-Layer"/>
  <rect class="fil0" x="-0" y="-0" width="558.79" height="558.79"/>
  <rect class="fil0" x="-0" y="-0" width="558.79" height="558.79"/>
  <g id="_2323515852320">
   <g>
    <path class="fil1" d="M49.23 460.77l-0.09 -174.59 27.71 4.43c23.67,3.14 59.52,-27.75 63.57,-45.16 3.72,5.36 4.77,11.71 10.03,18.43 4.57,5.84 9.02,9.23 14.69,13.77 18.44,14.79 26.93,15.25 52.6,15.25 20.09,0 29.04,-6.25 40.2,-15.25 4.39,-3.53 12.19,-8.37 15.37,-12.36 3.45,-4.34 6.22,-16.8 9.36,-19.11 5.26,22.59 33.3,43.8 64.92,43.8 31.64,0 59.25,-21.59 64.93,-45.98 6.38,9.19 8.34,22.55 27.14,34.88 11.37,7.46 30.34,14.75 48.72,14.75 9.66,0 15.21,-3.1 21.89,-3.65 -2.06,4.28 -0.65,162.49 -0.7,182.5 -0.09,38.83 -18.27,36.68 -53.29,37.92 -27.71,0.98 -60.45,0 -90.45,0l-274.29 0c-40.33,0.1 -42.31,-10.62 -42.31,-49.63zm45.61 -423.33l32.08 0c20.65,0.22 41.02,0.73 62.38,0.73l164.86 0c32.94,0 63.77,-0.73 96.29,-0.73 36.91,0 56.17,1.89 67.53,28.77 4.44,10.5 39.7,144.62 39.7,153.7l0 8.03c0,31.36 -34.99,46.9 -36.71,57.41 -3.12,19 -0.49,70.43 -0.49,93.67 0,31.22 0.61,63.04 0.02,94.18 -0.57,30.29 -15.04,48.15 -45.98,48.15l-385.89 0c-45.5,0 -50.34,-18.81 -50.34,-63.5 -0.28,-44.26 0.73,-87.81 1.46,-132.11 0.17,-10.17 -0.05,-23.24 -0.9,-33.4 -1.3,-15.61 -3.94,-11.02 -14.11,-19.46 -9.15,-7.59 -23.65,-27.73 -23.65,-43.48l0 -7.3c0,-22.46 11.43,-57.24 16.94,-76.47 6.55,-22.84 12.05,-51.38 19.79,-73.63 9.24,-26.53 23.28,-33.93 57.02,-34.56zm188.56 11.68l105.04 0c0,21.64 5.66,48.86 8.62,68.74 3.42,22.94 6.77,45.66 9.62,68.47 4.08,32.68 4.93,39.71 -8.68,63.58 -11.8,20.7 -26.43,29.12 -54.05,29.12 -22.74,0 -37.22,-12.28 -45.93,-26.31 -13.72,-22.1 -13.16,-25.57 -13.16,-59.82 0,-48.04 -1.46,-95.57 -1.46,-143.78zm-204.26 229.91c-32.15,0 -52.25,-11.02 -63.01,-35.49 -10.17,-23.12 1.28,-56.72 7.49,-78.45 7.1,-24.82 12.65,-50.1 20.01,-75.6 9.28,-32.12 13.82,-41.1 54.48,-41.1l60.54 0.88c-1.62,19.35 -6.63,45.45 -9.15,68.05 -2.66,23.84 -6.27,44.78 -9.4,67.97 -3.57,26.49 -1.67,44.66 -13.39,63.96 -7.62,12.53 -28.02,29.78 -47.57,29.78z"/>
    <path class="fil1" d="M409.6 362.97l-3.65 0c-21.16,0 -42.31,21.95 -42.31,48.17 0,43.91 49.53,54.63 74.23,37.77 5.17,-3.53 11.85,-16.7 11.85,-23.9 0,-6.67 -29.56,-5.11 -36.47,-5.11 -1.15,-10.29 -1.17,-8.21 0.08,-18.24 16.27,-1.86 37.06,-0.77 53.9,-0.74 5.11,0 6.2,72.26 -56.9,72.26 -32.22,0 -63.47,-27.84 -63.47,-59.12l0 -8.03c0,-32.67 31.16,-58.39 65.66,-58.39 10.03,0 38.02,6.55 31.94,15 -12.08,16.79 -16.23,0.33 -34.86,0.33zm-73.68 45.25l0 5.84c0,33.79 34.84,69.34 67.84,69.34l10.95 0c24.66,0 46.23,-15.72 55.4,-31.43 5.66,-9.71 7.65,-20.45 9.07,-34.71 1.63,-16.39 4.59,-27.29 -14.14,-27.29 -10.49,0 -32.07,-0.66 -40.51,0.31 -18.81,2.15 -22.96,-4.3 -22.96,20.13 0,9.8 0.38,16.98 8.33,19.4 4.49,1.37 21.19,3.32 25.96,1.03 -1.08,12.97 -14.03,14.6 -26.26,14.6 -22.82,0 -35.02,-14.42 -35.02,-37.22 0,-16.79 15.92,-34.31 32.1,-34.31 17.23,0 20.46,8.76 30.64,8.76 3.24,0 21.15,-17.86 21.15,-23.35 0,-10.5 -26.85,-21.9 -40.85,-21.9l-10.21 0c-38.09,0 -71.49,32.97 -71.49,70.8z"/>
   </g>
  </g>
 </g>
</svg>
