<?xml version="1.0" encoding="UTF-8"?>
<!DOCTYPE svg PUBLIC "-//W3C//DTD SVG 1.1//EN" "http://www.w3.org/Graphics/SVG/1.1/DTD/svg11.dtd">
<!-- Creator: CorelDRAW 2017 -->
<svg xmlns="http://www.w3.org/2000/svg" xml:space="preserve" width="5.5878mm" height="5.5878mm" version="1.1" style="shape-rendering:geometricPrecision; text-rendering:geometricPrecision; image-rendering:optimizeQuality; fill-rule:evenodd; clip-rule:evenodd"
viewBox="0 0 558.78 558.78"
 xmlns:xlink="http://www.w3.org/1999/xlink">
 <defs>
  <style type="text/css">
   <![CDATA[
    .fil0 {fill:none}
    .fil1 {fill:#E1E1E1}
   ]]>
  </style>
 </defs>
 <g id="Capa_x0020_1">
  <metadata id="CorelCorpID_0Corel-Layer"/>
  <rect class="fil0" x="-0" y="-0" width="558.79" height="558.79"/>
  <path class="fil1" d="M443.26 324.8c-29.54,69.48 -138.04,60.78 -134.16,-11.69 1.83,-34.07 45.78,-42.08 75.27,-45.4 42.64,-4.79 79.08,9.59 58.89,57.09zm-330.43 -7.79c-12.32,-47.86 26.77,-56 66.6,-49.03 126.56,22.14 60.75,112.87 2.45,103.09 -29.98,-5.02 -62.89,-30.16 -69.05,-54.06zm341.9 -280.97c-114.65,20.7 -225.88,16.9 -340.03,0.93 -37.61,-5.27 -65.66,14.75 -66.79,53.95 -3.04,105.72 14.86,219.65 46.09,317.02 15.49,48.27 13.71,42.46 52.01,68.82 92.62,63.73 175.08,60.52 268.22,-0.48 37.53,-24.57 37.45,-24.29 51.36,-69.69 32.96,-107.56 46.26,-201.07 45.59,-315.64 -0.22,-39.15 -33.19,-59.11 -56.45,-54.91z"/>
 </g>
</svg>
