<?xml version="1.0" encoding="UTF-8"?>
<!DOCTYPE svg PUBLIC "-//W3C//DTD SVG 1.1//EN" "http://www.w3.org/Graphics/SVG/1.1/DTD/svg11.dtd">
<!-- Creator: CorelDRAW 2017 -->
<svg xmlns="http://www.w3.org/2000/svg" xml:space="preserve" width="5.5878mm" height="5.5878mm" version="1.1" style="shape-rendering:geometricPrecision; text-rendering:geometricPrecision; image-rendering:optimizeQuality; fill-rule:evenodd; clip-rule:evenodd"
viewBox="0 0 558.78 558.78"
 xmlns:xlink="http://www.w3.org/1999/xlink">
 <defs>
  <style type="text/css">
   <![CDATA[
    .fil0 {fill:none}
    .fil1 {fill:#E1E1E1}
   ]]>
  </style>
 </defs>
 <g id="Capa_x0020_1">
  <metadata id="CorelCorpID_0Corel-Layer"/>
  <rect class="fil0" x="-0" y="-0" width="558.79" height="558.79"/>
  <path class="fil1" d="M332.13 355.59c8.63,-9.1 42.84,-52.36 52.46,-63.91 5.34,-6.42 51.63,-62.57 52.26,-64.52 -2.86,-1.83 -80.84,-16.19 -91.79,-18.36 -11.2,-2.21 -37.28,-9.67 -46.74,-5.19 -6.56,3.1 -21.74,21.62 -27.45,27.98 -2.24,2.51 -4.52,4.69 -6.71,7.15 -8.58,9.63 -14.63,12.55 -9.9,28.34 1.83,6.1 16.95,61.06 19.74,63.44l38.51 16.97c4.32,1.87 15.57,7.34 19.62,8.1zm150.76 -97.68c2.97,-1.97 12.01,-14.99 14.43,-18.64 3.58,-5.4 4.31,-4.77 2.49,-12.18 -0.77,-3.12 -2.22,-10.94 -3.76,-13.07 -2.34,1.37 -3,7.55 -3.7,10.05 -2.31,8.18 -8.52,28.06 -9.46,33.84zm-232 264.02c2.37,1.7 29.34,7.68 34.95,8.99 32.08,7.44 47.76,2.58 80.05,-1.76 13.04,-1.75 26.47,-3.73 39.43,-5.28 -1.77,-3.12 -16.68,-9.51 -20.8,-11.59l-63.71 -32.05c-3.82,-1.96 -6.97,-3.55 -10.44,-5.27 -4.05,-2.01 -7.3,-4.99 -11.33,-1.22 -5.46,5.12 -10.42,10.82 -15.76,16.18 -5.46,5.49 -10.44,10.61 -15.97,15.98 -3.23,3.14 -14.52,13.44 -16.42,16.02zm171.56 -166.34c15.39,-0.47 29.11,-12.01 35.18,-19.18 7.65,-9.02 14.92,-20.54 19.79,-34.46 5.24,-14.94 8.98,-21.97 1.82,-30.24 -4.6,-5.31 -29.75,-35.61 -32.6,-36.29 -2.21,1.39 -25.21,30.54 -29.97,36.51 -1.7,2.14 -3.08,3.83 -4.83,6.02 -1.53,1.92 -3.86,4.43 -5.1,6.34 -2.75,4.22 0.66,13.57 1.84,18.22l13.87 53.08zm-178.91 160.13c5.95,-5.88 30.63,-35.68 37.7,-43.5l36.85 -44.15 -134.22 -15.28c-5.85,-0.65 -14.43,-2.09 -19.95,-1.98 1.23,2.85 16.42,22.29 19.61,26.48 6.7,8.82 13.33,17.59 19.99,26.41 4.11,5.45 38.15,51.3 40.02,52.02zm-80.03 -120.66c5.92,0.68 151.56,19.37 156.57,18.91 1.03,-3.21 1.61,-12.72 2.04,-16.75 0.59,-5.46 1.28,-10.92 2.05,-16.43 2.07,-14.8 2.05,-11.82 -15.69,-20.88 -8.72,-4.45 -16.49,-8.39 -25.19,-12.81 -8.32,-4.23 -16.28,-9.33 -27.28,-10.69 -25.44,-3.15 -43.52,9.24 -55.01,20.59 -6.83,6.74 -12.52,12.43 -19.08,18.9 -2.68,2.64 -17.81,17.06 -18.41,19.16zm190.3 -195.74c-0.5,-3.6 -6.03,-14.36 -7.7,-18.09l-24.44 -53.32c-9.62,-20.59 -6.2,-15.81 -26.66,-25.16 -34.13,-15.6 -74.05,-32.27 -108.79,-47.3 -12.01,-5.19 -24.19,-10.55 -36.16,-15.7l-36.8 -15.75c1,3.15 19.37,27.67 22.72,32.26 7.71,10.59 15.54,21.46 23.25,32.19 15.95,22.2 9.96,19.79 32.37,12.6 6.89,-2.21 13.92,-4.57 20.85,-6.83 7.44,-2.43 9.56,1.46 17.98,8.01l92.28 72.86c5.44,4.25 27.59,22.22 31.1,24.23zm-295.81 -49.38l274.33 46.33c-0.7,-2.98 -2.45,-3.63 -6.5,-6.82l-79.12 -62.51c-5,-3.92 -9.48,-7.55 -14.47,-11.45 -2.52,-1.97 -4.74,-3.72 -7.07,-5.58 -1.86,-1.48 -5.62,-4.79 -7.54,-5.71 -4.54,-2.16 -15.55,2.16 -20.4,3.64l-119.97 35.59c-3.38,1.03 -18.02,4.23 -19.26,6.51z"/>
 </g>
</svg>
