<?xml version="1.0" encoding="UTF-8"?>
<!DOCTYPE svg PUBLIC "-//W3C//DTD SVG 1.1//EN" "http://www.w3.org/Graphics/SVG/1.1/DTD/svg11.dtd">
<!-- Creator: CorelDRAW 2017 -->
<svg xmlns="http://www.w3.org/2000/svg" xml:space="preserve" width="5.5878mm" height="5.5878mm" version="1.1" style="shape-rendering:geometricPrecision; text-rendering:geometricPrecision; image-rendering:optimizeQuality; fill-rule:evenodd; clip-rule:evenodd"
viewBox="0 0 558.78 558.78"
 xmlns:xlink="http://www.w3.org/1999/xlink">
 <defs>
  <style type="text/css">
   <![CDATA[
    .fil0 {fill:#E1E1E1}
   ]]>
  </style>
 </defs>
 <g id="Capa_x0020_1">
  <metadata id="CorelCorpID_0Corel-Layer"/>
  <path class="fil0" d="M61.2 359.35c7.86,-5.93 39.8,3.29 51.56,4.74 45.08,5.58 73.79,4.26 118.76,0.46 39.03,-3.29 31.54,-5.73 45.91,-18.78 7.7,15.58 23.64,17.05 45.01,18.81 49.45,4.07 99.99,5.17 148.65,-5.2 11.93,-2.55 16.77,-6.12 23.31,3.13 -3.28,8.92 -29.26,26.27 -39.51,32.35 -15.61,9.27 -31.81,16.84 -50.28,23.75 -76.05,28.48 -177.87,27.26 -253.71,-1.03 -18.45,-6.88 -35.19,-14.62 -50.09,-23.98 -7.94,-5 -29.83,-20.7 -36.35,-27.35 -5.73,-5.84 -1.79,-3.01 -3.26,-6.9zm75.87 -270.98l3.62 0c4.86,0.73 10.04,4.44 17.72,12.21 5.35,5.41 11.08,9.83 15.16,15.93 8.24,-1.92 15.13,-4.09 23.82,-5.8 35.93,-7.11 33.38,-5.75 66.51,-7.52 6.48,-0.35 6.26,-1.33 13.31,-1.57l55.07 4.26c56.89,8.24 42,14.48 55.89,1.64 12.05,-11.14 17.91,-17.41 23.37,-19.15l6.45 0c5.4,1.54 12.26,6.65 24.8,15.09 7.39,4.98 19.9,13.25 13.6,26.38 7.71,3.69 16.53,6.29 8.89,22.21 12.13,8.12 34.39,24.33 43.16,35.31 4.15,5.21 7.77,8.47 11.36,13.82 7.93,11.83 12.81,18.74 18.49,33.33 11.3,28.96 10.22,63.88 1.9,93.14 -4.23,14.84 -10.22,26.34 -17.06,37.72 -10.09,16.78 -24.75,32.25 -39.85,44.55 -47.72,38.88 -116.16,57.55 -184.41,60.48l-38.79 0c-31.89,-1.36 -62.84,-6.06 -90.66,-13.62 -26.15,-7.1 -62.08,-22.7 -82.15,-37.78 -9.2,-6.92 -12.39,-7.92 -22.17,-17.81 -14.42,-14.6 -25.25,-25.75 -35.64,-44.33 -8.67,-15.51 -17.29,-42.63 -17.29,-61.18 0,-41.42 0.16,-59.19 26.42,-95 9.56,-13.04 13.98,-16.36 23.57,-25.3 5.52,-5.16 20.05,-18.51 27.01,-20.37 -3.44,-14.77 -10.39,-16.64 7.4,-25.17 -0.77,-3.33 -1.48,-3.41 -1.48,-7.41 0,-9.5 11.71,-16.23 18.07,-20.43 11.29,-7.46 17.78,-12.73 23.91,-13.63zm-113.62 179.08c2.4,-34.87 23.23,-65.81 47.91,-87.28 5.36,-4.66 13.19,-10.44 19.48,-14.64 8.58,-5.74 9.94,-9.05 23.11,-5.7 17.94,4.57 31.38,14.07 51.96,11.87 19.74,39.1 13.17,56.22 14.24,91.47 0.32,10.58 2.15,20.51 2.51,30.62 -22.6,-5.88 -35,-14.46 -72.38,-22.09 -31.77,-6.48 -54.13,-7.07 -86.83,-4.25zm362.92 -95.5c30.07,0.45 30.16,-7.12 55.16,-12.67 14.03,-3.11 16.38,-0.47 25.39,5.94 5.81,4.12 14.21,10.16 18.42,14.17 22.13,21.04 43.73,43.98 49.08,86.88 -48.59,-3.08 -83.06,1.19 -128.73,15.72 -11.95,3.79 -23.79,8.87 -35.14,12.19 2.17,-25.02 2.28,-41.25 2.36,-66.63 0.08,-24.94 9.08,-36.47 13.46,-55.6zm-203.56 -46.65c19.09,-8.11 71.03,-12.16 94.41,-12.25 35.66,-0.15 61.78,4.39 94.74,11.04 -12.22,20.24 -16.93,5.8 -53.32,88.6 -7.66,17.42 -37.76,85.82 -41.33,99.71 -4.49,-6.35 -7.29,-17.94 -10.43,-25.65 -10.65,-26.21 -43.12,-100.53 -54.56,-121.66 -12.61,-23.27 -20.8,-27.4 -29.51,-39.79zm201.03 233.17c-22.21,0 -44.7,-1.96 -66.68,-3.76 -24.04,-1.96 -38.53,-6.81 -32.23,-35.04 3.66,-16.39 12.58,-34.4 19.19,-48.92 23.31,-51.26 33.53,-93.55 69.91,-134.42 41.75,-46.91 39.59,-40.75 56.3,-29.3 9.85,6.75 29.81,13.8 6.87,30.28 -6.44,4.63 -11,2.61 -19.24,0.35 1.75,-7.96 4.08,-8.44 10.3,-5.07l2.55 -3.22c1.62,-1.67 -0.82,0.02 2.4,-1.74l-4.82 -0.69 -0.89 -9.82c-2.2,3.78 -2.59,5.54 -5.55,9.31 -5.24,-2.29 -4.67,-4.26 -9.95,-6.73 4.01,13.32 5.84,10.35 -3.72,21.28 -4.97,5.69 -9.99,9.44 -14.82,14.77 15.33,4.09 13.52,-15.68 29.69,-10.49 14.92,4.8 23.86,-9.83 34.85,-3.58 -2.05,8.8 -16.78,7.86 -24.24,9.93 -10.42,2.88 -16.12,6.1 -24.9,9.2 -27.58,9.71 -25.58,-12.43 -38.71,29.36 -8.1,25.77 -5.83,35.62 -5.94,62.57 -0.15,35.08 -2.09,31.27 -8.8,58.08 9.62,-2.66 24.04,-9.7 34.45,-13.58 11.06,-4.12 23.14,-7.75 35,-10.94 49.71,-13.37 64.44,-13.92 110.14,-10.3 -0.46,16.03 -4.13,34.11 -10.21,46.62 -5.87,12.09 -15.14,26.29 -22.02,33.77 -8.84,-6.17 -7.81,-11.35 -25,-8.18 -35.85,6.62 -55.05,10.26 -93.93,10.26zm-278.78 -236.04c4.01,-7.57 11.28,-10.83 18.57,-15.85 8.05,-5.54 13.19,-12.4 22.57,-4.14 44.47,39.17 60.14,65.76 83.23,121.08 8.7,20.86 35.44,79.33 39.2,96.91 5.87,27.37 -7.67,32.37 -31.51,34.26 -55.2,4.37 -78.4,6.26 -133.27,-1.27 -25.98,-3.56 -38.4,-11.75 -49.68,0.04 -2.95,-2.1 -1.74,-1.04 -4.28,-3.74l-8.03 -11.2c-3.01,-4.74 -6.45,-10.42 -8.99,-16.16 -6.06,-13.76 -9.47,-25.58 -9.47,-42.97 3.06,-4.17 8.47,-3.59 14.28,-3.99 53.69,-3.68 118.37,15.17 160.45,35.91 -2.64,-18.43 -8.83,-15.78 -8.79,-60.05 0.03,-26.82 1.97,-36.24 -6.06,-61.53 -13.22,-41.57 -11.02,-19.14 -39.05,-29.11 -9.31,-3.31 -14.37,-6.09 -24.91,-9.09 -14.91,-4.24 -22.23,-1.11 -23.78,-9.85 4.89,-3.09 13.46,-0.31 18.52,1.8 7.11,2.96 7.06,4.76 15.86,1.9 17.69,-5.74 12.29,12.81 30.15,10.81 -2.08,-4.92 -11.18,-11.9 -15.47,-16.67 -6.96,-7.73 -8.45,-8.97 -2.8,-19.4 -5.8,1.69 -4.87,4.16 -11.63,5.83l-3.43 -8.9c-2.4,9.08 1.35,8 -6.1,10.82 4.66,2.58 1.93,-0.71 4.07,4.57 3.31,-1.22 5.41,-2.22 9.16,-1.51l1.15 6.31c-7.92,3.58 -12.84,4.59 -18.74,-0.4 -3.73,-3.15 -9.32,-8.44 -11.22,-14.41z"/>
 </g>
</svg>
