<?xml version="1.0" encoding="UTF-8"?>
<!DOCTYPE svg PUBLIC "-//W3C//DTD SVG 1.1//EN" "http://www.w3.org/Graphics/SVG/1.1/DTD/svg11.dtd">
<!-- Creator: CorelDRAW 2017 -->
<svg xmlns="http://www.w3.org/2000/svg" xml:space="preserve" width="5.5878mm" height="5.5878mm" version="1.1" style="shape-rendering:geometricPrecision; text-rendering:geometricPrecision; image-rendering:optimizeQuality; fill-rule:evenodd; clip-rule:evenodd"
viewBox="0 0 558.78 558.78"
 xmlns:xlink="http://www.w3.org/1999/xlink">
 <defs>
  <style type="text/css">
   <![CDATA[
    .fil0 {fill:#E1E1E1}
   ]]>
  </style>
 </defs>
 <g id="Capa_x0020_1">
  <metadata id="CorelCorpID_0Corel-Layer"/>
  <path class="fil0" d="M499.61 263.9c0,58.24 -3.19,78.05 -29.86,127.38 -30.6,56.6 -106.97,108.51 -183.96,108.51 -55.35,0 -93.48,-11.28 -137.07,-42.06 -28.7,-20.27 -57.65,-55.16 -72.35,-90.36 -17.11,-40.99 -24.2,-85.79 -12.8,-137.46 5.14,-23.25 12.91,-39.32 22.38,-58.07 6.23,-12.36 15.86,-25.28 24.8,-35.53 55.55,-63.69 149.41,-102.7 251.29,-62.07 40.29,16.06 66.43,38.2 92.46,70.23 23.43,28.83 45.11,80.47 45.11,119.43zm-467.85 1.83c0,47.42 3.19,79.02 23.73,120.71 6.72,13.64 13.51,25.84 22.45,37.88 91.78,123.45 269.21,137.84 373.7,32.95 43.05,-43.22 75.38,-102.07 75.38,-165.94 0,-46.29 -3.44,-76.76 -23.12,-117.66 -24.85,-51.65 -66.42,-93.14 -117.57,-118.25 -64.81,-31.82 -147.4,-31.95 -212.66,-0.61 -18.36,8.82 -38.33,21.09 -53.66,34.08l-29.34 29.16c-30.9,33.18 -58.91,99.76 -58.91,147.68z"/>
  <path class="fil0" d="M289.56 349.96c0,25.13 4.57,32.92 -12.79,32.92 -9.89,0 -7.31,-22.36 -7.31,-32.92 -26.76,-14.17 -21.98,-53.03 14.62,-53.03 29.39,0 34.87,50.59 5.48,53.03zm43.86 -89.6l-113.31 0 0 -20.11c0,-30.67 23.83,-51.2 54.83,-51.2 45.63,0 63.96,18.92 63.96,65.83 0,4.21 -1.27,5.48 -5.48,5.48zm-166.31 21.95c0,27.61 -2.76,50.63 11.02,74.92 5.28,9.3 13.99,21.9 22.62,28.56 28.14,21.73 44.27,26.34 85.15,26.34 57.8,0 106,-44.66 106,-102.4 0,-49.35 -1.84,-26.53 -9.73,-46.95 -5.17,-13.41 7.09,-36.55 -17.99,-75.25 -31.23,-48.17 -124.67,-59.97 -168.91,-1.4 -7.13,9.44 -16.54,29.98 -17.23,44.94 -0.44,9.59 1.72,21.6 -1.15,29.93 -2.76,8.02 -9.78,11.51 -9.78,21.31z"/>
 </g>
</svg>
