<?xml version="1.0" encoding="UTF-8"?>
<!DOCTYPE svg PUBLIC "-//W3C//DTD SVG 1.1//EN" "http://www.w3.org/Graphics/SVG/1.1/DTD/svg11.dtd">
<!-- Creator: CorelDRAW 2017 -->
<svg xmlns="http://www.w3.org/2000/svg" xml:space="preserve" width="5.5878mm" height="5.5878mm" version="1.1" style="shape-rendering:geometricPrecision; text-rendering:geometricPrecision; image-rendering:optimizeQuality; fill-rule:evenodd; clip-rule:evenodd"
viewBox="0 0 558.78 558.78"
 xmlns:xlink="http://www.w3.org/1999/xlink">
 <defs>
  <style type="text/css">
   <![CDATA[
    .fil0 {fill:none}
    .fil1 {fill:#E1E1E1}
   ]]>
  </style>
 </defs>
 <g id="Capa_x0020_1">
  <metadata id="CorelCorpID_0Corel-Layer"/>
  <rect class="fil0" x="-0" y="-0" width="558.79" height="558.79"/>
  <g id="_2287730849344">
   <g>
    <path class="fil1" d="M276.96 223.88l4.54 -5.42 -9.81 -0.88c-4.63,2.89 -1.86,2.91 -1.89,4.44l7.16 1.86z"/>
    <path class="fil1" d="M287.26 229.79l0.04 -6.67 -6.74 0.36c1.02,1.18 1.65,3.83 2.16,4.26 1.42,1.21 -0.81,0.92 4.54,2.05z"/>
   </g>
   <g>
    <path class="fil1" d="M76.16 423.01l-0.14 5.96c12.42,-0.16 4.58,-2.07 14.33,-2.37l4.42 -3.71c-4.18,-0.15 -2.63,-0.17 -6.37,0.29 -0.74,0.09 -2.72,0.67 -3.43,0.75 -6.25,0.67 -2.58,0.88 -8.81,-0.92z"/>
    <path class="fil1" d="M204.09 89.8l4.5 -0.76c0.02,-0.68 0.06,-3.64 -0.1,-4.12 -2.2,-6.66 -0.02,-1.47 -2.54,-5.07 -5.34,3.68 -3.15,-1.69 -2.98,4.43 0.19,6.65 3.6,-5.06 1.12,5.52z"/>
    <path class="fil1" d="M296.86 349.27c3.38,1.75 6.85,2.39 10.94,3.85 -2.08,-4.16 -2.88,-2.92 -6.19,-5.82 -0.39,-0.34 -1.69,-1.7 -2.11,-2.23 -3.5,2.38 -1.01,-0.68 -2.64,4.2z"/>
    <path class="fil1" d="M253.12 82l1.49 -0.04c3.59,-11.4 1.87,-3.04 -1.89,-6.34 -6.09,4.52 -5.25,2.47 0.4,6.38z"/>
    <path class="fil1" d="M263.1 80.92c0.85,-1.51 2.22,2.4 1.56,-4.12 -0.44,-4.3 -0.27,-1.66 -1.77,-3.66 -7.53,8.68 -3.26,4.26 0.21,7.78z"/>
    <path class="fil1" d="M403.06 68.97l-0.89 0.37 -7.01 8.76c8.8,-3.6 5.01,3.8 7.9,-9.13z"/>
    <path class="fil1" d="M331.46 265.78c11.36,-1.68 5.13,1.84 6.37,-5.35 -9.76,3.37 -3.74,-1.73 -6.37,5.35z"/>
    <path class="fil1" d="M176 80.8l2.21 -1.16c1,-2.34 0.78,-1.14 0.66,-4.29 -2.25,1.19 -9.1,1.98 -2.87,5.45z"/>
    <path class="fil1" d="M366.11 251.14c0,-11.97 0.27,-3.52 -4.38,-6.72 2.39,5.62 0.4,3.57 4.38,6.72z"/>
    <path class="fil1" d="M69.08 372.4c6.46,-2.89 8.82,-0.59 -0.01,-5.43l0.01 5.43z"/>
    <path class="fil1" d="M460.05 184.54c8.96,5.93 2.06,1.43 4.8,-1.67 -11.15,-1.77 -2.24,-0.03 -4.8,1.67z"/>
    <path class="fil1" d="M492.33 151.06c-2.96,-6.12 0.61,-3.15 -5.02,-4.47 0.98,5.53 -3.09,2.21 5.02,4.47z"/>
    <path class="fil1" d="M210.98 75.34c6.41,-2.36 3.54,2.45 4.35,-3.91 -6.93,-0.38 -2.04,-2.39 -4.35,3.91z"/>
    <path class="fil1" d="M268.3 302.5l6.72 -4.71c-4.58,-0.16 -5.41,-1.48 -6.72,4.71z"/>
    <path class="fil1" d="M287.3 278.52l0.71 -5.55c-2.61,0.51 -2.41,-5.11 -2.68,1.66 -0.29,7.51 -3.73,-0.42 1.97,3.89z"/>
    <path class="fil1" d="M318.36 74.71c0.08,1.43 4.75,7.56 2.7,0.36 -1.1,-3.89 -2.86,-3.37 -2.7,-0.36z"/>
    <path class="fil1" d="M70.87 454.89c4.94,2.3 3.59,1.56 6.15,-0.32 -3.3,-1.74 -3.43,-2.34 -6.15,0.32z"/>
    <path class="fil1" d="M128.46 259.79c0.87,6.46 3.27,2.21 2.67,0.59 -1.65,-4.44 -3.02,-3.16 -2.67,-0.59z"/>
    <path class="fil1" d="M427.59 74.71c0.35,4.38 3.99,3.72 2.92,0.31 -1.02,-3.25 -3.08,-2.22 -2.92,-0.31z"/>
    <path class="fil1" d="M444.24 335.04l3.23 1.49c0.24,-0.05 1.19,-0.37 1.43,-0.43 0.27,-0.08 0.85,-0.75 1.32,-1.06 -3.3,-2.06 -2.56,-1.49 -5.98,0z"/>
    <path class="fil1" d="M165.78 78.78c0.57,0.29 1.39,0.35 1.66,0.95l-1.66 -0.95z"/>
   </g>
   <g>
    <path class="fil1" d="M110.16 471.82c20.39,4.26 21.64,10.37 35.83,3.69l-26.31 -5.53c-16.83,-2.57 -6.6,-1.05 -9.52,1.84z"/>
    <path class="fil1" d="M279.46 81.77l8.65 -1.3c6.5,-3.47 2.92,0.71 9.32,-3.73 -3.29,-2.55 1.05,-0.65 -3.9,-2.36 -6.22,-2.13 -11.19,-1.44 -16.27,0.15l2.2 7.24z"/>
    <path class="fil1" d="M395.86 176.4c3.34,6.54 -0.29,2.44 5.34,6l4.15 -6.15c0.06,-0.22 0.34,-0.81 0.38,-1.03 0.04,-0.21 0.17,-0.86 0.2,-1.05l-2.52 -2.79c-0.18,0.04 -0.91,0.06 -1.13,0.14l-6.42 4.88z"/>
    <path class="fil1" d="M274.39 337.42c0.74,-0.82 6.1,2.6 2.03,-7.38l-6.36 -6.77c1.41,6.01 2.41,10.13 4.33,14.15z"/>
    <path class="fil1" d="M446.98 172.32c0.1,0.2 0.34,0.28 0.38,0.57 0.06,0.33 0.43,0.53 0.51,0.63 0.1,0.13 0.54,0.64 0.67,0.81l1.68 2.09c1.92,2.51 2.37,3.44 3.86,5.19 2.29,-4.47 -0.21,-12.23 -7.1,-9.29z"/>
    <path class="fil1" d="M266.96 324.48c0.23,-0.35 0.6,-1.32 0.71,-1.04l5.05 -6.79c-4.16,-2.39 -2.25,-0.92 -5.76,-4.22l0 12.05z"/>
    <path class="fil1" d="M475.78 196.74c3.78,2.42 -6.13,2.72 4.36,1.83 6.02,-0.5 2.07,-0.61 3.6,-1.83 -5.44,-5.92 -1.78,-4.41 -7.96,0z"/>
    <path class="fil1" d="M434.6 164.2c6.19,2.46 5.72,-0.48 6.57,-3.36 -2.98,-0.21 -4.01,-2.69 -6.57,3.36z"/>
    <path class="fil1" d="M313.85 80.48l1.36 -6.3 -7.23 4.73c4.39,2.29 -0.86,0.51 5.87,1.57z"/>
    <path class="fil1" d="M264.57 308.6c0.2,7.59 3.82,3.07 3.13,0.41 -0.66,-2.51 -3.29,-6.36 -3.13,-0.41z"/>
    <path class="fil1" d="M84.66 375.51c3.05,-8.05 -0.23,-4.41 -0.75,-5.2 -4.02,5.1 -3.25,2.66 0.75,5.2z"/>
    <path class="fil1" d="M453.12 159.31l-4.84 -3.38c1.54,8.66 0.07,7.24 4.84,3.38z"/>
    <path class="fil1" d="M476.24 75.05c-2.77,-3.78 0.71,-2.1 -5.7,-4.22 2.08,5.47 -1.6,3.58 5.7,4.22z"/>
    <path class="fil1" d="M166.77 145.62c9.37,-1.9 2.2,1.63 5.67,-5.24 -6,2.67 -2.49,1.33 -5.67,5.24z"/>
    <path class="fil1" d="M437.63 306.57c-0.35,5.66 5.61,-1.33 2.19,-0.99 -4.66,0.46 -1.9,-3.62 -2.19,0.99z"/>
    <path class="fil1" d="M445.23 159.42c-0.57,-4.97 0.54,-2.85 -3.51,-4.88 1.85,3.96 0.07,2.35 3.51,4.88z"/>
    <path class="fil1" d="M210.98 75.34c-3.67,1.03 -2.32,-1.88 -1.77,4.09 5.54,-3.98 1.71,1.81 1.77,-4.09z"/>
    <path class="fil1" d="M316.29 321.2c-3.49,3.63 -1.31,2.47 0.31,0.57 2.44,-2.85 2.02,-3 -0.31,-0.57z"/>
   </g>
   <g>
    <path class="fil1" d="M156.42 472.34c3.08,3.84 4.17,1.83 0.71,8.94 -1,-1.03 -1.71,-0.18 -3.01,-3.3 -4.04,-9.65 -1.07,8.48 -0.36,-2.28 0.02,-0.34 2.22,-2.9 2.66,-3.36zm-46.26 -0.52c-0.32,0.29 -0.83,0.67 -0.99,0.86l-4.32 7.62c-0.09,-0.29 -0.36,0.95 -0.59,1.24l-7.28 -0.61c-1.05,-10.58 2.48,-10.69 13.18,-9.11zm0 0c2.92,-2.89 -7.31,-4.41 9.52,-1.84l26.31 5.53c-14.19,6.68 -15.44,0.57 -35.83,-3.69zm-5.91 -8.92c-5.34,-12.03 3.99,-11.54 4.07,-11.58 5.41,2.27 0.78,-2.49 5.59,5.28 -1.55,1.57 -1.39,3.97 -9.66,6.3zm-33.38 -8.01c2.72,-2.66 2.85,-2.06 6.15,-0.32 -2.56,1.88 -1.21,2.62 -6.15,0.32zm376.25 -28.31c0.57,-6.33 1.07,-9.85 3.65,-13.49 11.73,10.24 3.33,13.53 3.31,13.58l-6.96 -0.09zm-251.34 -1.88c-3.12,-1.65 -8.1,-0.04 -2.74,-12.09 1.7,1.33 7.26,2.89 2.74,12.09zm-111.87 -54.39c0.52,0.79 3.8,-2.85 0.75,5.2 -4,-2.54 -4.77,-0.1 -0.75,-5.2zm-14.83 2.09l-0.01 -5.43c8.83,4.84 6.47,2.54 0.01,5.43zm375.16 -37.36c3.42,-1.49 2.68,-2.06 5.98,0 -0.47,0.31 -1.05,0.98 -1.32,1.06 -0.24,0.06 -1.19,0.38 -1.43,0.43l-3.23 -1.49zm-167.82 -5c4.07,9.98 -1.29,6.56 -2.03,7.38 -1.92,-4.02 -2.92,-8.14 -4.33,-14.15l6.36 6.77zm71.8 0.08c8.69,-4.95 4.55,-6.48 12.3,-8.77 4.44,7.86 -1.93,4.65 2.24,11.55 4.55,7.54 4.46,-1.32 5.38,10.31 -5.3,2.43 -1.03,1.74 -7.96,-0.32 4.42,14.38 2.98,9.89 -11.06,3.55 0.19,-6.48 -0.03,-0.09 1.03,-3.85 2.28,-8.11 -0.1,-2.47 -1.93,-12.47zm-31.62 -8.35c-1.62,1.9 -3.8,3.06 -0.31,-0.57 2.33,-2.43 2.75,-2.28 0.31,0.57zm-49.64 2.71l0 -12.05c3.51,3.3 1.6,1.83 5.76,4.22l-5.05 6.79c-0.11,-0.28 -0.48,0.69 -0.71,1.04zm-2.39 -15.88c-0.16,-5.95 2.47,-2.1 3.13,0.41 0.69,2.66 -2.93,7.18 -3.13,-0.41zm173.06 -2.03c0.29,-4.61 -2.47,-0.53 2.19,-0.99 3.42,-0.34 -2.54,6.65 -2.19,0.99zm-169.33 -4.07c1.31,-6.19 2.14,-4.87 6.72,-4.71l-6.72 4.71zm19 -23.98c-5.7,-4.31 -2.26,3.62 -1.97,-3.89 0.27,-6.77 0.07,-1.15 2.68,-1.66l-0.71 5.55zm44.16 -12.74c2.63,-7.08 -3.39,-1.98 6.37,-5.35 -1.24,7.19 4.99,3.67 -6.37,5.35zm-203 -5.99c-0.35,-2.57 1.02,-3.85 2.67,0.59 0.6,1.62 -1.8,5.87 -2.67,-0.59zm237.65 -8.65c-3.98,-3.15 -1.99,-1.1 -4.38,-6.72 4.65,3.2 4.38,-5.25 4.38,6.72zm-85.55 -27.66l6.74 -0.36 -0.04 6.67c-4.93,3.9 -2.57,1.66 -2.62,9.58 -5.97,-0.98 -3.95,-1.67 -7.53,2.36l-2.49 -8.35 -4.76 3.17c-2.78,-10.81 -5.27,-5.42 -4.73,-17.74l6.56 -1.23 9.81 0.88 -4.54 5.42 3.6 -0.4zm195.22 -26.74c6.18,-4.41 2.52,-5.92 7.96,0 -1.53,1.22 2.42,1.33 -3.6,1.83 -10.49,0.89 -0.58,0.59 -4.36,-1.83zm-15.73 -12.2c2.56,-1.7 -6.35,-3.44 4.8,-1.67 -2.74,3.1 4.16,7.6 -4.8,1.67zm-12.69 -11.65c-0.04,-0.29 -0.28,-0.37 -0.38,-0.57 6.89,-2.94 9.39,4.82 7.1,9.29 -1.49,-1.75 -1.94,-2.68 -3.86,-5.19l-1.68 -2.09c-0.13,-0.17 -0.57,-0.68 -0.67,-0.81 -0.08,-0.1 -0.45,-0.3 -0.51,-0.63zm-45.08 -1.37c0.22,-0.08 0.95,-0.1 1.13,-0.14l2.52 2.79c-0.03,0.19 -0.16,0.84 -0.2,1.05 -0.04,0.22 -0.32,0.81 -0.38,1.03l-4.15 6.15c-5.63,-3.56 -2,0.54 -5.34,-6l6.42 -4.88zm32.32 -7.32c2.56,-6.05 3.59,-3.57 6.57,-3.36 -0.85,2.88 -0.38,5.82 -6.57,3.36zm18.52 -4.89c-4.77,3.86 -3.3,5.28 -4.84,-3.38l4.84 3.38zm-299.97 -5.59c3.36,7.01 2.35,6.52 -2.12,12.05 -1.53,-4.21 1.4,2.77 -0.83,-3.3 -0.34,-0.94 -1.58,-3.17 -1.67,-3.63 -1.52,-7.26 -0.45,-3.65 4.62,-5.12zm292.08 5.7c-3.44,-2.53 -1.66,-0.92 -3.51,-4.88 4.05,2.03 2.94,-0.09 3.51,4.88zm47.1 -8.36c-8.11,-2.26 -4.04,1.06 -5.02,-4.47 5.63,1.32 2.06,-1.65 5.02,4.47zm-325.56 -5.44c3.18,-3.91 -0.33,-2.57 5.67,-5.24 -3.47,6.87 3.7,3.34 -5.67,5.24zm126.53 -58.37c7.28,-2.43 4.01,-3.68 10.27,-7.99 14.04,7.86 12.36,8.38 12.76,15.79 -9.52,4.87 -8.58,4.52 -12.05,-1.27 -2.83,4.52 -2.24,3.44 -6.81,6.65 -3.16,-3.84 -3.05,-5.93 -4.17,-13.18zm-84.71 1.79c3.47,3.63 5.33,0.29 4.25,12.45l-6.39 2.59c-0.07,0.03 -4.42,1.71 -4.68,1.84 -1.87,-7.53 -1.02,-11.02 2.32,-16.12 2.48,-10.58 -0.93,1.13 -1.12,-5.52 -0.17,-6.12 -2.36,-0.75 2.98,-4.43 2.52,3.6 0.34,-1.59 2.54,5.07 0.16,0.48 0.12,3.44 0.1,4.12zm135.57 -4.08c-5.58,8.98 -5.79,-4.8 -10.14,11.78l-11.28 -0.52c-1.14,-17.75 3.8,-5.61 -8.89,-15.74l21.43 3.04c3.34,0.62 1.85,1.4 8.88,1.44zm-178.38 -6.18l1.66 0.95c-0.27,-0.6 -1.09,-0.66 -1.66,-0.95zm252.93 0.53l-4.54 -5.2c7.01,2.45 3.25,-3.69 4.54,5.2zm-104.86 1.17c-6.73,-1.06 -1.48,0.72 -5.87,-1.57l7.23 -4.73 -1.36 6.3zm-50.75 0.44c-3.47,-3.52 -7.74,0.9 -0.21,-7.78 1.5,2 1.33,-0.64 1.77,3.66 0.66,6.52 -0.71,2.61 -1.56,4.12zm-87.1 -0.12c-6.23,-3.47 0.62,-4.26 2.87,-5.45 0.12,3.15 0.34,1.95 -0.66,4.29l-2.21 1.16zm251.59 -6.09c-0.16,-1.91 1.9,-2.94 2.92,0.31 1.07,3.41 -2.57,4.07 -2.92,-0.31zm-109.23 0c-0.16,-3.01 1.6,-3.53 2.7,0.36 2.05,7.2 -2.62,1.07 -2.7,-0.36zm-30.25 5.76l4.49 1.15 0.7 5.63 -3.97 12.18c-13.55,-0.59 -2.76,2.38 -6.1,-5.78 -11.97,2.39 -3.32,0.58 -5.12,3.22l-0.84 2.89c-0.03,-0.24 0.02,0.69 -0.92,1.18l-0.69 -4.04 -4.56 4.93 -8.84 -2.05c-0.17,-0.03 -0.68,-0.17 -0.81,-0.19 -3.79,-0.35 1.68,-2.55 -4.66,3.16 -6.81,-3.91 -28.09,1.35 -38.36,-1.28 -2.78,-8.32 -1.39,-17.03 5.83,-20.78 -1.17,-3.88 -0.79,-1.65 -0.01,-3.2 20.3,4.25 13.33,6.58 22.37,10.71 7.22,-4.62 3.26,0.98 6.5,-6.2 -5.65,-3.91 -6.49,-1.86 -0.4,-6.38 3.76,3.3 5.48,-5.06 1.89,6.34l8.49 -1.04 1.83 3.44c6.21,-2.03 6.84,-3.4 14.53,-2.59l-2.2 -7.24c5.08,-1.59 10.05,-2.28 16.27,-0.15 4.95,1.71 0.61,-0.19 3.9,2.36 -6.4,4.44 -2.82,0.26 -9.32,3.73zm-77.13 -5.13c-0.06,5.9 3.77,0.11 -1.77,4.09 -0.55,-5.97 -1.9,-3.06 1.77,-4.09zm265.26 -0.29c-7.3,-0.64 -3.62,1.25 -5.7,-4.22 6.41,2.12 2.93,0.44 5.7,4.22zm-265.26 0.29c2.31,-6.3 -2.58,-4.29 4.35,-3.91 -0.81,6.36 2.06,1.55 -4.35,3.91zm85.88 273.93c1.63,-4.88 -0.86,-1.82 2.64,-4.2 0.42,0.53 1.72,1.89 2.11,2.23 3.31,2.9 4.11,1.66 6.19,5.82l-0.07 8.77c0.17,9.33 -1.91,-9.05 2.11,4.43 1.22,4.07 -0.07,2.2 -1.21,11.51l-3.54 22.58c13.11,3.17 14.2,-3.83 16.21,6.11 -5.13,1.88 -3.77,1.09 -7.17,-2.23l6.79 33.59c2.79,6.23 2.14,1.74 3.58,10.2 4.52,-7.35 -1.32,-3.82 7.54,-3.87 0.63,0.97 3.74,5.08 2.63,8.48 -0.91,2.81 -3.27,2.74 -6.34,4.45 1.88,8.12 -0.4,0.15 4.51,8.93 -11.17,2.5 -4.26,-1.9 -11.07,6.5l-9.87 -6.89c1.37,-5.79 1.32,-3.58 1.69,-4.61 4.53,-12.62 -0.1,-16.55 -4.47,-29.79 -3.59,-10.89 -5.59,-11.56 -11.69,-24.84l-4.03 -6.24c-12.44,4.53 -14.98,2.24 -24.36,2.71l-6.81 1.28c-7.08,8.41 -3.55,7.66 1.68,15.16 4.65,6.69 12.89,50.37 8.49,55.42 -4.72,4.87 -1.94,-0.89 -6.38,-1.62 -4.51,-0.74 -2.04,-0.28 -6.96,1.99 0,-12 -5.18,-13.68 -16.3,-20.32 -10.89,-6.51 -5.67,-2.17 -7.21,-11.33 -1.64,-9.77 -4.32,-2.35 -3.19,-10.68 3.13,-23.14 -8.33,-13.79 5.12,-34.96 -16.57,-2.43 -35.91,-9.72 -46.77,-19.01 -13.62,-11.67 -16.59,-18.9 -21.1,-41.26l-102.98 0.52c-1.21,8.17 1.91,5.9 -0.17,18.04 -1.24,7.24 -2.7,10.84 2.62,16.26 -4.07,13.73 -1.77,36.32 -1.63,54.17l8.57 2.4 0.14 -5.96c4.35,-4.36 4.62,-6.63 11.82,-8.65 3.14,2.33 1,-0.23 4.25,4 3.42,4.45 -0.02,0.01 2.54,4.53l-4.42 3.71c16.85,2.03 14,-1.05 25.95,7.37 -0.88,5.22 -1.89,8.94 -4.48,12.36 -10.52,-3.68 3.65,-5.25 -15.03,-6.86 -34.49,-2.97 -29.98,8.79 -29.18,49.1l98.39 0.05 1.3 -15.77c6.91,5.32 0.73,7.88 6.1,15.76 19.92,-0.75 10.69,-19.22 22.38,-37.85 11.25,12.49 21.86,22.69 39.1,32.33 61.16,34.24 112.97,23.95 172.51,1.89 -3.97,-5.26 -2.97,-6.76 -0.09,-13.39 9.32,2.19 4.56,1.47 8.13,8.06 10.06,-1.34 27.3,-16.93 32.55,-22.56 38.57,-41.49 35.32,-90.72 15.88,-139.87 -10.82,-27.37 -44.88,-48.88 -70.14,-64.15 -26.4,-15.97 -30.69,-7.76 -32.29,-14.35 -0.16,-0.67 -0.56,-0.86 -0.91,-1.24 -7.07,3.74 -7.19,2.59 -15.57,5.34 -0.18,-11.95 1.86,-1.34 1.8,-13.14 -20.78,-5.24 -53.74,-14.4 -71.05,-23.37 -40.04,-20.77 -23.33,-44.39 -6.45,-50.1 13.1,-4.43 118.25,-2.82 119.74,63.53l104.51 0.07 -0.58 -142.03c-6.43,-2.78 -5.2,0.08 -13.3,-4.02 2.12,-0.5 4.53,-0.79 6.85,-1.33l4.75 -1.3c0.26,-0.6 1.04,-0.27 1.53,-0.49l-89.69 -1.67c-2.89,12.93 0.9,5.53 -7.9,9.13l7.01 -8.76c-1.76,-0.24 -5.34,0.06 -6.03,0.06l-14.45 0.2c-3.95,-7.28 -16.45,35.91 -16.99,37.87 -4.75,-4.09 -5.69,-6.46 -9.8,-12.91 -6.23,-9.76 -5.84,-8.28 -10.74,-9.6 -2.51,-5.37 -7.72,-8.11 -13.08,-11.27 -36.7,-21.68 -92.73,-24.26 -133.54,-15.44 -154.16,33.32 -123.63,170.44 -80.99,211.64 6.65,6.42 17.76,13.24 26.82,19.94 25.4,18.79 59.03,36.19 91.45,43.88 -2.01,-19.63 -8.16,-2.11 -11.43,-22.07 -2.07,-12.66 0.4,-15.38 5.56,-23.38 -2.27,-4.68 -4.63,-7.69 -4.98,-10.09 -2.74,-18.59 17.33,-21.17 21.3,-7 0.7,2.49 2.2,26.82 2.16,29.92 -0.18,15.21 -6.16,4.05 0.23,21.75 -7.5,6.45 -6.11,-1.13 -9.96,10.17l8.41 4.64c2.11,0.76 5.03,1.46 7.82,2.3 36.87,11.13 28.9,17.73 42.93,9.32z"/>
    <path class="fil1" d="M224.26 80.69l1.91 6.08c6.55,-2.12 5.44,-0.46 7.7,-5.51l-9.61 -0.57z"/>
   </g>
   <path class="fil1" d="M271.1 101.83l4.56 -4.93 -1.42 -6.59c-5.27,3.1 -2.1,-0.9 -6.73,5.29l3.59 6.23z"/>
  </g>
 </g>
</svg>
